G04 EAGLE Gerber RS-274X export*
G75*
%MOMM*%
%FSLAX34Y34*%
%LPD*%
%INTop Copper*%
%IPPOS*%
%AMOC8*
5,1,8,0,0,1.08239X$1,22.5*%
G01*
%ADD10R,1.500000X1.500000*%
%ADD11R,1.500000X1.500000*%
%ADD12C,0.525000*%
%ADD13C,0.406400*%


D10*
G36*
X-190907Y-101394D02*
X-178621Y-92790D01*
X-170017Y-105076D01*
X-182303Y-113680D01*
X-190907Y-101394D01*
G37*
G36*
X-210983Y-72724D02*
X-198697Y-64120D01*
X-190093Y-76406D01*
X-202379Y-85010D01*
X-210983Y-72724D01*
G37*
D11*
X-26950Y-203200D03*
X-61950Y-203200D03*
X61950Y-203200D03*
X26950Y-203200D03*
D10*
G36*
X202379Y-85010D02*
X190093Y-76406D01*
X198697Y-64120D01*
X210983Y-72724D01*
X202379Y-85010D01*
G37*
G36*
X182303Y-113680D02*
X170017Y-105076D01*
X178621Y-92790D01*
X190907Y-101394D01*
X182303Y-113680D01*
G37*
G36*
X179295Y139410D02*
X166305Y131910D01*
X158805Y144900D01*
X171795Y152400D01*
X179295Y139410D01*
G37*
G36*
X196795Y109100D02*
X183805Y101600D01*
X176305Y114590D01*
X189295Y122090D01*
X196795Y109100D01*
G37*
G36*
X70306Y214223D02*
X63967Y200630D01*
X50374Y206969D01*
X56713Y220562D01*
X70306Y214223D01*
G37*
G36*
X102026Y199431D02*
X95687Y185838D01*
X82094Y192177D01*
X88433Y205770D01*
X102026Y199431D01*
G37*
G36*
X-88433Y205770D02*
X-82094Y192177D01*
X-95687Y185838D01*
X-102026Y199431D01*
X-88433Y205770D01*
G37*
G36*
X-56713Y220562D02*
X-50374Y206969D01*
X-63967Y200630D01*
X-70306Y214223D01*
X-56713Y220562D01*
G37*
G36*
X-189295Y122090D02*
X-176305Y114590D01*
X-183805Y101600D01*
X-196795Y109100D01*
X-189295Y122090D01*
G37*
G36*
X-171795Y152400D02*
X-158805Y144900D01*
X-166305Y131910D01*
X-179295Y139410D01*
X-171795Y152400D01*
G37*
D12*
X-82550Y-203200D03*
D13*
X-61950Y-203200D01*
D12*
X-196850Y-44450D03*
D13*
X-196850Y-70877D01*
X-200538Y-74565D01*
X-26950Y-203200D02*
X-25400Y-201650D01*
X-165100Y-107950D02*
X-169815Y-103235D01*
D12*
X-165100Y-107950D03*
D13*
X-25400Y-184150D02*
X-25400Y-201650D01*
D12*
X-25400Y-184150D03*
D13*
X61950Y-203200D02*
X82550Y-203200D01*
D12*
X82550Y-203200D03*
D13*
X169050Y142155D02*
X158805Y152400D01*
X152400Y152400D01*
D12*
X152400Y152400D03*
D13*
X60340Y210596D02*
X55035Y215900D01*
X44450Y215900D01*
D12*
X44450Y215900D03*
D13*
X-100554Y195804D02*
X-107950Y203200D01*
D12*
X-107950Y203200D03*
D13*
X-186550Y111845D02*
X-196795Y101600D01*
X-203200Y101600D01*
D12*
X-203200Y101600D03*
D13*
X200538Y-74565D02*
X211602Y-63500D01*
X215900Y-63500D01*
D12*
X215900Y-63500D03*
D13*
X-169815Y-103235D02*
X-180462Y-103235D01*
X-100554Y195804D02*
X-92060Y195804D01*
D12*
X152400Y-95250D03*
D13*
X160385Y-103235D02*
X180462Y-103235D01*
X160385Y-103235D02*
X152400Y-95250D01*
D12*
X6350Y-203200D03*
D13*
X26950Y-203200D01*
X92060Y180960D02*
X92060Y195804D01*
X92060Y180960D02*
X88900Y177800D01*
D12*
X88900Y177800D03*
X177800Y88900D03*
D13*
X186550Y97650D02*
X186550Y111845D01*
X186550Y97650D02*
X177800Y88900D01*
X-148505Y142155D02*
X-169050Y142155D01*
X-148505Y142155D02*
X-146050Y139700D01*
D12*
X-146050Y139700D03*
X-44450Y203200D03*
D13*
X-51846Y210596D02*
X-60340Y210596D01*
X-51846Y210596D02*
X-44450Y203200D01*
M02*
