G04 EAGLE Gerber RS-274X export*
G75*
%MOMM*%
%FSLAX34Y34*%
%LPD*%
%IN*%
%IPPOS*%
%AMOC8*
5,1,8,0,0,1.08239X$1,22.5*%
G01*
%ADD10C,0.254000*%


D10*
X239623Y3409D02*
X239623Y9291D01*
X239479Y15171D01*
X239190Y21045D01*
X238758Y26911D01*
X238181Y32764D01*
X237461Y38601D01*
X236598Y44419D01*
X235593Y50214D01*
X234445Y55982D01*
X233156Y61721D01*
X231727Y67426D01*
X230159Y73095D01*
X228451Y78723D01*
X226606Y84308D01*
X224625Y89845D01*
X222508Y95333D01*
X220258Y100767D01*
X217874Y106144D01*
X215359Y111461D01*
X212715Y116714D01*
X209942Y121901D01*
X207043Y127019D01*
X204020Y132063D01*
X200873Y137032D01*
X197606Y141923D01*
X194219Y146731D01*
X190715Y151455D01*
X187097Y156092D01*
X183366Y160639D01*
X179524Y165092D01*
X175574Y169450D01*
X171519Y173710D01*
X167360Y177869D01*
X163100Y181924D01*
X158742Y185874D01*
X154289Y189716D01*
X149742Y193447D01*
X145105Y197065D01*
X140381Y200569D01*
X135573Y203956D01*
X130682Y207223D01*
X125713Y210370D01*
X120669Y213393D01*
X115551Y216292D01*
X110364Y219065D01*
X105111Y221709D01*
X99794Y224224D01*
X94417Y226608D01*
X88983Y228858D01*
X83495Y230975D01*
X77958Y232956D01*
X72373Y234801D01*
X66745Y236509D01*
X61076Y238077D01*
X55371Y239506D01*
X49632Y240795D01*
X43864Y241943D01*
X38069Y242948D01*
X32251Y243811D01*
X26414Y244531D01*
X20561Y245108D01*
X14695Y245540D01*
X8821Y245829D01*
X2941Y245973D01*
X-2941Y245973D01*
X-8821Y245829D01*
X-14695Y245540D01*
X-20561Y245108D01*
X-26414Y244531D01*
X-32251Y243811D01*
X-38069Y242948D01*
X-43864Y241943D01*
X-49632Y240795D01*
X-55371Y239506D01*
X-61076Y238077D01*
X-66745Y236509D01*
X-72373Y234801D01*
X-77958Y232956D01*
X-83495Y230975D01*
X-88983Y228858D01*
X-94417Y226608D01*
X-99794Y224224D01*
X-105111Y221709D01*
X-110364Y219065D01*
X-115551Y216292D01*
X-120669Y213393D01*
X-125713Y210370D01*
X-130682Y207223D01*
X-135573Y203956D01*
X-140381Y200569D01*
X-145105Y197065D01*
X-149742Y193447D01*
X-154289Y189716D01*
X-158742Y185874D01*
X-163100Y181924D01*
X-167360Y177869D01*
X-171519Y173710D01*
X-175574Y169450D01*
X-179524Y165092D01*
X-183366Y160639D01*
X-187097Y156092D01*
X-190715Y151455D01*
X-194219Y146731D01*
X-197606Y141923D01*
X-200873Y137032D01*
X-204020Y132063D01*
X-207043Y127019D01*
X-209942Y121901D01*
X-212715Y116714D01*
X-215359Y111461D01*
X-217874Y106144D01*
X-220258Y100767D01*
X-222508Y95333D01*
X-224625Y89845D01*
X-226606Y84308D01*
X-228451Y78723D01*
X-230159Y73095D01*
X-231727Y67426D01*
X-233156Y61721D01*
X-234445Y55982D01*
X-235593Y50214D01*
X-236598Y44419D01*
X-237461Y38601D01*
X-238181Y32764D01*
X-238758Y26911D01*
X-239190Y21045D01*
X-239479Y15171D01*
X-239623Y9291D01*
X-239623Y3409D01*
X-239479Y-2471D01*
X-239190Y-8345D01*
X-238758Y-14211D01*
X-238181Y-20064D01*
X-237461Y-25901D01*
X-236598Y-31719D01*
X-235593Y-37514D01*
X-234445Y-43282D01*
X-233156Y-49021D01*
X-231727Y-54726D01*
X-230159Y-60395D01*
X-228451Y-66023D01*
X-226606Y-71608D01*
X-224625Y-77145D01*
X-222508Y-82633D01*
X-220258Y-88067D01*
X-217874Y-93444D01*
X-215359Y-98761D01*
X-212715Y-104014D01*
X-209942Y-109201D01*
X-207043Y-114319D01*
X-204020Y-119363D01*
X-200873Y-124332D01*
X-197606Y-129223D01*
X-194219Y-134031D01*
X-190715Y-138755D01*
X-187097Y-143392D01*
X-183366Y-147939D01*
X-179524Y-152392D01*
X-175574Y-156750D01*
X-171519Y-161010D01*
X-167360Y-165169D01*
X-163100Y-169224D01*
X-158742Y-173174D01*
X-154289Y-177016D01*
X-149742Y-180747D01*
X-145105Y-184365D01*
X-140381Y-187869D01*
X-135573Y-191256D01*
X-130682Y-194523D01*
X-125713Y-197670D01*
X-120669Y-200693D01*
X-115551Y-203592D01*
X-110364Y-206365D01*
X-105111Y-209009D01*
X-99794Y-211524D01*
X-94417Y-213908D01*
X-88983Y-216158D01*
X-83495Y-218275D01*
X-77958Y-220256D01*
X-72373Y-222101D01*
X-66745Y-223809D01*
X-61076Y-225377D01*
X-55371Y-226806D01*
X-49632Y-228095D01*
X-43864Y-229243D01*
X-38069Y-230248D01*
X-32251Y-231111D01*
X-26414Y-231831D01*
X-20561Y-232408D01*
X-14695Y-232840D01*
X-8821Y-233129D01*
X-2941Y-233273D01*
X2941Y-233273D01*
X8821Y-233129D01*
X14695Y-232840D01*
X20561Y-232408D01*
X26414Y-231831D01*
X32251Y-231111D01*
X38069Y-230248D01*
X43864Y-229243D01*
X49632Y-228095D01*
X55371Y-226806D01*
X61076Y-225377D01*
X66745Y-223809D01*
X72373Y-222101D01*
X77958Y-220256D01*
X83495Y-218275D01*
X88983Y-216158D01*
X94417Y-213908D01*
X99794Y-211524D01*
X105111Y-209009D01*
X110364Y-206365D01*
X115551Y-203592D01*
X120669Y-200693D01*
X125713Y-197670D01*
X130682Y-194523D01*
X135573Y-191256D01*
X140381Y-187869D01*
X145105Y-184365D01*
X149742Y-180747D01*
X154289Y-177016D01*
X158742Y-173174D01*
X163100Y-169224D01*
X167360Y-165169D01*
X171519Y-161010D01*
X175574Y-156750D01*
X179524Y-152392D01*
X183366Y-147939D01*
X187097Y-143392D01*
X190715Y-138755D01*
X194219Y-134031D01*
X197606Y-129223D01*
X200873Y-124332D01*
X204020Y-119363D01*
X207043Y-114319D01*
X209942Y-109201D01*
X212715Y-104014D01*
X215359Y-98761D01*
X217874Y-93444D01*
X220258Y-88067D01*
X222508Y-82633D01*
X224625Y-77145D01*
X226606Y-71608D01*
X228451Y-66023D01*
X230159Y-60395D01*
X231727Y-54726D01*
X233156Y-49021D01*
X234445Y-43282D01*
X235593Y-37514D01*
X236598Y-31719D01*
X237461Y-25901D01*
X238181Y-20064D01*
X238758Y-14211D01*
X239190Y-8345D01*
X239479Y-2471D01*
X239623Y3409D01*
X18288Y202601D02*
X18210Y201407D01*
X18053Y200219D01*
X17820Y199045D01*
X17510Y197888D01*
X17125Y196755D01*
X16667Y195648D01*
X16137Y194574D01*
X15539Y193538D01*
X14873Y192542D01*
X14144Y191592D01*
X13355Y190692D01*
X12508Y189845D01*
X11608Y189056D01*
X10658Y188327D01*
X9662Y187661D01*
X8626Y187063D01*
X7552Y186533D01*
X6445Y186075D01*
X5312Y185690D01*
X4155Y185380D01*
X2981Y185147D01*
X1794Y184990D01*
X599Y184912D01*
X-599Y184912D01*
X-1794Y184990D01*
X-2981Y185147D01*
X-4155Y185380D01*
X-5312Y185690D01*
X-6445Y186075D01*
X-7552Y186533D01*
X-8626Y187063D01*
X-9662Y187661D01*
X-10658Y188327D01*
X-11608Y189056D01*
X-12508Y189845D01*
X-13355Y190692D01*
X-14144Y191592D01*
X-14873Y192542D01*
X-15539Y193538D01*
X-16137Y194574D01*
X-16667Y195648D01*
X-17125Y196755D01*
X-17510Y197888D01*
X-17820Y199045D01*
X-18053Y200219D01*
X-18210Y201407D01*
X-18288Y202601D01*
X-18288Y203799D01*
X-18210Y204994D01*
X-18053Y206181D01*
X-17820Y207355D01*
X-17510Y208512D01*
X-17125Y209645D01*
X-16667Y210752D01*
X-16137Y211826D01*
X-15539Y212862D01*
X-14873Y213858D01*
X-14144Y214808D01*
X-13355Y215708D01*
X-12508Y216555D01*
X-11608Y217344D01*
X-10658Y218073D01*
X-9662Y218739D01*
X-8626Y219337D01*
X-7552Y219867D01*
X-6445Y220325D01*
X-5312Y220710D01*
X-4155Y221020D01*
X-2981Y221253D01*
X-1794Y221410D01*
X-599Y221488D01*
X599Y221488D01*
X1794Y221410D01*
X2981Y221253D01*
X4155Y221020D01*
X5312Y220710D01*
X6445Y220325D01*
X7552Y219867D01*
X8626Y219337D01*
X9662Y218739D01*
X10658Y218073D01*
X11608Y217344D01*
X12508Y216555D01*
X13355Y215708D01*
X14144Y214808D01*
X14873Y213858D01*
X15539Y212862D01*
X16137Y211826D01*
X16667Y210752D01*
X17125Y209645D01*
X17510Y208512D01*
X17820Y207355D01*
X18053Y206181D01*
X18210Y204994D01*
X18288Y203799D01*
X18288Y202601D01*
M02*
