G04 EAGLE Gerber RS-274X export*
G75*
%MOMM*%
%FSLAX34Y34*%
%LPD*%
%INSilkscreen Bottom*%
%IPPOS*%
%AMOC8*
5,1,8,0,0,1.08239X$1,22.5*%
G01*
%ADD10R,2.011681X0.083819*%
%ADD11R,2.849881X0.083819*%
%ADD12R,3.604256X0.083819*%
%ADD13R,4.191000X0.083819*%
%ADD14R,4.693919X0.083819*%
%ADD15R,5.113019X0.083819*%
%ADD16R,5.532119X0.083819*%
%ADD17R,5.867400X0.083819*%
%ADD18R,6.202681X0.083819*%
%ADD19R,6.537962X0.083819*%
%ADD20R,6.873238X0.083819*%
%ADD21R,7.208519X0.083819*%
%ADD22R,7.459981X0.083819*%
%ADD23R,7.711438X0.083819*%
%ADD24R,7.962900X0.083819*%
%ADD25R,3.771900X0.083819*%
%ADD26R,3.352800X0.083819*%
%ADD27R,2.933700X0.083819*%
%ADD28R,3.101338X0.083819*%
%ADD29R,2.766056X0.083819*%
%ADD30R,3.017519X0.083819*%
%ADD31R,2.514600X0.083819*%
%ADD32R,2.430781X0.083819*%
%ADD33R,2.263138X0.083819*%
%ADD34R,2.179319X0.083819*%
%ADD35R,2.682238X0.083819*%
%ADD36R,2.095500X0.083819*%
%ADD37R,2.598419X0.083819*%
%ADD38R,2.011675X0.083819*%
%ADD39R,1.927856X0.083819*%
%ADD40R,1.844037X0.083819*%
%ADD41R,1.760219X0.083819*%
%ADD42R,2.346956X0.083819*%
%ADD43R,2.430775X0.083819*%
%ADD44R,1.005837X0.083819*%
%ADD45R,1.676400X0.083819*%
%ADD46R,2.849875X0.083819*%
%ADD47R,2.346963X0.083819*%
%ADD48R,3.268981X0.083819*%
%ADD49R,1.592581X0.083819*%
%ADD50R,3.520438X0.083819*%
%ADD51R,1.592575X0.083819*%
%ADD52R,4.107181X0.083819*%
%ADD53R,1.508756X0.083819*%
%ADD54R,4.274819X0.083819*%
%ADD55R,4.442456X0.083819*%
%ADD56R,4.861563X0.083819*%
%ADD57R,1.508763X0.083819*%
%ADD58R,5.029200X0.083819*%
%ADD59R,5.196837X0.083819*%
%ADD60R,5.364481X0.083819*%
%ADD61R,1.424937X0.083819*%
%ADD62R,1.927863X0.083819*%
%ADD63R,1.341119X0.083819*%
%ADD64R,1.257300X0.083819*%
%ADD65R,1.173475X0.083819*%
%ADD66R,1.173481X0.083819*%
%ADD67R,3.436619X0.083819*%
%ADD68R,4.861556X0.083819*%
%ADD69R,4.777738X0.083819*%
%ADD70R,6.537956X0.083819*%
%ADD71R,6.370319X0.083819*%
%ADD72R,6.035038X0.083819*%
%ADD73R,5.699756X0.083819*%
%ADD74R,4.945375X0.083819*%
%ADD75R,4.107175X0.083819*%
%ADD76R,3.939538X0.083819*%
%ADD77R,3.688081X0.083819*%
%ADD78R,4.610100X0.083819*%
%ADD79R,6.621781X0.083819*%
%ADD80R,6.118863X0.083819*%
%ADD81R,5.615938X0.083819*%
%ADD82R,5.280663X0.083819*%
%ADD83R,4.945381X0.083819*%
%ADD84R,3.185156X0.083819*%
%ADD85R,0.670556X0.083819*%
%ADD86R,8.130538X0.083819*%
%ADD87R,7.879081X0.083819*%
%ADD88R,7.627619X0.083819*%
%ADD89R,7.292338X0.083819*%
%ADD90R,7.040881X0.083819*%
%ADD91R,6.705600X0.083819*%
%ADD92R,5.951219X0.083819*%
%ADD93C,0.152400*%
%ADD94R,1.750100X0.750100*%
%ADD95C,0.076200*%


D10*
X2553Y27940D03*
D11*
X2553Y28778D03*
D12*
X2972Y29616D03*
D13*
X2553Y30455D03*
D14*
X2553Y31293D03*
D15*
X2972Y32131D03*
D16*
X2553Y32969D03*
D17*
X2553Y33807D03*
D18*
X2553Y34646D03*
D19*
X2553Y35484D03*
D20*
X2553Y36322D03*
D21*
X2553Y37160D03*
D22*
X2972Y37998D03*
D23*
X2553Y38837D03*
D24*
X2972Y39675D03*
D25*
X-19660Y40513D03*
D26*
X26861Y40513D03*
X-22593Y41351D03*
D27*
X29794Y41351D03*
D28*
X-24689Y42189D03*
D29*
X32309Y42189D03*
D30*
X-26784Y43028D03*
D31*
X34404Y43028D03*
D27*
X-28042Y43866D03*
D32*
X35662Y43866D03*
D11*
X-29299Y44704D03*
D33*
X37338Y44704D03*
D29*
X-30556Y45542D03*
D34*
X38595Y45542D03*
D35*
X-31814Y46380D03*
D36*
X39853Y46380D03*
D37*
X-33071Y47219D03*
D38*
X41110Y47219D03*
D37*
X-33909Y48057D03*
D10*
X41948Y48057D03*
D31*
X-35166Y48895D03*
D39*
X43205Y48895D03*
D31*
X-36005Y49733D03*
D40*
X44463Y49733D03*
D31*
X-36843Y50571D03*
D40*
X45301Y50571D03*
D31*
X-37681Y51410D03*
D40*
X46139Y51410D03*
D32*
X-38938Y52248D03*
D41*
X47396Y52248D03*
D32*
X-39776Y53086D03*
D41*
X48235Y53086D03*
D42*
X-40196Y53924D03*
D41*
X49073Y53924D03*
D43*
X-40615Y54762D03*
D44*
X1714Y54762D03*
D41*
X49911Y54762D03*
D32*
X-41453Y55601D03*
D40*
X1714Y55601D03*
D45*
X50330Y55601D03*
D43*
X-42291Y56439D03*
D42*
X1714Y56439D03*
D45*
X51168Y56439D03*
D42*
X-42710Y57277D03*
D46*
X1714Y57277D03*
D45*
X52007Y57277D03*
D47*
X-43548Y58115D03*
D48*
X2134Y58115D03*
D49*
X52426Y58115D03*
D32*
X-43967Y58953D03*
D50*
X1714Y58953D03*
D49*
X53264Y58953D03*
D42*
X-44387Y59792D03*
D25*
X2134Y59792D03*
D51*
X54102Y59792D03*
D42*
X-45225Y60630D03*
D52*
X2134Y60630D03*
D53*
X54521Y60630D03*
D32*
X-45644Y61468D03*
D54*
X2134Y61468D03*
D53*
X55359Y61468D03*
D42*
X-46063Y62306D03*
D55*
X2134Y62306D03*
D51*
X55778Y62306D03*
D43*
X-46482Y63144D03*
D14*
X2553Y63144D03*
D53*
X56197Y63144D03*
D42*
X-46901Y63983D03*
D56*
X2553Y63983D03*
D57*
X57036Y63983D03*
D32*
X-47320Y64821D03*
D58*
X2553Y64821D03*
D57*
X57036Y64821D03*
D47*
X-47739Y65659D03*
D59*
X2553Y65659D03*
D53*
X57874Y65659D03*
D32*
X-48158Y66497D03*
D60*
X2553Y66497D03*
D61*
X58293Y66497D03*
D32*
X-48158Y67335D03*
D16*
X2553Y67335D03*
D53*
X58712Y67335D03*
D43*
X-48997Y68174D03*
D34*
X-15050Y68174D03*
D31*
X18479Y68174D03*
D61*
X59131Y68174D03*
D43*
X-48997Y69012D03*
D62*
X-16307Y69012D03*
D42*
X20155Y69012D03*
D61*
X59969Y69012D03*
D31*
X-49416Y69850D03*
D40*
X-17564Y69850D03*
D34*
X20993Y69850D03*
D61*
X59969Y69850D03*
D32*
X-49835Y70688D03*
D41*
X-17983Y70688D03*
D36*
X22250Y70688D03*
D63*
X60388Y70688D03*
D31*
X-50254Y71526D03*
D45*
X-19241Y71526D03*
D36*
X23089Y71526D03*
D61*
X60808Y71526D03*
D31*
X-50254Y72365D03*
D51*
X-19660Y72365D03*
D39*
X23927Y72365D03*
D63*
X61227Y72365D03*
D31*
X-50254Y73203D03*
D49*
X-20498Y73203D03*
D39*
X24765Y73203D03*
D61*
X61646Y73203D03*
D37*
X-50673Y74041D03*
D53*
X-20917Y74041D03*
D10*
X25184Y74041D03*
D63*
X62065Y74041D03*
D31*
X-51092Y74879D03*
D53*
X-21755Y74879D03*
D62*
X25603Y74879D03*
D63*
X62065Y74879D03*
D31*
X-51092Y75717D03*
D61*
X-22174Y75717D03*
D10*
X26022Y75717D03*
D61*
X62484Y75717D03*
D37*
X-51511Y76556D03*
D61*
X-22174Y76556D03*
D36*
X25603Y76556D03*
D63*
X62903Y76556D03*
D64*
X-58217Y77394D03*
X-44806Y77394D03*
D61*
X-23012Y77394D03*
D42*
X25184Y77394D03*
D63*
X62903Y77394D03*
D64*
X-58217Y78232D03*
D65*
X-44387Y78232D03*
D61*
X-23012Y78232D03*
D43*
X24765Y78232D03*
D63*
X63741Y78232D03*
D64*
X-59055Y79070D03*
D65*
X-44387Y79070D03*
D63*
X-23432Y79070D03*
D37*
X24765Y79070D03*
D63*
X63741Y79070D03*
D64*
X-59055Y79908D03*
D65*
X-44387Y79908D03*
D63*
X-23432Y79908D03*
D37*
X24765Y79908D03*
D63*
X63741Y79908D03*
D64*
X-59055Y80747D03*
D65*
X-44387Y80747D03*
D63*
X-24270Y80747D03*
D31*
X25184Y80747D03*
D64*
X64160Y80747D03*
D65*
X-59474Y81585D03*
X-44387Y81585D03*
D63*
X-24270Y81585D03*
D37*
X25603Y81585D03*
D63*
X64579Y81585D03*
D64*
X-59893Y82423D03*
D65*
X-44387Y82423D03*
D63*
X-24270Y82423D03*
D31*
X26022Y82423D03*
D63*
X64579Y82423D03*
D64*
X-59893Y83261D03*
D65*
X-44387Y83261D03*
D63*
X-24270Y83261D03*
D43*
X26441Y83261D03*
D63*
X64579Y83261D03*
D64*
X-59893Y84099D03*
D65*
X-44387Y84099D03*
D63*
X-24270Y84099D03*
D43*
X26441Y84099D03*
D64*
X64999Y84099D03*
D66*
X-60312Y84938D03*
D65*
X-44387Y84938D03*
D63*
X-24270Y84938D03*
D31*
X26861Y84938D03*
D64*
X64999Y84938D03*
D66*
X-60312Y85776D03*
D65*
X-44387Y85776D03*
D63*
X-24270Y85776D03*
D32*
X27280Y85776D03*
D63*
X65418Y85776D03*
D66*
X-60312Y86614D03*
D65*
X-44387Y86614D03*
D63*
X-24270Y86614D03*
D32*
X27280Y86614D03*
D63*
X65418Y86614D03*
D64*
X-60731Y87452D03*
X-43967Y87452D03*
D63*
X-24270Y87452D03*
D32*
X27280Y87452D03*
D64*
X65837Y87452D03*
X-60731Y88290D03*
X-43967Y88290D03*
D63*
X-24270Y88290D03*
D31*
X27699Y88290D03*
D64*
X65837Y88290D03*
X-60731Y89129D03*
D66*
X-43548Y89129D03*
D63*
X-24270Y89129D03*
D31*
X27699Y89129D03*
D64*
X65837Y89129D03*
X-60731Y89967D03*
D66*
X-43548Y89967D03*
D64*
X-23851Y89967D03*
D32*
X28118Y89967D03*
D64*
X65837Y89967D03*
X-60731Y90805D03*
X-43129Y90805D03*
X-23851Y90805D03*
D32*
X28118Y90805D03*
D64*
X65837Y90805D03*
X-60731Y91643D03*
X-43129Y91643D03*
X-23851Y91643D03*
D31*
X27699Y91643D03*
D64*
X65837Y91643D03*
X-60731Y92481D03*
D65*
X-42710Y92481D03*
D63*
X-23432Y92481D03*
D31*
X27699Y92481D03*
D63*
X66256Y92481D03*
X-61151Y93320D03*
D64*
X-42291Y93320D03*
D63*
X-23432Y93320D03*
D31*
X27699Y93320D03*
D63*
X66256Y93320D03*
X-61151Y94158D03*
D64*
X-42291Y94158D03*
D63*
X-22593Y94158D03*
D37*
X28118Y94158D03*
D64*
X66675Y94158D03*
D63*
X-61151Y94996D03*
X-41872Y94996D03*
X-22593Y94996D03*
D37*
X28118Y94996D03*
D64*
X66675Y94996D03*
D63*
X-61151Y95834D03*
D64*
X-41453Y95834D03*
D61*
X-22174Y95834D03*
D35*
X27699Y95834D03*
D64*
X66675Y95834D03*
D63*
X-61151Y96672D03*
D64*
X-41453Y96672D03*
D63*
X-21755Y96672D03*
D35*
X27699Y96672D03*
D64*
X66675Y96672D03*
D63*
X-61151Y97511D03*
D64*
X-40615Y97511D03*
D61*
X-21336Y97511D03*
D29*
X27280Y97511D03*
D64*
X66675Y97511D03*
D63*
X-61151Y98349D03*
X-40196Y98349D03*
D53*
X-20917Y98349D03*
D29*
X27280Y98349D03*
D64*
X66675Y98349D03*
D63*
X-61151Y99187D03*
X-40196Y99187D03*
D53*
X-20079Y99187D03*
D46*
X26860Y99187D03*
D64*
X66675Y99187D03*
X-60731Y100025D03*
D63*
X-39357Y100025D03*
D51*
X-19660Y100025D03*
D27*
X26441Y100025D03*
D64*
X66675Y100025D03*
D63*
X-60312Y100863D03*
X-39357Y100863D03*
D49*
X-18821Y100863D03*
D27*
X25603Y100863D03*
D64*
X66675Y100863D03*
D63*
X-60312Y101702D03*
X-38519Y101702D03*
D45*
X-18402Y101702D03*
D30*
X25184Y101702D03*
D64*
X66675Y101702D03*
D63*
X-60312Y102540D03*
D61*
X-38100Y102540D03*
D45*
X-17564Y102540D03*
D28*
X24765Y102540D03*
D64*
X66675Y102540D03*
D63*
X-60312Y103378D03*
D61*
X-37262Y103378D03*
D40*
X-16726Y103378D03*
D48*
X23927Y103378D03*
D63*
X66256Y103378D03*
D61*
X-59893Y104216D03*
D53*
X-36843Y104216D03*
D38*
X-15050Y104216D03*
D67*
X23089Y104216D03*
D63*
X66256Y104216D03*
D61*
X-59893Y105054D03*
D53*
X-36005Y105054D03*
D33*
X-12954Y105054D03*
D25*
X21412Y105054D03*
D63*
X66256Y105054D03*
D61*
X-59893Y105893D03*
D49*
X-35585Y105893D03*
D58*
X1715Y105893D03*
D64*
X33985Y105893D03*
X65837Y105893D03*
D53*
X-59474Y106731D03*
D49*
X-34747Y106731D03*
D58*
X1715Y106731D03*
D66*
X34404Y106731D03*
D64*
X65837Y106731D03*
D53*
X-59474Y107569D03*
D45*
X-33490Y107569D03*
D68*
X1714Y107569D03*
D66*
X33566Y107569D03*
D64*
X65837Y107569D03*
D51*
X-59055Y108407D03*
D41*
X-33071Y108407D03*
D69*
X1295Y108407D03*
D66*
X33566Y108407D03*
D64*
X65837Y108407D03*
D53*
X-58636Y109245D03*
D70*
X-8344Y109245D03*
D66*
X33566Y109245D03*
D64*
X65837Y109245D03*
D53*
X-58636Y110084D03*
D71*
X-8344Y110084D03*
D64*
X33147Y110084D03*
D63*
X65418Y110084D03*
D49*
X-58217Y110922D03*
D18*
X-8344Y110922D03*
D65*
X32728Y110922D03*
D63*
X65418Y110922D03*
D49*
X-58217Y111760D03*
D72*
X-8344Y111760D03*
D65*
X32728Y111760D03*
D63*
X65418Y111760D03*
D45*
X-57798Y112598D03*
D17*
X-8344Y112598D03*
D64*
X32309Y112598D03*
X64999Y112598D03*
D45*
X-56960Y113436D03*
D73*
X-8344Y113436D03*
D66*
X31890Y113436D03*
D64*
X64999Y113436D03*
D45*
X-56960Y114275D03*
D16*
X-8344Y114275D03*
D64*
X31471Y114275D03*
D63*
X64579Y114275D03*
D41*
X-56540Y115113D03*
D60*
X-8344Y115113D03*
D64*
X30632Y115113D03*
D63*
X64579Y115113D03*
D41*
X-56540Y115951D03*
D15*
X-8763Y115951D03*
D64*
X30632Y115951D03*
D63*
X64579Y115951D03*
D41*
X-55702Y116789D03*
D74*
X-8763Y116789D03*
D63*
X30213Y116789D03*
X63741Y116789D03*
D40*
X-55283Y117627D03*
D14*
X-8344Y117627D03*
D63*
X29375Y117627D03*
X63741Y117627D03*
D40*
X-55283Y118466D03*
D55*
X-8763Y118466D03*
D63*
X29375Y118466D03*
X63741Y118466D03*
D39*
X-54864Y119304D03*
D75*
X-8763Y119304D03*
D63*
X28537Y119304D03*
X63741Y119304D03*
D62*
X-54026Y120142D03*
D76*
X-8763Y120142D03*
D63*
X27699Y120142D03*
X62903Y120142D03*
D10*
X-53607Y120980D03*
D50*
X-9182Y120980D03*
D61*
X27280Y120980D03*
D63*
X62903Y120980D03*
D36*
X-53188Y121818D03*
D28*
X-8763Y121818D03*
D61*
X26441Y121818D03*
X62484Y121818D03*
D36*
X-52349Y122657D03*
D35*
X-9182Y122657D03*
D53*
X26022Y122657D03*
D63*
X62065Y122657D03*
D34*
X-51930Y123495D03*
D36*
X-8763Y123495D03*
D53*
X25184Y123495D03*
D63*
X62065Y123495D03*
D33*
X-51511Y124333D03*
D64*
X-8763Y124333D03*
D53*
X24346Y124333D03*
D61*
X61646Y124333D03*
D33*
X-50673Y125171D03*
D49*
X23927Y125171D03*
D63*
X61227Y125171D03*
D42*
X-50254Y126009D03*
D45*
X22670Y126009D03*
D61*
X60808Y126009D03*
D43*
X-48997Y126848D03*
D45*
X21831Y126848D03*
D61*
X60808Y126848D03*
D31*
X-48578Y127686D03*
D45*
X20993Y127686D03*
D61*
X59969Y127686D03*
D37*
X-47320Y128524D03*
D41*
X19736Y128524D03*
D61*
X59969Y128524D03*
D29*
X-47320Y129362D03*
D40*
X18478Y129362D03*
D61*
X59131Y129362D03*
D30*
X-46901Y130200D03*
D39*
X18059Y130200D03*
D53*
X58712Y130200D03*
D26*
X-46901Y131039D03*
D10*
X16802Y131039D03*
D61*
X58293Y131039D03*
D77*
X-46063Y131877D03*
D34*
X15126Y131877D03*
D53*
X57874Y131877D03*
D76*
X-45644Y132715D03*
D33*
X13868Y132715D03*
D61*
X57455Y132715D03*
D54*
X-44806Y133553D03*
D32*
X11354Y133553D03*
D57*
X57036Y133553D03*
D78*
X-42291Y134391D03*
D35*
X9258Y134391D03*
D53*
X56197Y134391D03*
D45*
X-56960Y135230D03*
D20*
X-12535Y135230D03*
D51*
X55778Y135230D03*
D49*
X-56540Y136068D03*
D79*
X-12116Y136068D03*
D53*
X55359Y136068D03*
D45*
X-56121Y136906D03*
D71*
X-12535Y136906D03*
D49*
X54940Y136906D03*
X-55702Y137744D03*
D80*
X-12116Y137744D03*
D51*
X54102Y137744D03*
D45*
X-55283Y138582D03*
D17*
X-12535Y138582D03*
D45*
X53683Y138582D03*
X-54445Y139421D03*
D81*
X-12116Y139421D03*
D45*
X52845Y139421D03*
X-53607Y140259D03*
D82*
X-12116Y140259D03*
D49*
X52426Y140259D03*
D45*
X-53607Y141097D03*
D83*
X-12116Y141097D03*
D45*
X52007Y141097D03*
X-52769Y141935D03*
D78*
X-12116Y141935D03*
D45*
X51168Y141935D03*
X-51930Y142773D03*
D13*
X-11697Y142773D03*
D45*
X50330Y142773D03*
D41*
X-51511Y143612D03*
D77*
X-11697Y143612D03*
D41*
X49911Y143612D03*
X-50673Y144450D03*
D84*
X-11697Y144450D03*
D41*
X49073Y144450D03*
X-49835Y145288D03*
D35*
X-11697Y145288D03*
D40*
X47815Y145288D03*
D41*
X-48997Y146126D03*
D39*
X-11278Y146126D03*
D40*
X46977Y146126D03*
D41*
X-48158Y146964D03*
D85*
X-10859Y146964D03*
D40*
X46139Y146964D03*
X-47739Y147803D03*
D39*
X45720Y147803D03*
X-46482Y148641D03*
D10*
X44463Y148641D03*
D62*
X-45644Y149479D03*
D38*
X43624Y149479D03*
D39*
X-44806Y150317D03*
D10*
X42786Y150317D03*
X-43548Y151155D03*
D36*
X41529Y151155D03*
D38*
X-42710Y151994D03*
D34*
X40272Y151994D03*
D36*
X-41453Y152832D03*
D34*
X39433Y152832D03*
X-40196Y153670D03*
D33*
X38176Y153670D03*
X-38938Y154508D03*
D42*
X36919Y154508D03*
X-37681Y155346D03*
X35242Y155346D03*
D43*
X-36424Y156185D03*
D31*
X33566Y156185D03*
D37*
X-34747Y157023D03*
X32309Y157023D03*
D35*
X-32652Y157861D03*
D29*
X30632Y157861D03*
D11*
X-30975Y158699D03*
D27*
X28118Y158699D03*
D28*
X-28880Y159537D03*
D84*
X26022Y159537D03*
D50*
X-25108Y160376D03*
D77*
X21831Y160376D03*
D86*
X-1219Y161214D03*
D87*
X-1638Y162052D03*
D88*
X-1219Y162890D03*
D89*
X-1219Y163728D03*
D90*
X-1638Y164567D03*
D91*
X-1638Y165405D03*
D71*
X-1638Y166243D03*
D92*
X-2057Y167081D03*
D81*
X-2057Y167919D03*
D15*
X-2057Y168758D03*
D78*
X-2057Y169596D03*
D52*
X-2057Y170434D03*
D50*
X-2477Y171272D03*
D37*
X-2896Y172110D03*
D63*
X-3315Y172949D03*
D93*
X74550Y-16270D02*
X74550Y-34280D01*
X90550Y-34280D02*
X90550Y-16270D01*
D94*
X82563Y-12641D03*
X82563Y-38041D03*
D95*
X84963Y381D02*
X76581Y381D01*
X84963Y381D02*
X84963Y2709D01*
X84961Y2804D01*
X84955Y2899D01*
X84946Y2993D01*
X84932Y3087D01*
X84915Y3181D01*
X84894Y3273D01*
X84869Y3365D01*
X84840Y3455D01*
X84808Y3545D01*
X84772Y3633D01*
X84732Y3719D01*
X84690Y3804D01*
X84643Y3887D01*
X84593Y3968D01*
X84540Y4046D01*
X84484Y4123D01*
X84425Y4197D01*
X84363Y4269D01*
X84298Y4338D01*
X84230Y4405D01*
X84160Y4468D01*
X84086Y4529D01*
X84011Y4587D01*
X83933Y4641D01*
X83853Y4693D01*
X83771Y4741D01*
X83688Y4785D01*
X83602Y4827D01*
X83515Y4864D01*
X83426Y4898D01*
X83336Y4929D01*
X83245Y4956D01*
X83153Y4979D01*
X83060Y4998D01*
X82966Y5013D01*
X82872Y5025D01*
X82777Y5033D01*
X82682Y5037D01*
X82588Y5037D01*
X82493Y5033D01*
X82398Y5025D01*
X82304Y5013D01*
X82210Y4998D01*
X82117Y4979D01*
X82025Y4956D01*
X81934Y4929D01*
X81844Y4898D01*
X81755Y4864D01*
X81668Y4827D01*
X81582Y4785D01*
X81499Y4741D01*
X81417Y4693D01*
X81337Y4641D01*
X81259Y4587D01*
X81184Y4529D01*
X81110Y4468D01*
X81040Y4405D01*
X80972Y4338D01*
X80907Y4269D01*
X80845Y4197D01*
X80786Y4123D01*
X80730Y4046D01*
X80677Y3968D01*
X80627Y3887D01*
X80580Y3804D01*
X80538Y3719D01*
X80498Y3633D01*
X80462Y3545D01*
X80430Y3455D01*
X80401Y3365D01*
X80376Y3273D01*
X80355Y3181D01*
X80338Y3087D01*
X80324Y2993D01*
X80315Y2899D01*
X80309Y2804D01*
X80307Y2709D01*
X80306Y2709D02*
X80306Y381D01*
X80306Y3175D02*
X76581Y5038D01*
X83100Y8556D02*
X84963Y10885D01*
X76581Y10885D01*
X76581Y13213D02*
X76581Y8556D01*
D93*
X-77850Y-16270D02*
X-77850Y-34280D01*
X-61850Y-34280D02*
X-61850Y-16270D01*
D94*
X-69838Y-12641D03*
X-69838Y-38041D03*
D95*
X-67437Y381D02*
X-75819Y381D01*
X-67437Y381D02*
X-67437Y2709D01*
X-67439Y2804D01*
X-67445Y2899D01*
X-67454Y2993D01*
X-67468Y3087D01*
X-67485Y3181D01*
X-67506Y3273D01*
X-67531Y3365D01*
X-67560Y3455D01*
X-67592Y3545D01*
X-67628Y3633D01*
X-67668Y3719D01*
X-67710Y3804D01*
X-67757Y3887D01*
X-67807Y3968D01*
X-67860Y4046D01*
X-67916Y4123D01*
X-67975Y4197D01*
X-68037Y4269D01*
X-68102Y4338D01*
X-68170Y4405D01*
X-68240Y4468D01*
X-68314Y4529D01*
X-68389Y4587D01*
X-68467Y4641D01*
X-68547Y4693D01*
X-68629Y4741D01*
X-68712Y4785D01*
X-68798Y4827D01*
X-68885Y4864D01*
X-68974Y4898D01*
X-69064Y4929D01*
X-69155Y4956D01*
X-69247Y4979D01*
X-69340Y4998D01*
X-69434Y5013D01*
X-69528Y5025D01*
X-69623Y5033D01*
X-69718Y5037D01*
X-69812Y5037D01*
X-69907Y5033D01*
X-70002Y5025D01*
X-70096Y5013D01*
X-70190Y4998D01*
X-70283Y4979D01*
X-70375Y4956D01*
X-70466Y4929D01*
X-70556Y4898D01*
X-70645Y4864D01*
X-70732Y4827D01*
X-70818Y4785D01*
X-70901Y4741D01*
X-70983Y4693D01*
X-71063Y4641D01*
X-71141Y4587D01*
X-71216Y4529D01*
X-71290Y4468D01*
X-71360Y4405D01*
X-71428Y4338D01*
X-71493Y4269D01*
X-71555Y4197D01*
X-71614Y4123D01*
X-71670Y4046D01*
X-71723Y3968D01*
X-71773Y3887D01*
X-71820Y3804D01*
X-71862Y3719D01*
X-71902Y3633D01*
X-71938Y3545D01*
X-71970Y3455D01*
X-71999Y3365D01*
X-72024Y3273D01*
X-72045Y3181D01*
X-72062Y3087D01*
X-72076Y2993D01*
X-72085Y2899D01*
X-72091Y2804D01*
X-72093Y2709D01*
X-72094Y2709D02*
X-72094Y381D01*
X-72094Y3175D02*
X-75819Y5038D01*
X-69533Y13214D02*
X-69444Y13212D01*
X-69355Y13206D01*
X-69267Y13197D01*
X-69179Y13184D01*
X-69091Y13167D01*
X-69005Y13146D01*
X-68919Y13122D01*
X-68835Y13094D01*
X-68751Y13063D01*
X-68670Y13028D01*
X-68589Y12990D01*
X-68511Y12948D01*
X-68434Y12903D01*
X-68359Y12855D01*
X-68287Y12803D01*
X-68216Y12749D01*
X-68148Y12691D01*
X-68083Y12631D01*
X-68020Y12568D01*
X-67960Y12503D01*
X-67902Y12435D01*
X-67848Y12364D01*
X-67796Y12292D01*
X-67748Y12217D01*
X-67703Y12140D01*
X-67661Y12062D01*
X-67623Y11981D01*
X-67588Y11900D01*
X-67557Y11816D01*
X-67529Y11732D01*
X-67505Y11646D01*
X-67484Y11560D01*
X-67467Y11472D01*
X-67454Y11384D01*
X-67445Y11296D01*
X-67439Y11207D01*
X-67437Y11118D01*
X-67439Y11015D01*
X-67445Y10913D01*
X-67455Y10811D01*
X-67468Y10709D01*
X-67486Y10608D01*
X-67507Y10508D01*
X-67532Y10408D01*
X-67561Y10310D01*
X-67594Y10213D01*
X-67630Y10117D01*
X-67670Y10022D01*
X-67714Y9929D01*
X-67761Y9838D01*
X-67811Y9749D01*
X-67865Y9662D01*
X-67922Y9576D01*
X-67982Y9493D01*
X-68046Y9413D01*
X-68112Y9335D01*
X-68182Y9259D01*
X-68254Y9186D01*
X-68329Y9116D01*
X-68407Y9049D01*
X-68487Y8985D01*
X-68569Y8924D01*
X-68654Y8866D01*
X-68741Y8812D01*
X-68830Y8760D01*
X-68920Y8713D01*
X-69013Y8668D01*
X-69107Y8628D01*
X-69203Y8590D01*
X-69300Y8557D01*
X-71163Y12514D02*
X-71099Y12579D01*
X-71032Y12641D01*
X-70963Y12700D01*
X-70891Y12757D01*
X-70818Y12810D01*
X-70742Y12861D01*
X-70664Y12908D01*
X-70584Y12952D01*
X-70503Y12993D01*
X-70420Y13031D01*
X-70335Y13065D01*
X-70249Y13096D01*
X-70162Y13123D01*
X-70074Y13147D01*
X-69986Y13167D01*
X-69896Y13184D01*
X-69806Y13196D01*
X-69715Y13206D01*
X-69624Y13211D01*
X-69533Y13213D01*
X-71162Y12515D02*
X-75819Y8556D01*
X-75819Y13213D01*
D93*
X-103250Y-16270D02*
X-103250Y-34280D01*
X-87250Y-34280D02*
X-87250Y-16270D01*
D94*
X-95238Y-12641D03*
X-95238Y-38041D03*
D95*
X-92837Y381D02*
X-101219Y381D01*
X-92837Y381D02*
X-92837Y2709D01*
X-92839Y2804D01*
X-92845Y2899D01*
X-92854Y2993D01*
X-92868Y3087D01*
X-92885Y3181D01*
X-92906Y3273D01*
X-92931Y3365D01*
X-92960Y3455D01*
X-92992Y3545D01*
X-93028Y3633D01*
X-93068Y3719D01*
X-93110Y3804D01*
X-93157Y3887D01*
X-93207Y3968D01*
X-93260Y4046D01*
X-93316Y4123D01*
X-93375Y4197D01*
X-93437Y4269D01*
X-93502Y4338D01*
X-93570Y4405D01*
X-93640Y4468D01*
X-93714Y4529D01*
X-93789Y4587D01*
X-93867Y4641D01*
X-93947Y4693D01*
X-94029Y4741D01*
X-94112Y4785D01*
X-94198Y4827D01*
X-94285Y4864D01*
X-94374Y4898D01*
X-94464Y4929D01*
X-94555Y4956D01*
X-94647Y4979D01*
X-94740Y4998D01*
X-94834Y5013D01*
X-94928Y5025D01*
X-95023Y5033D01*
X-95118Y5037D01*
X-95212Y5037D01*
X-95307Y5033D01*
X-95402Y5025D01*
X-95496Y5013D01*
X-95590Y4998D01*
X-95683Y4979D01*
X-95775Y4956D01*
X-95866Y4929D01*
X-95956Y4898D01*
X-96045Y4864D01*
X-96132Y4827D01*
X-96218Y4785D01*
X-96301Y4741D01*
X-96383Y4693D01*
X-96463Y4641D01*
X-96541Y4587D01*
X-96616Y4529D01*
X-96690Y4468D01*
X-96760Y4405D01*
X-96828Y4338D01*
X-96893Y4269D01*
X-96955Y4197D01*
X-97014Y4123D01*
X-97070Y4046D01*
X-97123Y3968D01*
X-97173Y3887D01*
X-97220Y3804D01*
X-97262Y3719D01*
X-97302Y3633D01*
X-97338Y3545D01*
X-97370Y3455D01*
X-97399Y3365D01*
X-97424Y3273D01*
X-97445Y3181D01*
X-97462Y3087D01*
X-97476Y2993D01*
X-97485Y2899D01*
X-97491Y2804D01*
X-97493Y2709D01*
X-97494Y2709D02*
X-97494Y381D01*
X-97494Y3175D02*
X-101219Y5038D01*
X-101219Y8556D02*
X-101219Y10885D01*
X-101217Y10980D01*
X-101211Y11075D01*
X-101202Y11169D01*
X-101188Y11263D01*
X-101171Y11357D01*
X-101150Y11449D01*
X-101125Y11541D01*
X-101096Y11631D01*
X-101064Y11721D01*
X-101028Y11809D01*
X-100988Y11895D01*
X-100946Y11980D01*
X-100899Y12063D01*
X-100849Y12144D01*
X-100796Y12222D01*
X-100740Y12299D01*
X-100681Y12373D01*
X-100619Y12445D01*
X-100554Y12514D01*
X-100486Y12581D01*
X-100416Y12644D01*
X-100342Y12705D01*
X-100267Y12763D01*
X-100189Y12817D01*
X-100109Y12869D01*
X-100027Y12917D01*
X-99944Y12961D01*
X-99858Y13003D01*
X-99771Y13040D01*
X-99682Y13074D01*
X-99592Y13105D01*
X-99501Y13132D01*
X-99409Y13155D01*
X-99316Y13174D01*
X-99222Y13189D01*
X-99128Y13201D01*
X-99033Y13209D01*
X-98938Y13213D01*
X-98844Y13213D01*
X-98749Y13209D01*
X-98654Y13201D01*
X-98560Y13189D01*
X-98466Y13174D01*
X-98373Y13155D01*
X-98281Y13132D01*
X-98190Y13105D01*
X-98100Y13074D01*
X-98011Y13040D01*
X-97924Y13003D01*
X-97838Y12961D01*
X-97755Y12917D01*
X-97673Y12869D01*
X-97593Y12817D01*
X-97515Y12763D01*
X-97440Y12705D01*
X-97366Y12644D01*
X-97296Y12581D01*
X-97228Y12514D01*
X-97163Y12445D01*
X-97101Y12373D01*
X-97042Y12299D01*
X-96986Y12222D01*
X-96933Y12144D01*
X-96883Y12063D01*
X-96836Y11980D01*
X-96794Y11895D01*
X-96754Y11809D01*
X-96718Y11721D01*
X-96686Y11631D01*
X-96657Y11541D01*
X-96632Y11449D01*
X-96611Y11357D01*
X-96594Y11263D01*
X-96580Y11169D01*
X-96571Y11075D01*
X-96565Y10980D01*
X-96563Y10885D01*
X-92837Y11350D02*
X-92837Y8556D01*
X-92837Y11350D02*
X-92839Y11435D01*
X-92845Y11519D01*
X-92854Y11604D01*
X-92868Y11687D01*
X-92885Y11770D01*
X-92906Y11853D01*
X-92931Y11934D01*
X-92959Y12014D01*
X-92991Y12092D01*
X-93027Y12169D01*
X-93066Y12245D01*
X-93108Y12318D01*
X-93154Y12389D01*
X-93203Y12459D01*
X-93255Y12526D01*
X-93310Y12590D01*
X-93368Y12652D01*
X-93428Y12712D01*
X-93492Y12768D01*
X-93557Y12822D01*
X-93626Y12872D01*
X-93696Y12919D01*
X-93769Y12963D01*
X-93843Y13004D01*
X-93919Y13041D01*
X-93997Y13075D01*
X-94076Y13105D01*
X-94157Y13132D01*
X-94238Y13155D01*
X-94321Y13174D01*
X-94404Y13189D01*
X-94488Y13201D01*
X-94573Y13209D01*
X-94658Y13213D01*
X-94742Y13213D01*
X-94827Y13209D01*
X-94912Y13201D01*
X-94996Y13189D01*
X-95079Y13174D01*
X-95162Y13155D01*
X-95243Y13132D01*
X-95324Y13105D01*
X-95403Y13075D01*
X-95481Y13041D01*
X-95557Y13004D01*
X-95632Y12963D01*
X-95704Y12919D01*
X-95774Y12872D01*
X-95843Y12822D01*
X-95908Y12768D01*
X-95972Y12712D01*
X-96032Y12652D01*
X-96090Y12590D01*
X-96145Y12526D01*
X-96197Y12459D01*
X-96246Y12389D01*
X-96292Y12318D01*
X-96334Y12245D01*
X-96373Y12169D01*
X-96409Y12092D01*
X-96441Y12014D01*
X-96469Y11934D01*
X-96494Y11853D01*
X-96515Y11770D01*
X-96532Y11687D01*
X-96546Y11604D01*
X-96555Y11519D01*
X-96561Y11435D01*
X-96563Y11350D01*
X-96562Y11350D02*
X-96562Y9488D01*
D93*
X49150Y-16270D02*
X49150Y-34280D01*
X65150Y-34280D02*
X65150Y-16270D01*
D94*
X57163Y-12641D03*
X57163Y-38041D03*
D95*
X59563Y381D02*
X51181Y381D01*
X59563Y381D02*
X59563Y2709D01*
X59561Y2804D01*
X59555Y2899D01*
X59546Y2993D01*
X59532Y3087D01*
X59515Y3181D01*
X59494Y3273D01*
X59469Y3365D01*
X59440Y3455D01*
X59408Y3545D01*
X59372Y3633D01*
X59332Y3719D01*
X59290Y3804D01*
X59243Y3887D01*
X59193Y3968D01*
X59140Y4046D01*
X59084Y4123D01*
X59025Y4197D01*
X58963Y4269D01*
X58898Y4338D01*
X58830Y4405D01*
X58760Y4468D01*
X58686Y4529D01*
X58611Y4587D01*
X58533Y4641D01*
X58453Y4693D01*
X58371Y4741D01*
X58288Y4785D01*
X58202Y4827D01*
X58115Y4864D01*
X58026Y4898D01*
X57936Y4929D01*
X57845Y4956D01*
X57753Y4979D01*
X57660Y4998D01*
X57566Y5013D01*
X57472Y5025D01*
X57377Y5033D01*
X57282Y5037D01*
X57188Y5037D01*
X57093Y5033D01*
X56998Y5025D01*
X56904Y5013D01*
X56810Y4998D01*
X56717Y4979D01*
X56625Y4956D01*
X56534Y4929D01*
X56444Y4898D01*
X56355Y4864D01*
X56268Y4827D01*
X56182Y4785D01*
X56099Y4741D01*
X56017Y4693D01*
X55937Y4641D01*
X55859Y4587D01*
X55784Y4529D01*
X55710Y4468D01*
X55640Y4405D01*
X55572Y4338D01*
X55507Y4269D01*
X55445Y4197D01*
X55386Y4123D01*
X55330Y4046D01*
X55277Y3968D01*
X55227Y3887D01*
X55180Y3804D01*
X55138Y3719D01*
X55098Y3633D01*
X55062Y3545D01*
X55030Y3455D01*
X55001Y3365D01*
X54976Y3273D01*
X54955Y3181D01*
X54938Y3087D01*
X54924Y2993D01*
X54915Y2899D01*
X54909Y2804D01*
X54907Y2709D01*
X54906Y2709D02*
X54906Y381D01*
X54906Y3175D02*
X51181Y5038D01*
X53044Y8556D02*
X59563Y10419D01*
X53044Y8556D02*
X53044Y13213D01*
X54906Y11816D02*
X51181Y11816D01*
D93*
X-1650Y-16270D02*
X-1650Y-34280D01*
X14350Y-34280D02*
X14350Y-16270D01*
D94*
X6363Y-12641D03*
X6363Y-38041D03*
D95*
X8763Y381D02*
X381Y381D01*
X8763Y381D02*
X8763Y2709D01*
X8761Y2804D01*
X8755Y2899D01*
X8746Y2993D01*
X8732Y3087D01*
X8715Y3181D01*
X8694Y3273D01*
X8669Y3365D01*
X8640Y3455D01*
X8608Y3545D01*
X8572Y3633D01*
X8532Y3719D01*
X8490Y3804D01*
X8443Y3887D01*
X8393Y3968D01*
X8340Y4046D01*
X8284Y4123D01*
X8225Y4197D01*
X8163Y4269D01*
X8098Y4338D01*
X8030Y4405D01*
X7960Y4468D01*
X7886Y4529D01*
X7811Y4587D01*
X7733Y4641D01*
X7653Y4693D01*
X7571Y4741D01*
X7488Y4785D01*
X7402Y4827D01*
X7315Y4864D01*
X7226Y4898D01*
X7136Y4929D01*
X7045Y4956D01*
X6953Y4979D01*
X6860Y4998D01*
X6766Y5013D01*
X6672Y5025D01*
X6577Y5033D01*
X6482Y5037D01*
X6388Y5037D01*
X6293Y5033D01*
X6198Y5025D01*
X6104Y5013D01*
X6010Y4998D01*
X5917Y4979D01*
X5825Y4956D01*
X5734Y4929D01*
X5644Y4898D01*
X5555Y4864D01*
X5468Y4827D01*
X5382Y4785D01*
X5299Y4741D01*
X5217Y4693D01*
X5137Y4641D01*
X5059Y4587D01*
X4984Y4529D01*
X4910Y4468D01*
X4840Y4405D01*
X4772Y4338D01*
X4707Y4269D01*
X4645Y4197D01*
X4586Y4123D01*
X4530Y4046D01*
X4477Y3968D01*
X4427Y3887D01*
X4380Y3804D01*
X4338Y3719D01*
X4298Y3633D01*
X4262Y3545D01*
X4230Y3455D01*
X4201Y3365D01*
X4176Y3273D01*
X4155Y3181D01*
X4138Y3087D01*
X4124Y2993D01*
X4115Y2899D01*
X4109Y2804D01*
X4107Y2709D01*
X4106Y2709D02*
X4106Y381D01*
X4106Y3175D02*
X381Y5038D01*
X381Y8556D02*
X381Y11350D01*
X383Y11434D01*
X389Y11517D01*
X398Y11600D01*
X411Y11683D01*
X428Y11765D01*
X448Y11846D01*
X472Y11926D01*
X500Y12005D01*
X531Y12082D01*
X565Y12158D01*
X603Y12233D01*
X645Y12306D01*
X689Y12376D01*
X737Y12445D01*
X787Y12512D01*
X841Y12576D01*
X897Y12637D01*
X957Y12697D01*
X1018Y12753D01*
X1082Y12807D01*
X1149Y12857D01*
X1218Y12905D01*
X1288Y12949D01*
X1361Y12991D01*
X1436Y13029D01*
X1512Y13063D01*
X1589Y13094D01*
X1668Y13122D01*
X1748Y13146D01*
X1829Y13166D01*
X1911Y13183D01*
X1994Y13196D01*
X2077Y13206D01*
X2160Y13211D01*
X2244Y13213D01*
X3175Y13213D01*
X3259Y13211D01*
X3342Y13206D01*
X3425Y13196D01*
X3508Y13183D01*
X3590Y13166D01*
X3671Y13146D01*
X3751Y13122D01*
X3830Y13094D01*
X3907Y13063D01*
X3983Y13029D01*
X4058Y12991D01*
X4131Y12949D01*
X4201Y12905D01*
X4270Y12857D01*
X4337Y12807D01*
X4401Y12753D01*
X4462Y12697D01*
X4522Y12637D01*
X4578Y12576D01*
X4632Y12512D01*
X4682Y12445D01*
X4730Y12376D01*
X4774Y12306D01*
X4816Y12233D01*
X4854Y12158D01*
X4888Y12082D01*
X4919Y12005D01*
X4947Y11926D01*
X4971Y11846D01*
X4991Y11765D01*
X5008Y11683D01*
X5021Y11600D01*
X5031Y11517D01*
X5036Y11434D01*
X5038Y11350D01*
X5038Y8556D01*
X8763Y8556D01*
X8763Y13213D01*
D93*
X23750Y-16270D02*
X23750Y-34280D01*
X39750Y-34280D02*
X39750Y-16270D01*
D94*
X31763Y-12641D03*
X31763Y-38041D03*
D95*
X34163Y381D02*
X25781Y381D01*
X34163Y381D02*
X34163Y2709D01*
X34161Y2804D01*
X34155Y2899D01*
X34146Y2993D01*
X34132Y3087D01*
X34115Y3181D01*
X34094Y3273D01*
X34069Y3365D01*
X34040Y3455D01*
X34008Y3545D01*
X33972Y3633D01*
X33932Y3719D01*
X33890Y3804D01*
X33843Y3887D01*
X33793Y3968D01*
X33740Y4046D01*
X33684Y4123D01*
X33625Y4197D01*
X33563Y4269D01*
X33498Y4338D01*
X33430Y4405D01*
X33360Y4468D01*
X33286Y4529D01*
X33211Y4587D01*
X33133Y4641D01*
X33053Y4693D01*
X32971Y4741D01*
X32888Y4785D01*
X32802Y4827D01*
X32715Y4864D01*
X32626Y4898D01*
X32536Y4929D01*
X32445Y4956D01*
X32353Y4979D01*
X32260Y4998D01*
X32166Y5013D01*
X32072Y5025D01*
X31977Y5033D01*
X31882Y5037D01*
X31788Y5037D01*
X31693Y5033D01*
X31598Y5025D01*
X31504Y5013D01*
X31410Y4998D01*
X31317Y4979D01*
X31225Y4956D01*
X31134Y4929D01*
X31044Y4898D01*
X30955Y4864D01*
X30868Y4827D01*
X30782Y4785D01*
X30699Y4741D01*
X30617Y4693D01*
X30537Y4641D01*
X30459Y4587D01*
X30384Y4529D01*
X30310Y4468D01*
X30240Y4405D01*
X30172Y4338D01*
X30107Y4269D01*
X30045Y4197D01*
X29986Y4123D01*
X29930Y4046D01*
X29877Y3968D01*
X29827Y3887D01*
X29780Y3804D01*
X29738Y3719D01*
X29698Y3633D01*
X29662Y3545D01*
X29630Y3455D01*
X29601Y3365D01*
X29576Y3273D01*
X29555Y3181D01*
X29538Y3087D01*
X29524Y2993D01*
X29515Y2899D01*
X29509Y2804D01*
X29507Y2709D01*
X29506Y2709D02*
X29506Y381D01*
X29506Y3175D02*
X25781Y5038D01*
X30438Y8556D02*
X30438Y11350D01*
X30436Y11434D01*
X30431Y11517D01*
X30421Y11600D01*
X30408Y11683D01*
X30391Y11765D01*
X30371Y11846D01*
X30347Y11926D01*
X30319Y12005D01*
X30288Y12082D01*
X30254Y12158D01*
X30216Y12233D01*
X30174Y12306D01*
X30130Y12376D01*
X30082Y12445D01*
X30032Y12512D01*
X29978Y12576D01*
X29922Y12637D01*
X29862Y12697D01*
X29801Y12753D01*
X29737Y12807D01*
X29670Y12857D01*
X29601Y12905D01*
X29531Y12949D01*
X29458Y12991D01*
X29383Y13029D01*
X29307Y13063D01*
X29230Y13094D01*
X29151Y13122D01*
X29071Y13146D01*
X28990Y13166D01*
X28908Y13183D01*
X28825Y13196D01*
X28742Y13206D01*
X28659Y13211D01*
X28575Y13213D01*
X28109Y13213D01*
X28014Y13211D01*
X27919Y13205D01*
X27825Y13196D01*
X27731Y13182D01*
X27637Y13165D01*
X27545Y13144D01*
X27453Y13119D01*
X27363Y13090D01*
X27273Y13058D01*
X27185Y13022D01*
X27099Y12982D01*
X27014Y12940D01*
X26931Y12893D01*
X26850Y12843D01*
X26772Y12790D01*
X26695Y12734D01*
X26621Y12675D01*
X26549Y12613D01*
X26480Y12548D01*
X26413Y12480D01*
X26350Y12410D01*
X26289Y12336D01*
X26231Y12261D01*
X26177Y12183D01*
X26125Y12103D01*
X26077Y12021D01*
X26033Y11938D01*
X25991Y11852D01*
X25954Y11765D01*
X25920Y11676D01*
X25889Y11586D01*
X25862Y11495D01*
X25839Y11403D01*
X25820Y11310D01*
X25805Y11216D01*
X25793Y11122D01*
X25785Y11027D01*
X25781Y10932D01*
X25781Y10838D01*
X25785Y10743D01*
X25793Y10648D01*
X25805Y10554D01*
X25820Y10460D01*
X25839Y10367D01*
X25862Y10275D01*
X25889Y10184D01*
X25920Y10094D01*
X25954Y10005D01*
X25991Y9918D01*
X26033Y9832D01*
X26077Y9749D01*
X26125Y9667D01*
X26177Y9587D01*
X26231Y9509D01*
X26289Y9434D01*
X26350Y9360D01*
X26413Y9290D01*
X26480Y9222D01*
X26549Y9157D01*
X26621Y9095D01*
X26695Y9036D01*
X26772Y8980D01*
X26850Y8927D01*
X26931Y8877D01*
X27014Y8830D01*
X27099Y8788D01*
X27185Y8748D01*
X27273Y8712D01*
X27363Y8680D01*
X27453Y8651D01*
X27545Y8626D01*
X27637Y8605D01*
X27731Y8588D01*
X27825Y8574D01*
X27919Y8565D01*
X28014Y8559D01*
X28109Y8557D01*
X28109Y8556D02*
X30438Y8556D01*
X30438Y8557D02*
X30560Y8559D01*
X30682Y8565D01*
X30803Y8575D01*
X30924Y8589D01*
X31045Y8607D01*
X31165Y8629D01*
X31284Y8654D01*
X31402Y8684D01*
X31519Y8717D01*
X31635Y8755D01*
X31750Y8796D01*
X31863Y8841D01*
X31975Y8889D01*
X32086Y8941D01*
X32194Y8997D01*
X32300Y9056D01*
X32405Y9119D01*
X32507Y9185D01*
X32608Y9254D01*
X32706Y9327D01*
X32801Y9403D01*
X32894Y9481D01*
X32984Y9563D01*
X33072Y9648D01*
X33157Y9736D01*
X33239Y9826D01*
X33317Y9919D01*
X33393Y10014D01*
X33466Y10112D01*
X33535Y10212D01*
X33601Y10315D01*
X33664Y10419D01*
X33723Y10526D01*
X33779Y10634D01*
X33831Y10745D01*
X33879Y10856D01*
X33924Y10970D01*
X33965Y11085D01*
X34003Y11201D01*
X34036Y11318D01*
X34066Y11436D01*
X34091Y11555D01*
X34113Y11675D01*
X34131Y11796D01*
X34145Y11917D01*
X34155Y12038D01*
X34161Y12160D01*
X34163Y12282D01*
D93*
X-52450Y-16270D02*
X-52450Y-34280D01*
X-36450Y-34280D02*
X-36450Y-16270D01*
D94*
X-44438Y-12641D03*
X-44438Y-38041D03*
D95*
X-42037Y381D02*
X-50419Y381D01*
X-42037Y381D02*
X-42037Y2709D01*
X-42039Y2804D01*
X-42045Y2899D01*
X-42054Y2993D01*
X-42068Y3087D01*
X-42085Y3181D01*
X-42106Y3273D01*
X-42131Y3365D01*
X-42160Y3455D01*
X-42192Y3545D01*
X-42228Y3633D01*
X-42268Y3719D01*
X-42310Y3804D01*
X-42357Y3887D01*
X-42407Y3968D01*
X-42460Y4046D01*
X-42516Y4123D01*
X-42575Y4197D01*
X-42637Y4269D01*
X-42702Y4338D01*
X-42770Y4405D01*
X-42840Y4468D01*
X-42914Y4529D01*
X-42989Y4587D01*
X-43067Y4641D01*
X-43147Y4693D01*
X-43229Y4741D01*
X-43312Y4785D01*
X-43398Y4827D01*
X-43485Y4864D01*
X-43574Y4898D01*
X-43664Y4929D01*
X-43755Y4956D01*
X-43847Y4979D01*
X-43940Y4998D01*
X-44034Y5013D01*
X-44128Y5025D01*
X-44223Y5033D01*
X-44318Y5037D01*
X-44412Y5037D01*
X-44507Y5033D01*
X-44602Y5025D01*
X-44696Y5013D01*
X-44790Y4998D01*
X-44883Y4979D01*
X-44975Y4956D01*
X-45066Y4929D01*
X-45156Y4898D01*
X-45245Y4864D01*
X-45332Y4827D01*
X-45418Y4785D01*
X-45501Y4741D01*
X-45583Y4693D01*
X-45663Y4641D01*
X-45741Y4587D01*
X-45816Y4529D01*
X-45890Y4468D01*
X-45960Y4405D01*
X-46028Y4338D01*
X-46093Y4269D01*
X-46155Y4197D01*
X-46214Y4123D01*
X-46270Y4046D01*
X-46323Y3968D01*
X-46373Y3887D01*
X-46420Y3804D01*
X-46462Y3719D01*
X-46502Y3633D01*
X-46538Y3545D01*
X-46570Y3455D01*
X-46599Y3365D01*
X-46624Y3273D01*
X-46645Y3181D01*
X-46662Y3087D01*
X-46676Y2993D01*
X-46685Y2899D01*
X-46691Y2804D01*
X-46693Y2709D01*
X-46694Y2709D02*
X-46694Y381D01*
X-46694Y3175D02*
X-50419Y5038D01*
X-42968Y8556D02*
X-42037Y8556D01*
X-42037Y13213D01*
X-50419Y10885D01*
D93*
X-27050Y-16270D02*
X-27050Y-34280D01*
X-11050Y-34280D02*
X-11050Y-16270D01*
D94*
X-19038Y-12641D03*
X-19038Y-38041D03*
D95*
X-16637Y381D02*
X-25019Y381D01*
X-16637Y381D02*
X-16637Y2709D01*
X-16639Y2804D01*
X-16645Y2899D01*
X-16654Y2993D01*
X-16668Y3087D01*
X-16685Y3181D01*
X-16706Y3273D01*
X-16731Y3365D01*
X-16760Y3455D01*
X-16792Y3545D01*
X-16828Y3633D01*
X-16868Y3719D01*
X-16910Y3804D01*
X-16957Y3887D01*
X-17007Y3968D01*
X-17060Y4046D01*
X-17116Y4123D01*
X-17175Y4197D01*
X-17237Y4269D01*
X-17302Y4338D01*
X-17370Y4405D01*
X-17440Y4468D01*
X-17514Y4529D01*
X-17589Y4587D01*
X-17667Y4641D01*
X-17747Y4693D01*
X-17829Y4741D01*
X-17912Y4785D01*
X-17998Y4827D01*
X-18085Y4864D01*
X-18174Y4898D01*
X-18264Y4929D01*
X-18355Y4956D01*
X-18447Y4979D01*
X-18540Y4998D01*
X-18634Y5013D01*
X-18728Y5025D01*
X-18823Y5033D01*
X-18918Y5037D01*
X-19012Y5037D01*
X-19107Y5033D01*
X-19202Y5025D01*
X-19296Y5013D01*
X-19390Y4998D01*
X-19483Y4979D01*
X-19575Y4956D01*
X-19666Y4929D01*
X-19756Y4898D01*
X-19845Y4864D01*
X-19932Y4827D01*
X-20018Y4785D01*
X-20101Y4741D01*
X-20183Y4693D01*
X-20263Y4641D01*
X-20341Y4587D01*
X-20416Y4529D01*
X-20490Y4468D01*
X-20560Y4405D01*
X-20628Y4338D01*
X-20693Y4269D01*
X-20755Y4197D01*
X-20814Y4123D01*
X-20870Y4046D01*
X-20923Y3968D01*
X-20973Y3887D01*
X-21020Y3804D01*
X-21062Y3719D01*
X-21102Y3633D01*
X-21138Y3545D01*
X-21170Y3455D01*
X-21199Y3365D01*
X-21224Y3273D01*
X-21245Y3181D01*
X-21262Y3087D01*
X-21276Y2993D01*
X-21285Y2899D01*
X-21291Y2804D01*
X-21293Y2709D01*
X-21294Y2709D02*
X-21294Y381D01*
X-21294Y3175D02*
X-25019Y5038D01*
X-22691Y8557D02*
X-22596Y8559D01*
X-22501Y8565D01*
X-22407Y8574D01*
X-22313Y8588D01*
X-22219Y8605D01*
X-22127Y8626D01*
X-22035Y8651D01*
X-21945Y8680D01*
X-21855Y8712D01*
X-21767Y8748D01*
X-21681Y8788D01*
X-21596Y8830D01*
X-21513Y8877D01*
X-21432Y8927D01*
X-21354Y8980D01*
X-21277Y9036D01*
X-21203Y9095D01*
X-21131Y9157D01*
X-21062Y9222D01*
X-20995Y9290D01*
X-20932Y9360D01*
X-20871Y9434D01*
X-20813Y9509D01*
X-20759Y9587D01*
X-20707Y9667D01*
X-20659Y9749D01*
X-20615Y9832D01*
X-20573Y9918D01*
X-20536Y10005D01*
X-20502Y10094D01*
X-20471Y10184D01*
X-20444Y10275D01*
X-20421Y10367D01*
X-20402Y10460D01*
X-20387Y10554D01*
X-20375Y10648D01*
X-20367Y10743D01*
X-20363Y10838D01*
X-20363Y10932D01*
X-20367Y11027D01*
X-20375Y11122D01*
X-20387Y11216D01*
X-20402Y11310D01*
X-20421Y11403D01*
X-20444Y11495D01*
X-20471Y11586D01*
X-20502Y11676D01*
X-20536Y11765D01*
X-20573Y11852D01*
X-20615Y11938D01*
X-20659Y12021D01*
X-20707Y12103D01*
X-20759Y12183D01*
X-20813Y12261D01*
X-20871Y12336D01*
X-20932Y12410D01*
X-20995Y12480D01*
X-21062Y12548D01*
X-21131Y12613D01*
X-21203Y12675D01*
X-21277Y12734D01*
X-21354Y12790D01*
X-21432Y12843D01*
X-21513Y12893D01*
X-21596Y12940D01*
X-21681Y12982D01*
X-21767Y13022D01*
X-21855Y13058D01*
X-21945Y13090D01*
X-22035Y13119D01*
X-22127Y13144D01*
X-22219Y13165D01*
X-22313Y13182D01*
X-22407Y13196D01*
X-22501Y13205D01*
X-22596Y13211D01*
X-22691Y13213D01*
X-22786Y13211D01*
X-22881Y13205D01*
X-22975Y13196D01*
X-23069Y13182D01*
X-23163Y13165D01*
X-23255Y13144D01*
X-23347Y13119D01*
X-23437Y13090D01*
X-23527Y13058D01*
X-23615Y13022D01*
X-23701Y12982D01*
X-23786Y12940D01*
X-23869Y12893D01*
X-23950Y12843D01*
X-24028Y12790D01*
X-24105Y12734D01*
X-24179Y12675D01*
X-24251Y12613D01*
X-24320Y12548D01*
X-24387Y12480D01*
X-24450Y12410D01*
X-24511Y12336D01*
X-24569Y12261D01*
X-24623Y12183D01*
X-24675Y12103D01*
X-24723Y12021D01*
X-24767Y11938D01*
X-24809Y11852D01*
X-24846Y11765D01*
X-24880Y11676D01*
X-24911Y11586D01*
X-24938Y11495D01*
X-24961Y11403D01*
X-24980Y11310D01*
X-24995Y11216D01*
X-25007Y11122D01*
X-25015Y11027D01*
X-25019Y10932D01*
X-25019Y10838D01*
X-25015Y10743D01*
X-25007Y10648D01*
X-24995Y10554D01*
X-24980Y10460D01*
X-24961Y10367D01*
X-24938Y10275D01*
X-24911Y10184D01*
X-24880Y10094D01*
X-24846Y10005D01*
X-24809Y9918D01*
X-24767Y9832D01*
X-24723Y9749D01*
X-24675Y9667D01*
X-24623Y9587D01*
X-24569Y9509D01*
X-24511Y9434D01*
X-24450Y9360D01*
X-24387Y9290D01*
X-24320Y9222D01*
X-24251Y9157D01*
X-24179Y9095D01*
X-24105Y9036D01*
X-24028Y8980D01*
X-23950Y8927D01*
X-23869Y8877D01*
X-23786Y8830D01*
X-23701Y8788D01*
X-23615Y8748D01*
X-23527Y8712D01*
X-23437Y8680D01*
X-23347Y8651D01*
X-23255Y8626D01*
X-23163Y8605D01*
X-23069Y8588D01*
X-22975Y8574D01*
X-22881Y8565D01*
X-22786Y8559D01*
X-22691Y8557D01*
X-18500Y9022D02*
X-18415Y9024D01*
X-18331Y9030D01*
X-18246Y9039D01*
X-18163Y9053D01*
X-18080Y9070D01*
X-17997Y9091D01*
X-17916Y9116D01*
X-17836Y9144D01*
X-17758Y9176D01*
X-17681Y9212D01*
X-17605Y9251D01*
X-17532Y9293D01*
X-17461Y9339D01*
X-17391Y9388D01*
X-17324Y9440D01*
X-17260Y9495D01*
X-17198Y9553D01*
X-17138Y9613D01*
X-17082Y9677D01*
X-17028Y9742D01*
X-16978Y9811D01*
X-16931Y9881D01*
X-16887Y9953D01*
X-16846Y10028D01*
X-16809Y10104D01*
X-16775Y10182D01*
X-16745Y10261D01*
X-16718Y10342D01*
X-16695Y10423D01*
X-16676Y10506D01*
X-16661Y10589D01*
X-16649Y10673D01*
X-16641Y10758D01*
X-16637Y10843D01*
X-16637Y10927D01*
X-16641Y11012D01*
X-16649Y11097D01*
X-16661Y11181D01*
X-16676Y11264D01*
X-16695Y11347D01*
X-16718Y11428D01*
X-16745Y11509D01*
X-16775Y11588D01*
X-16809Y11666D01*
X-16846Y11742D01*
X-16887Y11816D01*
X-16931Y11889D01*
X-16978Y11959D01*
X-17028Y12028D01*
X-17082Y12093D01*
X-17138Y12157D01*
X-17198Y12217D01*
X-17260Y12275D01*
X-17324Y12330D01*
X-17391Y12382D01*
X-17461Y12431D01*
X-17532Y12477D01*
X-17605Y12519D01*
X-17681Y12558D01*
X-17758Y12594D01*
X-17836Y12626D01*
X-17916Y12654D01*
X-17997Y12679D01*
X-18080Y12700D01*
X-18163Y12717D01*
X-18246Y12731D01*
X-18331Y12740D01*
X-18415Y12746D01*
X-18500Y12748D01*
X-18585Y12746D01*
X-18669Y12740D01*
X-18754Y12731D01*
X-18837Y12717D01*
X-18920Y12700D01*
X-19003Y12679D01*
X-19084Y12654D01*
X-19164Y12626D01*
X-19242Y12594D01*
X-19319Y12558D01*
X-19395Y12519D01*
X-19468Y12477D01*
X-19539Y12431D01*
X-19609Y12382D01*
X-19676Y12330D01*
X-19740Y12275D01*
X-19802Y12217D01*
X-19862Y12157D01*
X-19918Y12093D01*
X-19972Y12028D01*
X-20022Y11959D01*
X-20069Y11889D01*
X-20113Y11817D01*
X-20154Y11742D01*
X-20191Y11666D01*
X-20225Y11588D01*
X-20255Y11509D01*
X-20282Y11428D01*
X-20305Y11347D01*
X-20324Y11264D01*
X-20339Y11181D01*
X-20351Y11097D01*
X-20359Y11012D01*
X-20363Y10927D01*
X-20363Y10843D01*
X-20359Y10758D01*
X-20351Y10673D01*
X-20339Y10589D01*
X-20324Y10506D01*
X-20305Y10423D01*
X-20282Y10342D01*
X-20255Y10261D01*
X-20225Y10182D01*
X-20191Y10104D01*
X-20154Y10028D01*
X-20113Y9954D01*
X-20069Y9881D01*
X-20022Y9811D01*
X-19972Y9742D01*
X-19918Y9677D01*
X-19862Y9613D01*
X-19802Y9553D01*
X-19740Y9495D01*
X-19676Y9440D01*
X-19609Y9388D01*
X-19539Y9339D01*
X-19468Y9293D01*
X-19395Y9251D01*
X-19319Y9212D01*
X-19242Y9176D01*
X-19164Y9144D01*
X-19084Y9116D01*
X-19003Y9091D01*
X-18920Y9070D01*
X-18837Y9053D01*
X-18754Y9039D01*
X-18669Y9030D01*
X-18585Y9024D01*
X-18500Y9022D01*
D93*
X19050Y-59665D02*
X25400Y-72365D01*
X19050Y-59665D02*
X31750Y-59665D01*
X25400Y-72365D01*
X32664Y-146685D02*
X41910Y-146685D01*
X-41910Y-146685D02*
X-41910Y-94615D01*
X-32664Y-94615D01*
X41910Y-94615D02*
X41910Y-146685D01*
X-32664Y-146685D02*
X-41910Y-146685D01*
X-18136Y-94615D02*
X-7264Y-94615D01*
X-7264Y-146685D02*
X-18136Y-146685D01*
X7264Y-94615D02*
X18136Y-94615D01*
X18136Y-146685D02*
X7264Y-146685D01*
X32664Y-94615D02*
X41910Y-94615D01*
D95*
X-35941Y-84638D02*
X-43900Y-84638D01*
X-39920Y-80659D02*
X-39920Y-88618D01*
X-41247Y-152583D02*
X-35941Y-152583D01*
X38308Y-77343D02*
X41624Y-79996D01*
X38308Y-77343D02*
X38308Y-89281D01*
X41624Y-89281D02*
X34992Y-89281D01*
X37976Y-149479D02*
X37869Y-149481D01*
X37763Y-149487D01*
X37657Y-149496D01*
X37551Y-149509D01*
X37446Y-149526D01*
X37341Y-149547D01*
X37238Y-149572D01*
X37135Y-149600D01*
X37033Y-149632D01*
X36933Y-149667D01*
X36834Y-149706D01*
X36736Y-149749D01*
X36640Y-149795D01*
X36545Y-149844D01*
X36453Y-149897D01*
X36362Y-149953D01*
X36274Y-150012D01*
X36187Y-150074D01*
X36103Y-150140D01*
X36021Y-150208D01*
X35942Y-150279D01*
X35865Y-150353D01*
X35791Y-150430D01*
X35720Y-150509D01*
X35652Y-150591D01*
X35586Y-150675D01*
X35524Y-150762D01*
X35465Y-150850D01*
X35409Y-150941D01*
X35356Y-151033D01*
X35307Y-151128D01*
X35261Y-151224D01*
X35218Y-151322D01*
X35179Y-151421D01*
X35144Y-151521D01*
X35112Y-151623D01*
X35084Y-151726D01*
X35059Y-151829D01*
X35038Y-151934D01*
X35021Y-152039D01*
X35008Y-152145D01*
X34999Y-152251D01*
X34993Y-152357D01*
X34991Y-152464D01*
X37976Y-149479D02*
X38097Y-149481D01*
X38217Y-149487D01*
X38337Y-149496D01*
X38457Y-149509D01*
X38576Y-149526D01*
X38695Y-149547D01*
X38813Y-149571D01*
X38930Y-149600D01*
X39046Y-149631D01*
X39162Y-149667D01*
X39276Y-149706D01*
X39388Y-149749D01*
X39500Y-149795D01*
X39610Y-149844D01*
X39718Y-149898D01*
X39824Y-149954D01*
X39929Y-150014D01*
X40032Y-150077D01*
X40132Y-150143D01*
X40231Y-150212D01*
X40327Y-150285D01*
X40421Y-150360D01*
X40513Y-150438D01*
X40602Y-150520D01*
X40689Y-150604D01*
X40773Y-150690D01*
X40854Y-150779D01*
X40932Y-150871D01*
X41007Y-150965D01*
X41079Y-151062D01*
X41149Y-151160D01*
X41215Y-151261D01*
X41278Y-151364D01*
X41337Y-151469D01*
X41394Y-151575D01*
X41447Y-151684D01*
X41496Y-151793D01*
X41542Y-151905D01*
X41585Y-152018D01*
X41623Y-152132D01*
X35986Y-154786D02*
X35906Y-154706D01*
X35828Y-154624D01*
X35754Y-154540D01*
X35682Y-154452D01*
X35614Y-154363D01*
X35548Y-154270D01*
X35486Y-154176D01*
X35428Y-154080D01*
X35373Y-153981D01*
X35321Y-153881D01*
X35273Y-153779D01*
X35228Y-153675D01*
X35188Y-153570D01*
X35151Y-153463D01*
X35117Y-153355D01*
X35088Y-153246D01*
X35062Y-153136D01*
X35041Y-153025D01*
X35023Y-152914D01*
X35009Y-152802D01*
X34999Y-152690D01*
X34993Y-152577D01*
X34991Y-152464D01*
X35987Y-154785D02*
X41624Y-161417D01*
X34992Y-161417D01*
D93*
X25400Y-72365D02*
X19050Y-59665D01*
X31750Y-59665D01*
X25400Y-72365D01*
X40640Y-145415D02*
X-40640Y-145415D01*
X-40640Y-95885D01*
X40640Y-95885D01*
X40640Y-145415D01*
M02*
