G04 EAGLE Gerber RS-274X export*
G75*
%MOMM*%
%FSLAX34Y34*%
%LPD*%
%INSilkscreen Top*%
%IPPOS*%
%AMOC8*
5,1,8,0,0,1.08239X$1,22.5*%
G01*
%ADD10R,27.073856X0.083819*%
%ADD11R,27.325319X0.083819*%
%ADD12R,27.576781X0.083819*%
%ADD13R,27.828238X0.083819*%
%ADD14R,28.079700X0.083819*%
%ADD15R,28.331156X0.083819*%
%ADD16R,28.498800X0.083819*%
%ADD17R,28.750256X0.083819*%
%ADD18R,29.001719X0.083819*%
%ADD19R,29.169356X0.083819*%
%ADD20R,29.420819X0.083819*%
%ADD21R,29.672275X0.083819*%
%ADD22R,29.839919X0.083819*%
%ADD23R,30.091381X0.083819*%
%ADD24R,30.342838X0.083819*%
%ADD25R,30.510475X0.083819*%
%ADD26R,30.761938X0.083819*%
%ADD27R,30.929581X0.083819*%
%ADD28R,31.181038X0.083819*%
%ADD29R,31.348675X0.083819*%
%ADD30R,31.516319X0.083819*%
%ADD31R,31.767781X0.083819*%
%ADD32R,31.935419X0.083819*%
%ADD33R,32.186875X0.083819*%
%ADD34R,32.354519X0.083819*%
%ADD35R,32.522156X0.083819*%
%ADD36R,32.689800X0.083819*%
%ADD37R,32.941256X0.083819*%
%ADD38R,33.108900X0.083819*%
%ADD39R,33.276538X0.083819*%
%ADD40R,33.444181X0.083819*%
%ADD41R,33.611819X0.083819*%
%ADD42R,33.863275X0.083819*%
%ADD43R,34.030919X0.083819*%
%ADD44R,34.198556X0.083819*%
%ADD45R,34.366200X0.083819*%
%ADD46R,34.533838X0.083819*%
%ADD47R,34.701475X0.083819*%
%ADD48R,34.869119X0.083819*%
%ADD49R,35.036756X0.083819*%
%ADD50R,35.204400X0.083819*%
%ADD51R,35.372038X0.083819*%
%ADD52R,35.539675X0.083819*%
%ADD53R,35.707319X0.083819*%
%ADD54R,35.791138X0.083819*%
%ADD55R,35.958781X0.083819*%
%ADD56R,36.126419X0.083819*%
%ADD57R,36.294056X0.083819*%
%ADD58R,36.461700X0.083819*%
%ADD59R,36.629337X0.083819*%
%ADD60R,36.713156X0.083819*%
%ADD61R,36.880800X0.083819*%
%ADD62R,37.048437X0.083819*%
%ADD63R,37.216075X0.083819*%
%ADD64R,37.299900X0.083819*%
%ADD65R,37.467537X0.083819*%
%ADD66R,37.635181X0.083819*%
%ADD67R,37.802819X0.083819*%
%ADD68R,37.886637X0.083819*%
%ADD69R,38.054275X0.083819*%
%ADD70R,38.221919X0.083819*%
%ADD71R,38.305737X0.083819*%
%ADD72R,38.473381X0.083819*%
%ADD73R,38.557200X0.083819*%
%ADD74R,38.724837X0.083819*%
%ADD75R,38.808656X0.083819*%
%ADD76R,38.976300X0.083819*%
%ADD77R,39.060119X0.083819*%
%ADD78R,39.227756X0.083819*%
%ADD79R,39.311581X0.083819*%
%ADD80R,0.251456X0.083819*%
%ADD81R,0.167637X0.083819*%
%ADD82R,0.502919X0.083819*%
%ADD83R,0.419100X0.083819*%
%ADD84R,0.335281X0.083819*%
%ADD85R,0.251463X0.083819*%
%ADD86R,0.586738X0.083819*%
%ADD87R,0.838200X0.083819*%
%ADD88R,0.754381X0.083819*%
%ADD89R,1.005837X0.083819*%
%ADD90R,0.083819X0.083819*%
%ADD91R,0.754375X0.083819*%
%ADD92R,0.922019X0.083819*%
%ADD93R,0.670556X0.083819*%
%ADD94R,0.335275X0.083819*%
%ADD95R,2.933700X0.083819*%
%ADD96R,4.107175X0.083819*%
%ADD97R,5.113019X0.083819*%
%ADD98R,5.783575X0.083819*%
%ADD99R,6.454138X0.083819*%
%ADD100R,6.957056X0.083819*%
%ADD101R,7.459975X0.083819*%
%ADD102R,7.962900X0.083819*%
%ADD103R,8.465819X0.083819*%
%ADD104R,8.801100X0.083819*%
%ADD105R,9.304019X0.083819*%
%ADD106R,9.639300X0.083819*%
%ADD107R,9.974575X0.083819*%
%ADD108R,10.309856X0.083819*%
%ADD109R,10.645138X0.083819*%
%ADD110R,10.980419X0.083819*%
%ADD111R,11.231875X0.083819*%
%ADD112R,11.483338X0.083819*%
%ADD113R,11.818619X0.083819*%
%ADD114R,12.070075X0.083819*%
%ADD115R,12.321537X0.083819*%
%ADD116R,12.573000X0.083819*%
%ADD117R,12.740638X0.083819*%
%ADD118R,13.075919X0.083819*%
%ADD119R,13.243556X0.083819*%
%ADD120R,13.411200X0.083819*%
%ADD121R,13.746475X0.083819*%
%ADD122R,13.914119X0.083819*%
%ADD123R,14.081756X0.083819*%
%ADD124R,14.249400X0.083819*%
%ADD125R,14.500856X0.083819*%
%ADD126R,14.668500X0.083819*%
%ADD127R,14.919956X0.083819*%
%ADD128R,15.087600X0.083819*%
%ADD129R,15.255238X0.083819*%
%ADD130R,15.422875X0.083819*%
%ADD131R,15.590519X0.083819*%
%ADD132R,15.758156X0.083819*%
%ADD133R,15.925800X0.083819*%
%ADD134R,16.093438X0.083819*%
%ADD135R,16.261075X0.083819*%
%ADD136R,16.428719X0.083819*%
%ADD137R,16.596356X0.083819*%
%ADD138R,16.764000X0.083819*%
%ADD139R,16.847819X0.083819*%
%ADD140R,16.931638X0.083819*%
%ADD141R,17.015456X0.083819*%
%ADD142R,17.015463X0.083819*%
%ADD143R,16.680175X0.083819*%
%ADD144R,9.052556X0.083819*%
%ADD145R,8.549638X0.083819*%
%ADD146R,8.214356X0.083819*%
%ADD147R,5.280656X0.083819*%
%ADD148R,8.046719X0.083819*%
%ADD149R,4.945381X0.083819*%
%ADD150R,7.795263X0.083819*%
%ADD151R,4.610100X0.083819*%
%ADD152R,7.711438X0.083819*%
%ADD153R,4.358638X0.083819*%
%ADD154R,7.543800X0.083819*%
%ADD155R,3.855719X0.083819*%
%ADD156R,7.292338X0.083819*%
%ADD157R,3.604263X0.083819*%
%ADD158R,3.352800X0.083819*%
%ADD159R,7.124700X0.083819*%
%ADD160R,3.101338X0.083819*%
%ADD161R,2.682238X0.083819*%
%ADD162R,6.957063X0.083819*%
%ADD163R,2.514600X0.083819*%
%ADD164R,6.873238X0.083819*%
%ADD165R,2.263138X0.083819*%
%ADD166R,2.095500X0.083819*%
%ADD167R,6.789419X0.083819*%
%ADD168R,1.844037X0.083819*%
%ADD169R,6.705600X0.083819*%
%ADD170R,1.676400X0.083819*%
%ADD171R,1.508763X0.083819*%
%ADD172R,6.621775X0.083819*%
%ADD173R,1.341119X0.083819*%
%ADD174R,6.621781X0.083819*%
%ADD175R,1.089656X0.083819*%
%ADD176R,6.537956X0.083819*%
%ADD177R,6.370319X0.083819*%
%ADD178R,6.286500X0.083819*%
%ADD179R,6.202681X0.083819*%
%ADD180R,6.202675X0.083819*%
%ADD181R,6.118856X0.083819*%
%ADD182R,6.035038X0.083819*%
%ADD183R,0.670563X0.083819*%
%ADD184R,1.173475X0.083819*%
%ADD185R,5.951219X0.083819*%
%ADD186R,1.257300X0.083819*%
%ADD187R,1.173481X0.083819*%
%ADD188R,5.867400X0.083819*%
%ADD189R,1.760219X0.083819*%
%ADD190R,2.849875X0.083819*%
%ADD191R,2.766056X0.083819*%
%ADD192R,2.598419X0.083819*%
%ADD193R,2.430775X0.083819*%
%ADD194R,2.346956X0.083819*%
%ADD195R,2.179319X0.083819*%
%ADD196R,1.927856X0.083819*%
%ADD197R,1.508756X0.083819*%
%ADD198R,1.424937X0.083819*%
%ADD199R,1.089662X0.083819*%
%ADD200R,5.783581X0.083819*%
%ADD201R,2.849881X0.083819*%
%ADD202R,1.592575X0.083819*%
%ADD203R,2.011675X0.083819*%
%ADD204R,7.040875X0.083819*%
%ADD205R,7.040881X0.083819*%
%ADD206R,7.208519X0.083819*%
%ADD207R,7.376156X0.083819*%
%ADD208R,3.604256X0.083819*%
%ADD209R,4.107181X0.083819*%
%ADD210R,7.879081X0.083819*%
%ADD211R,4.693919X0.083819*%
%ADD212R,5.029200X0.083819*%
%ADD213R,5.448300X0.083819*%
%ADD214R,8.633456X0.083819*%
%ADD215R,16.344900X0.083819*%
%ADD216R,16.261081X0.083819*%
%ADD217R,16.512538X0.083819*%
%ADD218R,15.422881X0.083819*%
%ADD219R,14.752319X0.083819*%
%ADD220R,14.417038X0.083819*%
%ADD221R,14.333219X0.083819*%
%ADD222R,14.165581X0.083819*%
%ADD223R,14.081762X0.083819*%
%ADD224R,13.830300X0.083819*%
%ADD225R,13.746481X0.083819*%
%ADD226R,13.662663X0.083819*%
%ADD227R,10.393681X0.083819*%
%ADD228R,10.142219X0.083819*%
%ADD229R,9.890756X0.083819*%
%ADD230R,6.118863X0.083819*%
%ADD231R,3.185156X0.083819*%
%ADD232R,3.520438X0.083819*%
%ADD233R,3.185163X0.083819*%
%ADD234R,3.268981X0.083819*%
%ADD235R,3.436619X0.083819*%
%ADD236R,3.688075X0.083819*%
%ADD237R,3.688081X0.083819*%
%ADD238R,3.771900X0.083819*%
%ADD239R,3.939538X0.083819*%
%ADD240R,4.023356X0.083819*%
%ADD241R,4.274819X0.083819*%
%ADD242R,4.191000X0.083819*%
%ADD243R,4.442463X0.083819*%
%ADD244R,4.442456X0.083819*%
%ADD245R,4.526275X0.083819*%
%ADD246R,4.861556X0.083819*%
%ADD247R,5.532119X0.083819*%
%ADD248R,12.237719X0.083819*%
%ADD249R,12.070081X0.083819*%
%ADD250R,11.902438X0.083819*%
%ADD251R,11.734800X0.083819*%
%ADD252R,11.567156X0.083819*%
%ADD253R,11.399519X0.083819*%
%ADD254R,11.315700X0.083819*%
%ADD255R,11.148056X0.083819*%
%ADD256R,11.064238X0.083819*%
%ADD257R,10.896600X0.083819*%
%ADD258R,10.812775X0.083819*%
%ADD259R,10.477500X0.083819*%
%ADD260R,9.806938X0.083819*%
%ADD261R,9.387837X0.083819*%
%ADD262R,9.136375X0.083819*%
%ADD263R,8.968737X0.083819*%
%ADD264R,8.717275X0.083819*%
%ADD265R,8.298175X0.083819*%
%ADD266R,5.615938X0.083819*%
%ADD267R,2.430781X0.083819*%
%ADD268C,0.101600*%
%ADD269R,0.500000X0.125000*%
%ADD270R,0.225000X0.325000*%
%ADD271R,0.125000X0.225000*%
%ADD272R,0.425000X0.125000*%
%ADD273R,0.500000X0.350000*%
%ADD274R,0.600000X0.125000*%
%ADD275R,1.700000X0.300000*%
%ADD276R,1.700000X0.700000*%
%ADD277R,0.325000X0.425000*%
%ADD278R,0.350000X0.350000*%
%ADD279R,0.125000X0.500000*%
%ADD280R,0.325000X0.225000*%
%ADD281R,0.225000X0.125000*%
%ADD282R,0.125000X0.425000*%
%ADD283R,0.350000X0.500000*%
%ADD284R,0.125000X0.600000*%
%ADD285R,0.300000X1.700000*%
%ADD286R,0.700000X1.700000*%
%ADD287R,0.425000X0.325000*%
%ADD288R,0.350000X0.350000*%


D10*
X-838Y-191948D03*
D11*
X-419Y-191110D03*
D12*
X-838Y-190271D03*
D13*
X-419Y-189433D03*
D14*
X-838Y-188595D03*
D15*
X-419Y-187757D03*
D16*
X-419Y-186919D03*
D17*
X-838Y-186080D03*
D18*
X-419Y-185242D03*
D19*
X-419Y-184404D03*
D20*
X-838Y-183566D03*
D21*
X-419Y-182728D03*
D22*
X-419Y-181889D03*
D23*
X-838Y-181051D03*
D24*
X-419Y-180213D03*
D25*
X-419Y-179375D03*
D26*
X-838Y-178537D03*
D27*
X-838Y-177698D03*
D28*
X-419Y-176860D03*
D29*
X-419Y-176022D03*
D30*
X-419Y-175184D03*
D31*
X-838Y-174346D03*
D32*
X-838Y-173507D03*
D33*
X-419Y-172669D03*
D34*
X-419Y-171831D03*
D35*
X-419Y-170993D03*
D36*
X-419Y-170155D03*
D37*
X-838Y-169316D03*
D38*
X-838Y-168478D03*
D39*
X-838Y-167640D03*
D40*
X-838Y-166802D03*
D41*
X-838Y-165964D03*
D42*
X-419Y-165125D03*
D43*
X-419Y-164287D03*
D44*
X-419Y-163449D03*
D45*
X-419Y-162611D03*
D46*
X-419Y-161773D03*
D47*
X-419Y-160934D03*
D48*
X-419Y-160096D03*
D49*
X-419Y-159258D03*
D50*
X-419Y-158420D03*
D51*
X-419Y-157582D03*
D52*
X-419Y-156743D03*
D53*
X-419Y-155905D03*
D54*
X-838Y-155067D03*
D55*
X-838Y-154229D03*
D56*
X-838Y-153391D03*
D57*
X-838Y-152552D03*
D58*
X-838Y-151714D03*
D59*
X-838Y-150876D03*
D60*
X-419Y-150038D03*
D61*
X-419Y-149200D03*
D62*
X-419Y-148361D03*
D63*
X-419Y-147523D03*
D64*
X-838Y-146685D03*
D65*
X-838Y-145847D03*
D66*
X-838Y-145009D03*
D67*
X-838Y-144170D03*
D68*
X-419Y-143332D03*
D69*
X-419Y-142494D03*
D70*
X-419Y-141656D03*
D71*
X-838Y-140818D03*
D72*
X-838Y-139979D03*
D73*
X-419Y-139141D03*
D74*
X-419Y-138303D03*
D75*
X-838Y-137465D03*
D76*
X-838Y-136627D03*
D77*
X-419Y-135788D03*
D78*
X-419Y-134950D03*
D79*
X-838Y-134112D03*
D80*
X-144170Y-129921D03*
D81*
X-163030Y-129083D03*
D80*
X-144170Y-129083D03*
D81*
X-162192Y-128245D03*
D80*
X-143332Y-128245D03*
D81*
X-191529Y-127406D03*
D80*
X-186080Y-127406D03*
D82*
X-181470Y-127406D03*
D80*
X-176022Y-127406D03*
D81*
X-173088Y-127406D03*
D83*
X-167640Y-127406D03*
D81*
X-162192Y-127406D03*
X-155486Y-127406D03*
D80*
X-151714Y-127406D03*
X-148361Y-127406D03*
X-143332Y-127406D03*
X-134950Y-127406D03*
D81*
X-130340Y-127406D03*
D82*
X-126149Y-127406D03*
D81*
X-121120Y-127406D03*
D80*
X-117348Y-127406D03*
D81*
X-113576Y-127406D03*
D82*
X-109385Y-127406D03*
D80*
X-100584Y-127406D03*
D84*
X-95974Y-127406D03*
D81*
X-191529Y-126568D03*
D83*
X-185242Y-126568D03*
D85*
X-179375Y-126568D03*
D80*
X-176022Y-126568D03*
D81*
X-173088Y-126568D03*
D86*
X-167640Y-126568D03*
D85*
X-162611Y-126568D03*
D81*
X-155486Y-126568D03*
D80*
X-151714Y-126568D03*
X-148361Y-126568D03*
D84*
X-143751Y-126568D03*
D80*
X-134950Y-126568D03*
D83*
X-129083Y-126568D03*
D81*
X-124473Y-126568D03*
X-121120Y-126568D03*
D80*
X-117348Y-126568D03*
D81*
X-113576Y-126568D03*
X-111062Y-126568D03*
D80*
X-107290Y-126568D03*
X-100584Y-126568D03*
D82*
X-95974Y-126568D03*
D81*
X-191529Y-125730D03*
D87*
X-183147Y-125730D03*
D80*
X-176022Y-125730D03*
D81*
X-173088Y-125730D03*
X-169736Y-125730D03*
X-165545Y-125730D03*
X-162192Y-125730D03*
X-155486Y-125730D03*
D80*
X-151714Y-125730D03*
X-148361Y-125730D03*
D83*
X-143332Y-125730D03*
D80*
X-134950Y-125730D03*
D83*
X-129083Y-125730D03*
D81*
X-124473Y-125730D03*
X-121120Y-125730D03*
D80*
X-117348Y-125730D03*
D88*
X-110642Y-125730D03*
D82*
X-99327Y-125730D03*
D81*
X-94298Y-125730D03*
X-191529Y-124892D03*
D87*
X-183147Y-124892D03*
D80*
X-176022Y-124892D03*
D81*
X-173088Y-124892D03*
X-169736Y-124892D03*
X-165545Y-124892D03*
X-155486Y-124892D03*
D80*
X-151714Y-124892D03*
X-148361Y-124892D03*
D81*
X-144590Y-124892D03*
X-142075Y-124892D03*
D80*
X-134950Y-124892D03*
D81*
X-130340Y-124892D03*
D82*
X-126149Y-124892D03*
D81*
X-121120Y-124892D03*
D80*
X-117348Y-124892D03*
D88*
X-110642Y-124892D03*
D80*
X-100584Y-124892D03*
D82*
X-95974Y-124892D03*
D81*
X-191529Y-124054D03*
D87*
X-183147Y-124054D03*
D80*
X-176022Y-124054D03*
D81*
X-173088Y-124054D03*
X-169736Y-124054D03*
D80*
X-165125Y-124054D03*
D81*
X-155486Y-124054D03*
D80*
X-151714Y-124054D03*
X-148361Y-124054D03*
X-145009Y-124054D03*
D81*
X-142075Y-124054D03*
D80*
X-134950Y-124054D03*
D81*
X-130340Y-124054D03*
D82*
X-126149Y-124054D03*
D81*
X-121120Y-124054D03*
D80*
X-117348Y-124054D03*
D88*
X-110642Y-124054D03*
D80*
X-100584Y-124054D03*
D83*
X-96393Y-124054D03*
D89*
X-187338Y-123215D03*
D90*
X-179375Y-123215D03*
D80*
X-176022Y-123215D03*
D81*
X-173088Y-123215D03*
D80*
X-169316Y-123215D03*
D81*
X-165545Y-123215D03*
X-155486Y-123215D03*
D80*
X-151714Y-123215D03*
X-148361Y-123215D03*
D81*
X-145428Y-123215D03*
D85*
X-141656Y-123215D03*
D80*
X-134950Y-123215D03*
X-130759Y-123215D03*
D82*
X-126149Y-123215D03*
D85*
X-120701Y-123215D03*
D80*
X-117348Y-123215D03*
D81*
X-113576Y-123215D03*
X-111062Y-123215D03*
D90*
X-107290Y-123215D03*
D80*
X-100584Y-123215D03*
D81*
X-97650Y-123215D03*
X-94298Y-123215D03*
D91*
X-188595Y-122377D03*
D83*
X-181889Y-122377D03*
D80*
X-176022Y-122377D03*
D81*
X-173088Y-122377D03*
D86*
X-167640Y-122377D03*
D92*
X-151714Y-122377D03*
D81*
X-145428Y-122377D03*
X-141237Y-122377D03*
D93*
X-132855Y-122377D03*
D82*
X-126149Y-122377D03*
D92*
X-117348Y-122377D03*
D83*
X-109804Y-122377D03*
D80*
X-100584Y-122377D03*
D82*
X-95974Y-122377D03*
D81*
X-191529Y-121539D03*
D80*
X-186080Y-121539D03*
X-181889Y-121539D03*
X-176022Y-121539D03*
D81*
X-173088Y-121539D03*
D83*
X-167640Y-121539D03*
D81*
X-155486Y-121539D03*
D80*
X-152552Y-121539D03*
X-149200Y-121539D03*
D90*
X-145847Y-121539D03*
D81*
X-141237Y-121539D03*
D90*
X-134950Y-121539D03*
D94*
X-126149Y-121539D03*
D81*
X-121120Y-121539D03*
D80*
X-118186Y-121539D03*
D81*
X-114414Y-121539D03*
D80*
X-109804Y-121539D03*
D81*
X-101003Y-121539D03*
D85*
X-95555Y-121539D03*
D81*
X-191529Y-120701D03*
D80*
X-186080Y-120701D03*
X-176022Y-120701D03*
D81*
X-173088Y-120701D03*
X-101003Y-120701D03*
X-191529Y-119863D03*
D80*
X-186080Y-119863D03*
X-176022Y-119863D03*
D81*
X-173088Y-119863D03*
D80*
X-100584Y-119863D03*
D81*
X-191529Y-119024D03*
X-186500Y-119024D03*
D80*
X3353Y-103099D03*
D95*
X4191Y-102260D03*
D96*
X4191Y-101422D03*
D97*
X4191Y-100584D03*
D98*
X4191Y-99746D03*
D99*
X4191Y-98908D03*
D100*
X4191Y-98069D03*
D101*
X4191Y-97231D03*
D102*
X4191Y-96393D03*
D103*
X4191Y-95555D03*
D104*
X4191Y-94717D03*
D105*
X4191Y-93878D03*
D106*
X4191Y-93040D03*
D107*
X4191Y-92202D03*
D108*
X4191Y-91364D03*
D109*
X4191Y-90526D03*
D110*
X4191Y-89687D03*
D111*
X3772Y-88849D03*
D112*
X4191Y-88011D03*
D113*
X4191Y-87173D03*
D114*
X3772Y-86335D03*
D115*
X4191Y-85496D03*
D116*
X3772Y-84658D03*
D117*
X3772Y-83820D03*
D118*
X3772Y-82982D03*
D119*
X3772Y-82144D03*
D120*
X3772Y-81305D03*
D121*
X3772Y-80467D03*
D122*
X3772Y-79629D03*
D123*
X3772Y-78791D03*
D124*
X3772Y-77953D03*
D125*
X3353Y-77114D03*
D126*
X3353Y-76276D03*
D127*
X3772Y-75438D03*
D128*
X3772Y-74600D03*
D129*
X3772Y-73762D03*
D130*
X3772Y-72923D03*
D131*
X3772Y-72085D03*
D132*
X3772Y-71247D03*
D133*
X3772Y-70409D03*
D134*
X3772Y-69571D03*
D135*
X3772Y-68732D03*
D136*
X3772Y-67894D03*
D137*
X3772Y-67056D03*
D138*
X3772Y-66218D03*
D139*
X3353Y-65380D03*
D140*
X3772Y-64541D03*
D141*
X3353Y-63703D03*
X2515Y-62865D03*
X1676Y-62027D03*
D142*
X838Y-61189D03*
D140*
X419Y-60350D03*
X-419Y-59512D03*
X-1257Y-58674D03*
X-2096Y-57836D03*
D139*
X-2515Y-56998D03*
X-3353Y-56159D03*
X-4191Y-55321D03*
D138*
X-4610Y-54483D03*
X-5448Y-53645D03*
X-6286Y-52807D03*
D143*
X-6706Y-51968D03*
D144*
X-45682Y-51130D03*
D99*
X43586Y-51130D03*
D145*
X-48197Y-50292D03*
D98*
X46101Y-50292D03*
D146*
X-50711Y-49454D03*
D147*
X47777Y-49454D03*
D148*
X-52388Y-48616D03*
D149*
X48616Y-48616D03*
D150*
X-53645Y-47777D03*
D151*
X49454Y-47777D03*
D152*
X-54902Y-46939D03*
D153*
X49873Y-46939D03*
D154*
X-55740Y-46101D03*
D96*
X50292Y-46101D03*
D101*
X-56998Y-45263D03*
D155*
X50711Y-45263D03*
D156*
X-57836Y-44425D03*
D157*
X51130Y-44425D03*
D156*
X-58674Y-43586D03*
D158*
X51549Y-43586D03*
D159*
X-59512Y-42748D03*
D160*
X51968Y-42748D03*
D159*
X-60350Y-41910D03*
D95*
X51968Y-41910D03*
D100*
X-61189Y-41072D03*
D161*
X52388Y-41072D03*
D162*
X-62027Y-40234D03*
D163*
X52388Y-40234D03*
D164*
X-62446Y-39395D03*
D165*
X52807Y-39395D03*
D164*
X-63284Y-38557D03*
D166*
X52807Y-38557D03*
D167*
X-63703Y-37719D03*
D168*
X53226Y-37719D03*
D169*
X-64122Y-36881D03*
D170*
X53226Y-36881D03*
D169*
X-64960Y-36043D03*
D171*
X53226Y-36043D03*
D172*
X-65380Y-35204D03*
D173*
X53226Y-35204D03*
D174*
X-66218Y-34366D03*
D175*
X53645Y-34366D03*
D176*
X-66637Y-33528D03*
D92*
X53645Y-33528D03*
D99*
X-67056Y-32690D03*
D88*
X53645Y-32690D03*
D99*
X-67894Y-31852D03*
D86*
X53645Y-31852D03*
D99*
X-67894Y-31013D03*
D83*
X53645Y-31013D03*
D177*
X-68313Y-30175D03*
D80*
X53645Y-30175D03*
D177*
X-69152Y-29337D03*
D90*
X53645Y-29337D03*
D177*
X-69152Y-28499D03*
D178*
X-69571Y-27661D03*
X-70409Y-26822D03*
X-70409Y-25984D03*
D179*
X-70828Y-25146D03*
D178*
X-71247Y-24308D03*
D180*
X-71666Y-23470D03*
X-71666Y-22631D03*
D181*
X-72085Y-21793D03*
D179*
X-72504Y-20955D03*
D181*
X-72923Y-20117D03*
X-72923Y-19279D03*
D83*
X190271Y-19279D03*
D182*
X-73343Y-18440D03*
D88*
X191110Y-18440D03*
D181*
X-73762Y-17602D03*
D87*
X191529Y-17602D03*
D181*
X-73762Y-16764D03*
D88*
X191948Y-16764D03*
D182*
X-74181Y-15926D03*
D183*
X145428Y-15926D03*
D93*
X168059Y-15926D03*
D88*
X191948Y-15926D03*
D182*
X-74181Y-15088D03*
D175*
X145847Y-15088D03*
D89*
X168897Y-15088D03*
D87*
X192367Y-15088D03*
D182*
X-74181Y-14249D03*
D184*
X146266Y-14249D03*
D175*
X169316Y-14249D03*
D87*
X192367Y-14249D03*
D185*
X-74600Y-13411D03*
D186*
X146685Y-13411D03*
D184*
X169736Y-13411D03*
D91*
X192786Y-13411D03*
D182*
X-75019Y-12573D03*
D175*
X146685Y-12573D03*
D184*
X169736Y-12573D03*
D91*
X192786Y-12573D03*
D182*
X-75019Y-11735D03*
D175*
X146685Y-11735D03*
D184*
X169736Y-11735D03*
D91*
X192786Y-11735D03*
D185*
X-75438Y-10897D03*
D89*
X146266Y-10897D03*
D187*
X170574Y-10897D03*
D93*
X192367Y-10897D03*
D185*
X-75438Y-10058D03*
D92*
X145847Y-10058D03*
D187*
X170574Y-10058D03*
D93*
X192367Y-10058D03*
D185*
X-75438Y-9220D03*
D87*
X146266Y-9220D03*
D187*
X170574Y-9220D03*
D86*
X192786Y-9220D03*
D185*
X-75438Y-8382D03*
D88*
X145847Y-8382D03*
D187*
X170574Y-8382D03*
D86*
X192786Y-8382D03*
D185*
X-75438Y-7544D03*
D81*
X132855Y-7544D03*
D183*
X145428Y-7544D03*
D187*
X170574Y-7544D03*
D86*
X192786Y-7544D03*
D188*
X-75857Y-6706D03*
D88*
X134950Y-6706D03*
X145009Y-6706D03*
D175*
X170993Y-6706D03*
D86*
X192786Y-6706D03*
D188*
X-75857Y-5867D03*
D189*
X139979Y-5867D03*
D83*
X158420Y-5867D03*
D175*
X170993Y-5867D03*
D82*
X193205Y-5867D03*
D188*
X-75857Y-5029D03*
D190*
X146266Y-5029D03*
D175*
X170993Y-5029D03*
D82*
X193205Y-5029D03*
D188*
X-75857Y-4191D03*
D191*
X146685Y-4191D03*
D89*
X170574Y-4191D03*
D82*
X193205Y-4191D03*
D188*
X-75857Y-3353D03*
D161*
X146266Y-3353D03*
D89*
X170574Y-3353D03*
D82*
X193205Y-3353D03*
D185*
X-76276Y-2515D03*
D192*
X146685Y-2515D03*
D92*
X170993Y-2515D03*
D83*
X192786Y-2515D03*
D188*
X-76695Y-1676D03*
D193*
X146685Y-1676D03*
D92*
X170993Y-1676D03*
D84*
X193205Y-1676D03*
D188*
X-76695Y-838D03*
D194*
X147104Y-838D03*
D92*
X170993Y-838D03*
D84*
X193205Y-838D03*
D188*
X-76695Y0D03*
D195*
X147104Y0D03*
D92*
X170993Y0D03*
D84*
X193205Y0D03*
D188*
X-76695Y838D03*
D166*
X146685Y838D03*
D92*
X170993Y838D03*
D84*
X193205Y838D03*
D188*
X-76695Y1676D03*
D196*
X146685Y1676D03*
D87*
X171412Y1676D03*
D94*
X188176Y1676D03*
D84*
X193205Y1676D03*
D188*
X-76695Y2515D03*
D168*
X147104Y2515D03*
D87*
X171412Y2515D03*
X191529Y2515D03*
D80*
X198653Y2515D03*
D188*
X-76695Y3353D03*
D170*
X147104Y3353D03*
D87*
X171412Y3353D03*
D186*
X193624Y3353D03*
D188*
X-76695Y4191D03*
D197*
X147104Y4191D03*
D87*
X171412Y4191D03*
D187*
X194043Y4191D03*
D188*
X-76695Y5029D03*
D198*
X146685Y5029D03*
D88*
X170993Y5029D03*
D199*
X193624Y5029D03*
D188*
X-76695Y5867D03*
D173*
X147104Y5867D03*
D93*
X171412Y5867D03*
D89*
X194043Y5867D03*
D188*
X-76695Y6706D03*
D186*
X146685Y6706D03*
D93*
X171412Y6706D03*
D92*
X193624Y6706D03*
D188*
X-76695Y7544D03*
D175*
X146685Y7544D03*
D93*
X171412Y7544D03*
D87*
X194043Y7544D03*
D188*
X-76695Y8382D03*
D89*
X146266Y8382D03*
D93*
X171412Y8382D03*
D88*
X193624Y8382D03*
D188*
X-76695Y9220D03*
D87*
X146266Y9220D03*
D93*
X171412Y9220D03*
X194043Y9220D03*
D188*
X-76695Y10058D03*
D87*
X146266Y10058D03*
D93*
X171412Y10058D03*
D86*
X193624Y10058D03*
D188*
X-76695Y10897D03*
D93*
X146266Y10897D03*
X171412Y10897D03*
D82*
X194043Y10897D03*
D188*
X-76695Y11735D03*
D86*
X145847Y11735D03*
D82*
X160515Y11735D03*
D93*
X171412Y11735D03*
D83*
X193624Y11735D03*
D188*
X-76695Y12573D03*
D82*
X145428Y12573D03*
D189*
X166802Y12573D03*
D81*
X185661Y12573D03*
D84*
X193205Y12573D03*
D200*
X-76276Y13411D03*
D84*
X145428Y13411D03*
D168*
X167221Y13411D03*
D86*
X184404Y13411D03*
D85*
X193624Y13411D03*
D188*
X-75857Y14249D03*
D84*
X145428Y14249D03*
D201*
X173088Y14249D03*
D81*
X193205Y14249D03*
D188*
X-75857Y15088D03*
D81*
X145428Y15088D03*
D161*
X173088Y15088D03*
D81*
X193205Y15088D03*
D188*
X-75857Y15926D03*
D161*
X173088Y15926D03*
D188*
X-75857Y16764D03*
D163*
X173088Y16764D03*
D188*
X-75857Y17602D03*
D194*
X173088Y17602D03*
D188*
X-75857Y18440D03*
D165*
X173507Y18440D03*
D188*
X-75857Y19279D03*
D166*
X173507Y19279D03*
D185*
X-75438Y20117D03*
D196*
X173507Y20117D03*
D185*
X-75438Y20955D03*
D196*
X173507Y20955D03*
D185*
X-75438Y21793D03*
D189*
X173507Y21793D03*
D188*
X-75019Y22631D03*
D202*
X173507Y22631D03*
D185*
X-74600Y23470D03*
D197*
X173088Y23470D03*
D185*
X-74600Y24308D03*
D198*
X173507Y24308D03*
D185*
X-74600Y25146D03*
D186*
X173507Y25146D03*
D185*
X-74600Y25984D03*
D187*
X173088Y25984D03*
D182*
X-74181Y26822D03*
D89*
X173088Y26822D03*
D182*
X-74181Y27661D03*
D89*
X173088Y27661D03*
D185*
X-73762Y28499D03*
D87*
X173088Y28499D03*
D182*
X-73343Y29337D03*
D88*
X172669Y29337D03*
D182*
X-73343Y30175D03*
D93*
X172250Y30175D03*
D181*
X-72923Y31013D03*
D82*
X172250Y31013D03*
D181*
X-72923Y31852D03*
D82*
X172250Y31852D03*
D182*
X-72504Y32690D03*
D84*
X172250Y32690D03*
D181*
X-72085Y33528D03*
D80*
X171831Y33528D03*
D181*
X-72085Y34366D03*
D90*
X171831Y34366D03*
D180*
X-71666Y35204D03*
X-71666Y36043D03*
D179*
X-70828Y36881D03*
X-70828Y37719D03*
D178*
X-70409Y38557D03*
X-69571Y39395D03*
X-69571Y40234D03*
D177*
X-69152Y41072D03*
D81*
X50711Y41072D03*
D99*
X-68732Y41910D03*
D84*
X50711Y41910D03*
D177*
X-68313Y42748D03*
D83*
X50292Y42748D03*
D99*
X-67894Y43586D03*
D86*
X50292Y43586D03*
D176*
X-67475Y44425D03*
D91*
X50292Y44425D03*
D176*
X-66637Y45263D03*
D92*
X50292Y45263D03*
D176*
X-66637Y46101D03*
D175*
X50292Y46101D03*
D176*
X-65799Y46939D03*
D186*
X50292Y46939D03*
D172*
X-65380Y47777D03*
D198*
X50292Y47777D03*
D169*
X-64960Y48616D03*
D202*
X50292Y48616D03*
D169*
X-64122Y49454D03*
D168*
X49873Y49454D03*
D167*
X-63703Y50292D03*
D203*
X49873Y50292D03*
D167*
X-62865Y51130D03*
D195*
X49873Y51130D03*
D164*
X-62446Y51968D03*
D194*
X49873Y51968D03*
D164*
X-61608Y52807D03*
D192*
X49454Y52807D03*
D204*
X-60770Y53645D03*
D191*
X49454Y53645D03*
D205*
X-59931Y54483D03*
D95*
X48616Y54483D03*
D206*
X-59093Y55321D03*
D160*
X48616Y55321D03*
D206*
X-58255Y56159D03*
D158*
X48197Y56159D03*
D207*
X-57417Y56998D03*
D208*
X47777Y56998D03*
D207*
X-56579Y57836D03*
D155*
X47358Y57836D03*
D154*
X-55740Y58674D03*
D209*
X46939Y58674D03*
D152*
X-54064Y59512D03*
D153*
X46520Y59512D03*
D210*
X-53226Y60350D03*
D211*
X45682Y60350D03*
D148*
X-51549Y61189D03*
D212*
X44844Y61189D03*
D146*
X-49873Y62027D03*
D213*
X43586Y62027D03*
D214*
X-47777Y62865D03*
D182*
X41491Y62865D03*
D135*
X-8801Y63703D03*
D215*
X-8382Y64541D03*
X-7544Y65380D03*
D216*
X-7125Y66218D03*
D215*
X-6706Y67056D03*
X-5867Y67894D03*
X-5029Y68732D03*
D136*
X-4610Y69571D03*
X-3772Y70409D03*
X-2934Y71247D03*
X-2096Y72085D03*
D217*
X-1676Y72923D03*
X-838Y73762D03*
X0Y74600D03*
X838Y75438D03*
X1676Y76276D03*
X2515Y77114D03*
X2515Y77953D03*
X3353Y78791D03*
X4191Y79629D03*
D215*
X4191Y80467D03*
D216*
X4610Y81305D03*
D134*
X4610Y82144D03*
D133*
X4610Y82982D03*
D132*
X4610Y83820D03*
D131*
X4610Y84658D03*
D218*
X4610Y85496D03*
D129*
X4610Y86335D03*
D128*
X4610Y87173D03*
D127*
X4610Y88011D03*
D219*
X4610Y88849D03*
D220*
X4610Y89687D03*
D221*
X4191Y90526D03*
D124*
X3772Y91364D03*
D222*
X3353Y92202D03*
D223*
X2934Y93040D03*
D122*
X2096Y93878D03*
D224*
X1676Y94717D03*
D225*
X1257Y95555D03*
D226*
X838Y96393D03*
X838Y97231D03*
X838Y98069D03*
X838Y98908D03*
X838Y99746D03*
X838Y100584D03*
X838Y101422D03*
X838Y102260D03*
X838Y103099D03*
X838Y103937D03*
X838Y104775D03*
X838Y105613D03*
D225*
X1257Y106451D03*
X1257Y107290D03*
X1257Y108128D03*
D160*
X-51968Y108966D03*
D227*
X18021Y108966D03*
D160*
X-51968Y109804D03*
D228*
X19279Y109804D03*
D160*
X-51968Y110642D03*
D229*
X20536Y110642D03*
D160*
X-51968Y111481D03*
D230*
X5029Y111481D03*
D231*
X54064Y111481D03*
D160*
X-51968Y112319D03*
D213*
X5029Y112319D03*
D231*
X54064Y112319D03*
D160*
X-51968Y113157D03*
D151*
X5029Y113157D03*
D231*
X54064Y113157D03*
D160*
X-51968Y113995D03*
D232*
X4610Y113995D03*
D231*
X54064Y113995D03*
D160*
X-51968Y114833D03*
D189*
X4191Y114833D03*
D231*
X54064Y114833D03*
D160*
X-51968Y115672D03*
D231*
X54064Y115672D03*
D160*
X-51968Y116510D03*
D231*
X54064Y116510D03*
D160*
X-51968Y117348D03*
D231*
X54064Y117348D03*
D160*
X-51968Y118186D03*
D158*
X54064Y118186D03*
D160*
X-51968Y119024D03*
D158*
X54064Y119024D03*
D160*
X-51968Y119863D03*
D158*
X54064Y119863D03*
D233*
X-51549Y120701D03*
D234*
X53645Y120701D03*
D233*
X-51549Y121539D03*
D234*
X53645Y121539D03*
D233*
X-51549Y122377D03*
D234*
X53645Y122377D03*
D233*
X-51549Y123215D03*
D158*
X53226Y123215D03*
D234*
X-51130Y124054D03*
D158*
X53226Y124054D03*
D234*
X-51130Y124892D03*
D158*
X53226Y124892D03*
D234*
X-51130Y125730D03*
D235*
X52807Y125730D03*
D158*
X-50711Y126568D03*
D235*
X52807Y126568D03*
D158*
X-50711Y127406D03*
D235*
X52807Y127406D03*
D158*
X-50711Y128245D03*
D235*
X51968Y128245D03*
X-50292Y129083D03*
X51968Y129083D03*
X-50292Y129921D03*
D232*
X51549Y129921D03*
X-49873Y130759D03*
X51549Y130759D03*
X-49873Y131597D03*
D157*
X51130Y131597D03*
D232*
X-49035Y132436D03*
X50711Y132436D03*
D208*
X-48616Y133274D03*
X50292Y133274D03*
X-48616Y134112D03*
D236*
X49873Y134112D03*
X-48197Y134950D03*
D237*
X49035Y134950D03*
D238*
X-47777Y135788D03*
D237*
X49035Y135788D03*
D238*
X-46939Y136627D03*
X48616Y136627D03*
D155*
X-46520Y137465D03*
D238*
X47777Y137465D03*
D239*
X-46101Y138303D03*
D155*
X47358Y138303D03*
D239*
X-45263Y139141D03*
X46939Y139141D03*
D240*
X-44844Y139979D03*
D239*
X46101Y139979D03*
D96*
X-44425Y140818D03*
D209*
X45263Y140818D03*
X-43586Y141656D03*
X44425Y141656D03*
D241*
X-42748Y142494D03*
D242*
X44006Y142494D03*
D241*
X-41910Y143332D03*
D153*
X43167Y143332D03*
D243*
X-41072Y144170D03*
D244*
X41910Y144170D03*
D245*
X-39815Y145009D03*
D151*
X41072Y145009D03*
D211*
X-38976Y145847D03*
X39815Y145847D03*
D246*
X-37300Y146685D03*
D149*
X38557Y146685D03*
D97*
X-36043Y147523D03*
X36881Y147523D03*
D213*
X-33528Y148361D03*
D247*
X33947Y148361D03*
D248*
X419Y149200D03*
D249*
X419Y150038D03*
X419Y150876D03*
D250*
X419Y151714D03*
D251*
X419Y152552D03*
X419Y153391D03*
D252*
X419Y154229D03*
D253*
X419Y155067D03*
D254*
X0Y155905D03*
D255*
X0Y156743D03*
D256*
X419Y157582D03*
D257*
X419Y158420D03*
D258*
X0Y159258D03*
D109*
X0Y160096D03*
D259*
X0Y160934D03*
D108*
X0Y161773D03*
D228*
X0Y162611D03*
D107*
X0Y163449D03*
D260*
X0Y164287D03*
D106*
X0Y165125D03*
D261*
X-419Y165964D03*
D262*
X0Y166802D03*
D263*
X0Y167640D03*
D264*
X-419Y168478D03*
D103*
X0Y169316D03*
D265*
X0Y170155D03*
D102*
X0Y170993D03*
D152*
X-419Y171831D03*
D101*
X0Y172669D03*
D159*
X0Y173507D03*
D167*
X0Y174346D03*
D99*
X0Y175184D03*
D181*
X0Y176022D03*
D266*
X0Y176860D03*
D97*
X0Y177698D03*
D151*
X0Y178537D03*
D240*
X419Y179375D03*
D158*
X419Y180213D03*
D267*
X838Y181051D03*
D87*
X1257Y181889D03*
D268*
X-178047Y-99713D02*
X-178127Y-99616D01*
X-178210Y-99521D01*
X-178296Y-99430D01*
X-178385Y-99341D01*
X-178477Y-99254D01*
X-178571Y-99171D01*
X-178668Y-99091D01*
X-178767Y-99014D01*
X-178869Y-98940D01*
X-178973Y-98869D01*
X-179079Y-98802D01*
X-179187Y-98738D01*
X-179297Y-98677D01*
X-179409Y-98620D01*
X-179523Y-98566D01*
X-179639Y-98516D01*
X-179756Y-98470D01*
X-179874Y-98427D01*
X-179993Y-98388D01*
X-180114Y-98353D01*
X-180236Y-98322D01*
X-180359Y-98294D01*
X-180482Y-98270D01*
X-180606Y-98251D01*
X-180731Y-98235D01*
X-180856Y-98223D01*
X-180982Y-98215D01*
X-181108Y-98211D01*
X-181233Y-98210D01*
X-181359Y-98214D01*
X-181485Y-98222D01*
X-181610Y-98234D01*
X-181735Y-98249D01*
X-181859Y-98269D01*
X-181983Y-98292D01*
X-182105Y-98319D01*
X-182227Y-98351D01*
X-182348Y-98386D01*
X-182468Y-98424D01*
X-182586Y-98467D01*
X-182703Y-98513D01*
X-182819Y-98563D01*
X-182933Y-98616D01*
X-183045Y-98673D01*
X-183155Y-98733D01*
X-183263Y-98797D01*
X-183370Y-98864D01*
X-183474Y-98935D01*
X-183576Y-99009D01*
X-183675Y-99085D01*
X-183772Y-99165D01*
X-183867Y-99248D01*
X-183959Y-99334D01*
X-184048Y-99423D01*
X-184134Y-99515D01*
X-184217Y-99609D01*
X-184298Y-99706D01*
X-184375Y-99805D01*
X-184449Y-99906D01*
X-184520Y-100010D01*
X-184588Y-100116D01*
X-184652Y-100225D01*
X-184713Y-100335D01*
X-184770Y-100447D01*
X-184824Y-100560D01*
X-184874Y-100676D01*
X-184921Y-100792D01*
X-184964Y-100911D01*
X-185003Y-101030D01*
X-185038Y-101151D01*
X-185070Y-101273D01*
X-185098Y-101395D01*
X-185122Y-101519D01*
X-185142Y-101643D01*
X-185158Y-101768D01*
X-185170Y-101893D01*
X-185178Y-102018D01*
X-185182Y-102144D01*
X-185183Y-102270D01*
X-185179Y-102396D01*
X-185172Y-102521D01*
X-185160Y-102646D01*
X-185145Y-102771D01*
X-185125Y-102896D01*
X-185102Y-103019D01*
X-185075Y-103142D01*
X-185044Y-103264D01*
X-185009Y-103385D01*
X-184971Y-103505D01*
X-184929Y-103623D01*
X-184883Y-103740D01*
X-184833Y-103856D01*
X-184780Y-103970D01*
X-184723Y-104082D01*
X-184663Y-104192D01*
X-184599Y-104301D01*
X-178498Y-92093D02*
X-189396Y-76529D01*
X-202502Y-85707D02*
X-191604Y-101271D01*
X-178821Y-97418D02*
X-178819Y-97355D01*
X-178813Y-97293D01*
X-178803Y-97231D01*
X-178790Y-97169D01*
X-178772Y-97109D01*
X-178751Y-97050D01*
X-178726Y-96992D01*
X-178697Y-96936D01*
X-178665Y-96882D01*
X-178630Y-96830D01*
X-178592Y-96781D01*
X-178550Y-96733D01*
X-178506Y-96689D01*
X-178458Y-96647D01*
X-178409Y-96609D01*
X-178357Y-96574D01*
X-178303Y-96542D01*
X-178247Y-96513D01*
X-178189Y-96488D01*
X-178130Y-96467D01*
X-178070Y-96449D01*
X-178008Y-96436D01*
X-177946Y-96426D01*
X-177884Y-96420D01*
X-177821Y-96418D01*
X-177758Y-96420D01*
X-177696Y-96426D01*
X-177634Y-96436D01*
X-177572Y-96449D01*
X-177512Y-96467D01*
X-177453Y-96488D01*
X-177395Y-96513D01*
X-177339Y-96542D01*
X-177285Y-96574D01*
X-177233Y-96609D01*
X-177184Y-96647D01*
X-177136Y-96689D01*
X-177092Y-96733D01*
X-177050Y-96781D01*
X-177012Y-96830D01*
X-176977Y-96882D01*
X-176945Y-96936D01*
X-176916Y-96992D01*
X-176891Y-97050D01*
X-176870Y-97109D01*
X-176852Y-97169D01*
X-176839Y-97231D01*
X-176829Y-97293D01*
X-176823Y-97355D01*
X-176821Y-97418D01*
X-176823Y-97481D01*
X-176829Y-97543D01*
X-176839Y-97605D01*
X-176852Y-97667D01*
X-176870Y-97727D01*
X-176891Y-97786D01*
X-176916Y-97844D01*
X-176945Y-97900D01*
X-176977Y-97954D01*
X-177012Y-98006D01*
X-177050Y-98055D01*
X-177092Y-98103D01*
X-177136Y-98147D01*
X-177184Y-98189D01*
X-177233Y-98227D01*
X-177285Y-98262D01*
X-177339Y-98294D01*
X-177395Y-98323D01*
X-177453Y-98348D01*
X-177512Y-98369D01*
X-177572Y-98387D01*
X-177634Y-98400D01*
X-177696Y-98410D01*
X-177758Y-98416D01*
X-177821Y-98418D01*
X-177884Y-98416D01*
X-177946Y-98410D01*
X-178008Y-98400D01*
X-178070Y-98387D01*
X-178130Y-98369D01*
X-178189Y-98348D01*
X-178247Y-98323D01*
X-178303Y-98294D01*
X-178357Y-98262D01*
X-178409Y-98227D01*
X-178458Y-98189D01*
X-178506Y-98147D01*
X-178550Y-98103D01*
X-178592Y-98055D01*
X-178630Y-98006D01*
X-178665Y-97954D01*
X-178697Y-97900D01*
X-178726Y-97844D01*
X-178751Y-97786D01*
X-178772Y-97727D01*
X-178790Y-97667D01*
X-178803Y-97605D01*
X-178813Y-97543D01*
X-178819Y-97481D01*
X-178821Y-97418D01*
D269*
G36*
X-178886Y-99384D02*
X-174791Y-96518D01*
X-174074Y-97542D01*
X-178169Y-100408D01*
X-178886Y-99384D01*
G37*
D270*
G36*
X-178353Y-95351D02*
X-176510Y-94060D01*
X-174647Y-96721D01*
X-176490Y-98012D01*
X-178353Y-95351D01*
G37*
D271*
G36*
X-180811Y-97071D02*
X-179787Y-96354D01*
X-178497Y-98197D01*
X-179521Y-98914D01*
X-180811Y-97071D01*
G37*
D272*
G36*
X-181630Y-97643D02*
X-178149Y-95207D01*
X-177432Y-96231D01*
X-180913Y-98667D01*
X-181630Y-97643D01*
G37*
D273*
G36*
X-190006Y-104424D02*
X-185911Y-101557D01*
X-183904Y-104424D01*
X-187999Y-107291D01*
X-190006Y-104424D01*
G37*
D274*
G36*
X-190436Y-103809D02*
X-185523Y-100369D01*
X-184806Y-101393D01*
X-189719Y-104833D01*
X-190436Y-103809D01*
G37*
D275*
G36*
X-192014Y-101557D02*
X-178089Y-91807D01*
X-176368Y-94265D01*
X-190293Y-104015D01*
X-192014Y-101557D01*
G37*
D276*
G36*
X-206926Y-80259D02*
X-193001Y-70509D01*
X-188986Y-76243D01*
X-202911Y-85993D01*
X-206926Y-80259D01*
G37*
D277*
G36*
X-184191Y-88756D02*
X-181530Y-86892D01*
X-179093Y-90372D01*
X-181754Y-92236D01*
X-184191Y-88756D01*
G37*
G36*
X-195454Y-96643D02*
X-192793Y-94779D01*
X-190356Y-98259D01*
X-193017Y-100123D01*
X-195454Y-96643D01*
G37*
D278*
G36*
X-191933Y-89905D02*
X-189067Y-87897D01*
X-187059Y-90763D01*
X-189925Y-92771D01*
X-191933Y-89905D01*
G37*
D268*
X-28450Y-199200D02*
X-28575Y-199210D01*
X-28700Y-199224D01*
X-28825Y-199242D01*
X-28949Y-199264D01*
X-29072Y-199290D01*
X-29194Y-199319D01*
X-29315Y-199353D01*
X-29436Y-199390D01*
X-29554Y-199431D01*
X-29672Y-199475D01*
X-29788Y-199524D01*
X-29903Y-199575D01*
X-30016Y-199631D01*
X-30127Y-199690D01*
X-30236Y-199752D01*
X-30343Y-199818D01*
X-30448Y-199887D01*
X-30551Y-199960D01*
X-30652Y-200035D01*
X-30750Y-200114D01*
X-30845Y-200196D01*
X-30938Y-200281D01*
X-31028Y-200368D01*
X-31116Y-200459D01*
X-31200Y-200552D01*
X-31282Y-200647D01*
X-31361Y-200746D01*
X-31436Y-200846D01*
X-31508Y-200949D01*
X-31577Y-201054D01*
X-31643Y-201162D01*
X-31705Y-201271D01*
X-31764Y-201382D01*
X-31819Y-201495D01*
X-31871Y-201610D01*
X-31919Y-201726D01*
X-31964Y-201844D01*
X-32004Y-201963D01*
X-32041Y-202083D01*
X-32074Y-202204D01*
X-32104Y-202327D01*
X-32129Y-202450D01*
X-32151Y-202574D01*
X-32168Y-202698D01*
X-32182Y-202823D01*
X-32192Y-202949D01*
X-32198Y-203074D01*
X-32200Y-203200D01*
X-32198Y-203326D01*
X-32192Y-203451D01*
X-32182Y-203577D01*
X-32168Y-203702D01*
X-32151Y-203826D01*
X-32129Y-203950D01*
X-32104Y-204073D01*
X-32074Y-204196D01*
X-32041Y-204317D01*
X-32004Y-204437D01*
X-31964Y-204556D01*
X-31919Y-204674D01*
X-31871Y-204790D01*
X-31819Y-204905D01*
X-31764Y-205018D01*
X-31705Y-205129D01*
X-31643Y-205238D01*
X-31577Y-205346D01*
X-31508Y-205451D01*
X-31436Y-205554D01*
X-31361Y-205654D01*
X-31282Y-205753D01*
X-31200Y-205848D01*
X-31116Y-205941D01*
X-31028Y-206032D01*
X-30938Y-206119D01*
X-30845Y-206204D01*
X-30750Y-206286D01*
X-30652Y-206365D01*
X-30551Y-206440D01*
X-30448Y-206513D01*
X-30343Y-206582D01*
X-30236Y-206648D01*
X-30127Y-206710D01*
X-30016Y-206769D01*
X-29903Y-206825D01*
X-29788Y-206876D01*
X-29672Y-206925D01*
X-29554Y-206969D01*
X-29436Y-207010D01*
X-29315Y-207047D01*
X-29194Y-207081D01*
X-29072Y-207110D01*
X-28949Y-207136D01*
X-28825Y-207158D01*
X-28700Y-207176D01*
X-28575Y-207190D01*
X-28450Y-207200D01*
X-34950Y-195200D02*
X-53950Y-195200D01*
X-53950Y-211200D02*
X-34950Y-211200D01*
X-31200Y-197700D02*
X-31198Y-197637D01*
X-31192Y-197575D01*
X-31182Y-197513D01*
X-31169Y-197451D01*
X-31151Y-197391D01*
X-31130Y-197332D01*
X-31105Y-197274D01*
X-31076Y-197218D01*
X-31044Y-197164D01*
X-31009Y-197112D01*
X-30971Y-197063D01*
X-30929Y-197015D01*
X-30885Y-196971D01*
X-30837Y-196929D01*
X-30788Y-196891D01*
X-30736Y-196856D01*
X-30682Y-196824D01*
X-30626Y-196795D01*
X-30568Y-196770D01*
X-30509Y-196749D01*
X-30449Y-196731D01*
X-30387Y-196718D01*
X-30325Y-196708D01*
X-30263Y-196702D01*
X-30200Y-196700D01*
X-30137Y-196702D01*
X-30075Y-196708D01*
X-30013Y-196718D01*
X-29951Y-196731D01*
X-29891Y-196749D01*
X-29832Y-196770D01*
X-29774Y-196795D01*
X-29718Y-196824D01*
X-29664Y-196856D01*
X-29612Y-196891D01*
X-29563Y-196929D01*
X-29515Y-196971D01*
X-29471Y-197015D01*
X-29429Y-197063D01*
X-29391Y-197112D01*
X-29356Y-197164D01*
X-29324Y-197218D01*
X-29295Y-197274D01*
X-29270Y-197332D01*
X-29249Y-197391D01*
X-29231Y-197451D01*
X-29218Y-197513D01*
X-29208Y-197575D01*
X-29202Y-197637D01*
X-29200Y-197700D01*
X-29202Y-197763D01*
X-29208Y-197825D01*
X-29218Y-197887D01*
X-29231Y-197949D01*
X-29249Y-198009D01*
X-29270Y-198068D01*
X-29295Y-198126D01*
X-29324Y-198182D01*
X-29356Y-198236D01*
X-29391Y-198288D01*
X-29429Y-198337D01*
X-29471Y-198385D01*
X-29515Y-198429D01*
X-29563Y-198471D01*
X-29612Y-198509D01*
X-29664Y-198544D01*
X-29718Y-198576D01*
X-29774Y-198605D01*
X-29832Y-198630D01*
X-29891Y-198651D01*
X-29951Y-198669D01*
X-30013Y-198682D01*
X-30075Y-198692D01*
X-30137Y-198698D01*
X-30200Y-198700D01*
X-30263Y-198698D01*
X-30325Y-198692D01*
X-30387Y-198682D01*
X-30449Y-198669D01*
X-30509Y-198651D01*
X-30568Y-198630D01*
X-30626Y-198605D01*
X-30682Y-198576D01*
X-30736Y-198544D01*
X-30788Y-198509D01*
X-30837Y-198471D01*
X-30885Y-198429D01*
X-30929Y-198385D01*
X-30971Y-198337D01*
X-31009Y-198288D01*
X-31044Y-198236D01*
X-31076Y-198182D01*
X-31105Y-198126D01*
X-31130Y-198068D01*
X-31151Y-198009D01*
X-31169Y-197949D01*
X-31182Y-197887D01*
X-31192Y-197825D01*
X-31198Y-197763D01*
X-31200Y-197700D01*
D279*
X-28575Y-197200D03*
D280*
X-30575Y-195825D03*
D281*
X-31075Y-199325D03*
D282*
X-31575Y-198825D03*
D283*
X-29700Y-209200D03*
D284*
X-31575Y-208700D03*
D285*
X-33450Y-203200D03*
D286*
X-57450Y-203200D03*
D287*
X-38825Y-196325D03*
X-38825Y-210075D03*
D288*
X-42700Y-203200D03*
D268*
X60450Y-199200D02*
X60325Y-199210D01*
X60200Y-199224D01*
X60075Y-199242D01*
X59951Y-199264D01*
X59828Y-199290D01*
X59706Y-199319D01*
X59585Y-199353D01*
X59464Y-199390D01*
X59346Y-199431D01*
X59228Y-199475D01*
X59112Y-199524D01*
X58997Y-199575D01*
X58884Y-199631D01*
X58773Y-199690D01*
X58664Y-199752D01*
X58557Y-199818D01*
X58452Y-199887D01*
X58349Y-199960D01*
X58248Y-200035D01*
X58150Y-200114D01*
X58055Y-200196D01*
X57962Y-200281D01*
X57872Y-200368D01*
X57784Y-200459D01*
X57700Y-200552D01*
X57618Y-200647D01*
X57539Y-200746D01*
X57464Y-200846D01*
X57392Y-200949D01*
X57323Y-201054D01*
X57257Y-201162D01*
X57195Y-201271D01*
X57136Y-201382D01*
X57081Y-201495D01*
X57029Y-201610D01*
X56981Y-201726D01*
X56936Y-201844D01*
X56896Y-201963D01*
X56859Y-202083D01*
X56826Y-202204D01*
X56796Y-202327D01*
X56771Y-202450D01*
X56749Y-202574D01*
X56732Y-202698D01*
X56718Y-202823D01*
X56708Y-202949D01*
X56702Y-203074D01*
X56700Y-203200D01*
X56702Y-203326D01*
X56708Y-203451D01*
X56718Y-203577D01*
X56732Y-203702D01*
X56749Y-203826D01*
X56771Y-203950D01*
X56796Y-204073D01*
X56826Y-204196D01*
X56859Y-204317D01*
X56896Y-204437D01*
X56936Y-204556D01*
X56981Y-204674D01*
X57029Y-204790D01*
X57081Y-204905D01*
X57136Y-205018D01*
X57195Y-205129D01*
X57257Y-205238D01*
X57323Y-205346D01*
X57392Y-205451D01*
X57464Y-205554D01*
X57539Y-205654D01*
X57618Y-205753D01*
X57700Y-205848D01*
X57784Y-205941D01*
X57872Y-206032D01*
X57962Y-206119D01*
X58055Y-206204D01*
X58150Y-206286D01*
X58248Y-206365D01*
X58349Y-206440D01*
X58452Y-206513D01*
X58557Y-206582D01*
X58664Y-206648D01*
X58773Y-206710D01*
X58884Y-206769D01*
X58997Y-206825D01*
X59112Y-206876D01*
X59228Y-206925D01*
X59346Y-206969D01*
X59464Y-207010D01*
X59585Y-207047D01*
X59706Y-207081D01*
X59828Y-207110D01*
X59951Y-207136D01*
X60075Y-207158D01*
X60200Y-207176D01*
X60325Y-207190D01*
X60450Y-207200D01*
X53950Y-195200D02*
X34950Y-195200D01*
X34950Y-211200D02*
X53950Y-211200D01*
X57700Y-197700D02*
X57702Y-197637D01*
X57708Y-197575D01*
X57718Y-197513D01*
X57731Y-197451D01*
X57749Y-197391D01*
X57770Y-197332D01*
X57795Y-197274D01*
X57824Y-197218D01*
X57856Y-197164D01*
X57891Y-197112D01*
X57929Y-197063D01*
X57971Y-197015D01*
X58015Y-196971D01*
X58063Y-196929D01*
X58112Y-196891D01*
X58164Y-196856D01*
X58218Y-196824D01*
X58274Y-196795D01*
X58332Y-196770D01*
X58391Y-196749D01*
X58451Y-196731D01*
X58513Y-196718D01*
X58575Y-196708D01*
X58637Y-196702D01*
X58700Y-196700D01*
X58763Y-196702D01*
X58825Y-196708D01*
X58887Y-196718D01*
X58949Y-196731D01*
X59009Y-196749D01*
X59068Y-196770D01*
X59126Y-196795D01*
X59182Y-196824D01*
X59236Y-196856D01*
X59288Y-196891D01*
X59337Y-196929D01*
X59385Y-196971D01*
X59429Y-197015D01*
X59471Y-197063D01*
X59509Y-197112D01*
X59544Y-197164D01*
X59576Y-197218D01*
X59605Y-197274D01*
X59630Y-197332D01*
X59651Y-197391D01*
X59669Y-197451D01*
X59682Y-197513D01*
X59692Y-197575D01*
X59698Y-197637D01*
X59700Y-197700D01*
X59698Y-197763D01*
X59692Y-197825D01*
X59682Y-197887D01*
X59669Y-197949D01*
X59651Y-198009D01*
X59630Y-198068D01*
X59605Y-198126D01*
X59576Y-198182D01*
X59544Y-198236D01*
X59509Y-198288D01*
X59471Y-198337D01*
X59429Y-198385D01*
X59385Y-198429D01*
X59337Y-198471D01*
X59288Y-198509D01*
X59236Y-198544D01*
X59182Y-198576D01*
X59126Y-198605D01*
X59068Y-198630D01*
X59009Y-198651D01*
X58949Y-198669D01*
X58887Y-198682D01*
X58825Y-198692D01*
X58763Y-198698D01*
X58700Y-198700D01*
X58637Y-198698D01*
X58575Y-198692D01*
X58513Y-198682D01*
X58451Y-198669D01*
X58391Y-198651D01*
X58332Y-198630D01*
X58274Y-198605D01*
X58218Y-198576D01*
X58164Y-198544D01*
X58112Y-198509D01*
X58063Y-198471D01*
X58015Y-198429D01*
X57971Y-198385D01*
X57929Y-198337D01*
X57891Y-198288D01*
X57856Y-198236D01*
X57824Y-198182D01*
X57795Y-198126D01*
X57770Y-198068D01*
X57749Y-198009D01*
X57731Y-197949D01*
X57718Y-197887D01*
X57708Y-197825D01*
X57702Y-197763D01*
X57700Y-197700D01*
D279*
X60325Y-197200D03*
D280*
X58325Y-195825D03*
D281*
X57825Y-199325D03*
D282*
X57325Y-198825D03*
D283*
X59200Y-209200D03*
D284*
X57325Y-208700D03*
D285*
X55450Y-203200D03*
D286*
X31450Y-203200D03*
D287*
X50075Y-196325D03*
X50075Y-210075D03*
D288*
X46200Y-203200D03*
D268*
X196401Y-73499D02*
X196337Y-73608D01*
X196277Y-73718D01*
X196220Y-73830D01*
X196167Y-73944D01*
X196117Y-74060D01*
X196071Y-74177D01*
X196029Y-74295D01*
X195991Y-74415D01*
X195956Y-74536D01*
X195925Y-74658D01*
X195898Y-74781D01*
X195875Y-74904D01*
X195855Y-75029D01*
X195840Y-75154D01*
X195828Y-75279D01*
X195821Y-75404D01*
X195817Y-75530D01*
X195818Y-75656D01*
X195822Y-75782D01*
X195830Y-75907D01*
X195842Y-76032D01*
X195858Y-76157D01*
X195878Y-76281D01*
X195902Y-76405D01*
X195930Y-76527D01*
X195962Y-76649D01*
X195997Y-76770D01*
X196036Y-76889D01*
X196079Y-77008D01*
X196126Y-77124D01*
X196176Y-77240D01*
X196230Y-77353D01*
X196287Y-77465D01*
X196348Y-77575D01*
X196412Y-77684D01*
X196480Y-77790D01*
X196551Y-77894D01*
X196625Y-77995D01*
X196702Y-78094D01*
X196783Y-78191D01*
X196866Y-78285D01*
X196952Y-78377D01*
X197041Y-78466D01*
X197133Y-78552D01*
X197228Y-78635D01*
X197325Y-78715D01*
X197424Y-78791D01*
X197526Y-78865D01*
X197630Y-78936D01*
X197737Y-79003D01*
X197845Y-79067D01*
X197955Y-79127D01*
X198067Y-79184D01*
X198181Y-79237D01*
X198297Y-79287D01*
X198414Y-79333D01*
X198532Y-79376D01*
X198652Y-79414D01*
X198773Y-79449D01*
X198895Y-79481D01*
X199017Y-79508D01*
X199141Y-79531D01*
X199265Y-79551D01*
X199390Y-79566D01*
X199515Y-79578D01*
X199641Y-79586D01*
X199767Y-79590D01*
X199892Y-79589D01*
X200018Y-79585D01*
X200144Y-79577D01*
X200269Y-79565D01*
X200394Y-79549D01*
X200518Y-79530D01*
X200641Y-79506D01*
X200764Y-79478D01*
X200886Y-79447D01*
X201007Y-79412D01*
X201126Y-79373D01*
X201244Y-79330D01*
X201361Y-79284D01*
X201477Y-79234D01*
X201591Y-79180D01*
X201703Y-79123D01*
X201813Y-79062D01*
X201921Y-78998D01*
X202027Y-78931D01*
X202131Y-78860D01*
X202233Y-78786D01*
X202332Y-78709D01*
X202429Y-78629D01*
X202523Y-78546D01*
X202615Y-78459D01*
X202704Y-78370D01*
X202790Y-78279D01*
X202873Y-78184D01*
X202953Y-78087D01*
X189396Y-76529D02*
X178498Y-92093D01*
X191604Y-101271D02*
X202502Y-85707D01*
X193168Y-74072D02*
X193170Y-74009D01*
X193176Y-73947D01*
X193186Y-73885D01*
X193199Y-73823D01*
X193217Y-73763D01*
X193238Y-73704D01*
X193263Y-73646D01*
X193292Y-73590D01*
X193324Y-73536D01*
X193359Y-73484D01*
X193397Y-73435D01*
X193439Y-73387D01*
X193483Y-73343D01*
X193531Y-73301D01*
X193580Y-73263D01*
X193632Y-73228D01*
X193686Y-73196D01*
X193742Y-73167D01*
X193800Y-73142D01*
X193859Y-73121D01*
X193919Y-73103D01*
X193981Y-73090D01*
X194043Y-73080D01*
X194105Y-73074D01*
X194168Y-73072D01*
X194231Y-73074D01*
X194293Y-73080D01*
X194355Y-73090D01*
X194417Y-73103D01*
X194477Y-73121D01*
X194536Y-73142D01*
X194594Y-73167D01*
X194650Y-73196D01*
X194704Y-73228D01*
X194756Y-73263D01*
X194805Y-73301D01*
X194853Y-73343D01*
X194897Y-73387D01*
X194939Y-73435D01*
X194977Y-73484D01*
X195012Y-73536D01*
X195044Y-73590D01*
X195073Y-73646D01*
X195098Y-73704D01*
X195119Y-73763D01*
X195137Y-73823D01*
X195150Y-73885D01*
X195160Y-73947D01*
X195166Y-74009D01*
X195168Y-74072D01*
X195166Y-74135D01*
X195160Y-74197D01*
X195150Y-74259D01*
X195137Y-74321D01*
X195119Y-74381D01*
X195098Y-74440D01*
X195073Y-74498D01*
X195044Y-74554D01*
X195012Y-74608D01*
X194977Y-74660D01*
X194939Y-74709D01*
X194897Y-74757D01*
X194853Y-74801D01*
X194805Y-74843D01*
X194756Y-74881D01*
X194704Y-74916D01*
X194650Y-74948D01*
X194594Y-74977D01*
X194536Y-75002D01*
X194477Y-75023D01*
X194417Y-75041D01*
X194355Y-75054D01*
X194293Y-75064D01*
X194231Y-75070D01*
X194168Y-75072D01*
X194105Y-75070D01*
X194043Y-75064D01*
X193981Y-75054D01*
X193919Y-75041D01*
X193859Y-75023D01*
X193800Y-75002D01*
X193742Y-74977D01*
X193686Y-74948D01*
X193632Y-74916D01*
X193580Y-74881D01*
X193531Y-74843D01*
X193483Y-74801D01*
X193439Y-74757D01*
X193397Y-74709D01*
X193359Y-74660D01*
X193324Y-74608D01*
X193292Y-74554D01*
X193263Y-74498D01*
X193238Y-74440D01*
X193217Y-74381D01*
X193199Y-74321D01*
X193186Y-74259D01*
X193176Y-74197D01*
X193170Y-74135D01*
X193168Y-74072D01*
D269*
G36*
X196380Y-74400D02*
X192285Y-71534D01*
X193002Y-70510D01*
X197097Y-73376D01*
X196380Y-74400D01*
G37*
D270*
G36*
X192407Y-75280D02*
X190564Y-73989D01*
X192427Y-71328D01*
X194270Y-72619D01*
X192407Y-75280D01*
G37*
D271*
G36*
X194864Y-77001D02*
X193840Y-76284D01*
X195130Y-74441D01*
X196154Y-75158D01*
X194864Y-77001D01*
G37*
D272*
G36*
X195683Y-77574D02*
X192202Y-75138D01*
X192919Y-74114D01*
X196400Y-76550D01*
X195683Y-77574D01*
G37*
D273*
G36*
X204919Y-83126D02*
X200824Y-80259D01*
X202831Y-77392D01*
X206926Y-80259D01*
X204919Y-83126D01*
G37*
D274*
G36*
X204488Y-83740D02*
X199575Y-80300D01*
X200292Y-79276D01*
X205205Y-82716D01*
X204488Y-83740D01*
G37*
D275*
G36*
X202911Y-85993D02*
X188986Y-76243D01*
X190707Y-73785D01*
X204632Y-83535D01*
X202911Y-85993D01*
G37*
D276*
G36*
X187999Y-107291D02*
X174074Y-97541D01*
X178089Y-91807D01*
X192014Y-101557D01*
X187999Y-107291D01*
G37*
D277*
G36*
X188207Y-83021D02*
X185546Y-81157D01*
X187983Y-77677D01*
X190644Y-79541D01*
X188207Y-83021D01*
G37*
G36*
X199470Y-90908D02*
X196809Y-89044D01*
X199246Y-85564D01*
X201907Y-87428D01*
X199470Y-90908D01*
G37*
D278*
G36*
X191933Y-89903D02*
X189067Y-87895D01*
X191075Y-85029D01*
X193941Y-87037D01*
X191933Y-89903D01*
G37*
D268*
X166336Y138857D02*
X166408Y138753D01*
X166482Y138652D01*
X166560Y138553D01*
X166641Y138457D01*
X166725Y138363D01*
X166811Y138272D01*
X166901Y138183D01*
X166993Y138098D01*
X167088Y138015D01*
X167185Y137936D01*
X167285Y137859D01*
X167387Y137786D01*
X167492Y137716D01*
X167599Y137649D01*
X167707Y137586D01*
X167818Y137526D01*
X167930Y137470D01*
X168044Y137417D01*
X168160Y137368D01*
X168277Y137322D01*
X168396Y137280D01*
X168516Y137242D01*
X168637Y137208D01*
X168759Y137177D01*
X168882Y137150D01*
X169005Y137128D01*
X169130Y137109D01*
X169255Y137094D01*
X169380Y137083D01*
X169506Y137075D01*
X169631Y137072D01*
X169757Y137073D01*
X169883Y137078D01*
X170008Y137086D01*
X170133Y137099D01*
X170258Y137115D01*
X170382Y137136D01*
X170506Y137160D01*
X170628Y137188D01*
X170750Y137220D01*
X170870Y137256D01*
X170990Y137295D01*
X171108Y137338D01*
X171225Y137385D01*
X171340Y137436D01*
X171453Y137490D01*
X171565Y137548D01*
X171675Y137609D01*
X171783Y137674D01*
X171889Y137742D01*
X171992Y137813D01*
X172094Y137887D01*
X172193Y137965D01*
X172289Y138045D01*
X172383Y138129D01*
X172474Y138216D01*
X172563Y138305D01*
X172649Y138397D01*
X172731Y138492D01*
X172811Y138589D01*
X172888Y138689D01*
X172961Y138791D01*
X173031Y138895D01*
X173098Y139002D01*
X173162Y139111D01*
X173222Y139221D01*
X173278Y139333D01*
X173331Y139447D01*
X173381Y139563D01*
X173427Y139680D01*
X173469Y139799D01*
X173507Y139919D01*
X173542Y140039D01*
X173572Y140161D01*
X173599Y140284D01*
X173622Y140408D01*
X173641Y140532D01*
X173657Y140657D01*
X173668Y140782D01*
X173675Y140908D01*
X173679Y141034D01*
X173678Y141159D01*
X173674Y141285D01*
X173665Y141411D01*
X173653Y141536D01*
X173637Y141661D01*
X173617Y141785D01*
X173593Y141908D01*
X173565Y142031D01*
X173533Y142152D01*
X173497Y142273D01*
X173458Y142393D01*
X173415Y142511D01*
X173368Y142628D01*
X173318Y142743D01*
X173264Y142856D01*
X166122Y131227D02*
X175622Y114773D01*
X189478Y122773D02*
X179978Y139227D01*
X164912Y136591D02*
X164914Y136654D01*
X164920Y136716D01*
X164930Y136778D01*
X164943Y136840D01*
X164961Y136900D01*
X164982Y136959D01*
X165007Y137017D01*
X165036Y137073D01*
X165068Y137127D01*
X165103Y137179D01*
X165141Y137228D01*
X165183Y137276D01*
X165227Y137320D01*
X165275Y137362D01*
X165324Y137400D01*
X165376Y137435D01*
X165430Y137467D01*
X165486Y137496D01*
X165544Y137521D01*
X165603Y137542D01*
X165663Y137560D01*
X165725Y137573D01*
X165787Y137583D01*
X165849Y137589D01*
X165912Y137591D01*
X165975Y137589D01*
X166037Y137583D01*
X166099Y137573D01*
X166161Y137560D01*
X166221Y137542D01*
X166280Y137521D01*
X166338Y137496D01*
X166394Y137467D01*
X166448Y137435D01*
X166500Y137400D01*
X166549Y137362D01*
X166597Y137320D01*
X166641Y137276D01*
X166683Y137228D01*
X166721Y137179D01*
X166756Y137127D01*
X166788Y137073D01*
X166817Y137017D01*
X166842Y136959D01*
X166863Y136900D01*
X166881Y136840D01*
X166894Y136778D01*
X166904Y136716D01*
X166910Y136654D01*
X166912Y136591D01*
X166910Y136528D01*
X166904Y136466D01*
X166894Y136404D01*
X166881Y136342D01*
X166863Y136282D01*
X166842Y136223D01*
X166817Y136165D01*
X166788Y136109D01*
X166756Y136055D01*
X166721Y136003D01*
X166683Y135954D01*
X166641Y135906D01*
X166597Y135862D01*
X166549Y135820D01*
X166500Y135782D01*
X166448Y135747D01*
X166394Y135715D01*
X166338Y135686D01*
X166280Y135661D01*
X166221Y135640D01*
X166161Y135622D01*
X166099Y135609D01*
X166037Y135599D01*
X165975Y135593D01*
X165912Y135591D01*
X165849Y135593D01*
X165787Y135599D01*
X165725Y135609D01*
X165663Y135622D01*
X165603Y135640D01*
X165544Y135661D01*
X165486Y135686D01*
X165430Y135715D01*
X165376Y135747D01*
X165324Y135782D01*
X165275Y135820D01*
X165227Y135862D01*
X165183Y135906D01*
X165141Y135954D01*
X165103Y136003D01*
X165068Y136055D01*
X165036Y136109D01*
X165007Y136165D01*
X164982Y136223D01*
X164961Y136282D01*
X164943Y136342D01*
X164930Y136404D01*
X164920Y136466D01*
X164914Y136528D01*
X164912Y136591D01*
D269*
G36*
X167143Y138456D02*
X162814Y135957D01*
X162189Y137040D01*
X166518Y139539D01*
X167143Y138456D01*
G37*
D270*
G36*
X166262Y134485D02*
X164315Y133360D01*
X162690Y136173D01*
X164637Y137298D01*
X166262Y134485D01*
G37*
D271*
G36*
X168860Y135985D02*
X167778Y135360D01*
X166654Y137307D01*
X167736Y137932D01*
X168860Y135985D01*
G37*
D272*
G36*
X169726Y136484D02*
X166047Y134360D01*
X165422Y135442D01*
X169101Y137566D01*
X169726Y136484D01*
G37*
D273*
G36*
X178661Y142509D02*
X174331Y140009D01*
X172581Y143039D01*
X176911Y145539D01*
X178661Y142509D01*
G37*
D274*
G36*
X179036Y141858D02*
X173841Y138859D01*
X173216Y139942D01*
X178411Y142941D01*
X179036Y141858D01*
G37*
D275*
G36*
X180411Y139476D02*
X165689Y130977D01*
X164189Y133576D01*
X178911Y142075D01*
X180411Y139476D01*
G37*
D276*
G36*
X193411Y116960D02*
X178689Y108461D01*
X175189Y114524D01*
X189911Y123023D01*
X193411Y116960D01*
G37*
D277*
G36*
X171503Y127407D02*
X168690Y125782D01*
X166565Y129461D01*
X169378Y131086D01*
X171503Y127407D01*
G37*
G36*
X183410Y134282D02*
X180597Y132657D01*
X178472Y136336D01*
X181285Y137961D01*
X183410Y134282D01*
G37*
D278*
G36*
X179315Y127876D02*
X176285Y126126D01*
X174535Y129156D01*
X177565Y130906D01*
X179315Y127876D01*
G37*
D268*
X60008Y206337D02*
X60126Y206293D01*
X60246Y206253D01*
X60366Y206217D01*
X60487Y206184D01*
X60610Y206155D01*
X60733Y206130D01*
X60857Y206109D01*
X60982Y206092D01*
X61107Y206079D01*
X61232Y206070D01*
X61358Y206064D01*
X61484Y206063D01*
X61609Y206066D01*
X61735Y206072D01*
X61860Y206083D01*
X61985Y206097D01*
X62110Y206115D01*
X62234Y206137D01*
X62357Y206163D01*
X62479Y206193D01*
X62600Y206227D01*
X62720Y206265D01*
X62839Y206306D01*
X62956Y206351D01*
X63072Y206399D01*
X63187Y206452D01*
X63300Y206507D01*
X63410Y206567D01*
X63519Y206630D01*
X63626Y206696D01*
X63731Y206765D01*
X63834Y206838D01*
X63934Y206914D01*
X64032Y206993D01*
X64127Y207075D01*
X64220Y207160D01*
X64310Y207248D01*
X64397Y207339D01*
X64481Y207432D01*
X64563Y207528D01*
X64641Y207626D01*
X64716Y207727D01*
X64788Y207830D01*
X64857Y207936D01*
X64922Y208043D01*
X64984Y208153D01*
X65043Y208264D01*
X65097Y208377D01*
X65149Y208492D01*
X65197Y208608D01*
X65241Y208726D01*
X65281Y208845D01*
X65318Y208966D01*
X65350Y209087D01*
X65379Y209209D01*
X65404Y209333D01*
X65426Y209457D01*
X65443Y209581D01*
X65456Y209706D01*
X65466Y209832D01*
X65471Y209957D01*
X65473Y210083D01*
X65471Y210209D01*
X65464Y210335D01*
X65454Y210460D01*
X65440Y210585D01*
X65422Y210709D01*
X65400Y210833D01*
X65374Y210956D01*
X65344Y211078D01*
X65311Y211200D01*
X65273Y211320D01*
X65232Y211439D01*
X65188Y211556D01*
X65139Y211672D01*
X65087Y211787D01*
X65032Y211900D01*
X64972Y212011D01*
X64910Y212120D01*
X64844Y212227D01*
X64775Y212332D01*
X64702Y212435D01*
X64626Y212535D01*
X64547Y212633D01*
X64465Y212728D01*
X64381Y212821D01*
X64293Y212911D01*
X64202Y212999D01*
X64109Y213083D01*
X64013Y213165D01*
X63915Y213243D01*
X63814Y213318D01*
X63711Y213390D01*
X63606Y213459D01*
X63499Y213525D01*
X63389Y213587D01*
X64209Y199964D02*
X81429Y191935D01*
X88191Y206436D02*
X70971Y214465D01*
X59961Y204238D02*
X59963Y204301D01*
X59969Y204363D01*
X59979Y204425D01*
X59992Y204487D01*
X60010Y204547D01*
X60031Y204606D01*
X60056Y204664D01*
X60085Y204720D01*
X60117Y204774D01*
X60152Y204826D01*
X60190Y204875D01*
X60232Y204923D01*
X60276Y204967D01*
X60324Y205009D01*
X60373Y205047D01*
X60425Y205082D01*
X60479Y205114D01*
X60535Y205143D01*
X60593Y205168D01*
X60652Y205189D01*
X60712Y205207D01*
X60774Y205220D01*
X60836Y205230D01*
X60898Y205236D01*
X60961Y205238D01*
X61024Y205236D01*
X61086Y205230D01*
X61148Y205220D01*
X61210Y205207D01*
X61270Y205189D01*
X61329Y205168D01*
X61387Y205143D01*
X61443Y205114D01*
X61497Y205082D01*
X61549Y205047D01*
X61598Y205009D01*
X61646Y204967D01*
X61690Y204923D01*
X61732Y204875D01*
X61770Y204826D01*
X61805Y204774D01*
X61837Y204720D01*
X61866Y204664D01*
X61891Y204606D01*
X61912Y204547D01*
X61930Y204487D01*
X61943Y204425D01*
X61953Y204363D01*
X61959Y204301D01*
X61961Y204238D01*
X61959Y204175D01*
X61953Y204113D01*
X61943Y204051D01*
X61930Y203989D01*
X61912Y203929D01*
X61891Y203870D01*
X61866Y203812D01*
X61837Y203756D01*
X61805Y203702D01*
X61770Y203650D01*
X61732Y203601D01*
X61690Y203553D01*
X61646Y203509D01*
X61598Y203467D01*
X61549Y203429D01*
X61497Y203394D01*
X61443Y203362D01*
X61387Y203333D01*
X61329Y203308D01*
X61270Y203287D01*
X61210Y203269D01*
X61148Y203256D01*
X61086Y203246D01*
X61024Y203240D01*
X60961Y203238D01*
X60898Y203240D01*
X60836Y203246D01*
X60774Y203256D01*
X60712Y203269D01*
X60652Y203287D01*
X60593Y203308D01*
X60535Y203333D01*
X60479Y203362D01*
X60425Y203394D01*
X60373Y203429D01*
X60324Y203467D01*
X60276Y203509D01*
X60232Y203553D01*
X60190Y203601D01*
X60152Y203650D01*
X60117Y203702D01*
X60085Y203756D01*
X60056Y203812D01*
X60031Y203870D01*
X60010Y203929D01*
X59992Y203989D01*
X59979Y204051D01*
X59969Y204113D01*
X59963Y204175D01*
X59961Y204238D01*
D269*
G36*
X60899Y206472D02*
X58787Y201942D01*
X57655Y202470D01*
X59767Y207000D01*
X60899Y206472D01*
G37*
D270*
G36*
X62456Y202712D02*
X61505Y200674D01*
X58560Y202048D01*
X59511Y204086D01*
X62456Y202712D01*
G37*
D271*
G36*
X63723Y205431D02*
X63195Y204300D01*
X61157Y205251D01*
X61685Y206382D01*
X63723Y205431D01*
G37*
D272*
G36*
X64146Y206337D02*
X62351Y202486D01*
X61218Y203015D01*
X63013Y206866D01*
X64146Y206337D01*
G37*
D273*
G36*
X68010Y216397D02*
X65897Y211866D01*
X62726Y213345D01*
X64839Y217876D01*
X68010Y216397D01*
G37*
D274*
G36*
X68690Y216080D02*
X66155Y210643D01*
X65022Y211172D01*
X67557Y216609D01*
X68690Y216080D01*
G37*
D275*
G36*
X71182Y214918D02*
X63999Y199512D01*
X61280Y200780D01*
X68463Y216186D01*
X71182Y214918D01*
G37*
D276*
G36*
X94746Y203930D02*
X87562Y188524D01*
X81218Y191482D01*
X88402Y206888D01*
X94746Y203930D01*
G37*
D277*
G36*
X70809Y199920D02*
X69436Y196976D01*
X65585Y198772D01*
X66958Y201716D01*
X70809Y199920D01*
G37*
G36*
X76620Y212382D02*
X75247Y209438D01*
X71396Y211234D01*
X72769Y214178D01*
X76620Y212382D01*
G37*
D278*
G36*
X76939Y204786D02*
X75460Y201615D01*
X72289Y203094D01*
X73768Y206265D01*
X76939Y204786D01*
G37*
D268*
X-89011Y192813D02*
X-88901Y192875D01*
X-88794Y192941D01*
X-88689Y193010D01*
X-88586Y193082D01*
X-88485Y193157D01*
X-88387Y193235D01*
X-88291Y193317D01*
X-88198Y193401D01*
X-88107Y193489D01*
X-88019Y193579D01*
X-87935Y193672D01*
X-87853Y193767D01*
X-87774Y193865D01*
X-87698Y193965D01*
X-87625Y194068D01*
X-87556Y194173D01*
X-87490Y194280D01*
X-87428Y194389D01*
X-87368Y194500D01*
X-87313Y194613D01*
X-87261Y194728D01*
X-87212Y194844D01*
X-87168Y194961D01*
X-87127Y195080D01*
X-87089Y195200D01*
X-87056Y195322D01*
X-87026Y195444D01*
X-87000Y195567D01*
X-86978Y195691D01*
X-86960Y195815D01*
X-86946Y195940D01*
X-86936Y196065D01*
X-86929Y196191D01*
X-86927Y196317D01*
X-86929Y196443D01*
X-86934Y196568D01*
X-86944Y196694D01*
X-86957Y196819D01*
X-86974Y196943D01*
X-86996Y197067D01*
X-87021Y197191D01*
X-87050Y197313D01*
X-87082Y197434D01*
X-87119Y197555D01*
X-87159Y197674D01*
X-87203Y197792D01*
X-87251Y197908D01*
X-87303Y198023D01*
X-87357Y198136D01*
X-87416Y198247D01*
X-87478Y198357D01*
X-87543Y198464D01*
X-87612Y198570D01*
X-87684Y198673D01*
X-87759Y198774D01*
X-87837Y198872D01*
X-87919Y198968D01*
X-88003Y199061D01*
X-88090Y199152D01*
X-88180Y199240D01*
X-88273Y199325D01*
X-88368Y199407D01*
X-88466Y199486D01*
X-88566Y199562D01*
X-88669Y199635D01*
X-88774Y199704D01*
X-88881Y199770D01*
X-88990Y199833D01*
X-89100Y199893D01*
X-89213Y199948D01*
X-89328Y200001D01*
X-89444Y200049D01*
X-89561Y200094D01*
X-89680Y200135D01*
X-89800Y200173D01*
X-89921Y200207D01*
X-90043Y200237D01*
X-90166Y200263D01*
X-90290Y200285D01*
X-90415Y200303D01*
X-90540Y200317D01*
X-90665Y200328D01*
X-90791Y200334D01*
X-90916Y200337D01*
X-91042Y200336D01*
X-91168Y200330D01*
X-91293Y200321D01*
X-91418Y200308D01*
X-91543Y200291D01*
X-91667Y200270D01*
X-91790Y200245D01*
X-91913Y200216D01*
X-92034Y200183D01*
X-92154Y200147D01*
X-92274Y200107D01*
X-92392Y200063D01*
X-81429Y191935D02*
X-64209Y199964D01*
X-70971Y214465D02*
X-88191Y206436D01*
X-87790Y192193D02*
X-87788Y192256D01*
X-87782Y192318D01*
X-87772Y192380D01*
X-87759Y192442D01*
X-87741Y192502D01*
X-87720Y192561D01*
X-87695Y192619D01*
X-87666Y192675D01*
X-87634Y192729D01*
X-87599Y192781D01*
X-87561Y192830D01*
X-87519Y192878D01*
X-87475Y192922D01*
X-87427Y192964D01*
X-87378Y193002D01*
X-87326Y193037D01*
X-87272Y193069D01*
X-87216Y193098D01*
X-87158Y193123D01*
X-87099Y193144D01*
X-87039Y193162D01*
X-86977Y193175D01*
X-86915Y193185D01*
X-86853Y193191D01*
X-86790Y193193D01*
X-86727Y193191D01*
X-86665Y193185D01*
X-86603Y193175D01*
X-86541Y193162D01*
X-86481Y193144D01*
X-86422Y193123D01*
X-86364Y193098D01*
X-86308Y193069D01*
X-86254Y193037D01*
X-86202Y193002D01*
X-86153Y192964D01*
X-86105Y192922D01*
X-86061Y192878D01*
X-86019Y192830D01*
X-85981Y192781D01*
X-85946Y192729D01*
X-85914Y192675D01*
X-85885Y192619D01*
X-85860Y192561D01*
X-85839Y192502D01*
X-85821Y192442D01*
X-85808Y192380D01*
X-85798Y192318D01*
X-85792Y192256D01*
X-85790Y192193D01*
X-85792Y192130D01*
X-85798Y192068D01*
X-85808Y192006D01*
X-85821Y191944D01*
X-85839Y191884D01*
X-85860Y191825D01*
X-85885Y191767D01*
X-85914Y191711D01*
X-85946Y191657D01*
X-85981Y191605D01*
X-86019Y191556D01*
X-86061Y191508D01*
X-86105Y191464D01*
X-86153Y191422D01*
X-86202Y191384D01*
X-86254Y191349D01*
X-86308Y191317D01*
X-86364Y191288D01*
X-86422Y191263D01*
X-86481Y191242D01*
X-86541Y191224D01*
X-86603Y191211D01*
X-86665Y191201D01*
X-86727Y191195D01*
X-86790Y191193D01*
X-86853Y191195D01*
X-86915Y191201D01*
X-86977Y191211D01*
X-87039Y191224D01*
X-87099Y191242D01*
X-87158Y191263D01*
X-87216Y191288D01*
X-87272Y191317D01*
X-87326Y191349D01*
X-87378Y191384D01*
X-87427Y191422D01*
X-87475Y191464D01*
X-87519Y191508D01*
X-87561Y191556D01*
X-87599Y191605D01*
X-87634Y191657D01*
X-87666Y191711D01*
X-87695Y191767D01*
X-87720Y191825D01*
X-87741Y191884D01*
X-87759Y191944D01*
X-87772Y192006D01*
X-87782Y192068D01*
X-87788Y192130D01*
X-87790Y192193D01*
D269*
G36*
X-88542Y193582D02*
X-86430Y189052D01*
X-87562Y188524D01*
X-89674Y193054D01*
X-88542Y193582D01*
G37*
D270*
G36*
X-84661Y192358D02*
X-83710Y190320D01*
X-86655Y188946D01*
X-87606Y190984D01*
X-84661Y192358D01*
G37*
D271*
G36*
X-85929Y195077D02*
X-85401Y193946D01*
X-87439Y192995D01*
X-87967Y194126D01*
X-85929Y195077D01*
G37*
D272*
G36*
X-86351Y195984D02*
X-84556Y192133D01*
X-85689Y191604D01*
X-87484Y195455D01*
X-86351Y195984D01*
G37*
D273*
G36*
X-91575Y205409D02*
X-89462Y200878D01*
X-92633Y199399D01*
X-94746Y203930D01*
X-91575Y205409D01*
G37*
D274*
G36*
X-90894Y205726D02*
X-88359Y200289D01*
X-89492Y199760D01*
X-92027Y205197D01*
X-90894Y205726D01*
G37*
D275*
G36*
X-88401Y206888D02*
X-81218Y191482D01*
X-83937Y190214D01*
X-91120Y205620D01*
X-88401Y206888D01*
G37*
D276*
G36*
X-64838Y217876D02*
X-57654Y202470D01*
X-63998Y199512D01*
X-71182Y214918D01*
X-64838Y217876D01*
G37*
D277*
G36*
X-77153Y196962D02*
X-75780Y194018D01*
X-79631Y192222D01*
X-81004Y195166D01*
X-77153Y196962D01*
G37*
G36*
X-82964Y209424D02*
X-81591Y206480D01*
X-85442Y204684D01*
X-86815Y207628D01*
X-82964Y209424D01*
G37*
D278*
G36*
X-76940Y204785D02*
X-75461Y201614D01*
X-78632Y200135D01*
X-80111Y203306D01*
X-76940Y204785D01*
G37*
D268*
X-182336Y111144D02*
X-182282Y111257D01*
X-182232Y111372D01*
X-182185Y111489D01*
X-182142Y111607D01*
X-182103Y111727D01*
X-182067Y111848D01*
X-182035Y111969D01*
X-182007Y112092D01*
X-181983Y112215D01*
X-181963Y112339D01*
X-181947Y112464D01*
X-181935Y112589D01*
X-181926Y112715D01*
X-181922Y112841D01*
X-181921Y112966D01*
X-181925Y113092D01*
X-181932Y113218D01*
X-181943Y113343D01*
X-181959Y113468D01*
X-181978Y113592D01*
X-182001Y113716D01*
X-182028Y113839D01*
X-182058Y113961D01*
X-182093Y114081D01*
X-182131Y114201D01*
X-182173Y114320D01*
X-182219Y114437D01*
X-182269Y114553D01*
X-182322Y114667D01*
X-182378Y114779D01*
X-182438Y114889D01*
X-182502Y114998D01*
X-182569Y115105D01*
X-182639Y115209D01*
X-182712Y115311D01*
X-182789Y115411D01*
X-182869Y115508D01*
X-182951Y115603D01*
X-183037Y115695D01*
X-183126Y115784D01*
X-183217Y115871D01*
X-183311Y115955D01*
X-183407Y116035D01*
X-183506Y116113D01*
X-183608Y116187D01*
X-183711Y116258D01*
X-183817Y116326D01*
X-183925Y116391D01*
X-184035Y116452D01*
X-184147Y116510D01*
X-184260Y116564D01*
X-184375Y116615D01*
X-184492Y116662D01*
X-184610Y116705D01*
X-184730Y116744D01*
X-184850Y116780D01*
X-184972Y116812D01*
X-185094Y116840D01*
X-185218Y116864D01*
X-185342Y116885D01*
X-185467Y116901D01*
X-185592Y116914D01*
X-185717Y116922D01*
X-185843Y116927D01*
X-185969Y116928D01*
X-186094Y116925D01*
X-186220Y116917D01*
X-186345Y116906D01*
X-186470Y116891D01*
X-186595Y116872D01*
X-186718Y116850D01*
X-186841Y116823D01*
X-186963Y116792D01*
X-187084Y116758D01*
X-187204Y116720D01*
X-187323Y116678D01*
X-187440Y116632D01*
X-187556Y116583D01*
X-187670Y116530D01*
X-187782Y116474D01*
X-187893Y116414D01*
X-188001Y116351D01*
X-188108Y116284D01*
X-188213Y116214D01*
X-188315Y116141D01*
X-188415Y116064D01*
X-188512Y115985D01*
X-188607Y115902D01*
X-188699Y115817D01*
X-188789Y115728D01*
X-188875Y115637D01*
X-188959Y115543D01*
X-189040Y115447D01*
X-189118Y115348D01*
X-189192Y115247D01*
X-189264Y115143D01*
X-175622Y114773D02*
X-166122Y131227D01*
X-179978Y139227D02*
X-189478Y122773D01*
X-181162Y111909D02*
X-181160Y111972D01*
X-181154Y112034D01*
X-181144Y112096D01*
X-181131Y112158D01*
X-181113Y112218D01*
X-181092Y112277D01*
X-181067Y112335D01*
X-181038Y112391D01*
X-181006Y112445D01*
X-180971Y112497D01*
X-180933Y112546D01*
X-180891Y112594D01*
X-180847Y112638D01*
X-180799Y112680D01*
X-180750Y112718D01*
X-180698Y112753D01*
X-180644Y112785D01*
X-180588Y112814D01*
X-180530Y112839D01*
X-180471Y112860D01*
X-180411Y112878D01*
X-180349Y112891D01*
X-180287Y112901D01*
X-180225Y112907D01*
X-180162Y112909D01*
X-180099Y112907D01*
X-180037Y112901D01*
X-179975Y112891D01*
X-179913Y112878D01*
X-179853Y112860D01*
X-179794Y112839D01*
X-179736Y112814D01*
X-179680Y112785D01*
X-179626Y112753D01*
X-179574Y112718D01*
X-179525Y112680D01*
X-179477Y112638D01*
X-179433Y112594D01*
X-179391Y112546D01*
X-179353Y112497D01*
X-179318Y112445D01*
X-179286Y112391D01*
X-179257Y112335D01*
X-179232Y112277D01*
X-179211Y112218D01*
X-179193Y112158D01*
X-179180Y112096D01*
X-179170Y112034D01*
X-179164Y111972D01*
X-179162Y111909D01*
X-179164Y111846D01*
X-179170Y111784D01*
X-179180Y111722D01*
X-179193Y111660D01*
X-179211Y111600D01*
X-179232Y111541D01*
X-179257Y111483D01*
X-179286Y111427D01*
X-179318Y111373D01*
X-179353Y111321D01*
X-179391Y111272D01*
X-179433Y111224D01*
X-179477Y111180D01*
X-179525Y111138D01*
X-179574Y111100D01*
X-179626Y111065D01*
X-179680Y111033D01*
X-179736Y111004D01*
X-179794Y110979D01*
X-179853Y110958D01*
X-179913Y110940D01*
X-179975Y110927D01*
X-180037Y110917D01*
X-180099Y110911D01*
X-180162Y110909D01*
X-180225Y110911D01*
X-180287Y110917D01*
X-180349Y110927D01*
X-180411Y110940D01*
X-180471Y110958D01*
X-180530Y110979D01*
X-180588Y111004D01*
X-180644Y111033D01*
X-180698Y111065D01*
X-180750Y111100D01*
X-180799Y111138D01*
X-180847Y111180D01*
X-180891Y111224D01*
X-180933Y111272D01*
X-180971Y111321D01*
X-181006Y111373D01*
X-181038Y111427D01*
X-181067Y111483D01*
X-181092Y111541D01*
X-181113Y111600D01*
X-181131Y111660D01*
X-181144Y111722D01*
X-181154Y111784D01*
X-181160Y111846D01*
X-181162Y111909D01*
D269*
G36*
X-182393Y112043D02*
X-178064Y109544D01*
X-178689Y108461D01*
X-183018Y110960D01*
X-182393Y112043D01*
G37*
D270*
G36*
X-178512Y113265D02*
X-176565Y112140D01*
X-178190Y109327D01*
X-180137Y110452D01*
X-178512Y113265D01*
G37*
D271*
G36*
X-181111Y114765D02*
X-180029Y114140D01*
X-181153Y112193D01*
X-182235Y112818D01*
X-181111Y114765D01*
G37*
D272*
G36*
X-181976Y115265D02*
X-178297Y113141D01*
X-178922Y112059D01*
X-182601Y114183D01*
X-181976Y115265D01*
G37*
D273*
G36*
X-191661Y119991D02*
X-187331Y117491D01*
X-189081Y114461D01*
X-193411Y116961D01*
X-191661Y119991D01*
G37*
D274*
G36*
X-191286Y120641D02*
X-186091Y117642D01*
X-186716Y116559D01*
X-191911Y119558D01*
X-191286Y120641D01*
G37*
D275*
G36*
X-189911Y123023D02*
X-175189Y114524D01*
X-176689Y111925D01*
X-191411Y120424D01*
X-189911Y123023D01*
G37*
D276*
G36*
X-176911Y145539D02*
X-162189Y137040D01*
X-165689Y130977D01*
X-180411Y139476D01*
X-176911Y145539D01*
G37*
D277*
G36*
X-175003Y121343D02*
X-172190Y119718D01*
X-174315Y116039D01*
X-177128Y117664D01*
X-175003Y121343D01*
G37*
G36*
X-186910Y128218D02*
X-184097Y126593D01*
X-186222Y122914D01*
X-189035Y124539D01*
X-186910Y128218D01*
G37*
D278*
G36*
X-179315Y127874D02*
X-176285Y126124D01*
X-178035Y123094D01*
X-181065Y124844D01*
X-179315Y127874D01*
G37*
M02*
