G04 EAGLE Gerber RS-274X export*
G75*
%MOMM*%
%FSLAX34Y34*%
%LPD*%
%INBottom Copper*%
%IPPOS*%
%AMOC8*
5,1,8,0,0,1.08239X$1,22.5*%
G01*
%ADD10R,2.209800X0.762000*%
%ADD11R,0.812800X0.990600*%
%ADD12C,1.270000*%
%ADD13C,0.900000*%
%ADD14R,5.080000X6.350000*%
%ADD15C,3.251200*%
%ADD16C,0.525000*%
%ADD17C,0.402400*%
%ADD18C,0.609600*%
%ADD19C,0.600000*%
%ADD20C,0.304800*%
%ADD21C,0.406400*%
%ADD22C,0.812800*%

G36*
X48Y-2996292D02*
X48Y-2996292D01*
X64Y-2996293D01*
X167Y-2996267D01*
X272Y-2996245D01*
X285Y-2996237D01*
X300Y-2996233D01*
X390Y-2996175D01*
X482Y-2996120D01*
X496Y-2996106D01*
X505Y-2996100D01*
X519Y-2996082D01*
X585Y-2996015D01*
X397733Y-2499580D01*
X397773Y-2499508D01*
X397821Y-2499440D01*
X397832Y-2499402D01*
X397852Y-2499368D01*
X397867Y-2499286D01*
X397891Y-2499207D01*
X397892Y-2499151D01*
X397897Y-2499128D01*
X397894Y-2499106D01*
X397895Y-2499059D01*
X249401Y-420149D01*
X249379Y-420056D01*
X249364Y-419962D01*
X249351Y-419938D01*
X249345Y-419912D01*
X249294Y-419831D01*
X249249Y-419747D01*
X249229Y-419728D01*
X249215Y-419705D01*
X249140Y-419645D01*
X249070Y-419580D01*
X249046Y-419569D01*
X249025Y-419552D01*
X248935Y-419518D01*
X248848Y-419479D01*
X248821Y-419476D01*
X248796Y-419467D01*
X248701Y-419464D01*
X248605Y-419455D01*
X248579Y-419461D01*
X248552Y-419460D01*
X248461Y-419488D01*
X248368Y-419510D01*
X248345Y-419524D01*
X248319Y-419532D01*
X248242Y-419588D01*
X248160Y-419639D01*
X248143Y-419660D01*
X248122Y-419675D01*
X248066Y-419753D01*
X248005Y-419827D01*
X247996Y-419852D01*
X247980Y-419874D01*
X247953Y-419966D01*
X247919Y-420056D01*
X247916Y-420091D01*
X247911Y-420108D01*
X247909Y-420155D01*
X247905Y-420202D01*
X247905Y-535084D01*
X202344Y-580645D01*
X95974Y-580645D01*
X95878Y-580661D01*
X95781Y-580670D01*
X95758Y-580680D01*
X95733Y-580684D01*
X95647Y-580730D01*
X95558Y-580771D01*
X95533Y-580792D01*
X95518Y-580799D01*
X95501Y-580818D01*
X95444Y-580864D01*
X55677Y-620631D01*
X55620Y-620711D01*
X55558Y-620786D01*
X55550Y-620809D01*
X55535Y-620830D01*
X55507Y-620923D01*
X55496Y-620951D01*
X55483Y-620979D01*
X55483Y-620987D01*
X55472Y-621014D01*
X55469Y-621047D01*
X55464Y-621063D01*
X55465Y-621088D01*
X55458Y-621161D01*
X55458Y-621689D01*
X52729Y-624418D01*
X48871Y-624418D01*
X46142Y-621689D01*
X46142Y-617831D01*
X48871Y-615102D01*
X49399Y-615102D01*
X49495Y-615086D01*
X49592Y-615077D01*
X49615Y-615067D01*
X49640Y-615063D01*
X49726Y-615017D01*
X49815Y-614976D01*
X49840Y-614955D01*
X49855Y-614948D01*
X49872Y-614929D01*
X49929Y-614883D01*
X89696Y-575116D01*
X90508Y-574304D01*
X90551Y-574244D01*
X90601Y-574190D01*
X90621Y-574146D01*
X90650Y-574105D01*
X90671Y-574035D01*
X90702Y-573968D01*
X90707Y-573919D01*
X90721Y-573872D01*
X90718Y-573799D01*
X90726Y-573725D01*
X90715Y-573677D01*
X90713Y-573628D01*
X90687Y-573559D01*
X90670Y-573488D01*
X90644Y-573446D01*
X90627Y-573400D01*
X90581Y-573343D01*
X90542Y-573280D01*
X90504Y-573249D01*
X90472Y-573211D01*
X90410Y-573172D01*
X90353Y-573125D01*
X90307Y-573108D01*
X90265Y-573082D01*
X90194Y-573065D01*
X90125Y-573039D01*
X90052Y-573032D01*
X90028Y-573026D01*
X90011Y-573028D01*
X89978Y-573025D01*
X25693Y-573025D01*
X25596Y-573041D01*
X25499Y-573050D01*
X25477Y-573060D01*
X25452Y-573064D01*
X25366Y-573110D01*
X25277Y-573151D01*
X25251Y-573172D01*
X25237Y-573179D01*
X25220Y-573198D01*
X25163Y-573244D01*
X24789Y-573618D01*
X20931Y-573618D01*
X18202Y-570889D01*
X18202Y-567031D01*
X20931Y-564302D01*
X24789Y-564302D01*
X25163Y-564676D01*
X25242Y-564733D01*
X25317Y-564795D01*
X25341Y-564803D01*
X25361Y-564818D01*
X25455Y-564846D01*
X25546Y-564881D01*
X25579Y-564884D01*
X25595Y-564889D01*
X25620Y-564888D01*
X25693Y-564895D01*
X193586Y-564895D01*
X193682Y-564879D01*
X193779Y-564870D01*
X193802Y-564860D01*
X193827Y-564856D01*
X193913Y-564810D01*
X194002Y-564769D01*
X194027Y-564748D01*
X194042Y-564741D01*
X194059Y-564722D01*
X194116Y-564676D01*
X229396Y-529396D01*
X229453Y-529316D01*
X229515Y-529241D01*
X229523Y-529218D01*
X229538Y-529197D01*
X229566Y-529104D01*
X229601Y-529013D01*
X229604Y-528980D01*
X229609Y-528964D01*
X229608Y-528939D01*
X229615Y-528866D01*
X229615Y-389934D01*
X229615Y-389931D01*
X229615Y-389928D01*
X229595Y-389812D01*
X229576Y-389693D01*
X229574Y-389690D01*
X229574Y-389687D01*
X229511Y-389553D01*
X229323Y-389235D01*
X229591Y-388196D01*
X229593Y-388175D01*
X229601Y-388156D01*
X229615Y-388009D01*
X229615Y-386936D01*
X229658Y-386877D01*
X229708Y-386823D01*
X229728Y-386779D01*
X229757Y-386738D01*
X229778Y-386668D01*
X229809Y-386601D01*
X229814Y-386552D01*
X229828Y-386505D01*
X229825Y-386432D01*
X229833Y-386358D01*
X229822Y-386310D01*
X229820Y-386261D01*
X229794Y-386192D01*
X229777Y-386121D01*
X229751Y-386079D01*
X229734Y-386033D01*
X229688Y-385976D01*
X229649Y-385913D01*
X229611Y-385882D01*
X229579Y-385844D01*
X229517Y-385805D01*
X229460Y-385758D01*
X229414Y-385741D01*
X229372Y-385715D01*
X229301Y-385698D01*
X229232Y-385672D01*
X229159Y-385665D01*
X229135Y-385659D01*
X229118Y-385661D01*
X229085Y-385658D01*
X226671Y-385658D01*
X223942Y-382929D01*
X223942Y-379071D01*
X226671Y-376342D01*
X230529Y-376342D01*
X231288Y-377101D01*
X231370Y-377160D01*
X231449Y-377223D01*
X231469Y-377231D01*
X231486Y-377243D01*
X231583Y-377272D01*
X231678Y-377307D01*
X231699Y-377308D01*
X231720Y-377314D01*
X231821Y-377311D01*
X231922Y-377313D01*
X231942Y-377307D01*
X231964Y-377306D01*
X232058Y-377270D01*
X232155Y-377240D01*
X232172Y-377228D01*
X232192Y-377220D01*
X232270Y-377156D01*
X232352Y-377096D01*
X232364Y-377079D01*
X232381Y-377065D01*
X232434Y-376980D01*
X232492Y-376897D01*
X232502Y-376871D01*
X232510Y-376858D01*
X232515Y-376834D01*
X232543Y-376758D01*
X249679Y-310357D01*
X249682Y-310321D01*
X249694Y-310287D01*
X249693Y-310200D01*
X249701Y-310114D01*
X249692Y-310079D01*
X249692Y-310043D01*
X249653Y-309901D01*
X238693Y-281405D01*
X238688Y-281397D01*
X238686Y-281388D01*
X238627Y-281292D01*
X238570Y-281195D01*
X238562Y-281188D01*
X238558Y-281180D01*
X238470Y-281109D01*
X238385Y-281035D01*
X238376Y-281031D01*
X238369Y-281025D01*
X238264Y-280986D01*
X238159Y-280943D01*
X238150Y-280943D01*
X238141Y-280939D01*
X237994Y-280925D01*
X231304Y-280925D01*
X231231Y-280937D01*
X231158Y-280939D01*
X231112Y-280956D01*
X231063Y-280964D01*
X230998Y-280999D01*
X230929Y-281025D01*
X230891Y-281056D01*
X230848Y-281079D01*
X230797Y-281133D01*
X230741Y-281180D01*
X230715Y-281222D01*
X230681Y-281257D01*
X230650Y-281324D01*
X230612Y-281387D01*
X230600Y-281435D01*
X230580Y-281480D01*
X230573Y-281553D01*
X230556Y-281624D01*
X230561Y-281673D01*
X230556Y-281723D01*
X230573Y-281794D01*
X230580Y-281867D01*
X230600Y-281912D01*
X230611Y-281960D01*
X230650Y-282023D01*
X230680Y-282090D01*
X230727Y-282146D01*
X230740Y-282168D01*
X230753Y-282178D01*
X230774Y-282204D01*
X232645Y-284075D01*
X232645Y-287425D01*
X230275Y-289795D01*
X226925Y-289795D01*
X226656Y-289526D01*
X226577Y-289469D01*
X226502Y-289407D01*
X226478Y-289399D01*
X226458Y-289384D01*
X226364Y-289356D01*
X226273Y-289321D01*
X226240Y-289318D01*
X226224Y-289313D01*
X226199Y-289314D01*
X226126Y-289307D01*
X186487Y-289307D01*
X159003Y-261823D01*
X159003Y-201174D01*
X158987Y-201077D01*
X158978Y-200980D01*
X158968Y-200958D01*
X158964Y-200933D01*
X158918Y-200847D01*
X158877Y-200758D01*
X158856Y-200732D01*
X158849Y-200718D01*
X158830Y-200701D01*
X158784Y-200644D01*
X152416Y-194276D01*
X152337Y-194219D01*
X152262Y-194157D01*
X152238Y-194149D01*
X152218Y-194134D01*
X152125Y-194106D01*
X152033Y-194071D01*
X152000Y-194068D01*
X151984Y-194063D01*
X151959Y-194064D01*
X151886Y-194057D01*
X110424Y-194057D01*
X110327Y-194073D01*
X110230Y-194082D01*
X110208Y-194092D01*
X110183Y-194096D01*
X110097Y-194142D01*
X110008Y-194183D01*
X109982Y-194204D01*
X109968Y-194211D01*
X109951Y-194230D01*
X109894Y-194276D01*
X109625Y-194545D01*
X106275Y-194545D01*
X103905Y-192175D01*
X103905Y-188825D01*
X106275Y-186455D01*
X109625Y-186455D01*
X109894Y-186724D01*
X109973Y-186781D01*
X110048Y-186843D01*
X110072Y-186851D01*
X110092Y-186866D01*
X110186Y-186894D01*
X110277Y-186929D01*
X110310Y-186932D01*
X110326Y-186937D01*
X110351Y-186936D01*
X110424Y-186943D01*
X155143Y-186943D01*
X157446Y-189246D01*
X164836Y-196636D01*
X164896Y-196679D01*
X164950Y-196729D01*
X164994Y-196750D01*
X165035Y-196778D01*
X165105Y-196800D01*
X165172Y-196830D01*
X165221Y-196835D01*
X165268Y-196849D01*
X165341Y-196847D01*
X165415Y-196854D01*
X165463Y-196843D01*
X165512Y-196841D01*
X165581Y-196816D01*
X165652Y-196799D01*
X165694Y-196773D01*
X165740Y-196756D01*
X165797Y-196709D01*
X165860Y-196670D01*
X165891Y-196632D01*
X165929Y-196601D01*
X165968Y-196538D01*
X166015Y-196482D01*
X166032Y-196436D01*
X166058Y-196394D01*
X166075Y-196322D01*
X166101Y-196253D01*
X166108Y-196180D01*
X166114Y-196156D01*
X166112Y-196140D01*
X166115Y-196106D01*
X166115Y-178524D01*
X166099Y-178428D01*
X166090Y-178331D01*
X166080Y-178308D01*
X166076Y-178283D01*
X166030Y-178197D01*
X165989Y-178108D01*
X165968Y-178083D01*
X165961Y-178068D01*
X165942Y-178051D01*
X165896Y-177994D01*
X157286Y-169384D01*
X157206Y-169327D01*
X157131Y-169265D01*
X157108Y-169257D01*
X157087Y-169242D01*
X156994Y-169214D01*
X156903Y-169179D01*
X156870Y-169176D01*
X156854Y-169171D01*
X156829Y-169172D01*
X156756Y-169165D01*
X129833Y-169165D01*
X129736Y-169181D01*
X129639Y-169190D01*
X129617Y-169200D01*
X129592Y-169204D01*
X129506Y-169250D01*
X129417Y-169291D01*
X129391Y-169312D01*
X129377Y-169319D01*
X129360Y-169338D01*
X129303Y-169384D01*
X128929Y-169758D01*
X125071Y-169758D01*
X122342Y-167029D01*
X122342Y-163171D01*
X125071Y-160442D01*
X128929Y-160442D01*
X129303Y-160816D01*
X129382Y-160873D01*
X129457Y-160935D01*
X129481Y-160943D01*
X129501Y-160958D01*
X129595Y-160986D01*
X129686Y-161021D01*
X129719Y-161024D01*
X129735Y-161029D01*
X129759Y-161028D01*
X129833Y-161035D01*
X160434Y-161035D01*
X174245Y-174846D01*
X174245Y-254546D01*
X174261Y-254642D01*
X174270Y-254739D01*
X174280Y-254762D01*
X174284Y-254787D01*
X174331Y-254873D01*
X174371Y-254962D01*
X174392Y-254987D01*
X174399Y-255002D01*
X174418Y-255019D01*
X174464Y-255076D01*
X174996Y-255608D01*
X175056Y-255651D01*
X175110Y-255701D01*
X175154Y-255721D01*
X175195Y-255750D01*
X175265Y-255771D01*
X175332Y-255802D01*
X175381Y-255807D01*
X175428Y-255821D01*
X175501Y-255818D01*
X175575Y-255826D01*
X175623Y-255815D01*
X175672Y-255813D01*
X175741Y-255787D01*
X175812Y-255770D01*
X175854Y-255744D01*
X175900Y-255727D01*
X175957Y-255681D01*
X176020Y-255642D01*
X176051Y-255604D01*
X176089Y-255572D01*
X176128Y-255510D01*
X176175Y-255453D01*
X176192Y-255407D01*
X176218Y-255365D01*
X176235Y-255294D01*
X176261Y-255225D01*
X176268Y-255152D01*
X176274Y-255128D01*
X176272Y-255111D01*
X176275Y-255078D01*
X176275Y-174714D01*
X176259Y-174618D01*
X176250Y-174521D01*
X176240Y-174498D01*
X176236Y-174473D01*
X176190Y-174387D01*
X176149Y-174298D01*
X176128Y-174273D01*
X176121Y-174258D01*
X176102Y-174241D01*
X176056Y-174184D01*
X158556Y-156684D01*
X158476Y-156627D01*
X158401Y-156565D01*
X158378Y-156557D01*
X158357Y-156542D01*
X158264Y-156514D01*
X158173Y-156479D01*
X158140Y-156476D01*
X158124Y-156471D01*
X158099Y-156472D01*
X158026Y-156465D01*
X129833Y-156465D01*
X129736Y-156481D01*
X129639Y-156490D01*
X129617Y-156500D01*
X129592Y-156504D01*
X129506Y-156550D01*
X129417Y-156591D01*
X129391Y-156612D01*
X129377Y-156619D01*
X129360Y-156638D01*
X129303Y-156684D01*
X128929Y-157058D01*
X125071Y-157058D01*
X122342Y-154329D01*
X122342Y-150471D01*
X125071Y-147742D01*
X128929Y-147742D01*
X129303Y-148116D01*
X129382Y-148173D01*
X129457Y-148235D01*
X129481Y-148243D01*
X129501Y-148258D01*
X129595Y-148286D01*
X129686Y-148321D01*
X129719Y-148324D01*
X129735Y-148329D01*
X129760Y-148328D01*
X129833Y-148335D01*
X161704Y-148335D01*
X184405Y-171036D01*
X184405Y-254546D01*
X184421Y-254642D01*
X184430Y-254739D01*
X184440Y-254762D01*
X184444Y-254787D01*
X184490Y-254873D01*
X184531Y-254962D01*
X184552Y-254987D01*
X184559Y-255002D01*
X184578Y-255019D01*
X184624Y-255076D01*
X194504Y-264956D01*
X194584Y-265013D01*
X194659Y-265075D01*
X194682Y-265083D01*
X194703Y-265098D01*
X194796Y-265126D01*
X194887Y-265161D01*
X194920Y-265164D01*
X194936Y-265169D01*
X194961Y-265168D01*
X195034Y-265175D01*
X245428Y-265175D01*
X245499Y-265163D01*
X245571Y-265161D01*
X245644Y-265140D01*
X245668Y-265136D01*
X245683Y-265128D01*
X245713Y-265119D01*
X246389Y-264840D01*
X247055Y-265118D01*
X247127Y-265135D01*
X247196Y-265161D01*
X247268Y-265168D01*
X247292Y-265174D01*
X247309Y-265172D01*
X247343Y-265175D01*
X248064Y-265175D01*
X248581Y-265692D01*
X248640Y-265735D01*
X248692Y-265784D01*
X248759Y-265820D01*
X248779Y-265835D01*
X248794Y-265839D01*
X248822Y-265854D01*
X249498Y-266135D01*
X249772Y-266802D01*
X249811Y-266865D01*
X249841Y-266932D01*
X249887Y-266989D01*
X249900Y-267010D01*
X249914Y-267020D01*
X249935Y-267047D01*
X250445Y-267556D01*
X250445Y-268288D01*
X250448Y-268308D01*
X250446Y-268325D01*
X250457Y-268371D01*
X250459Y-268431D01*
X250480Y-268504D01*
X250484Y-268528D01*
X250492Y-268543D01*
X250501Y-268573D01*
X267795Y-310573D01*
X267808Y-310594D01*
X267840Y-310663D01*
X268589Y-311957D01*
X268639Y-312018D01*
X268682Y-312085D01*
X268716Y-312112D01*
X268744Y-312145D01*
X268811Y-312187D01*
X268873Y-312236D01*
X268914Y-312251D01*
X268951Y-312274D01*
X269028Y-312292D01*
X269103Y-312319D01*
X269146Y-312319D01*
X269189Y-312329D01*
X269268Y-312321D01*
X269347Y-312323D01*
X269388Y-312309D01*
X269432Y-312305D01*
X269504Y-312272D01*
X269579Y-312248D01*
X269614Y-312222D01*
X269654Y-312204D01*
X269711Y-312150D01*
X269775Y-312103D01*
X269800Y-312067D01*
X269832Y-312037D01*
X269869Y-311967D01*
X269914Y-311902D01*
X269935Y-311843D01*
X269947Y-311822D01*
X269950Y-311802D01*
X269964Y-311763D01*
X344684Y-12882D01*
X344694Y-12767D01*
X344705Y-12651D01*
X344704Y-12645D01*
X344704Y-12639D01*
X344676Y-12527D01*
X344650Y-12414D01*
X344646Y-12408D01*
X344645Y-12402D01*
X344582Y-12305D01*
X344521Y-12206D01*
X344516Y-12202D01*
X344513Y-12197D01*
X344422Y-12125D01*
X344333Y-12052D01*
X344327Y-12049D01*
X344321Y-12045D01*
X344212Y-12006D01*
X344104Y-11965D01*
X344096Y-11965D01*
X344092Y-11963D01*
X344077Y-11963D01*
X343957Y-11951D01*
X250766Y-11951D01*
X250734Y-11956D01*
X250701Y-11954D01*
X250614Y-11976D01*
X250525Y-11990D01*
X250496Y-12006D01*
X250464Y-12014D01*
X250389Y-12063D01*
X250310Y-12105D01*
X250287Y-12129D01*
X250260Y-12147D01*
X250204Y-12218D01*
X250143Y-12284D01*
X250129Y-12313D01*
X250109Y-12339D01*
X250079Y-12424D01*
X250042Y-12506D01*
X250039Y-12538D01*
X250028Y-12569D01*
X250027Y-12659D01*
X250018Y-12749D01*
X250026Y-12780D01*
X250025Y-12813D01*
X250062Y-12956D01*
X252533Y-19745D01*
X252533Y-229455D01*
X249212Y-238579D01*
X242971Y-246017D01*
X234562Y-250871D01*
X225000Y-252557D01*
X215438Y-250871D01*
X207029Y-246017D01*
X200788Y-238579D01*
X197467Y-229455D01*
X197467Y-19745D01*
X199938Y-12956D01*
X199944Y-12924D01*
X199958Y-12894D01*
X199967Y-12805D01*
X199983Y-12716D01*
X199979Y-12684D01*
X199982Y-12651D01*
X199961Y-12564D01*
X199949Y-12475D01*
X199934Y-12446D01*
X199927Y-12414D01*
X199879Y-12337D01*
X199839Y-12257D01*
X199815Y-12234D01*
X199798Y-12206D01*
X199729Y-12149D01*
X199664Y-12086D01*
X199635Y-12072D01*
X199609Y-12052D01*
X199525Y-12020D01*
X199444Y-11981D01*
X199412Y-11977D01*
X199381Y-11965D01*
X199234Y-11951D01*
X-199234Y-11951D01*
X-199266Y-11956D01*
X-199299Y-11954D01*
X-199386Y-11976D01*
X-199475Y-11990D01*
X-199504Y-12006D01*
X-199536Y-12014D01*
X-199611Y-12063D01*
X-199690Y-12105D01*
X-199713Y-12129D01*
X-199740Y-12147D01*
X-199796Y-12218D01*
X-199857Y-12284D01*
X-199871Y-12313D01*
X-199891Y-12339D01*
X-199921Y-12424D01*
X-199958Y-12506D01*
X-199961Y-12538D01*
X-199972Y-12569D01*
X-199973Y-12659D01*
X-199982Y-12749D01*
X-199974Y-12780D01*
X-199975Y-12813D01*
X-199938Y-12956D01*
X-197467Y-19745D01*
X-197467Y-229455D01*
X-200788Y-238579D01*
X-207029Y-246017D01*
X-215438Y-250871D01*
X-225000Y-252557D01*
X-234562Y-250871D01*
X-242971Y-246017D01*
X-249212Y-238579D01*
X-252533Y-229455D01*
X-252533Y-19745D01*
X-250062Y-12956D01*
X-250056Y-12924D01*
X-250042Y-12894D01*
X-250033Y-12805D01*
X-250017Y-12716D01*
X-250021Y-12684D01*
X-250018Y-12651D01*
X-250039Y-12564D01*
X-250051Y-12475D01*
X-250066Y-12446D01*
X-250073Y-12414D01*
X-250121Y-12337D01*
X-250161Y-12257D01*
X-250185Y-12234D01*
X-250202Y-12206D01*
X-250271Y-12149D01*
X-250336Y-12086D01*
X-250365Y-12072D01*
X-250391Y-12052D01*
X-250475Y-12020D01*
X-250556Y-11981D01*
X-250588Y-11977D01*
X-250619Y-11965D01*
X-250766Y-11951D01*
X-343957Y-11951D01*
X-344072Y-11970D01*
X-344186Y-11986D01*
X-344192Y-11989D01*
X-344198Y-11990D01*
X-344300Y-12045D01*
X-344403Y-12098D01*
X-344408Y-12102D01*
X-344413Y-12105D01*
X-344492Y-12190D01*
X-344573Y-12273D01*
X-344576Y-12279D01*
X-344580Y-12284D01*
X-344628Y-12388D01*
X-344678Y-12493D01*
X-344678Y-12500D01*
X-344681Y-12506D01*
X-344692Y-12621D01*
X-344706Y-12736D01*
X-344705Y-12744D01*
X-344705Y-12749D01*
X-344702Y-12763D01*
X-344684Y-12882D01*
X-248189Y-398862D01*
X-248169Y-398910D01*
X-248163Y-398932D01*
X-248149Y-398956D01*
X-248114Y-399050D01*
X-248098Y-399073D01*
X-248092Y-399086D01*
X-248076Y-399104D01*
X-248029Y-399171D01*
X-247912Y-399305D01*
X-247941Y-399702D01*
X-247937Y-399747D01*
X-247942Y-399791D01*
X-247920Y-399937D01*
X-247824Y-400324D01*
X-247915Y-400476D01*
X-247952Y-400570D01*
X-247995Y-400662D01*
X-247999Y-400689D01*
X-248005Y-400703D01*
X-248006Y-400727D01*
X-248020Y-400808D01*
X-262514Y-603731D01*
X-262510Y-603774D01*
X-262515Y-603817D01*
X-262499Y-603894D01*
X-262492Y-603974D01*
X-262474Y-604013D01*
X-262465Y-604055D01*
X-262425Y-604124D01*
X-262392Y-604197D01*
X-262363Y-604228D01*
X-262341Y-604265D01*
X-262281Y-604317D01*
X-262227Y-604376D01*
X-262189Y-604396D01*
X-262156Y-604424D01*
X-262082Y-604454D01*
X-262012Y-604492D01*
X-261970Y-604499D01*
X-261930Y-604515D01*
X-261850Y-604520D01*
X-261772Y-604533D01*
X-261729Y-604527D01*
X-261686Y-604529D01*
X-261609Y-604508D01*
X-261531Y-604495D01*
X-261493Y-604475D01*
X-261451Y-604463D01*
X-261385Y-604419D01*
X-261315Y-604382D01*
X-261285Y-604350D01*
X-261249Y-604326D01*
X-261153Y-604214D01*
X-260871Y-603810D01*
X-260358Y-603380D01*
X-259752Y-603098D01*
X-259093Y-602981D01*
X-256205Y-603234D01*
X-256793Y-609952D01*
X-256791Y-609977D01*
X-256795Y-610001D01*
X-256781Y-610098D01*
X-256774Y-610195D01*
X-256764Y-610218D01*
X-256761Y-610242D01*
X-256717Y-610330D01*
X-256678Y-610420D01*
X-256662Y-610438D01*
X-256651Y-610460D01*
X-256581Y-610529D01*
X-256515Y-610602D01*
X-256494Y-610614D01*
X-256476Y-610631D01*
X-256388Y-610673D01*
X-256303Y-610721D01*
X-256279Y-610726D01*
X-256257Y-610737D01*
X-256111Y-610764D01*
X-255364Y-610829D01*
X-255364Y-610831D01*
X-256112Y-610765D01*
X-256136Y-610767D01*
X-256160Y-610763D01*
X-256257Y-610777D01*
X-256355Y-610784D01*
X-256377Y-610794D01*
X-256402Y-610797D01*
X-256489Y-610841D01*
X-256579Y-610880D01*
X-256598Y-610896D01*
X-256619Y-610907D01*
X-256688Y-610977D01*
X-256761Y-611043D01*
X-256773Y-611064D01*
X-256790Y-611082D01*
X-256833Y-611170D01*
X-256881Y-611255D01*
X-256885Y-611279D01*
X-256896Y-611301D01*
X-256923Y-611447D01*
X-257511Y-618165D01*
X-260399Y-617912D01*
X-261028Y-617683D01*
X-261576Y-617299D01*
X-262006Y-616787D01*
X-262035Y-616725D01*
X-262066Y-616679D01*
X-262088Y-616629D01*
X-262134Y-616579D01*
X-262173Y-616524D01*
X-262217Y-616490D01*
X-262254Y-616450D01*
X-262314Y-616418D01*
X-262368Y-616377D01*
X-262420Y-616360D01*
X-262469Y-616334D01*
X-262535Y-616322D01*
X-262600Y-616301D01*
X-262655Y-616302D01*
X-262709Y-616292D01*
X-262776Y-616303D01*
X-262844Y-616304D01*
X-262896Y-616322D01*
X-262950Y-616331D01*
X-263010Y-616362D01*
X-263074Y-616385D01*
X-263117Y-616418D01*
X-263166Y-616444D01*
X-263213Y-616493D01*
X-263266Y-616535D01*
X-263296Y-616581D01*
X-263334Y-616621D01*
X-263362Y-616683D01*
X-263399Y-616739D01*
X-263413Y-616793D01*
X-263436Y-616843D01*
X-263457Y-616962D01*
X-263460Y-616976D01*
X-263460Y-616980D01*
X-263461Y-616988D01*
X-397895Y-2499059D01*
X-397887Y-2499141D01*
X-397888Y-2499224D01*
X-397876Y-2499262D01*
X-397872Y-2499302D01*
X-397839Y-2499378D01*
X-397813Y-2499456D01*
X-397782Y-2499504D01*
X-397773Y-2499525D01*
X-397759Y-2499540D01*
X-397733Y-2499580D01*
X-585Y-2996015D01*
X-505Y-2996086D01*
X-429Y-2996161D01*
X-415Y-2996168D01*
X-404Y-2996178D01*
X-306Y-2996220D01*
X-209Y-2996266D01*
X-194Y-2996268D01*
X-179Y-2996274D01*
X-73Y-2996282D01*
X33Y-2996295D01*
X48Y-2996292D01*
G37*
%LPC*%
G36*
X-178642Y-2132966D02*
X-178642Y-2132966D01*
X-179833Y-2131775D01*
X-179833Y-2066591D01*
X-178642Y-2065400D01*
X-158230Y-2065400D01*
X-158206Y-2065396D01*
X-158181Y-2065399D01*
X-158086Y-2065377D01*
X-157989Y-2065361D01*
X-157968Y-2065349D01*
X-157944Y-2065343D01*
X-157860Y-2065292D01*
X-157774Y-2065246D01*
X-157757Y-2065228D01*
X-157736Y-2065215D01*
X-157674Y-2065139D01*
X-157607Y-2065068D01*
X-157597Y-2065045D01*
X-157581Y-2065026D01*
X-157547Y-2064935D01*
X-157506Y-2064845D01*
X-157504Y-2064821D01*
X-157495Y-2064798D01*
X-157481Y-2064651D01*
X-157481Y-2059815D01*
X-157497Y-2059719D01*
X-157506Y-2059622D01*
X-157516Y-2059599D01*
X-157520Y-2059574D01*
X-157566Y-2059488D01*
X-157607Y-2059399D01*
X-157628Y-2059374D01*
X-157635Y-2059359D01*
X-157654Y-2059342D01*
X-157700Y-2059285D01*
X-166985Y-2050000D01*
X-167064Y-2049943D01*
X-167140Y-2049881D01*
X-167163Y-2049873D01*
X-167183Y-2049858D01*
X-167277Y-2049830D01*
X-167368Y-2049795D01*
X-167401Y-2049792D01*
X-167417Y-2049787D01*
X-167442Y-2049788D01*
X-167515Y-2049781D01*
X-275154Y-2049781D01*
X-281525Y-2043410D01*
X-353049Y-1971886D01*
X-353107Y-1971845D01*
X-353157Y-1971796D01*
X-353205Y-1971774D01*
X-353248Y-1971744D01*
X-353315Y-1971723D01*
X-353379Y-1971694D01*
X-353455Y-1971680D01*
X-354696Y-1970242D01*
X-354710Y-1970230D01*
X-354734Y-1970201D01*
X-356082Y-1968853D01*
X-356084Y-1968788D01*
X-356102Y-1968739D01*
X-356110Y-1968687D01*
X-356143Y-1968625D01*
X-356167Y-1968559D01*
X-356212Y-1968496D01*
X-356072Y-1966601D01*
X-356074Y-1966583D01*
X-356070Y-1966546D01*
X-356070Y-1964639D01*
X-356026Y-1964593D01*
X-356004Y-1964545D01*
X-355973Y-1964502D01*
X-355953Y-1964435D01*
X-355923Y-1964371D01*
X-355909Y-1964292D01*
X-355902Y-1964269D01*
X-355903Y-1964254D01*
X-355898Y-1964226D01*
X-259083Y-647541D01*
X-259084Y-647523D01*
X-259081Y-647486D01*
X-259081Y-645579D01*
X-259036Y-645532D01*
X-259014Y-645485D01*
X-258983Y-645442D01*
X-258963Y-645375D01*
X-258933Y-645311D01*
X-258920Y-645235D01*
X-257481Y-643993D01*
X-257470Y-643979D01*
X-257441Y-643956D01*
X-246600Y-633115D01*
X-243404Y-629919D01*
X-180215Y-629919D01*
X-180119Y-629903D01*
X-180022Y-629894D01*
X-179999Y-629884D01*
X-179974Y-629880D01*
X-179888Y-629834D01*
X-179799Y-629793D01*
X-179774Y-629772D01*
X-179759Y-629765D01*
X-179742Y-629746D01*
X-179685Y-629700D01*
X-132300Y-582315D01*
X-132243Y-582236D01*
X-132181Y-582160D01*
X-132173Y-582137D01*
X-132158Y-582117D01*
X-132130Y-582023D01*
X-132095Y-581932D01*
X-132092Y-581899D01*
X-132087Y-581883D01*
X-132088Y-581858D01*
X-132081Y-581785D01*
X-132081Y-161165D01*
X-132097Y-161068D01*
X-132106Y-160972D01*
X-132116Y-160949D01*
X-132120Y-160924D01*
X-132166Y-160838D01*
X-132207Y-160749D01*
X-132228Y-160724D01*
X-132235Y-160709D01*
X-132254Y-160692D01*
X-132300Y-160635D01*
X-147935Y-145000D01*
X-151131Y-141804D01*
X-151131Y-105846D01*
X-141804Y-96519D01*
X-137596Y-96519D01*
X-134619Y-99496D01*
X-134619Y-103704D01*
X-140750Y-109835D01*
X-140807Y-109914D01*
X-140869Y-109990D01*
X-140877Y-110013D01*
X-140892Y-110033D01*
X-140920Y-110127D01*
X-140955Y-110218D01*
X-140958Y-110251D01*
X-140963Y-110267D01*
X-140962Y-110292D01*
X-140969Y-110365D01*
X-140969Y-137285D01*
X-140953Y-137382D01*
X-140944Y-137478D01*
X-140934Y-137501D01*
X-140930Y-137526D01*
X-140884Y-137612D01*
X-140843Y-137701D01*
X-140822Y-137726D01*
X-140815Y-137741D01*
X-140796Y-137758D01*
X-140750Y-137815D01*
X-125115Y-153450D01*
X-121919Y-156646D01*
X-121919Y-586304D01*
X-125115Y-589500D01*
X-172500Y-636885D01*
X-175696Y-640081D01*
X-238885Y-640081D01*
X-238982Y-640097D01*
X-239078Y-640106D01*
X-239101Y-640116D01*
X-239126Y-640120D01*
X-239212Y-640166D01*
X-239301Y-640207D01*
X-239326Y-640228D01*
X-239341Y-640235D01*
X-239358Y-640254D01*
X-239415Y-640300D01*
X-248875Y-649760D01*
X-248915Y-649817D01*
X-248964Y-649868D01*
X-248986Y-649915D01*
X-249017Y-649958D01*
X-249037Y-650025D01*
X-249067Y-650089D01*
X-249080Y-650168D01*
X-249088Y-650192D01*
X-249087Y-650206D01*
X-249092Y-650235D01*
X-345727Y-1964471D01*
X-345727Y-1964473D01*
X-345727Y-1964476D01*
X-345716Y-1964596D01*
X-345705Y-1964714D01*
X-345704Y-1964716D01*
X-345704Y-1964719D01*
X-345655Y-1964827D01*
X-345606Y-1964937D01*
X-345604Y-1964939D01*
X-345603Y-1964941D01*
X-345510Y-1965055D01*
X-274340Y-2036225D01*
X-271165Y-2039400D01*
X-271086Y-2039457D01*
X-271010Y-2039519D01*
X-270987Y-2039527D01*
X-270967Y-2039542D01*
X-270873Y-2039570D01*
X-270782Y-2039605D01*
X-270749Y-2039608D01*
X-270733Y-2039613D01*
X-270708Y-2039612D01*
X-270635Y-2039619D01*
X-162996Y-2039619D01*
X-147319Y-2055296D01*
X-147319Y-2064651D01*
X-147315Y-2064675D01*
X-147318Y-2064700D01*
X-147296Y-2064795D01*
X-147280Y-2064892D01*
X-147268Y-2064913D01*
X-147262Y-2064937D01*
X-147211Y-2065021D01*
X-147165Y-2065107D01*
X-147147Y-2065124D01*
X-147134Y-2065145D01*
X-147058Y-2065207D01*
X-146987Y-2065274D01*
X-146964Y-2065284D01*
X-146945Y-2065300D01*
X-146854Y-2065334D01*
X-146764Y-2065375D01*
X-146740Y-2065377D01*
X-146717Y-2065386D01*
X-146570Y-2065400D01*
X-126158Y-2065400D01*
X-124967Y-2066591D01*
X-124967Y-2131775D01*
X-126158Y-2132966D01*
X-178642Y-2132966D01*
G37*
%LPD*%
%LPC*%
G36*
X-26242Y-2132966D02*
X-26242Y-2132966D01*
X-27433Y-2131775D01*
X-27433Y-2066591D01*
X-26242Y-2065400D01*
X26242Y-2065400D01*
X27433Y-2066591D01*
X27433Y-2092337D01*
X27437Y-2092361D01*
X27434Y-2092386D01*
X27456Y-2092481D01*
X27472Y-2092578D01*
X27484Y-2092599D01*
X27490Y-2092623D01*
X27541Y-2092707D01*
X27587Y-2092793D01*
X27605Y-2092810D01*
X27618Y-2092831D01*
X27694Y-2092893D01*
X27765Y-2092960D01*
X27788Y-2092970D01*
X27807Y-2092986D01*
X27898Y-2093020D01*
X27988Y-2093061D01*
X28012Y-2093063D01*
X28035Y-2093072D01*
X28182Y-2093086D01*
X124218Y-2093086D01*
X124242Y-2093082D01*
X124267Y-2093085D01*
X124362Y-2093063D01*
X124459Y-2093047D01*
X124480Y-2093035D01*
X124504Y-2093029D01*
X124588Y-2092978D01*
X124674Y-2092932D01*
X124691Y-2092914D01*
X124712Y-2092901D01*
X124774Y-2092825D01*
X124841Y-2092754D01*
X124851Y-2092731D01*
X124867Y-2092712D01*
X124901Y-2092621D01*
X124942Y-2092531D01*
X124944Y-2092507D01*
X124953Y-2092484D01*
X124967Y-2092337D01*
X124967Y-2066591D01*
X126158Y-2065400D01*
X178642Y-2065400D01*
X179833Y-2066591D01*
X179833Y-2131775D01*
X178642Y-2132966D01*
X126158Y-2132966D01*
X124967Y-2131775D01*
X124967Y-2106029D01*
X124963Y-2106005D01*
X124966Y-2105980D01*
X124944Y-2105885D01*
X124928Y-2105788D01*
X124916Y-2105767D01*
X124910Y-2105743D01*
X124859Y-2105659D01*
X124813Y-2105573D01*
X124795Y-2105556D01*
X124782Y-2105535D01*
X124706Y-2105473D01*
X124635Y-2105406D01*
X124612Y-2105396D01*
X124593Y-2105380D01*
X124502Y-2105346D01*
X124412Y-2105305D01*
X124388Y-2105303D01*
X124365Y-2105294D01*
X124218Y-2105280D01*
X28182Y-2105280D01*
X28158Y-2105284D01*
X28133Y-2105281D01*
X28038Y-2105303D01*
X27941Y-2105319D01*
X27920Y-2105331D01*
X27896Y-2105337D01*
X27812Y-2105388D01*
X27726Y-2105434D01*
X27709Y-2105452D01*
X27688Y-2105465D01*
X27626Y-2105541D01*
X27559Y-2105612D01*
X27549Y-2105635D01*
X27533Y-2105654D01*
X27499Y-2105745D01*
X27458Y-2105835D01*
X27456Y-2105859D01*
X27447Y-2105882D01*
X27433Y-2106029D01*
X27433Y-2131775D01*
X26242Y-2132966D01*
X-26242Y-2132966D01*
G37*
%LPD*%
%LPC*%
G36*
X-178642Y-2684400D02*
X-178642Y-2684400D01*
X-179833Y-2683209D01*
X-179833Y-2618025D01*
X-178642Y-2616834D01*
X-126158Y-2616834D01*
X-124967Y-2618025D01*
X-124967Y-2643771D01*
X-124963Y-2643795D01*
X-124966Y-2643820D01*
X-124944Y-2643915D01*
X-124928Y-2644012D01*
X-124916Y-2644033D01*
X-124910Y-2644057D01*
X-124859Y-2644141D01*
X-124813Y-2644227D01*
X-124795Y-2644244D01*
X-124782Y-2644265D01*
X-124706Y-2644327D01*
X-124635Y-2644394D01*
X-124612Y-2644404D01*
X-124593Y-2644420D01*
X-124502Y-2644454D01*
X-124412Y-2644495D01*
X-124388Y-2644497D01*
X-124365Y-2644506D01*
X-124218Y-2644520D01*
X-28182Y-2644520D01*
X-28158Y-2644516D01*
X-28133Y-2644519D01*
X-28038Y-2644497D01*
X-27941Y-2644481D01*
X-27920Y-2644469D01*
X-27896Y-2644463D01*
X-27812Y-2644412D01*
X-27726Y-2644366D01*
X-27709Y-2644348D01*
X-27688Y-2644335D01*
X-27626Y-2644259D01*
X-27559Y-2644188D01*
X-27549Y-2644165D01*
X-27533Y-2644146D01*
X-27499Y-2644055D01*
X-27458Y-2643965D01*
X-27456Y-2643941D01*
X-27447Y-2643918D01*
X-27433Y-2643771D01*
X-27433Y-2618025D01*
X-26242Y-2616834D01*
X26242Y-2616834D01*
X27433Y-2618025D01*
X27433Y-2683209D01*
X26242Y-2684400D01*
X-26242Y-2684400D01*
X-27433Y-2683209D01*
X-27433Y-2657463D01*
X-27437Y-2657439D01*
X-27434Y-2657414D01*
X-27456Y-2657319D01*
X-27472Y-2657222D01*
X-27484Y-2657201D01*
X-27490Y-2657177D01*
X-27541Y-2657093D01*
X-27587Y-2657007D01*
X-27605Y-2656990D01*
X-27618Y-2656969D01*
X-27694Y-2656907D01*
X-27765Y-2656840D01*
X-27788Y-2656830D01*
X-27807Y-2656814D01*
X-27898Y-2656780D01*
X-27988Y-2656739D01*
X-28012Y-2656737D01*
X-28035Y-2656728D01*
X-28182Y-2656714D01*
X-124218Y-2656714D01*
X-124242Y-2656718D01*
X-124267Y-2656715D01*
X-124362Y-2656737D01*
X-124459Y-2656753D01*
X-124480Y-2656765D01*
X-124504Y-2656771D01*
X-124588Y-2656822D01*
X-124674Y-2656868D01*
X-124691Y-2656886D01*
X-124712Y-2656899D01*
X-124774Y-2656975D01*
X-124841Y-2657046D01*
X-124851Y-2657069D01*
X-124867Y-2657088D01*
X-124901Y-2657179D01*
X-124942Y-2657269D01*
X-124944Y-2657293D01*
X-124953Y-2657316D01*
X-124967Y-2657463D01*
X-124967Y-2683209D01*
X-126158Y-2684400D01*
X-178642Y-2684400D01*
G37*
%LPD*%
%LPC*%
G36*
X-223382Y-575325D02*
X-223382Y-575325D01*
X-224465Y-574035D01*
X-223654Y-564767D01*
X-222364Y-563684D01*
X-202095Y-565457D01*
X-202075Y-565456D01*
X-202030Y-565460D01*
X-172906Y-565460D01*
X-172809Y-565444D01*
X-172713Y-565435D01*
X-172690Y-565425D01*
X-172665Y-565421D01*
X-172579Y-565375D01*
X-172490Y-565334D01*
X-172465Y-565313D01*
X-172450Y-565306D01*
X-172433Y-565287D01*
X-172376Y-565241D01*
X-145000Y-537865D01*
X-144943Y-537786D01*
X-144881Y-537710D01*
X-144873Y-537687D01*
X-144858Y-537667D01*
X-144830Y-537573D01*
X-144795Y-537482D01*
X-144792Y-537449D01*
X-144787Y-537433D01*
X-144788Y-537408D01*
X-144781Y-537335D01*
X-144781Y-237365D01*
X-144797Y-237269D01*
X-144806Y-237172D01*
X-144816Y-237149D01*
X-144820Y-237124D01*
X-144866Y-237038D01*
X-144907Y-236949D01*
X-144928Y-236924D01*
X-144935Y-236909D01*
X-144954Y-236892D01*
X-145000Y-236835D01*
X-157481Y-224354D01*
X-157481Y-220146D01*
X-154504Y-217169D01*
X-150296Y-217169D01*
X-134619Y-232846D01*
X-134619Y-541854D01*
X-168386Y-575622D01*
X-197654Y-575622D01*
X-197766Y-575640D01*
X-197878Y-575656D01*
X-197886Y-575660D01*
X-197894Y-575661D01*
X-197995Y-575715D01*
X-198096Y-575766D01*
X-198102Y-575772D01*
X-198110Y-575776D01*
X-198187Y-575859D01*
X-198267Y-575941D01*
X-198271Y-575948D01*
X-198276Y-575954D01*
X-198323Y-576058D01*
X-198373Y-576160D01*
X-198375Y-576171D01*
X-198377Y-576177D01*
X-198379Y-576193D01*
X-198400Y-576306D01*
X-198401Y-576315D01*
X-199691Y-577398D01*
X-223382Y-575325D01*
G37*
%LPD*%
%LPC*%
G36*
X-191375Y-672545D02*
X-191375Y-672545D01*
X-193745Y-670175D01*
X-193745Y-666825D01*
X-191375Y-664455D01*
X-190996Y-664455D01*
X-190899Y-664439D01*
X-190802Y-664430D01*
X-190780Y-664420D01*
X-190755Y-664416D01*
X-190669Y-664370D01*
X-190580Y-664329D01*
X-190554Y-664308D01*
X-190540Y-664301D01*
X-190523Y-664282D01*
X-190466Y-664236D01*
X-105376Y-579146D01*
X-105319Y-579067D01*
X-105257Y-578992D01*
X-105249Y-578968D01*
X-105234Y-578948D01*
X-105206Y-578855D01*
X-105171Y-578763D01*
X-105168Y-578730D01*
X-105163Y-578714D01*
X-105164Y-578689D01*
X-105157Y-578616D01*
X-105157Y-147834D01*
X-105173Y-147737D01*
X-105182Y-147640D01*
X-105192Y-147618D01*
X-105196Y-147593D01*
X-105242Y-147507D01*
X-105283Y-147418D01*
X-105304Y-147392D01*
X-105311Y-147378D01*
X-105330Y-147361D01*
X-105376Y-147304D01*
X-108716Y-143964D01*
X-108795Y-143907D01*
X-108870Y-143845D01*
X-108894Y-143837D01*
X-108914Y-143822D01*
X-109007Y-143794D01*
X-109099Y-143759D01*
X-109132Y-143756D01*
X-109148Y-143751D01*
X-109173Y-143752D01*
X-109246Y-143745D01*
X-109625Y-143745D01*
X-111995Y-141375D01*
X-111995Y-138025D01*
X-109625Y-135655D01*
X-106275Y-135655D01*
X-103905Y-138025D01*
X-103905Y-138404D01*
X-103889Y-138501D01*
X-103880Y-138598D01*
X-103870Y-138620D01*
X-103866Y-138645D01*
X-103820Y-138731D01*
X-103779Y-138820D01*
X-103758Y-138846D01*
X-103751Y-138860D01*
X-103732Y-138877D01*
X-103686Y-138934D01*
X-98043Y-144577D01*
X-98043Y-581873D01*
X-185436Y-669266D01*
X-185493Y-669345D01*
X-185555Y-669420D01*
X-185563Y-669444D01*
X-185578Y-669464D01*
X-185606Y-669557D01*
X-185641Y-669649D01*
X-185644Y-669682D01*
X-185649Y-669698D01*
X-185648Y-669723D01*
X-185655Y-669796D01*
X-185655Y-670175D01*
X-188025Y-672545D01*
X-191375Y-672545D01*
G37*
%LPD*%
%LPC*%
G36*
X-116404Y-424181D02*
X-116404Y-424181D01*
X-119381Y-421204D01*
X-119381Y-188396D01*
X-116404Y-185419D01*
X-112196Y-185419D01*
X-109219Y-188396D01*
X-109219Y-421204D01*
X-112196Y-424181D01*
X-116404Y-424181D01*
G37*
%LPD*%
%LPC*%
G36*
X-90575Y-359645D02*
X-90575Y-359645D01*
X-92945Y-357275D01*
X-92945Y-353925D01*
X-92676Y-353656D01*
X-92619Y-353577D01*
X-92557Y-353502D01*
X-92549Y-353478D01*
X-92534Y-353458D01*
X-92506Y-353364D01*
X-92471Y-353273D01*
X-92468Y-353240D01*
X-92463Y-353224D01*
X-92464Y-353199D01*
X-92457Y-353126D01*
X-92457Y-65284D01*
X-92473Y-65187D01*
X-92482Y-65090D01*
X-92492Y-65068D01*
X-92496Y-65043D01*
X-92542Y-64957D01*
X-92583Y-64868D01*
X-92604Y-64842D01*
X-92611Y-64828D01*
X-92630Y-64811D01*
X-92676Y-64754D01*
X-96016Y-61414D01*
X-96095Y-61357D01*
X-96170Y-61295D01*
X-96194Y-61287D01*
X-96214Y-61272D01*
X-96307Y-61244D01*
X-96399Y-61209D01*
X-96432Y-61206D01*
X-96448Y-61201D01*
X-96473Y-61202D01*
X-96546Y-61195D01*
X-96925Y-61195D01*
X-99295Y-58825D01*
X-99295Y-55475D01*
X-96925Y-53105D01*
X-93575Y-53105D01*
X-91205Y-55475D01*
X-91205Y-55854D01*
X-91189Y-55951D01*
X-91180Y-56048D01*
X-91170Y-56070D01*
X-91166Y-56095D01*
X-91120Y-56181D01*
X-91079Y-56270D01*
X-91058Y-56296D01*
X-91051Y-56310D01*
X-91032Y-56327D01*
X-90986Y-56384D01*
X-85343Y-62027D01*
X-85343Y-353126D01*
X-85327Y-353223D01*
X-85318Y-353319D01*
X-85308Y-353342D01*
X-85304Y-353367D01*
X-85258Y-353453D01*
X-85217Y-353542D01*
X-85196Y-353567D01*
X-85189Y-353582D01*
X-85170Y-353599D01*
X-85124Y-353656D01*
X-84855Y-353925D01*
X-84855Y-357275D01*
X-87225Y-359645D01*
X-90575Y-359645D01*
G37*
%LPD*%
%LPC*%
G36*
X-78129Y-296758D02*
X-78129Y-296758D01*
X-80858Y-294029D01*
X-80858Y-290171D01*
X-78129Y-287442D01*
X-76883Y-287442D01*
X-76786Y-287426D01*
X-76689Y-287417D01*
X-76667Y-287407D01*
X-76642Y-287403D01*
X-76556Y-287357D01*
X-76467Y-287316D01*
X-76441Y-287295D01*
X-76427Y-287288D01*
X-76410Y-287269D01*
X-76353Y-287223D01*
X-71323Y-282193D01*
X156276Y-282193D01*
X156373Y-282177D01*
X156469Y-282168D01*
X156492Y-282158D01*
X156517Y-282154D01*
X156603Y-282108D01*
X156692Y-282067D01*
X156717Y-282046D01*
X156732Y-282039D01*
X156749Y-282020D01*
X156806Y-281974D01*
X157075Y-281705D01*
X160425Y-281705D01*
X162795Y-284075D01*
X162795Y-287425D01*
X160425Y-289795D01*
X157075Y-289795D01*
X156806Y-289526D01*
X156727Y-289469D01*
X156652Y-289407D01*
X156628Y-289399D01*
X156608Y-289384D01*
X156514Y-289356D01*
X156423Y-289321D01*
X156390Y-289318D01*
X156374Y-289313D01*
X156349Y-289314D01*
X156276Y-289307D01*
X-68066Y-289307D01*
X-68163Y-289323D01*
X-68260Y-289332D01*
X-68282Y-289342D01*
X-68307Y-289346D01*
X-68393Y-289392D01*
X-68482Y-289433D01*
X-68508Y-289454D01*
X-68522Y-289461D01*
X-68539Y-289480D01*
X-68596Y-289526D01*
X-71323Y-292253D01*
X-71380Y-292332D01*
X-71442Y-292407D01*
X-71450Y-292431D01*
X-71465Y-292451D01*
X-71493Y-292544D01*
X-71528Y-292636D01*
X-71531Y-292669D01*
X-71536Y-292685D01*
X-71535Y-292710D01*
X-71542Y-292783D01*
X-71542Y-294029D01*
X-74271Y-296758D01*
X-78129Y-296758D01*
G37*
%LPD*%
%LPC*%
G36*
X-78129Y-347558D02*
X-78129Y-347558D01*
X-80858Y-344829D01*
X-80858Y-340971D01*
X-78129Y-338242D01*
X-74271Y-338242D01*
X-73389Y-339124D01*
X-73310Y-339181D01*
X-73235Y-339243D01*
X-73211Y-339251D01*
X-73191Y-339266D01*
X-73097Y-339294D01*
X-73006Y-339329D01*
X-72973Y-339332D01*
X-72957Y-339337D01*
X-72933Y-339336D01*
X-72859Y-339343D01*
X68066Y-339343D01*
X68163Y-339327D01*
X68260Y-339318D01*
X68282Y-339308D01*
X68307Y-339304D01*
X68393Y-339258D01*
X68482Y-339217D01*
X68508Y-339196D01*
X68522Y-339189D01*
X68539Y-339170D01*
X68596Y-339124D01*
X77673Y-330047D01*
X77730Y-329968D01*
X77792Y-329893D01*
X77800Y-329869D01*
X77815Y-329849D01*
X77843Y-329756D01*
X77878Y-329664D01*
X77881Y-329631D01*
X77886Y-329615D01*
X77885Y-329590D01*
X77892Y-329517D01*
X77892Y-328271D01*
X80621Y-325542D01*
X84479Y-325542D01*
X87208Y-328271D01*
X87208Y-332129D01*
X84479Y-334858D01*
X83233Y-334858D01*
X83136Y-334874D01*
X83039Y-334883D01*
X83017Y-334893D01*
X82992Y-334897D01*
X82906Y-334943D01*
X82817Y-334984D01*
X82791Y-335005D01*
X82777Y-335012D01*
X82760Y-335031D01*
X82703Y-335077D01*
X71323Y-346457D01*
X-72859Y-346457D01*
X-72956Y-346473D01*
X-73053Y-346482D01*
X-73075Y-346492D01*
X-73100Y-346496D01*
X-73186Y-346542D01*
X-73275Y-346583D01*
X-73301Y-346604D01*
X-73315Y-346611D01*
X-73332Y-346630D01*
X-73389Y-346676D01*
X-74271Y-347558D01*
X-78129Y-347558D01*
G37*
%LPD*%
%LPC*%
G36*
X-1675Y-364345D02*
X-1675Y-364345D01*
X-4045Y-361975D01*
X-4045Y-358625D01*
X-1675Y-356255D01*
X1675Y-356255D01*
X1944Y-356524D01*
X2023Y-356581D01*
X2098Y-356643D01*
X2122Y-356651D01*
X2142Y-356666D01*
X2236Y-356694D01*
X2327Y-356729D01*
X2360Y-356732D01*
X2376Y-356737D01*
X2401Y-356736D01*
X2474Y-356743D01*
X82416Y-356743D01*
X82513Y-356727D01*
X82610Y-356718D01*
X82632Y-356708D01*
X82657Y-356704D01*
X82743Y-356658D01*
X82832Y-356617D01*
X82858Y-356596D01*
X82872Y-356589D01*
X82889Y-356570D01*
X82946Y-356524D01*
X100127Y-339343D01*
X149926Y-339343D01*
X150023Y-339327D01*
X150119Y-339318D01*
X150142Y-339308D01*
X150167Y-339304D01*
X150253Y-339258D01*
X150342Y-339217D01*
X150367Y-339196D01*
X150382Y-339189D01*
X150399Y-339170D01*
X150456Y-339124D01*
X150725Y-338855D01*
X154075Y-338855D01*
X156445Y-341225D01*
X156445Y-344575D01*
X154075Y-346945D01*
X150725Y-346945D01*
X150456Y-346676D01*
X150377Y-346619D01*
X150302Y-346557D01*
X150278Y-346549D01*
X150258Y-346534D01*
X150164Y-346506D01*
X150073Y-346471D01*
X150040Y-346468D01*
X150024Y-346463D01*
X149999Y-346464D01*
X149926Y-346457D01*
X103384Y-346457D01*
X103287Y-346473D01*
X103190Y-346482D01*
X103168Y-346492D01*
X103143Y-346496D01*
X103057Y-346542D01*
X102968Y-346583D01*
X102942Y-346604D01*
X102928Y-346611D01*
X102911Y-346630D01*
X102854Y-346676D01*
X85673Y-363857D01*
X2474Y-363857D01*
X2377Y-363873D01*
X2281Y-363882D01*
X2258Y-363892D01*
X2233Y-363896D01*
X2147Y-363942D01*
X2058Y-363983D01*
X2033Y-364004D01*
X2018Y-364011D01*
X2001Y-364030D01*
X1944Y-364076D01*
X1675Y-364345D01*
X-1675Y-364345D01*
G37*
%LPD*%
%LPC*%
G36*
X-78129Y-334858D02*
X-78129Y-334858D01*
X-80858Y-332129D01*
X-80858Y-328271D01*
X-78129Y-325542D01*
X-74271Y-325542D01*
X-73389Y-326424D01*
X-73310Y-326481D01*
X-73235Y-326543D01*
X-73211Y-326551D01*
X-73191Y-326566D01*
X-73097Y-326594D01*
X-73006Y-326629D01*
X-72973Y-326632D01*
X-72957Y-326637D01*
X-72932Y-326636D01*
X-72859Y-326643D01*
X61716Y-326643D01*
X61813Y-326627D01*
X61910Y-326618D01*
X61932Y-326608D01*
X61957Y-326604D01*
X62043Y-326558D01*
X62132Y-326517D01*
X62158Y-326496D01*
X62172Y-326489D01*
X62189Y-326470D01*
X62246Y-326424D01*
X64973Y-323697D01*
X65030Y-323618D01*
X65092Y-323543D01*
X65100Y-323519D01*
X65115Y-323499D01*
X65143Y-323406D01*
X65178Y-323314D01*
X65181Y-323281D01*
X65186Y-323265D01*
X65185Y-323240D01*
X65192Y-323167D01*
X65192Y-321921D01*
X67921Y-319192D01*
X71779Y-319192D01*
X74508Y-321921D01*
X74508Y-325779D01*
X71779Y-328508D01*
X70533Y-328508D01*
X70436Y-328524D01*
X70339Y-328533D01*
X70317Y-328543D01*
X70292Y-328547D01*
X70206Y-328593D01*
X70117Y-328634D01*
X70091Y-328655D01*
X70077Y-328662D01*
X70060Y-328681D01*
X70003Y-328727D01*
X64973Y-333757D01*
X-72859Y-333757D01*
X-72956Y-333773D01*
X-73053Y-333782D01*
X-73075Y-333792D01*
X-73100Y-333796D01*
X-73186Y-333842D01*
X-73275Y-333883D01*
X-73301Y-333904D01*
X-73315Y-333911D01*
X-73332Y-333930D01*
X-73389Y-333976D01*
X-74271Y-334858D01*
X-78129Y-334858D01*
G37*
%LPD*%
%LPC*%
G36*
X49448Y-2637156D02*
X49448Y-2637156D01*
X42726Y-2634371D01*
X37582Y-2629227D01*
X34797Y-2622505D01*
X34797Y-2615229D01*
X37582Y-2608507D01*
X42726Y-2603363D01*
X49448Y-2600578D01*
X56724Y-2600578D01*
X63446Y-2603363D01*
X68590Y-2608507D01*
X71375Y-2615229D01*
X71375Y-2622505D01*
X68590Y-2629227D01*
X63446Y-2634371D01*
X56724Y-2637156D01*
X49448Y-2637156D01*
G37*
%LPD*%
%LPC*%
G36*
X-209124Y-2149222D02*
X-209124Y-2149222D01*
X-215846Y-2146437D01*
X-220990Y-2141293D01*
X-223775Y-2134571D01*
X-223775Y-2127295D01*
X-220990Y-2120573D01*
X-215846Y-2115429D01*
X-209124Y-2112644D01*
X-201848Y-2112644D01*
X-195126Y-2115429D01*
X-189982Y-2120573D01*
X-187197Y-2127295D01*
X-187197Y-2134571D01*
X-189982Y-2141293D01*
X-195126Y-2146437D01*
X-201848Y-2149222D01*
X-209124Y-2149222D01*
G37*
%LPD*%
%LPC*%
G36*
X95676Y-2149222D02*
X95676Y-2149222D01*
X88954Y-2146437D01*
X83810Y-2141293D01*
X81025Y-2134571D01*
X81025Y-2127295D01*
X83810Y-2120573D01*
X88954Y-2115429D01*
X95676Y-2112644D01*
X102952Y-2112644D01*
X109674Y-2115429D01*
X114818Y-2120573D01*
X117603Y-2127295D01*
X117603Y-2134571D01*
X114818Y-2141293D01*
X109674Y-2146437D01*
X102952Y-2149222D01*
X95676Y-2149222D01*
G37*
%LPD*%
%LPC*%
G36*
X99925Y-385045D02*
X99925Y-385045D01*
X97555Y-382675D01*
X97555Y-379325D01*
X99925Y-376955D01*
X100304Y-376955D01*
X100401Y-376939D01*
X100498Y-376930D01*
X100520Y-376920D01*
X100545Y-376916D01*
X100631Y-376870D01*
X100720Y-376829D01*
X100746Y-376808D01*
X100760Y-376801D01*
X100777Y-376782D01*
X100834Y-376736D01*
X125527Y-352043D01*
X188716Y-352043D01*
X188813Y-352027D01*
X188910Y-352018D01*
X188932Y-352008D01*
X188957Y-352004D01*
X189043Y-351958D01*
X189132Y-351917D01*
X189158Y-351896D01*
X189172Y-351889D01*
X189189Y-351870D01*
X189246Y-351824D01*
X193074Y-347996D01*
X193131Y-347917D01*
X193193Y-347842D01*
X193201Y-347818D01*
X193216Y-347798D01*
X193244Y-347705D01*
X193279Y-347613D01*
X193282Y-347580D01*
X193287Y-347564D01*
X193286Y-347539D01*
X193293Y-347466D01*
X193293Y-326324D01*
X193277Y-326227D01*
X193268Y-326131D01*
X193258Y-326108D01*
X193254Y-326083D01*
X193208Y-325997D01*
X193167Y-325908D01*
X193146Y-325883D01*
X193139Y-325868D01*
X193120Y-325851D01*
X193074Y-325794D01*
X192805Y-325525D01*
X192805Y-322175D01*
X195175Y-319805D01*
X198525Y-319805D01*
X200895Y-322175D01*
X200895Y-325525D01*
X200626Y-325794D01*
X200569Y-325873D01*
X200507Y-325948D01*
X200499Y-325972D01*
X200484Y-325992D01*
X200456Y-326086D01*
X200421Y-326177D01*
X200418Y-326210D01*
X200413Y-326226D01*
X200414Y-326251D01*
X200407Y-326324D01*
X200407Y-350723D01*
X191973Y-359157D01*
X128784Y-359157D01*
X128687Y-359173D01*
X128590Y-359182D01*
X128568Y-359192D01*
X128543Y-359196D01*
X128457Y-359242D01*
X128368Y-359283D01*
X128342Y-359304D01*
X128328Y-359311D01*
X128311Y-359330D01*
X128254Y-359376D01*
X105864Y-381766D01*
X105807Y-381845D01*
X105745Y-381920D01*
X105737Y-381944D01*
X105722Y-381964D01*
X105694Y-382057D01*
X105659Y-382149D01*
X105656Y-382182D01*
X105651Y-382198D01*
X105652Y-382223D01*
X105645Y-382296D01*
X105645Y-382675D01*
X103275Y-385045D01*
X99925Y-385045D01*
G37*
%LPD*%
%LPC*%
G36*
X-14629Y-557108D02*
X-14629Y-557108D01*
X-17358Y-554379D01*
X-17358Y-553851D01*
X-17374Y-553755D01*
X-17383Y-553658D01*
X-17393Y-553635D01*
X-17397Y-553610D01*
X-17443Y-553524D01*
X-17484Y-553435D01*
X-17505Y-553410D01*
X-17512Y-553395D01*
X-17531Y-553378D01*
X-17577Y-553321D01*
X-29465Y-541434D01*
X-29465Y-460033D01*
X-29481Y-459936D01*
X-29490Y-459839D01*
X-29500Y-459817D01*
X-29504Y-459792D01*
X-29550Y-459706D01*
X-29591Y-459617D01*
X-29612Y-459591D01*
X-29619Y-459577D01*
X-29638Y-459560D01*
X-29684Y-459503D01*
X-30058Y-459129D01*
X-30058Y-455271D01*
X-27329Y-452542D01*
X-23471Y-452542D01*
X-20742Y-455271D01*
X-20742Y-459129D01*
X-21116Y-459503D01*
X-21173Y-459582D01*
X-21235Y-459657D01*
X-21243Y-459681D01*
X-21258Y-459701D01*
X-21286Y-459795D01*
X-21321Y-459886D01*
X-21324Y-459919D01*
X-21329Y-459935D01*
X-21328Y-459960D01*
X-21335Y-460033D01*
X-21335Y-537756D01*
X-21319Y-537852D01*
X-21310Y-537949D01*
X-21300Y-537972D01*
X-21296Y-537997D01*
X-21250Y-538083D01*
X-21209Y-538172D01*
X-21188Y-538197D01*
X-21181Y-538212D01*
X-21162Y-538229D01*
X-21116Y-538286D01*
X-11829Y-547573D01*
X-11749Y-547630D01*
X-11674Y-547692D01*
X-11651Y-547700D01*
X-11630Y-547715D01*
X-11537Y-547743D01*
X-11446Y-547778D01*
X-11413Y-547781D01*
X-11397Y-547786D01*
X-11372Y-547785D01*
X-11299Y-547792D01*
X-10771Y-547792D01*
X-8042Y-550521D01*
X-8042Y-554379D01*
X-10771Y-557108D01*
X-14629Y-557108D01*
G37*
%LPD*%
%LPC*%
G36*
X153899Y-2684908D02*
X153899Y-2684908D01*
X153899Y-2652116D01*
X180341Y-2652116D01*
X180341Y-2682701D01*
X180284Y-2682915D01*
X180283Y-2682915D01*
X180168Y-2683348D01*
X179833Y-2683927D01*
X179360Y-2684400D01*
X178781Y-2684735D01*
X178134Y-2684908D01*
X153899Y-2684908D01*
G37*
%LPD*%
%LPC*%
G36*
X153899Y-2649118D02*
X153899Y-2649118D01*
X153899Y-2616326D01*
X178134Y-2616326D01*
X178781Y-2616499D01*
X179360Y-2616834D01*
X179833Y-2617307D01*
X180168Y-2617886D01*
X180341Y-2618533D01*
X180341Y-2649118D01*
X153899Y-2649118D01*
G37*
%LPD*%
%LPC*%
G36*
X126666Y-2684908D02*
X126666Y-2684908D01*
X126019Y-2684735D01*
X125440Y-2684400D01*
X124967Y-2683927D01*
X124632Y-2683348D01*
X124459Y-2682701D01*
X124459Y-2652116D01*
X150901Y-2652116D01*
X150901Y-2684908D01*
X126666Y-2684908D01*
G37*
%LPD*%
%LPC*%
G36*
X124459Y-2649118D02*
X124459Y-2649118D01*
X124459Y-2618533D01*
X124570Y-2618119D01*
X124632Y-2617886D01*
X124967Y-2617307D01*
X125440Y-2616834D01*
X126019Y-2616499D01*
X126666Y-2616326D01*
X150901Y-2616326D01*
X150901Y-2649118D01*
X124459Y-2649118D01*
G37*
%LPD*%
%LPC*%
G36*
X144375Y-372345D02*
X144375Y-372345D01*
X142005Y-369975D01*
X142005Y-366625D01*
X144375Y-364255D01*
X147725Y-364255D01*
X147994Y-364524D01*
X148073Y-364581D01*
X148148Y-364643D01*
X148172Y-364651D01*
X148192Y-364666D01*
X148286Y-364694D01*
X148377Y-364729D01*
X148410Y-364732D01*
X148426Y-364737D01*
X148451Y-364736D01*
X148524Y-364743D01*
X207766Y-364743D01*
X207863Y-364727D01*
X207960Y-364718D01*
X207982Y-364708D01*
X208007Y-364704D01*
X208093Y-364658D01*
X208182Y-364617D01*
X208208Y-364596D01*
X208222Y-364589D01*
X208239Y-364570D01*
X208296Y-364524D01*
X224824Y-347996D01*
X224881Y-347917D01*
X224943Y-347842D01*
X224951Y-347818D01*
X224966Y-347798D01*
X224994Y-347705D01*
X225029Y-347613D01*
X225032Y-347580D01*
X225037Y-347564D01*
X225036Y-347539D01*
X225043Y-347466D01*
X225043Y-332674D01*
X225042Y-332664D01*
X225041Y-332662D01*
X225027Y-332577D01*
X225018Y-332481D01*
X225008Y-332458D01*
X225004Y-332433D01*
X224958Y-332347D01*
X224917Y-332258D01*
X224896Y-332233D01*
X224889Y-332218D01*
X224870Y-332201D01*
X224824Y-332144D01*
X224555Y-331875D01*
X224555Y-328525D01*
X226925Y-326155D01*
X230275Y-326155D01*
X232645Y-328525D01*
X232645Y-331875D01*
X232376Y-332144D01*
X232319Y-332223D01*
X232257Y-332298D01*
X232249Y-332322D01*
X232234Y-332342D01*
X232206Y-332436D01*
X232171Y-332527D01*
X232168Y-332560D01*
X232163Y-332576D01*
X232164Y-332601D01*
X232157Y-332674D01*
X232157Y-350723D01*
X211023Y-371857D01*
X148524Y-371857D01*
X148427Y-371873D01*
X148331Y-371882D01*
X148308Y-371892D01*
X148283Y-371896D01*
X148197Y-371942D01*
X148108Y-371983D01*
X148083Y-372004D01*
X148068Y-372011D01*
X148051Y-372030D01*
X147994Y-372076D01*
X147725Y-372345D01*
X144375Y-372345D01*
G37*
%LPD*%
%LPC*%
G36*
X125071Y-106258D02*
X125071Y-106258D01*
X122342Y-103529D01*
X122342Y-99671D01*
X125071Y-96942D01*
X128929Y-96942D01*
X129811Y-97824D01*
X129890Y-97881D01*
X129965Y-97943D01*
X129989Y-97951D01*
X130009Y-97966D01*
X130103Y-97994D01*
X130194Y-98029D01*
X130227Y-98032D01*
X130243Y-98037D01*
X130268Y-98036D01*
X130341Y-98043D01*
X150616Y-98043D01*
X150713Y-98027D01*
X150810Y-98018D01*
X150832Y-98008D01*
X150857Y-98004D01*
X150943Y-97958D01*
X151032Y-97917D01*
X151058Y-97896D01*
X151072Y-97889D01*
X151089Y-97870D01*
X151146Y-97824D01*
X163207Y-85763D01*
X163285Y-85654D01*
X163349Y-85565D01*
X163381Y-85460D01*
X163420Y-85332D01*
X163420Y-85331D01*
X163416Y-85207D01*
X163412Y-85088D01*
X163412Y-85087D01*
X163369Y-84947D01*
X163067Y-84217D01*
X163067Y-80883D01*
X164343Y-77802D01*
X166702Y-75443D01*
X169783Y-74167D01*
X173117Y-74167D01*
X176198Y-75443D01*
X178557Y-77802D01*
X179833Y-80883D01*
X179833Y-84217D01*
X178557Y-87298D01*
X176198Y-89657D01*
X173117Y-90933D01*
X169783Y-90933D01*
X169053Y-90631D01*
X168938Y-90604D01*
X168816Y-90575D01*
X168684Y-90588D01*
X168573Y-90599D01*
X168454Y-90653D01*
X168351Y-90699D01*
X168351Y-90700D01*
X168350Y-90700D01*
X168237Y-90793D01*
X153873Y-105157D01*
X130341Y-105157D01*
X130244Y-105173D01*
X130147Y-105182D01*
X130125Y-105192D01*
X130100Y-105196D01*
X130014Y-105242D01*
X129925Y-105283D01*
X129899Y-105304D01*
X129885Y-105311D01*
X129868Y-105330D01*
X129811Y-105376D01*
X128929Y-106258D01*
X125071Y-106258D01*
G37*
%LPD*%
%LPC*%
G36*
X-160679Y-353908D02*
X-160679Y-353908D01*
X-161561Y-353026D01*
X-161640Y-352969D01*
X-161715Y-352907D01*
X-161739Y-352899D01*
X-161759Y-352884D01*
X-161853Y-352856D01*
X-161944Y-352821D01*
X-161977Y-352818D01*
X-161993Y-352813D01*
X-162018Y-352814D01*
X-162091Y-352807D01*
X-166573Y-352807D01*
X-187944Y-331436D01*
X-188023Y-331379D01*
X-188098Y-331317D01*
X-188122Y-331309D01*
X-188142Y-331294D01*
X-188235Y-331266D01*
X-188327Y-331231D01*
X-188360Y-331228D01*
X-188376Y-331223D01*
X-188401Y-331224D01*
X-188474Y-331217D01*
X-215099Y-331217D01*
X-215196Y-331233D01*
X-215293Y-331242D01*
X-215315Y-331252D01*
X-215340Y-331256D01*
X-215426Y-331302D01*
X-215515Y-331343D01*
X-215541Y-331364D01*
X-215555Y-331371D01*
X-215572Y-331390D01*
X-215629Y-331436D01*
X-216511Y-332318D01*
X-220369Y-332318D01*
X-223098Y-329589D01*
X-223098Y-325731D01*
X-220369Y-323002D01*
X-216511Y-323002D01*
X-215629Y-323884D01*
X-215550Y-323941D01*
X-215475Y-324003D01*
X-215451Y-324011D01*
X-215431Y-324026D01*
X-215337Y-324054D01*
X-215246Y-324089D01*
X-215213Y-324092D01*
X-215197Y-324097D01*
X-215172Y-324096D01*
X-215099Y-324103D01*
X-185217Y-324103D01*
X-163846Y-345474D01*
X-163767Y-345531D01*
X-163692Y-345593D01*
X-163668Y-345601D01*
X-163648Y-345616D01*
X-163555Y-345644D01*
X-163463Y-345679D01*
X-163430Y-345682D01*
X-163414Y-345687D01*
X-163389Y-345686D01*
X-163316Y-345693D01*
X-162091Y-345693D01*
X-161994Y-345677D01*
X-161897Y-345668D01*
X-161875Y-345658D01*
X-161850Y-345654D01*
X-161764Y-345608D01*
X-161675Y-345567D01*
X-161649Y-345546D01*
X-161635Y-345539D01*
X-161618Y-345520D01*
X-161561Y-345474D01*
X-160679Y-344592D01*
X-156821Y-344592D01*
X-154092Y-347321D01*
X-154092Y-351179D01*
X-156821Y-353908D01*
X-160679Y-353908D01*
G37*
%LPD*%
%LPC*%
G36*
X125071Y-118958D02*
X125071Y-118958D01*
X122342Y-116229D01*
X122342Y-112371D01*
X125071Y-109642D01*
X128929Y-109642D01*
X129811Y-110524D01*
X129890Y-110581D01*
X129965Y-110643D01*
X129989Y-110651D01*
X130009Y-110666D01*
X130103Y-110694D01*
X130194Y-110729D01*
X130227Y-110732D01*
X130243Y-110737D01*
X130268Y-110736D01*
X130341Y-110743D01*
X156966Y-110743D01*
X157063Y-110727D01*
X157160Y-110718D01*
X157182Y-110708D01*
X157207Y-110704D01*
X157293Y-110658D01*
X157382Y-110617D01*
X157408Y-110596D01*
X157422Y-110589D01*
X157439Y-110570D01*
X157496Y-110524D01*
X163207Y-104813D01*
X163283Y-104707D01*
X163349Y-104615D01*
X163374Y-104532D01*
X163420Y-104382D01*
X163420Y-104381D01*
X163416Y-104257D01*
X163412Y-104138D01*
X163412Y-104137D01*
X163369Y-103997D01*
X163067Y-103267D01*
X163067Y-99933D01*
X164343Y-96852D01*
X166702Y-94493D01*
X169783Y-93217D01*
X173117Y-93217D01*
X176198Y-94493D01*
X178557Y-96852D01*
X179833Y-99933D01*
X179833Y-103267D01*
X178557Y-106348D01*
X176198Y-108707D01*
X173117Y-109983D01*
X169783Y-109983D01*
X169053Y-109681D01*
X168938Y-109654D01*
X168816Y-109625D01*
X168684Y-109638D01*
X168573Y-109649D01*
X168454Y-109703D01*
X168351Y-109749D01*
X168351Y-109750D01*
X168350Y-109750D01*
X168237Y-109843D01*
X160223Y-117857D01*
X130341Y-117857D01*
X130244Y-117873D01*
X130147Y-117882D01*
X130125Y-117892D01*
X130100Y-117896D01*
X130014Y-117942D01*
X129925Y-117983D01*
X129899Y-118004D01*
X129885Y-118011D01*
X129868Y-118030D01*
X129811Y-118076D01*
X128929Y-118958D01*
X125071Y-118958D01*
G37*
%LPD*%
%LPC*%
G36*
X125071Y-131658D02*
X125071Y-131658D01*
X122342Y-128929D01*
X122342Y-125071D01*
X125071Y-122342D01*
X128929Y-122342D01*
X129811Y-123224D01*
X129890Y-123281D01*
X129965Y-123343D01*
X129989Y-123351D01*
X130009Y-123366D01*
X130103Y-123394D01*
X130194Y-123429D01*
X130227Y-123432D01*
X130243Y-123437D01*
X130268Y-123436D01*
X130341Y-123443D01*
X162412Y-123443D01*
X162461Y-123435D01*
X162510Y-123437D01*
X162580Y-123416D01*
X162653Y-123404D01*
X162696Y-123380D01*
X162743Y-123366D01*
X162803Y-123323D01*
X162868Y-123289D01*
X162902Y-123253D01*
X162942Y-123224D01*
X162985Y-123164D01*
X163035Y-123111D01*
X163055Y-123066D01*
X163084Y-123026D01*
X163106Y-122955D01*
X163136Y-122888D01*
X163141Y-122839D01*
X163155Y-122792D01*
X163153Y-122719D01*
X163160Y-122645D01*
X163149Y-122598D01*
X163147Y-122549D01*
X163105Y-122409D01*
X163105Y-122408D01*
X163104Y-122407D01*
X163067Y-122317D01*
X163067Y-118983D01*
X164343Y-115902D01*
X166702Y-113543D01*
X169783Y-112267D01*
X173117Y-112267D01*
X176198Y-113543D01*
X178557Y-115902D01*
X179833Y-118983D01*
X179833Y-122317D01*
X178557Y-125398D01*
X176198Y-127757D01*
X173117Y-129033D01*
X169783Y-129033D01*
X169053Y-128731D01*
X168938Y-128704D01*
X168816Y-128675D01*
X168684Y-128688D01*
X168573Y-128699D01*
X168454Y-128753D01*
X168351Y-128799D01*
X168351Y-128800D01*
X168350Y-128800D01*
X168237Y-128893D01*
X166573Y-130557D01*
X130341Y-130557D01*
X130244Y-130573D01*
X130147Y-130582D01*
X130125Y-130592D01*
X130100Y-130596D01*
X130014Y-130642D01*
X129925Y-130683D01*
X129899Y-130704D01*
X129885Y-130711D01*
X129868Y-130730D01*
X129811Y-130776D01*
X128929Y-131658D01*
X125071Y-131658D01*
G37*
%LPD*%
%LPC*%
G36*
X169783Y-148083D02*
X169783Y-148083D01*
X166702Y-146807D01*
X164343Y-144448D01*
X164041Y-143719D01*
X163996Y-143645D01*
X163913Y-143512D01*
X163821Y-143437D01*
X163724Y-143357D01*
X163592Y-143307D01*
X163496Y-143271D01*
X163495Y-143271D01*
X163349Y-143257D01*
X130341Y-143257D01*
X130244Y-143273D01*
X130147Y-143282D01*
X130125Y-143292D01*
X130100Y-143296D01*
X130014Y-143342D01*
X129925Y-143383D01*
X129899Y-143404D01*
X129885Y-143411D01*
X129868Y-143430D01*
X129811Y-143476D01*
X128929Y-144358D01*
X125071Y-144358D01*
X122342Y-141629D01*
X122342Y-137771D01*
X125071Y-135042D01*
X128929Y-135042D01*
X129811Y-135924D01*
X129890Y-135981D01*
X129965Y-136043D01*
X129989Y-136051D01*
X130009Y-136066D01*
X130103Y-136094D01*
X130194Y-136129D01*
X130227Y-136132D01*
X130243Y-136137D01*
X130268Y-136136D01*
X130341Y-136143D01*
X163349Y-136143D01*
X163479Y-136122D01*
X163589Y-136104D01*
X163590Y-136104D01*
X163698Y-136046D01*
X163805Y-135989D01*
X163874Y-135915D01*
X163972Y-135811D01*
X163972Y-135810D01*
X164041Y-135681D01*
X164343Y-134952D01*
X166702Y-132593D01*
X169783Y-131317D01*
X173117Y-131317D01*
X176198Y-132593D01*
X178557Y-134952D01*
X179833Y-138033D01*
X179833Y-141367D01*
X178557Y-144448D01*
X176198Y-146807D01*
X173117Y-148083D01*
X169783Y-148083D01*
G37*
%LPD*%
%LPC*%
G36*
X-192604Y-608331D02*
X-192604Y-608331D01*
X-195208Y-605727D01*
X-195288Y-605670D01*
X-195363Y-605608D01*
X-195386Y-605599D01*
X-195407Y-605585D01*
X-195500Y-605557D01*
X-195591Y-605522D01*
X-195624Y-605519D01*
X-195640Y-605514D01*
X-195665Y-605515D01*
X-195738Y-605508D01*
X-200268Y-605508D01*
X-200381Y-605526D01*
X-200493Y-605542D01*
X-200501Y-605546D01*
X-200509Y-605547D01*
X-200609Y-605601D01*
X-200711Y-605652D01*
X-200717Y-605658D01*
X-200724Y-605662D01*
X-200802Y-605745D01*
X-200882Y-605826D01*
X-200885Y-605834D01*
X-200891Y-605840D01*
X-200938Y-605944D01*
X-200987Y-606046D01*
X-200989Y-606057D01*
X-200992Y-606063D01*
X-200994Y-606079D01*
X-201015Y-606191D01*
X-201016Y-606201D01*
X-202305Y-607284D01*
X-225997Y-605211D01*
X-227079Y-603921D01*
X-226268Y-594652D01*
X-224979Y-593570D01*
X-204710Y-595343D01*
X-204689Y-595342D01*
X-204645Y-595346D01*
X-191219Y-595346D01*
X-185419Y-601146D01*
X-185419Y-605354D01*
X-188396Y-608331D01*
X-192604Y-608331D01*
G37*
%LPD*%
%LPC*%
G36*
X-222075Y-560382D02*
X-222075Y-560382D01*
X-223157Y-559092D01*
X-222346Y-549824D01*
X-221057Y-548741D01*
X-197365Y-550814D01*
X-196283Y-552104D01*
X-197094Y-561372D01*
X-198383Y-562455D01*
X-222075Y-560382D01*
G37*
%LPD*%
%LPC*%
G36*
X-245176Y-596772D02*
X-245176Y-596772D01*
X-247577Y-595777D01*
X-249414Y-593939D01*
X-250409Y-591538D01*
X-250409Y-588940D01*
X-249414Y-586539D01*
X-247577Y-584701D01*
X-245176Y-583706D01*
X-242577Y-583706D01*
X-240176Y-584701D01*
X-238338Y-586539D01*
X-237343Y-588940D01*
X-237343Y-591538D01*
X-238338Y-593939D01*
X-240176Y-595777D01*
X-242577Y-596772D01*
X-245176Y-596772D01*
G37*
%LPD*%
%LPC*%
G36*
X-242563Y-566914D02*
X-242563Y-566914D01*
X-244964Y-565919D01*
X-246802Y-564081D01*
X-247797Y-561680D01*
X-247797Y-559082D01*
X-246802Y-556681D01*
X-244964Y-554843D01*
X-242563Y-553848D01*
X-239964Y-553848D01*
X-237563Y-554843D01*
X-235726Y-556681D01*
X-234731Y-559082D01*
X-234731Y-561680D01*
X-235726Y-564081D01*
X-237563Y-565919D01*
X-239964Y-566914D01*
X-242563Y-566914D01*
G37*
%LPD*%
%LPC*%
G36*
X-208319Y-291938D02*
X-208319Y-291938D01*
X-211267Y-288990D01*
X-211267Y-284821D01*
X-208319Y-281873D01*
X-204150Y-281873D01*
X-201202Y-284821D01*
X-201202Y-288990D01*
X-204150Y-291938D01*
X-208319Y-291938D01*
G37*
%LPD*%
%LPC*%
G36*
X-194336Y-348022D02*
X-194336Y-348022D01*
X-197284Y-345073D01*
X-197284Y-340904D01*
X-194336Y-337956D01*
X-190167Y-337956D01*
X-187219Y-340904D01*
X-187219Y-345073D01*
X-190167Y-348022D01*
X-194336Y-348022D01*
G37*
%LPD*%
%LPC*%
G36*
X-196467Y-356400D02*
X-196467Y-356400D01*
X-196143Y-354836D01*
X-195479Y-353383D01*
X-194507Y-352114D01*
X-193278Y-351093D01*
X-191853Y-350371D01*
X-191137Y-350192D01*
X-191078Y-350178D01*
X-190651Y-350071D01*
X-188594Y-349558D01*
X-187196Y-349210D01*
X-186581Y-351676D01*
X-190463Y-352644D01*
X-190465Y-352647D01*
X-190468Y-352645D01*
X-191412Y-352997D01*
X-191417Y-353004D01*
X-191422Y-353002D01*
X-192265Y-353555D01*
X-192267Y-353563D01*
X-192273Y-353562D01*
X-192971Y-354289D01*
X-192972Y-354297D01*
X-192978Y-354297D01*
X-193497Y-355161D01*
X-193496Y-355169D01*
X-193501Y-355171D01*
X-193815Y-356129D01*
X-193813Y-356136D01*
X-193817Y-356140D01*
X-193863Y-356635D01*
X-196450Y-357280D01*
X-196467Y-356400D01*
G37*
%LPD*%
%LPC*%
G36*
X-196112Y-267564D02*
X-196112Y-267564D01*
X-196120Y-267561D01*
X-196119Y-267555D01*
X-196846Y-266857D01*
X-196854Y-266856D01*
X-196855Y-266850D01*
X-197719Y-266331D01*
X-197727Y-266332D01*
X-197729Y-266327D01*
X-198686Y-266013D01*
X-198694Y-266016D01*
X-198697Y-266011D01*
X-199700Y-265918D01*
X-199707Y-265922D01*
X-199711Y-265918D01*
X-200710Y-266051D01*
X-200712Y-266053D01*
X-200714Y-266054D01*
X-200716Y-266052D01*
X-204598Y-267020D01*
X-205213Y-264554D01*
X-201757Y-263692D01*
X-201415Y-263607D01*
X-201331Y-263586D01*
X-201330Y-263586D01*
X-200653Y-263417D01*
X-199258Y-263350D01*
X-197876Y-263556D01*
X-196562Y-264028D01*
X-195365Y-264748D01*
X-194331Y-265687D01*
X-193500Y-266810D01*
X-193252Y-267334D01*
X-195839Y-267980D01*
X-196112Y-267564D01*
G37*
%LPD*%
%LPC*%
G36*
X-175186Y-351494D02*
X-175186Y-351494D01*
X-175194Y-351491D01*
X-175193Y-351486D01*
X-175920Y-350788D01*
X-175928Y-350787D01*
X-175929Y-350781D01*
X-176792Y-350262D01*
X-176800Y-350263D01*
X-176802Y-350257D01*
X-177760Y-349943D01*
X-177768Y-349946D01*
X-177771Y-349941D01*
X-178774Y-349848D01*
X-178781Y-349853D01*
X-178785Y-349849D01*
X-179784Y-349981D01*
X-179786Y-349983D01*
X-179787Y-349984D01*
X-179789Y-349982D01*
X-183671Y-350950D01*
X-184286Y-348484D01*
X-180831Y-347623D01*
X-180622Y-347571D01*
X-180621Y-347570D01*
X-180594Y-347564D01*
X-180593Y-347564D01*
X-180238Y-347475D01*
X-180194Y-347464D01*
X-179727Y-347347D01*
X-178332Y-347280D01*
X-176950Y-347487D01*
X-175958Y-347843D01*
X-175957Y-347843D01*
X-175635Y-347959D01*
X-174438Y-348678D01*
X-173404Y-349617D01*
X-172573Y-350740D01*
X-172326Y-351265D01*
X-174913Y-351910D01*
X-175186Y-351494D01*
G37*
%LPD*%
%LPC*%
G36*
X-217404Y-272770D02*
X-217404Y-272770D01*
X-217198Y-271388D01*
X-216726Y-270074D01*
X-216007Y-268877D01*
X-215067Y-267843D01*
X-213945Y-267012D01*
X-212681Y-266416D01*
X-212004Y-266247D01*
X-211577Y-266141D01*
X-208122Y-265279D01*
X-207507Y-267745D01*
X-211389Y-268713D01*
X-211392Y-268716D01*
X-211394Y-268715D01*
X-212339Y-269066D01*
X-212343Y-269073D01*
X-212348Y-269071D01*
X-213191Y-269624D01*
X-213194Y-269632D01*
X-213199Y-269631D01*
X-213897Y-270358D01*
X-213898Y-270366D01*
X-213904Y-270367D01*
X-214423Y-271231D01*
X-214422Y-271239D01*
X-214428Y-271241D01*
X-214742Y-272198D01*
X-214739Y-272206D01*
X-214744Y-272209D01*
X-214790Y-272704D01*
X-217377Y-273349D01*
X-217404Y-272770D01*
G37*
%LPD*%
%LPC*%
G36*
X-181470Y-359779D02*
X-181470Y-359779D01*
X-177588Y-358811D01*
X-177586Y-358807D01*
X-177583Y-358809D01*
X-176639Y-358457D01*
X-176634Y-358450D01*
X-176629Y-358452D01*
X-175787Y-357899D01*
X-175784Y-357892D01*
X-175778Y-357892D01*
X-175080Y-357166D01*
X-175079Y-357158D01*
X-175073Y-357157D01*
X-174554Y-356293D01*
X-174555Y-356285D01*
X-174550Y-356283D01*
X-174236Y-355326D01*
X-174238Y-355318D01*
X-174234Y-355315D01*
X-174235Y-355315D01*
X-174234Y-355315D01*
X-174188Y-354819D01*
X-171601Y-354174D01*
X-171573Y-354754D01*
X-171779Y-356135D01*
X-172251Y-357450D01*
X-172971Y-358647D01*
X-173910Y-359681D01*
X-175033Y-360512D01*
X-176296Y-361108D01*
X-176547Y-361170D01*
X-177329Y-361365D01*
X-177361Y-361373D01*
X-177362Y-361373D01*
X-177400Y-361383D01*
X-180855Y-362245D01*
X-181470Y-359779D01*
G37*
%LPD*%
%LPC*%
G36*
X-202397Y-275848D02*
X-202397Y-275848D01*
X-198515Y-274880D01*
X-198512Y-274877D01*
X-198509Y-274878D01*
X-197565Y-274527D01*
X-197561Y-274520D01*
X-197555Y-274522D01*
X-196713Y-273969D01*
X-196710Y-273961D01*
X-196704Y-273962D01*
X-196006Y-273235D01*
X-196005Y-273227D01*
X-195999Y-273226D01*
X-195480Y-272363D01*
X-195481Y-272354D01*
X-195476Y-272353D01*
X-195162Y-271395D01*
X-195165Y-271388D01*
X-195161Y-271385D01*
X-195160Y-271384D01*
X-195114Y-270889D01*
X-192527Y-270244D01*
X-192499Y-270823D01*
X-192706Y-272205D01*
X-193178Y-273519D01*
X-193897Y-274717D01*
X-194836Y-275750D01*
X-195959Y-276581D01*
X-197222Y-277177D01*
X-197715Y-277300D01*
X-201782Y-278314D01*
X-202397Y-275848D01*
G37*
%LPD*%
%LPC*%
G36*
X-191101Y-363967D02*
X-191101Y-363967D01*
X-192416Y-363495D01*
X-193613Y-362776D01*
X-194647Y-361837D01*
X-195478Y-360714D01*
X-195725Y-360189D01*
X-193138Y-359544D01*
X-192865Y-359960D01*
X-192857Y-359963D01*
X-192858Y-359969D01*
X-192131Y-360667D01*
X-192123Y-360668D01*
X-192123Y-360673D01*
X-191259Y-361192D01*
X-191251Y-361192D01*
X-191249Y-361197D01*
X-190291Y-361511D01*
X-190283Y-361508D01*
X-190280Y-361513D01*
X-189277Y-361606D01*
X-189270Y-361602D01*
X-189266Y-361606D01*
X-188267Y-361473D01*
X-188264Y-361470D01*
X-188262Y-361472D01*
X-184380Y-360504D01*
X-183765Y-362970D01*
X-187220Y-363831D01*
X-187220Y-363832D01*
X-187551Y-363914D01*
X-187647Y-363938D01*
X-188324Y-364107D01*
X-189719Y-364174D01*
X-191101Y-363967D01*
G37*
%LPD*%
%LPC*%
G36*
X-212027Y-280037D02*
X-212027Y-280037D01*
X-213342Y-279565D01*
X-214539Y-278845D01*
X-215573Y-277906D01*
X-216404Y-276783D01*
X-216651Y-276259D01*
X-214064Y-275614D01*
X-213791Y-276029D01*
X-213783Y-276032D01*
X-213784Y-276038D01*
X-213058Y-276736D01*
X-213049Y-276737D01*
X-213049Y-276743D01*
X-212185Y-277262D01*
X-212177Y-277261D01*
X-212175Y-277266D01*
X-211217Y-277580D01*
X-211210Y-277578D01*
X-211207Y-277582D01*
X-210203Y-277675D01*
X-210196Y-277671D01*
X-210192Y-277675D01*
X-209193Y-277542D01*
X-209190Y-277539D01*
X-209188Y-277541D01*
X-205306Y-276573D01*
X-204691Y-279039D01*
X-208146Y-279901D01*
X-208555Y-280003D01*
X-208556Y-280003D01*
X-208574Y-280007D01*
X-209251Y-280176D01*
X-210646Y-280243D01*
X-212027Y-280037D01*
G37*
%LPD*%
%LPC*%
G36*
X-254037Y-545190D02*
X-254037Y-545190D01*
X-254666Y-544961D01*
X-255214Y-544577D01*
X-255644Y-544065D01*
X-255926Y-543458D01*
X-256043Y-542800D01*
X-255712Y-539026D01*
X-250626Y-539471D01*
X-251149Y-545442D01*
X-254037Y-545190D01*
G37*
%LPD*%
%LPC*%
G36*
X-241173Y-619594D02*
X-241173Y-619594D01*
X-241801Y-619365D01*
X-242349Y-618981D01*
X-242779Y-618469D01*
X-243062Y-617863D01*
X-243178Y-617204D01*
X-242848Y-613430D01*
X-237762Y-613875D01*
X-238284Y-619847D01*
X-241173Y-619594D01*
G37*
%LPD*%
%LPC*%
G36*
X-234810Y-546872D02*
X-234810Y-546872D01*
X-235439Y-546643D01*
X-235987Y-546259D01*
X-236417Y-545747D01*
X-236700Y-545140D01*
X-236816Y-544482D01*
X-236486Y-540708D01*
X-231400Y-541153D01*
X-231922Y-547124D01*
X-234810Y-546872D01*
G37*
%LPD*%
%LPC*%
G36*
X-254524Y-618426D02*
X-254524Y-618426D01*
X-254002Y-612454D01*
X-248916Y-612899D01*
X-249246Y-616673D01*
X-249475Y-617302D01*
X-249858Y-617850D01*
X-250371Y-618280D01*
X-250977Y-618562D01*
X-251636Y-618679D01*
X-254524Y-618426D01*
G37*
%LPD*%
%LPC*%
G36*
X-235298Y-620108D02*
X-235298Y-620108D01*
X-234775Y-614136D01*
X-229689Y-614581D01*
X-230019Y-618355D01*
X-230248Y-618984D01*
X-230632Y-619532D01*
X-231144Y-619962D01*
X-231750Y-620245D01*
X-232409Y-620361D01*
X-235298Y-620108D01*
G37*
%LPD*%
%LPC*%
G36*
X-248162Y-545704D02*
X-248162Y-545704D01*
X-247639Y-539732D01*
X-242553Y-540177D01*
X-242883Y-543951D01*
X-243112Y-544579D01*
X-243496Y-545127D01*
X-244008Y-545557D01*
X-244615Y-545840D01*
X-245273Y-545956D01*
X-248162Y-545704D01*
G37*
%LPD*%
%LPC*%
G36*
X-228935Y-547386D02*
X-228935Y-547386D01*
X-228413Y-541414D01*
X-223327Y-541859D01*
X-223657Y-545633D01*
X-223886Y-546262D01*
X-224269Y-546810D01*
X-224782Y-547240D01*
X-225388Y-547522D01*
X-226047Y-547638D01*
X-228935Y-547386D01*
G37*
%LPD*%
%LPC*%
G36*
X-255451Y-536039D02*
X-255451Y-536039D01*
X-255121Y-532265D01*
X-254892Y-531636D01*
X-254508Y-531088D01*
X-253996Y-530658D01*
X-253390Y-530375D01*
X-252731Y-530259D01*
X-249842Y-530512D01*
X-250365Y-536484D01*
X-255451Y-536039D01*
G37*
%LPD*%
%LPC*%
G36*
X-236224Y-537721D02*
X-236224Y-537721D01*
X-235894Y-533947D01*
X-235666Y-533318D01*
X-235282Y-532770D01*
X-234769Y-532340D01*
X-234163Y-532058D01*
X-233504Y-531941D01*
X-230616Y-532194D01*
X-231138Y-538166D01*
X-236224Y-537721D01*
G37*
%LPD*%
%LPC*%
G36*
X-242587Y-610443D02*
X-242587Y-610443D01*
X-242257Y-606669D01*
X-242028Y-606041D01*
X-241644Y-605492D01*
X-241132Y-605063D01*
X-240525Y-604780D01*
X-239867Y-604664D01*
X-236978Y-604916D01*
X-237501Y-610888D01*
X-242587Y-610443D01*
G37*
%LPD*%
%LPC*%
G36*
X-234514Y-611149D02*
X-234514Y-611149D01*
X-233991Y-605178D01*
X-231103Y-605430D01*
X-230474Y-605659D01*
X-229926Y-606043D01*
X-229496Y-606555D01*
X-229214Y-607162D01*
X-229098Y-607820D01*
X-229428Y-611594D01*
X-234514Y-611149D01*
G37*
%LPD*%
%LPC*%
G36*
X-247378Y-536745D02*
X-247378Y-536745D01*
X-246856Y-530773D01*
X-243967Y-531026D01*
X-243339Y-531255D01*
X-242791Y-531638D01*
X-242361Y-532151D01*
X-242078Y-532757D01*
X-241962Y-533416D01*
X-242292Y-537190D01*
X-247378Y-536745D01*
G37*
%LPD*%
%LPC*%
G36*
X-253740Y-609467D02*
X-253740Y-609467D01*
X-253218Y-603496D01*
X-250330Y-603748D01*
X-249701Y-603977D01*
X-249153Y-604361D01*
X-248723Y-604873D01*
X-248440Y-605480D01*
X-248324Y-606138D01*
X-248654Y-609912D01*
X-253740Y-609467D01*
G37*
%LPD*%
%LPC*%
G36*
X-228151Y-538427D02*
X-228151Y-538427D01*
X-227629Y-532455D01*
X-224741Y-532708D01*
X-224112Y-532937D01*
X-223564Y-533321D01*
X-223134Y-533833D01*
X-222851Y-534439D01*
X-222735Y-535098D01*
X-223065Y-538872D01*
X-228151Y-538427D01*
G37*
%LPD*%
%LPC*%
G36*
X-256400Y-282195D02*
X-256400Y-282195D01*
X-256075Y-280630D01*
X-255411Y-279177D01*
X-254440Y-277908D01*
X-253210Y-276887D01*
X-251785Y-276165D01*
X-251019Y-275975D01*
X-251018Y-275974D01*
X-251017Y-275974D01*
X-251010Y-275972D01*
X-250844Y-275931D01*
X-250583Y-275866D01*
X-248583Y-275367D01*
X-247968Y-277833D01*
X-250395Y-278438D01*
X-250398Y-278442D01*
X-250400Y-278440D01*
X-251344Y-278792D01*
X-251349Y-278799D01*
X-251354Y-278797D01*
X-252197Y-279350D01*
X-252199Y-279357D01*
X-252205Y-279357D01*
X-252903Y-280083D01*
X-252904Y-280091D01*
X-252910Y-280092D01*
X-253429Y-280956D01*
X-253428Y-280964D01*
X-253434Y-280966D01*
X-253747Y-281923D01*
X-253745Y-281931D01*
X-253750Y-281934D01*
X-253795Y-282430D01*
X-256382Y-283074D01*
X-256400Y-282195D01*
G37*
%LPD*%
%LPC*%
G36*
X-217103Y-361945D02*
X-217103Y-361945D01*
X-217111Y-361943D01*
X-217110Y-361937D01*
X-217837Y-361239D01*
X-217845Y-361238D01*
X-217845Y-361232D01*
X-218709Y-360713D01*
X-218717Y-360714D01*
X-218719Y-360708D01*
X-219677Y-360395D01*
X-219684Y-360397D01*
X-219688Y-360392D01*
X-220691Y-360299D01*
X-220693Y-360301D01*
X-220694Y-360299D01*
X-220696Y-360299D01*
X-220700Y-360302D01*
X-220702Y-360300D01*
X-221701Y-360432D01*
X-221704Y-360435D01*
X-221706Y-360433D01*
X-224133Y-361038D01*
X-224748Y-358572D01*
X-222748Y-358074D01*
X-222747Y-358074D01*
X-222417Y-357991D01*
X-222321Y-357967D01*
X-221643Y-357798D01*
X-220248Y-357731D01*
X-218867Y-357938D01*
X-217552Y-358410D01*
X-216355Y-359129D01*
X-215321Y-360069D01*
X-214490Y-361191D01*
X-214243Y-361716D01*
X-216830Y-362361D01*
X-217103Y-361945D01*
G37*
%LPD*%
%LPC*%
G36*
X-238029Y-278015D02*
X-238029Y-278015D01*
X-238037Y-278012D01*
X-238036Y-278006D01*
X-238763Y-277308D01*
X-238771Y-277307D01*
X-238772Y-277301D01*
X-239635Y-276782D01*
X-239643Y-276783D01*
X-239645Y-276778D01*
X-240603Y-276464D01*
X-240611Y-276467D01*
X-240614Y-276462D01*
X-241617Y-276369D01*
X-241619Y-276370D01*
X-241620Y-276369D01*
X-241623Y-276369D01*
X-241626Y-276371D01*
X-241628Y-276369D01*
X-242627Y-276502D01*
X-242630Y-276505D01*
X-242632Y-276503D01*
X-245059Y-277108D01*
X-245674Y-274642D01*
X-243674Y-274143D01*
X-243293Y-274048D01*
X-243247Y-274037D01*
X-242570Y-273868D01*
X-241175Y-273801D01*
X-239793Y-274007D01*
X-238479Y-274479D01*
X-237281Y-275199D01*
X-236247Y-276138D01*
X-235417Y-277261D01*
X-235169Y-277785D01*
X-237756Y-278431D01*
X-238029Y-278015D01*
G37*
%LPD*%
%LPC*%
G36*
X-235484Y-366426D02*
X-235484Y-366426D01*
X-235278Y-365044D01*
X-234806Y-363729D01*
X-234086Y-362532D01*
X-233147Y-361498D01*
X-232024Y-360668D01*
X-230761Y-360072D01*
X-230224Y-359938D01*
X-230084Y-359903D01*
X-230083Y-359903D01*
X-229657Y-359796D01*
X-227852Y-359347D01*
X-227657Y-359298D01*
X-227042Y-361764D01*
X-229469Y-362369D01*
X-229471Y-362372D01*
X-229474Y-362370D01*
X-230418Y-362722D01*
X-230423Y-362729D01*
X-230428Y-362727D01*
X-231270Y-363280D01*
X-231273Y-363288D01*
X-231279Y-363287D01*
X-231977Y-364014D01*
X-231978Y-364022D01*
X-231984Y-364023D01*
X-232503Y-364886D01*
X-232502Y-364895D01*
X-232507Y-364896D01*
X-232821Y-365854D01*
X-232818Y-365862D01*
X-232823Y-365865D01*
X-232869Y-366360D01*
X-235456Y-367005D01*
X-235484Y-366426D01*
G37*
%LPD*%
%LPC*%
G36*
X-221932Y-369867D02*
X-221932Y-369867D01*
X-219505Y-369262D01*
X-219502Y-369258D01*
X-219500Y-369260D01*
X-218556Y-368908D01*
X-218551Y-368901D01*
X-218546Y-368903D01*
X-217703Y-368350D01*
X-217701Y-368343D01*
X-217695Y-368343D01*
X-216997Y-367617D01*
X-216996Y-367609D01*
X-216990Y-367608D01*
X-216471Y-366744D01*
X-216472Y-366736D01*
X-216466Y-366734D01*
X-216153Y-365777D01*
X-216155Y-365769D01*
X-216150Y-365766D01*
X-216105Y-365270D01*
X-213517Y-364625D01*
X-213490Y-365205D01*
X-213696Y-366586D01*
X-214168Y-367901D01*
X-214887Y-369098D01*
X-215826Y-370132D01*
X-216949Y-370963D01*
X-218213Y-371559D01*
X-218699Y-371680D01*
X-218700Y-371680D01*
X-221317Y-372333D01*
X-221932Y-369867D01*
G37*
%LPD*%
%LPC*%
G36*
X-242858Y-285936D02*
X-242858Y-285936D01*
X-240431Y-285331D01*
X-240429Y-285328D01*
X-240426Y-285330D01*
X-239482Y-284978D01*
X-239477Y-284971D01*
X-239472Y-284973D01*
X-238630Y-284420D01*
X-238627Y-284412D01*
X-238621Y-284413D01*
X-237923Y-283686D01*
X-237922Y-283678D01*
X-237916Y-283677D01*
X-237397Y-282814D01*
X-237398Y-282805D01*
X-237393Y-282804D01*
X-237079Y-281846D01*
X-237082Y-281838D01*
X-237077Y-281835D01*
X-237031Y-281340D01*
X-234444Y-280695D01*
X-234416Y-281274D01*
X-234622Y-282656D01*
X-235094Y-283970D01*
X-235814Y-285168D01*
X-236753Y-286201D01*
X-237876Y-287032D01*
X-239139Y-287628D01*
X-239390Y-287691D01*
X-242243Y-288402D01*
X-242858Y-285936D01*
G37*
%LPD*%
%LPC*%
G36*
X-230107Y-373693D02*
X-230107Y-373693D01*
X-231421Y-373221D01*
X-232619Y-372501D01*
X-233652Y-371562D01*
X-234483Y-370439D01*
X-234731Y-369914D01*
X-232144Y-369269D01*
X-231871Y-369685D01*
X-231863Y-369688D01*
X-231864Y-369694D01*
X-231137Y-370392D01*
X-231129Y-370393D01*
X-231128Y-370399D01*
X-230265Y-370918D01*
X-230257Y-370917D01*
X-230255Y-370922D01*
X-229297Y-371236D01*
X-229289Y-371233D01*
X-229286Y-371238D01*
X-228283Y-371331D01*
X-228276Y-371327D01*
X-228272Y-371331D01*
X-227273Y-371198D01*
X-227270Y-371195D01*
X-227268Y-371197D01*
X-224841Y-370592D01*
X-224226Y-373058D01*
X-226226Y-373557D01*
X-226607Y-373652D01*
X-226652Y-373663D01*
X-226653Y-373663D01*
X-227330Y-373832D01*
X-228725Y-373899D01*
X-230107Y-373693D01*
G37*
%LPD*%
%LPC*%
G36*
X-251033Y-289762D02*
X-251033Y-289762D01*
X-252348Y-289290D01*
X-253545Y-288571D01*
X-254579Y-287632D01*
X-255410Y-286509D01*
X-255657Y-285984D01*
X-253070Y-285339D01*
X-252797Y-285755D01*
X-252789Y-285757D01*
X-252790Y-285763D01*
X-252063Y-286461D01*
X-252055Y-286462D01*
X-252055Y-286468D01*
X-251191Y-286987D01*
X-251183Y-286986D01*
X-251181Y-286992D01*
X-250223Y-287305D01*
X-250216Y-287303D01*
X-250212Y-287308D01*
X-249209Y-287401D01*
X-249202Y-287396D01*
X-249198Y-287400D01*
X-248199Y-287268D01*
X-248196Y-287265D01*
X-248194Y-287267D01*
X-245767Y-286662D01*
X-245152Y-289127D01*
X-247152Y-289626D01*
X-247508Y-289715D01*
X-247579Y-289733D01*
X-248257Y-289901D01*
X-249652Y-289968D01*
X-251033Y-289762D01*
G37*
%LPD*%
%LPC*%
G36*
X152399Y-2650618D02*
X152399Y-2650618D01*
X152399Y-2650616D01*
X152401Y-2650616D01*
X152401Y-2650618D01*
X152399Y-2650618D01*
G37*
%LPD*%
%LPC*%
G36*
X-229776Y-539791D02*
X-229776Y-539791D01*
X-229776Y-539789D01*
X-229775Y-539789D01*
X-229775Y-539791D01*
X-229776Y-539791D01*
G37*
%LPD*%
%LPC*%
G36*
X-249003Y-538109D02*
X-249003Y-538109D01*
X-249003Y-538107D01*
X-249001Y-538107D01*
X-249001Y-538109D01*
X-249003Y-538109D01*
G37*
%LPD*%
%LPC*%
G36*
X-236139Y-612513D02*
X-236139Y-612513D01*
X-236139Y-612511D01*
X-236137Y-612511D01*
X-236137Y-612513D01*
X-236139Y-612513D01*
G37*
%LPD*%
D10*
G36*
X-199046Y-560356D02*
X-221059Y-558430D01*
X-220394Y-550840D01*
X-198381Y-552766D01*
X-199046Y-560356D01*
G37*
G36*
X-200353Y-575299D02*
X-222366Y-573373D01*
X-221701Y-565783D01*
X-199688Y-567709D01*
X-200353Y-575299D01*
G37*
G36*
X-202968Y-605185D02*
X-224981Y-603259D01*
X-224316Y-595669D01*
X-202303Y-597595D01*
X-202968Y-605185D01*
G37*
D11*
G36*
X-251748Y-616118D02*
X-259844Y-615409D01*
X-258980Y-605542D01*
X-250884Y-606251D01*
X-251748Y-616118D01*
G37*
G36*
X-232522Y-617800D02*
X-240618Y-617091D01*
X-239754Y-607224D01*
X-231658Y-607933D01*
X-232522Y-617800D01*
G37*
G36*
X-245386Y-543396D02*
X-253482Y-542687D01*
X-252618Y-532820D01*
X-244522Y-533529D01*
X-245386Y-543396D01*
G37*
G36*
X-226160Y-545078D02*
X-234256Y-544369D01*
X-233392Y-534502D01*
X-225296Y-535211D01*
X-226160Y-545078D01*
G37*
D12*
X171450Y-139700D03*
X171450Y-120650D03*
X171450Y-101600D03*
X171450Y-82550D03*
D13*
X-204952Y-271797D03*
X-184026Y-355727D03*
X-245413Y-281885D03*
X-224487Y-365815D03*
D14*
X-152400Y-2099183D03*
X-152400Y-2650617D03*
D15*
X-205486Y-2130933D03*
D14*
X0Y-2650617D03*
X0Y-2099183D03*
D15*
X53086Y-2618867D03*
D14*
X152400Y-2099183D03*
X152400Y-2650617D03*
D15*
X99314Y-2130933D03*
D16*
X-120000Y-710000D03*
X-130000Y-910000D03*
X-150000Y-1110000D03*
X-150000Y-1310000D03*
X-190000Y-1710000D03*
X-230000Y-1910000D03*
X-250000Y-2110000D03*
X-270000Y-2310000D03*
X-235400Y-2590800D03*
X-170000Y-1510000D03*
X248100Y-2578100D03*
X20000Y-2910000D03*
X210000Y-1710000D03*
X180000Y-1510000D03*
X230000Y-1910000D03*
X270000Y-2310000D03*
X250000Y-2110000D03*
X170000Y-1310000D03*
X150000Y-1110000D03*
X130000Y-910000D03*
X120000Y-710000D03*
X-139700Y-209550D03*
D17*
X133350Y-273050D03*
X196850Y-304800D03*
X38100Y-381000D03*
X-76200Y-241300D03*
X-133350Y-120650D03*
X-133350Y-31750D03*
X107950Y-31750D03*
X6350Y-88900D03*
X6350Y-120650D03*
X-12700Y-120650D03*
X25400Y-120650D03*
X25400Y-88900D03*
X-12700Y-88900D03*
D16*
X-165100Y-139700D03*
X19050Y-673100D03*
X-153670Y-318770D03*
X12700Y-2851150D03*
X292100Y-2540000D03*
X-273050Y-2540000D03*
X-330200Y-2279650D03*
X-311150Y-2076450D03*
X-292100Y-1879600D03*
X-273050Y-1676400D03*
X-254000Y-1479550D03*
X-234950Y-1276350D03*
X-215900Y-1079500D03*
X-190500Y-882650D03*
X-171450Y-679450D03*
X190500Y-679450D03*
X209550Y-882650D03*
X228600Y-1079500D03*
X247650Y-1276350D03*
X266700Y-1479550D03*
X285750Y-1682750D03*
X311150Y-1879600D03*
X330200Y-2076450D03*
X349250Y-2273300D03*
X88900Y-241300D03*
D18*
X-114300Y-190500D02*
X-114300Y-387350D01*
X-114300Y-419100D01*
D19*
X-114300Y-190500D03*
D18*
X-193323Y-600427D02*
X-213642Y-600427D01*
X-193323Y-600427D02*
X-190500Y-603250D01*
D19*
X-190500Y-603250D03*
X-114300Y-419100D03*
D16*
X-114300Y-387350D03*
X-76200Y-292100D03*
D20*
X-69850Y-285750D02*
X158750Y-285750D01*
X-69850Y-285750D02*
X-76200Y-292100D01*
D17*
X158750Y-285750D03*
D16*
X-139700Y-101600D03*
D18*
X-254000Y-647700D02*
X-350990Y-1966760D01*
X-254000Y-647700D02*
X-241300Y-635000D01*
X-127000Y-158750D02*
X-146050Y-139700D01*
X-127000Y-584200D02*
X-177800Y-635000D01*
X-241300Y-635000D01*
X-127000Y-273050D02*
X-127000Y-158750D01*
X-127000Y-273050D02*
X-127000Y-584200D01*
X-146050Y-107950D02*
X-139700Y-101600D01*
X-146050Y-107950D02*
X-146050Y-139700D01*
D16*
X-127000Y-273050D03*
D18*
X-350990Y-1966760D02*
X-276225Y-2041525D01*
X-273050Y-2044700D01*
X-165100Y-2044700D02*
X-152400Y-2057400D01*
X-152400Y-2099183D01*
X-165100Y-2044700D02*
X-273050Y-2044700D01*
D16*
X228600Y-381000D03*
X-25400Y-457200D03*
D21*
X-25400Y-539750D01*
X-12700Y-552450D01*
D16*
X-12700Y-552450D03*
D17*
X0Y-360300D03*
D20*
X84200Y-360300D02*
X101600Y-342900D01*
X84200Y-360300D02*
X0Y-360300D01*
X101600Y-342900D02*
X152400Y-342900D01*
D17*
X152400Y-342900D03*
X-95250Y-57150D03*
D20*
X-88900Y-63500D01*
X-88900Y-355600D01*
D17*
X-88900Y-355600D03*
X228600Y-285750D03*
D20*
X187960Y-285750D01*
X162560Y-260350D01*
X162560Y-199390D01*
X153670Y-190500D01*
X107950Y-190500D01*
D17*
X107950Y-190500D03*
D16*
X-76200Y-342900D03*
D20*
X69850Y-342900D01*
X82550Y-330200D01*
D16*
X82550Y-330200D03*
X-76200Y-330200D03*
D20*
X63500Y-330200D01*
X69850Y-323850D01*
D16*
X69850Y-323850D03*
D17*
X146050Y-368300D03*
D20*
X209550Y-368300D01*
X228600Y-349250D01*
X228600Y-330200D01*
D17*
X228600Y-330200D03*
X101600Y-381000D03*
D20*
X127000Y-355600D01*
X190500Y-355600D01*
X196850Y-349250D01*
X196850Y-323850D01*
D17*
X196850Y-323850D03*
D16*
X127000Y-127000D03*
D20*
X165100Y-127000D01*
X171450Y-120650D01*
D16*
X127000Y-114300D03*
D20*
X158750Y-114300D01*
X171450Y-101600D01*
D16*
X127000Y-139700D03*
D20*
X171450Y-139700D01*
D16*
X127000Y-101600D03*
D20*
X152400Y-101600D01*
X171450Y-82550D01*
D17*
X-107950Y-139700D03*
D20*
X-101600Y-146050D01*
X-101600Y-580400D01*
X-189700Y-668500D01*
D17*
X-189700Y-668500D03*
D16*
X127000Y-165100D03*
D21*
X158750Y-165100D01*
X170180Y-176530D01*
X170180Y-256540D01*
X190500Y-276860D01*
X241300Y-276860D01*
D16*
X22860Y-568960D03*
D21*
X195580Y-568960D01*
X233680Y-530860D01*
X233680Y-388620D01*
X254000Y-309880D01*
X241300Y-276860D01*
D16*
X127000Y-152400D03*
D21*
X160020Y-152400D02*
X180340Y-172720D01*
X180340Y-256540D02*
X193040Y-269240D01*
X246380Y-269240D01*
X160020Y-152400D02*
X127000Y-152400D01*
X180340Y-172720D02*
X180340Y-256540D01*
D16*
X50800Y-619760D03*
D21*
X93980Y-576580D01*
X200660Y-576580D01*
X243840Y-533400D01*
X243840Y-388620D01*
X264160Y-312420D02*
X246380Y-269240D01*
X264160Y-312420D02*
X243840Y-388620D01*
D18*
X-170491Y-570541D02*
X-211027Y-570541D01*
X-170491Y-570541D02*
X-139700Y-539750D01*
X-139700Y-234950D01*
X-152400Y-222250D01*
D16*
X-152400Y-222250D03*
X-218440Y-327660D03*
D20*
X-186690Y-327660D01*
X-165100Y-349250D01*
X-158750Y-349250D01*
D16*
X-158750Y-349250D03*
D22*
X0Y-2099183D02*
X148717Y-2099183D01*
X152400Y-2095500D01*
X152400Y-2099183D01*
X0Y-2650617D02*
X-152400Y-2650617D01*
M02*
