G04 EAGLE Gerber RS-274X export*
G75*
%MOMM*%
%FSLAX34Y34*%
%LPD*%
%INSolderpaste Bottom*%
%IPPOS*%
%AMOC8*
5,1,8,0,0,1.08239X$1,22.5*%
G01*
%ADD10R,2.209800X0.762000*%
%ADD11R,0.812800X0.990600*%
%ADD12R,5.080000X6.350000*%


D10*
G36*
X-199046Y-560356D02*
X-221059Y-558430D01*
X-220394Y-550840D01*
X-198381Y-552766D01*
X-199046Y-560356D01*
G37*
G36*
X-200353Y-575299D02*
X-222366Y-573373D01*
X-221701Y-565783D01*
X-199688Y-567709D01*
X-200353Y-575299D01*
G37*
G36*
X-202968Y-605185D02*
X-224981Y-603259D01*
X-224316Y-595669D01*
X-202303Y-597595D01*
X-202968Y-605185D01*
G37*
D11*
G36*
X-251748Y-616118D02*
X-259844Y-615409D01*
X-258980Y-605542D01*
X-250884Y-606251D01*
X-251748Y-616118D01*
G37*
G36*
X-232522Y-617800D02*
X-240618Y-617091D01*
X-239754Y-607224D01*
X-231658Y-607933D01*
X-232522Y-617800D01*
G37*
G36*
X-245386Y-543396D02*
X-253482Y-542687D01*
X-252618Y-532820D01*
X-244522Y-533529D01*
X-245386Y-543396D01*
G37*
G36*
X-226160Y-545078D02*
X-234256Y-544369D01*
X-233392Y-534502D01*
X-225296Y-535211D01*
X-226160Y-545078D01*
G37*
D12*
X-152400Y-2099183D03*
X-152400Y-2650617D03*
X0Y-2650617D03*
X0Y-2099183D03*
X152400Y-2099183D03*
X152400Y-2650617D03*
M02*
