G04 EAGLE Gerber RS-274X export*
G75*
%MOMM*%
%FSLAX34Y34*%
%LPD*%
%INSolderpaste Top*%
%IPPOS*%
%AMOC8*
5,1,8,0,0,1.08239X$1,22.5*%
G01*
%ADD10R,1.000000X1.100000*%
%ADD11R,1.100000X1.000000*%
%ADD12R,1.075000X1.000000*%
%ADD13R,1.240000X1.500000*%
%ADD14R,1.200000X0.550000*%
%ADD15R,0.900000X0.900000*%
%ADD16R,1.200000X1.200000*%
%ADD17R,1.000000X1.075000*%
%ADD18R,0.900000X0.800000*%
%ADD19R,1.500000X1.240000*%
%ADD20R,1.200000X0.900000*%
%ADD21R,0.900000X1.200000*%
%ADD22R,1.778000X1.778000*%
%ADD23C,0.155000*%
%ADD24C,0.195000*%
%ADD25R,0.736600X3.251200*%
%ADD26R,0.700000X0.700000*%
%ADD27R,1.400000X1.400000*%
%ADD28R,0.600000X1.140000*%
%ADD29R,0.300000X1.140000*%


D10*
X270000Y-2091500D03*
X270000Y-2108500D03*
X-270000Y-2091500D03*
X-270000Y-2108500D03*
X250000Y-1891500D03*
X250000Y-1908500D03*
X-250000Y-1891500D03*
X-250000Y-1908500D03*
X230000Y-1691500D03*
X230000Y-1708500D03*
X-220000Y-1691500D03*
X-220000Y-1708500D03*
X210000Y-1491500D03*
X210000Y-1508500D03*
X-170000Y-1091500D03*
X-170000Y-1108500D03*
X-195000Y-1491500D03*
X-195000Y-1508500D03*
X190000Y-1291500D03*
X190000Y-1308500D03*
X-180000Y-1291500D03*
X-180000Y-1308500D03*
X170000Y-1091500D03*
X170000Y-1108500D03*
X150000Y-891500D03*
X150000Y-908500D03*
X-150000Y-891500D03*
X-150000Y-908500D03*
X140000Y-691500D03*
X140000Y-708500D03*
X-140000Y-691500D03*
X-140000Y-708500D03*
X-290000Y-2291500D03*
X-290000Y-2308500D03*
X290000Y-2291500D03*
X290000Y-2308500D03*
X-230000Y-2551500D03*
X-230000Y-2568500D03*
X230000Y-2551500D03*
X230000Y-2568500D03*
D11*
X-8500Y-2920000D03*
X8500Y-2920000D03*
D12*
X-173600Y-196850D03*
X-156600Y-196850D03*
D13*
X-104800Y-209550D03*
X-123800Y-209550D03*
D14*
X-152099Y-174600D03*
X-152099Y-165100D03*
X-152099Y-155600D03*
X-178101Y-155600D03*
X-178101Y-174600D03*
D15*
X-20500Y-376300D03*
X-20500Y-360300D03*
X20500Y-360300D03*
X20500Y-376300D03*
D16*
X-57150Y-237150D03*
X-57150Y-258150D03*
D17*
X-38100Y-239150D03*
X-38100Y-256150D03*
D18*
X204900Y-349250D03*
X225900Y-339750D03*
X225900Y-358750D03*
X233250Y-304800D03*
X212250Y-314300D03*
X212250Y-295300D03*
D17*
X-133350Y-156600D03*
X-133350Y-173600D03*
D19*
X-107950Y-47600D03*
X-107950Y-28600D03*
D20*
X-81380Y-27570D03*
X-81380Y-40270D03*
X-81380Y-52970D03*
X-81380Y-65670D03*
X-81380Y-78370D03*
X-81380Y-91070D03*
X-81380Y-103770D03*
X-81380Y-116470D03*
X-81380Y-129170D03*
X-81380Y-141870D03*
X-81380Y-154570D03*
X-81380Y-167270D03*
X-81380Y-179970D03*
X-81380Y-192670D03*
D21*
X-53380Y-206570D03*
X-40680Y-206570D03*
X-27980Y-206570D03*
X-15280Y-206570D03*
X-2580Y-206570D03*
X10120Y-206570D03*
X22820Y-206570D03*
X35520Y-206570D03*
X48220Y-206570D03*
X60920Y-206570D03*
D20*
X88620Y-192670D03*
X88620Y-179970D03*
X88620Y-167270D03*
X88620Y-154570D03*
X88620Y-141870D03*
X88620Y-129170D03*
X88620Y-116470D03*
X88620Y-103770D03*
X88620Y-91070D03*
X88620Y-78370D03*
X88620Y-65670D03*
X88620Y-52970D03*
X88620Y-40270D03*
X88620Y-27570D03*
D22*
X-7810Y-89000D03*
X22670Y-89000D03*
X22670Y-119480D03*
X-7810Y-119480D03*
D12*
X-99450Y-101600D03*
X-116450Y-101600D03*
X-116450Y-120650D03*
X-99450Y-120650D03*
D17*
X-44450Y-359800D03*
X-44450Y-376800D03*
D12*
X179950Y-330200D03*
X162950Y-330200D03*
X162950Y-361950D03*
X179950Y-361950D03*
X162950Y-381000D03*
X179950Y-381000D03*
D23*
X131025Y-308475D02*
X131025Y-296925D01*
X135675Y-296925D01*
X135675Y-308475D01*
X131025Y-308475D01*
X131025Y-307003D02*
X135675Y-307003D01*
X135675Y-305531D02*
X131025Y-305531D01*
X131025Y-304059D02*
X135675Y-304059D01*
X135675Y-302587D02*
X131025Y-302587D01*
X131025Y-301115D02*
X135675Y-301115D01*
X135675Y-299643D02*
X131025Y-299643D01*
X131025Y-298171D02*
X135675Y-298171D01*
X118325Y-296925D02*
X118325Y-308475D01*
X118325Y-296925D02*
X122975Y-296925D01*
X122975Y-308475D01*
X118325Y-308475D01*
X118325Y-307003D02*
X122975Y-307003D01*
X122975Y-305531D02*
X118325Y-305531D01*
X118325Y-304059D02*
X122975Y-304059D01*
X122975Y-302587D02*
X118325Y-302587D01*
X118325Y-301115D02*
X122975Y-301115D01*
X122975Y-299643D02*
X118325Y-299643D01*
X118325Y-298171D02*
X122975Y-298171D01*
X105625Y-296925D02*
X105625Y-308475D01*
X105625Y-296925D02*
X110275Y-296925D01*
X110275Y-308475D01*
X105625Y-308475D01*
X105625Y-307003D02*
X110275Y-307003D01*
X110275Y-305531D02*
X105625Y-305531D01*
X105625Y-304059D02*
X110275Y-304059D01*
X110275Y-302587D02*
X105625Y-302587D01*
X105625Y-301115D02*
X110275Y-301115D01*
X110275Y-299643D02*
X105625Y-299643D01*
X105625Y-298171D02*
X110275Y-298171D01*
X92925Y-296925D02*
X92925Y-308475D01*
X92925Y-296925D02*
X97575Y-296925D01*
X97575Y-308475D01*
X92925Y-308475D01*
X92925Y-307003D02*
X97575Y-307003D01*
X97575Y-305531D02*
X92925Y-305531D01*
X92925Y-304059D02*
X97575Y-304059D01*
X97575Y-302587D02*
X92925Y-302587D01*
X92925Y-301115D02*
X97575Y-301115D01*
X97575Y-299643D02*
X92925Y-299643D01*
X92925Y-298171D02*
X97575Y-298171D01*
X80225Y-296925D02*
X80225Y-308475D01*
X80225Y-296925D02*
X84875Y-296925D01*
X84875Y-308475D01*
X80225Y-308475D01*
X80225Y-307003D02*
X84875Y-307003D01*
X84875Y-305531D02*
X80225Y-305531D01*
X80225Y-304059D02*
X84875Y-304059D01*
X84875Y-302587D02*
X80225Y-302587D01*
X80225Y-301115D02*
X84875Y-301115D01*
X84875Y-299643D02*
X80225Y-299643D01*
X80225Y-298171D02*
X84875Y-298171D01*
X67525Y-296925D02*
X67525Y-308475D01*
X67525Y-296925D02*
X72175Y-296925D01*
X72175Y-308475D01*
X67525Y-308475D01*
X67525Y-307003D02*
X72175Y-307003D01*
X72175Y-305531D02*
X67525Y-305531D01*
X67525Y-304059D02*
X72175Y-304059D01*
X72175Y-302587D02*
X67525Y-302587D01*
X67525Y-301115D02*
X72175Y-301115D01*
X72175Y-299643D02*
X67525Y-299643D01*
X67525Y-298171D02*
X72175Y-298171D01*
X54825Y-296925D02*
X54825Y-308475D01*
X54825Y-296925D02*
X59475Y-296925D01*
X59475Y-308475D01*
X54825Y-308475D01*
X54825Y-307003D02*
X59475Y-307003D01*
X59475Y-305531D02*
X54825Y-305531D01*
X54825Y-304059D02*
X59475Y-304059D01*
X59475Y-302587D02*
X54825Y-302587D01*
X54825Y-301115D02*
X59475Y-301115D01*
X59475Y-299643D02*
X54825Y-299643D01*
X54825Y-298171D02*
X59475Y-298171D01*
X42125Y-296925D02*
X42125Y-308475D01*
X42125Y-296925D02*
X46775Y-296925D01*
X46775Y-308475D01*
X42125Y-308475D01*
X42125Y-307003D02*
X46775Y-307003D01*
X46775Y-305531D02*
X42125Y-305531D01*
X42125Y-304059D02*
X46775Y-304059D01*
X46775Y-302587D02*
X42125Y-302587D01*
X42125Y-301115D02*
X46775Y-301115D01*
X46775Y-299643D02*
X42125Y-299643D01*
X42125Y-298171D02*
X46775Y-298171D01*
X42125Y-351925D02*
X42125Y-363475D01*
X42125Y-351925D02*
X46775Y-351925D01*
X46775Y-363475D01*
X42125Y-363475D01*
X42125Y-362003D02*
X46775Y-362003D01*
X46775Y-360531D02*
X42125Y-360531D01*
X42125Y-359059D02*
X46775Y-359059D01*
X46775Y-357587D02*
X42125Y-357587D01*
X42125Y-356115D02*
X46775Y-356115D01*
X46775Y-354643D02*
X42125Y-354643D01*
X42125Y-353171D02*
X46775Y-353171D01*
X54825Y-351925D02*
X54825Y-363475D01*
X54825Y-351925D02*
X59475Y-351925D01*
X59475Y-363475D01*
X54825Y-363475D01*
X54825Y-362003D02*
X59475Y-362003D01*
X59475Y-360531D02*
X54825Y-360531D01*
X54825Y-359059D02*
X59475Y-359059D01*
X59475Y-357587D02*
X54825Y-357587D01*
X54825Y-356115D02*
X59475Y-356115D01*
X59475Y-354643D02*
X54825Y-354643D01*
X54825Y-353171D02*
X59475Y-353171D01*
X67525Y-351925D02*
X67525Y-363475D01*
X67525Y-351925D02*
X72175Y-351925D01*
X72175Y-363475D01*
X67525Y-363475D01*
X67525Y-362003D02*
X72175Y-362003D01*
X72175Y-360531D02*
X67525Y-360531D01*
X67525Y-359059D02*
X72175Y-359059D01*
X72175Y-357587D02*
X67525Y-357587D01*
X67525Y-356115D02*
X72175Y-356115D01*
X72175Y-354643D02*
X67525Y-354643D01*
X67525Y-353171D02*
X72175Y-353171D01*
X80225Y-351925D02*
X80225Y-363475D01*
X80225Y-351925D02*
X84875Y-351925D01*
X84875Y-363475D01*
X80225Y-363475D01*
X80225Y-362003D02*
X84875Y-362003D01*
X84875Y-360531D02*
X80225Y-360531D01*
X80225Y-359059D02*
X84875Y-359059D01*
X84875Y-357587D02*
X80225Y-357587D01*
X80225Y-356115D02*
X84875Y-356115D01*
X84875Y-354643D02*
X80225Y-354643D01*
X80225Y-353171D02*
X84875Y-353171D01*
X92925Y-351925D02*
X92925Y-363475D01*
X92925Y-351925D02*
X97575Y-351925D01*
X97575Y-363475D01*
X92925Y-363475D01*
X92925Y-362003D02*
X97575Y-362003D01*
X97575Y-360531D02*
X92925Y-360531D01*
X92925Y-359059D02*
X97575Y-359059D01*
X97575Y-357587D02*
X92925Y-357587D01*
X92925Y-356115D02*
X97575Y-356115D01*
X97575Y-354643D02*
X92925Y-354643D01*
X92925Y-353171D02*
X97575Y-353171D01*
X105625Y-351925D02*
X105625Y-363475D01*
X105625Y-351925D02*
X110275Y-351925D01*
X110275Y-363475D01*
X105625Y-363475D01*
X105625Y-362003D02*
X110275Y-362003D01*
X110275Y-360531D02*
X105625Y-360531D01*
X105625Y-359059D02*
X110275Y-359059D01*
X110275Y-357587D02*
X105625Y-357587D01*
X105625Y-356115D02*
X110275Y-356115D01*
X110275Y-354643D02*
X105625Y-354643D01*
X105625Y-353171D02*
X110275Y-353171D01*
X118325Y-351925D02*
X118325Y-363475D01*
X118325Y-351925D02*
X122975Y-351925D01*
X122975Y-363475D01*
X118325Y-363475D01*
X118325Y-362003D02*
X122975Y-362003D01*
X122975Y-360531D02*
X118325Y-360531D01*
X118325Y-359059D02*
X122975Y-359059D01*
X122975Y-357587D02*
X118325Y-357587D01*
X118325Y-356115D02*
X122975Y-356115D01*
X122975Y-354643D02*
X118325Y-354643D01*
X118325Y-353171D02*
X122975Y-353171D01*
X131025Y-351925D02*
X131025Y-363475D01*
X131025Y-351925D02*
X135675Y-351925D01*
X135675Y-363475D01*
X131025Y-363475D01*
X131025Y-362003D02*
X135675Y-362003D01*
X135675Y-360531D02*
X131025Y-360531D01*
X131025Y-359059D02*
X135675Y-359059D01*
X135675Y-357587D02*
X131025Y-357587D01*
X131025Y-356115D02*
X135675Y-356115D01*
X135675Y-354643D02*
X131025Y-354643D01*
X131025Y-353171D02*
X135675Y-353171D01*
D12*
X118500Y-88900D03*
X135500Y-88900D03*
X118500Y-69850D03*
X135500Y-69850D03*
D24*
X176475Y-310325D02*
X185125Y-310325D01*
X185125Y-312275D01*
X176475Y-312275D01*
X176475Y-310325D01*
X176475Y-310423D02*
X185125Y-310423D01*
X185125Y-303825D02*
X176475Y-303825D01*
X185125Y-303825D02*
X185125Y-305775D01*
X176475Y-305775D01*
X176475Y-303825D01*
X176475Y-303923D02*
X185125Y-303923D01*
X185125Y-297325D02*
X176475Y-297325D01*
X185125Y-297325D02*
X185125Y-299275D01*
X176475Y-299275D01*
X176475Y-297325D01*
X176475Y-297423D02*
X185125Y-297423D01*
X166425Y-297325D02*
X157775Y-297325D01*
X166425Y-297325D02*
X166425Y-299275D01*
X157775Y-299275D01*
X157775Y-297325D01*
X157775Y-297423D02*
X166425Y-297423D01*
X166425Y-303825D02*
X157775Y-303825D01*
X166425Y-303825D02*
X166425Y-305775D01*
X157775Y-305775D01*
X157775Y-303825D01*
X157775Y-303923D02*
X166425Y-303923D01*
X166425Y-310325D02*
X157775Y-310325D01*
X166425Y-310325D02*
X166425Y-312275D01*
X157775Y-312275D01*
X157775Y-310325D01*
X157775Y-310423D02*
X166425Y-310423D01*
D25*
G36*
X-40299Y-599667D02*
X-33920Y-595984D01*
X-17665Y-624139D01*
X-24044Y-627822D01*
X-40299Y-599667D01*
G37*
G36*
X-13629Y-645861D02*
X-7250Y-642178D01*
X9005Y-670333D01*
X2626Y-674016D01*
X-13629Y-645861D01*
G37*
G36*
X-18302Y-586967D02*
X-11923Y-583284D01*
X4332Y-611439D01*
X-2047Y-615122D01*
X-18302Y-586967D01*
G37*
G36*
X8368Y-633161D02*
X14747Y-629478D01*
X31002Y-657633D01*
X24623Y-661316D01*
X8368Y-633161D01*
G37*
G36*
X3695Y-574267D02*
X10074Y-570584D01*
X26329Y-598739D01*
X19950Y-602422D01*
X3695Y-574267D01*
G37*
G36*
X30365Y-620461D02*
X36744Y-616778D01*
X52999Y-644933D01*
X46620Y-648616D01*
X30365Y-620461D01*
G37*
D16*
X-143850Y-368300D03*
X-122850Y-368300D03*
D12*
X-162950Y-381000D03*
X-179950Y-381000D03*
D16*
X-169250Y-50800D03*
X-148250Y-50800D03*
D12*
X-167250Y-31750D03*
X-150250Y-31750D03*
D26*
X-189150Y-694500D03*
X-189150Y-705500D03*
X-170850Y-705500D03*
X-170850Y-694500D03*
X170850Y-694500D03*
X170850Y-705500D03*
X189150Y-705500D03*
X189150Y-694500D03*
X190850Y-894500D03*
X190850Y-905500D03*
X209150Y-905500D03*
X209150Y-894500D03*
X-229150Y-1094500D03*
X-229150Y-1105500D03*
X-210850Y-1105500D03*
X-210850Y-1094500D03*
X210850Y-1094500D03*
X210850Y-1105500D03*
X229150Y-1105500D03*
X229150Y-1094500D03*
X-249150Y-1294500D03*
X-249150Y-1305500D03*
X-230850Y-1305500D03*
X-230850Y-1294500D03*
X230850Y-1294500D03*
X230850Y-1305500D03*
X249150Y-1305500D03*
X249150Y-1294500D03*
X-269150Y-1494500D03*
X-269150Y-1505500D03*
X-250850Y-1505500D03*
X-250850Y-1494500D03*
X250850Y-1494500D03*
X250850Y-1505500D03*
X269150Y-1505500D03*
X269150Y-1494500D03*
X-289150Y-1694500D03*
X-289150Y-1705500D03*
X-270850Y-1705500D03*
X-270850Y-1694500D03*
X270850Y-1694500D03*
X270850Y-1705500D03*
X289150Y-1705500D03*
X289150Y-1694500D03*
X-309150Y-1894500D03*
X-309150Y-1905500D03*
X-290850Y-1905500D03*
X-290850Y-1894500D03*
X290850Y-1894500D03*
X290850Y-1905500D03*
X309150Y-1905500D03*
X309150Y-1894500D03*
X-329150Y-2094500D03*
X-329150Y-2105500D03*
X-310850Y-2105500D03*
X-310850Y-2094500D03*
X310850Y-2094500D03*
X310850Y-2105500D03*
X329150Y-2105500D03*
X329150Y-2094500D03*
X-349150Y-2294500D03*
X-349150Y-2305500D03*
X-330850Y-2305500D03*
X-330850Y-2294500D03*
X-209150Y-894500D03*
X-209150Y-905500D03*
X-190850Y-905500D03*
X-190850Y-894500D03*
X330850Y-2294500D03*
X330850Y-2305500D03*
X349150Y-2305500D03*
X349150Y-2294500D03*
X-289150Y-2554500D03*
X-289150Y-2565500D03*
X-270850Y-2565500D03*
X-270850Y-2554500D03*
X270850Y-2554500D03*
X270850Y-2565500D03*
X289150Y-2565500D03*
X289150Y-2554500D03*
X-9150Y-2864500D03*
X-9150Y-2875500D03*
X9150Y-2875500D03*
X9150Y-2864500D03*
D27*
X-139700Y-235500D03*
X-139700Y-272500D03*
X-165100Y-235500D03*
X-165100Y-272500D03*
D28*
G36*
X-201406Y-285598D02*
X-202858Y-279778D01*
X-191798Y-277020D01*
X-190346Y-282840D01*
X-201406Y-285598D01*
G37*
G36*
X-199471Y-293361D02*
X-200923Y-287541D01*
X-189863Y-284783D01*
X-188411Y-290603D01*
X-199471Y-293361D01*
G37*
D29*
G36*
X-194633Y-312767D02*
X-195359Y-309857D01*
X-184299Y-307099D01*
X-183573Y-310009D01*
X-194633Y-312767D01*
G37*
G36*
X-195842Y-307915D02*
X-196568Y-305005D01*
X-185508Y-302247D01*
X-184782Y-305157D01*
X-195842Y-307915D01*
G37*
G36*
X-197052Y-303064D02*
X-197778Y-300154D01*
X-186718Y-297396D01*
X-185992Y-300306D01*
X-197052Y-303064D01*
G37*
G36*
X-198262Y-298213D02*
X-198988Y-295303D01*
X-187928Y-292545D01*
X-187202Y-295455D01*
X-198262Y-298213D01*
G37*
G36*
X-193423Y-317618D02*
X-194149Y-314708D01*
X-183089Y-311950D01*
X-182363Y-314860D01*
X-193423Y-317618D01*
G37*
G36*
X-192214Y-322470D02*
X-192940Y-319560D01*
X-181880Y-316802D01*
X-181154Y-319712D01*
X-192214Y-322470D01*
G37*
G36*
X-191004Y-327321D02*
X-191730Y-324411D01*
X-180670Y-321653D01*
X-179944Y-324563D01*
X-191004Y-327321D01*
G37*
G36*
X-189794Y-332173D02*
X-190520Y-329263D01*
X-179460Y-326505D01*
X-178734Y-329415D01*
X-189794Y-332173D01*
G37*
D28*
G36*
X-187859Y-339935D02*
X-189311Y-334115D01*
X-178251Y-331357D01*
X-176799Y-337177D01*
X-187859Y-339935D01*
G37*
G36*
X-185923Y-347697D02*
X-187375Y-341877D01*
X-176315Y-339119D01*
X-174863Y-344939D01*
X-185923Y-347697D01*
G37*
D12*
X-141850Y-349250D03*
X-124850Y-349250D03*
X-141850Y-330200D03*
X-124850Y-330200D03*
D17*
X-114300Y-173600D03*
X-114300Y-156600D03*
D10*
X88900Y-275200D03*
X88900Y-258200D03*
M02*
