M48
;GenerationSoftware,Autodesk,EAGLE,9.6.2*%
;CreationDate,2022-01-27T21:37:33Z*%
FMAT,2
ICI,OFF
METRIC,TZ,000.000
T5C0.250
T4C0.350
T3C0.400
T2C0.900
T1C2.000
%
G90
M71
T1
X-26340Y-244641
T2
X-24126Y-56038
X-24388Y-59024
T3
X-15240Y-27305
X-12700Y-41910
X-12700Y-18415
X-19050Y-60325
T4
X18000Y-54000
X-14000Y-71000
X20000Y-73492
X-15500Y-90000
X22000Y-93492
X-17500Y-110000
X24000Y-114000
X-20000Y-130000
X26000Y-134000
X-21500Y-150000
X-10000Y-72000
X-11000Y-91000
X-13000Y-111000
X-15000Y-131000
X-21000Y-191000
X-23000Y-211000
X-24000Y-231000
X-17000Y-256540
X1000Y-262000
X-17000Y-151000
X-35000Y-234000
X-22130Y-258810
X-34000Y-214000
X-32000Y-194000
X-30000Y-174000
X-28000Y-154000
X-26000Y-134000
X-24035Y-113395
X-22130Y-93075
X-20225Y-74025
X-18320Y-53070
X19000Y-256540
X2000Y-291000
X2000Y-274000
X20000Y-171000
X17000Y-151000
X22000Y-191000
X7000Y-51000
X-8000Y-51000
X26000Y-231000
X24000Y-211000
X16000Y-131000
X14000Y-111000
X10000Y-71000
X-20320Y-34290
X-13970Y-20955
X2286Y-56896
X12700Y-15240
X5080Y-61976
X-15240Y-31115
X6985Y-32385
X-19000Y-171000
X-16510Y-13970
X-26035Y-27940
X-19685Y-36195
X-6350Y-46990
X-28500Y-228000
X-28000Y-208000
X-25500Y-188000
X28000Y-154000
X-24000Y-170000
X30000Y-174000
X-25500Y-190000
X32000Y-194000
X-28000Y-210000
X34000Y-214000
X-28500Y-230000
X37000Y-234000
X-23000Y-255540
X31000Y-257540
X0Y-266000
X-7620Y-29210
X-17780Y-10160
X22225Y-38608
X-5715Y-52070
X-3810Y-58420
X-7620Y-34290
X8255Y-33020
X-7620Y-33020
X12000Y-91000
X12700Y-16510
T5
X5715Y-27305
X13335Y-27305
X19685Y-30480
X3810Y-38100
X-8255Y-31750
X0Y-36030
X15240Y-34290
X-9525Y-5715
X-8890Y-35560
X22860Y-28575
X10795Y-19050
X2540Y-8890
X-1270Y-8890
X635Y-12065
X-1270Y-12065
X14605Y-36830
X22860Y-33020
X10160Y-38100
X19685Y-32385
X-10795Y-13970
X-10160Y-47625
X15875Y-28575
X-13335Y-12065
X10795Y-3175
X635Y-8890
X-13335Y-3175
X-7620Y-24130
X-18415Y-27940
X2540Y-12065
M30