G04 EAGLE Gerber RS-274X export*
G75*
%MOMM*%
%FSLAX34Y34*%
%LPD*%
%INSolderpaste Top*%
%IPPOS*%
%AMOC8*
5,1,8,0,0,1.08239X$1,22.5*%
G01*
%ADD10R,1.000000X1.100000*%
%ADD11R,2.000000X1.100000*%
%ADD12R,1.100000X2.000000*%
%ADD13R,1.100000X1.000000*%
%ADD14R,1.500000X1.240000*%
%ADD15R,1.075000X1.000000*%
%ADD16R,1.240000X1.500000*%
%ADD17R,1.200000X0.550000*%
%ADD18R,1.400000X1.400000*%
%ADD19R,1.200000X1.200000*%
%ADD20R,1.000000X1.075000*%
%ADD21R,0.900000X0.900000*%
%ADD22R,0.900000X0.800000*%
%ADD23R,1.200000X0.900000*%
%ADD24R,0.900000X1.200000*%
%ADD25R,1.778000X1.778000*%
%ADD26R,0.635000X1.016000*%
%ADD27R,0.400000X1.350000*%
%ADD28R,2.100000X1.600000*%
%ADD29R,1.900000X1.900000*%
%ADD30R,1.800000X1.900000*%
%ADD31C,0.155000*%
%ADD32C,0.195000*%
%ADD33R,0.736600X3.251200*%
%ADD34R,0.355600X1.168400*%


D10*
X260000Y-2091500D03*
X260000Y-2108500D03*
X-260000Y-2091500D03*
X-260000Y-2108500D03*
X240000Y-1891500D03*
X240000Y-1908500D03*
X-235000Y-1891500D03*
X-235000Y-1908500D03*
X220000Y-1691500D03*
X220000Y-1708500D03*
X-220000Y-1691500D03*
X-220000Y-1708500D03*
X200000Y-1491500D03*
X200000Y-1508500D03*
X-155000Y-1091500D03*
X-155000Y-1108500D03*
X-195000Y-1491500D03*
X-195000Y-1508500D03*
X180000Y-1291500D03*
X180000Y-1308500D03*
X-180000Y-1291500D03*
X-180000Y-1308500D03*
X160000Y-1091500D03*
X160000Y-1108500D03*
X140000Y-891500D03*
X140000Y-908500D03*
X-135000Y-891500D03*
X-135000Y-908500D03*
X120000Y-691500D03*
X120000Y-708500D03*
X-120000Y-701500D03*
X-120000Y-718500D03*
X100000Y-491500D03*
X100000Y-508500D03*
X-100000Y-491500D03*
X-100000Y-508500D03*
D11*
X-180000Y-483000D03*
X-180000Y-500000D03*
X-180000Y-517000D03*
X-140000Y-517000D03*
X-140000Y-500000D03*
X-140000Y-483000D03*
X220000Y-1283000D03*
X220000Y-1300000D03*
X220000Y-1317000D03*
X260000Y-1317000D03*
X260000Y-1300000D03*
X260000Y-1283000D03*
X-280000Y-1483000D03*
X-280000Y-1500000D03*
X-280000Y-1517000D03*
X-240000Y-1517000D03*
X-240000Y-1500000D03*
X-240000Y-1483000D03*
X240000Y-1483000D03*
X240000Y-1500000D03*
X240000Y-1517000D03*
X280000Y-1517000D03*
X280000Y-1500000D03*
X280000Y-1483000D03*
X-300000Y-1683000D03*
X-300000Y-1700000D03*
X-300000Y-1717000D03*
X-260000Y-1717000D03*
X-260000Y-1700000D03*
X-260000Y-1683000D03*
X260000Y-1683000D03*
X260000Y-1700000D03*
X260000Y-1717000D03*
X300000Y-1717000D03*
X300000Y-1700000D03*
X300000Y-1683000D03*
X-320000Y-1883000D03*
X-320000Y-1900000D03*
X-320000Y-1917000D03*
X-280000Y-1917000D03*
X-280000Y-1900000D03*
X-280000Y-1883000D03*
X280000Y-1883000D03*
X280000Y-1900000D03*
X280000Y-1917000D03*
X320000Y-1917000D03*
X320000Y-1900000D03*
X320000Y-1883000D03*
X-340000Y-2083000D03*
X-340000Y-2100000D03*
X-340000Y-2117000D03*
X-300000Y-2117000D03*
X-300000Y-2100000D03*
X-300000Y-2083000D03*
X300000Y-2083000D03*
X300000Y-2100000D03*
X300000Y-2117000D03*
X340000Y-2117000D03*
X340000Y-2100000D03*
X340000Y-2083000D03*
X-350000Y-2283000D03*
X-350000Y-2300000D03*
X-350000Y-2317000D03*
X-310000Y-2317000D03*
X-310000Y-2300000D03*
X-310000Y-2283000D03*
X140000Y-483000D03*
X140000Y-500000D03*
X140000Y-517000D03*
X180000Y-517000D03*
X180000Y-500000D03*
X180000Y-483000D03*
X320000Y-2283000D03*
X320000Y-2300000D03*
X320000Y-2317000D03*
X360000Y-2317000D03*
X360000Y-2300000D03*
X360000Y-2283000D03*
X-290000Y-2538400D03*
X-290000Y-2555400D03*
X-290000Y-2572400D03*
X-250000Y-2572400D03*
X-250000Y-2555400D03*
X-250000Y-2538400D03*
X250000Y-2538400D03*
X250000Y-2555400D03*
X250000Y-2572400D03*
X290000Y-2572400D03*
X290000Y-2555400D03*
X290000Y-2538400D03*
D12*
X-17000Y-2720000D03*
X0Y-2720000D03*
X17000Y-2720000D03*
X17000Y-2680000D03*
X0Y-2680000D03*
X-17000Y-2680000D03*
X-17000Y-2877700D03*
X0Y-2877700D03*
X17000Y-2877700D03*
X17000Y-2837700D03*
X0Y-2837700D03*
X-17000Y-2837700D03*
D11*
X-200000Y-693000D03*
X-200000Y-710000D03*
X-200000Y-727000D03*
X-160000Y-727000D03*
X-160000Y-710000D03*
X-160000Y-693000D03*
X160000Y-683000D03*
X160000Y-700000D03*
X160000Y-717000D03*
X200000Y-717000D03*
X200000Y-700000D03*
X200000Y-683000D03*
X-220000Y-883000D03*
X-220000Y-900000D03*
X-220000Y-917000D03*
X-180000Y-917000D03*
X-180000Y-900000D03*
X-180000Y-883000D03*
X180000Y-883000D03*
X180000Y-900000D03*
X180000Y-917000D03*
X220000Y-917000D03*
X220000Y-900000D03*
X220000Y-883000D03*
X-240000Y-1083000D03*
X-240000Y-1100000D03*
X-240000Y-1117000D03*
X-200000Y-1117000D03*
X-200000Y-1100000D03*
X-200000Y-1083000D03*
X200000Y-1083000D03*
X200000Y-1100000D03*
X200000Y-1117000D03*
X240000Y-1117000D03*
X240000Y-1100000D03*
X240000Y-1083000D03*
X-260000Y-1283000D03*
X-260000Y-1300000D03*
X-260000Y-1317000D03*
X-220000Y-1317000D03*
X-220000Y-1300000D03*
X-220000Y-1283000D03*
D10*
X-265000Y-2291500D03*
X-265000Y-2308500D03*
X280000Y-2291500D03*
X280000Y-2308500D03*
X-210000Y-2546900D03*
X-210000Y-2563900D03*
X220000Y-2546900D03*
X220000Y-2563900D03*
D13*
X-8500Y-2640000D03*
X8500Y-2640000D03*
X-8500Y-2917700D03*
X8500Y-2917700D03*
D14*
X-114300Y-174600D03*
X-114300Y-155600D03*
D15*
X-173600Y-196850D03*
X-156600Y-196850D03*
D16*
X-104800Y-209550D03*
X-123800Y-209550D03*
D17*
X-152099Y-174600D03*
X-152099Y-165100D03*
X-152099Y-155600D03*
X-178101Y-155600D03*
X-178101Y-174600D03*
D18*
X-132800Y-292100D03*
X-95800Y-292100D03*
D17*
X-152099Y-257150D03*
X-152099Y-247650D03*
X-152099Y-238150D03*
X-178101Y-238150D03*
X-178101Y-257150D03*
D19*
X-107950Y-237150D03*
X-107950Y-258150D03*
D20*
X-127000Y-239150D03*
X-127000Y-256150D03*
D16*
X-174600Y-215900D03*
X-155600Y-215900D03*
D21*
X-20500Y-376300D03*
X-20500Y-360300D03*
X20500Y-360300D03*
X20500Y-376300D03*
D19*
X-57150Y-237150D03*
X-57150Y-258150D03*
D20*
X-38100Y-239150D03*
X-38100Y-256150D03*
D16*
X92050Y-273050D03*
X73050Y-273050D03*
D22*
X204900Y-349250D03*
X225900Y-339750D03*
X225900Y-358750D03*
X233250Y-304800D03*
X212250Y-314300D03*
X212250Y-295300D03*
D20*
X-133350Y-156600D03*
X-133350Y-173600D03*
D14*
X-107950Y-47600D03*
X-107950Y-28600D03*
D23*
X-81380Y-27570D03*
X-81380Y-40270D03*
X-81380Y-52970D03*
X-81380Y-65670D03*
X-81380Y-78370D03*
X-81380Y-91070D03*
X-81380Y-103770D03*
X-81380Y-116470D03*
X-81380Y-129170D03*
X-81380Y-141870D03*
X-81380Y-154570D03*
X-81380Y-167270D03*
X-81380Y-179970D03*
X-81380Y-192670D03*
D24*
X-53380Y-206570D03*
X-40680Y-206570D03*
X-27980Y-206570D03*
X-15280Y-206570D03*
X-2580Y-206570D03*
X10120Y-206570D03*
X22820Y-206570D03*
X35520Y-206570D03*
X48220Y-206570D03*
X60920Y-206570D03*
D23*
X88620Y-192670D03*
X88620Y-179970D03*
X88620Y-167270D03*
X88620Y-154570D03*
X88620Y-141870D03*
X88620Y-129170D03*
X88620Y-116470D03*
X88620Y-103770D03*
X88620Y-91070D03*
X88620Y-78370D03*
X88620Y-65670D03*
X88620Y-52970D03*
X88620Y-40270D03*
X88620Y-27570D03*
D25*
X-7810Y-89000D03*
X22670Y-89000D03*
X22670Y-119480D03*
X-7810Y-119480D03*
D26*
X-165100Y-282100D03*
X-155600Y-302100D03*
X-174600Y-302100D03*
D15*
X-99450Y-317500D03*
X-116450Y-317500D03*
X-99450Y-101600D03*
X-116450Y-101600D03*
X-116450Y-120650D03*
X-99450Y-120650D03*
D20*
X-44450Y-359800D03*
X-44450Y-376800D03*
X-196850Y-287900D03*
X-196850Y-270900D03*
D27*
G36*
X-229585Y-336313D02*
X-230553Y-332433D01*
X-217455Y-329167D01*
X-216487Y-333047D01*
X-229585Y-336313D01*
G37*
G36*
X-231157Y-330006D02*
X-232125Y-326126D01*
X-219027Y-322860D01*
X-218059Y-326740D01*
X-231157Y-330006D01*
G37*
G36*
X-228013Y-342620D02*
X-228981Y-338740D01*
X-215883Y-335474D01*
X-214915Y-339354D01*
X-228013Y-342620D01*
G37*
G36*
X-232730Y-323699D02*
X-233698Y-319819D01*
X-220600Y-316553D01*
X-219632Y-320433D01*
X-232730Y-323699D01*
G37*
G36*
X-226440Y-348927D02*
X-227408Y-345047D01*
X-214310Y-341781D01*
X-213342Y-345661D01*
X-226440Y-348927D01*
G37*
D28*
G36*
X-237454Y-315086D02*
X-242534Y-294711D01*
X-227010Y-290840D01*
X-221930Y-311215D01*
X-237454Y-315086D01*
G37*
G36*
X-222455Y-375245D02*
X-227535Y-354870D01*
X-212011Y-350999D01*
X-206931Y-371374D01*
X-222455Y-375245D01*
G37*
D29*
G36*
X-259297Y-339084D02*
X-263894Y-320649D01*
X-245459Y-316052D01*
X-240862Y-334487D01*
X-259297Y-339084D01*
G37*
G36*
X-253491Y-362371D02*
X-258088Y-343936D01*
X-239653Y-339339D01*
X-235056Y-357774D01*
X-253491Y-362371D01*
G37*
D30*
G36*
X-265708Y-313370D02*
X-270063Y-295906D01*
X-251628Y-291310D01*
X-247273Y-308774D01*
X-265708Y-313370D01*
G37*
G36*
X-247322Y-387113D02*
X-251677Y-369649D01*
X-233242Y-365053D01*
X-228887Y-382517D01*
X-247322Y-387113D01*
G37*
D15*
X179950Y-330200D03*
X162950Y-330200D03*
X162950Y-361950D03*
X179950Y-361950D03*
X162950Y-381000D03*
X179950Y-381000D03*
D31*
X131025Y-308475D02*
X131025Y-296925D01*
X135675Y-296925D01*
X135675Y-308475D01*
X131025Y-308475D01*
X131025Y-307003D02*
X135675Y-307003D01*
X135675Y-305531D02*
X131025Y-305531D01*
X131025Y-304059D02*
X135675Y-304059D01*
X135675Y-302587D02*
X131025Y-302587D01*
X131025Y-301115D02*
X135675Y-301115D01*
X135675Y-299643D02*
X131025Y-299643D01*
X131025Y-298171D02*
X135675Y-298171D01*
X118325Y-296925D02*
X118325Y-308475D01*
X118325Y-296925D02*
X122975Y-296925D01*
X122975Y-308475D01*
X118325Y-308475D01*
X118325Y-307003D02*
X122975Y-307003D01*
X122975Y-305531D02*
X118325Y-305531D01*
X118325Y-304059D02*
X122975Y-304059D01*
X122975Y-302587D02*
X118325Y-302587D01*
X118325Y-301115D02*
X122975Y-301115D01*
X122975Y-299643D02*
X118325Y-299643D01*
X118325Y-298171D02*
X122975Y-298171D01*
X105625Y-296925D02*
X105625Y-308475D01*
X105625Y-296925D02*
X110275Y-296925D01*
X110275Y-308475D01*
X105625Y-308475D01*
X105625Y-307003D02*
X110275Y-307003D01*
X110275Y-305531D02*
X105625Y-305531D01*
X105625Y-304059D02*
X110275Y-304059D01*
X110275Y-302587D02*
X105625Y-302587D01*
X105625Y-301115D02*
X110275Y-301115D01*
X110275Y-299643D02*
X105625Y-299643D01*
X105625Y-298171D02*
X110275Y-298171D01*
X92925Y-296925D02*
X92925Y-308475D01*
X92925Y-296925D02*
X97575Y-296925D01*
X97575Y-308475D01*
X92925Y-308475D01*
X92925Y-307003D02*
X97575Y-307003D01*
X97575Y-305531D02*
X92925Y-305531D01*
X92925Y-304059D02*
X97575Y-304059D01*
X97575Y-302587D02*
X92925Y-302587D01*
X92925Y-301115D02*
X97575Y-301115D01*
X97575Y-299643D02*
X92925Y-299643D01*
X92925Y-298171D02*
X97575Y-298171D01*
X80225Y-296925D02*
X80225Y-308475D01*
X80225Y-296925D02*
X84875Y-296925D01*
X84875Y-308475D01*
X80225Y-308475D01*
X80225Y-307003D02*
X84875Y-307003D01*
X84875Y-305531D02*
X80225Y-305531D01*
X80225Y-304059D02*
X84875Y-304059D01*
X84875Y-302587D02*
X80225Y-302587D01*
X80225Y-301115D02*
X84875Y-301115D01*
X84875Y-299643D02*
X80225Y-299643D01*
X80225Y-298171D02*
X84875Y-298171D01*
X67525Y-296925D02*
X67525Y-308475D01*
X67525Y-296925D02*
X72175Y-296925D01*
X72175Y-308475D01*
X67525Y-308475D01*
X67525Y-307003D02*
X72175Y-307003D01*
X72175Y-305531D02*
X67525Y-305531D01*
X67525Y-304059D02*
X72175Y-304059D01*
X72175Y-302587D02*
X67525Y-302587D01*
X67525Y-301115D02*
X72175Y-301115D01*
X72175Y-299643D02*
X67525Y-299643D01*
X67525Y-298171D02*
X72175Y-298171D01*
X54825Y-296925D02*
X54825Y-308475D01*
X54825Y-296925D02*
X59475Y-296925D01*
X59475Y-308475D01*
X54825Y-308475D01*
X54825Y-307003D02*
X59475Y-307003D01*
X59475Y-305531D02*
X54825Y-305531D01*
X54825Y-304059D02*
X59475Y-304059D01*
X59475Y-302587D02*
X54825Y-302587D01*
X54825Y-301115D02*
X59475Y-301115D01*
X59475Y-299643D02*
X54825Y-299643D01*
X54825Y-298171D02*
X59475Y-298171D01*
X42125Y-296925D02*
X42125Y-308475D01*
X42125Y-296925D02*
X46775Y-296925D01*
X46775Y-308475D01*
X42125Y-308475D01*
X42125Y-307003D02*
X46775Y-307003D01*
X46775Y-305531D02*
X42125Y-305531D01*
X42125Y-304059D02*
X46775Y-304059D01*
X46775Y-302587D02*
X42125Y-302587D01*
X42125Y-301115D02*
X46775Y-301115D01*
X46775Y-299643D02*
X42125Y-299643D01*
X42125Y-298171D02*
X46775Y-298171D01*
X42125Y-351925D02*
X42125Y-363475D01*
X42125Y-351925D02*
X46775Y-351925D01*
X46775Y-363475D01*
X42125Y-363475D01*
X42125Y-362003D02*
X46775Y-362003D01*
X46775Y-360531D02*
X42125Y-360531D01*
X42125Y-359059D02*
X46775Y-359059D01*
X46775Y-357587D02*
X42125Y-357587D01*
X42125Y-356115D02*
X46775Y-356115D01*
X46775Y-354643D02*
X42125Y-354643D01*
X42125Y-353171D02*
X46775Y-353171D01*
X54825Y-351925D02*
X54825Y-363475D01*
X54825Y-351925D02*
X59475Y-351925D01*
X59475Y-363475D01*
X54825Y-363475D01*
X54825Y-362003D02*
X59475Y-362003D01*
X59475Y-360531D02*
X54825Y-360531D01*
X54825Y-359059D02*
X59475Y-359059D01*
X59475Y-357587D02*
X54825Y-357587D01*
X54825Y-356115D02*
X59475Y-356115D01*
X59475Y-354643D02*
X54825Y-354643D01*
X54825Y-353171D02*
X59475Y-353171D01*
X67525Y-351925D02*
X67525Y-363475D01*
X67525Y-351925D02*
X72175Y-351925D01*
X72175Y-363475D01*
X67525Y-363475D01*
X67525Y-362003D02*
X72175Y-362003D01*
X72175Y-360531D02*
X67525Y-360531D01*
X67525Y-359059D02*
X72175Y-359059D01*
X72175Y-357587D02*
X67525Y-357587D01*
X67525Y-356115D02*
X72175Y-356115D01*
X72175Y-354643D02*
X67525Y-354643D01*
X67525Y-353171D02*
X72175Y-353171D01*
X80225Y-351925D02*
X80225Y-363475D01*
X80225Y-351925D02*
X84875Y-351925D01*
X84875Y-363475D01*
X80225Y-363475D01*
X80225Y-362003D02*
X84875Y-362003D01*
X84875Y-360531D02*
X80225Y-360531D01*
X80225Y-359059D02*
X84875Y-359059D01*
X84875Y-357587D02*
X80225Y-357587D01*
X80225Y-356115D02*
X84875Y-356115D01*
X84875Y-354643D02*
X80225Y-354643D01*
X80225Y-353171D02*
X84875Y-353171D01*
X92925Y-351925D02*
X92925Y-363475D01*
X92925Y-351925D02*
X97575Y-351925D01*
X97575Y-363475D01*
X92925Y-363475D01*
X92925Y-362003D02*
X97575Y-362003D01*
X97575Y-360531D02*
X92925Y-360531D01*
X92925Y-359059D02*
X97575Y-359059D01*
X97575Y-357587D02*
X92925Y-357587D01*
X92925Y-356115D02*
X97575Y-356115D01*
X97575Y-354643D02*
X92925Y-354643D01*
X92925Y-353171D02*
X97575Y-353171D01*
X105625Y-351925D02*
X105625Y-363475D01*
X105625Y-351925D02*
X110275Y-351925D01*
X110275Y-363475D01*
X105625Y-363475D01*
X105625Y-362003D02*
X110275Y-362003D01*
X110275Y-360531D02*
X105625Y-360531D01*
X105625Y-359059D02*
X110275Y-359059D01*
X110275Y-357587D02*
X105625Y-357587D01*
X105625Y-356115D02*
X110275Y-356115D01*
X110275Y-354643D02*
X105625Y-354643D01*
X105625Y-353171D02*
X110275Y-353171D01*
X118325Y-351925D02*
X118325Y-363475D01*
X118325Y-351925D02*
X122975Y-351925D01*
X122975Y-363475D01*
X118325Y-363475D01*
X118325Y-362003D02*
X122975Y-362003D01*
X122975Y-360531D02*
X118325Y-360531D01*
X118325Y-359059D02*
X122975Y-359059D01*
X122975Y-357587D02*
X118325Y-357587D01*
X118325Y-356115D02*
X122975Y-356115D01*
X122975Y-354643D02*
X118325Y-354643D01*
X118325Y-353171D02*
X122975Y-353171D01*
X131025Y-351925D02*
X131025Y-363475D01*
X131025Y-351925D02*
X135675Y-351925D01*
X135675Y-363475D01*
X131025Y-363475D01*
X131025Y-362003D02*
X135675Y-362003D01*
X135675Y-360531D02*
X131025Y-360531D01*
X131025Y-359059D02*
X135675Y-359059D01*
X135675Y-357587D02*
X131025Y-357587D01*
X131025Y-356115D02*
X135675Y-356115D01*
X135675Y-354643D02*
X131025Y-354643D01*
X131025Y-353171D02*
X135675Y-353171D01*
D15*
X118500Y-88900D03*
X135500Y-88900D03*
X118500Y-69850D03*
X135500Y-69850D03*
D32*
X176475Y-310325D02*
X185125Y-310325D01*
X185125Y-312275D01*
X176475Y-312275D01*
X176475Y-310325D01*
X176475Y-310423D02*
X185125Y-310423D01*
X185125Y-303825D02*
X176475Y-303825D01*
X185125Y-303825D02*
X185125Y-305775D01*
X176475Y-305775D01*
X176475Y-303825D01*
X176475Y-303923D02*
X185125Y-303923D01*
X185125Y-297325D02*
X176475Y-297325D01*
X185125Y-297325D02*
X185125Y-299275D01*
X176475Y-299275D01*
X176475Y-297325D01*
X176475Y-297423D02*
X185125Y-297423D01*
X166425Y-297325D02*
X157775Y-297325D01*
X166425Y-297325D02*
X166425Y-299275D01*
X157775Y-299275D01*
X157775Y-297325D01*
X157775Y-297423D02*
X166425Y-297423D01*
X166425Y-303825D02*
X157775Y-303825D01*
X166425Y-303825D02*
X166425Y-305775D01*
X157775Y-305775D01*
X157775Y-303825D01*
X157775Y-303923D02*
X166425Y-303923D01*
X166425Y-310325D02*
X157775Y-310325D01*
X166425Y-310325D02*
X166425Y-312275D01*
X157775Y-312275D01*
X157775Y-310325D01*
X157775Y-310423D02*
X166425Y-310423D01*
D33*
G36*
X-40299Y-599667D02*
X-33920Y-595984D01*
X-17665Y-624139D01*
X-24044Y-627822D01*
X-40299Y-599667D01*
G37*
G36*
X-13629Y-645861D02*
X-7250Y-642178D01*
X9005Y-670333D01*
X2626Y-674016D01*
X-13629Y-645861D01*
G37*
G36*
X-18302Y-586967D02*
X-11923Y-583284D01*
X4332Y-611439D01*
X-2047Y-615122D01*
X-18302Y-586967D01*
G37*
G36*
X8368Y-633161D02*
X14747Y-629478D01*
X31002Y-657633D01*
X24623Y-661316D01*
X8368Y-633161D01*
G37*
G36*
X3695Y-574267D02*
X10074Y-570584D01*
X26329Y-598739D01*
X19950Y-602422D01*
X3695Y-574267D01*
G37*
G36*
X30365Y-620461D02*
X36744Y-616778D01*
X52999Y-644933D01*
X46620Y-648616D01*
X30365Y-620461D01*
G37*
D16*
X-220500Y-270000D03*
X-239500Y-270000D03*
D34*
X-51920Y-490601D03*
X-58420Y-490601D03*
X-64920Y-490601D03*
X-64920Y-510159D03*
X-58420Y-510159D03*
X-51920Y-510159D03*
M02*
