M48
;GenerationSoftware,Autodesk,EAGLE,9.6.2*%
;CreationDate,2022-12-12T22:39:40Z*%
FMAT,2
ICI,OFF
METRIC,TZ,000.000
T6C0.250
T5C0.350
T4C0.400
T3C0.600
T2C0.900
T1C2.235
%
G90
M71
T1
X9931Y-213093
X5309Y-261887
X-20549Y-213093
T2
X-24126Y-56038
X-24388Y-59024
T3
X-19225Y-34299
X-20623Y-28691
X-22449Y-36582
X-24541Y-28188
X-18403Y-35573
X-20495Y-27180
T4
X-11430Y-41910
X-19050Y-60325
X-11430Y-19050
T5
X-12000Y-71000
X-13000Y-91000
X-15000Y-111000
X-15000Y-131000
X-19000Y-171000
X-23000Y-191000
X-25000Y-211000
X-27000Y-231000
X-23540Y-259080
X-17000Y-151000
X24810Y-257810
X2000Y-291000
X21000Y-171000
X18000Y-151000
X23000Y-191000
X27000Y-231000
X25000Y-211000
X17000Y-131000
X15000Y-111000
X13000Y-91000
X12000Y-71000
X-13970Y-20955
X-16510Y-13970
X1905Y-67310
X-15367Y-31877
X1270Y-285115
X29210Y-254000
X-27305Y-254000
X-33020Y-227965
X-31115Y-207645
X-29210Y-187960
X-27305Y-167640
X-25400Y-147955
X-23495Y-127635
X-21590Y-107950
X-19050Y-88265
X-17145Y-67945
X19050Y-67945
X20955Y-88265
X22860Y-107950
X24765Y-127635
X26670Y-147955
X28575Y-168275
X31115Y-187960
X33020Y-207645
X34925Y-227330
X-11430Y-38735
X-7620Y-29210
X-13970Y-10160
X-12700Y-27305
X22860Y-38100
X-2540Y-45720
X-1270Y-55245
X-7620Y-34290
X8255Y-33020
X-7620Y-33020
X6985Y-32385
X12700Y-12700
X12700Y-11430
X12700Y-13970
X12700Y-10160
X12700Y-16510
X2286Y-56896
X12700Y-15240
X5080Y-61976
X-15240Y-22225
X-21844Y-32766
X-15875Y-34925
T6
X-1270Y-12065
X10160Y-38100
X19685Y-32385
X0Y-36030
X15240Y-34290
X-9525Y-5715
X-8890Y-35560
X-10795Y-13970
X-18970Y-66850
X22860Y-28575
X10795Y-19050
X-1270Y-8890
X2540Y-8890
X15875Y-28575
X2540Y-12065
X14605Y-36830
X635Y-12065
X635Y-8890
X10795Y-3175
X-13335Y-3175
X-13335Y-12065
X-7620Y-24130
X3810Y-38100
X19685Y-30480
X13335Y-27305
X5715Y-27305
X22860Y-33020
M30