G04 EAGLE Gerber RS-274X export*
G75*
%MOMM*%
%FSLAX34Y34*%
%LPD*%
%IN*%
%IPPOS*%
%AMOC8*
5,1,8,0,0,1.08239X$1,22.5*%
G01*
%ADD10C,0.254000*%


D10*
X-400000Y-2500000D02*
X0Y-3000000D01*
X400000Y-2500000D01*
X250000Y-400000D01*
X350000Y0D01*
X300000Y50000D01*
X-300000Y50000D01*
X-350000Y0D01*
X-250000Y-400000D01*
X-400000Y-2500000D01*
X200000Y-224600D02*
X200095Y-226779D01*
X200380Y-228941D01*
X200852Y-231070D01*
X201508Y-233151D01*
X202342Y-235165D01*
X203349Y-237100D01*
X204521Y-238939D01*
X205849Y-240670D01*
X207322Y-242278D01*
X208930Y-243751D01*
X210661Y-245079D01*
X212500Y-246251D01*
X214435Y-247258D01*
X216450Y-248092D01*
X218530Y-248748D01*
X220659Y-249220D01*
X222821Y-249505D01*
X225000Y-249600D01*
X227179Y-249505D01*
X229341Y-249220D01*
X231470Y-248748D01*
X233551Y-248092D01*
X235565Y-247258D01*
X237500Y-246251D01*
X239339Y-245079D01*
X241070Y-243751D01*
X242678Y-242278D01*
X244151Y-240670D01*
X245479Y-238939D01*
X246651Y-237100D01*
X247658Y-235165D01*
X248492Y-233151D01*
X249148Y-231070D01*
X249620Y-228941D01*
X249905Y-226779D01*
X250000Y-224600D01*
X250000Y-24600D01*
X249905Y-22421D01*
X249620Y-20259D01*
X249148Y-18130D01*
X248492Y-16050D01*
X247658Y-14035D01*
X246651Y-12100D01*
X245479Y-10261D01*
X244151Y-8530D01*
X242678Y-6922D01*
X241070Y-5449D01*
X239339Y-4121D01*
X237500Y-2949D01*
X235565Y-1942D01*
X233551Y-1108D01*
X231470Y-452D01*
X229341Y20D01*
X227179Y305D01*
X225000Y400D01*
X222821Y305D01*
X220659Y20D01*
X218530Y-452D01*
X216450Y-1108D01*
X214435Y-1942D01*
X212500Y-2949D01*
X210661Y-4121D01*
X208930Y-5449D01*
X207322Y-6922D01*
X205849Y-8530D01*
X204521Y-10261D01*
X203349Y-12100D01*
X202342Y-14035D01*
X201508Y-16050D01*
X200852Y-18130D01*
X200380Y-20259D01*
X200095Y-22421D01*
X200000Y-24600D01*
X200000Y-224600D01*
X-250000Y-224600D02*
X-249905Y-226779D01*
X-249620Y-228941D01*
X-249148Y-231070D01*
X-248492Y-233151D01*
X-247658Y-235165D01*
X-246651Y-237100D01*
X-245479Y-238939D01*
X-244151Y-240670D01*
X-242678Y-242278D01*
X-241070Y-243751D01*
X-239339Y-245079D01*
X-237500Y-246251D01*
X-235565Y-247258D01*
X-233551Y-248092D01*
X-231470Y-248748D01*
X-229341Y-249220D01*
X-227179Y-249505D01*
X-225000Y-249600D01*
X-222821Y-249505D01*
X-220659Y-249220D01*
X-218530Y-248748D01*
X-216450Y-248092D01*
X-214435Y-247258D01*
X-212500Y-246251D01*
X-210661Y-245079D01*
X-208930Y-243751D01*
X-207322Y-242278D01*
X-205849Y-240670D01*
X-204521Y-238939D01*
X-203349Y-237100D01*
X-202342Y-235165D01*
X-201508Y-233151D01*
X-200852Y-231070D01*
X-200380Y-228941D01*
X-200095Y-226779D01*
X-200000Y-224600D01*
X-200000Y-24600D01*
X-200095Y-22421D01*
X-200380Y-20259D01*
X-200852Y-18130D01*
X-201508Y-16050D01*
X-202342Y-14035D01*
X-203349Y-12100D01*
X-204521Y-10261D01*
X-205849Y-8530D01*
X-207322Y-6922D01*
X-208930Y-5449D01*
X-210661Y-4121D01*
X-212500Y-2949D01*
X-214435Y-1942D01*
X-216450Y-1108D01*
X-218530Y-452D01*
X-220659Y20D01*
X-222821Y305D01*
X-225000Y400D01*
X-227179Y305D01*
X-229341Y20D01*
X-231470Y-452D01*
X-233551Y-1108D01*
X-235565Y-1942D01*
X-237500Y-2949D01*
X-239339Y-4121D01*
X-241070Y-5449D01*
X-242678Y-6922D01*
X-244151Y-8530D01*
X-245479Y-10261D01*
X-246651Y-12100D01*
X-247658Y-14035D01*
X-248492Y-16050D01*
X-249148Y-18130D01*
X-249620Y-20259D01*
X-249905Y-22421D01*
X-250000Y-24600D01*
X-250000Y-224600D01*
X-253398Y-2445969D02*
X-253474Y-2445100D01*
X-253626Y-2444240D01*
X-253852Y-2443396D01*
X-254150Y-2442576D01*
X-254519Y-2441784D01*
X-254956Y-2441028D01*
X-255457Y-2440313D01*
X-256018Y-2439644D01*
X-256636Y-2439026D01*
X-257305Y-2438465D01*
X-258020Y-2437964D01*
X-258776Y-2437527D01*
X-259568Y-2437158D01*
X-260388Y-2436860D01*
X-261232Y-2436634D01*
X-262092Y-2436482D01*
X-262961Y-2436406D01*
X-263835Y-2436406D01*
X-264705Y-2436482D01*
X-265564Y-2436634D01*
X-266408Y-2436860D01*
X-267228Y-2437158D01*
X-268020Y-2437527D01*
X-268776Y-2437964D01*
X-269491Y-2438465D01*
X-270160Y-2439026D01*
X-270778Y-2439644D01*
X-271339Y-2440313D01*
X-271840Y-2441028D01*
X-272277Y-2441784D01*
X-272646Y-2442576D01*
X-272944Y-2443396D01*
X-273170Y-2444240D01*
X-273322Y-2445100D01*
X-273398Y-2445969D01*
X-273398Y-2446843D01*
X-273322Y-2447713D01*
X-273170Y-2448572D01*
X-272944Y-2449416D01*
X-272646Y-2450236D01*
X-272277Y-2451028D01*
X-271840Y-2451784D01*
X-271339Y-2452499D01*
X-270778Y-2453168D01*
X-270160Y-2453786D01*
X-269491Y-2454347D01*
X-268776Y-2454848D01*
X-268020Y-2455285D01*
X-267228Y-2455654D01*
X-266408Y-2455952D01*
X-265564Y-2456178D01*
X-264705Y-2456330D01*
X-263835Y-2456406D01*
X-262961Y-2456406D01*
X-262092Y-2456330D01*
X-261232Y-2456178D01*
X-260388Y-2455952D01*
X-259568Y-2455654D01*
X-258776Y-2455285D01*
X-258020Y-2454848D01*
X-257305Y-2454347D01*
X-256636Y-2453786D01*
X-256018Y-2453168D01*
X-255457Y-2452499D01*
X-254956Y-2451784D01*
X-254519Y-2451028D01*
X-254150Y-2450236D01*
X-253852Y-2449416D01*
X-253626Y-2448572D01*
X-253474Y-2447713D01*
X-253398Y-2446843D01*
X-253398Y-2445969D01*
X-239368Y-590337D02*
X-239393Y-589748D01*
X-239496Y-589167D01*
X-239673Y-588605D01*
X-239922Y-588070D01*
X-240239Y-587572D01*
X-240619Y-587120D01*
X-241053Y-586722D01*
X-241537Y-586384D01*
X-242060Y-586111D01*
X-242614Y-585909D01*
X-243190Y-585782D01*
X-243778Y-585730D01*
X-244367Y-585756D01*
X-244948Y-585859D01*
X-245511Y-586036D01*
X-246045Y-586285D01*
X-246543Y-586602D01*
X-246995Y-586981D01*
X-247393Y-587416D01*
X-247732Y-587899D01*
X-248004Y-588423D01*
X-248206Y-588977D01*
X-248333Y-589553D01*
X-248385Y-590141D01*
X-248359Y-590730D01*
X-248257Y-591311D01*
X-248079Y-591873D01*
X-247830Y-592408D01*
X-247513Y-592906D01*
X-247134Y-593357D01*
X-246699Y-593756D01*
X-246216Y-594094D01*
X-245692Y-594367D01*
X-245138Y-594568D01*
X-244562Y-594696D01*
X-243975Y-594748D01*
X-243385Y-594722D01*
X-242804Y-594619D01*
X-242242Y-594442D01*
X-241707Y-594193D01*
X-241210Y-593876D01*
X-240758Y-593497D01*
X-240359Y-593062D01*
X-240021Y-592578D01*
X-239748Y-592055D01*
X-239547Y-591501D01*
X-239419Y-590925D01*
X-239368Y-590337D01*
X-236755Y-560479D02*
X-236781Y-559890D01*
X-236883Y-559309D01*
X-237061Y-558747D01*
X-237310Y-558212D01*
X-237627Y-557714D01*
X-238006Y-557263D01*
X-238441Y-556864D01*
X-238924Y-556526D01*
X-239448Y-556253D01*
X-240002Y-556052D01*
X-240578Y-555924D01*
X-241166Y-555872D01*
X-241755Y-555898D01*
X-242336Y-556001D01*
X-242898Y-556178D01*
X-243433Y-556427D01*
X-243931Y-556744D01*
X-244382Y-557123D01*
X-244781Y-557558D01*
X-245119Y-558042D01*
X-245392Y-558565D01*
X-245593Y-559119D01*
X-245721Y-559695D01*
X-245772Y-560283D01*
X-245747Y-560872D01*
X-245644Y-561453D01*
X-245467Y-562015D01*
X-245218Y-562550D01*
X-244901Y-563048D01*
X-244522Y-563500D01*
X-244087Y-563898D01*
X-243603Y-564236D01*
X-243080Y-564509D01*
X-242526Y-564711D01*
X-241950Y-564838D01*
X-241362Y-564890D01*
X-240773Y-564864D01*
X-240192Y-564761D01*
X-239629Y-564584D01*
X-239095Y-564335D01*
X-238597Y-564018D01*
X-238145Y-563639D01*
X-237747Y-563204D01*
X-237409Y-562721D01*
X-237136Y-562197D01*
X-236934Y-561643D01*
X-236807Y-561067D01*
X-236755Y-560479D01*
M02*
