M48
INCH,LZ
;FILE_FORMAT=2:4
;TYPE=PLATED
;Layer: Drill PTH
;EasyEDA v6.4.17, 2021-02-25T15:28:36--5:00
;aa3373424ab044808dd5acc0b6461e4b,072da06717534aa28f27f5ff42559d36,10
;Gerber Generator version 0.2
;Holesize 1 = 0.0120 inch
T01C0.0120
;Holesize 2 = 0.0260 inch
T02C0.0260
;Holesize 3 = 0.0350 inch
T03C0.0350
;Holesize 4 = 0.0360 inch
T04C0.0360
;Holesize 5 = 0.0390 inch
T05C0.0390
;Holesize 6 = 0.0400 inch
T06C0.0400
%
G05
G90
T01
X036500Y006250
X026750Y049500
X032750Y015500
X029550Y046800
X032250Y015500
X025500Y011000
X020250Y009000
X028800Y047800
X030550Y049050
X032800Y048050
X031050Y046800
X034550Y047300
X032800Y045800
X035848Y044550
X034050Y043550
X037100Y043100
X035050Y041550
X037300Y040550
X035550Y038800
X037500Y038600
X036050Y036800
X033750Y015500
X033750Y009000
X038250Y014500
X030500Y010500
X003500Y014500
X006500Y010500
X001000Y010750
X003500Y006500
X020329Y006006
X020329Y005284
X019606Y005284
X018884Y005284
X018884Y006006
X019606Y006006
X022250Y003500
X030550Y048300
X028300Y049300
X027300Y051550
X030050Y050800
X032300Y049800
X034550Y048800
X033050Y047300
X036050Y046300
X034550Y045050
X037800Y044700
X038550Y041550
X036300Y042550
X037800Y037550
X038900Y039900
X037050Y040050
X012242Y005500
X015749Y003053
X025750Y013500
X013750Y013500
X026000Y009750
X033500Y009500
X032750Y013500
X032250Y011250
X033000Y011000
X034000Y011000
X025750Y004000
X026250Y004250
X024000Y007053
X010750Y003750
X026750Y015250
X027000Y015000
X012250Y014500
X012500Y014250
X014000Y010000
X024250Y009500
X022500Y007500
X022000Y007000
X022000Y008250
X021250Y004250
X018000Y003250
X018500Y003500
X020500Y011250
X013250Y009500
X038800Y037800
X026000Y003750
X025250Y005000
X008750Y006250
X027050Y049800
X015500Y008500
X017500Y008000
X014000Y006000
X018500Y008500
X015750Y004500
X013750Y007500
X016500Y010500
X006500Y015500
X006000Y015250
X005500Y015250
X005000Y015000
X007750Y037750
X026000Y045000
X025550Y044550
X024000Y045000
X037000Y007000
X033250Y007500
X033000Y006500
X029250Y007250
X029250Y003750
T02
X037968Y005955G85X037890Y005955
X037968Y004045G85X037890Y004045
T03
X027050Y004800
X027050Y010800
X027050Y009800
X027050Y008800
X027050Y007800
X027050Y006800
X027050Y005800
T04
X002144Y003500
X001356Y003500
T05
X039169Y006417G85X038972Y006417
X039169Y003583G85X038972Y003583
T06
X021500Y014900
X020500Y014900
X019500Y014900
X018500Y014900
X017500Y014900
X008867Y036047
X008382Y036922
X007992Y035563
X007508Y036437
X007118Y035078
X006633Y035953
M30
