G04 Layer: BottomSilkLayer*
G04 EasyEDA v6.4.17, 2021-02-25T15:28:36--5:00*
G04 aa3373424ab044808dd5acc0b6461e4b,072da06717534aa28f27f5ff42559d36,10*
G04 Gerber Generator version 0.2*
G04 Scale: 100 percent, Rotated: No, Reflected: No *
G04 Dimensions in inches *
G04 leading zeros omitted , absolute positions ,3 integer and 6 decimal *
%FSLAX36Y36*%
%MOIN*%

%ADD10C,0.0100*%
%ADD41C,0.0060*%
%ADD42C,0.0080*%
%ADD44C,0.0079*%
%ADD45C,0.0050*%

%LPD*%
G36*
X1964000Y3643420D02*
G01*
X1962660Y3643180D01*
X1961220Y3642420D01*
X1959640Y3641120D01*
X1957960Y3639280D01*
X1957280Y3638680D01*
X1956279Y3638039D01*
X1954960Y3637420D01*
X1951519Y3636180D01*
X1947200Y3635000D01*
X1942240Y3633940D01*
X1936879Y3633100D01*
X1932420Y3632559D01*
X1928800Y3631940D01*
X1924860Y3631080D01*
X1920620Y3629980D01*
X1916140Y3628660D01*
X1911459Y3627160D01*
X1901680Y3623660D01*
X1891600Y3619580D01*
X1881560Y3615100D01*
X1871879Y3610340D01*
X1867300Y3607919D01*
X1862940Y3605480D01*
X1858820Y3603060D01*
X1855020Y3600640D01*
X1851579Y3598279D01*
X1848500Y3596000D01*
X1844940Y3593080D01*
X1842840Y3591560D01*
X1840840Y3590280D01*
X1838899Y3589240D01*
X1837040Y3588480D01*
X1835200Y3587960D01*
X1833380Y3587679D01*
X1831560Y3587679D01*
X1829740Y3587919D01*
X1827860Y3588440D01*
X1825940Y3589200D01*
X1823959Y3590240D01*
X1821879Y3591520D01*
X1819700Y3593080D01*
X1817380Y3594900D01*
X1810060Y3601080D01*
X1806399Y3603759D01*
X1805020Y3604580D01*
X1803940Y3605059D01*
X1803180Y3605200D01*
X1802740Y3605020D01*
X1802620Y3604520D01*
X1802820Y3603680D01*
X1803320Y3602520D01*
X1805340Y3599260D01*
X1808700Y3594760D01*
X1813899Y3588340D01*
X1816160Y3585320D01*
X1817680Y3582880D01*
X1818560Y3580800D01*
X1818800Y3578940D01*
X1818460Y3577100D01*
X1817620Y3575120D01*
X1799220Y3544660D01*
X1797100Y3541380D01*
X1793180Y3535820D01*
X1791480Y3533680D01*
X1790040Y3532080D01*
X1788899Y3531060D01*
X1786600Y3529900D01*
X1784600Y3527700D01*
X1782340Y3524460D01*
X1778760Y3518000D01*
X1777280Y3515520D01*
X1775680Y3513060D01*
X1773980Y3510640D01*
X1770380Y3506040D01*
X1766620Y3501880D01*
X1764740Y3500020D01*
X1762900Y3498340D01*
X1761100Y3496860D01*
X1759360Y3495600D01*
X1757720Y3494560D01*
X1756180Y3493800D01*
X1754780Y3493320D01*
X1753520Y3493140D01*
X1752380Y3493279D01*
X1751020Y3493720D01*
X1749500Y3494440D01*
X1747860Y3495380D01*
X1746160Y3496540D01*
X1744460Y3497860D01*
X1742780Y3499320D01*
X1738160Y3503940D01*
X1735320Y3506440D01*
X1733020Y3508120D01*
X1731540Y3508740D01*
X1730580Y3508500D01*
X1730020Y3507799D01*
X1729860Y3506700D01*
X1730060Y3505260D01*
X1730600Y3503519D01*
X1731440Y3501560D01*
X1732560Y3499440D01*
X1733940Y3497180D01*
X1735560Y3494860D01*
X1737360Y3492540D01*
X1739360Y3490260D01*
X1743340Y3486160D01*
X1745040Y3484080D01*
X1746600Y3481920D01*
X1747940Y3479720D01*
X1749060Y3477540D01*
X1749900Y3475480D01*
X1750440Y3473580D01*
X1750620Y3471900D01*
X1750340Y3469760D01*
X1749540Y3466480D01*
X1748260Y3462260D01*
X1746579Y3457260D01*
X1744540Y3451600D01*
X1742200Y3445480D01*
X1739620Y3439060D01*
X1734920Y3427919D01*
X1730840Y3418000D01*
X1724640Y3402240D01*
X1720760Y3391940D01*
X1717320Y3382460D01*
X1712140Y3367420D01*
X1709640Y3361000D01*
X1707180Y3355440D01*
X1706020Y3353060D01*
X1703880Y3349260D01*
X1702940Y3347919D01*
X1702120Y3347000D01*
X1701420Y3346520D01*
X1700200Y3346300D01*
X1698500Y3346380D01*
X1696420Y3346740D01*
X1694019Y3347340D01*
X1691360Y3348159D01*
X1688540Y3349180D01*
X1685640Y3350400D01*
X1677120Y3354360D01*
X1672260Y3356200D01*
X1670260Y3356800D01*
X1668660Y3357140D01*
X1667480Y3357200D01*
X1666840Y3356980D01*
X1666260Y3356080D01*
X1666160Y3355040D01*
X1666480Y3353880D01*
X1667180Y3352620D01*
X1668220Y3351340D01*
X1669580Y3350040D01*
X1671200Y3348759D01*
X1673040Y3347559D01*
X1675060Y3346440D01*
X1677220Y3345440D01*
X1679480Y3344620D01*
X1686420Y3342760D01*
X1688400Y3342020D01*
X1690180Y3341200D01*
X1691740Y3340280D01*
X1693100Y3339240D01*
X1694259Y3338080D01*
X1695200Y3336780D01*
X1695980Y3335340D01*
X1696540Y3333759D01*
X1696920Y3332000D01*
X1697120Y3330059D01*
X1697120Y3327940D01*
X1696960Y3325620D01*
X1696600Y3323100D01*
X1696080Y3320360D01*
X1694520Y3314160D01*
X1692320Y3306980D01*
X1689040Y3296760D01*
X1684340Y3281040D01*
X1681380Y3270460D01*
X1677280Y3254640D01*
X1674220Y3241780D01*
X1672040Y3231800D01*
X1670120Y3222260D01*
X1666579Y3202760D01*
X1665880Y3199380D01*
X1664440Y3193780D01*
X1663680Y3191500D01*
X1662880Y3189560D01*
X1662000Y3187900D01*
X1661040Y3186540D01*
X1659980Y3185460D01*
X1658779Y3184600D01*
X1657460Y3183960D01*
X1655980Y3183519D01*
X1654340Y3183260D01*
X1652500Y3183159D01*
X1650460Y3183200D01*
X1645680Y3183600D01*
X1637960Y3184520D01*
X1634220Y3184880D01*
X1631639Y3185000D01*
X1630120Y3184860D01*
X1629560Y3184420D01*
X1629900Y3183660D01*
X1631000Y3182540D01*
X1632800Y3181060D01*
X1635700Y3179180D01*
X1639100Y3177640D01*
X1642600Y3176600D01*
X1645740Y3176200D01*
X1648220Y3176139D01*
X1650400Y3175880D01*
X1652260Y3175340D01*
X1653080Y3174960D01*
X1654500Y3173880D01*
X1655100Y3173180D01*
X1655640Y3172340D01*
X1656100Y3171380D01*
X1656800Y3169040D01*
X1657260Y3166040D01*
X1657440Y3162320D01*
X1657360Y3157820D01*
X1657020Y3152440D01*
X1656459Y3146120D01*
X1655660Y3138780D01*
X1653360Y3120760D01*
X1647080Y3074720D01*
X1642180Y3039780D01*
X1640220Y3026760D01*
X1638500Y3016300D01*
X1636960Y3008100D01*
X1635500Y3001860D01*
X1634780Y2999380D01*
X1634060Y2997260D01*
X1633320Y2995500D01*
X1632580Y2994020D01*
X1631780Y2992799D01*
X1630960Y2991800D01*
X1630100Y2991000D01*
X1629160Y2990340D01*
X1627100Y2989300D01*
X1623380Y2987919D01*
X1620840Y2986780D01*
X1618839Y2985560D01*
X1617340Y2984240D01*
X1616339Y2982900D01*
X1615860Y2981540D01*
X1615860Y2980220D01*
X1616360Y2978980D01*
X1617340Y2977820D01*
X1618779Y2976800D01*
X1620700Y2975940D01*
X1623080Y2975280D01*
X1626699Y2974780D01*
X1630020Y2974720D01*
X1632040Y2974480D01*
X1632860Y2974140D01*
X1633560Y2973560D01*
X1634139Y2972720D01*
X1634620Y2971500D01*
X1634980Y2969900D01*
X1635260Y2967820D01*
X1635440Y2965220D01*
X1635540Y2958180D01*
X1635340Y2948320D01*
X1632600Y2877780D01*
X1631759Y2861680D01*
X1630840Y2848320D01*
X1629800Y2837340D01*
X1629199Y2832620D01*
X1628540Y2828340D01*
X1627840Y2824460D01*
X1627060Y2820940D01*
X1626200Y2817720D01*
X1625260Y2814760D01*
X1624240Y2812000D01*
X1623120Y2809380D01*
X1619259Y2802100D01*
X1616759Y2796920D01*
X1614480Y2791440D01*
X1612540Y2786019D01*
X1611000Y2781000D01*
X1610020Y2776720D01*
X1609760Y2774960D01*
X1609680Y2773519D01*
X1609780Y2772440D01*
X1610060Y2771760D01*
X1610580Y2771520D01*
X1611100Y2771800D01*
X1611980Y2772600D01*
X1614620Y2775560D01*
X1618100Y2779920D01*
X1625240Y2789580D01*
X1628040Y2792960D01*
X1629400Y2794360D01*
X1630780Y2795560D01*
X1632220Y2796620D01*
X1633760Y2797540D01*
X1635440Y2798360D01*
X1637300Y2799080D01*
X1639400Y2799760D01*
X1641759Y2800380D01*
X1647440Y2801560D01*
X1654660Y2802860D01*
X1659540Y2803620D01*
X1664660Y2804280D01*
X1675060Y2805260D01*
X1680000Y2805560D01*
X1684600Y2805720D01*
X1688660Y2805740D01*
X1695600Y2805360D01*
X1698600Y2805299D01*
X1701120Y2805380D01*
X1703160Y2805620D01*
X1704720Y2806040D01*
X1705820Y2806620D01*
X1706480Y2807340D01*
X1706699Y2808260D01*
X1706500Y2808900D01*
X1705900Y2809500D01*
X1704880Y2810040D01*
X1703420Y2810539D01*
X1701519Y2811000D01*
X1699160Y2811400D01*
X1693000Y2812080D01*
X1684820Y2812600D01*
X1674540Y2812980D01*
X1642380Y2813880D01*
X1643500Y2860880D01*
X1643860Y2871800D01*
X1644440Y2885700D01*
X1645700Y2910480D01*
X1647320Y2936700D01*
X1649440Y2966540D01*
X1651639Y2993900D01*
X1654060Y3020840D01*
X1657140Y3051780D01*
X1659300Y3071080D01*
X1660660Y3082440D01*
X1663080Y3101080D01*
X1665000Y3115179D01*
X1667520Y3132559D01*
X1670140Y3149640D01*
X1672880Y3166460D01*
X1675720Y3182980D01*
X1679880Y3205620D01*
X1682980Y3221460D01*
X1688160Y3246200D01*
X1691519Y3261280D01*
X1694300Y3273140D01*
X1698580Y3290580D01*
X1702260Y3304780D01*
X1706040Y3318700D01*
X1709160Y3329620D01*
X1713120Y3343020D01*
X1717200Y3356120D01*
X1720520Y3366380D01*
X1724780Y3378940D01*
X1729139Y3391200D01*
X1732700Y3400800D01*
X1737240Y3412520D01*
X1741860Y3423940D01*
X1746600Y3435059D01*
X1751420Y3445880D01*
X1756360Y3456400D01*
X1761380Y3466600D01*
X1766500Y3476500D01*
X1771720Y3486100D01*
X1777040Y3495400D01*
X1782460Y3504380D01*
X1786860Y3511360D01*
X1793560Y3521440D01*
X1798120Y3527900D01*
X1805040Y3537240D01*
X1810920Y3544660D01*
X1816900Y3551780D01*
X1821740Y3557260D01*
X1826639Y3562520D01*
X1832860Y3568820D01*
X1837900Y3573639D01*
X1842980Y3578240D01*
X1849440Y3583720D01*
X1854660Y3587860D01*
X1861260Y3592760D01*
X1865260Y3595560D01*
X1869300Y3598220D01*
X1876120Y3602420D01*
X1880240Y3604780D01*
X1884379Y3607020D01*
X1891380Y3610500D01*
X1897040Y3613060D01*
X1904199Y3615960D01*
X1911420Y3618519D01*
X1917280Y3620340D01*
X1923180Y3621960D01*
X1929139Y3623360D01*
X1935160Y3624540D01*
X1941220Y3625520D01*
X1946480Y3626220D01*
X1951540Y3626760D01*
X1956420Y3627120D01*
X1961160Y3627340D01*
X1965760Y3627380D01*
X1970280Y3627220D01*
X1974740Y3626900D01*
X1979180Y3626380D01*
X1983600Y3625680D01*
X1988060Y3624760D01*
X1992560Y3623639D01*
X1997160Y3622320D01*
X2001879Y3620779D01*
X2006740Y3619020D01*
X2011780Y3617020D01*
X2017020Y3614800D01*
X2022500Y3612340D01*
X2032780Y3607380D01*
X2040280Y3603440D01*
X2046200Y3600080D01*
X2054980Y3594720D01*
X2062180Y3589940D01*
X2070700Y3583880D01*
X2079060Y3577420D01*
X2087280Y3570580D01*
X2092700Y3565800D01*
X2099360Y3559600D01*
X2107220Y3551820D01*
X2112380Y3546420D01*
X2116220Y3542260D01*
X2122520Y3535120D01*
X2129940Y3526200D01*
X2133600Y3521620D01*
X2140780Y3512160D01*
X2146680Y3504000D01*
X2153600Y3493880D01*
X2159240Y3485160D01*
X2166980Y3472540D01*
X2172360Y3463220D01*
X2177660Y3453660D01*
X2182840Y3443860D01*
X2189900Y3429720D01*
X2194820Y3419320D01*
X2201500Y3404380D01*
X2207080Y3391180D01*
X2211580Y3379920D01*
X2216860Y3366120D01*
X2221960Y3351960D01*
X2227720Y3335020D01*
X2234020Y3315100D01*
X2239280Y3297180D01*
X2242200Y3286740D01*
X2245720Y3273480D01*
X2248460Y3262720D01*
X2252440Y3246300D01*
X2255000Y3235179D01*
X2258080Y3221060D01*
X2260460Y3209620D01*
X2263320Y3195120D01*
X2265540Y3183360D01*
X2267660Y3171440D01*
X2270720Y3153340D01*
X2273120Y3138000D01*
X2275420Y3122460D01*
X2278420Y3100320D01*
X2281540Y3074520D01*
X2283340Y3058120D01*
X2285320Y3038180D01*
X2286800Y3020299D01*
X2288320Y2998380D01*
X2289980Y2970400D01*
X2291700Y2937120D01*
X2293200Y2903780D01*
X2294160Y2878639D01*
X2294860Y2856100D01*
X2295260Y2837400D01*
X2295340Y2829840D01*
X2295280Y2822360D01*
X2295140Y2818159D01*
X2294880Y2815659D01*
X2294700Y2815120D01*
X2294060Y2814560D01*
X2292920Y2814020D01*
X2291340Y2813560D01*
X2289380Y2813140D01*
X2287100Y2812799D01*
X2281860Y2812360D01*
X2275480Y2812240D01*
X2272500Y2812060D01*
X2270100Y2811740D01*
X2268200Y2811259D01*
X2266780Y2810620D01*
X2265820Y2809800D01*
X2265280Y2808800D01*
X2265100Y2807600D01*
X2265680Y2805560D01*
X2267420Y2804080D01*
X2270300Y2803200D01*
X2274300Y2802900D01*
X2278700Y2802740D01*
X2282740Y2802260D01*
X2286500Y2801380D01*
X2288300Y2800800D01*
X2291760Y2799280D01*
X2293440Y2798340D01*
X2295120Y2797280D01*
X2298420Y2794760D01*
X2301760Y2791680D01*
X2305180Y2787980D01*
X2308780Y2783660D01*
X2313200Y2778020D01*
X2315720Y2775020D01*
X2318160Y2772320D01*
X2320460Y2769940D01*
X2322560Y2768000D01*
X2324380Y2766520D01*
X2325840Y2765580D01*
X2326920Y2765260D01*
X2328640Y2765460D01*
X2329880Y2766040D01*
X2330600Y2766940D01*
X2330820Y2768100D01*
X2330520Y2769480D01*
X2329740Y2771019D01*
X2328440Y2772660D01*
X2326660Y2774340D01*
X2325720Y2775340D01*
X2324720Y2776780D01*
X2323680Y2778620D01*
X2322620Y2780760D01*
X2321600Y2783180D01*
X2320640Y2785760D01*
X2319760Y2788460D01*
X2318700Y2792400D01*
X2317520Y2798360D01*
X2316320Y2806000D01*
X2315140Y2814980D01*
X2313960Y2825080D01*
X2312860Y2835960D01*
X2311840Y2847360D01*
X2310900Y2859000D01*
X2309940Y2873460D01*
X2309340Y2884580D01*
X2308920Y2895040D01*
X2308720Y2904500D01*
X2308700Y2911080D01*
X2308360Y2921160D01*
X2307620Y2932040D01*
X2306520Y2942860D01*
X2305160Y2952799D01*
X2304400Y2957160D01*
X2302260Y2968279D01*
X2301380Y2973620D01*
X2300780Y2978080D01*
X2300480Y2981420D01*
X2300520Y2983420D01*
X2300680Y2983820D01*
X2301220Y2983980D01*
X2302260Y2983880D01*
X2303680Y2983519D01*
X2305480Y2982940D01*
X2309880Y2981160D01*
X2312380Y2980020D01*
X2317940Y2977280D01*
X2320500Y2976160D01*
X2322660Y2975340D01*
X2324400Y2974800D01*
X2325760Y2974560D01*
X2326720Y2974600D01*
X2327280Y2974880D01*
X2327440Y2975419D01*
X2327200Y2976180D01*
X2326580Y2977180D01*
X2325540Y2978380D01*
X2324120Y2979780D01*
X2322300Y2981360D01*
X2320100Y2983120D01*
X2317500Y2985040D01*
X2301180Y2996040D01*
X2297720Y3050120D01*
X2294220Y3100140D01*
X2291000Y3141820D01*
X2289620Y3158020D01*
X2288520Y3169740D01*
X2287560Y3178279D01*
X2287200Y3182420D01*
X2287140Y3185340D01*
X2287440Y3187240D01*
X2288200Y3188240D01*
X2289440Y3188540D01*
X2291260Y3188279D01*
X2297780Y3186600D01*
X2301700Y3185680D01*
X2305460Y3184900D01*
X2308980Y3184280D01*
X2312280Y3183800D01*
X2315300Y3183480D01*
X2318000Y3183320D01*
X2320380Y3183320D01*
X2322380Y3183460D01*
X2323980Y3183800D01*
X2325140Y3184280D01*
X2325840Y3184940D01*
X2326080Y3185779D01*
X2325840Y3186740D01*
X2325160Y3187740D01*
X2324100Y3188800D01*
X2322680Y3189900D01*
X2320960Y3191000D01*
X2316800Y3193159D01*
X2314420Y3194160D01*
X2309360Y3195960D01*
X2306740Y3196700D01*
X2304120Y3197320D01*
X2301560Y3197780D01*
X2299080Y3198060D01*
X2294700Y3198200D01*
X2292900Y3198360D01*
X2291300Y3198660D01*
X2289880Y3199160D01*
X2288580Y3199880D01*
X2287360Y3200880D01*
X2286180Y3202180D01*
X2285020Y3203820D01*
X2283800Y3205840D01*
X2282500Y3208300D01*
X2279520Y3214640D01*
X2277740Y3218680D01*
X2274100Y3228039D01*
X2270420Y3238600D01*
X2266860Y3249840D01*
X2263560Y3261240D01*
X2260680Y3272240D01*
X2258400Y3282300D01*
X2257520Y3286820D01*
X2256840Y3290920D01*
X2256400Y3294500D01*
X2255080Y3307720D01*
X2272120Y3312060D01*
X2276540Y3313480D01*
X2278340Y3314200D01*
X2279860Y3314920D01*
X2281120Y3315620D01*
X2282120Y3316320D01*
X2282840Y3317020D01*
X2283320Y3317700D01*
X2283520Y3318340D01*
X2283480Y3318980D01*
X2283180Y3319580D01*
X2282620Y3320160D01*
X2281820Y3320720D01*
X2280780Y3321220D01*
X2279480Y3321700D01*
X2276180Y3322520D01*
X2271920Y3323120D01*
X2266740Y3323519D01*
X2256980Y3323720D01*
X2253920Y3323960D01*
X2251380Y3324380D01*
X2249300Y3325059D01*
X2247580Y3325980D01*
X2246160Y3327220D01*
X2244960Y3328780D01*
X2243860Y3330700D01*
X2240400Y3338140D01*
X2236760Y3346640D01*
X2233060Y3355880D01*
X2229420Y3365520D01*
X2225980Y3375280D01*
X2220440Y3391960D01*
X2217280Y3400480D01*
X2212720Y3411980D01*
X2208920Y3420980D01*
X2199140Y3442980D01*
X2194040Y3455260D01*
X2189920Y3465760D01*
X2188400Y3469960D01*
X2187320Y3473220D01*
X2186740Y3475400D01*
X2186660Y3476019D01*
X2187460Y3476700D01*
X2189680Y3478100D01*
X2197560Y3482620D01*
X2208620Y3488560D01*
X2214440Y3491780D01*
X2219680Y3495000D01*
X2224140Y3498039D01*
X2227580Y3500760D01*
X2228860Y3501960D01*
X2229800Y3503020D01*
X2230380Y3503920D01*
X2230580Y3504640D01*
X2230460Y3505700D01*
X2230100Y3506540D01*
X2229520Y3507140D01*
X2228680Y3507520D01*
X2227600Y3507660D01*
X2226280Y3507580D01*
X2224740Y3507280D01*
X2222960Y3506740D01*
X2220940Y3505980D01*
X2216200Y3503780D01*
X2210520Y3500640D01*
X2203900Y3496620D01*
X2196940Y3492140D01*
X2190680Y3488340D01*
X2185460Y3485460D01*
X2183440Y3484480D01*
X2181920Y3483860D01*
X2180980Y3483639D01*
X2180360Y3483720D01*
X2178860Y3484420D01*
X2176980Y3485800D01*
X2174740Y3487799D01*
X2172160Y3490419D01*
X2169300Y3493620D01*
X2166160Y3497340D01*
X2162780Y3501580D01*
X2159180Y3506300D01*
X2155380Y3511460D01*
X2147340Y3522980D01*
X2144000Y3527940D01*
X2141220Y3531900D01*
X2134740Y3540560D01*
X2127560Y3549620D01*
X2120240Y3558340D01*
X2116700Y3562380D01*
X2105140Y3574940D01*
X2101460Y3579340D01*
X2098300Y3583420D01*
X2095700Y3587220D01*
X2093640Y3590740D01*
X2092080Y3593980D01*
X2091500Y3595500D01*
X2091060Y3596960D01*
X2090740Y3598360D01*
X2090100Y3602919D01*
X2090140Y3606300D01*
X2090800Y3608399D01*
X2092100Y3609120D01*
X2093680Y3609640D01*
X2095520Y3611080D01*
X2097380Y3613200D01*
X2099040Y3615779D01*
X2099900Y3617520D01*
X2100420Y3618860D01*
X2100580Y3619840D01*
X2100420Y3620419D01*
X2099900Y3620620D01*
X2099060Y3620419D01*
X2097900Y3619860D01*
X2096399Y3618920D01*
X2094560Y3617580D01*
X2089940Y3613800D01*
X2085460Y3609900D01*
X2083720Y3608620D01*
X2081940Y3607520D01*
X2080120Y3606560D01*
X2078280Y3605779D01*
X2076380Y3605179D01*
X2074460Y3604720D01*
X2072500Y3604440D01*
X2070500Y3604320D01*
X2068460Y3604360D01*
X2066380Y3604560D01*
X2064280Y3604940D01*
X2062120Y3605480D01*
X2059920Y3606180D01*
X2057680Y3607060D01*
X2055400Y3608080D01*
X2053060Y3609280D01*
X2048280Y3612180D01*
X2044160Y3615040D01*
X2040480Y3617320D01*
X2036440Y3619520D01*
X2032080Y3621640D01*
X2027480Y3623660D01*
X2022660Y3625560D01*
X2017700Y3627320D01*
X2012640Y3628900D01*
X2007560Y3630320D01*
X2002500Y3631560D01*
X1997500Y3632580D01*
X1992640Y3633360D01*
X1987960Y3633900D01*
X1983540Y3634180D01*
X1978820Y3634300D01*
X1976459Y3634540D01*
X1974360Y3634920D01*
X1972520Y3635460D01*
X1970980Y3636120D01*
X1969740Y3636920D01*
X1968800Y3637860D01*
X1968200Y3638920D01*
X1967320Y3640860D01*
X1966320Y3642240D01*
X1965200Y3643100D01*
G37*
G36*
X1857100Y3492660D02*
G01*
X1854920Y3492460D01*
X1853280Y3491880D01*
X1851840Y3490880D01*
X1850620Y3489540D01*
X1849640Y3487960D01*
X1848899Y3486220D01*
X1848420Y3484420D01*
X1848240Y3482640D01*
X1848340Y3480980D01*
X1848779Y3479540D01*
X1849540Y3478399D01*
X1850640Y3477640D01*
X1852560Y3477240D01*
X1853940Y3476320D01*
X1855980Y3474540D01*
X1858600Y3472000D01*
X1865280Y3464960D01*
X1873420Y3455920D01*
X1882460Y3445520D01*
X1894120Y3431680D01*
X1903040Y3420760D01*
X1910980Y3410740D01*
X1917360Y3402280D01*
X1919780Y3398860D01*
X1921620Y3396060D01*
X1922760Y3394020D01*
X1923060Y3393300D01*
X1923160Y3392799D01*
X1922460Y3391520D01*
X1920580Y3390480D01*
X1917780Y3389780D01*
X1912460Y3389420D01*
X1910420Y3389100D01*
X1908280Y3388580D01*
X1906060Y3387860D01*
X1903760Y3386980D01*
X1901420Y3385940D01*
X1899060Y3384760D01*
X1896680Y3383440D01*
X1894300Y3382000D01*
X1889660Y3378800D01*
X1887440Y3377080D01*
X1883260Y3373440D01*
X1881339Y3371540D01*
X1879580Y3369620D01*
X1877960Y3367700D01*
X1876540Y3365760D01*
X1875300Y3363820D01*
X1874300Y3361920D01*
X1873520Y3360160D01*
X1872820Y3358279D01*
X1871680Y3354200D01*
X1870840Y3349760D01*
X1870340Y3344980D01*
X1870160Y3339900D01*
X1870340Y3334580D01*
X1870629Y3329060D01*
X1938839Y3329060D01*
X1938959Y3330620D01*
X1939340Y3332320D01*
X1939920Y3334120D01*
X1940680Y3335940D01*
X1941620Y3337740D01*
X1942680Y3339480D01*
X1943860Y3341060D01*
X1945120Y3342480D01*
X1947240Y3344400D01*
X1949400Y3345960D01*
X1951579Y3347120D01*
X1953760Y3347919D01*
X1956000Y3348340D01*
X1958240Y3348399D01*
X1960500Y3348060D01*
X1962800Y3347360D01*
X1965120Y3346259D01*
X1967460Y3344800D01*
X1969840Y3342960D01*
X1972220Y3340740D01*
X1974319Y3338519D01*
X1976000Y3336480D01*
X1977260Y3334540D01*
X1978120Y3332640D01*
X1978620Y3330740D01*
X1978800Y3328740D01*
X1978640Y3326620D01*
X1978180Y3324280D01*
X1977560Y3322080D01*
X1976780Y3320040D01*
X1975860Y3318180D01*
X1974800Y3316460D01*
X1973640Y3314920D01*
X1972380Y3313540D01*
X1971020Y3312300D01*
X1969560Y3311240D01*
X1968040Y3310320D01*
X1966459Y3309560D01*
X1964820Y3308940D01*
X1963160Y3308500D01*
X1961459Y3308180D01*
X1959740Y3308020D01*
X1958020Y3308020D01*
X1956320Y3308140D01*
X1954620Y3308420D01*
X1952940Y3308860D01*
X1951320Y3309420D01*
X1949740Y3310120D01*
X1948220Y3310960D01*
X1946780Y3311940D01*
X1945420Y3313060D01*
X1944160Y3314320D01*
X1943000Y3315700D01*
X1941960Y3317220D01*
X1941060Y3318880D01*
X1940300Y3320659D01*
X1939680Y3322559D01*
X1939220Y3324600D01*
X1938940Y3326760D01*
X1938839Y3329060D01*
X1870629Y3329060D01*
X1870700Y3325040D01*
X1870560Y3322760D01*
X1870260Y3320820D01*
X1869740Y3319160D01*
X1868980Y3317660D01*
X1867980Y3316300D01*
X1866660Y3314980D01*
X1865040Y3313620D01*
X1856440Y3307460D01*
X1852460Y3304200D01*
X1848740Y3300760D01*
X1845300Y3297200D01*
X1842180Y3293519D01*
X1839379Y3289720D01*
X1836879Y3285840D01*
X1834740Y3281880D01*
X1832960Y3277880D01*
X1831540Y3273840D01*
X1830960Y3271820D01*
X1830480Y3269780D01*
X1829840Y3265740D01*
X1828200Y3251280D01*
X1838980Y3262060D01*
X1840740Y3263720D01*
X1842620Y3265340D01*
X1844640Y3266900D01*
X1849000Y3269840D01*
X1853620Y3272500D01*
X1858360Y3274800D01*
X1863120Y3276700D01*
X1865440Y3277480D01*
X1867720Y3278140D01*
X1869920Y3278660D01*
X1872020Y3279040D01*
X1874019Y3279300D01*
X1875900Y3279380D01*
X1877620Y3279320D01*
X1879180Y3279100D01*
X1880560Y3278680D01*
X1882500Y3277380D01*
X1884139Y3275240D01*
X1885260Y3272559D01*
X1885740Y3269640D01*
X1885980Y3266740D01*
X1886480Y3263639D01*
X1887220Y3260419D01*
X1888140Y3257180D01*
X1889199Y3254000D01*
X1890380Y3251000D01*
X1891639Y3248220D01*
X1892920Y3245800D01*
X1894220Y3243800D01*
X1895460Y3242320D01*
X1896639Y3241460D01*
X1897680Y3241300D01*
X1899180Y3241580D01*
X1900260Y3241660D01*
X1900880Y3241540D01*
X1901100Y3241200D01*
X1900880Y3240680D01*
X1900240Y3239960D01*
X1899160Y3239040D01*
X1895760Y3236600D01*
X1890660Y3233399D01*
X1885060Y3230040D01*
X1880220Y3226740D01*
X1876600Y3223960D01*
X1874180Y3221960D01*
X1869360Y3217600D01*
X1866960Y3215260D01*
X1863360Y3211480D01*
X1858540Y3206019D01*
X1853720Y3200059D01*
X1851300Y3196880D01*
X1847640Y3191840D01*
X1842760Y3184680D01*
X1837840Y3176940D01*
X1832860Y3168639D01*
X1827840Y3159760D01*
X1822740Y3150299D01*
X1817580Y3140220D01*
X1812360Y3129520D01*
X1807040Y3118200D01*
X1801620Y3106240D01*
X1796100Y3093620D01*
X1790500Y3080340D01*
X1784760Y3066360D01*
X1775280Y3042799D01*
X1762804Y3013100D01*
X1931200Y3013100D01*
X1931240Y3013420D01*
X1931780Y3014480D01*
X1932880Y3016080D01*
X1936860Y3020960D01*
X1943160Y3028039D01*
X1961000Y3047080D01*
X1968800Y3055860D01*
X1975440Y3063900D01*
X1978400Y3067740D01*
X1981160Y3071520D01*
X1983740Y3075260D01*
X1986180Y3079000D01*
X1988500Y3082780D01*
X1990720Y3086660D01*
X1994980Y3094740D01*
X1999400Y3104020D01*
X2003040Y3112460D01*
X2005760Y3119580D01*
X2007460Y3124920D01*
X2007880Y3126780D01*
X2007980Y3128000D01*
X2007920Y3128360D01*
X2007780Y3128540D01*
X2007540Y3128540D01*
X2007220Y3128360D01*
X2006339Y3127360D01*
X2005060Y3125500D01*
X2003420Y3122720D01*
X1998860Y3114380D01*
X1996600Y3110640D01*
X1994860Y3108120D01*
X1993880Y3107200D01*
X1993800Y3107420D01*
X1994120Y3109200D01*
X1995040Y3112500D01*
X1998380Y3122740D01*
X2002660Y3134760D01*
X2005800Y3144360D01*
X2008899Y3154900D01*
X2011699Y3165560D01*
X2013980Y3175520D01*
X2014860Y3179960D01*
X2019300Y3206019D01*
X2021680Y3185899D01*
X2022060Y3181460D01*
X2022300Y3176980D01*
X2022380Y3172480D01*
X2022340Y3167940D01*
X2022160Y3163399D01*
X2021819Y3158840D01*
X2021360Y3154260D01*
X2020760Y3149660D01*
X2020040Y3145080D01*
X2019180Y3140480D01*
X2018180Y3135880D01*
X2017060Y3131300D01*
X2015820Y3126720D01*
X2014440Y3122140D01*
X2012940Y3117580D01*
X2011320Y3113060D01*
X2009580Y3108540D01*
X2007720Y3104060D01*
X2005740Y3099620D01*
X2003640Y3095200D01*
X2001440Y3090820D01*
X1999100Y3086480D01*
X1996660Y3082180D01*
X1994120Y3077940D01*
X1991459Y3073740D01*
X1985820Y3065520D01*
X1982840Y3061500D01*
X1979760Y3057559D01*
X1976579Y3053680D01*
X1973280Y3049860D01*
X1969900Y3046139D01*
X1964660Y3040700D01*
X1961020Y3037180D01*
X1957320Y3033759D01*
X1947600Y3025160D01*
X1940120Y3018840D01*
X1937220Y3016540D01*
X1934880Y3014800D01*
X1933120Y3013620D01*
X1931920Y3012980D01*
X1931540Y3012880D01*
X1931300Y3012919D01*
X1931200Y3013100D01*
X1762804Y3013100D01*
X1754540Y2994260D01*
X1747020Y2977900D01*
X1736660Y2956840D01*
X1732160Y2947420D01*
X1729340Y2941240D01*
X1728660Y2939360D01*
X1729220Y2938780D01*
X1730740Y2938480D01*
X1732980Y2938480D01*
X1737640Y2938940D01*
X1737680Y2938620D01*
X1735940Y2937840D01*
X1730500Y2936000D01*
X1728640Y2935179D01*
X1726900Y2934200D01*
X1725260Y2933039D01*
X1723680Y2931640D01*
X1722120Y2929940D01*
X1720560Y2927940D01*
X1718940Y2925580D01*
X1717240Y2922820D01*
X1713480Y2915920D01*
X1709620Y2908200D01*
X1706660Y2901680D01*
X1704280Y2895800D01*
X1702520Y2890480D01*
X1701360Y2885740D01*
X1701000Y2883560D01*
X1700800Y2881520D01*
X1700740Y2879620D01*
X1700820Y2877820D01*
X1701060Y2876160D01*
X1701440Y2874600D01*
X1701960Y2873159D01*
X1702640Y2871820D01*
X1703460Y2870600D01*
X1704420Y2869480D01*
X1705540Y2868440D01*
X1707100Y2867280D01*
X1708500Y2866600D01*
X1709880Y2866420D01*
X1711320Y2866820D01*
X1712900Y2867820D01*
X1714760Y2869500D01*
X1716980Y2871880D01*
X1721780Y2877500D01*
X1725220Y2881139D01*
X1726500Y2882280D01*
X1727500Y2882940D01*
X1728160Y2883159D01*
X1728540Y2882940D01*
X1728580Y2882240D01*
X1728300Y2881100D01*
X1727700Y2879480D01*
X1726740Y2877420D01*
X1725440Y2874920D01*
X1724019Y2871920D01*
X1723860Y2870400D01*
X1725080Y2870120D01*
X1727800Y2870899D01*
X1729240Y2871520D01*
X1731200Y2872520D01*
X1736300Y2875520D01*
X1742460Y2879440D01*
X1748940Y2883860D01*
X1764520Y2894840D01*
X1756000Y2881960D01*
X1745620Y2865380D01*
X1717600Y2819880D01*
X1716519Y2817620D01*
X1715460Y2815059D01*
X1714440Y2812260D01*
X1713500Y2809340D01*
X1712660Y2806340D01*
X1711960Y2803380D01*
X1711440Y2800560D01*
X1710880Y2796840D01*
X1710580Y2793800D01*
X1710520Y2791360D01*
X1710720Y2789420D01*
X1711220Y2787919D01*
X1712000Y2786780D01*
X1713120Y2785899D01*
X1714560Y2785200D01*
X1716080Y2784820D01*
X1717840Y2784720D01*
X1719800Y2784860D01*
X1721920Y2785260D01*
X1724160Y2785860D01*
X1726459Y2786640D01*
X1728760Y2787600D01*
X1731060Y2788700D01*
X1733300Y2789940D01*
X1735440Y2791259D01*
X1737420Y2792679D01*
X1739199Y2794140D01*
X1740740Y2795640D01*
X1742020Y2797160D01*
X1742960Y2798660D01*
X1743540Y2800120D01*
X1744420Y2802740D01*
X1745380Y2804060D01*
X1746420Y2804080D01*
X1747540Y2802799D01*
X1748180Y2802200D01*
X1749139Y2801920D01*
X1750360Y2801920D01*
X1751840Y2802220D01*
X1753560Y2802760D01*
X1755460Y2803540D01*
X1759740Y2805720D01*
X1764440Y2808560D01*
X1769360Y2811940D01*
X1774240Y2815659D01*
X1778860Y2819560D01*
X1782980Y2823460D01*
X1784780Y2825360D01*
X1786380Y2827220D01*
X1787740Y2828980D01*
X1788820Y2830640D01*
X1789600Y2832180D01*
X1790060Y2833580D01*
X1791940Y2841560D01*
X1792640Y2843960D01*
X1793200Y2845360D01*
X1793620Y2845760D01*
X1793940Y2845220D01*
X1794160Y2843720D01*
X1794280Y2841320D01*
X1794560Y2838580D01*
X1795080Y2836340D01*
X1795800Y2834820D01*
X1796639Y2834260D01*
X1798100Y2834500D01*
X1799620Y2835160D01*
X1801160Y2836200D01*
X1802700Y2837559D01*
X1804199Y2839200D01*
X1805620Y2841080D01*
X1806940Y2843120D01*
X1808100Y2845299D01*
X1809100Y2847580D01*
X1809880Y2849860D01*
X1810400Y2852140D01*
X1810640Y2854360D01*
X1810920Y2858639D01*
X1811279Y2860480D01*
X1811759Y2859900D01*
X1813100Y2854280D01*
X1813920Y2852020D01*
X1814780Y2850520D01*
X1815580Y2849960D01*
X1816459Y2850400D01*
X1820980Y2853759D01*
X1828380Y2859700D01*
X1837700Y2867420D01*
X1847980Y2876139D01*
X1863080Y2889360D01*
X1864940Y2891500D01*
X1865680Y2893740D01*
X1865260Y2896400D01*
X1863740Y2899780D01*
X1862540Y2902220D01*
X1861800Y2904080D01*
X1861519Y2905380D01*
X1861660Y2906139D01*
X1862160Y2906360D01*
X1863000Y2906080D01*
X1864120Y2905299D01*
X1865520Y2904080D01*
X1867140Y2902400D01*
X1868940Y2900299D01*
X1870880Y2897780D01*
X1872940Y2894900D01*
X1874720Y2892180D01*
X1876120Y2889800D01*
X1877180Y2887740D01*
X1877860Y2885980D01*
X1878200Y2884540D01*
X1878180Y2883420D01*
X1877780Y2882640D01*
X1875740Y2881320D01*
X1874920Y2879960D01*
X1874660Y2878260D01*
X1875440Y2874660D01*
X1875240Y2873240D01*
X1874520Y2872260D01*
X1873300Y2871920D01*
X1871960Y2872180D01*
X1870840Y2872880D01*
X1870100Y2873940D01*
X1869580Y2876380D01*
X1868940Y2877040D01*
X1867980Y2877160D01*
X1866800Y2876680D01*
X1866540Y2876259D01*
X1866560Y2875500D01*
X1866860Y2874420D01*
X1867420Y2873080D01*
X1869240Y2869660D01*
X1871940Y2865440D01*
X1875360Y2860640D01*
X1882600Y2851320D01*
X1885740Y2847080D01*
X1888740Y2842840D01*
X1891519Y2838720D01*
X1893980Y2834820D01*
X1896060Y2831280D01*
X1897660Y2828200D01*
X1900500Y2821740D01*
X1902560Y2818480D01*
X1904660Y2816259D01*
X1906540Y2815440D01*
X1908360Y2815640D01*
X1909620Y2816240D01*
X1910280Y2817220D01*
X1910340Y2818620D01*
X1909820Y2820419D01*
X1908700Y2822660D01*
X1907000Y2825320D01*
X1903800Y2829560D01*
X1901600Y2832660D01*
X1896120Y2840940D01*
X1890200Y2850460D01*
X1886200Y2857360D01*
X1884160Y2861139D01*
X1882700Y2864240D01*
X1881759Y2866760D01*
X1881360Y2868740D01*
X1881420Y2870280D01*
X1881980Y2871460D01*
X1882960Y2872340D01*
X1884760Y2873360D01*
X1886660Y2874200D01*
X1888380Y2874780D01*
X1891720Y2875240D01*
X1893980Y2875840D01*
X1896440Y2876740D01*
X1898980Y2877900D01*
X1901540Y2879240D01*
X1904000Y2880720D01*
X1906300Y2882260D01*
X1908300Y2883820D01*
X1909960Y2885340D01*
X1911140Y2886740D01*
X1911800Y2888000D01*
X1911800Y2889020D01*
X1911680Y2889980D01*
X1912000Y2891040D01*
X1912760Y2892140D01*
X1913920Y2893300D01*
X1915460Y2894480D01*
X1917380Y2895680D01*
X1919620Y2896860D01*
X1922200Y2898000D01*
X1934139Y2902940D01*
X1921120Y2902340D01*
X1916200Y2901880D01*
X1912420Y2901100D01*
X1910140Y2900120D01*
X1909760Y2899020D01*
X1909920Y2898140D01*
X1909139Y2897700D01*
X1907560Y2897720D01*
X1905340Y2898260D01*
X1902480Y2898639D01*
X1899280Y2898220D01*
X1896060Y2897080D01*
X1893180Y2895280D01*
X1889880Y2892580D01*
X1888860Y2891520D01*
X1890180Y2891920D01*
X1897000Y2895140D01*
X1899400Y2896120D01*
X1901180Y2896660D01*
X1902360Y2896740D01*
X1903020Y2896360D01*
X1903200Y2895500D01*
X1902960Y2894140D01*
X1902340Y2892300D01*
X1901300Y2890480D01*
X1899800Y2888980D01*
X1898060Y2887960D01*
X1894660Y2887260D01*
X1893680Y2886280D01*
X1893380Y2884800D01*
X1893779Y2882900D01*
X1894520Y2880779D01*
X1894900Y2879260D01*
X1894940Y2878320D01*
X1894680Y2877919D01*
X1894139Y2878039D01*
X1893360Y2878620D01*
X1892380Y2879680D01*
X1891240Y2881139D01*
X1888560Y2885220D01*
X1887080Y2887760D01*
X1884420Y2893020D01*
X1883360Y2895520D01*
X1881540Y2900659D01*
X1880780Y2903180D01*
X1879660Y2907860D01*
X1879280Y2909920D01*
X1879060Y2911720D01*
X1878980Y2913220D01*
X1879079Y2914380D01*
X1879319Y2915100D01*
X1879760Y2915380D01*
X1880360Y2915140D01*
X1881160Y2914340D01*
X1883060Y2911800D01*
X1884079Y2911139D01*
X1885300Y2911000D01*
X1886800Y2911380D01*
X1888640Y2912340D01*
X1890900Y2913900D01*
X1893680Y2916100D01*
X1897020Y2918940D01*
X1899480Y2921180D01*
X1904160Y2925880D01*
X1906240Y2928220D01*
X1908080Y2930440D01*
X1909600Y2932500D01*
X1910780Y2934300D01*
X1911519Y2935800D01*
X1912320Y2937760D01*
X1913020Y2939100D01*
X1913700Y2939820D01*
X1914440Y2939880D01*
X1915320Y2939240D01*
X1916420Y2937880D01*
X1917800Y2935800D01*
X1921380Y2929720D01*
X1925140Y2922980D01*
X1935540Y2903720D01*
X1942900Y2889860D01*
X1951420Y2873519D01*
X1954280Y2867780D01*
X1956279Y2863380D01*
X1957480Y2860120D01*
X1957800Y2858840D01*
X1957940Y2857780D01*
X1957920Y2856880D01*
X1957740Y2856139D01*
X1957400Y2855539D01*
X1956920Y2855020D01*
X1955560Y2854180D01*
X1947280Y2851000D01*
X1943260Y2849280D01*
X1942120Y2848680D01*
X1941579Y2848220D01*
X1941620Y2847900D01*
X1942220Y2847740D01*
X1945140Y2847799D01*
X1952900Y2848639D01*
X1955240Y2848800D01*
X1957320Y2848820D01*
X1959139Y2848700D01*
X1960740Y2848380D01*
X1962100Y2847880D01*
X1963260Y2847160D01*
X1964220Y2846200D01*
X1965020Y2845000D01*
X1965660Y2843519D01*
X1966160Y2841740D01*
X1966540Y2839660D01*
X1966800Y2837240D01*
X1967040Y2831320D01*
X1967160Y2822720D01*
X1967360Y2820779D01*
X1967680Y2819160D01*
X1968220Y2817820D01*
X1969000Y2816720D01*
X1970060Y2815779D01*
X1971440Y2814960D01*
X1973220Y2814240D01*
X1975400Y2813519D01*
X1981240Y2811980D01*
X1985500Y2810680D01*
X1990380Y2808840D01*
X1995540Y2806600D01*
X2000720Y2804080D01*
X2005660Y2801400D01*
X2012520Y2797120D01*
X2015000Y2795659D01*
X2020060Y2793080D01*
X2022620Y2791960D01*
X2025220Y2790940D01*
X2027840Y2790040D01*
X2030480Y2789240D01*
X2033160Y2788560D01*
X2035860Y2787980D01*
X2038600Y2787500D01*
X2044340Y2786860D01*
X2049360Y2786520D01*
X2053180Y2786520D01*
X2054640Y2786620D01*
X2055800Y2786820D01*
X2056660Y2787060D01*
X2057200Y2787400D01*
X2057460Y2787780D01*
X2057400Y2788240D01*
X2057040Y2788740D01*
X2056360Y2789300D01*
X2055400Y2789920D01*
X2052520Y2791300D01*
X2048400Y2792860D01*
X2038640Y2796040D01*
X2033839Y2797919D01*
X2028899Y2800120D01*
X2024100Y2802480D01*
X2019700Y2804900D01*
X2015960Y2807220D01*
X2003839Y2815440D01*
X2027060Y2815580D01*
X2032300Y2815779D01*
X2036100Y2816160D01*
X2037440Y2816420D01*
X2038420Y2816720D01*
X2039040Y2817080D01*
X2039280Y2817460D01*
X2039160Y2817900D01*
X2038680Y2818380D01*
X2037820Y2818920D01*
X2035020Y2820100D01*
X2030740Y2821500D01*
X2025000Y2823060D01*
X2014920Y2825560D01*
X2012200Y2826360D01*
X2009600Y2827240D01*
X2007100Y2828200D01*
X2004720Y2829260D01*
X2002420Y2830419D01*
X2000220Y2831680D01*
X1998080Y2833039D01*
X1996020Y2834520D01*
X1994000Y2836120D01*
X1992040Y2837820D01*
X1990120Y2839660D01*
X1986000Y2844020D01*
X1982840Y2847799D01*
X1981720Y2849340D01*
X1980940Y2850600D01*
X1980580Y2851500D01*
X1980640Y2852020D01*
X1980980Y2852260D01*
X1982320Y2852780D01*
X1984460Y2853399D01*
X1990920Y2854780D01*
X1999760Y2856340D01*
X2010360Y2857980D01*
X2022160Y2859600D01*
X2037660Y2861520D01*
X2049940Y2862840D01*
X2061459Y2863880D01*
X2072320Y2864580D01*
X2083340Y2864920D01*
X2088760Y2864920D01*
X2099460Y2864640D01*
X2104700Y2864340D01*
X2109880Y2863940D01*
X2119920Y2862860D01*
X2124800Y2862180D01*
X2129560Y2861400D01*
X2134200Y2860520D01*
X2138720Y2859540D01*
X2143100Y2858480D01*
X2147340Y2857340D01*
X2151440Y2856100D01*
X2155380Y2854760D01*
X2159140Y2853340D01*
X2166640Y2850179D01*
X2170120Y2848820D01*
X2173180Y2847799D01*
X2175780Y2847100D01*
X2177900Y2846720D01*
X2179520Y2846660D01*
X2180620Y2846960D01*
X2181180Y2847600D01*
X2182120Y2848380D01*
X2183860Y2848000D01*
X2186140Y2846540D01*
X2190500Y2842340D01*
X2192120Y2841000D01*
X2193600Y2840140D01*
X2194980Y2839760D01*
X2196260Y2839860D01*
X2197500Y2840500D01*
X2198680Y2841680D01*
X2199880Y2843399D01*
X2201080Y2845700D01*
X2202300Y2848600D01*
X2203600Y2852100D01*
X2206820Y2862100D01*
X2207220Y2863740D01*
X2207260Y2864600D01*
X2206940Y2864700D01*
X2206240Y2864100D01*
X2203660Y2860940D01*
X2199480Y2855200D01*
X2195440Y2849040D01*
X2194600Y2848260D01*
X2193640Y2847880D01*
X2192520Y2847919D01*
X2191160Y2848399D01*
X2189500Y2849320D01*
X2187480Y2850720D01*
X2181440Y2855200D01*
X2177980Y2857360D01*
X2175060Y2858820D01*
X2173100Y2859360D01*
X2172300Y2858980D01*
X2172540Y2857900D01*
X2173780Y2856320D01*
X2175880Y2854400D01*
X2178160Y2852520D01*
X2179560Y2851240D01*
X2179820Y2850840D01*
X2179760Y2850620D01*
X2179300Y2850580D01*
X2178440Y2850740D01*
X2175320Y2851680D01*
X2162480Y2856300D01*
X2152160Y2860120D01*
X2149400Y2861060D01*
X2146340Y2861940D01*
X2143040Y2862780D01*
X2139480Y2863560D01*
X2135700Y2864280D01*
X2127460Y2865560D01*
X2118500Y2866600D01*
X2108880Y2867420D01*
X2098760Y2868000D01*
X2088260Y2868340D01*
X2080180Y2868440D01*
X2069280Y2868340D01*
X2058300Y2868000D01*
X2047400Y2867400D01*
X2036660Y2866540D01*
X2026220Y2865419D01*
X2001639Y2862020D01*
X1990160Y2860520D01*
X1982000Y2859600D01*
X1978839Y2859360D01*
X1977900Y2859540D01*
X1976879Y2860020D01*
X1975760Y2860820D01*
X1974580Y2861900D01*
X1972040Y2864800D01*
X1969379Y2868560D01*
X1966699Y2873000D01*
X1964079Y2877960D01*
X1961620Y2883240D01*
X1959420Y2888680D01*
X1957600Y2894100D01*
X1955140Y2903420D01*
X1953740Y2907080D01*
X1952240Y2909900D01*
X1950820Y2911480D01*
X1949600Y2912400D01*
X1948380Y2913660D01*
X1947160Y2915220D01*
X1945980Y2917040D01*
X1944800Y2919080D01*
X1943680Y2921300D01*
X1941560Y2926200D01*
X1939700Y2931440D01*
X1938180Y2936760D01*
X1937020Y2941880D01*
X1936620Y2944280D01*
X1936200Y2948600D01*
X1936200Y2950440D01*
X1936360Y2952020D01*
X1936680Y2953300D01*
X1937160Y2954280D01*
X1937800Y2954880D01*
X1938660Y2955100D01*
X1939700Y2954880D01*
X1940260Y2954840D01*
X1941160Y2954980D01*
X1943800Y2955800D01*
X1947480Y2957320D01*
X1952040Y2959440D01*
X1957320Y2962080D01*
X1963200Y2965200D01*
X1969500Y2968700D01*
X1976100Y2972520D01*
X1985200Y2978100D01*
X1991879Y2982460D01*
X2000600Y2988500D01*
X2004860Y2991620D01*
X2011140Y2996400D01*
X2019280Y3002960D01*
X2027160Y3009740D01*
X2034760Y3016700D01*
X2038440Y3020240D01*
X2043820Y3025659D01*
X2049019Y3031139D01*
X2054019Y3036720D01*
X2057260Y3040480D01*
X2063460Y3048100D01*
X2066440Y3051960D01*
X2072080Y3059740D01*
X2077360Y3067620D01*
X2082240Y3075580D01*
X2085620Y3081580D01*
X2089760Y3089620D01*
X2091660Y3093660D01*
X2093120Y3097000D01*
X2094400Y3100360D01*
X2095540Y3103720D01*
X2096519Y3107120D01*
X2097320Y3110580D01*
X2097980Y3114080D01*
X2098460Y3117679D01*
X2098780Y3121340D01*
X2098940Y3125120D01*
X2098920Y3129020D01*
X2098740Y3133020D01*
X2098380Y3137180D01*
X2097840Y3141500D01*
X2097140Y3145980D01*
X2096260Y3150640D01*
X2095220Y3155480D01*
X2093980Y3160539D01*
X2090980Y3171340D01*
X2087240Y3183120D01*
X2082760Y3196000D01*
X2078280Y3208080D01*
X2074139Y3218580D01*
X2068820Y3231360D01*
X2064620Y3240880D01*
X2060660Y3249360D01*
X2057100Y3256420D01*
X2054100Y3261740D01*
X2052120Y3264740D01*
X2049199Y3268880D01*
X2045940Y3273240D01*
X2038720Y3282320D01*
X2030980Y3291380D01*
X2023220Y3299880D01*
X2015980Y3307260D01*
X2012700Y3310380D01*
X2009740Y3313000D01*
X2007160Y3315080D01*
X2005040Y3316520D01*
X2003420Y3317280D01*
X2001120Y3317799D01*
X1999720Y3318980D01*
X1998779Y3320740D01*
X1998420Y3322860D01*
X1998320Y3324160D01*
X1998040Y3325720D01*
X1997020Y3329420D01*
X1995500Y3333500D01*
X1992200Y3340360D01*
X1991200Y3342700D01*
X1990660Y3344640D01*
X1990620Y3346360D01*
X1991100Y3347980D01*
X1992100Y3349700D01*
X1993660Y3351640D01*
X2002720Y3361340D01*
X1991020Y3373500D01*
X1988779Y3375580D01*
X1986960Y3376980D01*
X1985380Y3377780D01*
X1983980Y3377960D01*
X1982640Y3377620D01*
X1981200Y3376740D01*
X1977800Y3373900D01*
X1976040Y3372700D01*
X1974360Y3371740D01*
X1972780Y3371080D01*
X1971380Y3370680D01*
X1970200Y3370539D01*
X1969280Y3370680D01*
X1968660Y3371080D01*
X1968400Y3371760D01*
X1968540Y3372700D01*
X1969139Y3373920D01*
X1971960Y3377940D01*
X1972540Y3380140D01*
X1971940Y3382340D01*
X1970140Y3384900D01*
X1967860Y3387320D01*
X1965960Y3388120D01*
X1963820Y3387320D01*
X1960880Y3384900D01*
X1958640Y3383180D01*
X1956620Y3382220D01*
X1954920Y3381920D01*
X1953660Y3382260D01*
X1952940Y3383140D01*
X1952840Y3384520D01*
X1953500Y3386340D01*
X1954980Y3388519D01*
X1956399Y3390860D01*
X1956560Y3393200D01*
X1955400Y3395840D01*
X1952880Y3399020D01*
X1951060Y3400980D01*
X1949600Y3402400D01*
X1948340Y3403260D01*
X1947180Y3403600D01*
X1946000Y3403420D01*
X1944680Y3402700D01*
X1943100Y3401480D01*
X1939199Y3398039D01*
X1937600Y3396860D01*
X1936240Y3396220D01*
X1934980Y3396180D01*
X1933700Y3396760D01*
X1932260Y3397980D01*
X1930500Y3399880D01*
X1889400Y3448720D01*
X1880240Y3459780D01*
X1872400Y3469580D01*
X1866380Y3477460D01*
X1864199Y3480460D01*
X1862680Y3482760D01*
X1861840Y3484260D01*
X1861720Y3484660D01*
X1861339Y3488020D01*
X1860900Y3490920D01*
X1860280Y3491840D01*
X1858940Y3492440D01*
G37*
G36*
X1959199Y3339200D02*
G01*
X1957020Y3338920D01*
X1954900Y3338360D01*
X1952900Y3337540D01*
X1951120Y3336440D01*
X1949620Y3335100D01*
X1948480Y3333500D01*
X1948298Y3333060D01*
X1957660Y3333060D01*
X1957920Y3334280D01*
X1958580Y3335280D01*
X1959580Y3335960D01*
X1960800Y3336200D01*
X1962020Y3335960D01*
X1963020Y3335280D01*
X1963700Y3334280D01*
X1963940Y3333060D01*
X1963700Y3331840D01*
X1963020Y3330840D01*
X1962020Y3330179D01*
X1960800Y3329920D01*
X1959580Y3330179D01*
X1958580Y3330840D01*
X1957920Y3331840D01*
X1957660Y3333060D01*
X1948298Y3333060D01*
X1947620Y3331420D01*
X1947200Y3329380D01*
X1947180Y3327380D01*
X1947560Y3325460D01*
X1948300Y3323680D01*
X1949360Y3322060D01*
X1950720Y3320640D01*
X1952360Y3319460D01*
X1954220Y3318560D01*
X1956300Y3317960D01*
X1958540Y3317720D01*
X1960940Y3317860D01*
X1962780Y3318260D01*
X1964460Y3318920D01*
X1965920Y3319800D01*
X1967180Y3320880D01*
X1968240Y3322160D01*
X1969079Y3323600D01*
X1969700Y3325200D01*
X1970060Y3326920D01*
X1970200Y3328780D01*
X1970060Y3330720D01*
X1969680Y3332740D01*
X1969000Y3334820D01*
X1968140Y3336280D01*
X1966879Y3337460D01*
X1965260Y3338340D01*
X1963400Y3338900D01*
X1961339Y3339200D01*
G37*
G36*
X2158960Y2961700D02*
G01*
X2148700Y2961560D01*
X2135260Y2961060D01*
X2127040Y2960620D01*
X2110580Y2959420D01*
X2099880Y2958380D01*
X2089660Y2957200D01*
X2080100Y2955840D01*
X2071420Y2954360D01*
X2061860Y2952340D01*
X2035060Y2946259D01*
X2007900Y2939680D01*
X1985920Y2934060D01*
X1968260Y2929220D01*
X1961699Y2927280D01*
X1957040Y2925740D01*
X1955500Y2925140D01*
X1954520Y2924660D01*
X1953300Y2923639D01*
X1954000Y2923220D01*
X1956519Y2923420D01*
X1963220Y2924720D01*
X1968700Y2925560D01*
X1974440Y2926160D01*
X1979780Y2926480D01*
X1986380Y2926600D01*
X1988839Y2927080D01*
X1989500Y2927940D01*
X1987360Y2930280D01*
X1988240Y2930820D01*
X1990900Y2930800D01*
X2000300Y2929520D01*
X2002900Y2929520D01*
X2003280Y2930240D01*
X1999660Y2933360D01*
X1999580Y2934180D01*
X2001459Y2934300D01*
X2008620Y2933440D01*
X2011020Y2933500D01*
X2012400Y2933940D01*
X2012520Y2934940D01*
X2012760Y2935200D01*
X2013880Y2935840D01*
X2015860Y2936600D01*
X2018580Y2937500D01*
X2026020Y2939600D01*
X2035660Y2941980D01*
X2046860Y2944500D01*
X2065420Y2948320D01*
X2078100Y2950680D01*
X2090340Y2952720D01*
X2101200Y2954280D01*
X2111620Y2955360D01*
X2122300Y2956040D01*
X2127700Y2956259D01*
X2138600Y2956420D01*
X2149520Y2956220D01*
X2157680Y2955840D01*
X2165740Y2955280D01*
X2173680Y2954540D01*
X2184020Y2953260D01*
X2193980Y2951660D01*
X2198800Y2950760D01*
X2203460Y2949780D01*
X2212380Y2947600D01*
X2216600Y2946400D01*
X2220620Y2945140D01*
X2224460Y2943800D01*
X2228100Y2942400D01*
X2231540Y2940920D01*
X2235000Y2939240D01*
X2238300Y2937260D01*
X2239740Y2936200D01*
X2241060Y2935059D01*
X2242260Y2933880D01*
X2243320Y2932600D01*
X2244260Y2931240D01*
X2245100Y2929800D01*
X2245800Y2928240D01*
X2246380Y2926560D01*
X2246860Y2924780D01*
X2247220Y2922860D01*
X2247480Y2920800D01*
X2247620Y2918600D01*
X2247580Y2913720D01*
X2247120Y2908140D01*
X2246280Y2901800D01*
X2245040Y2894640D01*
X2244280Y2890740D01*
X2244140Y2889540D01*
X2244320Y2889180D01*
X2244800Y2889580D01*
X2245540Y2890720D01*
X2247760Y2895020D01*
X2250760Y2901720D01*
X2252880Y2906900D01*
X2254800Y2911920D01*
X2256440Y2916540D01*
X2257700Y2920539D01*
X2258520Y2923700D01*
X2258740Y2924880D01*
X2258800Y2925760D01*
X2258540Y2927000D01*
X2257760Y2928560D01*
X2256540Y2930340D01*
X2254920Y2932300D01*
X2252960Y2934400D01*
X2250700Y2936520D01*
X2248220Y2938660D01*
X2243860Y2941960D01*
X2240420Y2944260D01*
X2236940Y2946360D01*
X2233340Y2948279D01*
X2229600Y2950040D01*
X2225640Y2951660D01*
X2221420Y2953159D01*
X2216900Y2954560D01*
X2212000Y2955860D01*
X2206720Y2957080D01*
X2200960Y2958260D01*
X2189900Y2960200D01*
X2183160Y2960940D01*
X2175200Y2961420D01*
X2166220Y2961680D01*
G37*
G36*
X2144320Y2952520D02*
G01*
X2112940Y2952160D01*
X2177260Y2950120D01*
X2161640Y2926019D01*
X2156100Y2917919D01*
X2150760Y2910380D01*
X2146260Y2904340D01*
X2136960Y2892700D01*
X2139160Y2916980D01*
X2140260Y2924500D01*
X2140880Y2927720D01*
X2141520Y2930480D01*
X2142200Y2932660D01*
X2142840Y2934200D01*
X2144100Y2935880D01*
X2143620Y2936860D01*
X2142140Y2937820D01*
X2139800Y2938639D01*
X2134480Y2940179D01*
X2130980Y2941440D01*
X2130700Y2941340D01*
X2130440Y2940779D01*
X2130020Y2938420D01*
X2129720Y2934580D01*
X2129580Y2929500D01*
X2129580Y2923440D01*
X2129920Y2909740D01*
X2129840Y2903840D01*
X2129560Y2898940D01*
X2129060Y2895080D01*
X2128740Y2893560D01*
X2128360Y2892320D01*
X2127960Y2891360D01*
X2127500Y2890680D01*
X2127000Y2890299D01*
X2126460Y2890200D01*
X2125900Y2890419D01*
X2125280Y2890920D01*
X2124640Y2891760D01*
X2123960Y2892900D01*
X2121340Y2898759D01*
X2120300Y2899740D01*
X2119120Y2899120D01*
X2116800Y2895960D01*
X2116200Y2895520D01*
X2115680Y2895640D01*
X2115280Y2896320D01*
X2114960Y2897600D01*
X2114740Y2899460D01*
X2114560Y2905000D01*
X2114620Y2907640D01*
X2114840Y2910220D01*
X2115160Y2912720D01*
X2115580Y2915040D01*
X2116120Y2917120D01*
X2116720Y2918920D01*
X2117400Y2920340D01*
X2119560Y2923420D01*
X2119800Y2925880D01*
X2118780Y2928960D01*
X2116480Y2932919D01*
X2114900Y2935120D01*
X2113260Y2936940D01*
X2111580Y2938380D01*
X2109840Y2939460D01*
X2108040Y2940140D01*
X2106160Y2940460D01*
X2104200Y2940400D01*
X2102140Y2939960D01*
X2100000Y2939140D01*
X2097740Y2937960D01*
X2095380Y2936400D01*
X2092900Y2934480D01*
X2090680Y2932520D01*
X2088980Y2930800D01*
X2087800Y2929360D01*
X2087100Y2928200D01*
X2086879Y2927340D01*
X2087100Y2926820D01*
X2087740Y2926640D01*
X2088779Y2926820D01*
X2090200Y2927360D01*
X2091960Y2928320D01*
X2094079Y2929680D01*
X2099780Y2934000D01*
X2102420Y2935820D01*
X2104480Y2936960D01*
X2106020Y2937440D01*
X2107080Y2937240D01*
X2107780Y2936400D01*
X2108140Y2934880D01*
X2108240Y2932720D01*
X2107980Y2931460D01*
X2107200Y2929800D01*
X2105960Y2927820D01*
X2104340Y2925580D01*
X2102360Y2923159D01*
X2100100Y2920620D01*
X2097620Y2918039D01*
X2094940Y2915500D01*
X2081639Y2903340D01*
X2085170Y2899840D01*
X2093100Y2899840D01*
X2094460Y2902140D01*
X2097340Y2904660D01*
X2099900Y2906500D01*
X2102300Y2908000D01*
X2104280Y2909040D01*
X2105560Y2909460D01*
X2106580Y2909120D01*
X2107620Y2908080D01*
X2108600Y2906460D01*
X2109480Y2904340D01*
X2110260Y2901880D01*
X2110860Y2899160D01*
X2111240Y2896280D01*
X2111380Y2893399D01*
X2111140Y2891640D01*
X2110480Y2890220D01*
X2109460Y2889160D01*
X2108140Y2888440D01*
X2106580Y2888060D01*
X2104860Y2888020D01*
X2103020Y2888320D01*
X2101140Y2888940D01*
X2099300Y2889880D01*
X2097540Y2891120D01*
X2095920Y2892700D01*
X2094520Y2894580D01*
X2093140Y2897420D01*
X2093100Y2899840D01*
X2085170Y2899840D01*
X2091020Y2894040D01*
X2092980Y2892240D01*
X2095080Y2890560D01*
X2097320Y2889020D01*
X2099640Y2887600D01*
X2102020Y2886340D01*
X2104420Y2885220D01*
X2106820Y2884280D01*
X2109160Y2883500D01*
X2111440Y2882919D01*
X2113600Y2882520D01*
X2115640Y2882340D01*
X2117500Y2882360D01*
X2119160Y2882600D01*
X2120560Y2883080D01*
X2121720Y2883820D01*
X2123680Y2886139D01*
X2124800Y2886480D01*
X2125960Y2885840D01*
X2127960Y2883240D01*
X2128820Y2882520D01*
X2129780Y2882040D01*
X2130860Y2881780D01*
X2132040Y2881740D01*
X2133300Y2881940D01*
X2134680Y2882340D01*
X2136120Y2882940D01*
X2137640Y2883740D01*
X2139220Y2884760D01*
X2140860Y2885960D01*
X2142560Y2887360D01*
X2144300Y2888940D01*
X2147900Y2892620D01*
X2149740Y2894720D01*
X2153460Y2899420D01*
X2155340Y2902000D01*
X2163820Y2914420D01*
X2167240Y2919120D01*
X2169360Y2921760D01*
X2169820Y2922100D01*
X2169980Y2921720D01*
X2170080Y2920620D01*
X2170000Y2916580D01*
X2169600Y2910620D01*
X2168260Y2895980D01*
X2168120Y2892960D01*
X2168140Y2890280D01*
X2168300Y2887860D01*
X2168461Y2886740D01*
X2175420Y2886740D01*
X2175500Y2893519D01*
X2175860Y2901440D01*
X2176460Y2909700D01*
X2177180Y2917000D01*
X2178020Y2923399D01*
X2178940Y2928620D01*
X2179400Y2930700D01*
X2179880Y2932380D01*
X2180340Y2933620D01*
X2180780Y2934380D01*
X2181200Y2934660D01*
X2182220Y2934260D01*
X2182760Y2933200D01*
X2182800Y2931620D01*
X2182040Y2928780D01*
X2181560Y2925640D01*
X2181140Y2921019D01*
X2180800Y2915220D01*
X2180540Y2908580D01*
X2180380Y2893380D01*
X2180200Y2886040D01*
X2179860Y2880380D01*
X2179620Y2878180D01*
X2179320Y2876400D01*
X2179000Y2875040D01*
X2178620Y2874100D01*
X2178220Y2873580D01*
X2177760Y2873480D01*
X2177240Y2873800D01*
X2176800Y2874500D01*
X2176400Y2875600D01*
X2176080Y2877100D01*
X2175620Y2881220D01*
X2175420Y2886740D01*
X2168461Y2886740D01*
X2168620Y2885640D01*
X2169140Y2883540D01*
X2169860Y2881500D01*
X2170780Y2879440D01*
X2171940Y2877280D01*
X2173340Y2874940D01*
X2175000Y2872380D01*
X2176760Y2869900D01*
X2178640Y2867520D01*
X2180620Y2865299D01*
X2182600Y2863300D01*
X2184560Y2861560D01*
X2186400Y2860140D01*
X2188100Y2859100D01*
X2189560Y2858519D01*
X2192060Y2858100D01*
X2193980Y2858240D01*
X2195280Y2858840D01*
X2195940Y2859760D01*
X2195920Y2860880D01*
X2195160Y2862140D01*
X2193680Y2863380D01*
X2190240Y2865100D01*
X2189320Y2865960D01*
X2188600Y2867080D01*
X2188120Y2868519D01*
X2187820Y2870260D01*
X2187740Y2872380D01*
X2187860Y2874860D01*
X2191980Y2907679D01*
X2192540Y2910659D01*
X2193140Y2913080D01*
X2193800Y2914940D01*
X2194520Y2916259D01*
X2195300Y2917040D01*
X2196140Y2917280D01*
X2197060Y2917000D01*
X2198480Y2916320D01*
X2198920Y2916440D01*
X2198380Y2917380D01*
X2194980Y2921400D01*
X2193740Y2923399D01*
X2193120Y2925040D01*
X2193080Y2926220D01*
X2193620Y2926880D01*
X2194700Y2926920D01*
X2196320Y2926280D01*
X2198440Y2924840D01*
X2201320Y2922660D01*
X2202380Y2922160D01*
X2201700Y2923500D01*
X2196840Y2930240D01*
X2192660Y2935659D01*
X2190960Y2937720D01*
X2189480Y2939340D01*
X2188180Y2940580D01*
X2187080Y2941440D01*
X2186120Y2941920D01*
X2185300Y2942080D01*
X2184600Y2941940D01*
X2183980Y2941480D01*
X2183420Y2940740D01*
X2182360Y2939580D01*
X2181300Y2939520D01*
X2180240Y2940520D01*
X2179220Y2942600D01*
X2178720Y2944160D01*
X2178620Y2945360D01*
X2179040Y2946200D01*
X2180060Y2946720D01*
X2181780Y2946960D01*
X2184300Y2946940D01*
X2187720Y2946680D01*
X2207060Y2944500D01*
X2189980Y2949040D01*
X2186680Y2949700D01*
X2182800Y2950299D01*
X2173640Y2951340D01*
X2163240Y2952080D01*
X2155080Y2952420D01*
G37*
G36*
X2101960Y2949880D02*
G01*
X2098540Y2949760D01*
X2094019Y2949360D01*
X2082600Y2947860D01*
X2069340Y2945680D01*
X2059180Y2943800D01*
X2046620Y2941200D01*
X2041240Y2939940D01*
X2036720Y2938759D01*
X2033260Y2937720D01*
X2031100Y2936820D01*
X2030560Y2936440D01*
X2030320Y2935720D01*
X2031339Y2935419D01*
X2033440Y2935580D01*
X2040400Y2937060D01*
X2049440Y2938820D01*
X2061519Y2941019D01*
X2078779Y2944000D01*
X2091180Y2946240D01*
X2099680Y2948100D01*
X2102240Y2948820D01*
X2103540Y2949380D01*
X2103680Y2949580D01*
X2103480Y2949740D01*
G37*
G36*
X2212860Y2943840D02*
G01*
X2209880Y2943660D01*
X2208940Y2943240D01*
X2210080Y2942400D01*
X2215880Y2939700D01*
X2216980Y2938780D01*
X2216660Y2938159D01*
X2213320Y2937400D01*
X2213200Y2936620D01*
X2214500Y2935460D01*
X2217260Y2933960D01*
X2220000Y2932240D01*
X2222260Y2930080D01*
X2223780Y2927760D01*
X2224360Y2925539D01*
X2224500Y2923300D01*
X2224940Y2922420D01*
X2225760Y2922900D01*
X2228460Y2926560D01*
X2229580Y2927020D01*
X2230620Y2926080D01*
X2231720Y2923680D01*
X2232500Y2921200D01*
X2233140Y2918340D01*
X2233560Y2915419D01*
X2233720Y2912820D01*
X2234100Y2910320D01*
X2235100Y2907700D01*
X2236600Y2905240D01*
X2238420Y2903279D01*
X2239800Y2902260D01*
X2240880Y2901720D01*
X2241700Y2901760D01*
X2242300Y2902440D01*
X2242720Y2903820D01*
X2242980Y2905980D01*
X2243100Y2908960D01*
X2243140Y2912840D01*
X2243000Y2917919D01*
X2242640Y2921840D01*
X2242120Y2924200D01*
X2241460Y2924620D01*
X2240920Y2924500D01*
X2239980Y2924800D01*
X2238720Y2925500D01*
X2237180Y2926540D01*
X2235400Y2927900D01*
X2231380Y2931420D01*
X2226980Y2935620D01*
X2224660Y2937580D01*
X2222340Y2939360D01*
X2220060Y2940899D01*
X2217920Y2942160D01*
X2215940Y2943100D01*
X2214240Y2943680D01*
G37*
G36*
X2062940Y2934160D02*
G01*
X2061940Y2933600D01*
X2061120Y2932480D01*
X2060420Y2930800D01*
X2059900Y2930000D01*
X2058940Y2929260D01*
X2057560Y2928620D01*
X2055820Y2928039D01*
X2053760Y2927580D01*
X2051420Y2927240D01*
X2048880Y2927020D01*
X2043060Y2926920D01*
X2040580Y2926800D01*
X2038700Y2926600D01*
X2037420Y2926300D01*
X2036720Y2925920D01*
X2036600Y2925440D01*
X2037040Y2924880D01*
X2038040Y2924220D01*
X2039240Y2923700D01*
X2040780Y2923260D01*
X2042600Y2922900D01*
X2046800Y2922500D01*
X2049079Y2922460D01*
X2051380Y2922540D01*
X2056780Y2923060D01*
X2059259Y2923159D01*
X2061140Y2923000D01*
X2062500Y2922559D01*
X2063420Y2921760D01*
X2063980Y2920580D01*
X2064240Y2918960D01*
X2064319Y2916860D01*
X2064199Y2914980D01*
X2063800Y2913340D01*
X2063120Y2911900D01*
X2062100Y2910659D01*
X2060720Y2909540D01*
X2058940Y2908540D01*
X2056759Y2907640D01*
X2054120Y2906800D01*
X2043940Y2903860D01*
X2056800Y2903420D01*
X2059019Y2903140D01*
X2060780Y2902700D01*
X2062160Y2902080D01*
X2063160Y2901259D01*
X2063820Y2900220D01*
X2064199Y2898920D01*
X2064319Y2897360D01*
X2064180Y2895840D01*
X2063720Y2894500D01*
X2062940Y2893340D01*
X2061800Y2892320D01*
X2060300Y2891420D01*
X2058380Y2890640D01*
X2056060Y2889960D01*
X2053300Y2889360D01*
X2048720Y2888740D01*
X2046519Y2888580D01*
X2042580Y2888620D01*
X2040940Y2888800D01*
X2039640Y2889100D01*
X2037320Y2890179D01*
X2036680Y2890120D01*
X2036759Y2889280D01*
X2037580Y2887720D01*
X2038340Y2886840D01*
X2039400Y2886120D01*
X2040780Y2885560D01*
X2042440Y2885179D01*
X2044400Y2884960D01*
X2046639Y2884900D01*
X2049139Y2885040D01*
X2054360Y2885580D01*
X2056800Y2885680D01*
X2059120Y2885640D01*
X2061279Y2885460D01*
X2063240Y2885140D01*
X2064900Y2884720D01*
X2066240Y2884160D01*
X2067180Y2883500D01*
X2068760Y2882140D01*
X2069820Y2881800D01*
X2070420Y2882460D01*
X2070600Y2884160D01*
X2070960Y2885659D01*
X2071940Y2886580D01*
X2073420Y2886880D01*
X2077240Y2886040D01*
X2078740Y2886400D01*
X2079680Y2887480D01*
X2080000Y2889260D01*
X2079760Y2891060D01*
X2079079Y2892520D01*
X2078080Y2893500D01*
X2076879Y2893880D01*
X2075660Y2894380D01*
X2074660Y2895779D01*
X2073980Y2897820D01*
X2073740Y2900340D01*
X2073980Y2902679D01*
X2074660Y2904320D01*
X2075660Y2905100D01*
X2078080Y2904640D01*
X2079040Y2905560D01*
X2079620Y2907460D01*
X2079760Y2910160D01*
X2079540Y2912660D01*
X2079120Y2914120D01*
X2078560Y2914440D01*
X2077940Y2913480D01*
X2076900Y2911540D01*
X2075740Y2910280D01*
X2074520Y2909700D01*
X2073340Y2909740D01*
X2072260Y2910419D01*
X2071399Y2911680D01*
X2070820Y2913480D01*
X2070600Y2915840D01*
X2070880Y2918260D01*
X2071680Y2920260D01*
X2072860Y2921620D01*
X2074280Y2922100D01*
X2075240Y2922580D01*
X2075120Y2923900D01*
X2073980Y2925840D01*
X2071940Y2928200D01*
X2069460Y2930600D01*
X2067360Y2932380D01*
X2065600Y2933560D01*
X2064139Y2934160D01*
G37*
G36*
X2013860Y2928220D02*
G01*
X2012400Y2928060D01*
X2010700Y2927660D01*
X2008800Y2927020D01*
X2006660Y2926120D01*
X2004300Y2925000D01*
X1999019Y2922020D01*
X1996420Y2920260D01*
X1994240Y2918420D01*
X1992480Y2916560D01*
X1991140Y2914680D01*
X1990240Y2912840D01*
X1989780Y2911060D01*
X1989740Y2909400D01*
X1990180Y2907860D01*
X1991040Y2906500D01*
X1992380Y2905360D01*
X1994180Y2904440D01*
X1996440Y2903820D01*
X1999160Y2903560D01*
X2000600Y2904240D01*
X2000900Y2906019D01*
X2000160Y2909080D01*
X1999600Y2912180D01*
X2000120Y2914780D01*
X2001780Y2916980D01*
X2004640Y2918920D01*
X2006860Y2920000D01*
X2008839Y2920700D01*
X2010580Y2921040D01*
X2012080Y2920960D01*
X2013380Y2920500D01*
X2014480Y2919620D01*
X2015360Y2918320D01*
X2016080Y2916580D01*
X2016620Y2914380D01*
X2016980Y2911740D01*
X2017200Y2908620D01*
X2017260Y2905020D01*
X2017200Y2901139D01*
X2016940Y2897900D01*
X2016440Y2895200D01*
X2015660Y2892919D01*
X2014540Y2890940D01*
X2013020Y2889160D01*
X2011080Y2887440D01*
X2008640Y2885700D01*
X2005040Y2883519D01*
X2001620Y2881900D01*
X1998779Y2880940D01*
X1996879Y2880860D01*
X1995940Y2880920D01*
X1995740Y2880400D01*
X1996240Y2879420D01*
X1997420Y2878039D01*
X1998520Y2877100D01*
X1999760Y2876500D01*
X2001180Y2876240D01*
X2002860Y2876300D01*
X2004840Y2876700D01*
X2007180Y2877460D01*
X2009940Y2878600D01*
X2013200Y2880080D01*
X2025300Y2885860D01*
X2024660Y2909060D01*
X2024379Y2912799D01*
X2024000Y2915980D01*
X2023540Y2918580D01*
X2022980Y2920580D01*
X2022340Y2921980D01*
X2021620Y2922760D01*
X2020800Y2922900D01*
X2019420Y2922840D01*
X2018300Y2923260D01*
X2017540Y2924080D01*
X2017260Y2925240D01*
X2017120Y2926340D01*
X2016699Y2927180D01*
X2016020Y2927780D01*
X2015060Y2928120D01*
G37*
G36*
X1970000Y2921940D02*
G01*
X1968720Y2921860D01*
X1966960Y2921500D01*
X1964740Y2920880D01*
X1958920Y2918860D01*
X1955160Y2917160D01*
X1953120Y2915560D01*
X1952680Y2913940D01*
X1953800Y2912180D01*
X1955840Y2910960D01*
X1958380Y2911060D01*
X1961600Y2912540D01*
X1965700Y2915419D01*
X1967760Y2917120D01*
X1969340Y2918560D01*
X1970440Y2919740D01*
X1971040Y2920680D01*
X1971180Y2921360D01*
X1970820Y2921780D01*
G37*
G36*
X2229660Y2911760D02*
G01*
X2228660Y2911680D01*
X2227460Y2911120D01*
X2226240Y2909960D01*
X2225240Y2908200D01*
X2224600Y2906100D01*
X2224360Y2903880D01*
X2224500Y2901300D01*
X2224940Y2900340D01*
X2225860Y2901019D01*
X2227460Y2903279D01*
X2228640Y2905320D01*
X2229620Y2907360D01*
X2230280Y2909180D01*
X2230540Y2910520D01*
X2230320Y2911360D01*
G37*
G36*
X1924720Y2909460D02*
G01*
X1923140Y2909220D01*
X1921120Y2908560D01*
X1918959Y2907600D01*
X1916879Y2906420D01*
X1915300Y2905240D01*
X1914480Y2904280D01*
X1914460Y2903620D01*
X1915320Y2903380D01*
X1916900Y2903620D01*
X1918920Y2904280D01*
X1921080Y2905240D01*
X1923160Y2906420D01*
X1924740Y2907600D01*
X1925560Y2908560D01*
X1925580Y2909220D01*
G37*
G36*
X2263200Y2903279D02*
G01*
X2262920Y2903020D01*
X2261660Y2901000D01*
X2256960Y2891960D01*
X2250280Y2878180D01*
X2246880Y2870980D01*
X2243900Y2864920D01*
X2241080Y2859500D01*
X2238340Y2854640D01*
X2235600Y2850240D01*
X2232840Y2846220D01*
X2229980Y2842480D01*
X2226940Y2838920D01*
X2223700Y2835500D01*
X2220160Y2832080D01*
X2214880Y2827360D01*
X2208520Y2822040D01*
X2203280Y2818000D01*
X2201280Y2816620D01*
X2199780Y2815760D01*
X2198880Y2815440D01*
X2197680Y2815320D01*
X2196780Y2814980D01*
X2196180Y2814420D01*
X2195880Y2813639D01*
X2195860Y2812660D01*
X2196120Y2811500D01*
X2196640Y2810160D01*
X2197440Y2808639D01*
X2198520Y2806960D01*
X2199840Y2805120D01*
X2201400Y2803140D01*
X2205300Y2798800D01*
X2210120Y2794000D01*
X2214560Y2789980D01*
X2215961Y2788840D01*
X2228080Y2788840D01*
X2228300Y2789200D01*
X2228960Y2789280D01*
X2230100Y2789060D01*
X2233180Y2788080D01*
X2234360Y2788100D01*
X2235280Y2788620D01*
X2235960Y2789740D01*
X2236480Y2791540D01*
X2236840Y2794080D01*
X2237060Y2797480D01*
X2237540Y2817020D01*
X2240280Y2803060D01*
X2240940Y2800160D01*
X2241740Y2797260D01*
X2242680Y2794460D01*
X2243700Y2791780D01*
X2244800Y2789360D01*
X2245900Y2787240D01*
X2247020Y2785520D01*
X2248100Y2784240D01*
X2249640Y2782820D01*
X2250800Y2781880D01*
X2251580Y2781520D01*
X2252040Y2781760D01*
X2252180Y2782660D01*
X2252040Y2784280D01*
X2250420Y2793080D01*
X2249920Y2797060D01*
X2249520Y2801460D01*
X2249220Y2806080D01*
X2249060Y2810620D01*
X2249040Y2814900D01*
X2249140Y2818020D01*
X2249660Y2824700D01*
X2250500Y2831200D01*
X2251000Y2834160D01*
X2251560Y2836780D01*
X2252140Y2838980D01*
X2253100Y2841680D01*
X2253480Y2842320D01*
X2253820Y2842440D01*
X2254080Y2842060D01*
X2254300Y2841139D01*
X2254560Y2837600D01*
X2254640Y2831700D01*
X2254520Y2817940D01*
X2254780Y2806680D01*
X2255400Y2795800D01*
X2256320Y2786580D01*
X2256860Y2783020D01*
X2259620Y2767860D01*
X2247240Y2774160D01*
X2242420Y2776860D01*
X2237900Y2779760D01*
X2233940Y2782660D01*
X2230820Y2785280D01*
X2229640Y2786440D01*
X2228780Y2787420D01*
X2228240Y2788240D01*
X2228080Y2788840D01*
X2215961Y2788840D01*
X2218320Y2786980D01*
X2222560Y2783900D01*
X2227140Y2780820D01*
X2231940Y2777799D01*
X2236880Y2774880D01*
X2241820Y2772160D01*
X2246640Y2769660D01*
X2251220Y2767440D01*
X2255480Y2765600D01*
X2259280Y2764160D01*
X2262500Y2763200D01*
X2263860Y2762919D01*
X2265020Y2762780D01*
X2266000Y2762780D01*
X2266760Y2762940D01*
X2267280Y2763260D01*
X2267560Y2764760D01*
X2267300Y2767799D01*
X2266540Y2771940D01*
X2265020Y2778000D01*
X2264400Y2780899D01*
X2263860Y2784220D01*
X2263400Y2787900D01*
X2263020Y2791920D01*
X2262480Y2800820D01*
X2262300Y2805640D01*
X2262200Y2815820D01*
X2262400Y2826480D01*
X2262600Y2831900D01*
X2263240Y2842740D01*
X2264180Y2853320D01*
X2265480Y2864000D01*
X2266080Y2870260D01*
X2266500Y2876460D01*
X2266700Y2882280D01*
X2266680Y2887400D01*
X2266420Y2891500D01*
X2266200Y2893080D01*
X2265420Y2897040D01*
X2264580Y2900280D01*
X2263800Y2902480D01*
G37*
G36*
X1914240Y2881040D02*
G01*
X1912820Y2880659D01*
X1911080Y2879880D01*
X1909079Y2878660D01*
X1906800Y2877040D01*
X1904400Y2874900D01*
X1903360Y2873039D01*
X1903600Y2871240D01*
X1905060Y2869300D01*
X1906740Y2867840D01*
X1908400Y2866760D01*
X1909960Y2866040D01*
X1911279Y2865740D01*
X1912300Y2865820D01*
X1912880Y2866300D01*
X1912920Y2867220D01*
X1912300Y2868560D01*
X1911860Y2869840D01*
X1911980Y2871200D01*
X1912600Y2872460D01*
X1914940Y2874440D01*
X1915940Y2875700D01*
X1916639Y2877080D01*
X1916879Y2878380D01*
X1916720Y2879680D01*
X1916200Y2880560D01*
X1915380Y2881000D01*
G37*
G36*
X1921339Y2878180D02*
G01*
X1921279Y2877200D01*
X1922200Y2874500D01*
X1923920Y2870520D01*
X1926300Y2865640D01*
X1927860Y2862660D01*
X1929340Y2860140D01*
X1930720Y2858060D01*
X1931860Y2856680D01*
X1931000Y2855920D01*
X1932380Y2856139D01*
X1931860Y2856680D01*
X1946680Y2869700D01*
X1938060Y2867620D01*
X1935320Y2867160D01*
X1932980Y2867140D01*
X1931100Y2867520D01*
X1929780Y2868200D01*
X1929120Y2869140D01*
X1929160Y2870240D01*
X1930020Y2871460D01*
X1932400Y2873140D01*
X1932320Y2873360D01*
X1931620Y2873360D01*
X1930320Y2873100D01*
X1928680Y2872980D01*
X1927080Y2873340D01*
X1925660Y2874100D01*
X1924640Y2875179D01*
X1923800Y2876360D01*
X1922900Y2877300D01*
X1922040Y2877960D01*
G37*
G36*
X1981459Y2877940D02*
G01*
X1979259Y2877880D01*
X1977760Y2877559D01*
X1977080Y2877000D01*
X1977340Y2876300D01*
X1978400Y2875680D01*
X1979880Y2875440D01*
X1981600Y2875560D01*
X1983340Y2876040D01*
X1984620Y2876740D01*
X1984700Y2877320D01*
X1983640Y2877720D01*
G37*
G36*
X2081639Y2874680D02*
G01*
X2069800Y2874520D01*
X2057540Y2874200D01*
X2045980Y2873740D01*
X2036220Y2873159D01*
X2032360Y2872820D01*
X2029379Y2872460D01*
X2027100Y2872000D01*
X2026399Y2871780D01*
X2026140Y2871560D01*
X2026320Y2871380D01*
X2027900Y2871080D01*
X2031100Y2870880D01*
X2035780Y2870779D01*
X2041900Y2870779D01*
X2058040Y2871120D01*
X2083620Y2872100D01*
X2093480Y2872600D01*
X2100380Y2873080D01*
X2103540Y2873480D01*
X2103900Y2873660D01*
X2103940Y2873820D01*
X2103660Y2873980D01*
X2102200Y2874220D01*
X2099680Y2874420D01*
X2091960Y2874640D01*
G37*
G36*
X2117660Y2874320D02*
G01*
X2113820Y2874200D01*
X2111520Y2873900D01*
X2110900Y2873440D01*
X2112160Y2872880D01*
X2114720Y2872440D01*
X2117660Y2872300D01*
X2120580Y2872440D01*
X2123140Y2872880D01*
X2124400Y2873440D01*
X2123800Y2873900D01*
X2121480Y2874200D01*
G37*
G36*
X2226400Y2873980D02*
G01*
X2225360Y2873039D01*
X2222540Y2869040D01*
X2220880Y2867679D01*
X2219240Y2867060D01*
X2217840Y2867320D01*
X2216700Y2867700D01*
X2215760Y2867400D01*
X2215120Y2866500D01*
X2214520Y2862760D01*
X2213540Y2859600D01*
X2212100Y2855980D01*
X2210360Y2852300D01*
X2207980Y2847559D01*
X2207460Y2846180D01*
X2207380Y2845360D01*
X2207760Y2845080D01*
X2208640Y2845280D01*
X2210020Y2845899D01*
X2211920Y2846900D01*
X2213560Y2847980D01*
X2215280Y2849500D01*
X2217040Y2851380D01*
X2218780Y2853519D01*
X2220480Y2855899D01*
X2222080Y2858399D01*
X2223560Y2861000D01*
X2224840Y2863580D01*
X2225900Y2866100D01*
X2226720Y2868480D01*
X2227200Y2870640D01*
X2227360Y2872540D01*
X2227080Y2873820D01*
G37*
G36*
X1895100Y2871920D02*
G01*
X1893800Y2871660D01*
X1892460Y2871000D01*
X1891200Y2870000D01*
X1890220Y2868780D01*
X1889860Y2867559D01*
X1890280Y2866560D01*
X1891420Y2865880D01*
X1893160Y2865640D01*
X1895060Y2865880D01*
X1896620Y2866560D01*
X1897680Y2867559D01*
X1898060Y2868780D01*
X1897820Y2870000D01*
X1897200Y2871000D01*
X1896260Y2871660D01*
G37*
G36*
X1992960Y2871600D02*
G01*
X1992180Y2871259D01*
X1992960Y2870380D01*
X1995300Y2868780D01*
X1997760Y2867620D01*
X2000940Y2866700D01*
X2004440Y2866139D01*
X2007860Y2866000D01*
X2015700Y2866259D01*
X2007860Y2868780D01*
X2004440Y2869780D01*
X2000940Y2870620D01*
X1997760Y2871259D01*
X1995300Y2871560D01*
G37*
G36*
X2134900Y2871500D02*
G01*
X2134020Y2871400D01*
X2133940Y2871060D01*
X2134620Y2870520D01*
X2135960Y2869800D01*
X2137980Y2868920D01*
X2143700Y2866800D01*
X2150460Y2864620D01*
X2155960Y2863020D01*
X2160440Y2861860D01*
X2163800Y2861139D01*
X2166020Y2860840D01*
X2166660Y2860860D01*
X2167000Y2860980D01*
X2167020Y2861220D01*
X2166720Y2861540D01*
X2165080Y2862500D01*
X2162040Y2863860D01*
X2157540Y2865620D01*
X2151860Y2867600D01*
X2146080Y2869320D01*
X2140720Y2870640D01*
X2136440Y2871380D01*
G37*
G36*
X2236240Y2870940D02*
G01*
X2235540Y2870400D01*
X2232700Y2866980D01*
X2229360Y2862660D01*
X2226560Y2859240D01*
X2219220Y2850820D01*
X2211020Y2841860D01*
X2205760Y2836360D01*
X2200740Y2831300D01*
X2198860Y2829580D01*
X2197320Y2828380D01*
X2196060Y2827660D01*
X2195000Y2827380D01*
X2194100Y2827540D01*
X2193300Y2828100D01*
X2192500Y2829040D01*
X2188680Y2835440D01*
X2188060Y2836160D01*
X2187740Y2836160D01*
X2187660Y2835360D01*
X2187800Y2833759D01*
X2188760Y2828000D01*
X2190260Y2820059D01*
X2190820Y2817500D01*
X2191160Y2816380D01*
X2191540Y2816500D01*
X2193920Y2818180D01*
X2198020Y2821400D01*
X2203320Y2825800D01*
X2208700Y2830400D01*
X2213180Y2834460D01*
X2217260Y2838420D01*
X2220900Y2842260D01*
X2224140Y2846019D01*
X2227000Y2849700D01*
X2229460Y2853300D01*
X2231560Y2856860D01*
X2233300Y2860380D01*
X2234700Y2863900D01*
X2235980Y2868060D01*
X2236400Y2869760D01*
X2236500Y2870720D01*
G37*
G36*
X1980200Y2868440D02*
G01*
X1978700Y2868279D01*
X1977820Y2867740D01*
X1977580Y2866860D01*
X1978060Y2865640D01*
X1979480Y2864440D01*
X1981900Y2863480D01*
X1985000Y2862880D01*
X1988440Y2862720D01*
X1992740Y2862919D01*
X1994440Y2863360D01*
X1993680Y2864200D01*
X1990600Y2865640D01*
X1987460Y2866860D01*
X1984640Y2867740D01*
X1982200Y2868279D01*
G37*
G36*
X1949199Y2858340D02*
G01*
X1946860Y2858300D01*
X1941980Y2857640D01*
X1932380Y2856139D01*
X1933460Y2855160D01*
X1934880Y2854320D01*
X1936399Y2853840D01*
X1938040Y2853720D01*
X1939840Y2853940D01*
X1941860Y2854480D01*
X1944120Y2855320D01*
X1946680Y2856440D01*
X1949100Y2857720D01*
G37*
G36*
X1893000Y2854880D02*
G01*
X1892520Y2854860D01*
X1892460Y2854340D01*
X1892800Y2853340D01*
X1893520Y2851920D01*
X1894560Y2850160D01*
X1897540Y2845820D01*
X1901399Y2840760D01*
X1905500Y2835899D01*
X1909040Y2832140D01*
X1910500Y2830779D01*
X1911680Y2829840D01*
X1912540Y2829340D01*
X1913020Y2829360D01*
X1913080Y2829880D01*
X1912740Y2830899D01*
X1912020Y2832300D01*
X1909620Y2836120D01*
X1906160Y2840880D01*
X1902040Y2846000D01*
X1898180Y2850360D01*
X1895040Y2853440D01*
X1893860Y2854380D01*
G37*
G36*
X1915860Y2840299D02*
G01*
X1915020Y2840020D01*
X1914860Y2839200D01*
X1915460Y2837799D01*
X1916879Y2835840D01*
X1918779Y2834000D01*
X1921080Y2832520D01*
X1923480Y2831500D01*
X1925700Y2831139D01*
X1927880Y2831340D01*
X1928420Y2832060D01*
X1927340Y2833460D01*
X1924540Y2835740D01*
X1921720Y2837720D01*
X1919280Y2839140D01*
X1917300Y2840000D01*
G37*
G36*
X1947360Y2831680D02*
G01*
X1944900Y2830940D01*
X1941260Y2829100D01*
X1934400Y2824780D01*
X1931900Y2823320D01*
X1929360Y2822000D01*
X1926879Y2820860D01*
X1924520Y2819920D01*
X1922360Y2819200D01*
X1920480Y2818740D01*
X1916000Y2818399D01*
X1914620Y2817799D01*
X1914740Y2816640D01*
X1917480Y2813460D01*
X1918460Y2812060D01*
X1919180Y2810620D01*
X1919660Y2809160D01*
X1919880Y2807679D01*
X1919860Y2806160D01*
X1919600Y2804620D01*
X1919100Y2803039D01*
X1918340Y2801460D01*
X1917340Y2799840D01*
X1916100Y2798220D01*
X1914620Y2796560D01*
X1912880Y2794880D01*
X1910920Y2793200D01*
X1908720Y2791500D01*
X1906279Y2789760D01*
X1900660Y2786280D01*
X1897520Y2784520D01*
X1889620Y2780360D01*
X1886060Y2778279D01*
X1883820Y2776700D01*
X1883260Y2775880D01*
X1883779Y2775800D01*
X1884920Y2775899D01*
X1888800Y2776660D01*
X1894300Y2778020D01*
X1906060Y2781320D01*
X1910440Y2782360D01*
X1912400Y2782720D01*
X1916100Y2783100D01*
X1919740Y2783039D01*
X1923660Y2782500D01*
X1928180Y2781520D01*
X1938940Y2778560D01*
X1943560Y2777420D01*
X1948560Y2776360D01*
X1953820Y2775360D01*
X1959259Y2774460D01*
X1967580Y2773279D01*
X1973080Y2772620D01*
X1983640Y2771640D01*
X1988500Y2771320D01*
X1992960Y2771139D01*
X1996920Y2771080D01*
X2000320Y2771180D01*
X2003060Y2771420D01*
X2005040Y2771820D01*
X2005720Y2772080D01*
X2006180Y2772380D01*
X2006399Y2772720D01*
X2006380Y2773120D01*
X2006100Y2773540D01*
X2005560Y2774020D01*
X2004120Y2774920D01*
X2002120Y2775960D01*
X1999680Y2777100D01*
X1993800Y2779460D01*
X1987180Y2781760D01*
X1980480Y2783840D01*
X1977220Y2784980D01*
X1974120Y2786200D01*
X1971240Y2787460D01*
X1968700Y2788720D01*
X1966560Y2789920D01*
X1964900Y2791060D01*
X1963820Y2792060D01*
X1962860Y2793380D01*
X1962440Y2794420D01*
X1962640Y2795220D01*
X1963540Y2795800D01*
X1965240Y2796200D01*
X1967760Y2796460D01*
X1971240Y2796580D01*
X1977940Y2796580D01*
X1982740Y2796240D01*
X1987740Y2795600D01*
X1992680Y2794720D01*
X1997320Y2793639D01*
X2001380Y2792400D01*
X2007760Y2789940D01*
X2011759Y2788680D01*
X2014700Y2788039D01*
X2016140Y2788180D01*
X2016380Y2788660D01*
X2016260Y2789260D01*
X2015820Y2789960D01*
X2015060Y2790760D01*
X2014019Y2791640D01*
X2011160Y2793620D01*
X2007420Y2795820D01*
X2002960Y2798140D01*
X1997980Y2800539D01*
X1992660Y2802900D01*
X1987180Y2805179D01*
X1981699Y2807260D01*
X1976399Y2809100D01*
X1971480Y2810580D01*
X1967100Y2811660D01*
X1965180Y2812020D01*
X1963440Y2812240D01*
X1960380Y2812400D01*
X1958540Y2812640D01*
X1956440Y2813039D01*
X1951860Y2814220D01*
X1947160Y2815760D01*
X1941660Y2818039D01*
X1939259Y2819160D01*
X1937720Y2820059D01*
X1936980Y2820860D01*
X1937040Y2821620D01*
X1937820Y2822440D01*
X1939319Y2823399D01*
X1941459Y2824580D01*
X1944100Y2826220D01*
X1946260Y2828020D01*
X1947720Y2829720D01*
X1948260Y2831139D01*
G37*
G36*
X2075980Y2812300D02*
G01*
X2057140Y2812220D01*
X2042840Y2812040D01*
X2032540Y2811740D01*
X2025660Y2811259D01*
X2023340Y2810940D01*
X2021660Y2810560D01*
X2020580Y2810120D01*
X2020000Y2809620D01*
X2019880Y2809340D01*
X2019940Y2808720D01*
X2020340Y2808020D01*
X2021020Y2807240D01*
X2022580Y2805779D01*
X2023839Y2804880D01*
X2025220Y2804100D01*
X2026800Y2803480D01*
X2028620Y2802960D01*
X2030720Y2802559D01*
X2033140Y2802280D01*
X2035940Y2802080D01*
X2039180Y2801980D01*
X2047100Y2802040D01*
X2054019Y2802240D01*
X2063740Y2802220D01*
X2074980Y2801860D01*
X2087300Y2801180D01*
X2103520Y2799980D01*
X2116580Y2798780D01*
X2129260Y2797440D01*
X2141080Y2796000D01*
X2151580Y2794500D01*
X2160340Y2792980D01*
X2163920Y2792240D01*
X2166900Y2791520D01*
X2169200Y2790800D01*
X2170780Y2790140D01*
X2171280Y2789800D01*
X2171580Y2789480D01*
X2172540Y2787380D01*
X2173360Y2784460D01*
X2173940Y2781139D01*
X2174180Y2777799D01*
X2174440Y2763360D01*
X2174560Y2750440D01*
X2174480Y2733560D01*
X2174240Y2723680D01*
X2173860Y2714660D01*
X2173300Y2706340D01*
X2172600Y2698500D01*
X2171460Y2689140D01*
X2169820Y2677020D01*
X2168620Y2666180D01*
X2168360Y2662540D01*
X2168340Y2660480D01*
X2168440Y2660100D01*
X2170920Y2658700D01*
X2186600Y2650480D01*
X2211760Y2637580D01*
X2219980Y2633480D01*
X2230840Y2628320D01*
X2241380Y2623580D01*
X2251400Y2619380D01*
X2260680Y2615760D01*
X2268960Y2612860D01*
X2272680Y2611700D01*
X2276080Y2610740D01*
X2285000Y2608720D01*
X2295580Y2606820D01*
X2301120Y2605980D01*
X2312380Y2604560D01*
X2318040Y2603980D01*
X2331820Y2602940D01*
X2337060Y2602700D01*
X2346820Y2602540D01*
X2351260Y2602620D01*
X2355300Y2602820D01*
X2358940Y2603140D01*
X2362120Y2603580D01*
X2364760Y2604140D01*
X2375020Y2606860D01*
X2349860Y2627960D01*
X2345120Y2632200D01*
X2340480Y2636600D01*
X2336060Y2641060D01*
X2331980Y2645419D01*
X2328360Y2649560D01*
X2325340Y2653340D01*
X2323020Y2656640D01*
X2322160Y2658060D01*
X2314920Y2671100D01*
X2324560Y2680100D01*
X2326780Y2682000D01*
X2333260Y2687140D01*
X2341800Y2693660D01*
X2351740Y2701019D01*
X2365060Y2710600D01*
X2380180Y2721320D01*
X2383840Y2724060D01*
X2386840Y2726440D01*
X2389140Y2728480D01*
X2390720Y2730200D01*
X2391260Y2730960D01*
X2391620Y2731660D01*
X2391800Y2732300D01*
X2391800Y2732900D01*
X2391640Y2733420D01*
X2391280Y2733920D01*
X2390740Y2734360D01*
X2390040Y2734760D01*
X2388060Y2735480D01*
X2385360Y2736080D01*
X2381940Y2736600D01*
X2372860Y2737540D01*
X2360780Y2738580D01*
X2348500Y2739780D01*
X2336520Y2741240D01*
X2330640Y2742060D01*
X2321980Y2743399D01*
X2310720Y2745400D01*
X2302520Y2747060D01*
X2289320Y2750080D01*
X2279200Y2752760D01*
X2269520Y2755640D01*
X2264820Y2757160D01*
X2258020Y2759520D01*
X2253620Y2761160D01*
X2245200Y2764580D01*
X2237280Y2768180D01*
X2229860Y2771960D01*
X2226360Y2773920D01*
X2223000Y2775920D01*
X2216700Y2780020D01*
X2213760Y2782140D01*
X2210980Y2784300D01*
X2208340Y2786480D01*
X2205860Y2788700D01*
X2203540Y2790960D01*
X2195600Y2799380D01*
X2193580Y2801220D01*
X2192060Y2802320D01*
X2190980Y2802700D01*
X2190300Y2802360D01*
X2189920Y2801380D01*
X2189800Y2799780D01*
X2189920Y2798460D01*
X2190240Y2797020D01*
X2190760Y2795500D01*
X2191480Y2793920D01*
X2192380Y2792240D01*
X2193460Y2790520D01*
X2196100Y2786900D01*
X2199320Y2783159D01*
X2203040Y2779360D01*
X2207200Y2775560D01*
X2211700Y2771840D01*
X2216500Y2768279D01*
X2221480Y2764960D01*
X2226600Y2761920D01*
X2231760Y2759280D01*
X2235360Y2757640D01*
X2239180Y2756019D01*
X2247420Y2752860D01*
X2256380Y2749800D01*
X2263520Y2747600D01*
X2273500Y2744820D01*
X2283900Y2742200D01*
X2289220Y2740980D01*
X2297340Y2739260D01*
X2308340Y2737180D01*
X2319420Y2735360D01*
X2330480Y2733860D01*
X2355300Y2730680D01*
X2363880Y2729500D01*
X2378880Y2727160D01*
X2347180Y2706160D01*
X2342380Y2702900D01*
X2333280Y2696340D01*
X2325260Y2690179D01*
X2321840Y2687380D01*
X2318920Y2684860D01*
X2316580Y2682660D01*
X2314880Y2680860D01*
X2313380Y2678759D01*
X2312560Y2677400D01*
X2311880Y2676019D01*
X2311320Y2674620D01*
X2310880Y2673220D01*
X2310560Y2671780D01*
X2310360Y2670340D01*
X2310300Y2668860D01*
X2310360Y2667340D01*
X2310540Y2665800D01*
X2310860Y2664220D01*
X2311300Y2662600D01*
X2312600Y2659220D01*
X2314440Y2655659D01*
X2316840Y2651880D01*
X2319800Y2647840D01*
X2323340Y2643540D01*
X2327460Y2638920D01*
X2332200Y2634000D01*
X2337540Y2628740D01*
X2359560Y2607460D01*
X2327300Y2610240D01*
X2322420Y2610800D01*
X2315240Y2611780D01*
X2308200Y2612940D01*
X2301200Y2614300D01*
X2291800Y2616480D01*
X2282180Y2619080D01*
X2272160Y2622180D01*
X2261560Y2625800D01*
X2250200Y2630000D01*
X2237000Y2635200D01*
X2230220Y2638039D01*
X2223840Y2640820D01*
X2217860Y2643560D01*
X2212320Y2646259D01*
X2207200Y2648900D01*
X2202520Y2651460D01*
X2198280Y2653980D01*
X2194460Y2656420D01*
X2191120Y2658800D01*
X2188220Y2661080D01*
X2185800Y2663300D01*
X2183840Y2665440D01*
X2183020Y2666480D01*
X2181780Y2668480D01*
X2181020Y2670400D01*
X2180820Y2671320D01*
X2180700Y2672580D01*
X2180700Y2676280D01*
X2180940Y2681280D01*
X2181440Y2687240D01*
X2182160Y2693840D01*
X2184780Y2712780D01*
X2185340Y2717960D01*
X2185720Y2722880D01*
X2185900Y2727679D01*
X2185900Y2732500D01*
X2185700Y2737420D01*
X2185320Y2742620D01*
X2184740Y2748200D01*
X2183120Y2760480D01*
X2181360Y2771740D01*
X2179580Y2781660D01*
X2178000Y2789080D01*
X2176280Y2795640D01*
X2176380Y2799000D01*
X2177360Y2802340D01*
X2179220Y2805659D01*
X2183880Y2812300D01*
G37*
G36*
X1851579Y2812240D02*
G01*
X1827080Y2812020D01*
X1813779Y2811780D01*
X1801660Y2811440D01*
X1791279Y2811019D01*
X1783160Y2810500D01*
X1780100Y2810220D01*
X1777820Y2809900D01*
X1776380Y2809580D01*
X1776000Y2809420D01*
X1775280Y2808820D01*
X1775060Y2808260D01*
X1775120Y2808000D01*
X1775640Y2807480D01*
X1776639Y2806980D01*
X1778140Y2806500D01*
X1780140Y2806060D01*
X1785700Y2805220D01*
X1793340Y2804500D01*
X1803120Y2803840D01*
X1815100Y2803279D01*
X1829280Y2802780D01*
X1845760Y2802360D01*
X1865020Y2802020D01*
X1887180Y2801860D01*
X1893959Y2801960D01*
X1899660Y2802160D01*
X1904300Y2802480D01*
X1907980Y2802919D01*
X1910760Y2803480D01*
X1911819Y2803820D01*
X1912680Y2804200D01*
X1913320Y2804600D01*
X1913800Y2805059D01*
X1914079Y2805560D01*
X1914199Y2806080D01*
X1914139Y2806660D01*
X1913940Y2807280D01*
X1913580Y2807940D01*
X1912420Y2809420D01*
X1911660Y2810220D01*
X1910840Y2810539D01*
X1909160Y2810840D01*
X1903400Y2811340D01*
X1894920Y2811720D01*
X1884259Y2812000D01*
X1871960Y2812180D01*
G37*
G36*
X2187660Y2773560D02*
G01*
X2187540Y2772380D01*
X2187960Y2769920D01*
X2188840Y2766560D01*
X2190100Y2762620D01*
X2191100Y2759980D01*
X2192160Y2757820D01*
X2193280Y2756100D01*
X2194540Y2754780D01*
X2195960Y2753820D01*
X2197600Y2753180D01*
X2199500Y2752820D01*
X2201700Y2752700D01*
X2209860Y2752700D01*
X2197120Y2765820D01*
X2193180Y2769560D01*
X2190040Y2772240D01*
X2188880Y2773080D01*
X2188080Y2773540D01*
G37*
G36*
X2194240Y2726780D02*
G01*
X2193880Y2725400D01*
X2193440Y2722160D01*
X2192960Y2717559D01*
X2191520Y2698140D01*
X2211040Y2697640D01*
X2212540Y2697679D01*
X2213700Y2697860D01*
X2214500Y2698180D01*
X2214940Y2698680D01*
X2215040Y2699400D01*
X2214780Y2700380D01*
X2214140Y2701660D01*
X2213160Y2703260D01*
X2210060Y2707600D01*
X2199560Y2721320D01*
X2196980Y2724360D01*
X2195120Y2726280D01*
G37*
G36*
X2238200Y2718180D02*
G01*
X2237440Y2718060D01*
X2236920Y2717660D01*
X2236640Y2717020D01*
X2236640Y2716100D01*
X2236880Y2714920D01*
X2237420Y2713480D01*
X2238220Y2711780D01*
X2239340Y2709840D01*
X2247140Y2698180D01*
X2253760Y2688500D01*
X2258960Y2681100D01*
X2263540Y2674900D01*
X2268300Y2668700D01*
X2270900Y2665480D01*
X2272400Y2663820D01*
X2276060Y2660220D01*
X2280360Y2656320D01*
X2285160Y2652280D01*
X2290260Y2648220D01*
X2295480Y2644260D01*
X2300660Y2640560D01*
X2305600Y2637240D01*
X2310140Y2634440D01*
X2314080Y2632260D01*
X2317260Y2630860D01*
X2318500Y2630480D01*
X2319480Y2630360D01*
X2319760Y2630560D01*
X2319660Y2631120D01*
X2319200Y2632040D01*
X2318420Y2633260D01*
X2315900Y2636580D01*
X2312260Y2640860D01*
X2307700Y2645920D01*
X2298880Y2655160D01*
X2291580Y2663000D01*
X2284300Y2671100D01*
X2277580Y2678820D01*
X2271960Y2685580D01*
X2266280Y2692799D01*
X2262580Y2697260D01*
X2258880Y2701540D01*
X2255360Y2705419D01*
X2252220Y2708700D01*
X2249640Y2711120D01*
X2247420Y2713000D01*
X2245380Y2714580D01*
X2243520Y2715860D01*
X2241880Y2716860D01*
X2240440Y2717580D01*
X2239200Y2718020D01*
G37*
D42*
X325000Y309544D02*
G01*
X325000Y236817D01*
X294090Y309544D02*
G01*
X298636Y305000D01*
X303182Y298182D01*
X307726Y289090D01*
X310000Y277726D01*
X310000Y268636D01*
X307726Y257273D01*
X303182Y248182D01*
X298636Y241363D01*
X294090Y236817D01*
X258636Y293636D02*
G01*
X258636Y252726D01*
X279090Y273182D02*
G01*
X238182Y273182D01*
X223182Y309544D02*
G01*
X218636Y305000D01*
X214090Y298182D01*
X209544Y289090D01*
X207273Y277726D01*
X207273Y268636D01*
X209544Y257273D01*
X214090Y248182D01*
X218636Y241363D01*
X223182Y236817D01*
X176363Y309544D02*
G01*
X180909Y305000D01*
X185455Y298182D01*
X190000Y289090D01*
X192273Y277726D01*
X192273Y268636D01*
X190000Y257273D01*
X185455Y248182D01*
X180909Y241363D01*
X176363Y236817D01*
X161363Y273182D02*
G01*
X120455Y273182D01*
X105455Y309544D02*
G01*
X100909Y305000D01*
X96363Y298182D01*
X91817Y289090D01*
X89544Y277726D01*
X89544Y268636D01*
X91817Y257273D01*
X96363Y248182D01*
X100909Y241363D01*
X105455Y236817D01*
X74544Y309544D02*
G01*
X74544Y236817D01*
X325000Y210455D02*
G01*
X325000Y162726D01*
X325000Y210455D02*
G01*
X304544Y210455D01*
X297726Y208182D01*
X295455Y205909D01*
X293182Y201363D01*
X293182Y196817D01*
X295455Y192273D01*
X297726Y190000D01*
X304544Y187726D01*
X325000Y187726D02*
G01*
X304544Y187726D01*
X297726Y185455D01*
X295455Y183182D01*
X293182Y178636D01*
X293182Y171817D01*
X295455Y167273D01*
X297726Y165000D01*
X304544Y162726D01*
X325000Y162726D01*
X260000Y210455D02*
G01*
X278182Y162726D01*
X260000Y210455D02*
G01*
X241817Y162726D01*
X271363Y178636D02*
G01*
X248636Y178636D01*
X210909Y210455D02*
G01*
X210909Y162726D01*
X226817Y210455D02*
G01*
X195000Y210455D01*
X180000Y183182D02*
G01*
X139090Y183182D01*
X124090Y210455D02*
G01*
X124090Y162726D01*
X109090Y210455D02*
G01*
X109090Y162726D01*
X109090Y210455D02*
G01*
X77273Y162726D01*
X77273Y210455D02*
G01*
X77273Y162726D01*
X320455Y120455D02*
G01*
X295455Y120455D01*
X309090Y102273D01*
X302273Y102273D01*
X297726Y100000D01*
X295455Y97726D01*
X293182Y90909D01*
X293182Y86363D01*
X295455Y79544D01*
X300000Y75000D01*
X306817Y72726D01*
X313636Y72726D01*
X320455Y75000D01*
X322726Y77273D01*
X325000Y81817D01*
X275909Y84090D02*
G01*
X278182Y81817D01*
X275909Y79544D01*
X273636Y81817D01*
X275909Y84090D01*
X226817Y120455D02*
G01*
X249544Y72726D01*
X258636Y120455D02*
G01*
X226817Y120455D01*
X211817Y93182D02*
G01*
X170909Y93182D01*
X128636Y113636D02*
G01*
X130909Y118182D01*
X137726Y120455D01*
X142273Y120455D01*
X149090Y118182D01*
X153636Y111363D01*
X155909Y100000D01*
X155909Y88636D01*
X153636Y79544D01*
X149090Y75000D01*
X142273Y72726D01*
X140000Y72726D01*
X133182Y75000D01*
X128636Y79544D01*
X126363Y86363D01*
X126363Y88636D01*
X128636Y95455D01*
X133182Y100000D01*
X140000Y102273D01*
X142273Y102273D01*
X149090Y100000D01*
X153636Y95455D01*
X155909Y88636D01*
X111363Y120455D02*
G01*
X93182Y72726D01*
X75000Y120455D02*
G01*
X93182Y72726D01*
X94272Y1425000D02*
G01*
X170635Y1425000D01*
X94272Y1425000D02*
G01*
X170635Y1374090D01*
X94272Y1374090D02*
G01*
X170635Y1374090D01*
X94272Y1328272D02*
G01*
X97908Y1335545D01*
X105181Y1342818D01*
X112454Y1346455D01*
X123364Y1350091D01*
X141545Y1350091D01*
X152454Y1346455D01*
X159726Y1342818D01*
X166999Y1335545D01*
X170635Y1328272D01*
X170635Y1313726D01*
X166999Y1306455D01*
X159726Y1299182D01*
X152454Y1295545D01*
X141545Y1291909D01*
X123364Y1291909D01*
X112454Y1295545D01*
X105181Y1299182D01*
X97908Y1306455D01*
X94272Y1313726D01*
X94272Y1328272D01*
X94272Y1267908D02*
G01*
X170635Y1267908D01*
X94272Y1267908D02*
G01*
X94272Y1235181D01*
X97908Y1224272D01*
X101545Y1220635D01*
X108818Y1216999D01*
X116091Y1216999D01*
X123364Y1220635D01*
X126999Y1224272D01*
X130635Y1235181D01*
X130635Y1267908D01*
X130635Y1242455D02*
G01*
X170635Y1216999D01*
X94272Y1167545D02*
G01*
X170635Y1167545D01*
X94272Y1193000D02*
G01*
X94272Y1142091D01*
X94272Y1118090D02*
G01*
X170635Y1118090D01*
X94272Y1067181D02*
G01*
X170635Y1067181D01*
X130635Y1118090D02*
G01*
X130635Y1067181D01*
X105181Y992273D02*
G01*
X97908Y999544D01*
X94272Y1010455D01*
X94272Y1025000D01*
X97908Y1035909D01*
X105181Y1043182D01*
X112454Y1043182D01*
X119726Y1039544D01*
X123364Y1035909D01*
X126999Y1028636D01*
X134272Y1006817D01*
X137908Y999544D01*
X141545Y995909D01*
X148818Y992273D01*
X159726Y992273D01*
X166999Y999544D01*
X170635Y1010455D01*
X170635Y1025000D01*
X166999Y1035909D01*
X159726Y1043182D01*
X94272Y968272D02*
G01*
X170635Y968272D01*
X94272Y968272D02*
G01*
X94272Y920999D01*
X130635Y968272D02*
G01*
X130635Y939182D01*
X170635Y968272D02*
G01*
X170635Y920999D01*
X112454Y842454D02*
G01*
X105181Y846091D01*
X97908Y853364D01*
X94272Y860635D01*
X94272Y875181D01*
X97908Y882454D01*
X105181Y889726D01*
X112454Y893364D01*
X123364Y896999D01*
X141545Y896999D01*
X152454Y893364D01*
X159726Y889726D01*
X166999Y882454D01*
X170635Y875181D01*
X170635Y860635D01*
X166999Y853364D01*
X159726Y846091D01*
X152454Y842454D01*
X232454Y1421363D02*
G01*
X228818Y1421363D01*
X221545Y1417726D01*
X217908Y1414090D01*
X214272Y1406817D01*
X214272Y1392273D01*
X217908Y1385000D01*
X221545Y1381363D01*
X228818Y1377726D01*
X236091Y1377726D01*
X243364Y1381363D01*
X254272Y1388636D01*
X290635Y1425000D01*
X290635Y1374090D01*
X214272Y1328272D02*
G01*
X217908Y1339182D01*
X228818Y1346455D01*
X246999Y1350091D01*
X257908Y1350091D01*
X276091Y1346455D01*
X286999Y1339182D01*
X290635Y1328272D01*
X290635Y1320999D01*
X286999Y1310091D01*
X276091Y1302818D01*
X257908Y1299182D01*
X246999Y1299182D01*
X228818Y1302818D01*
X217908Y1310091D01*
X214272Y1320999D01*
X214272Y1328272D01*
X232454Y1271545D02*
G01*
X228818Y1271545D01*
X221545Y1267908D01*
X217908Y1264272D01*
X214272Y1256999D01*
X214272Y1242455D01*
X217908Y1235181D01*
X221545Y1231545D01*
X228818Y1227908D01*
X236091Y1227908D01*
X243364Y1231545D01*
X254272Y1238818D01*
X290635Y1275181D01*
X290635Y1224272D01*
X228818Y1200273D02*
G01*
X225181Y1193000D01*
X214272Y1182091D01*
X290635Y1182091D01*
X214272Y1102091D02*
G01*
X290635Y1073000D01*
X214272Y1043908D02*
G01*
X290635Y1073000D01*
X228818Y1019908D02*
G01*
X225181Y1012636D01*
X214272Y1001727D01*
X290635Y1001727D01*
X272454Y974090D02*
G01*
X276091Y977726D01*
X279726Y974090D01*
X276091Y970455D01*
X272454Y974090D01*
X232454Y942818D02*
G01*
X228818Y942818D01*
X221545Y939182D01*
X217908Y935545D01*
X214272Y928272D01*
X214272Y913726D01*
X217908Y906455D01*
X221545Y902818D01*
X228818Y899182D01*
X236091Y899182D01*
X243364Y902818D01*
X254272Y910091D01*
X290635Y946455D01*
X290635Y895545D01*
D41*
X2961300Y337300D02*
G01*
X2963400Y341399D01*
X2967500Y345500D01*
X2971499Y347500D01*
X2979700Y347500D01*
X2983800Y345500D01*
X2987899Y341399D01*
X2990000Y337300D01*
X2991999Y331100D01*
X2991999Y320900D01*
X2990000Y314800D01*
X2987899Y310700D01*
X2983800Y306599D01*
X2979700Y304600D01*
X2971499Y304600D01*
X2967500Y306599D01*
X2963400Y310700D01*
X2961300Y314800D01*
X2945799Y337300D02*
G01*
X2945799Y339299D01*
X2943699Y343400D01*
X2941700Y345500D01*
X2937600Y347500D01*
X2929399Y347500D01*
X2925299Y345500D01*
X2923299Y343400D01*
X2921199Y339299D01*
X2921199Y335199D01*
X2923299Y331100D01*
X2927399Y325000D01*
X2947799Y304600D01*
X2919200Y304600D01*
X2885200Y347500D02*
G01*
X2905699Y318899D01*
X2875000Y318899D01*
X2885200Y347500D02*
G01*
X2885200Y304600D01*
X2944300Y785199D02*
G01*
X2946400Y789299D01*
X2950500Y793400D01*
X2954499Y795399D01*
X2962700Y795399D01*
X2966800Y793400D01*
X2970900Y789299D01*
X2973000Y785199D01*
X2975000Y779000D01*
X2975000Y768800D01*
X2973000Y762699D01*
X2970900Y758600D01*
X2966800Y754499D01*
X2962700Y752500D01*
X2954499Y752500D01*
X2950500Y754499D01*
X2946400Y758600D01*
X2944300Y762699D01*
X2928800Y785199D02*
G01*
X2928800Y787199D01*
X2926700Y791300D01*
X2924700Y793400D01*
X2920600Y795399D01*
X2912399Y795399D01*
X2908299Y793400D01*
X2906300Y791300D01*
X2904200Y787199D01*
X2904200Y783099D01*
X2906300Y779000D01*
X2910399Y772899D01*
X2930799Y752500D01*
X2902200Y752500D01*
X2864099Y795399D02*
G01*
X2884600Y795399D01*
X2886599Y776999D01*
X2884600Y779000D01*
X2878500Y781100D01*
X2872299Y781100D01*
X2866199Y779000D01*
X2862100Y775000D01*
X2860000Y768800D01*
X2860000Y764699D01*
X2862100Y758600D01*
X2866199Y754499D01*
X2872299Y752500D01*
X2878500Y752500D01*
X2884600Y754499D01*
X2886599Y756500D01*
X2888699Y760599D01*
X2975000Y695399D02*
G01*
X2975000Y664699D01*
X2973000Y658600D01*
X2968900Y654499D01*
X2962700Y652500D01*
X2958599Y652500D01*
X2952500Y654499D01*
X2948400Y658600D01*
X2946400Y664699D01*
X2946400Y695399D01*
X2912399Y695399D02*
G01*
X2932899Y666799D01*
X2902200Y666799D01*
X2912399Y695399D02*
G01*
X2912399Y652500D01*
X3500000Y629600D02*
G01*
X3500000Y672500D01*
X3500000Y629600D02*
G01*
X3514300Y629600D01*
X3520500Y631599D01*
X3524499Y635700D01*
X3526599Y639800D01*
X3528599Y645999D01*
X3528599Y656199D01*
X3526599Y662300D01*
X3524499Y666399D01*
X3520500Y670500D01*
X3514300Y672500D01*
X3500000Y672500D01*
X3566700Y635700D02*
G01*
X3564600Y631599D01*
X3558500Y629600D01*
X3554399Y629600D01*
X3548299Y631599D01*
X3544200Y637800D01*
X3542100Y648000D01*
X3542100Y658200D01*
X3544200Y666399D01*
X3548299Y670500D01*
X3554399Y672500D01*
X3556499Y672500D01*
X3562600Y670500D01*
X3566700Y666399D01*
X3568699Y660300D01*
X3568699Y658200D01*
X3566700Y652100D01*
X3562600Y648000D01*
X3556499Y645999D01*
X3554399Y645999D01*
X3548299Y648000D01*
X3544200Y652100D01*
X3542100Y658200D01*
X3500000Y354600D02*
G01*
X3500000Y397500D01*
X3500000Y354600D02*
G01*
X3514300Y354600D01*
X3520500Y356599D01*
X3524499Y360700D01*
X3526599Y364800D01*
X3528599Y370999D01*
X3528599Y381199D01*
X3526599Y387300D01*
X3524499Y391399D01*
X3520500Y395500D01*
X3514300Y397500D01*
X3500000Y397500D01*
X3570799Y354600D02*
G01*
X3550299Y397500D01*
X3542100Y354600D02*
G01*
X3570799Y354600D01*
X1174318Y1360181D02*
G01*
X1176364Y1364272D01*
X1180455Y1368364D01*
X1184544Y1370408D01*
X1192727Y1370408D01*
X1196818Y1368364D01*
X1200909Y1364272D01*
X1202955Y1360181D01*
X1205000Y1354045D01*
X1205000Y1343818D01*
X1202955Y1337681D01*
X1200909Y1333591D01*
X1196818Y1329499D01*
X1192727Y1327455D01*
X1184544Y1327455D01*
X1180455Y1329499D01*
X1176364Y1333591D01*
X1174318Y1337681D01*
X1150591Y1370408D02*
G01*
X1156727Y1368364D01*
X1158773Y1364272D01*
X1158773Y1360181D01*
X1156727Y1356091D01*
X1152636Y1354045D01*
X1144454Y1351999D01*
X1138317Y1349955D01*
X1134227Y1345864D01*
X1132182Y1341772D01*
X1132182Y1335635D01*
X1134227Y1331545D01*
X1136273Y1329499D01*
X1142408Y1327455D01*
X1150591Y1327455D01*
X1156727Y1329499D01*
X1158773Y1331545D01*
X1160817Y1335635D01*
X1160817Y1341772D01*
X1158773Y1345864D01*
X1154682Y1349955D01*
X1148545Y1351999D01*
X1140363Y1354045D01*
X1136273Y1356091D01*
X1134227Y1360181D01*
X1134227Y1364272D01*
X1136273Y1368364D01*
X1142408Y1370408D01*
X1150591Y1370408D01*
X2535038Y4469434D02*
G01*
X2535038Y4512388D01*
X2535038Y4469434D02*
G01*
X2553447Y4469434D01*
X2559584Y4471480D01*
X2561629Y4473525D01*
X2563675Y4477615D01*
X2563675Y4481707D01*
X2561629Y4485798D01*
X2559584Y4487842D01*
X2553447Y4489888D01*
X2535038Y4489888D01*
X2549357Y4489888D02*
G01*
X2563675Y4512388D01*
X2597628Y4469434D02*
G01*
X2577174Y4498069D01*
X2607857Y4498071D01*
X2597628Y4469434D02*
G01*
X2597628Y4512388D01*
X2512358Y4405019D02*
G01*
X2512358Y4447919D01*
X2512358Y4405019D02*
G01*
X2530757Y4405019D01*
X2536858Y4407020D01*
X2538957Y4409119D01*
X2540958Y4413218D01*
X2540956Y4417320D01*
X2538958Y4421419D01*
X2536858Y4423418D01*
X2530757Y4425419D01*
X2512358Y4425419D01*
X2526657Y4425419D02*
G01*
X2540956Y4447919D01*
X2554458Y4413220D02*
G01*
X2558558Y4411118D01*
X2564758Y4405019D01*
X2564758Y4447919D01*
X2602757Y4411120D02*
G01*
X2600757Y4407020D01*
X2594557Y4405019D01*
X2590457Y4405019D01*
X2584358Y4407020D01*
X2580258Y4413218D01*
X2578257Y4423418D01*
X2578257Y4433620D01*
X2580258Y4441819D01*
X2584357Y4445920D01*
X2590456Y4447919D01*
X2592557Y4447919D01*
X2598657Y4445920D01*
X2602758Y4441819D01*
X2604858Y4435720D01*
X2604858Y4433618D01*
X2602757Y4427519D01*
X2598657Y4423420D01*
X2592557Y4421419D01*
X2590457Y4421419D01*
X2584358Y4423418D01*
X2580258Y4427519D01*
X2578257Y4433620D01*
X2758342Y4615735D02*
G01*
X2775104Y4655223D01*
X2758342Y4615735D02*
G01*
X2771504Y4610147D01*
X2777993Y4609564D01*
X2783278Y4611777D01*
X2786813Y4614731D01*
X2791076Y4619654D01*
X2795061Y4629045D01*
X2795604Y4635441D01*
X2795272Y4640036D01*
X2793193Y4645373D01*
X2788267Y4649636D01*
X2775104Y4655223D01*
X2819740Y4589672D02*
G01*
X2800870Y4597683D01*
X2806217Y4615401D01*
X2807277Y4612779D01*
X2812164Y4608422D01*
X2817779Y4606039D01*
X2824215Y4605589D01*
X2829552Y4607669D01*
X2833906Y4612557D01*
X2835509Y4616329D01*
X2835959Y4622766D01*
X2833788Y4628141D01*
X2828954Y4632366D01*
X2823338Y4634749D01*
X2816850Y4635331D01*
X2814228Y4634272D01*
X2810693Y4631318D01*
X2575000Y1020399D02*
G01*
X2575000Y977500D01*
X2575000Y1020399D02*
G01*
X2556599Y1020399D01*
X2550500Y1018400D01*
X2548400Y1016300D01*
X2546400Y1012199D01*
X2546400Y1008099D01*
X2548400Y1004000D01*
X2550500Y1001999D01*
X2556599Y1000000D01*
X2575000Y1000000D01*
X2560699Y1000000D02*
G01*
X2546400Y977500D01*
X2532899Y1012199D02*
G01*
X2528800Y1014299D01*
X2522600Y1020399D01*
X2522600Y977500D01*
X2507100Y1010199D02*
G01*
X2507100Y1012199D01*
X2505000Y1016300D01*
X2503000Y1018400D01*
X2498900Y1020399D01*
X2490699Y1020399D01*
X2486599Y1018400D01*
X2484600Y1016300D01*
X2482500Y1012199D01*
X2482500Y1008099D01*
X2484600Y1004000D01*
X2488699Y997899D01*
X2509099Y977500D01*
X2480500Y977500D01*
X2602500Y919499D02*
G01*
X2645399Y919499D01*
X2602500Y919499D02*
G01*
X2602500Y901100D01*
X2604499Y895000D01*
X2606599Y892899D01*
X2610699Y890900D01*
X2614799Y890900D01*
X2618900Y892899D01*
X2620900Y895000D01*
X2622899Y901100D01*
X2622899Y919499D01*
X2622899Y905199D02*
G01*
X2645399Y890900D01*
X2610699Y877399D02*
G01*
X2608599Y873299D01*
X2602500Y867100D01*
X2645399Y867100D01*
X2602500Y849499D02*
G01*
X2602500Y826999D01*
X2618900Y839299D01*
X2618900Y833200D01*
X2620900Y829099D01*
X2622899Y826999D01*
X2629099Y825000D01*
X2633199Y825000D01*
X2639300Y826999D01*
X2643400Y831100D01*
X2645399Y837300D01*
X2645399Y843400D01*
X2643400Y849499D01*
X2641400Y851599D01*
X2637299Y853600D01*
X2602500Y796500D02*
G01*
X2645399Y796500D01*
X2602500Y796500D02*
G01*
X2602500Y778099D01*
X2604499Y771999D01*
X2606599Y769899D01*
X2610699Y767899D01*
X2614799Y767899D01*
X2618900Y769899D01*
X2620900Y771999D01*
X2622899Y778099D01*
X2622899Y796500D01*
X2622899Y782199D02*
G01*
X2645399Y767899D01*
X2610699Y754400D02*
G01*
X2608599Y750300D01*
X2602500Y744099D01*
X2645399Y744099D01*
X2602500Y710199D02*
G01*
X2631099Y730599D01*
X2631099Y700000D01*
X2602500Y710199D02*
G01*
X2645399Y710199D01*
X2569499Y647500D02*
G01*
X2569499Y604600D01*
X2569499Y647500D02*
G01*
X2551099Y647500D01*
X2545000Y645500D01*
X2542899Y643400D01*
X2540900Y639299D01*
X2540900Y635199D01*
X2542899Y631100D01*
X2545000Y629099D01*
X2551099Y627100D01*
X2569499Y627100D01*
X2555200Y627100D02*
G01*
X2540900Y604600D01*
X2527399Y639299D02*
G01*
X2523299Y641399D01*
X2517100Y647500D01*
X2517100Y604600D01*
X2479099Y647500D02*
G01*
X2499499Y647500D01*
X2501599Y629099D01*
X2499499Y631100D01*
X2493400Y633200D01*
X2487299Y633200D01*
X2481099Y631100D01*
X2476999Y627100D01*
X2475000Y620900D01*
X2475000Y616799D01*
X2476999Y610700D01*
X2481099Y606599D01*
X2487299Y604600D01*
X2493400Y604600D01*
X2499499Y606599D01*
X2501599Y608600D01*
X2503599Y612699D01*
X184400Y665399D02*
G01*
X184400Y622500D01*
X184400Y665399D02*
G01*
X165999Y665399D01*
X159899Y663400D01*
X157800Y661300D01*
X155799Y657199D01*
X155799Y651100D01*
X157800Y646999D01*
X159899Y645000D01*
X165999Y642899D01*
X184400Y642899D01*
X142300Y657199D02*
G01*
X138200Y659299D01*
X131999Y665399D01*
X131999Y622500D01*
X1150000Y445399D02*
G01*
X1150000Y402500D01*
X1150000Y445399D02*
G01*
X1135699Y445399D01*
X1129499Y443400D01*
X1125500Y439299D01*
X1123400Y435199D01*
X1121400Y429000D01*
X1121400Y418800D01*
X1123400Y412699D01*
X1125500Y408600D01*
X1129499Y404499D01*
X1135699Y402500D01*
X1150000Y402500D01*
X1105799Y435199D02*
G01*
X1105799Y437199D01*
X1103800Y441300D01*
X1101700Y443400D01*
X1097600Y445399D01*
X1089499Y445399D01*
X1085399Y443400D01*
X1083299Y441300D01*
X1081300Y437199D01*
X1081300Y433099D01*
X1083299Y429000D01*
X1087399Y422899D01*
X1107899Y402500D01*
X1079200Y402500D01*
X579600Y625000D02*
G01*
X622500Y625000D01*
X579600Y625000D02*
G01*
X579600Y606599D01*
X581599Y600500D01*
X583699Y598400D01*
X587800Y596399D01*
X591900Y596399D01*
X595999Y598400D01*
X598000Y600500D01*
X600000Y606599D01*
X600000Y625000D02*
G01*
X600000Y606599D01*
X602100Y600500D01*
X604099Y598400D01*
X608200Y596399D01*
X614400Y596399D01*
X618499Y598400D01*
X620500Y600500D01*
X622500Y606599D01*
X622500Y625000D01*
X579600Y582899D02*
G01*
X610300Y582899D01*
X616399Y580799D01*
X620500Y576700D01*
X622500Y570599D01*
X622500Y566500D01*
X620500Y560399D01*
X616399Y556300D01*
X610300Y554200D01*
X579600Y554200D01*
X579600Y512100D02*
G01*
X622500Y540700D01*
X579600Y540700D02*
G01*
X579600Y512100D01*
X622500Y540700D02*
G01*
X622500Y512100D01*
X579600Y470000D02*
G01*
X622500Y498600D01*
X579600Y498600D02*
G01*
X579600Y470000D01*
X622500Y498600D02*
G01*
X622500Y470000D01*
X579600Y456500D02*
G01*
X622500Y456500D01*
X579600Y456500D02*
G01*
X579600Y429899D01*
X600000Y456500D02*
G01*
X600000Y440100D01*
X622500Y456500D02*
G01*
X622500Y429899D01*
X579600Y416399D02*
G01*
X622500Y416399D01*
X579600Y416399D02*
G01*
X579600Y398000D01*
X581599Y391799D01*
X583699Y389800D01*
X587800Y387699D01*
X591900Y387699D01*
X595999Y389800D01*
X598000Y391799D01*
X600000Y398000D01*
X600000Y416399D01*
X600000Y401999D02*
G01*
X622500Y387699D01*
X587800Y374200D02*
G01*
X585700Y370100D01*
X579600Y364000D01*
X622500Y364000D01*
X1399996Y820399D02*
G01*
X1399996Y777500D01*
X1399996Y820399D02*
G01*
X1381595Y820399D01*
X1375496Y818400D01*
X1373396Y816300D01*
X1371396Y812199D01*
X1371396Y808099D01*
X1373396Y804000D01*
X1375496Y801999D01*
X1381595Y800000D01*
X1399996Y800000D01*
X1385695Y800000D02*
G01*
X1371396Y777500D01*
X1347596Y820399D02*
G01*
X1353796Y818400D01*
X1355796Y814299D01*
X1355796Y810199D01*
X1353796Y806100D01*
X1349696Y804000D01*
X1341495Y801999D01*
X1335396Y800000D01*
X1331296Y795900D01*
X1329196Y791799D01*
X1329196Y785599D01*
X1331296Y781500D01*
X1333296Y779499D01*
X1339495Y777500D01*
X1347596Y777500D01*
X1353796Y779499D01*
X1355796Y781500D01*
X1357896Y785599D01*
X1357896Y791799D01*
X1355796Y795900D01*
X1351696Y800000D01*
X1345595Y801999D01*
X1337395Y804000D01*
X1333296Y806100D01*
X1331296Y810199D01*
X1331296Y814299D01*
X1333296Y818400D01*
X1339495Y820399D01*
X1347596Y820399D01*
X1062600Y651599D02*
G01*
X1066700Y649600D01*
X1070799Y645500D01*
X1072899Y641399D01*
X1074899Y635199D01*
X1074899Y625000D01*
X1072899Y618899D01*
X1070799Y614800D01*
X1066700Y610700D01*
X1062600Y608699D01*
X1054399Y608699D01*
X1050399Y610700D01*
X1046300Y614800D01*
X1044200Y618899D01*
X1042200Y625000D01*
X1042200Y635199D01*
X1044200Y641399D01*
X1046300Y645500D01*
X1050399Y649600D01*
X1054399Y651599D01*
X1062600Y651599D01*
X1056499Y616799D02*
G01*
X1044200Y604600D01*
X1024600Y651599D02*
G01*
X1002100Y651599D01*
X1014399Y635199D01*
X1008199Y635199D01*
X1004099Y633200D01*
X1002100Y631199D01*
X1000000Y625000D01*
X1000000Y620900D01*
X1002100Y614800D01*
X1006199Y610700D01*
X1012299Y608699D01*
X1018400Y608699D01*
X1024600Y610700D01*
X1026599Y612699D01*
X1028699Y616799D01*
X1187700Y1120399D02*
G01*
X1191800Y1118400D01*
X1195900Y1114299D01*
X1198000Y1110199D01*
X1200000Y1104000D01*
X1200000Y1093800D01*
X1198000Y1087699D01*
X1195900Y1083600D01*
X1191800Y1079499D01*
X1187700Y1077500D01*
X1179499Y1077500D01*
X1175500Y1079499D01*
X1171400Y1083600D01*
X1169300Y1087699D01*
X1167299Y1093800D01*
X1167299Y1104000D01*
X1169300Y1110199D01*
X1171400Y1114299D01*
X1175500Y1118400D01*
X1179499Y1120399D01*
X1187700Y1120399D01*
X1181599Y1085599D02*
G01*
X1169300Y1073400D01*
X1151700Y1110199D02*
G01*
X1151700Y1112199D01*
X1149700Y1116300D01*
X1147600Y1118400D01*
X1143500Y1120399D01*
X1135399Y1120399D01*
X1131300Y1118400D01*
X1129200Y1116300D01*
X1127200Y1112199D01*
X1127200Y1108099D01*
X1129200Y1104000D01*
X1133299Y1097899D01*
X1153800Y1077500D01*
X1125100Y1077500D01*
X1194200Y776599D02*
G01*
X1198299Y774600D01*
X1202399Y770500D01*
X1204499Y766399D01*
X1206499Y760199D01*
X1206499Y750000D01*
X1204499Y743899D01*
X1202399Y739800D01*
X1198299Y735700D01*
X1194200Y733699D01*
X1186000Y733699D01*
X1181999Y735700D01*
X1177899Y739800D01*
X1175799Y743899D01*
X1173800Y750000D01*
X1173800Y760199D01*
X1175799Y766399D01*
X1177899Y770500D01*
X1181999Y774600D01*
X1186000Y776599D01*
X1194200Y776599D01*
X1188100Y741799D02*
G01*
X1175799Y729600D01*
X1160299Y768400D02*
G01*
X1156199Y770500D01*
X1150000Y776599D01*
X1150000Y733699D01*
X1395000Y650399D02*
G01*
X1395000Y607500D01*
X1395000Y650399D02*
G01*
X1376599Y650399D01*
X1370500Y648400D01*
X1368400Y646300D01*
X1366400Y642199D01*
X1366400Y638099D01*
X1368400Y634000D01*
X1370500Y631999D01*
X1376599Y630000D01*
X1395000Y630000D01*
X1380699Y630000D02*
G01*
X1366400Y607500D01*
X1352899Y642199D02*
G01*
X1348800Y644299D01*
X1342600Y650399D01*
X1342600Y607500D01*
X1316899Y650399D02*
G01*
X1323000Y648400D01*
X1327100Y642199D01*
X1329099Y631999D01*
X1329099Y625900D01*
X1327100Y615599D01*
X1323000Y609499D01*
X1316899Y607500D01*
X1312799Y607500D01*
X1306599Y609499D01*
X1302500Y615599D01*
X1300500Y625900D01*
X1300500Y631999D01*
X1302500Y642199D01*
X1306599Y648400D01*
X1312799Y650399D01*
X1316899Y650399D01*
X895806Y897489D02*
G01*
X895806Y854589D01*
X895806Y897489D02*
G01*
X877406Y897489D01*
X871306Y895489D01*
X869206Y893389D01*
X867205Y889290D01*
X867205Y885189D01*
X869206Y881089D01*
X871306Y879090D01*
X877406Y877089D01*
X895806Y877089D01*
X881505Y877089D02*
G01*
X867205Y854589D01*
X851606Y887289D02*
G01*
X851606Y889290D01*
X849606Y893389D01*
X847506Y895489D01*
X843406Y897489D01*
X835306Y897489D01*
X831206Y895489D01*
X829106Y893389D01*
X827106Y889290D01*
X827106Y885189D01*
X829106Y881089D01*
X833206Y874989D01*
X853706Y854589D01*
X825006Y854589D01*
X902395Y997500D02*
G01*
X902395Y954600D01*
X902395Y997500D02*
G01*
X883995Y997500D01*
X877896Y995500D01*
X875796Y993400D01*
X873796Y989299D01*
X873796Y985199D01*
X875796Y981100D01*
X877896Y979099D01*
X883995Y977100D01*
X902395Y977100D01*
X888095Y977100D02*
G01*
X873796Y954600D01*
X860295Y989299D02*
G01*
X856195Y991399D01*
X849996Y997500D01*
X849996Y954600D01*
X3104600Y955000D02*
G01*
X3147500Y955000D01*
X3104600Y955000D02*
G01*
X3104600Y936599D01*
X3106599Y930500D01*
X3108699Y928400D01*
X3112799Y926399D01*
X3116899Y926399D01*
X3121000Y928400D01*
X3123000Y930500D01*
X3125000Y936599D01*
X3125000Y955000D01*
X3125000Y940700D02*
G01*
X3147500Y926399D01*
X3110699Y888299D02*
G01*
X3106599Y890399D01*
X3104600Y896500D01*
X3104600Y900599D01*
X3106599Y906700D01*
X3112799Y910799D01*
X3123000Y912899D01*
X3133199Y912899D01*
X3141400Y910799D01*
X3145500Y906700D01*
X3147500Y900599D01*
X3147500Y898499D01*
X3145500Y892399D01*
X3141400Y888299D01*
X3135299Y886300D01*
X3133199Y886300D01*
X3127100Y888299D01*
X3123000Y892399D01*
X3121000Y898499D01*
X3121000Y900599D01*
X3123000Y906700D01*
X3127100Y910799D01*
X3133199Y912899D01*
X3179600Y955000D02*
G01*
X3222500Y955000D01*
X3179600Y955000D02*
G01*
X3179600Y936599D01*
X3181599Y930500D01*
X3183699Y928400D01*
X3187799Y926399D01*
X3191899Y926399D01*
X3196000Y928400D01*
X3198000Y930500D01*
X3200000Y936599D01*
X3200000Y955000D01*
X3200000Y940700D02*
G01*
X3222500Y926399D01*
X3179600Y888299D02*
G01*
X3179600Y908800D01*
X3198000Y910799D01*
X3196000Y908800D01*
X3193900Y902600D01*
X3193900Y896500D01*
X3196000Y890399D01*
X3200000Y886300D01*
X3206199Y884200D01*
X3210299Y884200D01*
X3216400Y886300D01*
X3220500Y890399D01*
X3222500Y896500D01*
X3222500Y902600D01*
X3220500Y908800D01*
X3218500Y910799D01*
X3214399Y912899D01*
X1771400Y1414299D02*
G01*
X1775500Y1418400D01*
X1781599Y1420399D01*
X1789799Y1420399D01*
X1795900Y1418400D01*
X1800000Y1414299D01*
X1800000Y1410199D01*
X1798000Y1406100D01*
X1795900Y1404000D01*
X1791800Y1401999D01*
X1779499Y1397899D01*
X1775500Y1395900D01*
X1773400Y1393800D01*
X1771400Y1389699D01*
X1771400Y1383600D01*
X1775500Y1379499D01*
X1781599Y1377500D01*
X1789799Y1377500D01*
X1795900Y1379499D01*
X1800000Y1383600D01*
X1757899Y1420399D02*
G01*
X1747600Y1377500D01*
X1737399Y1420399D02*
G01*
X1747600Y1377500D01*
X1737399Y1420399D02*
G01*
X1727200Y1377500D01*
X1716999Y1420399D02*
G01*
X1727200Y1377500D01*
X1703500Y1363099D02*
G01*
X1666599Y1363099D01*
X1653100Y1420399D02*
G01*
X1653100Y1377500D01*
X1653100Y1420399D02*
G01*
X1634700Y1420399D01*
X1628599Y1418400D01*
X1626499Y1416300D01*
X1624499Y1412199D01*
X1624499Y1408099D01*
X1626499Y1404000D01*
X1628599Y1401999D01*
X1634700Y1400000D01*
X1653100Y1400000D02*
G01*
X1634700Y1400000D01*
X1628599Y1397899D01*
X1626499Y1395900D01*
X1624499Y1391799D01*
X1624499Y1385599D01*
X1626499Y1381500D01*
X1628599Y1379499D01*
X1634700Y1377500D01*
X1653100Y1377500D01*
X1598699Y1420399D02*
G01*
X1602799Y1418400D01*
X1606899Y1414299D01*
X1608999Y1410199D01*
X1611000Y1404000D01*
X1611000Y1393800D01*
X1608999Y1387699D01*
X1606899Y1383600D01*
X1602799Y1379499D01*
X1598699Y1377500D01*
X1590500Y1377500D01*
X1586499Y1379499D01*
X1582399Y1383600D01*
X1580299Y1387699D01*
X1578299Y1393800D01*
X1578299Y1404000D01*
X1580299Y1410199D01*
X1582399Y1414299D01*
X1586499Y1418400D01*
X1590500Y1420399D01*
X1598699Y1420399D01*
X1552500Y1420399D02*
G01*
X1556599Y1418400D01*
X1560699Y1414299D01*
X1562700Y1410199D01*
X1564799Y1404000D01*
X1564799Y1393800D01*
X1562700Y1387699D01*
X1560699Y1383600D01*
X1556599Y1379499D01*
X1552500Y1377500D01*
X1544300Y1377500D01*
X1540200Y1379499D01*
X1536099Y1383600D01*
X1534099Y1387699D01*
X1531999Y1393800D01*
X1531999Y1404000D01*
X1534099Y1410199D01*
X1536099Y1414299D01*
X1540200Y1418400D01*
X1544300Y1420399D01*
X1552500Y1420399D01*
X1504200Y1420399D02*
G01*
X1504200Y1377500D01*
X1518500Y1420399D02*
G01*
X1489899Y1420399D01*
X2804600Y1375000D02*
G01*
X2835299Y1375000D01*
X2841400Y1373000D01*
X2845500Y1368899D01*
X2847500Y1362699D01*
X2847500Y1358600D01*
X2845500Y1352500D01*
X2841400Y1348400D01*
X2835299Y1346399D01*
X2804600Y1346399D01*
X2804600Y1328800D02*
G01*
X2804600Y1306300D01*
X2821000Y1318499D01*
X2821000Y1312399D01*
X2823000Y1308299D01*
X2825000Y1306300D01*
X2831199Y1304200D01*
X2835299Y1304200D01*
X2841400Y1306300D01*
X2845500Y1310399D01*
X2847500Y1316500D01*
X2847500Y1322600D01*
X2845500Y1328800D01*
X2843500Y1330799D01*
X2839399Y1332899D01*
X2027399Y1097500D02*
G01*
X2027399Y1066799D01*
X2025399Y1060700D01*
X2021300Y1056599D01*
X2015100Y1054600D01*
X2011000Y1054600D01*
X2004899Y1056599D01*
X2000799Y1060700D01*
X1998800Y1066799D01*
X1998800Y1097500D01*
X1985299Y1089299D02*
G01*
X1981199Y1091399D01*
X1975000Y1097500D01*
X1975000Y1054600D01*
X2396400Y1414299D02*
G01*
X2400500Y1418400D01*
X2406599Y1420399D01*
X2414799Y1420399D01*
X2420900Y1418400D01*
X2425000Y1414299D01*
X2425000Y1410199D01*
X2423000Y1406100D01*
X2420900Y1404000D01*
X2416800Y1401999D01*
X2404499Y1397899D01*
X2400500Y1395900D01*
X2398400Y1393800D01*
X2396400Y1389699D01*
X2396400Y1383600D01*
X2400500Y1379499D01*
X2406599Y1377500D01*
X2414799Y1377500D01*
X2420900Y1379499D01*
X2425000Y1383600D01*
X2382899Y1420399D02*
G01*
X2372600Y1377500D01*
X2362399Y1420399D02*
G01*
X2372600Y1377500D01*
X2362399Y1420399D02*
G01*
X2352200Y1377500D01*
X2341999Y1420399D02*
G01*
X2352200Y1377500D01*
X2328500Y1363099D02*
G01*
X2291599Y1363099D01*
X2278100Y1420399D02*
G01*
X2278100Y1377500D01*
X2278100Y1420399D02*
G01*
X2251499Y1420399D01*
X2278100Y1400000D02*
G01*
X2261800Y1400000D01*
X2278100Y1377500D02*
G01*
X2251499Y1377500D01*
X2238000Y1420399D02*
G01*
X2238000Y1377500D01*
X2238000Y1420399D02*
G01*
X2209399Y1377500D01*
X2209399Y1420399D02*
G01*
X2209399Y1377500D01*
X1654499Y1510399D02*
G01*
X1654499Y1477699D01*
X1656599Y1471500D01*
X1658599Y1469499D01*
X1662699Y1467500D01*
X1666800Y1467498D01*
X1670900Y1469499D01*
X1673000Y1471498D01*
X1675000Y1477699D01*
X1675000Y1481799D01*
X1626700Y1510399D02*
G01*
X1626700Y1467500D01*
X1641000Y1510399D02*
G01*
X1612399Y1510399D01*
X1582500Y1510399D02*
G01*
X1598900Y1467500D01*
X1582500Y1510399D02*
G01*
X1566198Y1467500D01*
X1592799Y1481799D02*
G01*
X1572299Y1481799D01*
X1521999Y1500199D02*
G01*
X1523999Y1504301D01*
X1528100Y1508400D01*
X1532200Y1510399D01*
X1540399Y1510399D01*
X1544499Y1508400D01*
X1548600Y1504299D01*
X1550600Y1500201D01*
X1552700Y1494000D01*
X1552700Y1483798D01*
X1550600Y1477699D01*
X1548599Y1473600D01*
X1544499Y1469499D01*
X1540399Y1467500D01*
X1532200Y1467501D01*
X1528100Y1469499D01*
X1523999Y1473600D01*
X1521999Y1477701D01*
X1521999Y1483800D01*
X1532200Y1483800D02*
G01*
X1521999Y1483800D01*
X3252498Y1070801D02*
G01*
X3295398Y1070801D01*
X3252498Y1070801D02*
G01*
X3252498Y1056500D01*
X3254498Y1050300D01*
X3258599Y1046300D01*
X3262699Y1044200D01*
X3268899Y1042201D01*
X3279098Y1042201D01*
X3285199Y1044200D01*
X3289299Y1046300D01*
X3293398Y1050300D01*
X3295398Y1056500D01*
X3295398Y1070801D01*
X3252498Y1024600D02*
G01*
X3252498Y1002100D01*
X3268899Y1014301D01*
X3268899Y1008200D01*
X3270898Y1004101D01*
X3272898Y1002100D01*
X3279098Y1000001D01*
X3283199Y1000001D01*
X3289299Y1002100D01*
X3293398Y1006201D01*
X3295398Y1012301D01*
X3295398Y1018400D01*
X3293398Y1024600D01*
X3291399Y1026601D01*
X3287299Y1028701D01*
X3707510Y500470D02*
G01*
X3738209Y500470D01*
X3744309Y498470D01*
X3748410Y494369D01*
X3750410Y488170D01*
X3750410Y484070D01*
X3748410Y477970D01*
X3744309Y473870D01*
X3738209Y471869D01*
X3707510Y471869D01*
X3713609Y429670D02*
G01*
X3709510Y433769D01*
X3707510Y439969D01*
X3707510Y448069D01*
X3709510Y454270D01*
X3713609Y458369D01*
X3717709Y458369D01*
X3721809Y456269D01*
X3723909Y454270D01*
X3725910Y450169D01*
X3730010Y437869D01*
X3732010Y433769D01*
X3734110Y431770D01*
X3738209Y429670D01*
X3744309Y429670D01*
X3748410Y433769D01*
X3750410Y439969D01*
X3750410Y448069D01*
X3748410Y454270D01*
X3744309Y458369D01*
X3707510Y416170D02*
G01*
X3750410Y416170D01*
X3707510Y416170D02*
G01*
X3707510Y397770D01*
X3709510Y391669D01*
X3711610Y389569D01*
X3715709Y387570D01*
X3719809Y387570D01*
X3723909Y389569D01*
X3725910Y391669D01*
X3727910Y397770D01*
X3727910Y416170D02*
G01*
X3727910Y397770D01*
X3730010Y391669D01*
X3732010Y389569D01*
X3736109Y387570D01*
X3742309Y387570D01*
X3746409Y389569D01*
X3748410Y391669D01*
X3750410Y397770D01*
X3750410Y416170D01*
X3715709Y374070D02*
G01*
X3713609Y369969D01*
X3707510Y363870D01*
X3750410Y363870D01*
X1400000Y420399D02*
G01*
X1400000Y377500D01*
X1400000Y420399D02*
G01*
X1381599Y420399D01*
X1375500Y418400D01*
X1373400Y416300D01*
X1371400Y412199D01*
X1371400Y408099D01*
X1373400Y404000D01*
X1375500Y401999D01*
X1381599Y400000D01*
X1400000Y400000D01*
X1385699Y400000D02*
G01*
X1371400Y377500D01*
X1329200Y420399D02*
G01*
X1349700Y377500D01*
X1357899Y420399D02*
G01*
X1329200Y420399D01*
X1395000Y575399D02*
G01*
X1395000Y532500D01*
X1395000Y575399D02*
G01*
X1376599Y575399D01*
X1370500Y573400D01*
X1368400Y571300D01*
X1366400Y567199D01*
X1366400Y563099D01*
X1368400Y559000D01*
X1370500Y556999D01*
X1376599Y555000D01*
X1395000Y555000D01*
X1380699Y555000D02*
G01*
X1366400Y532500D01*
X1326300Y561100D02*
G01*
X1328299Y555000D01*
X1332399Y550900D01*
X1338500Y548800D01*
X1340600Y548800D01*
X1346700Y550900D01*
X1350799Y555000D01*
X1352899Y561100D01*
X1352899Y563099D01*
X1350799Y569299D01*
X1346700Y573400D01*
X1340600Y575399D01*
X1338500Y575399D01*
X1332399Y573400D01*
X1328299Y569299D01*
X1326300Y561100D01*
X1326300Y550900D01*
X1328299Y540599D01*
X1332399Y534499D01*
X1338500Y532500D01*
X1342600Y532500D01*
X1348800Y534499D01*
X1350799Y538600D01*
X3314799Y1519304D02*
G01*
X3310699Y1521404D01*
X3306599Y1525504D01*
X3304600Y1529504D01*
X3304600Y1537705D01*
X3306599Y1541804D01*
X3310699Y1545904D01*
X3314799Y1548004D01*
X3321000Y1550005D01*
X3331199Y1550005D01*
X3337299Y1548004D01*
X3341400Y1545904D01*
X3345500Y1541804D01*
X3347500Y1537705D01*
X3347500Y1529504D01*
X3345500Y1525504D01*
X3341400Y1521404D01*
X3337299Y1519304D01*
X3304600Y1501705D02*
G01*
X3304600Y1479205D01*
X3321000Y1491505D01*
X3321000Y1485405D01*
X3323000Y1481305D01*
X3325000Y1479205D01*
X3331199Y1477204D01*
X3335299Y1477204D01*
X3341400Y1479205D01*
X3345500Y1483305D01*
X3347500Y1489504D01*
X3347500Y1495605D01*
X3345500Y1501705D01*
X3343500Y1503805D01*
X3339399Y1505805D01*
X1355699Y239800D02*
G01*
X1353599Y235700D01*
X1349499Y231599D01*
X1345500Y229600D01*
X1337299Y229600D01*
X1333199Y231599D01*
X1329099Y235700D01*
X1326999Y239800D01*
X1325000Y245999D01*
X1325000Y256199D01*
X1326999Y262300D01*
X1329099Y266399D01*
X1333199Y270500D01*
X1337299Y272500D01*
X1345500Y272500D01*
X1349499Y270500D01*
X1353599Y266399D01*
X1355699Y262300D01*
X1389600Y229600D02*
G01*
X1369200Y258200D01*
X1399899Y258200D01*
X1389600Y229600D02*
G01*
X1389600Y272500D01*
X2644323Y285181D02*
G01*
X2646369Y289272D01*
X2650460Y293364D01*
X2654549Y295408D01*
X2662731Y295408D01*
X2666823Y293364D01*
X2670914Y289272D01*
X2672960Y285181D01*
X2675005Y279045D01*
X2675005Y268818D01*
X2672960Y262681D01*
X2670914Y258591D01*
X2666823Y254499D01*
X2662731Y252454D01*
X2654549Y252454D01*
X2650460Y254499D01*
X2646369Y258591D01*
X2644323Y262681D01*
X2606278Y295408D02*
G01*
X2626732Y295408D01*
X2628778Y276999D01*
X2626732Y279045D01*
X2620595Y281091D01*
X2614459Y281091D01*
X2608323Y279045D01*
X2604232Y274954D01*
X2602187Y268818D01*
X2602187Y264726D01*
X2604232Y258591D01*
X2608323Y254499D01*
X2614459Y252454D01*
X2620595Y252454D01*
X2626732Y254499D01*
X2628778Y256545D01*
X2630823Y260635D01*
X1355686Y464818D02*
G01*
X1353640Y460727D01*
X1349549Y456635D01*
X1345460Y454591D01*
X1337277Y454591D01*
X1333186Y456635D01*
X1329095Y460727D01*
X1327049Y464818D01*
X1325005Y470954D01*
X1325005Y481181D01*
X1327049Y487318D01*
X1329095Y491408D01*
X1333186Y495500D01*
X1337277Y497545D01*
X1345460Y497545D01*
X1349549Y495500D01*
X1353640Y491408D01*
X1355686Y487318D01*
X1393732Y460727D02*
G01*
X1391687Y456635D01*
X1385550Y454591D01*
X1381459Y454591D01*
X1375322Y456635D01*
X1371232Y462773D01*
X1369187Y473000D01*
X1369187Y483227D01*
X1371232Y491408D01*
X1375322Y495500D01*
X1381459Y497545D01*
X1383504Y497545D01*
X1389641Y495500D01*
X1393732Y491408D01*
X1395778Y485273D01*
X1395778Y483227D01*
X1393732Y477091D01*
X1389641Y473000D01*
X1383504Y470954D01*
X1381459Y470954D01*
X1375322Y473000D01*
X1371232Y477091D01*
X1369187Y483227D01*
X2499799Y1254299D02*
G01*
X2495699Y1256399D01*
X2491599Y1260500D01*
X2489600Y1264499D01*
X2489600Y1272699D01*
X2491599Y1276799D01*
X2495699Y1280900D01*
X2499799Y1283000D01*
X2506000Y1285000D01*
X2516199Y1285000D01*
X2522299Y1283000D01*
X2526400Y1280900D01*
X2530500Y1276799D01*
X2532500Y1272699D01*
X2532500Y1264499D01*
X2530500Y1260500D01*
X2526400Y1256399D01*
X2522299Y1254299D01*
X2489600Y1212199D02*
G01*
X2532500Y1232600D01*
X2489600Y1240799D02*
G01*
X2489600Y1212199D01*
X2642700Y5075100D02*
G01*
X2638599Y5077199D01*
X2634499Y5081300D01*
X2632500Y5085300D01*
X2632500Y5093499D01*
X2634499Y5097600D01*
X2638599Y5101700D01*
X2642700Y5103800D01*
X2648900Y5105799D01*
X2659099Y5105799D01*
X2665200Y5103800D01*
X2669300Y5101700D01*
X2673400Y5097600D01*
X2675399Y5093499D01*
X2675399Y5085300D01*
X2673400Y5081300D01*
X2669300Y5077199D01*
X2665200Y5075100D01*
X2646800Y5035000D02*
G01*
X2652899Y5037100D01*
X2656999Y5041199D01*
X2659099Y5047300D01*
X2659099Y5049299D01*
X2656999Y5055500D01*
X2652899Y5059600D01*
X2646800Y5061599D01*
X2644799Y5061599D01*
X2638599Y5059600D01*
X2634499Y5055500D01*
X2632500Y5049299D01*
X2632500Y5047300D01*
X2634499Y5041199D01*
X2638599Y5037100D01*
X2646800Y5035000D01*
X2656999Y5035000D01*
X2667299Y5037100D01*
X2673400Y5041199D01*
X2675399Y5047300D01*
X2675399Y5051399D01*
X2673400Y5057500D01*
X2669300Y5059600D01*
X3034682Y4998206D02*
G01*
X3031545Y5001581D01*
X3029095Y5006837D01*
X3028585Y5011280D01*
X3031390Y5018984D01*
X3034670Y5022154D01*
X3039925Y5024605D01*
X3044498Y5025176D01*
X3051006Y5024933D01*
X3060591Y5021446D01*
X3065640Y5017480D01*
X3068774Y5014105D01*
X3071225Y5008849D01*
X3071701Y5004312D01*
X3068897Y4996606D01*
X3065649Y4993532D01*
X3060396Y4991082D01*
X3055825Y4990511D01*
X3028185Y4986203D02*
G01*
X3024808Y4983069D01*
X3016989Y4979423D01*
X3057304Y4964751D01*
X3008167Y4955180D02*
G01*
X3012166Y4960322D01*
X3019359Y4961959D01*
X3029664Y4960445D01*
X3035396Y4958359D01*
X3044355Y4952863D01*
X3048720Y4947017D01*
X3048478Y4940506D01*
X3047076Y4936655D01*
X3043110Y4931606D01*
X3035977Y4929839D01*
X3025613Y4931484D01*
X3019881Y4933570D01*
X3010981Y4938937D01*
X3006557Y4944911D01*
X3006764Y4951327D01*
X3008167Y4955180D01*
X3273257Y4900214D02*
G01*
X3270182Y4903643D01*
X3267824Y4908939D01*
X3267389Y4913391D01*
X3270327Y4921046D01*
X3273665Y4924157D01*
X3278962Y4926516D01*
X3283541Y4927006D01*
X3290047Y4926653D01*
X3299569Y4922997D01*
X3304548Y4918944D01*
X3307623Y4915513D01*
X3309980Y4910216D01*
X3310379Y4905673D01*
X3307439Y4898017D01*
X3304138Y4894998D01*
X3298842Y4892640D01*
X3294263Y4892150D01*
X3266552Y4888326D02*
G01*
X3263122Y4885252D01*
X3255240Y4881743D01*
X3295290Y4866369D01*
X3258058Y4866201D02*
G01*
X3254629Y4863126D01*
X3246747Y4859616D01*
X3286797Y4844243D01*
X3500163Y4817849D02*
G01*
X3497029Y4821226D01*
X3494579Y4826480D01*
X3494066Y4830924D01*
X3496872Y4838629D01*
X3500154Y4841797D01*
X3505408Y4844247D01*
X3509979Y4844820D01*
X3516490Y4844578D01*
X3526073Y4841089D01*
X3531122Y4837123D01*
X3534256Y4833748D01*
X3536706Y4828492D01*
X3537183Y4823957D01*
X3534380Y4816251D01*
X3531131Y4813175D01*
X3525878Y4810726D01*
X3521306Y4810155D01*
X3493666Y4805848D02*
G01*
X3490290Y4802714D01*
X3482473Y4799068D01*
X3522785Y4784394D01*
X3486721Y4780920D02*
G01*
X3484841Y4781604D01*
X3480306Y4781127D01*
X3477649Y4779965D01*
X3474367Y4776797D01*
X3471562Y4769092D01*
X3472039Y4764555D01*
X3473294Y4761862D01*
X3476463Y4758582D01*
X3480316Y4757179D01*
X3484853Y4757656D01*
X3491986Y4759423D01*
X3518167Y4771709D01*
X3508386Y4744834D01*
X3623338Y4558341D02*
G01*
X3621183Y4562413D01*
X3620177Y4568125D01*
X3620833Y4572548D01*
X3625536Y4579265D01*
X3629525Y4581475D01*
X3635236Y4582483D01*
X3639799Y4581851D01*
X3646024Y4579933D01*
X3654380Y4574083D01*
X3658230Y4568946D01*
X3660384Y4564874D01*
X3661391Y4559164D01*
X3660677Y4554659D01*
X3655973Y4547941D01*
X3652042Y4545812D01*
X3646331Y4544805D01*
X3641768Y4545436D01*
X3613954Y4548431D02*
G01*
X3609884Y4546277D01*
X3601387Y4544778D01*
X3636529Y4520173D01*
X3591292Y4530362D02*
G01*
X3578388Y4511931D01*
X3598877Y4512600D01*
X3595321Y4507521D01*
X3594606Y4503015D01*
X3595099Y4500230D01*
X3599030Y4495034D01*
X3602389Y4492683D01*
X3608532Y4490823D01*
X3614242Y4491830D01*
X3619380Y4495680D01*
X3622935Y4500758D01*
X3624795Y4506903D01*
X3624305Y4509688D01*
X3622151Y4513760D01*
X3784858Y4376075D02*
G01*
X3783443Y4380461D01*
X3783443Y4386259D01*
X3784858Y4390500D01*
X3790655Y4396298D01*
X3794970Y4397784D01*
X3800767Y4397784D01*
X3805153Y4396370D01*
X3810950Y4393400D01*
X3818163Y4386187D01*
X3821062Y4380459D01*
X3822475Y4376075D01*
X3822475Y4370277D01*
X3820991Y4365963D01*
X3815192Y4360165D01*
X3810950Y4358751D01*
X3805153Y4358751D01*
X3800769Y4360165D01*
X3773897Y4367944D02*
G01*
X3769513Y4366529D01*
X3760888Y4366529D01*
X3791223Y4336194D01*
X3736846Y4342487D02*
G01*
X3771565Y4336761D01*
X3749856Y4315054D01*
X3736846Y4342487D02*
G01*
X3767181Y4312154D01*
X3822579Y4097114D02*
G01*
X3823389Y4101651D01*
X3826112Y4106770D01*
X3829351Y4109852D01*
X3837193Y4112249D01*
X3841700Y4111536D01*
X3846818Y4108814D01*
X3850025Y4105506D01*
X3853751Y4100162D01*
X3856733Y4090408D01*
X3856604Y4083989D01*
X3855794Y4079454D01*
X3853073Y4074335D01*
X3849736Y4071224D01*
X3841895Y4068827D01*
X3837484Y4069569D01*
X3832366Y4072292D01*
X3829157Y4075599D01*
X3809084Y4095082D02*
G01*
X3804551Y4095891D01*
X3796932Y4099940D01*
X3809476Y4058915D01*
X3760497Y4088802D02*
G01*
X3780101Y4094794D01*
X3787394Y4077784D01*
X3784898Y4079112D01*
X3778450Y4079337D01*
X3772520Y4077523D01*
X3767301Y4073732D01*
X3764549Y4068708D01*
X3764449Y4062193D01*
X3765649Y4058274D01*
X3769345Y4053024D01*
X3774465Y4050302D01*
X3780883Y4050174D01*
X3786810Y4051986D01*
X3792061Y4055682D01*
X3793388Y4058180D01*
X3794198Y4062714D01*
X3886238Y3861725D02*
G01*
X3886967Y3866273D01*
X3889601Y3871439D01*
X3892785Y3874578D01*
X3900585Y3877112D01*
X3905101Y3876478D01*
X3910268Y3873845D01*
X3913532Y3870594D01*
X3917350Y3865317D01*
X3920502Y3855616D01*
X3920486Y3849196D01*
X3919755Y3844648D01*
X3917123Y3839481D01*
X3913842Y3836311D01*
X3906042Y3833778D01*
X3901620Y3834445D01*
X3896454Y3837076D01*
X3893190Y3840327D01*
X3872780Y3859456D02*
G01*
X3868231Y3860185D01*
X3860546Y3864103D01*
X3873802Y3823301D01*
X3826194Y3846527D02*
G01*
X3826926Y3851077D01*
X3832109Y3854863D01*
X3836008Y3856129D01*
X3842523Y3856143D01*
X3848243Y3851484D01*
X3853392Y3842431D01*
X3856544Y3832730D01*
X3857080Y3824283D01*
X3854543Y3819148D01*
X3849264Y3815329D01*
X3847363Y3814711D01*
X3840847Y3814699D01*
X3835681Y3817330D01*
X3831895Y3822514D01*
X3831246Y3824511D01*
X3831264Y3830929D01*
X3833896Y3836096D01*
X3839174Y3839915D01*
X3841076Y3840533D01*
X3847591Y3840547D01*
X3852663Y3837883D01*
X3856544Y3832730D01*
X2867202Y4849674D02*
G01*
X2864249Y4853209D01*
X2862076Y4858584D01*
X2861799Y4863049D01*
X2865002Y4870596D01*
X2868446Y4873589D01*
X2873822Y4875762D01*
X2878416Y4876093D01*
X2884904Y4875511D01*
X2894295Y4871525D01*
X2899128Y4867301D01*
X2902082Y4863766D01*
X2904254Y4858389D01*
X2904493Y4853834D01*
X2901288Y4846286D01*
X2897884Y4843386D01*
X2892509Y4841214D01*
X2887914Y4840882D01*
X2860087Y4838029D02*
G01*
X2856552Y4835075D01*
X2848553Y4831844D01*
X2888042Y4815081D01*
X2832103Y4793090D02*
G01*
X2879564Y4795106D01*
X2843278Y4819416D02*
G01*
X2832103Y4793090D01*
X3086035Y4767534D02*
G01*
X3083020Y4771017D01*
X3080754Y4776354D01*
X3080398Y4780812D01*
X3083470Y4788416D01*
X3086862Y4791468D01*
X3092199Y4793733D01*
X3096787Y4794144D01*
X3103284Y4793676D01*
X3112741Y4789856D01*
X3117649Y4785716D01*
X3120663Y4782233D01*
X3122929Y4776896D01*
X3123247Y4772345D01*
X3120176Y4764742D01*
X3116823Y4761783D01*
X3111486Y4759517D01*
X3106896Y4759106D01*
X3079124Y4755767D02*
G01*
X3075640Y4752752D01*
X3067700Y4749382D01*
X3107476Y4733310D01*
X3058822Y4727408D02*
G01*
X3062960Y4732314D01*
X3067511Y4732631D01*
X3071314Y4731097D01*
X3074366Y4727707D01*
X3074777Y4723117D01*
X3073558Y4714766D01*
X3073128Y4708362D01*
X3075393Y4703022D01*
X3078446Y4699634D01*
X3084194Y4697311D01*
X3088746Y4697629D01*
X3091350Y4698735D01*
X3095527Y4703733D01*
X3098598Y4711336D01*
X3099029Y4717741D01*
X3097923Y4720345D01*
X3094908Y4723827D01*
X3089160Y4726151D01*
X3084571Y4725740D01*
X3079273Y4723566D01*
X3075096Y4718566D01*
X3070169Y4711714D01*
X3066687Y4708699D01*
X3062136Y4708380D01*
X3058334Y4709915D01*
X3055281Y4713307D01*
X3055751Y4719805D01*
X3058822Y4727408D01*
X3321727Y4663321D02*
G01*
X3318711Y4666804D01*
X3316445Y4672141D01*
X3316090Y4676599D01*
X3319161Y4684203D01*
X3322551Y4687253D01*
X3327888Y4689520D01*
X3332478Y4689931D01*
X3338976Y4689463D01*
X3348432Y4685641D01*
X3353339Y4681502D01*
X3356354Y4678020D01*
X3358620Y4672682D01*
X3358937Y4668132D01*
X3355865Y4660529D01*
X3352512Y4657568D01*
X3347175Y4655304D01*
X3342587Y4654893D01*
X3314813Y4651554D02*
G01*
X3311333Y4648537D01*
X3303389Y4645167D01*
X3343167Y4629097D01*
X3301628Y4602631D02*
G01*
X3308032Y4602201D01*
X3313370Y4604466D01*
X3317640Y4609427D01*
X3318388Y4611282D01*
X3318764Y4617817D01*
X3316462Y4623062D01*
X3311592Y4627294D01*
X3309737Y4628042D01*
X3303203Y4628418D01*
X3297902Y4626246D01*
X3293725Y4621246D01*
X3292978Y4619391D01*
X3292507Y4612894D01*
X3294773Y4607557D01*
X3301628Y4602631D01*
X3311085Y4598809D01*
X3321383Y4596804D01*
X3328576Y4598321D01*
X3332754Y4603321D01*
X3334288Y4607123D01*
X3334719Y4613528D01*
X3331665Y4616918D01*
X3461117Y4449398D02*
G01*
X3458963Y4453471D01*
X3457956Y4459180D01*
X3458612Y4463604D01*
X3463316Y4470320D01*
X3467305Y4472532D01*
X3473015Y4473539D01*
X3477579Y4472908D01*
X3483805Y4470990D01*
X3492160Y4465140D01*
X3496009Y4460001D01*
X3498164Y4455931D01*
X3499170Y4450219D01*
X3498456Y4445715D01*
X3493753Y4438996D01*
X3489822Y4436869D01*
X3484111Y4435861D01*
X3479548Y4436493D01*
X3452227Y4436702D02*
G01*
X3450589Y4437847D01*
X3446026Y4438480D01*
X3443158Y4438045D01*
X3439169Y4435834D01*
X3434465Y4429117D01*
X3433752Y4424612D01*
X3434324Y4421770D01*
X3436478Y4417698D01*
X3439836Y4415346D01*
X3444399Y4414713D01*
X3451749Y4414573D01*
X3480159Y4419584D01*
X3463756Y4396156D01*
X3413815Y4399627D02*
G01*
X3418954Y4403478D01*
X3426383Y4403281D01*
X3435943Y4399150D01*
X3440941Y4395650D01*
X3448173Y4388022D01*
X3450819Y4381165D01*
X3448958Y4375021D01*
X3446606Y4371664D01*
X3441468Y4367813D01*
X3434120Y4367954D01*
X3424479Y4372141D01*
X3419481Y4375641D01*
X3412331Y4383211D01*
X3409605Y4390124D01*
X3411464Y4396269D01*
X3413815Y4399627D01*
X3586593Y4197008D02*
G01*
X3587322Y4201556D01*
X3589955Y4206723D01*
X3593140Y4209861D01*
X3600940Y4212395D01*
X3605457Y4211759D01*
X3610623Y4209128D01*
X3613887Y4205877D01*
X3617705Y4200599D01*
X3620857Y4190898D01*
X3620841Y4184479D01*
X3620110Y4179929D01*
X3617478Y4174764D01*
X3614197Y4171595D01*
X3606397Y4169061D01*
X3601976Y4169726D01*
X3596809Y4172359D01*
X3593545Y4175610D01*
X3571850Y4192219D02*
G01*
X3571233Y4194121D01*
X3567969Y4197370D01*
X3565417Y4198751D01*
X3560901Y4199385D01*
X3553101Y4196851D01*
X3549821Y4193683D01*
X3548567Y4191066D01*
X3547836Y4186518D01*
X3549103Y4182620D01*
X3552368Y4179369D01*
X3558153Y4174834D01*
X3583858Y4161736D01*
X3556657Y4152899D01*
X3533095Y4181729D02*
G01*
X3528548Y4182458D01*
X3520861Y4186376D01*
X3534117Y4145574D01*
X3664907Y3931194D02*
G01*
X3665637Y3935740D01*
X3668271Y3940907D01*
X3671455Y3944045D01*
X3679255Y3946579D01*
X3683771Y3945945D01*
X3688939Y3943312D01*
X3692202Y3940061D01*
X3696021Y3934783D01*
X3699173Y3925084D01*
X3699156Y3918663D01*
X3698425Y3914115D01*
X3695793Y3908948D01*
X3692512Y3905779D01*
X3684713Y3903245D01*
X3680290Y3903912D01*
X3675124Y3906543D01*
X3671860Y3909794D01*
X3650165Y3926404D02*
G01*
X3649548Y3928305D01*
X3646283Y3931556D01*
X3643733Y3932935D01*
X3639215Y3933569D01*
X3631417Y3931037D01*
X3628136Y3927867D01*
X3626881Y3925252D01*
X3626153Y3920704D01*
X3627419Y3916804D01*
X3630684Y3913553D01*
X3636468Y3909020D01*
X3662174Y3895922D01*
X3634974Y3887084D01*
X3610032Y3913362D02*
G01*
X3609413Y3915266D01*
X3606244Y3918546D01*
X3603598Y3919895D01*
X3599175Y3920560D01*
X3591378Y3918027D01*
X3588095Y3914859D01*
X3586747Y3912211D01*
X3586112Y3907694D01*
X3587380Y3903795D01*
X3590549Y3900513D01*
X3596333Y3895979D01*
X3622133Y3882912D01*
X3594839Y3874043D01*
X3737428Y3677393D02*
G01*
X3738158Y3681941D01*
X3740790Y3687107D01*
X3743976Y3690246D01*
X3751776Y3692781D01*
X3756292Y3692145D01*
X3761459Y3689513D01*
X3764723Y3686262D01*
X3768541Y3680983D01*
X3771692Y3671282D01*
X3771675Y3664863D01*
X3770946Y3660315D01*
X3768312Y3655149D01*
X3765033Y3651981D01*
X3757232Y3649445D01*
X3752811Y3650111D01*
X3747645Y3652743D01*
X3744381Y3655994D01*
X3722686Y3672604D02*
G01*
X3722067Y3674506D01*
X3718804Y3677757D01*
X3716252Y3679135D01*
X3711736Y3679769D01*
X3703936Y3677237D01*
X3700655Y3674067D01*
X3699403Y3671453D01*
X3698671Y3666905D01*
X3699939Y3663004D01*
X3703203Y3659753D01*
X3708987Y3655219D01*
X3734692Y3642123D01*
X3707493Y3633283D01*
X3677497Y3668645D02*
G01*
X3656099Y3661694D01*
X3672865Y3649897D01*
X3666967Y3647981D01*
X3663687Y3644812D01*
X3662403Y3642292D01*
X3662322Y3635745D01*
X3663587Y3631846D01*
X3667470Y3626694D01*
X3672637Y3624061D01*
X3679057Y3624045D01*
X3684952Y3625961D01*
X3690137Y3629747D01*
X3691421Y3632267D01*
X3692151Y3636817D01*
X2281754Y4686149D02*
G01*
X2270650Y4727588D01*
X2309380Y4693553D02*
G01*
X2298275Y4734989D01*
X2276473Y4705855D02*
G01*
X2304099Y4713258D01*
X2320297Y4704967D02*
G01*
X2324800Y4704000D01*
X2332367Y4699713D01*
X2321265Y4741151D01*
D10*
X3143899Y293503D02*
G01*
X3143899Y356496D01*
X3006100Y293503D02*
G01*
X3006102Y356496D01*
X3094684Y365945D02*
G01*
X3136022Y365945D01*
X3094684Y284054D02*
G01*
X3136022Y284054D01*
X3055315Y365945D02*
G01*
X3013977Y365945D01*
X3055315Y284054D02*
G01*
X3013977Y284054D01*
X3006100Y292719D02*
G01*
X3006100Y293503D01*
X3006100Y291930D02*
G01*
X3006100Y293503D01*
X3006102Y358069D02*
G01*
X3006102Y356496D01*
X3143899Y291930D02*
G01*
X3143899Y293503D01*
X3143899Y358069D02*
G01*
X3143899Y356496D01*
X3143899Y743503D02*
G01*
X3143899Y806496D01*
X3006100Y743503D02*
G01*
X3006102Y806496D01*
X3094684Y815945D02*
G01*
X3136022Y815945D01*
X3094684Y734054D02*
G01*
X3136022Y734054D01*
X3055315Y815945D02*
G01*
X3013977Y815945D01*
X3055315Y734054D02*
G01*
X3013977Y734054D01*
X3006100Y742719D02*
G01*
X3006100Y743503D01*
X3006100Y741930D02*
G01*
X3006100Y743503D01*
X3006102Y808069D02*
G01*
X3006102Y806496D01*
X3143899Y741930D02*
G01*
X3143899Y743503D01*
X3143899Y808069D02*
G01*
X3143899Y806496D01*
X3004133Y689762D02*
G01*
X3145865Y689762D01*
X3004133Y410237D02*
G01*
X3145865Y410237D01*
X3145865Y689762D02*
G01*
X3145865Y410237D01*
X3004133Y689762D02*
G01*
X3004134Y410237D01*
X3480000Y575000D02*
G01*
X3520000Y559000D01*
X3520000Y559000D02*
G01*
X3520000Y590999D01*
X3520000Y590999D02*
G01*
X3480000Y575000D01*
X3440945Y535630D02*
G01*
X3559054Y535630D01*
X3440945Y614369D02*
G01*
X3559054Y614369D01*
X3480000Y555000D02*
G01*
X3480000Y595000D01*
X3470000Y575000D02*
G01*
X3530000Y575000D01*
X3480000Y450000D02*
G01*
X3520000Y434000D01*
X3520000Y434000D02*
G01*
X3520000Y465999D01*
X3520000Y465999D02*
G01*
X3480000Y450000D01*
X3440945Y410630D02*
G01*
X3559054Y410630D01*
X3440945Y489369D02*
G01*
X3559054Y489369D01*
X3480000Y430000D02*
G01*
X3480000Y470000D01*
X3470000Y450000D02*
G01*
X3530000Y450000D01*
X1263670Y1377480D02*
G01*
X1232173Y1377480D01*
X1219975Y1333787D02*
G01*
X1219975Y1365282D01*
X1263670Y1321588D02*
G01*
X1232173Y1321588D01*
X1286342Y1377710D02*
G01*
X1317836Y1377710D01*
X1286342Y1321819D02*
G01*
X1317836Y1321819D01*
X1330034Y1334016D02*
G01*
X1330034Y1365513D01*
X2691808Y4500472D02*
G01*
X2735156Y4500472D01*
X2691809Y4559528D02*
G01*
X2735156Y4559528D01*
X2668163Y4500673D02*
G01*
X2624843Y4500673D01*
X2668163Y4559729D02*
G01*
X2624843Y4559729D01*
X2624843Y4559528D02*
G01*
X2624857Y4500472D01*
X2735117Y4559528D02*
G01*
X2735117Y4500472D01*
X2691808Y4425472D02*
G01*
X2735156Y4425472D01*
X2691809Y4484528D02*
G01*
X2735156Y4484528D01*
X2668163Y4425673D02*
G01*
X2624843Y4425673D01*
X2668163Y4484729D02*
G01*
X2624843Y4484729D01*
X2624843Y4484528D02*
G01*
X2624857Y4425472D01*
X2735117Y4484528D02*
G01*
X2735117Y4425472D01*
X2777384Y4716722D02*
G01*
X2832615Y4693278D01*
X2778774Y4694405D02*
G01*
X2794404Y4731224D01*
X2766022Y4764315D02*
G01*
X2874744Y4718164D01*
X2735255Y4691835D02*
G01*
X2843977Y4645684D01*
X2829661Y4711913D02*
G01*
X2786589Y4712815D01*
X2817157Y4682456D02*
G01*
X2829661Y4711913D01*
X2786589Y4712815D02*
G01*
X2817157Y4682456D01*
X2513191Y954528D02*
G01*
X2469843Y954528D01*
X2513190Y895471D02*
G01*
X2469843Y895471D01*
X2536836Y954326D02*
G01*
X2580156Y954326D01*
X2536836Y895270D02*
G01*
X2580156Y895270D01*
X2580156Y895471D02*
G01*
X2580142Y954528D01*
X2469883Y895471D02*
G01*
X2469883Y954528D01*
X2513191Y879528D02*
G01*
X2469843Y879528D01*
X2513190Y820471D02*
G01*
X2469843Y820471D01*
X2536836Y879326D02*
G01*
X2580156Y879326D01*
X2536836Y820270D02*
G01*
X2580156Y820270D01*
X2580156Y820471D02*
G01*
X2580142Y879528D01*
X2469883Y820471D02*
G01*
X2469883Y879528D01*
X2513191Y804528D02*
G01*
X2469843Y804528D01*
X2513190Y745471D02*
G01*
X2469843Y745471D01*
X2536836Y804326D02*
G01*
X2580156Y804326D01*
X2536836Y745270D02*
G01*
X2580156Y745270D01*
X2580156Y745471D02*
G01*
X2580142Y804528D01*
X2469883Y745471D02*
G01*
X2469883Y804528D01*
X2513191Y729528D02*
G01*
X2469843Y729528D01*
X2513190Y670471D02*
G01*
X2469843Y670471D01*
X2536836Y729326D02*
G01*
X2580156Y729326D01*
X2536836Y670270D02*
G01*
X2580156Y670270D01*
X2580156Y670471D02*
G01*
X2580142Y729528D01*
X2469883Y670471D02*
G01*
X2469883Y729528D01*
X293139Y609839D02*
G01*
X56920Y609839D01*
X56920Y373620D02*
G01*
X56920Y609839D01*
X293139Y373620D02*
G01*
X293139Y609839D01*
X253769Y546849D02*
G01*
X253769Y428739D01*
X96289Y428739D01*
X96289Y546849D01*
X214400Y468110D02*
G01*
X214400Y586219D01*
X135659Y586219D02*
G01*
X135659Y468110D01*
X293139Y373620D02*
G01*
X253499Y373620D01*
X175300Y373620D02*
G01*
X166734Y373620D01*
X104466Y373620D02*
G01*
X56920Y373620D01*
X995000Y425000D02*
G01*
X955000Y440999D01*
X955000Y440999D02*
G01*
X955000Y409000D01*
X955000Y409000D02*
G01*
X995000Y425000D01*
X1034054Y464369D02*
G01*
X915945Y464369D01*
X1034054Y385630D02*
G01*
X915945Y385630D01*
X995000Y445000D02*
G01*
X995000Y405000D01*
X1005000Y425000D02*
G01*
X945000Y425000D01*
X807087Y513386D02*
G01*
X834646Y513386D01*
X820866Y524956D02*
G01*
X820866Y503542D01*
X698798Y372600D02*
G01*
X694899Y372600D01*
X647638Y372638D01*
X647600Y419899D01*
X647638Y577361D02*
G01*
X655509Y577361D01*
X852361Y372638D02*
G01*
X844489Y372638D01*
X852361Y577361D02*
G01*
X844489Y577361D01*
X698820Y372638D02*
G01*
X793311Y372638D01*
X852361Y577361D02*
G01*
X852361Y372638D01*
X706698Y577399D02*
G01*
X793311Y577361D01*
X647638Y577361D02*
G01*
X647638Y419879D01*
X820866Y444486D02*
G01*
X820866Y430707D01*
X1486808Y770471D02*
G01*
X1530156Y770471D01*
X1486809Y829528D02*
G01*
X1530156Y829528D01*
X1463163Y770673D02*
G01*
X1419843Y770673D01*
X1463163Y829729D02*
G01*
X1419843Y829729D01*
X1419843Y829528D02*
G01*
X1419857Y770471D01*
X1530117Y829528D02*
G01*
X1530117Y770471D01*
X1181499Y682480D02*
G01*
X1149409Y682480D01*
X1149409Y656500D01*
X1149409Y593499D02*
G01*
X1149409Y567519D01*
X1149409Y593499D01*
X1149409Y567519D01*
X1181499Y567519D01*
D44*
X1210429Y636810D02*
G01*
X1210429Y613189D01*
D10*
X1168500Y942519D02*
G01*
X1200590Y942519D01*
X1200590Y968499D01*
X1200590Y1031500D02*
G01*
X1200590Y1057480D01*
X1200590Y1031500D01*
X1200590Y1057480D01*
X1168500Y1057480D01*
D44*
X1139570Y988189D02*
G01*
X1139570Y1011810D01*
D10*
X1181499Y907480D02*
G01*
X1149409Y907480D01*
X1149409Y881500D01*
X1149409Y818499D02*
G01*
X1149409Y792519D01*
X1149409Y818499D01*
X1149409Y792519D01*
X1181499Y792519D01*
D44*
X1210429Y861810D02*
G01*
X1210429Y838189D01*
D10*
X1486808Y595471D02*
G01*
X1530156Y595471D01*
X1486809Y654528D02*
G01*
X1530156Y654528D01*
X1463163Y595673D02*
G01*
X1419843Y595673D01*
X1463163Y654729D02*
G01*
X1419843Y654729D01*
X1419843Y654528D02*
G01*
X1419857Y595471D01*
X1530117Y654528D02*
G01*
X1530117Y595471D01*
X963191Y904528D02*
G01*
X919843Y904528D01*
X963190Y845471D02*
G01*
X919843Y845471D01*
X986836Y904326D02*
G01*
X1030156Y904326D01*
X986836Y845270D02*
G01*
X1030156Y845270D01*
X1030156Y845471D02*
G01*
X1030142Y904528D01*
X919882Y845471D02*
G01*
X919882Y904528D01*
X963191Y1004528D02*
G01*
X919843Y1004528D01*
X963190Y945471D02*
G01*
X919843Y945471D01*
X986836Y1004326D02*
G01*
X1030156Y1004326D01*
X986836Y945270D02*
G01*
X1030156Y945270D01*
X1030156Y945471D02*
G01*
X1030142Y1004528D01*
X919882Y945471D02*
G01*
X919882Y1004528D01*
X3154528Y1036808D02*
G01*
X3154528Y1080156D01*
X3095471Y1036808D02*
G01*
X3095471Y1080156D01*
X3154327Y1013162D02*
G01*
X3154327Y969843D01*
X3095271Y1013162D02*
G01*
X3095271Y969843D01*
X3095471Y969843D02*
G01*
X3154528Y969857D01*
X3095471Y1080117D02*
G01*
X3154528Y1080117D01*
X3229528Y1036808D02*
G01*
X3229528Y1080156D01*
X3170471Y1036808D02*
G01*
X3170471Y1080156D01*
X3229327Y1013162D02*
G01*
X3229327Y969843D01*
X3170271Y1013162D02*
G01*
X3170271Y969843D01*
X3170471Y969843D02*
G01*
X3229528Y969857D01*
X3170471Y1080117D02*
G01*
X3229528Y1080117D01*
X1768109Y1368110D02*
G01*
X1531890Y1368110D01*
X1531890Y1131889D01*
X1768109Y1131889D01*
X1768109Y1368110D01*
X2855118Y1252165D02*
G01*
X2855118Y1397835D01*
X2855118Y1397835D02*
G01*
X3244881Y1397835D01*
X3244881Y1355000D01*
X3245000Y1300000D02*
G01*
X3245000Y1252165D01*
X3244881Y1252165D01*
X2855118Y1252165D01*
X2354331Y11062D02*
G01*
X2354331Y265626D01*
X1645668Y11062D02*
G01*
X1645668Y265000D01*
X2354331Y11062D02*
G01*
X1645668Y11062D01*
X2354331Y258463D02*
G01*
X1645668Y258463D01*
X2355000Y278497D02*
G01*
X2355000Y258463D01*
X2251817Y1015000D02*
G01*
X2355000Y1015000D01*
X2355000Y982132D01*
X1645668Y982132D02*
G01*
X1645668Y1015000D01*
X1748182Y1015000D01*
X1645668Y258463D02*
G01*
X1645668Y278497D01*
X2418109Y1368110D02*
G01*
X2181890Y1368110D01*
X2181890Y1131889D01*
X2418109Y1131889D01*
X2418109Y1368110D01*
X2200000Y1440001D02*
G01*
X2199998Y1540000D01*
X2199998Y1540000D02*
G01*
X2100000Y1540000D01*
X2100000Y1540000D02*
G01*
X1700000Y1539998D01*
X1700000Y1539998D02*
G01*
X1700001Y1440000D01*
X1700001Y1440000D02*
G01*
X2100000Y1440000D01*
X2100000Y1440000D02*
G01*
X2200000Y1440001D01*
X2100000Y1440000D02*
G01*
X2100000Y1540000D01*
D45*
X3306688Y997444D02*
G01*
X3306688Y1052563D01*
X3393302Y997444D02*
G01*
X3393302Y1052563D01*
X3393302Y1052563D02*
G01*
X3390060Y1052563D01*
X3309930Y1052563D02*
G01*
X3306688Y1052563D01*
X3393302Y997444D02*
G01*
X3390060Y997444D01*
X3309930Y997444D02*
G01*
X3306688Y997444D01*
D10*
X3791769Y629998D02*
G01*
X3791769Y639998D01*
X4001769Y639998D01*
X4001769Y359998D01*
X3791769Y359998D01*
X3791769Y369998D01*
X4001769Y639998D02*
G01*
X4011769Y649998D01*
X4001769Y359998D02*
G01*
X4011769Y349998D01*
X3891769Y600000D02*
G01*
X3891769Y570000D01*
X3961769Y570000D01*
X3961769Y600000D01*
X3891769Y600000D01*
X3891769Y430000D02*
G01*
X3891769Y400000D01*
X3961769Y400000D01*
X3961769Y430000D01*
X3891769Y430000D01*
X1486808Y345471D02*
G01*
X1530156Y345471D01*
X1486809Y404528D02*
G01*
X1530156Y404528D01*
X1463163Y345673D02*
G01*
X1419843Y345673D01*
X1463163Y404729D02*
G01*
X1419843Y404729D01*
X1419843Y404528D02*
G01*
X1419857Y345471D01*
X1530117Y404528D02*
G01*
X1530117Y345471D01*
X1486808Y520471D02*
G01*
X1530156Y520471D01*
X1486809Y579528D02*
G01*
X1530156Y579528D01*
X1463163Y520673D02*
G01*
X1419843Y520673D01*
X1463163Y579729D02*
G01*
X1419843Y579729D01*
X1419843Y579528D02*
G01*
X1419857Y520471D01*
X1530117Y579528D02*
G01*
X1530117Y520471D01*
X3352479Y1411365D02*
G01*
X3352479Y1442862D01*
X3308787Y1455059D02*
G01*
X3340282Y1455059D01*
X3296589Y1411365D02*
G01*
X3296589Y1442862D01*
X3352709Y1388692D02*
G01*
X3352709Y1357197D01*
X3296818Y1388692D02*
G01*
X3296818Y1357197D01*
X3309016Y1345000D02*
G01*
X3340513Y1345000D01*
X1463635Y327480D02*
G01*
X1432138Y327480D01*
X1419940Y283787D02*
G01*
X1419940Y315282D01*
X1463635Y271588D02*
G01*
X1432138Y271588D01*
X1486307Y327710D02*
G01*
X1517802Y327710D01*
X1486307Y271819D02*
G01*
X1517802Y271819D01*
X1530000Y284016D02*
G01*
X1530000Y315513D01*
X2536364Y272519D02*
G01*
X2567861Y272519D01*
X2580059Y316212D02*
G01*
X2580059Y284717D01*
X2536364Y328411D02*
G01*
X2567861Y328411D01*
X2513692Y272289D02*
G01*
X2482197Y272289D01*
X2513692Y328180D02*
G01*
X2482197Y328180D01*
X2470000Y315983D02*
G01*
X2470000Y284486D01*
X1463635Y477480D02*
G01*
X1432138Y477480D01*
X1419940Y433787D02*
G01*
X1419940Y465282D01*
X1463635Y421588D02*
G01*
X1432138Y421588D01*
X1486307Y477710D02*
G01*
X1517802Y477710D01*
X1486307Y421819D02*
G01*
X1517802Y421819D01*
X1530000Y434016D02*
G01*
X1530000Y465513D01*
X2602479Y1261365D02*
G01*
X2602479Y1292862D01*
X2558787Y1305059D02*
G01*
X2590282Y1305059D01*
X2546589Y1261365D02*
G01*
X2546589Y1292862D01*
X2602709Y1238692D02*
G01*
X2602709Y1207197D01*
X2546818Y1238692D02*
G01*
X2546818Y1207197D01*
X2559016Y1195000D02*
G01*
X2590513Y1195000D01*
X2697520Y5063634D02*
G01*
X2697520Y5032138D01*
X2741212Y5019940D02*
G01*
X2709717Y5019940D01*
X2753410Y5063634D02*
G01*
X2753410Y5032138D01*
X2697290Y5086307D02*
G01*
X2697290Y5117802D01*
X2753181Y5086307D02*
G01*
X2753181Y5117802D01*
X2740983Y5130000D02*
G01*
X2709486Y5130000D01*
X2945290Y4998719D02*
G01*
X2934517Y4969122D01*
X2971404Y4942716D02*
G01*
X2941806Y4953489D01*
X2997811Y4979603D02*
G01*
X2987038Y4950005D01*
X2952829Y5020102D02*
G01*
X2963599Y5049697D01*
X3005348Y5000988D02*
G01*
X3016121Y5030581D01*
X3008831Y5046215D02*
G01*
X2979233Y5056988D01*
X3180272Y4904238D02*
G01*
X3168985Y4874832D01*
X3205405Y4847788D02*
G01*
X3176000Y4859074D01*
X3232451Y4884207D02*
G01*
X3221163Y4854803D01*
X3188182Y4925486D02*
G01*
X3199468Y4954888D01*
X3240361Y4905457D02*
G01*
X3251647Y4934859D01*
X3244633Y4950619D02*
G01*
X3215227Y4961905D01*
X3405290Y4813719D02*
G01*
X3394517Y4784122D01*
X3431404Y4757716D02*
G01*
X3401806Y4768489D01*
X3457811Y4794603D02*
G01*
X3447038Y4765005D01*
X3412829Y4835102D02*
G01*
X3423599Y4864697D01*
X3465348Y4815988D02*
G01*
X3476121Y4845581D01*
X3468831Y4861215D02*
G01*
X3439233Y4871988D01*
X3530970Y4581451D02*
G01*
X3512905Y4555650D01*
X3541700Y4520599D02*
G01*
X3515900Y4538663D01*
X3576754Y4549394D02*
G01*
X3558688Y4523593D01*
X3543787Y4600156D02*
G01*
X3561851Y4625954D01*
X3589570Y4568099D02*
G01*
X3607635Y4593897D01*
X3604639Y4610884D02*
G01*
X3578838Y4628951D01*
X3702532Y4421395D02*
G01*
X3680261Y4399123D01*
X3702530Y4359603D02*
G01*
X3680259Y4381873D01*
X3742052Y4381873D02*
G01*
X3719781Y4359603D01*
X3718401Y4437590D02*
G01*
X3740672Y4459859D01*
X3757923Y4398069D02*
G01*
X3780192Y4420338D01*
X3780192Y4437588D02*
G01*
X3757920Y4459859D01*
X3766096Y4162955D02*
G01*
X3735976Y4153748D01*
X3737087Y4108398D02*
G01*
X3727878Y4138517D01*
X3782438Y4109508D02*
G01*
X3752317Y4100299D01*
X3787712Y4169805D02*
G01*
X3817830Y4179013D01*
X3804053Y4116356D02*
G01*
X3834170Y4125563D01*
X3842269Y4140794D02*
G01*
X3833060Y4170916D01*
X3835699Y3932622D02*
G01*
X3805744Y3922890D01*
X3807646Y3877566D02*
G01*
X3797912Y3907521D01*
X3852970Y3879468D02*
G01*
X3823014Y3869733D01*
X3857191Y3939848D02*
G01*
X3887143Y3949580D01*
X3874462Y3886693D02*
G01*
X3904416Y3896424D01*
X3912246Y3911794D02*
G01*
X3902514Y3941750D01*
X2775263Y4865275D02*
G01*
X2762956Y4836282D01*
X2798410Y4807982D02*
G01*
X2769418Y4820288D01*
X2826711Y4843436D02*
G01*
X2814404Y4814443D01*
X2783910Y4886235D02*
G01*
X2796216Y4915227D01*
X2835358Y4864398D02*
G01*
X2847664Y4893388D01*
X2841203Y4909382D02*
G01*
X2812209Y4921689D01*
X3000263Y4769757D02*
G01*
X2988464Y4740553D01*
X3024407Y4712876D02*
G01*
X2995204Y4724675D01*
X3052084Y4748820D02*
G01*
X3040285Y4719616D01*
X3008544Y4790864D02*
G01*
X3020342Y4820066D01*
X3060365Y4769928D02*
G01*
X3072163Y4799128D01*
X3065423Y4815007D02*
G01*
X3036220Y4826806D01*
X3235263Y4669757D02*
G01*
X3223464Y4640553D01*
X3259407Y4612876D02*
G01*
X3230204Y4624675D01*
X3287084Y4648820D02*
G01*
X3275285Y4619616D01*
X3243544Y4690864D02*
G01*
X3255342Y4720066D01*
X3295365Y4669928D02*
G01*
X3307163Y4699128D01*
X3300423Y4715007D02*
G01*
X3271220Y4726806D01*
X3370970Y4461451D02*
G01*
X3352905Y4435650D01*
X3381700Y4400599D02*
G01*
X3355900Y4418663D01*
X3416754Y4429394D02*
G01*
X3398688Y4403593D01*
X3383787Y4480156D02*
G01*
X3401851Y4505954D01*
X3429570Y4448099D02*
G01*
X3447635Y4473897D01*
X3444639Y4490884D02*
G01*
X3418838Y4508951D01*
X3535699Y4262622D02*
G01*
X3505744Y4252890D01*
X3507646Y4207566D02*
G01*
X3497912Y4237521D01*
X3552970Y4209468D02*
G01*
X3523014Y4199733D01*
X3557191Y4269848D02*
G01*
X3587143Y4279580D01*
X3574462Y4216693D02*
G01*
X3604416Y4226424D01*
X3612246Y4241794D02*
G01*
X3602514Y4271750D01*
X3605699Y3992622D02*
G01*
X3575744Y3982890D01*
X3577646Y3937566D02*
G01*
X3567912Y3967521D01*
X3622970Y3939468D02*
G01*
X3593014Y3929733D01*
X3627191Y3999848D02*
G01*
X3657143Y4009580D01*
X3644462Y3946693D02*
G01*
X3674416Y3956424D01*
X3682246Y3971794D02*
G01*
X3672514Y4001750D01*
X3675699Y3742622D02*
G01*
X3645744Y3732890D01*
X3647646Y3687566D02*
G01*
X3637912Y3717521D01*
X3692970Y3689468D02*
G01*
X3663014Y3679733D01*
X3697191Y3749848D02*
G01*
X3727143Y3759580D01*
X3714462Y3696693D02*
G01*
X3744416Y3706424D01*
X3752246Y3721794D02*
G01*
X3742514Y3751750D01*
X2344588Y4771882D02*
G01*
X2334058Y4769061D01*
X2441180Y4797764D02*
G01*
X2410462Y4789533D01*
X2537775Y4823647D02*
G01*
X2507055Y4815416D01*
X2558819Y4622231D02*
G01*
X2589538Y4630462D01*
X2462227Y4596349D02*
G01*
X2492944Y4604580D01*
X2385824Y4575877D02*
G01*
X2396352Y4578697D01*
X2334058Y4769061D02*
G01*
X2385824Y4575877D01*
X2665941Y4650934D02*
G01*
X2614179Y4844119D01*
X2614179Y4844119D02*
G01*
X2603648Y4841298D01*
X2665941Y4650934D02*
G01*
X2655414Y4648112D01*
X2589535Y4630462D02*
G01*
X2584054Y4628993D01*
G75*
G01*
X3013977Y284055D02*
G02*
X3006101Y291931I0J7876D01*
G75*
G01*
X3013977Y365945D02*
G03*
X3006102Y358070I0J-7875D01*
G75*
G01*
X3136023Y284055D02*
G03*
X3143899Y291931I0J7876D01*
G75*
G01*
X3136023Y365945D02*
G02*
X3143899Y358069I0J-7876D01*
G75*
G01*
X3013977Y734055D02*
G02*
X3006101Y741931I0J7876D01*
G75*
G01*
X3013977Y815945D02*
G03*
X3006102Y808070I0J-7875D01*
G75*
G01*
X3136023Y734055D02*
G03*
X3143899Y741931I0J7876D01*
G75*
G01*
X3136023Y815945D02*
G02*
X3143899Y808069I0J-7876D01*
G75*
G01*
X1219975Y1333787D02*
G03*
X1232173Y1321589I12198J0D01*
G75*
G01*
X1232173Y1377481D02*
G03*
X1219975Y1365283I0J-12198D01*
G75*
G01*
X1317837Y1321818D02*
G03*
X1330035Y1334016I0J12198D01*
G75*
G01*
X1330035Y1365512D02*
G03*
X1317837Y1377710I-12198J0D01*
G75*
G01*
X3245000Y1355000D02*
G03*
X3245000Y1300000I0J-27500D01*
G75*
G01*
X3308787Y1455060D02*
G03*
X3296589Y1442862I0J-12198D01*
G75*
G01*
X3352481Y1442862D02*
G03*
X3340283Y1455060I-12198J0D01*
G75*
G01*
X3296818Y1357198D02*
G03*
X3309016Y1345000I12198J0D01*
G75*
G01*
X3340512Y1345000D02*
G03*
X3352710Y1357198I0J12198D01*
G75*
G01*
X1419940Y283787D02*
G03*
X1432138Y271589I12198J0D01*
G75*
G01*
X1432138Y327481D02*
G03*
X1419940Y315283I0J-12198D01*
G75*
G01*
X1517802Y271818D02*
G03*
X1530000Y284016I0J12198D01*
G75*
G01*
X1530000Y315512D02*
G03*
X1517802Y327710I-12198J0D01*
G75*
G01*
X2580060Y316213D02*
G03*
X2567862Y328411I-12198J0D01*
G75*
G01*
X2567862Y272519D02*
G03*
X2580060Y284717I0J12198D01*
G75*
G01*
X2482198Y328182D02*
G03*
X2470000Y315984I0J-12198D01*
G75*
G01*
X2470000Y284488D02*
G03*
X2482198Y272290I12198J0D01*
G75*
G01*
X1419940Y433787D02*
G03*
X1432138Y421589I12198J0D01*
G75*
G01*
X1432138Y477481D02*
G03*
X1419940Y465283I0J-12198D01*
G75*
G01*
X1517802Y421818D02*
G03*
X1530000Y434016I0J12198D01*
G75*
G01*
X1530000Y465512D02*
G03*
X1517802Y477710I-12198J0D01*
G75*
G01*
X2558787Y1305060D02*
G03*
X2546589Y1292862I0J-12198D01*
G75*
G01*
X2602481Y1292862D02*
G03*
X2590283Y1305060I-12198J0D01*
G75*
G01*
X2546818Y1207198D02*
G03*
X2559016Y1195000I12198J0D01*
G75*
G01*
X2590512Y1195000D02*
G03*
X2602710Y1207198I0J12198D01*
G75*
G01*
X2741213Y5019940D02*
G03*
X2753411Y5032138I0J12198D01*
G75*
G01*
X2697519Y5032138D02*
G03*
X2709717Y5019940I12198J0D01*
G75*
G01*
X2753182Y5117802D02*
G03*
X2740984Y5130000I-12198J0D01*
G75*
G01*
X2709488Y5130000D02*
G03*
X2697290Y5117802I0J-12198D01*
G75*
G01*
X2971404Y4942715D02*
G03*
X2987038Y4950006I4171J11463D01*
G75*
G01*
X2934517Y4969122D02*
G03*
X2941807Y4953488I11462J-4172D01*
G75*
G01*
X3016122Y5030582D02*
G03*
X3008831Y5046216I-11463J4171D01*
G75*
G01*
X2979235Y5056989D02*
G03*
X2963600Y5049698I-4172J-11462D01*
G75*
G01*
X3205404Y4847787D02*
G03*
X3221164Y4854803I4372J11387D01*
G75*
G01*
X3168984Y4874833D02*
G03*
X3176000Y4859074I11388J-4371D01*
G75*
G01*
X3251649Y4934860D02*
G03*
X3244633Y4950619I-11388J4371D01*
G75*
G01*
X3215229Y4961906D02*
G03*
X3199469Y4954889I-4372J-11388D01*
G75*
G01*
X3431404Y4757715D02*
G03*
X3447038Y4765006I4171J11463D01*
G75*
G01*
X3394517Y4784122D02*
G03*
X3401807Y4768488I11462J-4172D01*
G75*
G01*
X3476122Y4845582D02*
G03*
X3468831Y4861216I-11463J4171D01*
G75*
G01*
X3439235Y4871989D02*
G03*
X3423600Y4864698I-4172J-11462D01*
G75*
G01*
X3541700Y4520598D02*
G03*
X3558688Y4523594I6996J9992D01*
G75*
G01*
X3512904Y4555652D02*
G03*
X3515900Y4538663I9992J-6997D01*
G75*
G01*
X3607636Y4593897D02*
G03*
X3604640Y4610885I-9992J6996D01*
G75*
G01*
X3578840Y4628951D02*
G03*
X3561852Y4625955I-6996J-9992D01*
G75*
G01*
X3702531Y4359602D02*
G03*
X3719781Y4359603I8624J8626D01*
G75*
G01*
X3680260Y4399124D02*
G03*
X3680260Y4381873I8625J-8625D01*
G75*
G01*
X3780194Y4420338D02*
G03*
X3780193Y4437588I-8626J8624D01*
G75*
G01*
X3757922Y4459860D02*
G03*
X3740672Y4459859I-8624J-8626D01*
G75*
G01*
X3737086Y4108397D02*
G03*
X3752317Y4100299I11665J3567D01*
G75*
G01*
X3735976Y4153749D02*
G03*
X3727878Y4138517I3567J-11665D01*
G75*
G01*
X3834171Y4125564D02*
G03*
X3842270Y4140795I-3566J11665D01*
G75*
G01*
X3833061Y4170915D02*
G03*
X3817830Y4179013I-11665J-3567D01*
G75*
G01*
X3807645Y3877566D02*
G03*
X3823015Y3869734I11601J3769D01*
G75*
G01*
X3805744Y3922891D02*
G03*
X3797912Y3907521I3769J-11601D01*
G75*
G01*
X3904416Y3896424D02*
G03*
X3912247Y3911794I-3770J11601D01*
G75*
G01*
X3902515Y3941749D02*
G03*
X3887144Y3949580I-11601J-3770D01*
G75*
G01*
X2798410Y4807982D02*
G03*
X2814405Y4814444I4767J11228D01*
G75*
G01*
X2762956Y4836283D02*
G03*
X2769418Y4820289I11228J-4766D01*
G75*
G01*
X2847666Y4893388D02*
G03*
X2841204Y4909382I-11228J4766D01*
G75*
G01*
X2812211Y4921689D02*
G03*
X2796217Y4915227I-4766J-11228D01*
G75*
G01*
X3024407Y4712876D02*
G03*
X3040286Y4719616I4569J11310D01*
G75*
G01*
X2988464Y4740554D02*
G03*
X2995204Y4724674I11309J-4570D01*
G75*
G01*
X3072164Y4799128D02*
G03*
X3065423Y4815007I-11310J4569D01*
G75*
G01*
X3036221Y4826806D02*
G03*
X3020342Y4820066I-4569J-11310D01*
G75*
G01*
X3259407Y4612876D02*
G03*
X3275286Y4619616I4569J11310D01*
G75*
G01*
X3223464Y4640554D02*
G03*
X3230204Y4624674I11309J-4570D01*
G75*
G01*
X3307164Y4699128D02*
G03*
X3300423Y4715007I-11310J4569D01*
G75*
G01*
X3271221Y4726806D02*
G03*
X3255342Y4720066I-4569J-11310D01*
G75*
G01*
X3381700Y4400598D02*
G03*
X3398688Y4403594I6996J9992D01*
G75*
G01*
X3352904Y4435652D02*
G03*
X3355900Y4418663I9992J-6997D01*
G75*
G01*
X3447636Y4473897D02*
G03*
X3444640Y4490885I-9992J6996D01*
G75*
G01*
X3418840Y4508951D02*
G03*
X3401852Y4505955I-6996J-9992D01*
G75*
G01*
X3507645Y4207566D02*
G03*
X3523015Y4199734I11601J3769D01*
G75*
G01*
X3505744Y4252891D02*
G03*
X3497912Y4237521I3769J-11601D01*
G75*
G01*
X3604416Y4226424D02*
G03*
X3612247Y4241794I-3770J11601D01*
G75*
G01*
X3602515Y4271749D02*
G03*
X3587144Y4279580I-11601J-3770D01*
G75*
G01*
X3577645Y3937566D02*
G03*
X3593015Y3929734I11601J3769D01*
G75*
G01*
X3575744Y3982891D02*
G03*
X3567912Y3967521I3769J-11601D01*
G75*
G01*
X3674416Y3956424D02*
G03*
X3682247Y3971794I-3770J11601D01*
G75*
G01*
X3672515Y4001749D02*
G03*
X3657144Y4009580I-11601J-3770D01*
G75*
G01*
X3647645Y3687566D02*
G03*
X3663015Y3679734I11601J3769D01*
G75*
G01*
X3645744Y3732891D02*
G03*
X3637912Y3717521I3769J-11601D01*
G75*
G01*
X3744416Y3706424D02*
G03*
X3752247Y3721794I-3770J11601D01*
G75*
G01*
X3742515Y3751749D02*
G03*
X3727144Y3759580I-11601J-3770D01*
G75*
G01
X1710210Y1250000D02*
G03X1710210Y1250000I-60210J0D01*
G75*
G01
X1590000Y1170000D02*
G03X1590000Y1170000I-20000J0D01*
G75*
G01
X1750000Y1170000D02*
G03X1750000Y1170000I-20000J0D01*
G75*
G01
X1590000Y1330000D02*
G03X1590000Y1330000I-20000J0D01*
G75*
G01
X1749920Y1329940D02*
G03X1749920Y1329940I-20000J0D01*
G75*
G01
X2360210Y1250000D02*
G03X2360210Y1250000I-60210J0D01*
G75*
G01
X2240000Y1170000D02*
G03X2240000Y1170000I-20000J0D01*
G75*
G01
X2400000Y1170000D02*
G03X2400000Y1170000I-20000J0D01*
G75*
G01
X2240000Y1330000D02*
G03X2240000Y1330000I-20000J0D01*
G75*
G01
X2399920Y1329940D02*
G03X2399920Y1329940I-20000J0D01*
D45*
G75*
G01
X3397710Y986030D02*
G03X3397710Y986030I-2840J0D01*
D10*
G75*
G01
X2322410Y4800280D02*
G03X2322410Y4800280I-7070J0D01*
M02*
