G04 Layer: BottomSolderMaskLayer*
G04 EasyEDA v6.4.17, 2021-02-25T15:28:36--5:00*
G04 aa3373424ab044808dd5acc0b6461e4b,072da06717534aa28f27f5ff42559d36,10*
G04 Gerber Generator version 0.2*
G04 Scale: 100 percent, Rotated: No, Reflected: No *
G04 Dimensions in inches *
G04 leading zeros omitted , absolute positions ,3 integer and 6 decimal *
%FSLAX36Y36*%
%MOIN*%

%ADD46C,0.0513*%
%ADD47C,0.0700*%
%ADD52C,0.0680*%
%ADD54C,0.0637*%
%ADD57C,0.0820*%
%ADD58C,0.0316*%
%ADD60R,0.0946X0.1458*%
%ADD61R,0.0946X0.0513*%
%ADD71R,0.0612X0.0237*%

%LPD*%
D58*
X2875000Y1418377D02*
G01*
X2875000Y1465621D01*
X2925000Y1418377D02*
G01*
X2925000Y1465621D01*
X2975000Y1418377D02*
G01*
X2975000Y1465621D01*
X3025000Y1418377D02*
G01*
X3025000Y1465621D01*
X3075000Y1418377D02*
G01*
X3075000Y1465621D01*
X3125000Y1418377D02*
G01*
X3125000Y1465621D01*
X3175000Y1418377D02*
G01*
X3175000Y1465621D01*
X3225000Y1418377D02*
G01*
X3225000Y1465621D01*
X2875000Y1184378D02*
G01*
X2875000Y1231622D01*
X2925000Y1184378D02*
G01*
X2925000Y1231622D01*
X2975000Y1184378D02*
G01*
X2975000Y1231622D01*
X3025000Y1184378D02*
G01*
X3025000Y1231622D01*
X3075000Y1184378D02*
G01*
X3075000Y1231622D01*
X3125000Y1184378D02*
G01*
X3125000Y1231622D01*
X3175000Y1184378D02*
G01*
X3175000Y1231622D01*
X3225000Y1184378D02*
G01*
X3225000Y1231622D01*
D46*
X3789957Y595470D02*
G01*
X3795862Y595470D01*
X3789957Y404529D02*
G01*
X3795862Y404529D01*
D47*
G01*
X2705000Y480000D03*
G36*
X2670000Y1045000D02*
G01*
X2670000Y1115000D01*
X2740000Y1115000D01*
X2740000Y1045000D01*
G37*
G01*
X2705000Y980000D03*
G01*
X2705000Y880000D03*
G01*
X2705000Y780000D03*
G01*
X2705000Y680000D03*
G01*
X2705000Y580000D03*
G36*
X3090699Y290500D02*
G01*
X3090699Y359499D01*
X3138100Y359499D01*
X3138100Y290500D01*
G37*
G36*
X3011899Y290500D02*
G01*
X3011899Y359499D01*
X3059300Y359499D01*
X3059300Y290500D01*
G37*
G36*
X3011899Y740500D02*
G01*
X3011899Y809499D01*
X3059300Y809499D01*
X3059300Y740500D01*
G37*
G36*
X3090699Y740500D02*
G01*
X3090699Y809499D01*
X3138100Y809499D01*
X3138100Y740500D01*
G37*
D60*
G01*
X2953000Y550000D03*
D61*
G01*
X3196999Y459450D03*
G36*
X3149700Y524299D02*
G01*
X3149700Y575700D01*
X3244300Y575700D01*
X3244300Y524299D01*
G37*
G01*
X3196999Y640549D03*
G36*
X3405399Y543400D02*
G01*
X3405399Y606599D01*
X3460699Y606599D01*
X3460699Y543400D01*
G37*
G36*
X3539300Y543400D02*
G01*
X3539300Y606599D01*
X3594600Y606599D01*
X3594600Y543400D01*
G37*
G36*
X3405399Y418400D02*
G01*
X3405399Y481599D01*
X3460699Y481599D01*
X3460699Y418400D01*
G37*
G36*
X3539300Y418400D02*
G01*
X3539300Y481599D01*
X3594600Y481599D01*
X3594600Y418400D01*
G37*
G36*
X1227700Y1328299D02*
G01*
X1227700Y1371700D01*
X1267200Y1371700D01*
X1267200Y1328299D01*
G37*
G36*
X1282799Y1328299D02*
G01*
X1282799Y1371700D01*
X1322299Y1371700D01*
X1322299Y1328299D01*
G37*
G36*
X2632700Y4508299D02*
G01*
X2632700Y4551700D01*
X2672200Y4551700D01*
X2672200Y4508299D01*
G37*
G36*
X2687799Y4508299D02*
G01*
X2687799Y4551700D01*
X2727299Y4551700D01*
X2727299Y4508299D01*
G37*
G36*
X2632700Y4433299D02*
G01*
X2632700Y4476700D01*
X2672200Y4476700D01*
X2672200Y4433299D01*
G37*
G36*
X2687799Y4433299D02*
G01*
X2687799Y4476700D01*
X2727299Y4476700D01*
X2727299Y4433299D01*
G37*
G36*
X2879700Y4639000D02*
G01*
X2828900Y4660599D01*
X2853500Y4718699D01*
X2904399Y4697100D01*
G37*
G36*
X2756499Y4691300D02*
G01*
X2705600Y4712900D01*
X2730299Y4770999D01*
X2781099Y4749400D01*
G37*
G36*
X2532799Y903299D02*
G01*
X2532799Y946700D01*
X2572299Y946700D01*
X2572299Y903299D01*
G37*
G36*
X2477700Y903299D02*
G01*
X2477700Y946700D01*
X2517200Y946700D01*
X2517200Y903299D01*
G37*
G36*
X2532799Y828299D02*
G01*
X2532799Y871700D01*
X2572299Y871700D01*
X2572299Y828299D01*
G37*
G36*
X2477700Y828299D02*
G01*
X2477700Y871700D01*
X2517200Y871700D01*
X2517200Y828299D01*
G37*
G36*
X2532799Y753299D02*
G01*
X2532799Y796700D01*
X2572299Y796700D01*
X2572299Y753299D01*
G37*
G36*
X2477700Y753299D02*
G01*
X2477700Y796700D01*
X2517200Y796700D01*
X2517200Y753299D01*
G37*
G36*
X2532799Y678299D02*
G01*
X2532799Y721700D01*
X2572299Y721700D01*
X2572299Y678299D01*
G37*
G36*
X2477700Y678299D02*
G01*
X2477700Y721700D01*
X2517200Y721700D01*
X2517200Y678299D01*
G37*
G36*
X180399Y315999D02*
G01*
X180399Y384000D01*
X248400Y384000D01*
X248400Y315999D01*
G37*
D52*
G01*
X135599Y350000D03*
G36*
X1014300Y393400D02*
G01*
X1014300Y456599D01*
X1069600Y456599D01*
X1069600Y393400D01*
G37*
G36*
X880399Y393400D02*
G01*
X880399Y456599D01*
X935699Y456599D01*
X935699Y393400D01*
G37*
G36*
X793199Y530100D02*
G01*
X793199Y616799D01*
X840600Y616799D01*
X840600Y530100D01*
G37*
G36*
X793199Y333200D02*
G01*
X793199Y419899D01*
X840600Y419899D01*
X840600Y333200D01*
G37*
G36*
X659400Y530100D02*
G01*
X659400Y616799D01*
X706799Y616799D01*
X706799Y530100D01*
G37*
G36*
X1427700Y778299D02*
G01*
X1427700Y821700D01*
X1467200Y821700D01*
X1467200Y778299D01*
G37*
G36*
X1482799Y778299D02*
G01*
X1482799Y821700D01*
X1522299Y821700D01*
X1522299Y778299D01*
G37*
G36*
X1097200Y607199D02*
G01*
X1097200Y642800D01*
X1154399Y642800D01*
X1154399Y607199D01*
G37*
G36*
X1195600Y569800D02*
G01*
X1195600Y605399D01*
X1252799Y605399D01*
X1252799Y569800D01*
G37*
G36*
X1195600Y644600D02*
G01*
X1195600Y680199D01*
X1252799Y680199D01*
X1252799Y644600D01*
G37*
G36*
X1195600Y982199D02*
G01*
X1195600Y1017800D01*
X1252799Y1017800D01*
X1252799Y982199D01*
G37*
G36*
X1097200Y1019600D02*
G01*
X1097200Y1055199D01*
X1154399Y1055199D01*
X1154399Y1019600D01*
G37*
G36*
X1097200Y944800D02*
G01*
X1097200Y980399D01*
X1154399Y980399D01*
X1154399Y944800D01*
G37*
G36*
X1097200Y832199D02*
G01*
X1097200Y867800D01*
X1154399Y867800D01*
X1154399Y832199D01*
G37*
G36*
X1195600Y794800D02*
G01*
X1195600Y830399D01*
X1252799Y830399D01*
X1252799Y794800D01*
G37*
G36*
X1195600Y869600D02*
G01*
X1195600Y905199D01*
X1252799Y905199D01*
X1252799Y869600D01*
G37*
G36*
X1427700Y603299D02*
G01*
X1427700Y646700D01*
X1467200Y646700D01*
X1467200Y603299D01*
G37*
G36*
X1482799Y603299D02*
G01*
X1482799Y646700D01*
X1522299Y646700D01*
X1522299Y603299D01*
G37*
G36*
X982799Y853299D02*
G01*
X982799Y896700D01*
X1022299Y896700D01*
X1022299Y853299D01*
G37*
G36*
X927700Y853299D02*
G01*
X927700Y896700D01*
X967200Y896700D01*
X967200Y853299D01*
G37*
G36*
X982799Y953299D02*
G01*
X982799Y996700D01*
X1022299Y996700D01*
X1022299Y953299D01*
G37*
G36*
X927700Y953299D02*
G01*
X927700Y996700D01*
X967200Y996700D01*
X967200Y953299D01*
G37*
G36*
X3103299Y977699D02*
G01*
X3103299Y1017199D01*
X3146700Y1017199D01*
X3146700Y977699D01*
G37*
G36*
X3103299Y1032800D02*
G01*
X3103299Y1072300D01*
X3146700Y1072300D01*
X3146700Y1032800D01*
G37*
G36*
X3178299Y977699D02*
G01*
X3178299Y1017199D01*
X3221700Y1017199D01*
X3221700Y977699D01*
G37*
G36*
X3178299Y1032800D02*
G01*
X3178299Y1072300D01*
X3221700Y1072300D01*
X3221700Y1032800D01*
G37*
G36*
X1783800Y1306999D02*
G01*
X1783800Y1370100D01*
X1874499Y1370100D01*
X1874499Y1306999D01*
G37*
G36*
X1425500Y1306999D02*
G01*
X1425500Y1370100D01*
X1516199Y1370100D01*
X1516199Y1306999D01*
G37*
G36*
X1783800Y1129899D02*
G01*
X1783800Y1193000D01*
X1874499Y1193000D01*
X1874499Y1129899D01*
G37*
G36*
X1425500Y1129899D02*
G01*
X1425500Y1193000D01*
X1516199Y1193000D01*
X1516199Y1129899D01*
G37*
G36*
X2002700Y642699D02*
G01*
X2002700Y703000D01*
X2063100Y703000D01*
X2063100Y642699D01*
G37*
G36*
X1930399Y642699D02*
G01*
X1930399Y703000D01*
X1990799Y703000D01*
X1990799Y642699D01*
G37*
G36*
X1858199Y642699D02*
G01*
X1858199Y703000D01*
X1918599Y703000D01*
X1918599Y642699D01*
G37*
G36*
X1858199Y498200D02*
G01*
X1858199Y558499D01*
X1918599Y558499D01*
X1918599Y498200D01*
G37*
G36*
X1930399Y498200D02*
G01*
X1930399Y558499D01*
X1990799Y558499D01*
X1990799Y498200D01*
G37*
G36*
X2002700Y498200D02*
G01*
X2002700Y558499D01*
X2063100Y558499D01*
X2063100Y498200D01*
G37*
G36*
X2002700Y570399D02*
G01*
X2002700Y630799D01*
X2063100Y630799D01*
X2063100Y570399D01*
G37*
G36*
X1858199Y570399D02*
G01*
X1858199Y630799D01*
X1918599Y630799D01*
X1918599Y570399D01*
G37*
G36*
X1930399Y570399D02*
G01*
X1930399Y630799D01*
X1990799Y630799D01*
X1990799Y570399D01*
G37*
G36*
X2291300Y283600D02*
G01*
X2291300Y326999D01*
X2378000Y326999D01*
X2378000Y283600D01*
G37*
G36*
X2291300Y333600D02*
G01*
X2291300Y376999D01*
X2378000Y376999D01*
X2378000Y333600D01*
G37*
G36*
X2291300Y383600D02*
G01*
X2291300Y426999D01*
X2378000Y426999D01*
X2378000Y383600D01*
G37*
G36*
X2291300Y433600D02*
G01*
X2291300Y476999D01*
X2378000Y476999D01*
X2378000Y433600D01*
G37*
G36*
X2291300Y483600D02*
G01*
X2291300Y526999D01*
X2378000Y526999D01*
X2378000Y483600D01*
G37*
G36*
X2291300Y533600D02*
G01*
X2291300Y576999D01*
X2378000Y576999D01*
X2378000Y533600D01*
G37*
G36*
X2291300Y583600D02*
G01*
X2291300Y626999D01*
X2378000Y626999D01*
X2378000Y583600D01*
G37*
G36*
X2291300Y633600D02*
G01*
X2291300Y676999D01*
X2378000Y676999D01*
X2378000Y633600D01*
G37*
G36*
X2291300Y683600D02*
G01*
X2291300Y726999D01*
X2378000Y726999D01*
X2378000Y683600D01*
G37*
G36*
X2291300Y733600D02*
G01*
X2291300Y776999D01*
X2378000Y776999D01*
X2378000Y733600D01*
G37*
G36*
X2291300Y783600D02*
G01*
X2291300Y826999D01*
X2378000Y826999D01*
X2378000Y783600D01*
G37*
G36*
X2291300Y833600D02*
G01*
X2291300Y876999D01*
X2378000Y876999D01*
X2378000Y833600D01*
G37*
G36*
X2291300Y883600D02*
G01*
X2291300Y926999D01*
X2378000Y926999D01*
X2378000Y883600D01*
G37*
G36*
X2291300Y933600D02*
G01*
X2291300Y976999D01*
X2378000Y976999D01*
X2378000Y933600D01*
G37*
G36*
X2203299Y951300D02*
G01*
X2203299Y1038099D01*
X2246700Y1038099D01*
X2246700Y951300D01*
G37*
G36*
X2153299Y951300D02*
G01*
X2153299Y1038099D01*
X2196700Y1038099D01*
X2196700Y951300D01*
G37*
G36*
X2103299Y951300D02*
G01*
X2103299Y1038099D01*
X2146700Y1038099D01*
X2146700Y951300D01*
G37*
G36*
X2053299Y951300D02*
G01*
X2053299Y1038099D01*
X2096700Y1038099D01*
X2096700Y951300D01*
G37*
G36*
X2003299Y951300D02*
G01*
X2003299Y1038099D01*
X2046700Y1038099D01*
X2046700Y951300D01*
G37*
G36*
X1953299Y951300D02*
G01*
X1953299Y1038099D01*
X1996700Y1038099D01*
X1996700Y951300D01*
G37*
G36*
X1903299Y951300D02*
G01*
X1903299Y1038099D01*
X1946700Y1038099D01*
X1946700Y951300D01*
G37*
G36*
X1853299Y951300D02*
G01*
X1853299Y1038099D01*
X1896700Y1038099D01*
X1896700Y951300D01*
G37*
G36*
X1803299Y951300D02*
G01*
X1803299Y1038099D01*
X1846700Y1038099D01*
X1846700Y951300D01*
G37*
G36*
X1753299Y951300D02*
G01*
X1753299Y1038099D01*
X1796700Y1038099D01*
X1796700Y951300D01*
G37*
G36*
X1621999Y933600D02*
G01*
X1621999Y976999D01*
X1708699Y976999D01*
X1708699Y933600D01*
G37*
G36*
X1621999Y883600D02*
G01*
X1621999Y926999D01*
X1708699Y926999D01*
X1708699Y883600D01*
G37*
G36*
X1621999Y833600D02*
G01*
X1621999Y876999D01*
X1708699Y876999D01*
X1708699Y833600D01*
G37*
G36*
X1621999Y783600D02*
G01*
X1621999Y826999D01*
X1708699Y826999D01*
X1708699Y783600D01*
G37*
G36*
X1621999Y733600D02*
G01*
X1621999Y776999D01*
X1708699Y776999D01*
X1708699Y733600D01*
G37*
G36*
X1621999Y683600D02*
G01*
X1621999Y726999D01*
X1708699Y726999D01*
X1708699Y683600D01*
G37*
G36*
X1621999Y633600D02*
G01*
X1621999Y676999D01*
X1708699Y676999D01*
X1708699Y633600D01*
G37*
G36*
X1621999Y583600D02*
G01*
X1621999Y626999D01*
X1708699Y626999D01*
X1708699Y583600D01*
G37*
G36*
X1621999Y533600D02*
G01*
X1621999Y576999D01*
X1708699Y576999D01*
X1708699Y533600D01*
G37*
G36*
X1621999Y483600D02*
G01*
X1621999Y526999D01*
X1708699Y526999D01*
X1708699Y483600D01*
G37*
G36*
X1621999Y433600D02*
G01*
X1621999Y476999D01*
X1708699Y476999D01*
X1708699Y433600D01*
G37*
G36*
X1621999Y383600D02*
G01*
X1621999Y426999D01*
X1708699Y426999D01*
X1708699Y383600D01*
G37*
G36*
X1621999Y333600D02*
G01*
X1621999Y376999D01*
X1708699Y376999D01*
X1708699Y333600D01*
G37*
G36*
X1621999Y283600D02*
G01*
X1621999Y326999D01*
X1708699Y326999D01*
X1708699Y283600D01*
G37*
G36*
X2433800Y1306999D02*
G01*
X2433800Y1370100D01*
X2524499Y1370100D01*
X2524499Y1306999D01*
G37*
G36*
X2075500Y1306999D02*
G01*
X2075500Y1370100D01*
X2166199Y1370100D01*
X2166199Y1306999D01*
G37*
G36*
X2433800Y1129899D02*
G01*
X2433800Y1193000D01*
X2524499Y1193000D01*
X2524499Y1129899D01*
G37*
G36*
X2075500Y1129899D02*
G01*
X2075500Y1193000D01*
X2166199Y1193000D01*
X2166199Y1129899D01*
G37*
G36*
X2118199Y1458099D02*
G01*
X2118199Y1521799D01*
X2181899Y1521799D01*
X2181899Y1458099D01*
G37*
D54*
G01*
X2050000Y1490000D03*
G01*
X1950000Y1490000D03*
G01*
X1850000Y1490000D03*
G01*
X1750000Y1490000D03*
G36*
X3338100Y967899D02*
G01*
X3338100Y1011300D01*
X3361899Y1011300D01*
X3361899Y967899D01*
G37*
G36*
X3312500Y967899D02*
G01*
X3312500Y1011300D01*
X3336300Y1011300D01*
X3336300Y967899D01*
G37*
G36*
X3312500Y1038699D02*
G01*
X3312500Y1082199D01*
X3336300Y1082199D01*
X3336300Y1038699D01*
G37*
G36*
X3338100Y1038699D02*
G01*
X3338100Y1082199D01*
X3361899Y1082199D01*
X3361899Y1038699D01*
G37*
G36*
X3363699Y1038699D02*
G01*
X3363699Y1082199D01*
X3387500Y1082199D01*
X3387500Y1038699D01*
G37*
G36*
X3363699Y967899D02*
G01*
X3363699Y1011300D01*
X3387500Y1011300D01*
X3387500Y967899D01*
G37*
D71*
G01*
X3801769Y448820D03*
G36*
X3771199Y462500D02*
G01*
X3771199Y486300D01*
X3832299Y486300D01*
X3832299Y462500D01*
G37*
G36*
X3771199Y488099D02*
G01*
X3771199Y511900D01*
X3832299Y511900D01*
X3832299Y488099D01*
G37*
G36*
X3771199Y513699D02*
G01*
X3771199Y537500D01*
X3832299Y537500D01*
X3832299Y513699D01*
G37*
G36*
X3771199Y539299D02*
G01*
X3771199Y563099D01*
X3832299Y563099D01*
X3832299Y539299D01*
G37*
G36*
X3863699Y600300D02*
G01*
X3863699Y683099D01*
X3950500Y683099D01*
X3950500Y600300D01*
G37*
G36*
X3863699Y316900D02*
G01*
X3863699Y399699D01*
X3950500Y399699D01*
X3950500Y316900D01*
G37*
G36*
X1427700Y353299D02*
G01*
X1427700Y396700D01*
X1467200Y396700D01*
X1467200Y353299D01*
G37*
G36*
X1482799Y353299D02*
G01*
X1482799Y396700D01*
X1522299Y396700D01*
X1522299Y353299D01*
G37*
G36*
X1427700Y528299D02*
G01*
X1427700Y571700D01*
X1467200Y571700D01*
X1467200Y528299D01*
G37*
G36*
X1482799Y528299D02*
G01*
X1482799Y571700D01*
X1522299Y571700D01*
X1522299Y528299D01*
G37*
G36*
X3303299Y1407800D02*
G01*
X3303299Y1447300D01*
X3346700Y1447300D01*
X3346700Y1407800D01*
G37*
G36*
X3303299Y1352699D02*
G01*
X3303299Y1392199D01*
X3346700Y1392199D01*
X3346700Y1352699D01*
G37*
G36*
X1427700Y278299D02*
G01*
X1427700Y321700D01*
X1467200Y321700D01*
X1467200Y278299D01*
G37*
G36*
X1482799Y278299D02*
G01*
X1482799Y321700D01*
X1522299Y321700D01*
X1522299Y278299D01*
G37*
G36*
X2532799Y278299D02*
G01*
X2532799Y321700D01*
X2572299Y321700D01*
X2572299Y278299D01*
G37*
G36*
X2477700Y278299D02*
G01*
X2477700Y321700D01*
X2517200Y321700D01*
X2517200Y278299D01*
G37*
G36*
X1427700Y428299D02*
G01*
X1427700Y471700D01*
X1467200Y471700D01*
X1467200Y428299D01*
G37*
G36*
X1482799Y428299D02*
G01*
X1482799Y471700D01*
X1522299Y471700D01*
X1522299Y428299D01*
G37*
G36*
X2553299Y1257800D02*
G01*
X2553299Y1297300D01*
X2596700Y1297300D01*
X2596700Y1257800D01*
G37*
G36*
X2553299Y1202699D02*
G01*
X2553299Y1242199D01*
X2596700Y1242199D01*
X2596700Y1202699D01*
G37*
G36*
X2703299Y5027700D02*
G01*
X2703299Y5067199D01*
X2746700Y5067199D01*
X2746700Y5027700D01*
G37*
G36*
X2703299Y5082800D02*
G01*
X2703299Y5122300D01*
X2746700Y5122300D01*
X2746700Y5082800D01*
G37*
G36*
X2979200Y4948099D02*
G01*
X2938400Y4963000D01*
X2951899Y5000100D01*
X2992700Y4985200D01*
G37*
G36*
X2998100Y4999899D02*
G01*
X2957299Y5014800D01*
X2970799Y5051900D01*
X3011599Y5036999D01*
G37*
G36*
X3213299Y4853099D02*
G01*
X3172799Y4868600D01*
X3186899Y4905500D01*
X3227500Y4889899D01*
G37*
G36*
X3233100Y4904499D02*
G01*
X3192500Y4920100D01*
X3206700Y4956900D01*
X3247200Y4941399D01*
G37*
G36*
X3439200Y4763099D02*
G01*
X3398400Y4778000D01*
X3411899Y4815100D01*
X3452700Y4800200D01*
G37*
G36*
X3458100Y4814899D02*
G01*
X3417299Y4829800D01*
X3430799Y4866900D01*
X3471599Y4851999D01*
G37*
G36*
X3550699Y4523800D02*
G01*
X3515100Y4548699D01*
X3537700Y4581100D01*
X3573299Y4556100D01*
G37*
G36*
X3582299Y4568899D02*
G01*
X3546700Y4593899D01*
X3569300Y4626199D01*
X3604899Y4601300D01*
G37*
G36*
X3711899Y4361199D02*
G01*
X3681199Y4391900D01*
X3709099Y4419800D01*
X3739799Y4389099D01*
G37*
G36*
X3750900Y4400200D02*
G01*
X3720200Y4430900D01*
X3748100Y4458800D01*
X3778800Y4428099D01*
G37*
G36*
X3746099Y4105399D02*
G01*
X3733400Y4146900D01*
X3771199Y4158499D01*
X3783900Y4116900D01*
G37*
G36*
X3798800Y4121500D02*
G01*
X3786099Y4163099D01*
X3823900Y4174600D01*
X3836599Y4133099D01*
G37*
G36*
X3816700Y3874699D02*
G01*
X3803299Y3915999D01*
X3840900Y3928200D01*
X3854300Y3886900D01*
G37*
G36*
X3869099Y3891799D02*
G01*
X3855699Y3933099D01*
X3893299Y3945300D01*
X3906700Y3904000D01*
G37*
G36*
X2806499Y4813000D02*
G01*
X2766499Y4829899D01*
X2781999Y4866300D01*
X2821899Y4849299D01*
G37*
G36*
X2828000Y4863699D02*
G01*
X2788100Y4880700D01*
X2803500Y4916999D01*
X2843500Y4900100D01*
G37*
G36*
X3032399Y4718000D02*
G01*
X2992100Y4734299D01*
X3006899Y4770900D01*
X3047200Y4754600D01*
G37*
G36*
X3053100Y4769099D02*
G01*
X3012799Y4785400D01*
X3027600Y4821999D01*
X3067899Y4805700D01*
G37*
G36*
X3267399Y4618000D02*
G01*
X3227100Y4634299D01*
X3241899Y4670900D01*
X3282200Y4654600D01*
G37*
G36*
X3288100Y4669099D02*
G01*
X3247799Y4685400D01*
X3262600Y4721999D01*
X3302899Y4705700D01*
G37*
G36*
X3390699Y4403800D02*
G01*
X3355100Y4428699D01*
X3377700Y4461100D01*
X3413299Y4436100D01*
G37*
G36*
X3422299Y4448899D02*
G01*
X3386700Y4473899D01*
X3409300Y4506199D01*
X3444899Y4481300D01*
G37*
G36*
X3516700Y4204699D02*
G01*
X3503299Y4245999D01*
X3540900Y4258200D01*
X3554300Y4216900D01*
G37*
G36*
X3569099Y4221799D02*
G01*
X3555699Y4263099D01*
X3593299Y4275300D01*
X3606700Y4234000D01*
G37*
G36*
X3586700Y3934699D02*
G01*
X3573299Y3975999D01*
X3610900Y3988200D01*
X3624300Y3946900D01*
G37*
G36*
X3639099Y3951799D02*
G01*
X3625699Y3993099D01*
X3663299Y4005300D01*
X3676700Y3964000D01*
G37*
G36*
X3656700Y3684699D02*
G01*
X3643299Y3725999D01*
X3680900Y3738200D01*
X3694300Y3696900D01*
G37*
G36*
X3709099Y3701799D02*
G01*
X3695699Y3743099D01*
X3733299Y3755300D01*
X3746700Y3714000D01*
G37*
G36*
X2361599Y4728299D02*
G01*
X2333599Y4832600D01*
X2389600Y4847600D01*
X2417600Y4743299D01*
G37*
G36*
X2417200Y4520599D02*
G01*
X2389200Y4625000D01*
X2445299Y4640000D01*
X2473199Y4535599D01*
G37*
G36*
X2458100Y4754200D02*
G01*
X2430200Y4858499D01*
X2486199Y4873499D01*
X2514200Y4769200D01*
G37*
G36*
X2513800Y4546500D02*
G01*
X2485799Y4650799D01*
X2541899Y4665799D01*
X2569799Y4561500D01*
G37*
G36*
X2554700Y4780000D02*
G01*
X2526800Y4884400D01*
X2582799Y4899400D01*
X2610799Y4795000D01*
G37*
G36*
X2610399Y4572399D02*
G01*
X2582399Y4676700D01*
X2638400Y4691700D01*
X2666400Y4587399D01*
G37*
D57*
G01*
X886700Y3604749D03*
G01*
X838220Y3692210D03*
G01*
X799239Y3556269D03*
G01*
X750760Y3643730D03*
G01*
X711779Y3507790D03*
G01*
X663299Y3595250D03*
M02*
