G04 Layer: TopLayer*
G04 EasyEDA v6.4.17, 2021-02-25T15:28:36--5:00*
G04 aa3373424ab044808dd5acc0b6461e4b,072da06717534aa28f27f5ff42559d36,10*
G04 Gerber Generator version 0.2*
G04 Scale: 100 percent, Rotated: No, Reflected: No *
G04 Dimensions in inches *
G04 leading zeros omitted , absolute positions ,3 integer and 6 decimal *
%FSLAX36Y36*%
%MOIN*%

%ADD11C,0.0120*%
%ADD12C,0.0160*%
%ADD13C,0.0240*%
%ADD15R,0.0827X0.0551*%
%ADD16R,0.0472X0.0394*%
%ADD17C,0.0620*%
%ADD18R,0.0620X0.0620*%
%ADD20C,0.0600*%
%ADD22C,0.0557*%
%ADD24C,0.0740*%
%ADD25C,0.0433*%

%LPD*%
G36*
X14100Y250000D02*
G01*
X12560Y250300D01*
X11279Y251180D01*
X10400Y252460D01*
X10100Y254000D01*
X10100Y1444160D01*
X10400Y1445700D01*
X11279Y1446980D01*
X128020Y1563720D01*
X129300Y1564600D01*
X130840Y1564900D01*
X474739Y1564900D01*
X477500Y1565260D01*
X479620Y1566120D01*
X481500Y1567480D01*
X483459Y1569900D01*
X484760Y1572680D01*
X485640Y1573899D01*
X486900Y1574720D01*
X488380Y1575000D01*
X634660Y1575000D01*
X636300Y1574640D01*
X637640Y1573660D01*
X638480Y1572200D01*
X638640Y1570540D01*
X638100Y1568940D01*
X636960Y1567720D01*
X635800Y1566920D01*
X633080Y1564199D01*
X630880Y1561040D01*
X629240Y1557560D01*
X628260Y1553839D01*
X627920Y1550000D01*
X628260Y1546160D01*
X629240Y1542440D01*
X630880Y1538959D01*
X633080Y1535800D01*
X635800Y1533080D01*
X638960Y1530880D01*
X642440Y1529240D01*
X646160Y1528260D01*
X647800Y1528100D01*
X649140Y1527740D01*
X650280Y1526960D01*
X654300Y1522920D01*
X655160Y1521639D01*
X655480Y1520100D01*
X655160Y1518560D01*
X654300Y1517280D01*
X653000Y1516399D01*
X651480Y1516100D01*
X633320Y1516100D01*
X631800Y1516399D01*
X630500Y1517280D01*
X623040Y1524720D01*
X622260Y1525860D01*
X621900Y1527200D01*
X621740Y1528839D01*
X620760Y1532560D01*
X619120Y1536040D01*
X616920Y1539199D01*
X614200Y1541920D01*
X611040Y1544120D01*
X607560Y1545760D01*
X603840Y1546740D01*
X600000Y1547080D01*
X596160Y1546740D01*
X592440Y1545760D01*
X588960Y1544120D01*
X585800Y1541920D01*
X583080Y1539199D01*
X580880Y1536040D01*
X579240Y1532560D01*
X578860Y1531120D01*
X578060Y1529580D01*
X576700Y1528540D01*
X575000Y1528160D01*
X573300Y1528540D01*
X571940Y1529580D01*
X571140Y1531120D01*
X570760Y1532560D01*
X569120Y1536040D01*
X566920Y1539199D01*
X564200Y1541920D01*
X561040Y1544120D01*
X557560Y1545760D01*
X553840Y1546740D01*
X550000Y1547080D01*
X546160Y1546740D01*
X542440Y1545760D01*
X538960Y1544120D01*
X535800Y1541920D01*
X533080Y1539199D01*
X530880Y1536040D01*
X529240Y1532560D01*
X528260Y1528839D01*
X527920Y1525000D01*
X528260Y1521160D01*
X529240Y1517440D01*
X530880Y1513959D01*
X533180Y1510660D01*
X533720Y1509580D01*
X533900Y1508380D01*
X533900Y1500200D01*
X534040Y1498760D01*
X533860Y1497140D01*
X533060Y1495720D01*
X531780Y1494740D01*
X530200Y1494360D01*
X528600Y1494640D01*
X527240Y1495540D01*
X523040Y1499720D01*
X522260Y1500860D01*
X521900Y1502200D01*
X521740Y1503839D01*
X520760Y1507560D01*
X519120Y1511040D01*
X516920Y1514199D01*
X514200Y1516920D01*
X511040Y1519120D01*
X507560Y1520760D01*
X503840Y1521740D01*
X500000Y1522080D01*
X496160Y1521740D01*
X492440Y1520760D01*
X488960Y1519120D01*
X485800Y1516920D01*
X483080Y1514199D01*
X480880Y1511040D01*
X479240Y1507560D01*
X478260Y1503839D01*
X477920Y1500000D01*
X478260Y1496160D01*
X479240Y1492440D01*
X480880Y1488959D01*
X483080Y1485800D01*
X485800Y1483080D01*
X488960Y1480880D01*
X492440Y1479240D01*
X496160Y1478260D01*
X497800Y1478100D01*
X499140Y1477740D01*
X500280Y1476960D01*
X538480Y1438760D01*
X541060Y1436620D01*
X543840Y1435140D01*
X546860Y1434220D01*
X550200Y1433899D01*
X709780Y1433899D01*
X711340Y1433580D01*
X712660Y1432680D01*
X713520Y1431320D01*
X713780Y1429760D01*
X713400Y1428200D01*
X712440Y1426920D01*
X711080Y1426120D01*
X708400Y1425200D01*
X706520Y1424019D01*
X704920Y1422420D01*
X703720Y1420520D01*
X702960Y1418380D01*
X702700Y1415920D01*
X702700Y1408680D01*
X702380Y1407140D01*
X701520Y1405860D01*
X700220Y1404980D01*
X698700Y1404680D01*
X451300Y1404680D01*
X449780Y1404980D01*
X448480Y1405860D01*
X447620Y1407140D01*
X447299Y1408680D01*
X447299Y1415920D01*
X447040Y1418380D01*
X446280Y1420520D01*
X445080Y1422420D01*
X443500Y1424019D01*
X441580Y1425220D01*
X439460Y1425960D01*
X436980Y1426240D01*
X373180Y1426240D01*
X371659Y1426540D01*
X370360Y1427420D01*
X367280Y1430500D01*
X366480Y1431620D01*
X366120Y1432960D01*
X366240Y1434340D01*
X366800Y1435600D01*
X369120Y1438940D01*
X370760Y1442440D01*
X371740Y1446160D01*
X372080Y1450000D01*
X371740Y1453839D01*
X370760Y1457560D01*
X369120Y1461040D01*
X366920Y1464199D01*
X364200Y1466920D01*
X361040Y1469120D01*
X357560Y1470760D01*
X353840Y1471740D01*
X350000Y1472080D01*
X346160Y1471740D01*
X342440Y1470760D01*
X338960Y1469120D01*
X335800Y1466920D01*
X333080Y1464199D01*
X330880Y1461040D01*
X329240Y1457560D01*
X328260Y1453839D01*
X327920Y1450000D01*
X328260Y1446160D01*
X329240Y1442440D01*
X330880Y1438959D01*
X333180Y1435660D01*
X333720Y1434580D01*
X333900Y1433380D01*
X333900Y1425200D01*
X334219Y1421860D01*
X335140Y1418839D01*
X336620Y1416060D01*
X338760Y1413480D01*
X343260Y1408980D01*
X344120Y1407680D01*
X344440Y1406140D01*
X344440Y1361240D01*
X344700Y1358779D01*
X345460Y1356639D01*
X346659Y1354740D01*
X348260Y1353140D01*
X350160Y1351940D01*
X352280Y1351200D01*
X354760Y1350920D01*
X436980Y1350920D01*
X439460Y1351200D01*
X441580Y1351940D01*
X443500Y1353140D01*
X445080Y1354740D01*
X446280Y1356639D01*
X447040Y1358779D01*
X447299Y1361240D01*
X447299Y1368480D01*
X447620Y1370020D01*
X448480Y1371300D01*
X449780Y1372180D01*
X451300Y1372480D01*
X698700Y1372480D01*
X700220Y1372180D01*
X701520Y1371300D01*
X702380Y1370020D01*
X702700Y1368480D01*
X702700Y1361240D01*
X702960Y1358779D01*
X703720Y1356639D01*
X704920Y1354740D01*
X706520Y1353140D01*
X708420Y1351940D01*
X710540Y1351200D01*
X713020Y1350920D01*
X795240Y1350920D01*
X797720Y1351200D01*
X799840Y1351940D01*
X801760Y1353140D01*
X803340Y1354740D01*
X804539Y1356639D01*
X805300Y1358779D01*
X805560Y1361240D01*
X805560Y1412000D01*
X805879Y1413540D01*
X806740Y1414840D01*
X808040Y1415700D01*
X809560Y1416000D01*
X811100Y1415700D01*
X812400Y1414840D01*
X832720Y1394500D01*
X833600Y1393200D01*
X833900Y1391680D01*
X833900Y1325200D01*
X834220Y1321860D01*
X835140Y1318839D01*
X836620Y1316060D01*
X838760Y1313480D01*
X1132720Y1019500D01*
X1133600Y1018199D01*
X1133900Y1016680D01*
X1133900Y850200D01*
X1134220Y846860D01*
X1135140Y843840D01*
X1136620Y841060D01*
X1138760Y838480D01*
X1238480Y738760D01*
X1241060Y736620D01*
X1243840Y735140D01*
X1246860Y734220D01*
X1250200Y733900D01*
X1358380Y733900D01*
X1359580Y733720D01*
X1360660Y733180D01*
X1363959Y730879D01*
X1367440Y729240D01*
X1371160Y728259D01*
X1375000Y727920D01*
X1378839Y728259D01*
X1382560Y729240D01*
X1386040Y730879D01*
X1389199Y733080D01*
X1391920Y735800D01*
X1394120Y738960D01*
X1395760Y742440D01*
X1396740Y746160D01*
X1397080Y750000D01*
X1396740Y753840D01*
X1395760Y757560D01*
X1394120Y761040D01*
X1391920Y764200D01*
X1389199Y766919D01*
X1386040Y769120D01*
X1382560Y770759D01*
X1378839Y771740D01*
X1375000Y772080D01*
X1371160Y771740D01*
X1367440Y770759D01*
X1363959Y769120D01*
X1360660Y766820D01*
X1359580Y766280D01*
X1358380Y766100D01*
X1258320Y766100D01*
X1256800Y766400D01*
X1255500Y767280D01*
X1245540Y777240D01*
X1244640Y778600D01*
X1244360Y780200D01*
X1244740Y781780D01*
X1245720Y783060D01*
X1247140Y783860D01*
X1248760Y784040D01*
X1250200Y783900D01*
X1733380Y783900D01*
X1734580Y783720D01*
X1735660Y783180D01*
X1738959Y780879D01*
X1742440Y779240D01*
X1746160Y778259D01*
X1750000Y777920D01*
X1753839Y778259D01*
X1757560Y779240D01*
X1761040Y780879D01*
X1764199Y783080D01*
X1766920Y785800D01*
X1769120Y788960D01*
X1770760Y792440D01*
X1771740Y796160D01*
X1772080Y800000D01*
X1771740Y803840D01*
X1770760Y807560D01*
X1769120Y811040D01*
X1766920Y814200D01*
X1764199Y816919D01*
X1761040Y819120D01*
X1757560Y820759D01*
X1753839Y821740D01*
X1750000Y822080D01*
X1746160Y821740D01*
X1742440Y820759D01*
X1738959Y819120D01*
X1735660Y816820D01*
X1734580Y816280D01*
X1733380Y816100D01*
X1258320Y816100D01*
X1256800Y816400D01*
X1255500Y817280D01*
X1245540Y827240D01*
X1244640Y828600D01*
X1244360Y830200D01*
X1244740Y831780D01*
X1245720Y833060D01*
X1247140Y833860D01*
X1248760Y834040D01*
X1250200Y833900D01*
X1533380Y833900D01*
X1534580Y833720D01*
X1535660Y833180D01*
X1538959Y830879D01*
X1542440Y829240D01*
X1546160Y828259D01*
X1550000Y827920D01*
X1553839Y828259D01*
X1557560Y829240D01*
X1561040Y830879D01*
X1564199Y833080D01*
X1566920Y835800D01*
X1569120Y838960D01*
X1570760Y842440D01*
X1571740Y846160D01*
X1572080Y850000D01*
X1571620Y855320D01*
X1572040Y856720D01*
X1572920Y857880D01*
X1574180Y858640D01*
X1575600Y858900D01*
X1591680Y858900D01*
X1593200Y858600D01*
X1594500Y857720D01*
X1613480Y838760D01*
X1616060Y836620D01*
X1618839Y835140D01*
X1621860Y834220D01*
X1625200Y833900D01*
X1833380Y833900D01*
X1834580Y833720D01*
X1835660Y833180D01*
X1838959Y830879D01*
X1842440Y829240D01*
X1846160Y828259D01*
X1850000Y827920D01*
X1853839Y828259D01*
X1857560Y829240D01*
X1861040Y830879D01*
X1864199Y833080D01*
X1866920Y835800D01*
X1869120Y838960D01*
X1870760Y842440D01*
X1871740Y846160D01*
X1872080Y850000D01*
X1871740Y853840D01*
X1870760Y857560D01*
X1869120Y861040D01*
X1866920Y864200D01*
X1864199Y866919D01*
X1861040Y869120D01*
X1857560Y870759D01*
X1853839Y871740D01*
X1850000Y872080D01*
X1846160Y871740D01*
X1842440Y870759D01*
X1838959Y869120D01*
X1835660Y866820D01*
X1834580Y866280D01*
X1833380Y866100D01*
X1633320Y866100D01*
X1631800Y866400D01*
X1630500Y867280D01*
X1611519Y886240D01*
X1608940Y888379D01*
X1606160Y889860D01*
X1603140Y890780D01*
X1599800Y891100D01*
X1283320Y891100D01*
X1281800Y891400D01*
X1280500Y892280D01*
X1242280Y930500D01*
X1241400Y931800D01*
X1241100Y933319D01*
X1241100Y1099800D01*
X1240780Y1103140D01*
X1239860Y1106160D01*
X1238380Y1108940D01*
X1236240Y1111520D01*
X942280Y1405500D01*
X941400Y1406800D01*
X941100Y1408320D01*
X941100Y1474800D01*
X940780Y1478140D01*
X939860Y1481160D01*
X938379Y1483940D01*
X936240Y1486519D01*
X886520Y1536240D01*
X883940Y1538380D01*
X881160Y1539860D01*
X878139Y1540780D01*
X874800Y1541100D01*
X683319Y1541100D01*
X681800Y1541399D01*
X680500Y1542280D01*
X673040Y1549720D01*
X672260Y1550860D01*
X671900Y1552200D01*
X671740Y1553839D01*
X670759Y1557560D01*
X669120Y1561040D01*
X666919Y1564199D01*
X664200Y1566920D01*
X663040Y1567720D01*
X661900Y1568940D01*
X661360Y1570540D01*
X661520Y1572200D01*
X662360Y1573660D01*
X663700Y1574640D01*
X665340Y1575000D01*
X761420Y1575000D01*
X762940Y1574700D01*
X764240Y1573839D01*
X765100Y1572580D01*
X766080Y1570280D01*
X767380Y1568440D01*
X768220Y1567600D01*
X770540Y1566000D01*
X772700Y1565180D01*
X775120Y1564900D01*
X3149740Y1564900D01*
X3152580Y1565280D01*
X3154680Y1566160D01*
X3156540Y1567520D01*
X3158180Y1569460D01*
X3158540Y1570040D01*
X3159580Y1572320D01*
X3160000Y1574580D01*
X3159880Y1576879D01*
X3159140Y1579319D01*
X2859320Y2253880D01*
X2858020Y2256080D01*
X2856400Y2257700D01*
X2854400Y2258940D01*
X2852540Y2259560D01*
X2849820Y2259960D01*
X2849060Y2259900D01*
X2847400Y2260120D01*
X2845980Y2261000D01*
X2845040Y2262400D01*
X2700160Y2624620D01*
X2699640Y2624840D01*
X2680419Y2616840D01*
X2678960Y2616540D01*
X2677500Y2616780D01*
X2676220Y2617559D01*
X2675539Y2618159D01*
X2673500Y2619320D01*
X2671259Y2619940D01*
X2668960Y2620000D01*
X2666460Y2619460D01*
X2408680Y2530240D01*
X2407520Y2530020D01*
X1592960Y2500220D01*
X1591160Y2500580D01*
X1134420Y2709080D01*
X1131980Y2709860D01*
X1129680Y2710020D01*
X1127400Y2709600D01*
X1125260Y2708660D01*
X1123700Y2707480D01*
X1121760Y2705419D01*
X1120660Y2703399D01*
X1120060Y2701180D01*
X1120000Y2698880D01*
X1120560Y2696380D01*
X1351720Y2047560D01*
X1351940Y2046220D01*
X1351720Y2044880D01*
X1351040Y2043700D01*
X1350020Y2042800D01*
X821420Y1724220D01*
X819900Y1723700D01*
X818300Y1723800D01*
X816860Y1724540D01*
X815840Y1725780D01*
X739040Y1870120D01*
X738580Y1871800D01*
X738860Y1873520D01*
X739860Y1874940D01*
X979040Y2094980D01*
X980860Y2097160D01*
X981820Y2099220D01*
X982360Y2102200D01*
X982200Y2104700D01*
X981480Y2106900D01*
X980160Y2109080D01*
X883060Y2231100D01*
X881240Y2232880D01*
X879260Y2234060D01*
X876880Y2234780D01*
X875800Y2234940D01*
X873319Y2234880D01*
X870639Y2234140D01*
X869120Y2234040D01*
X867660Y2234500D01*
X866480Y2235480D01*
X574260Y2595160D01*
X573540Y2596480D01*
X573360Y2598000D01*
X573780Y2599460D01*
X574700Y2600659D01*
X576540Y2602300D01*
X578220Y2604220D01*
X579300Y2606259D01*
X579840Y2608540D01*
X579900Y2611520D01*
X579340Y2613720D01*
X578140Y2615980D01*
X348420Y2945580D01*
X346680Y2947520D01*
X344780Y2948800D01*
X342600Y2949600D01*
X340260Y2949860D01*
X337100Y2949520D01*
X335000Y2948680D01*
X333120Y2947340D01*
X331460Y2945400D01*
X311740Y2915820D01*
X310520Y2913340D01*
X309940Y2910880D01*
X273220Y2580400D01*
X272680Y2578800D01*
X271560Y2577580D01*
X270020Y2576920D01*
X268340Y2576940D01*
X266820Y2577660D01*
X265720Y2578920D01*
X218980Y2664620D01*
X217500Y2666700D01*
X215740Y2668200D01*
X213680Y2669240D01*
X211439Y2669760D01*
X209060Y2669720D01*
X206620Y2669180D01*
X205300Y2668639D01*
X203299Y2667320D01*
X201740Y2665640D01*
X200620Y2663620D01*
X199980Y2661240D01*
X181640Y2349900D01*
X181220Y2348340D01*
X180200Y2347060D01*
X178780Y2346300D01*
X177160Y2346180D01*
X175620Y2346700D01*
X174420Y2347780D01*
X173740Y2349260D01*
X40620Y2938860D01*
X40519Y2939800D01*
X40640Y2940760D01*
X129000Y3274540D01*
X129740Y3276019D01*
X367620Y3573279D01*
X574960Y3760860D01*
X576120Y3761600D01*
X910480Y3899280D01*
X911440Y3899540D01*
X912460Y3899540D01*
X1938580Y3780000D01*
X1941360Y3780040D01*
X1943860Y3780659D01*
X2773380Y4100480D01*
X2775899Y4101860D01*
X2777559Y4103420D01*
X2779140Y4106040D01*
X2779900Y4108440D01*
X2780020Y4110740D01*
X2779560Y4113240D01*
X2729680Y4272900D01*
X2728680Y4275120D01*
X2727260Y4276940D01*
X2725460Y4278340D01*
X2723780Y4279180D01*
X2721540Y4279900D01*
X2719240Y4280040D01*
X2716960Y4279620D01*
X2715800Y4279180D01*
X2627140Y4239780D01*
X2626400Y4239540D01*
X2497920Y4209880D01*
X2495720Y4209160D01*
X2136120Y4049320D01*
X2133800Y4047940D01*
X2133060Y4047300D01*
X2131340Y4045220D01*
X2065080Y3941080D01*
X2063820Y3939840D01*
X2062160Y3939240D01*
X1907160Y3921019D01*
X1905740Y3921100D01*
X1904440Y3921680D01*
X1903420Y3922679D01*
X1725080Y4176120D01*
X1724500Y4177380D01*
X1724379Y4178759D01*
X1724720Y4180100D01*
X1725520Y4181240D01*
X2167000Y4622720D01*
X2168460Y4624480D01*
X2335400Y4869980D01*
X2336400Y4871000D01*
X2337680Y4871600D01*
X2632360Y4950180D01*
X2634740Y4951120D01*
X2636600Y4952480D01*
X2638200Y4954340D01*
X2638920Y4955580D01*
X2639780Y4957860D01*
X2640059Y4960160D01*
X2639740Y4962680D01*
X2584180Y5184920D01*
X2584080Y5186380D01*
X2584520Y5187760D01*
X2585400Y5188900D01*
X2586640Y5189640D01*
X2588060Y5189900D01*
X2807040Y5189900D01*
X2808639Y5189560D01*
X3555700Y4860840D01*
X3796259Y4731320D01*
X3797480Y4730300D01*
X3798200Y4728920D01*
X3798340Y4727340D01*
X3797860Y4725840D01*
X3796840Y4724640D01*
X3673860Y4628020D01*
X3672140Y4626300D01*
X3670940Y4624340D01*
X3670260Y4622160D01*
X3670080Y4620180D01*
X3670220Y4617840D01*
X3670940Y4615640D01*
X3672140Y4613680D01*
X3673060Y4612660D01*
X3974760Y4320400D01*
X3975680Y4319000D01*
X3975960Y4317320D01*
X3975520Y4315700D01*
X3974460Y4314400D01*
X3972940Y4313640D01*
X3877780Y4289860D01*
X3875400Y4288940D01*
X3873500Y4287620D01*
X3871960Y4285860D01*
X3870539Y4283260D01*
X3870000Y4281060D01*
X3870000Y4278500D01*
X3922679Y3857060D01*
X3922540Y3855380D01*
X3921720Y3853920D01*
X3920360Y3852919D01*
X3922120Y3852060D01*
X3923159Y3850880D01*
X3923639Y3849380D01*
X3949560Y3642100D01*
X3949560Y3641160D01*
X3949360Y3640240D01*
X3866980Y3411440D01*
X3866220Y3410140D01*
X3865020Y3409220D01*
X3863560Y3408800D01*
X3862060Y3408960D01*
X3860720Y3409660D01*
X3859740Y3410800D01*
X3788880Y3534800D01*
X3787360Y3536840D01*
X3785580Y3538320D01*
X3783500Y3539320D01*
X3781120Y3539820D01*
X3779400Y3539860D01*
X3777580Y3539640D01*
X3775360Y3538860D01*
X3773420Y3537600D01*
X3771500Y3535460D01*
X3641680Y3335720D01*
X3640520Y3333320D01*
X3640000Y3330440D01*
X3640120Y3328120D01*
X3640860Y3325680D01*
X3718380Y3151259D01*
X3718720Y3149740D01*
X3718460Y3148180D01*
X3581860Y2796960D01*
X3581400Y2796100D01*
X3580740Y2795360D01*
X3443480Y2677720D01*
X3333780Y2587960D01*
X3332040Y2586139D01*
X3330700Y2583700D01*
X3330040Y2581460D01*
X3329960Y2578900D01*
X3414920Y1574400D01*
X3415500Y1571720D01*
X3416520Y1569660D01*
X3418039Y1567900D01*
X3420600Y1566000D01*
X3422700Y1565200D01*
X3425240Y1564900D01*
X3844160Y1564900D01*
X3845700Y1564600D01*
X3846980Y1563720D01*
X3963720Y1446980D01*
X3964600Y1445700D01*
X3964900Y1444160D01*
X3964900Y254000D01*
X3964600Y252460D01*
X3963720Y251180D01*
X3962440Y250300D01*
X3960899Y250000D01*
X3606600Y250000D01*
X3605020Y250320D01*
X3603700Y251220D01*
X3602860Y252580D01*
X3602600Y254160D01*
X3602980Y255720D01*
X3603940Y257000D01*
X3605320Y257800D01*
X3607300Y258460D01*
X3610220Y260080D01*
X3612919Y262340D01*
X3663279Y312700D01*
X3665380Y315480D01*
X3666860Y318460D01*
X3667780Y321680D01*
X3668100Y325180D01*
X3668100Y611240D01*
X3668279Y612440D01*
X3669120Y613960D01*
X3670760Y617440D01*
X3671740Y621160D01*
X3672080Y625000D01*
X3671740Y628840D01*
X3670760Y632560D01*
X3669120Y636040D01*
X3666920Y639200D01*
X3664200Y641919D01*
X3661040Y644120D01*
X3657559Y645759D01*
X3653840Y646740D01*
X3650000Y647080D01*
X3646160Y646740D01*
X3642440Y645759D01*
X3638960Y644120D01*
X3635800Y641919D01*
X3633080Y639200D01*
X3630880Y636040D01*
X3629240Y632560D01*
X3628260Y628840D01*
X3627919Y625000D01*
X3628260Y621160D01*
X3629240Y617440D01*
X3630880Y613960D01*
X3631720Y612440D01*
X3631900Y611240D01*
X3631900Y334159D01*
X3631600Y332620D01*
X3630720Y331320D01*
X3593680Y294280D01*
X3592380Y293400D01*
X3590840Y293100D01*
X2825520Y293100D01*
X2824000Y293400D01*
X2822700Y294280D01*
X2821840Y295560D01*
X2821520Y297100D01*
X2821840Y298640D01*
X2822700Y299920D01*
X2861240Y338480D01*
X2863380Y341060D01*
X2864860Y343840D01*
X2865779Y346860D01*
X2866100Y350200D01*
X2866100Y766680D01*
X2866400Y768199D01*
X2867280Y769500D01*
X2891900Y794120D01*
X2893200Y795000D01*
X2894720Y795300D01*
X3040440Y795300D01*
X3041960Y795000D01*
X3043260Y794120D01*
X3044120Y792840D01*
X3044440Y791300D01*
X3044440Y784080D01*
X3044700Y781620D01*
X3045460Y779479D01*
X3046660Y777580D01*
X3048260Y775980D01*
X3050160Y774780D01*
X3052280Y774040D01*
X3054760Y773760D01*
X3136980Y773760D01*
X3139460Y774040D01*
X3141580Y774780D01*
X3143500Y775980D01*
X3145080Y777580D01*
X3146280Y779479D01*
X3147040Y781620D01*
X3147300Y784080D01*
X3147300Y791320D01*
X3147620Y792860D01*
X3148480Y794140D01*
X3149780Y795020D01*
X3151300Y795320D01*
X3398700Y795320D01*
X3400220Y795020D01*
X3401520Y794140D01*
X3402380Y792860D01*
X3402700Y791320D01*
X3402700Y784080D01*
X3402960Y781620D01*
X3403720Y779479D01*
X3404920Y777580D01*
X3406520Y775980D01*
X3408420Y774780D01*
X3410539Y774040D01*
X3413020Y773760D01*
X3495240Y773760D01*
X3497720Y774040D01*
X3499840Y774780D01*
X3501760Y775980D01*
X3503340Y777580D01*
X3504540Y779479D01*
X3505299Y781620D01*
X3505560Y784080D01*
X3505560Y838760D01*
X3505299Y841220D01*
X3504540Y843360D01*
X3503340Y845260D01*
X3501760Y846860D01*
X3499840Y848060D01*
X3497720Y848800D01*
X3495240Y849080D01*
X3413020Y849080D01*
X3410539Y848800D01*
X3408420Y848060D01*
X3406520Y846860D01*
X3404920Y845260D01*
X3403720Y843360D01*
X3402960Y841220D01*
X3402700Y838760D01*
X3402700Y831520D01*
X3402380Y829980D01*
X3401520Y828700D01*
X3400220Y827820D01*
X3398700Y827520D01*
X3151300Y827520D01*
X3149780Y827820D01*
X3148480Y828700D01*
X3147620Y829980D01*
X3147300Y831520D01*
X3147300Y838760D01*
X3147040Y841220D01*
X3146280Y843360D01*
X3145080Y845260D01*
X3143500Y846860D01*
X3141580Y848060D01*
X3139460Y848800D01*
X3136980Y849080D01*
X3054760Y849080D01*
X3052280Y848800D01*
X3050160Y848060D01*
X3048260Y846860D01*
X3046660Y845260D01*
X3045460Y843360D01*
X3044700Y841220D01*
X3044440Y838760D01*
X3044440Y831500D01*
X3044120Y829960D01*
X3043260Y828680D01*
X3041960Y827800D01*
X3040440Y827500D01*
X2886600Y827500D01*
X2883260Y827180D01*
X2880240Y826260D01*
X2877460Y824780D01*
X2874880Y822640D01*
X2847919Y795699D01*
X2846640Y794840D01*
X2845100Y794520D01*
X2843560Y794840D01*
X2842280Y795699D01*
X2841400Y797000D01*
X2841100Y798520D01*
X2841100Y966680D01*
X2841400Y968199D01*
X2842280Y969500D01*
X3005500Y1132720D01*
X3006800Y1133600D01*
X3008320Y1133900D01*
X3416600Y1133900D01*
X3419940Y1134220D01*
X3422960Y1135140D01*
X3425740Y1136620D01*
X3428320Y1138760D01*
X3432140Y1142580D01*
X3434260Y1145160D01*
X3435760Y1147940D01*
X3436660Y1150960D01*
X3437000Y1154300D01*
X3437000Y1169760D01*
X3437300Y1171300D01*
X3438159Y1172580D01*
X3439460Y1173460D01*
X3441000Y1173760D01*
X3461980Y1173760D01*
X3464460Y1174040D01*
X3466580Y1174780D01*
X3468500Y1175980D01*
X3470080Y1177580D01*
X3471280Y1179480D01*
X3472040Y1181620D01*
X3472300Y1184080D01*
X3472300Y1191320D01*
X3472620Y1192860D01*
X3473480Y1194140D01*
X3474780Y1195020D01*
X3476300Y1195320D01*
X3723700Y1195320D01*
X3725220Y1195020D01*
X3726520Y1194140D01*
X3727380Y1192860D01*
X3727700Y1191320D01*
X3727700Y1184080D01*
X3727960Y1181620D01*
X3728720Y1179480D01*
X3729920Y1177580D01*
X3731520Y1175980D01*
X3733420Y1174780D01*
X3735539Y1174040D01*
X3738020Y1173760D01*
X3820240Y1173760D01*
X3822720Y1174040D01*
X3824840Y1174780D01*
X3826760Y1175980D01*
X3828340Y1177580D01*
X3829540Y1179480D01*
X3830299Y1181620D01*
X3830560Y1184080D01*
X3830560Y1238760D01*
X3830299Y1241220D01*
X3829540Y1243360D01*
X3828340Y1245260D01*
X3826760Y1246860D01*
X3824840Y1248060D01*
X3822720Y1248800D01*
X3820240Y1249080D01*
X3738020Y1249080D01*
X3735539Y1248800D01*
X3733420Y1248060D01*
X3731520Y1246860D01*
X3729920Y1245260D01*
X3728720Y1243360D01*
X3727960Y1241220D01*
X3727700Y1238760D01*
X3727700Y1231520D01*
X3727380Y1229980D01*
X3726520Y1228700D01*
X3725220Y1227820D01*
X3723700Y1227520D01*
X3476300Y1227520D01*
X3474780Y1227820D01*
X3473480Y1228700D01*
X3472620Y1229980D01*
X3472300Y1231520D01*
X3472300Y1238760D01*
X3472040Y1241220D01*
X3471280Y1243360D01*
X3470080Y1245260D01*
X3468500Y1246860D01*
X3466580Y1248060D01*
X3464460Y1248800D01*
X3461980Y1249080D01*
X3379760Y1249080D01*
X3377280Y1248800D01*
X3375160Y1248060D01*
X3373260Y1246860D01*
X3371660Y1245260D01*
X3370460Y1243360D01*
X3369700Y1241220D01*
X3369440Y1238760D01*
X3369440Y1184080D01*
X3369700Y1181620D01*
X3370460Y1179480D01*
X3371660Y1177580D01*
X3373260Y1175980D01*
X3375140Y1174800D01*
X3377820Y1173880D01*
X3379180Y1173080D01*
X3380140Y1171800D01*
X3380520Y1170240D01*
X3380260Y1168680D01*
X3379400Y1167320D01*
X3378080Y1166420D01*
X3376520Y1166100D01*
X3000200Y1166100D01*
X2996860Y1165780D01*
X2993840Y1164860D01*
X2991060Y1163380D01*
X2988480Y1161240D01*
X2813759Y986520D01*
X2811620Y983940D01*
X2810140Y981160D01*
X2809220Y978139D01*
X2808900Y974800D01*
X2808900Y383320D01*
X2808600Y381800D01*
X2807720Y380500D01*
X2764500Y337280D01*
X2763200Y336400D01*
X2761680Y336100D01*
X1888320Y336100D01*
X1886800Y336400D01*
X1885500Y337280D01*
X1873040Y349720D01*
X1872260Y350860D01*
X1871900Y352200D01*
X1871740Y353840D01*
X1870760Y357560D01*
X1869120Y361040D01*
X1866920Y364200D01*
X1864199Y366920D01*
X1861040Y369120D01*
X1857560Y370760D01*
X1853839Y371740D01*
X1850000Y372080D01*
X1846160Y371740D01*
X1842440Y370760D01*
X1838959Y369120D01*
X1835800Y366920D01*
X1833080Y364200D01*
X1830880Y361040D01*
X1829240Y357560D01*
X1828260Y353840D01*
X1827920Y350000D01*
X1828260Y346160D01*
X1829240Y342440D01*
X1830880Y338960D01*
X1833080Y335800D01*
X1835800Y333080D01*
X1838959Y330880D01*
X1842440Y329240D01*
X1846160Y328260D01*
X1847800Y328100D01*
X1849139Y327740D01*
X1850280Y326960D01*
X1854300Y322920D01*
X1855160Y321640D01*
X1855480Y320100D01*
X1855160Y318560D01*
X1854300Y317280D01*
X1853000Y316400D01*
X1851480Y316100D01*
X1833320Y316100D01*
X1831800Y316400D01*
X1830500Y317280D01*
X1823040Y324720D01*
X1822260Y325860D01*
X1821900Y327200D01*
X1821740Y328840D01*
X1820760Y332560D01*
X1819120Y336040D01*
X1816920Y339200D01*
X1814199Y341920D01*
X1811040Y344120D01*
X1807560Y345760D01*
X1803839Y346740D01*
X1800000Y347080D01*
X1796160Y346740D01*
X1792440Y345760D01*
X1788959Y344120D01*
X1785800Y341920D01*
X1783080Y339200D01*
X1780880Y336040D01*
X1779240Y332560D01*
X1778260Y328840D01*
X1777920Y325000D01*
X1778260Y321160D01*
X1779240Y317440D01*
X1780880Y313960D01*
X1783080Y310800D01*
X1785800Y308080D01*
X1788959Y305880D01*
X1792440Y304240D01*
X1796160Y303260D01*
X1797800Y303100D01*
X1799139Y302740D01*
X1800280Y301960D01*
X1802300Y299920D01*
X1803160Y298640D01*
X1803480Y297100D01*
X1803160Y295560D01*
X1802300Y294280D01*
X1801000Y293400D01*
X1799480Y293100D01*
X1399300Y293080D01*
X1395860Y292600D01*
X1392700Y291540D01*
X1389780Y289920D01*
X1387080Y287660D01*
X1368680Y269280D01*
X1367380Y268400D01*
X1365840Y268100D01*
X1259160Y268100D01*
X1257620Y268400D01*
X1256320Y269280D01*
X1237300Y288280D01*
X1234520Y290380D01*
X1231540Y291860D01*
X1228320Y292780D01*
X1224820Y293100D01*
X298560Y293100D01*
X297020Y293400D01*
X295720Y294280D01*
X255680Y334320D01*
X254800Y335620D01*
X254500Y337160D01*
X254500Y379780D01*
X254220Y382239D01*
X253480Y384380D01*
X252280Y386280D01*
X250680Y387879D01*
X248780Y389080D01*
X246640Y389820D01*
X244180Y390100D01*
X184620Y390100D01*
X182160Y389820D01*
X180020Y389080D01*
X178120Y387879D01*
X176520Y386280D01*
X175320Y384380D01*
X174579Y382239D01*
X174300Y379780D01*
X174300Y377200D01*
X173980Y375640D01*
X173080Y374320D01*
X171740Y373459D01*
X170159Y373200D01*
X168600Y373579D01*
X167320Y374520D01*
X163460Y378820D01*
X159380Y382280D01*
X154860Y385160D01*
X153100Y385980D01*
X153100Y367500D01*
X170300Y367500D01*
X171840Y367200D01*
X173120Y366320D01*
X174000Y365040D01*
X174300Y363500D01*
X174300Y336500D01*
X174000Y334960D01*
X173120Y333680D01*
X171840Y332800D01*
X170300Y332500D01*
X153100Y332500D01*
X153100Y314020D01*
X154860Y314840D01*
X159380Y317720D01*
X163460Y321180D01*
X167320Y325480D01*
X168600Y326420D01*
X170159Y326800D01*
X171740Y326540D01*
X173080Y325680D01*
X173980Y324360D01*
X174300Y322800D01*
X174300Y320220D01*
X174579Y317760D01*
X175320Y315620D01*
X176520Y313720D01*
X178120Y312120D01*
X180020Y310920D01*
X182160Y310180D01*
X184620Y309900D01*
X227240Y309900D01*
X228780Y309600D01*
X230080Y308720D01*
X277100Y261720D01*
X279880Y259620D01*
X282860Y258140D01*
X283900Y257840D01*
X285340Y257100D01*
X286360Y255840D01*
X286780Y254259D01*
X286560Y252659D01*
X285720Y251260D01*
X284380Y250340D01*
X282800Y250000D01*
G37*

%LPC*%
G36*
X1316660Y279920D02*
G01*
X1323260Y280480D01*
X1329760Y281740D01*
X1336080Y283720D01*
X1342140Y286380D01*
X1347860Y289700D01*
X1353200Y293620D01*
X1358080Y298100D01*
X1362420Y303080D01*
X1366200Y308540D01*
X1369340Y314360D01*
X1371840Y320480D01*
X1373640Y326860D01*
X1374720Y333380D01*
X1375100Y340000D01*
X1374720Y346620D01*
X1373640Y353140D01*
X1371840Y359520D01*
X1369340Y365640D01*
X1366200Y371460D01*
X1362420Y376920D01*
X1358080Y381900D01*
X1353200Y386380D01*
X1347860Y390300D01*
X1342140Y393620D01*
X1336080Y396280D01*
X1329760Y398260D01*
X1323260Y399520D01*
X1316660Y400080D01*
X1310040Y399880D01*
X1303480Y398980D01*
X1297060Y397360D01*
X1290860Y395040D01*
X1284960Y392040D01*
X1279420Y388420D01*
X1274300Y384219D01*
X1269680Y379460D01*
X1265620Y374240D01*
X1262140Y368600D01*
X1259320Y362620D01*
X1257180Y356360D01*
X1255720Y349900D01*
X1255000Y343320D01*
X1255000Y336680D01*
X1255720Y330100D01*
X1257180Y323640D01*
X1259320Y317380D01*
X1262140Y311400D01*
X1265620Y305760D01*
X1269680Y300540D01*
X1274300Y295780D01*
X1279420Y291580D01*
X1284960Y287960D01*
X1290860Y284960D01*
X1297060Y282640D01*
X1303480Y281020D01*
X1310040Y280120D01*
G37*
G36*
X3867940Y310760D02*
G01*
X3884900Y310760D01*
X3884900Y337060D01*
X3857620Y337060D01*
X3857620Y321100D01*
X3857900Y318620D01*
X3858639Y316500D01*
X3859840Y314580D01*
X3861440Y312980D01*
X3863340Y311780D01*
X3865480Y311040D01*
G37*
G36*
X3929260Y310760D02*
G01*
X3946220Y310760D01*
X3948700Y311040D01*
X3950820Y311780D01*
X3952740Y312980D01*
X3954340Y314580D01*
X3955539Y316500D01*
X3956280Y318620D01*
X3956560Y321100D01*
X3956560Y337060D01*
X3929260Y337060D01*
G37*
G36*
X118100Y313980D02*
G01*
X118100Y332500D01*
X99580Y332500D01*
X99820Y331920D01*
X102540Y327320D01*
X105860Y323100D01*
X109720Y319380D01*
X114019Y316200D01*
G37*
G36*
X1075000Y352920D02*
G01*
X1078840Y353260D01*
X1082560Y354240D01*
X1086040Y355880D01*
X1089200Y358080D01*
X1091920Y360800D01*
X1094120Y363960D01*
X1095760Y367440D01*
X1096740Y371160D01*
X1097080Y375000D01*
X1096740Y378840D01*
X1095760Y382560D01*
X1094120Y386040D01*
X1091920Y389200D01*
X1089200Y391920D01*
X1086040Y394120D01*
X1082560Y395760D01*
X1078840Y396740D01*
X1075000Y397080D01*
X1071160Y396740D01*
X1067440Y395760D01*
X1063960Y394120D01*
X1060800Y391920D01*
X1058080Y389200D01*
X1055880Y386040D01*
X1054240Y382560D01*
X1053260Y378840D01*
X1052920Y375000D01*
X1053260Y371160D01*
X1054240Y367440D01*
X1055880Y363960D01*
X1058080Y360800D01*
X1060800Y358080D01*
X1063960Y355880D01*
X1067440Y354240D01*
X1071160Y353260D01*
G37*
G36*
X2600000Y352920D02*
G01*
X2603840Y353260D01*
X2607559Y354240D01*
X2611040Y355880D01*
X2614200Y358080D01*
X2616920Y360800D01*
X2619120Y363960D01*
X2620760Y367440D01*
X2621740Y371160D01*
X2622080Y375000D01*
X2621740Y378840D01*
X2620760Y382560D01*
X2619120Y386040D01*
X2616920Y389200D01*
X2614200Y391920D01*
X2611040Y394120D01*
X2607559Y395760D01*
X2603840Y396740D01*
X2600659Y397020D01*
X2599320Y397380D01*
X2598180Y398180D01*
X2597380Y399320D01*
X2597020Y400660D01*
X2596740Y403840D01*
X2595760Y407560D01*
X2594120Y411040D01*
X2591820Y414340D01*
X2591280Y415420D01*
X2591100Y416620D01*
X2591100Y716680D01*
X2591400Y718199D01*
X2592280Y719500D01*
X2635500Y762720D01*
X2636800Y763600D01*
X2638320Y763900D01*
X2664740Y763900D01*
X2666180Y763620D01*
X2667440Y762840D01*
X2668320Y761660D01*
X2669420Y759460D01*
X2672400Y754980D01*
X2675940Y750939D01*
X2679980Y747400D01*
X2684460Y744419D01*
X2689280Y742039D01*
X2694360Y740300D01*
X2699640Y739260D01*
X2705000Y738900D01*
X2710360Y739260D01*
X2715640Y740300D01*
X2720720Y742039D01*
X2725539Y744419D01*
X2730020Y747400D01*
X2734060Y750939D01*
X2737600Y754980D01*
X2740580Y759460D01*
X2742960Y764280D01*
X2744700Y769360D01*
X2745740Y774640D01*
X2746100Y780000D01*
X2745740Y785360D01*
X2744700Y790639D01*
X2742960Y795720D01*
X2740580Y800540D01*
X2737600Y805020D01*
X2734060Y809060D01*
X2730020Y812600D01*
X2725539Y815580D01*
X2720720Y817960D01*
X2715640Y819700D01*
X2710360Y820740D01*
X2705000Y821100D01*
X2699640Y820740D01*
X2694360Y819700D01*
X2689280Y817960D01*
X2684460Y815580D01*
X2679980Y812600D01*
X2675940Y809060D01*
X2672400Y805020D01*
X2669420Y800540D01*
X2668320Y798340D01*
X2667440Y797159D01*
X2666180Y796380D01*
X2664740Y796100D01*
X2630200Y796100D01*
X2626860Y795780D01*
X2623840Y794860D01*
X2621060Y793379D01*
X2618480Y791240D01*
X2563759Y736520D01*
X2561620Y733940D01*
X2560140Y731160D01*
X2559220Y728139D01*
X2558900Y724800D01*
X2558900Y416620D01*
X2558720Y415420D01*
X2558180Y414340D01*
X2555880Y411040D01*
X2554240Y407560D01*
X2552840Y402360D01*
X2551920Y401180D01*
X2550640Y400400D01*
X2549140Y400160D01*
X2547680Y400480D01*
X2546440Y401340D01*
X2542280Y405500D01*
X2541400Y406800D01*
X2541100Y408320D01*
X2541100Y483380D01*
X2541280Y484580D01*
X2541820Y485660D01*
X2544120Y488960D01*
X2545760Y492440D01*
X2546740Y496160D01*
X2547080Y500000D01*
X2546740Y503840D01*
X2545760Y507560D01*
X2544120Y511040D01*
X2541920Y514200D01*
X2539200Y516920D01*
X2536040Y519120D01*
X2532560Y520760D01*
X2528840Y521740D01*
X2525000Y522080D01*
X2521160Y521740D01*
X2517440Y520760D01*
X2513960Y519120D01*
X2510800Y516920D01*
X2508080Y514200D01*
X2505880Y511040D01*
X2504240Y507560D01*
X2503260Y503840D01*
X2502920Y500000D01*
X2503260Y496160D01*
X2504240Y492440D01*
X2505880Y488960D01*
X2508180Y485660D01*
X2508720Y484580D01*
X2508900Y483380D01*
X2508900Y400200D01*
X2509220Y396860D01*
X2510140Y393840D01*
X2511620Y391060D01*
X2513760Y388480D01*
X2538480Y363760D01*
X2541060Y361620D01*
X2543840Y360140D01*
X2546860Y359219D01*
X2550200Y358900D01*
X2583380Y358900D01*
X2584580Y358720D01*
X2585659Y358180D01*
X2588960Y355880D01*
X2592440Y354240D01*
X2596160Y353260D01*
G37*
G36*
X99580Y367500D02*
G01*
X118100Y367500D01*
X118100Y386019D01*
X114019Y383800D01*
X109720Y380620D01*
X105860Y376900D01*
X102540Y372680D01*
X99820Y368080D01*
G37*
G36*
X354760Y373760D02*
G01*
X436980Y373760D01*
X439460Y374040D01*
X441580Y374780D01*
X443500Y375980D01*
X445080Y377580D01*
X446280Y379480D01*
X447040Y381620D01*
X447299Y384080D01*
X447299Y391320D01*
X447620Y392860D01*
X448480Y394140D01*
X449780Y395020D01*
X451300Y395319D01*
X698700Y395319D01*
X700220Y395020D01*
X701520Y394140D01*
X702380Y392860D01*
X702700Y391320D01*
X702700Y384080D01*
X702960Y381620D01*
X703720Y379480D01*
X704920Y377580D01*
X706520Y375980D01*
X708420Y374780D01*
X710540Y374040D01*
X713020Y373760D01*
X795240Y373760D01*
X797720Y374040D01*
X799840Y374780D01*
X801760Y375980D01*
X803340Y377580D01*
X804539Y379480D01*
X805300Y381620D01*
X805560Y384080D01*
X805560Y391320D01*
X805879Y392860D01*
X806740Y394140D01*
X808040Y395020D01*
X809560Y395319D01*
X836220Y395319D01*
X839560Y395640D01*
X842580Y396560D01*
X845360Y398040D01*
X847940Y400180D01*
X855500Y407720D01*
X856800Y408600D01*
X858319Y408900D01*
X1366680Y408900D01*
X1368200Y408600D01*
X1369500Y407720D01*
X1388480Y388760D01*
X1391060Y386620D01*
X1393839Y385140D01*
X1396860Y384219D01*
X1400200Y383900D01*
X2099800Y383900D01*
X2103140Y384219D01*
X2106160Y385140D01*
X2108940Y386620D01*
X2111520Y388760D01*
X2124720Y401960D01*
X2125860Y402740D01*
X2127200Y403100D01*
X2128840Y403260D01*
X2132560Y404240D01*
X2136040Y405880D01*
X2139200Y408080D01*
X2141920Y410800D01*
X2144120Y413960D01*
X2145760Y417440D01*
X2146740Y421160D01*
X2147080Y425000D01*
X2146740Y428840D01*
X2145760Y432560D01*
X2144120Y436040D01*
X2141920Y439200D01*
X2139200Y441920D01*
X2136040Y444120D01*
X2132560Y445760D01*
X2128840Y446740D01*
X2125000Y447080D01*
X2121160Y446740D01*
X2117440Y445760D01*
X2113960Y444120D01*
X2110800Y441920D01*
X2108080Y439200D01*
X2105880Y436040D01*
X2104240Y432560D01*
X2103260Y428840D01*
X2103100Y427200D01*
X2102740Y425860D01*
X2101960Y424720D01*
X2094500Y417280D01*
X2093200Y416400D01*
X2091680Y416100D01*
X1408320Y416100D01*
X1406800Y416400D01*
X1405500Y417280D01*
X1386519Y436240D01*
X1383940Y438380D01*
X1381160Y439860D01*
X1378140Y440780D01*
X1374800Y441100D01*
X850200Y441100D01*
X846860Y440780D01*
X843840Y439860D01*
X841060Y438380D01*
X838480Y436240D01*
X830920Y428700D01*
X829620Y427819D01*
X828100Y427520D01*
X809560Y427520D01*
X808040Y427819D01*
X806740Y428700D01*
X805879Y429980D01*
X805560Y431520D01*
X805560Y438760D01*
X805300Y441220D01*
X804539Y443360D01*
X803340Y445260D01*
X801760Y446860D01*
X799840Y448060D01*
X797720Y448800D01*
X795240Y449080D01*
X713020Y449080D01*
X710540Y448800D01*
X708420Y448060D01*
X706520Y446860D01*
X704920Y445260D01*
X703720Y443360D01*
X702960Y441220D01*
X702700Y438760D01*
X702700Y431520D01*
X702380Y429980D01*
X701520Y428700D01*
X700220Y427819D01*
X698700Y427520D01*
X451300Y427520D01*
X449780Y427819D01*
X448480Y428700D01*
X447620Y429980D01*
X447299Y431520D01*
X447299Y438760D01*
X447040Y441220D01*
X446280Y443360D01*
X445080Y445260D01*
X443500Y446860D01*
X441580Y448060D01*
X439460Y448800D01*
X436980Y449080D01*
X354760Y449080D01*
X352280Y448800D01*
X350160Y448060D01*
X348260Y446860D01*
X346659Y445260D01*
X345460Y443360D01*
X344700Y441220D01*
X344440Y438760D01*
X344440Y384080D01*
X344700Y381620D01*
X345460Y379480D01*
X346659Y377580D01*
X348260Y375980D01*
X350160Y374780D01*
X352280Y374040D01*
G37*
G36*
X3807720Y375180D02*
G01*
X3809640Y375920D01*
X3813740Y378300D01*
X3817460Y381260D01*
X3820680Y384739D01*
X3823360Y388660D01*
X3824580Y391200D01*
X3807720Y391200D01*
G37*
G36*
X3778100Y375180D02*
G01*
X3778100Y391200D01*
X3761240Y391200D01*
X3762460Y388660D01*
X3765140Y384739D01*
X3768360Y381260D01*
X3772080Y378300D01*
X3776180Y375920D01*
G37*
G36*
X3929260Y379460D02*
G01*
X3956560Y379460D01*
X3956560Y395439D01*
X3956280Y397920D01*
X3955539Y400040D01*
X3954340Y401940D01*
X3952740Y403540D01*
X3950820Y404739D01*
X3948700Y405500D01*
X3946220Y405760D01*
X3929260Y405760D01*
G37*
G36*
X3857620Y379460D02*
G01*
X3884900Y379460D01*
X3884900Y405760D01*
X3867940Y405760D01*
X3865480Y405500D01*
X3863340Y404739D01*
X3861440Y403540D01*
X3859840Y401940D01*
X3858639Y400040D01*
X3857900Y397920D01*
X3857620Y395439D01*
G37*
G36*
X2625000Y402920D02*
G01*
X2628840Y403260D01*
X2632559Y404240D01*
X2636040Y405880D01*
X2639200Y408080D01*
X2641920Y410800D01*
X2644120Y413960D01*
X2645760Y417440D01*
X2646740Y421160D01*
X2647080Y425000D01*
X2646740Y428840D01*
X2645760Y432560D01*
X2644120Y436040D01*
X2641820Y439340D01*
X2641280Y440420D01*
X2641100Y441620D01*
X2641100Y641680D01*
X2641400Y643199D01*
X2642280Y644500D01*
X2660500Y662720D01*
X2661800Y663600D01*
X2663320Y663900D01*
X2664740Y663900D01*
X2666180Y663620D01*
X2667440Y662840D01*
X2668320Y661660D01*
X2669420Y659460D01*
X2672400Y654980D01*
X2675940Y650939D01*
X2679980Y647400D01*
X2684460Y644419D01*
X2689280Y642039D01*
X2694360Y640300D01*
X2699640Y639260D01*
X2705000Y638900D01*
X2710360Y639260D01*
X2715640Y640300D01*
X2720720Y642039D01*
X2725539Y644419D01*
X2730020Y647400D01*
X2734060Y650939D01*
X2737600Y654980D01*
X2740580Y659460D01*
X2742960Y664280D01*
X2744700Y669360D01*
X2745740Y674640D01*
X2746100Y680000D01*
X2745740Y685360D01*
X2744700Y690639D01*
X2742960Y695720D01*
X2740580Y700540D01*
X2737600Y705020D01*
X2734060Y709060D01*
X2730020Y712600D01*
X2725539Y715580D01*
X2720720Y717960D01*
X2715640Y719700D01*
X2710360Y720740D01*
X2705000Y721100D01*
X2699640Y720740D01*
X2694360Y719700D01*
X2689280Y717960D01*
X2684460Y715580D01*
X2679980Y712600D01*
X2675940Y709060D01*
X2672400Y705020D01*
X2669420Y700540D01*
X2668320Y698340D01*
X2667440Y697159D01*
X2666180Y696380D01*
X2664740Y696100D01*
X2655200Y696100D01*
X2651860Y695780D01*
X2648840Y694860D01*
X2646060Y693379D01*
X2643480Y691240D01*
X2613759Y661520D01*
X2611620Y658940D01*
X2610140Y656160D01*
X2609220Y653139D01*
X2608900Y649800D01*
X2608900Y441620D01*
X2608720Y440420D01*
X2608180Y439340D01*
X2605880Y436040D01*
X2604240Y432560D01*
X2603260Y428840D01*
X2602919Y425000D01*
X2603260Y421160D01*
X2604240Y417440D01*
X2605880Y413960D01*
X2608080Y410800D01*
X2610800Y408080D01*
X2613960Y405880D01*
X2617440Y404240D01*
X2621160Y403260D01*
G37*
G36*
X3761240Y417860D02*
G01*
X3778100Y417860D01*
X3778100Y433880D01*
X3776180Y433120D01*
X3772080Y430760D01*
X3768360Y427800D01*
X3765140Y424320D01*
X3762460Y420400D01*
G37*
G36*
X3807720Y417860D02*
G01*
X3824580Y417860D01*
X3823360Y420400D01*
X3820680Y424320D01*
X3817460Y427800D01*
X3813740Y430760D01*
X3809640Y433120D01*
X3807720Y433880D01*
G37*
G36*
X2705000Y438900D02*
G01*
X2710360Y439260D01*
X2715640Y440300D01*
X2720720Y442040D01*
X2725539Y444420D01*
X2730020Y447400D01*
X2734060Y450940D01*
X2737600Y454980D01*
X2740580Y459460D01*
X2742960Y464280D01*
X2744700Y469360D01*
X2745740Y474640D01*
X2746100Y480000D01*
X2745740Y485360D01*
X2744700Y490640D01*
X2742960Y495720D01*
X2740580Y500540D01*
X2737600Y505020D01*
X2734060Y509060D01*
X2730020Y512600D01*
X2725539Y515580D01*
X2720720Y517960D01*
X2715640Y519700D01*
X2710360Y520740D01*
X2705000Y521100D01*
X2699640Y520740D01*
X2694360Y519700D01*
X2689280Y517960D01*
X2684460Y515580D01*
X2679980Y512600D01*
X2675940Y509060D01*
X2672400Y505020D01*
X2669420Y500540D01*
X2667040Y495720D01*
X2665299Y490640D01*
X2664260Y485360D01*
X2663900Y480000D01*
X2664260Y474640D01*
X2665299Y469360D01*
X2667040Y464280D01*
X2669420Y459460D01*
X2672400Y454980D01*
X2675940Y450940D01*
X2679980Y447400D01*
X2684460Y444420D01*
X2689280Y442040D01*
X2694360Y440300D01*
X2699640Y439260D01*
G37*
G36*
X2705000Y538900D02*
G01*
X2710360Y539260D01*
X2715640Y540300D01*
X2720720Y542040D01*
X2725539Y544420D01*
X2730020Y547400D01*
X2734060Y550940D01*
X2737600Y554980D01*
X2740580Y559460D01*
X2742960Y564280D01*
X2744700Y569360D01*
X2745740Y574640D01*
X2746100Y580000D01*
X2745740Y585360D01*
X2744700Y590640D01*
X2742960Y595720D01*
X2740580Y600540D01*
X2737600Y605020D01*
X2734060Y609060D01*
X2730020Y612600D01*
X2725539Y615580D01*
X2720720Y617960D01*
X2715640Y619700D01*
X2710360Y620740D01*
X2705000Y621100D01*
X2699640Y620740D01*
X2694360Y619700D01*
X2689280Y617960D01*
X2684460Y615580D01*
X2679980Y612600D01*
X2675940Y609060D01*
X2672400Y605020D01*
X2669420Y600540D01*
X2667040Y595720D01*
X2665299Y590640D01*
X2664260Y585360D01*
X2663900Y580000D01*
X2664260Y574640D01*
X2665299Y569360D01*
X2667040Y564280D01*
X2669420Y559460D01*
X2672400Y554980D01*
X2675940Y550940D01*
X2679980Y547400D01*
X2684460Y544420D01*
X2689280Y542040D01*
X2694360Y540300D01*
X2699640Y539260D01*
G37*
G36*
X354760Y550920D02*
G01*
X436980Y550920D01*
X439460Y551200D01*
X441580Y551940D01*
X443500Y553140D01*
X445080Y554740D01*
X446280Y556640D01*
X447040Y558780D01*
X447299Y561240D01*
X447299Y568480D01*
X447620Y570020D01*
X448480Y571300D01*
X449780Y572180D01*
X451300Y572480D01*
X698700Y572480D01*
X700220Y572180D01*
X701520Y571300D01*
X702380Y570020D01*
X702700Y568480D01*
X702700Y561240D01*
X702960Y558780D01*
X703720Y556640D01*
X704920Y554740D01*
X706520Y553140D01*
X708420Y551940D01*
X710540Y551200D01*
X713020Y550920D01*
X795240Y550920D01*
X797720Y551200D01*
X799840Y551940D01*
X801760Y553140D01*
X803340Y554740D01*
X804539Y556640D01*
X805300Y558780D01*
X805560Y561240D01*
X805560Y615920D01*
X805300Y618380D01*
X804539Y620520D01*
X803340Y622420D01*
X801760Y624020D01*
X799860Y625200D01*
X797180Y626120D01*
X795819Y626920D01*
X794860Y628200D01*
X794479Y629760D01*
X794740Y631320D01*
X795600Y632680D01*
X796919Y633580D01*
X798480Y633900D01*
X849400Y633900D01*
X850819Y633640D01*
X852080Y632880D01*
X852960Y631720D01*
X853379Y630320D01*
X852920Y625000D01*
X853259Y621160D01*
X854240Y617440D01*
X855879Y613960D01*
X858080Y610800D01*
X860800Y608080D01*
X863960Y605880D01*
X867440Y604240D01*
X871160Y603260D01*
X875000Y602920D01*
X878840Y603260D01*
X882560Y604240D01*
X886040Y605880D01*
X889200Y608080D01*
X891919Y610800D01*
X894120Y613960D01*
X895759Y617440D01*
X896740Y621160D01*
X897080Y625000D01*
X896620Y630320D01*
X897039Y631720D01*
X897920Y632880D01*
X899180Y633640D01*
X900600Y633900D01*
X2149800Y633900D01*
X2153140Y634220D01*
X2156160Y635140D01*
X2158940Y636620D01*
X2161520Y638760D01*
X2199720Y676960D01*
X2200860Y677740D01*
X2202200Y678100D01*
X2203840Y678259D01*
X2207560Y679240D01*
X2211040Y680879D01*
X2214200Y683080D01*
X2216920Y685800D01*
X2219120Y688960D01*
X2220760Y692440D01*
X2221740Y696160D01*
X2222080Y700000D01*
X2221740Y703840D01*
X2220760Y707560D01*
X2219120Y711040D01*
X2216920Y714200D01*
X2214200Y716919D01*
X2211040Y719120D01*
X2207560Y720759D01*
X2202360Y722159D01*
X2201180Y723080D01*
X2200400Y724360D01*
X2200160Y725860D01*
X2200480Y727320D01*
X2201340Y728560D01*
X2205840Y733060D01*
X2207140Y733940D01*
X2208700Y734240D01*
X2233220Y734040D01*
X2234420Y733840D01*
X2235500Y733300D01*
X2238960Y730879D01*
X2242440Y729240D01*
X2246160Y728259D01*
X2250000Y727920D01*
X2253840Y728259D01*
X2257560Y729240D01*
X2261040Y730879D01*
X2264200Y733080D01*
X2266920Y735800D01*
X2269120Y738960D01*
X2270760Y742440D01*
X2271740Y746160D01*
X2272080Y750000D01*
X2271740Y753840D01*
X2270760Y757560D01*
X2269120Y761040D01*
X2266920Y764200D01*
X2264200Y766919D01*
X2261040Y769120D01*
X2257560Y770759D01*
X2253840Y771740D01*
X2250000Y772080D01*
X2246160Y771740D01*
X2242440Y770759D01*
X2238960Y769120D01*
X2235860Y766960D01*
X2234760Y766420D01*
X2233540Y766240D01*
X2200720Y766500D01*
X2197400Y766200D01*
X2194360Y765300D01*
X2191580Y763840D01*
X2188880Y761640D01*
X2119500Y692280D01*
X2118200Y691400D01*
X2116680Y691100D01*
X2098520Y691100D01*
X2097000Y691400D01*
X2095700Y692280D01*
X2094840Y693560D01*
X2094520Y695100D01*
X2094840Y696640D01*
X2095700Y697920D01*
X2199720Y801960D01*
X2200860Y802740D01*
X2202200Y803100D01*
X2203840Y803259D01*
X2207560Y804240D01*
X2211040Y805879D01*
X2214200Y808080D01*
X2216920Y810800D01*
X2219120Y813960D01*
X2220760Y817440D01*
X2221740Y821160D01*
X2222080Y825000D01*
X2221740Y828840D01*
X2220760Y832560D01*
X2219120Y836040D01*
X2216920Y839200D01*
X2214200Y841919D01*
X2211040Y844120D01*
X2207560Y845759D01*
X2203840Y846740D01*
X2200000Y847080D01*
X2196160Y846740D01*
X2192440Y845759D01*
X2188960Y844120D01*
X2185800Y841919D01*
X2183080Y839200D01*
X2180880Y836040D01*
X2179240Y832560D01*
X2178260Y828840D01*
X2178100Y827200D01*
X2177740Y825860D01*
X2176960Y824720D01*
X2069500Y717280D01*
X2068200Y716400D01*
X2066680Y716100D01*
X1233320Y716100D01*
X1231800Y716400D01*
X1230500Y717280D01*
X1125120Y822640D01*
X1122540Y824780D01*
X1119760Y826260D01*
X1116740Y827180D01*
X1113400Y827500D01*
X1109560Y827500D01*
X1108040Y827800D01*
X1106740Y828680D01*
X1105880Y829960D01*
X1105560Y831500D01*
X1105560Y838760D01*
X1105300Y841220D01*
X1104540Y843360D01*
X1103340Y845260D01*
X1101760Y846860D01*
X1099840Y848060D01*
X1097720Y848800D01*
X1095240Y849080D01*
X1013020Y849080D01*
X1010540Y848800D01*
X1008420Y848060D01*
X1006520Y846860D01*
X1004920Y845260D01*
X1003720Y843360D01*
X1002960Y841220D01*
X1002700Y838760D01*
X1002700Y831520D01*
X1002380Y829980D01*
X1001520Y828700D01*
X1000220Y827820D01*
X998700Y827520D01*
X751300Y827520D01*
X749780Y827820D01*
X748480Y828700D01*
X747620Y829980D01*
X747300Y831520D01*
X747300Y838760D01*
X747039Y841220D01*
X746280Y843360D01*
X745080Y845260D01*
X743500Y846860D01*
X741580Y848060D01*
X739460Y848800D01*
X736979Y849080D01*
X654760Y849080D01*
X652280Y848800D01*
X650160Y848060D01*
X648259Y846860D01*
X646660Y845260D01*
X645460Y843360D01*
X644700Y841220D01*
X644440Y838760D01*
X644440Y784080D01*
X644700Y781620D01*
X645460Y779479D01*
X646660Y777580D01*
X648259Y775980D01*
X650160Y774780D01*
X652280Y774040D01*
X654760Y773760D01*
X736979Y773760D01*
X739460Y774040D01*
X741580Y774780D01*
X743500Y775980D01*
X745080Y777580D01*
X746280Y779479D01*
X747039Y781620D01*
X747300Y784080D01*
X747300Y791320D01*
X747620Y792860D01*
X748480Y794140D01*
X749780Y795020D01*
X751300Y795320D01*
X998700Y795320D01*
X1000220Y795020D01*
X1001520Y794140D01*
X1002380Y792860D01*
X1002700Y791320D01*
X1002700Y784080D01*
X1002960Y781620D01*
X1003720Y779479D01*
X1004920Y777580D01*
X1006520Y775980D01*
X1008420Y774780D01*
X1010540Y774040D01*
X1013020Y773760D01*
X1095240Y773760D01*
X1097720Y774040D01*
X1099840Y774780D01*
X1101760Y775980D01*
X1103340Y777580D01*
X1104540Y779479D01*
X1105300Y781620D01*
X1105560Y784080D01*
X1105560Y787000D01*
X1105880Y788540D01*
X1106740Y789840D01*
X1108040Y790699D01*
X1109560Y791000D01*
X1111100Y790699D01*
X1112400Y789840D01*
X1204300Y697920D01*
X1205160Y696640D01*
X1205480Y695100D01*
X1205160Y693560D01*
X1204300Y692280D01*
X1203000Y691400D01*
X1201480Y691100D01*
X708319Y691100D01*
X706800Y691400D01*
X705500Y692280D01*
X617280Y780500D01*
X616400Y781800D01*
X616100Y783319D01*
X616100Y1166040D01*
X616440Y1167660D01*
X616940Y1168780D01*
X617780Y1170000D01*
X641900Y1194120D01*
X643199Y1195000D01*
X644720Y1195300D01*
X698700Y1195300D01*
X700220Y1195000D01*
X701520Y1194120D01*
X702380Y1192840D01*
X702700Y1191300D01*
X702700Y1184080D01*
X702960Y1181620D01*
X703720Y1179480D01*
X704920Y1177580D01*
X706520Y1175980D01*
X708420Y1174780D01*
X710540Y1174040D01*
X713020Y1173760D01*
X795240Y1173760D01*
X797720Y1174040D01*
X799840Y1174780D01*
X801760Y1175980D01*
X803340Y1177580D01*
X804539Y1179480D01*
X805300Y1181620D01*
X805560Y1184080D01*
X805560Y1238760D01*
X805300Y1241220D01*
X804539Y1243360D01*
X803340Y1245260D01*
X801760Y1246860D01*
X799840Y1248060D01*
X797720Y1248800D01*
X795240Y1249080D01*
X713020Y1249080D01*
X710540Y1248800D01*
X708420Y1248060D01*
X706520Y1246860D01*
X704920Y1245260D01*
X703720Y1243360D01*
X702960Y1241220D01*
X702700Y1238760D01*
X702700Y1231500D01*
X702380Y1229960D01*
X701520Y1228680D01*
X700220Y1227800D01*
X698700Y1227500D01*
X636600Y1227500D01*
X633260Y1227180D01*
X630240Y1226260D01*
X627460Y1224780D01*
X624880Y1222640D01*
X604240Y1202020D01*
X602940Y1201140D01*
X601420Y1200840D01*
X599880Y1201140D01*
X598580Y1202020D01*
X575880Y1224700D01*
X573100Y1226800D01*
X570120Y1228280D01*
X566900Y1229200D01*
X563400Y1229520D01*
X451300Y1229520D01*
X449780Y1229820D01*
X448480Y1230700D01*
X447620Y1231980D01*
X447299Y1233520D01*
X447299Y1238760D01*
X447040Y1241220D01*
X446280Y1243360D01*
X445080Y1245260D01*
X443500Y1246860D01*
X441580Y1248060D01*
X439460Y1248800D01*
X436980Y1249080D01*
X354760Y1249080D01*
X352280Y1248800D01*
X350160Y1248060D01*
X348260Y1246860D01*
X346659Y1245260D01*
X345460Y1243360D01*
X344700Y1241220D01*
X344440Y1238760D01*
X344440Y1184080D01*
X344700Y1181620D01*
X345460Y1179480D01*
X346659Y1177580D01*
X348260Y1175980D01*
X350160Y1174780D01*
X352280Y1174040D01*
X354760Y1173760D01*
X436980Y1173760D01*
X439460Y1174040D01*
X441580Y1174780D01*
X443500Y1175980D01*
X445080Y1177580D01*
X446280Y1179480D01*
X447040Y1181620D01*
X447299Y1184080D01*
X447299Y1189320D01*
X447620Y1190860D01*
X448480Y1192140D01*
X449780Y1193020D01*
X451300Y1193320D01*
X554420Y1193320D01*
X555960Y1193020D01*
X557260Y1192140D01*
X582720Y1166680D01*
X583600Y1165380D01*
X583900Y1163840D01*
X583900Y775200D01*
X584220Y771860D01*
X585140Y768840D01*
X586620Y766060D01*
X588760Y763480D01*
X679300Y672920D01*
X680160Y671640D01*
X680480Y670100D01*
X680160Y668560D01*
X679300Y667280D01*
X678000Y666400D01*
X676480Y666100D01*
X633320Y666100D01*
X631800Y666400D01*
X630500Y667280D01*
X506740Y791020D01*
X505880Y792320D01*
X505560Y793860D01*
X505560Y838760D01*
X505300Y841220D01*
X504540Y843360D01*
X503340Y845260D01*
X501760Y846860D01*
X499840Y848060D01*
X497720Y848800D01*
X495240Y849080D01*
X413020Y849080D01*
X410540Y848800D01*
X408420Y848060D01*
X406520Y846860D01*
X404920Y845260D01*
X403720Y843360D01*
X402960Y841220D01*
X402700Y838760D01*
X402700Y831520D01*
X402380Y829980D01*
X401520Y828700D01*
X400220Y827820D01*
X398700Y827520D01*
X151300Y827520D01*
X149780Y827820D01*
X148480Y828700D01*
X147620Y829980D01*
X147300Y831520D01*
X147300Y838760D01*
X147040Y841220D01*
X146280Y843360D01*
X145080Y845260D01*
X143500Y846860D01*
X141580Y848060D01*
X139460Y848800D01*
X136980Y849080D01*
X54760Y849080D01*
X52280Y848800D01*
X50160Y848060D01*
X48259Y846860D01*
X46660Y845260D01*
X45460Y843360D01*
X44700Y841220D01*
X44440Y838760D01*
X44440Y784080D01*
X44700Y781620D01*
X45460Y779479D01*
X46660Y777580D01*
X48259Y775980D01*
X50160Y774780D01*
X52280Y774040D01*
X54760Y773760D01*
X136980Y773760D01*
X139460Y774040D01*
X141580Y774780D01*
X143500Y775980D01*
X145080Y777580D01*
X146280Y779479D01*
X147040Y781620D01*
X147300Y784080D01*
X147300Y791320D01*
X147620Y792860D01*
X148480Y794140D01*
X149780Y795020D01*
X151300Y795320D01*
X398700Y795320D01*
X400220Y795020D01*
X401520Y794140D01*
X402380Y792860D01*
X402700Y791320D01*
X402700Y784080D01*
X402960Y781620D01*
X403720Y779479D01*
X404920Y777580D01*
X406520Y775980D01*
X408420Y774780D01*
X410540Y774040D01*
X413020Y773760D01*
X476820Y773760D01*
X478340Y773460D01*
X479640Y772580D01*
X613480Y638760D01*
X616060Y636620D01*
X618840Y635140D01*
X621860Y634220D01*
X625200Y633900D01*
X709780Y633900D01*
X711340Y633580D01*
X712660Y632680D01*
X713520Y631320D01*
X713780Y629760D01*
X713400Y628200D01*
X712440Y626920D01*
X711080Y626120D01*
X708400Y625200D01*
X706520Y624020D01*
X704920Y622420D01*
X703720Y620520D01*
X702960Y618380D01*
X702700Y615920D01*
X702700Y608680D01*
X702380Y607140D01*
X701520Y605860D01*
X700220Y604980D01*
X698700Y604680D01*
X451300Y604680D01*
X449780Y604980D01*
X448480Y605860D01*
X447620Y607140D01*
X447299Y608680D01*
X447299Y615920D01*
X447040Y618380D01*
X446280Y620520D01*
X445080Y622420D01*
X443500Y624020D01*
X441580Y625220D01*
X439460Y625960D01*
X436980Y626240D01*
X373180Y626240D01*
X371659Y626540D01*
X370360Y627420D01*
X367280Y630500D01*
X366480Y631620D01*
X366120Y632960D01*
X366240Y634340D01*
X366800Y635600D01*
X369120Y638940D01*
X370760Y642440D01*
X371740Y646160D01*
X372080Y650000D01*
X371740Y653840D01*
X370760Y657560D01*
X369120Y661040D01*
X366920Y664200D01*
X364200Y666919D01*
X361040Y669120D01*
X357560Y670759D01*
X353840Y671740D01*
X350000Y672080D01*
X346160Y671740D01*
X342440Y670759D01*
X338960Y669120D01*
X335800Y666919D01*
X333080Y664200D01*
X330880Y661040D01*
X329240Y657560D01*
X328260Y653840D01*
X327920Y650000D01*
X328260Y646160D01*
X329240Y642440D01*
X330880Y638960D01*
X333180Y635660D01*
X333720Y634580D01*
X333900Y633380D01*
X333900Y625200D01*
X334219Y621860D01*
X335140Y618840D01*
X336620Y616060D01*
X338760Y613480D01*
X343260Y608980D01*
X344120Y607680D01*
X344440Y606140D01*
X344440Y561240D01*
X344700Y558780D01*
X345460Y556640D01*
X346659Y554740D01*
X348260Y553140D01*
X350160Y551940D01*
X352280Y551200D01*
G37*
G36*
X3778100Y566120D02*
G01*
X3778100Y582140D01*
X3761240Y582140D01*
X3762460Y579600D01*
X3765140Y575680D01*
X3768360Y572200D01*
X3772080Y569240D01*
X3776180Y566880D01*
G37*
G36*
X3807720Y566120D02*
G01*
X3809640Y566880D01*
X3813740Y569240D01*
X3817460Y572200D01*
X3820680Y575680D01*
X3823360Y579600D01*
X3824580Y582140D01*
X3807720Y582140D01*
G37*
G36*
X3929260Y594220D02*
G01*
X3946220Y594220D01*
X3948700Y594500D01*
X3950820Y595260D01*
X3952740Y596460D01*
X3954340Y598040D01*
X3955539Y599960D01*
X3956280Y602080D01*
X3956560Y604560D01*
X3956560Y620540D01*
X3929260Y620540D01*
G37*
G36*
X3867940Y594220D02*
G01*
X3884900Y594220D01*
X3884900Y620540D01*
X3857620Y620540D01*
X3857620Y604560D01*
X3857900Y602080D01*
X3858639Y599960D01*
X3859840Y598040D01*
X3861440Y596460D01*
X3863340Y595260D01*
X3865480Y594500D01*
G37*
G36*
X3761240Y608800D02*
G01*
X3778100Y608800D01*
X3778100Y624820D01*
X3776180Y624060D01*
X3772080Y621700D01*
X3768360Y618740D01*
X3765140Y615260D01*
X3762460Y611340D01*
G37*
G36*
X3807720Y608800D02*
G01*
X3824580Y608800D01*
X3823360Y611340D01*
X3820680Y615260D01*
X3817460Y618740D01*
X3813740Y621700D01*
X3809640Y624060D01*
X3807720Y624820D01*
G37*
G36*
X3857620Y662940D02*
G01*
X3884900Y662940D01*
X3884900Y689240D01*
X3867940Y689240D01*
X3865480Y688960D01*
X3863340Y688199D01*
X3861440Y687000D01*
X3859840Y685420D01*
X3858639Y683500D01*
X3857900Y681380D01*
X3857620Y678900D01*
G37*
G36*
X3929260Y662940D02*
G01*
X3956560Y662940D01*
X3956560Y678900D01*
X3956280Y681380D01*
X3955539Y683500D01*
X3954340Y685420D01*
X3952740Y687000D01*
X3950820Y688199D01*
X3948700Y688960D01*
X3946220Y689240D01*
X3929260Y689240D01*
G37*
G36*
X3700000Y677920D02*
G01*
X3703840Y678259D01*
X3707559Y679240D01*
X3711040Y680879D01*
X3714200Y683080D01*
X3716920Y685800D01*
X3719120Y688960D01*
X3720760Y692440D01*
X3721740Y696160D01*
X3722080Y700000D01*
X3721740Y703840D01*
X3720760Y707560D01*
X3719120Y711040D01*
X3716920Y714200D01*
X3714200Y716919D01*
X3711040Y719120D01*
X3707559Y720759D01*
X3703840Y721740D01*
X3700000Y722080D01*
X3696160Y721740D01*
X3692440Y720759D01*
X3688960Y719120D01*
X3685659Y716820D01*
X3684580Y716280D01*
X3683380Y716100D01*
X3383320Y716100D01*
X3381800Y716400D01*
X3380500Y717280D01*
X3348039Y749720D01*
X3347260Y750860D01*
X3346900Y752200D01*
X3346740Y753840D01*
X3345760Y757560D01*
X3344120Y761040D01*
X3341920Y764200D01*
X3339200Y766919D01*
X3336040Y769120D01*
X3332559Y770759D01*
X3328840Y771740D01*
X3325000Y772080D01*
X3321160Y771740D01*
X3317440Y770759D01*
X3313960Y769120D01*
X3310800Y766919D01*
X3308080Y764200D01*
X3305880Y761040D01*
X3304240Y757560D01*
X3303260Y753840D01*
X3302919Y750000D01*
X3303260Y746160D01*
X3304240Y742440D01*
X3305880Y738960D01*
X3308080Y735800D01*
X3310800Y733080D01*
X3313960Y730879D01*
X3317440Y729240D01*
X3321160Y728259D01*
X3322799Y728100D01*
X3324140Y727740D01*
X3325280Y726960D01*
X3363480Y688760D01*
X3366060Y686620D01*
X3368840Y685140D01*
X3371860Y684220D01*
X3375200Y683900D01*
X3683380Y683900D01*
X3684580Y683720D01*
X3685659Y683180D01*
X3688960Y680879D01*
X3692440Y679240D01*
X3696160Y678259D01*
G37*
G36*
X2400000Y683220D02*
G01*
X2403840Y683560D01*
X2407560Y684560D01*
X2411040Y686180D01*
X2414340Y688480D01*
X2415420Y689020D01*
X2416620Y689200D01*
X2455120Y689200D01*
X2458440Y689539D01*
X2461460Y690460D01*
X2464240Y691940D01*
X2466840Y694060D01*
X2635500Y862720D01*
X2636800Y863600D01*
X2638320Y863900D01*
X2664740Y863900D01*
X2666180Y863620D01*
X2667440Y862840D01*
X2668320Y861660D01*
X2669420Y859460D01*
X2672400Y854980D01*
X2675940Y850939D01*
X2679980Y847400D01*
X2684460Y844419D01*
X2689280Y842039D01*
X2694360Y840300D01*
X2699640Y839260D01*
X2705000Y838900D01*
X2710360Y839260D01*
X2715640Y840300D01*
X2720720Y842039D01*
X2725539Y844419D01*
X2730020Y847400D01*
X2734060Y850939D01*
X2737600Y854980D01*
X2740580Y859460D01*
X2742960Y864280D01*
X2744700Y869360D01*
X2745740Y874640D01*
X2746100Y880000D01*
X2745740Y885360D01*
X2744700Y890639D01*
X2742960Y895720D01*
X2740580Y900540D01*
X2737600Y905020D01*
X2734060Y909060D01*
X2730020Y912600D01*
X2725539Y915580D01*
X2720720Y917960D01*
X2715640Y919700D01*
X2710360Y920740D01*
X2705000Y921100D01*
X2699640Y920740D01*
X2694360Y919700D01*
X2689280Y917960D01*
X2684460Y915580D01*
X2679980Y912600D01*
X2675940Y909060D01*
X2672400Y905020D01*
X2669420Y900540D01*
X2668320Y898340D01*
X2667440Y897159D01*
X2666180Y896380D01*
X2664740Y896100D01*
X2630200Y896100D01*
X2626860Y895780D01*
X2623840Y894860D01*
X2621060Y893379D01*
X2618480Y891240D01*
X2449820Y722580D01*
X2448520Y721720D01*
X2446980Y721400D01*
X2416620Y721400D01*
X2415420Y721600D01*
X2414340Y722140D01*
X2411040Y724440D01*
X2407560Y726060D01*
X2403840Y727060D01*
X2400000Y727400D01*
X2396160Y727060D01*
X2392440Y726060D01*
X2388960Y724440D01*
X2385800Y722220D01*
X2383080Y719500D01*
X2380880Y716360D01*
X2379240Y712860D01*
X2378260Y709140D01*
X2377920Y705300D01*
X2378260Y701480D01*
X2379240Y697760D01*
X2380880Y694260D01*
X2383080Y691120D01*
X2385800Y688400D01*
X2388960Y686180D01*
X2392440Y684560D01*
X2396160Y683560D01*
G37*
G36*
X3375000Y877920D02*
G01*
X3378840Y878259D01*
X3382559Y879240D01*
X3386040Y880879D01*
X3387559Y881720D01*
X3388759Y881900D01*
X3825700Y881919D01*
X3829140Y882400D01*
X3832300Y883460D01*
X3835220Y885080D01*
X3837919Y887340D01*
X3888279Y937700D01*
X3890380Y940480D01*
X3891860Y943460D01*
X3892780Y946680D01*
X3893100Y950180D01*
X3893080Y1475700D01*
X3892600Y1479139D01*
X3891540Y1482300D01*
X3889920Y1485220D01*
X3887660Y1487920D01*
X3862300Y1513280D01*
X3859520Y1515380D01*
X3856540Y1516860D01*
X3853320Y1517780D01*
X3849820Y1518100D01*
X3434160Y1518100D01*
X3432620Y1518400D01*
X3431320Y1519280D01*
X3397500Y1553100D01*
X3396860Y1553920D01*
X3396460Y1554880D01*
X3395760Y1557560D01*
X3394120Y1561040D01*
X3391920Y1564199D01*
X3389200Y1566920D01*
X3386040Y1569120D01*
X3382559Y1570760D01*
X3378840Y1571740D01*
X3375000Y1572080D01*
X3371160Y1571740D01*
X3367440Y1570760D01*
X3363960Y1569120D01*
X3360800Y1566920D01*
X3358080Y1564199D01*
X3355880Y1561040D01*
X3354240Y1557560D01*
X3353260Y1553839D01*
X3352919Y1550000D01*
X3353260Y1546160D01*
X3354240Y1542440D01*
X3355880Y1538959D01*
X3358080Y1535800D01*
X3360800Y1533080D01*
X3363960Y1530880D01*
X3367440Y1529240D01*
X3370120Y1528540D01*
X3371080Y1528140D01*
X3371900Y1527500D01*
X3412700Y1486720D01*
X3415480Y1484620D01*
X3418460Y1483140D01*
X3421680Y1482220D01*
X3425179Y1481900D01*
X3840840Y1481900D01*
X3842380Y1481600D01*
X3843680Y1480720D01*
X3855720Y1468680D01*
X3856600Y1467380D01*
X3856900Y1465840D01*
X3856900Y959160D01*
X3856600Y957620D01*
X3855720Y956320D01*
X3818680Y919280D01*
X3817380Y918400D01*
X3815840Y918100D01*
X3388759Y918100D01*
X3387559Y918280D01*
X3386040Y919120D01*
X3382559Y920759D01*
X3378840Y921740D01*
X3375000Y922080D01*
X3371160Y921740D01*
X3367440Y920759D01*
X3363960Y919120D01*
X3360800Y916919D01*
X3358080Y914200D01*
X3355880Y911040D01*
X3354240Y907560D01*
X3353260Y903840D01*
X3352919Y900000D01*
X3353260Y896160D01*
X3354240Y892440D01*
X3355880Y888960D01*
X3358080Y885800D01*
X3360800Y883080D01*
X3363960Y880879D01*
X3367440Y879240D01*
X3371160Y878259D01*
G37*
G36*
X2025000Y877920D02*
G01*
X2028839Y878259D01*
X2032560Y879240D01*
X2036040Y880879D01*
X2039199Y883080D01*
X2041920Y885800D01*
X2044120Y888960D01*
X2045760Y892440D01*
X2046740Y896160D01*
X2046900Y897800D01*
X2047260Y899140D01*
X2048040Y900280D01*
X2055500Y907720D01*
X2056800Y908600D01*
X2058320Y908900D01*
X2449800Y908900D01*
X2453140Y909220D01*
X2456160Y910140D01*
X2458940Y911620D01*
X2461520Y913760D01*
X2657080Y1109300D01*
X2658360Y1110160D01*
X2659900Y1110480D01*
X2661440Y1110160D01*
X2662720Y1109300D01*
X2663600Y1108000D01*
X2663900Y1106480D01*
X2663900Y1098000D01*
X2687000Y1098000D01*
X2687000Y1121100D01*
X2678519Y1121100D01*
X2677000Y1121400D01*
X2675700Y1122280D01*
X2674840Y1123560D01*
X2674520Y1125100D01*
X2674840Y1126640D01*
X2675700Y1127920D01*
X2980500Y1432720D01*
X2981800Y1433600D01*
X2983320Y1433899D01*
X3249800Y1433899D01*
X3253140Y1434220D01*
X3256160Y1435140D01*
X3258940Y1436620D01*
X3261520Y1438760D01*
X3286240Y1463480D01*
X3288380Y1466060D01*
X3289860Y1468839D01*
X3290779Y1471860D01*
X3291100Y1475200D01*
X3291100Y1533380D01*
X3291280Y1534580D01*
X3291820Y1535660D01*
X3294120Y1538959D01*
X3295760Y1542440D01*
X3296740Y1546160D01*
X3297080Y1550000D01*
X3296740Y1553839D01*
X3295760Y1557560D01*
X3294120Y1561040D01*
X3291920Y1564199D01*
X3289200Y1566920D01*
X3286040Y1569120D01*
X3282559Y1570760D01*
X3278840Y1571740D01*
X3275000Y1572080D01*
X3271160Y1571740D01*
X3267440Y1570760D01*
X3263960Y1569120D01*
X3260800Y1566920D01*
X3258080Y1564199D01*
X3255880Y1561040D01*
X3254240Y1557560D01*
X3253860Y1556120D01*
X3253060Y1554580D01*
X3251700Y1553540D01*
X3250000Y1553160D01*
X3248300Y1553540D01*
X3246940Y1554580D01*
X3246139Y1556120D01*
X3245760Y1557560D01*
X3244120Y1561040D01*
X3241920Y1564199D01*
X3239200Y1566920D01*
X3236040Y1569120D01*
X3232559Y1570760D01*
X3228840Y1571740D01*
X3225000Y1572080D01*
X3221160Y1571740D01*
X3217440Y1570760D01*
X3213960Y1569120D01*
X3210800Y1566920D01*
X3208080Y1564199D01*
X3205880Y1561040D01*
X3204240Y1557560D01*
X3203260Y1553839D01*
X3203100Y1552200D01*
X3202740Y1550860D01*
X3201960Y1549720D01*
X3169500Y1517280D01*
X3168200Y1516399D01*
X3166680Y1516100D01*
X2975200Y1516100D01*
X2971860Y1515780D01*
X2968840Y1514860D01*
X2966060Y1513380D01*
X2963480Y1511240D01*
X2569500Y1117280D01*
X2568380Y1116480D01*
X2567040Y1116120D01*
X2565659Y1116240D01*
X2564400Y1116800D01*
X2561060Y1119120D01*
X2557560Y1120760D01*
X2553840Y1121740D01*
X2550000Y1122080D01*
X2546160Y1121740D01*
X2542440Y1120760D01*
X2538960Y1119120D01*
X2535800Y1116920D01*
X2533080Y1114200D01*
X2530880Y1111040D01*
X2529240Y1107560D01*
X2528260Y1103840D01*
X2527920Y1100000D01*
X2528260Y1096160D01*
X2529240Y1092440D01*
X2530880Y1088960D01*
X2533080Y1085800D01*
X2535800Y1083080D01*
X2538960Y1080880D01*
X2542440Y1079240D01*
X2546160Y1078260D01*
X2550000Y1077920D01*
X2553840Y1078260D01*
X2557560Y1079240D01*
X2561040Y1080880D01*
X2564340Y1083180D01*
X2565419Y1083720D01*
X2566620Y1083900D01*
X2574800Y1083900D01*
X2576240Y1084040D01*
X2577860Y1083860D01*
X2579280Y1083060D01*
X2580260Y1081780D01*
X2580640Y1080200D01*
X2580360Y1078600D01*
X2579460Y1077240D01*
X2453560Y951340D01*
X2452320Y950480D01*
X2450860Y950160D01*
X2449360Y950400D01*
X2448080Y951180D01*
X2447160Y952360D01*
X2445760Y957560D01*
X2444120Y961040D01*
X2441920Y964200D01*
X2439200Y966919D01*
X2436040Y969120D01*
X2432560Y970759D01*
X2428840Y971740D01*
X2425000Y972080D01*
X2421160Y971740D01*
X2417440Y970759D01*
X2413960Y969120D01*
X2410660Y966820D01*
X2409580Y966280D01*
X2408380Y966100D01*
X1458320Y966100D01*
X1456800Y966400D01*
X1455500Y967280D01*
X1423040Y999720D01*
X1422260Y1000860D01*
X1421900Y1002200D01*
X1421740Y1003840D01*
X1420760Y1007560D01*
X1419120Y1011040D01*
X1416920Y1014200D01*
X1414199Y1016919D01*
X1411040Y1019120D01*
X1407560Y1020759D01*
X1403839Y1021740D01*
X1400000Y1022080D01*
X1396160Y1021740D01*
X1392440Y1020759D01*
X1388959Y1019120D01*
X1385800Y1016919D01*
X1383080Y1014200D01*
X1380880Y1011040D01*
X1379240Y1007560D01*
X1378260Y1003840D01*
X1377920Y1000000D01*
X1378260Y996160D01*
X1379240Y992440D01*
X1380880Y988960D01*
X1383080Y985800D01*
X1385800Y983080D01*
X1388959Y980879D01*
X1392440Y979240D01*
X1396160Y978259D01*
X1397800Y978100D01*
X1399139Y977740D01*
X1400280Y976960D01*
X1438480Y938760D01*
X1441060Y936620D01*
X1443839Y935140D01*
X1446860Y934220D01*
X1450200Y933900D01*
X2026480Y933900D01*
X2028000Y933600D01*
X2029300Y932720D01*
X2030160Y931440D01*
X2030480Y929900D01*
X2030160Y928360D01*
X2029300Y927080D01*
X2025280Y923040D01*
X2024139Y922260D01*
X2022800Y921900D01*
X2021160Y921740D01*
X2017440Y920759D01*
X2013959Y919120D01*
X2010800Y916919D01*
X2008080Y914200D01*
X2005880Y911040D01*
X2004240Y907560D01*
X2003260Y903840D01*
X2002920Y900000D01*
X2003260Y896160D01*
X2004240Y892440D01*
X2005880Y888960D01*
X2008080Y885800D01*
X2010800Y883080D01*
X2013959Y880879D01*
X2017440Y879240D01*
X2021160Y878259D01*
G37*
G36*
X1325000Y927920D02*
G01*
X1328839Y928259D01*
X1332560Y929240D01*
X1336040Y930879D01*
X1339199Y933080D01*
X1341920Y935800D01*
X1344120Y938960D01*
X1345760Y942440D01*
X1346740Y946160D01*
X1347080Y950000D01*
X1346740Y953840D01*
X1345760Y957560D01*
X1344120Y961040D01*
X1341819Y964340D01*
X1341279Y965420D01*
X1341100Y966620D01*
X1341100Y1091680D01*
X1341399Y1093200D01*
X1342280Y1094500D01*
X1355500Y1107720D01*
X1356800Y1108600D01*
X1358320Y1108900D01*
X2033380Y1108900D01*
X2034580Y1108720D01*
X2035660Y1108180D01*
X2038959Y1105880D01*
X2042440Y1104240D01*
X2046160Y1103260D01*
X2050000Y1102920D01*
X2053839Y1103260D01*
X2057560Y1104240D01*
X2061040Y1105880D01*
X2064199Y1108080D01*
X2066920Y1110800D01*
X2069120Y1113960D01*
X2070760Y1117440D01*
X2071740Y1121160D01*
X2072080Y1125000D01*
X2071740Y1128840D01*
X2070760Y1132560D01*
X2069120Y1136040D01*
X2066920Y1139200D01*
X2064199Y1141920D01*
X2061040Y1144120D01*
X2057560Y1145760D01*
X2053839Y1146740D01*
X2050000Y1147080D01*
X2046160Y1146740D01*
X2042440Y1145760D01*
X2038959Y1144120D01*
X2035660Y1141820D01*
X2034580Y1141280D01*
X2033380Y1141100D01*
X1350200Y1141100D01*
X1346860Y1140780D01*
X1343839Y1139860D01*
X1341060Y1138380D01*
X1338480Y1136240D01*
X1313760Y1111520D01*
X1311620Y1108940D01*
X1310140Y1106160D01*
X1309220Y1103140D01*
X1308899Y1099800D01*
X1308899Y966620D01*
X1308720Y965420D01*
X1308180Y964340D01*
X1305880Y961040D01*
X1304240Y957560D01*
X1303260Y953840D01*
X1302920Y950000D01*
X1303260Y946160D01*
X1304240Y942440D01*
X1305880Y938960D01*
X1308080Y935800D01*
X1310800Y933080D01*
X1313959Y930879D01*
X1317440Y929240D01*
X1321160Y928259D01*
G37*
G36*
X2705000Y938900D02*
G01*
X2710360Y939260D01*
X2715640Y940300D01*
X2720720Y942039D01*
X2725539Y944419D01*
X2730020Y947400D01*
X2734060Y950939D01*
X2737600Y954980D01*
X2740580Y959460D01*
X2742960Y964280D01*
X2744700Y969360D01*
X2745740Y974640D01*
X2746100Y980000D01*
X2745740Y985360D01*
X2744700Y990639D01*
X2742960Y995720D01*
X2740580Y1000540D01*
X2737600Y1005020D01*
X2734060Y1009060D01*
X2730020Y1012600D01*
X2725539Y1015580D01*
X2720720Y1017960D01*
X2715640Y1019700D01*
X2710360Y1020740D01*
X2705000Y1021100D01*
X2699640Y1020740D01*
X2694360Y1019700D01*
X2689280Y1017960D01*
X2684460Y1015580D01*
X2679980Y1012600D01*
X2675940Y1009060D01*
X2672400Y1005020D01*
X2669420Y1000540D01*
X2667040Y995720D01*
X2665299Y990639D01*
X2664260Y985360D01*
X2663900Y980000D01*
X2664260Y974640D01*
X2665299Y969360D01*
X2667040Y964280D01*
X2669420Y959460D01*
X2672400Y954980D01*
X2675940Y950939D01*
X2679980Y947400D01*
X2684460Y944419D01*
X2689280Y942039D01*
X2694360Y940300D01*
X2699640Y939260D01*
G37*
G36*
X654760Y950920D02*
G01*
X736979Y950920D01*
X739460Y951200D01*
X741580Y951940D01*
X743500Y953139D01*
X745080Y954740D01*
X746280Y956640D01*
X747039Y958780D01*
X747300Y961240D01*
X747300Y968480D01*
X747620Y970020D01*
X748480Y971300D01*
X749780Y972180D01*
X751300Y972480D01*
X998700Y972480D01*
X1000220Y972180D01*
X1001520Y971300D01*
X1002380Y970020D01*
X1002700Y968480D01*
X1002700Y961240D01*
X1002960Y958780D01*
X1003720Y956640D01*
X1004920Y954740D01*
X1006520Y953139D01*
X1008420Y951940D01*
X1010540Y951200D01*
X1013020Y950920D01*
X1095240Y950920D01*
X1097720Y951200D01*
X1099840Y951940D01*
X1101760Y953139D01*
X1103340Y954740D01*
X1104540Y956640D01*
X1105300Y958780D01*
X1105560Y961240D01*
X1105560Y1015920D01*
X1105300Y1018379D01*
X1104540Y1020520D01*
X1103340Y1022420D01*
X1101760Y1024020D01*
X1099840Y1025220D01*
X1097720Y1025960D01*
X1095240Y1026240D01*
X1013020Y1026240D01*
X1010540Y1025960D01*
X1008420Y1025220D01*
X1006520Y1024020D01*
X1004920Y1022420D01*
X1003720Y1020520D01*
X1002960Y1018379D01*
X1002700Y1015920D01*
X1002700Y1008680D01*
X1002380Y1007140D01*
X1001520Y1005860D01*
X1000220Y1004980D01*
X998700Y1004680D01*
X751300Y1004680D01*
X749780Y1004980D01*
X748480Y1005860D01*
X747620Y1007140D01*
X747300Y1008680D01*
X747300Y1015920D01*
X747039Y1018379D01*
X746280Y1020520D01*
X745080Y1022420D01*
X743500Y1024020D01*
X741580Y1025220D01*
X739460Y1025960D01*
X736979Y1026240D01*
X673180Y1026240D01*
X671660Y1026540D01*
X670360Y1027420D01*
X667280Y1030500D01*
X666480Y1031620D01*
X666120Y1032960D01*
X666240Y1034340D01*
X666800Y1035600D01*
X669120Y1038940D01*
X670759Y1042440D01*
X671740Y1046160D01*
X672080Y1050000D01*
X671740Y1053840D01*
X670759Y1057560D01*
X669120Y1061040D01*
X666919Y1064200D01*
X664200Y1066920D01*
X661040Y1069120D01*
X657560Y1070760D01*
X653840Y1071740D01*
X650000Y1072080D01*
X646160Y1071740D01*
X642440Y1070760D01*
X638960Y1069120D01*
X635800Y1066920D01*
X633080Y1064200D01*
X630880Y1061040D01*
X629240Y1057560D01*
X628260Y1053840D01*
X627920Y1050000D01*
X628260Y1046160D01*
X629240Y1042440D01*
X630880Y1038960D01*
X633180Y1035660D01*
X633720Y1034580D01*
X633900Y1033379D01*
X633900Y1025200D01*
X634220Y1021860D01*
X635140Y1018840D01*
X636620Y1016060D01*
X638760Y1013480D01*
X643259Y1008980D01*
X644120Y1007680D01*
X644440Y1006140D01*
X644440Y961240D01*
X644700Y958780D01*
X645460Y956640D01*
X646660Y954740D01*
X648259Y953139D01*
X650160Y951940D01*
X652280Y951200D01*
G37*
G36*
X3054760Y950920D02*
G01*
X3136980Y950920D01*
X3139460Y951200D01*
X3141580Y951940D01*
X3143500Y953139D01*
X3145080Y954740D01*
X3146280Y956640D01*
X3147040Y958780D01*
X3147300Y961240D01*
X3147300Y968480D01*
X3147620Y970020D01*
X3148480Y971300D01*
X3149780Y972180D01*
X3151300Y972480D01*
X3398700Y972480D01*
X3400220Y972180D01*
X3401520Y971300D01*
X3402380Y970020D01*
X3402700Y968480D01*
X3402700Y961240D01*
X3402960Y958780D01*
X3403720Y956640D01*
X3404920Y954740D01*
X3406520Y953139D01*
X3408420Y951940D01*
X3410539Y951200D01*
X3413020Y950920D01*
X3495240Y950920D01*
X3497720Y951200D01*
X3499840Y951940D01*
X3501760Y953139D01*
X3503340Y954740D01*
X3504540Y956640D01*
X3505299Y958780D01*
X3505560Y961240D01*
X3505560Y1015920D01*
X3505299Y1018379D01*
X3504540Y1020520D01*
X3503340Y1022420D01*
X3501760Y1024020D01*
X3499840Y1025220D01*
X3497720Y1025960D01*
X3495240Y1026240D01*
X3413020Y1026240D01*
X3410539Y1025960D01*
X3408420Y1025220D01*
X3406520Y1024020D01*
X3404920Y1022420D01*
X3403720Y1020520D01*
X3402960Y1018379D01*
X3402700Y1015920D01*
X3402700Y1008680D01*
X3402380Y1007140D01*
X3401520Y1005860D01*
X3400220Y1004980D01*
X3398700Y1004680D01*
X3151300Y1004680D01*
X3149780Y1004980D01*
X3148480Y1005860D01*
X3147620Y1007140D01*
X3147300Y1008680D01*
X3147300Y1015920D01*
X3147040Y1018379D01*
X3146280Y1020520D01*
X3145080Y1022420D01*
X3143500Y1024020D01*
X3141580Y1025220D01*
X3139460Y1025960D01*
X3136980Y1026240D01*
X3073180Y1026240D01*
X3071660Y1026540D01*
X3070360Y1027420D01*
X3067280Y1030500D01*
X3066480Y1031620D01*
X3066120Y1032960D01*
X3066240Y1034340D01*
X3066800Y1035600D01*
X3069120Y1038940D01*
X3070760Y1042440D01*
X3071740Y1046160D01*
X3072080Y1050000D01*
X3071740Y1053840D01*
X3070760Y1057560D01*
X3069120Y1061040D01*
X3066920Y1064200D01*
X3064200Y1066920D01*
X3061040Y1069120D01*
X3057559Y1070760D01*
X3053840Y1071740D01*
X3050000Y1072080D01*
X3046160Y1071740D01*
X3042440Y1070760D01*
X3038960Y1069120D01*
X3035800Y1066920D01*
X3033080Y1064200D01*
X3030880Y1061040D01*
X3029240Y1057560D01*
X3028260Y1053840D01*
X3027919Y1050000D01*
X3028260Y1046160D01*
X3029240Y1042440D01*
X3030880Y1038960D01*
X3033180Y1035660D01*
X3033720Y1034580D01*
X3033900Y1033379D01*
X3033900Y1025200D01*
X3034220Y1021860D01*
X3035140Y1018840D01*
X3036620Y1016060D01*
X3038759Y1013480D01*
X3043260Y1008980D01*
X3044120Y1007680D01*
X3044440Y1006140D01*
X3044440Y961240D01*
X3044700Y958780D01*
X3045460Y956640D01*
X3046660Y954740D01*
X3048260Y953139D01*
X3050160Y951940D01*
X3052280Y951200D01*
G37*
G36*
X54760Y950920D02*
G01*
X136980Y950920D01*
X139460Y951200D01*
X141580Y951940D01*
X143500Y953139D01*
X145080Y954740D01*
X146280Y956640D01*
X147040Y958780D01*
X147300Y961240D01*
X147300Y968480D01*
X147620Y970020D01*
X148480Y971300D01*
X149780Y972180D01*
X151300Y972480D01*
X398700Y972480D01*
X400220Y972180D01*
X401520Y971300D01*
X402380Y970020D01*
X402700Y968480D01*
X402700Y961240D01*
X402960Y958780D01*
X403720Y956640D01*
X404920Y954740D01*
X406520Y953139D01*
X408420Y951940D01*
X410540Y951200D01*
X413020Y950920D01*
X495240Y950920D01*
X497720Y951200D01*
X499840Y951940D01*
X501760Y953139D01*
X503340Y954740D01*
X504540Y956640D01*
X505300Y958780D01*
X505560Y961240D01*
X505560Y1015920D01*
X505300Y1018379D01*
X504540Y1020520D01*
X503340Y1022420D01*
X501760Y1024020D01*
X499840Y1025220D01*
X497720Y1025960D01*
X495240Y1026240D01*
X413020Y1026240D01*
X410540Y1025960D01*
X408420Y1025220D01*
X406520Y1024020D01*
X404920Y1022420D01*
X403720Y1020520D01*
X402960Y1018379D01*
X402700Y1015920D01*
X402700Y1008680D01*
X402380Y1007140D01*
X401520Y1005860D01*
X400220Y1004980D01*
X398700Y1004680D01*
X151300Y1004680D01*
X149780Y1004980D01*
X148480Y1005860D01*
X147620Y1007140D01*
X147300Y1008680D01*
X147300Y1015920D01*
X147040Y1018379D01*
X146280Y1020520D01*
X145080Y1022420D01*
X143500Y1024020D01*
X141580Y1025220D01*
X139460Y1025960D01*
X136980Y1026240D01*
X120100Y1026240D01*
X118560Y1026540D01*
X117280Y1027420D01*
X116400Y1028700D01*
X116100Y1030240D01*
X116100Y1058380D01*
X116280Y1059580D01*
X116820Y1060660D01*
X119120Y1063960D01*
X120760Y1067440D01*
X121740Y1071160D01*
X122080Y1075000D01*
X121740Y1078840D01*
X120760Y1082560D01*
X119120Y1086040D01*
X116920Y1089200D01*
X114200Y1091920D01*
X111039Y1094120D01*
X107560Y1095760D01*
X103840Y1096740D01*
X100000Y1097080D01*
X96160Y1096740D01*
X92440Y1095760D01*
X88960Y1094120D01*
X85800Y1091920D01*
X83080Y1089200D01*
X80879Y1086040D01*
X79240Y1082560D01*
X78260Y1078840D01*
X77920Y1075000D01*
X78260Y1071160D01*
X79240Y1067440D01*
X80879Y1063960D01*
X83180Y1060660D01*
X83720Y1059580D01*
X83900Y1058380D01*
X83900Y1030240D01*
X83600Y1028700D01*
X82720Y1027420D01*
X81440Y1026540D01*
X79900Y1026240D01*
X54760Y1026240D01*
X52280Y1025960D01*
X50160Y1025220D01*
X48259Y1024020D01*
X46660Y1022420D01*
X45460Y1020520D01*
X44700Y1018379D01*
X44440Y1015920D01*
X44440Y961240D01*
X44700Y958780D01*
X45460Y956640D01*
X46660Y954740D01*
X48259Y953139D01*
X50160Y951940D01*
X52280Y951200D01*
G37*
G36*
X2723000Y1038900D02*
G01*
X2735779Y1038900D01*
X2738240Y1039180D01*
X2740380Y1039920D01*
X2742280Y1041120D01*
X2743880Y1042720D01*
X2745080Y1044620D01*
X2745820Y1046760D01*
X2746100Y1049220D01*
X2746100Y1062000D01*
X2723000Y1062000D01*
G37*
G36*
X2674220Y1038900D02*
G01*
X2687000Y1038900D01*
X2687000Y1062000D01*
X2663900Y1062000D01*
X2663900Y1049220D01*
X2664180Y1046760D01*
X2664920Y1044620D01*
X2666120Y1042720D01*
X2667720Y1041120D01*
X2669620Y1039920D01*
X2671760Y1039180D01*
G37*
G36*
X3300000Y1077920D02*
G01*
X3303840Y1078260D01*
X3307559Y1079240D01*
X3311040Y1080880D01*
X3314340Y1083180D01*
X3315419Y1083720D01*
X3316620Y1083900D01*
X3383380Y1083900D01*
X3384580Y1083720D01*
X3385659Y1083180D01*
X3388960Y1080880D01*
X3392440Y1079240D01*
X3396160Y1078260D01*
X3400000Y1077920D01*
X3403840Y1078260D01*
X3407559Y1079240D01*
X3411040Y1080880D01*
X3414200Y1083080D01*
X3416920Y1085800D01*
X3419120Y1088960D01*
X3420760Y1092440D01*
X3421740Y1096160D01*
X3422080Y1100000D01*
X3421740Y1103840D01*
X3420760Y1107560D01*
X3419120Y1111040D01*
X3416920Y1114200D01*
X3414200Y1116920D01*
X3411040Y1119120D01*
X3407559Y1120760D01*
X3403840Y1121740D01*
X3400000Y1122080D01*
X3396160Y1121740D01*
X3392440Y1120760D01*
X3388960Y1119120D01*
X3385659Y1116820D01*
X3384580Y1116280D01*
X3383380Y1116100D01*
X3316620Y1116100D01*
X3315419Y1116280D01*
X3314340Y1116820D01*
X3311040Y1119120D01*
X3307559Y1120760D01*
X3303840Y1121740D01*
X3300000Y1122080D01*
X3296160Y1121740D01*
X3292440Y1120760D01*
X3288960Y1119120D01*
X3285800Y1116920D01*
X3283080Y1114200D01*
X3280880Y1111040D01*
X3279240Y1107560D01*
X3278260Y1103840D01*
X3277919Y1100000D01*
X3278260Y1096160D01*
X3279240Y1092440D01*
X3280880Y1088960D01*
X3283080Y1085800D01*
X3285800Y1083080D01*
X3288960Y1080880D01*
X3292440Y1079240D01*
X3296160Y1078260D01*
G37*
G36*
X2723000Y1098000D02*
G01*
X2746100Y1098000D01*
X2746100Y1110780D01*
X2745820Y1113240D01*
X2745080Y1115380D01*
X2743880Y1117280D01*
X2742280Y1118880D01*
X2740380Y1120080D01*
X2738240Y1120820D01*
X2735779Y1121100D01*
X2723000Y1121100D01*
G37*
G36*
X1315080Y1169920D02*
G01*
X1321680Y1170480D01*
X1328180Y1171740D01*
X1334500Y1173720D01*
X1340560Y1176380D01*
X1346279Y1179700D01*
X1351620Y1183620D01*
X1356500Y1188100D01*
X1360840Y1193080D01*
X1364620Y1198540D01*
X1367760Y1204360D01*
X1370260Y1210480D01*
X1372060Y1216860D01*
X1373140Y1223380D01*
X1373520Y1230000D01*
X1373140Y1236620D01*
X1372060Y1243140D01*
X1370260Y1249520D01*
X1367760Y1255640D01*
X1364620Y1261460D01*
X1360840Y1266920D01*
X1356500Y1271900D01*
X1351620Y1276380D01*
X1346279Y1280300D01*
X1340560Y1283620D01*
X1334500Y1286279D01*
X1328180Y1288260D01*
X1321680Y1289520D01*
X1315080Y1290080D01*
X1308460Y1289880D01*
X1301900Y1288980D01*
X1295480Y1287360D01*
X1289280Y1285040D01*
X1283380Y1282040D01*
X1277840Y1278420D01*
X1272720Y1274220D01*
X1268100Y1269460D01*
X1264040Y1264240D01*
X1260560Y1258600D01*
X1257740Y1252620D01*
X1255600Y1246360D01*
X1254140Y1239900D01*
X1253420Y1233320D01*
X1253420Y1226680D01*
X1254140Y1220100D01*
X1255600Y1213640D01*
X1257740Y1207380D01*
X1260560Y1201400D01*
X1264040Y1195760D01*
X1268100Y1190540D01*
X1272720Y1185780D01*
X1277840Y1181580D01*
X1283380Y1177960D01*
X1289280Y1174960D01*
X1295480Y1172640D01*
X1301900Y1171020D01*
X1308460Y1170120D01*
G37*
G36*
X3379760Y1350920D02*
G01*
X3461980Y1350920D01*
X3464460Y1351200D01*
X3466580Y1351940D01*
X3468500Y1353140D01*
X3470080Y1354740D01*
X3471280Y1356639D01*
X3472040Y1358779D01*
X3472300Y1361240D01*
X3472300Y1368480D01*
X3472620Y1370020D01*
X3473480Y1371300D01*
X3474780Y1372180D01*
X3476300Y1372480D01*
X3723700Y1372480D01*
X3725220Y1372180D01*
X3726520Y1371300D01*
X3727380Y1370020D01*
X3727700Y1368480D01*
X3727700Y1361240D01*
X3727960Y1358779D01*
X3728720Y1356639D01*
X3729920Y1354740D01*
X3731520Y1353140D01*
X3733420Y1351940D01*
X3735539Y1351200D01*
X3738020Y1350920D01*
X3820240Y1350920D01*
X3822720Y1351200D01*
X3824840Y1351940D01*
X3826760Y1353140D01*
X3828340Y1354740D01*
X3829540Y1356639D01*
X3830299Y1358779D01*
X3830560Y1361240D01*
X3830560Y1381140D01*
X3830880Y1382680D01*
X3831740Y1383980D01*
X3836240Y1388480D01*
X3838380Y1391060D01*
X3839860Y1393839D01*
X3840779Y1396860D01*
X3841100Y1400200D01*
X3841100Y1433380D01*
X3841280Y1434580D01*
X3841820Y1435660D01*
X3844120Y1438959D01*
X3845760Y1442440D01*
X3846740Y1446160D01*
X3847080Y1450000D01*
X3846740Y1453839D01*
X3845760Y1457560D01*
X3844120Y1461040D01*
X3841920Y1464199D01*
X3839200Y1466920D01*
X3836040Y1469120D01*
X3832559Y1470760D01*
X3828840Y1471740D01*
X3825000Y1472080D01*
X3821160Y1471740D01*
X3817440Y1470760D01*
X3813960Y1469120D01*
X3810800Y1466920D01*
X3808080Y1464199D01*
X3805880Y1461040D01*
X3804240Y1457560D01*
X3803260Y1453839D01*
X3802919Y1450000D01*
X3803260Y1446160D01*
X3804240Y1442440D01*
X3805880Y1438959D01*
X3808180Y1435660D01*
X3808720Y1434580D01*
X3808900Y1433380D01*
X3808900Y1430240D01*
X3808600Y1428700D01*
X3807720Y1427420D01*
X3806440Y1426540D01*
X3804900Y1426240D01*
X3738020Y1426240D01*
X3735539Y1425960D01*
X3733420Y1425220D01*
X3731520Y1424019D01*
X3729920Y1422420D01*
X3728720Y1420520D01*
X3727960Y1418380D01*
X3727700Y1415920D01*
X3727700Y1408680D01*
X3727380Y1407140D01*
X3726520Y1405860D01*
X3725220Y1404980D01*
X3723700Y1404680D01*
X3476300Y1404680D01*
X3474780Y1404980D01*
X3473480Y1405860D01*
X3472620Y1407140D01*
X3472300Y1408680D01*
X3472300Y1415920D01*
X3472040Y1418380D01*
X3471280Y1420520D01*
X3470080Y1422420D01*
X3468500Y1424019D01*
X3466580Y1425220D01*
X3464460Y1425960D01*
X3461980Y1426240D01*
X3379760Y1426240D01*
X3377280Y1425960D01*
X3375160Y1425220D01*
X3373260Y1424019D01*
X3371660Y1422420D01*
X3370460Y1420520D01*
X3369700Y1418380D01*
X3369440Y1415920D01*
X3369440Y1361240D01*
X3369700Y1358779D01*
X3370460Y1356639D01*
X3371660Y1354740D01*
X3373260Y1353140D01*
X3375160Y1351940D01*
X3377280Y1351200D01*
G37*
G36*
X1260200Y1398899D02*
G01*
X2289800Y1398899D01*
X2293140Y1399220D01*
X2296160Y1400140D01*
X2298940Y1401620D01*
X2301520Y1403760D01*
X2380500Y1482720D01*
X2381800Y1483600D01*
X2383320Y1483899D01*
X2683380Y1483899D01*
X2684580Y1483720D01*
X2685659Y1483180D01*
X2688960Y1480880D01*
X2692440Y1479240D01*
X2696160Y1478260D01*
X2700000Y1477920D01*
X2703840Y1478260D01*
X2707559Y1479240D01*
X2711040Y1480880D01*
X2714200Y1483080D01*
X2716920Y1485800D01*
X2719120Y1488959D01*
X2720760Y1492440D01*
X2721740Y1496160D01*
X2722080Y1500000D01*
X2721740Y1503839D01*
X2720760Y1507560D01*
X2719120Y1511040D01*
X2716920Y1514199D01*
X2714200Y1516920D01*
X2711040Y1519120D01*
X2707559Y1520760D01*
X2703840Y1521740D01*
X2700659Y1522020D01*
X2699320Y1522380D01*
X2698180Y1523180D01*
X2697380Y1524319D01*
X2697020Y1525660D01*
X2696740Y1528839D01*
X2695760Y1532560D01*
X2694120Y1536040D01*
X2691920Y1539199D01*
X2689200Y1541920D01*
X2686040Y1544120D01*
X2682559Y1545760D01*
X2678840Y1546740D01*
X2675000Y1547080D01*
X2671160Y1546740D01*
X2667440Y1545760D01*
X2663960Y1544120D01*
X2660659Y1541819D01*
X2659580Y1541279D01*
X2658380Y1541100D01*
X2350200Y1541100D01*
X2346860Y1540780D01*
X2343840Y1539860D01*
X2341060Y1538380D01*
X2338480Y1536240D01*
X2259500Y1457280D01*
X2258200Y1456399D01*
X2256680Y1456100D01*
X2191720Y1456100D01*
X2190080Y1456440D01*
X2188740Y1457440D01*
X2187900Y1458880D01*
X2187740Y1460540D01*
X2187960Y1462380D01*
X2187960Y1473580D01*
X2166420Y1473580D01*
X2166420Y1460100D01*
X2166120Y1458560D01*
X2165260Y1457280D01*
X2163960Y1456399D01*
X2162420Y1456100D01*
X2137580Y1456100D01*
X2136040Y1456399D01*
X2134740Y1457280D01*
X2133880Y1458560D01*
X2133580Y1460100D01*
X2133580Y1473580D01*
X2112060Y1473580D01*
X2112060Y1462380D01*
X2112260Y1460540D01*
X2112100Y1458880D01*
X2111260Y1457440D01*
X2109920Y1456440D01*
X2108280Y1456100D01*
X2079340Y1456100D01*
X2077840Y1456399D01*
X2076540Y1457240D01*
X2075680Y1458500D01*
X2075340Y1460000D01*
X2075600Y1461519D01*
X2076420Y1462840D01*
X2079440Y1466060D01*
X2082420Y1470280D01*
X2084800Y1474880D01*
X2086540Y1479760D01*
X2087580Y1484840D01*
X2087940Y1490000D01*
X2087580Y1495160D01*
X2086540Y1500240D01*
X2084800Y1505120D01*
X2082420Y1509720D01*
X2079440Y1513940D01*
X2075900Y1517720D01*
X2071879Y1521000D01*
X2067460Y1523680D01*
X2062700Y1525740D01*
X2057720Y1527140D01*
X2052580Y1527860D01*
X2047420Y1527860D01*
X2042280Y1527140D01*
X2037300Y1525740D01*
X2032540Y1523680D01*
X2028120Y1521000D01*
X2024100Y1517720D01*
X2020560Y1513940D01*
X2017580Y1509720D01*
X2015200Y1505120D01*
X2013460Y1500240D01*
X2012420Y1495160D01*
X2012060Y1490000D01*
X2012420Y1484840D01*
X2013460Y1479760D01*
X2015200Y1474880D01*
X2017580Y1470280D01*
X2020560Y1466060D01*
X2023580Y1462840D01*
X2024400Y1461519D01*
X2024660Y1460000D01*
X2024319Y1458500D01*
X2023460Y1457240D01*
X2022160Y1456399D01*
X2020660Y1456100D01*
X1979340Y1456100D01*
X1977840Y1456399D01*
X1976540Y1457240D01*
X1975680Y1458500D01*
X1975340Y1460000D01*
X1975600Y1461519D01*
X1976420Y1462840D01*
X1979440Y1466060D01*
X1982420Y1470280D01*
X1984800Y1474880D01*
X1986540Y1479760D01*
X1987580Y1484840D01*
X1987940Y1490000D01*
X1987580Y1495160D01*
X1986540Y1500240D01*
X1984800Y1505120D01*
X1982420Y1509720D01*
X1979440Y1513940D01*
X1975900Y1517720D01*
X1971879Y1521000D01*
X1967460Y1523680D01*
X1962700Y1525740D01*
X1957720Y1527140D01*
X1952580Y1527860D01*
X1947420Y1527860D01*
X1942280Y1527140D01*
X1937300Y1525740D01*
X1932540Y1523680D01*
X1928120Y1521000D01*
X1924100Y1517720D01*
X1920560Y1513940D01*
X1917580Y1509720D01*
X1915200Y1505120D01*
X1913460Y1500240D01*
X1912420Y1495160D01*
X1912060Y1490000D01*
X1912420Y1484840D01*
X1913460Y1479760D01*
X1915200Y1474880D01*
X1917580Y1470280D01*
X1920560Y1466060D01*
X1923580Y1462840D01*
X1924400Y1461519D01*
X1924660Y1460000D01*
X1924319Y1458500D01*
X1923460Y1457240D01*
X1922160Y1456399D01*
X1920660Y1456100D01*
X1879340Y1456100D01*
X1877840Y1456399D01*
X1876540Y1457240D01*
X1875680Y1458500D01*
X1875340Y1460000D01*
X1875600Y1461519D01*
X1876420Y1462840D01*
X1879440Y1466060D01*
X1882420Y1470280D01*
X1884800Y1474880D01*
X1886540Y1479760D01*
X1887580Y1484840D01*
X1887940Y1490000D01*
X1887580Y1495160D01*
X1886540Y1500240D01*
X1884800Y1505120D01*
X1882420Y1509720D01*
X1879440Y1513940D01*
X1875900Y1517720D01*
X1871879Y1521000D01*
X1867460Y1523680D01*
X1862700Y1525740D01*
X1857720Y1527140D01*
X1852580Y1527860D01*
X1847420Y1527860D01*
X1842280Y1527140D01*
X1837300Y1525740D01*
X1832540Y1523680D01*
X1828120Y1521000D01*
X1824100Y1517720D01*
X1820560Y1513940D01*
X1817580Y1509720D01*
X1815200Y1505120D01*
X1813460Y1500240D01*
X1812420Y1495160D01*
X1812060Y1490000D01*
X1812420Y1484840D01*
X1813460Y1479760D01*
X1815200Y1474880D01*
X1817580Y1470280D01*
X1820560Y1466060D01*
X1823580Y1462840D01*
X1824400Y1461519D01*
X1824660Y1460000D01*
X1824319Y1458500D01*
X1823460Y1457240D01*
X1822160Y1456399D01*
X1820660Y1456100D01*
X1779340Y1456100D01*
X1777840Y1456399D01*
X1776540Y1457240D01*
X1775680Y1458500D01*
X1775340Y1460000D01*
X1775600Y1461519D01*
X1776420Y1462840D01*
X1779440Y1466060D01*
X1782420Y1470280D01*
X1784800Y1474880D01*
X1786540Y1479760D01*
X1787580Y1484840D01*
X1787940Y1490000D01*
X1787580Y1495160D01*
X1786540Y1500240D01*
X1784800Y1505120D01*
X1782420Y1509720D01*
X1779440Y1513940D01*
X1775900Y1517720D01*
X1771879Y1521000D01*
X1767460Y1523680D01*
X1762700Y1525740D01*
X1757720Y1527140D01*
X1752580Y1527860D01*
X1747420Y1527860D01*
X1742280Y1527140D01*
X1737300Y1525740D01*
X1732540Y1523680D01*
X1728120Y1521000D01*
X1724100Y1517720D01*
X1720560Y1513940D01*
X1717580Y1509720D01*
X1715200Y1505120D01*
X1713460Y1500240D01*
X1712420Y1495160D01*
X1712060Y1490000D01*
X1712420Y1484840D01*
X1713460Y1479760D01*
X1715200Y1474880D01*
X1717580Y1470280D01*
X1720560Y1466060D01*
X1723580Y1462840D01*
X1724400Y1461519D01*
X1724660Y1460000D01*
X1724319Y1458500D01*
X1723460Y1457240D01*
X1722160Y1456399D01*
X1720660Y1456100D01*
X1298320Y1456100D01*
X1296800Y1456399D01*
X1295500Y1457280D01*
X1291519Y1461240D01*
X1288940Y1463380D01*
X1286160Y1464860D01*
X1283140Y1465780D01*
X1279800Y1466100D01*
X1241620Y1466100D01*
X1240420Y1466279D01*
X1239340Y1466819D01*
X1236040Y1469120D01*
X1232560Y1470760D01*
X1228840Y1471740D01*
X1225000Y1472080D01*
X1221160Y1471740D01*
X1217440Y1470760D01*
X1213960Y1469120D01*
X1210800Y1466920D01*
X1208080Y1464199D01*
X1205880Y1461040D01*
X1204240Y1457560D01*
X1203260Y1453839D01*
X1202920Y1450000D01*
X1203260Y1446160D01*
X1204240Y1442440D01*
X1205880Y1438959D01*
X1208080Y1435800D01*
X1210800Y1433080D01*
X1213960Y1430880D01*
X1217440Y1429240D01*
X1221160Y1428260D01*
X1224340Y1427980D01*
X1225680Y1427620D01*
X1226820Y1426819D01*
X1227620Y1425680D01*
X1227980Y1424340D01*
X1228260Y1421160D01*
X1229240Y1417440D01*
X1230880Y1413959D01*
X1233080Y1410800D01*
X1235800Y1408080D01*
X1238960Y1405880D01*
X1242440Y1404240D01*
X1246160Y1403260D01*
X1248200Y1403080D01*
X1249360Y1402800D01*
X1251060Y1401620D01*
X1253840Y1400140D01*
X1256860Y1399220D01*
G37*
G36*
X2166420Y1506420D02*
G01*
X2187960Y1506420D01*
X2187960Y1517620D01*
X2187680Y1520100D01*
X2186920Y1522220D01*
X2185720Y1524139D01*
X2184140Y1525720D01*
X2182220Y1526920D01*
X2180100Y1527680D01*
X2177620Y1527940D01*
X2166420Y1527940D01*
G37*
G36*
X2112060Y1506420D02*
G01*
X2133580Y1506420D01*
X2133580Y1527940D01*
X2122380Y1527940D01*
X2119900Y1527680D01*
X2117780Y1526920D01*
X2115860Y1525720D01*
X2114280Y1524139D01*
X2113080Y1522220D01*
X2112320Y1520100D01*
X2112060Y1517620D01*
G37*
G36*
X710960Y3460700D02*
G01*
X713800Y3460820D01*
X703600Y3479240D01*
X685160Y3469020D01*
X688780Y3466700D01*
X694000Y3464180D01*
X699500Y3462320D01*
X705180Y3461160D01*
G37*
G36*
X750580Y3481100D02*
G01*
X753560Y3486060D01*
X755920Y3491360D01*
X757600Y3496920D01*
X758580Y3502620D01*
X758860Y3508420D01*
X758760Y3509820D01*
X740320Y3499600D01*
G37*
G36*
X664800Y3505760D02*
G01*
X683240Y3515980D01*
X673020Y3534380D01*
X671420Y3532040D01*
X668740Y3526900D01*
X666720Y3521460D01*
X665380Y3515820D01*
X664740Y3510059D01*
G37*
G36*
X798420Y3509180D02*
G01*
X804220Y3509440D01*
X809920Y3510400D01*
X815480Y3512060D01*
X820800Y3514400D01*
X825780Y3517360D01*
X830360Y3520920D01*
X834460Y3525020D01*
X838040Y3529580D01*
X841020Y3534540D01*
X843379Y3539840D01*
X845060Y3545400D01*
X846040Y3551100D01*
X846320Y3556900D01*
X845900Y3562679D01*
X844760Y3568360D01*
X844100Y3570299D01*
X843920Y3571820D01*
X844300Y3573320D01*
X845240Y3574540D01*
X846560Y3575340D01*
X848080Y3575560D01*
X849580Y3575200D01*
X850819Y3574300D01*
X854380Y3570500D01*
X858820Y3566800D01*
X863700Y3563660D01*
X868920Y3561139D01*
X874419Y3559280D01*
X880100Y3558120D01*
X885879Y3557660D01*
X891680Y3557919D01*
X897380Y3558880D01*
X902940Y3560539D01*
X908259Y3562880D01*
X913240Y3565840D01*
X917820Y3569400D01*
X921919Y3573500D01*
X925500Y3578060D01*
X928480Y3583020D01*
X930840Y3588320D01*
X932520Y3593880D01*
X933520Y3599580D01*
X933800Y3605380D01*
X933360Y3611160D01*
X932220Y3616840D01*
X930380Y3622340D01*
X927880Y3627580D01*
X924780Y3632460D01*
X921080Y3636940D01*
X916860Y3640920D01*
X912180Y3644340D01*
X907120Y3647180D01*
X901760Y3649380D01*
X896160Y3650880D01*
X890420Y3651700D01*
X884620Y3651800D01*
X878860Y3651180D01*
X872980Y3649820D01*
X871260Y3649780D01*
X869700Y3650480D01*
X868480Y3651920D01*
X868000Y3653560D01*
X868240Y3655240D01*
X869160Y3656680D01*
X873439Y3660960D01*
X877020Y3665520D01*
X880000Y3670480D01*
X882360Y3675779D01*
X884040Y3681340D01*
X885020Y3687040D01*
X885300Y3692840D01*
X884880Y3698620D01*
X883740Y3704300D01*
X881900Y3709800D01*
X879400Y3715040D01*
X876300Y3719940D01*
X872600Y3724400D01*
X868379Y3728380D01*
X863700Y3731820D01*
X858640Y3734640D01*
X853280Y3736840D01*
X847680Y3738340D01*
X841940Y3739160D01*
X836140Y3739260D01*
X830380Y3738639D01*
X824740Y3737340D01*
X819280Y3735340D01*
X814140Y3732679D01*
X809340Y3729420D01*
X805000Y3725580D01*
X801140Y3721240D01*
X797860Y3716460D01*
X795180Y3711320D01*
X793160Y3705880D01*
X791820Y3700240D01*
X791180Y3694480D01*
X791260Y3688680D01*
X792060Y3682940D01*
X793379Y3677919D01*
X793480Y3676380D01*
X793000Y3674920D01*
X792000Y3673759D01*
X790639Y3673060D01*
X789100Y3672919D01*
X787620Y3673380D01*
X786440Y3674340D01*
X785140Y3675920D01*
X780920Y3679900D01*
X776240Y3683340D01*
X771180Y3686160D01*
X765819Y3688360D01*
X760220Y3689860D01*
X754479Y3690680D01*
X748680Y3690779D01*
X742920Y3690160D01*
X737260Y3688840D01*
X731820Y3686840D01*
X726680Y3684200D01*
X721880Y3680920D01*
X717520Y3677100D01*
X713680Y3672760D01*
X710400Y3667980D01*
X707720Y3662840D01*
X705699Y3657400D01*
X704360Y3651760D01*
X703720Y3646000D01*
X703800Y3640200D01*
X704580Y3634460D01*
X705920Y3629440D01*
X706020Y3627900D01*
X705540Y3626440D01*
X704539Y3625280D01*
X703160Y3624580D01*
X701640Y3624440D01*
X700160Y3624880D01*
X698980Y3625860D01*
X697680Y3627440D01*
X693460Y3631420D01*
X688780Y3634840D01*
X683720Y3637679D01*
X681900Y3638420D01*
X680580Y3639300D01*
X679700Y3640600D01*
X679400Y3642140D01*
X679400Y3679980D01*
X679700Y3681500D01*
X680580Y3682799D01*
X755500Y3757720D01*
X756620Y3758519D01*
X757960Y3758880D01*
X759340Y3758759D01*
X760600Y3758200D01*
X763940Y3755880D01*
X767440Y3754240D01*
X771160Y3753260D01*
X775000Y3752919D01*
X778840Y3753260D01*
X782560Y3754240D01*
X786040Y3755880D01*
X789200Y3758080D01*
X791919Y3760800D01*
X794120Y3763960D01*
X795759Y3767440D01*
X796740Y3771160D01*
X797080Y3775000D01*
X796740Y3778840D01*
X795759Y3782559D01*
X794120Y3786040D01*
X791919Y3789200D01*
X789200Y3791920D01*
X786040Y3794120D01*
X782560Y3795760D01*
X778840Y3796740D01*
X775000Y3797080D01*
X771160Y3796740D01*
X767440Y3795760D01*
X763960Y3794120D01*
X760660Y3791820D01*
X759580Y3791280D01*
X758379Y3791100D01*
X750200Y3791100D01*
X746860Y3790779D01*
X743840Y3789860D01*
X741060Y3788380D01*
X738480Y3786240D01*
X652060Y3699820D01*
X649940Y3697240D01*
X648439Y3694460D01*
X647520Y3691440D01*
X647200Y3688100D01*
X647200Y3642200D01*
X646880Y3640620D01*
X645960Y3639300D01*
X644360Y3638360D01*
X639200Y3635720D01*
X634420Y3632440D01*
X630060Y3628620D01*
X626220Y3624280D01*
X622940Y3619500D01*
X620260Y3614360D01*
X618240Y3608920D01*
X616900Y3603279D01*
X616260Y3597520D01*
X616340Y3591720D01*
X617120Y3585980D01*
X618620Y3580380D01*
X620780Y3575000D01*
X623600Y3569920D01*
X627000Y3565240D01*
X630960Y3561000D01*
X635420Y3557300D01*
X640300Y3554160D01*
X645520Y3551640D01*
X651020Y3549780D01*
X656700Y3548620D01*
X662480Y3548159D01*
X668259Y3548420D01*
X673980Y3549380D01*
X679539Y3551040D01*
X684840Y3553380D01*
X689840Y3556340D01*
X694419Y3559900D01*
X698520Y3564000D01*
X702099Y3568560D01*
X705080Y3573519D01*
X707440Y3578820D01*
X709120Y3584380D01*
X710100Y3590080D01*
X710380Y3595880D01*
X709960Y3601660D01*
X708820Y3607340D01*
X708160Y3609280D01*
X707960Y3610800D01*
X708360Y3612300D01*
X709300Y3613519D01*
X710620Y3614320D01*
X712140Y3614540D01*
X713640Y3614180D01*
X714880Y3613279D01*
X718439Y3609480D01*
X722880Y3605779D01*
X727760Y3602640D01*
X732980Y3600120D01*
X738480Y3598260D01*
X744160Y3597100D01*
X749940Y3596640D01*
X755740Y3596900D01*
X761440Y3597860D01*
X765020Y3598940D01*
X766560Y3599080D01*
X768020Y3598639D01*
X769220Y3597679D01*
X769980Y3596340D01*
X770160Y3594800D01*
X769740Y3593320D01*
X768800Y3592100D01*
X766000Y3589640D01*
X762159Y3585299D01*
X758880Y3580520D01*
X756200Y3575380D01*
X754180Y3569940D01*
X752840Y3564300D01*
X752200Y3558540D01*
X752280Y3552740D01*
X753060Y3547000D01*
X754560Y3541400D01*
X756720Y3536019D01*
X759539Y3530940D01*
X762940Y3526259D01*
X766919Y3522020D01*
X771360Y3518320D01*
X776240Y3515179D01*
X781460Y3512660D01*
X786960Y3510800D01*
X792640Y3509640D01*
G37*
G36*
X719960Y3536340D02*
G01*
X738400Y3546560D01*
X737260Y3547380D01*
X732200Y3550220D01*
X726840Y3552400D01*
X721240Y3553920D01*
X715500Y3554740D01*
X709720Y3554840D01*
G37*
G36*
X3667820Y3618039D02*
G01*
X3670240Y3618540D01*
X3707260Y3630580D01*
X3709520Y3631600D01*
X3711320Y3632960D01*
X3712760Y3634700D01*
X3713780Y3636700D01*
X3714340Y3638900D01*
X3714380Y3641139D01*
X3713880Y3643580D01*
X3699420Y3688080D01*
X3698399Y3690340D01*
X3697040Y3692140D01*
X3695299Y3693580D01*
X3693300Y3694600D01*
X3691100Y3695160D01*
X3688860Y3695220D01*
X3686420Y3694720D01*
X3649400Y3682679D01*
X3647140Y3681660D01*
X3645340Y3680299D01*
X3643900Y3678560D01*
X3643060Y3676920D01*
X3642180Y3675760D01*
X3640940Y3675000D01*
X3639500Y3674740D01*
X3637520Y3674740D01*
X3636000Y3675040D01*
X3634700Y3675899D01*
X3627500Y3683100D01*
X3626860Y3683920D01*
X3626460Y3684880D01*
X3625760Y3687559D01*
X3624120Y3691040D01*
X3621920Y3694200D01*
X3619200Y3696920D01*
X3616040Y3699120D01*
X3612559Y3700760D01*
X3608840Y3701740D01*
X3605000Y3702080D01*
X3601160Y3701740D01*
X3597440Y3700760D01*
X3593960Y3699120D01*
X3590800Y3696920D01*
X3588080Y3694200D01*
X3585880Y3691040D01*
X3584240Y3687559D01*
X3583260Y3683840D01*
X3582919Y3680000D01*
X3583260Y3676160D01*
X3584240Y3672440D01*
X3585880Y3668960D01*
X3588080Y3665800D01*
X3590800Y3663080D01*
X3593960Y3660880D01*
X3597440Y3659240D01*
X3600120Y3658540D01*
X3601080Y3658140D01*
X3601900Y3657500D01*
X3616080Y3643360D01*
X3618840Y3641259D01*
X3621840Y3639760D01*
X3625040Y3638860D01*
X3628560Y3638540D01*
X3649980Y3638540D01*
X3651620Y3638180D01*
X3652960Y3637200D01*
X3653800Y3635760D01*
X3657240Y3625179D01*
X3658260Y3622919D01*
X3659620Y3621120D01*
X3661360Y3619680D01*
X3663380Y3618639D01*
X3665560Y3618100D01*
G37*
G36*
X3735220Y3639940D02*
G01*
X3737640Y3640440D01*
X3774660Y3652480D01*
X3776920Y3653500D01*
X3778720Y3654860D01*
X3780160Y3656600D01*
X3781180Y3658600D01*
X3781740Y3660800D01*
X3781780Y3663039D01*
X3781300Y3665480D01*
X3766840Y3709980D01*
X3765800Y3712240D01*
X3764440Y3714040D01*
X3762700Y3715480D01*
X3760700Y3716500D01*
X3758500Y3717060D01*
X3756259Y3717120D01*
X3753820Y3716620D01*
X3716800Y3704580D01*
X3714540Y3703560D01*
X3712760Y3702200D01*
X3711300Y3700460D01*
X3710280Y3698460D01*
X3709720Y3696259D01*
X3709680Y3694000D01*
X3710179Y3691580D01*
X3724640Y3647080D01*
X3725659Y3644820D01*
X3727040Y3643020D01*
X3728759Y3641580D01*
X3730779Y3640539D01*
X3732960Y3640000D01*
G37*
G36*
X3633740Y3722880D02*
G01*
X3636180Y3723380D01*
X3673200Y3735419D01*
X3675460Y3736440D01*
X3677240Y3737799D01*
X3678700Y3739540D01*
X3679720Y3741540D01*
X3680280Y3743740D01*
X3680320Y3746000D01*
X3679820Y3748420D01*
X3671300Y3774660D01*
X3671100Y3775899D01*
X3671100Y3786580D01*
X3671420Y3788159D01*
X3672340Y3789480D01*
X3673700Y3790340D01*
X3675280Y3790580D01*
X3676840Y3790200D01*
X3678120Y3789220D01*
X3678920Y3787780D01*
X3695500Y3793159D01*
X3689500Y3811620D01*
X3682740Y3809420D01*
X3680480Y3808399D01*
X3678680Y3807040D01*
X3678180Y3806420D01*
X3676900Y3805419D01*
X3675340Y3805000D01*
X3673740Y3805220D01*
X3672360Y3806080D01*
X3671420Y3807400D01*
X3671100Y3808980D01*
X3671100Y3821680D01*
X3671400Y3823200D01*
X3672280Y3824500D01*
X3686240Y3838480D01*
X3688380Y3841060D01*
X3689860Y3843840D01*
X3690779Y3846860D01*
X3691100Y3850200D01*
X3691100Y3894340D01*
X3691460Y3896000D01*
X3692460Y3897360D01*
X3693940Y3898180D01*
X3703480Y3901100D01*
X3705740Y3902080D01*
X3707559Y3903420D01*
X3709040Y3905120D01*
X3710100Y3907120D01*
X3710700Y3909280D01*
X3710779Y3911540D01*
X3710320Y3913980D01*
X3696640Y3958740D01*
X3695659Y3961000D01*
X3694320Y3962820D01*
X3692620Y3964300D01*
X3690620Y3965360D01*
X3688440Y3965960D01*
X3686200Y3966040D01*
X3683759Y3965580D01*
X3646540Y3954200D01*
X3644260Y3953220D01*
X3642440Y3951880D01*
X3640960Y3950179D01*
X3639900Y3948180D01*
X3639320Y3946000D01*
X3639220Y3943759D01*
X3639680Y3941320D01*
X3653360Y3896560D01*
X3654340Y3894280D01*
X3655680Y3892460D01*
X3657520Y3890880D01*
X3658540Y3889520D01*
X3658900Y3887860D01*
X3658900Y3858320D01*
X3658600Y3856800D01*
X3657720Y3855500D01*
X3643759Y3841520D01*
X3641620Y3838940D01*
X3640140Y3836160D01*
X3639220Y3833140D01*
X3638900Y3829800D01*
X3638900Y3798100D01*
X3638560Y3796460D01*
X3637580Y3795120D01*
X3636139Y3794280D01*
X3615340Y3787520D01*
X3613080Y3786500D01*
X3611280Y3785140D01*
X3609840Y3783399D01*
X3608820Y3781400D01*
X3608260Y3779200D01*
X3608220Y3776960D01*
X3608700Y3774520D01*
X3623159Y3730020D01*
X3624200Y3727760D01*
X3625560Y3725960D01*
X3627300Y3724520D01*
X3629300Y3723500D01*
X3631500Y3722940D01*
G37*
G36*
X3701139Y3744780D02*
G01*
X3703580Y3745280D01*
X3710360Y3747480D01*
X3704360Y3765940D01*
X3687760Y3760560D01*
X3690580Y3751920D01*
X3691600Y3749660D01*
X3692960Y3747860D01*
X3694700Y3746420D01*
X3696700Y3745400D01*
X3698900Y3744840D01*
G37*
G36*
X3733820Y3755120D02*
G01*
X3740600Y3757320D01*
X3742860Y3758340D01*
X3744660Y3759700D01*
X3746100Y3761440D01*
X3747120Y3763440D01*
X3747679Y3765640D01*
X3747720Y3767900D01*
X3747220Y3770320D01*
X3744420Y3778960D01*
X3727820Y3773580D01*
G37*
G36*
X3880000Y3757919D02*
G01*
X3883840Y3758260D01*
X3887559Y3759240D01*
X3891040Y3760880D01*
X3894200Y3763080D01*
X3896920Y3765800D01*
X3899120Y3768960D01*
X3900760Y3772440D01*
X3901740Y3776160D01*
X3902080Y3780000D01*
X3901740Y3783840D01*
X3900760Y3787559D01*
X3899120Y3791040D01*
X3896820Y3794340D01*
X3896280Y3795419D01*
X3896100Y3796620D01*
X3896100Y3834340D01*
X3896460Y3836000D01*
X3897460Y3837360D01*
X3898940Y3838180D01*
X3908480Y3841100D01*
X3910740Y3842080D01*
X3912559Y3843420D01*
X3914040Y3845120D01*
X3915080Y3847080D01*
X3915800Y3849880D01*
X3916480Y3851300D01*
X3917660Y3852340D01*
X3918460Y3852620D01*
X3917060Y3852919D01*
X3915720Y3853920D01*
X3914900Y3855400D01*
X3901640Y3898740D01*
X3900659Y3901000D01*
X3899320Y3902820D01*
X3897620Y3904300D01*
X3895620Y3905360D01*
X3893440Y3905960D01*
X3891200Y3906040D01*
X3888759Y3905580D01*
X3851540Y3894200D01*
X3849260Y3893220D01*
X3847440Y3891880D01*
X3845960Y3890179D01*
X3844900Y3888180D01*
X3844320Y3886000D01*
X3844220Y3883759D01*
X3844680Y3881320D01*
X3858360Y3836560D01*
X3859340Y3834280D01*
X3860680Y3832460D01*
X3862520Y3830880D01*
X3863540Y3829520D01*
X3863900Y3827860D01*
X3863900Y3796620D01*
X3863720Y3795419D01*
X3863180Y3794340D01*
X3860880Y3791040D01*
X3859240Y3787559D01*
X3858260Y3783840D01*
X3857919Y3780000D01*
X3858260Y3776160D01*
X3859240Y3772440D01*
X3860880Y3768960D01*
X3863080Y3765800D01*
X3865800Y3763080D01*
X3868960Y3760880D01*
X3872440Y3759240D01*
X3876160Y3758260D01*
G37*
G36*
X3718980Y3800800D02*
G01*
X3735580Y3806180D01*
X3732760Y3814820D01*
X3731740Y3817080D01*
X3730380Y3818880D01*
X3728639Y3820320D01*
X3726620Y3821360D01*
X3724440Y3821900D01*
X3722180Y3821960D01*
X3719760Y3821460D01*
X3712980Y3819260D01*
G37*
G36*
X3801040Y3808540D02*
G01*
X3803480Y3808980D01*
X3840700Y3820360D01*
X3842980Y3821360D01*
X3844800Y3822700D01*
X3846280Y3824400D01*
X3847320Y3826380D01*
X3847919Y3828560D01*
X3848000Y3830820D01*
X3847559Y3833260D01*
X3833880Y3878020D01*
X3832880Y3880280D01*
X3831540Y3882100D01*
X3829840Y3883580D01*
X3827860Y3884640D01*
X3825680Y3885240D01*
X3823420Y3885320D01*
X3820980Y3884860D01*
X3783759Y3873480D01*
X3781480Y3872500D01*
X3779660Y3871160D01*
X3778180Y3869460D01*
X3777520Y3868200D01*
X3776380Y3866860D01*
X3774760Y3866160D01*
X3773000Y3866200D01*
X3771440Y3867000D01*
X3770360Y3868380D01*
X3769120Y3871040D01*
X3766920Y3874200D01*
X3764200Y3876920D01*
X3761040Y3879120D01*
X3757559Y3880760D01*
X3753840Y3881740D01*
X3750000Y3882080D01*
X3746160Y3881740D01*
X3742440Y3880760D01*
X3738960Y3879120D01*
X3735800Y3876920D01*
X3733080Y3874200D01*
X3730880Y3871040D01*
X3729240Y3867559D01*
X3728260Y3863840D01*
X3727919Y3860000D01*
X3728260Y3856160D01*
X3729240Y3852440D01*
X3730880Y3848960D01*
X3733080Y3845800D01*
X3735800Y3843080D01*
X3738960Y3840880D01*
X3742440Y3839240D01*
X3745120Y3838540D01*
X3746060Y3838140D01*
X3746900Y3837500D01*
X3750800Y3833620D01*
X3753560Y3831560D01*
X3756540Y3830059D01*
X3759740Y3829160D01*
X3763260Y3828820D01*
X3783660Y3828820D01*
X3785299Y3828480D01*
X3786660Y3827480D01*
X3787480Y3826000D01*
X3790580Y3815840D01*
X3791580Y3813560D01*
X3792900Y3811740D01*
X3794620Y3810280D01*
X3796600Y3809220D01*
X3798780Y3808620D01*
G37*
G36*
X3555000Y3857919D02*
G01*
X3558840Y3858260D01*
X3562559Y3859240D01*
X3566040Y3860880D01*
X3569200Y3863080D01*
X3571920Y3865800D01*
X3574120Y3868960D01*
X3575760Y3872440D01*
X3576460Y3875120D01*
X3576860Y3876080D01*
X3577500Y3876900D01*
X3578740Y3878140D01*
X3580100Y3879040D01*
X3581720Y3879300D01*
X3583300Y3878920D01*
X3584600Y3877919D01*
X3585400Y3876480D01*
X3586580Y3873560D01*
X3587900Y3871740D01*
X3589620Y3870280D01*
X3591600Y3869220D01*
X3593780Y3868620D01*
X3596040Y3868540D01*
X3598480Y3868980D01*
X3635700Y3880360D01*
X3637980Y3881360D01*
X3639800Y3882700D01*
X3641280Y3884400D01*
X3642320Y3886380D01*
X3642919Y3888560D01*
X3643000Y3890820D01*
X3642559Y3893260D01*
X3628880Y3938020D01*
X3627880Y3940280D01*
X3626540Y3942100D01*
X3624840Y3943580D01*
X3622860Y3944640D01*
X3620680Y3945240D01*
X3618420Y3945320D01*
X3615980Y3944860D01*
X3578759Y3933480D01*
X3576480Y3932500D01*
X3574660Y3931160D01*
X3573180Y3929460D01*
X3572120Y3927460D01*
X3571540Y3925280D01*
X3571460Y3923420D01*
X3571080Y3921860D01*
X3570120Y3920580D01*
X3569040Y3919640D01*
X3551900Y3902500D01*
X3551080Y3901860D01*
X3550120Y3901460D01*
X3547440Y3900760D01*
X3543960Y3899120D01*
X3540800Y3896920D01*
X3538080Y3894200D01*
X3535880Y3891040D01*
X3534240Y3887559D01*
X3533260Y3883840D01*
X3532919Y3880000D01*
X3533260Y3876160D01*
X3534240Y3872440D01*
X3535880Y3868960D01*
X3538080Y3865800D01*
X3540800Y3863080D01*
X3543960Y3860880D01*
X3547440Y3859240D01*
X3551160Y3858260D01*
G37*
G36*
X3768800Y3913960D02*
G01*
X3771240Y3914420D01*
X3808460Y3925800D01*
X3810740Y3926780D01*
X3812559Y3928120D01*
X3814040Y3929820D01*
X3815100Y3931820D01*
X3815680Y3934000D01*
X3815779Y3936240D01*
X3815320Y3938680D01*
X3803420Y3977640D01*
X3803240Y3979060D01*
X3803600Y3980460D01*
X3804400Y3981640D01*
X3807060Y3984280D01*
X3808420Y3985179D01*
X3810040Y3985460D01*
X3811620Y3985059D01*
X3812919Y3984060D01*
X3813700Y3982620D01*
X3815100Y3978039D01*
X3831780Y3983140D01*
X3826440Y4000659D01*
X3826259Y4002080D01*
X3826620Y4003480D01*
X3827420Y4004660D01*
X3846240Y4023480D01*
X3848380Y4026060D01*
X3849860Y4028840D01*
X3850779Y4031860D01*
X3851100Y4035200D01*
X3851100Y4064340D01*
X3851460Y4066000D01*
X3852460Y4067360D01*
X3853940Y4068180D01*
X3863480Y4071100D01*
X3865740Y4072080D01*
X3867559Y4073420D01*
X3869040Y4075120D01*
X3870100Y4077120D01*
X3870700Y4079280D01*
X3870779Y4081540D01*
X3870320Y4083980D01*
X3856640Y4128740D01*
X3855659Y4131000D01*
X3854320Y4132820D01*
X3852620Y4134300D01*
X3850620Y4135360D01*
X3848440Y4135960D01*
X3846200Y4136040D01*
X3843759Y4135580D01*
X3806540Y4124200D01*
X3804260Y4123220D01*
X3802440Y4121880D01*
X3800960Y4120179D01*
X3799900Y4118180D01*
X3799320Y4116000D01*
X3799220Y4113759D01*
X3799680Y4111320D01*
X3813360Y4066560D01*
X3814340Y4064280D01*
X3815680Y4062460D01*
X3817520Y4060880D01*
X3818540Y4059520D01*
X3818900Y4057860D01*
X3818900Y4043320D01*
X3818600Y4041800D01*
X3817720Y4040500D01*
X3768759Y3991520D01*
X3766620Y3988940D01*
X3765140Y3986160D01*
X3764740Y3984800D01*
X3764160Y3983639D01*
X3763240Y3982720D01*
X3762080Y3982140D01*
X3751520Y3978900D01*
X3749260Y3977919D01*
X3747440Y3976580D01*
X3745960Y3974880D01*
X3744900Y3972880D01*
X3744300Y3970720D01*
X3744220Y3968460D01*
X3744680Y3966019D01*
X3758360Y3921259D01*
X3759340Y3919000D01*
X3760680Y3917180D01*
X3762380Y3915700D01*
X3764380Y3914640D01*
X3766560Y3914040D01*
G37*
G36*
X3836580Y3934680D02*
G01*
X3839020Y3935140D01*
X3845820Y3937220D01*
X3840160Y3955779D01*
X3823480Y3950680D01*
X3826120Y3941980D01*
X3827120Y3939720D01*
X3828460Y3937900D01*
X3830160Y3936420D01*
X3832140Y3935360D01*
X3834320Y3934760D01*
G37*
G36*
X3869440Y3944440D02*
G01*
X3876240Y3946520D01*
X3878519Y3947500D01*
X3880340Y3948840D01*
X3881820Y3950539D01*
X3882880Y3952540D01*
X3883460Y3954720D01*
X3883560Y3956960D01*
X3883100Y3959400D01*
X3880440Y3968100D01*
X3863759Y3963000D01*
G37*
G36*
X3563800Y3973960D02*
G01*
X3566240Y3974420D01*
X3603460Y3985800D01*
X3605740Y3986780D01*
X3607559Y3988120D01*
X3609040Y3989820D01*
X3610100Y3991820D01*
X3610680Y3994000D01*
X3610779Y3996240D01*
X3610320Y3998680D01*
X3596640Y4043440D01*
X3596100Y4045520D01*
X3596100Y4096680D01*
X3596400Y4098200D01*
X3597280Y4099500D01*
X3616240Y4118480D01*
X3618380Y4121060D01*
X3619860Y4123840D01*
X3620779Y4126860D01*
X3621100Y4130200D01*
X3621100Y4164340D01*
X3621460Y4166000D01*
X3622460Y4167360D01*
X3623940Y4168180D01*
X3633480Y4171100D01*
X3635740Y4172080D01*
X3637559Y4173420D01*
X3639040Y4175120D01*
X3640100Y4177120D01*
X3640700Y4179280D01*
X3640779Y4181540D01*
X3640320Y4183980D01*
X3626640Y4228740D01*
X3625659Y4231000D01*
X3624320Y4232820D01*
X3622620Y4234300D01*
X3620620Y4235360D01*
X3618440Y4235960D01*
X3616200Y4236040D01*
X3613759Y4235580D01*
X3576540Y4224200D01*
X3574260Y4223220D01*
X3572440Y4221880D01*
X3570960Y4220180D01*
X3569900Y4218180D01*
X3569320Y4216000D01*
X3569220Y4213760D01*
X3569680Y4211320D01*
X3583360Y4166560D01*
X3584340Y4164280D01*
X3585680Y4162460D01*
X3587520Y4160880D01*
X3588540Y4159520D01*
X3588900Y4157860D01*
X3588900Y4138320D01*
X3588600Y4136800D01*
X3587720Y4135500D01*
X3568759Y4116520D01*
X3566620Y4113940D01*
X3565140Y4111160D01*
X3564220Y4108140D01*
X3563900Y4104800D01*
X3563900Y4047180D01*
X3563540Y4045539D01*
X3562540Y4044180D01*
X3561060Y4043360D01*
X3546520Y4038900D01*
X3544260Y4037919D01*
X3542440Y4036580D01*
X3540960Y4034880D01*
X3539900Y4032880D01*
X3539300Y4030720D01*
X3539220Y4028460D01*
X3539680Y4026019D01*
X3553360Y3981259D01*
X3554340Y3979000D01*
X3555680Y3977180D01*
X3557380Y3975700D01*
X3559380Y3974640D01*
X3561560Y3974040D01*
G37*
G36*
X3855400Y3990360D02*
G01*
X3872080Y3995460D01*
X3869420Y4004160D01*
X3868420Y4006440D01*
X3867100Y4008260D01*
X3865380Y4009720D01*
X3863399Y4010779D01*
X3861220Y4011380D01*
X3858960Y4011460D01*
X3856520Y4011019D01*
X3849720Y4008920D01*
G37*
G36*
X3631580Y3994680D02*
G01*
X3634020Y3995140D01*
X3640820Y3997220D01*
X3635160Y4015779D01*
X3618480Y4010680D01*
X3621120Y4001980D01*
X3622120Y3999720D01*
X3623460Y3997900D01*
X3625160Y3996420D01*
X3627140Y3995360D01*
X3629320Y3994760D01*
G37*
G36*
X3664440Y4004440D02*
G01*
X3671240Y4006520D01*
X3673519Y4007500D01*
X3675340Y4008840D01*
X3676820Y4010539D01*
X3677880Y4012540D01*
X3678460Y4014720D01*
X3678560Y4016960D01*
X3678100Y4019400D01*
X3675440Y4028100D01*
X3658759Y4023000D01*
G37*
G36*
X3730000Y4032919D02*
G01*
X3733840Y4033260D01*
X3737559Y4034240D01*
X3741040Y4035880D01*
X3744200Y4038080D01*
X3745419Y4039300D01*
X3746840Y4040220D01*
X3748500Y4040460D01*
X3750120Y4040000D01*
X3751600Y4039220D01*
X3753780Y4038620D01*
X3756040Y4038540D01*
X3758480Y4038980D01*
X3795700Y4050360D01*
X3797980Y4051360D01*
X3799800Y4052700D01*
X3801280Y4054400D01*
X3802320Y4056380D01*
X3802919Y4058560D01*
X3803000Y4060820D01*
X3802559Y4063260D01*
X3788880Y4108020D01*
X3787880Y4110280D01*
X3786540Y4112100D01*
X3784840Y4113580D01*
X3782860Y4114640D01*
X3780680Y4115240D01*
X3778420Y4115320D01*
X3775980Y4114860D01*
X3738759Y4103480D01*
X3736480Y4102500D01*
X3734660Y4101160D01*
X3733180Y4099460D01*
X3732120Y4097460D01*
X3731540Y4095280D01*
X3731440Y4093039D01*
X3731900Y4090600D01*
X3733100Y4086700D01*
X3733260Y4085280D01*
X3732919Y4083880D01*
X3732100Y4082700D01*
X3726900Y4077500D01*
X3726080Y4076860D01*
X3725120Y4076460D01*
X3722440Y4075760D01*
X3718960Y4074120D01*
X3715800Y4071920D01*
X3713080Y4069200D01*
X3710880Y4066040D01*
X3709240Y4062559D01*
X3708260Y4058840D01*
X3707919Y4055000D01*
X3708260Y4051160D01*
X3709240Y4047440D01*
X3710880Y4043960D01*
X3713080Y4040800D01*
X3715800Y4038080D01*
X3718960Y4035880D01*
X3722440Y4034240D01*
X3726160Y4033260D01*
G37*
G36*
X3610100Y4038039D02*
G01*
X3626780Y4043140D01*
X3621100Y4061720D01*
X3614300Y4059640D01*
X3612020Y4058639D01*
X3610200Y4057300D01*
X3608720Y4055600D01*
X3607679Y4053620D01*
X3607080Y4051440D01*
X3607000Y4049180D01*
X3607440Y4046740D01*
G37*
G36*
X3650400Y4050360D02*
G01*
X3667080Y4055460D01*
X3664420Y4064160D01*
X3663420Y4066440D01*
X3662100Y4068260D01*
X3660380Y4069720D01*
X3658399Y4070779D01*
X3656220Y4071380D01*
X3653960Y4071460D01*
X3651520Y4071019D01*
X3644720Y4068920D01*
G37*
G36*
X1980000Y4110700D02*
G01*
X1986639Y4111060D01*
X1993200Y4112180D01*
X1999580Y4114020D01*
X2005740Y4116560D01*
X2011560Y4119780D01*
X2016980Y4123639D01*
X2021940Y4128060D01*
X2026360Y4133020D01*
X2030220Y4138440D01*
X2033440Y4144260D01*
X2035980Y4150419D01*
X2037820Y4156800D01*
X2038940Y4163360D01*
X2039300Y4170000D01*
X2038940Y4176640D01*
X2037820Y4183200D01*
X2035980Y4189580D01*
X2033440Y4195740D01*
X2030220Y4201560D01*
X2026360Y4206980D01*
X2021940Y4211940D01*
X2016980Y4216360D01*
X2011560Y4220220D01*
X2005740Y4223440D01*
X1999580Y4225980D01*
X1993200Y4227820D01*
X1986639Y4228940D01*
X1980000Y4229300D01*
X1973360Y4228940D01*
X1966800Y4227820D01*
X1960420Y4225980D01*
X1954259Y4223440D01*
X1948440Y4220220D01*
X1943020Y4216360D01*
X1938060Y4211940D01*
X1933640Y4206980D01*
X1929780Y4201560D01*
X1926560Y4195740D01*
X1924019Y4189580D01*
X1922180Y4183200D01*
X1921060Y4176640D01*
X1920700Y4170000D01*
X1921060Y4163360D01*
X1922180Y4156800D01*
X1924019Y4150419D01*
X1926560Y4144260D01*
X1929780Y4138440D01*
X1933640Y4133020D01*
X1938060Y4128060D01*
X1943020Y4123639D01*
X1948440Y4119780D01*
X1954259Y4116560D01*
X1960420Y4114020D01*
X1966800Y4112180D01*
X1973360Y4111060D01*
G37*
G36*
X3505000Y4132919D02*
G01*
X3508840Y4133260D01*
X3512559Y4134240D01*
X3516040Y4135880D01*
X3519480Y4138279D01*
X3521060Y4138940D01*
X3522780Y4138880D01*
X3523759Y4138620D01*
X3526040Y4138540D01*
X3528480Y4138980D01*
X3565700Y4150360D01*
X3567980Y4151360D01*
X3569800Y4152700D01*
X3571280Y4154400D01*
X3572320Y4156380D01*
X3572919Y4158560D01*
X3573000Y4160820D01*
X3572559Y4163260D01*
X3558880Y4208020D01*
X3557880Y4210280D01*
X3556540Y4212100D01*
X3554840Y4213580D01*
X3552860Y4214640D01*
X3550680Y4215240D01*
X3548420Y4215320D01*
X3545980Y4214860D01*
X3508759Y4203480D01*
X3506480Y4202500D01*
X3504660Y4201160D01*
X3503180Y4199460D01*
X3502120Y4197460D01*
X3501540Y4195280D01*
X3501440Y4193039D01*
X3501900Y4190600D01*
X3504260Y4182860D01*
X3504440Y4181440D01*
X3504080Y4180040D01*
X3503279Y4178860D01*
X3501900Y4177500D01*
X3501080Y4176860D01*
X3500120Y4176460D01*
X3497440Y4175760D01*
X3493960Y4174120D01*
X3490800Y4171920D01*
X3488080Y4169200D01*
X3485880Y4166040D01*
X3484240Y4162559D01*
X3483260Y4158840D01*
X3482919Y4155000D01*
X3483260Y4151160D01*
X3484240Y4147440D01*
X3485880Y4143960D01*
X3488080Y4140800D01*
X3490800Y4138080D01*
X3493960Y4135880D01*
X3497440Y4134240D01*
X3501160Y4133260D01*
G37*
G36*
X3723800Y4143960D02*
G01*
X3726240Y4144420D01*
X3763460Y4155800D01*
X3765740Y4156780D01*
X3767559Y4158120D01*
X3769040Y4159820D01*
X3770100Y4161820D01*
X3770680Y4164000D01*
X3770779Y4166240D01*
X3770320Y4168680D01*
X3756640Y4213440D01*
X3755659Y4215720D01*
X3754320Y4217540D01*
X3752480Y4219120D01*
X3751460Y4220480D01*
X3751100Y4222140D01*
X3751100Y4226680D01*
X3751400Y4228200D01*
X3752280Y4229500D01*
X3805240Y4282480D01*
X3807380Y4285060D01*
X3808860Y4287840D01*
X3809780Y4290860D01*
X3810100Y4294200D01*
X3810100Y4362800D01*
X3810400Y4364340D01*
X3811280Y4365640D01*
X3831640Y4386000D01*
X3833180Y4387940D01*
X3834160Y4389960D01*
X3834660Y4392160D01*
X3834660Y4394420D01*
X3834160Y4396620D01*
X3833180Y4398660D01*
X3831640Y4400600D01*
X3798540Y4433680D01*
X3796600Y4435240D01*
X3794580Y4436220D01*
X3792380Y4436720D01*
X3790120Y4436720D01*
X3787919Y4436220D01*
X3785880Y4435240D01*
X3783940Y4433680D01*
X3756420Y4406160D01*
X3754880Y4404220D01*
X3753900Y4402200D01*
X3753399Y4400000D01*
X3753399Y4397740D01*
X3753900Y4395540D01*
X3754880Y4393500D01*
X3756420Y4391560D01*
X3776720Y4371260D01*
X3777600Y4369960D01*
X3777900Y4368440D01*
X3777900Y4363760D01*
X3777600Y4362240D01*
X3776720Y4360940D01*
X3775440Y4360080D01*
X3773900Y4359760D01*
X3772360Y4360080D01*
X3771080Y4360940D01*
X3748440Y4383580D01*
X3746500Y4385120D01*
X3744460Y4386100D01*
X3742260Y4386600D01*
X3740000Y4386600D01*
X3737799Y4386100D01*
X3735779Y4385120D01*
X3733840Y4383580D01*
X3706320Y4356060D01*
X3704760Y4354120D01*
X3703780Y4352080D01*
X3703279Y4349880D01*
X3703279Y4347620D01*
X3703780Y4345420D01*
X3704760Y4343400D01*
X3706320Y4341460D01*
X3708260Y4339500D01*
X3709120Y4338220D01*
X3709420Y4336680D01*
X3709120Y4335160D01*
X3708260Y4333860D01*
X3706900Y4332500D01*
X3706080Y4331860D01*
X3705120Y4331460D01*
X3702440Y4330760D01*
X3698960Y4329120D01*
X3695800Y4326920D01*
X3693080Y4324200D01*
X3690880Y4321040D01*
X3689240Y4317560D01*
X3688260Y4313840D01*
X3687919Y4310000D01*
X3688260Y4306160D01*
X3689240Y4302440D01*
X3690880Y4298960D01*
X3693080Y4295800D01*
X3695800Y4293080D01*
X3698960Y4290880D01*
X3702440Y4289240D01*
X3706160Y4288260D01*
X3710000Y4287920D01*
X3713840Y4288260D01*
X3717559Y4289240D01*
X3721040Y4290880D01*
X3724200Y4293080D01*
X3726920Y4295800D01*
X3729120Y4298960D01*
X3730760Y4302440D01*
X3731460Y4305120D01*
X3731860Y4306080D01*
X3732500Y4306900D01*
X3733860Y4308260D01*
X3735059Y4309080D01*
X3736460Y4309420D01*
X3737900Y4309240D01*
X3739180Y4308540D01*
X3741340Y4306820D01*
X3743380Y4305840D01*
X3745580Y4305340D01*
X3747840Y4305340D01*
X3750040Y4305840D01*
X3752060Y4306820D01*
X3754000Y4308360D01*
X3771080Y4325420D01*
X3772360Y4326300D01*
X3773900Y4326600D01*
X3775440Y4326300D01*
X3776720Y4325420D01*
X3777600Y4324140D01*
X3777900Y4322600D01*
X3777900Y4302320D01*
X3777600Y4300800D01*
X3776720Y4299500D01*
X3723759Y4246520D01*
X3721620Y4243940D01*
X3720140Y4241160D01*
X3719220Y4238140D01*
X3718900Y4234800D01*
X3718900Y4215660D01*
X3718540Y4214000D01*
X3717540Y4212640D01*
X3716060Y4211820D01*
X3706520Y4208900D01*
X3704260Y4207920D01*
X3702440Y4206580D01*
X3700960Y4204880D01*
X3699900Y4202880D01*
X3699300Y4200720D01*
X3699220Y4198460D01*
X3699680Y4196020D01*
X3713360Y4151259D01*
X3714340Y4149000D01*
X3715680Y4147180D01*
X3717380Y4145700D01*
X3719380Y4144640D01*
X3721560Y4144040D01*
G37*
G36*
X3791580Y4164680D02*
G01*
X3794020Y4165140D01*
X3800820Y4167220D01*
X3795160Y4185779D01*
X3778480Y4180680D01*
X3781120Y4171980D01*
X3782120Y4169720D01*
X3783460Y4167900D01*
X3785160Y4166420D01*
X3787140Y4165360D01*
X3789320Y4164760D01*
G37*
G36*
X3824440Y4174440D02*
G01*
X3831240Y4176520D01*
X3833519Y4177500D01*
X3835340Y4178840D01*
X3836820Y4180539D01*
X3837880Y4182540D01*
X3838460Y4184720D01*
X3838560Y4186960D01*
X3838100Y4189400D01*
X3835440Y4198100D01*
X3818759Y4193000D01*
G37*
G36*
X3770100Y4208040D02*
G01*
X3786780Y4213140D01*
X3781100Y4231720D01*
X3774300Y4229640D01*
X3772020Y4228640D01*
X3770200Y4227300D01*
X3768720Y4225600D01*
X3767679Y4223620D01*
X3767080Y4221440D01*
X3767000Y4219180D01*
X3767440Y4216740D01*
G37*
G36*
X3810400Y4220360D02*
G01*
X3827080Y4225460D01*
X3824420Y4234160D01*
X3823420Y4236440D01*
X3822100Y4238260D01*
X3820380Y4239720D01*
X3818399Y4240780D01*
X3816220Y4241380D01*
X3813960Y4241460D01*
X3811520Y4241020D01*
X3804720Y4238920D01*
G37*
G36*
X3493800Y4243960D02*
G01*
X3496240Y4244420D01*
X3533460Y4255800D01*
X3535740Y4256780D01*
X3537559Y4258120D01*
X3539040Y4259820D01*
X3540100Y4261820D01*
X3540680Y4264000D01*
X3540779Y4266240D01*
X3540320Y4268680D01*
X3526640Y4313440D01*
X3525659Y4315720D01*
X3524320Y4317540D01*
X3522480Y4319120D01*
X3521460Y4320480D01*
X3521100Y4322140D01*
X3521100Y4411500D01*
X3520779Y4414820D01*
X3519860Y4417840D01*
X3518380Y4420620D01*
X3516240Y4423220D01*
X3501560Y4437900D01*
X3500760Y4439060D01*
X3500400Y4440420D01*
X3500539Y4441820D01*
X3501160Y4443080D01*
X3504140Y4447200D01*
X3505360Y4449360D01*
X3506019Y4451520D01*
X3506160Y4453760D01*
X3505820Y4456000D01*
X3504980Y4458080D01*
X3503680Y4459940D01*
X3501860Y4461620D01*
X3464000Y4489120D01*
X3461840Y4490340D01*
X3459680Y4491000D01*
X3457420Y4491140D01*
X3455200Y4490800D01*
X3453100Y4489960D01*
X3451259Y4488660D01*
X3449580Y4486840D01*
X3426700Y4455340D01*
X3425480Y4453180D01*
X3424820Y4451020D01*
X3424680Y4448780D01*
X3425020Y4446540D01*
X3425860Y4444460D01*
X3427160Y4442600D01*
X3428980Y4440920D01*
X3466840Y4413420D01*
X3469000Y4412200D01*
X3471160Y4411540D01*
X3473420Y4411400D01*
X3475640Y4411740D01*
X3477860Y4412640D01*
X3479380Y4412920D01*
X3480880Y4412620D01*
X3482180Y4411760D01*
X3487720Y4406200D01*
X3488600Y4404900D01*
X3488900Y4403360D01*
X3488900Y4315660D01*
X3488540Y4314000D01*
X3487540Y4312640D01*
X3486060Y4311820D01*
X3476520Y4308900D01*
X3474260Y4307920D01*
X3472440Y4306580D01*
X3470960Y4304880D01*
X3469900Y4302880D01*
X3469300Y4300720D01*
X3469220Y4298460D01*
X3469680Y4296020D01*
X3483360Y4251260D01*
X3484340Y4249000D01*
X3485680Y4247180D01*
X3487380Y4245700D01*
X3489380Y4244640D01*
X3491560Y4244040D01*
G37*
G36*
X3561580Y4264680D02*
G01*
X3564020Y4265140D01*
X3570820Y4267220D01*
X3565160Y4285780D01*
X3548480Y4280680D01*
X3551120Y4271980D01*
X3552120Y4269720D01*
X3553460Y4267900D01*
X3555160Y4266420D01*
X3557140Y4265360D01*
X3559320Y4264760D01*
G37*
G36*
X3594440Y4274440D02*
G01*
X3601240Y4276520D01*
X3603519Y4277500D01*
X3605340Y4278840D01*
X3606820Y4280540D01*
X3607880Y4282540D01*
X3608460Y4284720D01*
X3608560Y4286960D01*
X3608100Y4289400D01*
X3605440Y4298100D01*
X3588759Y4293000D01*
G37*
G36*
X3540100Y4308040D02*
G01*
X3556780Y4313140D01*
X3551100Y4331720D01*
X3544300Y4329640D01*
X3542020Y4328640D01*
X3540200Y4327300D01*
X3538720Y4325600D01*
X3537679Y4323620D01*
X3537080Y4321440D01*
X3537000Y4319180D01*
X3537440Y4316740D01*
G37*
G36*
X3580400Y4320360D02*
G01*
X3597080Y4325460D01*
X3594420Y4334160D01*
X3593420Y4336440D01*
X3592100Y4338260D01*
X3590380Y4339720D01*
X3588399Y4340780D01*
X3586220Y4341380D01*
X3583960Y4341460D01*
X3581520Y4341020D01*
X3574720Y4338920D01*
G37*
G36*
X3405000Y4332920D02*
G01*
X3408840Y4333260D01*
X3412559Y4334240D01*
X3416040Y4335880D01*
X3419200Y4338080D01*
X3421920Y4340800D01*
X3424120Y4343960D01*
X3425760Y4347440D01*
X3426460Y4350120D01*
X3426860Y4351080D01*
X3428500Y4352900D01*
X3429920Y4353820D01*
X3433980Y4354420D01*
X3436080Y4355260D01*
X3437940Y4356540D01*
X3439600Y4358360D01*
X3462480Y4389860D01*
X3463720Y4392020D01*
X3464360Y4394180D01*
X3464520Y4396420D01*
X3464160Y4398660D01*
X3463320Y4400740D01*
X3462040Y4402600D01*
X3460200Y4404280D01*
X3422340Y4431780D01*
X3420179Y4433000D01*
X3418020Y4433660D01*
X3415779Y4433800D01*
X3413540Y4433460D01*
X3411460Y4432620D01*
X3409600Y4431340D01*
X3407919Y4429500D01*
X3385040Y4398020D01*
X3383820Y4395860D01*
X3383180Y4393700D01*
X3383020Y4391440D01*
X3383380Y4389220D01*
X3384220Y4387120D01*
X3385500Y4385260D01*
X3387320Y4383600D01*
X3392679Y4379700D01*
X3393720Y4378600D01*
X3394260Y4377180D01*
X3394240Y4375680D01*
X3393680Y4374280D01*
X3392620Y4373200D01*
X3390800Y4371920D01*
X3388080Y4369200D01*
X3385880Y4366040D01*
X3384240Y4362560D01*
X3383260Y4358840D01*
X3382919Y4355000D01*
X3383260Y4351160D01*
X3384240Y4347440D01*
X3385880Y4343960D01*
X3388080Y4340800D01*
X3390800Y4338080D01*
X3393960Y4335880D01*
X3397440Y4334240D01*
X3401160Y4333260D01*
G37*
G36*
X3667620Y4383280D02*
G01*
X3669880Y4383280D01*
X3672080Y4383780D01*
X3674120Y4384760D01*
X3676060Y4386320D01*
X3703580Y4413840D01*
X3705120Y4415780D01*
X3706100Y4417800D01*
X3706600Y4420000D01*
X3706600Y4422260D01*
X3706100Y4424460D01*
X3705120Y4426500D01*
X3703580Y4428440D01*
X3672280Y4459740D01*
X3671400Y4461040D01*
X3671100Y4462560D01*
X3671100Y4467340D01*
X3671440Y4468940D01*
X3672380Y4470260D01*
X3673780Y4471100D01*
X3675400Y4471320D01*
X3676960Y4470860D01*
X3678480Y4469520D01*
X3684900Y4463100D01*
X3697240Y4475420D01*
X3683500Y4489140D01*
X3678480Y4484120D01*
X3676960Y4482760D01*
X3675400Y4482320D01*
X3673780Y4482520D01*
X3672380Y4483360D01*
X3671440Y4484700D01*
X3671100Y4486300D01*
X3671100Y4529800D01*
X3670779Y4533140D01*
X3669860Y4536160D01*
X3668380Y4538940D01*
X3666240Y4541520D01*
X3656139Y4551640D01*
X3655340Y4552780D01*
X3654980Y4554120D01*
X3655100Y4555500D01*
X3655680Y4556760D01*
X3664260Y4569000D01*
X3665440Y4571180D01*
X3666060Y4573360D01*
X3666180Y4575620D01*
X3665779Y4577840D01*
X3664900Y4579920D01*
X3663580Y4581740D01*
X3661720Y4583380D01*
X3623399Y4610220D01*
X3621220Y4611420D01*
X3619040Y4612020D01*
X3616780Y4612140D01*
X3614560Y4611740D01*
X3612480Y4610880D01*
X3610659Y4609560D01*
X3609020Y4607700D01*
X3586700Y4575820D01*
X3585500Y4573640D01*
X3584900Y4571460D01*
X3584780Y4569200D01*
X3585179Y4566980D01*
X3586040Y4564900D01*
X3587360Y4563080D01*
X3589220Y4561440D01*
X3628080Y4534160D01*
X3637720Y4524500D01*
X3638600Y4523200D01*
X3638900Y4521680D01*
X3638900Y4446200D01*
X3638600Y4444660D01*
X3637720Y4443360D01*
X3628360Y4434000D01*
X3626820Y4432060D01*
X3625840Y4430040D01*
X3625340Y4427840D01*
X3625340Y4425580D01*
X3625840Y4423380D01*
X3626820Y4421340D01*
X3628360Y4419400D01*
X3661460Y4386320D01*
X3663399Y4384760D01*
X3665419Y4383780D01*
G37*
G36*
X3342580Y4418860D02*
G01*
X3344800Y4419200D01*
X3346900Y4420040D01*
X3348740Y4421340D01*
X3350419Y4423160D01*
X3373300Y4454660D01*
X3374520Y4456820D01*
X3375179Y4458980D01*
X3375320Y4461220D01*
X3374980Y4463460D01*
X3374140Y4465540D01*
X3372840Y4467400D01*
X3371019Y4469080D01*
X3333159Y4496580D01*
X3331000Y4497800D01*
X3328840Y4498460D01*
X3326580Y4498600D01*
X3325720Y4498460D01*
X3324020Y4498580D01*
X3322500Y4499380D01*
X3321460Y4500740D01*
X3321100Y4502420D01*
X3321100Y4521680D01*
X3321400Y4523200D01*
X3322280Y4524500D01*
X3353660Y4555880D01*
X3355080Y4556800D01*
X3356760Y4557060D01*
X3357060Y4557380D01*
X3357320Y4559040D01*
X3358220Y4560460D01*
X3391240Y4593480D01*
X3393380Y4596060D01*
X3394860Y4598840D01*
X3395779Y4601860D01*
X3396100Y4605200D01*
X3396100Y4629800D01*
X3395779Y4633140D01*
X3394860Y4636160D01*
X3393380Y4638940D01*
X3391240Y4641520D01*
X3363260Y4669520D01*
X3362400Y4670800D01*
X3362080Y4672320D01*
X3362380Y4673840D01*
X3367940Y4687620D01*
X3368600Y4690000D01*
X3368720Y4692260D01*
X3368320Y4694480D01*
X3367440Y4696560D01*
X3366120Y4698380D01*
X3364420Y4699880D01*
X3362240Y4701060D01*
X3318840Y4718580D01*
X3316460Y4719260D01*
X3314200Y4719360D01*
X3311980Y4718960D01*
X3309900Y4718080D01*
X3308080Y4716760D01*
X3306580Y4715060D01*
X3305400Y4712880D01*
X3290820Y4676800D01*
X3290160Y4674400D01*
X3290059Y4672160D01*
X3290440Y4669920D01*
X3291340Y4667860D01*
X3292660Y4666020D01*
X3294340Y4664540D01*
X3296520Y4663360D01*
X3339920Y4645820D01*
X3341920Y4645140D01*
X3342720Y4644500D01*
X3362720Y4624500D01*
X3363600Y4623200D01*
X3363900Y4621680D01*
X3363900Y4613320D01*
X3363600Y4611800D01*
X3362720Y4610500D01*
X3332960Y4580720D01*
X3331600Y4579840D01*
X3330020Y4579560D01*
X3328440Y4579940D01*
X3327140Y4580900D01*
X3326340Y4582300D01*
X3326139Y4583920D01*
X3326800Y4585820D01*
X3341380Y4621900D01*
X3342060Y4624300D01*
X3342160Y4626560D01*
X3341760Y4628780D01*
X3340880Y4630840D01*
X3339560Y4632680D01*
X3337860Y4634160D01*
X3335680Y4635340D01*
X3292300Y4652880D01*
X3289900Y4653540D01*
X3287660Y4653660D01*
X3285440Y4653260D01*
X3283360Y4652380D01*
X3281520Y4651060D01*
X3280040Y4649360D01*
X3278860Y4647180D01*
X3264280Y4611080D01*
X3263600Y4608700D01*
X3263500Y4606440D01*
X3263900Y4604220D01*
X3264780Y4602140D01*
X3265400Y4601280D01*
X3266019Y4600020D01*
X3266160Y4598620D01*
X3265800Y4597260D01*
X3265000Y4596100D01*
X3263080Y4594200D01*
X3260880Y4591040D01*
X3259240Y4587560D01*
X3258260Y4583840D01*
X3257919Y4580000D01*
X3258260Y4576160D01*
X3259240Y4572440D01*
X3260880Y4568960D01*
X3263080Y4565800D01*
X3265800Y4563080D01*
X3268960Y4560880D01*
X3272440Y4559240D01*
X3276160Y4558260D01*
X3280000Y4557920D01*
X3283840Y4558260D01*
X3287559Y4559240D01*
X3291040Y4560880D01*
X3294200Y4563080D01*
X3296920Y4565800D01*
X3299120Y4568960D01*
X3300760Y4572440D01*
X3301460Y4575120D01*
X3301860Y4576080D01*
X3302500Y4576900D01*
X3306040Y4580440D01*
X3307340Y4581300D01*
X3308860Y4581620D01*
X3310380Y4581320D01*
X3313360Y4580120D01*
X3315760Y4579440D01*
X3318020Y4579340D01*
X3320240Y4579740D01*
X3321680Y4580360D01*
X3323220Y4580680D01*
X3324760Y4580380D01*
X3326060Y4579520D01*
X3326940Y4578220D01*
X3327240Y4576680D01*
X3326940Y4575140D01*
X3326080Y4573840D01*
X3293759Y4541520D01*
X3291620Y4538940D01*
X3290140Y4536160D01*
X3289220Y4533140D01*
X3288900Y4529800D01*
X3288900Y4488500D01*
X3289220Y4485180D01*
X3290140Y4482160D01*
X3291620Y4479380D01*
X3293759Y4476780D01*
X3298440Y4472100D01*
X3299240Y4470940D01*
X3299600Y4469580D01*
X3299460Y4468180D01*
X3298840Y4466920D01*
X3295860Y4462800D01*
X3294640Y4460640D01*
X3293980Y4458480D01*
X3293840Y4456240D01*
X3294180Y4454000D01*
X3295020Y4451920D01*
X3296320Y4450060D01*
X3298140Y4448380D01*
X3336000Y4420880D01*
X3338159Y4419660D01*
X3340320Y4419000D01*
G37*
G36*
X3584840Y4432920D02*
G01*
X3588660Y4433260D01*
X3592380Y4434240D01*
X3595880Y4435880D01*
X3599020Y4438080D01*
X3601740Y4440800D01*
X3603960Y4443960D01*
X3605580Y4447440D01*
X3606580Y4451160D01*
X3606920Y4455000D01*
X3606580Y4458840D01*
X3605580Y4462560D01*
X3603960Y4466040D01*
X3603120Y4467560D01*
X3602919Y4468780D01*
X3602919Y4480160D01*
X3603120Y4481360D01*
X3603660Y4482460D01*
X3623620Y4510960D01*
X3624800Y4513140D01*
X3625419Y4515300D01*
X3625520Y4517560D01*
X3625140Y4519780D01*
X3624260Y4521860D01*
X3622940Y4523700D01*
X3621080Y4525340D01*
X3582740Y4552180D01*
X3580560Y4553360D01*
X3578399Y4553980D01*
X3576139Y4554080D01*
X3573920Y4553700D01*
X3571840Y4552820D01*
X3570000Y4551500D01*
X3568360Y4549640D01*
X3546040Y4517760D01*
X3544860Y4515580D01*
X3544240Y4513400D01*
X3544140Y4511160D01*
X3544520Y4508940D01*
X3545400Y4506860D01*
X3546720Y4505020D01*
X3548580Y4503380D01*
X3565020Y4491860D01*
X3565940Y4490980D01*
X3566520Y4489840D01*
X3566720Y4488580D01*
X3566720Y4468760D01*
X3566540Y4467560D01*
X3565700Y4466040D01*
X3564080Y4462560D01*
X3563080Y4458840D01*
X3562740Y4455000D01*
X3563080Y4451160D01*
X3564080Y4447440D01*
X3565700Y4443960D01*
X3567919Y4440800D01*
X3570640Y4438080D01*
X3573780Y4435880D01*
X3577280Y4434240D01*
X3581000Y4433260D01*
G37*
G36*
X2555000Y4432920D02*
G01*
X2558840Y4433260D01*
X2562559Y4434240D01*
X2566040Y4435880D01*
X2569200Y4438080D01*
X2571920Y4440800D01*
X2574120Y4443960D01*
X2575760Y4447440D01*
X2576740Y4451160D01*
X2577080Y4455000D01*
X2576740Y4458840D01*
X2575760Y4462560D01*
X2574120Y4466040D01*
X2571820Y4469340D01*
X2571280Y4470420D01*
X2571100Y4471620D01*
X2571100Y4492460D01*
X2571440Y4494060D01*
X2572380Y4495400D01*
X2573780Y4496240D01*
X2575400Y4496460D01*
X2576960Y4496000D01*
X2578220Y4494960D01*
X2578960Y4493500D01*
X2579240Y4492440D01*
X2580880Y4488960D01*
X2583080Y4485800D01*
X2585800Y4483080D01*
X2588960Y4480880D01*
X2592440Y4479240D01*
X2596160Y4478260D01*
X2600000Y4477920D01*
X2603840Y4478260D01*
X2607559Y4479240D01*
X2611040Y4480880D01*
X2614200Y4483080D01*
X2616920Y4485800D01*
X2619120Y4488960D01*
X2620760Y4492440D01*
X2621740Y4496160D01*
X2621900Y4497800D01*
X2622260Y4499140D01*
X2623039Y4500280D01*
X2636240Y4513480D01*
X2638380Y4516060D01*
X2639860Y4518840D01*
X2640779Y4521860D01*
X2641100Y4525200D01*
X2641100Y4624800D01*
X2640779Y4628140D01*
X2639860Y4631160D01*
X2638380Y4633940D01*
X2636240Y4636520D01*
X2611520Y4661240D01*
X2608940Y4663380D01*
X2606160Y4664860D01*
X2603140Y4665780D01*
X2599800Y4666100D01*
X2575680Y4666100D01*
X2574200Y4666380D01*
X2572940Y4667200D01*
X2572060Y4668400D01*
X2554700Y4705660D01*
X2553400Y4707780D01*
X2551820Y4709400D01*
X2549920Y4710620D01*
X2547800Y4711400D01*
X2545560Y4711680D01*
X2543320Y4711440D01*
X2540960Y4710660D01*
X2505700Y4694200D01*
X2503580Y4692920D01*
X2501960Y4691340D01*
X2500740Y4689440D01*
X2499960Y4687320D01*
X2499680Y4685080D01*
X2499920Y4682840D01*
X2500700Y4680480D01*
X2523800Y4630940D01*
X2525100Y4628820D01*
X2526680Y4627200D01*
X2528580Y4625980D01*
X2530700Y4625220D01*
X2532920Y4624940D01*
X2535180Y4625160D01*
X2537520Y4625940D01*
X2554140Y4633700D01*
X2555160Y4634020D01*
X2556220Y4634040D01*
X2557740Y4633900D01*
X2591680Y4633900D01*
X2593200Y4633600D01*
X2594500Y4632720D01*
X2607720Y4619500D01*
X2608600Y4618200D01*
X2608900Y4616680D01*
X2608900Y4561060D01*
X2608600Y4559560D01*
X2607760Y4558280D01*
X2606500Y4557400D01*
X2605000Y4557060D01*
X2603480Y4557320D01*
X2602180Y4558140D01*
X2601280Y4559380D01*
X2579700Y4605660D01*
X2578399Y4607780D01*
X2576820Y4609400D01*
X2574920Y4610620D01*
X2572799Y4611400D01*
X2570560Y4611680D01*
X2568320Y4611440D01*
X2565960Y4610660D01*
X2530700Y4594200D01*
X2528580Y4592920D01*
X2526960Y4591340D01*
X2525740Y4589440D01*
X2524960Y4587320D01*
X2524680Y4585080D01*
X2524920Y4582840D01*
X2525700Y4580480D01*
X2538520Y4552980D01*
X2538900Y4551300D01*
X2538900Y4471620D01*
X2538720Y4470420D01*
X2538180Y4469340D01*
X2535880Y4466040D01*
X2534240Y4462560D01*
X2533260Y4458840D01*
X2532920Y4455000D01*
X2533260Y4451160D01*
X2534240Y4447440D01*
X2535880Y4443960D01*
X2538080Y4440800D01*
X2540800Y4438080D01*
X2543960Y4435880D01*
X2547440Y4434240D01*
X2551160Y4433260D01*
G37*
G36*
X3717740Y4433400D02*
G01*
X3720000Y4433400D01*
X3722200Y4433900D01*
X3724220Y4434880D01*
X3726160Y4436420D01*
X3731200Y4441460D01*
X3717480Y4455180D01*
X3705140Y4442860D01*
X3711560Y4436420D01*
X3713500Y4434880D01*
X3715539Y4433900D01*
G37*
G36*
X3748660Y4458920D02*
G01*
X3753680Y4463940D01*
X3755240Y4465880D01*
X3756220Y4467920D01*
X3756720Y4470120D01*
X3756720Y4472380D01*
X3756220Y4474580D01*
X3755240Y4476600D01*
X3753680Y4478540D01*
X3747260Y4484980D01*
X3734920Y4472640D01*
G37*
G36*
X3384220Y4476200D02*
G01*
X3386460Y4476540D01*
X3388540Y4477380D01*
X3390400Y4478660D01*
X3392080Y4480500D01*
X3396259Y4486260D01*
X3380560Y4497660D01*
X3370299Y4483560D01*
X3377660Y4478220D01*
X3379820Y4477000D01*
X3381980Y4476340D01*
G37*
G36*
X2479420Y4488320D02*
G01*
X2481680Y4488560D01*
X2484020Y4489340D01*
X2490480Y4492360D01*
X2481440Y4511720D01*
X2465640Y4504360D01*
X2470300Y4494340D01*
X2471600Y4492220D01*
X2473180Y4490600D01*
X2475080Y4489380D01*
X2477200Y4488600D01*
G37*
G36*
X3714680Y4492880D02*
G01*
X3727020Y4505220D01*
X3720600Y4511640D01*
X3718660Y4513180D01*
X3716620Y4514160D01*
X3714420Y4514660D01*
X3712160Y4514660D01*
X3709960Y4514160D01*
X3707940Y4513180D01*
X3706000Y4511640D01*
X3700960Y4506600D01*
G37*
G36*
X3347160Y4500380D02*
G01*
X3357400Y4514500D01*
X3341700Y4525900D01*
X3337520Y4520140D01*
X3336280Y4517980D01*
X3335640Y4515820D01*
X3335480Y4513580D01*
X3335840Y4511340D01*
X3336680Y4509260D01*
X3337960Y4507400D01*
X3339800Y4505720D01*
G37*
G36*
X2512860Y4502780D02*
G01*
X2519300Y4505800D01*
X2521420Y4507080D01*
X2523040Y4508660D01*
X2524260Y4510560D01*
X2525040Y4512680D01*
X2525320Y4514920D01*
X2525080Y4517160D01*
X2524300Y4519520D01*
X2519620Y4529540D01*
X2503820Y4522160D01*
G37*
G36*
X3410779Y4506220D02*
G01*
X3414960Y4511980D01*
X3416180Y4514140D01*
X3416820Y4516300D01*
X3416980Y4518560D01*
X3416620Y4520780D01*
X3415779Y4522880D01*
X3414500Y4524740D01*
X3412679Y4526400D01*
X3405320Y4531760D01*
X3395059Y4517640D01*
G37*
G36*
X2451880Y4533860D02*
G01*
X2467680Y4541240D01*
X2458640Y4560620D01*
X2452200Y4557600D01*
X2450080Y4556300D01*
X2448460Y4554740D01*
X2447240Y4552840D01*
X2446460Y4550720D01*
X2446180Y4548480D01*
X2446420Y4546240D01*
X2447200Y4543880D01*
G37*
G36*
X3371920Y4534460D02*
G01*
X3382160Y4548580D01*
X3374820Y4553920D01*
X3372660Y4555140D01*
X3370500Y4555780D01*
X3368240Y4555940D01*
X3366019Y4555580D01*
X3363920Y4554740D01*
X3363340Y4554340D01*
X3361780Y4553700D01*
X3360380Y4553740D01*
X3360400Y4552260D01*
X3359720Y4550700D01*
X3356200Y4545880D01*
G37*
G36*
X3503220Y4537860D02*
G01*
X3505440Y4538260D01*
X3507520Y4539120D01*
X3509340Y4540440D01*
X3510980Y4542300D01*
X3533300Y4574180D01*
X3534500Y4576360D01*
X3535100Y4578540D01*
X3535220Y4580800D01*
X3534820Y4583020D01*
X3533960Y4585100D01*
X3532640Y4586920D01*
X3530779Y4588560D01*
X3492440Y4615400D01*
X3490260Y4616600D01*
X3488100Y4617200D01*
X3485840Y4617320D01*
X3483620Y4616920D01*
X3482120Y4616300D01*
X3480580Y4615980D01*
X3479040Y4616280D01*
X3477740Y4617160D01*
X3472280Y4622620D01*
X3471400Y4623920D01*
X3471100Y4625440D01*
X3471100Y4646680D01*
X3471400Y4648200D01*
X3472280Y4649500D01*
X3541240Y4718480D01*
X3543380Y4721060D01*
X3544860Y4723840D01*
X3545779Y4726860D01*
X3546100Y4730200D01*
X3546100Y4797300D01*
X3545779Y4800620D01*
X3544860Y4803640D01*
X3543380Y4806420D01*
X3541240Y4809020D01*
X3533420Y4816840D01*
X3532559Y4818120D01*
X3532240Y4819600D01*
X3532500Y4821100D01*
X3537620Y4834420D01*
X3538240Y4836820D01*
X3538300Y4839060D01*
X3537880Y4841280D01*
X3536960Y4843340D01*
X3535600Y4845140D01*
X3533880Y4846600D01*
X3531680Y4847740D01*
X3487980Y4864520D01*
X3485580Y4865140D01*
X3483340Y4865220D01*
X3481120Y4864780D01*
X3479060Y4863860D01*
X3477260Y4862500D01*
X3475800Y4860780D01*
X3474640Y4858580D01*
X3460700Y4822240D01*
X3460080Y4819840D01*
X3460000Y4817580D01*
X3460440Y4815380D01*
X3461360Y4813320D01*
X3462720Y4811500D01*
X3464440Y4810040D01*
X3466640Y4808900D01*
X3510320Y4792140D01*
X3510899Y4791980D01*
X3512460Y4791200D01*
X3513519Y4789820D01*
X3513900Y4788120D01*
X3513900Y4784220D01*
X3513560Y4782620D01*
X3512620Y4781280D01*
X3511240Y4780440D01*
X3509620Y4780220D01*
X3508060Y4780660D01*
X3506280Y4781580D01*
X3462600Y4798360D01*
X3460179Y4798980D01*
X3457940Y4799040D01*
X3455720Y4798620D01*
X3453660Y4797700D01*
X3451860Y4796340D01*
X3450400Y4794620D01*
X3449260Y4792420D01*
X3435299Y4756080D01*
X3434680Y4753680D01*
X3434620Y4751420D01*
X3435040Y4749220D01*
X3435960Y4747160D01*
X3436400Y4746580D01*
X3437080Y4745080D01*
X3437120Y4743420D01*
X3436460Y4741880D01*
X3435880Y4741040D01*
X3434240Y4737560D01*
X3433260Y4733840D01*
X3432919Y4730000D01*
X3433260Y4726160D01*
X3434240Y4722440D01*
X3435880Y4718960D01*
X3438080Y4715800D01*
X3440800Y4713080D01*
X3443960Y4710880D01*
X3447440Y4709240D01*
X3451160Y4708260D01*
X3455000Y4707920D01*
X3458840Y4708260D01*
X3462559Y4709240D01*
X3466040Y4710880D01*
X3469200Y4713080D01*
X3471920Y4715800D01*
X3474120Y4718960D01*
X3475760Y4722440D01*
X3476320Y4724540D01*
X3477080Y4726020D01*
X3478360Y4727080D01*
X3479980Y4727500D01*
X3481620Y4727240D01*
X3484920Y4725980D01*
X3487340Y4725340D01*
X3489580Y4725280D01*
X3491800Y4725720D01*
X3493720Y4726240D01*
X3495260Y4725960D01*
X3496600Y4725100D01*
X3497480Y4723800D01*
X3497799Y4722260D01*
X3497500Y4720720D01*
X3496640Y4719400D01*
X3443759Y4666520D01*
X3441620Y4663940D01*
X3440140Y4661160D01*
X3439220Y4658140D01*
X3438900Y4654800D01*
X3438900Y4617320D01*
X3439220Y4613980D01*
X3440140Y4610960D01*
X3441620Y4608180D01*
X3443759Y4605600D01*
X3458560Y4590780D01*
X3459360Y4589640D01*
X3459720Y4588300D01*
X3459600Y4586920D01*
X3459020Y4585660D01*
X3455740Y4581000D01*
X3454560Y4578820D01*
X3453940Y4576640D01*
X3453820Y4574380D01*
X3454220Y4572160D01*
X3455100Y4570080D01*
X3456420Y4568260D01*
X3458279Y4566620D01*
X3496600Y4539780D01*
X3498780Y4538580D01*
X3500960Y4537980D01*
G37*
G36*
X2490060Y4551660D02*
G01*
X2505860Y4559040D01*
X2501200Y4569060D01*
X2499900Y4571180D01*
X2498320Y4572800D01*
X2496420Y4574020D01*
X2494300Y4574780D01*
X2492060Y4575060D01*
X2489820Y4574840D01*
X2487480Y4574060D01*
X2481020Y4571040D01*
G37*
G36*
X2454420Y4588320D02*
G01*
X2456680Y4588560D01*
X2459020Y4589340D01*
X2465480Y4592360D01*
X2456440Y4611720D01*
X2440640Y4604360D01*
X2445300Y4594340D01*
X2446600Y4592220D01*
X2448180Y4590600D01*
X2450080Y4589380D01*
X2452200Y4588600D01*
G37*
G36*
X3543860Y4595920D02*
G01*
X3546080Y4596300D01*
X3548159Y4597180D01*
X3550000Y4598500D01*
X3551640Y4600360D01*
X3555720Y4606180D01*
X3539820Y4617320D01*
X3529820Y4603040D01*
X3537260Y4597820D01*
X3539440Y4596640D01*
X3541600Y4596020D01*
G37*
G36*
X2487860Y4602780D02*
G01*
X2494300Y4605800D01*
X2496420Y4607080D01*
X2498040Y4608660D01*
X2499260Y4610560D01*
X2500040Y4612680D01*
X2500320Y4614920D01*
X2500080Y4617160D01*
X2499300Y4619520D01*
X2494620Y4629540D01*
X2478820Y4622160D01*
G37*
G36*
X3506360Y4619460D02*
G01*
X3516380Y4633740D01*
X3500480Y4644880D01*
X3496380Y4639040D01*
X3495200Y4636860D01*
X3494580Y4634700D01*
X3494480Y4632440D01*
X3494860Y4630220D01*
X3495740Y4628140D01*
X3497060Y4626300D01*
X3498920Y4624660D01*
G37*
G36*
X3215800Y4620640D02*
G01*
X3218020Y4621040D01*
X3220100Y4621920D01*
X3221920Y4623240D01*
X3223420Y4624940D01*
X3224600Y4627120D01*
X3239180Y4663200D01*
X3239840Y4665600D01*
X3239940Y4667840D01*
X3239560Y4670080D01*
X3238660Y4672140D01*
X3237340Y4673980D01*
X3235659Y4675460D01*
X3233480Y4676640D01*
X3190080Y4694180D01*
X3186340Y4695200D01*
X3185179Y4696000D01*
X3172280Y4708920D01*
X3171400Y4710220D01*
X3171100Y4711740D01*
X3171100Y4729800D01*
X3170779Y4733140D01*
X3169860Y4736160D01*
X3168380Y4738940D01*
X3166240Y4741520D01*
X3130500Y4777280D01*
X3129640Y4778540D01*
X3129320Y4780040D01*
X3129600Y4781540D01*
X3132620Y4789420D01*
X3133240Y4791820D01*
X3133300Y4794060D01*
X3132880Y4796280D01*
X3131960Y4798340D01*
X3130600Y4800140D01*
X3128880Y4801600D01*
X3126680Y4802740D01*
X3082980Y4819520D01*
X3080580Y4820140D01*
X3078340Y4820220D01*
X3076120Y4819780D01*
X3074060Y4818860D01*
X3072260Y4817500D01*
X3070800Y4815780D01*
X3069640Y4813580D01*
X3055700Y4777240D01*
X3055080Y4774840D01*
X3055000Y4772580D01*
X3055440Y4770380D01*
X3056360Y4768320D01*
X3057720Y4766500D01*
X3059440Y4765040D01*
X3061640Y4763900D01*
X3105320Y4747140D01*
X3107720Y4746520D01*
X3109980Y4746440D01*
X3112700Y4747000D01*
X3114000Y4747040D01*
X3115260Y4746660D01*
X3116320Y4745900D01*
X3137720Y4724500D01*
X3138600Y4723200D01*
X3138900Y4721680D01*
X3138900Y4703620D01*
X3139220Y4700280D01*
X3140140Y4697260D01*
X3141620Y4694480D01*
X3143759Y4691900D01*
X3166300Y4669360D01*
X3167160Y4668080D01*
X3167460Y4666560D01*
X3167180Y4665040D01*
X3162060Y4652380D01*
X3161400Y4650000D01*
X3161280Y4647740D01*
X3161680Y4645520D01*
X3162559Y4643440D01*
X3163880Y4641620D01*
X3165580Y4640120D01*
X3167760Y4638940D01*
X3211160Y4621420D01*
X3213540Y4620740D01*
G37*
G36*
X3569880Y4626420D02*
G01*
X3573960Y4632240D01*
X3575140Y4634420D01*
X3575760Y4636600D01*
X3575860Y4638840D01*
X3575480Y4641060D01*
X3574600Y4643140D01*
X3573279Y4644980D01*
X3571420Y4646620D01*
X3563980Y4651840D01*
X3553980Y4637540D01*
G37*
G36*
X2426880Y4633860D02*
G01*
X2442680Y4641240D01*
X2433640Y4660620D01*
X2427200Y4657600D01*
X2425080Y4656300D01*
X2423460Y4654740D01*
X2422240Y4652840D01*
X2421460Y4650720D01*
X2421180Y4648480D01*
X2421420Y4646240D01*
X2422200Y4643880D01*
G37*
G36*
X2465060Y4651660D02*
G01*
X2480860Y4659040D01*
X2476200Y4669060D01*
X2474900Y4671180D01*
X2473320Y4672800D01*
X2471420Y4674020D01*
X2469300Y4674780D01*
X2467060Y4675060D01*
X2464820Y4674840D01*
X2462480Y4674060D01*
X2456020Y4671040D01*
G37*
G36*
X3530520Y4653960D02*
G01*
X3540539Y4668240D01*
X3533100Y4673460D01*
X3530920Y4674640D01*
X3528740Y4675260D01*
X3526480Y4675380D01*
X3524260Y4674980D01*
X3522180Y4674100D01*
X3520360Y4672780D01*
X3518720Y4670920D01*
X3514620Y4665100D01*
G37*
G36*
X3105000Y4657920D02*
G01*
X3108840Y4658260D01*
X3112559Y4659240D01*
X3116040Y4660880D01*
X3119200Y4663080D01*
X3121920Y4665800D01*
X3124120Y4668960D01*
X3125760Y4672440D01*
X3126740Y4676160D01*
X3127080Y4680000D01*
X3126740Y4683840D01*
X3125760Y4687560D01*
X3124120Y4691040D01*
X3121920Y4694200D01*
X3119200Y4696920D01*
X3116040Y4699120D01*
X3112559Y4700760D01*
X3109880Y4701460D01*
X3108920Y4701860D01*
X3108100Y4702500D01*
X3103540Y4707060D01*
X3102679Y4708320D01*
X3102380Y4709820D01*
X3102640Y4711320D01*
X3107220Y4723240D01*
X3107840Y4725660D01*
X3107900Y4727900D01*
X3107480Y4730120D01*
X3106560Y4732180D01*
X3105200Y4733980D01*
X3103480Y4735440D01*
X3101280Y4736580D01*
X3057600Y4753360D01*
X3055179Y4753980D01*
X3052940Y4754040D01*
X3050720Y4753620D01*
X3048660Y4752700D01*
X3046860Y4751340D01*
X3045400Y4749620D01*
X3044260Y4747420D01*
X3030299Y4711080D01*
X3029680Y4708680D01*
X3029620Y4706420D01*
X3030040Y4704220D01*
X3030960Y4702160D01*
X3032320Y4700340D01*
X3034040Y4698880D01*
X3036240Y4697740D01*
X3076700Y4682220D01*
X3078100Y4681300D01*
X3082500Y4676900D01*
X3083140Y4676080D01*
X3083540Y4675120D01*
X3084240Y4672440D01*
X3085880Y4668960D01*
X3088080Y4665800D01*
X3090800Y4663080D01*
X3093960Y4660880D01*
X3097440Y4659240D01*
X3101160Y4658260D01*
G37*
G36*
X2955000Y4657920D02*
G01*
X2958840Y4658260D01*
X2962559Y4659240D01*
X2966040Y4660880D01*
X2969200Y4663080D01*
X2971920Y4665800D01*
X2974120Y4668960D01*
X2975760Y4672440D01*
X2976740Y4676160D01*
X2977080Y4680000D01*
X2976740Y4683840D01*
X2975760Y4687560D01*
X2974120Y4691040D01*
X2971920Y4694200D01*
X2969200Y4696920D01*
X2966040Y4699120D01*
X2962559Y4700760D01*
X2958840Y4701740D01*
X2955000Y4702080D01*
X2951160Y4701740D01*
X2947440Y4700760D01*
X2943960Y4699120D01*
X2942440Y4698280D01*
X2941240Y4698100D01*
X2864160Y4698100D01*
X2862620Y4698400D01*
X2861320Y4699280D01*
X2759900Y4800700D01*
X2759020Y4802000D01*
X2758720Y4803540D01*
X2758720Y4813880D01*
X2758920Y4815120D01*
X2759480Y4816240D01*
X2760380Y4817120D01*
X2761920Y4818240D01*
X2763420Y4819940D01*
X2764600Y4822120D01*
X2779180Y4858200D01*
X2779840Y4860600D01*
X2779940Y4862840D01*
X2779560Y4865080D01*
X2778660Y4867140D01*
X2777340Y4868980D01*
X2775659Y4870460D01*
X2773480Y4871640D01*
X2730080Y4889180D01*
X2727700Y4889840D01*
X2725440Y4889940D01*
X2723220Y4889560D01*
X2721139Y4888660D01*
X2719320Y4887340D01*
X2717820Y4885660D01*
X2716640Y4883460D01*
X2702060Y4847380D01*
X2701400Y4845000D01*
X2701280Y4842740D01*
X2701680Y4840520D01*
X2702559Y4838440D01*
X2703880Y4836620D01*
X2705580Y4835120D01*
X2707760Y4833940D01*
X2720020Y4829000D01*
X2721340Y4828120D01*
X2722220Y4826820D01*
X2722520Y4825280D01*
X2722540Y4793680D01*
X2723020Y4790240D01*
X2724080Y4787080D01*
X2725700Y4784160D01*
X2727960Y4781460D01*
X2842700Y4666720D01*
X2845480Y4664620D01*
X2848460Y4663140D01*
X2851680Y4662220D01*
X2855179Y4661900D01*
X2941240Y4661900D01*
X2942440Y4661720D01*
X2943960Y4660880D01*
X2947440Y4659240D01*
X2951160Y4658260D01*
G37*
G36*
X3242340Y4686340D02*
G01*
X3244560Y4686740D01*
X3246640Y4687620D01*
X3248480Y4688940D01*
X3249960Y4690640D01*
X3251139Y4692820D01*
X3253820Y4699420D01*
X3235820Y4706700D01*
X3229280Y4690520D01*
X3237700Y4687120D01*
X3240100Y4686460D01*
G37*
G36*
X3202740Y4701240D02*
G01*
X3209280Y4717420D01*
X3191280Y4724700D01*
X3188620Y4718100D01*
X3187940Y4715700D01*
X3187840Y4713440D01*
X3188240Y4711220D01*
X3189120Y4709160D01*
X3190440Y4707320D01*
X3192140Y4705840D01*
X3194320Y4704660D01*
G37*
G36*
X2981660Y4719780D02*
G01*
X2983880Y4720220D01*
X2985940Y4721140D01*
X2987740Y4722500D01*
X2989200Y4724220D01*
X2990360Y4726420D01*
X3004300Y4762760D01*
X3004920Y4765160D01*
X3005000Y4767420D01*
X3004560Y4769620D01*
X3003639Y4771680D01*
X3002280Y4773500D01*
X3000560Y4774960D01*
X2998360Y4776100D01*
X2954680Y4792860D01*
X2952679Y4793380D01*
X2951700Y4793780D01*
X2950860Y4794420D01*
X2922280Y4823020D01*
X2921400Y4824320D01*
X2921100Y4825840D01*
X2921100Y4829800D01*
X2920779Y4833140D01*
X2919860Y4836160D01*
X2918380Y4838940D01*
X2916240Y4841520D01*
X2900380Y4857400D01*
X2899520Y4858680D01*
X2899200Y4860200D01*
X2899500Y4861720D01*
X2907940Y4882620D01*
X2908600Y4885000D01*
X2908720Y4887260D01*
X2908320Y4889480D01*
X2907440Y4891560D01*
X2906120Y4893380D01*
X2904420Y4894880D01*
X2902240Y4896060D01*
X2858840Y4913580D01*
X2856460Y4914260D01*
X2854200Y4914360D01*
X2851980Y4913960D01*
X2849900Y4913080D01*
X2848080Y4911760D01*
X2846580Y4910060D01*
X2845400Y4907880D01*
X2830820Y4871800D01*
X2830160Y4869400D01*
X2830059Y4867160D01*
X2830440Y4864920D01*
X2831340Y4862860D01*
X2832660Y4861020D01*
X2834340Y4859540D01*
X2836520Y4858360D01*
X2864880Y4846900D01*
X2866220Y4846020D01*
X2872180Y4840040D01*
X2873039Y4838760D01*
X2873360Y4837220D01*
X2873060Y4835700D01*
X2872200Y4834400D01*
X2870899Y4833540D01*
X2869380Y4833220D01*
X2867860Y4833520D01*
X2832300Y4847880D01*
X2829900Y4848540D01*
X2827660Y4848660D01*
X2825440Y4848260D01*
X2823360Y4847380D01*
X2821520Y4846060D01*
X2820040Y4844360D01*
X2818860Y4842180D01*
X2804280Y4806080D01*
X2803600Y4803700D01*
X2803500Y4801440D01*
X2803900Y4799220D01*
X2804780Y4797140D01*
X2806100Y4795320D01*
X2807799Y4793820D01*
X2809980Y4792640D01*
X2853360Y4775120D01*
X2857360Y4774120D01*
X2858560Y4773320D01*
X2859400Y4772140D01*
X2860880Y4768960D01*
X2863080Y4765800D01*
X2865800Y4763080D01*
X2868960Y4760880D01*
X2872440Y4759240D01*
X2876160Y4758260D01*
X2880000Y4757920D01*
X2883840Y4758260D01*
X2887559Y4759240D01*
X2891040Y4760880D01*
X2894200Y4763080D01*
X2896920Y4765800D01*
X2899120Y4768960D01*
X2900760Y4772440D01*
X2901740Y4776160D01*
X2902080Y4780000D01*
X2901740Y4783840D01*
X2900760Y4787560D01*
X2900340Y4788440D01*
X2899960Y4789980D01*
X2900220Y4791540D01*
X2901060Y4792880D01*
X2902360Y4793800D01*
X2903920Y4794120D01*
X2905480Y4793840D01*
X2906800Y4792960D01*
X2931580Y4768160D01*
X2932440Y4766900D01*
X2932760Y4765400D01*
X2932500Y4763900D01*
X2927380Y4750580D01*
X2926760Y4748180D01*
X2926700Y4745940D01*
X2927120Y4743720D01*
X2928039Y4741660D01*
X2929400Y4739860D01*
X2931120Y4738400D01*
X2933320Y4737260D01*
X2977020Y4720480D01*
X2979420Y4719860D01*
G37*
G36*
X3263060Y4722320D02*
G01*
X3265720Y4728920D01*
X3266400Y4731300D01*
X3266500Y4733560D01*
X3266100Y4735780D01*
X3265220Y4737860D01*
X3263900Y4739680D01*
X3262200Y4741180D01*
X3260020Y4742360D01*
X3251600Y4745760D01*
X3245059Y4729580D01*
G37*
G36*
X3218519Y4740300D02*
G01*
X3225059Y4756480D01*
X3216640Y4759880D01*
X3214240Y4760560D01*
X3211980Y4760660D01*
X3209760Y4760260D01*
X3207700Y4759380D01*
X3205860Y4758060D01*
X3204380Y4756360D01*
X3203200Y4754180D01*
X3200520Y4747580D01*
G37*
G36*
X3386660Y4764780D02*
G01*
X3388880Y4765220D01*
X3390940Y4766140D01*
X3392740Y4767500D01*
X3394200Y4769220D01*
X3395360Y4771420D01*
X3409300Y4807760D01*
X3409920Y4810160D01*
X3410000Y4812420D01*
X3409560Y4814620D01*
X3408639Y4816680D01*
X3407280Y4818500D01*
X3405560Y4819960D01*
X3403360Y4821100D01*
X3359680Y4837860D01*
X3357679Y4838380D01*
X3356700Y4838780D01*
X3355860Y4839420D01*
X3347280Y4848020D01*
X3346400Y4849320D01*
X3346100Y4850840D01*
X3346100Y4879800D01*
X3345779Y4883140D01*
X3344860Y4886160D01*
X3343380Y4888940D01*
X3341240Y4891520D01*
X3313279Y4919500D01*
X3312420Y4920760D01*
X3312100Y4922260D01*
X3312360Y4923760D01*
X3313240Y4926820D01*
X3313300Y4929060D01*
X3312880Y4931280D01*
X3311960Y4933340D01*
X3310600Y4935140D01*
X3308880Y4936600D01*
X3306680Y4937740D01*
X3262980Y4954520D01*
X3260580Y4955140D01*
X3258340Y4955220D01*
X3256120Y4954780D01*
X3254060Y4953860D01*
X3252260Y4952500D01*
X3250800Y4950780D01*
X3249640Y4948580D01*
X3235700Y4912240D01*
X3235080Y4909840D01*
X3235000Y4907580D01*
X3235440Y4905380D01*
X3236360Y4903320D01*
X3237720Y4901500D01*
X3239440Y4900040D01*
X3241640Y4898900D01*
X3285320Y4882140D01*
X3287720Y4881520D01*
X3289980Y4881440D01*
X3292200Y4881880D01*
X3294260Y4882800D01*
X3296060Y4884160D01*
X3296480Y4884640D01*
X3297760Y4885640D01*
X3299360Y4886040D01*
X3300980Y4885780D01*
X3302360Y4884880D01*
X3312720Y4874500D01*
X3313600Y4873200D01*
X3313900Y4871680D01*
X3313900Y4842720D01*
X3314220Y4839380D01*
X3315140Y4836360D01*
X3316620Y4833580D01*
X3318759Y4831000D01*
X3336580Y4813160D01*
X3337440Y4811900D01*
X3337760Y4810400D01*
X3337500Y4808900D01*
X3332380Y4795580D01*
X3331760Y4793180D01*
X3331700Y4790940D01*
X3332120Y4788720D01*
X3333039Y4786660D01*
X3334400Y4784860D01*
X3336120Y4783400D01*
X3338320Y4782260D01*
X3382020Y4765480D01*
X3384420Y4764860D01*
G37*
G36*
X3280000Y4782920D02*
G01*
X3283840Y4783260D01*
X3287559Y4784240D01*
X3291040Y4785880D01*
X3294200Y4788080D01*
X3296920Y4790800D01*
X3299120Y4793960D01*
X3300760Y4797440D01*
X3301740Y4801160D01*
X3302080Y4805000D01*
X3301740Y4808840D01*
X3300760Y4812560D01*
X3299120Y4816040D01*
X3296920Y4819200D01*
X3294200Y4821920D01*
X3291040Y4824120D01*
X3287559Y4825760D01*
X3284880Y4826460D01*
X3283920Y4826860D01*
X3283100Y4827500D01*
X3279380Y4831220D01*
X3278519Y4832480D01*
X3278220Y4833980D01*
X3278480Y4835480D01*
X3287220Y4858240D01*
X3287840Y4860660D01*
X3287900Y4862900D01*
X3287480Y4865120D01*
X3286560Y4867180D01*
X3285200Y4868980D01*
X3283480Y4870440D01*
X3281280Y4871580D01*
X3237600Y4888360D01*
X3235179Y4888980D01*
X3232940Y4889040D01*
X3230720Y4888620D01*
X3228660Y4887700D01*
X3226860Y4886340D01*
X3225400Y4884620D01*
X3224260Y4882420D01*
X3210299Y4846080D01*
X3209680Y4843680D01*
X3209620Y4841420D01*
X3210040Y4839220D01*
X3210960Y4837160D01*
X3212320Y4835340D01*
X3214040Y4833880D01*
X3216240Y4832740D01*
X3232900Y4826340D01*
X3233800Y4825860D01*
X3234560Y4825160D01*
X3236100Y4823320D01*
X3257500Y4801900D01*
X3258140Y4801080D01*
X3258540Y4800120D01*
X3259240Y4797440D01*
X3260880Y4793960D01*
X3263080Y4790800D01*
X3265800Y4788080D01*
X3268960Y4785880D01*
X3272440Y4784240D01*
X3276160Y4783260D01*
G37*
G36*
X3007060Y4785960D02*
G01*
X3009280Y4786380D01*
X3011340Y4787300D01*
X3013140Y4788660D01*
X3014600Y4790380D01*
X3015740Y4792580D01*
X3018300Y4799220D01*
X3000179Y4806180D01*
X2993920Y4789900D01*
X3002400Y4786640D01*
X3004820Y4786020D01*
G37*
G36*
X2967200Y4800160D02*
G01*
X2973460Y4816440D01*
X2955340Y4823400D01*
X2952780Y4816760D01*
X2952160Y4814340D01*
X2952100Y4812100D01*
X2952520Y4809880D01*
X2953440Y4807820D01*
X2954800Y4806020D01*
X2956520Y4804560D01*
X2958720Y4803420D01*
G37*
G36*
X3027140Y4822280D02*
G01*
X3029700Y4828920D01*
X3030320Y4831320D01*
X3030380Y4833580D01*
X3029960Y4835780D01*
X3029040Y4837840D01*
X3027679Y4839660D01*
X3025960Y4841120D01*
X3023759Y4842260D01*
X3015280Y4845520D01*
X3009020Y4829220D01*
G37*
G36*
X3412060Y4830960D02*
G01*
X3414280Y4831380D01*
X3416340Y4832300D01*
X3418140Y4833660D01*
X3419600Y4835380D01*
X3420740Y4837580D01*
X3423300Y4844220D01*
X3405179Y4851180D01*
X3398920Y4834900D01*
X3407400Y4831640D01*
X3409820Y4831020D01*
G37*
G36*
X2982300Y4839480D02*
G01*
X2988560Y4855780D01*
X2980080Y4859020D01*
X2977660Y4859660D01*
X2975419Y4859720D01*
X2973200Y4859280D01*
X2971139Y4858360D01*
X2969340Y4857020D01*
X2967880Y4855300D01*
X2966740Y4853080D01*
X2964180Y4846440D01*
G37*
G36*
X3372200Y4845160D02*
G01*
X3378460Y4861440D01*
X3360340Y4868400D01*
X3357780Y4861760D01*
X3357160Y4859340D01*
X3357100Y4857100D01*
X3357520Y4854880D01*
X3358440Y4852820D01*
X3359800Y4851020D01*
X3361520Y4849560D01*
X3363720Y4848420D01*
G37*
G36*
X3161660Y4854780D02*
G01*
X3163880Y4855220D01*
X3165940Y4856140D01*
X3167740Y4857500D01*
X3169200Y4859220D01*
X3170360Y4861420D01*
X3184300Y4897760D01*
X3184920Y4900160D01*
X3185000Y4902420D01*
X3184560Y4904620D01*
X3183639Y4906680D01*
X3182280Y4908500D01*
X3180560Y4909960D01*
X3178360Y4911100D01*
X3134680Y4927860D01*
X3132679Y4928380D01*
X3131700Y4928780D01*
X3130860Y4929420D01*
X3122280Y4938020D01*
X3121400Y4939320D01*
X3121100Y4940840D01*
X3121100Y4979800D01*
X3120779Y4983140D01*
X3119860Y4986160D01*
X3118380Y4988940D01*
X3116240Y4991520D01*
X3083200Y5024580D01*
X3080600Y5026700D01*
X3077480Y5028380D01*
X3076280Y5029360D01*
X3075680Y5030080D01*
X3073880Y5031600D01*
X3071680Y5032740D01*
X3027980Y5049520D01*
X3025580Y5050140D01*
X3023340Y5050220D01*
X3021120Y5049780D01*
X3019060Y5048860D01*
X3017260Y5047500D01*
X3015800Y5045780D01*
X3014640Y5043580D01*
X3000700Y5007240D01*
X3000080Y5004840D01*
X3000000Y5002580D01*
X3000440Y5000380D01*
X3001360Y4998320D01*
X3002720Y4996500D01*
X3004440Y4995040D01*
X3006640Y4993900D01*
X3050320Y4977140D01*
X3052720Y4976520D01*
X3054980Y4976440D01*
X3057200Y4976880D01*
X3059260Y4977800D01*
X3061060Y4979160D01*
X3062520Y4980880D01*
X3063660Y4983080D01*
X3065760Y4988520D01*
X3066600Y4989860D01*
X3067900Y4990760D01*
X3069440Y4991080D01*
X3071000Y4990780D01*
X3072320Y4989920D01*
X3087720Y4974500D01*
X3088600Y4973200D01*
X3088900Y4971680D01*
X3088900Y4932720D01*
X3089220Y4929380D01*
X3090140Y4926360D01*
X3091620Y4923580D01*
X3093759Y4921000D01*
X3111580Y4903160D01*
X3112440Y4901900D01*
X3112760Y4900400D01*
X3112500Y4898900D01*
X3107380Y4885580D01*
X3106760Y4883180D01*
X3106700Y4880940D01*
X3107120Y4878720D01*
X3108039Y4876660D01*
X3109400Y4874860D01*
X3111120Y4873400D01*
X3113320Y4872260D01*
X3157020Y4855480D01*
X3159420Y4854860D01*
G37*
G36*
X3432140Y4867280D02*
G01*
X3434700Y4873920D01*
X3435320Y4876320D01*
X3435380Y4878580D01*
X3434960Y4880780D01*
X3434040Y4882840D01*
X3432679Y4884660D01*
X3430960Y4886120D01*
X3428759Y4887260D01*
X3420280Y4890520D01*
X3414020Y4874220D01*
G37*
G36*
X2782340Y4881340D02*
G01*
X2784560Y4881740D01*
X2786640Y4882620D01*
X2788480Y4883940D01*
X2789960Y4885640D01*
X2791139Y4887820D01*
X2793820Y4894420D01*
X2775820Y4901700D01*
X2769280Y4885520D01*
X2777700Y4882120D01*
X2780100Y4881460D01*
G37*
G36*
X3055000Y4882920D02*
G01*
X3058840Y4883260D01*
X3062559Y4884240D01*
X3066040Y4885880D01*
X3069200Y4888080D01*
X3071920Y4890800D01*
X3074120Y4893960D01*
X3075760Y4897440D01*
X3076740Y4901160D01*
X3077080Y4905000D01*
X3076740Y4908840D01*
X3075760Y4912560D01*
X3074120Y4916040D01*
X3071920Y4919200D01*
X3069200Y4921920D01*
X3066040Y4924120D01*
X3062559Y4925760D01*
X3059880Y4926460D01*
X3058920Y4926860D01*
X3058100Y4927500D01*
X3048540Y4937060D01*
X3047679Y4938320D01*
X3047380Y4939820D01*
X3047640Y4941320D01*
X3052220Y4953240D01*
X3052840Y4955660D01*
X3052900Y4957900D01*
X3052480Y4960120D01*
X3051560Y4962180D01*
X3050200Y4963980D01*
X3048480Y4965440D01*
X3046280Y4966580D01*
X3002600Y4983360D01*
X3000179Y4983980D01*
X2997940Y4984040D01*
X2995720Y4983620D01*
X2993660Y4982700D01*
X2991860Y4981340D01*
X2990400Y4979620D01*
X2989260Y4977420D01*
X2975299Y4941080D01*
X2974680Y4938680D01*
X2974620Y4936420D01*
X2975040Y4934220D01*
X2975960Y4932160D01*
X2977320Y4930340D01*
X2979040Y4928880D01*
X2981240Y4927740D01*
X3021700Y4912220D01*
X3023100Y4911300D01*
X3032500Y4901900D01*
X3033140Y4901080D01*
X3033540Y4900120D01*
X3034240Y4897440D01*
X3035880Y4893960D01*
X3038080Y4890800D01*
X3040800Y4888080D01*
X3043960Y4885880D01*
X3047440Y4884240D01*
X3051160Y4883260D01*
G37*
G36*
X3387300Y4884480D02*
G01*
X3393560Y4900780D01*
X3385080Y4904020D01*
X3382660Y4904660D01*
X3380419Y4904720D01*
X3378200Y4904280D01*
X3376139Y4903360D01*
X3374340Y4902020D01*
X3372880Y4900300D01*
X3371740Y4898080D01*
X3369180Y4891440D01*
G37*
G36*
X2742740Y4896240D02*
G01*
X2749280Y4912420D01*
X2731280Y4919700D01*
X2728620Y4913100D01*
X2727940Y4910700D01*
X2727840Y4908440D01*
X2728240Y4906220D01*
X2729120Y4904160D01*
X2730440Y4902320D01*
X2732140Y4900840D01*
X2734320Y4899660D01*
G37*
G36*
X2803060Y4917320D02*
G01*
X2805720Y4923920D01*
X2806400Y4926300D01*
X2806500Y4928560D01*
X2806100Y4930780D01*
X2805220Y4932860D01*
X2803900Y4934680D01*
X2802200Y4936180D01*
X2800020Y4937360D01*
X2791600Y4940760D01*
X2785059Y4924580D01*
G37*
G36*
X3187060Y4920960D02*
G01*
X3189280Y4921380D01*
X3191340Y4922300D01*
X3193140Y4923660D01*
X3194600Y4925380D01*
X3195740Y4927580D01*
X3198300Y4934220D01*
X3180179Y4941180D01*
X3173920Y4924900D01*
X3182400Y4921640D01*
X3184820Y4921020D01*
G37*
G36*
X2675000Y4927920D02*
G01*
X2678840Y4928260D01*
X2682559Y4929240D01*
X2686040Y4930880D01*
X2689200Y4933080D01*
X2691920Y4935800D01*
X2694120Y4938960D01*
X2695760Y4942440D01*
X2696740Y4946160D01*
X2697080Y4950000D01*
X2696740Y4953920D01*
X2696960Y4955640D01*
X2697900Y4957100D01*
X2699360Y4958040D01*
X2701080Y4958260D01*
X2705000Y4957920D01*
X2708840Y4958260D01*
X2712559Y4959240D01*
X2716040Y4960880D01*
X2719340Y4963180D01*
X2720419Y4963720D01*
X2721620Y4963900D01*
X2754800Y4963900D01*
X2758140Y4964220D01*
X2761160Y4965140D01*
X2763940Y4966620D01*
X2766520Y4968760D01*
X2791340Y4993580D01*
X2793460Y4996160D01*
X2794960Y4998940D01*
X2795860Y5001960D01*
X2796200Y5005300D01*
X2796200Y5010780D01*
X2796500Y5012320D01*
X2797360Y5013600D01*
X2798660Y5014480D01*
X2800200Y5014780D01*
X2803519Y5014780D01*
X2805980Y5015060D01*
X2808120Y5015800D01*
X2810020Y5017000D01*
X2811620Y5018600D01*
X2812820Y5020500D01*
X2813560Y5022640D01*
X2813840Y5025100D01*
X2813840Y5064020D01*
X2813560Y5066500D01*
X2812820Y5068620D01*
X2811620Y5070540D01*
X2810020Y5072120D01*
X2808120Y5073320D01*
X2805980Y5074080D01*
X2803519Y5074340D01*
X2756720Y5074340D01*
X2754260Y5074080D01*
X2752120Y5073320D01*
X2750220Y5072120D01*
X2748620Y5070540D01*
X2747420Y5068620D01*
X2746680Y5066500D01*
X2746400Y5064020D01*
X2746400Y5025100D01*
X2746680Y5022640D01*
X2747420Y5020500D01*
X2748620Y5018600D01*
X2750220Y5017000D01*
X2752120Y5015800D01*
X2754260Y5015060D01*
X2757360Y5014780D01*
X2758880Y5014480D01*
X2760179Y5013600D01*
X2761040Y5012320D01*
X2761360Y5010780D01*
X2761040Y5009240D01*
X2760179Y5007960D01*
X2749500Y4997280D01*
X2748200Y4996400D01*
X2746680Y4996100D01*
X2721620Y4996100D01*
X2720419Y4996280D01*
X2719340Y4996820D01*
X2716040Y4999120D01*
X2712559Y5000760D01*
X2708840Y5001740D01*
X2705000Y5002080D01*
X2701160Y5001740D01*
X2697440Y5000760D01*
X2693660Y4999000D01*
X2692120Y4998620D01*
X2690539Y4998880D01*
X2689200Y4999740D01*
X2688300Y5001060D01*
X2687980Y5002620D01*
X2687980Y5010780D01*
X2688279Y5012320D01*
X2689140Y5013600D01*
X2690440Y5014480D01*
X2691980Y5014780D01*
X2693279Y5014780D01*
X2695740Y5015060D01*
X2697880Y5015800D01*
X2699780Y5017000D01*
X2701380Y5018600D01*
X2702580Y5020500D01*
X2703320Y5022640D01*
X2703600Y5025100D01*
X2703600Y5064020D01*
X2703320Y5066500D01*
X2702580Y5068620D01*
X2701380Y5070540D01*
X2699780Y5072120D01*
X2697880Y5073320D01*
X2695740Y5074080D01*
X2693279Y5074340D01*
X2646480Y5074340D01*
X2644020Y5074080D01*
X2641880Y5073320D01*
X2639980Y5072120D01*
X2638380Y5070540D01*
X2637180Y5068620D01*
X2636440Y5066500D01*
X2636160Y5064020D01*
X2636160Y5025100D01*
X2636440Y5022640D01*
X2637180Y5020500D01*
X2638380Y5018600D01*
X2639980Y5017000D01*
X2641880Y5015800D01*
X2644020Y5015060D01*
X2646480Y5014780D01*
X2647780Y5014780D01*
X2649300Y5014480D01*
X2650600Y5013600D01*
X2651480Y5012320D01*
X2651780Y5010780D01*
X2651800Y4954420D01*
X2652280Y4950940D01*
X2653080Y4948100D01*
X2653260Y4946160D01*
X2654240Y4942440D01*
X2655880Y4938960D01*
X2658080Y4935800D01*
X2660800Y4933080D01*
X2663960Y4930880D01*
X2667440Y4929240D01*
X2671160Y4928260D01*
G37*
G36*
X3147200Y4935160D02*
G01*
X3153460Y4951440D01*
X3135340Y4958400D01*
X3132780Y4951760D01*
X3132160Y4949340D01*
X3132100Y4947100D01*
X3132520Y4944880D01*
X3133440Y4942820D01*
X3134800Y4941020D01*
X3136520Y4939560D01*
X3138720Y4938420D01*
G37*
G36*
X2758519Y4935300D02*
G01*
X2765059Y4951480D01*
X2756640Y4954880D01*
X2754240Y4955560D01*
X2751980Y4955660D01*
X2749760Y4955260D01*
X2747700Y4954380D01*
X2745860Y4953060D01*
X2744380Y4951360D01*
X2743200Y4949180D01*
X2740520Y4942580D01*
G37*
G36*
X2926660Y4949780D02*
G01*
X2928880Y4950220D01*
X2930940Y4951140D01*
X2932740Y4952500D01*
X2934200Y4954220D01*
X2935360Y4956420D01*
X2949300Y4992760D01*
X2949920Y4995160D01*
X2950000Y4997420D01*
X2949560Y4999620D01*
X2948639Y5001680D01*
X2947280Y5003500D01*
X2945560Y5004960D01*
X2943360Y5006100D01*
X2899680Y5022860D01*
X2897679Y5023380D01*
X2896700Y5023780D01*
X2895860Y5024420D01*
X2872280Y5048020D01*
X2871400Y5049320D01*
X2871100Y5050840D01*
X2871100Y5079800D01*
X2870779Y5083140D01*
X2869860Y5086160D01*
X2868380Y5088940D01*
X2866240Y5091520D01*
X2831100Y5126680D01*
X2828500Y5128800D01*
X2825720Y5130280D01*
X2822700Y5131200D01*
X2819380Y5131520D01*
X2817799Y5131520D01*
X2816360Y5131799D01*
X2815140Y5132540D01*
X2814240Y5133700D01*
X2813820Y5135080D01*
X2813560Y5137360D01*
X2812820Y5139500D01*
X2811620Y5141400D01*
X2810020Y5143000D01*
X2808120Y5144200D01*
X2805980Y5144940D01*
X2803519Y5145220D01*
X2756720Y5145220D01*
X2754260Y5144940D01*
X2752120Y5144200D01*
X2750220Y5143000D01*
X2748620Y5141400D01*
X2747420Y5139500D01*
X2746680Y5137360D01*
X2746400Y5134900D01*
X2746400Y5095980D01*
X2746680Y5093500D01*
X2747420Y5091380D01*
X2748620Y5089460D01*
X2750220Y5087880D01*
X2752120Y5086680D01*
X2754260Y5085920D01*
X2756720Y5085640D01*
X2803519Y5085640D01*
X2805980Y5085920D01*
X2808120Y5086680D01*
X2810020Y5087880D01*
X2811620Y5089460D01*
X2813660Y5092740D01*
X2814960Y5093660D01*
X2816500Y5094000D01*
X2818080Y5093700D01*
X2819400Y5092820D01*
X2837720Y5074500D01*
X2838600Y5073200D01*
X2838900Y5071680D01*
X2838900Y5042720D01*
X2839220Y5039380D01*
X2840140Y5036360D01*
X2841620Y5033580D01*
X2843759Y5031000D01*
X2876580Y4998160D01*
X2877440Y4996900D01*
X2877760Y4995400D01*
X2877500Y4993900D01*
X2872380Y4980580D01*
X2871760Y4978180D01*
X2871700Y4975940D01*
X2872120Y4973720D01*
X2873039Y4971660D01*
X2874400Y4969860D01*
X2876120Y4968400D01*
X2878320Y4967260D01*
X2922020Y4950480D01*
X2924420Y4949860D01*
G37*
G36*
X3207140Y4957280D02*
G01*
X3209700Y4963920D01*
X3210320Y4966320D01*
X3210380Y4968580D01*
X3209960Y4970780D01*
X3209040Y4972840D01*
X3207679Y4974660D01*
X3205960Y4976120D01*
X3203759Y4977260D01*
X3195280Y4980520D01*
X3189020Y4964220D01*
G37*
G36*
X3162300Y4974480D02*
G01*
X3168560Y4990780D01*
X3160080Y4994020D01*
X3157660Y4994660D01*
X3155419Y4994720D01*
X3153200Y4994280D01*
X3151139Y4993360D01*
X3149340Y4992020D01*
X3147880Y4990300D01*
X3146740Y4988080D01*
X3144180Y4981440D01*
G37*
G36*
X2952060Y5015960D02*
G01*
X2954280Y5016380D01*
X2956340Y5017300D01*
X2958140Y5018660D01*
X2959600Y5020380D01*
X2960740Y5022580D01*
X2963300Y5029220D01*
X2945179Y5036180D01*
X2938920Y5019900D01*
X2947400Y5016640D01*
X2949820Y5016020D01*
G37*
G36*
X2912200Y5030160D02*
G01*
X2918460Y5046440D01*
X2900340Y5053400D01*
X2897780Y5046760D01*
X2897160Y5044340D01*
X2897100Y5042100D01*
X2897520Y5039880D01*
X2898440Y5037820D01*
X2899800Y5036020D01*
X2901520Y5034560D01*
X2903720Y5033420D01*
G37*
G36*
X2972140Y5052280D02*
G01*
X2974700Y5058920D01*
X2975320Y5061320D01*
X2975380Y5063580D01*
X2974960Y5065780D01*
X2974040Y5067840D01*
X2972679Y5069660D01*
X2970960Y5071120D01*
X2968759Y5072260D01*
X2960280Y5075520D01*
X2954020Y5059220D01*
G37*
G36*
X2927300Y5069480D02*
G01*
X2933560Y5085780D01*
X2925080Y5089020D01*
X2922660Y5089660D01*
X2920419Y5089720D01*
X2918200Y5089280D01*
X2916139Y5088360D01*
X2914340Y5087020D01*
X2912880Y5085300D01*
X2911740Y5083080D01*
X2909180Y5076440D01*
G37*
G36*
X2684200Y5085640D02*
G01*
X2693279Y5085640D01*
X2695740Y5085920D01*
X2697880Y5086680D01*
X2699780Y5087880D01*
X2701380Y5089460D01*
X2702580Y5091380D01*
X2703320Y5093500D01*
X2703600Y5095980D01*
X2703600Y5103100D01*
X2684200Y5103100D01*
G37*
G36*
X2646480Y5085640D02*
G01*
X2655560Y5085640D01*
X2655560Y5103100D01*
X2636160Y5103100D01*
X2636160Y5095980D01*
X2636440Y5093500D01*
X2637180Y5091380D01*
X2638380Y5089460D01*
X2639980Y5087880D01*
X2641880Y5086680D01*
X2644020Y5085920D01*
G37*
G36*
X2684200Y5127780D02*
G01*
X2703600Y5127780D01*
X2703600Y5134900D01*
X2703320Y5137360D01*
X2702580Y5139500D01*
X2701380Y5141400D01*
X2699780Y5143000D01*
X2697880Y5144200D01*
X2695740Y5144940D01*
X2693279Y5145220D01*
X2684200Y5145220D01*
G37*
G36*
X2636160Y5127780D02*
G01*
X2655560Y5127780D01*
X2655560Y5145220D01*
X2646480Y5145220D01*
X2644020Y5144940D01*
X2641880Y5144200D01*
X2639980Y5143000D01*
X2638380Y5141400D01*
X2637180Y5139500D01*
X2636440Y5137360D01*
X2636160Y5134900D01*
G37*

%LPD*%
D11*
X2600000Y375000D02*
G01*
X2550000Y375000D01*
X2525000Y400000D01*
X2525000Y500000D01*
X3095900Y811399D02*
G01*
X2886400Y811399D01*
X395869Y411419D02*
G01*
X754129Y411419D01*
X695869Y811419D02*
G01*
X1054129Y811419D01*
X95869Y811419D02*
G01*
X454130Y811419D01*
X3445869Y1211421D02*
G01*
X3445870Y1211419D01*
X3779129Y1211419D01*
X3095870Y811419D02*
G01*
X3454129Y811419D01*
X2705000Y880000D02*
G01*
X2629997Y880000D01*
X2455308Y705309D01*
X2400000Y705309D01*
X2575000Y400000D02*
G01*
X2575000Y725000D01*
X2630000Y780000D01*
X2705000Y780000D01*
X2625000Y425000D02*
G01*
X2625000Y650000D01*
X2655000Y680000D01*
X2705000Y680000D01*
X3300000Y1100000D02*
G01*
X3400000Y1100000D01*
X754129Y588580D02*
G01*
X395869Y588580D01*
X454130Y988580D02*
G01*
X95869Y988580D01*
X95868Y988578D02*
G01*
X86421Y988578D01*
X100000Y1002157D01*
X100000Y1075000D01*
X695869Y988580D02*
G01*
X686419Y988580D01*
X650000Y1025000D01*
X650000Y1050000D01*
X395900Y588600D02*
G01*
X386399Y588600D01*
X350000Y625000D01*
X350000Y650000D01*
X1054129Y988580D02*
G01*
X695869Y988580D01*
X754129Y1388580D02*
G01*
X395869Y1388580D01*
X395869Y1388580D02*
G01*
X386419Y1388580D01*
X350000Y1425000D01*
X350000Y1450000D01*
X3095870Y988580D02*
G01*
X3454129Y988580D01*
X3095870Y988580D02*
G01*
X3086419Y988580D01*
X3050000Y1025000D01*
X3050000Y1050000D01*
X3445869Y1388578D02*
G01*
X3445870Y1388580D01*
X3779129Y1388580D01*
X3779130Y1388578D02*
G01*
X3813578Y1388578D01*
X3825000Y1400000D01*
X3825000Y1450000D01*
D12*
X395869Y1211419D02*
G01*
X563580Y1211419D01*
X600000Y1175000D01*
D11*
X454099Y811399D02*
G01*
X463600Y811399D01*
X625000Y650000D01*
X2150000Y650000D01*
X2200000Y700000D01*
X754099Y1211399D02*
G01*
X636399Y1211399D01*
X600000Y1175000D01*
X600000Y775000D01*
X700000Y675000D01*
X2125000Y675000D01*
X2200399Y750399D01*
X2250000Y750000D01*
X2200000Y825000D02*
G01*
X2075000Y700000D01*
X1225000Y700000D01*
X1113599Y811399D01*
X1054099Y811399D01*
X2550000Y1100000D02*
G01*
X2575000Y1100000D01*
X2700000Y1225000D01*
X2975000Y1500000D01*
X3175000Y1500000D01*
X3225000Y1550000D01*
X1225000Y875000D02*
G01*
X1200000Y900000D01*
X1200000Y1075000D01*
X900000Y1375000D01*
X900000Y1450000D01*
X850000Y1500000D01*
X650000Y1500000D01*
X1225000Y875000D02*
G01*
X1200000Y900000D01*
X1200000Y1075000D01*
X900000Y1375000D01*
X900000Y1450000D01*
X850000Y1500000D01*
X625000Y1500000D01*
X600000Y1525000D01*
X1750000Y800000D02*
G01*
X1250000Y800000D01*
X1175000Y875000D01*
X1175000Y1050000D01*
X875000Y1350000D01*
X875000Y1425000D01*
X825000Y1475000D01*
X575000Y1475000D01*
X550000Y1500000D01*
X550000Y1525000D01*
X1375000Y750000D02*
G01*
X1250000Y750000D01*
X1150000Y850000D01*
X1150000Y1025000D01*
X850000Y1325000D01*
X850000Y1400000D01*
X800000Y1450000D01*
X550000Y1450000D01*
X500000Y1500000D01*
X700000Y1525000D02*
G01*
X675000Y1525000D01*
X650000Y1550000D01*
X2425000Y950000D02*
G01*
X1450000Y950000D01*
X1400000Y1000000D01*
X1800000Y325000D02*
G01*
X1825000Y300000D01*
X2800000Y300000D01*
X2850000Y350000D01*
X2850000Y775000D01*
X2886400Y811399D01*
X1850000Y350000D02*
G01*
X1880000Y320000D01*
X2770000Y320000D01*
X2825000Y375000D01*
X2825000Y975000D01*
X3000000Y1150000D01*
X3416801Y1150000D01*
X3420897Y1154099D01*
X3420897Y1211399D01*
D12*
X3375000Y900000D02*
G01*
X3825000Y900000D01*
X3875000Y950000D01*
X3875000Y1475000D01*
X3850000Y1500000D01*
X3425000Y1500000D01*
X3375000Y1550000D01*
X214398Y350000D02*
G01*
X214398Y335601D01*
D11*
X2125000Y425000D02*
G01*
X2100000Y400000D01*
X1400000Y400000D01*
X1375000Y425000D01*
X850000Y425000D01*
X754129Y411419D02*
G01*
X836419Y411419D01*
X850000Y425000D01*
D12*
X3650000Y625000D02*
G01*
X3650000Y325000D01*
X3600000Y275000D01*
X1400000Y275000D01*
X1375000Y250000D01*
X1250000Y250000D01*
X1225000Y275000D01*
X289400Y275000D01*
X214400Y350000D01*
D11*
X1850000Y850000D02*
G01*
X1625000Y850000D01*
X1600000Y875000D01*
X1275000Y875000D01*
X1225000Y925000D01*
X1225000Y1100000D01*
X925000Y1400000D01*
X925000Y1475000D01*
X875000Y1525000D01*
X700000Y1525000D01*
X1550000Y850000D02*
G01*
X1250000Y850000D01*
X1225000Y875000D01*
X2050000Y1125000D02*
G01*
X1350000Y1125000D01*
X1325000Y1100000D01*
X1325000Y950000D01*
X2025000Y900000D02*
G01*
X2050000Y925000D01*
X2450000Y925000D01*
X2975000Y1450000D01*
X3250000Y1450000D01*
X3275000Y1475000D01*
X3275000Y1550000D01*
X3700000Y700000D02*
G01*
X3375000Y700000D01*
X3325000Y750000D01*
X2910850Y4986669D02*
G01*
X2855000Y5042519D01*
X2855000Y5080000D01*
X2819570Y5115430D01*
X2780122Y5115430D01*
X3145850Y4891669D02*
G01*
X3105000Y4932519D01*
X3105000Y4980000D01*
X3071670Y5013330D01*
X3039160Y5013330D01*
X3370850Y4801669D02*
G01*
X3330000Y4842519D01*
X3330000Y4880000D01*
X3291670Y4918330D01*
X3274160Y4918330D01*
X3494530Y4577590D02*
G01*
X3455000Y4617118D01*
X3455000Y4655000D01*
X3530000Y4730000D01*
X3530000Y4797489D01*
X3499160Y4828330D01*
X3665969Y4423919D02*
G01*
X3655000Y4434890D01*
X3655000Y4530000D01*
X3625478Y4559519D01*
X3625478Y4572410D01*
X3735000Y4182350D02*
G01*
X3735000Y4235000D01*
X3780000Y4280000D01*
X3780000Y3952350D02*
G01*
X3780000Y3980000D01*
X3835000Y4035000D01*
X3835000Y4097649D01*
X3880000Y3780000D02*
G01*
X3880000Y3867649D01*
X2965850Y4756669D02*
G01*
X2905000Y4817519D01*
X2905000Y4830000D01*
X2869380Y4865619D01*
X2869380Y4877199D01*
X3200630Y4657791D02*
G01*
X3155000Y4703420D01*
X3155000Y4730000D01*
X3101670Y4783330D01*
X3094160Y4783330D01*
X3334579Y4458730D02*
G01*
X3305000Y4488310D01*
X3305000Y4530000D01*
X3380000Y4605000D01*
X3380000Y4630000D01*
X3329380Y4680619D01*
X3329380Y4682199D01*
X3505000Y4282350D02*
G01*
X3505000Y4411689D01*
X3465420Y4451269D01*
X3575000Y4012350D02*
G01*
X3580000Y4017350D01*
X3580000Y4105000D01*
X3605000Y4130000D01*
X3605000Y4197649D01*
X3644268Y3761469D02*
G01*
X3655000Y3772199D01*
X3655000Y3830000D01*
X3675000Y3850000D01*
X3675000Y3927649D01*
X2780097Y5044600D02*
G01*
X2780097Y5005100D01*
X2755000Y4980000D01*
X2705000Y4980000D01*
D12*
X3812229Y3846930D02*
G01*
X3763069Y3846930D01*
X3750000Y3860000D01*
X3607231Y3906930D02*
G01*
X3581929Y3906930D01*
X3555000Y3880000D01*
X3767231Y4076930D02*
G01*
X3751929Y4076930D01*
X3730000Y4055000D01*
X3537231Y4176930D02*
G01*
X3526929Y4176930D01*
X3505000Y4155000D01*
X3743921Y4345958D02*
G01*
X3743921Y4343921D01*
X3710000Y4310000D01*
X3423770Y4393930D02*
G01*
X3423770Y4373769D01*
X3405000Y4355000D01*
X3584828Y4514360D02*
G01*
X3584828Y4455000D01*
X3302831Y4616498D02*
G01*
X3302831Y4602829D01*
X3280000Y4580000D01*
X3473760Y4762170D02*
G01*
X3473760Y4748760D01*
X3455000Y4730000D01*
X3068760Y4717170D02*
G01*
X3068760Y4716239D01*
X3105000Y4680000D01*
X3248760Y4852170D02*
G01*
X3248760Y4836239D01*
X3280000Y4805000D01*
X3013760Y4947170D02*
G01*
X3013760Y4946239D01*
X3055000Y4905000D01*
X2842831Y4811498D02*
G01*
X2848500Y4811498D01*
X2880000Y4780000D01*
X2740619Y4852791D02*
G01*
X2740619Y4794380D01*
X2855000Y4680000D01*
X2955000Y4680000D01*
X2675000Y4950000D02*
G01*
X2669877Y4955122D01*
X2669877Y5044569D01*
X3678329Y3656631D02*
G01*
X3628369Y3656631D01*
X3605000Y3680000D01*
D11*
X2485749Y4531700D02*
G01*
X2431700Y4531700D01*
X2400000Y4500000D01*
X3780000Y4280000D02*
G01*
X3793999Y4294000D01*
X3793999Y4396100D01*
X663301Y3595248D02*
G01*
X663301Y3688301D01*
X725000Y3750000D01*
X750000Y3775000D01*
X775000Y3775000D01*
X2675000Y1525000D02*
G01*
X2350000Y1525000D01*
X2265000Y1440000D01*
X1290000Y1440000D01*
X2700000Y1500000D02*
G01*
X2375000Y1500000D01*
X2290000Y1415000D01*
X1305000Y1415000D01*
X1225000Y1450000D02*
G01*
X1280000Y1450000D01*
X1290000Y1440000D01*
X1250000Y1425000D02*
G01*
X1260000Y1415000D01*
X1305000Y1415000D01*
X2555000Y4455000D02*
G01*
X2555000Y4559050D01*
X2564250Y4568299D01*
X2600000Y4500000D02*
G01*
X2625000Y4525000D01*
X2625000Y4625000D01*
X2625000Y4625000D02*
G01*
X2600000Y4650000D01*
X2557550Y4650000D01*
X2539250Y4668299D01*
G36*
X2568734Y4651644D02*
G01*
X2533054Y4635005D01*
X2509759Y4684958D01*
X2545442Y4701597D01*
G37*
G36*
X2490236Y4615039D02*
G01*
X2454555Y4598400D01*
X2431261Y4648353D01*
X2466941Y4664992D01*
G37*
G36*
X2593735Y4551644D02*
G01*
X2558054Y4535005D01*
X2534759Y4584958D01*
X2570442Y4601597D01*
G37*
G36*
X2515236Y4515039D02*
G01*
X2479555Y4498400D01*
X2456261Y4548355D01*
X2491941Y4564992D01*
G37*
D15*
G01*
X3095870Y988580D03*
G01*
X3454129Y988580D03*
G01*
X3095870Y811419D03*
G01*
X3454129Y811419D03*
G01*
X3420870Y1388580D03*
G01*
X3779129Y1388580D03*
G01*
X3420870Y1211419D03*
G01*
X3779129Y1211419D03*
G01*
X395869Y1388580D03*
G01*
X754129Y1388580D03*
G01*
X395869Y1211419D03*
G01*
X754129Y1211419D03*
G01*
X395869Y588580D03*
G01*
X754129Y588580D03*
G01*
X395869Y411419D03*
G01*
X754129Y411419D03*
G01*
X95869Y988580D03*
G01*
X454130Y988580D03*
G01*
X95869Y811419D03*
G01*
X454130Y811419D03*
G01*
X695869Y988580D03*
G01*
X1054129Y988580D03*
G01*
X695869Y811419D03*
G01*
X1054129Y811419D03*
G36*
X3525312Y4148582D02*
G01*
X3511499Y4193762D01*
X3549148Y4205273D01*
X3562961Y4160093D01*
G37*
G36*
X3493082Y4254002D02*
G01*
X3479269Y4299182D01*
X3516920Y4310693D01*
X3530731Y4265513D01*
G37*
G36*
X3560852Y4274721D02*
G01*
X3547039Y4319901D01*
X3584688Y4331412D01*
X3598501Y4286232D01*
G37*
G36*
X3593082Y4169301D02*
G01*
X3579269Y4214481D01*
X3616918Y4225992D01*
X3630731Y4180812D01*
G37*
G36*
X3595312Y3878582D02*
G01*
X3581499Y3923762D01*
X3619148Y3935273D01*
X3632962Y3890093D01*
G37*
G36*
X3563082Y3984002D02*
G01*
X3549269Y4029180D01*
X3586920Y4040691D01*
X3600731Y3995511D01*
G37*
G36*
X3630852Y4004720D02*
G01*
X3617039Y4049901D01*
X3654688Y4061410D01*
X3668501Y4016232D01*
G37*
G36*
X3663082Y3899301D02*
G01*
X3649269Y3944481D01*
X3686918Y3955992D01*
X3700730Y3910812D01*
G37*
G36*
X3666913Y3628078D02*
G01*
X3652313Y3673011D01*
X3689755Y3685176D01*
X3704354Y3640243D01*
G37*
G36*
X3632848Y3732919D02*
G01*
X3618248Y3777851D01*
X3655690Y3790016D01*
X3670290Y3745084D01*
G37*
G36*
X3700245Y3754818D02*
G01*
X3685645Y3799749D01*
X3723090Y3811914D01*
X3737687Y3766984D01*
G37*
G36*
X3734309Y3649976D02*
G01*
X3719710Y3694910D01*
X3757154Y3707075D01*
X3771752Y3662143D01*
G37*
G36*
X3488761Y4735324D02*
G01*
X3444655Y4752255D01*
X3458762Y4789009D01*
X3502869Y4772078D01*
G37*
G36*
X3385847Y4774829D02*
G01*
X3341740Y4791759D01*
X3355848Y4828515D01*
X3399955Y4811583D01*
G37*
G36*
X3411243Y4840988D02*
G01*
X3367137Y4857919D01*
X3381244Y4894674D01*
X3425352Y4877743D01*
G37*
G36*
X3514156Y4801482D02*
G01*
X3470051Y4818413D01*
X3484158Y4855169D01*
X3528266Y4838238D01*
G37*
G36*
X3263761Y4825324D02*
G01*
X3219655Y4842255D01*
X3233762Y4879009D01*
X3277869Y4862078D01*
G37*
G36*
X3160847Y4864829D02*
G01*
X3116740Y4881759D01*
X3130848Y4918515D01*
X3174955Y4901583D01*
G37*
G36*
X3186243Y4930988D02*
G01*
X3142137Y4947919D01*
X3156244Y4984674D01*
X3200352Y4967743D01*
G37*
G36*
X3289156Y4891482D02*
G01*
X3245051Y4908413D01*
X3259158Y4945169D01*
X3303266Y4928238D01*
G37*
G36*
X3746706Y4315346D02*
G01*
X3713298Y4348753D01*
X3741138Y4376590D01*
X3774543Y4343184D01*
G37*
G36*
X3668757Y4393294D02*
G01*
X3635348Y4426700D01*
X3663189Y4454540D01*
X3696594Y4421134D01*
G37*
G36*
X3718865Y4443404D02*
G01*
X3685460Y4476810D01*
X3713298Y4504650D01*
X3746705Y4471244D01*
G37*
G36*
X3796814Y4365455D02*
G01*
X3763409Y4398863D01*
X3791247Y4426702D01*
X3824654Y4393294D01*
G37*
G36*
X3592888Y4484684D02*
G01*
X3554188Y4511783D01*
X3576769Y4544032D01*
X3615469Y4516934D01*
G37*
G36*
X3502587Y4547914D02*
G01*
X3463887Y4575012D01*
X3486469Y4607262D01*
X3525169Y4580164D01*
G37*
G36*
X3543235Y4605963D02*
G01*
X3504534Y4633060D01*
X3527115Y4665311D01*
X3565816Y4638213D01*
G37*
G36*
X3633536Y4542734D02*
G01*
X3594835Y4569832D01*
X3617416Y4602082D01*
X3656117Y4574985D01*
G37*
G36*
X3317361Y4589398D02*
G01*
X3273558Y4607096D01*
X3288306Y4643598D01*
X3332110Y4625900D01*
G37*
G36*
X3215153Y4630693D02*
G01*
X3171349Y4648391D01*
X3186096Y4684893D01*
X3229901Y4667195D01*
G37*
G36*
X3241700Y4696399D02*
G01*
X3197896Y4714096D01*
X3212644Y4750599D01*
X3256446Y4732901D01*
G37*
G36*
X3343909Y4655104D02*
G01*
X3300105Y4672802D01*
X3314853Y4709304D01*
X3358657Y4691606D01*
G37*
G36*
X3431306Y4364124D02*
G01*
X3393086Y4391894D01*
X3416226Y4423744D01*
X3454448Y4395976D01*
G37*
G36*
X3342124Y4428919D02*
G01*
X3303903Y4456689D01*
X3327043Y4488539D01*
X3365266Y4460771D01*
G37*
G36*
X3383778Y4486251D02*
G01*
X3345555Y4514020D01*
X3368698Y4545871D01*
X3406918Y4518103D01*
G37*
G36*
X3472960Y4421457D02*
G01*
X3434740Y4449225D01*
X3457879Y4481077D01*
X3496102Y4453307D01*
G37*
G36*
X2857362Y4784398D02*
G01*
X2813558Y4802094D01*
X2828306Y4838598D01*
X2872109Y4820900D01*
G37*
G36*
X2755153Y4825693D02*
G01*
X2711347Y4843389D01*
X2726098Y4879893D01*
X2769901Y4862197D01*
G37*
G36*
X2781698Y4891399D02*
G01*
X2737896Y4909096D01*
X2752644Y4945599D01*
X2796448Y4927901D01*
G37*
G36*
X2883909Y4850104D02*
G01*
X2840105Y4867800D01*
X2854853Y4904304D01*
X2898656Y4886606D01*
G37*
G36*
X3083760Y4690324D02*
G01*
X3039654Y4707255D01*
X3053762Y4744009D01*
X3097869Y4727078D01*
G37*
G36*
X2980846Y4729829D02*
G01*
X2936740Y4746759D01*
X2950848Y4783515D01*
X2994955Y4766583D01*
G37*
G36*
X3006242Y4795988D02*
G01*
X2962136Y4812919D01*
X2976244Y4849674D01*
X3020351Y4832743D01*
G37*
G36*
X3109156Y4756482D02*
G01*
X3065050Y4773413D01*
X3079158Y4810169D01*
X3123265Y4793238D01*
G37*
G36*
X3800312Y3818582D02*
G01*
X3786499Y3863762D01*
X3824149Y3875273D01*
X3837961Y3830093D01*
G37*
G36*
X3768082Y3924002D02*
G01*
X3754269Y3969180D01*
X3791920Y3980691D01*
X3805733Y3935513D01*
G37*
G36*
X3835852Y3944720D02*
G01*
X3822039Y3989901D01*
X3859688Y4001410D01*
X3873501Y3956232D01*
G37*
G36*
X3868082Y3839301D02*
G01*
X3854269Y3884481D01*
X3891918Y3895992D01*
X3905731Y3850812D01*
G37*
G36*
X3755312Y4048582D02*
G01*
X3741499Y4093762D01*
X3779148Y4105273D01*
X3792962Y4060093D01*
G37*
G36*
X3723082Y4154002D02*
G01*
X3709269Y4199182D01*
X3746920Y4210691D01*
X3760733Y4165511D01*
G37*
G36*
X3790852Y4174720D02*
G01*
X3777039Y4219901D01*
X3814688Y4231412D01*
X3828500Y4186232D01*
G37*
G36*
X3823082Y4069301D02*
G01*
X3809269Y4114481D01*
X3846918Y4125992D01*
X3860731Y4080812D01*
G37*
D16*
G01*
X2780119Y5044569D03*
G01*
X2669880Y5044569D03*
G01*
X2669880Y5115430D03*
G01*
X2780119Y5115430D03*
G36*
X3028760Y4920324D02*
G01*
X2984654Y4937255D01*
X2998762Y4974009D01*
X3042869Y4957078D01*
G37*
G36*
X2925846Y4959829D02*
G01*
X2881740Y4976759D01*
X2895848Y5013515D01*
X2939955Y4996583D01*
G37*
G36*
X2951242Y5025988D02*
G01*
X2907136Y5042919D01*
X2921244Y5079674D01*
X2965351Y5062743D01*
G37*
G36*
X3054156Y4986482D02*
G01*
X3010050Y5003413D01*
X3024158Y5040169D01*
X3068265Y5023238D01*
G37*
D17*
G01*
X2705000Y480000D03*
D18*
G01*
X2705000Y1080000D03*
D17*
G01*
X2705000Y980000D03*
G01*
X2705000Y880000D03*
G01*
X2705000Y780000D03*
G01*
X2705000Y680000D03*
G01*
X2705000Y580000D03*
G36*
X244400Y380000D02*
G01*
X184400Y380000D01*
X184400Y320000D01*
X244400Y320000D01*
G37*
D20*
G01*
X135599Y350000D03*
G36*
X2177849Y1517849D02*
G01*
X2122150Y1517849D01*
X2122150Y1462150D01*
X2177849Y1462150D01*
G37*
D22*
G01*
X2050000Y1490000D03*
G01*
X1950000Y1490000D03*
G01*
X1850000Y1490000D03*
G01*
X1750000Y1490000D03*
G36*
X3867714Y679131D02*
G01*
X3867714Y604328D01*
X3946454Y604328D01*
X3946454Y679131D01*
G37*
G36*
X3867714Y395668D02*
G01*
X3867714Y320864D01*
X3946454Y320864D01*
X3946454Y395668D01*
G37*
D24*
G01*
X886700Y3604749D03*
G01*
X838220Y3692210D03*
G01*
X799239Y3556269D03*
G01*
X750760Y3643730D03*
G01*
X711779Y3507790D03*
G01*
X663299Y3595250D03*
D13*
G01*
X3650000Y625000D03*
G01*
X2675000Y4950000D03*
G01*
X3275000Y1550000D03*
G01*
X2955000Y4680000D03*
G01*
X3225000Y1550000D03*
G01*
X2550000Y1100000D03*
G01*
X2025000Y900000D03*
G01*
X2880000Y4780000D03*
G01*
X3055000Y4905000D03*
G01*
X3280000Y4805000D03*
G01*
X3105000Y4680000D03*
G01*
X3455000Y4730000D03*
G01*
X3280000Y4580000D03*
G01*
X3584830Y4455000D03*
G01*
X3405000Y4355000D03*
G01*
X3710000Y4310000D03*
G01*
X3505000Y4155000D03*
G01*
X3730000Y4055000D03*
G01*
X3555000Y3880000D03*
G01*
X3750000Y3860000D03*
G01*
X3605000Y3680000D03*
G01*
X3375000Y1550000D03*
G01*
X3375000Y900000D03*
G01*
X3825000Y1450000D03*
G01*
X3050000Y1050000D03*
G01*
X350000Y1450000D03*
G01*
X650000Y1050000D03*
G01*
X100000Y1075000D03*
G01*
X350000Y650000D03*
G01*
X2032870Y600590D03*
G01*
X2032870Y528350D03*
G01*
X1960630Y528350D03*
G01*
X1888389Y528350D03*
G01*
X1888389Y600590D03*
G01*
X1960630Y600590D03*
G01*
X2225000Y350000D03*
G01*
X3055000Y4830000D03*
G01*
X2830000Y4930000D03*
G01*
X2730000Y5155000D03*
G01*
X3005000Y5080000D03*
G01*
X3230000Y4980000D03*
G01*
X3455000Y4880000D03*
G01*
X3305000Y4730000D03*
G01*
X3605000Y4630000D03*
G01*
X3455000Y4505000D03*
G01*
X3780000Y4470000D03*
G01*
X3855000Y4155000D03*
G01*
X3630000Y4255000D03*
G01*
X3780000Y3755000D03*
G01*
X3890000Y3990000D03*
G01*
X3705000Y4005000D03*
G01*
X1224200Y550000D03*
G01*
X1574889Y305309D03*
G01*
X2575000Y1350000D03*
G01*
X1375000Y1350000D03*
G01*
X2600000Y975000D03*
G01*
X3350000Y950000D03*
G01*
X3275000Y1350000D03*
G01*
X3225000Y1125000D03*
G01*
X3300000Y1100000D03*
G01*
X3400000Y1100000D03*
G01*
X2575000Y400000D03*
G01*
X2625000Y425000D03*
G01*
X2400000Y705309D03*
G01*
X1075000Y375000D03*
G01*
X2675000Y1525000D03*
G01*
X2700000Y1500000D03*
G01*
X1225000Y1450000D03*
G01*
X1250000Y1425000D03*
G01*
X1400000Y1000000D03*
G01*
X2425000Y950000D03*
G01*
X2250000Y750000D03*
G01*
X2200000Y700000D03*
G01*
X2200000Y825000D03*
G01*
X2125000Y425000D03*
G01*
X1800000Y325000D03*
G01*
X1850000Y350000D03*
G01*
X2050000Y1125000D03*
G01*
X1325000Y950000D03*
G01*
X3880000Y3780000D03*
G01*
X2600000Y375000D03*
G01*
X2525000Y500000D03*
G01*
X875000Y625000D03*
G01*
X2705000Y4980000D03*
G01*
X1550000Y850000D03*
G01*
X1750000Y800000D03*
G01*
X1400000Y600000D03*
G01*
X1850000Y850000D03*
G01*
X1575000Y450000D03*
G01*
X1375000Y750000D03*
G01*
X1650000Y1050000D03*
G01*
X650000Y1550000D03*
G01*
X600000Y1525000D03*
G01*
X550000Y1525000D03*
G01*
X500000Y1500000D03*
G01*
X775000Y3775000D03*
G01*
X2600000Y4500000D03*
G01*
X2555000Y4455000D03*
G01*
X2400000Y4500000D03*
G01*
X3700000Y700000D03*
G01*
X3325000Y750000D03*
G01*
X3300000Y650000D03*
G01*
X2925000Y725000D03*
G01*
X2925000Y375000D03*
D25*
X3789957Y595470D02*
G01*
X3795862Y595470D01*
X3789957Y404529D02*
G01*
X3795862Y404529D01*
M02*
