G04 Layer: TopSolderMaskLayer*
G04 EasyEDA v6.4.17, 2021-02-25T15:28:36--5:00*
G04 aa3373424ab044808dd5acc0b6461e4b,072da06717534aa28f27f5ff42559d36,10*
G04 Gerber Generator version 0.2*
G04 Scale: 100 percent, Rotated: No, Reflected: No *
G04 Dimensions in inches *
G04 leading zeros omitted , absolute positions ,3 integer and 6 decimal *
%FSLAX36Y36*%
%MOIN*%

%ADD46C,0.0513*%
%ADD47C,0.0700*%
%ADD52C,0.0680*%
%ADD54C,0.0637*%
%ADD57C,0.0820*%

%LPD*%
D46*
X3789957Y595470D02*
G01*
X3795862Y595470D01*
X3789957Y404529D02*
G01*
X3795862Y404529D01*
D47*
G01*
X2705000Y480000D03*
G36*
X2670000Y1045000D02*
G01*
X2670000Y1115000D01*
X2740000Y1115000D01*
X2740000Y1045000D01*
G37*
G01*
X2705000Y980000D03*
G01*
X2705000Y880000D03*
G01*
X2705000Y780000D03*
G01*
X2705000Y680000D03*
G01*
X2705000Y580000D03*
G36*
X2531099Y4629699D02*
G01*
X2504399Y4686900D01*
X2547399Y4706900D01*
X2574099Y4649699D01*
G37*
G36*
X2452600Y4593099D02*
G01*
X2425900Y4650300D01*
X2468900Y4670300D01*
X2495600Y4613099D01*
G37*
G36*
X2556099Y4529699D02*
G01*
X2529399Y4586900D01*
X2572399Y4606900D01*
X2599099Y4549699D01*
G37*
G36*
X2477600Y4493099D02*
G01*
X2450900Y4550300D01*
X2493900Y4570300D01*
X2520600Y4513099D01*
G37*
G36*
X3050500Y956999D02*
G01*
X3050500Y1020100D01*
X3141199Y1020100D01*
X3141199Y956999D01*
G37*
G36*
X3408800Y956999D02*
G01*
X3408800Y1020100D01*
X3499499Y1020100D01*
X3499499Y956999D01*
G37*
G36*
X3050500Y779899D02*
G01*
X3050500Y843000D01*
X3141199Y843000D01*
X3141199Y779899D01*
G37*
G36*
X3408800Y779899D02*
G01*
X3408800Y843000D01*
X3499499Y843000D01*
X3499499Y779899D01*
G37*
G36*
X3375500Y1356999D02*
G01*
X3375500Y1420100D01*
X3466199Y1420100D01*
X3466199Y1356999D01*
G37*
G36*
X3733800Y1356999D02*
G01*
X3733800Y1420100D01*
X3824499Y1420100D01*
X3824499Y1356999D01*
G37*
G36*
X3375500Y1179899D02*
G01*
X3375500Y1243000D01*
X3466199Y1243000D01*
X3466199Y1179899D01*
G37*
G36*
X3733800Y1179899D02*
G01*
X3733800Y1243000D01*
X3824499Y1243000D01*
X3824499Y1179899D01*
G37*
G36*
X350500Y1356999D02*
G01*
X350500Y1420100D01*
X441199Y1420100D01*
X441199Y1356999D01*
G37*
G36*
X708800Y1356999D02*
G01*
X708800Y1420100D01*
X799499Y1420100D01*
X799499Y1356999D01*
G37*
G36*
X350500Y1179899D02*
G01*
X350500Y1243000D01*
X441199Y1243000D01*
X441199Y1179899D01*
G37*
G36*
X708800Y1179899D02*
G01*
X708800Y1243000D01*
X799499Y1243000D01*
X799499Y1179899D01*
G37*
G36*
X350500Y556999D02*
G01*
X350500Y620100D01*
X441199Y620100D01*
X441199Y556999D01*
G37*
G36*
X708800Y556999D02*
G01*
X708800Y620100D01*
X799499Y620100D01*
X799499Y556999D01*
G37*
G36*
X350500Y379899D02*
G01*
X350500Y443000D01*
X441199Y443000D01*
X441199Y379899D01*
G37*
G36*
X708800Y379899D02*
G01*
X708800Y443000D01*
X799499Y443000D01*
X799499Y379899D01*
G37*
G36*
X50500Y956999D02*
G01*
X50500Y1020100D01*
X141199Y1020100D01*
X141199Y956999D01*
G37*
G36*
X408800Y956999D02*
G01*
X408800Y1020100D01*
X499499Y1020100D01*
X499499Y956999D01*
G37*
G36*
X50500Y779899D02*
G01*
X50500Y843000D01*
X141199Y843000D01*
X141199Y779899D01*
G37*
G36*
X408800Y779899D02*
G01*
X408800Y843000D01*
X499499Y843000D01*
X499499Y779899D01*
G37*
G36*
X650500Y956999D02*
G01*
X650500Y1020100D01*
X741199Y1020100D01*
X741199Y956999D01*
G37*
G36*
X1008800Y956999D02*
G01*
X1008800Y1020100D01*
X1099499Y1020100D01*
X1099499Y956999D01*
G37*
G36*
X650500Y779899D02*
G01*
X650500Y843000D01*
X741199Y843000D01*
X741199Y779899D01*
G37*
G36*
X1008800Y779899D02*
G01*
X1008800Y843000D01*
X1099499Y843000D01*
X1099499Y779899D01*
G37*
G36*
X180399Y315999D02*
G01*
X180399Y384000D01*
X248400Y384000D01*
X248400Y315999D01*
G37*
D52*
G01*
X135599Y350000D03*
G36*
X2118199Y1458099D02*
G01*
X2118199Y1521799D01*
X2181899Y1521799D01*
X2181899Y1458099D01*
G37*
D54*
G01*
X2050000Y1490000D03*
G01*
X1950000Y1490000D03*
G01*
X1850000Y1490000D03*
G01*
X1750000Y1490000D03*
G36*
X3863699Y600300D02*
G01*
X3863699Y683099D01*
X3950500Y683099D01*
X3950500Y600300D01*
G37*
G36*
X3863699Y316900D02*
G01*
X3863699Y399699D01*
X3950500Y399699D01*
X3950500Y316900D01*
G37*
G36*
X3522700Y4143600D02*
G01*
X3506499Y4196399D01*
X3551800Y4210300D01*
X3568000Y4157399D01*
G37*
G36*
X3490399Y4249000D02*
G01*
X3474300Y4301799D01*
X3519600Y4315700D01*
X3535699Y4262900D01*
G37*
G36*
X3558199Y4269699D02*
G01*
X3541999Y4322600D01*
X3587299Y4336399D01*
X3603500Y4283600D01*
G37*
G36*
X3590399Y4164299D02*
G01*
X3574300Y4217100D01*
X3619600Y4230999D01*
X3635699Y4178200D01*
G37*
G36*
X3592700Y3873600D02*
G01*
X3576499Y3926399D01*
X3621800Y3940300D01*
X3638000Y3887399D01*
G37*
G36*
X3560399Y3979000D02*
G01*
X3544300Y4031799D01*
X3589600Y4045700D01*
X3605699Y3992899D01*
G37*
G36*
X3628199Y3999699D02*
G01*
X3611999Y4052600D01*
X3657299Y4066399D01*
X3673500Y4013600D01*
G37*
G36*
X3660399Y3894299D02*
G01*
X3644300Y3947100D01*
X3689600Y3960999D01*
X3705699Y3908200D01*
G37*
G36*
X3664300Y3623000D02*
G01*
X3647299Y3675599D01*
X3692299Y3690200D01*
X3709399Y3637700D01*
G37*
G36*
X3630299Y3727899D02*
G01*
X3613199Y3780399D01*
X3658299Y3795100D01*
X3675299Y3742500D01*
G37*
G36*
X3697700Y3749800D02*
G01*
X3680600Y3802300D01*
X3725699Y3816999D01*
X3742700Y3764400D01*
G37*
G36*
X3731700Y3644899D02*
G01*
X3714700Y3697500D01*
X3759700Y3712100D01*
X3776800Y3659600D01*
G37*
G36*
X3491099Y4730200D02*
G01*
X3439499Y4750000D01*
X3456499Y4794200D01*
X3508000Y4774400D01*
G37*
G36*
X3388100Y4769699D02*
G01*
X3336599Y4789499D01*
X3353500Y4833699D01*
X3405100Y4813899D01*
G37*
G36*
X3413500Y4835799D02*
G01*
X3361999Y4855599D01*
X3378900Y4899800D01*
X3430500Y4880000D01*
G37*
G36*
X3516499Y4796300D02*
G01*
X3464899Y4816100D01*
X3481899Y4860300D01*
X3533400Y4840500D01*
G37*
G36*
X3266099Y4820200D02*
G01*
X3214499Y4840000D01*
X3231499Y4884200D01*
X3283000Y4864400D01*
G37*
G36*
X3163100Y4859699D02*
G01*
X3111599Y4879499D01*
X3128500Y4923699D01*
X3180100Y4903899D01*
G37*
G36*
X3188500Y4925799D02*
G01*
X3136999Y4945599D01*
X3153900Y4989800D01*
X3205500Y4970000D01*
G37*
G36*
X3291499Y4886300D02*
G01*
X3239899Y4906100D01*
X3256899Y4950300D01*
X3308400Y4930500D01*
G37*
G36*
X3746700Y4309699D02*
G01*
X3707600Y4348800D01*
X3741099Y4382199D01*
X3780200Y4343200D01*
G37*
G36*
X3668800Y4387600D02*
G01*
X3629700Y4426700D01*
X3663199Y4460200D01*
X3702299Y4421100D01*
G37*
G36*
X3718900Y4437700D02*
G01*
X3679799Y4476799D01*
X3713299Y4510300D01*
X3752399Y4471199D01*
G37*
G36*
X3796800Y4359800D02*
G01*
X3757799Y4398899D01*
X3791199Y4432399D01*
X3830299Y4393299D01*
G37*
G36*
X3593900Y4479099D02*
G01*
X3548599Y4510799D01*
X3575799Y4549600D01*
X3621000Y4517900D01*
G37*
G36*
X3503599Y4542300D02*
G01*
X3458299Y4574000D01*
X3485500Y4612800D01*
X3530699Y4581100D01*
G37*
G36*
X3544200Y4600400D02*
G01*
X3498999Y4632100D01*
X3526099Y4670900D01*
X3571400Y4639200D01*
G37*
G36*
X3634499Y4537199D02*
G01*
X3589300Y4568800D01*
X3616400Y4607700D01*
X3661700Y4575999D01*
G37*
G36*
X3319600Y4584200D02*
G01*
X3268400Y4604899D01*
X3286099Y4648800D01*
X3337299Y4628099D01*
G37*
G36*
X3217399Y4625500D02*
G01*
X3166099Y4646199D01*
X3183900Y4690100D01*
X3235100Y4669400D01*
G37*
G36*
X3243900Y4691199D02*
G01*
X3192700Y4711900D01*
X3210399Y4755799D01*
X3261700Y4735100D01*
G37*
G36*
X3346099Y4649899D02*
G01*
X3294899Y4670599D01*
X3312600Y4714499D01*
X3363900Y4693800D01*
G37*
G36*
X3432200Y4358499D02*
G01*
X3387500Y4390999D01*
X3415299Y4429299D01*
X3460000Y4396900D01*
G37*
G36*
X3343000Y4423299D02*
G01*
X3298299Y4455799D01*
X3326199Y4494099D01*
X3370900Y4461700D01*
G37*
G36*
X3384700Y4480700D02*
G01*
X3340000Y4513099D01*
X3367799Y4551500D01*
X3412500Y4519000D01*
G37*
G36*
X3473800Y4415900D02*
G01*
X3429200Y4448299D01*
X3456999Y4486700D01*
X3501700Y4454200D01*
G37*
G36*
X2859600Y4779200D02*
G01*
X2808400Y4799899D01*
X2826099Y4843800D01*
X2877299Y4823099D01*
G37*
G36*
X2757399Y4820500D02*
G01*
X2706099Y4841199D01*
X2723900Y4885100D01*
X2775100Y4864400D01*
G37*
G36*
X2783900Y4886199D02*
G01*
X2732700Y4906900D01*
X2750399Y4950799D01*
X2801700Y4930100D01*
G37*
G36*
X2886099Y4844899D02*
G01*
X2834899Y4865599D01*
X2852600Y4909499D01*
X2903900Y4888800D01*
G37*
G36*
X3086099Y4685200D02*
G01*
X3034499Y4705000D01*
X3051499Y4749200D01*
X3103000Y4729400D01*
G37*
G36*
X2983100Y4724699D02*
G01*
X2931599Y4744499D01*
X2948500Y4788699D01*
X3000100Y4768899D01*
G37*
G36*
X3008500Y4790799D02*
G01*
X2956999Y4810599D01*
X2973900Y4854800D01*
X3025500Y4835000D01*
G37*
G36*
X3111499Y4751300D02*
G01*
X3059899Y4771100D01*
X3076899Y4815300D01*
X3128400Y4795500D01*
G37*
G36*
X3797700Y3813600D02*
G01*
X3781499Y3866399D01*
X3826800Y3880300D01*
X3843000Y3827399D01*
G37*
G36*
X3765399Y3919000D02*
G01*
X3749300Y3971799D01*
X3794600Y3985700D01*
X3810699Y3932899D01*
G37*
G36*
X3833199Y3939699D02*
G01*
X3816999Y3992600D01*
X3862299Y4006399D01*
X3878500Y3953600D01*
G37*
G36*
X3865399Y3834299D02*
G01*
X3849300Y3887100D01*
X3894600Y3900999D01*
X3910699Y3848200D01*
G37*
G36*
X3752700Y4043600D02*
G01*
X3736499Y4096399D01*
X3781800Y4110300D01*
X3798000Y4057399D01*
G37*
G36*
X3720399Y4149000D02*
G01*
X3704300Y4201799D01*
X3749600Y4215700D01*
X3765699Y4162899D01*
G37*
G36*
X3788199Y4169699D02*
G01*
X3771999Y4222600D01*
X3817299Y4236399D01*
X3833500Y4183600D01*
G37*
G36*
X3820399Y4064299D02*
G01*
X3804300Y4117100D01*
X3849600Y4130999D01*
X3865699Y4078200D01*
G37*
G36*
X2752500Y5020900D02*
G01*
X2752500Y5068299D01*
X2807700Y5068299D01*
X2807700Y5020900D01*
G37*
G36*
X2642299Y5020900D02*
G01*
X2642299Y5068299D01*
X2697500Y5068299D01*
X2697500Y5020900D01*
G37*
G36*
X2642299Y5091700D02*
G01*
X2642299Y5139099D01*
X2697500Y5139099D01*
X2697500Y5091700D01*
G37*
G36*
X2752500Y5091700D02*
G01*
X2752500Y5139099D01*
X2807700Y5139099D01*
X2807700Y5091700D01*
G37*
G36*
X3031099Y4915200D02*
G01*
X2979499Y4935000D01*
X2996499Y4979200D01*
X3048000Y4959400D01*
G37*
G36*
X2928100Y4954699D02*
G01*
X2876599Y4974499D01*
X2893500Y5018699D01*
X2945100Y4998899D01*
G37*
G36*
X2953500Y5020799D02*
G01*
X2901999Y5040599D01*
X2918900Y5084800D01*
X2970500Y5065000D01*
G37*
G36*
X3056499Y4981300D02*
G01*
X3004899Y5001100D01*
X3021899Y5045300D01*
X3073400Y5025500D01*
G37*
D57*
G01*
X886700Y3604749D03*
G01*
X838220Y3692210D03*
G01*
X799239Y3556269D03*
G01*
X750760Y3643730D03*
G01*
X711779Y3507790D03*
G01*
X663299Y3595250D03*
M02*
