G04 Layer: BottomPasteMaskLayer*
G04 EasyEDA v6.4.17, 2021-02-25T15:28:36--5:00*
G04 aa3373424ab044808dd5acc0b6461e4b,072da06717534aa28f27f5ff42559d36,10*
G04 Gerber Generator version 0.2*
G04 Scale: 100 percent, Rotated: No, Reflected: No *
G04 Dimensions in inches *
G04 leading zeros omitted , absolute positions ,3 integer and 6 decimal *
%FSLAX36Y36*%
%MOIN*%

%ADD26C,0.0236*%

%LPD*%
D26*
X2875000Y1418377D02*
G01*
X2875000Y1465621D01*
X2925000Y1418377D02*
G01*
X2925000Y1465621D01*
X2975000Y1418377D02*
G01*
X2975000Y1465621D01*
X3025000Y1418377D02*
G01*
X3025000Y1465621D01*
X3075000Y1418377D02*
G01*
X3075000Y1465621D01*
X3125000Y1418377D02*
G01*
X3125000Y1465621D01*
X3175000Y1418377D02*
G01*
X3175000Y1465621D01*
X3225000Y1418377D02*
G01*
X3225000Y1465621D01*
X2875000Y1184378D02*
G01*
X2875000Y1231622D01*
X2925000Y1184378D02*
G01*
X2925000Y1231622D01*
X2975000Y1184378D02*
G01*
X2975000Y1231622D01*
X3025000Y1184378D02*
G01*
X3025000Y1231622D01*
X3075000Y1184378D02*
G01*
X3075000Y1231622D01*
X3125000Y1184378D02*
G01*
X3125000Y1231622D01*
X3175000Y1184378D02*
G01*
X3175000Y1231622D01*
X3225000Y1184378D02*
G01*
X3225000Y1231622D01*
G36*
X3094684Y294488D02*
G01*
X3134054Y294488D01*
X3134054Y355511D01*
X3094684Y355511D01*
G37*
G36*
X3015945Y294488D02*
G01*
X3055315Y294488D01*
X3055315Y355511D01*
X3015945Y355511D01*
G37*
G36*
X3015945Y744488D02*
G01*
X3055315Y744488D01*
X3055315Y805511D01*
X3015945Y805511D01*
G37*
G36*
X3094684Y744488D02*
G01*
X3134054Y744488D01*
X3134054Y805511D01*
X3094684Y805511D01*
G37*
G36*
X2909692Y618897D02*
G01*
X2909692Y481102D01*
X2996306Y481102D01*
X2996306Y618897D01*
G37*
G36*
X3153693Y481102D02*
G01*
X3153693Y437795D01*
X3240307Y437795D01*
X3240307Y481102D01*
G37*
G36*
X3153693Y571653D02*
G01*
X3153693Y528346D01*
X3240307Y528346D01*
X3240307Y571653D01*
G37*
G36*
X3153693Y662204D02*
G01*
X3153693Y618897D01*
X3240307Y618897D01*
X3240307Y662204D01*
G37*
G36*
X3409449Y547440D02*
G01*
X3456692Y547440D01*
X3456692Y602559D01*
X3409449Y602559D01*
G37*
G36*
X3543307Y547440D02*
G01*
X3590550Y547440D01*
X3590550Y602559D01*
X3543307Y602559D01*
G37*
G36*
X3409449Y422440D02*
G01*
X3456692Y422440D01*
X3456692Y477559D01*
X3409449Y477559D01*
G37*
G36*
X3543307Y422440D02*
G01*
X3590550Y422440D01*
X3590550Y477559D01*
X3543307Y477559D01*
G37*
G36*
X1231728Y1332283D02*
G01*
X1263224Y1332283D01*
X1263224Y1367716D01*
X1231728Y1367716D01*
G37*
G36*
X1286845Y1332283D02*
G01*
X1318342Y1332283D01*
X1318342Y1367716D01*
X1286845Y1367716D01*
G37*
G36*
X2668189Y4547716D02*
G01*
X2636692Y4547716D01*
X2636692Y4512283D01*
X2668189Y4512283D01*
G37*
G36*
X2723307Y4547716D02*
G01*
X2691810Y4547716D01*
X2691810Y4512283D01*
X2723307Y4512283D01*
G37*
G36*
X2668189Y4472716D02*
G01*
X2636692Y4472716D01*
X2636692Y4437283D01*
X2668189Y4437283D01*
G37*
G36*
X2723307Y4472716D02*
G01*
X2691810Y4472716D01*
X2691810Y4437283D01*
X2723307Y4437283D01*
G37*
G36*
X2834095Y4662710D02*
G01*
X2877583Y4644250D01*
X2899120Y4694987D01*
X2855631Y4713447D01*
G37*
G36*
X2710879Y4715012D02*
G01*
X2754368Y4696552D01*
X2775904Y4747289D01*
X2732416Y4765749D01*
G37*
G36*
X2536810Y907283D02*
G01*
X2568307Y907283D01*
X2568307Y942716D01*
X2536810Y942716D01*
G37*
G36*
X2481692Y907283D02*
G01*
X2513189Y907283D01*
X2513189Y942716D01*
X2481692Y942716D01*
G37*
G36*
X2536810Y832283D02*
G01*
X2568307Y832283D01*
X2568307Y867716D01*
X2536810Y867716D01*
G37*
G36*
X2481692Y832283D02*
G01*
X2513189Y832283D01*
X2513189Y867716D01*
X2481692Y867716D01*
G37*
G36*
X2536810Y757283D02*
G01*
X2568307Y757283D01*
X2568307Y792716D01*
X2536810Y792716D01*
G37*
G36*
X2481692Y757283D02*
G01*
X2513189Y757283D01*
X2513189Y792716D01*
X2481692Y792716D01*
G37*
G36*
X2536810Y682283D02*
G01*
X2568307Y682283D01*
X2568307Y717716D01*
X2536810Y717716D01*
G37*
G36*
X2481692Y682283D02*
G01*
X2513189Y682283D01*
X2513189Y717716D01*
X2481692Y717716D01*
G37*
G36*
X1065550Y452559D02*
G01*
X1018307Y452559D01*
X1018307Y397440D01*
X1065550Y397440D01*
G37*
G36*
X931692Y452559D02*
G01*
X884449Y452559D01*
X884449Y397440D01*
X931692Y397440D01*
G37*
G36*
X797244Y612795D02*
G01*
X797244Y534054D01*
X836613Y534054D01*
X836613Y612795D01*
G37*
G36*
X797244Y415945D02*
G01*
X797244Y337204D01*
X836613Y337204D01*
X836613Y415945D01*
G37*
G36*
X663386Y612795D02*
G01*
X663386Y534054D01*
X702755Y534054D01*
X702755Y612795D01*
G37*
G36*
X1463189Y817716D02*
G01*
X1431692Y817716D01*
X1431692Y782283D01*
X1463189Y782283D01*
G37*
G36*
X1518307Y817716D02*
G01*
X1486810Y817716D01*
X1486810Y782283D01*
X1518307Y782283D01*
G37*
G36*
X1150406Y611220D02*
G01*
X1150406Y638779D01*
X1101193Y638779D01*
X1101193Y611220D01*
G37*
G36*
X1248806Y573820D02*
G01*
X1248806Y601379D01*
X1199593Y601379D01*
X1199593Y573820D01*
G37*
G36*
X1248806Y648620D02*
G01*
X1248806Y676179D01*
X1199593Y676179D01*
X1199593Y648620D01*
G37*
G36*
X1199593Y1013779D02*
G01*
X1199593Y986220D01*
X1248806Y986220D01*
X1248806Y1013779D01*
G37*
G36*
X1101193Y1051179D02*
G01*
X1101193Y1023620D01*
X1150406Y1023620D01*
X1150406Y1051179D01*
G37*
G36*
X1101193Y976379D02*
G01*
X1101193Y948820D01*
X1150406Y948820D01*
X1150406Y976379D01*
G37*
G36*
X1150406Y836220D02*
G01*
X1150406Y863779D01*
X1101193Y863779D01*
X1101193Y836220D01*
G37*
G36*
X1248806Y798820D02*
G01*
X1248806Y826379D01*
X1199593Y826379D01*
X1199593Y798820D01*
G37*
G36*
X1248806Y873620D02*
G01*
X1248806Y901179D01*
X1199593Y901179D01*
X1199593Y873620D01*
G37*
G36*
X1463189Y642716D02*
G01*
X1431692Y642716D01*
X1431692Y607283D01*
X1463189Y607283D01*
G37*
G36*
X1518307Y642716D02*
G01*
X1486810Y642716D01*
X1486810Y607283D01*
X1518307Y607283D01*
G37*
G36*
X986810Y857283D02*
G01*
X1018307Y857283D01*
X1018307Y892716D01*
X986810Y892716D01*
G37*
G36*
X931692Y857283D02*
G01*
X963189Y857283D01*
X963189Y892716D01*
X931692Y892716D01*
G37*
G36*
X986810Y957283D02*
G01*
X1018307Y957283D01*
X1018307Y992716D01*
X986810Y992716D01*
G37*
G36*
X931692Y957283D02*
G01*
X963189Y957283D01*
X963189Y992716D01*
X931692Y992716D01*
G37*
G36*
X3107282Y1013189D02*
G01*
X3107282Y981693D01*
X3142717Y981693D01*
X3142717Y1013189D01*
G37*
G36*
X3107282Y1068306D02*
G01*
X3107282Y1036810D01*
X3142717Y1036810D01*
X3142717Y1068306D01*
G37*
G36*
X3182282Y1013189D02*
G01*
X3182282Y981693D01*
X3217717Y981693D01*
X3217717Y1013189D01*
G37*
G36*
X3182282Y1068306D02*
G01*
X3182282Y1036810D01*
X3217717Y1036810D01*
X3217717Y1068306D01*
G37*
G36*
X1870471Y1311024D02*
G01*
X1870471Y1366142D01*
X1787794Y1366142D01*
X1787794Y1311024D01*
G37*
G36*
X1512204Y1311023D02*
G01*
X1512204Y1366141D01*
X1429528Y1366141D01*
X1429528Y1311023D01*
G37*
G36*
X1870470Y1133857D02*
G01*
X1870470Y1188975D01*
X1787794Y1188975D01*
X1787794Y1133857D01*
G37*
G36*
X1512205Y1133858D02*
G01*
X1512205Y1188975D01*
X1429528Y1188975D01*
X1429528Y1133858D01*
G37*
G36*
X2006692Y699016D02*
G01*
X2006692Y646653D01*
X2059054Y646653D01*
X2059054Y699016D01*
G37*
G36*
X1934449Y699016D02*
G01*
X1934449Y646653D01*
X1986810Y646653D01*
X1986810Y699016D01*
G37*
G36*
X1862205Y699016D02*
G01*
X1862205Y646653D01*
X1914566Y646653D01*
X1914566Y699016D01*
G37*
G36*
X1862205Y554528D02*
G01*
X1862205Y502165D01*
X1914566Y502165D01*
X1914566Y554528D01*
G37*
G36*
X1934449Y554528D02*
G01*
X1934449Y502165D01*
X1986810Y502165D01*
X1986810Y554528D01*
G37*
G36*
X2006692Y554528D02*
G01*
X2006692Y502165D01*
X2059054Y502165D01*
X2059054Y554528D01*
G37*
G36*
X2006692Y626772D02*
G01*
X2006692Y574409D01*
X2059054Y574409D01*
X2059054Y626772D01*
G37*
G36*
X1862205Y626772D02*
G01*
X1862205Y574409D01*
X1914566Y574409D01*
X1914566Y626772D01*
G37*
G36*
X1934449Y626772D02*
G01*
X1934449Y574409D01*
X1986810Y574409D01*
X1986810Y626772D01*
G37*
G36*
X2374016Y323032D02*
G01*
X2295276Y323032D01*
X2295276Y287597D01*
X2374016Y287597D01*
G37*
G36*
X2374016Y373032D02*
G01*
X2295276Y373032D01*
X2295276Y337597D01*
X2374016Y337597D01*
G37*
G36*
X2374016Y423032D02*
G01*
X2295276Y423032D01*
X2295276Y387597D01*
X2374016Y387597D01*
G37*
G36*
X2374016Y473032D02*
G01*
X2295276Y473032D01*
X2295276Y437597D01*
X2374016Y437597D01*
G37*
G36*
X2374016Y523032D02*
G01*
X2295276Y523032D01*
X2295276Y487597D01*
X2374016Y487597D01*
G37*
G36*
X2374016Y573032D02*
G01*
X2295276Y573032D01*
X2295276Y537597D01*
X2374016Y537597D01*
G37*
G36*
X2374016Y623032D02*
G01*
X2295276Y623032D01*
X2295276Y587597D01*
X2374016Y587597D01*
G37*
G36*
X2374016Y673032D02*
G01*
X2295276Y673032D01*
X2295276Y637597D01*
X2374016Y637597D01*
G37*
G36*
X2374016Y723032D02*
G01*
X2295276Y723032D01*
X2295276Y687597D01*
X2374016Y687597D01*
G37*
G36*
X2374016Y773032D02*
G01*
X2295276Y773032D01*
X2295276Y737597D01*
X2374016Y737597D01*
G37*
G36*
X2374016Y823032D02*
G01*
X2295276Y823032D01*
X2295276Y787597D01*
X2374016Y787597D01*
G37*
G36*
X2374016Y873032D02*
G01*
X2295276Y873032D01*
X2295276Y837597D01*
X2374016Y837597D01*
G37*
G36*
X2374016Y923032D02*
G01*
X2295276Y923032D01*
X2295276Y887597D01*
X2374016Y887597D01*
G37*
G36*
X2374016Y973032D02*
G01*
X2295276Y973032D01*
X2295276Y937597D01*
X2374016Y937597D01*
G37*
G36*
X2207282Y1034054D02*
G01*
X2207282Y955315D01*
X2242717Y955315D01*
X2242717Y1034054D01*
G37*
G36*
X2157282Y1034054D02*
G01*
X2157282Y955315D01*
X2192717Y955315D01*
X2192717Y1034054D01*
G37*
G36*
X2107282Y1034054D02*
G01*
X2107282Y955315D01*
X2142717Y955315D01*
X2142717Y1034054D01*
G37*
G36*
X2057282Y1034054D02*
G01*
X2057282Y955315D01*
X2092717Y955315D01*
X2092717Y1034054D01*
G37*
G36*
X2007282Y1034054D02*
G01*
X2007282Y955315D01*
X2042717Y955315D01*
X2042717Y1034054D01*
G37*
G36*
X1957282Y1034054D02*
G01*
X1957282Y955315D01*
X1992717Y955315D01*
X1992717Y1034054D01*
G37*
G36*
X1907282Y1034054D02*
G01*
X1907282Y955315D01*
X1942717Y955315D01*
X1942717Y1034054D01*
G37*
G36*
X1857282Y1034054D02*
G01*
X1857282Y955315D01*
X1892717Y955315D01*
X1892717Y1034054D01*
G37*
G36*
X1807282Y1034054D02*
G01*
X1807282Y955315D01*
X1842717Y955315D01*
X1842717Y1034054D01*
G37*
G36*
X1757282Y1034054D02*
G01*
X1757282Y955315D01*
X1792717Y955315D01*
X1792717Y1034054D01*
G37*
G36*
X1625983Y937597D02*
G01*
X1704723Y937597D01*
X1704723Y973032D01*
X1625983Y973032D01*
G37*
G36*
X1625983Y887597D02*
G01*
X1704723Y887597D01*
X1704723Y923032D01*
X1625983Y923032D01*
G37*
G36*
X1625983Y837597D02*
G01*
X1704723Y837597D01*
X1704723Y873032D01*
X1625983Y873032D01*
G37*
G36*
X1625983Y787597D02*
G01*
X1704723Y787597D01*
X1704723Y823032D01*
X1625983Y823032D01*
G37*
G36*
X1625983Y737597D02*
G01*
X1704723Y737597D01*
X1704723Y773032D01*
X1625983Y773032D01*
G37*
G36*
X1625983Y687597D02*
G01*
X1704723Y687597D01*
X1704723Y723032D01*
X1625983Y723032D01*
G37*
G36*
X1625983Y637597D02*
G01*
X1704723Y637597D01*
X1704723Y673032D01*
X1625983Y673032D01*
G37*
G36*
X1625983Y587597D02*
G01*
X1704723Y587597D01*
X1704723Y623032D01*
X1625983Y623032D01*
G37*
G36*
X1625983Y537597D02*
G01*
X1704723Y537597D01*
X1704723Y573032D01*
X1625983Y573032D01*
G37*
G36*
X1625983Y487597D02*
G01*
X1704723Y487597D01*
X1704723Y523032D01*
X1625983Y523032D01*
G37*
G36*
X1625983Y437597D02*
G01*
X1704723Y437597D01*
X1704723Y473032D01*
X1625983Y473032D01*
G37*
G36*
X1625983Y387597D02*
G01*
X1704723Y387597D01*
X1704723Y423032D01*
X1625983Y423032D01*
G37*
G36*
X1625983Y337597D02*
G01*
X1704723Y337597D01*
X1704723Y373032D01*
X1625983Y373032D01*
G37*
G36*
X1625983Y287597D02*
G01*
X1704723Y287597D01*
X1704723Y323032D01*
X1625983Y323032D01*
G37*
G36*
X2520471Y1311024D02*
G01*
X2520471Y1366142D01*
X2437794Y1366142D01*
X2437794Y1311024D01*
G37*
G36*
X2162204Y1311023D02*
G01*
X2162204Y1366141D01*
X2079528Y1366141D01*
X2079528Y1311023D01*
G37*
G36*
X2520470Y1133857D02*
G01*
X2520470Y1188975D01*
X2437794Y1188975D01*
X2437794Y1133857D01*
G37*
G36*
X2162205Y1133858D02*
G01*
X2162205Y1188975D01*
X2079528Y1188975D01*
X2079528Y1133858D01*
G37*
G36*
X3357870Y1007290D02*
G01*
X3342121Y1007290D01*
X3342121Y971857D01*
X3357870Y971857D01*
G37*
G36*
X3332280Y1007290D02*
G01*
X3316531Y1007290D01*
X3316531Y971857D01*
X3332280Y971857D01*
G37*
G36*
X3332280Y1078151D02*
G01*
X3316531Y1078151D01*
X3316531Y1042716D01*
X3332280Y1042716D01*
G37*
G36*
X3357870Y1078151D02*
G01*
X3342121Y1078151D01*
X3342121Y1042716D01*
X3357870Y1042716D01*
G37*
G36*
X3383459Y1078151D02*
G01*
X3367712Y1078151D01*
X3367712Y1042716D01*
X3383459Y1042716D01*
G37*
G36*
X3383459Y1007290D02*
G01*
X3367712Y1007290D01*
X3367712Y971857D01*
X3383459Y971857D01*
G37*
G36*
X3775195Y456691D02*
G01*
X3775195Y440943D01*
X3828344Y440943D01*
X3828344Y456691D01*
G37*
G36*
X3775195Y482282D02*
G01*
X3775195Y466534D01*
X3828344Y466534D01*
X3828344Y482282D01*
G37*
G36*
X3775195Y507872D02*
G01*
X3775195Y492125D01*
X3828344Y492125D01*
X3828344Y507872D01*
G37*
G36*
X3775195Y533463D02*
G01*
X3775195Y517714D01*
X3828344Y517714D01*
X3828344Y533463D01*
G37*
G36*
X3775195Y559054D02*
G01*
X3775195Y543305D01*
X3828344Y543305D01*
X3828344Y559054D01*
G37*
G36*
X1463189Y392716D02*
G01*
X1431692Y392716D01*
X1431692Y357283D01*
X1463189Y357283D01*
G37*
G36*
X1518307Y392716D02*
G01*
X1486810Y392716D01*
X1486810Y357283D01*
X1518307Y357283D01*
G37*
G36*
X1463189Y567716D02*
G01*
X1431692Y567716D01*
X1431692Y532283D01*
X1463189Y532283D01*
G37*
G36*
X1518307Y567716D02*
G01*
X1486810Y567716D01*
X1486810Y532283D01*
X1518307Y532283D01*
G37*
G36*
X3307282Y1443306D02*
G01*
X3307282Y1411810D01*
X3342717Y1411810D01*
X3342717Y1443306D01*
G37*
G36*
X3307282Y1388189D02*
G01*
X3307282Y1356693D01*
X3342717Y1356693D01*
X3342717Y1388189D01*
G37*
G36*
X1431692Y282283D02*
G01*
X1463189Y282283D01*
X1463189Y317716D01*
X1431692Y317716D01*
G37*
G36*
X1486810Y282283D02*
G01*
X1518307Y282283D01*
X1518307Y317716D01*
X1486810Y317716D01*
G37*
G36*
X2568307Y317716D02*
G01*
X2536810Y317716D01*
X2536810Y282283D01*
X2568307Y282283D01*
G37*
G36*
X2513189Y317716D02*
G01*
X2481692Y317716D01*
X2481692Y282283D01*
X2513189Y282283D01*
G37*
G36*
X1431692Y432283D02*
G01*
X1463189Y432283D01*
X1463189Y467716D01*
X1431692Y467716D01*
G37*
G36*
X1486810Y432283D02*
G01*
X1518307Y432283D01*
X1518307Y467716D01*
X1486810Y467716D01*
G37*
G36*
X2557282Y1293306D02*
G01*
X2557282Y1261810D01*
X2592717Y1261810D01*
X2592717Y1293306D01*
G37*
G36*
X2557282Y1238189D02*
G01*
X2557282Y1206693D01*
X2592717Y1206693D01*
X2592717Y1238189D01*
G37*
G36*
X2742717Y5031693D02*
G01*
X2742717Y5063189D01*
X2707282Y5063189D01*
X2707282Y5031693D01*
G37*
G36*
X2742717Y5086810D02*
G01*
X2742717Y5118307D01*
X2707282Y5118307D01*
X2707282Y5086810D01*
G37*
G36*
X2976836Y4953245D02*
G01*
X2987609Y4982842D01*
X2954312Y4994960D01*
X2943540Y4965364D01*
G37*
G36*
X2995688Y5005039D02*
G01*
X3006459Y5034636D01*
X2973163Y5046754D01*
X2962390Y5017157D01*
G37*
G36*
X3211019Y4858220D02*
G01*
X3222308Y4887624D01*
X3189227Y4900322D01*
X3177939Y4870918D01*
G37*
G36*
X3230772Y4909677D02*
G01*
X3242060Y4939081D01*
X3208980Y4951779D01*
X3197691Y4922375D01*
G37*
G36*
X3436836Y4768245D02*
G01*
X3447609Y4797842D01*
X3414312Y4809960D01*
X3403540Y4780364D01*
G37*
G36*
X3455688Y4820039D02*
G01*
X3466459Y4849636D01*
X3433163Y4861754D01*
X3422390Y4832157D01*
G37*
G36*
X3549673Y4529362D02*
G01*
X3567737Y4555163D01*
X3538712Y4575486D01*
X3520646Y4549686D01*
G37*
G36*
X3581287Y4574513D02*
G01*
X3599353Y4600313D01*
X3570326Y4620637D01*
X3552262Y4594836D01*
G37*
G36*
X3711904Y4366849D02*
G01*
X3734175Y4389121D01*
X3709120Y4414176D01*
X3686849Y4391904D01*
G37*
G36*
X3750879Y4405823D02*
G01*
X3773150Y4428095D01*
X3748095Y4453150D01*
X3725824Y4430879D01*
G37*
G36*
X3748765Y4110395D02*
G01*
X3778885Y4119603D01*
X3768524Y4153490D01*
X3738405Y4144281D01*
G37*
G36*
X3801475Y4126509D02*
G01*
X3831594Y4135718D01*
X3821234Y4169604D01*
X3791115Y4160396D01*
G37*
G36*
X3819287Y3879767D02*
G01*
X3849242Y3889499D01*
X3838292Y3923200D01*
X3808338Y3913467D01*
G37*
G36*
X3871707Y3896799D02*
G01*
X3901661Y3906532D01*
X3890712Y3940232D01*
X3860757Y3930500D01*
G37*
G36*
X2804386Y4818213D02*
G01*
X2816693Y4847204D01*
X2784075Y4861051D01*
X2771769Y4832058D01*
G37*
G36*
X2825924Y4868948D02*
G01*
X2838230Y4897941D01*
X2805613Y4911786D01*
X2793306Y4882795D01*
G37*
G36*
X3030204Y4723209D02*
G01*
X3042002Y4752411D01*
X3009148Y4765686D01*
X2997349Y4736482D01*
G37*
G36*
X3050851Y4774313D02*
G01*
X3062650Y4803517D01*
X3029795Y4816790D01*
X3017997Y4787588D01*
G37*
G36*
X3265204Y4623209D02*
G01*
X3277002Y4652411D01*
X3244148Y4665686D01*
X3232349Y4636482D01*
G37*
G36*
X3285851Y4674313D02*
G01*
X3297650Y4703517D01*
X3264795Y4716790D01*
X3252997Y4687588D01*
G37*
G36*
X3389673Y4409362D02*
G01*
X3407737Y4435163D01*
X3378712Y4455486D01*
X3360646Y4429686D01*
G37*
G36*
X3421287Y4454513D02*
G01*
X3439353Y4480313D01*
X3410326Y4500637D01*
X3392262Y4474836D01*
G37*
G36*
X3519287Y4209767D02*
G01*
X3549242Y4219499D01*
X3538292Y4253200D01*
X3508338Y4243467D01*
G37*
G36*
X3571707Y4226799D02*
G01*
X3601661Y4236532D01*
X3590712Y4270232D01*
X3560757Y4260500D01*
G37*
G36*
X3589287Y3939767D02*
G01*
X3619242Y3949499D01*
X3608292Y3983200D01*
X3578338Y3973467D01*
G37*
G36*
X3641707Y3956799D02*
G01*
X3671661Y3966532D01*
X3660712Y4000232D01*
X3630757Y3990500D01*
G37*
G36*
X3659287Y3689767D02*
G01*
X3689242Y3699499D01*
X3678292Y3733200D01*
X3648338Y3723467D01*
G37*
G36*
X3711707Y3706799D02*
G01*
X3741661Y3716532D01*
X3730712Y3750232D01*
X3700757Y3740500D01*
G37*
G36*
X2364382Y4733166D02*
G01*
X2412678Y4746108D01*
X2386796Y4842700D01*
X2338500Y4829760D01*
G37*
G36*
X2420019Y4525529D02*
G01*
X2468316Y4538472D01*
X2442434Y4635064D01*
X2394137Y4622123D01*
G37*
G36*
X2460976Y4759049D02*
G01*
X2509272Y4771990D01*
X2483389Y4868582D01*
X2435092Y4855641D01*
G37*
G36*
X2516611Y4551413D02*
G01*
X2564907Y4564353D01*
X2539026Y4660945D01*
X2490730Y4648004D01*
G37*
G36*
X2557568Y4784931D02*
G01*
X2605864Y4797872D01*
X2579983Y4894465D01*
X2531685Y4881523D01*
G37*
G36*
X2613203Y4577294D02*
G01*
X2661499Y4590236D01*
X2635618Y4686828D01*
X2587322Y4673887D01*
G37*
M02*
