G04 EAGLE Gerber RS-274X export*
G75*
%MOMM*%
%FSLAX34Y34*%
%LPD*%
%INSilkscreen Bottom*%
%IPPOS*%
%AMOC8*
5,1,8,0,0,1.08239X$1,22.5*%
G01*
%ADD10C,0.152400*%
%ADD11C,0.076200*%


D10*
X367761Y267633D02*
X372363Y284807D01*
X358220Y270190D01*
X362822Y287364D01*
X354366Y284517D02*
X352321Y276884D01*
X354366Y284517D02*
X354400Y284652D01*
X354430Y284789D01*
X354457Y284926D01*
X354480Y285064D01*
X354498Y285202D01*
X354513Y285341D01*
X354524Y285481D01*
X354531Y285620D01*
X354534Y285760D01*
X354533Y285900D01*
X354528Y286040D01*
X354519Y286179D01*
X354506Y286318D01*
X354489Y286457D01*
X354469Y286595D01*
X354444Y286733D01*
X354416Y286870D01*
X354383Y287006D01*
X354347Y287141D01*
X354307Y287275D01*
X354263Y287407D01*
X354216Y287539D01*
X354165Y287669D01*
X354110Y287797D01*
X354051Y287924D01*
X353989Y288050D01*
X353924Y288173D01*
X353855Y288295D01*
X353782Y288414D01*
X353706Y288532D01*
X353627Y288647D01*
X353545Y288760D01*
X353460Y288871D01*
X353371Y288979D01*
X353279Y289084D01*
X353185Y289187D01*
X353087Y289287D01*
X352987Y289385D01*
X352884Y289479D01*
X352779Y289571D01*
X352671Y289660D01*
X352560Y289745D01*
X352447Y289827D01*
X352332Y289906D01*
X352214Y289982D01*
X352095Y290055D01*
X351973Y290124D01*
X351850Y290189D01*
X351724Y290251D01*
X351597Y290310D01*
X351469Y290365D01*
X351339Y290416D01*
X351207Y290463D01*
X351075Y290507D01*
X350941Y290547D01*
X350806Y290583D01*
X350670Y290616D01*
X350533Y290644D01*
X350395Y290669D01*
X350257Y290689D01*
X350118Y290706D01*
X349979Y290719D01*
X349840Y290728D01*
X349700Y290733D01*
X349560Y290734D01*
X349420Y290731D01*
X349281Y290724D01*
X349141Y290713D01*
X349002Y290698D01*
X348864Y290680D01*
X348726Y290657D01*
X348589Y290630D01*
X348452Y290600D01*
X348317Y290566D01*
X348182Y290528D01*
X348049Y290486D01*
X347917Y290440D01*
X347786Y290391D01*
X347657Y290338D01*
X347529Y290281D01*
X347403Y290221D01*
X347278Y290157D01*
X347156Y290090D01*
X347035Y290019D01*
X346917Y289945D01*
X346800Y289867D01*
X346686Y289787D01*
X346574Y289703D01*
X346465Y289616D01*
X346358Y289526D01*
X346254Y289432D01*
X346152Y289336D01*
X346054Y289238D01*
X345958Y289136D01*
X345864Y289032D01*
X345774Y288925D01*
X345687Y288816D01*
X345603Y288704D01*
X345523Y288590D01*
X345445Y288473D01*
X345371Y288355D01*
X345300Y288234D01*
X345233Y288112D01*
X345169Y287987D01*
X345109Y287861D01*
X345052Y287733D01*
X344999Y287604D01*
X344950Y287473D01*
X344904Y287341D01*
X344862Y287208D01*
X344824Y287073D01*
X344825Y287073D02*
X342779Y279440D01*
X342745Y279305D01*
X342715Y279168D01*
X342688Y279031D01*
X342665Y278893D01*
X342647Y278755D01*
X342632Y278616D01*
X342621Y278476D01*
X342614Y278337D01*
X342611Y278197D01*
X342612Y278057D01*
X342617Y277917D01*
X342626Y277778D01*
X342639Y277639D01*
X342656Y277500D01*
X342676Y277362D01*
X342701Y277224D01*
X342729Y277087D01*
X342762Y276951D01*
X342798Y276816D01*
X342838Y276682D01*
X342882Y276550D01*
X342929Y276418D01*
X342980Y276288D01*
X343035Y276160D01*
X343094Y276033D01*
X343156Y275907D01*
X343221Y275784D01*
X343290Y275662D01*
X343363Y275543D01*
X343439Y275425D01*
X343518Y275310D01*
X343600Y275197D01*
X343685Y275086D01*
X343774Y274978D01*
X343866Y274873D01*
X343960Y274770D01*
X344058Y274670D01*
X344158Y274572D01*
X344261Y274478D01*
X344366Y274386D01*
X344474Y274297D01*
X344585Y274212D01*
X344698Y274130D01*
X344813Y274051D01*
X344931Y273975D01*
X345050Y273902D01*
X345172Y273833D01*
X345295Y273768D01*
X345421Y273706D01*
X345548Y273647D01*
X345676Y273592D01*
X345806Y273541D01*
X345938Y273494D01*
X346070Y273450D01*
X346204Y273410D01*
X346339Y273374D01*
X346475Y273341D01*
X346612Y273313D01*
X346750Y273288D01*
X346888Y273268D01*
X347027Y273251D01*
X347166Y273238D01*
X347305Y273229D01*
X347445Y273224D01*
X347585Y273223D01*
X347725Y273226D01*
X347864Y273233D01*
X348004Y273244D01*
X348143Y273259D01*
X348281Y273277D01*
X348419Y273300D01*
X348556Y273327D01*
X348693Y273357D01*
X348828Y273391D01*
X348963Y273429D01*
X349096Y273471D01*
X349228Y273517D01*
X349359Y273566D01*
X349488Y273619D01*
X349616Y273676D01*
X349742Y273736D01*
X349867Y273800D01*
X349989Y273867D01*
X350110Y273938D01*
X350228Y274012D01*
X350345Y274090D01*
X350459Y274170D01*
X350571Y274254D01*
X350680Y274341D01*
X350787Y274431D01*
X350891Y274525D01*
X350993Y274621D01*
X351091Y274719D01*
X351187Y274821D01*
X351281Y274925D01*
X351371Y275032D01*
X351458Y275141D01*
X351542Y275253D01*
X351622Y275367D01*
X351700Y275484D01*
X351774Y275602D01*
X351845Y275723D01*
X351912Y275845D01*
X351976Y275970D01*
X352036Y276096D01*
X352093Y276224D01*
X352146Y276353D01*
X352195Y276484D01*
X352241Y276616D01*
X352283Y276749D01*
X352321Y276884D01*
X334241Y276615D02*
X338843Y293789D01*
X334072Y295067D01*
X334072Y295068D02*
X333937Y295102D01*
X333800Y295132D01*
X333663Y295159D01*
X333525Y295182D01*
X333387Y295200D01*
X333248Y295215D01*
X333108Y295226D01*
X332969Y295233D01*
X332829Y295236D01*
X332689Y295235D01*
X332549Y295230D01*
X332410Y295221D01*
X332271Y295208D01*
X332132Y295191D01*
X331994Y295171D01*
X331856Y295146D01*
X331719Y295118D01*
X331583Y295085D01*
X331448Y295049D01*
X331314Y295009D01*
X331182Y294965D01*
X331050Y294918D01*
X330920Y294867D01*
X330791Y294812D01*
X330665Y294753D01*
X330539Y294691D01*
X330416Y294626D01*
X330294Y294557D01*
X330175Y294484D01*
X330057Y294408D01*
X329942Y294329D01*
X329829Y294247D01*
X329718Y294162D01*
X329610Y294073D01*
X329505Y293981D01*
X329402Y293887D01*
X329302Y293789D01*
X329204Y293689D01*
X329110Y293586D01*
X329018Y293481D01*
X328929Y293372D01*
X328844Y293262D01*
X328762Y293149D01*
X328683Y293034D01*
X328607Y292916D01*
X328534Y292797D01*
X328465Y292675D01*
X328400Y292552D01*
X328338Y292426D01*
X328279Y292299D01*
X328224Y292171D01*
X328173Y292041D01*
X328126Y291909D01*
X328082Y291777D01*
X328042Y291643D01*
X328006Y291508D01*
X327973Y291372D01*
X327945Y291235D01*
X327920Y291097D01*
X327900Y290959D01*
X327883Y290820D01*
X327870Y290681D01*
X327861Y290542D01*
X327856Y290402D01*
X327855Y290262D01*
X327858Y290122D01*
X327865Y289983D01*
X327876Y289843D01*
X327891Y289704D01*
X327909Y289566D01*
X327932Y289428D01*
X327959Y289291D01*
X327989Y289154D01*
X328023Y289019D01*
X328061Y288884D01*
X328103Y288751D01*
X328149Y288619D01*
X328198Y288488D01*
X328251Y288359D01*
X328308Y288231D01*
X328368Y288105D01*
X328432Y287980D01*
X328499Y287858D01*
X328570Y287737D01*
X328644Y287619D01*
X328722Y287502D01*
X328802Y287388D01*
X328886Y287276D01*
X328973Y287167D01*
X329063Y287060D01*
X329157Y286956D01*
X329253Y286854D01*
X329351Y286756D01*
X329453Y286660D01*
X329557Y286566D01*
X329664Y286476D01*
X329773Y286389D01*
X329885Y286305D01*
X329999Y286225D01*
X330116Y286147D01*
X330234Y286073D01*
X330355Y286002D01*
X330477Y285935D01*
X330602Y285871D01*
X330728Y285811D01*
X330856Y285754D01*
X330985Y285701D01*
X331116Y285652D01*
X331248Y285606D01*
X331381Y285564D01*
X331516Y285526D01*
X331515Y285526D02*
X336286Y284248D01*
X330561Y285782D02*
X324700Y279172D01*
X314452Y281917D02*
X319054Y299092D01*
X323824Y297813D02*
X314283Y300370D01*
X308184Y302004D02*
X303582Y284830D01*
X306139Y294371D02*
X296597Y296928D01*
X298643Y304561D02*
X294041Y287386D01*
X281677Y290700D02*
X281558Y290734D01*
X281440Y290771D01*
X281323Y290813D01*
X281207Y290858D01*
X281093Y290907D01*
X280980Y290959D01*
X280869Y291015D01*
X280760Y291074D01*
X280653Y291136D01*
X280548Y291202D01*
X280445Y291272D01*
X280344Y291344D01*
X280246Y291420D01*
X280150Y291498D01*
X280056Y291580D01*
X279965Y291664D01*
X279877Y291752D01*
X279792Y291842D01*
X279709Y291934D01*
X279629Y292030D01*
X279553Y292127D01*
X279479Y292227D01*
X279409Y292330D01*
X279342Y292434D01*
X279278Y292541D01*
X279218Y292649D01*
X279161Y292759D01*
X279108Y292871D01*
X279058Y292985D01*
X279011Y293100D01*
X278969Y293217D01*
X278930Y293335D01*
X278895Y293454D01*
X278863Y293574D01*
X278835Y293695D01*
X278811Y293816D01*
X278791Y293939D01*
X278775Y294062D01*
X278763Y294185D01*
X278754Y294309D01*
X278750Y294433D01*
X278749Y294557D01*
X278752Y294681D01*
X278760Y294805D01*
X278771Y294929D01*
X278786Y295052D01*
X278804Y295175D01*
X278827Y295297D01*
X278853Y295418D01*
X278884Y295539D01*
X281678Y290699D02*
X281871Y290650D01*
X282066Y290605D01*
X282262Y290565D01*
X282458Y290530D01*
X282655Y290499D01*
X282853Y290473D01*
X283052Y290452D01*
X283251Y290436D01*
X283450Y290424D01*
X283650Y290417D01*
X283850Y290415D01*
X284049Y290418D01*
X284249Y290425D01*
X284448Y290437D01*
X284647Y290454D01*
X284846Y290476D01*
X285044Y290503D01*
X285241Y290534D01*
X285437Y290570D01*
X285633Y290610D01*
X285827Y290656D01*
X286021Y290705D01*
X286213Y290760D01*
X286404Y290819D01*
X286593Y290883D01*
X286780Y290951D01*
X286966Y291024D01*
X287151Y291101D01*
X287333Y291182D01*
X287513Y291268D01*
X287692Y291358D01*
X287868Y291452D01*
X288041Y291551D01*
X290504Y302650D02*
X290535Y302771D01*
X290561Y302892D01*
X290584Y303014D01*
X290602Y303137D01*
X290617Y303260D01*
X290628Y303384D01*
X290636Y303508D01*
X290639Y303632D01*
X290638Y303756D01*
X290634Y303880D01*
X290625Y304004D01*
X290613Y304127D01*
X290597Y304250D01*
X290577Y304373D01*
X290553Y304494D01*
X290525Y304615D01*
X290493Y304736D01*
X290458Y304855D01*
X290419Y304972D01*
X290377Y305089D01*
X290330Y305204D01*
X290280Y305318D01*
X290227Y305430D01*
X290170Y305540D01*
X290110Y305649D01*
X290046Y305755D01*
X289979Y305859D01*
X289909Y305962D01*
X289835Y306062D01*
X289759Y306159D01*
X289679Y306255D01*
X289596Y306347D01*
X289511Y306437D01*
X289423Y306525D01*
X289332Y306609D01*
X289238Y306691D01*
X289142Y306769D01*
X289044Y306845D01*
X288943Y306917D01*
X288840Y306987D01*
X288735Y307053D01*
X288628Y307115D01*
X288518Y307174D01*
X288408Y307230D01*
X288295Y307282D01*
X288181Y307331D01*
X288065Y307376D01*
X287948Y307418D01*
X287830Y307455D01*
X287711Y307489D01*
X287710Y307490D02*
X287539Y307533D01*
X287367Y307573D01*
X287194Y307608D01*
X287020Y307640D01*
X286846Y307667D01*
X286671Y307690D01*
X286495Y307709D01*
X286319Y307723D01*
X286143Y307734D01*
X285967Y307740D01*
X285790Y307742D01*
X285614Y307740D01*
X285437Y307733D01*
X285261Y307723D01*
X285085Y307708D01*
X284910Y307689D01*
X284735Y307666D01*
X284560Y307639D01*
X284386Y307607D01*
X284213Y307572D01*
X284041Y307532D01*
X283870Y307488D01*
X283700Y307440D01*
X283532Y307388D01*
X283364Y307333D01*
X283198Y307273D01*
X283033Y307209D01*
X287701Y299822D02*
X287819Y299857D01*
X287935Y299895D01*
X288050Y299937D01*
X288164Y299982D01*
X288277Y300030D01*
X288388Y300082D01*
X288497Y300138D01*
X288605Y300197D01*
X288710Y300258D01*
X288814Y300324D01*
X288916Y300392D01*
X289015Y300463D01*
X289113Y300538D01*
X289208Y300615D01*
X289300Y300695D01*
X289391Y300778D01*
X289478Y300864D01*
X289563Y300952D01*
X289645Y301043D01*
X289725Y301137D01*
X289801Y301232D01*
X289875Y301330D01*
X289945Y301431D01*
X290013Y301533D01*
X290077Y301637D01*
X290138Y301744D01*
X290196Y301852D01*
X290250Y301961D01*
X290301Y302073D01*
X290349Y302186D01*
X290393Y302300D01*
X290434Y302416D01*
X290471Y302532D01*
X290504Y302650D01*
X281687Y298367D02*
X281569Y298332D01*
X281453Y298294D01*
X281338Y298252D01*
X281224Y298207D01*
X281111Y298159D01*
X281000Y298107D01*
X280891Y298051D01*
X280783Y297992D01*
X280678Y297930D01*
X280574Y297865D01*
X280472Y297797D01*
X280373Y297726D01*
X280275Y297651D01*
X280180Y297574D01*
X280087Y297494D01*
X279997Y297411D01*
X279910Y297325D01*
X279825Y297237D01*
X279743Y297146D01*
X279663Y297052D01*
X279587Y296957D01*
X279513Y296859D01*
X279443Y296758D01*
X279375Y296656D01*
X279311Y296552D01*
X279250Y296445D01*
X279192Y296337D01*
X279138Y296228D01*
X279087Y296116D01*
X279039Y296003D01*
X278995Y295889D01*
X278954Y295773D01*
X278917Y295657D01*
X278884Y295539D01*
X281687Y298366D02*
X287701Y299823D01*
X271195Y293508D02*
X263562Y295553D01*
X271195Y293508D02*
X275797Y310682D01*
X268164Y312727D01*
X268027Y304583D02*
X273752Y303049D01*
X253958Y298127D02*
X250141Y299149D01*
X253957Y298127D02*
X254078Y298096D01*
X254199Y298070D01*
X254321Y298047D01*
X254444Y298029D01*
X254567Y298014D01*
X254691Y298003D01*
X254815Y297995D01*
X254939Y297992D01*
X255063Y297993D01*
X255187Y297997D01*
X255311Y298006D01*
X255434Y298018D01*
X255557Y298034D01*
X255680Y298054D01*
X255801Y298078D01*
X255922Y298106D01*
X256043Y298138D01*
X256162Y298173D01*
X256279Y298212D01*
X256396Y298254D01*
X256511Y298301D01*
X256625Y298351D01*
X256737Y298404D01*
X256847Y298461D01*
X256956Y298521D01*
X257062Y298585D01*
X257166Y298652D01*
X257269Y298722D01*
X257369Y298796D01*
X257466Y298873D01*
X257562Y298952D01*
X257654Y299035D01*
X257744Y299120D01*
X257832Y299208D01*
X257916Y299299D01*
X257998Y299393D01*
X258076Y299489D01*
X258152Y299587D01*
X258224Y299688D01*
X258294Y299791D01*
X258360Y299896D01*
X258422Y300003D01*
X258481Y300113D01*
X258537Y300223D01*
X258589Y300336D01*
X258638Y300450D01*
X258683Y300566D01*
X258725Y300683D01*
X258762Y300801D01*
X258796Y300920D01*
X258797Y300920D02*
X261353Y310462D01*
X261353Y310461D02*
X261384Y310582D01*
X261410Y310703D01*
X261433Y310825D01*
X261451Y310948D01*
X261466Y311071D01*
X261477Y311195D01*
X261485Y311319D01*
X261488Y311443D01*
X261487Y311567D01*
X261483Y311691D01*
X261474Y311815D01*
X261462Y311938D01*
X261446Y312061D01*
X261426Y312184D01*
X261402Y312305D01*
X261374Y312426D01*
X261342Y312546D01*
X261307Y312666D01*
X261268Y312783D01*
X261226Y312900D01*
X261179Y313015D01*
X261129Y313129D01*
X261076Y313241D01*
X261019Y313351D01*
X260959Y313459D01*
X260895Y313566D01*
X260828Y313670D01*
X260758Y313773D01*
X260684Y313873D01*
X260608Y313970D01*
X260528Y314066D01*
X260445Y314158D01*
X260360Y314248D01*
X260272Y314336D01*
X260181Y314420D01*
X260087Y314502D01*
X259991Y314580D01*
X259893Y314656D01*
X259792Y314728D01*
X259689Y314798D01*
X259584Y314864D01*
X259477Y314926D01*
X259367Y314985D01*
X259257Y315041D01*
X259144Y315093D01*
X259030Y315142D01*
X258914Y315187D01*
X258797Y315229D01*
X258679Y315266D01*
X258560Y315300D01*
X258560Y315301D02*
X254743Y316323D01*
X234982Y321619D02*
X234854Y321651D01*
X234725Y321679D01*
X234596Y321704D01*
X234466Y321724D01*
X234335Y321741D01*
X234204Y321754D01*
X234072Y321763D01*
X233941Y321769D01*
X233809Y321770D01*
X233677Y321767D01*
X233546Y321761D01*
X233414Y321750D01*
X233284Y321736D01*
X233153Y321718D01*
X233023Y321696D01*
X232894Y321670D01*
X232766Y321640D01*
X232638Y321607D01*
X232512Y321570D01*
X232387Y321529D01*
X232263Y321484D01*
X232140Y321436D01*
X232019Y321384D01*
X231900Y321328D01*
X231782Y321269D01*
X231666Y321207D01*
X231552Y321141D01*
X231440Y321072D01*
X231330Y320999D01*
X231222Y320924D01*
X231116Y320845D01*
X231013Y320763D01*
X230913Y320678D01*
X230815Y320590D01*
X230719Y320499D01*
X230626Y320405D01*
X230537Y320309D01*
X230450Y320210D01*
X230366Y320109D01*
X230285Y320005D01*
X230207Y319898D01*
X230132Y319790D01*
X230061Y319679D01*
X229993Y319566D01*
X229928Y319452D01*
X229866Y319335D01*
X229809Y319217D01*
X229754Y319097D01*
X229704Y318975D01*
X229657Y318852D01*
X229613Y318728D01*
X229573Y318602D01*
X229537Y318475D01*
X234981Y321618D02*
X235125Y321578D01*
X235268Y321533D01*
X235410Y321485D01*
X235550Y321433D01*
X235689Y321378D01*
X235827Y321319D01*
X235962Y321256D01*
X236097Y321190D01*
X236229Y321120D01*
X236360Y321047D01*
X236488Y320971D01*
X236615Y320891D01*
X236739Y320808D01*
X236861Y320721D01*
X236981Y320632D01*
X237099Y320539D01*
X237214Y320443D01*
X237326Y320345D01*
X237436Y320243D01*
X237543Y320139D01*
X237647Y320031D01*
X237749Y319922D01*
X237847Y319809D01*
X237943Y319694D01*
X238036Y319576D01*
X238125Y319456D01*
X238211Y319334D01*
X238294Y319210D01*
X238374Y319083D01*
X238451Y318955D01*
X238524Y318824D01*
X238593Y318691D01*
X238659Y318557D01*
X238722Y318421D01*
X238781Y318284D01*
X238836Y318145D01*
X238888Y318004D01*
X238936Y317863D01*
X238980Y317720D01*
X239021Y317576D01*
X239057Y317431D01*
X239090Y317285D01*
X239119Y317138D01*
X239144Y316990D01*
X239166Y316842D01*
X239183Y316694D01*
X239197Y316545D01*
X239206Y316395D01*
X230074Y314753D02*
X230006Y314868D01*
X229942Y314984D01*
X229880Y315103D01*
X229822Y315223D01*
X229768Y315344D01*
X229716Y315467D01*
X229669Y315592D01*
X229624Y315717D01*
X229584Y315844D01*
X229546Y315972D01*
X229513Y316101D01*
X229483Y316231D01*
X229456Y316362D01*
X229434Y316493D01*
X229415Y316625D01*
X229399Y316758D01*
X229388Y316890D01*
X229380Y317024D01*
X229376Y317157D01*
X229375Y317290D01*
X229379Y317423D01*
X229386Y317556D01*
X229396Y317689D01*
X229411Y317822D01*
X229429Y317954D01*
X229450Y318085D01*
X229476Y318216D01*
X229505Y318346D01*
X229538Y318476D01*
X230074Y314752D02*
X235627Y303038D01*
X226086Y305595D01*
X221749Y315961D02*
X221835Y316300D01*
X221914Y316641D01*
X221984Y316983D01*
X222046Y317328D01*
X222100Y317673D01*
X222145Y318020D01*
X222182Y318368D01*
X222211Y318716D01*
X222232Y319066D01*
X222244Y319415D01*
X222248Y319765D01*
X222244Y320115D01*
X222231Y320464D01*
X222210Y320813D01*
X222180Y321162D01*
X222142Y321510D01*
X222096Y321856D01*
X222042Y322202D01*
X221979Y322546D01*
X221969Y322665D01*
X221955Y322784D01*
X221937Y322902D01*
X221916Y323019D01*
X221890Y323135D01*
X221861Y323251D01*
X221828Y323366D01*
X221791Y323479D01*
X221751Y323591D01*
X221707Y323702D01*
X221659Y323812D01*
X221608Y323919D01*
X221553Y324025D01*
X221495Y324130D01*
X221433Y324232D01*
X221368Y324332D01*
X221300Y324430D01*
X221229Y324526D01*
X221155Y324619D01*
X221077Y324710D01*
X220997Y324798D01*
X220914Y324884D01*
X220828Y324967D01*
X220740Y325047D01*
X220649Y325124D01*
X220555Y325198D01*
X220459Y325269D01*
X220361Y325337D01*
X220261Y325401D01*
X220158Y325462D01*
X220054Y325520D01*
X219948Y325575D01*
X219840Y325626D01*
X219731Y325673D01*
X219620Y325717D01*
X219507Y325757D01*
X219394Y325794D01*
X219279Y325826D01*
X219163Y325855D01*
X219047Y325881D01*
X218929Y325902D01*
X218811Y325920D01*
X218693Y325933D01*
X218574Y325943D01*
X218455Y325949D01*
X218335Y325951D01*
X218216Y325949D01*
X218097Y325943D01*
X217978Y325934D01*
X217859Y325920D01*
X217741Y325903D01*
X217624Y325882D01*
X217507Y325857D01*
X217392Y325828D01*
X217277Y325795D01*
X217163Y325759D01*
X217051Y325719D01*
X216940Y325675D01*
X216830Y325628D01*
X216722Y325577D01*
X216616Y325523D01*
X216512Y325465D01*
X216409Y325404D01*
X216309Y325339D01*
X216210Y325272D01*
X216115Y325201D01*
X216021Y325127D01*
X215930Y325050D01*
X215841Y324970D01*
X215755Y324887D01*
X215672Y324802D01*
X215592Y324713D01*
X215514Y324623D01*
X215440Y324529D01*
X215368Y324434D01*
X215300Y324336D01*
X215300Y324335D02*
X215074Y324069D01*
X214854Y323797D01*
X214641Y323519D01*
X214434Y323237D01*
X214234Y322950D01*
X214042Y322658D01*
X213856Y322362D01*
X213677Y322061D01*
X213505Y321756D01*
X213341Y321448D01*
X213184Y321135D01*
X213035Y320818D01*
X212894Y320499D01*
X212760Y320176D01*
X212633Y319849D01*
X212515Y319520D01*
X212404Y319188D01*
X212302Y318854D01*
X212207Y318517D01*
X221749Y315960D02*
X221654Y315624D01*
X221552Y315289D01*
X221441Y314957D01*
X221323Y314628D01*
X221196Y314302D01*
X221062Y313979D01*
X220921Y313659D01*
X220771Y313343D01*
X220615Y313030D01*
X220450Y312721D01*
X220279Y312416D01*
X220100Y312116D01*
X219914Y311819D01*
X219721Y311527D01*
X219522Y311240D01*
X219315Y310958D01*
X219102Y310681D01*
X218882Y310409D01*
X218656Y310142D01*
X218588Y310044D01*
X218516Y309949D01*
X218442Y309855D01*
X218364Y309765D01*
X218284Y309676D01*
X218201Y309591D01*
X218115Y309508D01*
X218026Y309428D01*
X217935Y309351D01*
X217842Y309277D01*
X217746Y309206D01*
X217647Y309139D01*
X217547Y309074D01*
X217444Y309013D01*
X217340Y308955D01*
X217234Y308901D01*
X217126Y308850D01*
X217016Y308803D01*
X216905Y308759D01*
X216793Y308719D01*
X216679Y308683D01*
X216564Y308650D01*
X216449Y308621D01*
X216332Y308596D01*
X216215Y308575D01*
X216097Y308558D01*
X215978Y308544D01*
X215859Y308535D01*
X215740Y308529D01*
X215621Y308527D01*
X215501Y308529D01*
X215382Y308535D01*
X215263Y308545D01*
X215145Y308558D01*
X215027Y308576D01*
X214909Y308597D01*
X214793Y308623D01*
X214677Y308652D01*
X211977Y311932D02*
X211914Y312276D01*
X211860Y312622D01*
X211814Y312968D01*
X211776Y313316D01*
X211746Y313665D01*
X211725Y314014D01*
X211712Y314363D01*
X211708Y314713D01*
X211712Y315063D01*
X211724Y315413D01*
X211745Y315762D01*
X211774Y316110D01*
X211811Y316458D01*
X211856Y316805D01*
X211910Y317151D01*
X211972Y317495D01*
X212042Y317838D01*
X212121Y318178D01*
X212207Y318517D01*
X211977Y311932D02*
X211987Y311813D01*
X212001Y311694D01*
X212019Y311576D01*
X212040Y311459D01*
X212066Y311343D01*
X212095Y311227D01*
X212128Y311112D01*
X212165Y310999D01*
X212205Y310887D01*
X212249Y310776D01*
X212297Y310666D01*
X212348Y310559D01*
X212403Y310453D01*
X212461Y310348D01*
X212523Y310246D01*
X212588Y310146D01*
X212656Y310048D01*
X212727Y309952D01*
X212801Y309859D01*
X212879Y309768D01*
X212959Y309680D01*
X213042Y309594D01*
X213128Y309511D01*
X213216Y309431D01*
X213307Y309354D01*
X213401Y309280D01*
X213497Y309209D01*
X213595Y309141D01*
X213695Y309077D01*
X213798Y309015D01*
X213902Y308958D01*
X214008Y308903D01*
X214116Y308852D01*
X214225Y308805D01*
X214336Y308761D01*
X214449Y308721D01*
X214562Y308684D01*
X214677Y308652D01*
X219516Y311446D02*
X214440Y323032D01*
X202623Y330290D02*
X202495Y330322D01*
X202366Y330350D01*
X202237Y330375D01*
X202107Y330395D01*
X201976Y330412D01*
X201845Y330425D01*
X201713Y330434D01*
X201582Y330440D01*
X201450Y330441D01*
X201318Y330438D01*
X201187Y330432D01*
X201055Y330421D01*
X200925Y330407D01*
X200794Y330389D01*
X200664Y330367D01*
X200535Y330341D01*
X200407Y330311D01*
X200279Y330278D01*
X200153Y330241D01*
X200028Y330200D01*
X199904Y330155D01*
X199781Y330107D01*
X199660Y330055D01*
X199541Y329999D01*
X199423Y329940D01*
X199307Y329878D01*
X199193Y329812D01*
X199081Y329743D01*
X198971Y329670D01*
X198863Y329595D01*
X198757Y329516D01*
X198654Y329434D01*
X198554Y329349D01*
X198456Y329261D01*
X198360Y329170D01*
X198267Y329076D01*
X198178Y328980D01*
X198091Y328881D01*
X198007Y328780D01*
X197926Y328676D01*
X197848Y328569D01*
X197773Y328461D01*
X197702Y328350D01*
X197634Y328237D01*
X197569Y328123D01*
X197507Y328006D01*
X197450Y327888D01*
X197395Y327768D01*
X197345Y327646D01*
X197298Y327523D01*
X197254Y327399D01*
X197214Y327273D01*
X197178Y327146D01*
X202622Y330289D02*
X202766Y330249D01*
X202909Y330204D01*
X203051Y330156D01*
X203191Y330104D01*
X203330Y330049D01*
X203468Y329990D01*
X203603Y329927D01*
X203738Y329861D01*
X203870Y329791D01*
X204001Y329718D01*
X204129Y329642D01*
X204256Y329562D01*
X204380Y329479D01*
X204502Y329392D01*
X204622Y329303D01*
X204740Y329210D01*
X204855Y329114D01*
X204967Y329016D01*
X205077Y328914D01*
X205184Y328810D01*
X205288Y328702D01*
X205390Y328593D01*
X205488Y328480D01*
X205584Y328365D01*
X205677Y328247D01*
X205766Y328127D01*
X205852Y328005D01*
X205935Y327881D01*
X206015Y327754D01*
X206092Y327626D01*
X206165Y327495D01*
X206234Y327362D01*
X206300Y327228D01*
X206363Y327092D01*
X206422Y326955D01*
X206477Y326816D01*
X206529Y326675D01*
X206577Y326534D01*
X206621Y326391D01*
X206662Y326247D01*
X206698Y326102D01*
X206731Y325956D01*
X206760Y325809D01*
X206785Y325661D01*
X206807Y325513D01*
X206824Y325365D01*
X206838Y325216D01*
X206847Y325066D01*
X197715Y323423D02*
X197647Y323538D01*
X197583Y323654D01*
X197521Y323773D01*
X197463Y323893D01*
X197409Y324014D01*
X197357Y324137D01*
X197310Y324262D01*
X197265Y324387D01*
X197225Y324514D01*
X197187Y324642D01*
X197154Y324771D01*
X197124Y324901D01*
X197097Y325032D01*
X197075Y325163D01*
X197056Y325295D01*
X197040Y325428D01*
X197029Y325560D01*
X197021Y325694D01*
X197017Y325827D01*
X197016Y325960D01*
X197020Y326093D01*
X197027Y326226D01*
X197037Y326359D01*
X197052Y326492D01*
X197070Y326624D01*
X197091Y326755D01*
X197117Y326886D01*
X197146Y327016D01*
X197179Y327146D01*
X197715Y323423D02*
X203268Y311709D01*
X193727Y314265D01*
X180998Y331481D02*
X181034Y331608D01*
X181074Y331734D01*
X181118Y331858D01*
X181165Y331981D01*
X181215Y332103D01*
X181270Y332223D01*
X181327Y332341D01*
X181389Y332458D01*
X181454Y332572D01*
X181522Y332685D01*
X181593Y332796D01*
X181668Y332904D01*
X181746Y333011D01*
X181827Y333115D01*
X181911Y333216D01*
X181998Y333315D01*
X182087Y333411D01*
X182180Y333505D01*
X182276Y333596D01*
X182374Y333684D01*
X182474Y333769D01*
X182577Y333851D01*
X182683Y333930D01*
X182791Y334005D01*
X182901Y334078D01*
X183013Y334147D01*
X183127Y334213D01*
X183243Y334275D01*
X183361Y334334D01*
X183480Y334390D01*
X183601Y334442D01*
X183724Y334490D01*
X183848Y334535D01*
X183973Y334576D01*
X184099Y334613D01*
X184227Y334646D01*
X184355Y334676D01*
X184484Y334702D01*
X184614Y334724D01*
X184745Y334742D01*
X184875Y334756D01*
X185007Y334767D01*
X185138Y334773D01*
X185270Y334776D01*
X185402Y334775D01*
X185533Y334769D01*
X185665Y334760D01*
X185796Y334747D01*
X185927Y334730D01*
X186057Y334710D01*
X186186Y334685D01*
X186315Y334657D01*
X186443Y334625D01*
X186443Y334624D02*
X186587Y334584D01*
X186730Y334539D01*
X186872Y334491D01*
X187012Y334439D01*
X187151Y334384D01*
X187289Y334325D01*
X187424Y334262D01*
X187559Y334196D01*
X187691Y334126D01*
X187822Y334053D01*
X187950Y333977D01*
X188077Y333897D01*
X188201Y333814D01*
X188323Y333727D01*
X188443Y333638D01*
X188561Y333545D01*
X188676Y333449D01*
X188788Y333351D01*
X188898Y333249D01*
X189005Y333145D01*
X189109Y333037D01*
X189211Y332928D01*
X189309Y332815D01*
X189405Y332700D01*
X189498Y332582D01*
X189587Y332462D01*
X189673Y332340D01*
X189756Y332216D01*
X189836Y332089D01*
X189913Y331961D01*
X189986Y331830D01*
X190055Y331697D01*
X190121Y331563D01*
X190184Y331427D01*
X190243Y331290D01*
X190298Y331151D01*
X190350Y331010D01*
X190398Y330869D01*
X190442Y330726D01*
X190483Y330582D01*
X190519Y330437D01*
X190552Y330291D01*
X190581Y330144D01*
X190606Y329996D01*
X190628Y329848D01*
X190645Y329700D01*
X190659Y329551D01*
X190668Y329401D01*
X181535Y327759D02*
X181467Y327874D01*
X181403Y327990D01*
X181341Y328109D01*
X181283Y328229D01*
X181229Y328350D01*
X181177Y328473D01*
X181130Y328598D01*
X181085Y328723D01*
X181045Y328850D01*
X181007Y328978D01*
X180974Y329107D01*
X180944Y329237D01*
X180917Y329368D01*
X180895Y329499D01*
X180876Y329631D01*
X180860Y329764D01*
X180849Y329896D01*
X180841Y330030D01*
X180837Y330163D01*
X180836Y330296D01*
X180840Y330429D01*
X180847Y330562D01*
X180857Y330695D01*
X180872Y330828D01*
X180890Y330960D01*
X180911Y331091D01*
X180937Y331222D01*
X180966Y331352D01*
X180999Y331482D01*
X181535Y327758D02*
X187088Y316044D01*
X177547Y318601D01*
X228600Y226085D02*
X234950Y213385D01*
X228600Y226085D02*
X241300Y226085D01*
X234950Y213385D01*
X242214Y139065D02*
X251460Y139065D01*
X167640Y139065D02*
X167640Y191135D01*
X176886Y191135D01*
X251460Y191135D02*
X251460Y139065D01*
X176886Y139065D02*
X167640Y139065D01*
X191414Y191135D02*
X202286Y191135D01*
X202286Y139065D02*
X191414Y139065D01*
X216814Y191135D02*
X227686Y191135D01*
X227686Y139065D02*
X216814Y139065D01*
X242214Y191135D02*
X251460Y191135D01*
D11*
X173609Y201112D02*
X165650Y201112D01*
X169630Y205091D02*
X169630Y197132D01*
X168303Y133167D02*
X173609Y133167D01*
X247858Y208407D02*
X251174Y205754D01*
X247858Y208407D02*
X247858Y196469D01*
X251174Y196469D02*
X244542Y196469D01*
X247526Y136272D02*
X247419Y136270D01*
X247313Y136264D01*
X247207Y136255D01*
X247101Y136242D01*
X246996Y136225D01*
X246891Y136204D01*
X246788Y136179D01*
X246685Y136151D01*
X246583Y136119D01*
X246483Y136084D01*
X246384Y136045D01*
X246286Y136002D01*
X246190Y135956D01*
X246095Y135907D01*
X246003Y135854D01*
X245912Y135798D01*
X245824Y135739D01*
X245737Y135677D01*
X245653Y135611D01*
X245571Y135543D01*
X245492Y135472D01*
X245415Y135398D01*
X245341Y135321D01*
X245270Y135242D01*
X245202Y135160D01*
X245136Y135076D01*
X245074Y134989D01*
X245015Y134901D01*
X244959Y134810D01*
X244906Y134718D01*
X244857Y134623D01*
X244811Y134527D01*
X244768Y134429D01*
X244729Y134330D01*
X244694Y134230D01*
X244662Y134128D01*
X244634Y134025D01*
X244609Y133922D01*
X244588Y133817D01*
X244571Y133712D01*
X244558Y133606D01*
X244549Y133500D01*
X244543Y133394D01*
X244541Y133287D01*
X247526Y136271D02*
X247647Y136269D01*
X247767Y136263D01*
X247887Y136254D01*
X248007Y136241D01*
X248126Y136224D01*
X248245Y136203D01*
X248363Y136179D01*
X248480Y136150D01*
X248596Y136119D01*
X248712Y136083D01*
X248826Y136044D01*
X248938Y136001D01*
X249050Y135955D01*
X249160Y135906D01*
X249268Y135852D01*
X249374Y135796D01*
X249479Y135736D01*
X249582Y135673D01*
X249682Y135607D01*
X249781Y135538D01*
X249877Y135465D01*
X249971Y135390D01*
X250063Y135312D01*
X250152Y135230D01*
X250239Y135146D01*
X250323Y135060D01*
X250404Y134971D01*
X250482Y134879D01*
X250557Y134785D01*
X250629Y134688D01*
X250699Y134590D01*
X250765Y134489D01*
X250828Y134386D01*
X250887Y134281D01*
X250944Y134175D01*
X250997Y134066D01*
X251046Y133957D01*
X251092Y133845D01*
X251135Y133732D01*
X251173Y133618D01*
X245536Y130965D02*
X245456Y131045D01*
X245378Y131127D01*
X245304Y131211D01*
X245232Y131299D01*
X245164Y131389D01*
X245098Y131481D01*
X245036Y131575D01*
X244978Y131671D01*
X244923Y131770D01*
X244871Y131870D01*
X244823Y131972D01*
X244778Y132076D01*
X244738Y132181D01*
X244701Y132288D01*
X244667Y132396D01*
X244638Y132505D01*
X244612Y132615D01*
X244591Y132726D01*
X244573Y132837D01*
X244559Y132949D01*
X244549Y133061D01*
X244543Y133174D01*
X244541Y133287D01*
X245537Y130965D02*
X251174Y124333D01*
X244542Y124333D01*
D10*
X234950Y213385D02*
X228600Y226085D01*
X241300Y226085D01*
X234950Y213385D01*
X250190Y140335D02*
X168910Y140335D01*
X168910Y189865D01*
X250190Y189865D01*
X250190Y140335D01*
M02*
