G04 EAGLE Gerber RS-274X export*
G75*
%MOMM*%
%FSLAX34Y34*%
%LPD*%
%INSoldermask Top*%
%IPPOS*%
%AMOC8*
5,1,8,0,0,1.08239X$1,22.5*%
G01*
%ADD10R,1.703200X1.703200*%
%ADD11R,2.003200X1.403200*%
%ADD12C,0.959600*%


D10*
G36*
X406069Y380674D02*
X394026Y368631D01*
X381983Y380674D01*
X394026Y392717D01*
X406069Y380674D01*
G37*
G36*
X430817Y355926D02*
X418774Y343883D01*
X406731Y355926D01*
X418774Y367969D01*
X430817Y355926D01*
G37*
G36*
X258533Y375100D02*
X254125Y391550D01*
X270575Y395958D01*
X274983Y379508D01*
X258533Y375100D01*
G37*
G36*
X224725Y366042D02*
X220317Y382492D01*
X236767Y386900D01*
X241175Y370450D01*
X224725Y366042D01*
G37*
G36*
X51759Y391271D02*
X58957Y375835D01*
X43521Y368637D01*
X36323Y384073D01*
X51759Y391271D01*
G37*
G36*
X83479Y406063D02*
X90677Y390627D01*
X75241Y383429D01*
X68043Y398865D01*
X83479Y406063D01*
G37*
D11*
G36*
X93706Y359840D02*
X75552Y351374D01*
X69622Y364090D01*
X87776Y372556D01*
X93706Y359840D01*
G37*
G36*
X120878Y372510D02*
X102724Y364044D01*
X96794Y376760D01*
X114948Y385226D01*
X120878Y372510D01*
G37*
G36*
X190771Y373789D02*
X210119Y368604D01*
X206487Y355051D01*
X187139Y360236D01*
X190771Y373789D01*
G37*
G36*
X161813Y381549D02*
X181161Y376364D01*
X177529Y362811D01*
X158181Y367996D01*
X161813Y381549D01*
G37*
G36*
X370429Y369743D02*
X384593Y355579D01*
X374671Y345657D01*
X360507Y359821D01*
X370429Y369743D01*
G37*
G36*
X349229Y390943D02*
X363393Y376779D01*
X353471Y366857D01*
X339307Y381021D01*
X349229Y390943D01*
G37*
D12*
X139700Y381000D03*
X387350Y400050D03*
X285750Y381000D03*
X44450Y361950D03*
M02*
