G04 EAGLE Gerber RS-274X export*
G75*
%MOMM*%
%FSLAX34Y34*%
%LPD*%
%INBottom Copper*%
%IPPOS*%
%AMOC8*
5,1,8,0,0,1.08239X$1,22.5*%
G01*
%ADD10R,1.800000X1.200000*%
%ADD11R,0.787400X3.556000*%
%ADD12C,0.609600*%
%ADD13C,0.525000*%

G36*
X373316Y84565D02*
X373316Y84565D01*
X373442Y84572D01*
X373489Y84585D01*
X373537Y84591D01*
X373655Y84633D01*
X373777Y84668D01*
X373819Y84692D01*
X373865Y84708D01*
X373971Y84777D01*
X374081Y84838D01*
X374127Y84878D01*
X374157Y84897D01*
X374191Y84932D01*
X374267Y84997D01*
X410931Y121660D01*
X411007Y121756D01*
X411090Y121847D01*
X411124Y121904D01*
X411148Y121933D01*
X411168Y121976D01*
X411216Y122056D01*
X423288Y146201D01*
X423308Y146253D01*
X423335Y146303D01*
X423367Y146417D01*
X423408Y146528D01*
X423414Y146584D01*
X423430Y146638D01*
X423447Y146859D01*
X423449Y146874D01*
X423449Y146877D01*
X423449Y146882D01*
X423449Y246971D01*
X423430Y247136D01*
X423413Y247303D01*
X423410Y247312D01*
X423409Y247318D01*
X423401Y247341D01*
X423340Y247537D01*
X423285Y247676D01*
X423326Y247773D01*
X423329Y247784D01*
X423335Y247794D01*
X423379Y247952D01*
X423426Y248107D01*
X423427Y248118D01*
X423430Y248130D01*
X423449Y248373D01*
X423449Y248479D01*
X423555Y248585D01*
X423659Y248715D01*
X423764Y248846D01*
X423768Y248853D01*
X423772Y248858D01*
X423783Y248880D01*
X423878Y249062D01*
X423937Y249200D01*
X424035Y249239D01*
X424045Y249244D01*
X424056Y249248D01*
X424198Y249327D01*
X424342Y249405D01*
X424351Y249412D01*
X424360Y249418D01*
X424547Y249576D01*
X424621Y249651D01*
X424771Y249651D01*
X424936Y249670D01*
X425103Y249687D01*
X425112Y249690D01*
X425118Y249691D01*
X425141Y249699D01*
X425337Y249760D01*
X455785Y261939D01*
X455795Y261944D01*
X455806Y261948D01*
X455949Y262027D01*
X456092Y262105D01*
X456100Y262112D01*
X456110Y262118D01*
X456297Y262276D01*
X506181Y312160D01*
X506257Y312256D01*
X506340Y312347D01*
X506374Y312404D01*
X506398Y312433D01*
X506418Y312476D01*
X506466Y312556D01*
X518538Y336701D01*
X518558Y336753D01*
X518585Y336803D01*
X518617Y336917D01*
X518658Y337028D01*
X518664Y337084D01*
X518680Y337138D01*
X518697Y337359D01*
X518699Y337374D01*
X518699Y337377D01*
X518699Y337382D01*
X518699Y418268D01*
X518693Y418324D01*
X518695Y418380D01*
X518673Y418497D01*
X518659Y418614D01*
X518640Y418667D01*
X518630Y418722D01*
X518547Y418928D01*
X518542Y418942D01*
X518540Y418945D01*
X518538Y418949D01*
X493766Y468494D01*
X493699Y468596D01*
X493639Y468703D01*
X493597Y468754D01*
X493576Y468786D01*
X493542Y468818D01*
X493481Y468890D01*
X462540Y499831D01*
X462444Y499907D01*
X462353Y499990D01*
X462296Y500024D01*
X462267Y500048D01*
X462224Y500068D01*
X462144Y500116D01*
X412079Y525149D01*
X412043Y525162D01*
X411880Y525231D01*
X336460Y550371D01*
X336340Y550396D01*
X336222Y550430D01*
X336156Y550435D01*
X336119Y550443D01*
X336072Y550442D01*
X335978Y550449D01*
X235467Y550449D01*
X235368Y550438D01*
X235269Y550436D01*
X235169Y550415D01*
X235121Y550409D01*
X235088Y550398D01*
X235029Y550385D01*
X172316Y531571D01*
X172308Y531568D01*
X172300Y531566D01*
X172073Y531474D01*
X122056Y506466D01*
X121953Y506399D01*
X121847Y506339D01*
X121796Y506297D01*
X121764Y506276D01*
X121732Y506242D01*
X121660Y506181D01*
X84298Y468819D01*
X84249Y468756D01*
X84191Y468700D01*
X84112Y468584D01*
X84082Y468546D01*
X84072Y468526D01*
X84053Y468498D01*
X59351Y425270D01*
X59313Y425179D01*
X59265Y425093D01*
X59244Y425020D01*
X59214Y424949D01*
X59197Y424853D01*
X59170Y424758D01*
X59162Y424654D01*
X59154Y424606D01*
X59155Y424572D01*
X59151Y424514D01*
X59151Y337382D01*
X59152Y337367D01*
X59152Y337358D01*
X59157Y337322D01*
X59155Y337270D01*
X59177Y337153D01*
X59191Y337036D01*
X59210Y336983D01*
X59220Y336928D01*
X59303Y336722D01*
X59308Y336708D01*
X59310Y336705D01*
X59312Y336701D01*
X71384Y312556D01*
X71451Y312453D01*
X71511Y312347D01*
X71553Y312296D01*
X71574Y312264D01*
X71608Y312232D01*
X71669Y312160D01*
X121758Y262071D01*
X121808Y262032D01*
X121852Y261985D01*
X122004Y261876D01*
X122031Y261855D01*
X122040Y261851D01*
X122051Y261842D01*
X152592Y243518D01*
X152697Y243470D01*
X152797Y243415D01*
X152855Y243399D01*
X152910Y243374D01*
X153022Y243352D01*
X153132Y243320D01*
X153210Y243314D01*
X153217Y243313D01*
X153508Y243021D01*
X153558Y242982D01*
X153602Y242935D01*
X153754Y242826D01*
X153781Y242805D01*
X153790Y242801D01*
X153801Y242792D01*
X154158Y242578D01*
X154176Y242515D01*
X154206Y242462D01*
X154227Y242406D01*
X154291Y242311D01*
X154346Y242211D01*
X154397Y242152D01*
X154401Y242146D01*
X154401Y241734D01*
X154408Y241670D01*
X154406Y241606D01*
X154437Y241422D01*
X154441Y241388D01*
X154444Y241379D01*
X154446Y241364D01*
X154547Y240961D01*
X154515Y240903D01*
X154499Y240845D01*
X154474Y240790D01*
X154452Y240678D01*
X154420Y240568D01*
X154414Y240490D01*
X154406Y240448D01*
X154407Y240405D01*
X154401Y240324D01*
X154401Y146882D01*
X154407Y146826D01*
X154405Y146770D01*
X154427Y146653D01*
X154441Y146536D01*
X154460Y146483D01*
X154470Y146428D01*
X154553Y146222D01*
X154558Y146208D01*
X154560Y146205D01*
X154562Y146201D01*
X166636Y122052D01*
X166702Y121951D01*
X166760Y121846D01*
X166805Y121793D01*
X166826Y121760D01*
X166860Y121728D01*
X166918Y121659D01*
X203385Y85000D01*
X203486Y84920D01*
X203581Y84834D01*
X203621Y84811D01*
X203658Y84782D01*
X203773Y84727D01*
X203886Y84665D01*
X203931Y84653D01*
X203972Y84633D01*
X204098Y84605D01*
X204221Y84570D01*
X204279Y84566D01*
X204313Y84558D01*
X204362Y84559D01*
X204465Y84551D01*
X373190Y84551D01*
X373316Y84565D01*
G37*
%LPC*%
G36*
X255887Y191769D02*
X255887Y191769D01*
X255142Y192514D01*
X255142Y221258D01*
X255128Y221384D01*
X255121Y221510D01*
X255108Y221556D01*
X255102Y221604D01*
X255060Y221723D01*
X255025Y221845D01*
X255001Y221887D01*
X254985Y221932D01*
X254916Y222039D01*
X254855Y222149D01*
X254815Y222195D01*
X254796Y222225D01*
X254761Y222259D01*
X254696Y222335D01*
X235072Y241959D01*
X235072Y270606D01*
X235069Y270632D01*
X235071Y270658D01*
X235049Y270805D01*
X235032Y270952D01*
X235024Y270977D01*
X235020Y271003D01*
X234965Y271141D01*
X234915Y271280D01*
X234901Y271302D01*
X234891Y271327D01*
X234806Y271448D01*
X234726Y271573D01*
X234707Y271591D01*
X234692Y271613D01*
X234582Y271712D01*
X234475Y271815D01*
X234453Y271829D01*
X234433Y271846D01*
X234303Y271918D01*
X234176Y271994D01*
X234151Y272002D01*
X234128Y272015D01*
X233985Y272055D01*
X233844Y272100D01*
X233818Y272102D01*
X233793Y272110D01*
X233549Y272129D01*
X229484Y272129D01*
X228739Y272874D01*
X228739Y273939D01*
X228736Y273965D01*
X228738Y273991D01*
X228716Y274138D01*
X228699Y274285D01*
X228691Y274310D01*
X228687Y274336D01*
X228632Y274474D01*
X228582Y274613D01*
X228568Y274635D01*
X228558Y274660D01*
X228473Y274781D01*
X228393Y274906D01*
X228374Y274924D01*
X228359Y274946D01*
X228249Y275045D01*
X228142Y275148D01*
X228120Y275162D01*
X228100Y275179D01*
X227970Y275251D01*
X227843Y275327D01*
X227818Y275335D01*
X227795Y275348D01*
X227652Y275388D01*
X227511Y275433D01*
X227485Y275435D01*
X227460Y275443D01*
X227216Y275462D01*
X217284Y275462D01*
X217258Y275459D01*
X217232Y275461D01*
X217085Y275439D01*
X216938Y275422D01*
X216913Y275414D01*
X216887Y275410D01*
X216749Y275355D01*
X216610Y275305D01*
X216588Y275291D01*
X216563Y275281D01*
X216442Y275196D01*
X216317Y275116D01*
X216299Y275097D01*
X216277Y275082D01*
X216178Y274972D01*
X216075Y274865D01*
X216061Y274843D01*
X216044Y274823D01*
X215972Y274693D01*
X215896Y274566D01*
X215888Y274541D01*
X215875Y274518D01*
X215835Y274375D01*
X215790Y274234D01*
X215788Y274208D01*
X215780Y274183D01*
X215761Y273939D01*
X215761Y272874D01*
X215016Y272129D01*
X195964Y272129D01*
X195219Y272874D01*
X195219Y285926D01*
X195964Y286671D01*
X215016Y286671D01*
X215761Y285926D01*
X215761Y284861D01*
X215764Y284835D01*
X215762Y284809D01*
X215784Y284662D01*
X215801Y284515D01*
X215809Y284490D01*
X215813Y284464D01*
X215868Y284326D01*
X215918Y284187D01*
X215932Y284165D01*
X215942Y284140D01*
X216027Y284019D01*
X216107Y283894D01*
X216126Y283876D01*
X216141Y283854D01*
X216251Y283755D01*
X216358Y283652D01*
X216380Y283638D01*
X216400Y283621D01*
X216530Y283549D01*
X216657Y283473D01*
X216682Y283465D01*
X216705Y283452D01*
X216848Y283412D01*
X216989Y283367D01*
X217015Y283365D01*
X217040Y283357D01*
X217284Y283338D01*
X227216Y283338D01*
X227242Y283341D01*
X227268Y283339D01*
X227415Y283361D01*
X227562Y283378D01*
X227587Y283386D01*
X227613Y283390D01*
X227751Y283445D01*
X227890Y283495D01*
X227912Y283509D01*
X227937Y283519D01*
X228058Y283604D01*
X228183Y283684D01*
X228201Y283703D01*
X228223Y283718D01*
X228322Y283828D01*
X228425Y283935D01*
X228439Y283957D01*
X228456Y283977D01*
X228528Y284107D01*
X228604Y284234D01*
X228612Y284259D01*
X228625Y284282D01*
X228665Y284425D01*
X228710Y284566D01*
X228712Y284592D01*
X228720Y284617D01*
X228739Y284861D01*
X228739Y285926D01*
X229484Y286671D01*
X248536Y286671D01*
X249281Y285926D01*
X249281Y272874D01*
X248536Y272129D01*
X244471Y272129D01*
X244445Y272126D01*
X244419Y272128D01*
X244272Y272106D01*
X244125Y272089D01*
X244100Y272081D01*
X244074Y272077D01*
X243936Y272022D01*
X243797Y271972D01*
X243775Y271958D01*
X243750Y271948D01*
X243629Y271863D01*
X243504Y271783D01*
X243486Y271764D01*
X243464Y271749D01*
X243365Y271639D01*
X243262Y271532D01*
X243248Y271510D01*
X243231Y271490D01*
X243159Y271360D01*
X243083Y271233D01*
X243075Y271208D01*
X243062Y271185D01*
X243022Y271042D01*
X242977Y270901D01*
X242975Y270875D01*
X242967Y270850D01*
X242948Y270606D01*
X242948Y245852D01*
X242962Y245726D01*
X242969Y245600D01*
X242982Y245554D01*
X242988Y245506D01*
X243030Y245387D01*
X243065Y245265D01*
X243089Y245223D01*
X243105Y245178D01*
X243174Y245071D01*
X243235Y244961D01*
X243275Y244915D01*
X243294Y244885D01*
X243329Y244851D01*
X243394Y244775D01*
X256098Y232071D01*
X256118Y232055D01*
X256135Y232035D01*
X256255Y231946D01*
X256371Y231854D01*
X256395Y231843D01*
X256416Y231827D01*
X256552Y231769D01*
X256686Y231705D01*
X256712Y231700D01*
X256736Y231689D01*
X256882Y231663D01*
X257027Y231632D01*
X257053Y231632D01*
X257079Y231628D01*
X257227Y231635D01*
X257375Y231638D01*
X257401Y231644D01*
X257427Y231646D01*
X257569Y231687D01*
X257713Y231723D01*
X257736Y231735D01*
X257762Y231742D01*
X257891Y231815D01*
X258023Y231883D01*
X258043Y231900D01*
X258066Y231912D01*
X258252Y232071D01*
X284119Y257938D01*
X321588Y257938D01*
X321714Y257952D01*
X321840Y257959D01*
X321886Y257972D01*
X321934Y257978D01*
X322053Y258020D01*
X322175Y258055D01*
X322217Y258079D01*
X322262Y258095D01*
X322369Y258164D01*
X322479Y258225D01*
X322525Y258265D01*
X322555Y258284D01*
X322589Y258319D01*
X322665Y258384D01*
X328106Y263825D01*
X328185Y263924D01*
X328269Y264018D01*
X328293Y264060D01*
X328323Y264098D01*
X328377Y264212D01*
X328438Y264323D01*
X328451Y264369D01*
X328472Y264413D01*
X328498Y264536D01*
X328533Y264658D01*
X328538Y264719D01*
X328545Y264754D01*
X328544Y264802D01*
X328552Y264902D01*
X328552Y270606D01*
X328549Y270632D01*
X328551Y270658D01*
X328529Y270805D01*
X328512Y270952D01*
X328504Y270977D01*
X328500Y271003D01*
X328445Y271141D01*
X328395Y271280D01*
X328381Y271302D01*
X328371Y271327D01*
X328286Y271448D01*
X328206Y271573D01*
X328187Y271591D01*
X328172Y271613D01*
X328062Y271712D01*
X327955Y271815D01*
X327933Y271829D01*
X327913Y271846D01*
X327783Y271918D01*
X327656Y271994D01*
X327631Y272002D01*
X327608Y272015D01*
X327465Y272055D01*
X327324Y272100D01*
X327298Y272102D01*
X327273Y272110D01*
X327029Y272129D01*
X322964Y272129D01*
X322219Y272874D01*
X322219Y285926D01*
X322964Y286671D01*
X342016Y286671D01*
X342761Y285926D01*
X342761Y284861D01*
X342764Y284835D01*
X342762Y284809D01*
X342784Y284662D01*
X342801Y284515D01*
X342809Y284490D01*
X342813Y284464D01*
X342868Y284326D01*
X342918Y284187D01*
X342932Y284165D01*
X342942Y284140D01*
X343027Y284019D01*
X343107Y283894D01*
X343126Y283876D01*
X343141Y283854D01*
X343251Y283755D01*
X343358Y283652D01*
X343380Y283638D01*
X343400Y283621D01*
X343530Y283549D01*
X343657Y283473D01*
X343682Y283465D01*
X343705Y283452D01*
X343848Y283412D01*
X343989Y283367D01*
X344015Y283365D01*
X344040Y283357D01*
X344284Y283338D01*
X354216Y283338D01*
X354242Y283341D01*
X354268Y283339D01*
X354415Y283361D01*
X354562Y283378D01*
X354587Y283386D01*
X354613Y283390D01*
X354751Y283445D01*
X354890Y283495D01*
X354912Y283509D01*
X354937Y283519D01*
X355058Y283604D01*
X355183Y283684D01*
X355201Y283703D01*
X355223Y283718D01*
X355322Y283828D01*
X355425Y283935D01*
X355439Y283957D01*
X355456Y283977D01*
X355528Y284107D01*
X355604Y284234D01*
X355612Y284259D01*
X355625Y284282D01*
X355665Y284425D01*
X355710Y284566D01*
X355712Y284592D01*
X355720Y284617D01*
X355739Y284861D01*
X355739Y285926D01*
X356484Y286671D01*
X375536Y286671D01*
X376281Y285926D01*
X376281Y272874D01*
X375536Y272129D01*
X356484Y272129D01*
X355739Y272874D01*
X355739Y273939D01*
X355736Y273965D01*
X355738Y273991D01*
X355716Y274138D01*
X355699Y274285D01*
X355691Y274310D01*
X355687Y274336D01*
X355632Y274474D01*
X355582Y274613D01*
X355568Y274635D01*
X355558Y274660D01*
X355473Y274781D01*
X355393Y274906D01*
X355374Y274924D01*
X355359Y274946D01*
X355249Y275045D01*
X355142Y275148D01*
X355120Y275162D01*
X355100Y275179D01*
X354970Y275251D01*
X354843Y275327D01*
X354818Y275335D01*
X354795Y275348D01*
X354652Y275388D01*
X354511Y275433D01*
X354485Y275435D01*
X354460Y275443D01*
X354216Y275462D01*
X344284Y275462D01*
X344258Y275459D01*
X344232Y275461D01*
X344085Y275439D01*
X343938Y275422D01*
X343913Y275414D01*
X343887Y275410D01*
X343749Y275355D01*
X343610Y275305D01*
X343588Y275291D01*
X343563Y275281D01*
X343442Y275196D01*
X343317Y275116D01*
X343299Y275097D01*
X343277Y275082D01*
X343178Y274972D01*
X343075Y274865D01*
X343061Y274843D01*
X343044Y274823D01*
X342972Y274693D01*
X342896Y274566D01*
X342888Y274541D01*
X342875Y274518D01*
X342835Y274375D01*
X342790Y274234D01*
X342788Y274208D01*
X342780Y274183D01*
X342761Y273939D01*
X342761Y272874D01*
X342016Y272129D01*
X337951Y272129D01*
X337925Y272126D01*
X337899Y272128D01*
X337752Y272106D01*
X337605Y272089D01*
X337580Y272081D01*
X337554Y272077D01*
X337416Y272022D01*
X337277Y271972D01*
X337255Y271958D01*
X337230Y271948D01*
X337109Y271863D01*
X336984Y271783D01*
X336966Y271764D01*
X336944Y271749D01*
X336845Y271639D01*
X336742Y271532D01*
X336728Y271510D01*
X336711Y271490D01*
X336639Y271360D01*
X336563Y271233D01*
X336555Y271208D01*
X336542Y271185D01*
X336502Y271042D01*
X336457Y270901D01*
X336455Y270875D01*
X336447Y270850D01*
X336428Y270606D01*
X336428Y261009D01*
X325481Y250062D01*
X288012Y250062D01*
X287886Y250048D01*
X287760Y250041D01*
X287714Y250028D01*
X287666Y250022D01*
X287547Y249980D01*
X287425Y249945D01*
X287383Y249921D01*
X287338Y249905D01*
X287231Y249836D01*
X287121Y249775D01*
X287075Y249735D01*
X287045Y249716D01*
X287011Y249681D01*
X286935Y249616D01*
X266004Y228685D01*
X265925Y228586D01*
X265841Y228492D01*
X265817Y228450D01*
X265787Y228412D01*
X265733Y228298D01*
X265672Y228187D01*
X265659Y228141D01*
X265638Y228097D01*
X265612Y227974D01*
X265577Y227852D01*
X265572Y227791D01*
X265565Y227756D01*
X265566Y227708D01*
X265558Y227608D01*
X265558Y192514D01*
X264813Y191769D01*
X255887Y191769D01*
G37*
%LPD*%
%LPC*%
G36*
X292984Y272129D02*
X292984Y272129D01*
X292239Y272874D01*
X292239Y285926D01*
X292984Y286671D01*
X297049Y286671D01*
X297075Y286674D01*
X297101Y286672D01*
X297248Y286694D01*
X297395Y286711D01*
X297420Y286719D01*
X297446Y286723D01*
X297584Y286778D01*
X297723Y286828D01*
X297745Y286842D01*
X297770Y286852D01*
X297891Y286937D01*
X298016Y287017D01*
X298034Y287036D01*
X298056Y287051D01*
X298155Y287161D01*
X298258Y287268D01*
X298272Y287290D01*
X298289Y287310D01*
X298361Y287440D01*
X298437Y287567D01*
X298445Y287592D01*
X298458Y287615D01*
X298498Y287758D01*
X298543Y287899D01*
X298545Y287925D01*
X298553Y287950D01*
X298572Y288194D01*
X298572Y481941D01*
X309519Y492888D01*
X312781Y492888D01*
X315088Y490581D01*
X315088Y487319D01*
X306894Y479125D01*
X306815Y479026D01*
X306731Y478932D01*
X306707Y478890D01*
X306677Y478852D01*
X306623Y478738D01*
X306562Y478627D01*
X306549Y478581D01*
X306528Y478537D01*
X306502Y478414D01*
X306467Y478292D01*
X306462Y478231D01*
X306455Y478196D01*
X306456Y478148D01*
X306448Y478048D01*
X306448Y288194D01*
X306451Y288168D01*
X306449Y288142D01*
X306471Y287995D01*
X306488Y287848D01*
X306496Y287823D01*
X306500Y287797D01*
X306555Y287659D01*
X306605Y287520D01*
X306619Y287498D01*
X306629Y287473D01*
X306714Y287352D01*
X306794Y287227D01*
X306813Y287209D01*
X306828Y287187D01*
X306938Y287088D01*
X307045Y286985D01*
X307067Y286971D01*
X307087Y286954D01*
X307217Y286882D01*
X307344Y286806D01*
X307369Y286798D01*
X307392Y286785D01*
X307535Y286745D01*
X307676Y286700D01*
X307702Y286698D01*
X307727Y286690D01*
X307971Y286671D01*
X312036Y286671D01*
X312781Y285926D01*
X312781Y272874D01*
X312036Y272129D01*
X292984Y272129D01*
G37*
%LPD*%
%LPC*%
G36*
X165984Y272129D02*
X165984Y272129D01*
X165239Y272874D01*
X165239Y285926D01*
X165984Y286671D01*
X170049Y286671D01*
X170075Y286674D01*
X170101Y286672D01*
X170248Y286694D01*
X170395Y286711D01*
X170420Y286719D01*
X170446Y286723D01*
X170584Y286778D01*
X170723Y286828D01*
X170745Y286842D01*
X170770Y286852D01*
X170891Y286937D01*
X171016Y287017D01*
X171034Y287036D01*
X171056Y287051D01*
X171155Y287161D01*
X171258Y287268D01*
X171272Y287290D01*
X171289Y287310D01*
X171361Y287440D01*
X171437Y287567D01*
X171445Y287592D01*
X171458Y287615D01*
X171498Y287758D01*
X171543Y287899D01*
X171545Y287925D01*
X171553Y287950D01*
X171572Y288194D01*
X171572Y349278D01*
X171558Y349404D01*
X171551Y349530D01*
X171538Y349576D01*
X171532Y349624D01*
X171490Y349743D01*
X171455Y349865D01*
X171431Y349907D01*
X171415Y349952D01*
X171346Y350059D01*
X171285Y350169D01*
X171245Y350215D01*
X171226Y350245D01*
X171191Y350279D01*
X171126Y350355D01*
X157565Y363916D01*
X157466Y363995D01*
X157372Y364079D01*
X157330Y364103D01*
X157292Y364133D01*
X157178Y364187D01*
X157067Y364248D01*
X157021Y364261D01*
X156977Y364282D01*
X156854Y364308D01*
X156732Y364343D01*
X156671Y364348D01*
X156636Y364355D01*
X156588Y364354D01*
X156488Y364362D01*
X119019Y364362D01*
X116712Y366669D01*
X116712Y369931D01*
X119019Y372238D01*
X160381Y372238D01*
X179448Y353171D01*
X179448Y288194D01*
X179451Y288168D01*
X179449Y288142D01*
X179471Y287995D01*
X179488Y287848D01*
X179496Y287823D01*
X179500Y287797D01*
X179555Y287659D01*
X179605Y287520D01*
X179619Y287498D01*
X179629Y287473D01*
X179714Y287352D01*
X179794Y287227D01*
X179813Y287209D01*
X179828Y287187D01*
X179938Y287088D01*
X180045Y286985D01*
X180067Y286971D01*
X180087Y286954D01*
X180217Y286882D01*
X180344Y286806D01*
X180369Y286798D01*
X180392Y286785D01*
X180535Y286745D01*
X180676Y286700D01*
X180702Y286698D01*
X180727Y286690D01*
X180971Y286671D01*
X185036Y286671D01*
X185781Y285926D01*
X185781Y272874D01*
X185036Y272129D01*
X165984Y272129D01*
G37*
%LPD*%
%LPC*%
G36*
X259464Y272129D02*
X259464Y272129D01*
X258719Y272874D01*
X258719Y285926D01*
X259464Y286671D01*
X263529Y286671D01*
X263555Y286674D01*
X263581Y286672D01*
X263728Y286694D01*
X263875Y286711D01*
X263900Y286719D01*
X263926Y286723D01*
X264064Y286778D01*
X264203Y286828D01*
X264225Y286842D01*
X264250Y286852D01*
X264371Y286937D01*
X264496Y287017D01*
X264514Y287036D01*
X264536Y287051D01*
X264635Y287161D01*
X264738Y287268D01*
X264752Y287290D01*
X264769Y287310D01*
X264841Y287440D01*
X264917Y287567D01*
X264925Y287592D01*
X264938Y287615D01*
X264978Y287758D01*
X265023Y287899D01*
X265025Y287925D01*
X265033Y287950D01*
X265052Y288194D01*
X265052Y363748D01*
X265038Y363874D01*
X265031Y364000D01*
X265018Y364046D01*
X265012Y364094D01*
X264970Y364213D01*
X264935Y364335D01*
X264911Y364377D01*
X264895Y364422D01*
X264826Y364529D01*
X264765Y364639D01*
X264725Y364685D01*
X264706Y364715D01*
X264671Y364749D01*
X264606Y364825D01*
X250062Y379369D01*
X250062Y382631D01*
X252369Y384938D01*
X255631Y384938D01*
X272928Y367641D01*
X272928Y288194D01*
X272931Y288168D01*
X272929Y288142D01*
X272951Y287995D01*
X272968Y287848D01*
X272976Y287823D01*
X272980Y287797D01*
X273035Y287659D01*
X273085Y287520D01*
X273099Y287498D01*
X273109Y287473D01*
X273194Y287352D01*
X273274Y287227D01*
X273293Y287209D01*
X273308Y287187D01*
X273418Y287088D01*
X273525Y286985D01*
X273547Y286971D01*
X273567Y286954D01*
X273697Y286882D01*
X273824Y286806D01*
X273849Y286798D01*
X273872Y286785D01*
X274015Y286745D01*
X274156Y286700D01*
X274182Y286698D01*
X274207Y286690D01*
X274451Y286671D01*
X278516Y286671D01*
X279261Y285926D01*
X279261Y272874D01*
X278516Y272129D01*
X259464Y272129D01*
G37*
%LPD*%
%LPC*%
G36*
X386464Y272129D02*
X386464Y272129D01*
X385719Y272874D01*
X385719Y285926D01*
X386464Y286671D01*
X390529Y286671D01*
X390555Y286674D01*
X390581Y286672D01*
X390728Y286694D01*
X390875Y286711D01*
X390900Y286719D01*
X390926Y286723D01*
X391064Y286778D01*
X391203Y286828D01*
X391225Y286842D01*
X391250Y286852D01*
X391371Y286937D01*
X391496Y287017D01*
X391514Y287036D01*
X391536Y287051D01*
X391635Y287161D01*
X391738Y287268D01*
X391752Y287290D01*
X391769Y287310D01*
X391841Y287440D01*
X391917Y287567D01*
X391925Y287592D01*
X391938Y287615D01*
X391978Y287758D01*
X392023Y287899D01*
X392025Y287925D01*
X392033Y287950D01*
X392052Y288194D01*
X392052Y340471D01*
X411119Y359538D01*
X414381Y359538D01*
X416688Y357231D01*
X416688Y353969D01*
X400374Y337655D01*
X400295Y337556D01*
X400211Y337462D01*
X400187Y337420D01*
X400157Y337382D01*
X400103Y337268D01*
X400042Y337157D01*
X400029Y337111D01*
X400008Y337067D01*
X399982Y336944D01*
X399947Y336822D01*
X399942Y336761D01*
X399935Y336726D01*
X399936Y336678D01*
X399928Y336578D01*
X399928Y288194D01*
X399931Y288168D01*
X399929Y288142D01*
X399951Y287995D01*
X399968Y287848D01*
X399976Y287823D01*
X399980Y287797D01*
X400035Y287659D01*
X400085Y287520D01*
X400099Y287498D01*
X400109Y287473D01*
X400194Y287352D01*
X400274Y287227D01*
X400293Y287209D01*
X400308Y287187D01*
X400418Y287088D01*
X400525Y286985D01*
X400547Y286971D01*
X400567Y286954D01*
X400697Y286882D01*
X400824Y286806D01*
X400849Y286798D01*
X400872Y286785D01*
X401015Y286745D01*
X401156Y286700D01*
X401182Y286698D01*
X401207Y286690D01*
X401451Y286671D01*
X405516Y286671D01*
X406261Y285926D01*
X406261Y272874D01*
X405516Y272129D01*
X386464Y272129D01*
G37*
%LPD*%
%LPC*%
G36*
X306687Y191769D02*
X306687Y191769D01*
X305942Y192514D01*
X305942Y229126D01*
X306687Y229871D01*
X315613Y229871D01*
X316358Y229126D01*
X316358Y192514D01*
X315613Y191769D01*
X306687Y191769D01*
G37*
%LPD*%
%LPC*%
G36*
X281287Y191769D02*
X281287Y191769D01*
X280542Y192514D01*
X280542Y229126D01*
X281287Y229871D01*
X290213Y229871D01*
X290958Y229126D01*
X290958Y192514D01*
X290213Y191769D01*
X281287Y191769D01*
G37*
%LPD*%
%LPC*%
G36*
X306687Y138429D02*
X306687Y138429D01*
X305942Y139174D01*
X305942Y175786D01*
X306687Y176531D01*
X315613Y176531D01*
X316358Y175786D01*
X316358Y139174D01*
X315613Y138429D01*
X306687Y138429D01*
G37*
%LPD*%
%LPC*%
G36*
X281287Y138429D02*
X281287Y138429D01*
X280542Y139174D01*
X280542Y175786D01*
X281287Y176531D01*
X290213Y176531D01*
X290958Y175786D01*
X290958Y139174D01*
X290213Y138429D01*
X281287Y138429D01*
G37*
%LPD*%
%LPC*%
G36*
X262318Y159448D02*
X262318Y159448D01*
X262318Y177801D01*
X264622Y177801D01*
X265268Y177628D01*
X265847Y177293D01*
X266320Y176820D01*
X266655Y176241D01*
X266828Y175595D01*
X266828Y159448D01*
X262318Y159448D01*
G37*
%LPD*%
%LPC*%
G36*
X262318Y137159D02*
X262318Y137159D01*
X262318Y155512D01*
X266828Y155512D01*
X266828Y139365D01*
X266655Y138719D01*
X266320Y138140D01*
X265847Y137667D01*
X265268Y137332D01*
X264622Y137159D01*
X262318Y137159D01*
G37*
%LPD*%
%LPC*%
G36*
X253872Y159448D02*
X253872Y159448D01*
X253872Y175595D01*
X254045Y176241D01*
X254380Y176820D01*
X254853Y177293D01*
X255432Y177628D01*
X256078Y177801D01*
X258382Y177801D01*
X258382Y159448D01*
X253872Y159448D01*
G37*
%LPD*%
%LPC*%
G36*
X256078Y137159D02*
X256078Y137159D01*
X255432Y137332D01*
X254853Y137667D01*
X254380Y138140D01*
X254045Y138719D01*
X253872Y139365D01*
X253872Y155512D01*
X258382Y155512D01*
X258382Y137159D01*
X256078Y137159D01*
G37*
%LPD*%
D10*
X268990Y279400D03*
X239010Y279400D03*
X175510Y279400D03*
X205490Y279400D03*
X395990Y279400D03*
X366010Y279400D03*
X302510Y279400D03*
X332490Y279400D03*
D11*
X311150Y210820D03*
X311150Y157480D03*
X285750Y210820D03*
X285750Y157480D03*
X260350Y210820D03*
X260350Y157480D03*
D12*
X239010Y243590D02*
X239010Y279400D01*
X205490Y279400D01*
X285750Y254000D02*
X323850Y254000D01*
X332490Y262640D01*
X332490Y279400D01*
X366010Y279400D01*
X260350Y222250D02*
X239010Y243590D01*
X260350Y222250D02*
X260350Y210820D01*
X260350Y228600D02*
X285750Y254000D01*
X260350Y228600D02*
X260350Y222250D01*
X268990Y279400D02*
X268990Y366010D01*
X254000Y381000D01*
D13*
X254000Y381000D03*
D12*
X175510Y351540D02*
X175510Y279400D01*
X175510Y351540D02*
X158750Y368300D01*
X120650Y368300D01*
D13*
X120650Y368300D03*
X120650Y292100D03*
X317500Y412750D03*
X425450Y279400D03*
X247650Y304800D03*
D12*
X395990Y279400D02*
X395990Y338840D01*
X412750Y355600D01*
D13*
X412750Y355600D03*
D12*
X302510Y279400D02*
X302510Y480310D01*
X311150Y488950D01*
D13*
X311150Y488950D03*
M02*
