G04 EAGLE Gerber RS-274X export*
G75*
%MOMM*%
%FSLAX34Y34*%
%LPD*%
%INSilkscreen Top*%
%IPPOS*%
%AMOC8*
5,1,8,0,0,1.08239X$1,22.5*%
G01*
%ADD10R,16.764000X0.101600*%
%ADD11R,1.117600X0.101600*%
%ADD12R,1.219200X0.101600*%
%ADD13R,2.336800X0.101600*%
%ADD14R,2.438400X0.101600*%
%ADD15R,3.556000X0.101600*%
%ADD16R,5.994400X0.101600*%
%ADD17R,4.775200X0.101600*%
%ADD18R,5.892800X0.101600*%
%ADD19R,3.454400X0.101600*%
%ADD20R,3.657600X0.101600*%
%ADD21R,9.652000X0.101600*%
%ADD22C,0.101600*%
%ADD23R,0.500000X0.125000*%
%ADD24R,0.225000X0.325000*%
%ADD25R,0.125000X0.225000*%
%ADD26R,0.425000X0.125000*%
%ADD27R,0.500000X0.350000*%
%ADD28R,0.600000X0.125000*%
%ADD29R,1.700000X0.300000*%
%ADD30R,1.700000X0.700000*%
%ADD31R,0.325000X0.425000*%
%ADD32R,0.350000X0.350000*%


D10*
X287528Y84328D03*
X287528Y85344D03*
X287528Y86360D03*
X287528Y87376D03*
X287528Y88392D03*
X287528Y89408D03*
X287528Y90424D03*
X287528Y91440D03*
X287528Y92456D03*
X287528Y93472D03*
X287528Y94488D03*
D11*
X197104Y95504D03*
D12*
X197612Y96520D03*
X377444Y96520D03*
X197612Y97536D03*
X377444Y97536D03*
X197612Y98552D03*
X377444Y98552D03*
X197612Y99568D03*
X377444Y99568D03*
X197612Y100584D03*
X377444Y100584D03*
X197612Y101600D03*
X377444Y101600D03*
X197612Y102616D03*
X377444Y102616D03*
X197612Y103632D03*
X377444Y103632D03*
X197612Y104648D03*
X377444Y104648D03*
X197612Y105664D03*
X377444Y105664D03*
X197612Y106680D03*
X377444Y106680D03*
D11*
X184912Y107696D03*
X390144Y107696D03*
D12*
X185420Y108712D03*
X389636Y108712D03*
X185420Y109728D03*
X389636Y109728D03*
X185420Y110744D03*
X389636Y110744D03*
X185420Y111760D03*
X389636Y111760D03*
X185420Y112776D03*
X389636Y112776D03*
X185420Y113792D03*
X389636Y113792D03*
X185420Y114808D03*
X389636Y114808D03*
X185420Y115824D03*
X389636Y115824D03*
X185420Y116840D03*
X389636Y116840D03*
X185420Y117856D03*
X389636Y117856D03*
X185420Y118872D03*
X389636Y118872D03*
X173228Y119888D03*
X401828Y119888D03*
X173228Y120904D03*
X401828Y120904D03*
X173228Y121920D03*
X401828Y121920D03*
X173228Y122936D03*
X401828Y122936D03*
X173228Y123952D03*
X401828Y123952D03*
X173228Y124968D03*
X401828Y124968D03*
X173228Y125984D03*
X401828Y125984D03*
X173228Y127000D03*
X401828Y127000D03*
X173228Y128016D03*
X401828Y128016D03*
X173228Y129032D03*
X401828Y129032D03*
X173228Y130048D03*
X401828Y130048D03*
X173228Y131064D03*
X401828Y131064D03*
X173228Y132080D03*
X401828Y132080D03*
X173228Y133096D03*
X401828Y133096D03*
X173228Y134112D03*
X401828Y134112D03*
X173228Y135128D03*
X401828Y135128D03*
X173228Y136144D03*
X401828Y136144D03*
X173228Y137160D03*
X401828Y137160D03*
X173228Y138176D03*
X401828Y138176D03*
X173228Y139192D03*
X401828Y139192D03*
X173228Y140208D03*
X401828Y140208D03*
X173228Y141224D03*
X401828Y141224D03*
X173228Y142240D03*
X401828Y142240D03*
D11*
X161544Y144272D03*
X413512Y144272D03*
X161544Y145288D03*
X413512Y145288D03*
X161544Y146304D03*
X413512Y146304D03*
X161544Y147320D03*
X413512Y147320D03*
X161544Y148336D03*
X413512Y148336D03*
X161544Y149352D03*
X413512Y149352D03*
X161544Y150368D03*
X413512Y150368D03*
X161544Y151384D03*
X413512Y151384D03*
X161544Y152400D03*
X413512Y152400D03*
X161544Y153416D03*
X413512Y153416D03*
X161544Y154432D03*
X413512Y154432D03*
X161544Y155448D03*
X413512Y155448D03*
X161544Y156464D03*
X413512Y156464D03*
X161544Y157480D03*
X413512Y157480D03*
X161544Y158496D03*
X413512Y158496D03*
X161544Y159512D03*
X413512Y159512D03*
X161544Y160528D03*
X413512Y160528D03*
X161544Y161544D03*
X413512Y161544D03*
X161544Y162560D03*
X413512Y162560D03*
X161544Y163576D03*
X413512Y163576D03*
X161544Y164592D03*
X413512Y164592D03*
X161544Y165608D03*
X413512Y165608D03*
X161544Y166624D03*
X413512Y166624D03*
X161544Y167640D03*
X413512Y167640D03*
X161544Y168656D03*
X413512Y168656D03*
X161544Y169672D03*
X413512Y169672D03*
X161544Y170688D03*
X413512Y170688D03*
X161544Y171704D03*
X413512Y171704D03*
X161544Y172720D03*
X413512Y172720D03*
X161544Y173736D03*
X413512Y173736D03*
X161544Y174752D03*
X413512Y174752D03*
X161544Y175768D03*
X413512Y175768D03*
X161544Y176784D03*
X413512Y176784D03*
X161544Y177800D03*
X413512Y177800D03*
X161544Y178816D03*
X413512Y178816D03*
X161544Y179832D03*
X413512Y179832D03*
X161544Y180848D03*
X413512Y180848D03*
X161544Y181864D03*
X413512Y181864D03*
X161544Y182880D03*
X413512Y182880D03*
X161544Y183896D03*
X413512Y183896D03*
X161544Y184912D03*
X413512Y184912D03*
X161544Y185928D03*
X413512Y185928D03*
X161544Y186944D03*
X413512Y186944D03*
X161544Y187960D03*
X413512Y187960D03*
X161544Y188976D03*
X413512Y188976D03*
X161544Y189992D03*
X413512Y189992D03*
X161544Y191008D03*
X413512Y191008D03*
X161544Y192024D03*
X413512Y192024D03*
X161544Y193040D03*
X413512Y193040D03*
X161544Y194056D03*
X413512Y194056D03*
X161544Y195072D03*
X413512Y195072D03*
X161544Y196088D03*
X413512Y196088D03*
X161544Y197104D03*
X413512Y197104D03*
X161544Y198120D03*
X413512Y198120D03*
X161544Y199136D03*
X413512Y199136D03*
X161544Y200152D03*
X413512Y200152D03*
X161544Y201168D03*
X413512Y201168D03*
X161544Y202184D03*
X413512Y202184D03*
X161544Y203200D03*
X413512Y203200D03*
X161544Y204216D03*
X413512Y204216D03*
X161544Y205232D03*
X413512Y205232D03*
X161544Y206248D03*
X413512Y206248D03*
X161544Y207264D03*
X413512Y207264D03*
X161544Y208280D03*
X413512Y208280D03*
X161544Y209296D03*
X413512Y209296D03*
X161544Y210312D03*
X413512Y210312D03*
X161544Y211328D03*
X413512Y211328D03*
X161544Y212344D03*
X413512Y212344D03*
X161544Y213360D03*
X413512Y213360D03*
X161544Y214376D03*
X413512Y214376D03*
X161544Y215392D03*
X413512Y215392D03*
X161544Y216408D03*
X413512Y216408D03*
X161544Y217424D03*
X413512Y217424D03*
X161544Y218440D03*
X413512Y218440D03*
X161544Y219456D03*
X413512Y219456D03*
X161544Y220472D03*
X413512Y220472D03*
X161544Y221488D03*
X413512Y221488D03*
X161544Y222504D03*
X413512Y222504D03*
X161544Y223520D03*
X413512Y223520D03*
X161544Y224536D03*
X413512Y224536D03*
X161544Y225552D03*
X413512Y225552D03*
X161544Y226568D03*
X413512Y226568D03*
X161544Y227584D03*
X413512Y227584D03*
X161544Y228600D03*
X413512Y228600D03*
X161544Y229616D03*
X413512Y229616D03*
X161544Y230632D03*
X413512Y230632D03*
X161544Y231648D03*
X413512Y231648D03*
X161544Y232664D03*
X413512Y232664D03*
X161544Y233680D03*
X413512Y233680D03*
X161544Y234696D03*
X413512Y234696D03*
X161544Y235712D03*
X413512Y235712D03*
X161544Y236728D03*
X413512Y236728D03*
X161544Y237744D03*
X413512Y237744D03*
X161544Y238760D03*
X413512Y238760D03*
X161544Y239776D03*
X413512Y239776D03*
X161544Y240792D03*
X413512Y240792D03*
X161544Y241808D03*
X413512Y241808D03*
X161544Y242824D03*
X413512Y242824D03*
X161544Y243840D03*
X413512Y243840D03*
X161544Y244856D03*
X413512Y244856D03*
X161544Y245872D03*
X413512Y245872D03*
X161544Y246888D03*
X413512Y246888D03*
X161544Y247904D03*
X413512Y247904D03*
X161544Y248920D03*
X413512Y248920D03*
X161544Y249936D03*
X413512Y249936D03*
X161544Y250952D03*
X413512Y250952D03*
D13*
X155448Y251968D03*
X419608Y251968D03*
X155448Y252984D03*
X419608Y252984D03*
X155448Y254000D03*
X419608Y254000D03*
X155448Y255016D03*
X419608Y255016D03*
X155448Y256032D03*
X419608Y256032D03*
X155448Y257048D03*
X419608Y257048D03*
X155448Y258064D03*
X419608Y258064D03*
X155448Y259080D03*
X419608Y259080D03*
X155448Y260096D03*
X419608Y260096D03*
X155448Y261112D03*
X419608Y261112D03*
X155448Y262128D03*
X419608Y262128D03*
X155448Y263144D03*
X419608Y263144D03*
D14*
X131572Y264160D03*
X443484Y264160D03*
X131572Y265176D03*
X443484Y265176D03*
X131572Y266192D03*
X443484Y266192D03*
X131572Y267208D03*
X443484Y267208D03*
X131572Y268224D03*
X443484Y268224D03*
X131572Y269240D03*
X443484Y269240D03*
X131572Y270256D03*
X443484Y270256D03*
X131572Y271272D03*
X443484Y271272D03*
X131572Y272288D03*
X443484Y272288D03*
X131572Y273304D03*
X443484Y273304D03*
X131572Y274320D03*
X443484Y274320D03*
D12*
X113284Y276352D03*
X461772Y276352D03*
X113284Y277368D03*
X461772Y277368D03*
X113284Y278384D03*
X461772Y278384D03*
X113284Y279400D03*
X461772Y279400D03*
X113284Y280416D03*
X461772Y280416D03*
X113284Y281432D03*
X461772Y281432D03*
X113284Y282448D03*
X461772Y282448D03*
X113284Y283464D03*
X461772Y283464D03*
X113284Y284480D03*
X461772Y284480D03*
X113284Y285496D03*
X461772Y285496D03*
X113284Y286512D03*
X461772Y286512D03*
D11*
X101600Y288544D03*
D15*
X425704Y288544D03*
D11*
X473456Y288544D03*
X101600Y289560D03*
D15*
X425704Y289560D03*
D11*
X473456Y289560D03*
X101600Y290576D03*
D15*
X425704Y290576D03*
D11*
X473456Y290576D03*
X101600Y291592D03*
D15*
X425704Y291592D03*
D11*
X473456Y291592D03*
X101600Y292608D03*
D15*
X425704Y292608D03*
D11*
X473456Y292608D03*
X101600Y293624D03*
D15*
X425704Y293624D03*
D11*
X473456Y293624D03*
X101600Y294640D03*
D15*
X425704Y294640D03*
D11*
X473456Y294640D03*
X101600Y295656D03*
D15*
X425704Y295656D03*
D11*
X473456Y295656D03*
X101600Y296672D03*
D15*
X425704Y296672D03*
D11*
X473456Y296672D03*
X101600Y297688D03*
D15*
X425704Y297688D03*
D11*
X473456Y297688D03*
X101600Y298704D03*
D15*
X425704Y298704D03*
D11*
X473456Y298704D03*
X89408Y299720D03*
D15*
X425704Y299720D03*
D11*
X485648Y299720D03*
X89408Y300736D03*
D13*
X119888Y300736D03*
D16*
X425704Y300736D03*
D11*
X485648Y300736D03*
X89408Y301752D03*
D13*
X119888Y301752D03*
D16*
X425704Y301752D03*
D11*
X485648Y301752D03*
X89408Y302768D03*
D13*
X119888Y302768D03*
D16*
X425704Y302768D03*
D11*
X485648Y302768D03*
X89408Y303784D03*
D13*
X119888Y303784D03*
D16*
X425704Y303784D03*
D11*
X485648Y303784D03*
X89408Y304800D03*
D13*
X119888Y304800D03*
D16*
X425704Y304800D03*
D11*
X485648Y304800D03*
X89408Y305816D03*
D13*
X119888Y305816D03*
D16*
X425704Y305816D03*
D11*
X485648Y305816D03*
X89408Y306832D03*
D13*
X119888Y306832D03*
D16*
X425704Y306832D03*
D11*
X485648Y306832D03*
X89408Y307848D03*
D13*
X119888Y307848D03*
D16*
X425704Y307848D03*
D11*
X485648Y307848D03*
X89408Y308864D03*
D13*
X119888Y308864D03*
D16*
X425704Y308864D03*
D11*
X485648Y308864D03*
X89408Y309880D03*
D13*
X119888Y309880D03*
D16*
X425704Y309880D03*
D11*
X485648Y309880D03*
X89408Y310896D03*
D13*
X119888Y310896D03*
D16*
X425704Y310896D03*
D11*
X485648Y310896D03*
D12*
X77724Y311912D03*
D15*
X125984Y311912D03*
X245872Y311912D03*
D16*
X425704Y311912D03*
D12*
X497332Y311912D03*
X77724Y312928D03*
D17*
X119888Y312928D03*
D15*
X245872Y312928D03*
D16*
X425704Y312928D03*
D12*
X497332Y312928D03*
X77724Y313944D03*
D17*
X119888Y313944D03*
D15*
X245872Y313944D03*
D16*
X425704Y313944D03*
D12*
X497332Y313944D03*
X77724Y314960D03*
D17*
X119888Y314960D03*
D15*
X245872Y314960D03*
D16*
X425704Y314960D03*
D12*
X497332Y314960D03*
X77724Y315976D03*
D17*
X119888Y315976D03*
D15*
X245872Y315976D03*
D16*
X425704Y315976D03*
D12*
X497332Y315976D03*
X77724Y316992D03*
D17*
X119888Y316992D03*
D15*
X245872Y316992D03*
D16*
X425704Y316992D03*
D12*
X497332Y316992D03*
X77724Y318008D03*
D17*
X119888Y318008D03*
D15*
X245872Y318008D03*
D16*
X425704Y318008D03*
D12*
X497332Y318008D03*
X77724Y319024D03*
D17*
X119888Y319024D03*
D15*
X245872Y319024D03*
D16*
X425704Y319024D03*
D12*
X497332Y319024D03*
X77724Y320040D03*
D17*
X119888Y320040D03*
D15*
X245872Y320040D03*
D16*
X425704Y320040D03*
D12*
X497332Y320040D03*
X77724Y321056D03*
D17*
X119888Y321056D03*
D15*
X245872Y321056D03*
D16*
X425704Y321056D03*
D12*
X497332Y321056D03*
X77724Y322072D03*
D17*
X119888Y322072D03*
D15*
X245872Y322072D03*
D16*
X425704Y322072D03*
D12*
X497332Y322072D03*
X77724Y323088D03*
D17*
X119888Y323088D03*
D15*
X245872Y323088D03*
D16*
X425704Y323088D03*
D12*
X497332Y323088D03*
X77724Y324104D03*
D17*
X119888Y324104D03*
D18*
X245364Y324104D03*
D16*
X425704Y324104D03*
D12*
X497332Y324104D03*
X77724Y325120D03*
D17*
X119888Y325120D03*
D18*
X245364Y325120D03*
D16*
X425704Y325120D03*
D12*
X497332Y325120D03*
X77724Y326136D03*
D17*
X119888Y326136D03*
D18*
X245364Y326136D03*
D16*
X425704Y326136D03*
D12*
X497332Y326136D03*
X77724Y327152D03*
D17*
X119888Y327152D03*
D18*
X245364Y327152D03*
D16*
X425704Y327152D03*
D12*
X497332Y327152D03*
X77724Y328168D03*
D17*
X119888Y328168D03*
D18*
X245364Y328168D03*
D16*
X425704Y328168D03*
D12*
X497332Y328168D03*
X77724Y329184D03*
D17*
X119888Y329184D03*
D18*
X245364Y329184D03*
D16*
X425704Y329184D03*
D12*
X497332Y329184D03*
X77724Y330200D03*
D17*
X119888Y330200D03*
D18*
X245364Y330200D03*
D16*
X425704Y330200D03*
D12*
X497332Y330200D03*
X77724Y331216D03*
D17*
X119888Y331216D03*
D18*
X245364Y331216D03*
D16*
X425704Y331216D03*
D12*
X497332Y331216D03*
X77724Y332232D03*
D17*
X119888Y332232D03*
D18*
X245364Y332232D03*
D16*
X425704Y332232D03*
D12*
X497332Y332232D03*
X77724Y333248D03*
D17*
X119888Y333248D03*
D18*
X245364Y333248D03*
D16*
X425704Y333248D03*
D12*
X497332Y333248D03*
X77724Y334264D03*
D17*
X119888Y334264D03*
D18*
X245364Y334264D03*
D16*
X425704Y334264D03*
D12*
X497332Y334264D03*
X77724Y335280D03*
D17*
X119888Y335280D03*
D18*
X245364Y335280D03*
D16*
X425704Y335280D03*
D12*
X497332Y335280D03*
X65532Y336296D03*
D16*
X113792Y336296D03*
D18*
X245364Y336296D03*
D15*
X425704Y336296D03*
D12*
X509524Y336296D03*
X65532Y337312D03*
D16*
X113792Y337312D03*
D18*
X245364Y337312D03*
D15*
X425704Y337312D03*
D12*
X509524Y337312D03*
X65532Y338328D03*
D16*
X113792Y338328D03*
D18*
X245364Y338328D03*
D15*
X425704Y338328D03*
D12*
X509524Y338328D03*
X65532Y339344D03*
D16*
X113792Y339344D03*
D18*
X245364Y339344D03*
D15*
X425704Y339344D03*
D12*
X509524Y339344D03*
X65532Y340360D03*
D16*
X113792Y340360D03*
D18*
X245364Y340360D03*
D15*
X425704Y340360D03*
D12*
X509524Y340360D03*
X65532Y341376D03*
D16*
X113792Y341376D03*
D18*
X245364Y341376D03*
D15*
X425704Y341376D03*
D12*
X509524Y341376D03*
X65532Y342392D03*
D16*
X113792Y342392D03*
D18*
X245364Y342392D03*
D15*
X425704Y342392D03*
D12*
X509524Y342392D03*
X65532Y343408D03*
D16*
X113792Y343408D03*
D18*
X245364Y343408D03*
D15*
X425704Y343408D03*
D12*
X509524Y343408D03*
X65532Y344424D03*
D16*
X113792Y344424D03*
D18*
X245364Y344424D03*
D15*
X425704Y344424D03*
D12*
X509524Y344424D03*
X65532Y345440D03*
D16*
X113792Y345440D03*
D18*
X245364Y345440D03*
D15*
X425704Y345440D03*
D12*
X509524Y345440D03*
X65532Y346456D03*
D16*
X113792Y346456D03*
D18*
X245364Y346456D03*
D15*
X425704Y346456D03*
D12*
X509524Y346456D03*
X65532Y347472D03*
D15*
X113792Y347472D03*
D18*
X245364Y347472D03*
D12*
X509524Y347472D03*
X65532Y348488D03*
D15*
X113792Y348488D03*
D18*
X245364Y348488D03*
D12*
X509524Y348488D03*
X65532Y349504D03*
D15*
X113792Y349504D03*
D18*
X245364Y349504D03*
D12*
X509524Y349504D03*
X65532Y350520D03*
D15*
X113792Y350520D03*
D18*
X245364Y350520D03*
D12*
X509524Y350520D03*
X65532Y351536D03*
D15*
X113792Y351536D03*
D18*
X245364Y351536D03*
D12*
X509524Y351536D03*
X65532Y352552D03*
D15*
X113792Y352552D03*
D18*
X245364Y352552D03*
D12*
X509524Y352552D03*
X65532Y353568D03*
D15*
X113792Y353568D03*
D18*
X245364Y353568D03*
D12*
X509524Y353568D03*
X65532Y354584D03*
D15*
X113792Y354584D03*
D18*
X245364Y354584D03*
D12*
X509524Y354584D03*
X65532Y355600D03*
D15*
X113792Y355600D03*
D18*
X245364Y355600D03*
D12*
X509524Y355600D03*
X65532Y356616D03*
D15*
X113792Y356616D03*
D18*
X245364Y356616D03*
D12*
X509524Y356616D03*
X65532Y357632D03*
D15*
X113792Y357632D03*
D18*
X245364Y357632D03*
D12*
X509524Y357632D03*
X65532Y358648D03*
D15*
X113792Y358648D03*
D18*
X245364Y358648D03*
D12*
X509524Y358648D03*
X65532Y359664D03*
D15*
X245872Y359664D03*
D12*
X509524Y359664D03*
X65532Y360680D03*
D15*
X245872Y360680D03*
D12*
X509524Y360680D03*
X65532Y361696D03*
D15*
X245872Y361696D03*
D12*
X509524Y361696D03*
X65532Y362712D03*
D15*
X245872Y362712D03*
D12*
X509524Y362712D03*
X65532Y363728D03*
D15*
X245872Y363728D03*
D12*
X509524Y363728D03*
X65532Y364744D03*
D15*
X245872Y364744D03*
D12*
X509524Y364744D03*
X65532Y365760D03*
D15*
X245872Y365760D03*
D12*
X509524Y365760D03*
X65532Y366776D03*
D15*
X245872Y366776D03*
D12*
X509524Y366776D03*
X65532Y367792D03*
D15*
X245872Y367792D03*
D12*
X509524Y367792D03*
X65532Y368808D03*
D15*
X245872Y368808D03*
D12*
X509524Y368808D03*
X65532Y369824D03*
D15*
X245872Y369824D03*
D12*
X509524Y369824D03*
X65532Y370840D03*
D15*
X245872Y370840D03*
D12*
X509524Y370840D03*
X65532Y371856D03*
X509524Y371856D03*
X65532Y372872D03*
X509524Y372872D03*
X65532Y373888D03*
X509524Y373888D03*
X65532Y374904D03*
X509524Y374904D03*
X65532Y375920D03*
X509524Y375920D03*
X65532Y376936D03*
X509524Y376936D03*
X65532Y377952D03*
X509524Y377952D03*
X65532Y378968D03*
X509524Y378968D03*
X65532Y379984D03*
X509524Y379984D03*
X65532Y381000D03*
X509524Y381000D03*
X65532Y382016D03*
X509524Y382016D03*
X65532Y383032D03*
X509524Y383032D03*
X65532Y384048D03*
X509524Y384048D03*
X65532Y385064D03*
X509524Y385064D03*
X65532Y386080D03*
X509524Y386080D03*
X65532Y387096D03*
X509524Y387096D03*
X65532Y388112D03*
X509524Y388112D03*
X65532Y389128D03*
X509524Y389128D03*
X65532Y390144D03*
X509524Y390144D03*
X65532Y391160D03*
X509524Y391160D03*
X65532Y392176D03*
X509524Y392176D03*
X65532Y393192D03*
X509524Y393192D03*
X65532Y394208D03*
X509524Y394208D03*
X65532Y395224D03*
X509524Y395224D03*
X65532Y396240D03*
D15*
X473456Y396240D03*
D12*
X509524Y396240D03*
X65532Y397256D03*
D15*
X473456Y397256D03*
D12*
X509524Y397256D03*
X65532Y398272D03*
D15*
X473456Y398272D03*
D12*
X509524Y398272D03*
X65532Y399288D03*
D15*
X473456Y399288D03*
D12*
X509524Y399288D03*
X65532Y400304D03*
D15*
X473456Y400304D03*
D12*
X509524Y400304D03*
X65532Y401320D03*
D15*
X473456Y401320D03*
D12*
X509524Y401320D03*
X65532Y402336D03*
D15*
X473456Y402336D03*
D12*
X509524Y402336D03*
X65532Y403352D03*
D15*
X473456Y403352D03*
D12*
X509524Y403352D03*
X65532Y404368D03*
D15*
X473456Y404368D03*
D12*
X509524Y404368D03*
X65532Y405384D03*
D15*
X473456Y405384D03*
D12*
X509524Y405384D03*
X65532Y406400D03*
D15*
X473456Y406400D03*
D12*
X509524Y406400D03*
X65532Y407416D03*
D15*
X473456Y407416D03*
D12*
X509524Y407416D03*
X65532Y408432D03*
D17*
X467360Y408432D03*
D12*
X509524Y408432D03*
X65532Y409448D03*
D17*
X467360Y409448D03*
D12*
X509524Y409448D03*
X65532Y410464D03*
D17*
X467360Y410464D03*
D12*
X509524Y410464D03*
X65532Y411480D03*
D17*
X467360Y411480D03*
D12*
X509524Y411480D03*
X65532Y412496D03*
D17*
X467360Y412496D03*
D12*
X509524Y412496D03*
X65532Y413512D03*
D17*
X467360Y413512D03*
D12*
X509524Y413512D03*
X65532Y414528D03*
D17*
X467360Y414528D03*
D12*
X509524Y414528D03*
X65532Y415544D03*
D17*
X467360Y415544D03*
D12*
X509524Y415544D03*
X65532Y416560D03*
D17*
X467360Y416560D03*
D12*
X509524Y416560D03*
X65532Y417576D03*
D17*
X467360Y417576D03*
D12*
X509524Y417576D03*
X65532Y418592D03*
D17*
X467360Y418592D03*
D12*
X509524Y418592D03*
D15*
X461264Y419608D03*
D12*
X77724Y420624D03*
D19*
X317500Y420624D03*
D15*
X461264Y420624D03*
D11*
X497840Y420624D03*
D12*
X77724Y421640D03*
D19*
X317500Y421640D03*
D15*
X461264Y421640D03*
D11*
X497840Y421640D03*
D12*
X77724Y422656D03*
D19*
X317500Y422656D03*
D15*
X461264Y422656D03*
D11*
X497840Y422656D03*
D12*
X77724Y423672D03*
D19*
X317500Y423672D03*
D15*
X461264Y423672D03*
D11*
X497840Y423672D03*
D12*
X77724Y424688D03*
D19*
X317500Y424688D03*
D15*
X461264Y424688D03*
D11*
X497840Y424688D03*
D12*
X77724Y425704D03*
D19*
X317500Y425704D03*
D15*
X461264Y425704D03*
D11*
X497840Y425704D03*
D12*
X77724Y426720D03*
D19*
X317500Y426720D03*
D15*
X461264Y426720D03*
D11*
X497840Y426720D03*
D12*
X77724Y427736D03*
D19*
X317500Y427736D03*
D15*
X461264Y427736D03*
D11*
X497840Y427736D03*
D12*
X77724Y428752D03*
D19*
X317500Y428752D03*
D15*
X461264Y428752D03*
D11*
X497840Y428752D03*
D12*
X77724Y429768D03*
D19*
X317500Y429768D03*
D15*
X461264Y429768D03*
D11*
X497840Y429768D03*
D12*
X77724Y430784D03*
D19*
X317500Y430784D03*
D15*
X461264Y430784D03*
D11*
X497840Y430784D03*
D12*
X77724Y431800D03*
D18*
X317500Y431800D03*
D15*
X461264Y431800D03*
D11*
X497840Y431800D03*
D12*
X77724Y432816D03*
D18*
X317500Y432816D03*
D15*
X461264Y432816D03*
D11*
X497840Y432816D03*
D12*
X77724Y433832D03*
D18*
X317500Y433832D03*
D15*
X461264Y433832D03*
D11*
X497840Y433832D03*
D12*
X77724Y434848D03*
D18*
X317500Y434848D03*
D15*
X461264Y434848D03*
D11*
X497840Y434848D03*
D12*
X77724Y435864D03*
D18*
X317500Y435864D03*
D15*
X461264Y435864D03*
D11*
X497840Y435864D03*
D12*
X77724Y436880D03*
D18*
X317500Y436880D03*
D15*
X461264Y436880D03*
D11*
X497840Y436880D03*
D12*
X77724Y437896D03*
D18*
X317500Y437896D03*
D15*
X461264Y437896D03*
D11*
X497840Y437896D03*
D12*
X77724Y438912D03*
D18*
X317500Y438912D03*
D15*
X461264Y438912D03*
D11*
X497840Y438912D03*
D12*
X77724Y439928D03*
D18*
X317500Y439928D03*
D15*
X461264Y439928D03*
D11*
X497840Y439928D03*
D12*
X77724Y440944D03*
D18*
X317500Y440944D03*
D15*
X461264Y440944D03*
D11*
X497840Y440944D03*
D12*
X77724Y441960D03*
D18*
X317500Y441960D03*
D15*
X461264Y441960D03*
D11*
X497840Y441960D03*
D12*
X77724Y442976D03*
D18*
X317500Y442976D03*
D15*
X461264Y442976D03*
D11*
X497840Y442976D03*
X89408Y443992D03*
D18*
X317500Y443992D03*
D11*
X461264Y443992D03*
X89408Y445008D03*
D18*
X317500Y445008D03*
D11*
X461264Y445008D03*
X485648Y445008D03*
X89408Y446024D03*
D18*
X317500Y446024D03*
D11*
X461264Y446024D03*
X485648Y446024D03*
X89408Y447040D03*
D18*
X317500Y447040D03*
D11*
X461264Y447040D03*
X485648Y447040D03*
X89408Y448056D03*
D18*
X317500Y448056D03*
D11*
X461264Y448056D03*
X485648Y448056D03*
X89408Y449072D03*
D18*
X317500Y449072D03*
D11*
X461264Y449072D03*
X485648Y449072D03*
X89408Y450088D03*
D18*
X317500Y450088D03*
D11*
X461264Y450088D03*
X485648Y450088D03*
X89408Y451104D03*
D18*
X317500Y451104D03*
D11*
X461264Y451104D03*
X485648Y451104D03*
X89408Y452120D03*
D18*
X317500Y452120D03*
D11*
X461264Y452120D03*
X485648Y452120D03*
X89408Y453136D03*
D18*
X317500Y453136D03*
D11*
X461264Y453136D03*
X485648Y453136D03*
X89408Y454152D03*
D18*
X317500Y454152D03*
D11*
X461264Y454152D03*
X485648Y454152D03*
X89408Y455168D03*
D18*
X317500Y455168D03*
D11*
X461264Y455168D03*
X485648Y455168D03*
X89408Y456184D03*
D15*
X173736Y456184D03*
D18*
X317500Y456184D03*
D11*
X485648Y456184D03*
X89408Y457200D03*
D15*
X173736Y457200D03*
D18*
X317500Y457200D03*
D11*
X485648Y457200D03*
X89408Y458216D03*
D15*
X173736Y458216D03*
D18*
X317500Y458216D03*
D11*
X485648Y458216D03*
X89408Y459232D03*
D15*
X173736Y459232D03*
D18*
X317500Y459232D03*
D11*
X485648Y459232D03*
X89408Y460248D03*
D15*
X173736Y460248D03*
D18*
X317500Y460248D03*
D11*
X485648Y460248D03*
X89408Y461264D03*
D15*
X173736Y461264D03*
D18*
X317500Y461264D03*
D11*
X485648Y461264D03*
X89408Y462280D03*
D15*
X173736Y462280D03*
D18*
X317500Y462280D03*
D11*
X485648Y462280D03*
X89408Y463296D03*
D15*
X173736Y463296D03*
D18*
X317500Y463296D03*
D11*
X485648Y463296D03*
X89408Y464312D03*
D15*
X173736Y464312D03*
D18*
X317500Y464312D03*
D11*
X485648Y464312D03*
X89408Y465328D03*
D15*
X173736Y465328D03*
D18*
X317500Y465328D03*
D11*
X485648Y465328D03*
X89408Y466344D03*
D15*
X173736Y466344D03*
D18*
X317500Y466344D03*
D11*
X485648Y466344D03*
X89408Y467360D03*
D15*
X173736Y467360D03*
D20*
X317500Y467360D03*
D11*
X485648Y467360D03*
X101600Y468376D03*
D16*
X173736Y468376D03*
D19*
X317500Y468376D03*
D11*
X473456Y468376D03*
X101600Y469392D03*
D16*
X173736Y469392D03*
D19*
X317500Y469392D03*
D11*
X473456Y469392D03*
X101600Y470408D03*
D16*
X173736Y470408D03*
D19*
X317500Y470408D03*
D11*
X473456Y470408D03*
X101600Y471424D03*
D16*
X173736Y471424D03*
D19*
X317500Y471424D03*
D11*
X473456Y471424D03*
X101600Y472440D03*
D16*
X173736Y472440D03*
D19*
X317500Y472440D03*
D11*
X473456Y472440D03*
X101600Y473456D03*
D16*
X173736Y473456D03*
D19*
X317500Y473456D03*
D11*
X473456Y473456D03*
X101600Y474472D03*
D16*
X173736Y474472D03*
D19*
X317500Y474472D03*
D11*
X473456Y474472D03*
X101600Y475488D03*
D16*
X173736Y475488D03*
D19*
X317500Y475488D03*
D11*
X473456Y475488D03*
X101600Y476504D03*
D16*
X173736Y476504D03*
D19*
X317500Y476504D03*
D11*
X473456Y476504D03*
X101600Y477520D03*
D16*
X173736Y477520D03*
D19*
X317500Y477520D03*
D11*
X473456Y477520D03*
X101600Y478536D03*
D16*
X173736Y478536D03*
D19*
X317500Y478536D03*
D11*
X473456Y478536D03*
D16*
X173736Y479552D03*
D12*
X113284Y480568D03*
D16*
X173736Y480568D03*
D12*
X461772Y480568D03*
X113284Y481584D03*
D16*
X173736Y481584D03*
D12*
X461772Y481584D03*
X113284Y482600D03*
D16*
X173736Y482600D03*
D12*
X461772Y482600D03*
X113284Y483616D03*
D16*
X173736Y483616D03*
D12*
X461772Y483616D03*
X113284Y484632D03*
D16*
X173736Y484632D03*
D12*
X461772Y484632D03*
X113284Y485648D03*
D16*
X173736Y485648D03*
D12*
X461772Y485648D03*
X113284Y486664D03*
D16*
X173736Y486664D03*
D12*
X461772Y486664D03*
X113284Y487680D03*
D16*
X173736Y487680D03*
D12*
X461772Y487680D03*
X113284Y488696D03*
D16*
X173736Y488696D03*
D12*
X461772Y488696D03*
X113284Y489712D03*
D16*
X173736Y489712D03*
D12*
X461772Y489712D03*
X113284Y490728D03*
D16*
X173736Y490728D03*
D12*
X461772Y490728D03*
D15*
X185928Y491744D03*
D13*
X131064Y492760D03*
D15*
X185928Y492760D03*
X389128Y492760D03*
D14*
X443484Y492760D03*
D13*
X131064Y493776D03*
D15*
X185928Y493776D03*
X389128Y493776D03*
D14*
X443484Y493776D03*
D13*
X131064Y494792D03*
D15*
X185928Y494792D03*
X389128Y494792D03*
D14*
X443484Y494792D03*
D13*
X131064Y495808D03*
D15*
X185928Y495808D03*
X389128Y495808D03*
D14*
X443484Y495808D03*
D13*
X131064Y496824D03*
D15*
X185928Y496824D03*
X389128Y496824D03*
D14*
X443484Y496824D03*
D13*
X131064Y497840D03*
D15*
X185928Y497840D03*
X389128Y497840D03*
D14*
X443484Y497840D03*
D13*
X131064Y498856D03*
D15*
X185928Y498856D03*
X389128Y498856D03*
D14*
X443484Y498856D03*
D13*
X131064Y499872D03*
D15*
X185928Y499872D03*
X389128Y499872D03*
D14*
X443484Y499872D03*
D13*
X131064Y500888D03*
D15*
X185928Y500888D03*
X389128Y500888D03*
D14*
X443484Y500888D03*
D13*
X131064Y501904D03*
D15*
X185928Y501904D03*
X389128Y501904D03*
D14*
X443484Y501904D03*
D13*
X131064Y502920D03*
D15*
X185928Y502920D03*
X389128Y502920D03*
D14*
X443484Y502920D03*
D11*
X365760Y503936D03*
D13*
X419608Y503936D03*
X155448Y504952D03*
D11*
X365760Y504952D03*
D13*
X419608Y504952D03*
X155448Y505968D03*
D11*
X365760Y505968D03*
D13*
X419608Y505968D03*
X155448Y506984D03*
D11*
X365760Y506984D03*
D13*
X419608Y506984D03*
X155448Y508000D03*
D11*
X365760Y508000D03*
D13*
X419608Y508000D03*
X155448Y509016D03*
D11*
X365760Y509016D03*
D13*
X419608Y509016D03*
X155448Y510032D03*
D11*
X365760Y510032D03*
D13*
X419608Y510032D03*
X155448Y511048D03*
D11*
X365760Y511048D03*
D13*
X419608Y511048D03*
X155448Y512064D03*
D11*
X365760Y512064D03*
D13*
X419608Y512064D03*
X155448Y513080D03*
D11*
X365760Y513080D03*
D13*
X419608Y513080D03*
X155448Y514096D03*
D11*
X365760Y514096D03*
D13*
X419608Y514096D03*
X155448Y515112D03*
D11*
X365760Y515112D03*
D13*
X419608Y515112D03*
D20*
X185420Y516128D03*
X389636Y516128D03*
X185420Y517144D03*
X389636Y517144D03*
X185420Y518160D03*
X389636Y518160D03*
X185420Y519176D03*
X389636Y519176D03*
X185420Y520192D03*
X389636Y520192D03*
X185420Y521208D03*
X389636Y521208D03*
X185420Y522224D03*
X389636Y522224D03*
X185420Y523240D03*
X389636Y523240D03*
X185420Y524256D03*
X389636Y524256D03*
X185420Y525272D03*
X389636Y525272D03*
X185420Y526288D03*
X389636Y526288D03*
D19*
X185420Y527304D03*
X389636Y527304D03*
D15*
X221488Y528320D03*
X353568Y528320D03*
X221488Y529336D03*
X353568Y529336D03*
X221488Y530352D03*
X353568Y530352D03*
X221488Y531368D03*
X353568Y531368D03*
X221488Y532384D03*
X353568Y532384D03*
X221488Y533400D03*
X353568Y533400D03*
X221488Y534416D03*
X353568Y534416D03*
X221488Y535432D03*
X353568Y535432D03*
X221488Y536448D03*
X353568Y536448D03*
X221488Y537464D03*
X353568Y537464D03*
X221488Y538480D03*
X353568Y538480D03*
D21*
X287528Y540512D03*
X287528Y541528D03*
X287528Y542544D03*
X287528Y543560D03*
X287528Y544576D03*
X287528Y545592D03*
X287528Y546608D03*
X287528Y547624D03*
X287528Y548640D03*
X287528Y549656D03*
X287528Y550672D03*
D22*
X122872Y313692D02*
X122862Y313817D01*
X122848Y313942D01*
X122830Y314067D01*
X122808Y314191D01*
X122782Y314314D01*
X122753Y314436D01*
X122719Y314557D01*
X122682Y314678D01*
X122641Y314796D01*
X122597Y314914D01*
X122548Y315030D01*
X122497Y315145D01*
X122441Y315258D01*
X122382Y315369D01*
X122320Y315478D01*
X122254Y315585D01*
X122185Y315690D01*
X122112Y315793D01*
X122037Y315894D01*
X121958Y315992D01*
X121876Y316087D01*
X121791Y316180D01*
X121704Y316270D01*
X121613Y316358D01*
X121520Y316442D01*
X121425Y316524D01*
X121326Y316603D01*
X121226Y316678D01*
X121123Y316750D01*
X121018Y316819D01*
X120910Y316885D01*
X120801Y316947D01*
X120690Y317006D01*
X120577Y317061D01*
X120462Y317113D01*
X120346Y317161D01*
X120228Y317206D01*
X120109Y317246D01*
X119989Y317283D01*
X119868Y317316D01*
X119745Y317346D01*
X119622Y317371D01*
X119498Y317393D01*
X119374Y317410D01*
X119249Y317424D01*
X119123Y317434D01*
X118998Y317440D01*
X118872Y317442D01*
X118746Y317440D01*
X118621Y317434D01*
X118495Y317424D01*
X118370Y317410D01*
X118246Y317393D01*
X118122Y317371D01*
X117999Y317346D01*
X117876Y317316D01*
X117755Y317283D01*
X117635Y317246D01*
X117516Y317206D01*
X117398Y317161D01*
X117282Y317113D01*
X117167Y317061D01*
X117054Y317006D01*
X116943Y316947D01*
X116834Y316885D01*
X116726Y316819D01*
X116621Y316750D01*
X116518Y316678D01*
X116418Y316603D01*
X116319Y316524D01*
X116224Y316442D01*
X116131Y316358D01*
X116040Y316270D01*
X115953Y316180D01*
X115868Y316087D01*
X115786Y315992D01*
X115707Y315894D01*
X115632Y315793D01*
X115559Y315690D01*
X115490Y315585D01*
X115424Y315478D01*
X115362Y315369D01*
X115303Y315258D01*
X115247Y315145D01*
X115196Y315030D01*
X115147Y314914D01*
X115103Y314796D01*
X115062Y314678D01*
X115025Y314557D01*
X114991Y314436D01*
X114962Y314314D01*
X114936Y314191D01*
X114914Y314067D01*
X114896Y313942D01*
X114882Y313817D01*
X114872Y313692D01*
X126872Y320192D02*
X126872Y339192D01*
X110872Y339192D02*
X110872Y320192D01*
X123372Y315442D02*
X123374Y315505D01*
X123380Y315567D01*
X123390Y315629D01*
X123403Y315691D01*
X123421Y315751D01*
X123442Y315810D01*
X123467Y315868D01*
X123496Y315924D01*
X123528Y315978D01*
X123563Y316030D01*
X123601Y316079D01*
X123643Y316127D01*
X123687Y316171D01*
X123735Y316213D01*
X123784Y316251D01*
X123836Y316286D01*
X123890Y316318D01*
X123946Y316347D01*
X124004Y316372D01*
X124063Y316393D01*
X124123Y316411D01*
X124185Y316424D01*
X124247Y316434D01*
X124309Y316440D01*
X124372Y316442D01*
X124435Y316440D01*
X124497Y316434D01*
X124559Y316424D01*
X124621Y316411D01*
X124681Y316393D01*
X124740Y316372D01*
X124798Y316347D01*
X124854Y316318D01*
X124908Y316286D01*
X124960Y316251D01*
X125009Y316213D01*
X125057Y316171D01*
X125101Y316127D01*
X125143Y316079D01*
X125181Y316030D01*
X125216Y315978D01*
X125248Y315924D01*
X125277Y315868D01*
X125302Y315810D01*
X125323Y315751D01*
X125341Y315691D01*
X125354Y315629D01*
X125364Y315567D01*
X125370Y315505D01*
X125372Y315442D01*
X125370Y315379D01*
X125364Y315317D01*
X125354Y315255D01*
X125341Y315193D01*
X125323Y315133D01*
X125302Y315074D01*
X125277Y315016D01*
X125248Y314960D01*
X125216Y314906D01*
X125181Y314854D01*
X125143Y314805D01*
X125101Y314757D01*
X125057Y314713D01*
X125009Y314671D01*
X124960Y314633D01*
X124908Y314598D01*
X124854Y314566D01*
X124798Y314537D01*
X124740Y314512D01*
X124681Y314491D01*
X124621Y314473D01*
X124559Y314460D01*
X124497Y314450D01*
X124435Y314444D01*
X124372Y314442D01*
X124309Y314444D01*
X124247Y314450D01*
X124185Y314460D01*
X124123Y314473D01*
X124063Y314491D01*
X124004Y314512D01*
X123946Y314537D01*
X123890Y314566D01*
X123836Y314598D01*
X123784Y314633D01*
X123735Y314671D01*
X123687Y314713D01*
X123643Y314757D01*
X123601Y314805D01*
X123563Y314854D01*
X123528Y314906D01*
X123496Y314960D01*
X123467Y315016D01*
X123442Y315074D01*
X123421Y315133D01*
X123403Y315193D01*
X123390Y315255D01*
X123380Y315317D01*
X123374Y315379D01*
X123372Y315442D01*
D23*
X124872Y313817D03*
D24*
X126247Y315817D03*
D25*
X122747Y316317D03*
D26*
X123247Y316817D03*
D27*
X112872Y314942D03*
D28*
X113372Y316817D03*
D29*
X118872Y318692D03*
D30*
X118872Y342692D03*
D31*
X125747Y324067D03*
X111997Y324067D03*
D32*
X118872Y327942D03*
D22*
X243142Y325122D02*
X243152Y325247D01*
X243166Y325372D01*
X243184Y325497D01*
X243206Y325621D01*
X243232Y325744D01*
X243261Y325866D01*
X243295Y325987D01*
X243332Y326108D01*
X243373Y326226D01*
X243417Y326344D01*
X243466Y326460D01*
X243517Y326575D01*
X243573Y326688D01*
X243632Y326799D01*
X243694Y326908D01*
X243760Y327015D01*
X243829Y327120D01*
X243902Y327223D01*
X243977Y327324D01*
X244056Y327422D01*
X244138Y327517D01*
X244223Y327610D01*
X244310Y327700D01*
X244401Y327788D01*
X244494Y327872D01*
X244589Y327954D01*
X244688Y328033D01*
X244788Y328108D01*
X244891Y328180D01*
X244996Y328249D01*
X245104Y328315D01*
X245213Y328377D01*
X245324Y328436D01*
X245437Y328491D01*
X245552Y328543D01*
X245668Y328591D01*
X245786Y328636D01*
X245905Y328676D01*
X246025Y328713D01*
X246146Y328746D01*
X246269Y328776D01*
X246392Y328801D01*
X246516Y328823D01*
X246640Y328840D01*
X246765Y328854D01*
X246891Y328864D01*
X247016Y328870D01*
X247142Y328872D01*
X247268Y328870D01*
X247393Y328864D01*
X247519Y328854D01*
X247644Y328840D01*
X247768Y328823D01*
X247892Y328801D01*
X248015Y328776D01*
X248138Y328746D01*
X248259Y328713D01*
X248379Y328676D01*
X248498Y328636D01*
X248616Y328591D01*
X248732Y328543D01*
X248847Y328491D01*
X248960Y328436D01*
X249071Y328377D01*
X249180Y328315D01*
X249288Y328249D01*
X249393Y328180D01*
X249496Y328108D01*
X249596Y328033D01*
X249695Y327954D01*
X249790Y327872D01*
X249883Y327788D01*
X249974Y327700D01*
X250061Y327610D01*
X250146Y327517D01*
X250228Y327422D01*
X250307Y327324D01*
X250382Y327223D01*
X250455Y327120D01*
X250524Y327015D01*
X250590Y326908D01*
X250652Y326799D01*
X250711Y326688D01*
X250767Y326575D01*
X250818Y326460D01*
X250867Y326344D01*
X250911Y326226D01*
X250952Y326108D01*
X250989Y325987D01*
X251023Y325866D01*
X251052Y325744D01*
X251078Y325621D01*
X251100Y325497D01*
X251118Y325372D01*
X251132Y325247D01*
X251142Y325122D01*
X255142Y331622D02*
X255142Y350622D01*
X239142Y350622D02*
X239142Y331622D01*
X251642Y326872D02*
X251644Y326935D01*
X251650Y326997D01*
X251660Y327059D01*
X251673Y327121D01*
X251691Y327181D01*
X251712Y327240D01*
X251737Y327298D01*
X251766Y327354D01*
X251798Y327408D01*
X251833Y327460D01*
X251871Y327509D01*
X251913Y327557D01*
X251957Y327601D01*
X252005Y327643D01*
X252054Y327681D01*
X252106Y327716D01*
X252160Y327748D01*
X252216Y327777D01*
X252274Y327802D01*
X252333Y327823D01*
X252393Y327841D01*
X252455Y327854D01*
X252517Y327864D01*
X252579Y327870D01*
X252642Y327872D01*
X252705Y327870D01*
X252767Y327864D01*
X252829Y327854D01*
X252891Y327841D01*
X252951Y327823D01*
X253010Y327802D01*
X253068Y327777D01*
X253124Y327748D01*
X253178Y327716D01*
X253230Y327681D01*
X253279Y327643D01*
X253327Y327601D01*
X253371Y327557D01*
X253413Y327509D01*
X253451Y327460D01*
X253486Y327408D01*
X253518Y327354D01*
X253547Y327298D01*
X253572Y327240D01*
X253593Y327181D01*
X253611Y327121D01*
X253624Y327059D01*
X253634Y326997D01*
X253640Y326935D01*
X253642Y326872D01*
X253640Y326809D01*
X253634Y326747D01*
X253624Y326685D01*
X253611Y326623D01*
X253593Y326563D01*
X253572Y326504D01*
X253547Y326446D01*
X253518Y326390D01*
X253486Y326336D01*
X253451Y326284D01*
X253413Y326235D01*
X253371Y326187D01*
X253327Y326143D01*
X253279Y326101D01*
X253230Y326063D01*
X253178Y326028D01*
X253124Y325996D01*
X253068Y325967D01*
X253010Y325942D01*
X252951Y325921D01*
X252891Y325903D01*
X252829Y325890D01*
X252767Y325880D01*
X252705Y325874D01*
X252642Y325872D01*
X252579Y325874D01*
X252517Y325880D01*
X252455Y325890D01*
X252393Y325903D01*
X252333Y325921D01*
X252274Y325942D01*
X252216Y325967D01*
X252160Y325996D01*
X252106Y326028D01*
X252054Y326063D01*
X252005Y326101D01*
X251957Y326143D01*
X251913Y326187D01*
X251871Y326235D01*
X251833Y326284D01*
X251798Y326336D01*
X251766Y326390D01*
X251737Y326446D01*
X251712Y326504D01*
X251691Y326563D01*
X251673Y326623D01*
X251660Y326685D01*
X251650Y326747D01*
X251644Y326809D01*
X251642Y326872D01*
D23*
X253142Y325247D03*
D24*
X254517Y327247D03*
D25*
X251017Y327747D03*
D26*
X251517Y328247D03*
D27*
X241142Y326372D03*
D28*
X241642Y328247D03*
D29*
X247142Y330122D03*
D30*
X247142Y354122D03*
D31*
X254017Y335497D03*
X240267Y335497D03*
D32*
X247142Y339372D03*
D22*
X312230Y433834D02*
X312240Y433959D01*
X312254Y434084D01*
X312272Y434209D01*
X312294Y434333D01*
X312320Y434456D01*
X312349Y434578D01*
X312383Y434699D01*
X312420Y434820D01*
X312461Y434938D01*
X312505Y435056D01*
X312554Y435172D01*
X312605Y435287D01*
X312661Y435400D01*
X312720Y435511D01*
X312782Y435620D01*
X312848Y435727D01*
X312917Y435832D01*
X312990Y435935D01*
X313065Y436036D01*
X313144Y436134D01*
X313226Y436229D01*
X313311Y436322D01*
X313398Y436412D01*
X313489Y436500D01*
X313582Y436584D01*
X313677Y436666D01*
X313776Y436745D01*
X313876Y436820D01*
X313979Y436892D01*
X314084Y436961D01*
X314192Y437027D01*
X314301Y437089D01*
X314412Y437148D01*
X314525Y437203D01*
X314640Y437255D01*
X314756Y437303D01*
X314874Y437348D01*
X314993Y437388D01*
X315113Y437425D01*
X315234Y437458D01*
X315357Y437488D01*
X315480Y437513D01*
X315604Y437535D01*
X315728Y437552D01*
X315853Y437566D01*
X315979Y437576D01*
X316104Y437582D01*
X316230Y437584D01*
X316356Y437582D01*
X316481Y437576D01*
X316607Y437566D01*
X316732Y437552D01*
X316856Y437535D01*
X316980Y437513D01*
X317103Y437488D01*
X317226Y437458D01*
X317347Y437425D01*
X317467Y437388D01*
X317586Y437348D01*
X317704Y437303D01*
X317820Y437255D01*
X317935Y437203D01*
X318048Y437148D01*
X318159Y437089D01*
X318268Y437027D01*
X318376Y436961D01*
X318481Y436892D01*
X318584Y436820D01*
X318684Y436745D01*
X318783Y436666D01*
X318878Y436584D01*
X318971Y436500D01*
X319062Y436412D01*
X319149Y436322D01*
X319234Y436229D01*
X319316Y436134D01*
X319395Y436036D01*
X319470Y435935D01*
X319543Y435832D01*
X319612Y435727D01*
X319678Y435620D01*
X319740Y435511D01*
X319799Y435400D01*
X319855Y435287D01*
X319906Y435172D01*
X319955Y435056D01*
X319999Y434938D01*
X320040Y434820D01*
X320077Y434699D01*
X320111Y434578D01*
X320140Y434456D01*
X320166Y434333D01*
X320188Y434209D01*
X320206Y434084D01*
X320220Y433959D01*
X320230Y433834D01*
X324230Y440334D02*
X324230Y459334D01*
X308230Y459334D02*
X308230Y440334D01*
X320730Y435584D02*
X320732Y435647D01*
X320738Y435709D01*
X320748Y435771D01*
X320761Y435833D01*
X320779Y435893D01*
X320800Y435952D01*
X320825Y436010D01*
X320854Y436066D01*
X320886Y436120D01*
X320921Y436172D01*
X320959Y436221D01*
X321001Y436269D01*
X321045Y436313D01*
X321093Y436355D01*
X321142Y436393D01*
X321194Y436428D01*
X321248Y436460D01*
X321304Y436489D01*
X321362Y436514D01*
X321421Y436535D01*
X321481Y436553D01*
X321543Y436566D01*
X321605Y436576D01*
X321667Y436582D01*
X321730Y436584D01*
X321793Y436582D01*
X321855Y436576D01*
X321917Y436566D01*
X321979Y436553D01*
X322039Y436535D01*
X322098Y436514D01*
X322156Y436489D01*
X322212Y436460D01*
X322266Y436428D01*
X322318Y436393D01*
X322367Y436355D01*
X322415Y436313D01*
X322459Y436269D01*
X322501Y436221D01*
X322539Y436172D01*
X322574Y436120D01*
X322606Y436066D01*
X322635Y436010D01*
X322660Y435952D01*
X322681Y435893D01*
X322699Y435833D01*
X322712Y435771D01*
X322722Y435709D01*
X322728Y435647D01*
X322730Y435584D01*
X322728Y435521D01*
X322722Y435459D01*
X322712Y435397D01*
X322699Y435335D01*
X322681Y435275D01*
X322660Y435216D01*
X322635Y435158D01*
X322606Y435102D01*
X322574Y435048D01*
X322539Y434996D01*
X322501Y434947D01*
X322459Y434899D01*
X322415Y434855D01*
X322367Y434813D01*
X322318Y434775D01*
X322266Y434740D01*
X322212Y434708D01*
X322156Y434679D01*
X322098Y434654D01*
X322039Y434633D01*
X321979Y434615D01*
X321917Y434602D01*
X321855Y434592D01*
X321793Y434586D01*
X321730Y434584D01*
X321667Y434586D01*
X321605Y434592D01*
X321543Y434602D01*
X321481Y434615D01*
X321421Y434633D01*
X321362Y434654D01*
X321304Y434679D01*
X321248Y434708D01*
X321194Y434740D01*
X321142Y434775D01*
X321093Y434813D01*
X321045Y434855D01*
X321001Y434899D01*
X320959Y434947D01*
X320921Y434996D01*
X320886Y435048D01*
X320854Y435102D01*
X320825Y435158D01*
X320800Y435216D01*
X320779Y435275D01*
X320761Y435335D01*
X320748Y435397D01*
X320738Y435459D01*
X320732Y435521D01*
X320730Y435584D01*
D23*
X322230Y433959D03*
D24*
X323605Y435959D03*
D25*
X320105Y436459D03*
D26*
X320605Y436959D03*
D27*
X310230Y435084D03*
D28*
X310730Y436959D03*
D29*
X316230Y438834D03*
D30*
X316230Y462834D03*
D31*
X323105Y444209D03*
X309355Y444209D03*
D32*
X316230Y448084D03*
D22*
X421704Y303024D02*
X421714Y303149D01*
X421728Y303274D01*
X421746Y303399D01*
X421768Y303523D01*
X421794Y303646D01*
X421823Y303768D01*
X421857Y303889D01*
X421894Y304010D01*
X421935Y304128D01*
X421979Y304246D01*
X422028Y304362D01*
X422079Y304477D01*
X422135Y304590D01*
X422194Y304701D01*
X422256Y304810D01*
X422322Y304917D01*
X422391Y305022D01*
X422464Y305125D01*
X422539Y305226D01*
X422618Y305324D01*
X422700Y305419D01*
X422785Y305512D01*
X422872Y305602D01*
X422963Y305690D01*
X423056Y305774D01*
X423151Y305856D01*
X423250Y305935D01*
X423350Y306010D01*
X423453Y306082D01*
X423558Y306151D01*
X423666Y306217D01*
X423775Y306279D01*
X423886Y306338D01*
X423999Y306393D01*
X424114Y306445D01*
X424230Y306493D01*
X424348Y306538D01*
X424467Y306578D01*
X424587Y306615D01*
X424708Y306648D01*
X424831Y306678D01*
X424954Y306703D01*
X425078Y306725D01*
X425202Y306742D01*
X425327Y306756D01*
X425453Y306766D01*
X425578Y306772D01*
X425704Y306774D01*
X425830Y306772D01*
X425955Y306766D01*
X426081Y306756D01*
X426206Y306742D01*
X426330Y306725D01*
X426454Y306703D01*
X426577Y306678D01*
X426700Y306648D01*
X426821Y306615D01*
X426941Y306578D01*
X427060Y306538D01*
X427178Y306493D01*
X427294Y306445D01*
X427409Y306393D01*
X427522Y306338D01*
X427633Y306279D01*
X427742Y306217D01*
X427850Y306151D01*
X427955Y306082D01*
X428058Y306010D01*
X428158Y305935D01*
X428257Y305856D01*
X428352Y305774D01*
X428445Y305690D01*
X428536Y305602D01*
X428623Y305512D01*
X428708Y305419D01*
X428790Y305324D01*
X428869Y305226D01*
X428944Y305125D01*
X429017Y305022D01*
X429086Y304917D01*
X429152Y304810D01*
X429214Y304701D01*
X429273Y304590D01*
X429329Y304477D01*
X429380Y304362D01*
X429429Y304246D01*
X429473Y304128D01*
X429514Y304010D01*
X429551Y303889D01*
X429585Y303768D01*
X429614Y303646D01*
X429640Y303523D01*
X429662Y303399D01*
X429680Y303274D01*
X429694Y303149D01*
X429704Y303024D01*
X433704Y309524D02*
X433704Y328524D01*
X417704Y328524D02*
X417704Y309524D01*
X430204Y304774D02*
X430206Y304837D01*
X430212Y304899D01*
X430222Y304961D01*
X430235Y305023D01*
X430253Y305083D01*
X430274Y305142D01*
X430299Y305200D01*
X430328Y305256D01*
X430360Y305310D01*
X430395Y305362D01*
X430433Y305411D01*
X430475Y305459D01*
X430519Y305503D01*
X430567Y305545D01*
X430616Y305583D01*
X430668Y305618D01*
X430722Y305650D01*
X430778Y305679D01*
X430836Y305704D01*
X430895Y305725D01*
X430955Y305743D01*
X431017Y305756D01*
X431079Y305766D01*
X431141Y305772D01*
X431204Y305774D01*
X431267Y305772D01*
X431329Y305766D01*
X431391Y305756D01*
X431453Y305743D01*
X431513Y305725D01*
X431572Y305704D01*
X431630Y305679D01*
X431686Y305650D01*
X431740Y305618D01*
X431792Y305583D01*
X431841Y305545D01*
X431889Y305503D01*
X431933Y305459D01*
X431975Y305411D01*
X432013Y305362D01*
X432048Y305310D01*
X432080Y305256D01*
X432109Y305200D01*
X432134Y305142D01*
X432155Y305083D01*
X432173Y305023D01*
X432186Y304961D01*
X432196Y304899D01*
X432202Y304837D01*
X432204Y304774D01*
X432202Y304711D01*
X432196Y304649D01*
X432186Y304587D01*
X432173Y304525D01*
X432155Y304465D01*
X432134Y304406D01*
X432109Y304348D01*
X432080Y304292D01*
X432048Y304238D01*
X432013Y304186D01*
X431975Y304137D01*
X431933Y304089D01*
X431889Y304045D01*
X431841Y304003D01*
X431792Y303965D01*
X431740Y303930D01*
X431686Y303898D01*
X431630Y303869D01*
X431572Y303844D01*
X431513Y303823D01*
X431453Y303805D01*
X431391Y303792D01*
X431329Y303782D01*
X431267Y303776D01*
X431204Y303774D01*
X431141Y303776D01*
X431079Y303782D01*
X431017Y303792D01*
X430955Y303805D01*
X430895Y303823D01*
X430836Y303844D01*
X430778Y303869D01*
X430722Y303898D01*
X430668Y303930D01*
X430616Y303965D01*
X430567Y304003D01*
X430519Y304045D01*
X430475Y304089D01*
X430433Y304137D01*
X430395Y304186D01*
X430360Y304238D01*
X430328Y304292D01*
X430299Y304348D01*
X430274Y304406D01*
X430253Y304465D01*
X430235Y304525D01*
X430222Y304587D01*
X430212Y304649D01*
X430206Y304711D01*
X430204Y304774D01*
D23*
X431704Y303149D03*
D24*
X433079Y305149D03*
D25*
X429579Y305649D03*
D26*
X430079Y306149D03*
D27*
X419704Y304274D03*
D28*
X420204Y306149D03*
D29*
X425704Y308024D03*
D30*
X425704Y332024D03*
D31*
X432579Y313399D03*
X418829Y313399D03*
D32*
X425704Y317274D03*
M02*
