G04 EAGLE Gerber RS-274X export*
G75*
%MOMM*%
%FSLAX34Y34*%
%LPD*%
%INSilkscreen Bottom*%
%IPPOS*%
%AMOC8*
5,1,8,0,0,1.08239X$1,22.5*%
G01*
%ADD10C,0.152400*%
%ADD11C,0.203200*%
%ADD12C,0.076200*%
%ADD13C,0.177800*%
%ADD14C,0.101600*%
%ADD15R,0.750100X1.750100*%


D10*
X115993Y305562D02*
X115993Y316738D01*
X242993Y318262D02*
X242993Y329438D01*
X420793Y304038D02*
X420793Y292862D01*
X312843Y426212D02*
X312843Y437388D01*
X312843Y457962D02*
X312843Y469138D01*
X307255Y463550D02*
X318431Y463550D01*
X420793Y335788D02*
X420793Y324612D01*
X415205Y330200D02*
X426381Y330200D01*
X242993Y350012D02*
X242993Y361188D01*
X237405Y355600D02*
X248581Y355600D01*
X115993Y348488D02*
X115993Y337312D01*
X110405Y342900D02*
X121581Y342900D01*
D11*
X120650Y330200D02*
X114300Y323850D01*
X107950Y330200D01*
X120650Y330200D01*
X241300Y336550D02*
X247650Y342900D01*
X241300Y336550D02*
X234950Y342900D01*
X247650Y342900D01*
X419100Y311150D02*
X425450Y317500D01*
X419100Y311150D02*
X412750Y317500D01*
X425450Y317500D01*
X311150Y444500D02*
X317500Y450850D01*
X311150Y444500D02*
X304800Y450850D01*
X317500Y450850D01*
X317500Y444500D02*
X304800Y444500D01*
X412750Y311150D02*
X425450Y311150D01*
X247650Y336550D02*
X234950Y336550D01*
X120650Y323850D02*
X107950Y323850D01*
D12*
X245223Y222631D02*
X247269Y222631D01*
X245223Y222631D02*
X245134Y222633D01*
X245045Y222639D01*
X244956Y222649D01*
X244868Y222662D01*
X244780Y222679D01*
X244693Y222701D01*
X244608Y222726D01*
X244523Y222754D01*
X244440Y222787D01*
X244358Y222823D01*
X244278Y222862D01*
X244200Y222905D01*
X244124Y222951D01*
X244049Y223001D01*
X243977Y223054D01*
X243908Y223110D01*
X243841Y223169D01*
X243776Y223230D01*
X243715Y223295D01*
X243656Y223362D01*
X243600Y223431D01*
X243547Y223503D01*
X243497Y223578D01*
X243451Y223654D01*
X243408Y223732D01*
X243369Y223812D01*
X243333Y223894D01*
X243300Y223977D01*
X243272Y224062D01*
X243247Y224147D01*
X243225Y224234D01*
X243208Y224322D01*
X243195Y224410D01*
X243185Y224499D01*
X243179Y224588D01*
X243177Y224677D01*
X243179Y224766D01*
X243185Y224855D01*
X243195Y224944D01*
X243208Y225032D01*
X243225Y225120D01*
X243247Y225207D01*
X243272Y225292D01*
X243300Y225377D01*
X243333Y225460D01*
X243369Y225542D01*
X243408Y225622D01*
X243451Y225700D01*
X243497Y225776D01*
X243547Y225851D01*
X243600Y225923D01*
X243656Y225992D01*
X243715Y226059D01*
X243776Y226124D01*
X243841Y226185D01*
X243908Y226244D01*
X243977Y226300D01*
X244049Y226353D01*
X244124Y226403D01*
X244200Y226449D01*
X244278Y226492D01*
X244358Y226531D01*
X244440Y226567D01*
X244523Y226600D01*
X244608Y226628D01*
X244693Y226653D01*
X244780Y226675D01*
X244868Y226692D01*
X244956Y226705D01*
X245045Y226715D01*
X245134Y226721D01*
X245223Y226723D01*
X244814Y229997D02*
X247269Y229997D01*
X244814Y229997D02*
X244735Y229995D01*
X244656Y229989D01*
X244577Y229980D01*
X244499Y229967D01*
X244422Y229949D01*
X244346Y229929D01*
X244271Y229904D01*
X244197Y229876D01*
X244124Y229845D01*
X244053Y229809D01*
X243984Y229771D01*
X243917Y229729D01*
X243852Y229684D01*
X243789Y229636D01*
X243728Y229585D01*
X243671Y229531D01*
X243615Y229475D01*
X243563Y229416D01*
X243513Y229354D01*
X243467Y229290D01*
X243423Y229224D01*
X243383Y229156D01*
X243347Y229086D01*
X243313Y229014D01*
X243283Y228940D01*
X243257Y228866D01*
X243234Y228790D01*
X243216Y228713D01*
X243200Y228636D01*
X243189Y228557D01*
X243181Y228479D01*
X243177Y228400D01*
X243177Y228320D01*
X243181Y228241D01*
X243189Y228163D01*
X243200Y228084D01*
X243216Y228007D01*
X243234Y227930D01*
X243257Y227854D01*
X243283Y227780D01*
X243313Y227706D01*
X243347Y227634D01*
X243383Y227564D01*
X243423Y227496D01*
X243467Y227430D01*
X243513Y227366D01*
X243563Y227304D01*
X243615Y227245D01*
X243671Y227189D01*
X243728Y227135D01*
X243789Y227084D01*
X243852Y227036D01*
X243917Y226991D01*
X243984Y226949D01*
X244053Y226911D01*
X244124Y226875D01*
X244197Y226844D01*
X244271Y226816D01*
X244346Y226791D01*
X244422Y226771D01*
X244499Y226753D01*
X244577Y226740D01*
X244656Y226731D01*
X244735Y226725D01*
X244814Y226723D01*
X246451Y226723D01*
X240363Y229997D02*
X237908Y222631D01*
X235452Y229997D01*
X232639Y222631D02*
X230593Y222631D01*
X230504Y222633D01*
X230415Y222639D01*
X230326Y222649D01*
X230238Y222662D01*
X230150Y222679D01*
X230063Y222701D01*
X229978Y222726D01*
X229893Y222754D01*
X229810Y222787D01*
X229728Y222823D01*
X229648Y222862D01*
X229570Y222905D01*
X229494Y222951D01*
X229419Y223001D01*
X229347Y223054D01*
X229278Y223110D01*
X229211Y223169D01*
X229146Y223230D01*
X229085Y223295D01*
X229026Y223362D01*
X228970Y223431D01*
X228917Y223503D01*
X228867Y223578D01*
X228821Y223654D01*
X228778Y223732D01*
X228739Y223812D01*
X228703Y223894D01*
X228670Y223977D01*
X228642Y224062D01*
X228617Y224147D01*
X228595Y224234D01*
X228578Y224322D01*
X228565Y224410D01*
X228555Y224499D01*
X228549Y224588D01*
X228547Y224677D01*
X228549Y224766D01*
X228555Y224855D01*
X228565Y224944D01*
X228578Y225032D01*
X228595Y225120D01*
X228617Y225207D01*
X228642Y225292D01*
X228670Y225377D01*
X228703Y225460D01*
X228739Y225542D01*
X228778Y225622D01*
X228821Y225700D01*
X228867Y225776D01*
X228917Y225851D01*
X228970Y225923D01*
X229026Y225992D01*
X229085Y226059D01*
X229146Y226124D01*
X229211Y226185D01*
X229278Y226244D01*
X229347Y226300D01*
X229419Y226353D01*
X229494Y226403D01*
X229570Y226449D01*
X229648Y226492D01*
X229728Y226531D01*
X229810Y226567D01*
X229893Y226600D01*
X229978Y226628D01*
X230063Y226653D01*
X230150Y226675D01*
X230238Y226692D01*
X230326Y226705D01*
X230415Y226715D01*
X230504Y226721D01*
X230593Y226723D01*
X230183Y229997D02*
X232639Y229997D01*
X230183Y229997D02*
X230104Y229995D01*
X230025Y229989D01*
X229946Y229980D01*
X229868Y229967D01*
X229791Y229949D01*
X229715Y229929D01*
X229640Y229904D01*
X229566Y229876D01*
X229493Y229845D01*
X229422Y229809D01*
X229353Y229771D01*
X229286Y229729D01*
X229221Y229684D01*
X229158Y229636D01*
X229097Y229585D01*
X229040Y229531D01*
X228984Y229475D01*
X228932Y229416D01*
X228882Y229354D01*
X228836Y229290D01*
X228792Y229224D01*
X228752Y229156D01*
X228716Y229086D01*
X228682Y229014D01*
X228652Y228940D01*
X228626Y228866D01*
X228603Y228790D01*
X228585Y228713D01*
X228569Y228636D01*
X228558Y228557D01*
X228550Y228479D01*
X228546Y228400D01*
X228546Y228320D01*
X228550Y228241D01*
X228558Y228163D01*
X228569Y228084D01*
X228585Y228007D01*
X228603Y227930D01*
X228626Y227854D01*
X228652Y227780D01*
X228682Y227706D01*
X228716Y227634D01*
X228752Y227564D01*
X228792Y227496D01*
X228836Y227430D01*
X228882Y227366D01*
X228932Y227304D01*
X228984Y227245D01*
X229040Y227189D01*
X229097Y227135D01*
X229158Y227084D01*
X229221Y227036D01*
X229286Y226991D01*
X229353Y226949D01*
X229422Y226911D01*
X229493Y226875D01*
X229566Y226844D01*
X229640Y226816D01*
X229715Y226791D01*
X229791Y226771D01*
X229868Y226753D01*
X229946Y226740D01*
X230025Y226731D01*
X230104Y226725D01*
X230183Y226723D01*
X231820Y226723D01*
X243177Y144173D02*
X244404Y144173D01*
X243177Y144173D02*
X243177Y140081D01*
X245632Y140081D01*
X245710Y140083D01*
X245788Y140088D01*
X245865Y140098D01*
X245942Y140111D01*
X246018Y140127D01*
X246093Y140147D01*
X246167Y140171D01*
X246240Y140198D01*
X246312Y140229D01*
X246382Y140263D01*
X246451Y140300D01*
X246517Y140341D01*
X246582Y140385D01*
X246644Y140431D01*
X246704Y140481D01*
X246762Y140533D01*
X246817Y140588D01*
X246869Y140646D01*
X246919Y140706D01*
X246965Y140768D01*
X247009Y140833D01*
X247050Y140900D01*
X247087Y140968D01*
X247121Y141038D01*
X247152Y141110D01*
X247179Y141183D01*
X247203Y141257D01*
X247223Y141332D01*
X247239Y141408D01*
X247252Y141485D01*
X247262Y141562D01*
X247267Y141640D01*
X247269Y141718D01*
X247269Y145810D01*
X247267Y145888D01*
X247262Y145966D01*
X247252Y146043D01*
X247239Y146120D01*
X247223Y146196D01*
X247203Y146271D01*
X247179Y146345D01*
X247152Y146418D01*
X247121Y146490D01*
X247087Y146560D01*
X247050Y146629D01*
X247009Y146695D01*
X246965Y146760D01*
X246919Y146822D01*
X246869Y146882D01*
X246817Y146940D01*
X246762Y146995D01*
X246704Y147047D01*
X246644Y147097D01*
X246582Y147143D01*
X246517Y147187D01*
X246451Y147228D01*
X246382Y147265D01*
X246312Y147299D01*
X246240Y147330D01*
X246167Y147357D01*
X246093Y147381D01*
X246018Y147401D01*
X245942Y147417D01*
X245865Y147430D01*
X245788Y147440D01*
X245710Y147445D01*
X245632Y147447D01*
X243177Y147447D01*
X239466Y147447D02*
X239466Y140081D01*
X235374Y140081D02*
X239466Y147447D01*
X235374Y147447D02*
X235374Y140081D01*
X231663Y140081D02*
X231663Y147447D01*
X229617Y147447D01*
X229528Y147445D01*
X229439Y147439D01*
X229350Y147429D01*
X229262Y147416D01*
X229174Y147399D01*
X229087Y147377D01*
X229002Y147352D01*
X228917Y147324D01*
X228834Y147291D01*
X228752Y147255D01*
X228672Y147216D01*
X228594Y147173D01*
X228518Y147127D01*
X228443Y147077D01*
X228371Y147024D01*
X228302Y146968D01*
X228235Y146909D01*
X228170Y146848D01*
X228109Y146783D01*
X228050Y146716D01*
X227994Y146647D01*
X227941Y146575D01*
X227891Y146500D01*
X227845Y146424D01*
X227802Y146346D01*
X227763Y146266D01*
X227727Y146184D01*
X227694Y146101D01*
X227666Y146016D01*
X227641Y145931D01*
X227619Y145844D01*
X227602Y145756D01*
X227589Y145668D01*
X227579Y145579D01*
X227573Y145490D01*
X227571Y145401D01*
X227571Y142127D01*
X227573Y142038D01*
X227579Y141949D01*
X227589Y141860D01*
X227602Y141772D01*
X227619Y141684D01*
X227641Y141597D01*
X227666Y141512D01*
X227694Y141427D01*
X227727Y141344D01*
X227763Y141262D01*
X227802Y141182D01*
X227845Y141104D01*
X227891Y141028D01*
X227941Y140953D01*
X227994Y140881D01*
X228050Y140812D01*
X228109Y140745D01*
X228170Y140680D01*
X228235Y140619D01*
X228302Y140560D01*
X228371Y140504D01*
X228443Y140451D01*
X228518Y140401D01*
X228594Y140355D01*
X228672Y140312D01*
X228752Y140273D01*
X228834Y140237D01*
X228917Y140204D01*
X229002Y140176D01*
X229087Y140151D01*
X229174Y140129D01*
X229262Y140112D01*
X229350Y140099D01*
X229439Y140089D01*
X229528Y140083D01*
X229617Y140081D01*
X231663Y140081D01*
D13*
X392979Y369330D02*
X396375Y388591D01*
X382278Y371217D01*
X385675Y390477D01*
X376923Y386504D02*
X375413Y377944D01*
X376922Y386504D02*
X376946Y386648D01*
X376965Y386792D01*
X376981Y386937D01*
X376993Y387083D01*
X377001Y387228D01*
X377005Y387374D01*
X377005Y387520D01*
X377001Y387666D01*
X376993Y387811D01*
X376981Y387957D01*
X376965Y388102D01*
X376946Y388246D01*
X376922Y388390D01*
X376895Y388534D01*
X376864Y388676D01*
X376829Y388818D01*
X376790Y388959D01*
X376748Y389098D01*
X376702Y389236D01*
X376652Y389374D01*
X376598Y389509D01*
X376541Y389643D01*
X376480Y389776D01*
X376416Y389907D01*
X376348Y390036D01*
X376277Y390163D01*
X376202Y390289D01*
X376125Y390412D01*
X376043Y390533D01*
X375959Y390652D01*
X375871Y390769D01*
X375780Y390883D01*
X375687Y390995D01*
X375590Y391104D01*
X375490Y391211D01*
X375388Y391314D01*
X375283Y391415D01*
X375175Y391514D01*
X375064Y391609D01*
X374951Y391701D01*
X374836Y391790D01*
X374718Y391876D01*
X374598Y391959D01*
X374476Y392039D01*
X374351Y392115D01*
X374225Y392188D01*
X374097Y392258D01*
X373967Y392324D01*
X373835Y392386D01*
X373702Y392445D01*
X373567Y392501D01*
X373430Y392552D01*
X373292Y392600D01*
X373153Y392645D01*
X373013Y392685D01*
X372872Y392722D01*
X372730Y392755D01*
X372587Y392784D01*
X372444Y392810D01*
X372299Y392831D01*
X372154Y392849D01*
X372009Y392862D01*
X371864Y392872D01*
X371718Y392878D01*
X371572Y392880D01*
X371426Y392878D01*
X371280Y392872D01*
X371135Y392862D01*
X370990Y392849D01*
X370845Y392831D01*
X370700Y392810D01*
X370557Y392784D01*
X370414Y392755D01*
X370272Y392722D01*
X370131Y392685D01*
X369991Y392645D01*
X369852Y392600D01*
X369714Y392552D01*
X369577Y392501D01*
X369442Y392445D01*
X369309Y392386D01*
X369177Y392324D01*
X369047Y392258D01*
X368919Y392188D01*
X368793Y392115D01*
X368668Y392039D01*
X368546Y391959D01*
X368426Y391876D01*
X368308Y391790D01*
X368193Y391701D01*
X368080Y391609D01*
X367969Y391514D01*
X367861Y391415D01*
X367756Y391314D01*
X367654Y391211D01*
X367554Y391104D01*
X367457Y390995D01*
X367364Y390883D01*
X367273Y390769D01*
X367185Y390652D01*
X367101Y390533D01*
X367019Y390412D01*
X366942Y390289D01*
X366867Y390163D01*
X366796Y390036D01*
X366728Y389907D01*
X366664Y389776D01*
X366603Y389643D01*
X366546Y389509D01*
X366492Y389374D01*
X366442Y389236D01*
X366396Y389098D01*
X366354Y388959D01*
X366315Y388818D01*
X366280Y388676D01*
X366249Y388534D01*
X366222Y388390D01*
X366222Y388391D02*
X364713Y379830D01*
X364689Y379686D01*
X364670Y379542D01*
X364654Y379397D01*
X364642Y379251D01*
X364634Y379106D01*
X364630Y378960D01*
X364630Y378814D01*
X364634Y378668D01*
X364642Y378523D01*
X364654Y378377D01*
X364670Y378232D01*
X364689Y378088D01*
X364713Y377944D01*
X364740Y377800D01*
X364771Y377658D01*
X364806Y377516D01*
X364845Y377375D01*
X364887Y377236D01*
X364933Y377098D01*
X364983Y376960D01*
X365037Y376825D01*
X365094Y376691D01*
X365155Y376558D01*
X365219Y376427D01*
X365287Y376298D01*
X365358Y376171D01*
X365433Y376045D01*
X365510Y375922D01*
X365592Y375801D01*
X365676Y375682D01*
X365764Y375565D01*
X365855Y375451D01*
X365948Y375339D01*
X366045Y375230D01*
X366145Y375123D01*
X366247Y375020D01*
X366352Y374919D01*
X366460Y374820D01*
X366571Y374725D01*
X366684Y374633D01*
X366799Y374544D01*
X366917Y374458D01*
X367037Y374375D01*
X367159Y374295D01*
X367284Y374219D01*
X367410Y374146D01*
X367538Y374076D01*
X367668Y374010D01*
X367800Y373948D01*
X367933Y373889D01*
X368068Y373833D01*
X368205Y373782D01*
X368343Y373734D01*
X368482Y373689D01*
X368622Y373649D01*
X368763Y373612D01*
X368905Y373579D01*
X369048Y373550D01*
X369191Y373524D01*
X369336Y373503D01*
X369481Y373485D01*
X369626Y373472D01*
X369771Y373462D01*
X369917Y373456D01*
X370063Y373454D01*
X370209Y373456D01*
X370355Y373462D01*
X370500Y373472D01*
X370645Y373485D01*
X370790Y373503D01*
X370935Y373524D01*
X371078Y373550D01*
X371221Y373579D01*
X371363Y373612D01*
X371504Y373649D01*
X371644Y373689D01*
X371783Y373734D01*
X371921Y373782D01*
X372058Y373833D01*
X372193Y373889D01*
X372326Y373948D01*
X372458Y374010D01*
X372588Y374076D01*
X372716Y374146D01*
X372842Y374219D01*
X372967Y374295D01*
X373089Y374375D01*
X373209Y374458D01*
X373327Y374544D01*
X373442Y374633D01*
X373555Y374725D01*
X373666Y374820D01*
X373774Y374919D01*
X373879Y375020D01*
X373981Y375123D01*
X374081Y375230D01*
X374178Y375339D01*
X374271Y375451D01*
X374362Y375565D01*
X374450Y375682D01*
X374534Y375801D01*
X374616Y375922D01*
X374693Y376045D01*
X374768Y376171D01*
X374839Y376298D01*
X374907Y376427D01*
X374971Y376558D01*
X375032Y376691D01*
X375089Y376825D01*
X375143Y376960D01*
X375193Y377098D01*
X375239Y377236D01*
X375281Y377375D01*
X375320Y377516D01*
X375355Y377658D01*
X375386Y377800D01*
X375413Y377944D01*
X355878Y375872D02*
X359274Y395133D01*
X353924Y396076D01*
X353923Y396076D02*
X353779Y396100D01*
X353635Y396119D01*
X353490Y396135D01*
X353344Y396147D01*
X353199Y396155D01*
X353053Y396159D01*
X352907Y396159D01*
X352761Y396155D01*
X352616Y396147D01*
X352470Y396135D01*
X352325Y396119D01*
X352181Y396100D01*
X352037Y396076D01*
X351893Y396049D01*
X351751Y396018D01*
X351609Y395983D01*
X351468Y395944D01*
X351329Y395902D01*
X351191Y395856D01*
X351053Y395806D01*
X350918Y395752D01*
X350784Y395695D01*
X350651Y395634D01*
X350520Y395570D01*
X350391Y395502D01*
X350264Y395431D01*
X350138Y395356D01*
X350015Y395279D01*
X349894Y395197D01*
X349775Y395113D01*
X349658Y395025D01*
X349544Y394934D01*
X349432Y394841D01*
X349323Y394744D01*
X349216Y394644D01*
X349113Y394542D01*
X349012Y394437D01*
X348913Y394329D01*
X348818Y394218D01*
X348726Y394105D01*
X348637Y393990D01*
X348551Y393872D01*
X348468Y393752D01*
X348388Y393630D01*
X348312Y393505D01*
X348239Y393379D01*
X348169Y393251D01*
X348103Y393121D01*
X348041Y392989D01*
X347982Y392856D01*
X347926Y392721D01*
X347875Y392584D01*
X347827Y392446D01*
X347782Y392307D01*
X347742Y392167D01*
X347705Y392026D01*
X347672Y391884D01*
X347643Y391741D01*
X347617Y391598D01*
X347596Y391453D01*
X347578Y391308D01*
X347565Y391163D01*
X347555Y391018D01*
X347549Y390872D01*
X347547Y390726D01*
X347549Y390580D01*
X347555Y390434D01*
X347565Y390289D01*
X347578Y390144D01*
X347596Y389999D01*
X347617Y389854D01*
X347643Y389711D01*
X347672Y389568D01*
X347705Y389426D01*
X347742Y389285D01*
X347782Y389145D01*
X347827Y389006D01*
X347875Y388868D01*
X347926Y388731D01*
X347982Y388596D01*
X348041Y388463D01*
X348103Y388331D01*
X348169Y388201D01*
X348239Y388073D01*
X348312Y387947D01*
X348388Y387822D01*
X348468Y387700D01*
X348551Y387580D01*
X348637Y387462D01*
X348726Y387347D01*
X348818Y387234D01*
X348913Y387123D01*
X349012Y387015D01*
X349113Y386910D01*
X349216Y386808D01*
X349323Y386708D01*
X349432Y386611D01*
X349544Y386518D01*
X349658Y386427D01*
X349775Y386339D01*
X349894Y386255D01*
X350015Y386173D01*
X350138Y386096D01*
X350264Y386021D01*
X350391Y385950D01*
X350520Y385882D01*
X350651Y385818D01*
X350784Y385757D01*
X350918Y385700D01*
X351053Y385646D01*
X351191Y385596D01*
X351329Y385550D01*
X351468Y385508D01*
X351609Y385469D01*
X351751Y385434D01*
X351893Y385403D01*
X352037Y385376D01*
X352037Y385375D02*
X357387Y384432D01*
X350967Y385564D02*
X345177Y377758D01*
X333892Y379748D02*
X337289Y399009D01*
X342639Y398066D02*
X331938Y399952D01*
X325324Y401119D02*
X321928Y381858D01*
X323814Y392558D02*
X313114Y394445D01*
X314623Y403006D02*
X311227Y383745D01*
X297595Y386149D02*
X297466Y386174D01*
X297338Y386202D01*
X297211Y386235D01*
X297085Y386271D01*
X296960Y386311D01*
X296836Y386355D01*
X296714Y386403D01*
X296593Y386454D01*
X296474Y386509D01*
X296356Y386567D01*
X296240Y386629D01*
X296127Y386695D01*
X296015Y386764D01*
X295905Y386836D01*
X295798Y386911D01*
X295693Y386990D01*
X295590Y387072D01*
X295490Y387157D01*
X295392Y387245D01*
X295298Y387335D01*
X295206Y387429D01*
X295116Y387525D01*
X295030Y387624D01*
X294947Y387726D01*
X294867Y387830D01*
X294790Y387936D01*
X294716Y388045D01*
X294646Y388156D01*
X294579Y388269D01*
X294515Y388384D01*
X294455Y388500D01*
X294399Y388619D01*
X294346Y388739D01*
X294297Y388861D01*
X294251Y388984D01*
X294210Y389108D01*
X294172Y389234D01*
X294137Y389361D01*
X294107Y389488D01*
X294081Y389617D01*
X294058Y389746D01*
X294039Y389876D01*
X294025Y390007D01*
X294014Y390137D01*
X294007Y390269D01*
X294004Y390400D01*
X294005Y390531D01*
X294010Y390662D01*
X294019Y390793D01*
X294032Y390924D01*
X294049Y391054D01*
X294070Y391184D01*
X297596Y386149D02*
X297812Y386113D01*
X298030Y386083D01*
X298248Y386057D01*
X298467Y386038D01*
X298686Y386023D01*
X298906Y386013D01*
X299125Y386009D01*
X299345Y386010D01*
X299564Y386017D01*
X299784Y386028D01*
X300003Y386045D01*
X300221Y386067D01*
X300439Y386094D01*
X300657Y386127D01*
X300873Y386165D01*
X301089Y386207D01*
X301303Y386255D01*
X301516Y386309D01*
X301728Y386367D01*
X301938Y386430D01*
X302147Y386498D01*
X302354Y386571D01*
X302559Y386650D01*
X302763Y386733D01*
X302964Y386821D01*
X303163Y386913D01*
X303360Y387011D01*
X303555Y387113D01*
X303747Y387220D01*
X303936Y387331D01*
X304123Y387447D01*
X304307Y387567D01*
X304488Y387692D01*
X306122Y400091D02*
X306143Y400221D01*
X306160Y400351D01*
X306173Y400482D01*
X306182Y400613D01*
X306187Y400744D01*
X306188Y400875D01*
X306185Y401006D01*
X306178Y401138D01*
X306167Y401268D01*
X306153Y401399D01*
X306134Y401529D01*
X306111Y401658D01*
X306085Y401787D01*
X306055Y401914D01*
X306020Y402041D01*
X305982Y402167D01*
X305941Y402291D01*
X305895Y402414D01*
X305846Y402536D01*
X305793Y402656D01*
X305737Y402775D01*
X305677Y402891D01*
X305613Y403006D01*
X305546Y403119D01*
X305476Y403230D01*
X305402Y403339D01*
X305325Y403445D01*
X305245Y403549D01*
X305162Y403651D01*
X305076Y403750D01*
X304986Y403846D01*
X304894Y403940D01*
X304800Y404030D01*
X304702Y404118D01*
X304602Y404203D01*
X304499Y404285D01*
X304394Y404364D01*
X304287Y404439D01*
X304177Y404511D01*
X304065Y404580D01*
X303952Y404646D01*
X303836Y404708D01*
X303718Y404766D01*
X303599Y404821D01*
X303478Y404872D01*
X303356Y404920D01*
X303232Y404964D01*
X303107Y405004D01*
X302981Y405040D01*
X302854Y405073D01*
X302726Y405101D01*
X302597Y405126D01*
X302596Y405126D02*
X302405Y405158D01*
X302212Y405184D01*
X302019Y405207D01*
X301826Y405224D01*
X301632Y405238D01*
X301438Y405246D01*
X301244Y405250D01*
X301050Y405249D01*
X300855Y405243D01*
X300661Y405233D01*
X300468Y405219D01*
X300275Y405199D01*
X300082Y405176D01*
X299890Y405147D01*
X299698Y405114D01*
X299508Y405076D01*
X299318Y405034D01*
X299130Y404988D01*
X298942Y404936D01*
X298756Y404881D01*
X298571Y404821D01*
X298388Y404756D01*
X298206Y404688D01*
X298027Y404615D01*
X297848Y404537D01*
X297672Y404456D01*
X297498Y404370D01*
X303322Y396724D02*
X303444Y396772D01*
X303564Y396823D01*
X303683Y396878D01*
X303800Y396936D01*
X303916Y396998D01*
X304029Y397063D01*
X304141Y397131D01*
X304250Y397203D01*
X304358Y397278D01*
X304463Y397356D01*
X304565Y397438D01*
X304665Y397522D01*
X304763Y397609D01*
X304858Y397699D01*
X304950Y397792D01*
X305040Y397888D01*
X305127Y397986D01*
X305210Y398086D01*
X305291Y398190D01*
X305369Y398295D01*
X305443Y398403D01*
X305514Y398513D01*
X305582Y398625D01*
X305647Y398739D01*
X305708Y398854D01*
X305766Y398972D01*
X305820Y399091D01*
X305871Y399212D01*
X305918Y399334D01*
X305961Y399458D01*
X306001Y399582D01*
X306037Y399708D01*
X306069Y399835D01*
X306097Y399963D01*
X306122Y400092D01*
X296870Y394551D02*
X296748Y394503D01*
X296628Y394452D01*
X296509Y394397D01*
X296392Y394339D01*
X296276Y394277D01*
X296163Y394212D01*
X296051Y394144D01*
X295942Y394072D01*
X295835Y393997D01*
X295729Y393919D01*
X295627Y393837D01*
X295527Y393753D01*
X295429Y393666D01*
X295334Y393576D01*
X295242Y393483D01*
X295152Y393387D01*
X295065Y393289D01*
X294982Y393189D01*
X294901Y393085D01*
X294823Y392980D01*
X294749Y392872D01*
X294678Y392762D01*
X294610Y392650D01*
X294545Y392536D01*
X294484Y392421D01*
X294426Y392303D01*
X294372Y392184D01*
X294321Y392063D01*
X294274Y391941D01*
X294231Y391817D01*
X294191Y391693D01*
X294155Y391567D01*
X294123Y391440D01*
X294095Y391312D01*
X294070Y391184D01*
X296870Y394551D02*
X303321Y396723D01*
X286074Y388180D02*
X277514Y389689D01*
X286074Y388180D02*
X289470Y407441D01*
X280910Y408950D01*
X281541Y400012D02*
X287961Y398880D01*
X266930Y391555D02*
X262650Y392310D01*
X266930Y391555D02*
X267057Y391535D01*
X267185Y391518D01*
X267313Y391505D01*
X267442Y391496D01*
X267571Y391491D01*
X267699Y391489D01*
X267828Y391491D01*
X267957Y391498D01*
X268085Y391507D01*
X268213Y391521D01*
X268341Y391539D01*
X268468Y391560D01*
X268594Y391585D01*
X268720Y391614D01*
X268844Y391646D01*
X268968Y391683D01*
X269090Y391723D01*
X269212Y391766D01*
X269332Y391813D01*
X269450Y391864D01*
X269567Y391918D01*
X269682Y391975D01*
X269796Y392036D01*
X269907Y392100D01*
X270017Y392168D01*
X270125Y392238D01*
X270230Y392312D01*
X270334Y392389D01*
X270434Y392469D01*
X270533Y392552D01*
X270629Y392638D01*
X270722Y392727D01*
X270813Y392818D01*
X270901Y392912D01*
X270986Y393009D01*
X271069Y393108D01*
X271148Y393209D01*
X271224Y393313D01*
X271298Y393419D01*
X271368Y393527D01*
X271434Y393637D01*
X271498Y393749D01*
X271558Y393863D01*
X271615Y393979D01*
X271668Y394096D01*
X271718Y394215D01*
X271764Y394335D01*
X271807Y394457D01*
X271846Y394579D01*
X271881Y394703D01*
X271913Y394828D01*
X271941Y394954D01*
X271965Y395080D01*
X271965Y395081D02*
X273852Y405781D01*
X273851Y405781D02*
X273872Y405911D01*
X273889Y406041D01*
X273902Y406172D01*
X273911Y406303D01*
X273916Y406434D01*
X273917Y406565D01*
X273914Y406696D01*
X273907Y406828D01*
X273896Y406958D01*
X273882Y407089D01*
X273863Y407219D01*
X273840Y407348D01*
X273814Y407477D01*
X273784Y407604D01*
X273749Y407731D01*
X273711Y407857D01*
X273670Y407981D01*
X273624Y408104D01*
X273575Y408226D01*
X273522Y408346D01*
X273466Y408465D01*
X273406Y408581D01*
X273342Y408696D01*
X273275Y408809D01*
X273205Y408920D01*
X273131Y409029D01*
X273054Y409135D01*
X272974Y409239D01*
X272891Y409341D01*
X272805Y409440D01*
X272715Y409536D01*
X272623Y409630D01*
X272529Y409720D01*
X272431Y409808D01*
X272331Y409893D01*
X272228Y409975D01*
X272123Y410054D01*
X272016Y410129D01*
X271906Y410201D01*
X271794Y410270D01*
X271681Y410336D01*
X271565Y410398D01*
X271447Y410456D01*
X271328Y410511D01*
X271207Y410562D01*
X271085Y410610D01*
X270961Y410654D01*
X270836Y410694D01*
X270710Y410730D01*
X270583Y410763D01*
X270455Y410791D01*
X270326Y410816D01*
X266046Y411571D01*
X244208Y415422D02*
X244070Y415444D01*
X243932Y415462D01*
X243793Y415477D01*
X243654Y415487D01*
X243514Y415494D01*
X243374Y415496D01*
X243235Y415494D01*
X243095Y415489D01*
X242956Y415479D01*
X242817Y415466D01*
X242678Y415448D01*
X242540Y415427D01*
X242403Y415402D01*
X242267Y415372D01*
X242131Y415339D01*
X241996Y415302D01*
X241863Y415261D01*
X241730Y415217D01*
X241599Y415168D01*
X241470Y415116D01*
X241342Y415061D01*
X241215Y415001D01*
X241091Y414938D01*
X240968Y414872D01*
X240847Y414802D01*
X240728Y414728D01*
X240612Y414651D01*
X240497Y414571D01*
X240385Y414488D01*
X240276Y414401D01*
X240168Y414312D01*
X240064Y414219D01*
X239962Y414124D01*
X239863Y414025D01*
X239767Y413924D01*
X239674Y413820D01*
X239583Y413713D01*
X239496Y413604D01*
X239412Y413493D01*
X239331Y413379D01*
X239254Y413263D01*
X239179Y413144D01*
X239109Y413024D01*
X239041Y412902D01*
X238978Y412778D01*
X238917Y412652D01*
X238861Y412524D01*
X238808Y412395D01*
X238759Y412264D01*
X238713Y412132D01*
X238671Y411999D01*
X238634Y411864D01*
X238600Y411729D01*
X238570Y411592D01*
X238543Y411455D01*
X244208Y415422D02*
X244360Y415393D01*
X244511Y415360D01*
X244662Y415324D01*
X244812Y415284D01*
X244960Y415240D01*
X245108Y415193D01*
X245254Y415142D01*
X245399Y415088D01*
X245543Y415030D01*
X245685Y414968D01*
X245826Y414903D01*
X245964Y414835D01*
X246102Y414763D01*
X246237Y414687D01*
X246371Y414609D01*
X246502Y414527D01*
X246632Y414442D01*
X246759Y414354D01*
X246884Y414262D01*
X247007Y414168D01*
X247127Y414070D01*
X247245Y413970D01*
X247361Y413867D01*
X247474Y413761D01*
X247584Y413652D01*
X247691Y413541D01*
X247796Y413426D01*
X247898Y413310D01*
X247997Y413191D01*
X248093Y413069D01*
X248186Y412945D01*
X248276Y412819D01*
X248363Y412691D01*
X248447Y412560D01*
X248527Y412428D01*
X248604Y412294D01*
X248678Y412157D01*
X248748Y412019D01*
X248815Y411880D01*
X248879Y411738D01*
X248939Y411596D01*
X248995Y411451D01*
X249048Y411306D01*
X249097Y411159D01*
X249143Y411011D01*
X249185Y410862D01*
X249223Y410712D01*
X249258Y410561D01*
X249288Y410409D01*
X249315Y410256D01*
X249339Y410103D01*
X239488Y407427D02*
X239406Y407542D01*
X239326Y407659D01*
X239250Y407779D01*
X239177Y407900D01*
X239108Y408024D01*
X239041Y408149D01*
X238978Y408276D01*
X238919Y408405D01*
X238863Y408535D01*
X238811Y408667D01*
X238762Y408800D01*
X238716Y408934D01*
X238675Y409070D01*
X238637Y409206D01*
X238603Y409344D01*
X238572Y409482D01*
X238545Y409622D01*
X238522Y409761D01*
X238503Y409902D01*
X238488Y410043D01*
X238476Y410184D01*
X238469Y410326D01*
X238465Y410467D01*
X238464Y410609D01*
X238468Y410751D01*
X238476Y410892D01*
X238487Y411034D01*
X238502Y411175D01*
X238521Y411315D01*
X238544Y411455D01*
X239488Y407427D02*
X246697Y395123D01*
X235996Y397010D01*
X230483Y407911D02*
X230545Y408291D01*
X230599Y408672D01*
X230643Y409054D01*
X230678Y409437D01*
X230703Y409821D01*
X230720Y410206D01*
X230728Y410590D01*
X230726Y410975D01*
X230715Y411360D01*
X230695Y411744D01*
X230666Y412128D01*
X230627Y412511D01*
X230580Y412892D01*
X230523Y413273D01*
X230457Y413652D01*
X230382Y414030D01*
X230299Y414405D01*
X230206Y414779D01*
X230104Y415150D01*
X230083Y415272D01*
X230058Y415395D01*
X230029Y415516D01*
X229997Y415636D01*
X229960Y415755D01*
X229920Y415874D01*
X229877Y415990D01*
X229830Y416106D01*
X229779Y416220D01*
X229725Y416332D01*
X229667Y416442D01*
X229606Y416551D01*
X229541Y416658D01*
X229474Y416762D01*
X229403Y416865D01*
X229328Y416965D01*
X229251Y417063D01*
X229171Y417158D01*
X229088Y417251D01*
X229002Y417342D01*
X228913Y417429D01*
X228822Y417514D01*
X228728Y417596D01*
X228632Y417675D01*
X228533Y417751D01*
X228432Y417824D01*
X228328Y417894D01*
X228223Y417960D01*
X228115Y418023D01*
X228006Y418083D01*
X227895Y418139D01*
X227782Y418192D01*
X227667Y418242D01*
X227551Y418287D01*
X227434Y418330D01*
X227316Y418368D01*
X227196Y418403D01*
X227075Y418434D01*
X226953Y418461D01*
X226831Y418485D01*
X226708Y418505D01*
X226584Y418521D01*
X226460Y418533D01*
X226336Y418541D01*
X226211Y418545D01*
X226087Y418546D01*
X225962Y418542D01*
X225838Y418535D01*
X225713Y418524D01*
X225590Y418509D01*
X225466Y418490D01*
X225344Y418468D01*
X225222Y418441D01*
X225101Y418411D01*
X224981Y418377D01*
X224862Y418340D01*
X224744Y418299D01*
X224628Y418254D01*
X224513Y418205D01*
X224400Y418153D01*
X224288Y418098D01*
X224178Y418039D01*
X224070Y417977D01*
X223964Y417911D01*
X223861Y417842D01*
X223759Y417770D01*
X223659Y417695D01*
X223562Y417617D01*
X223468Y417535D01*
X223376Y417451D01*
X223286Y417364D01*
X223200Y417275D01*
X223116Y417182D01*
X223035Y417088D01*
X222957Y416990D01*
X222882Y416891D01*
X222810Y416789D01*
X222742Y416685D01*
X222676Y416578D01*
X222614Y416470D01*
X222613Y416470D02*
X222391Y416156D01*
X222176Y415837D01*
X221969Y415513D01*
X221770Y415184D01*
X221578Y414850D01*
X221395Y414512D01*
X221220Y414169D01*
X221053Y413823D01*
X220894Y413472D01*
X220744Y413118D01*
X220602Y412760D01*
X220469Y412399D01*
X220344Y412035D01*
X220228Y411668D01*
X220121Y411299D01*
X220023Y410927D01*
X219934Y410552D01*
X219853Y410176D01*
X219782Y409798D01*
X230482Y407912D02*
X230411Y407534D01*
X230331Y407157D01*
X230241Y406783D01*
X230143Y406411D01*
X230036Y406042D01*
X229920Y405675D01*
X229796Y405311D01*
X229662Y404950D01*
X229521Y404592D01*
X229370Y404238D01*
X229212Y403887D01*
X229045Y403541D01*
X228869Y403198D01*
X228686Y402860D01*
X228494Y402526D01*
X228295Y402197D01*
X228088Y401873D01*
X227873Y401554D01*
X227651Y401240D01*
X227652Y401240D02*
X227590Y401132D01*
X227524Y401025D01*
X227456Y400921D01*
X227384Y400819D01*
X227309Y400720D01*
X227231Y400622D01*
X227150Y400527D01*
X227066Y400435D01*
X226980Y400346D01*
X226890Y400259D01*
X226798Y400175D01*
X226704Y400093D01*
X226607Y400015D01*
X226507Y399940D01*
X226405Y399868D01*
X226302Y399799D01*
X226196Y399733D01*
X226088Y399671D01*
X225978Y399612D01*
X225866Y399557D01*
X225753Y399505D01*
X225638Y399456D01*
X225522Y399411D01*
X225404Y399370D01*
X225285Y399333D01*
X225165Y399299D01*
X225044Y399269D01*
X224922Y399242D01*
X224800Y399220D01*
X224676Y399201D01*
X224553Y399186D01*
X224428Y399175D01*
X224304Y399168D01*
X224179Y399164D01*
X224055Y399165D01*
X223930Y399169D01*
X223806Y399177D01*
X223682Y399189D01*
X223558Y399205D01*
X223435Y399225D01*
X220161Y402560D02*
X220059Y402931D01*
X219966Y403305D01*
X219883Y403680D01*
X219808Y404058D01*
X219742Y404437D01*
X219685Y404818D01*
X219638Y405199D01*
X219599Y405582D01*
X219570Y405966D01*
X219550Y406350D01*
X219539Y406735D01*
X219537Y407120D01*
X219545Y407504D01*
X219562Y407889D01*
X219587Y408273D01*
X219622Y408656D01*
X219666Y409038D01*
X219720Y409419D01*
X219782Y409799D01*
X220162Y402560D02*
X220183Y402437D01*
X220208Y402315D01*
X220237Y402194D01*
X220269Y402074D01*
X220306Y401954D01*
X220346Y401836D01*
X220389Y401720D01*
X220436Y401604D01*
X220487Y401490D01*
X220541Y401378D01*
X220599Y401268D01*
X220660Y401159D01*
X220725Y401052D01*
X220793Y400948D01*
X220863Y400845D01*
X220938Y400745D01*
X221015Y400647D01*
X221095Y400551D01*
X221178Y400459D01*
X221264Y400368D01*
X221353Y400281D01*
X221444Y400196D01*
X221538Y400114D01*
X221634Y400035D01*
X221733Y399959D01*
X221834Y399886D01*
X221938Y399816D01*
X222043Y399750D01*
X222151Y399687D01*
X222260Y399627D01*
X222371Y399571D01*
X222484Y399518D01*
X222599Y399468D01*
X222715Y399423D01*
X222832Y399380D01*
X222950Y399342D01*
X223070Y399307D01*
X223191Y399276D01*
X223312Y399249D01*
X223435Y399225D01*
X228469Y402750D02*
X221796Y414960D01*
X208384Y421739D02*
X208246Y421761D01*
X208108Y421779D01*
X207969Y421794D01*
X207830Y421804D01*
X207690Y421811D01*
X207550Y421813D01*
X207411Y421811D01*
X207271Y421806D01*
X207132Y421796D01*
X206993Y421783D01*
X206854Y421765D01*
X206716Y421744D01*
X206579Y421719D01*
X206443Y421689D01*
X206307Y421656D01*
X206172Y421619D01*
X206039Y421578D01*
X205906Y421534D01*
X205775Y421485D01*
X205646Y421433D01*
X205518Y421378D01*
X205391Y421318D01*
X205267Y421255D01*
X205144Y421189D01*
X205023Y421119D01*
X204904Y421045D01*
X204788Y420968D01*
X204673Y420888D01*
X204561Y420805D01*
X204452Y420718D01*
X204344Y420629D01*
X204240Y420536D01*
X204138Y420441D01*
X204039Y420342D01*
X203943Y420241D01*
X203850Y420137D01*
X203759Y420030D01*
X203672Y419921D01*
X203588Y419810D01*
X203507Y419696D01*
X203430Y419580D01*
X203355Y419461D01*
X203285Y419341D01*
X203217Y419219D01*
X203154Y419095D01*
X203093Y418969D01*
X203037Y418841D01*
X202984Y418712D01*
X202935Y418581D01*
X202889Y418449D01*
X202847Y418316D01*
X202810Y418181D01*
X202776Y418046D01*
X202746Y417909D01*
X202719Y417772D01*
X208384Y421739D02*
X208536Y421710D01*
X208687Y421677D01*
X208838Y421641D01*
X208988Y421601D01*
X209136Y421557D01*
X209284Y421510D01*
X209430Y421459D01*
X209575Y421405D01*
X209719Y421347D01*
X209861Y421285D01*
X210002Y421220D01*
X210140Y421152D01*
X210278Y421080D01*
X210413Y421004D01*
X210547Y420926D01*
X210678Y420844D01*
X210808Y420759D01*
X210935Y420671D01*
X211060Y420579D01*
X211183Y420485D01*
X211303Y420387D01*
X211421Y420287D01*
X211537Y420184D01*
X211650Y420078D01*
X211760Y419969D01*
X211867Y419858D01*
X211972Y419743D01*
X212074Y419627D01*
X212173Y419508D01*
X212269Y419386D01*
X212362Y419262D01*
X212452Y419136D01*
X212539Y419008D01*
X212623Y418877D01*
X212703Y418745D01*
X212780Y418611D01*
X212854Y418474D01*
X212924Y418336D01*
X212991Y418197D01*
X213055Y418055D01*
X213115Y417913D01*
X213171Y417768D01*
X213224Y417623D01*
X213273Y417476D01*
X213319Y417328D01*
X213361Y417179D01*
X213399Y417029D01*
X213434Y416878D01*
X213464Y416726D01*
X213491Y416573D01*
X213515Y416420D01*
X203664Y413744D02*
X203582Y413859D01*
X203502Y413976D01*
X203426Y414096D01*
X203353Y414217D01*
X203284Y414341D01*
X203217Y414466D01*
X203154Y414593D01*
X203095Y414722D01*
X203039Y414852D01*
X202987Y414984D01*
X202938Y415117D01*
X202892Y415251D01*
X202851Y415387D01*
X202813Y415523D01*
X202779Y415661D01*
X202748Y415799D01*
X202721Y415939D01*
X202698Y416078D01*
X202679Y416219D01*
X202664Y416360D01*
X202652Y416501D01*
X202645Y416643D01*
X202641Y416784D01*
X202640Y416926D01*
X202644Y417068D01*
X202652Y417209D01*
X202663Y417351D01*
X202678Y417492D01*
X202697Y417632D01*
X202720Y417772D01*
X203664Y413744D02*
X210873Y401440D01*
X200172Y403326D01*
X184806Y420930D02*
X184833Y421067D01*
X184863Y421204D01*
X184897Y421339D01*
X184934Y421474D01*
X184976Y421607D01*
X185022Y421739D01*
X185071Y421870D01*
X185124Y421999D01*
X185180Y422127D01*
X185241Y422253D01*
X185304Y422377D01*
X185372Y422499D01*
X185442Y422619D01*
X185517Y422738D01*
X185594Y422854D01*
X185675Y422968D01*
X185759Y423079D01*
X185846Y423188D01*
X185937Y423295D01*
X186030Y423399D01*
X186126Y423500D01*
X186225Y423599D01*
X186327Y423694D01*
X186431Y423787D01*
X186539Y423876D01*
X186648Y423963D01*
X186760Y424046D01*
X186875Y424126D01*
X186991Y424203D01*
X187110Y424277D01*
X187231Y424347D01*
X187354Y424413D01*
X187478Y424476D01*
X187605Y424536D01*
X187733Y424591D01*
X187862Y424643D01*
X187993Y424692D01*
X188126Y424736D01*
X188259Y424777D01*
X188394Y424814D01*
X188530Y424847D01*
X188666Y424877D01*
X188803Y424902D01*
X188941Y424923D01*
X189080Y424941D01*
X189219Y424954D01*
X189358Y424964D01*
X189498Y424969D01*
X189637Y424971D01*
X189777Y424969D01*
X189917Y424962D01*
X190056Y424952D01*
X190195Y424937D01*
X190333Y424919D01*
X190471Y424897D01*
X190472Y424897D02*
X190624Y424868D01*
X190775Y424835D01*
X190926Y424799D01*
X191076Y424759D01*
X191224Y424715D01*
X191372Y424668D01*
X191518Y424617D01*
X191663Y424563D01*
X191807Y424505D01*
X191949Y424443D01*
X192090Y424378D01*
X192228Y424310D01*
X192366Y424238D01*
X192501Y424162D01*
X192635Y424084D01*
X192766Y424002D01*
X192896Y423917D01*
X193023Y423829D01*
X193148Y423737D01*
X193271Y423643D01*
X193391Y423545D01*
X193509Y423445D01*
X193625Y423342D01*
X193738Y423236D01*
X193848Y423127D01*
X193955Y423016D01*
X194060Y422901D01*
X194162Y422785D01*
X194261Y422666D01*
X194357Y422544D01*
X194450Y422420D01*
X194540Y422294D01*
X194627Y422166D01*
X194711Y422035D01*
X194791Y421903D01*
X194868Y421769D01*
X194942Y421632D01*
X195012Y421494D01*
X195079Y421355D01*
X195143Y421213D01*
X195203Y421071D01*
X195259Y420926D01*
X195312Y420781D01*
X195361Y420634D01*
X195407Y420486D01*
X195449Y420337D01*
X195487Y420187D01*
X195522Y420036D01*
X195552Y419884D01*
X195579Y419731D01*
X195603Y419578D01*
X185751Y416902D02*
X185669Y417017D01*
X185589Y417134D01*
X185513Y417254D01*
X185440Y417375D01*
X185371Y417499D01*
X185304Y417624D01*
X185241Y417751D01*
X185182Y417880D01*
X185126Y418010D01*
X185074Y418142D01*
X185025Y418275D01*
X184979Y418409D01*
X184938Y418545D01*
X184900Y418681D01*
X184866Y418819D01*
X184835Y418957D01*
X184808Y419097D01*
X184785Y419236D01*
X184766Y419377D01*
X184751Y419518D01*
X184739Y419659D01*
X184732Y419801D01*
X184728Y419942D01*
X184727Y420084D01*
X184731Y420226D01*
X184739Y420367D01*
X184750Y420509D01*
X184765Y420650D01*
X184784Y420790D01*
X184807Y420930D01*
X185752Y416902D02*
X192961Y404598D01*
X182260Y406485D01*
D14*
X141224Y308356D02*
X129540Y308356D01*
X129540Y313549D01*
X129540Y318262D02*
X129540Y323455D01*
X129540Y318262D02*
X141224Y318262D01*
X141224Y323455D01*
X136031Y322157D02*
X136031Y318262D01*
X141224Y328145D02*
X129540Y328145D01*
X141224Y328145D02*
X141224Y331391D01*
X141222Y331504D01*
X141216Y331617D01*
X141206Y331730D01*
X141192Y331843D01*
X141175Y331955D01*
X141153Y332066D01*
X141128Y332176D01*
X141098Y332286D01*
X141065Y332394D01*
X141028Y332501D01*
X140988Y332607D01*
X140943Y332711D01*
X140895Y332814D01*
X140844Y332915D01*
X140789Y333014D01*
X140731Y333111D01*
X140669Y333206D01*
X140604Y333299D01*
X140536Y333389D01*
X140465Y333477D01*
X140390Y333563D01*
X140313Y333646D01*
X140233Y333726D01*
X140150Y333803D01*
X140064Y333878D01*
X139976Y333949D01*
X139886Y334017D01*
X139793Y334082D01*
X139698Y334144D01*
X139601Y334202D01*
X139502Y334257D01*
X139401Y334308D01*
X139298Y334356D01*
X139194Y334401D01*
X139088Y334441D01*
X138981Y334478D01*
X138873Y334511D01*
X138763Y334541D01*
X138653Y334566D01*
X138542Y334588D01*
X138430Y334605D01*
X138317Y334619D01*
X138204Y334629D01*
X138091Y334635D01*
X137978Y334637D01*
X132786Y334637D01*
X132673Y334635D01*
X132560Y334629D01*
X132447Y334619D01*
X132334Y334605D01*
X132222Y334588D01*
X132111Y334566D01*
X132001Y334541D01*
X131891Y334511D01*
X131783Y334478D01*
X131676Y334441D01*
X131570Y334401D01*
X131466Y334356D01*
X131363Y334308D01*
X131262Y334257D01*
X131163Y334202D01*
X131066Y334144D01*
X130971Y334082D01*
X130878Y334017D01*
X130788Y333949D01*
X130700Y333878D01*
X130614Y333803D01*
X130531Y333726D01*
X130451Y333646D01*
X130374Y333563D01*
X130299Y333477D01*
X130228Y333389D01*
X130160Y333299D01*
X130095Y333206D01*
X130033Y333111D01*
X129975Y333014D01*
X129920Y332915D01*
X129869Y332814D01*
X129821Y332711D01*
X129776Y332607D01*
X129736Y332501D01*
X129699Y332394D01*
X129666Y332286D01*
X129636Y332176D01*
X129611Y332066D01*
X129589Y331955D01*
X129572Y331843D01*
X129558Y331730D01*
X129548Y331617D01*
X129542Y331504D01*
X129540Y331391D01*
X129540Y328145D01*
X138628Y339956D02*
X141224Y343202D01*
X129540Y343202D01*
X129540Y346447D02*
X129540Y339956D01*
X257810Y319786D02*
X269494Y319786D01*
X257810Y319786D02*
X257810Y324979D01*
X257810Y329692D02*
X257810Y334885D01*
X257810Y329692D02*
X269494Y329692D01*
X269494Y334885D01*
X264301Y333587D02*
X264301Y329692D01*
X269494Y339575D02*
X257810Y339575D01*
X269494Y339575D02*
X269494Y342821D01*
X269492Y342934D01*
X269486Y343047D01*
X269476Y343160D01*
X269462Y343273D01*
X269445Y343385D01*
X269423Y343496D01*
X269398Y343606D01*
X269368Y343716D01*
X269335Y343824D01*
X269298Y343931D01*
X269258Y344037D01*
X269213Y344141D01*
X269165Y344244D01*
X269114Y344345D01*
X269059Y344444D01*
X269001Y344541D01*
X268939Y344636D01*
X268874Y344729D01*
X268806Y344819D01*
X268735Y344907D01*
X268660Y344993D01*
X268583Y345076D01*
X268503Y345156D01*
X268420Y345233D01*
X268334Y345308D01*
X268246Y345379D01*
X268156Y345447D01*
X268063Y345512D01*
X267968Y345574D01*
X267871Y345632D01*
X267772Y345687D01*
X267671Y345738D01*
X267568Y345786D01*
X267464Y345831D01*
X267358Y345871D01*
X267251Y345908D01*
X267143Y345941D01*
X267033Y345971D01*
X266923Y345996D01*
X266812Y346018D01*
X266700Y346035D01*
X266587Y346049D01*
X266474Y346059D01*
X266361Y346065D01*
X266248Y346067D01*
X261056Y346067D01*
X260943Y346065D01*
X260830Y346059D01*
X260717Y346049D01*
X260604Y346035D01*
X260492Y346018D01*
X260381Y345996D01*
X260271Y345971D01*
X260161Y345941D01*
X260053Y345908D01*
X259946Y345871D01*
X259840Y345831D01*
X259736Y345786D01*
X259633Y345738D01*
X259532Y345687D01*
X259433Y345632D01*
X259336Y345574D01*
X259241Y345512D01*
X259148Y345447D01*
X259058Y345379D01*
X258970Y345308D01*
X258884Y345233D01*
X258801Y345156D01*
X258721Y345076D01*
X258644Y344993D01*
X258569Y344907D01*
X258498Y344819D01*
X258430Y344729D01*
X258365Y344636D01*
X258303Y344541D01*
X258245Y344444D01*
X258190Y344345D01*
X258139Y344244D01*
X258091Y344141D01*
X258046Y344037D01*
X258006Y343931D01*
X257969Y343824D01*
X257936Y343716D01*
X257906Y343606D01*
X257881Y343496D01*
X257859Y343385D01*
X257842Y343273D01*
X257828Y343160D01*
X257818Y343047D01*
X257812Y342934D01*
X257810Y342821D01*
X257810Y339575D01*
X269494Y354956D02*
X269492Y355063D01*
X269486Y355169D01*
X269476Y355275D01*
X269463Y355381D01*
X269445Y355487D01*
X269424Y355591D01*
X269399Y355695D01*
X269370Y355798D01*
X269338Y355899D01*
X269301Y355999D01*
X269261Y356098D01*
X269218Y356196D01*
X269171Y356292D01*
X269120Y356386D01*
X269066Y356478D01*
X269009Y356568D01*
X268949Y356656D01*
X268885Y356741D01*
X268818Y356824D01*
X268748Y356905D01*
X268676Y356983D01*
X268600Y357059D01*
X268522Y357131D01*
X268441Y357201D01*
X268358Y357268D01*
X268273Y357332D01*
X268185Y357392D01*
X268095Y357449D01*
X268003Y357503D01*
X267909Y357554D01*
X267813Y357601D01*
X267715Y357644D01*
X267616Y357684D01*
X267516Y357721D01*
X267415Y357753D01*
X267312Y357782D01*
X267208Y357807D01*
X267104Y357828D01*
X266998Y357846D01*
X266892Y357859D01*
X266786Y357869D01*
X266680Y357875D01*
X266573Y357877D01*
X269494Y354956D02*
X269492Y354835D01*
X269486Y354714D01*
X269476Y354594D01*
X269463Y354473D01*
X269445Y354354D01*
X269424Y354234D01*
X269399Y354116D01*
X269370Y353999D01*
X269337Y353882D01*
X269301Y353767D01*
X269260Y353653D01*
X269217Y353540D01*
X269169Y353428D01*
X269118Y353319D01*
X269063Y353211D01*
X269005Y353104D01*
X268944Y353000D01*
X268879Y352898D01*
X268811Y352798D01*
X268740Y352700D01*
X268666Y352604D01*
X268589Y352511D01*
X268508Y352421D01*
X268425Y352333D01*
X268339Y352248D01*
X268250Y352165D01*
X268159Y352086D01*
X268065Y352009D01*
X267969Y351936D01*
X267871Y351866D01*
X267770Y351799D01*
X267667Y351735D01*
X267562Y351675D01*
X267455Y351618D01*
X267347Y351564D01*
X267237Y351514D01*
X267125Y351468D01*
X267012Y351425D01*
X266897Y351386D01*
X264301Y356904D02*
X264378Y356983D01*
X264459Y357059D01*
X264542Y357132D01*
X264627Y357202D01*
X264715Y357269D01*
X264805Y357333D01*
X264897Y357393D01*
X264992Y357450D01*
X265088Y357504D01*
X265186Y357555D01*
X265286Y357602D01*
X265388Y357646D01*
X265491Y357686D01*
X265595Y357722D01*
X265701Y357754D01*
X265807Y357783D01*
X265915Y357808D01*
X266023Y357830D01*
X266133Y357847D01*
X266242Y357861D01*
X266352Y357870D01*
X266463Y357876D01*
X266573Y357878D01*
X264301Y356904D02*
X257810Y351386D01*
X257810Y357877D01*
D10*
X263130Y287400D02*
X245120Y287400D01*
X245120Y271400D02*
X263130Y271400D01*
D15*
X266760Y279388D03*
X241360Y279388D03*
D14*
X266005Y266192D02*
X266005Y254508D01*
X266005Y266192D02*
X262760Y266192D01*
X262647Y266190D01*
X262534Y266184D01*
X262421Y266174D01*
X262308Y266160D01*
X262196Y266143D01*
X262085Y266121D01*
X261975Y266096D01*
X261865Y266066D01*
X261757Y266033D01*
X261650Y265996D01*
X261544Y265956D01*
X261440Y265911D01*
X261337Y265863D01*
X261236Y265812D01*
X261137Y265757D01*
X261040Y265699D01*
X260945Y265637D01*
X260852Y265572D01*
X260762Y265504D01*
X260674Y265433D01*
X260588Y265358D01*
X260505Y265281D01*
X260425Y265201D01*
X260348Y265118D01*
X260273Y265032D01*
X260202Y264944D01*
X260134Y264854D01*
X260069Y264761D01*
X260007Y264666D01*
X259949Y264569D01*
X259894Y264470D01*
X259843Y264369D01*
X259795Y264266D01*
X259750Y264162D01*
X259710Y264056D01*
X259673Y263949D01*
X259640Y263841D01*
X259610Y263731D01*
X259585Y263621D01*
X259563Y263510D01*
X259546Y263398D01*
X259532Y263285D01*
X259522Y263172D01*
X259516Y263059D01*
X259514Y262946D01*
X259516Y262833D01*
X259522Y262720D01*
X259532Y262607D01*
X259546Y262494D01*
X259563Y262382D01*
X259585Y262271D01*
X259610Y262161D01*
X259640Y262051D01*
X259673Y261943D01*
X259710Y261836D01*
X259750Y261730D01*
X259795Y261626D01*
X259843Y261523D01*
X259894Y261422D01*
X259949Y261323D01*
X260007Y261226D01*
X260069Y261131D01*
X260134Y261038D01*
X260202Y260948D01*
X260273Y260860D01*
X260348Y260774D01*
X260425Y260691D01*
X260505Y260611D01*
X260588Y260534D01*
X260674Y260459D01*
X260762Y260388D01*
X260852Y260320D01*
X260945Y260255D01*
X261040Y260193D01*
X261137Y260135D01*
X261236Y260080D01*
X261337Y260029D01*
X261440Y259981D01*
X261544Y259936D01*
X261650Y259896D01*
X261757Y259859D01*
X261865Y259826D01*
X261975Y259796D01*
X262085Y259771D01*
X262196Y259749D01*
X262308Y259732D01*
X262421Y259718D01*
X262534Y259708D01*
X262647Y259702D01*
X262760Y259700D01*
X262760Y259701D02*
X266005Y259701D01*
X262111Y259701D02*
X259514Y254508D01*
X248158Y263271D02*
X248160Y263378D01*
X248166Y263484D01*
X248176Y263590D01*
X248189Y263696D01*
X248207Y263802D01*
X248228Y263906D01*
X248253Y264010D01*
X248282Y264113D01*
X248314Y264214D01*
X248351Y264314D01*
X248391Y264413D01*
X248434Y264511D01*
X248481Y264607D01*
X248532Y264701D01*
X248586Y264793D01*
X248643Y264883D01*
X248703Y264971D01*
X248767Y265056D01*
X248834Y265139D01*
X248904Y265220D01*
X248976Y265298D01*
X249052Y265374D01*
X249130Y265446D01*
X249211Y265516D01*
X249294Y265583D01*
X249379Y265647D01*
X249467Y265707D01*
X249557Y265764D01*
X249649Y265818D01*
X249743Y265869D01*
X249839Y265916D01*
X249937Y265959D01*
X250036Y265999D01*
X250136Y266036D01*
X250237Y266068D01*
X250340Y266097D01*
X250444Y266122D01*
X250548Y266143D01*
X250654Y266161D01*
X250760Y266174D01*
X250866Y266184D01*
X250972Y266190D01*
X251079Y266192D01*
X251200Y266190D01*
X251321Y266184D01*
X251441Y266174D01*
X251562Y266161D01*
X251681Y266143D01*
X251801Y266122D01*
X251919Y266097D01*
X252036Y266068D01*
X252153Y266035D01*
X252268Y265999D01*
X252382Y265958D01*
X252495Y265915D01*
X252607Y265867D01*
X252716Y265816D01*
X252824Y265761D01*
X252931Y265703D01*
X253035Y265642D01*
X253137Y265577D01*
X253237Y265509D01*
X253335Y265438D01*
X253431Y265364D01*
X253524Y265287D01*
X253614Y265206D01*
X253702Y265123D01*
X253787Y265037D01*
X253870Y264948D01*
X253949Y264857D01*
X254026Y264763D01*
X254099Y264667D01*
X254169Y264569D01*
X254236Y264468D01*
X254300Y264365D01*
X254361Y264260D01*
X254418Y264153D01*
X254471Y264045D01*
X254521Y263935D01*
X254567Y263823D01*
X254610Y263710D01*
X254649Y263595D01*
X249132Y260999D02*
X249053Y261077D01*
X248977Y261157D01*
X248904Y261240D01*
X248834Y261326D01*
X248767Y261413D01*
X248703Y261504D01*
X248643Y261596D01*
X248585Y261690D01*
X248531Y261787D01*
X248481Y261885D01*
X248434Y261985D01*
X248390Y262086D01*
X248350Y262189D01*
X248314Y262294D01*
X248282Y262399D01*
X248253Y262506D01*
X248228Y262613D01*
X248206Y262722D01*
X248189Y262831D01*
X248175Y262940D01*
X248166Y263050D01*
X248160Y263161D01*
X248158Y263271D01*
X249132Y260999D02*
X254649Y254508D01*
X248158Y254508D01*
D10*
X199380Y271400D02*
X181370Y271400D01*
X181370Y287400D02*
X199380Y287400D01*
D15*
X177741Y279413D03*
X203141Y279413D03*
D14*
X202505Y266192D02*
X202505Y254508D01*
X202505Y266192D02*
X199260Y266192D01*
X199147Y266190D01*
X199034Y266184D01*
X198921Y266174D01*
X198808Y266160D01*
X198696Y266143D01*
X198585Y266121D01*
X198475Y266096D01*
X198365Y266066D01*
X198257Y266033D01*
X198150Y265996D01*
X198044Y265956D01*
X197940Y265911D01*
X197837Y265863D01*
X197736Y265812D01*
X197637Y265757D01*
X197540Y265699D01*
X197445Y265637D01*
X197352Y265572D01*
X197262Y265504D01*
X197174Y265433D01*
X197088Y265358D01*
X197005Y265281D01*
X196925Y265201D01*
X196848Y265118D01*
X196773Y265032D01*
X196702Y264944D01*
X196634Y264854D01*
X196569Y264761D01*
X196507Y264666D01*
X196449Y264569D01*
X196394Y264470D01*
X196343Y264369D01*
X196295Y264266D01*
X196250Y264162D01*
X196210Y264056D01*
X196173Y263949D01*
X196140Y263841D01*
X196110Y263731D01*
X196085Y263621D01*
X196063Y263510D01*
X196046Y263398D01*
X196032Y263285D01*
X196022Y263172D01*
X196016Y263059D01*
X196014Y262946D01*
X196016Y262833D01*
X196022Y262720D01*
X196032Y262607D01*
X196046Y262494D01*
X196063Y262382D01*
X196085Y262271D01*
X196110Y262161D01*
X196140Y262051D01*
X196173Y261943D01*
X196210Y261836D01*
X196250Y261730D01*
X196295Y261626D01*
X196343Y261523D01*
X196394Y261422D01*
X196449Y261323D01*
X196507Y261226D01*
X196569Y261131D01*
X196634Y261038D01*
X196702Y260948D01*
X196773Y260860D01*
X196848Y260774D01*
X196925Y260691D01*
X197005Y260611D01*
X197088Y260534D01*
X197174Y260459D01*
X197262Y260388D01*
X197352Y260320D01*
X197445Y260255D01*
X197540Y260193D01*
X197637Y260135D01*
X197736Y260080D01*
X197837Y260029D01*
X197940Y259981D01*
X198044Y259936D01*
X198150Y259896D01*
X198257Y259859D01*
X198365Y259826D01*
X198475Y259796D01*
X198585Y259771D01*
X198696Y259749D01*
X198808Y259732D01*
X198921Y259718D01*
X199034Y259708D01*
X199147Y259702D01*
X199260Y259700D01*
X199260Y259701D02*
X202505Y259701D01*
X198611Y259701D02*
X196014Y254508D01*
X191149Y254508D02*
X187904Y254508D01*
X187791Y254510D01*
X187678Y254516D01*
X187565Y254526D01*
X187452Y254540D01*
X187340Y254557D01*
X187229Y254579D01*
X187119Y254604D01*
X187009Y254634D01*
X186901Y254667D01*
X186794Y254704D01*
X186688Y254744D01*
X186584Y254789D01*
X186481Y254837D01*
X186380Y254888D01*
X186281Y254943D01*
X186184Y255001D01*
X186089Y255063D01*
X185996Y255128D01*
X185906Y255196D01*
X185818Y255267D01*
X185732Y255342D01*
X185649Y255419D01*
X185569Y255499D01*
X185492Y255582D01*
X185417Y255668D01*
X185346Y255756D01*
X185278Y255846D01*
X185213Y255939D01*
X185151Y256034D01*
X185093Y256131D01*
X185038Y256230D01*
X184987Y256331D01*
X184939Y256434D01*
X184894Y256538D01*
X184854Y256644D01*
X184817Y256751D01*
X184784Y256859D01*
X184754Y256969D01*
X184729Y257079D01*
X184707Y257190D01*
X184690Y257302D01*
X184676Y257415D01*
X184666Y257528D01*
X184660Y257641D01*
X184658Y257754D01*
X184660Y257867D01*
X184666Y257980D01*
X184676Y258093D01*
X184690Y258206D01*
X184707Y258318D01*
X184729Y258429D01*
X184754Y258539D01*
X184784Y258649D01*
X184817Y258757D01*
X184854Y258864D01*
X184894Y258970D01*
X184939Y259074D01*
X184987Y259177D01*
X185038Y259278D01*
X185093Y259377D01*
X185151Y259474D01*
X185213Y259569D01*
X185278Y259662D01*
X185346Y259752D01*
X185417Y259840D01*
X185492Y259926D01*
X185569Y260009D01*
X185649Y260089D01*
X185732Y260166D01*
X185818Y260241D01*
X185906Y260312D01*
X185996Y260380D01*
X186089Y260445D01*
X186184Y260507D01*
X186281Y260565D01*
X186380Y260620D01*
X186481Y260671D01*
X186584Y260719D01*
X186688Y260764D01*
X186794Y260804D01*
X186901Y260841D01*
X187009Y260874D01*
X187119Y260904D01*
X187229Y260929D01*
X187340Y260951D01*
X187452Y260968D01*
X187565Y260982D01*
X187678Y260992D01*
X187791Y260998D01*
X187904Y261000D01*
X187254Y266192D02*
X191149Y266192D01*
X187254Y266192D02*
X187153Y266190D01*
X187053Y266184D01*
X186953Y266174D01*
X186853Y266161D01*
X186754Y266143D01*
X186655Y266122D01*
X186558Y266097D01*
X186461Y266068D01*
X186366Y266035D01*
X186272Y265999D01*
X186180Y265959D01*
X186089Y265916D01*
X186000Y265869D01*
X185913Y265819D01*
X185827Y265765D01*
X185744Y265708D01*
X185664Y265648D01*
X185585Y265585D01*
X185509Y265518D01*
X185436Y265449D01*
X185366Y265377D01*
X185298Y265303D01*
X185233Y265226D01*
X185172Y265146D01*
X185113Y265064D01*
X185058Y264980D01*
X185006Y264894D01*
X184957Y264806D01*
X184912Y264716D01*
X184870Y264624D01*
X184832Y264531D01*
X184798Y264436D01*
X184767Y264341D01*
X184740Y264244D01*
X184717Y264146D01*
X184697Y264047D01*
X184682Y263947D01*
X184670Y263847D01*
X184662Y263747D01*
X184658Y263646D01*
X184658Y263546D01*
X184662Y263445D01*
X184670Y263345D01*
X184682Y263245D01*
X184697Y263145D01*
X184717Y263046D01*
X184740Y262948D01*
X184767Y262851D01*
X184798Y262756D01*
X184832Y262661D01*
X184870Y262568D01*
X184912Y262476D01*
X184957Y262386D01*
X185006Y262298D01*
X185058Y262212D01*
X185113Y262128D01*
X185172Y262046D01*
X185233Y261966D01*
X185298Y261889D01*
X185366Y261815D01*
X185436Y261743D01*
X185509Y261674D01*
X185585Y261607D01*
X185664Y261544D01*
X185744Y261484D01*
X185827Y261427D01*
X185913Y261373D01*
X186000Y261323D01*
X186089Y261276D01*
X186180Y261233D01*
X186272Y261193D01*
X186366Y261157D01*
X186461Y261124D01*
X186558Y261095D01*
X186655Y261070D01*
X186754Y261049D01*
X186853Y261031D01*
X186953Y261018D01*
X187053Y261008D01*
X187153Y261002D01*
X187254Y261000D01*
X187254Y260999D02*
X189851Y260999D01*
X329438Y429514D02*
X341122Y429514D01*
X329438Y429514D02*
X329438Y434707D01*
X329438Y439420D02*
X329438Y444613D01*
X329438Y439420D02*
X341122Y439420D01*
X341122Y444613D01*
X335929Y443315D02*
X335929Y439420D01*
X341122Y449303D02*
X329438Y449303D01*
X341122Y449303D02*
X341122Y452549D01*
X341120Y452662D01*
X341114Y452775D01*
X341104Y452888D01*
X341090Y453001D01*
X341073Y453113D01*
X341051Y453224D01*
X341026Y453334D01*
X340996Y453444D01*
X340963Y453552D01*
X340926Y453659D01*
X340886Y453765D01*
X340841Y453869D01*
X340793Y453972D01*
X340742Y454073D01*
X340687Y454172D01*
X340629Y454269D01*
X340567Y454364D01*
X340502Y454457D01*
X340434Y454547D01*
X340363Y454635D01*
X340288Y454721D01*
X340211Y454804D01*
X340131Y454884D01*
X340048Y454961D01*
X339962Y455036D01*
X339874Y455107D01*
X339784Y455175D01*
X339691Y455240D01*
X339596Y455302D01*
X339499Y455360D01*
X339400Y455415D01*
X339299Y455466D01*
X339196Y455514D01*
X339092Y455559D01*
X338986Y455599D01*
X338879Y455636D01*
X338771Y455669D01*
X338661Y455699D01*
X338551Y455724D01*
X338440Y455746D01*
X338328Y455763D01*
X338215Y455777D01*
X338102Y455787D01*
X337989Y455793D01*
X337876Y455795D01*
X332684Y455795D01*
X332571Y455793D01*
X332458Y455787D01*
X332345Y455777D01*
X332232Y455763D01*
X332120Y455746D01*
X332009Y455724D01*
X331899Y455699D01*
X331789Y455669D01*
X331681Y455636D01*
X331574Y455599D01*
X331468Y455559D01*
X331364Y455514D01*
X331261Y455466D01*
X331160Y455415D01*
X331061Y455360D01*
X330964Y455302D01*
X330869Y455240D01*
X330776Y455175D01*
X330686Y455107D01*
X330598Y455036D01*
X330512Y454961D01*
X330429Y454884D01*
X330349Y454804D01*
X330272Y454721D01*
X330197Y454635D01*
X330126Y454547D01*
X330058Y454457D01*
X329993Y454364D01*
X329931Y454269D01*
X329873Y454172D01*
X329818Y454073D01*
X329767Y453972D01*
X329719Y453869D01*
X329674Y453765D01*
X329634Y453659D01*
X329597Y453552D01*
X329564Y453444D01*
X329534Y453334D01*
X329509Y453224D01*
X329487Y453113D01*
X329470Y453001D01*
X329456Y452888D01*
X329446Y452775D01*
X329440Y452662D01*
X329438Y452549D01*
X329438Y449303D01*
X329438Y461114D02*
X329438Y464360D01*
X329440Y464473D01*
X329446Y464586D01*
X329456Y464699D01*
X329470Y464812D01*
X329487Y464924D01*
X329509Y465035D01*
X329534Y465145D01*
X329564Y465255D01*
X329597Y465363D01*
X329634Y465470D01*
X329674Y465576D01*
X329719Y465680D01*
X329767Y465783D01*
X329818Y465884D01*
X329873Y465983D01*
X329931Y466080D01*
X329993Y466175D01*
X330058Y466268D01*
X330126Y466358D01*
X330197Y466446D01*
X330272Y466532D01*
X330349Y466615D01*
X330429Y466695D01*
X330512Y466772D01*
X330598Y466847D01*
X330686Y466918D01*
X330776Y466986D01*
X330869Y467051D01*
X330964Y467113D01*
X331061Y467171D01*
X331160Y467226D01*
X331261Y467277D01*
X331364Y467325D01*
X331468Y467370D01*
X331574Y467410D01*
X331681Y467447D01*
X331789Y467480D01*
X331899Y467510D01*
X332009Y467535D01*
X332120Y467557D01*
X332232Y467574D01*
X332345Y467588D01*
X332458Y467598D01*
X332571Y467604D01*
X332684Y467606D01*
X332797Y467604D01*
X332910Y467598D01*
X333023Y467588D01*
X333136Y467574D01*
X333248Y467557D01*
X333359Y467535D01*
X333469Y467510D01*
X333579Y467480D01*
X333687Y467447D01*
X333794Y467410D01*
X333900Y467370D01*
X334004Y467325D01*
X334107Y467277D01*
X334208Y467226D01*
X334307Y467171D01*
X334404Y467113D01*
X334499Y467051D01*
X334592Y466986D01*
X334682Y466918D01*
X334770Y466847D01*
X334856Y466772D01*
X334939Y466695D01*
X335019Y466615D01*
X335096Y466532D01*
X335171Y466446D01*
X335242Y466358D01*
X335310Y466268D01*
X335375Y466175D01*
X335437Y466080D01*
X335495Y465983D01*
X335550Y465884D01*
X335601Y465783D01*
X335649Y465680D01*
X335694Y465576D01*
X335734Y465470D01*
X335771Y465363D01*
X335804Y465255D01*
X335834Y465145D01*
X335859Y465035D01*
X335881Y464924D01*
X335898Y464812D01*
X335912Y464699D01*
X335922Y464586D01*
X335928Y464473D01*
X335930Y464360D01*
X341122Y465009D02*
X341122Y461114D01*
X341122Y465009D02*
X341120Y465110D01*
X341114Y465210D01*
X341104Y465310D01*
X341091Y465410D01*
X341073Y465509D01*
X341052Y465608D01*
X341027Y465705D01*
X340998Y465802D01*
X340965Y465897D01*
X340929Y465991D01*
X340889Y466083D01*
X340846Y466174D01*
X340799Y466263D01*
X340749Y466350D01*
X340695Y466436D01*
X340638Y466519D01*
X340578Y466599D01*
X340515Y466678D01*
X340448Y466754D01*
X340379Y466827D01*
X340307Y466897D01*
X340233Y466965D01*
X340156Y467030D01*
X340076Y467091D01*
X339994Y467150D01*
X339910Y467205D01*
X339824Y467257D01*
X339736Y467306D01*
X339646Y467351D01*
X339554Y467393D01*
X339461Y467431D01*
X339366Y467465D01*
X339271Y467496D01*
X339174Y467523D01*
X339076Y467546D01*
X338977Y467566D01*
X338877Y467581D01*
X338777Y467593D01*
X338677Y467601D01*
X338576Y467605D01*
X338476Y467605D01*
X338375Y467601D01*
X338275Y467593D01*
X338175Y467581D01*
X338075Y467566D01*
X337976Y467546D01*
X337878Y467523D01*
X337781Y467496D01*
X337686Y467465D01*
X337591Y467431D01*
X337498Y467393D01*
X337406Y467351D01*
X337316Y467306D01*
X337228Y467257D01*
X337142Y467205D01*
X337058Y467150D01*
X336976Y467091D01*
X336896Y467030D01*
X336819Y466965D01*
X336745Y466897D01*
X336673Y466827D01*
X336604Y466754D01*
X336537Y466678D01*
X336474Y466599D01*
X336414Y466519D01*
X336357Y466436D01*
X336303Y466350D01*
X336253Y466263D01*
X336206Y466174D01*
X336163Y466083D01*
X336123Y465991D01*
X336087Y465897D01*
X336054Y465802D01*
X336025Y465705D01*
X336000Y465608D01*
X335979Y465509D01*
X335961Y465410D01*
X335948Y465310D01*
X335938Y465210D01*
X335932Y465110D01*
X335930Y465009D01*
X335929Y465009D02*
X335929Y462413D01*
X436372Y298704D02*
X448056Y298704D01*
X436372Y298704D02*
X436372Y303897D01*
X436372Y308610D02*
X436372Y313803D01*
X436372Y308610D02*
X448056Y308610D01*
X448056Y313803D01*
X442863Y312505D02*
X442863Y308610D01*
X448056Y318493D02*
X436372Y318493D01*
X448056Y318493D02*
X448056Y321739D01*
X448054Y321852D01*
X448048Y321965D01*
X448038Y322078D01*
X448024Y322191D01*
X448007Y322303D01*
X447985Y322414D01*
X447960Y322524D01*
X447930Y322634D01*
X447897Y322742D01*
X447860Y322849D01*
X447820Y322955D01*
X447775Y323059D01*
X447727Y323162D01*
X447676Y323263D01*
X447621Y323362D01*
X447563Y323459D01*
X447501Y323554D01*
X447436Y323647D01*
X447368Y323737D01*
X447297Y323825D01*
X447222Y323911D01*
X447145Y323994D01*
X447065Y324074D01*
X446982Y324151D01*
X446896Y324226D01*
X446808Y324297D01*
X446718Y324365D01*
X446625Y324430D01*
X446530Y324492D01*
X446433Y324550D01*
X446334Y324605D01*
X446233Y324656D01*
X446130Y324704D01*
X446026Y324749D01*
X445920Y324789D01*
X445813Y324826D01*
X445705Y324859D01*
X445595Y324889D01*
X445485Y324914D01*
X445374Y324936D01*
X445262Y324953D01*
X445149Y324967D01*
X445036Y324977D01*
X444923Y324983D01*
X444810Y324985D01*
X439618Y324985D01*
X439505Y324983D01*
X439392Y324977D01*
X439279Y324967D01*
X439166Y324953D01*
X439054Y324936D01*
X438943Y324914D01*
X438833Y324889D01*
X438723Y324859D01*
X438615Y324826D01*
X438508Y324789D01*
X438402Y324749D01*
X438298Y324704D01*
X438195Y324656D01*
X438094Y324605D01*
X437995Y324550D01*
X437898Y324492D01*
X437803Y324430D01*
X437710Y324365D01*
X437620Y324297D01*
X437532Y324226D01*
X437446Y324151D01*
X437363Y324074D01*
X437283Y323994D01*
X437206Y323911D01*
X437131Y323825D01*
X437060Y323737D01*
X436992Y323647D01*
X436927Y323554D01*
X436865Y323459D01*
X436807Y323362D01*
X436752Y323263D01*
X436701Y323162D01*
X436653Y323059D01*
X436608Y322955D01*
X436568Y322849D01*
X436531Y322742D01*
X436498Y322634D01*
X436468Y322524D01*
X436443Y322414D01*
X436421Y322303D01*
X436404Y322191D01*
X436390Y322078D01*
X436380Y321965D01*
X436374Y321852D01*
X436372Y321739D01*
X436372Y318493D01*
X438968Y330304D02*
X448056Y332901D01*
X438968Y330304D02*
X438968Y336795D01*
X441565Y334848D02*
X436372Y334848D01*
D10*
X390130Y287400D02*
X372120Y287400D01*
X372120Y271400D02*
X390130Y271400D01*
D15*
X393760Y279388D03*
X368360Y279388D03*
D14*
X393005Y266192D02*
X393005Y254508D01*
X393005Y266192D02*
X389760Y266192D01*
X389647Y266190D01*
X389534Y266184D01*
X389421Y266174D01*
X389308Y266160D01*
X389196Y266143D01*
X389085Y266121D01*
X388975Y266096D01*
X388865Y266066D01*
X388757Y266033D01*
X388650Y265996D01*
X388544Y265956D01*
X388440Y265911D01*
X388337Y265863D01*
X388236Y265812D01*
X388137Y265757D01*
X388040Y265699D01*
X387945Y265637D01*
X387852Y265572D01*
X387762Y265504D01*
X387674Y265433D01*
X387588Y265358D01*
X387505Y265281D01*
X387425Y265201D01*
X387348Y265118D01*
X387273Y265032D01*
X387202Y264944D01*
X387134Y264854D01*
X387069Y264761D01*
X387007Y264666D01*
X386949Y264569D01*
X386894Y264470D01*
X386843Y264369D01*
X386795Y264266D01*
X386750Y264162D01*
X386710Y264056D01*
X386673Y263949D01*
X386640Y263841D01*
X386610Y263731D01*
X386585Y263621D01*
X386563Y263510D01*
X386546Y263398D01*
X386532Y263285D01*
X386522Y263172D01*
X386516Y263059D01*
X386514Y262946D01*
X386516Y262833D01*
X386522Y262720D01*
X386532Y262607D01*
X386546Y262494D01*
X386563Y262382D01*
X386585Y262271D01*
X386610Y262161D01*
X386640Y262051D01*
X386673Y261943D01*
X386710Y261836D01*
X386750Y261730D01*
X386795Y261626D01*
X386843Y261523D01*
X386894Y261422D01*
X386949Y261323D01*
X387007Y261226D01*
X387069Y261131D01*
X387134Y261038D01*
X387202Y260948D01*
X387273Y260860D01*
X387348Y260774D01*
X387425Y260691D01*
X387505Y260611D01*
X387588Y260534D01*
X387674Y260459D01*
X387762Y260388D01*
X387852Y260320D01*
X387945Y260255D01*
X388040Y260193D01*
X388137Y260135D01*
X388236Y260080D01*
X388337Y260029D01*
X388440Y259981D01*
X388544Y259936D01*
X388650Y259896D01*
X388757Y259859D01*
X388865Y259826D01*
X388975Y259796D01*
X389085Y259771D01*
X389196Y259749D01*
X389308Y259732D01*
X389421Y259718D01*
X389534Y259708D01*
X389647Y259702D01*
X389760Y259700D01*
X389760Y259701D02*
X393005Y259701D01*
X389111Y259701D02*
X386514Y254508D01*
X381649Y263596D02*
X378404Y266192D01*
X378404Y254508D01*
X381649Y254508D02*
X375158Y254508D01*
D10*
X326380Y271400D02*
X308370Y271400D01*
X308370Y287400D02*
X326380Y287400D01*
D15*
X304741Y279413D03*
X330141Y279413D03*
D14*
X323155Y266192D02*
X323155Y254508D01*
X323155Y266192D02*
X319910Y266192D01*
X319797Y266190D01*
X319684Y266184D01*
X319571Y266174D01*
X319458Y266160D01*
X319346Y266143D01*
X319235Y266121D01*
X319125Y266096D01*
X319015Y266066D01*
X318907Y266033D01*
X318800Y265996D01*
X318694Y265956D01*
X318590Y265911D01*
X318487Y265863D01*
X318386Y265812D01*
X318287Y265757D01*
X318190Y265699D01*
X318095Y265637D01*
X318002Y265572D01*
X317912Y265504D01*
X317824Y265433D01*
X317738Y265358D01*
X317655Y265281D01*
X317575Y265201D01*
X317498Y265118D01*
X317423Y265032D01*
X317352Y264944D01*
X317284Y264854D01*
X317219Y264761D01*
X317157Y264666D01*
X317099Y264569D01*
X317044Y264470D01*
X316993Y264369D01*
X316945Y264266D01*
X316900Y264162D01*
X316860Y264056D01*
X316823Y263949D01*
X316790Y263841D01*
X316760Y263731D01*
X316735Y263621D01*
X316713Y263510D01*
X316696Y263398D01*
X316682Y263285D01*
X316672Y263172D01*
X316666Y263059D01*
X316664Y262946D01*
X316666Y262833D01*
X316672Y262720D01*
X316682Y262607D01*
X316696Y262494D01*
X316713Y262382D01*
X316735Y262271D01*
X316760Y262161D01*
X316790Y262051D01*
X316823Y261943D01*
X316860Y261836D01*
X316900Y261730D01*
X316945Y261626D01*
X316993Y261523D01*
X317044Y261422D01*
X317099Y261323D01*
X317157Y261226D01*
X317219Y261131D01*
X317284Y261038D01*
X317352Y260948D01*
X317423Y260860D01*
X317498Y260774D01*
X317575Y260691D01*
X317655Y260611D01*
X317738Y260534D01*
X317824Y260459D01*
X317912Y260388D01*
X318002Y260320D01*
X318095Y260255D01*
X318190Y260193D01*
X318287Y260135D01*
X318386Y260080D01*
X318487Y260029D01*
X318590Y259981D01*
X318694Y259936D01*
X318800Y259896D01*
X318907Y259859D01*
X319015Y259826D01*
X319125Y259796D01*
X319235Y259771D01*
X319346Y259749D01*
X319458Y259732D01*
X319571Y259718D01*
X319684Y259708D01*
X319797Y259702D01*
X319910Y259700D01*
X319910Y259701D02*
X323155Y259701D01*
X319261Y259701D02*
X316664Y254508D01*
X311799Y257104D02*
X309203Y266192D01*
X311799Y257104D02*
X305308Y257104D01*
X307255Y259701D02*
X307255Y254508D01*
D10*
X304800Y245135D02*
X311150Y232435D01*
X304800Y245135D02*
X317500Y245135D01*
X311150Y232435D01*
X318414Y158115D02*
X327660Y158115D01*
X243840Y158115D02*
X243840Y210185D01*
X253086Y210185D01*
X327660Y210185D02*
X327660Y158115D01*
X253086Y158115D02*
X243840Y158115D01*
X267614Y210185D02*
X278486Y210185D01*
X278486Y158115D02*
X267614Y158115D01*
X293014Y210185D02*
X303886Y210185D01*
X303886Y158115D02*
X293014Y158115D01*
X318414Y210185D02*
X327660Y210185D01*
D12*
X249809Y220162D02*
X241850Y220162D01*
X245830Y224141D02*
X245830Y216182D01*
X244503Y152217D02*
X249809Y152217D01*
X324058Y227457D02*
X327374Y224804D01*
X324058Y227457D02*
X324058Y215519D01*
X327374Y215519D02*
X320742Y215519D01*
X323726Y155322D02*
X323619Y155320D01*
X323513Y155314D01*
X323407Y155305D01*
X323301Y155292D01*
X323196Y155275D01*
X323091Y155254D01*
X322988Y155229D01*
X322885Y155201D01*
X322783Y155169D01*
X322683Y155134D01*
X322584Y155095D01*
X322486Y155052D01*
X322390Y155006D01*
X322295Y154957D01*
X322203Y154904D01*
X322112Y154848D01*
X322024Y154789D01*
X321937Y154727D01*
X321853Y154661D01*
X321771Y154593D01*
X321692Y154522D01*
X321615Y154448D01*
X321541Y154371D01*
X321470Y154292D01*
X321402Y154210D01*
X321336Y154126D01*
X321274Y154039D01*
X321215Y153951D01*
X321159Y153860D01*
X321106Y153768D01*
X321057Y153673D01*
X321011Y153577D01*
X320968Y153479D01*
X320929Y153380D01*
X320894Y153280D01*
X320862Y153178D01*
X320834Y153075D01*
X320809Y152972D01*
X320788Y152867D01*
X320771Y152762D01*
X320758Y152656D01*
X320749Y152550D01*
X320743Y152444D01*
X320741Y152337D01*
X323726Y155321D02*
X323847Y155319D01*
X323967Y155313D01*
X324087Y155304D01*
X324207Y155291D01*
X324326Y155274D01*
X324445Y155253D01*
X324563Y155229D01*
X324680Y155200D01*
X324796Y155169D01*
X324912Y155133D01*
X325026Y155094D01*
X325138Y155051D01*
X325250Y155005D01*
X325360Y154956D01*
X325468Y154902D01*
X325574Y154846D01*
X325679Y154786D01*
X325782Y154723D01*
X325882Y154657D01*
X325981Y154588D01*
X326077Y154515D01*
X326171Y154440D01*
X326263Y154362D01*
X326352Y154280D01*
X326439Y154196D01*
X326523Y154110D01*
X326604Y154021D01*
X326682Y153929D01*
X326757Y153835D01*
X326829Y153738D01*
X326899Y153640D01*
X326965Y153539D01*
X327028Y153436D01*
X327087Y153331D01*
X327144Y153225D01*
X327197Y153116D01*
X327246Y153007D01*
X327292Y152895D01*
X327335Y152782D01*
X327373Y152668D01*
X321736Y150015D02*
X321656Y150095D01*
X321578Y150177D01*
X321504Y150261D01*
X321432Y150349D01*
X321364Y150439D01*
X321298Y150531D01*
X321236Y150625D01*
X321178Y150721D01*
X321123Y150820D01*
X321071Y150920D01*
X321023Y151022D01*
X320978Y151126D01*
X320938Y151231D01*
X320901Y151338D01*
X320867Y151446D01*
X320838Y151555D01*
X320812Y151665D01*
X320791Y151776D01*
X320773Y151887D01*
X320759Y151999D01*
X320749Y152111D01*
X320743Y152224D01*
X320741Y152337D01*
X321737Y150015D02*
X327374Y143383D01*
X320742Y143383D01*
D10*
X311150Y232435D02*
X304800Y245135D01*
X317500Y245135D01*
X311150Y232435D01*
X326390Y159385D02*
X245110Y159385D01*
X245110Y208915D01*
X326390Y208915D01*
X326390Y159385D01*
M02*
