G04 Layer_Color=16720538*
%FSLAX25Y25*%
%MOIN*%
G70*
G01*
G75*
%ADD92C,0.03000*%
D92*
X466300Y387500D02*
G03*
X466300Y387500I-9301J0D01*
G01*
X525769Y379670D02*
X529524Y374038D01*
X521672Y384790D02*
X525769Y379670D01*
X517278Y388587D02*
X521672Y384790D01*
X512288Y392398D02*
X517278Y388587D01*
X508360Y394348D02*
X512288Y392398D01*
X505160Y396396D02*
X508360Y394348D01*
X501911Y397794D02*
X505160Y396396D01*
X498760Y398615D02*
X501911Y397794D01*
X495602Y399852D02*
X498760Y398615D01*
X487968Y401326D02*
X495602Y399852D01*
X485228Y401410D02*
X487968Y401326D01*
X478148Y401001D02*
X485228Y401410D01*
X474173Y400038D02*
X478148Y401001D01*
X470584Y399412D02*
X474173Y400038D01*
X469115Y398617D02*
X470584Y399412D01*
X467887Y398232D02*
X469115Y398617D01*
X465310Y398159D02*
X467887Y398232D01*
X456181Y403410D02*
X465310Y398159D01*
X450003Y405007D02*
X456181Y403410D01*
X445542Y405395D02*
X450003Y405007D01*
X437086Y405473D02*
X445542Y405395D01*
X426497Y403028D02*
X437086Y405473D01*
X422424Y401710D02*
X426497Y403028D01*
X416994Y399188D02*
X422424Y401710D01*
X410632Y395464D02*
X416994Y399188D01*
X409739Y394378D02*
X410632Y395464D01*
X408884Y394021D02*
X409739Y394378D01*
X408110Y394533D02*
X408884Y394021D01*
X398742Y396615D02*
X408110Y394533D01*
X396252Y397328D02*
X398742Y396615D01*
X387813Y397343D02*
X396252Y397328D01*
X384986Y396935D02*
X387813Y397343D01*
X382364Y396148D02*
X384986Y396935D01*
X380440Y395770D02*
X382364Y396148D01*
X377672Y394574D02*
X380440Y395770D01*
X376976Y394481D02*
X377672Y394574D01*
X374520Y393073D02*
X376976Y394481D01*
X371959Y391456D02*
X374520Y393073D01*
X367296Y387697D02*
X371959Y391456D01*
X365722Y385685D02*
X367296Y387697D01*
X364994Y384083D02*
X365722Y385685D01*
X363740Y382916D02*
X364994Y384083D01*
X363012Y381023D02*
X363740Y382916D01*
X362196Y379332D02*
X363012Y381023D01*
X361876Y378021D02*
X362196Y379332D01*
X361322Y377730D02*
X361876Y378021D01*
X356571Y379187D02*
X361322Y377730D01*
X351973Y379664D02*
X356571Y379187D01*
X344463Y378960D02*
X351973Y379664D01*
X340755Y378116D02*
X344463Y378960D01*
X338763Y376963D02*
X340755Y378116D01*
X336884Y376432D02*
X338763Y376963D01*
X336379Y376024D02*
X336884Y376432D01*
X332212Y373037D02*
X336379Y376024D01*
X329490Y369930D02*
X332212Y373037D01*
X327169Y367041D02*
X329490Y369930D01*
X326447Y365093D02*
X327169Y367041D01*
X325549Y362816D02*
X326447Y365093D01*
X323973Y359006D02*
X325549Y362816D01*
X323517Y357083D02*
X323973Y359006D01*
X323482Y355855D02*
X323517Y357083D01*
X323097Y355023D02*
X323482Y355855D01*
X323085Y354677D02*
X323097Y355023D01*
X321229Y354741D02*
X323085Y354677D01*
X316265Y355065D02*
X321229Y354741D01*
X309777Y353800D02*
X316265Y355065D01*
X304529Y352250D02*
X309777Y353800D01*
X299483Y349728D02*
X304529Y352250D01*
X293189Y345356D02*
X299483Y349728D01*
X291702Y343841D02*
X293189Y345356D01*
X290885Y343461D02*
X291702Y343841D01*
X288933Y340634D02*
X290885Y343461D01*
X286719Y338070D02*
X288933Y340634D01*
X284795Y332008D02*
X286719Y338070D01*
X283512Y326470D02*
X284795Y332008D01*
X283512Y326470D02*
X283629Y321079D01*
X283949Y316270D01*
X285553Y309188D01*
X281880Y307819D02*
X285553Y309188D01*
X275440Y304642D02*
X281880Y307819D01*
X271156Y301873D02*
X275440Y304642D01*
X268612Y299376D02*
X271156Y301873D01*
X266621Y297007D02*
X268612Y299376D01*
X264569Y293771D02*
X266621Y297007D01*
X261836Y285768D02*
X264569Y293771D01*
X260946Y281623D02*
X261836Y285768D01*
X260946Y281623D02*
X261023Y273982D01*
X262675Y267413D01*
X264957Y261625D01*
X268249Y257141D01*
X271474Y253121D01*
X274718Y250712D01*
X277505Y248264D01*
X276351Y245497D02*
X277505Y248264D01*
X275535Y242730D02*
X276351Y245497D01*
X274738Y240201D02*
X275535Y242730D01*
X274321Y235424D02*
X274738Y240201D01*
X274321Y228916D02*
Y235424D01*
Y228916D02*
X275336Y224317D01*
X276052Y221550D01*
X277087Y218843D01*
X280042Y214832D01*
X283449Y211941D01*
X287669Y208653D01*
X292828Y205938D01*
X297949Y204309D01*
X306173Y203106D01*
X310237Y203109D01*
X312970Y201934D01*
X317873Y196607D01*
X322869Y193144D01*
X327805Y190258D01*
X332843Y188131D01*
X340244Y186205D01*
X342674Y185788D01*
X350165Y185775D01*
X356119Y186161D01*
X361569Y187340D01*
X366581Y188566D01*
X375795Y192216D01*
X380326Y194256D01*
X380431Y191944D01*
X380702Y189012D01*
X381940Y184205D01*
X383926Y179679D01*
X385459Y177205D01*
X387561Y173746D01*
X388415Y172388D01*
X390364Y170023D01*
X394174Y166235D01*
X398421Y162863D01*
X407355Y157981D01*
X411975Y156251D01*
X415938Y155089D01*
X420230Y154346D01*
X428047Y153535D01*
X435228Y153557D01*
X442564Y154718D01*
X444863Y155550D01*
X446877Y155506D01*
X448870Y154739D01*
X451882Y151674D01*
X454791Y148738D01*
X456845Y146658D01*
X458044Y145302D01*
X465730Y135383D01*
X470962Y127887D01*
X477008Y116528D01*
X482233Y103640D01*
X485124Y94155D01*
X486747Y85198D01*
X487488Y75712D01*
X487452Y64109D02*
X487488Y75712D01*
X487452Y64109D02*
X488228Y60054D01*
X490802Y56669D01*
X492837Y55002D01*
X495332Y53667D01*
X498289Y52792D01*
X503391Y51543D01*
X507835Y51193D01*
X512192Y51149D01*
X518893Y51960D01*
X523447Y53251D01*
X526228Y55625D01*
X527779Y58030D01*
X528206Y60047D01*
X529060Y77347D01*
X528816Y95078D02*
X529060Y77347D01*
X528174Y106362D02*
X528816Y95078D01*
X527017Y118592D02*
X528174Y106362D01*
X526114Y123282D02*
X527017Y118592D01*
X523502Y140118D02*
X526114Y123282D01*
X523502Y140118D02*
X544383Y139865D01*
X552850Y140330D01*
X558116Y141000D01*
X569733Y143479D01*
X571282Y143789D01*
X582383Y147919D01*
X589559Y151636D01*
X596322Y155818D01*
X607578Y164595D01*
X620227Y178122D01*
X621466Y180291D01*
X623687Y181272D01*
X627301Y181892D01*
X630450Y182924D01*
X635406Y186847D01*
X639898Y191597D01*
X642221Y194179D01*
X644718Y197541D01*
X647849Y203059D01*
X651292Y210672D01*
X653030Y218912D01*
X653635Y223068D01*
X652425Y229418D02*
X653635Y223068D01*
X650006Y235768D02*
X652425Y229418D01*
X650006Y235768D02*
X654845Y239850D01*
X659153Y245746D01*
X660665Y247787D01*
X662026Y252550D01*
X663915Y262452D01*
X663008Y273941D02*
X663915Y262452D01*
X660816Y281728D02*
X663008Y273941D01*
X659305Y285280D02*
X660816Y281728D01*
X654996Y290421D02*
X659305Y285280D01*
X652547Y293257D02*
X654996Y290421D01*
X649327Y295788D02*
X652547Y293257D01*
X649327Y295788D02*
X650763Y302288D01*
X650740Y308797D02*
X650763Y302288D01*
X648948Y318843D02*
X650740Y308797D01*
X644986Y326717D02*
X648948Y318843D01*
X643536Y328766D02*
X644986Y326717D01*
X636495Y335465D02*
X643536Y328766D01*
X633807Y337726D02*
X636495Y335465D01*
X628729Y340158D02*
X633807Y337726D01*
X626682Y340713D02*
X628729Y340158D01*
X622030Y342207D02*
X626682Y340713D01*
X619257Y343059D02*
X622030Y342207D01*
X616441Y343358D02*
X619257Y343059D01*
X612601Y343401D02*
X616441Y343358D01*
X610553Y348436D02*
X612601Y343401D01*
X607609Y354281D02*
X610553Y348436D01*
X602446Y360596D02*
X607609Y354281D01*
X599629Y363413D02*
X602446Y360596D01*
X597283Y365504D02*
X599629Y363413D01*
X595832Y366315D02*
X597283Y365504D01*
X590284Y369557D02*
X595832Y366315D01*
X583500Y372843D02*
X590284Y369557D01*
X573046Y375872D02*
X583500Y372843D01*
X560032Y377622D02*
X573046Y375872D01*
X552394Y377579D02*
X560032Y377622D01*
X548255Y377152D02*
X552394Y377579D01*
X541471Y376384D02*
X548255Y377152D01*
X538229Y375617D02*
X541471Y376384D01*
X533322Y374891D02*
X538229Y375617D01*
X529524Y374038D02*
X533322Y374891D01*
M02*
