G04 Layer_Color=15132400*
%FSLAX25Y25*%
%MOIN*%
G70*
G01*
G75*
%ADD39C,0.01000*%
%ADD40C,0.00600*%
%ADD93C,0.01500*%
%ADD95C,0.05000*%
%ADD96C,0.00787*%
%ADD97C,0.00700*%
%ADD98C,0.00400*%
G36*
X450021Y404991D02*
X454498Y403871D01*
X454872D01*
X455991Y403498D01*
X457484Y402752D01*
X459349Y401633D01*
X464573Y398647D01*
X464946D01*
X465693Y398274D01*
X467932D01*
X469051Y399021D01*
X470543Y399394D01*
X472782Y400140D01*
X475394Y400886D01*
X478379Y401259D01*
X481365Y401633D01*
X485842D01*
X487708Y401259D01*
X489574Y400886D01*
X492186Y400513D01*
X495171Y399767D01*
X501514Y397901D01*
X501887D01*
X502260Y397528D01*
X504872Y396409D01*
X508231Y394543D01*
X512335Y392304D01*
X516813Y388946D01*
X521664Y384841D01*
X525768Y379617D01*
X529500Y374020D01*
X529873D01*
X530992Y374393D01*
X533231Y374766D01*
X535470Y375140D01*
X538455Y375513D01*
X541813Y376259D01*
X548530Y377005D01*
X550769D01*
X553008Y377379D01*
X560097D01*
X564202Y377005D01*
X572784Y375886D01*
X573157D01*
X574650Y375513D01*
X577262Y374766D01*
X580247Y374020D01*
X583605Y372901D01*
X587336Y371035D01*
X591068Y369169D01*
X595172Y366931D01*
X595919Y366557D01*
X597411Y365438D01*
X599277Y363572D01*
X602262Y361333D01*
X604874Y357975D01*
X607859Y354244D01*
X610471Y349766D01*
X612337Y344915D01*
X612710Y343050D01*
X615695D01*
X619426Y342676D01*
X623531Y341557D01*
X628382Y340065D01*
X633606Y337453D01*
X638830Y333721D01*
X641069Y331482D01*
X643307Y328870D01*
X643680Y328124D01*
X645173Y326258D01*
X646666Y323273D01*
X648531Y319169D01*
X650024Y314318D01*
X650770Y308721D01*
Y302377D01*
X650024Y299019D01*
X649278Y295661D01*
X649651Y295288D01*
X650397Y294541D01*
X651890Y293422D01*
X653755Y291929D01*
X657487Y287825D01*
X658979Y285213D01*
X660472Y282228D01*
Y281855D01*
X660845Y281108D01*
X661591Y279243D01*
X662337Y277377D01*
X662711Y274765D01*
X663457Y272153D01*
X663830Y265437D01*
Y265063D01*
Y263944D01*
Y262078D01*
X663457Y259839D01*
X662711Y254615D01*
X660845Y248645D01*
Y248272D01*
X660099Y247526D01*
X659352Y246033D01*
X658233Y244167D01*
X656740Y242302D01*
X654875Y240063D01*
X652636Y238197D01*
X650024Y235958D01*
X650397Y235585D01*
X650770Y234466D01*
X651516Y232973D01*
X652263Y230734D01*
X653382Y225884D01*
X653755Y222899D01*
X653382Y219913D01*
Y219540D01*
X653009Y218421D01*
Y216928D01*
X652263Y215063D01*
X651143Y210212D01*
X648904Y204988D01*
X648531Y204241D01*
X647785Y202749D01*
X646666Y200510D01*
X644800Y197525D01*
X642188Y194167D01*
X639203Y190435D01*
X635471Y187077D01*
X631367Y183719D01*
X630994Y183346D01*
X629501Y182599D01*
X627262Y181853D01*
X624277Y181480D01*
X623904D01*
X622785Y181107D01*
X621292Y180360D01*
X620173Y178868D01*
X619800Y178495D01*
X619426Y177749D01*
X618307Y176256D01*
X616814Y174763D01*
X614949Y172525D01*
X613083Y170286D01*
X610471Y167674D01*
X607486Y164689D01*
X600396Y158718D01*
X592187Y153121D01*
X582485Y147897D01*
X577262Y145659D01*
X571664Y143793D01*
X571291D01*
X570545Y143420D01*
X569426D01*
X567933Y143046D01*
X566067Y142673D01*
X563829Y141927D01*
X558231Y141181D01*
X551515Y140435D01*
X544052Y139688D01*
X535843D01*
X527634Y140061D01*
X523156D01*
X526141Y123270D01*
Y122897D01*
Y122151D01*
X526514Y120658D01*
X526888Y118419D01*
Y116181D01*
X527261Y113195D01*
X527634Y109837D01*
X528007Y106106D01*
X528753Y97523D01*
X529127Y88195D01*
Y78493D01*
X528753Y68045D01*
X528380Y60956D01*
Y60583D01*
Y60210D01*
X527634Y57971D01*
X526141Y55359D01*
X525022Y54239D01*
X523156Y53120D01*
X522783D01*
X521291Y52747D01*
X518679Y52000D01*
X515694Y51627D01*
X511962Y51254D01*
X507858D01*
X503380Y51627D01*
X498902Y52747D01*
X498529D01*
X497410Y53120D01*
X495544Y53493D01*
X493305Y54239D01*
X492932D01*
X492559Y54985D01*
X490320Y56851D01*
X488454Y59836D01*
X487708Y62075D01*
X487335Y64314D01*
Y64687D01*
Y65060D01*
Y66180D01*
Y67672D01*
X487708Y71404D01*
X487335Y75881D01*
X486962Y81478D01*
X486215Y87449D01*
X485096Y94165D01*
X483230Y100509D01*
Y100882D01*
X482857Y101255D01*
X482111Y103494D01*
X480991Y106852D01*
X479126Y111330D01*
X476887Y116181D01*
X474275Y121778D01*
X470917Y127375D01*
X466812Y133345D01*
X466439Y133718D01*
X465320Y135211D01*
X463827Y137449D01*
X461588Y140435D01*
X458976Y143793D01*
X455991Y147524D01*
X448901Y154614D01*
X448528D01*
X447782Y154987D01*
X446663Y155360D01*
X444797D01*
X444051Y154987D01*
X442558Y154614D01*
X440319Y154241D01*
X437707Y153868D01*
X435095Y153495D01*
X428006D01*
X420170Y154241D01*
X415692Y154987D01*
X411587Y156480D01*
X407110Y157972D01*
X402632Y160211D01*
X398154Y163196D01*
X394050Y166554D01*
X393677Y166928D01*
X392557Y168047D01*
X390692Y169913D01*
X388453Y172525D01*
X386214Y175883D01*
X383975Y179614D01*
X382483Y184092D01*
X380990Y188943D01*
Y189316D01*
X380617Y190435D01*
X380244Y191928D01*
Y194167D01*
X376885Y192674D01*
X376139Y192301D01*
X374273Y191555D01*
X370915Y190062D01*
X366811Y188943D01*
X361960Y187450D01*
X356363Y186331D01*
X350019Y185958D01*
X342930D01*
X340691Y186331D01*
X337333Y187077D01*
X332855Y188197D01*
X328004Y190435D01*
X322780Y193047D01*
X317929Y196779D01*
X313078Y201629D01*
Y202003D01*
X312332Y202376D01*
X310467Y203122D01*
X307108D01*
X303004Y203495D01*
X298526Y204241D01*
X292929Y206107D01*
X287332Y209092D01*
X284720Y210958D01*
X282108Y213197D01*
X279496Y215809D01*
X277257Y218794D01*
Y219167D01*
X276884Y219540D01*
X275764Y222152D01*
X275018Y225137D01*
X274272Y228869D01*
Y229242D01*
Y229615D01*
Y232227D01*
Y235585D01*
X274645Y239317D01*
Y239690D01*
X275018Y240063D01*
X275391Y242302D01*
X276511Y245287D01*
X277630Y248272D01*
X277257D01*
X276884Y249018D01*
X274645Y250511D01*
X271660Y253123D01*
X268302Y256854D01*
X265317Y261705D01*
X262704Y267675D01*
X261585Y270660D01*
X261212Y274392D01*
X260839Y277750D01*
X261212Y281855D01*
Y282228D01*
X261585Y283720D01*
X261958Y285586D01*
X262704Y288198D01*
X263451Y290810D01*
X264943Y293795D01*
X266436Y296780D01*
X268675Y299392D01*
X269048Y299765D01*
X269794Y300512D01*
X271287Y301631D01*
X273152Y303124D01*
X275391Y304616D01*
X278376Y306482D01*
X281735Y307974D01*
X285466Y309094D01*
Y309467D01*
X285093Y310213D01*
X284720Y310960D01*
X284347Y312452D01*
X283600Y316557D01*
X283227Y321408D01*
X283600Y326631D01*
X284720Y332228D01*
X285466Y335214D01*
X286959Y338199D01*
X288451Y340811D01*
X290690Y343423D01*
X291436Y344169D01*
X292929Y345662D01*
X295914Y347527D01*
X299645Y349766D01*
X304123Y352005D01*
X309720Y353871D01*
X316064Y354617D01*
X322780D01*
Y354990D01*
X323153Y355736D01*
X323526Y357229D01*
X323900Y358721D01*
X325392Y362826D01*
X327258Y366931D01*
Y367304D01*
X328004Y368050D01*
X329497Y370289D01*
X332482Y372901D01*
X336213Y375886D01*
X336959Y376259D01*
X338452Y377005D01*
X340691Y377752D01*
X344049Y378871D01*
X347780Y379244D01*
X352258Y379617D01*
X356736Y378871D01*
X361587Y377379D01*
X361960Y377752D01*
X362333Y379244D01*
X363079Y381110D01*
X363825Y382976D01*
X364199Y383349D01*
X364945Y384468D01*
X366064Y385588D01*
X367557Y387453D01*
X372035Y391185D01*
X374273Y393050D01*
X377258Y394543D01*
X377632D01*
X378751Y395289D01*
X380244Y395662D01*
X382483Y396409D01*
X385094Y396782D01*
X388080Y397528D01*
X395169D01*
X395916Y397155D01*
X397035D01*
X398901Y396782D01*
X403005Y395662D01*
X407483Y394543D01*
X407856D01*
X408229Y394170D01*
X408975D01*
X410095Y394543D01*
X410468Y394916D01*
X410841Y395289D01*
X411961Y396036D01*
X413453Y396782D01*
X415319Y397901D01*
X417558Y399394D01*
X422782Y401633D01*
X429498Y403871D01*
X436961Y405364D01*
X445543D01*
X450021Y404991D01*
D02*
G37*
%LPC*%
G36*
X453379Y158718D02*
X457484Y154241D01*
X461588Y149763D01*
X464946Y145659D01*
X467932Y141554D01*
X470543Y138196D01*
X472409Y135211D01*
X472782Y134713D01*
X470543Y138196D01*
X467185Y143046D01*
X463827Y147524D01*
X460469Y151256D01*
X457484Y154241D01*
X455245Y156853D01*
X453752Y158345D01*
X453379Y158718D01*
D02*
G37*
G36*
X472782Y134713D02*
X473902Y132972D01*
X474435Y132119D01*
X474275Y132599D01*
X473902Y132972D01*
X473529Y133718D01*
X472782Y134713D01*
D02*
G37*
G36*
X474435Y132119D02*
X474648Y131479D01*
X475768Y129987D01*
X477260Y127375D01*
X478753Y124763D01*
X477633Y127002D01*
X474435Y132119D01*
D02*
G37*
G36*
X494798Y146405D02*
X497410Y145659D01*
X498529Y145472D01*
X503007Y144352D01*
X503380Y144166D01*
X503753D01*
X510118Y142630D01*
X511216Y142300D01*
X512708Y141927D01*
X513028D01*
X513853Y141728D01*
X514201Y141554D01*
X514574D01*
X513853Y141728D01*
X513455Y141927D01*
X513028D01*
X510118Y142630D01*
X507484Y143420D01*
X503753Y144166D01*
X503007Y144352D01*
X502634Y144539D01*
X501514Y144912D01*
X499648Y145285D01*
X498529Y145472D01*
X494798Y146405D01*
D02*
G37*
G36*
X453752Y159465D02*
X453379Y158718D01*
X453752Y159092D01*
Y159465D01*
D02*
G37*
G36*
X457111Y159092D02*
X456737D01*
X465320Y155733D01*
X473529Y152748D01*
X481738Y150136D01*
X487646Y148581D01*
X486215Y149017D01*
X478379Y151256D01*
X471290Y153868D01*
X465320Y155733D01*
X462708Y156853D01*
X460842Y157599D01*
X458976Y158345D01*
X457857Y158718D01*
X457111Y159092D01*
D02*
G37*
G36*
X487646Y148581D02*
X494798Y146405D01*
X488827Y148270D01*
X487646Y148581D01*
D02*
G37*
G36*
X522783Y81105D02*
X522490Y65860D01*
X522410Y65060D01*
Y63568D01*
Y62448D01*
Y62075D01*
Y61702D01*
X522037Y60210D01*
X522410Y61329D01*
Y61702D01*
X522490Y65860D01*
X522783Y68792D01*
Y74016D01*
Y79613D01*
Y81105D01*
D02*
G37*
G36*
X493305Y64314D02*
Y63941D01*
Y62448D01*
X494051Y60956D01*
X495544Y59836D01*
X495917Y59463D01*
X497783Y59090D01*
X495544Y59836D01*
X495171Y60210D01*
X494424Y60956D01*
X493678Y62075D01*
X493305Y64314D01*
D02*
G37*
G36*
X521291Y59090D02*
X519798Y58344D01*
X519425D01*
X517559Y57971D01*
X515320Y57598D01*
X512335Y57224D01*
X508604D01*
X504499Y57598D01*
X500022Y58344D01*
X503007Y57598D01*
X506738Y57224D01*
X510843Y56851D01*
X515320Y57224D01*
X520171Y58344D01*
X520544D01*
X521291Y59090D01*
D02*
G37*
G36*
X489275Y97175D02*
X491439Y87076D01*
X492186Y82225D01*
X492559Y77747D01*
X492932Y74016D01*
X493305Y70657D01*
Y71404D01*
X492932Y78120D01*
X492186Y84837D01*
X491066Y90807D01*
X489275Y97175D01*
D02*
G37*
G36*
X514947Y141554D02*
X514574D01*
X515320Y141367D01*
X515694Y141181D01*
X516253Y140994D01*
X516813Y140435D01*
X516999Y140061D01*
X517186Y139315D01*
X518305Y131852D01*
X518465Y130840D01*
X519574Y123494D01*
X520171Y118419D01*
X520917Y112449D01*
X521664Y107598D01*
X521291Y110583D01*
X520917Y113568D01*
X520544Y116181D01*
Y118046D01*
X520171Y119166D01*
Y119539D01*
X519574Y123494D01*
X519425Y124763D01*
X518465Y130840D01*
X517186Y139315D01*
Y139688D01*
X516999Y140061D01*
X516813Y140808D01*
X516253Y140994D01*
X516067Y141181D01*
X515320Y141367D01*
X514947Y141554D01*
D02*
G37*
G36*
X480618Y121031D02*
X482111Y117300D01*
X484350Y112822D01*
X486091Y108295D01*
X486464Y107101D01*
X487708Y102747D01*
X489275Y97175D01*
X489200Y97523D01*
X487708Y103121D01*
X486464Y107101D01*
X486215Y107971D01*
X486091Y108295D01*
X485842Y109091D01*
X483603Y115061D01*
X480618Y121031D01*
D02*
G37*
G36*
X521664Y107598D02*
X522037Y100135D01*
Y99762D01*
Y98643D01*
X522410Y96404D01*
Y94165D01*
Y91180D01*
X522783Y88195D01*
Y93419D01*
X522410Y100509D01*
Y100882D01*
Y101255D01*
Y102374D01*
X522037Y103867D01*
X521664Y107598D01*
D02*
G37*
G36*
X444051Y399767D02*
X439200D01*
X433976Y399394D01*
X428006Y398274D01*
X427980Y398264D01*
X426488Y396485D01*
X426388Y397627D01*
X422408Y396036D01*
X422035D01*
X421289Y395289D01*
X419797Y394543D01*
X418304Y393424D01*
X414199Y390438D01*
X410468Y385961D01*
X410095D01*
X408602Y386334D01*
X408229Y386707D01*
X406737Y387453D01*
X404871Y388573D01*
X401886Y390065D01*
X398901Y391185D01*
X394796Y391931D01*
X390692D01*
X386214Y391558D01*
X385841D01*
X384721Y391185D01*
X383229Y390811D01*
X381363Y390065D01*
X378751Y388946D01*
X376512Y387453D01*
X376220Y387286D01*
X375672Y386337D01*
X375524Y386889D01*
X373900Y385961D01*
X371661Y383722D01*
X371288Y383349D01*
X370915Y382602D01*
X369796Y381483D01*
X369049Y379617D01*
X368303Y377379D01*
X367557Y374766D01*
X367184Y372154D01*
Y368796D01*
X366811Y367677D01*
X362706Y369916D01*
X362333Y370289D01*
X360840Y371035D01*
X358975Y371781D01*
X356363Y372528D01*
X353378Y373274D01*
X350019Y373647D01*
X346661D01*
X342930Y372528D01*
X342557D01*
X341437Y371781D01*
X339571Y370662D01*
X337706Y369169D01*
X335467Y367304D01*
X333228Y364692D01*
X333107Y364510D01*
X333014Y364163D01*
X332949Y364274D01*
X330989Y361333D01*
X329497Y357229D01*
X327631Y347154D01*
X326138Y347527D01*
X325392Y347900D01*
X323153Y348273D01*
X320168Y348647D01*
X316064D01*
X311586Y348273D01*
X306362Y347154D01*
X301511Y344542D01*
X298899Y343050D01*
X296287Y340811D01*
X295914Y340438D01*
X295168Y339318D01*
X293675Y337826D01*
X292183Y335587D01*
X290690Y332602D01*
X290183Y331251D01*
X290248Y330506D01*
X289987Y330726D01*
X289571Y329616D01*
X288824Y325885D01*
X288451Y322154D01*
Y321781D01*
X288824Y320288D01*
X289197Y318422D01*
X289944Y316183D01*
X290690Y313198D01*
X292183Y310213D01*
X294048Y307228D01*
X296660Y304243D01*
X297033Y303870D01*
X297780Y303124D01*
X298899Y302377D01*
X300392Y301258D01*
X304496Y298646D01*
X306735Y297900D01*
X309347Y297153D01*
X310467D01*
X311959Y296780D01*
X313825D01*
X318675Y297153D01*
X324273Y297900D01*
X324646D01*
X325019Y298273D01*
X327258Y299019D01*
X329870Y300138D01*
X333228Y301631D01*
X333601D01*
X333974Y302004D01*
X335467Y302377D01*
X337333D01*
X338079Y302004D01*
X338452Y301258D01*
Y300885D01*
X338825Y300138D01*
Y299019D01*
X338452Y297900D01*
X337706Y297527D01*
X336959Y297153D01*
X335840Y296407D01*
X330616Y294168D01*
X330243Y293795D01*
X328750Y293422D01*
X326512Y292676D01*
X323900Y291929D01*
X320541Y291183D01*
X316810Y290810D01*
X313078D01*
X308974Y291183D01*
X308601D01*
X307108Y291556D01*
X305242Y292302D01*
X302630Y293422D01*
X299645Y294915D01*
X296287Y297153D01*
X293302Y299765D01*
X289944Y303124D01*
X289571Y303497D01*
X288078Y303870D01*
X287705D01*
X286585Y303497D01*
X284720Y303124D01*
X282854Y302004D01*
X280242Y300885D01*
X278003Y299392D01*
X275391Y297527D01*
X273152Y295288D01*
X272779Y294915D01*
X271660Y293422D01*
X270540Y291183D01*
X269048Y287825D01*
X267929Y284093D01*
X267182Y279989D01*
X266809Y275511D01*
X267919Y270331D01*
X269250Y269000D01*
X268233D01*
X268302Y268795D01*
X269048Y266929D01*
X269794Y264690D01*
X271287Y262451D01*
X273152Y259839D01*
X275391Y257227D01*
X278376Y254989D01*
X278750Y254615D01*
X280242Y254242D01*
X282108D01*
X282854Y254989D01*
X283974Y255735D01*
X284347Y256108D01*
X285093Y256854D01*
X286959Y258347D01*
X288824Y259839D01*
X291436Y261705D01*
X294421Y263198D01*
X298153Y264317D01*
X301884Y265437D01*
X303377D01*
X305242Y265810D01*
X307481D01*
X312705Y265063D01*
X315690Y264690D01*
X318675Y263571D01*
X319049Y263198D01*
X319795Y262825D01*
X320541Y261705D01*
Y259839D01*
Y259466D01*
X319795Y258720D01*
X318675Y257974D01*
X317183Y258347D01*
X314944Y258720D01*
X314198D01*
X312332Y259093D01*
X309720Y259466D01*
X305989D01*
X301884Y259093D01*
X297407Y257974D01*
X292929Y256481D01*
X288451Y253496D01*
X288078Y253123D01*
X287332Y252750D01*
X286585Y251630D01*
X285093Y250138D01*
X282481Y246779D01*
X280242Y242302D01*
Y241929D01*
X279869Y241182D01*
Y240063D01*
X279496Y238570D01*
Y234093D01*
X280242Y228869D01*
Y228496D01*
X280988Y227003D01*
X281735Y224764D01*
X283227Y221779D01*
X285093Y219167D01*
X288078Y216182D01*
X291436Y213570D01*
X295914Y211331D01*
X296287D01*
X297407Y210958D01*
X299272Y210212D01*
X301884Y209839D01*
X304496Y209466D01*
X307855D01*
X311213Y209839D01*
X314571Y210585D01*
X314944Y210212D01*
X315317Y209092D01*
X316437Y207600D01*
X317556Y205734D01*
X319422Y203495D01*
X321661Y201629D01*
X323900Y199391D01*
X326885Y197525D01*
X327258Y197152D01*
X328750Y196779D01*
X330989Y195659D01*
X333974Y194913D01*
X337333Y193794D01*
X341437Y192674D01*
X342895Y192542D01*
X344350Y193220D01*
X344064Y192435D01*
X345542Y192301D01*
X350019Y191928D01*
X353004D01*
X355243Y192301D01*
X360467Y193047D01*
X366064Y194540D01*
X366438D01*
X367557Y194913D01*
X368676Y195659D01*
X370542Y196779D01*
X375020Y199764D01*
X377258Y201629D01*
X379497Y203868D01*
X380244Y204615D01*
X381736Y206107D01*
X383975Y208346D01*
X386587Y210585D01*
X386960Y210958D01*
X387706Y211331D01*
X388826Y212451D01*
X390318Y213570D01*
X393677Y216555D01*
X398154Y219540D01*
X398528Y219913D01*
X400020Y220660D01*
X402259Y221779D01*
X404871Y223272D01*
X408602Y224391D01*
X412334Y225511D01*
X416811Y226257D01*
X421662Y226630D01*
X439573D01*
X450021Y227376D01*
X450767D01*
X452260Y227749D01*
X454498Y228122D01*
X457484Y228869D01*
X461215Y229988D01*
X464946Y231108D01*
X473155Y234093D01*
X473529Y234466D01*
X475021Y234839D01*
X477260Y235958D01*
X479872Y237451D01*
X482857Y239317D01*
X486215Y241182D01*
X493678Y246406D01*
X498902Y250138D01*
X499275Y250511D01*
X501141D01*
X502634Y249391D01*
X503007Y249018D01*
X503380Y248272D01*
Y247153D01*
X503007Y246406D01*
X502260Y245660D01*
X501141Y244541D01*
X500395Y244167D01*
X498529Y242302D01*
X495544Y240063D01*
X491813Y237451D01*
X486962Y234466D01*
X481365Y231481D01*
X475394Y228496D01*
X468678Y225884D01*
X468305D01*
X467932Y225511D01*
X466812D01*
X465320Y225137D01*
X461215Y224018D01*
X456364Y223272D01*
X450021Y222525D01*
X443304Y221779D01*
X435842Y221406D01*
X428379Y221779D01*
X424647D01*
X420916Y221033D01*
X415692Y220286D01*
X410095Y218421D01*
X403752Y215809D01*
X397781Y212077D01*
X394796Y209466D01*
X391811Y206854D01*
X391438Y206480D01*
X390692Y204988D01*
X389199Y202749D01*
X388080Y200137D01*
X387333Y196406D01*
X386960Y192674D01*
X387333Y188570D01*
X388826Y184092D01*
Y183719D01*
X389199Y183346D01*
X390692Y181107D01*
X392930Y178122D01*
X395916Y174390D01*
X399647Y170659D01*
X404498Y166928D01*
X410095Y163569D01*
X416438Y160957D01*
X416811D01*
X417184Y160584D01*
X419423Y160211D01*
X423155Y159838D01*
X427632Y159465D01*
X433229Y159838D01*
X439200Y160957D01*
X445543Y162823D01*
X451887Y165808D01*
X452260D01*
X453006Y166181D01*
X455991D01*
X457484Y165808D01*
X459349D01*
X461588Y165435D01*
X464573Y165062D01*
X467932Y164689D01*
X475394Y164315D01*
X478006D01*
X479872Y164689D01*
X483977Y165435D01*
X488454Y166554D01*
X488827D01*
X489574Y166928D01*
X490693Y167674D01*
X492186Y168793D01*
X495544Y171405D01*
X498902Y175510D01*
X499275Y175883D01*
X499648Y176629D01*
X500395Y178122D01*
X501141Y179987D01*
X501887Y179614D01*
X503753Y179241D01*
X506365Y178495D01*
X509723Y177749D01*
X513455Y177002D01*
X520917D01*
X524276Y178122D01*
X524649Y178495D01*
X525768Y178868D01*
X526815Y179915D01*
X526800D01*
Y180433D01*
X526671Y179915D01*
X526541D01*
X526411Y180433D01*
Y179915D01*
X526282D01*
Y180628D01*
X526476D01*
Y180563D01*
X526541Y180368D01*
X526606Y180174D01*
X526736Y180628D01*
X526995D01*
Y180095D01*
X527261Y180360D01*
X529500Y182226D01*
X532112Y184838D01*
X535097Y188570D01*
X538082Y193047D01*
X541067Y198644D01*
X543679Y197898D01*
X544052D01*
X545171Y197525D01*
X546664Y197152D01*
X548903Y196779D01*
X551142Y196406D01*
X554127Y196032D01*
X560097Y194913D01*
X561963D01*
X564202Y195286D01*
X566440Y195659D01*
X569426Y196779D01*
X572411Y198644D01*
X575023Y200883D01*
X577262Y204241D01*
X579127Y211331D01*
Y211704D01*
X579500Y212077D01*
X580993Y213197D01*
X581366D01*
X582485Y213570D01*
X583978Y214316D01*
X585844Y215063D01*
X590695Y216555D01*
X595919Y218794D01*
X596665Y219167D01*
X598157Y219913D01*
X600023Y221779D01*
X602635Y224018D01*
X604874Y226630D01*
X606740Y230361D01*
X607859Y234839D01*
X608232Y240063D01*
Y240436D01*
X607859Y241556D01*
Y243048D01*
X607113Y244914D01*
X606366Y246779D01*
X605247Y249018D01*
X603381Y251257D01*
X601516Y253123D01*
X601143Y253496D01*
X600396Y253869D01*
X599277Y254615D01*
X597411Y255735D01*
X595545Y256481D01*
X592933Y257227D01*
X586963D01*
X586217Y256854D01*
X584724Y256481D01*
X582859Y256108D01*
X578381Y253869D01*
X576515Y252377D01*
X574276Y250511D01*
X573903Y250138D01*
X572784Y249391D01*
X570918D01*
X570172Y250138D01*
X569799Y250511D01*
X569426Y252003D01*
Y252377D01*
Y252750D01*
X569799Y253496D01*
X570172Y253869D01*
X570545Y254242D01*
X571291Y254989D01*
X572411Y256108D01*
X573903Y257600D01*
X576142Y259093D01*
X578381Y260586D01*
X581366Y262078D01*
X584351Y262825D01*
X584724D01*
X585844Y263198D01*
X587336D01*
X589575Y263571D01*
X592187Y263198D01*
X595172Y262825D01*
X598157Y262078D01*
X601143Y260959D01*
X601516Y260586D01*
X603008Y259839D01*
X604874Y257974D01*
X607113Y255735D01*
X609352Y252750D01*
X611590Y249391D01*
X613083Y245287D01*
X614202Y240809D01*
Y240063D01*
Y238570D01*
Y236332D01*
X613829Y232973D01*
X612710Y229615D01*
X611217Y225884D01*
X608979Y222152D01*
X605993Y218421D01*
X605620Y218048D01*
X604501Y217301D01*
X603008Y216182D01*
X600396Y214689D01*
X597784Y212824D01*
X594426Y211331D01*
X591068Y209839D01*
X586963Y208719D01*
X586590D01*
X585844Y208346D01*
X584724Y207227D01*
X583978Y205734D01*
Y205361D01*
X583605Y204988D01*
X582859Y203122D01*
X581366Y200137D01*
X579127Y196779D01*
X578754Y196406D01*
X578008Y195659D01*
X576515Y194540D01*
X574650Y193047D01*
X572411Y191555D01*
X569799Y190435D01*
X566814Y189689D01*
X563455Y189316D01*
X561963D01*
X560097Y189689D01*
X554500D01*
X551142Y190062D01*
X543679Y190808D01*
X540694Y185584D01*
X540321Y185211D01*
X539574Y184092D01*
X538455Y182599D01*
X536589Y180360D01*
X534350Y178495D01*
X531739Y176256D01*
X528753Y174017D01*
X525395Y172525D01*
X525022D01*
X523903Y172152D01*
X522037Y171405D01*
X519425Y171032D01*
X516440Y170659D01*
X513082D01*
X509350Y171032D01*
X505619Y172152D01*
X503753D01*
X502634Y171032D01*
X502260Y170659D01*
X501887Y169913D01*
X500768Y168793D01*
X499275Y167301D01*
X497410Y165435D01*
X495171Y163942D01*
X492559Y162077D01*
X489574Y160957D01*
X489200D01*
X488827Y160584D01*
X487708D01*
X486215Y160211D01*
X482484Y159092D01*
X478006Y157972D01*
X480991Y156853D01*
X481365D01*
X482111Y156480D01*
X483230Y156106D01*
X484723Y155733D01*
X486962Y154987D01*
X489200Y154614D01*
X495171Y153121D01*
X501887Y151256D01*
X509350Y149763D01*
X517559Y147897D01*
X526141Y146778D01*
X526888D01*
X528380Y146405D01*
X531365D01*
X534724Y146032D01*
X543306D01*
X553008Y146405D01*
X553754D01*
X555246Y146778D01*
X557858Y147151D01*
X561216Y147897D01*
X565321Y148644D01*
X569799Y149763D01*
X579500Y153121D01*
X579874D01*
X580247Y153495D01*
X582485Y154614D01*
X585844Y156106D01*
X587090Y156854D01*
X587845Y158928D01*
X588436Y157661D01*
X589575Y158345D01*
X594426Y161704D01*
X599277Y165435D01*
X604128Y169539D01*
X608605Y174763D01*
X608979Y175137D01*
X609725Y175883D01*
X610844Y177375D01*
X611964Y178868D01*
X615695Y183346D01*
X619800Y188570D01*
X620173D01*
X621292Y188197D01*
X623158Y187823D01*
X625024Y188197D01*
X625397D01*
X626516Y188943D01*
X628382Y189316D01*
X630247Y190435D01*
X630621D01*
X630994Y191182D01*
X632113Y192674D01*
X632486Y193047D01*
X633979Y194913D01*
X636218Y197152D01*
X638830Y200510D01*
X641442Y204615D01*
X643311Y208086D01*
X642995Y209878D01*
X643925Y209227D01*
X644054Y209466D01*
X646292Y214689D01*
X647785Y220660D01*
Y221033D01*
Y221406D01*
X648158Y223645D01*
X647785Y226630D01*
X647039Y229615D01*
Y229988D01*
X646666Y230361D01*
X645919Y231854D01*
X644054Y234093D01*
X641069Y236332D01*
X638456Y238197D01*
X638830D01*
X640322Y238570D01*
X641442Y239317D01*
X642934Y239690D01*
X643307D01*
X644054Y240063D01*
X645546Y240809D01*
X647039Y241556D01*
X650770Y244541D01*
X652263Y246406D01*
X653755Y248645D01*
Y249018D01*
X654501Y249765D01*
X654875Y251257D01*
X655621Y253123D01*
X657114Y257600D01*
X657860Y263198D01*
Y263571D01*
Y265063D01*
Y266929D01*
Y269541D01*
X657487Y272526D01*
X657276Y273474D01*
X656750Y274000D01*
X657159D01*
X656740Y275884D01*
X655994Y279616D01*
X654501Y282974D01*
Y283347D01*
X653755Y284093D01*
X652636Y285586D01*
X651516Y287079D01*
X649651Y288571D01*
X647412Y290064D01*
X644800Y291556D01*
X641815Y292302D01*
Y292676D01*
X642561Y293795D01*
X642934Y295661D01*
X643680Y297900D01*
X644427Y300512D01*
X644800Y303497D01*
X645173Y306482D01*
Y309467D01*
Y309840D01*
Y310960D01*
X644800Y312452D01*
X644427Y314691D01*
X643680Y317303D01*
X642561Y319915D01*
X641069Y322527D01*
X639203Y325512D01*
X638830Y325885D01*
X638083Y326631D01*
X636964Y328124D01*
X635471Y329616D01*
X631422Y332930D01*
X628409D01*
X629668Y334189D01*
X628755Y334840D01*
X625770Y335960D01*
X625397D01*
X624277Y336333D01*
X622785Y336706D01*
X620546Y337079D01*
X617934Y337453D01*
X611964D01*
X608232Y336706D01*
Y337079D01*
Y337453D01*
X607859Y338572D01*
Y338945D01*
X607486Y340438D01*
X607113Y342303D01*
X605993Y344542D01*
X603755Y350139D01*
X601889Y353124D01*
X599650Y355736D01*
X599277Y356109D01*
X598530Y356856D01*
X597411Y358348D01*
X595545Y359841D01*
X593307Y361333D01*
X590695Y363199D01*
X587336Y365065D01*
X583978Y366557D01*
X583605D01*
X582859Y366931D01*
X581739Y367304D01*
X579874Y368050D01*
X577635Y368423D01*
X575023Y369169D01*
X570913Y369895D01*
X568907Y368737D01*
X569294Y370180D01*
X568679Y370289D01*
X561216Y371035D01*
X553008Y371408D01*
X544425Y370662D01*
X539574Y369916D01*
X535097Y368796D01*
X534724D01*
X534350Y368423D01*
X532485Y368050D01*
X529500Y366931D01*
X526514Y365811D01*
Y366184D01*
X526141Y366557D01*
X525395Y368796D01*
X523529Y372154D01*
X520917Y376259D01*
X517559Y380364D01*
X513082Y384841D01*
X507484Y388573D01*
X500768Y391931D01*
X500395D01*
X500022Y392304D01*
X498902Y392677D01*
X497410Y393050D01*
X494051Y394170D01*
X489574Y394916D01*
X488247Y395011D01*
X486907Y394237D01*
X487136Y395090D01*
X484350Y395289D01*
X479126D01*
X474275Y394170D01*
X469424Y391931D01*
Y391558D01*
X469797Y390811D01*
X470543Y389692D01*
X471290Y388199D01*
X472409Y384468D01*
X473529Y379990D01*
Y379617D01*
Y378871D01*
X473902Y377752D01*
Y376259D01*
X473155Y372154D01*
X472782Y369916D01*
X471663Y367677D01*
Y367304D01*
X471290Y366557D01*
X470543Y365438D01*
X469424Y363945D01*
X466812Y360587D01*
X463454Y357602D01*
X463081D01*
X462708Y356856D01*
X461588Y356483D01*
X460096Y355363D01*
X456364Y353498D01*
X451887Y351632D01*
Y351259D01*
X452260Y350139D01*
X453006Y348647D01*
X453752Y346408D01*
X454125Y343796D01*
X454872Y340811D01*
X455245Y334840D01*
Y334467D01*
Y333348D01*
Y331855D01*
X454872Y329990D01*
X453379Y324766D01*
X452260Y322154D01*
X450767Y319169D01*
X451140Y318795D01*
X452633Y318049D01*
X454872Y316557D01*
X457857Y315437D01*
X461215Y314318D01*
X464946Y313198D01*
X469051D01*
X473155Y313572D01*
X473529D01*
X475021Y314318D01*
X477260Y315064D01*
X479872Y316557D01*
X482857Y318795D01*
X486215Y321408D01*
X489947Y324766D01*
X493305Y329243D01*
X491439Y330736D01*
X491066Y331109D01*
X490320Y331482D01*
X489574Y332602D01*
X488081Y334094D01*
X485096Y337826D01*
X482484Y343050D01*
Y343423D01*
Y344169D01*
Y345288D01*
X483230Y346408D01*
X483603D01*
X483977Y346781D01*
X485096Y347154D01*
X486588D01*
X486962Y346781D01*
X488081Y344915D01*
X488454Y344542D01*
X488827Y343796D01*
X489574Y342303D01*
X491066Y340438D01*
X494051Y336333D01*
X498529Y332602D01*
X498902D01*
X499648Y331855D01*
X501141Y331482D01*
X503007Y330736D01*
X505245Y329990D01*
X507858Y329616D01*
X510843D01*
X514201Y329990D01*
X530619Y332602D01*
X532112D01*
X533604Y332228D01*
X534350Y331109D01*
X534724Y330363D01*
X535470Y328870D01*
X536962Y327005D01*
X538455Y324766D01*
X538828Y324393D01*
X539574Y324019D01*
X540694Y322900D01*
X542186Y322154D01*
X545918Y319915D01*
X550395Y318049D01*
X550769D01*
X551515Y317676D01*
X553008D01*
X554500Y317303D01*
X565321D01*
X566067Y317676D01*
X567560D01*
X570918Y318422D01*
X574650Y319169D01*
Y318795D01*
X575023Y318049D01*
X575396Y316557D01*
X576142Y315064D01*
X577635Y310586D01*
X579500Y305736D01*
X579874Y305362D01*
X580620Y303870D01*
X582112Y302004D01*
X583978Y300138D01*
X586963Y298273D01*
X589948Y297153D01*
X594053Y296407D01*
X598530Y297153D01*
X601143Y298273D01*
X601516D01*
X602635Y298646D01*
X604128Y298273D01*
X605247Y296780D01*
Y296407D01*
Y295288D01*
X604874Y293795D01*
X604128Y293422D01*
X603008Y292676D01*
X602635D01*
X601516Y292302D01*
X600023Y291556D01*
X597784Y291183D01*
X592933Y290437D01*
X589948D01*
X586963Y291183D01*
X586590D01*
X585844Y291556D01*
X584351Y292302D01*
X582859Y293422D01*
X580993Y294915D01*
X579127Y296780D01*
X577262Y299019D01*
X575396Y302004D01*
Y302377D01*
X575023Y302750D01*
X573530Y304989D01*
X572038Y307974D01*
X570545Y312079D01*
X570172D01*
X568306Y311706D01*
X566067Y311333D01*
X563082D01*
X559724Y310960D01*
X555993Y311333D01*
X551888Y311706D01*
X548157Y312452D01*
X547784D01*
X546664Y313198D01*
X544798Y314318D01*
X542186Y315437D01*
X539574Y317676D01*
X536962Y320288D01*
X533977Y323273D01*
X531365Y327378D01*
X530992D01*
X529873Y327005D01*
X528380Y326258D01*
X526514Y325885D01*
X521291Y324393D01*
X515694Y323273D01*
X510843D01*
X508231Y323646D01*
X505619Y324019D01*
X499648Y325512D01*
X499275D01*
X498529Y325139D01*
X497783Y324393D01*
X497410Y324019D01*
X497037Y323646D01*
X494798Y321034D01*
X491439Y318049D01*
X487335Y314318D01*
X486962Y313945D01*
X485469Y312825D01*
X483230Y311706D01*
X480245Y310213D01*
X476514Y308721D01*
X472409Y307974D01*
X467558Y307601D01*
X462708Y307974D01*
X462334D01*
X461215Y308348D01*
X459723Y308721D01*
X457484Y309467D01*
X452633Y310960D01*
X447409Y313945D01*
X432856Y306109D01*
X434722Y300885D01*
Y300512D01*
X435095Y299765D01*
X435468Y298273D01*
X435842Y296407D01*
X436215Y291556D01*
X435842Y286332D01*
Y285959D01*
Y285213D01*
X435468Y283720D01*
X434722Y282228D01*
X433229Y277750D01*
X431737Y275511D01*
X430244Y272899D01*
X429871Y272526D01*
X429125Y271780D01*
X428006Y270660D01*
X426140Y268795D01*
X424274Y267302D01*
X421662Y265437D01*
X418677Y263944D01*
X415319Y262451D01*
X414946D01*
X414199Y261705D01*
X413080Y260586D01*
X412707Y259093D01*
Y258720D01*
Y258347D01*
X412334Y256108D01*
X411214Y252750D01*
X409722Y248645D01*
X407483Y244167D01*
X404125Y239690D01*
X399647Y235585D01*
X396662Y233720D01*
X393677Y232227D01*
X392930Y231854D01*
X391438Y231481D01*
X388826Y230734D01*
X385094Y229615D01*
X380990Y228869D01*
X376512Y228122D01*
X371288D01*
X366064Y228496D01*
X365691D01*
X364199Y228869D01*
X362333Y229242D01*
X360094Y229615D01*
X357109Y230734D01*
X354124Y232227D01*
X351139Y234093D01*
X348154Y236332D01*
X347780Y236705D01*
X346661Y237824D01*
X345168Y239690D01*
X343303Y241929D01*
X341437Y244914D01*
X339571Y248645D01*
X338079Y252750D01*
X336959Y257227D01*
Y257600D01*
X337333Y258720D01*
X338079Y259839D01*
X339571Y260586D01*
X341437D01*
X342557Y259839D01*
X342930Y257974D01*
X343303Y257227D01*
Y256481D01*
X344049Y254242D01*
X345168Y251257D01*
X346661Y247899D01*
X349273Y244167D01*
X352631Y240436D01*
X356736Y237078D01*
X362333Y234839D01*
X363079D01*
X364199Y234466D01*
X365691Y234093D01*
X369049Y233720D01*
X373527D01*
X379124Y234093D01*
X384721Y235212D01*
X391065Y237451D01*
X397035Y240809D01*
X397408Y241182D01*
X398528Y241929D01*
X399647Y243048D01*
X401513Y244541D01*
X403005Y246779D01*
X404498Y249018D01*
X405990Y252003D01*
X406737Y255362D01*
Y255735D01*
Y256108D01*
Y258347D01*
Y261705D01*
Y265810D01*
X407110D01*
X407856Y266183D01*
X409349Y266556D01*
X411214Y267302D01*
X415319Y268795D01*
X419797Y271034D01*
X420170Y271407D01*
X420916Y271780D01*
X423155Y274019D01*
X426140Y277377D01*
X428752Y282228D01*
Y282601D01*
X429125Y283347D01*
X429498Y284840D01*
X429871Y286705D01*
X430618Y291556D01*
X430244Y294168D01*
X429871Y296780D01*
Y297153D01*
X429498Y297900D01*
X429125Y299392D01*
X428752Y301258D01*
X426886Y305362D01*
X424647Y310213D01*
X425020D01*
X425394Y310586D01*
X427632Y311333D01*
X430618Y312079D01*
X434349Y313198D01*
X434722D01*
X435468Y313572D01*
X436961Y314318D01*
X438453Y315437D01*
X442185Y317676D01*
X445543Y321034D01*
X445916Y321408D01*
X446289Y322154D01*
X447036Y323273D01*
X447782Y324766D01*
X448901Y328497D01*
X449648Y331109D01*
Y333721D01*
Y334094D01*
Y335214D01*
Y337079D01*
X449274Y339318D01*
X448901Y342303D01*
X448155Y345288D01*
X447409Y348273D01*
X445916Y351632D01*
X444424Y354244D01*
X444797D01*
X445543Y354990D01*
X447036Y355736D01*
X448901Y356483D01*
X453752Y358721D01*
X458603Y361333D01*
X458976Y361707D01*
X460469Y362826D01*
X461961Y364319D01*
X463827Y366557D01*
X465693Y369169D01*
X467185Y372528D01*
X467932Y376259D01*
Y380737D01*
Y381483D01*
X467558Y382976D01*
X466812Y384841D01*
X465693Y387826D01*
X463827Y390438D01*
X461588Y393424D01*
X458603Y396036D01*
X454498Y398274D01*
X453752Y398647D01*
X451513Y399021D01*
X448528Y399394D01*
X444051Y399767D01*
D02*
G37*
G36*
X454125Y159838D02*
X453752D01*
X454312Y159745D01*
X454872Y159465D01*
X456271Y159185D01*
X456364Y159092D01*
X456737D01*
X456271Y159185D01*
X455991Y159465D01*
X454312Y159745D01*
X454125Y159838D01*
D02*
G37*
%LPD*%
G36*
X532112Y286705D02*
X532858D01*
X534350Y285959D01*
X536589Y284840D01*
X539574Y283720D01*
X542933Y281482D01*
X546291Y278870D01*
X549276Y275511D01*
X551888Y271407D01*
X552261Y271034D01*
X553008Y269168D01*
X553754Y266929D01*
X554500Y263944D01*
X555246Y260212D01*
Y255735D01*
X554500Y251257D01*
X553008Y246406D01*
Y246033D01*
X552261Y244914D01*
X551515Y243421D01*
X550395Y241182D01*
X547037Y236332D01*
X542186Y231854D01*
X541813Y231481D01*
X541067Y231108D01*
X539574Y229988D01*
X537709Y228496D01*
X535470Y227376D01*
X532858Y225884D01*
X526888Y222899D01*
X526514D01*
X525768Y222525D01*
X524276Y222152D01*
X522783Y221406D01*
X518305Y219913D01*
X513455Y218421D01*
X513082D01*
X512335Y218048D01*
X509723Y216928D01*
X508977Y216555D01*
X507111Y214689D01*
X504126Y212451D01*
X500022Y209839D01*
X494798Y207227D01*
X489200Y204615D01*
X482857Y202376D01*
X475768Y200510D01*
X472409D01*
X469051Y200137D01*
X464573D01*
X462708Y199764D01*
X462334Y199391D01*
X460842Y198644D01*
X458976Y197152D01*
X456364Y195659D01*
X453006Y193794D01*
X449274Y192301D01*
X445170Y190808D01*
X440692Y189689D01*
X436215Y188570D01*
X435842D01*
X434722Y187823D01*
X433229Y187077D01*
X432110Y185584D01*
X431737Y185211D01*
X431364Y184092D01*
Y182599D01*
Y181107D01*
X431737Y180734D01*
X432110Y179987D01*
X433229Y179241D01*
X434722Y178122D01*
X435095D01*
X436588Y177749D01*
X438080D01*
X440319Y178122D01*
X441066D01*
X441439Y178495D01*
X443304Y178868D01*
X443677D01*
X444051Y178495D01*
X444797Y178122D01*
X445170Y176629D01*
Y176256D01*
Y175137D01*
X444797Y173644D01*
X444051Y172898D01*
X442931Y172525D01*
X442185Y172152D01*
X440319Y171778D01*
X437707D01*
X434349Y172152D01*
X433603Y172525D01*
X431737Y173271D01*
X429498Y174763D01*
X426886Y177375D01*
Y177749D01*
X426513Y178122D01*
X425767Y179987D01*
X425394Y182599D01*
Y184465D01*
X425767Y185958D01*
Y186331D01*
X426140Y186704D01*
X427259Y188570D01*
X429125Y190808D01*
X432483Y192674D01*
X432856D01*
X433229Y193047D01*
X434349Y193420D01*
X435842Y194167D01*
X439573Y195659D01*
X444051Y196779D01*
X444424D01*
X445543Y197152D01*
X447409Y197898D01*
X450021Y198644D01*
X455245Y201256D01*
X458230Y203122D01*
X461215Y205361D01*
X461588Y205734D01*
X461961Y206107D01*
X462708Y206480D01*
X463454Y206854D01*
X463827D01*
X464573Y206480D01*
X465693D01*
X467185Y206107D01*
X470543Y205734D01*
X474648Y206107D01*
X475021D01*
X475768Y206480D01*
X476887D01*
X478006Y206854D01*
X481738Y207973D01*
X485842Y209092D01*
X486588Y209466D01*
X488081Y209839D01*
X490320Y210958D01*
X493305Y212451D01*
X497037Y214316D01*
X500768Y216928D01*
X504499Y219540D01*
X508231Y222899D01*
X508604Y223272D01*
X509350Y223645D01*
X510469Y224018D01*
X512335Y224391D01*
X513082D01*
X515320Y225137D01*
X518305Y225884D01*
X522410Y227376D01*
X526888Y229242D01*
X531739Y231481D01*
X536962Y234839D01*
X541813Y238944D01*
X542186Y239317D01*
X542933Y240063D01*
X544052Y241556D01*
X545171Y243421D01*
X547784Y247899D01*
X548903Y250511D01*
X549649Y253123D01*
Y253496D01*
X550022Y254615D01*
Y256108D01*
Y257974D01*
X549649Y262825D01*
X548903Y265437D01*
X547784Y268048D01*
X547410Y268422D01*
X547037Y269168D01*
X545918Y270660D01*
X544798Y272526D01*
X540694Y276257D01*
X538455Y277750D01*
X535843Y279243D01*
X535470D01*
X534724Y279616D01*
X533231Y280362D01*
X531365Y280735D01*
X528753Y281108D01*
X526141Y281482D01*
X523156Y281108D01*
X519798Y280735D01*
X519052D01*
X517186Y279989D01*
X514574Y278870D01*
X511216Y277377D01*
X507111Y275511D01*
X502634Y272899D01*
X498529Y269914D01*
X494424Y266183D01*
X491813Y263198D01*
X490693Y262451D01*
Y262825D01*
X490320Y263198D01*
X488827Y265063D01*
X486588Y267302D01*
X483603Y268795D01*
X482857Y269168D01*
X480991Y269541D01*
X478379Y270287D01*
X475021Y270660D01*
X471290D01*
X469051Y270287D01*
X466439Y269914D01*
X463454Y268795D01*
X460469Y267302D01*
X457484Y265063D01*
X457111Y264690D01*
X456364Y263944D01*
X455618Y262825D01*
X454498Y261332D01*
X453379Y259093D01*
X452260Y256854D01*
X451513Y254242D01*
Y251257D01*
Y250884D01*
Y250138D01*
X451140Y248645D01*
X450394Y247526D01*
X450021Y247153D01*
X448901Y246779D01*
X448528D01*
X447782Y247153D01*
X447409Y247526D01*
X447036Y247899D01*
X446289Y249018D01*
X445916Y250511D01*
Y250884D01*
Y252003D01*
Y253496D01*
X446289Y255362D01*
X447036Y260212D01*
X448155Y262825D01*
X449648Y265437D01*
X450021Y265810D01*
X450394Y266556D01*
X451513Y267675D01*
X453006Y269168D01*
X456737Y272153D01*
X458976Y273272D01*
X461588Y274392D01*
X461961D01*
X463081Y274765D01*
X464573Y275138D01*
X466439Y275511D01*
X471290Y276631D01*
X477633D01*
X479126Y276257D01*
X480991Y275884D01*
X485842Y274392D01*
X488454Y273272D01*
X491066Y271780D01*
X491439Y272153D01*
X491813Y272526D01*
X494424Y274392D01*
X497783Y277004D01*
X501514Y279989D01*
X502260Y280362D01*
X504126Y281482D01*
X506738Y282601D01*
X510469Y284093D01*
X514947Y285586D01*
X520171Y286705D01*
X526141Y287079D01*
X532112Y286705D01*
D02*
G37*
G36*
X511311Y192682D02*
X510403Y191775D01*
X510144Y192099D01*
X509885Y192293D01*
X509950Y192358D01*
X510144Y192617D01*
X510403Y192877D01*
X510663Y193201D01*
X511311Y192682D01*
D02*
G37*
G36*
X506709Y194950D02*
X507098Y194886D01*
X507617Y194756D01*
X508265Y194562D01*
X508913Y194302D01*
X509626Y193978D01*
X510274Y193589D01*
X510339Y193460D01*
X510274Y193395D01*
X510079Y193201D01*
X509820Y192877D01*
X509496Y192553D01*
X509431D01*
X509367Y192488D01*
X509237Y192423D01*
X509107Y192358D01*
X502302D01*
X502043Y192293D01*
X501784Y192228D01*
X501524Y192034D01*
X501460Y191969D01*
X501395Y191840D01*
X501265Y191580D01*
X501200Y191256D01*
Y184063D01*
Y183998D01*
Y183933D01*
X500099Y182766D01*
X499969Y182961D01*
X499904Y183026D01*
X499775Y183220D01*
X499580Y183544D01*
X499321Y183998D01*
X499062Y184516D01*
X498803Y185164D01*
X498608Y185812D01*
X498478Y186590D01*
Y186720D01*
X498414Y187044D01*
Y187497D01*
X498478Y188145D01*
X498543Y188858D01*
X498673Y189636D01*
X498997Y190479D01*
X499386Y191321D01*
X499451Y191451D01*
X499645Y191710D01*
X499969Y192099D01*
X500358Y192553D01*
X500876Y193071D01*
X501524Y193589D01*
X502237Y194108D01*
X503080Y194497D01*
X503145D01*
X503339Y194626D01*
X503663Y194691D01*
X504117Y194821D01*
X504570Y194886D01*
X505154Y195015D01*
X506450D01*
X506709Y194950D01*
D02*
G37*
G36*
X415319Y357602D02*
X415692D01*
X416438Y357229D01*
X417184Y356483D01*
X417931Y355363D01*
Y354990D01*
Y353871D01*
X417184Y353124D01*
X416065Y352751D01*
X414946Y352378D01*
X414199D01*
X412707Y352005D01*
X410468Y351632D01*
X407856Y350886D01*
X407483D01*
X406737Y350512D01*
X405244Y349766D01*
X403752Y348647D01*
X400393Y346035D01*
X397035Y342676D01*
Y342303D01*
X396289Y341930D01*
X395916Y340811D01*
X395169Y339318D01*
X393303Y335214D01*
X392184Y330363D01*
Y329990D01*
Y329616D01*
X391438Y327005D01*
X391065Y323646D01*
X390692Y319915D01*
X389572D01*
X388453Y320288D01*
X386960D01*
X382856Y320661D01*
X377632D01*
X375393Y320288D01*
X372408Y319915D01*
X369049Y318795D01*
X368303Y318422D01*
X366811Y317303D01*
X364945Y314691D01*
X363079Y311333D01*
Y310960D01*
Y310586D01*
X362706Y308721D01*
X362333Y305736D01*
X361960Y302750D01*
Y302377D01*
X361587Y301258D01*
X360467Y299765D01*
X358601Y299392D01*
X358228D01*
X357482Y299765D01*
X356363Y300885D01*
X355990Y302750D01*
Y303124D01*
Y304616D01*
Y306109D01*
X356363Y308721D01*
X357109Y311333D01*
X357855Y313945D01*
X358975Y316557D01*
X360840Y319169D01*
X361213Y319542D01*
X361960Y320288D01*
X363079Y321408D01*
X364945Y322527D01*
X366811Y323646D01*
X369796Y324766D01*
X372781Y325885D01*
X376512Y326258D01*
X385094D01*
Y326631D01*
Y327005D01*
X385468Y328870D01*
X386214Y331482D01*
X386960Y334467D01*
Y334840D01*
X387333Y335214D01*
X388080Y337453D01*
X389572Y340811D01*
X392184Y344542D01*
X395169Y348273D01*
X399647Y352005D01*
X404871Y355363D01*
X411587Y357229D01*
X411961D01*
X412707Y357602D01*
X413826Y357975D01*
X415319Y357602D01*
D02*
G37*
G36*
X497564Y358941D02*
X497610Y358987D01*
X497703Y359080D01*
X497842Y359265D01*
X498027Y359496D01*
X498258Y359728D01*
X498582Y360005D01*
X498906Y360330D01*
X499323Y360653D01*
X500203Y361302D01*
X501267Y361811D01*
X501823Y362042D01*
X502424Y362227D01*
X503073Y362320D01*
X503721Y362366D01*
X504045D01*
X504276Y362320D01*
X504554D01*
X504924Y362274D01*
X505665Y362088D01*
X506544Y361857D01*
X507424Y361487D01*
X508257Y360931D01*
X508674Y360607D01*
X509044Y360237D01*
X509090Y360191D01*
X509136Y360144D01*
X509229Y360005D01*
X509368Y359867D01*
X509507Y359635D01*
X509646Y359357D01*
X510016Y358709D01*
X510386Y357876D01*
X510664Y356858D01*
X510895Y355700D01*
X510988Y354404D01*
Y340703D01*
X504970D01*
Y352553D01*
Y352599D01*
Y352738D01*
Y352969D01*
X504924Y353201D01*
X504878Y353525D01*
X504785Y353895D01*
X504507Y354682D01*
X504322Y355099D01*
X504091Y355469D01*
X503767Y355839D01*
X503443Y356163D01*
X503026Y356441D01*
X502517Y356626D01*
X501962Y356765D01*
X501313Y356811D01*
X501036D01*
X500712Y356765D01*
X500295Y356673D01*
X499879Y356534D01*
X499416Y356348D01*
X498953Y356071D01*
X498536Y355700D01*
X498490Y355654D01*
X498397Y355515D01*
X498212Y355238D01*
X498073Y354913D01*
X497888Y354451D01*
X497703Y353941D01*
X497610Y353293D01*
X497564Y352553D01*
Y340703D01*
X491454D01*
Y360376D01*
X497564Y363385D01*
Y358941D01*
D02*
G37*
G36*
X555936Y369078D02*
X556630Y369032D01*
X557417Y368847D01*
X558204Y368615D01*
X559083Y368199D01*
X559917Y367690D01*
X559963D01*
X560009Y367597D01*
X560287Y367412D01*
X560657Y367041D01*
X561074Y366532D01*
X561537Y365931D01*
X561953Y365190D01*
X562324Y364357D01*
X562555Y363431D01*
Y363385D01*
Y363246D01*
Y363014D01*
X562509Y362644D01*
Y362413D01*
Y362088D01*
X562463Y361765D01*
Y361394D01*
Y360931D01*
X562416Y360422D01*
X562463D01*
X562509Y360330D01*
X562648Y360237D01*
X562833Y360098D01*
X563111Y359867D01*
X563435Y359589D01*
X563851Y359219D01*
X564314Y358802D01*
X560518Y354821D01*
X560472Y354867D01*
X560426Y354913D01*
X560148Y355191D01*
X559685Y355562D01*
X559130Y355978D01*
X558389Y356395D01*
X557602Y356765D01*
X556723Y357043D01*
X556213Y357089D01*
X555751Y357136D01*
X555473D01*
X555195Y357089D01*
X554825Y357043D01*
X554408Y356950D01*
X553945Y356811D01*
X553482Y356626D01*
X553019Y356348D01*
X552973Y356302D01*
X552834Y356210D01*
X552603Y356025D01*
X552325Y355793D01*
X552047Y355469D01*
X551723Y355099D01*
X551446Y354682D01*
X551168Y354219D01*
X551122Y354173D01*
X551075Y353988D01*
X550983Y353710D01*
X550890Y353386D01*
X550751Y352969D01*
X550659Y352460D01*
X550612Y351905D01*
X550566Y351349D01*
Y351210D01*
Y351164D01*
Y351118D01*
Y350979D01*
X550612Y350794D01*
X550659Y350331D01*
X550751Y349729D01*
X550936Y349081D01*
X551214Y348387D01*
X551538Y347692D01*
X552047Y346998D01*
X552140Y346905D01*
X552325Y346720D01*
X552649Y346489D01*
X553112Y346165D01*
X553667Y345841D01*
X554362Y345609D01*
X555102Y345424D01*
X555982Y345332D01*
X556213D01*
X556399Y345378D01*
X556908Y345470D01*
X557510Y345609D01*
X558250Y345887D01*
X559083Y346350D01*
X559500Y346581D01*
X559963Y346905D01*
X560380Y347276D01*
X560842Y347692D01*
X564453Y344221D01*
X564361Y344128D01*
X564129Y343897D01*
X563759Y343572D01*
X563296Y343110D01*
X562740Y342647D01*
X562092Y342184D01*
X561398Y341721D01*
X560657Y341304D01*
X560565Y341258D01*
X560287Y341165D01*
X559870Y340980D01*
X559315Y340841D01*
X558574Y340656D01*
X557741Y340471D01*
X556815Y340378D01*
X555751Y340332D01*
X555334D01*
X555056Y340378D01*
X554686Y340425D01*
X554269Y340471D01*
X553806Y340564D01*
X553251Y340656D01*
X552140Y340934D01*
X550936Y341397D01*
X550335Y341721D01*
X549686Y342045D01*
X549085Y342415D01*
X548529Y342878D01*
X548483Y342924D01*
X548390Y343017D01*
X548251Y343156D01*
X548066Y343341D01*
X547789Y343572D01*
X547557Y343897D01*
X547233Y344221D01*
X546955Y344637D01*
X546307Y345563D01*
X545706Y346674D01*
X545196Y347924D01*
X544965Y348618D01*
X544826Y349312D01*
X531402D01*
Y349266D01*
X531448Y349127D01*
X531541Y348942D01*
X531633Y348664D01*
X531772Y348340D01*
X531957Y347970D01*
X532143Y347600D01*
X532420Y347229D01*
X532744Y346813D01*
X533115Y346443D01*
X533531Y346072D01*
X534040Y345748D01*
X534596Y345470D01*
X535198Y345285D01*
X535892Y345146D01*
X536679Y345100D01*
X536957D01*
X537142Y345146D01*
X537420D01*
X537697Y345239D01*
X538392Y345378D01*
X539179Y345655D01*
X540058Y346026D01*
X540984Y346581D01*
X541401Y346905D01*
X541863Y347276D01*
X545243Y344221D01*
X545196Y344174D01*
X545104Y344035D01*
X544919Y343850D01*
X544641Y343619D01*
X544317Y343295D01*
X543947Y342971D01*
X543484Y342600D01*
X542975Y342230D01*
X542373Y341860D01*
X541725Y341489D01*
X541030Y341165D01*
X540243Y340841D01*
X539410Y340610D01*
X538531Y340425D01*
X537605Y340286D01*
X536587Y340240D01*
X536309D01*
X536031Y340286D01*
X535614Y340332D01*
X535105Y340378D01*
X534503Y340471D01*
X533902Y340610D01*
X533207Y340795D01*
X532467Y341026D01*
X531726Y341304D01*
X530985Y341675D01*
X530245Y342091D01*
X529504Y342554D01*
X528763Y343156D01*
X528115Y343804D01*
X527514Y344591D01*
X527467Y344545D01*
X527421Y344313D01*
X527282Y344035D01*
X527097Y343665D01*
X526819Y343249D01*
X526542Y342786D01*
X526171Y342323D01*
X525755Y341906D01*
X525708Y341860D01*
X525569Y341721D01*
X525292Y341536D01*
X524968Y341304D01*
X524551Y341073D01*
X524088Y340795D01*
X523533Y340564D01*
X522931Y340332D01*
X522838D01*
X522653Y340240D01*
X522283Y340193D01*
X521866Y340101D01*
X521311Y340008D01*
X520663Y339962D01*
X519968Y339869D01*
X518857D01*
X518626Y339916D01*
X518302D01*
X517932Y339962D01*
X517515Y340008D01*
X517052Y340054D01*
X515987Y340240D01*
X514877Y340517D01*
X513627Y340934D01*
X512423Y341443D01*
Y347368D01*
X512469Y347322D01*
X512608Y347276D01*
X512793Y347137D01*
X513071Y346952D01*
X513395Y346766D01*
X513765Y346535D01*
X514182Y346304D01*
X514691Y346072D01*
X515756Y345563D01*
X516913Y345146D01*
X517515Y344961D01*
X518163Y344822D01*
X518765Y344776D01*
X519413Y344730D01*
X519691D01*
X519830Y344776D01*
X520292Y344822D01*
X520802Y344961D01*
X521311Y345146D01*
X521774Y345470D01*
X521912Y345655D01*
X522051Y345887D01*
X522144Y346165D01*
X522190Y346489D01*
Y346535D01*
Y346581D01*
Y346720D01*
X522144Y346905D01*
X522098Y347044D01*
Y347091D01*
X522051Y347183D01*
X521820Y347415D01*
X521774Y347461D01*
X521727Y347507D01*
X521496Y347739D01*
X521450Y347785D01*
X521403Y347831D01*
X521218Y347924D01*
X520987Y348016D01*
X520940Y348063D01*
X520802Y348109D01*
X520616Y348201D01*
X520431Y348248D01*
X520385D01*
X520246Y348294D01*
X520061Y348387D01*
X519783Y348479D01*
X519737Y348526D01*
X519552Y348572D01*
X519320Y348664D01*
X519089Y348711D01*
X519043D01*
X518904Y348757D01*
X518626Y348850D01*
X518256Y348942D01*
X518163Y348988D01*
X517978Y349035D01*
X517746Y349081D01*
X517515Y349174D01*
X517469D01*
X517376Y349220D01*
X517191Y349266D01*
X516913Y349359D01*
X516636Y349498D01*
X516265Y349590D01*
X515524Y349914D01*
X514645Y350285D01*
X513812Y350701D01*
X513071Y351210D01*
X512701Y351442D01*
X512423Y351719D01*
Y354497D01*
Y354543D01*
Y354636D01*
Y354775D01*
Y354960D01*
X512377Y355469D01*
X512284Y356071D01*
X512145Y356811D01*
X511960Y357598D01*
X511729Y358385D01*
X511358Y359172D01*
X511405Y359265D01*
X511544Y359496D01*
X511775Y359867D01*
X512099Y360283D01*
X512516Y360746D01*
X513025Y361255D01*
X513673Y361765D01*
X514367Y362181D01*
X514414D01*
X514460Y362227D01*
X514738Y362366D01*
X515154Y362551D01*
X515710Y362737D01*
X516404Y362922D01*
X517191Y363107D01*
X518071Y363246D01*
X519043Y363292D01*
X519506D01*
X519830Y363246D01*
X520200Y363199D01*
X520663Y363153D01*
X521218Y363061D01*
X521774Y362968D01*
X523070Y362644D01*
X523764Y362459D01*
X524459Y362181D01*
X525199Y361857D01*
X525940Y361533D01*
X526680Y361116D01*
X527421Y360653D01*
X525014Y356210D01*
X524968Y356256D01*
X524875Y356302D01*
X524644Y356395D01*
X524412Y356534D01*
X524088Y356719D01*
X523718Y356904D01*
X522885Y357274D01*
X521912Y357645D01*
X520894Y358015D01*
X519830Y358246D01*
X519320Y358339D01*
X518487D01*
X518209Y358293D01*
X517654Y358154D01*
X517376Y358015D01*
X517145Y357876D01*
X517098D01*
X517052Y357784D01*
X516867Y357552D01*
X516636Y357228D01*
X516589Y356997D01*
X516543Y356765D01*
Y356626D01*
Y356534D01*
X516589Y356348D01*
X516682Y356071D01*
X516821Y355793D01*
X516867Y355747D01*
X517098Y355608D01*
X517469Y355377D01*
X517700Y355238D01*
X517978Y355099D01*
X518024D01*
X518117Y355052D01*
X518302Y354960D01*
X518487Y354913D01*
X518904Y354728D01*
X519320Y354543D01*
X519367D01*
X519413Y354497D01*
X519552Y354451D01*
X519737Y354404D01*
X519968Y354312D01*
X520292Y354173D01*
X520663Y354080D01*
X521126Y353895D01*
X521172D01*
X521265Y353849D01*
X521403Y353803D01*
X521589Y353756D01*
X522098Y353571D01*
X522746Y353340D01*
X523440Y353016D01*
X524181Y352692D01*
X524921Y352275D01*
X525569Y351858D01*
Y351905D01*
Y352044D01*
X525616Y352275D01*
Y352599D01*
X525708Y352969D01*
X525755Y353432D01*
X525893Y353941D01*
X525986Y354451D01*
X526356Y355654D01*
X526634Y356256D01*
X526912Y356858D01*
X527282Y357506D01*
X527653Y358108D01*
X528115Y358756D01*
X528625Y359311D01*
X528671Y359357D01*
X528763Y359450D01*
X528902Y359589D01*
X529134Y359774D01*
X529458Y360005D01*
X529782Y360283D01*
X530198Y360515D01*
X530661Y360839D01*
X531124Y361116D01*
X531726Y361348D01*
X532328Y361626D01*
X532976Y361857D01*
X533670Y362042D01*
X534411Y362181D01*
X535151Y362274D01*
X535985Y362320D01*
X536355D01*
X536587Y362274D01*
X536910D01*
X537281Y362227D01*
X538114Y362088D01*
X539086Y361857D01*
X540104Y361533D01*
X541123Y361070D01*
X542049Y360468D01*
X542095D01*
X542141Y360376D01*
X542465Y360144D01*
X542882Y359728D01*
X543391Y359172D01*
X543947Y358478D01*
X544548Y357598D01*
X545057Y356673D01*
X545520Y355562D01*
Y355608D01*
X545567Y355654D01*
X545613Y355793D01*
X545706Y355978D01*
X545983Y356441D01*
X546307Y357043D01*
X546724Y357737D01*
X547279Y358432D01*
X547928Y359126D01*
X548622Y359820D01*
Y359867D01*
Y360005D01*
X548668Y360191D01*
Y360468D01*
X548714Y361070D01*
X548668Y361718D01*
Y361765D01*
Y361857D01*
Y362042D01*
Y362227D01*
X548622Y362783D01*
Y363431D01*
Y363477D01*
Y363570D01*
X548668Y363755D01*
Y363986D01*
X548807Y364496D01*
X548992Y365005D01*
Y365051D01*
X549085Y365190D01*
X549177Y365375D01*
X549270Y365606D01*
X549455Y365884D01*
X549686Y366208D01*
X549964Y366579D01*
X550288Y366949D01*
X550659Y367319D01*
X551075Y367643D01*
X551584Y368014D01*
X552140Y368338D01*
X552742Y368615D01*
X553390Y368847D01*
X554130Y369032D01*
X554964Y369125D01*
X555427D01*
X555936Y369078D01*
D02*
G37*
G36*
X585940Y284746D02*
X585985Y284740D01*
X586034Y284735D01*
X586090Y284729D01*
X586145Y284712D01*
X586279Y284679D01*
X586412Y284629D01*
X586478Y284596D01*
X586545Y284557D01*
X586606Y284507D01*
X586667Y284457D01*
X586673Y284452D01*
X586678Y284446D01*
X586695Y284429D01*
X586717Y284407D01*
X586739Y284374D01*
X586767Y284341D01*
X586823Y284257D01*
X586878Y284152D01*
X586928Y284030D01*
X586967Y283891D01*
X586972Y283819D01*
X586978Y283741D01*
Y283736D01*
Y283730D01*
Y283697D01*
X586972Y283647D01*
X586961Y283586D01*
X586945Y283508D01*
X586917Y283430D01*
X586884Y283353D01*
X586834Y283275D01*
X586828Y283264D01*
X586806Y283242D01*
X586772Y283208D01*
X586728Y283164D01*
X586667Y283114D01*
X586595Y283064D01*
X586512Y283014D01*
X586412Y282970D01*
X586417D01*
X586428Y282964D01*
X586445Y282959D01*
X586467Y282947D01*
X586534Y282920D01*
X586612Y282881D01*
X586695Y282825D01*
X586784Y282764D01*
X586867Y282687D01*
X586945Y282598D01*
Y282592D01*
X586950Y282587D01*
X586972Y282554D01*
X587006Y282498D01*
X587039Y282426D01*
X587072Y282337D01*
X587106Y282232D01*
X587128Y282115D01*
X587133Y281987D01*
Y281982D01*
Y281965D01*
Y281937D01*
X587128Y281904D01*
X587122Y281865D01*
X587117Y281815D01*
X587106Y281760D01*
X587089Y281699D01*
X587050Y281571D01*
X587022Y281499D01*
X586983Y281432D01*
X586945Y281360D01*
X586900Y281294D01*
X586845Y281227D01*
X586784Y281160D01*
X586778Y281155D01*
X586767Y281144D01*
X586750Y281127D01*
X586723Y281110D01*
X586684Y281083D01*
X586645Y281055D01*
X586595Y281027D01*
X586540Y280994D01*
X586478Y280961D01*
X586406Y280933D01*
X586329Y280905D01*
X586251Y280877D01*
X586162Y280861D01*
X586068Y280844D01*
X585973Y280833D01*
X585868Y280827D01*
X585812D01*
X585774Y280833D01*
X585724Y280838D01*
X585668Y280844D01*
X585607Y280855D01*
X585540Y280872D01*
X585391Y280911D01*
X585313Y280938D01*
X585241Y280966D01*
X585163Y281005D01*
X585085Y281049D01*
X585013Y281099D01*
X584947Y281160D01*
X584941Y281166D01*
X584930Y281177D01*
X584913Y281194D01*
X584891Y281222D01*
X584869Y281255D01*
X584836Y281294D01*
X584808Y281338D01*
X584774Y281394D01*
X584741Y281449D01*
X584714Y281516D01*
X584658Y281654D01*
X584636Y281738D01*
X584619Y281821D01*
X584608Y281910D01*
X584602Y281998D01*
Y282004D01*
Y282015D01*
Y282037D01*
X584608Y282060D01*
Y282093D01*
X584614Y282132D01*
X584625Y282220D01*
X584647Y282320D01*
X584680Y282420D01*
X584730Y282526D01*
X584791Y282626D01*
Y282631D01*
X584802Y282637D01*
X584825Y282664D01*
X584869Y282709D01*
X584930Y282764D01*
X585008Y282820D01*
X585102Y282881D01*
X585207Y282931D01*
X585335Y282970D01*
X585330D01*
X585324Y282975D01*
X585307Y282981D01*
X585285Y282992D01*
X585235Y283014D01*
X585169Y283047D01*
X585097Y283092D01*
X585024Y283147D01*
X584958Y283208D01*
X584897Y283275D01*
X584891Y283286D01*
X584874Y283308D01*
X584852Y283353D01*
X584830Y283408D01*
X584802Y283480D01*
X584780Y283563D01*
X584763Y283658D01*
X584758Y283758D01*
Y283763D01*
Y283774D01*
Y283797D01*
X584763Y283830D01*
X584769Y283863D01*
X584774Y283908D01*
X584797Y284002D01*
X584830Y284113D01*
X584886Y284230D01*
X584919Y284291D01*
X584958Y284352D01*
X585008Y284407D01*
X585058Y284463D01*
X585063Y284468D01*
X585074Y284474D01*
X585091Y284490D01*
X585113Y284507D01*
X585141Y284529D01*
X585180Y284552D01*
X585224Y284579D01*
X585268Y284607D01*
X585324Y284635D01*
X585385Y284662D01*
X585452Y284685D01*
X585524Y284707D01*
X585679Y284740D01*
X585768Y284746D01*
X585857Y284751D01*
X585907D01*
X585940Y284746D01*
D02*
G37*
G36*
X586217Y178495D02*
X586590Y178122D01*
X587336Y177002D01*
Y176256D01*
Y175137D01*
X586963Y174763D01*
X586590Y173271D01*
X585471Y171405D01*
X583978Y169539D01*
X583605Y169166D01*
X583232Y168420D01*
X582112Y166928D01*
X580620Y165435D01*
X576515Y161704D01*
X571291Y157972D01*
X570918D01*
X569799Y157226D01*
X568306Y156480D01*
X566067Y155733D01*
X563455Y154987D01*
X560470Y154241D01*
X556739Y153868D01*
X553008Y153495D01*
X551888D01*
X550769Y153868D01*
X548903Y154241D01*
X546664Y154614D01*
X544425Y155360D01*
X541440Y156480D01*
X538455Y157972D01*
X536589Y159465D01*
X536216Y159838D01*
X535843Y160584D01*
X535470Y161704D01*
X535843Y163196D01*
X536216Y163569D01*
X536962Y164315D01*
X538455Y164689D01*
X540321Y164315D01*
X540694Y163942D01*
X541813Y163569D01*
X543306Y162823D01*
X545545Y161704D01*
X547784Y160957D01*
X550769Y160211D01*
X554127Y159465D01*
X557858D01*
X558605Y159838D01*
X560097D01*
X561963Y160211D01*
X566067Y161704D01*
X570545Y164315D01*
X570918Y164689D01*
X571664Y165062D01*
X573903Y167301D01*
X576888Y170286D01*
X579874Y174390D01*
X580247Y174763D01*
X580620Y175510D01*
X582859Y177749D01*
X583232Y178122D01*
X583978Y178495D01*
X585098Y178868D01*
X586217Y178495D01*
D02*
G37*
G36*
X526217Y180498D02*
X526023D01*
Y179915D01*
X525893D01*
Y180498D01*
X525634D01*
Y180628D01*
X526217D01*
Y180498D01*
D02*
G37*
G36*
X470999Y194626D02*
Y194562D01*
X470869Y194432D01*
X470740Y194173D01*
X470545Y193914D01*
X470286Y193654D01*
X469897Y193395D01*
X469508Y193265D01*
X468990Y193136D01*
X465879D01*
X465620Y193006D01*
X465360Y192812D01*
X465166Y192488D01*
Y192164D01*
Y179915D01*
X464648Y180044D01*
X464518Y180109D01*
X464194Y180239D01*
X463805Y180433D01*
X463351Y180757D01*
X463287Y180887D01*
X463092Y181146D01*
X462898Y181600D01*
X462833Y182183D01*
Y192228D01*
Y192293D01*
Y192488D01*
X462703Y192682D01*
X462574Y192877D01*
Y192941D01*
X462444Y193006D01*
X462314Y193071D01*
X462120Y193136D01*
X458880D01*
X458555Y193201D01*
X458167Y193395D01*
X457713Y193654D01*
X457648Y193719D01*
X457454Y193978D01*
X457194Y194367D01*
X457000Y194821D01*
Y195080D01*
X471129D01*
X470999Y194626D01*
D02*
G37*
G36*
X526347Y194950D02*
Y194886D01*
X526217Y194497D01*
X526023Y193978D01*
X525569Y193525D01*
Y193460D01*
X525504D01*
X525375Y193395D01*
X525115Y193330D01*
X524791Y193265D01*
X519023D01*
X518764Y193201D01*
X518505Y193136D01*
X518181Y192941D01*
X518116Y192877D01*
X517986Y192747D01*
X517857Y192488D01*
X517727Y192164D01*
X517532Y189571D01*
Y189506D01*
Y189377D01*
X517597Y189182D01*
X517727Y188923D01*
X517792Y188858D01*
X517857Y188794D01*
X518116Y188664D01*
X518375Y188599D01*
X524014D01*
X524338Y188534D01*
X524662Y188405D01*
X525050Y188210D01*
X525504Y187951D01*
X525893Y187562D01*
X526217Y187109D01*
X526282Y187044D01*
X526347Y186785D01*
X526411Y186396D01*
Y185942D01*
Y183414D01*
Y183350D01*
Y183155D01*
Y182896D01*
Y182572D01*
Y182507D01*
Y182442D01*
X526282Y182053D01*
X526088Y181535D01*
X525699Y180952D01*
X525569Y180822D01*
X525245Y180563D01*
X524726Y180239D01*
X523949Y180044D01*
X523495Y179915D01*
X514227D01*
X514357Y180239D01*
Y180304D01*
X514487Y180433D01*
X514616Y180628D01*
X514746Y180887D01*
X515264Y181470D01*
X516042Y181989D01*
X516107D01*
X516172Y182053D01*
X516496Y182118D01*
X523365D01*
X523560Y182183D01*
X523754Y182248D01*
X523949Y182377D01*
X524014Y182442D01*
X524143Y182572D01*
X524208Y182831D01*
X524273Y183090D01*
Y183155D01*
X524338Y183350D01*
Y183609D01*
Y183933D01*
Y185748D01*
Y185812D01*
Y185877D01*
X524208Y186201D01*
X523949Y186460D01*
X523754Y186590D01*
X523495Y186655D01*
X518051D01*
X517792Y186720D01*
X517532Y186785D01*
X517144Y186914D01*
X516755Y187109D01*
X516431Y187368D01*
X516107Y187757D01*
Y187821D01*
X515977Y187886D01*
X515783Y188275D01*
X515588Y188858D01*
X515523Y189182D01*
Y189571D01*
X515783Y192553D01*
Y192682D01*
X515847Y192941D01*
X515977Y193265D01*
X516172Y193654D01*
X516236Y193719D01*
X516301Y193849D01*
X516496Y194043D01*
X516690Y194238D01*
X517014Y194497D01*
X517403Y194691D01*
X517792Y194886D01*
X518310Y195015D01*
X526347D01*
Y194950D01*
D02*
G37*
G36*
X501460Y183026D02*
X501784Y182766D01*
X500941Y181859D01*
X500358Y182377D01*
X500423Y182442D01*
X500682Y182702D01*
X500941Y183026D01*
X501265Y183350D01*
X501460Y183026D01*
D02*
G37*
G36*
X479943Y195015D02*
X480656Y194950D01*
X481498Y194756D01*
X481563D01*
X481693Y194691D01*
X481887Y194626D01*
X482146Y194562D01*
X482730Y194238D01*
X483313Y193719D01*
X483378Y193654D01*
X483442Y193589D01*
X483702Y193201D01*
X484026Y192553D01*
X484220Y191775D01*
Y191710D01*
X484285Y191516D01*
Y191192D01*
Y190803D01*
Y179915D01*
X484220D01*
X484155Y179979D01*
X483767Y180109D01*
X483248Y180368D01*
X482665Y180757D01*
X482600D01*
X482535Y180628D01*
X482341Y180563D01*
X482082Y180433D01*
X481433Y180174D01*
X481044Y180109D01*
X480656Y180044D01*
X476637Y179915D01*
X476054D01*
X475406Y179979D01*
X474758Y180044D01*
X474564D01*
X474304Y180109D01*
X473980Y180174D01*
X473591Y180304D01*
X473203Y180433D01*
X472814Y180692D01*
X472425Y181016D01*
Y181081D01*
X472360Y181146D01*
X472101Y181470D01*
X471906Y181989D01*
X471777Y182572D01*
Y182637D01*
X471712Y182831D01*
Y183090D01*
X471647Y183479D01*
X471712Y184322D01*
X471777Y184840D01*
X471906Y185359D01*
X471971Y185424D01*
X472036Y185683D01*
X472230Y186007D01*
X472490Y186460D01*
X472814Y186914D01*
X473203Y187433D01*
X473721Y187886D01*
X474304Y188340D01*
X474369D01*
X474434Y188470D01*
X474628Y188534D01*
X474888Y188664D01*
X475536Y188858D01*
X476313Y188988D01*
X481757D01*
Y186979D01*
X476508D01*
X476119Y186914D01*
X475665Y186785D01*
X475600D01*
X475471Y186720D01*
X475276Y186590D01*
X475017Y186396D01*
X474758Y186201D01*
X474434Y185877D01*
X474175Y185553D01*
X473980Y185099D01*
Y185035D01*
X473915Y184970D01*
X473851Y184775D01*
Y184516D01*
X473786Y183868D01*
X473851Y183155D01*
Y183090D01*
X473915Y182961D01*
X474239Y182507D01*
X474434Y182313D01*
X474758Y182118D01*
X475147Y181989D01*
X475600Y181924D01*
X480591D01*
X480850Y181989D01*
X480915D01*
X480980Y182053D01*
X481369Y182313D01*
X481757Y182702D01*
X481952Y183026D01*
X482082Y183350D01*
Y183414D01*
X482146Y183544D01*
X482211Y183738D01*
Y183998D01*
Y191062D01*
Y191127D01*
Y191321D01*
X482146Y191516D01*
X482017Y191840D01*
X481822Y192164D01*
X481628Y192488D01*
X481304Y192812D01*
X480850Y193071D01*
X480721Y193136D01*
X480461Y193201D01*
X480008Y193265D01*
X479554D01*
X474693Y193201D01*
X474564Y193265D01*
X474499D01*
X474434Y193395D01*
X474045Y193719D01*
X473656Y194238D01*
X473462Y194626D01*
X473397Y195015D01*
X479230Y195080D01*
X479683D01*
X479943Y195015D01*
D02*
G37*
G36*
X487655Y194950D02*
X487914Y194886D01*
X488498Y194626D01*
X489016Y194238D01*
X489146Y194108D01*
X489340Y193849D01*
X489535Y193395D01*
X489599Y193071D01*
Y192812D01*
Y184063D01*
Y183933D01*
Y183674D01*
X489664Y183285D01*
X489729Y182831D01*
X489794Y182702D01*
X489859Y182507D01*
X490118Y182313D01*
X490572Y182183D01*
X496988D01*
X497182Y182118D01*
X497506Y182053D01*
X497830Y181859D01*
X498154Y181665D01*
X498414Y181341D01*
X498608Y180887D01*
X498673Y180822D01*
X498738Y180628D01*
X498803Y180368D01*
Y180044D01*
X489081D01*
X488757Y180109D01*
X488368Y180239D01*
X487914Y180433D01*
X487850Y180498D01*
X487655Y180757D01*
X487461Y181146D01*
X487331Y181729D01*
X487266Y182118D01*
Y195015D01*
X487461D01*
X487655Y194950D01*
D02*
G37*
G36*
X511635Y192293D02*
X511700Y192228D01*
X511894Y191904D01*
X511959Y191840D01*
X512153Y191516D01*
X512413Y191127D01*
X512672Y190543D01*
X512931Y189895D01*
X513190Y189118D01*
X513385Y188275D01*
X513449Y187368D01*
Y187238D01*
Y186914D01*
X513385Y186396D01*
X513255Y185812D01*
X512996Y185035D01*
X512737Y184257D01*
X512283Y183479D01*
X511700Y182702D01*
X511635Y182637D01*
X511376Y182377D01*
X511052Y182053D01*
X510533Y181665D01*
X509950Y181211D01*
X509237Y180822D01*
X508394Y180433D01*
X507487Y180174D01*
X507357D01*
X506968Y180109D01*
X506385Y180044D01*
X505608D01*
X504700Y180109D01*
X503793Y180304D01*
X502756Y180628D01*
X501784Y181146D01*
X501265Y181535D01*
X502237Y182637D01*
X502302Y182702D01*
X509561D01*
X509820Y182766D01*
X510079Y182896D01*
X510144Y182961D01*
X510274Y183155D01*
X510403Y183414D01*
X510468Y183803D01*
Y190997D01*
Y191062D01*
Y191127D01*
Y191256D01*
X510533Y191321D01*
X511570Y192358D01*
X511635Y192293D01*
D02*
G37*
%LPC*%
G36*
X585851Y282770D02*
X585818D01*
X585796Y282764D01*
X585735Y282759D01*
X585657Y282742D01*
X585568Y282714D01*
X585479Y282676D01*
X585385Y282620D01*
X585302Y282548D01*
X585291Y282537D01*
X585268Y282509D01*
X585235Y282459D01*
X585196Y282398D01*
X585152Y282315D01*
X585119Y282220D01*
X585097Y282115D01*
X585085Y281998D01*
Y281987D01*
Y281965D01*
X585091Y281926D01*
X585097Y281876D01*
X585108Y281815D01*
X585124Y281749D01*
X585146Y281682D01*
X585174Y281610D01*
X585180Y281604D01*
X585191Y281577D01*
X585213Y281543D01*
X585246Y281505D01*
X585285Y281455D01*
X585335Y281405D01*
X585391Y281360D01*
X585457Y281316D01*
X585468Y281310D01*
X585491Y281299D01*
X585529Y281282D01*
X585579Y281266D01*
X585640Y281249D01*
X585712Y281233D01*
X585790Y281222D01*
X585868Y281216D01*
X585901D01*
X585923Y281222D01*
X585990Y281227D01*
X586068Y281244D01*
X586157Y281271D01*
X586251Y281305D01*
X586340Y281360D01*
X586428Y281432D01*
X586440Y281443D01*
X586462Y281471D01*
X586501Y281521D01*
X586540Y281582D01*
X586578Y281660D01*
X586617Y281754D01*
X586639Y281865D01*
X586651Y281982D01*
Y281987D01*
Y281998D01*
Y282015D01*
X586645Y282037D01*
X586639Y282098D01*
X586623Y282182D01*
X586595Y282265D01*
X586556Y282359D01*
X586501Y282453D01*
X586423Y282542D01*
X586412Y282554D01*
X586384Y282576D01*
X586334Y282614D01*
X586268Y282659D01*
X586184Y282698D01*
X586084Y282737D01*
X585973Y282759D01*
X585851Y282770D01*
D02*
G37*
G36*
X585868Y284363D02*
X585823D01*
X585774Y284352D01*
X585707Y284341D01*
X585635Y284318D01*
X585557Y284291D01*
X585485Y284246D01*
X585413Y284185D01*
X585407Y284180D01*
X585385Y284157D01*
X585357Y284119D01*
X585330Y284069D01*
X585296Y284008D01*
X585268Y283935D01*
X585246Y283858D01*
X585241Y283769D01*
Y283763D01*
Y283758D01*
X585246Y283724D01*
X585252Y283675D01*
X585263Y283613D01*
X585285Y283541D01*
X585313Y283469D01*
X585357Y283391D01*
X585413Y283325D01*
X585418Y283319D01*
X585446Y283297D01*
X585485Y283269D01*
X585535Y283242D01*
X585602Y283208D01*
X585679Y283181D01*
X585768Y283158D01*
X585868Y283153D01*
X585879D01*
X585912Y283158D01*
X585962Y283164D01*
X586029Y283175D01*
X586101Y283197D01*
X586173Y283225D01*
X586251Y283269D01*
X586317Y283325D01*
X586323Y283330D01*
X586345Y283358D01*
X586373Y283391D01*
X586406Y283441D01*
X586440Y283503D01*
X586467Y283575D01*
X586489Y283658D01*
X586495Y283747D01*
Y283752D01*
Y283758D01*
Y283791D01*
X586484Y283841D01*
X586473Y283902D01*
X586451Y283969D01*
X586417Y284041D01*
X586373Y284113D01*
X586312Y284185D01*
X586306Y284191D01*
X586279Y284213D01*
X586240Y284241D01*
X586190Y284274D01*
X586123Y284307D01*
X586051Y284335D01*
X585962Y284357D01*
X585868Y284363D01*
D02*
G37*
G36*
X555565Y365838D02*
X554917D01*
X554177Y365699D01*
X553806Y365560D01*
X553436Y365375D01*
X553343Y365329D01*
X553112Y365190D01*
X552834Y364912D01*
X552464Y364542D01*
X552140Y364033D01*
X551862Y363385D01*
X551677Y362644D01*
Y362181D01*
Y361718D01*
X551770Y361765D01*
X552001Y361811D01*
X552371Y361903D01*
X552880Y362042D01*
X553529Y362181D01*
X554177Y362274D01*
X554964Y362320D01*
X555751Y362366D01*
X556445D01*
X556954Y362320D01*
X557463Y362274D01*
X558065Y362181D01*
X559269Y361950D01*
Y361996D01*
Y362042D01*
Y362366D01*
X559222Y362783D01*
X559083Y363292D01*
X558898Y363847D01*
X558528Y364403D01*
X558065Y364959D01*
X557787Y365190D01*
X557417Y365375D01*
X557324Y365421D01*
X557093Y365514D01*
X556676Y365653D01*
X556167Y365792D01*
X555565Y365838D01*
D02*
G37*
G36*
X535892Y357506D02*
X535568D01*
X535244Y357459D01*
X534827Y357367D01*
X534365Y357228D01*
X533855Y356997D01*
X533346Y356719D01*
X532883Y356302D01*
X532837Y356256D01*
X532698Y356071D01*
X532513Y355793D01*
X532235Y355423D01*
X532004Y354960D01*
X531726Y354404D01*
X531448Y353756D01*
X531263Y353016D01*
X540336D01*
Y353062D01*
Y353108D01*
X540290Y353340D01*
X540197Y353710D01*
X540058Y354173D01*
X539919Y354682D01*
X539642Y355238D01*
X539318Y355747D01*
X538947Y356256D01*
X538901Y356302D01*
X538716Y356441D01*
X538484Y356673D01*
X538114Y356904D01*
X537697Y357089D01*
X537188Y357321D01*
X536587Y357459D01*
X535892Y357506D01*
D02*
G37*
%LPD*%
D39*
X491603Y202012D02*
Y296512D01*
X549891Y285882D02*
X590602D01*
X550702Y296194D02*
X590602D01*
Y285882D02*
Y296194D01*
X510703D02*
X550602D01*
X510603Y285882D02*
Y296194D01*
Y285882D02*
X549891D01*
X491603Y296512D02*
X610103D01*
Y202012D02*
Y296512D01*
X491603Y202012D02*
X610103D01*
D40*
X387811Y243689D02*
Y267311D01*
X364189D02*
X387811D01*
X364189Y243689D02*
X387811D01*
X364189D02*
Y267311D01*
X338811Y243689D02*
Y267311D01*
X315189D02*
X338811D01*
X315189Y243689D02*
X338811D01*
X315189D02*
Y267311D01*
X339622Y218189D02*
Y241811D01*
Y218189D02*
X363244D01*
X339622Y241811D02*
X363244D01*
Y218189D02*
Y241811D01*
X339622Y269017D02*
Y292639D01*
Y269017D02*
X363244D01*
X339622Y292639D02*
X363244D01*
Y269017D02*
Y292639D01*
D93*
X390166Y364000D02*
Y373997D01*
X393498D02*
Y364000D01*
X388500Y370665D02*
X393498D01*
X395164D01*
X388500Y367332D02*
X395164D01*
X398497Y364000D02*
Y370665D01*
X403495D01*
X405161Y368998D01*
Y364000D01*
X408494D02*
X413492D01*
X415158Y365666D01*
X413492Y367332D01*
X410160D01*
X408494Y368998D01*
X410160Y370665D01*
X415158D01*
X423489Y364000D02*
X420156D01*
X418490Y365666D01*
Y368998D01*
X420156Y370665D01*
X423489D01*
X425155Y368998D01*
Y367332D01*
X418490D01*
X435152Y370665D02*
X430153D01*
X428487Y368998D01*
Y365666D01*
X430153Y364000D01*
X435152D01*
X438484D02*
X441816D01*
X440150D01*
Y373997D01*
X438484Y372331D01*
X446814Y365666D02*
X448481Y364000D01*
X451813D01*
X453479Y365666D01*
Y372331D01*
X451813Y373997D01*
X448481D01*
X446814Y372331D01*
Y370665D01*
X448481Y368998D01*
X453479D01*
D95*
X579000Y323000D02*
G03*
X579000Y323000I-500J0D01*
G01*
D96*
X583488Y306646D02*
Y327512D01*
X604354D01*
Y306646D02*
Y327512D01*
X583488Y306646D02*
X604354D01*
D97*
X591499Y332749D02*
X590749Y333499D01*
X589250D01*
X588500Y332749D01*
Y331999D01*
X589250Y331249D01*
X590749D01*
X591499Y330500D01*
Y329750D01*
X590749Y329000D01*
X589250D01*
X588500Y329750D01*
X592999Y329000D02*
Y331999D01*
X594498Y333499D01*
X595998Y331999D01*
Y329000D01*
Y331249D01*
X592999D01*
X599746Y333499D02*
X598247D01*
X597497Y332749D01*
Y329750D01*
X598247Y329000D01*
X599746D01*
X600496Y329750D01*
Y332749D01*
X599746Y333499D01*
D98*
X350000Y296499D02*
Y294833D01*
X350333Y294500D01*
X351000D01*
X351333Y294833D01*
Y296499D01*
X351999Y294500D02*
Y296499D01*
X352999D01*
X353332Y296166D01*
Y295500D01*
X352999Y295166D01*
X351999D01*
X494931Y387983D02*
X493322Y388414D01*
X492914Y388178D01*
X492741Y387534D01*
X492977Y387126D01*
X494586Y386695D01*
X492483Y386569D02*
X492310Y385925D01*
X492396Y386247D01*
X494327Y385729D01*
X494092Y386138D01*
X493661Y384528D02*
X493896Y384120D01*
X493724Y383476D01*
X493316Y383241D01*
X492028Y383586D01*
X491793Y383994D01*
X491965Y384637D01*
X492373Y384873D01*
X493661Y384528D01*
X493465Y382511D02*
X493120Y381223D01*
X492798Y381310D01*
X491856Y382942D01*
X491534Y383028D01*
X436492Y394174D02*
X434832Y394029D01*
X434529Y393668D01*
X434587Y393004D01*
X434948Y392701D01*
X436608Y392846D01*
X434674Y392008D02*
X434732Y391344D01*
X434703Y391676D01*
X436695Y391851D01*
X436334Y392154D01*
X436479Y390494D02*
X436840Y390191D01*
X436898Y389527D01*
X436595Y389166D01*
X435268Y389050D01*
X434907Y389353D01*
X434848Y390017D01*
X435151Y390377D01*
X436479Y390494D01*
X437102Y387203D02*
X436712Y387838D01*
X435990Y388444D01*
X435326Y388386D01*
X435023Y388025D01*
X435081Y387361D01*
X435442Y387058D01*
X435774Y387087D01*
X436077Y387448D01*
X435990Y388444D01*
X385931Y385518D02*
X384322Y385086D01*
X384086Y384678D01*
X384259Y384034D01*
X384667Y383799D01*
X386276Y384230D01*
X384518Y383069D02*
X384690Y382425D01*
X384604Y382747D01*
X386535Y383264D01*
X386127Y383500D01*
X386558Y381891D02*
X386966Y381655D01*
X387139Y381011D01*
X386903Y380603D01*
X385615Y380258D01*
X385207Y380494D01*
X385035Y381137D01*
X385271Y381546D01*
X386558Y381891D01*
X387742Y378758D02*
X387397Y380046D01*
X386432Y379787D01*
X386926Y379229D01*
X387012Y378908D01*
X386777Y378499D01*
X386133Y378327D01*
X385725Y378563D01*
X385552Y379206D01*
X385788Y379614D01*
X342731Y366500D02*
X341289Y365667D01*
X341167Y365211D01*
X341500Y364634D01*
X341955Y364512D01*
X343398Y365345D01*
X342000Y363769D02*
X342333Y363191D01*
X342166Y363480D01*
X343898Y364480D01*
X343443Y364602D01*
X344276Y363159D02*
X344731Y363037D01*
X345064Y362459D01*
X344942Y362004D01*
X343788Y361338D01*
X343333Y361460D01*
X342999Y362037D01*
X343121Y362492D01*
X344276Y363159D01*
X344332Y359728D02*
X346064Y360728D01*
X344698Y361094D01*
X345365Y359940D01*
X298785Y336032D02*
X297714Y334755D01*
X297755Y334286D01*
X298266Y333857D01*
X298735Y333898D01*
X299806Y335175D01*
X299032Y333215D02*
X299542Y332786D01*
X299287Y333001D01*
X300572Y334532D01*
X300103Y334491D01*
X301379Y333420D02*
X301848Y333461D01*
X302359Y333033D01*
X302400Y332563D01*
X301543Y331542D01*
X301074Y331501D01*
X300563Y331930D01*
X300522Y332399D01*
X301379Y333420D01*
X302910Y332135D02*
X303380Y332176D01*
X303890Y331748D01*
X303931Y331278D01*
X303717Y331023D01*
X303248Y330982D01*
X302993Y331196D01*
X303248Y330982D01*
X303289Y330512D01*
X303075Y330257D01*
X302605Y330216D01*
X302095Y330644D01*
X302054Y331114D01*
X272500Y278499D02*
Y276833D01*
X272833Y276500D01*
X273500D01*
X273833Y276833D01*
Y278499D01*
X274499Y276500D02*
X275166D01*
X274833D01*
Y278499D01*
X274499Y278166D01*
X276166D02*
X276499Y278499D01*
X277165D01*
X277498Y278166D01*
Y276833D01*
X277165Y276500D01*
X276499D01*
X276166Y276833D01*
Y278166D01*
X279498Y276500D02*
X278165D01*
X279498Y277833D01*
Y278166D01*
X279165Y278499D01*
X278498D01*
X278165Y278166D01*
X336121Y199184D02*
X337687Y198614D01*
X338114Y198813D01*
X338342Y199439D01*
X338143Y199866D01*
X336577Y200436D01*
X338684Y200379D02*
X338912Y201005D01*
X338798Y200692D01*
X336919Y201376D01*
X337118Y200949D01*
X337688Y202514D02*
X337489Y202941D01*
X337717Y203568D01*
X338144Y203767D01*
X339396Y203311D01*
X339596Y202884D01*
X339368Y202258D01*
X338941Y202058D01*
X337688Y202514D01*
X338372Y204393D02*
X338173Y204820D01*
X338401Y205446D01*
X338828Y205646D01*
X340080Y205190D01*
X340279Y204763D01*
X340052Y204136D01*
X339624Y203937D01*
X338372Y204393D01*
X287500Y225232D02*
X288333Y223789D01*
X288789Y223667D01*
X289366Y224000D01*
X289488Y224455D01*
X288655Y225898D01*
X290231Y224500D02*
X290809Y224833D01*
X290520Y224666D01*
X289520Y226398D01*
X289398Y225943D01*
X290841Y226776D02*
X290963Y227231D01*
X291541Y227564D01*
X291996Y227442D01*
X292662Y226288D01*
X292540Y225833D01*
X291963Y225499D01*
X291508Y225621D01*
X290841Y226776D01*
X293406Y226332D02*
X293983Y226666D01*
X293694Y226499D01*
X292695Y228231D01*
X292573Y227775D01*
X372333Y270999D02*
X371000D01*
Y269000D01*
X372333D01*
X371000Y270000D02*
X371666D01*
X372999Y269000D02*
Y270999D01*
X374332Y269000D01*
Y270999D01*
X374999D02*
X376332D01*
X375665D01*
Y269000D01*
X378331Y270999D02*
X376998D01*
Y269000D01*
X378331D01*
X376998Y270000D02*
X377664D01*
X378997Y269000D02*
Y270999D01*
X379997D01*
X380330Y270666D01*
Y270000D01*
X379997Y269666D01*
X378997D01*
X379664D02*
X380330Y269000D01*
X348000Y216499D02*
Y214500D01*
X349000D01*
X349333Y214833D01*
Y216166D01*
X349000Y216499D01*
X348000D01*
X350999D02*
X350333D01*
X349999Y216166D01*
Y214833D01*
X350333Y214500D01*
X350999D01*
X351332Y214833D01*
Y216166D01*
X350999Y216499D01*
X351999D02*
Y214500D01*
X352665Y215166D01*
X353332Y214500D01*
Y216499D01*
X353998Y214500D02*
Y216499D01*
X355331Y214500D01*
Y216499D01*
X594500Y294999D02*
Y293000D01*
X595500D01*
X595833Y293333D01*
Y294666D01*
X595500Y294999D01*
X594500D01*
X596499Y293000D02*
X597166D01*
X596833D01*
Y294333D01*
X596499D01*
X598166Y293000D02*
X599165D01*
X599498Y293333D01*
X599165Y293666D01*
X598499D01*
X598166Y294000D01*
X598499Y294333D01*
X599498D01*
X600165Y292334D02*
Y294333D01*
X601164D01*
X601498Y294000D01*
Y293333D01*
X601164Y293000D01*
X600165D01*
X602164D02*
X602831D01*
X602497D01*
Y294999D01*
X602164D01*
X604164Y294333D02*
X604830D01*
X605163Y294000D01*
Y293000D01*
X604164D01*
X603830Y293333D01*
X604164Y293666D01*
X605163D01*
X605830Y294333D02*
Y293333D01*
X606163Y293000D01*
X607163D01*
Y292667D01*
X606829Y292334D01*
X606496D01*
X607163Y293000D02*
Y294333D01*
X322500Y270499D02*
Y268500D01*
X323500D01*
X323833Y268833D01*
Y269166D01*
X323500Y269500D01*
X322500D01*
X323500D01*
X323833Y269833D01*
Y270166D01*
X323500Y270499D01*
X322500D01*
X324499Y268500D02*
Y269833D01*
X325166Y270499D01*
X325832Y269833D01*
Y268500D01*
Y269500D01*
X324499D01*
X327832Y270166D02*
X327498Y270499D01*
X326832D01*
X326499Y270166D01*
Y268833D01*
X326832Y268500D01*
X327498D01*
X327832Y268833D01*
X328498Y270499D02*
Y268500D01*
Y269166D01*
X329831Y270499D01*
X328831Y269500D01*
X329831Y268500D01*
X577431Y363482D02*
X575822Y363914D01*
X575414Y363678D01*
X575241Y363034D01*
X575477Y362626D01*
X577086Y362195D01*
X574983Y362069D02*
X574810Y361425D01*
X574896Y361747D01*
X576827Y361229D01*
X576592Y361638D01*
X576161Y360028D02*
X576396Y359620D01*
X576224Y358976D01*
X575816Y358741D01*
X574528Y359086D01*
X574293Y359494D01*
X574465Y360138D01*
X574873Y360373D01*
X576161Y360028D01*
X575643Y358097D02*
X575879Y357689D01*
X575706Y357045D01*
X575298Y356809D01*
X574976Y356896D01*
X574741Y357304D01*
X574333Y357068D01*
X574011Y357154D01*
X573775Y357563D01*
X573948Y358206D01*
X574356Y358442D01*
X574678Y358356D01*
X574913Y357948D01*
X575321Y358183D01*
X575643Y358097D01*
X574913Y357948D02*
X574741Y357304D01*
X632914Y324086D02*
X631736Y325264D01*
X631264D01*
X630793Y324793D01*
X630793Y324322D01*
X631971Y323144D01*
X630086Y324086D02*
X629615Y323615D01*
X629851Y323851D01*
X631264Y322437D01*
X631264Y322908D01*
X630086Y321730D02*
X630086Y321259D01*
X629615Y320788D01*
X629144D01*
X628201Y321730D01*
X628201Y322201D01*
X628673Y322673D01*
X629144D01*
X630086Y321730D01*
X627730Y321259D02*
X627259D01*
X626788Y320788D01*
X626788Y320316D01*
X627730Y319374D01*
X628201D01*
X628673Y319845D01*
Y320316D01*
X628437Y320552D01*
X627966Y320552D01*
X627259Y319845D01*
X647500Y265999D02*
Y264333D01*
X647833Y264000D01*
X648500D01*
X648833Y264333D01*
Y265999D01*
X649499Y264000D02*
X650166D01*
X649833D01*
Y265999D01*
X649499Y265666D01*
X651165Y264000D02*
X651832D01*
X651499D01*
Y265999D01*
X651165Y265666D01*
X652832D02*
X653165Y265999D01*
X653831D01*
X654165Y265666D01*
Y264333D01*
X653831Y264000D01*
X653165D01*
X652832Y264333D01*
Y265666D01*
X631147Y209138D02*
X630191Y207773D01*
X630273Y207309D01*
X630819Y206927D01*
X631283Y207008D01*
X632239Y208373D01*
X631638Y206353D02*
X632184Y205971D01*
X631911Y206162D01*
X633057Y207800D01*
X632593Y207718D01*
X633003Y205398D02*
X633548Y205015D01*
X633276Y205206D01*
X634422Y206844D01*
X633958Y206762D01*
X634367Y204442D02*
X634913Y204060D01*
X634640Y204251D01*
X635787Y205889D01*
X635323Y205807D01*
X577312Y163845D02*
X575802Y163141D01*
X575641Y162698D01*
X575922Y162094D01*
X576365Y161933D01*
X577875Y162637D01*
X576345Y161188D02*
X576627Y160584D01*
X576486Y160886D01*
X578298Y161731D01*
X577855Y161892D01*
X577049Y159678D02*
X577331Y159074D01*
X577190Y159376D01*
X579002Y160221D01*
X578559Y160382D01*
X578316Y156960D02*
X577753Y158168D01*
X579525Y157523D01*
X579827Y157664D01*
X579988Y158107D01*
X579706Y158711D01*
X579263Y158872D01*
X506000Y84999D02*
Y83333D01*
X506333Y83000D01*
X507000D01*
X507333Y83333D01*
Y84999D01*
X507999Y83000D02*
X508666D01*
X508333D01*
Y84999D01*
X507999Y84666D01*
X509665Y83000D02*
X510332D01*
X509999D01*
Y84999D01*
X509665Y84666D01*
X511332D02*
X511665Y84999D01*
X512331D01*
X512665Y84666D01*
Y84333D01*
X512331Y84000D01*
X511998D01*
X512331D01*
X512665Y83666D01*
Y83333D01*
X512331Y83000D01*
X511665D01*
X511332Y83333D01*
X466738Y147720D02*
X467809Y146444D01*
X468279Y146403D01*
X468789Y146831D01*
X468830Y147301D01*
X467759Y148577D01*
X469555Y147474D02*
X470065Y147902D01*
X469810Y147688D01*
X468525Y149220D01*
X468484Y148750D01*
X470831Y148545D02*
X471342Y148973D01*
X471087Y148759D01*
X469801Y150291D01*
X469760Y149821D01*
X472873Y150258D02*
X471588Y151790D01*
X471465Y150382D01*
X472486Y151238D01*
M02*
