G04 Layer_Color=8150272*
%FSLAX25Y25*%
%MOIN*%
G70*
G01*
G75*
%ADD99R,0.06902X0.05918*%
%ADD126C,0.00900*%
%ADD127C,0.08674*%
%ADD128R,0.08674X0.08674*%
%ADD129O,0.05721X0.05721*%
%ADD130O,0.06902X0.06902*%
%ADD131C,0.06706*%
%ADD132C,0.05918*%
%ADD133P,0.11519X8X202.5*%
%ADD134C,0.06800*%
%ADD135O,0.06800X0.08800*%
%ADD136C,0.03800*%
%ADD137C,0.02769*%
%ADD138R,0.03150X0.02953*%
%ADD139R,0.02769X0.02276*%
%ADD140R,0.03950X0.03950*%
%ADD141R,0.03950X0.03950*%
%ADD142R,0.03713X0.03871*%
G04:AMPARAMS|DCode=143|XSize=37.53mil|YSize=35.56mil|CornerRadius=6.76mil|HoleSize=0mil|Usage=FLASHONLY|Rotation=270.000|XOffset=0mil|YOffset=0mil|HoleType=Round|Shape=RoundedRectangle|*
%AMROUNDEDRECTD143*
21,1,0.03753,0.02205,0,0,270.0*
21,1,0.02402,0.03556,0,0,270.0*
1,1,0.01351,-0.01102,-0.01201*
1,1,0.01351,-0.01102,0.01201*
1,1,0.01351,0.01102,0.01201*
1,1,0.01351,0.01102,-0.01201*
%
%ADD143ROUNDEDRECTD143*%
%ADD144R,0.03871X0.03713*%
%ADD145C,0.03900*%
%ADD146R,0.02375X0.06115*%
%ADD147R,0.03950X0.11430*%
%ADD148R,0.02965X0.02965*%
%ADD149R,0.02953X0.03150*%
%ADD150R,0.03792X0.03635*%
%ADD151R,0.03635X0.03792*%
%ADD152R,0.02454X0.02611*%
%ADD153R,0.04934X0.04540*%
%ADD154R,0.03359X0.03556*%
%ADD155R,0.03084X0.03871*%
%ADD156R,0.18910X0.18910*%
%ADD157O,0.04540X0.01587*%
%ADD158O,0.01587X0.04540*%
%ADD159R,0.01775X0.01381*%
%ADD160O,0.06509X0.03162*%
%ADD161R,0.04737X0.05721*%
%ADD162R,0.04737X0.04934*%
%ADD163R,0.08274X0.05124*%
%ADD164O,0.01654X0.04488*%
%ADD165R,0.02769X0.02572*%
%ADD166R,0.04934X0.04737*%
%ADD167R,0.03359X0.03359*%
%ADD168R,0.07244X0.07244*%
%ADD169O,0.01654X0.03898*%
%ADD170O,0.03898X0.01654*%
%ADD171R,0.02572X0.02572*%
%ADD172R,0.06115X0.02375*%
%ADD173O,0.06115X0.02375*%
%ADD174R,0.09068X0.22847*%
D99*
X575150Y226358D02*
D03*
X543850D02*
D03*
X575150Y208642D02*
D03*
X543850D02*
D03*
X533150Y226358D02*
D03*
X501850D02*
D03*
X533150Y208642D02*
D03*
X501850D02*
D03*
D126*
X446500Y262500D02*
D03*
X454500D02*
D03*
X450500Y242500D02*
D03*
X587500Y188500D02*
D03*
Y180500D02*
D03*
X567500Y184500D02*
D03*
D127*
X599000Y322000D02*
D03*
X589000Y312000D02*
D03*
X599000D02*
D03*
D128*
X589000Y322000D02*
D03*
D129*
X499216Y70704D02*
D03*
X518900D02*
D03*
D130*
X522837Y60074D02*
D03*
X495279D02*
D03*
D131*
X621500Y291500D02*
D03*
Y260004D02*
D03*
D132*
Y283626D02*
D03*
Y275752D02*
D03*
Y267878D02*
D03*
D133*
X356953Y333748D02*
D03*
X561638D02*
D03*
D134*
X457000Y387500D02*
D03*
X408500Y293000D02*
D03*
Y283000D02*
D03*
X418500Y293000D02*
D03*
Y283000D02*
D03*
X428500Y293000D02*
D03*
Y283000D02*
D03*
X438500Y293000D02*
D03*
Y283000D02*
D03*
X448500Y293000D02*
D03*
Y283000D02*
D03*
X458500Y293000D02*
D03*
Y283000D02*
D03*
X468500Y293000D02*
D03*
Y283000D02*
D03*
D135*
X575602Y291394D02*
D03*
X555603D02*
D03*
X565602D02*
D03*
X585603D02*
D03*
X515602D02*
D03*
X525602D02*
D03*
X545603D02*
D03*
X535603D02*
D03*
D136*
X597500Y332500D02*
D03*
D137*
X412496Y249504D02*
D03*
Y253835D02*
D03*
Y258165D02*
D03*
Y262496D02*
D03*
X408165Y249504D02*
D03*
Y253835D02*
D03*
Y258165D02*
D03*
Y262496D02*
D03*
X403835Y249504D02*
D03*
Y253835D02*
D03*
Y258165D02*
D03*
Y262496D02*
D03*
X399504Y249504D02*
D03*
Y253835D02*
D03*
Y258165D02*
D03*
Y262496D02*
D03*
X523032Y250468D02*
D03*
X525000Y248500D02*
D03*
X525000Y252437D02*
D03*
X521063Y252437D02*
D03*
X521063Y248500D02*
D03*
D138*
X480500Y258630D02*
D03*
Y262370D02*
D03*
X499000Y260630D02*
D03*
Y264370D02*
D03*
X591200Y267070D02*
D03*
Y263330D02*
D03*
X583700Y267070D02*
D03*
Y263330D02*
D03*
X534000Y185630D02*
D03*
Y189370D02*
D03*
D139*
X485653Y260531D02*
D03*
Y262500D02*
D03*
Y264469D02*
D03*
X492346D02*
D03*
Y262500D02*
D03*
Y260531D02*
D03*
D140*
X590547Y227500D02*
D03*
X596453D02*
D03*
X351547Y284500D02*
D03*
X357453D02*
D03*
X351047Y276500D02*
D03*
X356953D02*
D03*
X590547Y240000D02*
D03*
X596453D02*
D03*
D141*
X539000Y183917D02*
D03*
Y189823D02*
D03*
D142*
X581000Y356929D02*
D03*
Y353071D02*
D03*
X287800Y242571D02*
D03*
Y246429D02*
D03*
X288600Y274629D02*
D03*
Y270771D02*
D03*
X479000Y155071D02*
D03*
Y158929D02*
D03*
X310500Y329929D02*
D03*
Y326071D02*
D03*
X511500Y166071D02*
D03*
Y169929D02*
D03*
X568500Y173071D02*
D03*
Y176929D02*
D03*
D143*
X390165Y228823D02*
D03*
Y234177D02*
D03*
X385835Y228823D02*
D03*
Y234177D02*
D03*
D144*
X503929Y86500D02*
D03*
X500071D02*
D03*
X638929Y254000D02*
D03*
X635071D02*
D03*
X621029Y208200D02*
D03*
X617171D02*
D03*
X343171Y211800D02*
D03*
X347029D02*
D03*
X306929Y318200D02*
D03*
X303071D02*
D03*
X334571Y345500D02*
D03*
X338429D02*
D03*
X389929Y372500D02*
D03*
X386071D02*
D03*
X421071Y380000D02*
D03*
X424929D02*
D03*
X480571Y376500D02*
D03*
X484429D02*
D03*
X566929Y164500D02*
D03*
X563071D02*
D03*
X617429Y321500D02*
D03*
X613571D02*
D03*
X426429Y269000D02*
D03*
X422571D02*
D03*
X384071Y274500D02*
D03*
X387929D02*
D03*
X361071Y263000D02*
D03*
X364929D02*
D03*
X384071Y240500D02*
D03*
X387929D02*
D03*
X558021Y280743D02*
D03*
X561879D02*
D03*
X399929Y286000D02*
D03*
X396071D02*
D03*
X521965Y238684D02*
D03*
X525824D02*
D03*
D145*
X453000Y247500D02*
D03*
X448000D02*
D03*
X453000Y252500D02*
D03*
X448000D02*
D03*
X453000Y257500D02*
D03*
X448000D02*
D03*
X572500Y182000D02*
D03*
Y187000D02*
D03*
X577500Y182000D02*
D03*
Y187000D02*
D03*
X582500Y182000D02*
D03*
Y187000D02*
D03*
D146*
X509058Y70704D02*
D03*
X511617D02*
D03*
X503940D02*
D03*
X506499D02*
D03*
X514176D02*
D03*
D147*
X564131Y246000D02*
D03*
X555469D02*
D03*
D148*
X359728Y201500D02*
D03*
X363272D02*
D03*
X407500Y233335D02*
D03*
Y237665D02*
D03*
D149*
X346370Y284500D02*
D03*
X342630D02*
D03*
X346370Y276500D02*
D03*
X342630D02*
D03*
X485434Y269564D02*
D03*
X481694D02*
D03*
D150*
X411071Y233500D02*
D03*
X414929D02*
D03*
D151*
X403500Y236429D02*
D03*
Y232571D02*
D03*
D152*
X398000Y231402D02*
D03*
Y234000D02*
D03*
X487000Y150799D02*
D03*
Y148201D02*
D03*
X487100Y116099D02*
D03*
Y113501D02*
D03*
D153*
X378000Y276854D02*
D03*
Y271146D02*
D03*
X538500Y256854D02*
D03*
Y251146D02*
D03*
D154*
X382875Y263036D02*
D03*
X377560D02*
D03*
D155*
X373358Y263000D02*
D03*
X369500D02*
D03*
D156*
X406000Y256000D02*
D03*
D157*
X394386Y264661D02*
D03*
Y263087D02*
D03*
Y261512D02*
D03*
Y259937D02*
D03*
Y258362D02*
D03*
Y256787D02*
D03*
Y255213D02*
D03*
Y253638D02*
D03*
Y252063D02*
D03*
Y250488D02*
D03*
Y248913D02*
D03*
Y247339D02*
D03*
X417614D02*
D03*
Y248913D02*
D03*
Y250488D02*
D03*
Y252063D02*
D03*
Y253638D02*
D03*
Y255213D02*
D03*
Y256787D02*
D03*
Y258362D02*
D03*
Y259937D02*
D03*
Y261512D02*
D03*
Y263087D02*
D03*
Y264661D02*
D03*
D158*
X397339Y244386D02*
D03*
X398913D02*
D03*
X400488D02*
D03*
X402063D02*
D03*
X403638D02*
D03*
X405213D02*
D03*
X406787D02*
D03*
X408362D02*
D03*
X409937D02*
D03*
X411512D02*
D03*
X413087D02*
D03*
X414661D02*
D03*
Y267614D02*
D03*
X413087D02*
D03*
X411512D02*
D03*
X409937D02*
D03*
X408362D02*
D03*
X406787D02*
D03*
X405213D02*
D03*
X403638D02*
D03*
X402063D02*
D03*
X400488D02*
D03*
X398913D02*
D03*
X397339D02*
D03*
D159*
X382000Y229175D02*
D03*
Y230825D02*
D03*
X395000Y233675D02*
D03*
Y235325D02*
D03*
D160*
X338728Y329500D02*
D03*
Y324500D02*
D03*
Y319500D02*
D03*
Y314500D02*
D03*
X317272Y329500D02*
D03*
Y324500D02*
D03*
Y319500D02*
D03*
Y314500D02*
D03*
D161*
X569463Y271000D02*
D03*
X577337D02*
D03*
D162*
X546676Y267295D02*
D03*
Y261390D02*
D03*
X506000Y166047D02*
D03*
Y171953D02*
D03*
X562500Y171547D02*
D03*
Y177453D02*
D03*
D163*
X559122Y269248D02*
D03*
D164*
X563059Y274563D02*
D03*
X561090D02*
D03*
X559122D02*
D03*
X557153D02*
D03*
X555185D02*
D03*
Y263933D02*
D03*
X557153D02*
D03*
X559122D02*
D03*
X561090D02*
D03*
X563059D02*
D03*
D165*
X473588Y269564D02*
D03*
X476541D02*
D03*
X517795Y238740D02*
D03*
X514843D02*
D03*
X532476Y241500D02*
D03*
X529524D02*
D03*
D166*
X511953Y250500D02*
D03*
X506047D02*
D03*
D167*
X506106Y243967D02*
D03*
X510042D02*
D03*
D168*
X523032Y250468D02*
D03*
D169*
X520079Y244661D02*
D03*
X522047D02*
D03*
X524016D02*
D03*
X525984D02*
D03*
Y256276D02*
D03*
X524016D02*
D03*
X522047D02*
D03*
X520079D02*
D03*
D170*
X528839Y247516D02*
D03*
Y249484D02*
D03*
Y251453D02*
D03*
Y253421D02*
D03*
X517224D02*
D03*
Y251453D02*
D03*
Y249484D02*
D03*
Y247516D02*
D03*
D171*
X511425Y162000D02*
D03*
X514575D02*
D03*
X514925Y156000D02*
D03*
X518075D02*
D03*
D172*
X523431Y156346D02*
D03*
D173*
Y158905D02*
D03*
Y161464D02*
D03*
Y164023D02*
D03*
Y166582D02*
D03*
Y169141D02*
D03*
Y171700D02*
D03*
Y174259D02*
D03*
Y176818D02*
D03*
Y179377D02*
D03*
X546069Y156346D02*
D03*
Y158905D02*
D03*
Y161464D02*
D03*
Y164023D02*
D03*
Y166582D02*
D03*
Y169141D02*
D03*
Y171700D02*
D03*
Y174259D02*
D03*
Y176818D02*
D03*
Y179377D02*
D03*
D174*
X500335Y113532D02*
D03*
Y150934D02*
D03*
M02*
