M48
;GenerationSoftware,Autodesk,EAGLE,9.6.2*%
;CreationDate,2022-11-17T19:22:13Z*%
FMAT,2
ICI,OFF
METRIC,TZ,000.000
T6C0.350
T5C0.813
T4C0.900
T3C1.016
T2C3.200
T1C5.000
%
G90
M71
T1
X7620Y73660
X81280Y73660
T2
X59690Y33909
X36195Y33909
T3
X7139Y3547
X46990Y10160
X16510Y48260
X16510Y45720
X16510Y43180
X59690Y10160
X1751Y5343
X16510Y40640
X81280Y56515
X83820Y56515
X86360Y56515
X81280Y59055
X83820Y59055
X86360Y59055
X5343Y5343
X3547Y7139
X5343Y1751
X3547Y3547
T4
X35966Y1905
X38964Y1905
T5
X33020Y69850
X55880Y69850
X45720Y69850
X39370Y74930
X49530Y74930
X52070Y74930
X88900Y40640
X88900Y38100
X88900Y35560
X88900Y33020
X10160Y35560
X10160Y38100
X10160Y43180
X10160Y40640
X10160Y33020
X88900Y43180
X43180Y69850
X36830Y74930
T6
X22860Y22225
X26670Y2540
X50546Y19304
X64770Y15875
X41910Y21590
X52070Y14605
X85725Y49530
X9525Y19050
X8890Y18415
X8255Y17780
X50165Y12700
X50800Y13335
X62230Y15240
X35560Y20955
X67310Y16510
X42545Y22225
X31115Y10795
X12065Y27305
X46990Y18415
X17145Y15875
X10795Y15875
X18415Y19685
X48260Y19685
X17145Y14605
X50165Y6985
X46990Y6985
X74930Y52705
X83820Y31750
X51435Y13970
X46355Y20320
X13970Y16510
X43180Y24765
X42545Y24130
X41910Y45720
X47625Y45720
X53340Y14605
X27940Y1270
X49530Y17272
X53975Y15240
X27305Y1905
X49784Y18542
X42926Y14986
X41910Y11430
X40767Y15240
X42418Y1016
X32512Y2794
X64135Y74930
X31115Y74930
X71120Y74930
X22860Y74930
X29210Y6985
X32385Y15240
X69215Y5715
X65405Y5715
X69215Y17145
X18415Y23495
X26035Y15875
X18415Y8255
X13335Y27305
X23495Y27305
X33655Y27305
X43815Y27305
X53975Y27305
X64135Y27305
X74295Y27305
X81280Y27305
X75565Y58420
X47625Y20320
X65405Y58420
X45085Y58420
X34925Y58420
X24765Y58420
X14605Y58420
X4445Y58420
X32385Y8890
X59055Y23495
X59055Y20955
X51435Y23495
X26670Y10160
X55245Y58420
X36830Y12700
X52070Y10160
X32385Y22225
M30