%TF.GenerationSoftware,KiCad,Pcbnew,8.0.8*%
%TF.CreationDate,2025-04-06T01:52:48-03:00*%
%TF.ProjectId,nsec-badge-2025-baseboard,6e736563-2d62-4616-9467-652d32303235,rev?*%
%TF.SameCoordinates,Original*%
%TF.FileFunction,Other,Comment*%
%FSLAX46Y46*%
G04 Gerber Fmt 4.6, Leading zero omitted, Abs format (unit mm)*
G04 Created by KiCad (PCBNEW 8.0.8) date 2025-04-06 01:52:48*
%MOMM*%
%LPD*%
G01*
G04 APERTURE LIST*
%ADD10C,0.150000*%
G04 APERTURE END LIST*
D10*
X196388095Y-47079104D02*
X196864285Y-47079104D01*
X196292857Y-47364819D02*
X196626190Y-46364819D01*
X196626190Y-46364819D02*
X196959523Y-47364819D01*
X197292857Y-46698152D02*
X197292857Y-47364819D01*
X197292857Y-46793390D02*
X197340476Y-46745771D01*
X197340476Y-46745771D02*
X197435714Y-46698152D01*
X197435714Y-46698152D02*
X197578571Y-46698152D01*
X197578571Y-46698152D02*
X197673809Y-46745771D01*
X197673809Y-46745771D02*
X197721428Y-46841009D01*
X197721428Y-46841009D02*
X197721428Y-47364819D01*
X198054762Y-46698152D02*
X198435714Y-46698152D01*
X198197619Y-46364819D02*
X198197619Y-47221961D01*
X198197619Y-47221961D02*
X198245238Y-47317200D01*
X198245238Y-47317200D02*
X198340476Y-47364819D01*
X198340476Y-47364819D02*
X198435714Y-47364819D01*
X199150000Y-47317200D02*
X199054762Y-47364819D01*
X199054762Y-47364819D02*
X198864286Y-47364819D01*
X198864286Y-47364819D02*
X198769048Y-47317200D01*
X198769048Y-47317200D02*
X198721429Y-47221961D01*
X198721429Y-47221961D02*
X198721429Y-46841009D01*
X198721429Y-46841009D02*
X198769048Y-46745771D01*
X198769048Y-46745771D02*
X198864286Y-46698152D01*
X198864286Y-46698152D02*
X199054762Y-46698152D01*
X199054762Y-46698152D02*
X199150000Y-46745771D01*
X199150000Y-46745771D02*
X199197619Y-46841009D01*
X199197619Y-46841009D02*
X199197619Y-46936247D01*
X199197619Y-46936247D02*
X198721429Y-47031485D01*
X199626191Y-46698152D02*
X199626191Y-47364819D01*
X199626191Y-46793390D02*
X199673810Y-46745771D01*
X199673810Y-46745771D02*
X199769048Y-46698152D01*
X199769048Y-46698152D02*
X199911905Y-46698152D01*
X199911905Y-46698152D02*
X200007143Y-46745771D01*
X200007143Y-46745771D02*
X200054762Y-46841009D01*
X200054762Y-46841009D02*
X200054762Y-47364819D01*
X200530953Y-46698152D02*
X200530953Y-47364819D01*
X200530953Y-46793390D02*
X200578572Y-46745771D01*
X200578572Y-46745771D02*
X200673810Y-46698152D01*
X200673810Y-46698152D02*
X200816667Y-46698152D01*
X200816667Y-46698152D02*
X200911905Y-46745771D01*
X200911905Y-46745771D02*
X200959524Y-46841009D01*
X200959524Y-46841009D02*
X200959524Y-47364819D01*
X201864286Y-47364819D02*
X201864286Y-46841009D01*
X201864286Y-46841009D02*
X201816667Y-46745771D01*
X201816667Y-46745771D02*
X201721429Y-46698152D01*
X201721429Y-46698152D02*
X201530953Y-46698152D01*
X201530953Y-46698152D02*
X201435715Y-46745771D01*
X201864286Y-47317200D02*
X201769048Y-47364819D01*
X201769048Y-47364819D02*
X201530953Y-47364819D01*
X201530953Y-47364819D02*
X201435715Y-47317200D01*
X201435715Y-47317200D02*
X201388096Y-47221961D01*
X201388096Y-47221961D02*
X201388096Y-47126723D01*
X201388096Y-47126723D02*
X201435715Y-47031485D01*
X201435715Y-47031485D02*
X201530953Y-46983866D01*
X201530953Y-46983866D02*
X201769048Y-46983866D01*
X201769048Y-46983866D02*
X201864286Y-46936247D01*
X187057142Y-38347438D02*
X187057142Y-36347438D01*
X188199999Y-38347438D02*
X187342856Y-37204580D01*
X188199999Y-36347438D02*
X187057142Y-37490295D01*
X189057142Y-37299819D02*
X189723809Y-37299819D01*
X190009523Y-38347438D02*
X189057142Y-38347438D01*
X189057142Y-38347438D02*
X189057142Y-36347438D01*
X189057142Y-36347438D02*
X190009523Y-36347438D01*
X190866666Y-37299819D02*
X191533333Y-37299819D01*
X191819047Y-38347438D02*
X190866666Y-38347438D01*
X190866666Y-38347438D02*
X190866666Y-36347438D01*
X190866666Y-36347438D02*
X191819047Y-36347438D01*
X192676190Y-38347438D02*
X192676190Y-36347438D01*
X192676190Y-36347438D02*
X193438095Y-36347438D01*
X193438095Y-36347438D02*
X193628571Y-36442676D01*
X193628571Y-36442676D02*
X193723809Y-36537914D01*
X193723809Y-36537914D02*
X193819047Y-36728390D01*
X193819047Y-36728390D02*
X193819047Y-37014104D01*
X193819047Y-37014104D02*
X193723809Y-37204580D01*
X193723809Y-37204580D02*
X193628571Y-37299819D01*
X193628571Y-37299819D02*
X193438095Y-37395057D01*
X193438095Y-37395057D02*
X192676190Y-37395057D01*
X194676190Y-37585533D02*
X196200000Y-37585533D01*
X197533332Y-36347438D02*
X197914285Y-36347438D01*
X197914285Y-36347438D02*
X198104761Y-36442676D01*
X198104761Y-36442676D02*
X198295237Y-36633152D01*
X198295237Y-36633152D02*
X198390475Y-37014104D01*
X198390475Y-37014104D02*
X198390475Y-37680771D01*
X198390475Y-37680771D02*
X198295237Y-38061723D01*
X198295237Y-38061723D02*
X198104761Y-38252200D01*
X198104761Y-38252200D02*
X197914285Y-38347438D01*
X197914285Y-38347438D02*
X197533332Y-38347438D01*
X197533332Y-38347438D02*
X197342856Y-38252200D01*
X197342856Y-38252200D02*
X197152380Y-38061723D01*
X197152380Y-38061723D02*
X197057142Y-37680771D01*
X197057142Y-37680771D02*
X197057142Y-37014104D01*
X197057142Y-37014104D02*
X197152380Y-36633152D01*
X197152380Y-36633152D02*
X197342856Y-36442676D01*
X197342856Y-36442676D02*
X197533332Y-36347438D01*
X199247618Y-36347438D02*
X199247618Y-37966485D01*
X199247618Y-37966485D02*
X199342856Y-38156961D01*
X199342856Y-38156961D02*
X199438094Y-38252200D01*
X199438094Y-38252200D02*
X199628570Y-38347438D01*
X199628570Y-38347438D02*
X200009523Y-38347438D01*
X200009523Y-38347438D02*
X200199999Y-38252200D01*
X200199999Y-38252200D02*
X200295237Y-38156961D01*
X200295237Y-38156961D02*
X200390475Y-37966485D01*
X200390475Y-37966485D02*
X200390475Y-36347438D01*
X201057142Y-36347438D02*
X202199999Y-36347438D01*
X201628570Y-38347438D02*
X201628570Y-36347438D01*
X204200000Y-36347438D02*
X205533333Y-36347438D01*
X205533333Y-36347438D02*
X204200000Y-38347438D01*
X204200000Y-38347438D02*
X205533333Y-38347438D01*
X206676190Y-36347438D02*
X207057143Y-36347438D01*
X207057143Y-36347438D02*
X207247619Y-36442676D01*
X207247619Y-36442676D02*
X207438095Y-36633152D01*
X207438095Y-36633152D02*
X207533333Y-37014104D01*
X207533333Y-37014104D02*
X207533333Y-37680771D01*
X207533333Y-37680771D02*
X207438095Y-38061723D01*
X207438095Y-38061723D02*
X207247619Y-38252200D01*
X207247619Y-38252200D02*
X207057143Y-38347438D01*
X207057143Y-38347438D02*
X206676190Y-38347438D01*
X206676190Y-38347438D02*
X206485714Y-38252200D01*
X206485714Y-38252200D02*
X206295238Y-38061723D01*
X206295238Y-38061723D02*
X206200000Y-37680771D01*
X206200000Y-37680771D02*
X206200000Y-37014104D01*
X206200000Y-37014104D02*
X206295238Y-36633152D01*
X206295238Y-36633152D02*
X206485714Y-36442676D01*
X206485714Y-36442676D02*
X206676190Y-36347438D01*
X208390476Y-38347438D02*
X208390476Y-36347438D01*
X208390476Y-36347438D02*
X209533333Y-38347438D01*
X209533333Y-38347438D02*
X209533333Y-36347438D01*
X210485714Y-37299819D02*
X211152381Y-37299819D01*
X211438095Y-38347438D02*
X210485714Y-38347438D01*
X210485714Y-38347438D02*
X210485714Y-36347438D01*
X210485714Y-36347438D02*
X211438095Y-36347438D01*
M02*
