M48
; DRILL file {KiCad 8.0.8} date 2025-04-06T01:52:48-0300
; FORMAT={-:-/ absolute / inch / decimal}
; #@! TF.CreationDate,2025-04-06T01:52:48-03:00
; #@! TF.GenerationSoftware,Kicad,Pcbnew,8.0.8
; #@! TF.FileFunction,Plated,1,2,PTH
FMAT,2
INCH
; #@! TA.AperFunction,Plated,PTH,ViaDrill
T1C0.0118
; #@! TA.AperFunction,Plated,PTH,ComponentDrill
T2C0.0256
; #@! TA.AperFunction,Plated,PTH,ComponentDrill
T3C0.0315
; #@! TA.AperFunction,Plated,PTH,ComponentDrill
T4C0.0394
; #@! TA.AperFunction,Plated,PTH,ComponentDrill
T5C0.0433
%
G90
G05
T1
X3.2146Y-3.2835
X3.4016Y-3.0059
X3.9193Y-3.6752
X4.124Y-3.1496
X5.063Y-2.6024
X5.5394Y-1.9252
X5.6181Y-2.8031
X5.6929Y-2.7756
X5.8504Y-2.4606
X5.874Y-2.8543
X5.8898Y-2.0827
X5.9213Y-2.8583
X6.0276Y-2.8268
X6.0512Y-2.7756
X6.0849Y-2.7974
X6.0984Y-2.7677
X6.115Y-2.815
X6.1386Y-2.7811
X6.2165Y-2.0157
X6.2488Y-2.748
X6.313Y-2.3917
X6.315Y-2.4331
X6.4094Y-2.3583
X6.4451Y-1.9447
X6.5315Y-3.8386
X6.685Y-2.2283
X6.7047Y-2.2638
X6.7047Y-2.6496
X6.7205Y-2.748
X6.7362Y-2.622
X6.7795Y-2.5906
X6.8642Y-3.3543
X6.9528Y-2.0315
X7.0396Y-1.9907
X7.1457Y-2.5079
X7.1673Y-2.5315
X7.185Y-2.5591
X7.3406Y-2.7106
X7.4252Y-3.5098
X7.437Y-2.1114
X7.437Y-2.6114
X7.437Y-2.6614
X7.624Y-2.9547
X7.624Y-3.0039
X7.626Y-2.1024
X7.6299Y-3.0492
X7.8346Y-3.4882
X7.8425Y-3.252
X7.8791Y-3.4598
X7.8976Y-2.0433
X7.9469Y-3.2776
X7.9803Y-2.5433
X8.0177Y-2.8661
X8.0827Y-2.4646
X8.0863Y-2.4115
X8.0866Y-2.311
X8.0866Y-2.3622
X8.0906Y-2.1614
X8.0906Y-2.2114
X8.0906Y-2.2598
X8.2844Y-3.9537
X8.4016Y-3.0
X8.4134Y-3.0827
X8.4134Y-3.1142
X8.4734Y-3.3927
X8.4921Y-3.5709
X8.5167Y-3.6742
X8.5256Y-3.0413
X8.5276Y-3.122
X8.5984Y-3.5276
X8.689Y-2.8307
X8.689Y-3.6063
X8.7165Y-2.7126
T2
X8.3421Y-2.3307
X8.3921Y-2.3307
X8.4421Y-2.3307
X8.4921Y-2.3307
T4
X3.8075Y-3.002
X3.9075Y-3.002
X4.922Y-2.4921
X5.022Y-2.4921
X5.0744Y-3.5197
X5.122Y-2.4921
X5.1744Y-3.5197
X5.222Y-2.4921
X5.2744Y-3.5197
X5.322Y-2.4921
X5.3744Y-3.5197
X5.422Y-2.4921
X5.4744Y-3.5197
X5.522Y-2.4921
X5.5744Y-3.5197
X5.622Y-2.4921
X5.6744Y-3.5197
X5.7744Y-3.5197
X5.8744Y-3.5197
X5.9744Y-3.5197
X6.0744Y-3.5197
X6.1744Y-3.5197
X6.2744Y-3.5197
X6.3744Y-3.5197
X6.4744Y-3.5197
X7.1441Y-3.4862
X7.1441Y-3.8671
X7.2441Y-3.4862
X7.2441Y-3.8671
T5
X4.3122Y-2.9352
X4.3122Y-3.1352
X4.3622Y-3.0337
X4.3622Y-3.2352
X4.4122Y-2.9352
X4.4122Y-3.1352
X4.4622Y-3.0337
X4.4622Y-3.2352
X4.5122Y-2.9352
X4.5122Y-3.1352
X4.5622Y-3.0337
X4.5622Y-3.2352
X4.6122Y-2.9352
X4.6122Y-3.1352
X4.6622Y-3.0337
X4.6622Y-3.2352
X4.7122Y-2.9352
X4.7122Y-3.1352
X4.7622Y-3.0337
X4.7622Y-3.2352
X4.8122Y-2.9352
X4.8122Y-3.1352
X4.8622Y-3.0337
X4.8622Y-3.2352
X4.9122Y-2.9352
X4.9122Y-3.1352
X4.9622Y-3.0337
X4.9622Y-3.2352
X5.0122Y-2.9352
X5.0122Y-3.1352
X5.0622Y-3.0337
X5.0622Y-3.2352
X5.1122Y-2.9352
X5.1122Y-3.1352
X5.1622Y-3.0337
X5.1622Y-3.2352
X5.2122Y-2.9352
X5.2122Y-3.1352
X5.2622Y-3.0337
X5.2622Y-3.2352
X5.3122Y-2.9352
X5.3122Y-3.1352
X5.3622Y-3.0337
X5.3622Y-3.2352
X5.4122Y-2.9352
X5.4122Y-3.1352
X5.4622Y-3.0337
X5.4622Y-3.2352
X5.5122Y-2.9352
X5.5122Y-3.1352
X5.5622Y-3.0337
X5.5622Y-3.2352
X5.6122Y-2.9352
X5.6122Y-3.1352
X5.6622Y-3.0337
X5.6622Y-3.2352
X5.7122Y-2.9352
X5.7122Y-3.1352
X5.7622Y-3.0337
X5.7622Y-3.2352
X5.8122Y-2.9352
X5.8122Y-3.1352
X5.8622Y-3.0337
X5.8622Y-3.2352
X5.9122Y-2.9352
X5.9122Y-3.1352
X5.9622Y-3.0337
X5.9622Y-3.2352
X6.0122Y-2.9352
X6.0122Y-3.1352
X6.0622Y-3.0337
X6.0622Y-3.2352
X6.1122Y-2.9352
X6.1122Y-3.1352
X6.1622Y-3.0337
X6.1622Y-3.2352
X6.2122Y-2.9352
X6.2122Y-3.1352
X6.2622Y-3.0337
X6.2622Y-3.2352
X6.3122Y-2.9352
X6.3122Y-3.1352
X6.3622Y-3.0337
X6.3622Y-3.2352
X6.4122Y-2.9352
X6.4122Y-3.1352
X6.4622Y-3.0337
X6.4622Y-3.2352
X6.5122Y-2.9352
X6.5122Y-3.1352
X6.5622Y-3.0337
X6.5622Y-3.2352
X6.6122Y-2.9352
X6.6122Y-3.1352
X6.6622Y-3.0337
X6.6622Y-3.2352
X6.7122Y-2.9352
X6.7122Y-3.1352
X6.8622Y-3.0337
X6.8622Y-3.2352
X6.9122Y-2.9337
X6.9122Y-3.1337
X6.9622Y-3.0337
X6.9622Y-3.2337
X7.0122Y-2.9337
X7.0122Y-3.1337
X7.0622Y-3.0337
X7.0622Y-3.2337
X7.1122Y-2.9337
X7.1122Y-3.1337
X7.1622Y-3.0337
X7.1622Y-3.2337
X7.2122Y-2.9337
X7.2122Y-3.1337
X7.2622Y-3.0337
X7.2622Y-3.2337
X7.3122Y-2.9337
X7.3122Y-3.1337
X7.3622Y-3.0337
X7.3622Y-3.2337
T3
G00X8.4919Y-2.9242
M15
G01X8.5234Y-2.9242
M16
G05
G00X8.4919Y-3.2648
M15
G01X8.5234Y-3.2648
M16
G05
G00X8.6604Y-2.9242
M15
G01X8.684Y-2.9242
M16
G05
G00X8.6604Y-3.2648
M15
G01X8.684Y-3.2648
M16
G05
M30
