%TF.GenerationSoftware,KiCad,Pcbnew,8.0.8*%
%TF.CreationDate,2025-04-06T01:52:48-03:00*%
%TF.ProjectId,nsec-badge-2025-baseboard,6e736563-2d62-4616-9467-652d32303235,rev?*%
%TF.SameCoordinates,Original*%
%TF.FileFunction,Soldermask,Top*%
%TF.FilePolarity,Negative*%
%FSLAX46Y46*%
G04 Gerber Fmt 4.6, Leading zero omitted, Abs format (unit mm)*
G04 Created by KiCad (PCBNEW 8.0.8) date 2025-04-06 01:52:48*
%MOMM*%
%LPD*%
G01*
G04 APERTURE LIST*
G04 Aperture macros list*
%AMRoundRect*
0 Rectangle with rounded corners*
0 $1 Rounding radius*
0 $2 $3 $4 $5 $6 $7 $8 $9 X,Y pos of 4 corners*
0 Add a 4 corners polygon primitive as box body*
4,1,4,$2,$3,$4,$5,$6,$7,$8,$9,$2,$3,0*
0 Add four circle primitives for the rounded corners*
1,1,$1+$1,$2,$3*
1,1,$1+$1,$4,$5*
1,1,$1+$1,$6,$7*
1,1,$1+$1,$8,$9*
0 Add four rect primitives between the rounded corners*
20,1,$1+$1,$2,$3,$4,$5,0*
20,1,$1+$1,$4,$5,$6,$7,0*
20,1,$1+$1,$6,$7,$8,$9,0*
20,1,$1+$1,$8,$9,$2,$3,0*%
%AMFreePoly0*
4,1,19,0.500000,-0.750000,0.000000,-0.750000,0.000000,-0.744911,-0.071157,-0.744911,-0.207708,-0.704816,-0.327430,-0.627875,-0.420627,-0.520320,-0.479746,-0.390866,-0.500000,-0.250000,-0.500000,0.250000,-0.479746,0.390866,-0.420627,0.520320,-0.327430,0.627875,-0.207708,0.704816,-0.071157,0.744911,0.000000,0.744911,0.000000,0.750000,0.500000,0.750000,0.500000,-0.750000,0.500000,-0.750000,
$1*%
%AMFreePoly1*
4,1,19,0.000000,0.744911,0.071157,0.744911,0.207708,0.704816,0.327430,0.627875,0.420627,0.520320,0.479746,0.390866,0.500000,0.250000,0.500000,-0.250000,0.479746,-0.390866,0.420627,-0.520320,0.327430,-0.627875,0.207708,-0.704816,0.071157,-0.744911,0.000000,-0.744911,0.000000,-0.750000,-0.500000,-0.750000,-0.500000,0.750000,0.000000,0.750000,0.000000,0.744911,0.000000,0.744911,
$1*%
G04 Aperture macros list end*
%ADD10R,0.622301X1.104902*%
%ADD11RoundRect,0.225000X-0.250000X0.225000X-0.250000X-0.225000X0.250000X-0.225000X0.250000X0.225000X0*%
%ADD12RoundRect,0.200000X0.200000X0.275000X-0.200000X0.275000X-0.200000X-0.275000X0.200000X-0.275000X0*%
%ADD13RoundRect,0.090000X-0.660000X-0.360000X0.660000X-0.360000X0.660000X0.360000X-0.660000X0.360000X0*%
%ADD14RoundRect,0.200000X-0.275000X0.200000X-0.275000X-0.200000X0.275000X-0.200000X0.275000X0.200000X0*%
%ADD15RoundRect,0.225000X-0.225000X-0.250000X0.225000X-0.250000X0.225000X0.250000X-0.225000X0.250000X0*%
%ADD16R,0.600000X0.400000*%
%ADD17R,1.700000X1.700000*%
%ADD18O,1.700000X1.700000*%
%ADD19RoundRect,0.225000X0.225000X0.250000X-0.225000X0.250000X-0.225000X-0.250000X0.225000X-0.250000X0*%
%ADD20RoundRect,0.200000X0.275000X-0.200000X0.275000X0.200000X-0.275000X0.200000X-0.275000X-0.200000X0*%
%ADD21R,1.900000X1.300000*%
%ADD22FreePoly0,0.000000*%
%ADD23FreePoly1,0.000000*%
%ADD24RoundRect,0.250000X-0.250000X-0.475000X0.250000X-0.475000X0.250000X0.475000X-0.250000X0.475000X0*%
%ADD25C,1.800000*%
%ADD26C,1.600000*%
%ADD27C,2.500025*%
%ADD28R,0.489992X1.156998*%
%ADD29R,0.489992X1.175006*%
%ADD30RoundRect,0.200000X-0.200000X-0.275000X0.200000X-0.275000X0.200000X0.275000X-0.200000X0.275000X0*%
%ADD31R,1.150013X0.950013*%
%ADD32R,1.300000X0.300000*%
%ADD33O,1.800000X1.200000*%
%ADD34O,2.000000X1.200000*%
%ADD35C,0.750013*%
%ADD36R,0.350013X0.780010*%
%ADD37RoundRect,0.250000X-0.475000X0.250000X-0.475000X-0.250000X0.475000X-0.250000X0.475000X0.250000X0*%
%ADD38R,0.800000X1.200000*%
%ADD39R,0.800000X1.400000*%
%ADD40C,0.700025*%
%ADD41O,1.000000X1.000000*%
%ADD42R,1.000000X1.000000*%
%ADD43R,3.500000X1.200000*%
%ADD44R,4.000000X1.200000*%
%ADD45R,3.900000X3.900000*%
%ADD46R,1.500000X0.900000*%
%ADD47R,0.900000X1.500000*%
%ADD48C,0.900025*%
%ADD49R,0.700000X1.500000*%
%ADD50R,1.000000X0.800000*%
%ADD51R,0.950013X1.150013*%
G04 APERTURE END LIST*
D10*
%TO.C,U2*%
X211349733Y-97699975D03*
X209450318Y-97699975D03*
X209450318Y-95100025D03*
X210400533Y-95100025D03*
X211349733Y-95100025D03*
%TD*%
D11*
%TO.C,C1*%
X215500000Y-96475000D03*
X215500000Y-94925000D03*
%TD*%
D12*
%TO.C,R4*%
X212325000Y-74900000D03*
X210675000Y-74900000D03*
%TD*%
D13*
%TO.C,D4*%
X83950000Y-84700000D03*
X83950000Y-88000000D03*
X88850000Y-88000000D03*
X88850000Y-84700000D03*
%TD*%
D12*
%TO.C,R5*%
X210625000Y-81700000D03*
X208975000Y-81700000D03*
%TD*%
D14*
%TO.C,R6*%
X187300000Y-52575000D03*
X187300000Y-54225000D03*
%TD*%
D15*
%TO.C,C9*%
X201525000Y-88500000D03*
X203075000Y-88500000D03*
%TD*%
D16*
%TO.C,LED2*%
X222400000Y-71975235D03*
X222400000Y-70024765D03*
%TD*%
D17*
%TO.C,J1*%
X164450000Y-89400000D03*
D18*
X161910000Y-89400000D03*
X159370000Y-89400000D03*
X156830000Y-89400000D03*
X154290000Y-89400000D03*
X151750000Y-89400000D03*
X149210000Y-89400000D03*
X146670000Y-89400000D03*
X144130000Y-89400000D03*
X141590000Y-89400000D03*
X139050000Y-89400000D03*
X136510000Y-89400000D03*
X133970000Y-89400000D03*
X131430000Y-89400000D03*
X128890000Y-89400000D03*
%TD*%
D19*
%TO.C,C6*%
X187075000Y-56100000D03*
X185525000Y-56100000D03*
%TD*%
D20*
%TO.C,R11*%
X194100000Y-96225000D03*
X194100000Y-94575000D03*
%TD*%
D21*
%TO.C,U9*%
X82100102Y-76150064D03*
X90499898Y-76150064D03*
X82100102Y-80649936D03*
X90499898Y-80649936D03*
%TD*%
D16*
%TO.C,LED1*%
X222400000Y-67024765D03*
X222400000Y-68975235D03*
%TD*%
D22*
%TO.C,JP1*%
X202900000Y-79850000D03*
D23*
X204200000Y-79850000D03*
%TD*%
D17*
%TO.C,J4*%
X184000000Y-88550000D03*
D18*
X181460000Y-88550000D03*
%TD*%
D12*
%TO.C,R3*%
X220425000Y-70100000D03*
X218775000Y-70100000D03*
%TD*%
D16*
%TO.C,LED4*%
X222500000Y-85224765D03*
X222500000Y-87175235D03*
%TD*%
D24*
%TO.C,C8*%
X201550000Y-90400000D03*
X203450000Y-90400000D03*
%TD*%
D25*
%TO.C,J5*%
X187000000Y-82135002D03*
X185729998Y-79594997D03*
X184459995Y-82135002D03*
X183189993Y-79594997D03*
X181919990Y-82135002D03*
X180649988Y-79594997D03*
X179379985Y-82135002D03*
X178109983Y-79594997D03*
X176839980Y-82135002D03*
X175569978Y-79594997D03*
X174299975Y-82174880D03*
D26*
X170489967Y-79634875D03*
D25*
X169219965Y-82174880D03*
X167949962Y-79634875D03*
X166679960Y-82174880D03*
X165409957Y-79634875D03*
X164139955Y-82174880D03*
X162869952Y-79634875D03*
X161599950Y-82174880D03*
X160329947Y-79634875D03*
X159059945Y-82174880D03*
X157789942Y-79634875D03*
X156519940Y-82174880D03*
X155249937Y-79634875D03*
X153979934Y-82174880D03*
X152709932Y-79634875D03*
X151439929Y-82174880D03*
X150169927Y-79634875D03*
X148899924Y-82174880D03*
X147629922Y-79634875D03*
X146359919Y-82174880D03*
X145089917Y-79634875D03*
X143819914Y-82174880D03*
X142549912Y-79634875D03*
X141279909Y-82174880D03*
X140009906Y-79634875D03*
X138739904Y-82174880D03*
X137469901Y-79634875D03*
X136199899Y-82174880D03*
X134929896Y-79634875D03*
X133659894Y-82174880D03*
X132389891Y-79634875D03*
X131119889Y-82174880D03*
X129849886Y-79634875D03*
X128579884Y-82174880D03*
X127309881Y-79634875D03*
X126039879Y-82174880D03*
X124769876Y-79634875D03*
X123499873Y-82174880D03*
X122229871Y-79634875D03*
X120959868Y-82174880D03*
X119689866Y-79634875D03*
X118419863Y-82174880D03*
X117149861Y-79634875D03*
X115879858Y-82174880D03*
X114609856Y-79634875D03*
X113339853Y-82174880D03*
X112069851Y-79634875D03*
X110799848Y-82174880D03*
D26*
X109529846Y-79634875D03*
D25*
X187000000Y-77054991D03*
X185729998Y-74514986D03*
X184459995Y-77054991D03*
X183189993Y-74514986D03*
X181919990Y-77054991D03*
X180649988Y-74514986D03*
X179379985Y-77054991D03*
X178109983Y-74514986D03*
X176839980Y-77054991D03*
X175569978Y-74514986D03*
D26*
X174299975Y-77054991D03*
D25*
X170489967Y-74554864D03*
X169219965Y-77054991D03*
X167949962Y-74554864D03*
X166679960Y-77054991D03*
X165409957Y-74554864D03*
X164139955Y-77054991D03*
X162869952Y-74554864D03*
X161599950Y-77054991D03*
X160329947Y-74554864D03*
X159059945Y-77054991D03*
X157789942Y-74554864D03*
X156519940Y-77054991D03*
X155249937Y-74554864D03*
X153979934Y-77054991D03*
X152709932Y-74554864D03*
X151439929Y-77054991D03*
X150169927Y-74554864D03*
X148899924Y-77054991D03*
X147629922Y-74554864D03*
X146359919Y-77054991D03*
X145089917Y-74554864D03*
X143819914Y-77054991D03*
X142549912Y-74554864D03*
X141279909Y-77054991D03*
X140009906Y-74554864D03*
X138739904Y-77054991D03*
X137469901Y-74554864D03*
X136199899Y-77054991D03*
X134929896Y-74554864D03*
X133659894Y-77054991D03*
X132389891Y-74554864D03*
X131119889Y-77054991D03*
X129849886Y-74554864D03*
X128579884Y-77054991D03*
X127309881Y-74554864D03*
X126039879Y-77054991D03*
X124769876Y-74554864D03*
X123499873Y-77054991D03*
X122229871Y-74554864D03*
X120959868Y-77054991D03*
X119689866Y-74554864D03*
X118419863Y-77054991D03*
X117149861Y-74554864D03*
X115879858Y-77054991D03*
X114609856Y-74554864D03*
X113339853Y-77054991D03*
X112069851Y-74554864D03*
X110799848Y-77054991D03*
X109529846Y-74554864D03*
D27*
X107624842Y-78364872D03*
X172394971Y-78364872D03*
%TD*%
D28*
%TO.C,U8*%
X199150038Y-86053670D03*
X200100000Y-86053670D03*
X201049962Y-86053670D03*
D29*
X201049962Y-83746330D03*
X199150038Y-83746330D03*
%TD*%
D30*
%TO.C,R7*%
X197575000Y-90200000D03*
X199225000Y-90200000D03*
%TD*%
D12*
%TO.C,R1*%
X220425000Y-67000000D03*
X218775000Y-67000000D03*
%TD*%
D14*
%TO.C,R2*%
X213500000Y-96525000D03*
X213500000Y-94875000D03*
%TD*%
D11*
%TO.C,C3*%
X205900000Y-103275000D03*
X205900000Y-101725000D03*
%TD*%
D20*
%TO.C,R10*%
X194050000Y-99525000D03*
X194050000Y-97875000D03*
%TD*%
D12*
%TO.C,R12*%
X220175000Y-85200000D03*
X218525000Y-85200000D03*
%TD*%
D17*
%TO.C,J2*%
X142799965Y-63300000D03*
D18*
X140259965Y-63300000D03*
X137719965Y-63300000D03*
X135179965Y-63300000D03*
X132639965Y-63300000D03*
X130099965Y-63300000D03*
X127559965Y-63300000D03*
X125019965Y-63300000D03*
%TD*%
D31*
%TO.C,D5*%
X206650000Y-80257595D03*
X206650000Y-83642405D03*
%TD*%
D17*
%TO.C,J6*%
X99250000Y-76250000D03*
D18*
X96710000Y-76250000D03*
%TD*%
D12*
%TO.C,R9*%
X220125000Y-88200000D03*
X218475000Y-88200000D03*
%TD*%
D32*
%TO.C,U3*%
X215325857Y-81650038D03*
X215325857Y-80849936D03*
X215325857Y-80350064D03*
X215325857Y-79350064D03*
X215325857Y-77849936D03*
X215325857Y-76849936D03*
X215325857Y-76350000D03*
X215325857Y-75549962D03*
X215325857Y-75249987D03*
X215325857Y-76050000D03*
X215325857Y-77350318D03*
X215325857Y-78350064D03*
X215325857Y-78849936D03*
X215325857Y-79849936D03*
X215325857Y-81149911D03*
X215325857Y-81950013D03*
D33*
X220274041Y-82925121D03*
X220274041Y-74274879D03*
D34*
X216094209Y-74274879D03*
X216094209Y-82925121D03*
D35*
X216594336Y-75700076D03*
X216594336Y-81499924D03*
%TD*%
D36*
%TO.C,U4*%
X210650013Y-79089992D03*
X211300000Y-79089992D03*
X211949987Y-79089992D03*
X211949987Y-77110008D03*
X211300000Y-77110008D03*
X210650013Y-77110008D03*
%TD*%
D17*
%TO.C,J3*%
X184000000Y-98225000D03*
D18*
X181460000Y-98225000D03*
%TD*%
D31*
%TO.C,D2*%
X210700000Y-89592405D03*
X210700000Y-86207595D03*
%TD*%
%TO.C,D1*%
X206300000Y-89692405D03*
X206300000Y-86307595D03*
%TD*%
D37*
%TO.C,C4*%
X183700000Y-52650000D03*
X183700000Y-54550000D03*
%TD*%
%TO.C,C7*%
X203400000Y-82600000D03*
X203400000Y-84500000D03*
%TD*%
D12*
%TO.C,R8*%
X199225000Y-91800000D03*
X197575000Y-91800000D03*
%TD*%
D38*
%TO.C,U6*%
X146149936Y-44364999D03*
X141650064Y-44364999D03*
D39*
X145575133Y-46199899D03*
X142225121Y-46199899D03*
D40*
X144750140Y-45000000D03*
X143050114Y-45000000D03*
%TD*%
D37*
%TO.C,C2*%
X207900000Y-103650000D03*
X207900000Y-101750000D03*
%TD*%
D41*
%TO.C,J7*%
X211890000Y-59200000D03*
X213160000Y-59200000D03*
X214430000Y-59200000D03*
D42*
X215700000Y-59200000D03*
%TD*%
D11*
%TO.C,C5*%
X185600000Y-52625000D03*
X185600000Y-54175000D03*
%TD*%
D38*
%TO.C,U5*%
X139649936Y-44364999D03*
X135150064Y-44364999D03*
D39*
X139075133Y-46199899D03*
X135725121Y-46199899D03*
D40*
X138250140Y-45000000D03*
X136550114Y-45000000D03*
%TD*%
D16*
%TO.C,LED3*%
X222484851Y-88324765D03*
X222484851Y-90275235D03*
%TD*%
D43*
%TO.C,U7*%
X174925070Y-105800000D03*
X174925070Y-107800000D03*
D44*
X169074930Y-109999898D03*
X169075184Y-103600102D03*
%TD*%
D45*
%TO.C,U1*%
X197700000Y-58810000D03*
D46*
X207950000Y-51090000D03*
X207950000Y-52360000D03*
X207950000Y-53630000D03*
X207950000Y-54900000D03*
X207950000Y-56170000D03*
X207950000Y-57440000D03*
X207950000Y-58710000D03*
X207950000Y-59980000D03*
X207950000Y-61250000D03*
X207950000Y-62520000D03*
X207950000Y-63790000D03*
X207950000Y-65060000D03*
X207950000Y-66330000D03*
X207950000Y-67600000D03*
D47*
X206185000Y-68850000D03*
X204915000Y-68850000D03*
X203645000Y-68850000D03*
X202375000Y-68850000D03*
X201105000Y-68850000D03*
X199835000Y-68850000D03*
X198565000Y-68850000D03*
X197295000Y-68850000D03*
X196025000Y-68850000D03*
X194755000Y-68850000D03*
X193485000Y-68850000D03*
X192215000Y-68850000D03*
D46*
X190450000Y-67600000D03*
X190450000Y-66330000D03*
X190450000Y-65060000D03*
X190450000Y-63790000D03*
X190450000Y-62520000D03*
X190450000Y-61250000D03*
X190450000Y-59980000D03*
X190450000Y-58710000D03*
X190450000Y-57440000D03*
X190450000Y-56170000D03*
X190450000Y-54900000D03*
X190450000Y-53630000D03*
X190450000Y-52360000D03*
X190450000Y-51090000D03*
%TD*%
D48*
%TO.C,KEY1*%
X163999873Y-45250038D03*
X160999873Y-45250038D03*
D49*
X164749936Y-47250038D03*
X161749936Y-47250038D03*
X160250064Y-47250038D03*
D50*
X166149987Y-46350114D03*
X158850013Y-46350114D03*
X158850013Y-44149962D03*
X166149987Y-44149962D03*
%TD*%
D51*
%TO.C,D3*%
X152307595Y-51200000D03*
X155692405Y-51200000D03*
%TD*%
D48*
%TO.C,KEY2*%
X153899873Y-45250038D03*
X150899873Y-45250038D03*
D49*
X154649936Y-47250038D03*
X151649936Y-47250038D03*
X150150064Y-47250038D03*
D50*
X156049987Y-46350114D03*
X148750013Y-46350114D03*
X148750013Y-44149962D03*
X156049987Y-44149962D03*
%TD*%
M02*
