%TF.GenerationSoftware,KiCad,Pcbnew,8.0.8*%
%TF.CreationDate,2025-04-06T01:52:48-03:00*%
%TF.ProjectId,nsec-badge-2025-baseboard,6e736563-2d62-4616-9467-652d32303235,rev?*%
%TF.SameCoordinates,Original*%
%TF.FileFunction,Paste,Top*%
%TF.FilePolarity,Positive*%
%FSLAX46Y46*%
G04 Gerber Fmt 4.6, Leading zero omitted, Abs format (unit mm)*
G04 Created by KiCad (PCBNEW 8.0.8) date 2025-04-06 01:52:48*
%MOMM*%
%LPD*%
G01*
G04 APERTURE LIST*
G04 Aperture macros list*
%AMRoundRect*
0 Rectangle with rounded corners*
0 $1 Rounding radius*
0 $2 $3 $4 $5 $6 $7 $8 $9 X,Y pos of 4 corners*
0 Add a 4 corners polygon primitive as box body*
4,1,4,$2,$3,$4,$5,$6,$7,$8,$9,$2,$3,0*
0 Add four circle primitives for the rounded corners*
1,1,$1+$1,$2,$3*
1,1,$1+$1,$4,$5*
1,1,$1+$1,$6,$7*
1,1,$1+$1,$8,$9*
0 Add four rect primitives between the rounded corners*
20,1,$1+$1,$2,$3,$4,$5,0*
20,1,$1+$1,$4,$5,$6,$7,0*
20,1,$1+$1,$6,$7,$8,$9,0*
20,1,$1+$1,$8,$9,$2,$3,0*%
G04 Aperture macros list end*
%ADD10R,0.622301X1.104902*%
%ADD11RoundRect,0.225000X-0.250000X0.225000X-0.250000X-0.225000X0.250000X-0.225000X0.250000X0.225000X0*%
%ADD12RoundRect,0.200000X0.200000X0.275000X-0.200000X0.275000X-0.200000X-0.275000X0.200000X-0.275000X0*%
%ADD13RoundRect,0.090000X-0.660000X-0.360000X0.660000X-0.360000X0.660000X0.360000X-0.660000X0.360000X0*%
%ADD14RoundRect,0.200000X-0.275000X0.200000X-0.275000X-0.200000X0.275000X-0.200000X0.275000X0.200000X0*%
%ADD15RoundRect,0.225000X-0.225000X-0.250000X0.225000X-0.250000X0.225000X0.250000X-0.225000X0.250000X0*%
%ADD16R,0.600000X0.400000*%
%ADD17RoundRect,0.225000X0.225000X0.250000X-0.225000X0.250000X-0.225000X-0.250000X0.225000X-0.250000X0*%
%ADD18RoundRect,0.200000X0.275000X-0.200000X0.275000X0.200000X-0.275000X0.200000X-0.275000X-0.200000X0*%
%ADD19R,1.900000X1.300000*%
%ADD20RoundRect,0.250000X-0.250000X-0.475000X0.250000X-0.475000X0.250000X0.475000X-0.250000X0.475000X0*%
%ADD21R,0.489992X1.156998*%
%ADD22R,0.489992X1.175006*%
%ADD23RoundRect,0.200000X-0.200000X-0.275000X0.200000X-0.275000X0.200000X0.275000X-0.200000X0.275000X0*%
%ADD24R,1.150013X0.950013*%
%ADD25R,1.300000X0.300000*%
%ADD26R,0.350013X0.780010*%
%ADD27RoundRect,0.250000X-0.475000X0.250000X-0.475000X-0.250000X0.475000X-0.250000X0.475000X0.250000X0*%
%ADD28R,0.800000X1.200000*%
%ADD29R,0.800000X1.400000*%
%ADD30R,3.500000X1.200000*%
%ADD31R,4.000000X1.200000*%
%ADD32R,1.500000X0.900000*%
%ADD33R,0.900000X1.500000*%
%ADD34R,0.900000X0.900000*%
%ADD35R,0.700000X1.500000*%
%ADD36R,1.000000X0.800000*%
%ADD37R,0.950013X1.150013*%
G04 APERTURE END LIST*
D10*
%TO.C,U2*%
X211349733Y-97699975D03*
X209450318Y-97699975D03*
X209450318Y-95100025D03*
X210400533Y-95100025D03*
X211349733Y-95100025D03*
%TD*%
D11*
%TO.C,C1*%
X215500000Y-96475000D03*
X215500000Y-94925000D03*
%TD*%
D12*
%TO.C,R4*%
X212325000Y-74900000D03*
X210675000Y-74900000D03*
%TD*%
D13*
%TO.C,D4*%
X83950000Y-84700000D03*
X83950000Y-88000000D03*
X88850000Y-88000000D03*
X88850000Y-84700000D03*
%TD*%
D12*
%TO.C,R5*%
X210625000Y-81700000D03*
X208975000Y-81700000D03*
%TD*%
D14*
%TO.C,R6*%
X187300000Y-52575000D03*
X187300000Y-54225000D03*
%TD*%
D15*
%TO.C,C9*%
X201525000Y-88500000D03*
X203075000Y-88500000D03*
%TD*%
D16*
%TO.C,LED2*%
X222400000Y-71975235D03*
X222400000Y-70024765D03*
%TD*%
D17*
%TO.C,C6*%
X187075000Y-56100000D03*
X185525000Y-56100000D03*
%TD*%
D18*
%TO.C,R11*%
X194100000Y-96225000D03*
X194100000Y-94575000D03*
%TD*%
D19*
%TO.C,U9*%
X82100102Y-76150064D03*
X90499898Y-76150064D03*
X82100102Y-80649936D03*
X90499898Y-80649936D03*
%TD*%
D16*
%TO.C,LED1*%
X222400000Y-67024765D03*
X222400000Y-68975235D03*
%TD*%
D12*
%TO.C,R3*%
X220425000Y-70100000D03*
X218775000Y-70100000D03*
%TD*%
D16*
%TO.C,LED4*%
X222500000Y-85224765D03*
X222500000Y-87175235D03*
%TD*%
D20*
%TO.C,C8*%
X201550000Y-90400000D03*
X203450000Y-90400000D03*
%TD*%
D21*
%TO.C,U8*%
X199150038Y-86053670D03*
X200100000Y-86053670D03*
X201049962Y-86053670D03*
D22*
X201049962Y-83746330D03*
X199150038Y-83746330D03*
%TD*%
D23*
%TO.C,R7*%
X197575000Y-90200000D03*
X199225000Y-90200000D03*
%TD*%
D12*
%TO.C,R1*%
X220425000Y-67000000D03*
X218775000Y-67000000D03*
%TD*%
D14*
%TO.C,R2*%
X213500000Y-96525000D03*
X213500000Y-94875000D03*
%TD*%
D11*
%TO.C,C3*%
X205900000Y-103275000D03*
X205900000Y-101725000D03*
%TD*%
D18*
%TO.C,R10*%
X194050000Y-99525000D03*
X194050000Y-97875000D03*
%TD*%
D12*
%TO.C,R12*%
X220175000Y-85200000D03*
X218525000Y-85200000D03*
%TD*%
D24*
%TO.C,D5*%
X206650000Y-80257595D03*
X206650000Y-83642405D03*
%TD*%
D12*
%TO.C,R9*%
X220125000Y-88200000D03*
X218475000Y-88200000D03*
%TD*%
D25*
%TO.C,U3*%
X215325857Y-81650038D03*
X215325857Y-80849936D03*
X215325857Y-80350064D03*
X215325857Y-79350064D03*
X215325857Y-77849936D03*
X215325857Y-76849936D03*
X215325857Y-76350000D03*
X215325857Y-75549962D03*
X215325857Y-75249987D03*
X215325857Y-76050000D03*
X215325857Y-77350318D03*
X215325857Y-78350064D03*
X215325857Y-78849936D03*
X215325857Y-79849936D03*
X215325857Y-81149911D03*
X215325857Y-81950013D03*
%TD*%
D26*
%TO.C,U4*%
X210650013Y-79089992D03*
X211300000Y-79089992D03*
X211949987Y-79089992D03*
X211949987Y-77110008D03*
X211300000Y-77110008D03*
X210650013Y-77110008D03*
%TD*%
D24*
%TO.C,D2*%
X210700000Y-89592405D03*
X210700000Y-86207595D03*
%TD*%
%TO.C,D1*%
X206300000Y-89692405D03*
X206300000Y-86307595D03*
%TD*%
D27*
%TO.C,C4*%
X183700000Y-52650000D03*
X183700000Y-54550000D03*
%TD*%
%TO.C,C7*%
X203400000Y-82600000D03*
X203400000Y-84500000D03*
%TD*%
D12*
%TO.C,R8*%
X199225000Y-91800000D03*
X197575000Y-91800000D03*
%TD*%
D28*
%TO.C,U6*%
X146149936Y-44364999D03*
X141650064Y-44364999D03*
D29*
X145575133Y-46199899D03*
X142225121Y-46199899D03*
%TD*%
D27*
%TO.C,C2*%
X207900000Y-103650000D03*
X207900000Y-101750000D03*
%TD*%
D11*
%TO.C,C5*%
X185600000Y-52625000D03*
X185600000Y-54175000D03*
%TD*%
D28*
%TO.C,U5*%
X139649936Y-44364999D03*
X135150064Y-44364999D03*
D29*
X139075133Y-46199899D03*
X135725121Y-46199899D03*
%TD*%
D16*
%TO.C,LED3*%
X222484851Y-88324765D03*
X222484851Y-90275235D03*
%TD*%
D30*
%TO.C,U7*%
X174925070Y-105800000D03*
X174925070Y-107800000D03*
D31*
X169074930Y-109999898D03*
X169075184Y-103600102D03*
%TD*%
D32*
%TO.C,U1*%
X207950000Y-51090000D03*
X207950000Y-52360000D03*
X207950000Y-53630000D03*
X207950000Y-54900000D03*
X207950000Y-56170000D03*
X207950000Y-57440000D03*
X207950000Y-58710000D03*
X207950000Y-59980000D03*
X207950000Y-61250000D03*
X207950000Y-62520000D03*
X207950000Y-63790000D03*
X207950000Y-65060000D03*
X207950000Y-66330000D03*
X207950000Y-67600000D03*
D33*
X206185000Y-68850000D03*
X204915000Y-68850000D03*
X203645000Y-68850000D03*
X202375000Y-68850000D03*
X201105000Y-68850000D03*
X199835000Y-68850000D03*
X198565000Y-68850000D03*
X197295000Y-68850000D03*
X196025000Y-68850000D03*
X194755000Y-68850000D03*
X193485000Y-68850000D03*
X192215000Y-68850000D03*
D32*
X190450000Y-67600000D03*
X190450000Y-66330000D03*
X190450000Y-65060000D03*
X190450000Y-63790000D03*
X190450000Y-62520000D03*
X190450000Y-61250000D03*
X190450000Y-59980000D03*
X190450000Y-58710000D03*
X190450000Y-57440000D03*
X190450000Y-56170000D03*
X190450000Y-54900000D03*
X190450000Y-53630000D03*
X190450000Y-52360000D03*
X190450000Y-51090000D03*
D34*
X199100000Y-60210000D03*
X199100000Y-58810000D03*
X199100000Y-57410000D03*
X197700000Y-60210000D03*
X197700000Y-58810000D03*
X197700000Y-57410000D03*
X196300000Y-60210000D03*
X196300000Y-58810000D03*
X196300000Y-57410000D03*
%TD*%
D35*
%TO.C,KEY1*%
X164749936Y-47250038D03*
X161749936Y-47250038D03*
X160250064Y-47250038D03*
D36*
X166149987Y-46350114D03*
X158850013Y-46350114D03*
X158850013Y-44149962D03*
X166149987Y-44149962D03*
%TD*%
D37*
%TO.C,D3*%
X152307595Y-51200000D03*
X155692405Y-51200000D03*
%TD*%
D35*
%TO.C,KEY2*%
X154649936Y-47250038D03*
X151649936Y-47250038D03*
X150150064Y-47250038D03*
D36*
X156049987Y-46350114D03*
X148750013Y-46350114D03*
X148750013Y-44149962D03*
X156049987Y-44149962D03*
%TD*%
M02*
