%TF.GenerationSoftware,KiCad,Pcbnew,8.0.6*%
%TF.CreationDate,2025-01-09T01:40:23-04:00*%
%TF.ProjectId,nsec-badge-2025-baseboard,6e736563-2d62-4616-9467-652d32303235,rev?*%
%TF.SameCoordinates,Original*%
%TF.FileFunction,Copper,L1,Top*%
%TF.FilePolarity,Positive*%
%FSLAX46Y46*%
G04 Gerber Fmt 4.6, Leading zero omitted, Abs format (unit mm)*
G04 Created by KiCad (PCBNEW 8.0.6) date 2025-01-09 01:40:23*
%MOMM*%
%LPD*%
G01*
G04 APERTURE LIST*
%TA.AperFunction,ComponentPad*%
%ADD10R,1.700000X1.700000*%
%TD*%
%TA.AperFunction,ComponentPad*%
%ADD11O,1.700000X1.700000*%
%TD*%
%TA.AperFunction,ComponentPad*%
%ADD12C,1.800000*%
%TD*%
%TA.AperFunction,ComponentPad*%
%ADD13C,1.600000*%
%TD*%
%TA.AperFunction,ViaPad*%
%ADD14C,0.600000*%
%TD*%
%TA.AperFunction,Conductor*%
%ADD15C,0.300000*%
%TD*%
%TA.AperFunction,Conductor*%
%ADD16C,0.200000*%
%TD*%
G04 APERTURE END LIST*
D10*
%TO.P,J3,1,Pin_1*%
%TO.N,GND*%
X95600000Y-93600000D03*
D11*
%TO.P,J3,2,Pin_2*%
%TO.N,VDD*%
X98140000Y-93600000D03*
%TD*%
D10*
%TO.P,J1,1,Pin_1*%
%TO.N,GND*%
X132900000Y-63000000D03*
D11*
%TO.P,J1,2,Pin_2*%
%TO.N,RGB_OUT*%
X135440000Y-63000000D03*
%TO.P,J1,3,Pin_3*%
%TO.N,I2C_SCL*%
X137980000Y-63000000D03*
%TO.P,J1,4,Pin_4*%
%TO.N,I2C_SDA*%
X140520000Y-63000000D03*
%TO.P,J1,5,Pin_5*%
%TO.N,BTN_A*%
X143060000Y-63000000D03*
%TO.P,J1,6,Pin_6*%
%TO.N,RESET*%
X145600000Y-63000000D03*
%TO.P,J1,7,Pin_7*%
%TO.N,UART_RX*%
X148140000Y-63000000D03*
%TO.P,J1,8,Pin_8*%
%TO.N,UART_TX*%
X150680000Y-63000000D03*
%TO.P,J1,9,Pin_9*%
%TO.N,GPIO1*%
X153220000Y-63000000D03*
%TO.P,J1,10,Pin_10*%
%TO.N,GPIO2*%
X155760000Y-63000000D03*
%TO.P,J1,11,Pin_11*%
%TO.N,GPIO3*%
X158300000Y-63000000D03*
%TO.P,J1,12,Pin_12*%
%TO.N,IR_OUT*%
X160840000Y-63000000D03*
%TO.P,J1,13,Pin_13*%
%TO.N,IR_IN*%
X163380000Y-63000000D03*
%TO.P,J1,14,Pin_14*%
%TO.N,BTN_DOWN*%
X165920000Y-63000000D03*
%TO.P,J1,15,Pin_15*%
%TO.N,BTN_UP*%
X168460000Y-63000000D03*
%TD*%
D10*
%TO.P,J7,1,Pin_1*%
%TO.N,GND*%
X106000000Y-63000000D03*
D11*
%TO.P,J7,2,Pin_2*%
%TO.N,+3V3*%
X108540000Y-63000000D03*
%TD*%
D10*
%TO.P,J4,1,Pin_1*%
%TO.N,GND*%
X106000000Y-93600000D03*
D11*
%TO.P,J4,2,Pin_2*%
%TO.N,+3V3*%
X108540000Y-93600000D03*
%TD*%
D12*
%TO.P,J5,A1,~{TRST#}*%
%TO.N,SV2*%
X187870154Y-82345136D03*
%TO.P,J5,A2,+12V*%
%TO.N,unconnected-(J5-+12V-PadA2)*%
X186600152Y-79845009D03*
%TO.P,J5,A3,TMS*%
%TO.N,SV1*%
X185330149Y-82345136D03*
%TO.P,J5,A4,TDI*%
%TO.N,unconnected-(J5-TDI-PadA4)*%
X184060147Y-79845009D03*
%TO.P,J5,A5,+5V*%
%TO.N,VDD*%
X182790144Y-82345136D03*
%TO.P,J5,A6,~{INTA#}*%
%TO.N,unconnected-(J5-~{INTA#}-PadA6)*%
X181520142Y-79845009D03*
%TO.P,J5,A7,~{INTC#}*%
%TO.N,unconnected-(J5-~{INTC#}-PadA7)*%
X180250139Y-82345136D03*
%TO.P,J5,A8,+5V*%
%TO.N,VDD*%
X178980137Y-79845009D03*
%TO.P,J5,A9,RESERVED*%
%TO.N,SV8*%
X177710134Y-82345136D03*
%TO.P,J5,A10,VIO*%
%TO.N,SV7*%
X176440132Y-79845009D03*
%TO.P,J5,A11,RESERVED*%
%TO.N,unconnected-(J5-RESERVED-PadA11)*%
X175170129Y-82345136D03*
%TO.P,J5,A12*%
%TO.N,N/C*%
X173900127Y-79845009D03*
%TO.P,J5,A13*%
X172630124Y-82345136D03*
%TO.P,J5,A14,3.3VAUX*%
%TO.N,unconnected-(J5-3.3VAUX-PadA14)*%
X171360121Y-79845009D03*
%TO.P,J5,A15,~{RST#}*%
%TO.N,unconnected-(J5-~{RST#}-PadA15)*%
X170090119Y-82345136D03*
%TO.P,J5,A16,VIO*%
%TO.N,unconnected-(J5-VIO-PadA16)*%
X168820116Y-79845009D03*
%TO.P,J5,A17,~{GNT#}*%
%TO.N,unconnected-(J5-~{GNT#}-PadA17)*%
X167550114Y-82345136D03*
%TO.P,J5,A18,GND*%
%TO.N,GND*%
X166280111Y-79845009D03*
%TO.P,J5,A19,PME#*%
%TO.N,unconnected-(J5-PME#-PadA19)*%
X165010109Y-82345136D03*
%TO.P,J5,A20,AD[30]*%
%TO.N,unconnected-(J5-AD[30]-PadA20)*%
X163740106Y-79845009D03*
%TO.P,J5,A21,+3.3V*%
%TO.N,+3V3*%
X162470104Y-82345136D03*
%TO.P,J5,A22,AD[28]*%
%TO.N,unconnected-(J5-AD[28]-PadA22)*%
X161200101Y-79845009D03*
%TO.P,J5,A23,AD[26]*%
%TO.N,unconnected-(J5-AD[26]-PadA23)*%
X159930099Y-82345136D03*
%TO.P,J5,A24,GND*%
%TO.N,GND*%
X158660096Y-79845009D03*
%TO.P,J5,A25,AD[24]*%
%TO.N,unconnected-(J5-AD[24]-PadA25)*%
X157390094Y-82345136D03*
%TO.P,J5,A26,IDSEL*%
%TO.N,unconnected-(J5-IDSEL-PadA26)*%
X156120091Y-79845009D03*
%TO.P,J5,A27,+3.3V*%
%TO.N,+3V3*%
X154850088Y-82345136D03*
%TO.P,J5,A28,AD[22]*%
%TO.N,unconnected-(J5-AD[22]-PadA28)*%
X153580086Y-79845009D03*
%TO.P,J5,A29,AD[20]*%
%TO.N,unconnected-(J5-AD[20]-PadA29)*%
X152310083Y-82345136D03*
%TO.P,J5,A30,GND*%
%TO.N,GND*%
X151040081Y-79845009D03*
%TO.P,J5,A31,AD[18]*%
%TO.N,unconnected-(J5-AD[18]-PadA31)*%
X149770078Y-82345136D03*
%TO.P,J5,A32,AD[16]*%
%TO.N,unconnected-(J5-AD[16]-PadA32)*%
X148500076Y-79845009D03*
%TO.P,J5,A33,+3.3V*%
%TO.N,+3V3*%
X147230073Y-82345136D03*
%TO.P,J5,A34,~{FRAME#}*%
%TO.N,unconnected-(J5-~{FRAME#}-PadA34)*%
X145960071Y-79845009D03*
%TO.P,J5,A35,GND*%
%TO.N,GND*%
X144690068Y-82345136D03*
%TO.P,J5,A36,~{TRDY#}*%
%TO.N,SV6*%
X143420066Y-79845009D03*
%TO.P,J5,A37,GND*%
%TO.N,GND*%
X142150063Y-82345136D03*
%TO.P,J5,A38,~{STOP#}*%
%TO.N,SV5*%
X140880060Y-79845009D03*
%TO.P,J5,A39,+3.3V*%
%TO.N,+3V3*%
X139610058Y-82345136D03*
%TO.P,J5,A40,RESERVED*%
%TO.N,unconnected-(J5-RESERVED-PadA40)*%
X138340055Y-79845009D03*
%TO.P,J5,A41,RESERVED*%
%TO.N,unconnected-(J5-RESERVED-PadA41)*%
X137070053Y-82345136D03*
%TO.P,J5,A42,GND*%
%TO.N,GND*%
X135800050Y-79845009D03*
%TO.P,J5,A43,PAR*%
%TO.N,unconnected-(J5-PAR-PadA43)*%
X134530048Y-82345136D03*
%TO.P,J5,A44,AD[15]*%
%TO.N,unconnected-(J5-AD[15]-PadA44)*%
X133260045Y-79845009D03*
%TO.P,J5,A45,+3.3V*%
%TO.N,+3V3*%
X131990043Y-82345136D03*
%TO.P,J5,A46,AD[13]*%
%TO.N,unconnected-(J5-AD[13]-PadA46)*%
X130720040Y-79845009D03*
%TO.P,J5,A47,AD[11]*%
%TO.N,SV4*%
X129450038Y-82345136D03*
%TO.P,J5,A48,GND*%
%TO.N,GND*%
X128180035Y-79845009D03*
%TO.P,J5,A49,AD[09]*%
%TO.N,SV3*%
X126910033Y-82345136D03*
D13*
%TO.P,J5,A52,~{C/BE#[0]}*%
%TO.N,unconnected-(J5-~{C{slash}BE#[0]}-PadA52)*%
X123100025Y-79845009D03*
D12*
%TO.P,J5,A53,+3.3V*%
%TO.N,+3V3*%
X121830022Y-82385014D03*
%TO.P,J5,A54,AD[06]*%
%TO.N,unconnected-(J5-AD[06]-PadA54)*%
X120560020Y-79845009D03*
%TO.P,J5,A55'*%
%TO.N,N/C*%
X119290017Y-82385014D03*
%TO.P,J5,A56,GND*%
%TO.N,GND*%
X118020015Y-79845009D03*
%TO.P,J5,A57,AD[02]*%
%TO.N,unconnected-(J5-AD[02]-PadA57)*%
X116750012Y-82385014D03*
%TO.P,J5,A58,AD[00]*%
%TO.N,unconnected-(J5-AD[00]-PadA58)*%
X115480010Y-79845009D03*
%TO.P,J5,A59,VIO*%
%TO.N,unconnected-(J5-VIO-PadA59)*%
X114210007Y-82385014D03*
%TO.P,J5,A60,~{REQ64#}*%
%TO.N,unconnected-(J5-~{REQ64#}-PadA60)*%
X112940005Y-79845009D03*
%TO.P,J5,A61,+5V*%
%TO.N,VDD*%
X111670002Y-82385014D03*
%TO.P,J5,A62,+5V*%
X110400000Y-79845009D03*
D13*
%TO.P,J5,B1,-12V*%
%TO.N,unconnected-(J5--12V-PadB1)*%
X187870154Y-77265125D03*
D12*
%TO.P,J5,B2,TCK*%
%TO.N,BTN_UP*%
X186600152Y-74725120D03*
%TO.P,J5,B3,GND*%
%TO.N,GND*%
X185330149Y-77265125D03*
%TO.P,J5,B4,TDO*%
%TO.N,BTN_DOWN*%
X184060147Y-74725120D03*
%TO.P,J5,B5,+5V*%
%TO.N,VDD*%
X182790144Y-77265125D03*
%TO.P,J5,B6,+5V*%
X181520142Y-74725120D03*
%TO.P,J5,B7,~{INTB#}*%
%TO.N,IR_IN*%
X180250139Y-77265125D03*
%TO.P,J5,B8,~{INTD#}*%
%TO.N,IR_OUT*%
X178980137Y-74725120D03*
%TO.P,J5,B9,~{PRSNT1#}*%
%TO.N,unconnected-(J5-~{PRSNT1#}-PadB9)*%
X177710134Y-77265125D03*
%TO.P,J5,B10,RESERVED*%
%TO.N,unconnected-(J5-RESERVED-PadB10)*%
X176440132Y-74725120D03*
%TO.P,J5,B11,~{PRSNT2#}*%
%TO.N,unconnected-(J5-~{PRSNT2#}-PadB11)*%
X175170129Y-77265125D03*
%TO.P,J5,B12*%
%TO.N,N/C*%
X173900127Y-74725120D03*
%TO.P,J5,B13*%
X172630124Y-77265125D03*
%TO.P,J5,B14,RESERVED*%
%TO.N,unconnected-(J5-RESERVED-PadB14)*%
X171360121Y-74725120D03*
%TO.P,J5,B15,GND*%
%TO.N,GND*%
X170090119Y-77265125D03*
%TO.P,J5,B16,CLK*%
%TO.N,unconnected-(J5-CLK-PadB16)*%
X168820116Y-74725120D03*
%TO.P,J5,B17,GND*%
%TO.N,GND*%
X167550114Y-77265125D03*
%TO.P,J5,B18,~{REQ#}*%
%TO.N,unconnected-(J5-~{REQ#}-PadB18)*%
X166280111Y-74725120D03*
%TO.P,J5,B19,VIO*%
%TO.N,GPIO1*%
X165010109Y-77265125D03*
%TO.P,J5,B20,AD[31]*%
%TO.N,GPIO2*%
X163740106Y-74725120D03*
%TO.P,J5,B21,AD[29]*%
%TO.N,GPIO3*%
X162470104Y-77265125D03*
%TO.P,J5,B22,GND*%
%TO.N,GND*%
X161200101Y-74725120D03*
%TO.P,J5,B23,AD[27]*%
%TO.N,UART_TX*%
X159930099Y-77265125D03*
%TO.P,J5,B24,AD[25]*%
%TO.N,UART_RX*%
X158660096Y-74725120D03*
%TO.P,J5,B25,+3.3V*%
%TO.N,+3V3*%
X157390094Y-77265125D03*
%TO.P,J5,B26,C/BE#[3]*%
%TO.N,unconnected-(J5-C{slash}BE#[3]-PadB26)*%
X156120091Y-74725120D03*
%TO.P,J5,B27,AD[23]*%
%TO.N,unconnected-(J5-AD[23]-PadB27)*%
X154850088Y-77265125D03*
%TO.P,J5,B28,GND*%
%TO.N,GND*%
X153580086Y-74725120D03*
%TO.P,J5,B29,AD[21]*%
%TO.N,RESET*%
X152310083Y-77265125D03*
%TO.P,J5,B30,AD[19]*%
%TO.N,BTN_A*%
X151040081Y-74725120D03*
%TO.P,J5,B31,+3.3V*%
%TO.N,+3V3*%
X149770078Y-77265125D03*
%TO.P,J5,B32,AD[17]*%
%TO.N,I2C_SDA*%
X148500076Y-74725120D03*
%TO.P,J5,B33,~{C/BE#[2]}*%
%TO.N,I2C_SCL*%
X147230073Y-77265125D03*
%TO.P,J5,B34,GND*%
%TO.N,GND*%
X145960071Y-74725120D03*
%TO.P,J5,B35,~{IRDY#}*%
%TO.N,unconnected-(J5-~{IRDY#}-PadB35)*%
X144690068Y-77265125D03*
%TO.P,J5,B36,+3.3V*%
%TO.N,+3V3*%
X143420066Y-74725120D03*
%TO.P,J5,B37,~{DEVSEL#}*%
%TO.N,unconnected-(J5-~{DEVSEL#}-PadB37)*%
X142150063Y-77265125D03*
%TO.P,J5,B38,GND*%
%TO.N,GND*%
X140880060Y-74725120D03*
%TO.P,J5,B39,~{LOCK#}*%
%TO.N,unconnected-(J5-~{LOCK#}-PadB39)*%
X139610058Y-77265125D03*
%TO.P,J5,B40,~{PERR#}*%
%TO.N,unconnected-(J5-~{PERR#}-PadB40)*%
X138340055Y-74725120D03*
%TO.P,J5,B41,+3.3V*%
%TO.N,+3V3*%
X137070053Y-77265125D03*
%TO.P,J5,B42,~{SERR#}*%
%TO.N,unconnected-(J5-~{SERR#}-PadB42)*%
X135800050Y-74725120D03*
%TO.P,J5,B43,+3.3V*%
%TO.N,+3V3*%
X134530048Y-77265125D03*
%TO.P,J5,B44,~{C/BE#[1]}*%
%TO.N,unconnected-(J5-~{C{slash}BE#[1]}-PadB44)*%
X133260045Y-74725120D03*
%TO.P,J5,B45,AD[14]*%
%TO.N,unconnected-(J5-AD[14]-PadB45)*%
X131990043Y-77265125D03*
%TO.P,J5,B46,GND*%
%TO.N,GND*%
X130720040Y-74725120D03*
%TO.P,J5,B47,AD[12]*%
%TO.N,unconnected-(J5-AD[12]-PadB47)*%
X129450038Y-77265125D03*
%TO.P,J5,B48,AD[10]*%
%TO.N,unconnected-(J5-AD[10]-PadB48)*%
X128180035Y-74725120D03*
D13*
%TO.P,J5,B49,M66EN*%
%TO.N,unconnected-(J5-M66EN-PadB49)*%
X126910033Y-77265125D03*
D12*
%TO.P,J5,B52,AD[08]*%
%TO.N,unconnected-(J5-AD[08]-PadB52)*%
X123100025Y-74725120D03*
%TO.P,J5,B53,AD[07]*%
%TO.N,unconnected-(J5-AD[07]-PadB53)*%
X121830022Y-77305003D03*
%TO.P,J5,B54,+3.3V*%
%TO.N,+3V3*%
X120560020Y-74764998D03*
%TO.P,J5,B55,AD[05]*%
%TO.N,unconnected-(J5-AD[05]-PadB55)*%
X119290017Y-77305003D03*
%TO.P,J5,B56,AD[03]*%
%TO.N,unconnected-(J5-AD[03]-PadB56)*%
X118020015Y-74764998D03*
%TO.P,J5,B57,GND*%
%TO.N,GND*%
X116750012Y-77305003D03*
%TO.P,J5,B58,AD[01]*%
%TO.N,unconnected-(J5-AD[01]-PadB58)*%
X115480010Y-74764998D03*
%TO.P,J5,B59,VIO*%
%TO.N,unconnected-(J5-VIO-PadB59)*%
X114210007Y-77305003D03*
%TO.P,J5,B60,~{ACK64#}*%
%TO.N,RGB_OUT*%
X112940005Y-74764998D03*
%TO.P,J5,B61,+5V*%
%TO.N,VDD*%
X111670002Y-77305003D03*
%TO.P,J5,B62,+5V*%
X110400000Y-74764998D03*
%TD*%
D10*
%TO.P,J2,1,Pin_1*%
%TO.N,SV1*%
X154600035Y-93600000D03*
D11*
%TO.P,J2,2,Pin_2*%
%TO.N,SV2*%
X157140035Y-93600000D03*
%TO.P,J2,3,Pin_3*%
%TO.N,SV3*%
X159680035Y-93600000D03*
%TO.P,J2,4,Pin_4*%
%TO.N,SV4*%
X162220035Y-93600000D03*
%TO.P,J2,5,Pin_5*%
%TO.N,SV5*%
X164760035Y-93600000D03*
%TO.P,J2,6,Pin_6*%
%TO.N,SV6*%
X167300035Y-93600000D03*
%TO.P,J2,7,Pin_7*%
%TO.N,SV7*%
X169840035Y-93600000D03*
%TO.P,J2,8,Pin_8*%
%TO.N,SV8*%
X172380035Y-93600000D03*
%TD*%
D10*
%TO.P,J6,1,Pin_1*%
%TO.N,GND*%
X95600000Y-63000000D03*
D11*
%TO.P,J6,2,Pin_2*%
%TO.N,VDD*%
X98140000Y-63000000D03*
%TD*%
D14*
%TO.N,RGB_OUT*%
X123000000Y-67200000D03*
%TD*%
D15*
%TO.N,GND*%
X116750012Y-78575006D02*
X116750012Y-77305003D01*
X123596260Y-80975120D02*
X127049924Y-80975120D01*
X123476371Y-81095009D02*
X123596260Y-80975120D01*
X167550114Y-77265125D02*
X170090119Y-77265125D01*
X161200101Y-77858972D02*
X161200101Y-74725120D01*
X186102387Y-77265125D02*
X188242392Y-75125120D01*
X151040081Y-79845009D02*
X149790081Y-78595009D01*
X158660096Y-79845009D02*
X159214064Y-79845009D01*
X143400063Y-77782892D02*
X143400063Y-76747358D01*
X167550114Y-78575006D02*
X166280111Y-79845009D01*
X185330149Y-77265125D02*
X186102387Y-77265125D01*
X167550114Y-77265125D02*
X167550114Y-73495199D01*
X127049924Y-80975120D02*
X128180035Y-79845009D01*
X118020015Y-79845009D02*
X116750012Y-78575006D01*
X144212180Y-78595009D02*
X143400063Y-77782892D01*
X118020015Y-79845009D02*
X119270015Y-81095009D01*
X167550114Y-73495199D02*
X167180035Y-73125120D01*
X119270015Y-81095009D02*
X123476371Y-81095009D01*
X149790081Y-78595009D02*
X144212180Y-78595009D01*
X159214064Y-79845009D02*
X161200101Y-77858972D01*
X188242392Y-75125120D02*
X188380035Y-75125120D01*
X167550114Y-77265125D02*
X167550114Y-78575006D01*
X185330149Y-77265125D02*
X186024606Y-77265125D01*
X143400063Y-76747358D02*
X141377825Y-74725120D01*
X186024606Y-77265125D02*
X188632318Y-79872837D01*
X141377825Y-74725120D02*
X140880060Y-74725120D01*
%TO.N,+3V3*%
X154850088Y-79347245D02*
X156932208Y-77265125D01*
X147230073Y-82345136D02*
X145979946Y-81095009D01*
X148520078Y-76015125D02*
X144710071Y-76015125D01*
X154850088Y-82345136D02*
X154850088Y-79347245D01*
X149770078Y-77265125D02*
X148520078Y-76015125D01*
X108865000Y-93600000D02*
X108790000Y-93675000D01*
X148910057Y-84025120D02*
X153170104Y-84025120D01*
X138360058Y-81095136D02*
X133240043Y-81095136D01*
X133240043Y-81095136D02*
X131990043Y-82345136D01*
X147230073Y-82345136D02*
X148910057Y-84025120D01*
X121830022Y-87969978D02*
X116200000Y-93600000D01*
X154850088Y-82345136D02*
X156480072Y-83975120D01*
X151020078Y-78515125D02*
X149770078Y-77265125D01*
X156480072Y-83975120D02*
X160840120Y-83975120D01*
X116200000Y-93600000D02*
X108865000Y-93600000D01*
X145979946Y-81095009D02*
X140860185Y-81095009D01*
X156932208Y-77265125D02*
X155682208Y-78515125D01*
X160840120Y-83975120D02*
X162470104Y-82345136D01*
X156932208Y-77265125D02*
X157390094Y-77265125D01*
X153170104Y-84025120D02*
X154850088Y-82345136D01*
X139610058Y-82345136D02*
X138360058Y-81095136D01*
X121830022Y-82385014D02*
X121830022Y-87969978D01*
X140860185Y-81095009D02*
X139610058Y-82345136D01*
X144710071Y-76015125D02*
X143420066Y-74725120D01*
X155682208Y-78515125D02*
X151020078Y-78515125D01*
%TO.N,VDD*%
X179579444Y-79845009D02*
X178980137Y-79845009D01*
X182790144Y-77265125D02*
X182159328Y-77265125D01*
X178980137Y-79845009D02*
X179610953Y-79845009D01*
D16*
%TO.N,GPIO3*%
X162470104Y-77265125D02*
X162470104Y-67455189D01*
X158300000Y-63285085D02*
X158300000Y-63200000D01*
X162470104Y-67455189D02*
X158300000Y-63285085D01*
%TO.N,RGB_OUT*%
X112940005Y-74764998D02*
X113140157Y-74764998D01*
X135440000Y-63300000D02*
X135440000Y-63200000D01*
X113140157Y-74764998D02*
X120705155Y-67200000D01*
X120705155Y-67200000D02*
X123000000Y-67200000D01*
%TO.N,SV2*%
X166490035Y-84475120D02*
X157140035Y-93825120D01*
X157140035Y-93825120D02*
X157140035Y-93925120D01*
X185740170Y-84475120D02*
X166490035Y-84475120D01*
X187870154Y-82345136D02*
X185740170Y-84475120D01*
%TO.N,SV1*%
X185330149Y-82345136D02*
X183740165Y-83935120D01*
X154700035Y-93825120D02*
X154600035Y-93825120D01*
X164590035Y-83935120D02*
X154700035Y-93825120D01*
X183740165Y-83935120D02*
X164590035Y-83935120D01*
%TD*%
%TA.AperFunction,Conductor*%
%TO.N,GND*%
G36*
X120438832Y-81245415D02*
G01*
X120438860Y-81245086D01*
X120443965Y-81245509D01*
X120443971Y-81245509D01*
X120676075Y-81245509D01*
X120681180Y-81245086D01*
X120681329Y-81246890D01*
X120742833Y-81254302D01*
X120796669Y-81298838D01*
X120817882Y-81365409D01*
X120799735Y-81432882D01*
X120785145Y-81452227D01*
X120721037Y-81521868D01*
X120663827Y-81609434D01*
X120610680Y-81654791D01*
X120541449Y-81664214D01*
X120478114Y-81634711D01*
X120456210Y-81609434D01*
X120398996Y-81521861D01*
X120387030Y-81508862D01*
X120334894Y-81452227D01*
X120303972Y-81389573D01*
X120311833Y-81320146D01*
X120355980Y-81265991D01*
X120422398Y-81244301D01*
X120438832Y-81245415D01*
G37*
%TD.AperFunction*%
%TA.AperFunction,Conductor*%
G36*
X117507485Y-80057306D02*
G01*
X117579895Y-80182725D01*
X117682299Y-80285129D01*
X117807718Y-80357539D01*
X117849769Y-80368806D01*
X117224816Y-80993760D01*
X117163493Y-81027245D01*
X117100074Y-81023549D01*
X117099967Y-81023975D01*
X117097750Y-81023413D01*
X117096879Y-81023363D01*
X117094994Y-81022716D01*
X116921469Y-80993760D01*
X116866061Y-80984514D01*
X116633963Y-80984514D01*
X116633957Y-80984514D01*
X116628852Y-80984937D01*
X116628703Y-80983144D01*
X116567146Y-80975698D01*
X116513330Y-80931138D01*
X116492148Y-80864556D01*
X116510325Y-80797092D01*
X116524880Y-80777803D01*
X116588989Y-80708162D01*
X116646503Y-80620130D01*
X116699648Y-80574774D01*
X116768879Y-80565350D01*
X116832215Y-80594851D01*
X116854120Y-80620131D01*
X116868827Y-80642642D01*
X117496216Y-80015253D01*
X117507485Y-80057306D01*
G37*
%TD.AperFunction*%
%TA.AperFunction,Conductor*%
G36*
X119171201Y-80642642D02*
G01*
X119185910Y-80620130D01*
X119239056Y-80574773D01*
X119308288Y-80565350D01*
X119371623Y-80594852D01*
X119393526Y-80620129D01*
X119451041Y-80708162D01*
X119477269Y-80736653D01*
X119515142Y-80777795D01*
X119546064Y-80840449D01*
X119538203Y-80909876D01*
X119494056Y-80964031D01*
X119427638Y-80985721D01*
X119411204Y-80984609D01*
X119411177Y-80984937D01*
X119406072Y-80984514D01*
X119406066Y-80984514D01*
X119173968Y-80984514D01*
X119118560Y-80993760D01*
X118945034Y-81022716D01*
X118943150Y-81023363D01*
X118942333Y-81023399D01*
X118940062Y-81023975D01*
X118939943Y-81023507D01*
X118873351Y-81026508D01*
X118815213Y-80993760D01*
X118190260Y-80368806D01*
X118232312Y-80357539D01*
X118357731Y-80285129D01*
X118460135Y-80182725D01*
X118532545Y-80057306D01*
X118543812Y-80015253D01*
X119171201Y-80642642D01*
G37*
%TD.AperFunction*%
%TA.AperFunction,Conductor*%
G36*
X121970605Y-80505497D02*
G01*
X121990273Y-80527472D01*
X122023394Y-80574774D01*
X122099979Y-80684150D01*
X122217631Y-80801802D01*
X122251116Y-80863125D01*
X122246132Y-80932817D01*
X122204260Y-80988750D01*
X122138796Y-81013167D01*
X122109541Y-81011792D01*
X121946071Y-80984514D01*
X121713973Y-80984514D01*
X121713967Y-80984514D01*
X121708862Y-80984937D01*
X121708713Y-80983144D01*
X121647156Y-80975698D01*
X121593340Y-80931138D01*
X121572158Y-80864556D01*
X121590335Y-80797092D01*
X121604890Y-80777803D01*
X121668999Y-80708162D01*
X121784891Y-80530776D01*
X121838038Y-80485419D01*
X121907269Y-80475995D01*
X121970605Y-80505497D01*
G37*
%TD.AperFunction*%
%TA.AperFunction,Conductor*%
G36*
X117224422Y-78695863D02*
G01*
X117849770Y-79321210D01*
X117807718Y-79332479D01*
X117682299Y-79404889D01*
X117579895Y-79507293D01*
X117507485Y-79632712D01*
X117496216Y-79674764D01*
X116868826Y-79047374D01*
X116854118Y-79069887D01*
X116800971Y-79115243D01*
X116731740Y-79124666D01*
X116668404Y-79095163D01*
X116646501Y-79069885D01*
X116588993Y-78981861D01*
X116588990Y-78981858D01*
X116588989Y-78981856D01*
X116524332Y-78911620D01*
X116493412Y-78848968D01*
X116501272Y-78779542D01*
X116545419Y-78725387D01*
X116611837Y-78703696D01*
X116628871Y-78704851D01*
X116628894Y-78704580D01*
X116633999Y-78705003D01*
X116866019Y-78705003D01*
X117094867Y-78666815D01*
X117096468Y-78666266D01*
X117097164Y-78666234D01*
X117099844Y-78665556D01*
X117099983Y-78666107D01*
X117166267Y-78663110D01*
X117224422Y-78695863D01*
G37*
%TD.AperFunction*%
%TA.AperFunction,Conductor*%
G36*
X134933703Y-78637589D02*
G01*
X134972429Y-78663835D01*
X135629805Y-79321210D01*
X135587753Y-79332479D01*
X135462334Y-79404889D01*
X135359930Y-79507293D01*
X135287520Y-79632712D01*
X135276251Y-79674764D01*
X134648861Y-79047374D01*
X134634153Y-79069887D01*
X134581006Y-79115243D01*
X134511775Y-79124666D01*
X134448439Y-79095163D01*
X134426536Y-79069885D01*
X134384713Y-79005870D01*
X134369024Y-78981856D01*
X134261548Y-78865105D01*
X134230626Y-78802451D01*
X134238486Y-78733025D01*
X134282634Y-78678869D01*
X134349051Y-78657179D01*
X134373178Y-78658813D01*
X134413999Y-78665625D01*
X134414002Y-78665625D01*
X134646096Y-78665625D01*
X134646097Y-78665625D01*
X134864338Y-78629207D01*
X134933703Y-78637589D01*
G37*
%TD.AperFunction*%
%TA.AperFunction,Conductor*%
G36*
X150173734Y-78637588D02*
G01*
X150212460Y-78663834D01*
X150869836Y-79321210D01*
X150827784Y-79332479D01*
X150702365Y-79404889D01*
X150599961Y-79507293D01*
X150527551Y-79632712D01*
X150516282Y-79674764D01*
X149888892Y-79047374D01*
X149874184Y-79069887D01*
X149821037Y-79115243D01*
X149751806Y-79124666D01*
X149688470Y-79095163D01*
X149666567Y-79069885D01*
X149624744Y-79005870D01*
X149609055Y-78981856D01*
X149501579Y-78865105D01*
X149470657Y-78802451D01*
X149478517Y-78733025D01*
X149522665Y-78678869D01*
X149589082Y-78657179D01*
X149613217Y-78658814D01*
X149634055Y-78662291D01*
X149654027Y-78665625D01*
X149654029Y-78665625D01*
X149886126Y-78665625D01*
X149886127Y-78665625D01*
X150104371Y-78629206D01*
X150173734Y-78637588D01*
G37*
%TD.AperFunction*%
%TA.AperFunction,Conductor*%
G36*
X157793749Y-78637589D02*
G01*
X157832475Y-78663835D01*
X158489851Y-79321210D01*
X158447799Y-79332479D01*
X158322380Y-79404889D01*
X158219976Y-79507293D01*
X158147566Y-79632712D01*
X158136297Y-79674764D01*
X157508907Y-79047374D01*
X157494199Y-79069887D01*
X157441052Y-79115243D01*
X157371821Y-79124666D01*
X157308485Y-79095163D01*
X157286582Y-79069885D01*
X157244759Y-79005870D01*
X157229070Y-78981856D01*
X157121594Y-78865105D01*
X157090672Y-78802451D01*
X157098532Y-78733025D01*
X157142680Y-78678869D01*
X157209097Y-78657179D01*
X157233224Y-78658813D01*
X157274045Y-78665625D01*
X157274048Y-78665625D01*
X157506142Y-78665625D01*
X157506143Y-78665625D01*
X157724384Y-78629207D01*
X157793749Y-78637589D01*
G37*
%TD.AperFunction*%
%TA.AperFunction,Conductor*%
G36*
X165413764Y-78637589D02*
G01*
X165452490Y-78663835D01*
X166109866Y-79321210D01*
X166067814Y-79332479D01*
X165942395Y-79404889D01*
X165839991Y-79507293D01*
X165767581Y-79632712D01*
X165756312Y-79674764D01*
X165128922Y-79047374D01*
X165114214Y-79069887D01*
X165061067Y-79115243D01*
X164991836Y-79124666D01*
X164928500Y-79095163D01*
X164906597Y-79069885D01*
X164864774Y-79005870D01*
X164849085Y-78981856D01*
X164741609Y-78865105D01*
X164710687Y-78802451D01*
X164718547Y-78733025D01*
X164762695Y-78678869D01*
X164829112Y-78657179D01*
X164853239Y-78658813D01*
X164894060Y-78665625D01*
X164894063Y-78665625D01*
X165126157Y-78665625D01*
X165126158Y-78665625D01*
X165344399Y-78629207D01*
X165413764Y-78637589D01*
G37*
%TD.AperFunction*%
%TA.AperFunction,Conductor*%
G36*
X118939953Y-78666469D02*
G01*
X118940062Y-78666042D01*
X118942290Y-78666606D01*
X118943160Y-78666657D01*
X118945036Y-78667301D01*
X119173968Y-78705503D01*
X119173969Y-78705503D01*
X119406072Y-78705503D01*
X119411177Y-78705080D01*
X119411326Y-78706878D01*
X119472855Y-78714306D01*
X119526683Y-78758852D01*
X119547882Y-78825428D01*
X119529723Y-78892896D01*
X119515144Y-78912221D01*
X119451037Y-78981859D01*
X119393526Y-79069887D01*
X119340380Y-79115244D01*
X119271148Y-79124667D01*
X119207813Y-79095165D01*
X119185909Y-79069886D01*
X119171201Y-79047374D01*
X118543812Y-79674763D01*
X118532545Y-79632712D01*
X118460135Y-79507293D01*
X118357731Y-79404889D01*
X118232312Y-79332479D01*
X118190259Y-79321210D01*
X118815212Y-78696256D01*
X118876535Y-78662771D01*
X118939953Y-78666469D01*
G37*
%TD.AperFunction*%
%TA.AperFunction,Conductor*%
G36*
X129333989Y-78665625D02*
G01*
X129333990Y-78665625D01*
X129566089Y-78665625D01*
X129583190Y-78662771D01*
X129606895Y-78658815D01*
X129676259Y-78667195D01*
X129730082Y-78711747D01*
X129751274Y-78778325D01*
X129733108Y-78845791D01*
X129718537Y-78865105D01*
X129611055Y-78981863D01*
X129553546Y-79069887D01*
X129500400Y-79115244D01*
X129431168Y-79124667D01*
X129367833Y-79095165D01*
X129345929Y-79069886D01*
X129331221Y-79047374D01*
X128703832Y-79674762D01*
X128692565Y-79632712D01*
X128620155Y-79507293D01*
X128517751Y-79404889D01*
X128392332Y-79332479D01*
X128350279Y-79321210D01*
X129007654Y-78663834D01*
X129068977Y-78630349D01*
X129115742Y-78629206D01*
X129333989Y-78665625D01*
G37*
%TD.AperFunction*%
%TA.AperFunction,Conductor*%
G36*
X136954004Y-78665625D02*
G01*
X136954005Y-78665625D01*
X137186104Y-78665625D01*
X137203205Y-78662771D01*
X137226910Y-78658815D01*
X137296274Y-78667195D01*
X137350097Y-78711747D01*
X137371289Y-78778325D01*
X137353123Y-78845791D01*
X137338552Y-78865105D01*
X137231070Y-78981863D01*
X137173561Y-79069887D01*
X137120415Y-79115244D01*
X137051183Y-79124667D01*
X136987848Y-79095165D01*
X136965944Y-79069886D01*
X136951236Y-79047374D01*
X136323847Y-79674762D01*
X136312580Y-79632712D01*
X136240170Y-79507293D01*
X136137766Y-79404889D01*
X136012347Y-79332479D01*
X135970294Y-79321210D01*
X136627669Y-78663834D01*
X136688992Y-78630349D01*
X136735757Y-78629206D01*
X136954004Y-78665625D01*
G37*
%TD.AperFunction*%
%TA.AperFunction,Conductor*%
G36*
X159814050Y-78665625D02*
G01*
X159814051Y-78665625D01*
X160046150Y-78665625D01*
X160063251Y-78662771D01*
X160086956Y-78658815D01*
X160156320Y-78667195D01*
X160210143Y-78711747D01*
X160231335Y-78778325D01*
X160213169Y-78845791D01*
X160198598Y-78865105D01*
X160091116Y-78981863D01*
X160033607Y-79069887D01*
X159980461Y-79115244D01*
X159911229Y-79124667D01*
X159847894Y-79095165D01*
X159825990Y-79069886D01*
X159811282Y-79047374D01*
X159183893Y-79674762D01*
X159172626Y-79632712D01*
X159100216Y-79507293D01*
X158997812Y-79404889D01*
X158872393Y-79332479D01*
X158830340Y-79321210D01*
X159487715Y-78663834D01*
X159549038Y-78630349D01*
X159595803Y-78629206D01*
X159814050Y-78665625D01*
G37*
%TD.AperFunction*%
%TA.AperFunction,Conductor*%
G36*
X167434108Y-78665125D02*
G01*
X167666120Y-78665125D01*
X167707523Y-78658216D01*
X167776888Y-78666598D01*
X167830710Y-78711151D01*
X167851901Y-78777729D01*
X167833733Y-78845196D01*
X167819163Y-78864507D01*
X167711133Y-78981859D01*
X167653622Y-79069887D01*
X167600476Y-79115244D01*
X167531244Y-79124667D01*
X167467909Y-79095165D01*
X167446005Y-79069886D01*
X167431297Y-79047374D01*
X166803908Y-79674762D01*
X166792641Y-79632712D01*
X166720231Y-79507293D01*
X166617827Y-79404889D01*
X166492408Y-79332479D01*
X166450355Y-79321210D01*
X167108164Y-78663400D01*
X167169487Y-78629915D01*
X167216255Y-78628772D01*
X167434108Y-78665125D01*
G37*
%TD.AperFunction*%
%TA.AperFunction,Conductor*%
G36*
X144533207Y-78658814D02*
G01*
X144554045Y-78662291D01*
X144574017Y-78665625D01*
X144574019Y-78665625D01*
X144806119Y-78665625D01*
X144826090Y-78662291D01*
X144846926Y-78658815D01*
X144916290Y-78667195D01*
X144970113Y-78711747D01*
X144991305Y-78778325D01*
X144973138Y-78845792D01*
X144958568Y-78865105D01*
X144851086Y-78981863D01*
X144793876Y-79069429D01*
X144740729Y-79114786D01*
X144671498Y-79124209D01*
X144608163Y-79094706D01*
X144586259Y-79069429D01*
X144554228Y-79020402D01*
X144529045Y-78981856D01*
X144421569Y-78865105D01*
X144390647Y-78802451D01*
X144398507Y-78733025D01*
X144442655Y-78678869D01*
X144509072Y-78657179D01*
X144533207Y-78658814D01*
G37*
%TD.AperFunction*%
%TA.AperFunction,Conductor*%
G36*
X147073212Y-78658814D02*
G01*
X147094050Y-78662291D01*
X147114022Y-78665625D01*
X147114024Y-78665625D01*
X147346124Y-78665625D01*
X147366095Y-78662291D01*
X147386931Y-78658815D01*
X147456295Y-78667195D01*
X147510118Y-78711747D01*
X147531310Y-78778325D01*
X147513143Y-78845792D01*
X147498573Y-78865105D01*
X147391091Y-78981863D01*
X147333881Y-79069429D01*
X147280734Y-79114786D01*
X147211503Y-79124209D01*
X147148168Y-79094706D01*
X147126264Y-79069429D01*
X147094233Y-79020402D01*
X147069050Y-78981856D01*
X146961574Y-78865105D01*
X146930652Y-78802451D01*
X146938512Y-78733025D01*
X146982660Y-78678869D01*
X147049077Y-78657179D01*
X147073212Y-78658814D01*
G37*
%TD.AperFunction*%
%TA.AperFunction,Conductor*%
G36*
X116237482Y-77517300D02*
G01*
X116309892Y-77642719D01*
X116412296Y-77745123D01*
X116537715Y-77817533D01*
X116579766Y-77828800D01*
X115954812Y-78453755D01*
X115893489Y-78487240D01*
X115830073Y-78483541D01*
X115829965Y-78483970D01*
X115827732Y-78483404D01*
X115826864Y-78483354D01*
X115824991Y-78482711D01*
X115807444Y-78479783D01*
X115596059Y-78444509D01*
X115363961Y-78444509D01*
X115363955Y-78444509D01*
X115358850Y-78444932D01*
X115358701Y-78443144D01*
X115297119Y-78435683D01*
X115243312Y-78391113D01*
X115222143Y-78324527D01*
X115240333Y-78257067D01*
X115254871Y-78237803D01*
X115318986Y-78168156D01*
X115376500Y-78080124D01*
X115429645Y-78034768D01*
X115498876Y-78025344D01*
X115562212Y-78054845D01*
X115584117Y-78080125D01*
X115598824Y-78102636D01*
X116226213Y-77475247D01*
X116237482Y-77517300D01*
G37*
%TD.AperFunction*%
%TA.AperFunction,Conductor*%
G36*
X117901198Y-78102636D02*
G01*
X117915907Y-78080124D01*
X117969053Y-78034767D01*
X118038285Y-78025344D01*
X118101620Y-78054846D01*
X118123524Y-78080124D01*
X118154980Y-78128272D01*
X118181038Y-78168156D01*
X118245693Y-78238390D01*
X118276614Y-78301043D01*
X118268754Y-78370469D01*
X118224606Y-78424624D01*
X118158189Y-78446315D01*
X118141155Y-78445162D01*
X118141133Y-78445432D01*
X118136028Y-78445009D01*
X117904008Y-78445009D01*
X117675153Y-78483197D01*
X117675148Y-78483198D01*
X117673536Y-78483752D01*
X117672839Y-78483783D01*
X117670183Y-78484456D01*
X117670044Y-78483909D01*
X117603737Y-78486895D01*
X117545604Y-78454148D01*
X116920257Y-77828800D01*
X116962309Y-77817533D01*
X117087728Y-77745123D01*
X117190132Y-77642719D01*
X117262542Y-77517300D01*
X117273809Y-77475247D01*
X117901198Y-78102636D01*
G37*
%TD.AperFunction*%
%TA.AperFunction,Conductor*%
G36*
X167037584Y-77477422D02*
G01*
X167109994Y-77602841D01*
X167212398Y-77705245D01*
X167337817Y-77777655D01*
X167379868Y-77788922D01*
X166722058Y-78446733D01*
X166660735Y-78480218D01*
X166613968Y-78481361D01*
X166396118Y-78445009D01*
X166164101Y-78445009D01*
X166122698Y-78451917D01*
X166053333Y-78443534D01*
X165999512Y-78398980D01*
X165978322Y-78332401D01*
X165996492Y-78264935D01*
X166011052Y-78245636D01*
X166119088Y-78128278D01*
X166176602Y-78040246D01*
X166229747Y-77994890D01*
X166298978Y-77985466D01*
X166362314Y-78014967D01*
X166384219Y-78040247D01*
X166398926Y-78062758D01*
X167026315Y-77435369D01*
X167037584Y-77477422D01*
G37*
%TD.AperFunction*%
%TA.AperFunction,Conductor*%
G36*
X169577589Y-77477422D02*
G01*
X169649999Y-77602841D01*
X169752403Y-77705245D01*
X169877822Y-77777655D01*
X169919873Y-77788922D01*
X169262497Y-78446299D01*
X169201174Y-78479784D01*
X169154406Y-78480927D01*
X168936165Y-78444509D01*
X168704067Y-78444509D01*
X168485824Y-78480926D01*
X168416459Y-78472544D01*
X168377734Y-78446298D01*
X167720359Y-77788922D01*
X167762411Y-77777655D01*
X167887830Y-77705245D01*
X167990234Y-77602841D01*
X168062644Y-77477422D01*
X168073911Y-77435369D01*
X168701299Y-78062757D01*
X168716306Y-78039789D01*
X168769452Y-77994432D01*
X168838683Y-77985008D01*
X168902019Y-78014509D01*
X168923923Y-78039788D01*
X168938930Y-78062758D01*
X168938931Y-78062758D01*
X169566320Y-77435369D01*
X169577589Y-77477422D01*
G37*
%TD.AperFunction*%
%TA.AperFunction,Conductor*%
G36*
X186481335Y-78062758D02*
G01*
X186554712Y-77950449D01*
X186607858Y-77905092D01*
X186677090Y-77895669D01*
X186740425Y-77925171D01*
X186760087Y-77947138D01*
X186870107Y-78104264D01*
X186870111Y-78104269D01*
X187034843Y-78269001D01*
X187033223Y-78270620D01*
X187066524Y-78320623D01*
X187067665Y-78390483D01*
X187030855Y-78449871D01*
X186967782Y-78479929D01*
X186927724Y-78479805D01*
X186716201Y-78444509D01*
X186484103Y-78444509D01*
X186428695Y-78453755D01*
X186265861Y-78480927D01*
X186196495Y-78472545D01*
X186157770Y-78446299D01*
X185500394Y-77788922D01*
X185542446Y-77777655D01*
X185667865Y-77705245D01*
X185770269Y-77602841D01*
X185842679Y-77477422D01*
X185853946Y-77435369D01*
X186481335Y-78062758D01*
G37*
%TD.AperFunction*%
%TA.AperFunction,Conductor*%
G36*
X171241305Y-78062758D02*
G01*
X171256014Y-78040246D01*
X171309160Y-77994889D01*
X171378392Y-77985466D01*
X171441727Y-78014968D01*
X171463630Y-78040245D01*
X171521145Y-78128278D01*
X171582990Y-78195460D01*
X171628620Y-78245028D01*
X171659542Y-78307682D01*
X171651681Y-78377108D01*
X171607534Y-78431264D01*
X171541117Y-78452954D01*
X171516981Y-78451319D01*
X171476170Y-78444509D01*
X171244072Y-78444509D01*
X171025829Y-78480926D01*
X170956464Y-78472544D01*
X170917739Y-78446298D01*
X170260364Y-77788922D01*
X170302416Y-77777655D01*
X170427835Y-77705245D01*
X170530239Y-77602841D01*
X170602649Y-77477422D01*
X170613916Y-77435369D01*
X171241305Y-78062758D01*
G37*
%TD.AperFunction*%
%TA.AperFunction,Conductor*%
G36*
X184817619Y-77477422D02*
G01*
X184890029Y-77602841D01*
X184992433Y-77705245D01*
X185117852Y-77777655D01*
X185159903Y-77788922D01*
X184502528Y-78446298D01*
X184441205Y-78479783D01*
X184394438Y-78480926D01*
X184176196Y-78444509D01*
X183944098Y-78444509D01*
X183903286Y-78451319D01*
X183833921Y-78442937D01*
X183780099Y-78398383D01*
X183758908Y-78331805D01*
X183777077Y-78264339D01*
X183791640Y-78245035D01*
X183899123Y-78128278D01*
X183956637Y-78040246D01*
X184009782Y-77994890D01*
X184079013Y-77985466D01*
X184142349Y-78014967D01*
X184164254Y-78040247D01*
X184178961Y-78062758D01*
X184806350Y-77435369D01*
X184817619Y-77477422D01*
G37*
%TD.AperFunction*%
%TA.AperFunction,Conductor*%
G36*
X143501969Y-78015426D02*
G01*
X143523873Y-78040704D01*
X143581085Y-78128274D01*
X143688564Y-78245028D01*
X143719486Y-78307682D01*
X143711625Y-78377108D01*
X143667478Y-78431264D01*
X143601061Y-78452954D01*
X143576925Y-78451319D01*
X143536115Y-78444509D01*
X143304017Y-78444509D01*
X143263205Y-78451319D01*
X143193840Y-78442937D01*
X143140018Y-78398383D01*
X143118827Y-78331805D01*
X143136996Y-78264339D01*
X143151559Y-78245035D01*
X143259042Y-78128278D01*
X143316256Y-78040704D01*
X143369402Y-77995348D01*
X143438633Y-77985924D01*
X143501969Y-78015426D01*
G37*
%TD.AperFunction*%
%TA.AperFunction,Conductor*%
G36*
X146041974Y-78015426D02*
G01*
X146063878Y-78040704D01*
X146121090Y-78128274D01*
X146228569Y-78245028D01*
X146259491Y-78307682D01*
X146251630Y-78377108D01*
X146207483Y-78431264D01*
X146141066Y-78452954D01*
X146116930Y-78451319D01*
X146076120Y-78444509D01*
X145844022Y-78444509D01*
X145803210Y-78451319D01*
X145733845Y-78442937D01*
X145680023Y-78398383D01*
X145658832Y-78331805D01*
X145677001Y-78264339D01*
X145691564Y-78245035D01*
X145799047Y-78128278D01*
X145856261Y-78040704D01*
X145909407Y-77995348D01*
X145978638Y-77985924D01*
X146041974Y-78015426D01*
G37*
%TD.AperFunction*%
%TA.AperFunction,Conductor*%
G36*
X148581979Y-78015426D02*
G01*
X148603883Y-78040704D01*
X148661095Y-78128274D01*
X148768574Y-78245028D01*
X148799496Y-78307682D01*
X148791635Y-78377108D01*
X148747488Y-78431264D01*
X148681071Y-78452954D01*
X148656935Y-78451319D01*
X148616125Y-78444509D01*
X148384027Y-78444509D01*
X148343215Y-78451319D01*
X148273850Y-78442937D01*
X148220028Y-78398383D01*
X148198837Y-78331805D01*
X148217006Y-78264339D01*
X148231569Y-78245035D01*
X148339052Y-78128278D01*
X148396266Y-78040704D01*
X148449412Y-77995348D01*
X148518643Y-77985924D01*
X148581979Y-78015426D01*
G37*
%TD.AperFunction*%
%TA.AperFunction,Conductor*%
G36*
X161282005Y-78015426D02*
G01*
X161303909Y-78040704D01*
X161361121Y-78128274D01*
X161468600Y-78245028D01*
X161499522Y-78307682D01*
X161491661Y-78377108D01*
X161447514Y-78431264D01*
X161381097Y-78452954D01*
X161356961Y-78451319D01*
X161316150Y-78444509D01*
X161084052Y-78444509D01*
X161043241Y-78451319D01*
X160973876Y-78442937D01*
X160920054Y-78398384D01*
X160898864Y-78331805D01*
X160917032Y-78264339D01*
X160931595Y-78245035D01*
X161039078Y-78128278D01*
X161096292Y-78040704D01*
X161149438Y-77995348D01*
X161218669Y-77985924D01*
X161282005Y-78015426D01*
G37*
%TD.AperFunction*%
%TA.AperFunction,Conductor*%
G36*
X115954813Y-76156251D02*
G01*
X116579767Y-76781204D01*
X116537715Y-76792473D01*
X116412296Y-76864883D01*
X116309892Y-76967287D01*
X116237482Y-77092706D01*
X116226213Y-77134758D01*
X115598823Y-76507368D01*
X115584115Y-76529881D01*
X115530968Y-76575237D01*
X115461737Y-76584660D01*
X115398401Y-76555157D01*
X115376498Y-76529879D01*
X115366961Y-76515281D01*
X115318986Y-76441850D01*
X115254884Y-76372216D01*
X115223962Y-76309562D01*
X115231823Y-76240135D01*
X115275970Y-76185980D01*
X115342388Y-76164290D01*
X115358822Y-76165404D01*
X115358850Y-76165075D01*
X115363955Y-76165498D01*
X115363961Y-76165498D01*
X115596058Y-76165498D01*
X115596059Y-76165498D01*
X115824991Y-76127296D01*
X115826855Y-76126655D01*
X115827665Y-76126619D01*
X115829965Y-76126037D01*
X115830084Y-76126509D01*
X115896653Y-76123497D01*
X115954813Y-76156251D01*
G37*
%TD.AperFunction*%
%TA.AperFunction,Conductor*%
G36*
X117669951Y-76126466D02*
G01*
X117670060Y-76126037D01*
X117672295Y-76126603D01*
X117673163Y-76126653D01*
X117675034Y-76127296D01*
X117903966Y-76165498D01*
X117903967Y-76165498D01*
X118136070Y-76165498D01*
X118141175Y-76165075D01*
X118141324Y-76166879D01*
X118202828Y-76174291D01*
X118256664Y-76218827D01*
X118277877Y-76285398D01*
X118259730Y-76352871D01*
X118245140Y-76372216D01*
X118181032Y-76441857D01*
X118123523Y-76529881D01*
X118070377Y-76575238D01*
X118001145Y-76584661D01*
X117937810Y-76555159D01*
X117915906Y-76529880D01*
X117901198Y-76507368D01*
X117273809Y-77134757D01*
X117262542Y-77092706D01*
X117190132Y-76967287D01*
X117087728Y-76864883D01*
X116962309Y-76792473D01*
X116920256Y-76781204D01*
X117545209Y-76156250D01*
X117606532Y-76122765D01*
X117669951Y-76126466D01*
G37*
%TD.AperFunction*%
%TA.AperFunction,Conductor*%
G36*
X166754915Y-76116373D02*
G01*
X167379869Y-76741326D01*
X167337817Y-76752595D01*
X167212398Y-76825005D01*
X167109994Y-76927409D01*
X167037584Y-77052828D01*
X167026315Y-77094880D01*
X166398925Y-76467490D01*
X166384217Y-76490003D01*
X166331070Y-76535359D01*
X166261839Y-76544782D01*
X166198503Y-76515279D01*
X166176600Y-76490001D01*
X166176302Y-76489545D01*
X166119088Y-76401972D01*
X166054986Y-76332338D01*
X166024064Y-76269684D01*
X166031925Y-76200257D01*
X166076072Y-76146102D01*
X166142490Y-76124412D01*
X166158923Y-76125527D01*
X166158951Y-76125197D01*
X166164056Y-76125620D01*
X166164062Y-76125620D01*
X166396159Y-76125620D01*
X166396160Y-76125620D01*
X166625092Y-76087418D01*
X166626962Y-76086775D01*
X166627774Y-76086739D01*
X166630066Y-76086159D01*
X166630185Y-76086630D01*
X166696760Y-76083621D01*
X166754915Y-76116373D01*
G37*
%TD.AperFunction*%
%TA.AperFunction,Conductor*%
G36*
X168470053Y-76086585D02*
G01*
X168470161Y-76086159D01*
X168472381Y-76086721D01*
X168473252Y-76086772D01*
X168475132Y-76087417D01*
X168475135Y-76087418D01*
X168704067Y-76125620D01*
X168704068Y-76125620D01*
X168936164Y-76125620D01*
X168936165Y-76125620D01*
X169165097Y-76087418D01*
X169166967Y-76086775D01*
X169167779Y-76086739D01*
X169170071Y-76086159D01*
X169170190Y-76086630D01*
X169236765Y-76083621D01*
X169294920Y-76116373D01*
X169919874Y-76741326D01*
X169877822Y-76752595D01*
X169752403Y-76825005D01*
X169649999Y-76927409D01*
X169577589Y-77052828D01*
X169566320Y-77094880D01*
X168938931Y-76467491D01*
X168923925Y-76490460D01*
X168870778Y-76535816D01*
X168801547Y-76545240D01*
X168738211Y-76515738D01*
X168716307Y-76490460D01*
X168701300Y-76467490D01*
X168073911Y-77094879D01*
X168062644Y-77052828D01*
X167990234Y-76927409D01*
X167887830Y-76825005D01*
X167762411Y-76752595D01*
X167720358Y-76741326D01*
X168345310Y-76116373D01*
X168406633Y-76082888D01*
X168470053Y-76086585D01*
G37*
%TD.AperFunction*%
%TA.AperFunction,Conductor*%
G36*
X184534950Y-76116373D02*
G01*
X185159904Y-76741326D01*
X185117852Y-76752595D01*
X184992433Y-76825005D01*
X184890029Y-76927409D01*
X184817619Y-77052828D01*
X184806350Y-77094880D01*
X184178960Y-76467490D01*
X184164252Y-76490003D01*
X184111105Y-76535359D01*
X184041874Y-76544782D01*
X183978538Y-76515279D01*
X183956635Y-76490001D01*
X183956337Y-76489545D01*
X183899123Y-76401972D01*
X183835021Y-76332338D01*
X183804099Y-76269684D01*
X183811960Y-76200257D01*
X183856107Y-76146102D01*
X183922525Y-76124412D01*
X183938959Y-76125526D01*
X183938987Y-76125197D01*
X183944092Y-76125620D01*
X183944098Y-76125620D01*
X184176195Y-76125620D01*
X184176196Y-76125620D01*
X184405128Y-76087418D01*
X184406992Y-76086777D01*
X184407802Y-76086741D01*
X184410102Y-76086159D01*
X184410221Y-76086631D01*
X184476790Y-76083619D01*
X184534950Y-76116373D01*
G37*
%TD.AperFunction*%
%TA.AperFunction,Conductor*%
G36*
X171010058Y-76086585D02*
G01*
X171010166Y-76086159D01*
X171012386Y-76086721D01*
X171013257Y-76086772D01*
X171015137Y-76087417D01*
X171015140Y-76087418D01*
X171244072Y-76125620D01*
X171244073Y-76125620D01*
X171476176Y-76125620D01*
X171481281Y-76125197D01*
X171481430Y-76126999D01*
X171542942Y-76134416D01*
X171596776Y-76178955D01*
X171617984Y-76245529D01*
X171599833Y-76312999D01*
X171585247Y-76332338D01*
X171521139Y-76401979D01*
X171463630Y-76490003D01*
X171410484Y-76535360D01*
X171341252Y-76544783D01*
X171277917Y-76515281D01*
X171256013Y-76490002D01*
X171241305Y-76467490D01*
X170613916Y-77094879D01*
X170602649Y-77052828D01*
X170530239Y-76927409D01*
X170427835Y-76825005D01*
X170302416Y-76752595D01*
X170260363Y-76741326D01*
X170885315Y-76116373D01*
X170946638Y-76082888D01*
X171010058Y-76086585D01*
G37*
%TD.AperFunction*%
%TA.AperFunction,Conductor*%
G36*
X186250088Y-76086588D02*
G01*
X186250197Y-76086159D01*
X186252432Y-76086725D01*
X186253300Y-76086775D01*
X186255171Y-76087418D01*
X186484103Y-76125620D01*
X186484104Y-76125620D01*
X186716200Y-76125620D01*
X186716201Y-76125620D01*
X186879672Y-76098341D01*
X186949034Y-76106723D01*
X187002856Y-76151275D01*
X187024047Y-76217854D01*
X187005880Y-76285320D01*
X186987761Y-76308331D01*
X186870105Y-76425987D01*
X186760095Y-76583101D01*
X186705519Y-76626726D01*
X186636020Y-76633920D01*
X186573665Y-76602398D01*
X186554711Y-76579800D01*
X186481335Y-76467490D01*
X185853946Y-77094879D01*
X185842679Y-77052828D01*
X185770269Y-76927409D01*
X185667865Y-76825005D01*
X185542446Y-76752595D01*
X185500393Y-76741326D01*
X186125346Y-76116372D01*
X186186669Y-76082887D01*
X186250088Y-76086588D01*
G37*
%TD.AperFunction*%
%TA.AperFunction,Conductor*%
G36*
X143298878Y-76125526D02*
G01*
X143298906Y-76125197D01*
X143304011Y-76125620D01*
X143304017Y-76125620D01*
X143536121Y-76125620D01*
X143541226Y-76125197D01*
X143541375Y-76127001D01*
X143602879Y-76134413D01*
X143656715Y-76178949D01*
X143677928Y-76245520D01*
X143659781Y-76312993D01*
X143645191Y-76332338D01*
X143581083Y-76401979D01*
X143523873Y-76489545D01*
X143470726Y-76534902D01*
X143401495Y-76544325D01*
X143338160Y-76514822D01*
X143316256Y-76489545D01*
X143259042Y-76401972D01*
X143194940Y-76332338D01*
X143164018Y-76269684D01*
X143171879Y-76200257D01*
X143216026Y-76146102D01*
X143282444Y-76124412D01*
X143298878Y-76125526D01*
G37*
%TD.AperFunction*%
%TA.AperFunction,Conductor*%
G36*
X161078960Y-76124968D02*
G01*
X161078983Y-76124697D01*
X161084088Y-76125120D01*
X161316114Y-76125120D01*
X161321219Y-76124697D01*
X161321353Y-76126325D01*
X161383484Y-76133822D01*
X161437314Y-76178365D01*
X161458516Y-76244940D01*
X161440359Y-76312410D01*
X161425780Y-76331737D01*
X161388518Y-76372216D01*
X161361119Y-76401979D01*
X161303909Y-76489545D01*
X161250762Y-76534902D01*
X161181531Y-76544325D01*
X161118196Y-76514822D01*
X161096292Y-76489545D01*
X161081883Y-76467491D01*
X161039078Y-76401972D01*
X160974422Y-76331737D01*
X160943502Y-76269085D01*
X160951362Y-76199659D01*
X160995510Y-76145504D01*
X161061927Y-76123813D01*
X161078960Y-76124968D01*
G37*
%TD.AperFunction*%
%TA.AperFunction,Conductor*%
G36*
X130207510Y-74937417D02*
G01*
X130279920Y-75062836D01*
X130382324Y-75165240D01*
X130507743Y-75237650D01*
X130549794Y-75248917D01*
X129924841Y-75873871D01*
X129863518Y-75907356D01*
X129800101Y-75903658D01*
X129799993Y-75904086D01*
X129797768Y-75903522D01*
X129796898Y-75903472D01*
X129795019Y-75902826D01*
X129598824Y-75870088D01*
X129566087Y-75864625D01*
X129333989Y-75864625D01*
X129333983Y-75864625D01*
X129328878Y-75865048D01*
X129328729Y-75863257D01*
X129267164Y-75855805D01*
X129213351Y-75811242D01*
X129192173Y-75744659D01*
X129210354Y-75677196D01*
X129224905Y-75657914D01*
X129289014Y-75588273D01*
X129346529Y-75500240D01*
X129399673Y-75454885D01*
X129468904Y-75445461D01*
X129532240Y-75474962D01*
X129554145Y-75500242D01*
X129568852Y-75522753D01*
X130196241Y-74895364D01*
X130207510Y-74937417D01*
G37*
%TD.AperFunction*%
%TA.AperFunction,Conductor*%
G36*
X140367530Y-74937417D02*
G01*
X140439940Y-75062836D01*
X140542344Y-75165240D01*
X140667763Y-75237650D01*
X140709814Y-75248917D01*
X140084861Y-75873871D01*
X140023538Y-75907356D01*
X139960121Y-75903658D01*
X139960013Y-75904086D01*
X139957788Y-75903522D01*
X139956918Y-75903472D01*
X139955039Y-75902826D01*
X139758844Y-75870088D01*
X139726107Y-75864625D01*
X139494009Y-75864625D01*
X139494003Y-75864625D01*
X139488898Y-75865048D01*
X139488749Y-75863257D01*
X139427184Y-75855805D01*
X139373371Y-75811242D01*
X139352193Y-75744659D01*
X139370374Y-75677196D01*
X139384925Y-75657914D01*
X139449034Y-75588273D01*
X139506549Y-75500240D01*
X139559693Y-75454885D01*
X139628924Y-75445461D01*
X139692260Y-75474962D01*
X139714165Y-75500242D01*
X139728872Y-75522753D01*
X140356261Y-74895364D01*
X140367530Y-74937417D01*
G37*
%TD.AperFunction*%
%TA.AperFunction,Conductor*%
G36*
X153067556Y-74937417D02*
G01*
X153139966Y-75062836D01*
X153242370Y-75165240D01*
X153367789Y-75237650D01*
X153409840Y-75248917D01*
X152784887Y-75873871D01*
X152723564Y-75907356D01*
X152660145Y-75903660D01*
X152660038Y-75904086D01*
X152657821Y-75903524D01*
X152656950Y-75903474D01*
X152655065Y-75902827D01*
X152481540Y-75873871D01*
X152426132Y-75864625D01*
X152194034Y-75864625D01*
X152194028Y-75864625D01*
X152188923Y-75865048D01*
X152188774Y-75863255D01*
X152127217Y-75855809D01*
X152073401Y-75811249D01*
X152052219Y-75744667D01*
X152070396Y-75677203D01*
X152084951Y-75657914D01*
X152149060Y-75588273D01*
X152206575Y-75500240D01*
X152259719Y-75454885D01*
X152328950Y-75445461D01*
X152392286Y-75474962D01*
X152414191Y-75500242D01*
X152428898Y-75522753D01*
X153056287Y-74895364D01*
X153067556Y-74937417D01*
G37*
%TD.AperFunction*%
%TA.AperFunction,Conductor*%
G36*
X160687571Y-74937417D02*
G01*
X160759981Y-75062836D01*
X160862385Y-75165240D01*
X160987804Y-75237650D01*
X161029855Y-75248917D01*
X160404902Y-75873871D01*
X160343579Y-75907356D01*
X160280162Y-75903658D01*
X160280054Y-75904086D01*
X160277829Y-75903522D01*
X160276959Y-75903472D01*
X160275080Y-75902826D01*
X160078885Y-75870088D01*
X160046148Y-75864625D01*
X159814050Y-75864625D01*
X159814044Y-75864625D01*
X159808939Y-75865048D01*
X159808790Y-75863257D01*
X159747225Y-75855805D01*
X159693412Y-75811242D01*
X159672234Y-75744659D01*
X159690415Y-75677196D01*
X159704966Y-75657914D01*
X159769075Y-75588273D01*
X159826590Y-75500240D01*
X159879734Y-75454885D01*
X159948965Y-75445461D01*
X160012301Y-75474962D01*
X160034206Y-75500242D01*
X160048913Y-75522753D01*
X160676302Y-74895364D01*
X160687571Y-74937417D01*
G37*
%TD.AperFunction*%
%TA.AperFunction,Conductor*%
G36*
X154731272Y-75522753D02*
G01*
X154745981Y-75500241D01*
X154799127Y-75454884D01*
X154868359Y-75445461D01*
X154931694Y-75474963D01*
X154953597Y-75500240D01*
X155011112Y-75588273D01*
X155047822Y-75628151D01*
X155075213Y-75657906D01*
X155106135Y-75720560D01*
X155098274Y-75789987D01*
X155054127Y-75844142D01*
X154987709Y-75865832D01*
X154971275Y-75864720D01*
X154971248Y-75865048D01*
X154966143Y-75864625D01*
X154966137Y-75864625D01*
X154734039Y-75864625D01*
X154678631Y-75873871D01*
X154505105Y-75902827D01*
X154503221Y-75903474D01*
X154502404Y-75903510D01*
X154500133Y-75904086D01*
X154500014Y-75903618D01*
X154433422Y-75906619D01*
X154375284Y-75873871D01*
X153750331Y-75248917D01*
X153792383Y-75237650D01*
X153917802Y-75165240D01*
X154020206Y-75062836D01*
X154092616Y-74937417D01*
X154103883Y-74895364D01*
X154731272Y-75522753D01*
G37*
%TD.AperFunction*%
%TA.AperFunction,Conductor*%
G36*
X131871226Y-75522753D02*
G01*
X131885935Y-75500241D01*
X131939081Y-75454884D01*
X132008313Y-75445461D01*
X132071648Y-75474963D01*
X132093551Y-75500240D01*
X132151066Y-75588273D01*
X132187776Y-75628151D01*
X132215167Y-75657906D01*
X132246089Y-75720560D01*
X132238228Y-75789987D01*
X132194081Y-75844142D01*
X132127663Y-75865832D01*
X132111230Y-75864719D01*
X132111203Y-75865048D01*
X132106098Y-75864625D01*
X132106092Y-75864625D01*
X131873994Y-75864625D01*
X131841289Y-75870082D01*
X131645056Y-75902827D01*
X131645053Y-75902828D01*
X131643170Y-75903475D01*
X131642356Y-75903511D01*
X131640088Y-75904086D01*
X131639969Y-75903619D01*
X131573371Y-75906618D01*
X131515238Y-75873871D01*
X130890285Y-75248917D01*
X130932337Y-75237650D01*
X131057756Y-75165240D01*
X131160160Y-75062836D01*
X131232570Y-74937417D01*
X131243837Y-74895364D01*
X131871226Y-75522753D01*
G37*
%TD.AperFunction*%
%TA.AperFunction,Conductor*%
G36*
X142031246Y-75522753D02*
G01*
X142045954Y-75500241D01*
X142099101Y-75454884D01*
X142168332Y-75445460D01*
X142231668Y-75474962D01*
X142253571Y-75500240D01*
X142311083Y-75588269D01*
X142375188Y-75657906D01*
X142406110Y-75720560D01*
X142398249Y-75789987D01*
X142354102Y-75844142D01*
X142287684Y-75865832D01*
X142271250Y-75864720D01*
X142271223Y-75865048D01*
X142266118Y-75864625D01*
X142266112Y-75864625D01*
X142034014Y-75864625D01*
X142001309Y-75870082D01*
X141805076Y-75902827D01*
X141805073Y-75902828D01*
X141803190Y-75903475D01*
X141802376Y-75903511D01*
X141800108Y-75904086D01*
X141799989Y-75903619D01*
X141733391Y-75906618D01*
X141675258Y-75873871D01*
X141050305Y-75248917D01*
X141092357Y-75237650D01*
X141217776Y-75165240D01*
X141320180Y-75062836D01*
X141392590Y-74937417D01*
X141403857Y-74895364D01*
X142031246Y-75522753D01*
G37*
%TD.AperFunction*%
%TA.AperFunction,Conductor*%
G36*
X167632017Y-75475421D02*
G01*
X167653921Y-75500699D01*
X167711131Y-75588265D01*
X167711132Y-75588266D01*
X167711137Y-75588273D01*
X167775791Y-75658506D01*
X167806712Y-75721159D01*
X167798852Y-75790585D01*
X167754704Y-75844740D01*
X167688287Y-75866431D01*
X167671254Y-75865278D01*
X167671232Y-75865548D01*
X167666127Y-75865125D01*
X167434101Y-75865125D01*
X167428996Y-75865548D01*
X167428861Y-75863929D01*
X167366688Y-75856404D01*
X167312875Y-75811841D01*
X167291697Y-75745258D01*
X167309878Y-75677795D01*
X167324432Y-75658510D01*
X167389090Y-75588273D01*
X167446304Y-75500699D01*
X167499450Y-75455343D01*
X167568681Y-75445919D01*
X167632017Y-75475421D01*
G37*
%TD.AperFunction*%
%TA.AperFunction,Conductor*%
G36*
X223942539Y-43820185D02*
G01*
X223988294Y-43872989D01*
X223999500Y-43924500D01*
X223999500Y-113275500D01*
X223979815Y-113342539D01*
X223927011Y-113388294D01*
X223875500Y-113399500D01*
X74524500Y-113399500D01*
X74457461Y-113379815D01*
X74411706Y-113327011D01*
X74400500Y-113275500D01*
X74400500Y-105600000D01*
X78994457Y-105600000D01*
X79014612Y-105958902D01*
X79014614Y-105958914D01*
X79074826Y-106313296D01*
X79074828Y-106313305D01*
X79174339Y-106658718D01*
X79311905Y-106990831D01*
X79485790Y-107305454D01*
X79693805Y-107598622D01*
X79693806Y-107598623D01*
X79933339Y-107866661D01*
X80201377Y-108106194D01*
X80494548Y-108314211D01*
X80809167Y-108488094D01*
X81141276Y-108625659D01*
X81486700Y-108725173D01*
X81841093Y-108785387D01*
X82200000Y-108805543D01*
X82558907Y-108785387D01*
X82913300Y-108725173D01*
X83258724Y-108625659D01*
X83590833Y-108488094D01*
X83905452Y-108314211D01*
X84198623Y-108106194D01*
X84466661Y-107866661D01*
X84706194Y-107598623D01*
X84914211Y-107305452D01*
X85088094Y-106990833D01*
X85225659Y-106658724D01*
X85325173Y-106313300D01*
X85385387Y-105958907D01*
X85405543Y-105600000D01*
X212994457Y-105600000D01*
X213014612Y-105958902D01*
X213014614Y-105958914D01*
X213074826Y-106313296D01*
X213074828Y-106313305D01*
X213174339Y-106658718D01*
X213311905Y-106990831D01*
X213485790Y-107305454D01*
X213693805Y-107598622D01*
X213693806Y-107598623D01*
X213933339Y-107866661D01*
X214201377Y-108106194D01*
X214494548Y-108314211D01*
X214809167Y-108488094D01*
X215141276Y-108625659D01*
X215486700Y-108725173D01*
X215841093Y-108785387D01*
X216200000Y-108805543D01*
X216558907Y-108785387D01*
X216913300Y-108725173D01*
X217258724Y-108625659D01*
X217590833Y-108488094D01*
X217905452Y-108314211D01*
X218198623Y-108106194D01*
X218466661Y-107866661D01*
X218706194Y-107598623D01*
X218914211Y-107305452D01*
X219088094Y-106990833D01*
X219225659Y-106658724D01*
X219325173Y-106313300D01*
X219385387Y-105958907D01*
X219405543Y-105600000D01*
X219385387Y-105241093D01*
X219325173Y-104886700D01*
X219225659Y-104541276D01*
X219088094Y-104209167D01*
X218914211Y-103894548D01*
X218706194Y-103601377D01*
X218466661Y-103333339D01*
X218198623Y-103093806D01*
X218107928Y-103029454D01*
X217905454Y-102885790D01*
X217590831Y-102711905D01*
X217504086Y-102675974D01*
X217258724Y-102574341D01*
X217258720Y-102574339D01*
X217258718Y-102574339D01*
X216913305Y-102474828D01*
X216913296Y-102474826D01*
X216558914Y-102414614D01*
X216558902Y-102414612D01*
X216200000Y-102394457D01*
X215841097Y-102414612D01*
X215841085Y-102414614D01*
X215486703Y-102474826D01*
X215486694Y-102474828D01*
X215141281Y-102574339D01*
X214809168Y-102711905D01*
X214494545Y-102885790D01*
X214201377Y-103093805D01*
X213933339Y-103333339D01*
X213693805Y-103601377D01*
X213485790Y-103894545D01*
X213311905Y-104209168D01*
X213174339Y-104541281D01*
X213074828Y-104886694D01*
X213074826Y-104886703D01*
X213014614Y-105241085D01*
X213014612Y-105241097D01*
X212994457Y-105600000D01*
X85405543Y-105600000D01*
X85385387Y-105241093D01*
X85325173Y-104886700D01*
X85225659Y-104541276D01*
X85088094Y-104209167D01*
X84914211Y-103894548D01*
X84706194Y-103601377D01*
X84466661Y-103333339D01*
X84198623Y-103093806D01*
X84107928Y-103029454D01*
X83905454Y-102885790D01*
X83590831Y-102711905D01*
X83504086Y-102675974D01*
X83258724Y-102574341D01*
X83258720Y-102574339D01*
X83258718Y-102574339D01*
X82913305Y-102474828D01*
X82913296Y-102474826D01*
X82558914Y-102414614D01*
X82558902Y-102414612D01*
X82200000Y-102394457D01*
X81841097Y-102414612D01*
X81841085Y-102414614D01*
X81486703Y-102474826D01*
X81486694Y-102474828D01*
X81141281Y-102574339D01*
X80809168Y-102711905D01*
X80494545Y-102885790D01*
X80201377Y-103093805D01*
X79933339Y-103333339D01*
X79693805Y-103601377D01*
X79485790Y-103894545D01*
X79311905Y-104209168D01*
X79174339Y-104541281D01*
X79074828Y-104886694D01*
X79074826Y-104886703D01*
X79014614Y-105241085D01*
X79014612Y-105241097D01*
X78994457Y-105600000D01*
X74400500Y-105600000D01*
X74400500Y-92702155D01*
X94250000Y-92702155D01*
X94250000Y-93350000D01*
X95166988Y-93350000D01*
X95134075Y-93407007D01*
X95100000Y-93534174D01*
X95100000Y-93665826D01*
X95134075Y-93792993D01*
X95166988Y-93850000D01*
X94250000Y-93850000D01*
X94250000Y-94497844D01*
X94256401Y-94557372D01*
X94256403Y-94557379D01*
X94306645Y-94692086D01*
X94306649Y-94692093D01*
X94392809Y-94807187D01*
X94392812Y-94807190D01*
X94507906Y-94893350D01*
X94507913Y-94893354D01*
X94642620Y-94943596D01*
X94642627Y-94943598D01*
X94702155Y-94949999D01*
X94702172Y-94950000D01*
X95350000Y-94950000D01*
X95350000Y-94033012D01*
X95407007Y-94065925D01*
X95534174Y-94100000D01*
X95665826Y-94100000D01*
X95792993Y-94065925D01*
X95850000Y-94033012D01*
X95850000Y-94950000D01*
X96497828Y-94950000D01*
X96497844Y-94949999D01*
X96557372Y-94943598D01*
X96557379Y-94943596D01*
X96692086Y-94893354D01*
X96692093Y-94893350D01*
X96807187Y-94807190D01*
X96807190Y-94807187D01*
X96893350Y-94692093D01*
X96893354Y-94692086D01*
X96942422Y-94560529D01*
X96984293Y-94504595D01*
X97049757Y-94480178D01*
X97118030Y-94495030D01*
X97146285Y-94516181D01*
X97268599Y-94638495D01*
X97365384Y-94706265D01*
X97462165Y-94774032D01*
X97462167Y-94774033D01*
X97462170Y-94774035D01*
X97676337Y-94873903D01*
X97904592Y-94935063D01*
X98081034Y-94950500D01*
X98139999Y-94955659D01*
X98140000Y-94955659D01*
X98140001Y-94955659D01*
X98198966Y-94950500D01*
X98375408Y-94935063D01*
X98603663Y-94873903D01*
X98817830Y-94774035D01*
X99011401Y-94638495D01*
X99178495Y-94471401D01*
X99314035Y-94277830D01*
X99413903Y-94063663D01*
X99475063Y-93835408D01*
X99495659Y-93600000D01*
X99475063Y-93364592D01*
X99413903Y-93136337D01*
X99314035Y-92922171D01*
X99308425Y-92914158D01*
X99178494Y-92728597D01*
X99152052Y-92702155D01*
X104650000Y-92702155D01*
X104650000Y-93350000D01*
X105566988Y-93350000D01*
X105534075Y-93407007D01*
X105500000Y-93534174D01*
X105500000Y-93665826D01*
X105534075Y-93792993D01*
X105566988Y-93850000D01*
X104650000Y-93850000D01*
X104650000Y-94497844D01*
X104656401Y-94557372D01*
X104656403Y-94557379D01*
X104706645Y-94692086D01*
X104706649Y-94692093D01*
X104792809Y-94807187D01*
X104792812Y-94807190D01*
X104907906Y-94893350D01*
X104907913Y-94893354D01*
X105042620Y-94943596D01*
X105042627Y-94943598D01*
X105102155Y-94949999D01*
X105102172Y-94950000D01*
X105750000Y-94950000D01*
X105750000Y-94033012D01*
X105807007Y-94065925D01*
X105934174Y-94100000D01*
X106065826Y-94100000D01*
X106192993Y-94065925D01*
X106250000Y-94033012D01*
X106250000Y-94950000D01*
X106897828Y-94950000D01*
X106897844Y-94949999D01*
X106957372Y-94943598D01*
X106957379Y-94943596D01*
X107092086Y-94893354D01*
X107092093Y-94893350D01*
X107207187Y-94807190D01*
X107207190Y-94807187D01*
X107293350Y-94692093D01*
X107293354Y-94692086D01*
X107342422Y-94560529D01*
X107384293Y-94504595D01*
X107449757Y-94480178D01*
X107518030Y-94495030D01*
X107546285Y-94516181D01*
X107668599Y-94638495D01*
X107765384Y-94706265D01*
X107862165Y-94774032D01*
X107862167Y-94774033D01*
X107862170Y-94774035D01*
X108076337Y-94873903D01*
X108304592Y-94935063D01*
X108481034Y-94950500D01*
X108539999Y-94955659D01*
X108540000Y-94955659D01*
X108540001Y-94955659D01*
X108598966Y-94950500D01*
X108775408Y-94935063D01*
X109003663Y-94873903D01*
X109217830Y-94774035D01*
X109411401Y-94638495D01*
X109578495Y-94471401D01*
X109696147Y-94303377D01*
X109750724Y-94259752D01*
X109797722Y-94250500D01*
X116264071Y-94250500D01*
X116348615Y-94233682D01*
X116389744Y-94225501D01*
X116508127Y-94176465D01*
X116614669Y-94105277D01*
X122335298Y-88384648D01*
X122406487Y-88278105D01*
X122455523Y-88159722D01*
X122480522Y-88034047D01*
X122480522Y-83699298D01*
X122500207Y-83632259D01*
X122545506Y-83590243D01*
X122598641Y-83561488D01*
X122598642Y-83561486D01*
X122598648Y-83561484D01*
X122649884Y-83521606D01*
X122680873Y-83497486D01*
X122781806Y-83418927D01*
X122939001Y-83248167D01*
X123065946Y-83053863D01*
X123159179Y-82841314D01*
X123216156Y-82616319D01*
X123219460Y-82576444D01*
X123235322Y-82385020D01*
X123235322Y-82385007D01*
X123216157Y-82153716D01*
X123216155Y-82153705D01*
X123159179Y-81928713D01*
X123065946Y-81716165D01*
X122939005Y-81521866D01*
X122939002Y-81521863D01*
X122939001Y-81521861D01*
X122781806Y-81351101D01*
X122781801Y-81351097D01*
X122778030Y-81347625D01*
X122778931Y-81346646D01*
X122741749Y-81294968D01*
X122738083Y-81225195D01*
X122772721Y-81164516D01*
X122834666Y-81132196D01*
X122869537Y-81130311D01*
X122873328Y-81130642D01*
X122873333Y-81130644D01*
X123079451Y-81148677D01*
X123100024Y-81150477D01*
X123100025Y-81150477D01*
X123100027Y-81150477D01*
X123156698Y-81145518D01*
X123326717Y-81130644D01*
X123546521Y-81071748D01*
X123752759Y-80975577D01*
X123939164Y-80845056D01*
X124100072Y-80684148D01*
X124230593Y-80497743D01*
X124326764Y-80291505D01*
X124385660Y-80071701D01*
X124390164Y-80020214D01*
X124415614Y-79955149D01*
X124472204Y-79914169D01*
X124541966Y-79910290D01*
X124551996Y-79913088D01*
X124612322Y-79932689D01*
X124665365Y-79949924D01*
X124778118Y-79967782D01*
X124890871Y-79985641D01*
X124890872Y-79985641D01*
X125119186Y-79985641D01*
X125119187Y-79985641D01*
X125344692Y-79949924D01*
X125344695Y-79949923D01*
X125344696Y-79949923D01*
X125561830Y-79879372D01*
X125561830Y-79879371D01*
X125561833Y-79879371D01*
X125765263Y-79775718D01*
X125949975Y-79641517D01*
X126111418Y-79480074D01*
X126245619Y-79295362D01*
X126349272Y-79091932D01*
X126356435Y-79069886D01*
X126419824Y-78874795D01*
X126419824Y-78874794D01*
X126419825Y-78874791D01*
X126455542Y-78649286D01*
X126455542Y-78649283D01*
X126455925Y-78644423D01*
X126457530Y-78644549D01*
X126475227Y-78584282D01*
X126528031Y-78538527D01*
X126597189Y-78528583D01*
X126611623Y-78531543D01*
X126683341Y-78550760D01*
X126845263Y-78564926D01*
X126910031Y-78570593D01*
X126910033Y-78570593D01*
X126910035Y-78570593D01*
X126966706Y-78565634D01*
X127136725Y-78550760D01*
X127227794Y-78526358D01*
X127297641Y-78528021D01*
X127355503Y-78567183D01*
X127383008Y-78631411D01*
X127383647Y-78653817D01*
X127381235Y-78692656D01*
X128009790Y-79321210D01*
X127967738Y-79332479D01*
X127842319Y-79404889D01*
X127739915Y-79507293D01*
X127667505Y-79632712D01*
X127656236Y-79674764D01*
X127028846Y-79047374D01*
X126944551Y-79176399D01*
X126851352Y-79388873D01*
X126794396Y-79613790D01*
X126775237Y-79845003D01*
X126775237Y-79845014D01*
X126794396Y-80076227D01*
X126851352Y-80301144D01*
X126944551Y-80513618D01*
X127071452Y-80707854D01*
X127097963Y-80736653D01*
X127128886Y-80799307D01*
X127121026Y-80868733D01*
X127076879Y-80922889D01*
X127010462Y-80944580D01*
X127006734Y-80944636D01*
X126793984Y-80944636D01*
X126748197Y-80952276D01*
X126565048Y-80982838D01*
X126345537Y-81058197D01*
X126345528Y-81058200D01*
X126141404Y-81168667D01*
X126141398Y-81168671D01*
X125958255Y-81311217D01*
X125958252Y-81311220D01*
X125958249Y-81311222D01*
X125958249Y-81311223D01*
X125899300Y-81375258D01*
X125801049Y-81481988D01*
X125674108Y-81676287D01*
X125580875Y-81888835D01*
X125523899Y-82113827D01*
X125523897Y-82113838D01*
X125504733Y-82345129D01*
X125504733Y-82345142D01*
X125523897Y-82576433D01*
X125523899Y-82576444D01*
X125580875Y-82801436D01*
X125674108Y-83013984D01*
X125801049Y-83208283D01*
X125801051Y-83208285D01*
X125801054Y-83208289D01*
X125958249Y-83379049D01*
X125958252Y-83379051D01*
X125958255Y-83379054D01*
X126141398Y-83521600D01*
X126141404Y-83521604D01*
X126141407Y-83521606D01*
X126224190Y-83566406D01*
X126344685Y-83631615D01*
X126345530Y-83632072D01*
X126459520Y-83671204D01*
X126565048Y-83707433D01*
X126565050Y-83707433D01*
X126565052Y-83707434D01*
X126793984Y-83745636D01*
X126793985Y-83745636D01*
X127026081Y-83745636D01*
X127026082Y-83745636D01*
X127255014Y-83707434D01*
X127255067Y-83707416D01*
X127278713Y-83699298D01*
X127474536Y-83632072D01*
X127678659Y-83521606D01*
X127679203Y-83521183D01*
X127810579Y-83418929D01*
X127861817Y-83379049D01*
X128019012Y-83208289D01*
X128076226Y-83120715D01*
X128129372Y-83075359D01*
X128198603Y-83065935D01*
X128261939Y-83095437D01*
X128283843Y-83120715D01*
X128341053Y-83208281D01*
X128341055Y-83208283D01*
X128341059Y-83208289D01*
X128498254Y-83379049D01*
X128498257Y-83379051D01*
X128498260Y-83379054D01*
X128681403Y-83521600D01*
X128681409Y-83521604D01*
X128681412Y-83521606D01*
X128764195Y-83566406D01*
X128884690Y-83631615D01*
X128885535Y-83632072D01*
X128999525Y-83671204D01*
X129105053Y-83707433D01*
X129105055Y-83707433D01*
X129105057Y-83707434D01*
X129333989Y-83745636D01*
X129333990Y-83745636D01*
X129566086Y-83745636D01*
X129566087Y-83745636D01*
X129795019Y-83707434D01*
X129795072Y-83707416D01*
X129818718Y-83699298D01*
X130014541Y-83632072D01*
X130218664Y-83521606D01*
X130219208Y-83521183D01*
X130350584Y-83418929D01*
X130401822Y-83379049D01*
X130559017Y-83208289D01*
X130616231Y-83120715D01*
X130669377Y-83075359D01*
X130738608Y-83065935D01*
X130801944Y-83095437D01*
X130823848Y-83120715D01*
X130881058Y-83208281D01*
X130881060Y-83208283D01*
X130881064Y-83208289D01*
X131038259Y-83379049D01*
X131038262Y-83379051D01*
X131038265Y-83379054D01*
X131221408Y-83521600D01*
X131221414Y-83521604D01*
X131221417Y-83521606D01*
X131304200Y-83566406D01*
X131424695Y-83631615D01*
X131425540Y-83632072D01*
X131539530Y-83671204D01*
X131645058Y-83707433D01*
X131645060Y-83707433D01*
X131645062Y-83707434D01*
X131873994Y-83745636D01*
X131873995Y-83745636D01*
X132106091Y-83745636D01*
X132106092Y-83745636D01*
X132335024Y-83707434D01*
X132335077Y-83707416D01*
X132358723Y-83699298D01*
X132554546Y-83632072D01*
X132758669Y-83521606D01*
X132759213Y-83521183D01*
X132890589Y-83418929D01*
X132941827Y-83379049D01*
X133099022Y-83208289D01*
X133156236Y-83120715D01*
X133209382Y-83075359D01*
X133278613Y-83065935D01*
X133341949Y-83095437D01*
X133363853Y-83120715D01*
X133421063Y-83208281D01*
X133421065Y-83208283D01*
X133421069Y-83208289D01*
X133578264Y-83379049D01*
X133578267Y-83379051D01*
X133578270Y-83379054D01*
X133761413Y-83521600D01*
X133761419Y-83521604D01*
X133761422Y-83521606D01*
X133844205Y-83566406D01*
X133964700Y-83631615D01*
X133965545Y-83632072D01*
X134079535Y-83671204D01*
X134185063Y-83707433D01*
X134185065Y-83707433D01*
X134185067Y-83707434D01*
X134413999Y-83745636D01*
X134414000Y-83745636D01*
X134646096Y-83745636D01*
X134646097Y-83745636D01*
X134875029Y-83707434D01*
X134875082Y-83707416D01*
X134898728Y-83699298D01*
X135094551Y-83632072D01*
X135298674Y-83521606D01*
X135299218Y-83521183D01*
X135430594Y-83418929D01*
X135481832Y-83379049D01*
X135639027Y-83208289D01*
X135696241Y-83120715D01*
X135749387Y-83075359D01*
X135818618Y-83065935D01*
X135881954Y-83095437D01*
X135903858Y-83120715D01*
X135961068Y-83208281D01*
X135961070Y-83208283D01*
X135961074Y-83208289D01*
X136118269Y-83379049D01*
X136118272Y-83379051D01*
X136118275Y-83379054D01*
X136301418Y-83521600D01*
X136301424Y-83521604D01*
X136301427Y-83521606D01*
X136384210Y-83566406D01*
X136504705Y-83631615D01*
X136505550Y-83632072D01*
X136619540Y-83671204D01*
X136725068Y-83707433D01*
X136725070Y-83707433D01*
X136725072Y-83707434D01*
X136954004Y-83745636D01*
X136954005Y-83745636D01*
X137186101Y-83745636D01*
X137186102Y-83745636D01*
X137415034Y-83707434D01*
X137415087Y-83707416D01*
X137438733Y-83699298D01*
X137634556Y-83632072D01*
X137838679Y-83521606D01*
X137839223Y-83521183D01*
X137970599Y-83418929D01*
X138021837Y-83379049D01*
X138179032Y-83208289D01*
X138236246Y-83120715D01*
X138289392Y-83075359D01*
X138358623Y-83065935D01*
X138421959Y-83095437D01*
X138443863Y-83120715D01*
X138501073Y-83208281D01*
X138501075Y-83208283D01*
X138501079Y-83208289D01*
X138658274Y-83379049D01*
X138658277Y-83379051D01*
X138658280Y-83379054D01*
X138841423Y-83521600D01*
X138841429Y-83521604D01*
X138841432Y-83521606D01*
X138924215Y-83566406D01*
X139044710Y-83631615D01*
X139045555Y-83632072D01*
X139159545Y-83671204D01*
X139265073Y-83707433D01*
X139265075Y-83707433D01*
X139265077Y-83707434D01*
X139494009Y-83745636D01*
X139494010Y-83745636D01*
X139726106Y-83745636D01*
X139726107Y-83745636D01*
X139955039Y-83707434D01*
X139955092Y-83707416D01*
X139978738Y-83699298D01*
X140174561Y-83632072D01*
X140378684Y-83521606D01*
X140379228Y-83521183D01*
X140510604Y-83418929D01*
X140561842Y-83379049D01*
X140719037Y-83208289D01*
X140776551Y-83120257D01*
X140829696Y-83074901D01*
X140898927Y-83065477D01*
X140962263Y-83094978D01*
X140984168Y-83120258D01*
X140998875Y-83142768D01*
X141626264Y-82515379D01*
X141637533Y-82557433D01*
X141709943Y-82682852D01*
X141812347Y-82785256D01*
X141937766Y-82857666D01*
X141979817Y-82868933D01*
X141351264Y-83497487D01*
X141381712Y-83521186D01*
X141585760Y-83631612D01*
X141585769Y-83631615D01*
X141805202Y-83706947D01*
X142034056Y-83745136D01*
X142266070Y-83745136D01*
X142494923Y-83706947D01*
X142714356Y-83631615D01*
X142714364Y-83631612D01*
X142918418Y-83521183D01*
X142948860Y-83497487D01*
X142948861Y-83497486D01*
X142320308Y-82868933D01*
X142362360Y-82857666D01*
X142487779Y-82785256D01*
X142590183Y-82682852D01*
X142662593Y-82557433D01*
X142673860Y-82515380D01*
X143301248Y-83142768D01*
X143316255Y-83119800D01*
X143369401Y-83074443D01*
X143438632Y-83065019D01*
X143501968Y-83094520D01*
X143523872Y-83119799D01*
X143538879Y-83142769D01*
X144166269Y-82515379D01*
X144177538Y-82557433D01*
X144249948Y-82682852D01*
X144352352Y-82785256D01*
X144477771Y-82857666D01*
X144519822Y-82868933D01*
X143891269Y-83497487D01*
X143921717Y-83521186D01*
X144125765Y-83631612D01*
X144125774Y-83631615D01*
X144345207Y-83706947D01*
X144574061Y-83745136D01*
X144806075Y-83745136D01*
X145034928Y-83706947D01*
X145254361Y-83631615D01*
X145254369Y-83631612D01*
X145458423Y-83521183D01*
X145488865Y-83497487D01*
X145488866Y-83497486D01*
X144860313Y-82868933D01*
X144902365Y-82857666D01*
X145027784Y-82785256D01*
X145130188Y-82682852D01*
X145202598Y-82557433D01*
X145213865Y-82515380D01*
X145841254Y-83142769D01*
X145855963Y-83120257D01*
X145909109Y-83074900D01*
X145978341Y-83065477D01*
X146041676Y-83094979D01*
X146063580Y-83120257D01*
X146121088Y-83208281D01*
X146121094Y-83208289D01*
X146278289Y-83379049D01*
X146278292Y-83379051D01*
X146278295Y-83379054D01*
X146461438Y-83521600D01*
X146461444Y-83521604D01*
X146461447Y-83521606D01*
X146544230Y-83566406D01*
X146664725Y-83631615D01*
X146665570Y-83632072D01*
X146779560Y-83671204D01*
X146885088Y-83707433D01*
X146885090Y-83707433D01*
X146885092Y-83707434D01*
X147114024Y-83745636D01*
X147114025Y-83745636D01*
X147346121Y-83745636D01*
X147346122Y-83745636D01*
X147575054Y-83707434D01*
X147580017Y-83706177D01*
X147580330Y-83707416D01*
X147644105Y-83704526D01*
X147702273Y-83737282D01*
X148404781Y-84439789D01*
X148495384Y-84530392D01*
X148495389Y-84530397D01*
X148601923Y-84601581D01*
X148601929Y-84601584D01*
X148601930Y-84601585D01*
X148720313Y-84650621D01*
X148720317Y-84650621D01*
X148720318Y-84650622D01*
X148845985Y-84675620D01*
X148845988Y-84675620D01*
X153234175Y-84675620D01*
X153318719Y-84658802D01*
X153359848Y-84650621D01*
X153478231Y-84601585D01*
X153479674Y-84600621D01*
X153584773Y-84530397D01*
X154377888Y-83737280D01*
X154439209Y-83703797D01*
X154499841Y-83707338D01*
X154500136Y-83706176D01*
X154505099Y-83707432D01*
X154505103Y-83707432D01*
X154505107Y-83707434D01*
X154734039Y-83745636D01*
X154734040Y-83745636D01*
X154966136Y-83745636D01*
X154966137Y-83745636D01*
X155195069Y-83707434D01*
X155200032Y-83706177D01*
X155200345Y-83707416D01*
X155264120Y-83704526D01*
X155322288Y-83737282D01*
X156065396Y-84480391D01*
X156065399Y-84480394D01*
X156148052Y-84535621D01*
X156148053Y-84535621D01*
X156148056Y-84535623D01*
X156171944Y-84551585D01*
X156220980Y-84571896D01*
X156290328Y-84600621D01*
X156290332Y-84600621D01*
X156290333Y-84600622D01*
X156416000Y-84625620D01*
X156416003Y-84625620D01*
X160904191Y-84625620D01*
X160992220Y-84608109D01*
X161029864Y-84600621D01*
X161148247Y-84551585D01*
X161172139Y-84535621D01*
X161254789Y-84480397D01*
X161997904Y-83737280D01*
X162059225Y-83703797D01*
X162119857Y-83707338D01*
X162120152Y-83706176D01*
X162125115Y-83707432D01*
X162125119Y-83707432D01*
X162125123Y-83707434D01*
X162354055Y-83745636D01*
X162354056Y-83745636D01*
X162586152Y-83745636D01*
X162586153Y-83745636D01*
X162815085Y-83707434D01*
X162815138Y-83707416D01*
X162838784Y-83699298D01*
X163034607Y-83632072D01*
X163238730Y-83521606D01*
X163239274Y-83521183D01*
X163370650Y-83418929D01*
X163421888Y-83379049D01*
X163579083Y-83208289D01*
X163636297Y-83120715D01*
X163689443Y-83075359D01*
X163758674Y-83065935D01*
X163822010Y-83095437D01*
X163843914Y-83120715D01*
X163901124Y-83208281D01*
X163901126Y-83208283D01*
X163901130Y-83208289D01*
X164058325Y-83379049D01*
X164081656Y-83397208D01*
X164122469Y-83453919D01*
X164126144Y-83523692D01*
X164093175Y-83582743D01*
X155462737Y-92213181D01*
X155401414Y-92246666D01*
X155375056Y-92249500D01*
X153702164Y-92249500D01*
X153702158Y-92249501D01*
X153642551Y-92255908D01*
X153507706Y-92306202D01*
X153507699Y-92306206D01*
X153392490Y-92392452D01*
X153392487Y-92392455D01*
X153306241Y-92507664D01*
X153306237Y-92507671D01*
X153255943Y-92642517D01*
X153249536Y-92702116D01*
X153249535Y-92702135D01*
X153249535Y-94497870D01*
X153249536Y-94497876D01*
X153255943Y-94557483D01*
X153306237Y-94692328D01*
X153306241Y-94692335D01*
X153392487Y-94807544D01*
X153392490Y-94807547D01*
X153507699Y-94893793D01*
X153507706Y-94893797D01*
X153642552Y-94944091D01*
X153642551Y-94944091D01*
X153649479Y-94944835D01*
X153702162Y-94950500D01*
X155497907Y-94950499D01*
X155557518Y-94944091D01*
X155692366Y-94893796D01*
X155807581Y-94807546D01*
X155893831Y-94692331D01*
X155942845Y-94560916D01*
X155984716Y-94504984D01*
X156050180Y-94480566D01*
X156118453Y-94495417D01*
X156146708Y-94516569D01*
X156268634Y-94638495D01*
X156365419Y-94706265D01*
X156462200Y-94774032D01*
X156462202Y-94774033D01*
X156462205Y-94774035D01*
X156676372Y-94873903D01*
X156904627Y-94935063D01*
X157081069Y-94950500D01*
X157140034Y-94955659D01*
X157140035Y-94955659D01*
X157140036Y-94955659D01*
X157199001Y-94950500D01*
X157375443Y-94935063D01*
X157603698Y-94873903D01*
X157817865Y-94774035D01*
X158011436Y-94638495D01*
X158178530Y-94471401D01*
X158308460Y-94285842D01*
X158363037Y-94242217D01*
X158432535Y-94235023D01*
X158494890Y-94266546D01*
X158511610Y-94285842D01*
X158641535Y-94471395D01*
X158641540Y-94471401D01*
X158808634Y-94638495D01*
X158905419Y-94706265D01*
X159002200Y-94774032D01*
X159002202Y-94774033D01*
X159002205Y-94774035D01*
X159216372Y-94873903D01*
X159444627Y-94935063D01*
X159621069Y-94950500D01*
X159680034Y-94955659D01*
X159680035Y-94955659D01*
X159680036Y-94955659D01*
X159739001Y-94950500D01*
X159915443Y-94935063D01*
X160143698Y-94873903D01*
X160357865Y-94774035D01*
X160551436Y-94638495D01*
X160718530Y-94471401D01*
X160848460Y-94285842D01*
X160903037Y-94242217D01*
X160972535Y-94235023D01*
X161034890Y-94266546D01*
X161051610Y-94285842D01*
X161181535Y-94471395D01*
X161181540Y-94471401D01*
X161348634Y-94638495D01*
X161445419Y-94706265D01*
X161542200Y-94774032D01*
X161542202Y-94774033D01*
X161542205Y-94774035D01*
X161756372Y-94873903D01*
X161984627Y-94935063D01*
X162161069Y-94950500D01*
X162220034Y-94955659D01*
X162220035Y-94955659D01*
X162220036Y-94955659D01*
X162279001Y-94950500D01*
X162455443Y-94935063D01*
X162683698Y-94873903D01*
X162897865Y-94774035D01*
X163091436Y-94638495D01*
X163258530Y-94471401D01*
X163388460Y-94285842D01*
X163443037Y-94242217D01*
X163512535Y-94235023D01*
X163574890Y-94266546D01*
X163591610Y-94285842D01*
X163721535Y-94471395D01*
X163721540Y-94471401D01*
X163888634Y-94638495D01*
X163985419Y-94706265D01*
X164082200Y-94774032D01*
X164082202Y-94774033D01*
X164082205Y-94774035D01*
X164296372Y-94873903D01*
X164524627Y-94935063D01*
X164701069Y-94950500D01*
X164760034Y-94955659D01*
X164760035Y-94955659D01*
X164760036Y-94955659D01*
X164819001Y-94950500D01*
X164995443Y-94935063D01*
X165223698Y-94873903D01*
X165437865Y-94774035D01*
X165631436Y-94638495D01*
X165798530Y-94471401D01*
X165928460Y-94285842D01*
X165983037Y-94242217D01*
X166052535Y-94235023D01*
X166114890Y-94266546D01*
X166131610Y-94285842D01*
X166261535Y-94471395D01*
X166261540Y-94471401D01*
X166428634Y-94638495D01*
X166525419Y-94706265D01*
X166622200Y-94774032D01*
X166622202Y-94774033D01*
X166622205Y-94774035D01*
X166836372Y-94873903D01*
X167064627Y-94935063D01*
X167241069Y-94950500D01*
X167300034Y-94955659D01*
X167300035Y-94955659D01*
X167300036Y-94955659D01*
X167359001Y-94950500D01*
X167535443Y-94935063D01*
X167763698Y-94873903D01*
X167977865Y-94774035D01*
X168171436Y-94638495D01*
X168338530Y-94471401D01*
X168468460Y-94285842D01*
X168523037Y-94242217D01*
X168592535Y-94235023D01*
X168654890Y-94266546D01*
X168671610Y-94285842D01*
X168801535Y-94471395D01*
X168801540Y-94471401D01*
X168968634Y-94638495D01*
X169065419Y-94706265D01*
X169162200Y-94774032D01*
X169162202Y-94774033D01*
X169162205Y-94774035D01*
X169376372Y-94873903D01*
X169604627Y-94935063D01*
X169781069Y-94950500D01*
X169840034Y-94955659D01*
X169840035Y-94955659D01*
X169840036Y-94955659D01*
X169899001Y-94950500D01*
X170075443Y-94935063D01*
X170303698Y-94873903D01*
X170517865Y-94774035D01*
X170711436Y-94638495D01*
X170878530Y-94471401D01*
X171008460Y-94285842D01*
X171063037Y-94242217D01*
X171132535Y-94235023D01*
X171194890Y-94266546D01*
X171211610Y-94285842D01*
X171341535Y-94471395D01*
X171341540Y-94471401D01*
X171508634Y-94638495D01*
X171605419Y-94706265D01*
X171702200Y-94774032D01*
X171702202Y-94774033D01*
X171702205Y-94774035D01*
X171916372Y-94873903D01*
X172144627Y-94935063D01*
X172321069Y-94950500D01*
X172380034Y-94955659D01*
X172380035Y-94955659D01*
X172380036Y-94955659D01*
X172439001Y-94950500D01*
X172615443Y-94935063D01*
X172843698Y-94873903D01*
X173057865Y-94774035D01*
X173251436Y-94638495D01*
X173418530Y-94471401D01*
X173554070Y-94277830D01*
X173653938Y-94063663D01*
X173715098Y-93835408D01*
X173735694Y-93600000D01*
X173715098Y-93364592D01*
X173653938Y-93136337D01*
X173554070Y-92922171D01*
X173548460Y-92914158D01*
X173418529Y-92728597D01*
X173251437Y-92561506D01*
X173251430Y-92561501D01*
X173057869Y-92425967D01*
X173057865Y-92425965D01*
X172986762Y-92392809D01*
X172843698Y-92326097D01*
X172843694Y-92326096D01*
X172843690Y-92326094D01*
X172615448Y-92264938D01*
X172615438Y-92264936D01*
X172380036Y-92244341D01*
X172380034Y-92244341D01*
X172144631Y-92264936D01*
X172144621Y-92264938D01*
X171916379Y-92326094D01*
X171916370Y-92326098D01*
X171702206Y-92425964D01*
X171702204Y-92425965D01*
X171508632Y-92561505D01*
X171341540Y-92728597D01*
X171211610Y-92914158D01*
X171157033Y-92957783D01*
X171087535Y-92964977D01*
X171025180Y-92933454D01*
X171008460Y-92914158D01*
X170878529Y-92728597D01*
X170711437Y-92561506D01*
X170711430Y-92561501D01*
X170517869Y-92425967D01*
X170517865Y-92425965D01*
X170446762Y-92392809D01*
X170303698Y-92326097D01*
X170303694Y-92326096D01*
X170303690Y-92326094D01*
X170075448Y-92264938D01*
X170075438Y-92264936D01*
X169840036Y-92244341D01*
X169840034Y-92244341D01*
X169604631Y-92264936D01*
X169604621Y-92264938D01*
X169376379Y-92326094D01*
X169376370Y-92326098D01*
X169162206Y-92425964D01*
X169162204Y-92425965D01*
X168968632Y-92561505D01*
X168801540Y-92728597D01*
X168671610Y-92914158D01*
X168617033Y-92957783D01*
X168547535Y-92964977D01*
X168485180Y-92933454D01*
X168468460Y-92914158D01*
X168338529Y-92728597D01*
X168171437Y-92561506D01*
X168171430Y-92561501D01*
X167977869Y-92425967D01*
X167977865Y-92425965D01*
X167906762Y-92392809D01*
X167763698Y-92326097D01*
X167763694Y-92326096D01*
X167763690Y-92326094D01*
X167535448Y-92264938D01*
X167535438Y-92264936D01*
X167300036Y-92244341D01*
X167300034Y-92244341D01*
X167064631Y-92264936D01*
X167064621Y-92264938D01*
X166836379Y-92326094D01*
X166836370Y-92326098D01*
X166622206Y-92425964D01*
X166622204Y-92425965D01*
X166428632Y-92561505D01*
X166261540Y-92728597D01*
X166131610Y-92914158D01*
X166077033Y-92957783D01*
X166007535Y-92964977D01*
X165945180Y-92933454D01*
X165928460Y-92914158D01*
X165798529Y-92728597D01*
X165631437Y-92561506D01*
X165631430Y-92561501D01*
X165437869Y-92425967D01*
X165437865Y-92425965D01*
X165366762Y-92392809D01*
X165223698Y-92326097D01*
X165223694Y-92326096D01*
X165223690Y-92326094D01*
X164995448Y-92264938D01*
X164995438Y-92264936D01*
X164760036Y-92244341D01*
X164760034Y-92244341D01*
X164524631Y-92264936D01*
X164524621Y-92264938D01*
X164296379Y-92326094D01*
X164296370Y-92326098D01*
X164082206Y-92425964D01*
X164082204Y-92425965D01*
X163888632Y-92561505D01*
X163721540Y-92728597D01*
X163591610Y-92914158D01*
X163537033Y-92957783D01*
X163467535Y-92964977D01*
X163405180Y-92933454D01*
X163388460Y-92914158D01*
X163258529Y-92728597D01*
X163091437Y-92561506D01*
X163091430Y-92561501D01*
X162897869Y-92425967D01*
X162897865Y-92425965D01*
X162826762Y-92392809D01*
X162683698Y-92326097D01*
X162683694Y-92326096D01*
X162683690Y-92326094D01*
X162455448Y-92264938D01*
X162455438Y-92264936D01*
X162220036Y-92244341D01*
X162220034Y-92244341D01*
X161984631Y-92264936D01*
X161984621Y-92264938D01*
X161756379Y-92326094D01*
X161756370Y-92326098D01*
X161542206Y-92425964D01*
X161542204Y-92425965D01*
X161348632Y-92561505D01*
X161181540Y-92728597D01*
X161051610Y-92914158D01*
X160997033Y-92957783D01*
X160927535Y-92964977D01*
X160865180Y-92933454D01*
X160848460Y-92914158D01*
X160718529Y-92728597D01*
X160551437Y-92561506D01*
X160551430Y-92561501D01*
X160357869Y-92425967D01*
X160357865Y-92425965D01*
X160286762Y-92392809D01*
X160143698Y-92326097D01*
X160143694Y-92326096D01*
X160143690Y-92326094D01*
X159915448Y-92264938D01*
X159915438Y-92264936D01*
X159843801Y-92258669D01*
X159778733Y-92233216D01*
X159737754Y-92176625D01*
X159733876Y-92106863D01*
X159766926Y-92047462D01*
X166702451Y-85111939D01*
X166763774Y-85078454D01*
X166790132Y-85075620D01*
X185653501Y-85075620D01*
X185653517Y-85075621D01*
X185661113Y-85075621D01*
X185819224Y-85075621D01*
X185819227Y-85075621D01*
X185971955Y-85034697D01*
X186022074Y-85005759D01*
X186108886Y-84955640D01*
X186220690Y-84843836D01*
X186220690Y-84843834D01*
X186230898Y-84833627D01*
X186230900Y-84833624D01*
X187345314Y-83719209D01*
X187406635Y-83685726D01*
X187473256Y-83689610D01*
X187525173Y-83707434D01*
X187754105Y-83745636D01*
X187754106Y-83745636D01*
X187986202Y-83745636D01*
X187986203Y-83745636D01*
X188215135Y-83707434D01*
X188215188Y-83707416D01*
X188238834Y-83699298D01*
X188434657Y-83632072D01*
X188638780Y-83521606D01*
X188639324Y-83521183D01*
X188770700Y-83418929D01*
X188821938Y-83379049D01*
X188979133Y-83208289D01*
X189106078Y-83013985D01*
X189199311Y-82801436D01*
X189256288Y-82576441D01*
X189269454Y-82417547D01*
X189275454Y-82345142D01*
X189275454Y-82345129D01*
X189256289Y-82113838D01*
X189256287Y-82113827D01*
X189199311Y-81888835D01*
X189106078Y-81676287D01*
X188979137Y-81481988D01*
X188979134Y-81481985D01*
X188979133Y-81481983D01*
X188821938Y-81311223D01*
X188821933Y-81311219D01*
X188821931Y-81311217D01*
X188638788Y-81168671D01*
X188638782Y-81168667D01*
X188434658Y-81058200D01*
X188434649Y-81058197D01*
X188215138Y-80982838D01*
X188043436Y-80954186D01*
X187986203Y-80944636D01*
X187774132Y-80944636D01*
X187707093Y-80924951D01*
X187661338Y-80872147D01*
X187651394Y-80802989D01*
X187680419Y-80739433D01*
X187682859Y-80736700D01*
X187709131Y-80708162D01*
X187836076Y-80513858D01*
X187929309Y-80301309D01*
X187986286Y-80076314D01*
X187986287Y-80076306D01*
X188005452Y-79845015D01*
X188005452Y-79845002D01*
X187986287Y-79613711D01*
X187986285Y-79613700D01*
X187929309Y-79388708D01*
X187836076Y-79176160D01*
X187709135Y-78981861D01*
X187709132Y-78981858D01*
X187709131Y-78981856D01*
X187551936Y-78811096D01*
X187477040Y-78752802D01*
X187436228Y-78696092D01*
X187432553Y-78626319D01*
X187467185Y-78565636D01*
X187529126Y-78533309D01*
X187585293Y-78535173D01*
X187643462Y-78550760D01*
X187805384Y-78564926D01*
X187870152Y-78570593D01*
X187870154Y-78570593D01*
X187870156Y-78570593D01*
X187926827Y-78565634D01*
X188096846Y-78550760D01*
X188168553Y-78531546D01*
X188238401Y-78533209D01*
X188296264Y-78572371D01*
X188323768Y-78636599D01*
X188324234Y-78644425D01*
X188324262Y-78644423D01*
X188324644Y-78649283D01*
X188360362Y-78874792D01*
X188360362Y-78874795D01*
X188430913Y-79091929D01*
X188513417Y-79253851D01*
X188534568Y-79295362D01*
X188668769Y-79480074D01*
X188830212Y-79641517D01*
X189014924Y-79775718D01*
X189218354Y-79879371D01*
X189218356Y-79879372D01*
X189435491Y-79949923D01*
X189435492Y-79949923D01*
X189435495Y-79949924D01*
X189661000Y-79985641D01*
X189661001Y-79985641D01*
X189889315Y-79985641D01*
X189889316Y-79985641D01*
X190114821Y-79949924D01*
X190114824Y-79949923D01*
X190114825Y-79949923D01*
X190331959Y-79879372D01*
X190331959Y-79879371D01*
X190331962Y-79879371D01*
X190535392Y-79775718D01*
X190720104Y-79641517D01*
X190881547Y-79480074D01*
X191015748Y-79295362D01*
X191119401Y-79091932D01*
X191126564Y-79069886D01*
X191189953Y-78874795D01*
X191189953Y-78874794D01*
X191189954Y-78874791D01*
X191225671Y-78649286D01*
X191225671Y-78420970D01*
X191189954Y-78195465D01*
X191189953Y-78195461D01*
X191189953Y-78195460D01*
X191119402Y-77978326D01*
X191081513Y-77903965D01*
X191015748Y-77774894D01*
X190881547Y-77590182D01*
X190720104Y-77428739D01*
X190535392Y-77294538D01*
X190477664Y-77265124D01*
X190331959Y-77190883D01*
X190114824Y-77120332D01*
X189940400Y-77092706D01*
X189889316Y-77084615D01*
X189661000Y-77084615D01*
X189609916Y-77092706D01*
X189435493Y-77120332D01*
X189435490Y-77120332D01*
X189318746Y-77158265D01*
X189248905Y-77160260D01*
X189189072Y-77124179D01*
X189158244Y-77061478D01*
X189156903Y-77051170D01*
X189155789Y-77038433D01*
X189104951Y-76848702D01*
X189096895Y-76818636D01*
X189096892Y-76818627D01*
X189067217Y-76754990D01*
X189000722Y-76612391D01*
X188881314Y-76441857D01*
X188870199Y-76425983D01*
X188709295Y-76265079D01*
X188522888Y-76134557D01*
X188522886Y-76134556D01*
X188316651Y-76038386D01*
X188316642Y-76038383D01*
X188096851Y-75979491D01*
X188096847Y-75979490D01*
X188096846Y-75979490D01*
X188096845Y-75979489D01*
X188096840Y-75979489D01*
X187870156Y-75959657D01*
X187870152Y-75959657D01*
X187639666Y-75979822D01*
X187571166Y-75966055D01*
X187520983Y-75917440D01*
X187505050Y-75849411D01*
X187528425Y-75783568D01*
X187548456Y-75762831D01*
X187548160Y-75762509D01*
X187551924Y-75759042D01*
X187551936Y-75759033D01*
X187709131Y-75588273D01*
X187836076Y-75393969D01*
X187929309Y-75181420D01*
X187986286Y-74956425D01*
X187999452Y-74797531D01*
X188005452Y-74725126D01*
X188005452Y-74725113D01*
X187986287Y-74493822D01*
X187986285Y-74493811D01*
X187929309Y-74268819D01*
X187836076Y-74056271D01*
X187709135Y-73861972D01*
X187709132Y-73861969D01*
X187709131Y-73861967D01*
X187551936Y-73691207D01*
X187551931Y-73691203D01*
X187551929Y-73691201D01*
X187368786Y-73548655D01*
X187368780Y-73548651D01*
X187164656Y-73438184D01*
X187164647Y-73438181D01*
X186945136Y-73362822D01*
X186773434Y-73334170D01*
X186716201Y-73324620D01*
X186484103Y-73324620D01*
X186438316Y-73332260D01*
X186255167Y-73362822D01*
X186035656Y-73438181D01*
X186035647Y-73438184D01*
X185831523Y-73548651D01*
X185831517Y-73548655D01*
X185648374Y-73691201D01*
X185648371Y-73691204D01*
X185648368Y-73691206D01*
X185648368Y-73691207D01*
X185611664Y-73731079D01*
X185491167Y-73861974D01*
X185433957Y-73949540D01*
X185380810Y-73994897D01*
X185311579Y-74004320D01*
X185248244Y-73974817D01*
X185226340Y-73949540D01*
X185195181Y-73901848D01*
X185169126Y-73861967D01*
X185011931Y-73691207D01*
X185011926Y-73691203D01*
X185011924Y-73691201D01*
X184828781Y-73548655D01*
X184828775Y-73548651D01*
X184624651Y-73438184D01*
X184624642Y-73438181D01*
X184405131Y-73362822D01*
X184233429Y-73334170D01*
X184176196Y-73324620D01*
X183944098Y-73324620D01*
X183898311Y-73332260D01*
X183715162Y-73362822D01*
X183495651Y-73438181D01*
X183495642Y-73438184D01*
X183291518Y-73548651D01*
X183291512Y-73548655D01*
X183108369Y-73691201D01*
X183108366Y-73691204D01*
X183108363Y-73691206D01*
X183108363Y-73691207D01*
X183071659Y-73731079D01*
X182951162Y-73861974D01*
X182893952Y-73949540D01*
X182840805Y-73994897D01*
X182771574Y-74004320D01*
X182708239Y-73974817D01*
X182686335Y-73949540D01*
X182655176Y-73901848D01*
X182629121Y-73861967D01*
X182471926Y-73691207D01*
X182471921Y-73691203D01*
X182471919Y-73691201D01*
X182288776Y-73548655D01*
X182288770Y-73548651D01*
X182084646Y-73438184D01*
X182084637Y-73438181D01*
X181865126Y-73362822D01*
X181693424Y-73334170D01*
X181636191Y-73324620D01*
X181404093Y-73324620D01*
X181358306Y-73332260D01*
X181175157Y-73362822D01*
X180955646Y-73438181D01*
X180955637Y-73438184D01*
X180751513Y-73548651D01*
X180751507Y-73548655D01*
X180568364Y-73691201D01*
X180568361Y-73691204D01*
X180568358Y-73691206D01*
X180568358Y-73691207D01*
X180531654Y-73731079D01*
X180411157Y-73861974D01*
X180353947Y-73949540D01*
X180300800Y-73994897D01*
X180231569Y-74004320D01*
X180168234Y-73974817D01*
X180146330Y-73949540D01*
X180115171Y-73901848D01*
X180089116Y-73861967D01*
X179931921Y-73691207D01*
X179931916Y-73691203D01*
X179931914Y-73691201D01*
X179748771Y-73548655D01*
X179748765Y-73548651D01*
X179544641Y-73438184D01*
X179544632Y-73438181D01*
X179325121Y-73362822D01*
X179153419Y-73334170D01*
X179096186Y-73324620D01*
X178864088Y-73324620D01*
X178818301Y-73332260D01*
X178635152Y-73362822D01*
X178415641Y-73438181D01*
X178415632Y-73438184D01*
X178211508Y-73548651D01*
X178211502Y-73548655D01*
X178028359Y-73691201D01*
X178028356Y-73691204D01*
X178028353Y-73691206D01*
X178028353Y-73691207D01*
X177991649Y-73731079D01*
X177871152Y-73861974D01*
X177813942Y-73949540D01*
X177760795Y-73994897D01*
X177691564Y-74004320D01*
X177628229Y-73974817D01*
X177606325Y-73949540D01*
X177575166Y-73901848D01*
X177549111Y-73861967D01*
X177391916Y-73691207D01*
X177391911Y-73691203D01*
X177391909Y-73691201D01*
X177208766Y-73548655D01*
X177208760Y-73548651D01*
X177004636Y-73438184D01*
X177004627Y-73438181D01*
X176785116Y-73362822D01*
X176613414Y-73334170D01*
X176556181Y-73324620D01*
X176324083Y-73324620D01*
X176278296Y-73332260D01*
X176095147Y-73362822D01*
X175875636Y-73438181D01*
X175875627Y-73438184D01*
X175671503Y-73548651D01*
X175671497Y-73548655D01*
X175488354Y-73691201D01*
X175488351Y-73691204D01*
X175488348Y-73691206D01*
X175488348Y-73691207D01*
X175451644Y-73731079D01*
X175331147Y-73861974D01*
X175273937Y-73949540D01*
X175220790Y-73994897D01*
X175151559Y-74004320D01*
X175088224Y-73974817D01*
X175066320Y-73949540D01*
X175035161Y-73901848D01*
X175009106Y-73861967D01*
X174851911Y-73691207D01*
X174851906Y-73691203D01*
X174851904Y-73691201D01*
X174668761Y-73548655D01*
X174668755Y-73548651D01*
X174464631Y-73438184D01*
X174464622Y-73438181D01*
X174245111Y-73362822D01*
X174073409Y-73334170D01*
X174016176Y-73324620D01*
X173784078Y-73324620D01*
X173738291Y-73332260D01*
X173555142Y-73362822D01*
X173335631Y-73438181D01*
X173335622Y-73438184D01*
X173131498Y-73548651D01*
X173131492Y-73548655D01*
X172948349Y-73691201D01*
X172948346Y-73691204D01*
X172948343Y-73691206D01*
X172948343Y-73691207D01*
X172911639Y-73731079D01*
X172791142Y-73861974D01*
X172733932Y-73949541D01*
X172680786Y-73994897D01*
X172611555Y-74004321D01*
X172548219Y-73974819D01*
X172526316Y-73949541D01*
X172469105Y-73861974D01*
X172469103Y-73861972D01*
X172469100Y-73861967D01*
X172311905Y-73691207D01*
X172311900Y-73691203D01*
X172311898Y-73691201D01*
X172128755Y-73548655D01*
X172128749Y-73548651D01*
X171924625Y-73438184D01*
X171924616Y-73438181D01*
X171705105Y-73362822D01*
X171533403Y-73334170D01*
X171476170Y-73324620D01*
X171244072Y-73324620D01*
X171198285Y-73332260D01*
X171015136Y-73362822D01*
X170795625Y-73438181D01*
X170795616Y-73438184D01*
X170591492Y-73548651D01*
X170591486Y-73548655D01*
X170408343Y-73691201D01*
X170408340Y-73691204D01*
X170408337Y-73691206D01*
X170408337Y-73691207D01*
X170371633Y-73731079D01*
X170251136Y-73861974D01*
X170193926Y-73949540D01*
X170140779Y-73994897D01*
X170071548Y-74004320D01*
X170008213Y-73974817D01*
X169986309Y-73949540D01*
X169955150Y-73901848D01*
X169929095Y-73861967D01*
X169771900Y-73691207D01*
X169771895Y-73691203D01*
X169771893Y-73691201D01*
X169588750Y-73548655D01*
X169588744Y-73548651D01*
X169384620Y-73438184D01*
X169384611Y-73438181D01*
X169165100Y-73362822D01*
X168993398Y-73334170D01*
X168936165Y-73324620D01*
X168704067Y-73324620D01*
X168658280Y-73332260D01*
X168475131Y-73362822D01*
X168255620Y-73438181D01*
X168255611Y-73438184D01*
X168051487Y-73548651D01*
X168051481Y-73548655D01*
X167868338Y-73691201D01*
X167868335Y-73691204D01*
X167868332Y-73691206D01*
X167868332Y-73691207D01*
X167831628Y-73731079D01*
X167711131Y-73861974D01*
X167653921Y-73949540D01*
X167600774Y-73994897D01*
X167531543Y-74004320D01*
X167468208Y-73974817D01*
X167446304Y-73949540D01*
X167415145Y-73901848D01*
X167389090Y-73861967D01*
X167231895Y-73691207D01*
X167231890Y-73691203D01*
X167231888Y-73691201D01*
X167048745Y-73548655D01*
X167048739Y-73548651D01*
X166844615Y-73438184D01*
X166844606Y-73438181D01*
X166625095Y-73362822D01*
X166453393Y-73334170D01*
X166396160Y-73324620D01*
X166164062Y-73324620D01*
X166118275Y-73332260D01*
X165935126Y-73362822D01*
X165715615Y-73438181D01*
X165715606Y-73438184D01*
X165511482Y-73548651D01*
X165511476Y-73548655D01*
X165328333Y-73691201D01*
X165328330Y-73691204D01*
X165328327Y-73691206D01*
X165328327Y-73691207D01*
X165291623Y-73731079D01*
X165171126Y-73861974D01*
X165113916Y-73949540D01*
X165060769Y-73994897D01*
X164991538Y-74004320D01*
X164928203Y-73974817D01*
X164906299Y-73949540D01*
X164875140Y-73901848D01*
X164849085Y-73861967D01*
X164691890Y-73691207D01*
X164691885Y-73691203D01*
X164691883Y-73691201D01*
X164508740Y-73548655D01*
X164508734Y-73548651D01*
X164304610Y-73438184D01*
X164304601Y-73438181D01*
X164085090Y-73362822D01*
X163913388Y-73334170D01*
X163856155Y-73324620D01*
X163624057Y-73324620D01*
X163578270Y-73332260D01*
X163395121Y-73362822D01*
X163234867Y-73417838D01*
X163165068Y-73420988D01*
X163104647Y-73385902D01*
X163072786Y-73323719D01*
X163070604Y-73300557D01*
X163070604Y-67544249D01*
X163070605Y-67544236D01*
X163070605Y-67376133D01*
X163029680Y-67223403D01*
X163029677Y-67223398D01*
X162950628Y-67086479D01*
X162950622Y-67086471D01*
X160378065Y-64513915D01*
X160344580Y-64452592D01*
X160349564Y-64382900D01*
X160391436Y-64326967D01*
X160456900Y-64302550D01*
X160497839Y-64306459D01*
X160604592Y-64335063D01*
X160775319Y-64350000D01*
X160839999Y-64355659D01*
X160840000Y-64355659D01*
X160840001Y-64355659D01*
X160904681Y-64350000D01*
X161075408Y-64335063D01*
X161303663Y-64273903D01*
X161517830Y-64174035D01*
X161711401Y-64038495D01*
X161878495Y-63871401D01*
X162008425Y-63685842D01*
X162063002Y-63642217D01*
X162132500Y-63635023D01*
X162194855Y-63666546D01*
X162211575Y-63685842D01*
X162341500Y-63871395D01*
X162341505Y-63871401D01*
X162508599Y-64038495D01*
X162585135Y-64092086D01*
X162702165Y-64174032D01*
X162702167Y-64174033D01*
X162702170Y-64174035D01*
X162916337Y-64273903D01*
X163144592Y-64335063D01*
X163315319Y-64350000D01*
X163379999Y-64355659D01*
X163380000Y-64355659D01*
X163380001Y-64355659D01*
X163444681Y-64350000D01*
X163615408Y-64335063D01*
X163843663Y-64273903D01*
X164057830Y-64174035D01*
X164251401Y-64038495D01*
X164418495Y-63871401D01*
X164548425Y-63685842D01*
X164603002Y-63642217D01*
X164672500Y-63635023D01*
X164734855Y-63666546D01*
X164751575Y-63685842D01*
X164881500Y-63871395D01*
X164881505Y-63871401D01*
X165048599Y-64038495D01*
X165125135Y-64092086D01*
X165242165Y-64174032D01*
X165242167Y-64174033D01*
X165242170Y-64174035D01*
X165456337Y-64273903D01*
X165684592Y-64335063D01*
X165855319Y-64350000D01*
X165919999Y-64355659D01*
X165920000Y-64355659D01*
X165920001Y-64355659D01*
X165984681Y-64350000D01*
X166155408Y-64335063D01*
X166383663Y-64273903D01*
X166597830Y-64174035D01*
X166791401Y-64038495D01*
X166958495Y-63871401D01*
X167088425Y-63685842D01*
X167143002Y-63642217D01*
X167212500Y-63635023D01*
X167274855Y-63666546D01*
X167291575Y-63685842D01*
X167421500Y-63871395D01*
X167421505Y-63871401D01*
X167588599Y-64038495D01*
X167665135Y-64092086D01*
X167782165Y-64174032D01*
X167782167Y-64174033D01*
X167782170Y-64174035D01*
X167996337Y-64273903D01*
X168224592Y-64335063D01*
X168395319Y-64350000D01*
X168459999Y-64355659D01*
X168460000Y-64355659D01*
X168460001Y-64355659D01*
X168524681Y-64350000D01*
X168695408Y-64335063D01*
X168923663Y-64273903D01*
X169137830Y-64174035D01*
X169331401Y-64038495D01*
X169498495Y-63871401D01*
X169634035Y-63677830D01*
X169733903Y-63463663D01*
X169795063Y-63235408D01*
X169815659Y-63000000D01*
X169795063Y-62764592D01*
X169733903Y-62536337D01*
X169634035Y-62322171D01*
X169628425Y-62314158D01*
X169498494Y-62128597D01*
X169331402Y-61961506D01*
X169331395Y-61961501D01*
X169137834Y-61825967D01*
X169137830Y-61825965D01*
X169066727Y-61792809D01*
X168923663Y-61726097D01*
X168923659Y-61726096D01*
X168923655Y-61726094D01*
X168695413Y-61664938D01*
X168695403Y-61664936D01*
X168460001Y-61644341D01*
X168459999Y-61644341D01*
X168224596Y-61664936D01*
X168224586Y-61664938D01*
X167996344Y-61726094D01*
X167996335Y-61726098D01*
X167782171Y-61825964D01*
X167782169Y-61825965D01*
X167588597Y-61961505D01*
X167421505Y-62128597D01*
X167291575Y-62314158D01*
X167236998Y-62357783D01*
X167167500Y-62364977D01*
X167105145Y-62333454D01*
X167088425Y-62314158D01*
X166958494Y-62128597D01*
X166791402Y-61961506D01*
X166791395Y-61961501D01*
X166597834Y-61825967D01*
X166597830Y-61825965D01*
X166526727Y-61792809D01*
X166383663Y-61726097D01*
X166383659Y-61726096D01*
X166383655Y-61726094D01*
X166155413Y-61664938D01*
X166155403Y-61664936D01*
X165920001Y-61644341D01*
X165919999Y-61644341D01*
X165684596Y-61664936D01*
X165684586Y-61664938D01*
X165456344Y-61726094D01*
X165456335Y-61726098D01*
X165242171Y-61825964D01*
X165242169Y-61825965D01*
X165048597Y-61961505D01*
X164881505Y-62128597D01*
X164751575Y-62314158D01*
X164696998Y-62357783D01*
X164627500Y-62364977D01*
X164565145Y-62333454D01*
X164548425Y-62314158D01*
X164418494Y-62128597D01*
X164251402Y-61961506D01*
X164251395Y-61961501D01*
X164057834Y-61825967D01*
X164057830Y-61825965D01*
X163986727Y-61792809D01*
X163843663Y-61726097D01*
X163843659Y-61726096D01*
X163843655Y-61726094D01*
X163615413Y-61664938D01*
X163615403Y-61664936D01*
X163380001Y-61644341D01*
X163379999Y-61644341D01*
X163144596Y-61664936D01*
X163144586Y-61664938D01*
X162916344Y-61726094D01*
X162916335Y-61726098D01*
X162702171Y-61825964D01*
X162702169Y-61825965D01*
X162508597Y-61961505D01*
X162341505Y-62128597D01*
X162211575Y-62314158D01*
X162156998Y-62357783D01*
X162087500Y-62364977D01*
X162025145Y-62333454D01*
X162008425Y-62314158D01*
X161878494Y-62128597D01*
X161711402Y-61961506D01*
X161711395Y-61961501D01*
X161517834Y-61825967D01*
X161517830Y-61825965D01*
X161446727Y-61792809D01*
X161303663Y-61726097D01*
X161303659Y-61726096D01*
X161303655Y-61726094D01*
X161075413Y-61664938D01*
X161075403Y-61664936D01*
X160840001Y-61644341D01*
X160839999Y-61644341D01*
X160604596Y-61664936D01*
X160604586Y-61664938D01*
X160376344Y-61726094D01*
X160376335Y-61726098D01*
X160162171Y-61825964D01*
X160162169Y-61825965D01*
X159968597Y-61961505D01*
X159801505Y-62128597D01*
X159671575Y-62314158D01*
X159616998Y-62357783D01*
X159547500Y-62364977D01*
X159485145Y-62333454D01*
X159468425Y-62314158D01*
X159338494Y-62128597D01*
X159171402Y-61961506D01*
X159171395Y-61961501D01*
X158977834Y-61825967D01*
X158977830Y-61825965D01*
X158906727Y-61792809D01*
X158763663Y-61726097D01*
X158763659Y-61726096D01*
X158763655Y-61726094D01*
X158535413Y-61664938D01*
X158535403Y-61664936D01*
X158300001Y-61644341D01*
X158299999Y-61644341D01*
X158064596Y-61664936D01*
X158064586Y-61664938D01*
X157836344Y-61726094D01*
X157836335Y-61726098D01*
X157622171Y-61825964D01*
X157622169Y-61825965D01*
X157428597Y-61961505D01*
X157261505Y-62128597D01*
X157131575Y-62314158D01*
X157076998Y-62357783D01*
X157007500Y-62364977D01*
X156945145Y-62333454D01*
X156928425Y-62314158D01*
X156798494Y-62128597D01*
X156631402Y-61961506D01*
X156631395Y-61961501D01*
X156437834Y-61825967D01*
X156437830Y-61825965D01*
X156366727Y-61792809D01*
X156223663Y-61726097D01*
X156223659Y-61726096D01*
X156223655Y-61726094D01*
X155995413Y-61664938D01*
X155995403Y-61664936D01*
X155760001Y-61644341D01*
X155759999Y-61644341D01*
X155524596Y-61664936D01*
X155524586Y-61664938D01*
X155296344Y-61726094D01*
X155296335Y-61726098D01*
X155082171Y-61825964D01*
X155082169Y-61825965D01*
X154888597Y-61961505D01*
X154721505Y-62128597D01*
X154591575Y-62314158D01*
X154536998Y-62357783D01*
X154467500Y-62364977D01*
X154405145Y-62333454D01*
X154388425Y-62314158D01*
X154258494Y-62128597D01*
X154091402Y-61961506D01*
X154091395Y-61961501D01*
X153897834Y-61825967D01*
X153897830Y-61825965D01*
X153826727Y-61792809D01*
X153683663Y-61726097D01*
X153683659Y-61726096D01*
X153683655Y-61726094D01*
X153455413Y-61664938D01*
X153455403Y-61664936D01*
X153220001Y-61644341D01*
X153219999Y-61644341D01*
X152984596Y-61664936D01*
X152984586Y-61664938D01*
X152756344Y-61726094D01*
X152756335Y-61726098D01*
X152542171Y-61825964D01*
X152542169Y-61825965D01*
X152348597Y-61961505D01*
X152181505Y-62128597D01*
X152051575Y-62314158D01*
X151996998Y-62357783D01*
X151927500Y-62364977D01*
X151865145Y-62333454D01*
X151848425Y-62314158D01*
X151718494Y-62128597D01*
X151551402Y-61961506D01*
X151551395Y-61961501D01*
X151357834Y-61825967D01*
X151357830Y-61825965D01*
X151286727Y-61792809D01*
X151143663Y-61726097D01*
X151143659Y-61726096D01*
X151143655Y-61726094D01*
X150915413Y-61664938D01*
X150915403Y-61664936D01*
X150680001Y-61644341D01*
X150679999Y-61644341D01*
X150444596Y-61664936D01*
X150444586Y-61664938D01*
X150216344Y-61726094D01*
X150216335Y-61726098D01*
X150002171Y-61825964D01*
X150002169Y-61825965D01*
X149808597Y-61961505D01*
X149641505Y-62128597D01*
X149511575Y-62314158D01*
X149456998Y-62357783D01*
X149387500Y-62364977D01*
X149325145Y-62333454D01*
X149308425Y-62314158D01*
X149178494Y-62128597D01*
X149011402Y-61961506D01*
X149011395Y-61961501D01*
X148817834Y-61825967D01*
X148817830Y-61825965D01*
X148746727Y-61792809D01*
X148603663Y-61726097D01*
X148603659Y-61726096D01*
X148603655Y-61726094D01*
X148375413Y-61664938D01*
X148375403Y-61664936D01*
X148140001Y-61644341D01*
X148139999Y-61644341D01*
X147904596Y-61664936D01*
X147904586Y-61664938D01*
X147676344Y-61726094D01*
X147676335Y-61726098D01*
X147462171Y-61825964D01*
X147462169Y-61825965D01*
X147268597Y-61961505D01*
X147101505Y-62128597D01*
X146971575Y-62314158D01*
X146916998Y-62357783D01*
X146847500Y-62364977D01*
X146785145Y-62333454D01*
X146768425Y-62314158D01*
X146638494Y-62128597D01*
X146471402Y-61961506D01*
X146471395Y-61961501D01*
X146277834Y-61825967D01*
X146277830Y-61825965D01*
X146206727Y-61792809D01*
X146063663Y-61726097D01*
X146063659Y-61726096D01*
X146063655Y-61726094D01*
X145835413Y-61664938D01*
X145835403Y-61664936D01*
X145600001Y-61644341D01*
X145599999Y-61644341D01*
X145364596Y-61664936D01*
X145364586Y-61664938D01*
X145136344Y-61726094D01*
X145136335Y-61726098D01*
X144922171Y-61825964D01*
X144922169Y-61825965D01*
X144728597Y-61961505D01*
X144561505Y-62128597D01*
X144431575Y-62314158D01*
X144376998Y-62357783D01*
X144307500Y-62364977D01*
X144245145Y-62333454D01*
X144228425Y-62314158D01*
X144098494Y-62128597D01*
X143931402Y-61961506D01*
X143931395Y-61961501D01*
X143737834Y-61825967D01*
X143737830Y-61825965D01*
X143666727Y-61792809D01*
X143523663Y-61726097D01*
X143523659Y-61726096D01*
X143523655Y-61726094D01*
X143295413Y-61664938D01*
X143295403Y-61664936D01*
X143060001Y-61644341D01*
X143059999Y-61644341D01*
X142824596Y-61664936D01*
X142824586Y-61664938D01*
X142596344Y-61726094D01*
X142596335Y-61726098D01*
X142382171Y-61825964D01*
X142382169Y-61825965D01*
X142188597Y-61961505D01*
X142021505Y-62128597D01*
X141891575Y-62314158D01*
X141836998Y-62357783D01*
X141767500Y-62364977D01*
X141705145Y-62333454D01*
X141688425Y-62314158D01*
X141558494Y-62128597D01*
X141391402Y-61961506D01*
X141391395Y-61961501D01*
X141197834Y-61825967D01*
X141197830Y-61825965D01*
X141126727Y-61792809D01*
X140983663Y-61726097D01*
X140983659Y-61726096D01*
X140983655Y-61726094D01*
X140755413Y-61664938D01*
X140755403Y-61664936D01*
X140520001Y-61644341D01*
X140519999Y-61644341D01*
X140284596Y-61664936D01*
X140284586Y-61664938D01*
X140056344Y-61726094D01*
X140056335Y-61726098D01*
X139842171Y-61825964D01*
X139842169Y-61825965D01*
X139648597Y-61961505D01*
X139481505Y-62128597D01*
X139351575Y-62314158D01*
X139296998Y-62357783D01*
X139227500Y-62364977D01*
X139165145Y-62333454D01*
X139148425Y-62314158D01*
X139018494Y-62128597D01*
X138851402Y-61961506D01*
X138851395Y-61961501D01*
X138657834Y-61825967D01*
X138657830Y-61825965D01*
X138586727Y-61792809D01*
X138443663Y-61726097D01*
X138443659Y-61726096D01*
X138443655Y-61726094D01*
X138215413Y-61664938D01*
X138215403Y-61664936D01*
X137980001Y-61644341D01*
X137979999Y-61644341D01*
X137744596Y-61664936D01*
X137744586Y-61664938D01*
X137516344Y-61726094D01*
X137516335Y-61726098D01*
X137302171Y-61825964D01*
X137302169Y-61825965D01*
X137108597Y-61961505D01*
X136941505Y-62128597D01*
X136811575Y-62314158D01*
X136756998Y-62357783D01*
X136687500Y-62364977D01*
X136625145Y-62333454D01*
X136608425Y-62314158D01*
X136478494Y-62128597D01*
X136311402Y-61961506D01*
X136311395Y-61961501D01*
X136117834Y-61825967D01*
X136117830Y-61825965D01*
X136046727Y-61792809D01*
X135903663Y-61726097D01*
X135903659Y-61726096D01*
X135903655Y-61726094D01*
X135675413Y-61664938D01*
X135675403Y-61664936D01*
X135440001Y-61644341D01*
X135439999Y-61644341D01*
X135204596Y-61664936D01*
X135204586Y-61664938D01*
X134976344Y-61726094D01*
X134976335Y-61726098D01*
X134762171Y-61825964D01*
X134762169Y-61825965D01*
X134568600Y-61961503D01*
X134446284Y-62083819D01*
X134384961Y-62117303D01*
X134315269Y-62112319D01*
X134259336Y-62070447D01*
X134242421Y-62039470D01*
X134193354Y-61907913D01*
X134193350Y-61907906D01*
X134107190Y-61792812D01*
X134107187Y-61792809D01*
X133992093Y-61706649D01*
X133992086Y-61706645D01*
X133857379Y-61656403D01*
X133857372Y-61656401D01*
X133797844Y-61650000D01*
X133150000Y-61650000D01*
X133150000Y-62566988D01*
X133092993Y-62534075D01*
X132965826Y-62500000D01*
X132834174Y-62500000D01*
X132707007Y-62534075D01*
X132650000Y-62566988D01*
X132650000Y-61650000D01*
X132002155Y-61650000D01*
X131942627Y-61656401D01*
X131942620Y-61656403D01*
X131807913Y-61706645D01*
X131807906Y-61706649D01*
X131692812Y-61792809D01*
X131692809Y-61792812D01*
X131606649Y-61907906D01*
X131606645Y-61907913D01*
X131556403Y-62042620D01*
X131556401Y-62042627D01*
X131550000Y-62102155D01*
X131550000Y-62750000D01*
X132466988Y-62750000D01*
X132434075Y-62807007D01*
X132400000Y-62934174D01*
X132400000Y-63065826D01*
X132434075Y-63192993D01*
X132466988Y-63250000D01*
X131550000Y-63250000D01*
X131550000Y-63897844D01*
X131556401Y-63957372D01*
X131556403Y-63957379D01*
X131606645Y-64092086D01*
X131606649Y-64092093D01*
X131692809Y-64207187D01*
X131692812Y-64207190D01*
X131807906Y-64293350D01*
X131807913Y-64293354D01*
X131942620Y-64343596D01*
X131942627Y-64343598D01*
X132002155Y-64349999D01*
X132002172Y-64350000D01*
X132650000Y-64350000D01*
X132650000Y-63433012D01*
X132707007Y-63465925D01*
X132834174Y-63500000D01*
X132965826Y-63500000D01*
X133092993Y-63465925D01*
X133150000Y-63433012D01*
X133150000Y-64350000D01*
X133797828Y-64350000D01*
X133797844Y-64349999D01*
X133857372Y-64343598D01*
X133857379Y-64343596D01*
X133992086Y-64293354D01*
X133992093Y-64293350D01*
X134107187Y-64207190D01*
X134107190Y-64207187D01*
X134193350Y-64092093D01*
X134193354Y-64092086D01*
X134242422Y-63960529D01*
X134284293Y-63904595D01*
X134349757Y-63880178D01*
X134418030Y-63895030D01*
X134446285Y-63916181D01*
X134568599Y-64038495D01*
X134645135Y-64092086D01*
X134762165Y-64174032D01*
X134762167Y-64174033D01*
X134762170Y-64174035D01*
X134976337Y-64273903D01*
X135204592Y-64335063D01*
X135375319Y-64350000D01*
X135439999Y-64355659D01*
X135440000Y-64355659D01*
X135440001Y-64355659D01*
X135504681Y-64350000D01*
X135675408Y-64335063D01*
X135903663Y-64273903D01*
X136117830Y-64174035D01*
X136311401Y-64038495D01*
X136478495Y-63871401D01*
X136608425Y-63685842D01*
X136663002Y-63642217D01*
X136732500Y-63635023D01*
X136794855Y-63666546D01*
X136811575Y-63685842D01*
X136941500Y-63871395D01*
X136941505Y-63871401D01*
X137108599Y-64038495D01*
X137185135Y-64092086D01*
X137302165Y-64174032D01*
X137302167Y-64174033D01*
X137302170Y-64174035D01*
X137516337Y-64273903D01*
X137744592Y-64335063D01*
X137915319Y-64350000D01*
X137979999Y-64355659D01*
X137980000Y-64355659D01*
X137980001Y-64355659D01*
X138044681Y-64350000D01*
X138215408Y-64335063D01*
X138443663Y-64273903D01*
X138657830Y-64174035D01*
X138851401Y-64038495D01*
X139018495Y-63871401D01*
X139148425Y-63685842D01*
X139203002Y-63642217D01*
X139272500Y-63635023D01*
X139334855Y-63666546D01*
X139351575Y-63685842D01*
X139481500Y-63871395D01*
X139481505Y-63871401D01*
X139648599Y-64038495D01*
X139725135Y-64092086D01*
X139842165Y-64174032D01*
X139842167Y-64174033D01*
X139842170Y-64174035D01*
X140056337Y-64273903D01*
X140284592Y-64335063D01*
X140455319Y-64350000D01*
X140519999Y-64355659D01*
X140520000Y-64355659D01*
X140520001Y-64355659D01*
X140584681Y-64350000D01*
X140755408Y-64335063D01*
X140983663Y-64273903D01*
X141197830Y-64174035D01*
X141391401Y-64038495D01*
X141558495Y-63871401D01*
X141688425Y-63685842D01*
X141743002Y-63642217D01*
X141812500Y-63635023D01*
X141874855Y-63666546D01*
X141891575Y-63685842D01*
X142021500Y-63871395D01*
X142021505Y-63871401D01*
X142188599Y-64038495D01*
X142265135Y-64092086D01*
X142382165Y-64174032D01*
X142382167Y-64174033D01*
X142382170Y-64174035D01*
X142596337Y-64273903D01*
X142824592Y-64335063D01*
X142995319Y-64350000D01*
X143059999Y-64355659D01*
X143060000Y-64355659D01*
X143060001Y-64355659D01*
X143124681Y-64350000D01*
X143295408Y-64335063D01*
X143523663Y-64273903D01*
X143737830Y-64174035D01*
X143931401Y-64038495D01*
X144098495Y-63871401D01*
X144228425Y-63685842D01*
X144283002Y-63642217D01*
X144352500Y-63635023D01*
X144414855Y-63666546D01*
X144431575Y-63685842D01*
X144561500Y-63871395D01*
X144561505Y-63871401D01*
X144728599Y-64038495D01*
X144805135Y-64092086D01*
X144922165Y-64174032D01*
X144922167Y-64174033D01*
X144922170Y-64174035D01*
X145136337Y-64273903D01*
X145364592Y-64335063D01*
X145535319Y-64350000D01*
X145599999Y-64355659D01*
X145600000Y-64355659D01*
X145600001Y-64355659D01*
X145664681Y-64350000D01*
X145835408Y-64335063D01*
X146063663Y-64273903D01*
X146277830Y-64174035D01*
X146471401Y-64038495D01*
X146638495Y-63871401D01*
X146768425Y-63685842D01*
X146823002Y-63642217D01*
X146892500Y-63635023D01*
X146954855Y-63666546D01*
X146971575Y-63685842D01*
X147101500Y-63871395D01*
X147101505Y-63871401D01*
X147268599Y-64038495D01*
X147345135Y-64092086D01*
X147462165Y-64174032D01*
X147462167Y-64174033D01*
X147462170Y-64174035D01*
X147676337Y-64273903D01*
X147904592Y-64335063D01*
X148075319Y-64350000D01*
X148139999Y-64355659D01*
X148140000Y-64355659D01*
X148140001Y-64355659D01*
X148204681Y-64350000D01*
X148375408Y-64335063D01*
X148603663Y-64273903D01*
X148817830Y-64174035D01*
X149011401Y-64038495D01*
X149178495Y-63871401D01*
X149308425Y-63685842D01*
X149363002Y-63642217D01*
X149432500Y-63635023D01*
X149494855Y-63666546D01*
X149511575Y-63685842D01*
X149641500Y-63871395D01*
X149641505Y-63871401D01*
X149808599Y-64038495D01*
X149885135Y-64092086D01*
X150002165Y-64174032D01*
X150002167Y-64174033D01*
X150002170Y-64174035D01*
X150216337Y-64273903D01*
X150444592Y-64335063D01*
X150615319Y-64350000D01*
X150679999Y-64355659D01*
X150680000Y-64355659D01*
X150680001Y-64355659D01*
X150744681Y-64350000D01*
X150915408Y-64335063D01*
X151143663Y-64273903D01*
X151357830Y-64174035D01*
X151551401Y-64038495D01*
X151718495Y-63871401D01*
X151848425Y-63685842D01*
X151903002Y-63642217D01*
X151972500Y-63635023D01*
X152034855Y-63666546D01*
X152051575Y-63685842D01*
X152181500Y-63871395D01*
X152181505Y-63871401D01*
X152348599Y-64038495D01*
X152425135Y-64092086D01*
X152542165Y-64174032D01*
X152542167Y-64174033D01*
X152542170Y-64174035D01*
X152756337Y-64273903D01*
X152984592Y-64335063D01*
X153155319Y-64350000D01*
X153219999Y-64355659D01*
X153220000Y-64355659D01*
X153220001Y-64355659D01*
X153284681Y-64350000D01*
X153455408Y-64335063D01*
X153683663Y-64273903D01*
X153897830Y-64174035D01*
X154091401Y-64038495D01*
X154258495Y-63871401D01*
X154388425Y-63685842D01*
X154443002Y-63642217D01*
X154512500Y-63635023D01*
X154574855Y-63666546D01*
X154591575Y-63685842D01*
X154721500Y-63871395D01*
X154721505Y-63871401D01*
X154888599Y-64038495D01*
X154965135Y-64092086D01*
X155082165Y-64174032D01*
X155082167Y-64174033D01*
X155082170Y-64174035D01*
X155296337Y-64273903D01*
X155524592Y-64335063D01*
X155695319Y-64350000D01*
X155759999Y-64355659D01*
X155760000Y-64355659D01*
X155760001Y-64355659D01*
X155824681Y-64350000D01*
X155995408Y-64335063D01*
X156223663Y-64273903D01*
X156437830Y-64174035D01*
X156631401Y-64038495D01*
X156798495Y-63871401D01*
X156928425Y-63685842D01*
X156983002Y-63642217D01*
X157052500Y-63635023D01*
X157114855Y-63666546D01*
X157131575Y-63685842D01*
X157261500Y-63871395D01*
X157261505Y-63871401D01*
X157428599Y-64038495D01*
X157505135Y-64092086D01*
X157622165Y-64174032D01*
X157622167Y-64174033D01*
X157622170Y-64174035D01*
X157836337Y-64273903D01*
X158064592Y-64335063D01*
X158235319Y-64350000D01*
X158299999Y-64355659D01*
X158300000Y-64355659D01*
X158445930Y-64342890D01*
X158514427Y-64356656D01*
X158544417Y-64378737D01*
X161833285Y-67667605D01*
X161866770Y-67728928D01*
X161869604Y-67755286D01*
X161869604Y-73301086D01*
X161849919Y-73368125D01*
X161797115Y-73413880D01*
X161727957Y-73423824D01*
X161705341Y-73418367D01*
X161544961Y-73363308D01*
X161316108Y-73325120D01*
X161084094Y-73325120D01*
X160855240Y-73363308D01*
X160635807Y-73438640D01*
X160635798Y-73438643D01*
X160431751Y-73549069D01*
X160401301Y-73572767D01*
X161029856Y-74201322D01*
X160987804Y-74212590D01*
X160862385Y-74285000D01*
X160759981Y-74387404D01*
X160687571Y-74512823D01*
X160676302Y-74554875D01*
X160048912Y-73927485D01*
X160034204Y-73949998D01*
X159981057Y-73995354D01*
X159911826Y-74004777D01*
X159848490Y-73975274D01*
X159826587Y-73949996D01*
X159769079Y-73861972D01*
X159769076Y-73861969D01*
X159769075Y-73861967D01*
X159611880Y-73691207D01*
X159611875Y-73691203D01*
X159611873Y-73691201D01*
X159428730Y-73548655D01*
X159428724Y-73548651D01*
X159224600Y-73438184D01*
X159224591Y-73438181D01*
X159005080Y-73362822D01*
X158833378Y-73334170D01*
X158776145Y-73324620D01*
X158544047Y-73324620D01*
X158498260Y-73332260D01*
X158315111Y-73362822D01*
X158095600Y-73438181D01*
X158095591Y-73438184D01*
X157891467Y-73548651D01*
X157891461Y-73548655D01*
X157708318Y-73691201D01*
X157708315Y-73691204D01*
X157708312Y-73691206D01*
X157708312Y-73691207D01*
X157671608Y-73731079D01*
X157551111Y-73861974D01*
X157493901Y-73949540D01*
X157440754Y-73994897D01*
X157371523Y-74004320D01*
X157308188Y-73974817D01*
X157286284Y-73949540D01*
X157255125Y-73901848D01*
X157229070Y-73861967D01*
X157071875Y-73691207D01*
X157071870Y-73691203D01*
X157071868Y-73691201D01*
X156888725Y-73548655D01*
X156888719Y-73548651D01*
X156684595Y-73438184D01*
X156684586Y-73438181D01*
X156465075Y-73362822D01*
X156293373Y-73334170D01*
X156236140Y-73324620D01*
X156004042Y-73324620D01*
X155958255Y-73332260D01*
X155775106Y-73362822D01*
X155555595Y-73438181D01*
X155555586Y-73438184D01*
X155351462Y-73548651D01*
X155351456Y-73548655D01*
X155168313Y-73691201D01*
X155168310Y-73691204D01*
X155168307Y-73691206D01*
X155168307Y-73691207D01*
X155131603Y-73731079D01*
X155011106Y-73861974D01*
X154953597Y-73949998D01*
X154900451Y-73995355D01*
X154831219Y-74004778D01*
X154767884Y-73975276D01*
X154745980Y-73949997D01*
X154731272Y-73927485D01*
X154103883Y-74554874D01*
X154092616Y-74512823D01*
X154020206Y-74387404D01*
X153917802Y-74285000D01*
X153792383Y-74212590D01*
X153750330Y-74201321D01*
X154378883Y-73572767D01*
X154378883Y-73572765D01*
X154348446Y-73549075D01*
X154348440Y-73549071D01*
X154144388Y-73438643D01*
X154144379Y-73438640D01*
X153924946Y-73363308D01*
X153696093Y-73325120D01*
X153464079Y-73325120D01*
X153235225Y-73363308D01*
X153015792Y-73438640D01*
X153015783Y-73438643D01*
X152811736Y-73549069D01*
X152781286Y-73572767D01*
X153409841Y-74201321D01*
X153367789Y-74212590D01*
X153242370Y-74285000D01*
X153139966Y-74387404D01*
X153067556Y-74512823D01*
X153056287Y-74554875D01*
X152428897Y-73927485D01*
X152414189Y-73949998D01*
X152361042Y-73995354D01*
X152291811Y-74004777D01*
X152228475Y-73975274D01*
X152206572Y-73949996D01*
X152149064Y-73861972D01*
X152149061Y-73861969D01*
X152149060Y-73861967D01*
X151991865Y-73691207D01*
X151991860Y-73691203D01*
X151991858Y-73691201D01*
X151808715Y-73548655D01*
X151808709Y-73548651D01*
X151604585Y-73438184D01*
X151604576Y-73438181D01*
X151385065Y-73362822D01*
X151213363Y-73334170D01*
X151156130Y-73324620D01*
X150924032Y-73324620D01*
X150878245Y-73332260D01*
X150695096Y-73362822D01*
X150475585Y-73438181D01*
X150475576Y-73438184D01*
X150271452Y-73548651D01*
X150271446Y-73548655D01*
X150088303Y-73691201D01*
X150088300Y-73691204D01*
X150088297Y-73691206D01*
X150088297Y-73691207D01*
X150051593Y-73731079D01*
X149931096Y-73861974D01*
X149873886Y-73949540D01*
X149820739Y-73994897D01*
X149751508Y-74004320D01*
X149688173Y-73974817D01*
X149666269Y-73949540D01*
X149635110Y-73901848D01*
X149609055Y-73861967D01*
X149451860Y-73691207D01*
X149451855Y-73691203D01*
X149451853Y-73691201D01*
X149268710Y-73548655D01*
X149268704Y-73548651D01*
X149064580Y-73438184D01*
X149064571Y-73438181D01*
X148845060Y-73362822D01*
X148673358Y-73334170D01*
X148616125Y-73324620D01*
X148384027Y-73324620D01*
X148338240Y-73332260D01*
X148155091Y-73362822D01*
X147935580Y-73438181D01*
X147935571Y-73438184D01*
X147731447Y-73548651D01*
X147731441Y-73548655D01*
X147548298Y-73691201D01*
X147548295Y-73691204D01*
X147548292Y-73691206D01*
X147548292Y-73691207D01*
X147511588Y-73731079D01*
X147391091Y-73861974D01*
X147333582Y-73949998D01*
X147280436Y-73995355D01*
X147211204Y-74004778D01*
X147147869Y-73975276D01*
X147125965Y-73949997D01*
X147111257Y-73927485D01*
X146483868Y-74554873D01*
X146472601Y-74512823D01*
X146400191Y-74387404D01*
X146297787Y-74285000D01*
X146172368Y-74212590D01*
X146130315Y-74201321D01*
X146758868Y-73572767D01*
X146758868Y-73572765D01*
X146728431Y-73549075D01*
X146728425Y-73549071D01*
X146524373Y-73438643D01*
X146524364Y-73438640D01*
X146304931Y-73363308D01*
X146076078Y-73325120D01*
X145844064Y-73325120D01*
X145615210Y-73363308D01*
X145395777Y-73438640D01*
X145395768Y-73438643D01*
X145191721Y-73549069D01*
X145161271Y-73572767D01*
X145789826Y-74201321D01*
X145747774Y-74212590D01*
X145622355Y-74285000D01*
X145519951Y-74387404D01*
X145447541Y-74512823D01*
X145436272Y-74554875D01*
X144808882Y-73927485D01*
X144794174Y-73949998D01*
X144741027Y-73995354D01*
X144671796Y-74004777D01*
X144608460Y-73975274D01*
X144586557Y-73949996D01*
X144529049Y-73861972D01*
X144529046Y-73861969D01*
X144529045Y-73861967D01*
X144371850Y-73691207D01*
X144371845Y-73691203D01*
X144371843Y-73691201D01*
X144188700Y-73548655D01*
X144188694Y-73548651D01*
X143984570Y-73438184D01*
X143984561Y-73438181D01*
X143765050Y-73362822D01*
X143593348Y-73334170D01*
X143536115Y-73324620D01*
X143304017Y-73324620D01*
X143258230Y-73332260D01*
X143075081Y-73362822D01*
X142855570Y-73438181D01*
X142855561Y-73438184D01*
X142651437Y-73548651D01*
X142651431Y-73548655D01*
X142468288Y-73691201D01*
X142468285Y-73691204D01*
X142468282Y-73691206D01*
X142468282Y-73691207D01*
X142431578Y-73731079D01*
X142311081Y-73861974D01*
X142253572Y-73949998D01*
X142200426Y-73995355D01*
X142131194Y-74004778D01*
X142067859Y-73975276D01*
X142045956Y-73949998D01*
X142031247Y-73927485D01*
X142031246Y-73927485D01*
X141403857Y-74554874D01*
X141392590Y-74512823D01*
X141320180Y-74387404D01*
X141217776Y-74285000D01*
X141092357Y-74212590D01*
X141050304Y-74201321D01*
X141678857Y-73572767D01*
X141678857Y-73572765D01*
X141648420Y-73549075D01*
X141648414Y-73549071D01*
X141444362Y-73438643D01*
X141444353Y-73438640D01*
X141224920Y-73363308D01*
X140996067Y-73325120D01*
X140764053Y-73325120D01*
X140535199Y-73363308D01*
X140315766Y-73438640D01*
X140315757Y-73438643D01*
X140111710Y-73549069D01*
X140081260Y-73572767D01*
X140709815Y-74201321D01*
X140667763Y-74212590D01*
X140542344Y-74285000D01*
X140439940Y-74387404D01*
X140367530Y-74512823D01*
X140356261Y-74554875D01*
X139728871Y-73927485D01*
X139714163Y-73949998D01*
X139661016Y-73995354D01*
X139591785Y-74004777D01*
X139528449Y-73975274D01*
X139506546Y-73949996D01*
X139449038Y-73861972D01*
X139449035Y-73861969D01*
X139449034Y-73861967D01*
X139291839Y-73691207D01*
X139291834Y-73691203D01*
X139291832Y-73691201D01*
X139108689Y-73548655D01*
X139108683Y-73548651D01*
X138904559Y-73438184D01*
X138904550Y-73438181D01*
X138685039Y-73362822D01*
X138513337Y-73334170D01*
X138456104Y-73324620D01*
X138224006Y-73324620D01*
X138178219Y-73332260D01*
X137995070Y-73362822D01*
X137775559Y-73438181D01*
X137775550Y-73438184D01*
X137571426Y-73548651D01*
X137571420Y-73548655D01*
X137388277Y-73691201D01*
X137388274Y-73691204D01*
X137388271Y-73691206D01*
X137388271Y-73691207D01*
X137351567Y-73731079D01*
X137231070Y-73861974D01*
X137173860Y-73949540D01*
X137120713Y-73994897D01*
X137051482Y-74004320D01*
X136988147Y-73974817D01*
X136966243Y-73949540D01*
X136935084Y-73901848D01*
X136909029Y-73861967D01*
X136751834Y-73691207D01*
X136751829Y-73691203D01*
X136751827Y-73691201D01*
X136568684Y-73548655D01*
X136568678Y-73548651D01*
X136364554Y-73438184D01*
X136364545Y-73438181D01*
X136145034Y-73362822D01*
X135973332Y-73334170D01*
X135916099Y-73324620D01*
X135684001Y-73324620D01*
X135638214Y-73332260D01*
X135455065Y-73362822D01*
X135235554Y-73438181D01*
X135235545Y-73438184D01*
X135031421Y-73548651D01*
X135031415Y-73548655D01*
X134848272Y-73691201D01*
X134848269Y-73691204D01*
X134848266Y-73691206D01*
X134848266Y-73691207D01*
X134811562Y-73731079D01*
X134691065Y-73861974D01*
X134633855Y-73949540D01*
X134580708Y-73994897D01*
X134511477Y-74004320D01*
X134448142Y-73974817D01*
X134426238Y-73949540D01*
X134395079Y-73901848D01*
X134369024Y-73861967D01*
X134211829Y-73691207D01*
X134211824Y-73691203D01*
X134211822Y-73691201D01*
X134028679Y-73548655D01*
X134028673Y-73548651D01*
X133824549Y-73438184D01*
X133824540Y-73438181D01*
X133605029Y-73362822D01*
X133433327Y-73334170D01*
X133376094Y-73324620D01*
X133143996Y-73324620D01*
X133098209Y-73332260D01*
X132915060Y-73362822D01*
X132695549Y-73438181D01*
X132695540Y-73438184D01*
X132491416Y-73548651D01*
X132491410Y-73548655D01*
X132308267Y-73691201D01*
X132308264Y-73691204D01*
X132308261Y-73691206D01*
X132308261Y-73691207D01*
X132271557Y-73731079D01*
X132151060Y-73861974D01*
X132093551Y-73949998D01*
X132040405Y-73995355D01*
X131971173Y-74004778D01*
X131907838Y-73975276D01*
X131885934Y-73949997D01*
X131871226Y-73927485D01*
X131243837Y-74554874D01*
X131232570Y-74512823D01*
X131160160Y-74387404D01*
X131057756Y-74285000D01*
X130932337Y-74212590D01*
X130890284Y-74201321D01*
X131518837Y-73572767D01*
X131518837Y-73572765D01*
X131488400Y-73549075D01*
X131488394Y-73549071D01*
X131284342Y-73438643D01*
X131284333Y-73438640D01*
X131064900Y-73363308D01*
X130836047Y-73325120D01*
X130604033Y-73325120D01*
X130375179Y-73363308D01*
X130155746Y-73438640D01*
X130155737Y-73438643D01*
X129951690Y-73549069D01*
X129921240Y-73572767D01*
X130549795Y-74201321D01*
X130507743Y-74212590D01*
X130382324Y-74285000D01*
X130279920Y-74387404D01*
X130207510Y-74512823D01*
X130196241Y-74554875D01*
X129568851Y-73927485D01*
X129554143Y-73949998D01*
X129500996Y-73995354D01*
X129431765Y-74004777D01*
X129368429Y-73975274D01*
X129346526Y-73949996D01*
X129289018Y-73861972D01*
X129289015Y-73861969D01*
X129289014Y-73861967D01*
X129131819Y-73691207D01*
X129131814Y-73691203D01*
X129131812Y-73691201D01*
X128948669Y-73548655D01*
X128948663Y-73548651D01*
X128744539Y-73438184D01*
X128744530Y-73438181D01*
X128525019Y-73362822D01*
X128353317Y-73334170D01*
X128296084Y-73324620D01*
X128063986Y-73324620D01*
X128018199Y-73332260D01*
X127835050Y-73362822D01*
X127615539Y-73438181D01*
X127615530Y-73438184D01*
X127411406Y-73548651D01*
X127411400Y-73548655D01*
X127228257Y-73691201D01*
X127228254Y-73691204D01*
X127071051Y-73861972D01*
X126944110Y-74056271D01*
X126850877Y-74268819D01*
X126793901Y-74493811D01*
X126793899Y-74493822D01*
X126774735Y-74725113D01*
X126774735Y-74725126D01*
X126793899Y-74956417D01*
X126793901Y-74956428D01*
X126850877Y-75181420D01*
X126944110Y-75393968D01*
X127071051Y-75588267D01*
X127071053Y-75588269D01*
X127071056Y-75588273D01*
X127228251Y-75759033D01*
X127228254Y-75759035D01*
X127232027Y-75762509D01*
X127231125Y-75763488D01*
X127268306Y-75815160D01*
X127271974Y-75884933D01*
X127237339Y-75945614D01*
X127175395Y-75977936D01*
X127140520Y-75979822D01*
X126910035Y-75959657D01*
X126910031Y-75959657D01*
X126683346Y-75979489D01*
X126683335Y-75979491D01*
X126463544Y-76038383D01*
X126463535Y-76038386D01*
X126257300Y-76134556D01*
X126257298Y-76134557D01*
X126070891Y-76265079D01*
X125909987Y-76425983D01*
X125779465Y-76612390D01*
X125779464Y-76612392D01*
X125683294Y-76818627D01*
X125683291Y-76818636D01*
X125624399Y-77038427D01*
X125624397Y-77038436D01*
X125623286Y-77051143D01*
X125597832Y-77116211D01*
X125541240Y-77157189D01*
X125471478Y-77161065D01*
X125461441Y-77158264D01*
X125344700Y-77120333D01*
X125344693Y-77120332D01*
X125231939Y-77102473D01*
X125119187Y-77084615D01*
X124890871Y-77084615D01*
X124839787Y-77092706D01*
X124665364Y-77120332D01*
X124665361Y-77120332D01*
X124448227Y-77190883D01*
X124244794Y-77294538D01*
X124060080Y-77428741D01*
X123898642Y-77590179D01*
X123764439Y-77774893D01*
X123660784Y-77978326D01*
X123590233Y-78195460D01*
X123590233Y-78195463D01*
X123554516Y-78420970D01*
X123554516Y-78458812D01*
X123534831Y-78525851D01*
X123482027Y-78571606D01*
X123412869Y-78581550D01*
X123398423Y-78578587D01*
X123326722Y-78559375D01*
X123326718Y-78559374D01*
X123326717Y-78559374D01*
X123326716Y-78559373D01*
X123326711Y-78559373D01*
X123100027Y-78539541D01*
X123100023Y-78539541D01*
X122869534Y-78559706D01*
X122801034Y-78545939D01*
X122750851Y-78497324D01*
X122734918Y-78429295D01*
X122758293Y-78363452D01*
X122778327Y-78342714D01*
X122778030Y-78342392D01*
X122781794Y-78338925D01*
X122781806Y-78338916D01*
X122939001Y-78168156D01*
X123065946Y-77973852D01*
X123159179Y-77761303D01*
X123216156Y-77536308D01*
X123217731Y-77517300D01*
X123235322Y-77305009D01*
X123235322Y-77304996D01*
X123216157Y-77073705D01*
X123216155Y-77073694D01*
X123159179Y-76848702D01*
X123065946Y-76636154D01*
X122939003Y-76441852D01*
X122831526Y-76325100D01*
X122800604Y-76262446D01*
X122808465Y-76193020D01*
X122852612Y-76138864D01*
X122919029Y-76117174D01*
X122943164Y-76118809D01*
X122964002Y-76122286D01*
X122983974Y-76125620D01*
X122983976Y-76125620D01*
X123216073Y-76125620D01*
X123216074Y-76125620D01*
X123445006Y-76087418D01*
X123447299Y-76086631D01*
X123458204Y-76082887D01*
X123664528Y-76012056D01*
X123868651Y-75901590D01*
X123913824Y-75866431D01*
X123942460Y-75844142D01*
X124051809Y-75759033D01*
X124209004Y-75588273D01*
X124335949Y-75393969D01*
X124429182Y-75181420D01*
X124486159Y-74956425D01*
X124499325Y-74797531D01*
X124505325Y-74725126D01*
X124505325Y-74725113D01*
X124486160Y-74493822D01*
X124486158Y-74493811D01*
X124429182Y-74268819D01*
X124335949Y-74056271D01*
X124209008Y-73861972D01*
X124209005Y-73861969D01*
X124209004Y-73861967D01*
X124051809Y-73691207D01*
X124051804Y-73691203D01*
X124051802Y-73691201D01*
X123868659Y-73548655D01*
X123868653Y-73548651D01*
X123664529Y-73438184D01*
X123664520Y-73438181D01*
X123445009Y-73362822D01*
X123273307Y-73334170D01*
X123216074Y-73324620D01*
X122983976Y-73324620D01*
X122938189Y-73332260D01*
X122755040Y-73362822D01*
X122535529Y-73438181D01*
X122535520Y-73438184D01*
X122331396Y-73548651D01*
X122331390Y-73548655D01*
X122148247Y-73691201D01*
X122148244Y-73691204D01*
X122148241Y-73691206D01*
X122148241Y-73691207D01*
X122111537Y-73731079D01*
X121991040Y-73861974D01*
X121920803Y-73969479D01*
X121867656Y-74014836D01*
X121798425Y-74024259D01*
X121735090Y-73994756D01*
X121713186Y-73969478D01*
X121669003Y-73901850D01*
X121669000Y-73901847D01*
X121668999Y-73901845D01*
X121511804Y-73731085D01*
X121511799Y-73731081D01*
X121511797Y-73731079D01*
X121328654Y-73588533D01*
X121328648Y-73588529D01*
X121124524Y-73478062D01*
X121124515Y-73478059D01*
X120905004Y-73402700D01*
X120697804Y-73368125D01*
X120676069Y-73364498D01*
X120443971Y-73364498D01*
X120422236Y-73368125D01*
X120215035Y-73402700D01*
X119995524Y-73478059D01*
X119995515Y-73478062D01*
X119791391Y-73588529D01*
X119791385Y-73588533D01*
X119608242Y-73731079D01*
X119608239Y-73731082D01*
X119608236Y-73731084D01*
X119608236Y-73731085D01*
X119487749Y-73861970D01*
X119451035Y-73901852D01*
X119393825Y-73989418D01*
X119340678Y-74034775D01*
X119271447Y-74044198D01*
X119208112Y-74014695D01*
X119186208Y-73989418D01*
X119176967Y-73975274D01*
X119128994Y-73901845D01*
X118971799Y-73731085D01*
X118971794Y-73731081D01*
X118971792Y-73731079D01*
X118788649Y-73588533D01*
X118788643Y-73588529D01*
X118584519Y-73478062D01*
X118584510Y-73478059D01*
X118364999Y-73402700D01*
X118157799Y-73368125D01*
X118136064Y-73364498D01*
X117903966Y-73364498D01*
X117882231Y-73368125D01*
X117675030Y-73402700D01*
X117455519Y-73478059D01*
X117455510Y-73478062D01*
X117251386Y-73588529D01*
X117251380Y-73588533D01*
X117068237Y-73731079D01*
X117068234Y-73731082D01*
X117068231Y-73731084D01*
X117068231Y-73731085D01*
X116947744Y-73861970D01*
X116911030Y-73901852D01*
X116853820Y-73989418D01*
X116800673Y-74034775D01*
X116731442Y-74044198D01*
X116668107Y-74014695D01*
X116646203Y-73989418D01*
X116636962Y-73975274D01*
X116588989Y-73901845D01*
X116431794Y-73731085D01*
X116431789Y-73731081D01*
X116431787Y-73731079D01*
X116248644Y-73588533D01*
X116248638Y-73588529D01*
X116044514Y-73478062D01*
X116044505Y-73478059D01*
X115824994Y-73402700D01*
X115712522Y-73383932D01*
X115656984Y-73374664D01*
X115594100Y-73344215D01*
X115557661Y-73284600D01*
X115559236Y-73214748D01*
X115589712Y-73164677D01*
X120917572Y-67836819D01*
X120978895Y-67803334D01*
X121005253Y-67800500D01*
X122417588Y-67800500D01*
X122484627Y-67820185D01*
X122494903Y-67827555D01*
X122497736Y-67829814D01*
X122497738Y-67829816D01*
X122650478Y-67925789D01*
X122820745Y-67985368D01*
X122820750Y-67985369D01*
X122999996Y-68005565D01*
X123000000Y-68005565D01*
X123000004Y-68005565D01*
X123179249Y-67985369D01*
X123179252Y-67985368D01*
X123179255Y-67985368D01*
X123349522Y-67925789D01*
X123502262Y-67829816D01*
X123629816Y-67702262D01*
X123725789Y-67549522D01*
X123785368Y-67379255D01*
X123805565Y-67200000D01*
X123792774Y-67086479D01*
X123785369Y-67020750D01*
X123785368Y-67020745D01*
X123725788Y-66850476D01*
X123629815Y-66697737D01*
X123502262Y-66570184D01*
X123349523Y-66474211D01*
X123179254Y-66414631D01*
X123179249Y-66414630D01*
X123000004Y-66394435D01*
X122999996Y-66394435D01*
X122820750Y-66414630D01*
X122820745Y-66414631D01*
X122650476Y-66474211D01*
X122497736Y-66570185D01*
X122494903Y-66572445D01*
X122492724Y-66573334D01*
X122491842Y-66573889D01*
X122491744Y-66573734D01*
X122430217Y-66598855D01*
X122417588Y-66599500D01*
X120791825Y-66599500D01*
X120791809Y-66599499D01*
X120784213Y-66599499D01*
X120626098Y-66599499D01*
X120549734Y-66619961D01*
X120473369Y-66640423D01*
X120473364Y-66640426D01*
X120336445Y-66719475D01*
X120336437Y-66719481D01*
X113613845Y-73442073D01*
X113552522Y-73475558D01*
X113485902Y-73471673D01*
X113284991Y-73402700D01*
X113077789Y-73368125D01*
X113056054Y-73364498D01*
X112823956Y-73364498D01*
X112802221Y-73368125D01*
X112595020Y-73402700D01*
X112375509Y-73478059D01*
X112375500Y-73478062D01*
X112171376Y-73588529D01*
X112171370Y-73588533D01*
X111988227Y-73731079D01*
X111988224Y-73731082D01*
X111988221Y-73731084D01*
X111988221Y-73731085D01*
X111867734Y-73861970D01*
X111831020Y-73901852D01*
X111773810Y-73989418D01*
X111720663Y-74034775D01*
X111651432Y-74044198D01*
X111588097Y-74014695D01*
X111566193Y-73989418D01*
X111556952Y-73975274D01*
X111508979Y-73901845D01*
X111351784Y-73731085D01*
X111351779Y-73731081D01*
X111351777Y-73731079D01*
X111168634Y-73588533D01*
X111168628Y-73588529D01*
X110964504Y-73478062D01*
X110964495Y-73478059D01*
X110744984Y-73402700D01*
X110537784Y-73368125D01*
X110516049Y-73364498D01*
X110283951Y-73364498D01*
X110262216Y-73368125D01*
X110055015Y-73402700D01*
X109835504Y-73478059D01*
X109835495Y-73478062D01*
X109631371Y-73588529D01*
X109631365Y-73588533D01*
X109448222Y-73731079D01*
X109448219Y-73731082D01*
X109291016Y-73901850D01*
X109164075Y-74096149D01*
X109070842Y-74308697D01*
X109013866Y-74533689D01*
X109013864Y-74533700D01*
X108994700Y-74764991D01*
X108994700Y-74765004D01*
X109013864Y-74996295D01*
X109013866Y-74996306D01*
X109070842Y-75221298D01*
X109164075Y-75433846D01*
X109291016Y-75628145D01*
X109291018Y-75628147D01*
X109291021Y-75628151D01*
X109448216Y-75798911D01*
X109448219Y-75798913D01*
X109448222Y-75798916D01*
X109631365Y-75941462D01*
X109631371Y-75941466D01*
X109631374Y-75941468D01*
X109702246Y-75979822D01*
X109810462Y-76038386D01*
X109835497Y-76051934D01*
X109938858Y-76087418D01*
X110055015Y-76127295D01*
X110055017Y-76127295D01*
X110055019Y-76127296D01*
X110283951Y-76165498D01*
X110283952Y-76165498D01*
X110516055Y-76165498D01*
X110521160Y-76165075D01*
X110521309Y-76166879D01*
X110582813Y-76174291D01*
X110636649Y-76218827D01*
X110657862Y-76285398D01*
X110639715Y-76352871D01*
X110625125Y-76372216D01*
X110561018Y-76441855D01*
X110434077Y-76636154D01*
X110340844Y-76848702D01*
X110283868Y-77073694D01*
X110283866Y-77073705D01*
X110264702Y-77304996D01*
X110264702Y-77305009D01*
X110283866Y-77536300D01*
X110283868Y-77536311D01*
X110340844Y-77761303D01*
X110434077Y-77973851D01*
X110534967Y-78128274D01*
X110561023Y-78168156D01*
X110586158Y-78195460D01*
X110625125Y-78237790D01*
X110656047Y-78300444D01*
X110648186Y-78369871D01*
X110604039Y-78424026D01*
X110537621Y-78445716D01*
X110521187Y-78444604D01*
X110521160Y-78444932D01*
X110516055Y-78444509D01*
X110516049Y-78444509D01*
X110283951Y-78444509D01*
X110243141Y-78451319D01*
X110055015Y-78482711D01*
X109835504Y-78558070D01*
X109835495Y-78558073D01*
X109631371Y-78668540D01*
X109631365Y-78668544D01*
X109448222Y-78811090D01*
X109448219Y-78811093D01*
X109291016Y-78981861D01*
X109164075Y-79176160D01*
X109070842Y-79388708D01*
X109013866Y-79613700D01*
X109013864Y-79613711D01*
X108994700Y-79845002D01*
X108994700Y-79845015D01*
X109013864Y-80076306D01*
X109013866Y-80076317D01*
X109070842Y-80301309D01*
X109164075Y-80513857D01*
X109291016Y-80708156D01*
X109291018Y-80708158D01*
X109291021Y-80708162D01*
X109448216Y-80878922D01*
X109448219Y-80878924D01*
X109448222Y-80878927D01*
X109631365Y-81021473D01*
X109631371Y-81021477D01*
X109631374Y-81021479D01*
X109724261Y-81071747D01*
X109832477Y-81130311D01*
X109835497Y-81131945D01*
X109889479Y-81150477D01*
X110055015Y-81207306D01*
X110055017Y-81207306D01*
X110055019Y-81207307D01*
X110283951Y-81245509D01*
X110283952Y-81245509D01*
X110516055Y-81245509D01*
X110521160Y-81245086D01*
X110521309Y-81246890D01*
X110582813Y-81254302D01*
X110636649Y-81298838D01*
X110657862Y-81365409D01*
X110639715Y-81432882D01*
X110625125Y-81452227D01*
X110561018Y-81521866D01*
X110434077Y-81716165D01*
X110340844Y-81928713D01*
X110283868Y-82153705D01*
X110283866Y-82153716D01*
X110264702Y-82385007D01*
X110264702Y-82385020D01*
X110283866Y-82616311D01*
X110283868Y-82616322D01*
X110340844Y-82841314D01*
X110434077Y-83053862D01*
X110561018Y-83248161D01*
X110561021Y-83248165D01*
X110561023Y-83248167D01*
X110718218Y-83418927D01*
X110718221Y-83418929D01*
X110718224Y-83418932D01*
X110901367Y-83561478D01*
X110901373Y-83561482D01*
X110901376Y-83561484D01*
X111105499Y-83671950D01*
X111208860Y-83707434D01*
X111325017Y-83747311D01*
X111325019Y-83747311D01*
X111325021Y-83747312D01*
X111553953Y-83785514D01*
X111553954Y-83785514D01*
X111786050Y-83785514D01*
X111786051Y-83785514D01*
X112014983Y-83747312D01*
X112234505Y-83671950D01*
X112438628Y-83561484D01*
X112489864Y-83521606D01*
X112520853Y-83497486D01*
X112621786Y-83418927D01*
X112778981Y-83248167D01*
X112836195Y-83160593D01*
X112889341Y-83115237D01*
X112958572Y-83105813D01*
X113021908Y-83135315D01*
X113043812Y-83160593D01*
X113101022Y-83248159D01*
X113101024Y-83248161D01*
X113101028Y-83248167D01*
X113258223Y-83418927D01*
X113258226Y-83418929D01*
X113258229Y-83418932D01*
X113441372Y-83561478D01*
X113441378Y-83561482D01*
X113441381Y-83561484D01*
X113645504Y-83671950D01*
X113748865Y-83707434D01*
X113865022Y-83747311D01*
X113865024Y-83747311D01*
X113865026Y-83747312D01*
X114093958Y-83785514D01*
X114093959Y-83785514D01*
X114326055Y-83785514D01*
X114326056Y-83785514D01*
X114554988Y-83747312D01*
X114774510Y-83671950D01*
X114978633Y-83561484D01*
X115029869Y-83521606D01*
X115060858Y-83497486D01*
X115161791Y-83418927D01*
X115318986Y-83248167D01*
X115376200Y-83160593D01*
X115429346Y-83115237D01*
X115498577Y-83105813D01*
X115561913Y-83135315D01*
X115583817Y-83160593D01*
X115641027Y-83248159D01*
X115641029Y-83248161D01*
X115641033Y-83248167D01*
X115798228Y-83418927D01*
X115798231Y-83418929D01*
X115798234Y-83418932D01*
X115981377Y-83561478D01*
X115981383Y-83561482D01*
X115981386Y-83561484D01*
X116185509Y-83671950D01*
X116288870Y-83707434D01*
X116405027Y-83747311D01*
X116405029Y-83747311D01*
X116405031Y-83747312D01*
X116633963Y-83785514D01*
X116633964Y-83785514D01*
X116866060Y-83785514D01*
X116866061Y-83785514D01*
X117094993Y-83747312D01*
X117314515Y-83671950D01*
X117518638Y-83561484D01*
X117569874Y-83521606D01*
X117600863Y-83497486D01*
X117701796Y-83418927D01*
X117858991Y-83248167D01*
X117916205Y-83160593D01*
X117969351Y-83115237D01*
X118038582Y-83105813D01*
X118101918Y-83135315D01*
X118123822Y-83160593D01*
X118181032Y-83248159D01*
X118181034Y-83248161D01*
X118181038Y-83248167D01*
X118338233Y-83418927D01*
X118338236Y-83418929D01*
X118338239Y-83418932D01*
X118521382Y-83561478D01*
X118521388Y-83561482D01*
X118521391Y-83561484D01*
X118725514Y-83671950D01*
X118828875Y-83707434D01*
X118945032Y-83747311D01*
X118945034Y-83747311D01*
X118945036Y-83747312D01*
X119173968Y-83785514D01*
X119173969Y-83785514D01*
X119406065Y-83785514D01*
X119406066Y-83785514D01*
X119634998Y-83747312D01*
X119854520Y-83671950D01*
X120058643Y-83561484D01*
X120109879Y-83521606D01*
X120140868Y-83497486D01*
X120241801Y-83418927D01*
X120398996Y-83248167D01*
X120456210Y-83160593D01*
X120509356Y-83115237D01*
X120578587Y-83105813D01*
X120641923Y-83135315D01*
X120663827Y-83160593D01*
X120721037Y-83248159D01*
X120721039Y-83248161D01*
X120721043Y-83248167D01*
X120878238Y-83418927D01*
X120878241Y-83418929D01*
X120878244Y-83418932D01*
X121061387Y-83561478D01*
X121061402Y-83561488D01*
X121114538Y-83590243D01*
X121164129Y-83639461D01*
X121179522Y-83699298D01*
X121179522Y-87649170D01*
X121159837Y-87716209D01*
X121143203Y-87736851D01*
X115966873Y-92913181D01*
X115905550Y-92946666D01*
X115879192Y-92949500D01*
X109797721Y-92949500D01*
X109730682Y-92929815D01*
X109696146Y-92896623D01*
X109578494Y-92728597D01*
X109411402Y-92561506D01*
X109411395Y-92561501D01*
X109217834Y-92425967D01*
X109217830Y-92425965D01*
X109146727Y-92392809D01*
X109003663Y-92326097D01*
X109003659Y-92326096D01*
X109003655Y-92326094D01*
X108775413Y-92264938D01*
X108775403Y-92264936D01*
X108540001Y-92244341D01*
X108539999Y-92244341D01*
X108304596Y-92264936D01*
X108304586Y-92264938D01*
X108076344Y-92326094D01*
X108076335Y-92326098D01*
X107862171Y-92425964D01*
X107862169Y-92425965D01*
X107668600Y-92561503D01*
X107546284Y-92683819D01*
X107484961Y-92717303D01*
X107415269Y-92712319D01*
X107359336Y-92670447D01*
X107342421Y-92639470D01*
X107293354Y-92507913D01*
X107293350Y-92507906D01*
X107207190Y-92392812D01*
X107207187Y-92392809D01*
X107092093Y-92306649D01*
X107092086Y-92306645D01*
X106957379Y-92256403D01*
X106957372Y-92256401D01*
X106897844Y-92250000D01*
X106250000Y-92250000D01*
X106250000Y-93166988D01*
X106192993Y-93134075D01*
X106065826Y-93100000D01*
X105934174Y-93100000D01*
X105807007Y-93134075D01*
X105750000Y-93166988D01*
X105750000Y-92250000D01*
X105102155Y-92250000D01*
X105042627Y-92256401D01*
X105042620Y-92256403D01*
X104907913Y-92306645D01*
X104907906Y-92306649D01*
X104792812Y-92392809D01*
X104792809Y-92392812D01*
X104706649Y-92507906D01*
X104706645Y-92507913D01*
X104656403Y-92642620D01*
X104656401Y-92642627D01*
X104650000Y-92702155D01*
X99152052Y-92702155D01*
X99011402Y-92561506D01*
X99011395Y-92561501D01*
X98817834Y-92425967D01*
X98817830Y-92425965D01*
X98746727Y-92392809D01*
X98603663Y-92326097D01*
X98603659Y-92326096D01*
X98603655Y-92326094D01*
X98375413Y-92264938D01*
X98375403Y-92264936D01*
X98140001Y-92244341D01*
X98139999Y-92244341D01*
X97904596Y-92264936D01*
X97904586Y-92264938D01*
X97676344Y-92326094D01*
X97676335Y-92326098D01*
X97462171Y-92425964D01*
X97462169Y-92425965D01*
X97268600Y-92561503D01*
X97146284Y-92683819D01*
X97084961Y-92717303D01*
X97015269Y-92712319D01*
X96959336Y-92670447D01*
X96942421Y-92639470D01*
X96893354Y-92507913D01*
X96893350Y-92507906D01*
X96807190Y-92392812D01*
X96807187Y-92392809D01*
X96692093Y-92306649D01*
X96692086Y-92306645D01*
X96557379Y-92256403D01*
X96557372Y-92256401D01*
X96497844Y-92250000D01*
X95850000Y-92250000D01*
X95850000Y-93166988D01*
X95792993Y-93134075D01*
X95665826Y-93100000D01*
X95534174Y-93100000D01*
X95407007Y-93134075D01*
X95350000Y-93166988D01*
X95350000Y-92250000D01*
X94702155Y-92250000D01*
X94642627Y-92256401D01*
X94642620Y-92256403D01*
X94507913Y-92306645D01*
X94507906Y-92306649D01*
X94392812Y-92392809D01*
X94392809Y-92392812D01*
X94306649Y-92507906D01*
X94306645Y-92507913D01*
X94256403Y-92642620D01*
X94256401Y-92642627D01*
X94250000Y-92702155D01*
X74400500Y-92702155D01*
X74400500Y-62102155D01*
X94250000Y-62102155D01*
X94250000Y-62750000D01*
X95166988Y-62750000D01*
X95134075Y-62807007D01*
X95100000Y-62934174D01*
X95100000Y-63065826D01*
X95134075Y-63192993D01*
X95166988Y-63250000D01*
X94250000Y-63250000D01*
X94250000Y-63897844D01*
X94256401Y-63957372D01*
X94256403Y-63957379D01*
X94306645Y-64092086D01*
X94306649Y-64092093D01*
X94392809Y-64207187D01*
X94392812Y-64207190D01*
X94507906Y-64293350D01*
X94507913Y-64293354D01*
X94642620Y-64343596D01*
X94642627Y-64343598D01*
X94702155Y-64349999D01*
X94702172Y-64350000D01*
X95350000Y-64350000D01*
X95350000Y-63433012D01*
X95407007Y-63465925D01*
X95534174Y-63500000D01*
X95665826Y-63500000D01*
X95792993Y-63465925D01*
X95850000Y-63433012D01*
X95850000Y-64350000D01*
X96497828Y-64350000D01*
X96497844Y-64349999D01*
X96557372Y-64343598D01*
X96557379Y-64343596D01*
X96692086Y-64293354D01*
X96692093Y-64293350D01*
X96807187Y-64207190D01*
X96807190Y-64207187D01*
X96893350Y-64092093D01*
X96893354Y-64092086D01*
X96942422Y-63960529D01*
X96984293Y-63904595D01*
X97049757Y-63880178D01*
X97118030Y-63895030D01*
X97146285Y-63916181D01*
X97268599Y-64038495D01*
X97345135Y-64092086D01*
X97462165Y-64174032D01*
X97462167Y-64174033D01*
X97462170Y-64174035D01*
X97676337Y-64273903D01*
X97904592Y-64335063D01*
X98075319Y-64350000D01*
X98139999Y-64355659D01*
X98140000Y-64355659D01*
X98140001Y-64355659D01*
X98204681Y-64350000D01*
X98375408Y-64335063D01*
X98603663Y-64273903D01*
X98817830Y-64174035D01*
X99011401Y-64038495D01*
X99178495Y-63871401D01*
X99314035Y-63677830D01*
X99413903Y-63463663D01*
X99475063Y-63235408D01*
X99495659Y-63000000D01*
X99475063Y-62764592D01*
X99413903Y-62536337D01*
X99314035Y-62322171D01*
X99308425Y-62314158D01*
X99178494Y-62128597D01*
X99152052Y-62102155D01*
X104650000Y-62102155D01*
X104650000Y-62750000D01*
X105566988Y-62750000D01*
X105534075Y-62807007D01*
X105500000Y-62934174D01*
X105500000Y-63065826D01*
X105534075Y-63192993D01*
X105566988Y-63250000D01*
X104650000Y-63250000D01*
X104650000Y-63897844D01*
X104656401Y-63957372D01*
X104656403Y-63957379D01*
X104706645Y-64092086D01*
X104706649Y-64092093D01*
X104792809Y-64207187D01*
X104792812Y-64207190D01*
X104907906Y-64293350D01*
X104907913Y-64293354D01*
X105042620Y-64343596D01*
X105042627Y-64343598D01*
X105102155Y-64349999D01*
X105102172Y-64350000D01*
X105750000Y-64350000D01*
X105750000Y-63433012D01*
X105807007Y-63465925D01*
X105934174Y-63500000D01*
X106065826Y-63500000D01*
X106192993Y-63465925D01*
X106250000Y-63433012D01*
X106250000Y-64350000D01*
X106897828Y-64350000D01*
X106897844Y-64349999D01*
X106957372Y-64343598D01*
X106957379Y-64343596D01*
X107092086Y-64293354D01*
X107092093Y-64293350D01*
X107207187Y-64207190D01*
X107207190Y-64207187D01*
X107293350Y-64092093D01*
X107293354Y-64092086D01*
X107342422Y-63960529D01*
X107384293Y-63904595D01*
X107449757Y-63880178D01*
X107518030Y-63895030D01*
X107546285Y-63916181D01*
X107668599Y-64038495D01*
X107745135Y-64092086D01*
X107862165Y-64174032D01*
X107862167Y-64174033D01*
X107862170Y-64174035D01*
X108076337Y-64273903D01*
X108304592Y-64335063D01*
X108475319Y-64350000D01*
X108539999Y-64355659D01*
X108540000Y-64355659D01*
X108540001Y-64355659D01*
X108604681Y-64350000D01*
X108775408Y-64335063D01*
X109003663Y-64273903D01*
X109217830Y-64174035D01*
X109411401Y-64038495D01*
X109578495Y-63871401D01*
X109714035Y-63677830D01*
X109813903Y-63463663D01*
X109875063Y-63235408D01*
X109895659Y-63000000D01*
X109875063Y-62764592D01*
X109813903Y-62536337D01*
X109714035Y-62322171D01*
X109708425Y-62314158D01*
X109578494Y-62128597D01*
X109411402Y-61961506D01*
X109411395Y-61961501D01*
X109217834Y-61825967D01*
X109217830Y-61825965D01*
X109146727Y-61792809D01*
X109003663Y-61726097D01*
X109003659Y-61726096D01*
X109003655Y-61726094D01*
X108775413Y-61664938D01*
X108775403Y-61664936D01*
X108540001Y-61644341D01*
X108539999Y-61644341D01*
X108304596Y-61664936D01*
X108304586Y-61664938D01*
X108076344Y-61726094D01*
X108076335Y-61726098D01*
X107862171Y-61825964D01*
X107862169Y-61825965D01*
X107668600Y-61961503D01*
X107546284Y-62083819D01*
X107484961Y-62117303D01*
X107415269Y-62112319D01*
X107359336Y-62070447D01*
X107342421Y-62039470D01*
X107293354Y-61907913D01*
X107293350Y-61907906D01*
X107207190Y-61792812D01*
X107207187Y-61792809D01*
X107092093Y-61706649D01*
X107092086Y-61706645D01*
X106957379Y-61656403D01*
X106957372Y-61656401D01*
X106897844Y-61650000D01*
X106250000Y-61650000D01*
X106250000Y-62566988D01*
X106192993Y-62534075D01*
X106065826Y-62500000D01*
X105934174Y-62500000D01*
X105807007Y-62534075D01*
X105750000Y-62566988D01*
X105750000Y-61650000D01*
X105102155Y-61650000D01*
X105042627Y-61656401D01*
X105042620Y-61656403D01*
X104907913Y-61706645D01*
X104907906Y-61706649D01*
X104792812Y-61792809D01*
X104792809Y-61792812D01*
X104706649Y-61907906D01*
X104706645Y-61907913D01*
X104656403Y-62042620D01*
X104656401Y-62042627D01*
X104650000Y-62102155D01*
X99152052Y-62102155D01*
X99011402Y-61961506D01*
X99011395Y-61961501D01*
X98817834Y-61825967D01*
X98817830Y-61825965D01*
X98746727Y-61792809D01*
X98603663Y-61726097D01*
X98603659Y-61726096D01*
X98603655Y-61726094D01*
X98375413Y-61664938D01*
X98375403Y-61664936D01*
X98140001Y-61644341D01*
X98139999Y-61644341D01*
X97904596Y-61664936D01*
X97904586Y-61664938D01*
X97676344Y-61726094D01*
X97676335Y-61726098D01*
X97462171Y-61825964D01*
X97462169Y-61825965D01*
X97268600Y-61961503D01*
X97146284Y-62083819D01*
X97084961Y-62117303D01*
X97015269Y-62112319D01*
X96959336Y-62070447D01*
X96942421Y-62039470D01*
X96893354Y-61907913D01*
X96893350Y-61907906D01*
X96807190Y-61792812D01*
X96807187Y-61792809D01*
X96692093Y-61706649D01*
X96692086Y-61706645D01*
X96557379Y-61656403D01*
X96557372Y-61656401D01*
X96497844Y-61650000D01*
X95850000Y-61650000D01*
X95850000Y-62566988D01*
X95792993Y-62534075D01*
X95665826Y-62500000D01*
X95534174Y-62500000D01*
X95407007Y-62534075D01*
X95350000Y-62566988D01*
X95350000Y-61650000D01*
X94702155Y-61650000D01*
X94642627Y-61656401D01*
X94642620Y-61656403D01*
X94507913Y-61706645D01*
X94507906Y-61706649D01*
X94392812Y-61792809D01*
X94392809Y-61792812D01*
X94306649Y-61907906D01*
X94306645Y-61907913D01*
X94256403Y-62042620D01*
X94256401Y-62042627D01*
X94250000Y-62102155D01*
X74400500Y-62102155D01*
X74400500Y-51600000D01*
X78994457Y-51600000D01*
X79014612Y-51958902D01*
X79014614Y-51958914D01*
X79074826Y-52313296D01*
X79074828Y-52313305D01*
X79174339Y-52658718D01*
X79311905Y-52990831D01*
X79485790Y-53305454D01*
X79693805Y-53598622D01*
X79693806Y-53598623D01*
X79933339Y-53866661D01*
X80201377Y-54106194D01*
X80494548Y-54314211D01*
X80809167Y-54488094D01*
X81141276Y-54625659D01*
X81486700Y-54725173D01*
X81841093Y-54785387D01*
X82200000Y-54805543D01*
X82558907Y-54785387D01*
X82913300Y-54725173D01*
X83258724Y-54625659D01*
X83590833Y-54488094D01*
X83905452Y-54314211D01*
X84198623Y-54106194D01*
X84466661Y-53866661D01*
X84706194Y-53598623D01*
X84914211Y-53305452D01*
X85088094Y-52990833D01*
X85225659Y-52658724D01*
X85325173Y-52313300D01*
X85385387Y-51958907D01*
X85405543Y-51600000D01*
X212994457Y-51600000D01*
X213014612Y-51958902D01*
X213014614Y-51958914D01*
X213074826Y-52313296D01*
X213074828Y-52313305D01*
X213174339Y-52658718D01*
X213311905Y-52990831D01*
X213485790Y-53305454D01*
X213693805Y-53598622D01*
X213693806Y-53598623D01*
X213933339Y-53866661D01*
X214201377Y-54106194D01*
X214494548Y-54314211D01*
X214809167Y-54488094D01*
X215141276Y-54625659D01*
X215486700Y-54725173D01*
X215841093Y-54785387D01*
X216200000Y-54805543D01*
X216558907Y-54785387D01*
X216913300Y-54725173D01*
X217258724Y-54625659D01*
X217590833Y-54488094D01*
X217905452Y-54314211D01*
X218198623Y-54106194D01*
X218466661Y-53866661D01*
X218706194Y-53598623D01*
X218914211Y-53305452D01*
X219088094Y-52990833D01*
X219225659Y-52658724D01*
X219325173Y-52313300D01*
X219385387Y-51958907D01*
X219405543Y-51600000D01*
X219385387Y-51241093D01*
X219325173Y-50886700D01*
X219225659Y-50541276D01*
X219088094Y-50209167D01*
X218914211Y-49894548D01*
X218706194Y-49601377D01*
X218466661Y-49333339D01*
X218198623Y-49093806D01*
X218107928Y-49029454D01*
X217905454Y-48885790D01*
X217590831Y-48711905D01*
X217504086Y-48675974D01*
X217258724Y-48574341D01*
X217258720Y-48574339D01*
X217258718Y-48574339D01*
X216913305Y-48474828D01*
X216913296Y-48474826D01*
X216558914Y-48414614D01*
X216558902Y-48414612D01*
X216200000Y-48394457D01*
X215841097Y-48414612D01*
X215841085Y-48414614D01*
X215486703Y-48474826D01*
X215486694Y-48474828D01*
X215141281Y-48574339D01*
X214809168Y-48711905D01*
X214494545Y-48885790D01*
X214201377Y-49093805D01*
X213933339Y-49333339D01*
X213693805Y-49601377D01*
X213485790Y-49894545D01*
X213311905Y-50209168D01*
X213174339Y-50541281D01*
X213074828Y-50886694D01*
X213074826Y-50886703D01*
X213014614Y-51241085D01*
X213014612Y-51241097D01*
X212994457Y-51600000D01*
X85405543Y-51600000D01*
X85385387Y-51241093D01*
X85325173Y-50886700D01*
X85225659Y-50541276D01*
X85088094Y-50209167D01*
X84914211Y-49894548D01*
X84706194Y-49601377D01*
X84466661Y-49333339D01*
X84198623Y-49093806D01*
X84107928Y-49029454D01*
X83905454Y-48885790D01*
X83590831Y-48711905D01*
X83504086Y-48675974D01*
X83258724Y-48574341D01*
X83258720Y-48574339D01*
X83258718Y-48574339D01*
X82913305Y-48474828D01*
X82913296Y-48474826D01*
X82558914Y-48414614D01*
X82558902Y-48414612D01*
X82200000Y-48394457D01*
X81841097Y-48414612D01*
X81841085Y-48414614D01*
X81486703Y-48474826D01*
X81486694Y-48474828D01*
X81141281Y-48574339D01*
X80809168Y-48711905D01*
X80494545Y-48885790D01*
X80201377Y-49093805D01*
X79933339Y-49333339D01*
X79693805Y-49601377D01*
X79485790Y-49894545D01*
X79311905Y-50209168D01*
X79174339Y-50541281D01*
X79074828Y-50886694D01*
X79074826Y-50886703D01*
X79014614Y-51241085D01*
X79014612Y-51241097D01*
X78994457Y-51600000D01*
X74400500Y-51600000D01*
X74400500Y-43924500D01*
X74420185Y-43857461D01*
X74472989Y-43811706D01*
X74524500Y-43800500D01*
X223875500Y-43800500D01*
X223942539Y-43820185D01*
G37*
%TD.AperFunction*%
%TD*%
M02*
