M48
; DRILL file {KiCad 8.0.6} date 2025-01-09T01:40:23-0400
; FORMAT={-:-/ absolute / inch / decimal}
; #@! TF.CreationDate,2025-01-09T01:40:23-04:00
; #@! TF.GenerationSoftware,Kicad,Pcbnew,8.0.6
; #@! TF.FileFunction,Plated,1,2,PTH
FMAT,2
INCH
; #@! TA.AperFunction,Plated,PTH,ViaDrill
T1C0.0118
; #@! TA.AperFunction,Plated,PTH,ComponentDrill
T2C0.0394
; #@! TA.AperFunction,Plated,PTH,ComponentDrill
T3C0.0433
%
G90
G05
T1
X4.8425Y-2.6457
T2
X3.7638Y-2.4803
X3.7638Y-3.685
X3.8638Y-2.4803
X3.8638Y-3.685
X4.1732Y-2.4803
X4.1732Y-3.685
X4.2732Y-2.4803
X4.2732Y-3.685
X5.2323Y-2.4803
X5.3323Y-2.4803
X5.4323Y-2.4803
X5.5323Y-2.4803
X5.6323Y-2.4803
X5.7323Y-2.4803
X5.8323Y-2.4803
X5.9323Y-2.4803
X6.0323Y-2.4803
X6.0866Y-3.685
X6.1323Y-2.4803
X6.1866Y-3.685
X6.2323Y-2.4803
X6.2866Y-3.685
X6.3323Y-2.4803
X6.3866Y-3.685
X6.4323Y-2.4803
X6.4866Y-3.685
X6.5323Y-2.4803
X6.5866Y-3.685
X6.6323Y-2.4803
X6.6866Y-3.685
X6.7866Y-3.685
T3
X4.3465Y-2.9435
X4.3465Y-3.1435
X4.3965Y-3.0435
X4.3965Y-3.2435
X4.4465Y-2.9435
X4.4465Y-3.1435
X4.4965Y-3.0435
X4.4965Y-3.2435
X4.5465Y-2.9435
X4.5465Y-3.1435
X4.5965Y-3.0435
X4.5965Y-3.2435
X4.6465Y-2.9435
X4.6465Y-3.1435
X4.6965Y-3.0435
X4.6965Y-3.2435
X4.7465Y-2.9435
X4.7465Y-3.1435
X4.7965Y-3.0435
X4.7965Y-3.2435
X4.8465Y-2.9419
X4.8465Y-3.1435
X4.9965Y-3.0419
X4.9965Y-3.2419
X5.0465Y-2.9419
X5.0465Y-3.1435
X5.0965Y-3.0419
X5.0965Y-3.2419
X5.1465Y-2.9419
X5.1465Y-3.1435
X5.1965Y-3.0419
X5.1965Y-3.2419
X5.2465Y-2.9419
X5.2465Y-3.1435
X5.2965Y-3.0419
X5.2965Y-3.2419
X5.3465Y-2.9419
X5.3465Y-3.1435
X5.3965Y-3.0419
X5.3965Y-3.2419
X5.4465Y-2.9419
X5.4465Y-3.1435
X5.4965Y-3.0419
X5.4965Y-3.2419
X5.5465Y-2.9419
X5.5465Y-3.1435
X5.5965Y-3.0419
X5.5965Y-3.2419
X5.6465Y-2.9419
X5.6465Y-3.1435
X5.6965Y-3.0419
X5.6965Y-3.2419
X5.7465Y-2.9419
X5.7465Y-3.1435
X5.7965Y-3.0419
X5.7965Y-3.2419
X5.8465Y-2.9419
X5.8465Y-3.1435
X5.8965Y-3.0419
X5.8965Y-3.2419
X5.9465Y-2.9419
X5.9465Y-3.1435
X5.9965Y-3.0419
X5.9965Y-3.2419
X6.0465Y-2.9419
X6.0465Y-3.1435
X6.0965Y-3.0419
X6.0965Y-3.2419
X6.1465Y-2.9419
X6.1465Y-3.1435
X6.1965Y-3.0419
X6.1965Y-3.2419
X6.2465Y-2.9419
X6.2465Y-3.1435
X6.2965Y-3.0419
X6.2965Y-3.2419
X6.3465Y-2.9419
X6.3465Y-3.1435
X6.3965Y-3.0419
X6.3965Y-3.2419
X6.4465Y-2.9419
X6.4465Y-3.1435
X6.4965Y-3.0419
X6.4965Y-3.2419
X6.5465Y-2.9419
X6.5465Y-3.1435
X6.5965Y-3.0419
X6.5965Y-3.2419
X6.6465Y-2.9419
X6.6465Y-3.1435
X6.6965Y-3.0419
X6.6965Y-3.2419
X6.7465Y-2.9419
X6.7465Y-3.1435
X6.7965Y-3.0419
X6.7965Y-3.2419
X6.8465Y-2.9419
X6.8465Y-3.1435
X6.8965Y-3.0419
X6.8965Y-3.2419
X6.9465Y-2.9419
X6.9465Y-3.1435
X6.9965Y-3.0419
X6.9965Y-3.2419
X7.0465Y-2.9419
X7.0465Y-3.1435
X7.0965Y-3.0419
X7.0965Y-3.2419
X7.1465Y-2.9419
X7.1465Y-3.1435
X7.1965Y-3.0419
X7.1965Y-3.2419
X7.2465Y-2.9419
X7.2465Y-3.1435
X7.2965Y-3.0419
X7.2965Y-3.2419
X7.3465Y-2.9419
X7.3465Y-3.1435
X7.3965Y-3.0419
X7.3965Y-3.2419
M30
