<?xml version="1.0" encoding="utf-8"?>
<!-- Generator: Adobe Illustrator 27.2.0, SVG Export Plug-In . SVG Version: 6.00 Build 0)  -->
<svg version="1.1" id="Layer_1" xmlns="http://www.w3.org/2000/svg" xmlns:xlink="http://www.w3.org/1999/xlink" x="0px" y="0px"
	 viewBox="0 0 800 800" style="enable-background:new 0 0 800 800;" xml:space="preserve">
<style type="text/css">
	.st0{fill:#939598;}
</style>
<g>
	<path class="st0" d="M449.1,371.8l-29,22l-5.4-11.1c3.5-1.8,6.7-4.2,9.4-7.2l1.9-2.1l-1.9-2.1c-6-6.8-14.6-10.6-23.6-10.6
		c-9,0-17.6,3.9-23.6,10.6l-1.9,2.1l1.9,2.1c2.7,3,5.9,5.5,9.4,7.2l-5.4,11.1l-29-22l19.8,41l-17.9,36.6l26-19.7l20.8,43.2
		l20.8-43.2l26,19.7l-17.9-36.6L449.1,371.8z M438,385.5l-10.9,22.7l-5.1-10.5L438,385.5z M383.8,373.4c3.3-3,7.4-5,11.7-5.8
		c-1.2,1.2-1.9,2.9-1.9,4.7c0,3.8,3.1,6.9,6.9,6.9c3.8,0,6.9-3.1,6.9-6.9c0-1.8-0.7-3.5-1.9-4.7c4.3,0.9,8.3,2.9,11.7,5.8
		c-4.6,4.1-10.5,6.4-16.7,6.4C394.3,379.7,388.4,377.5,383.8,373.4z M390.1,384.4c3.3,1.2,6.8,1.8,10.4,1.8c3.6,0,7.1-0.6,10.4-1.8
		l5.9,12l-16.2,12.3l-16.2-12.3L390.1,384.4z M363,385.5l16,12.2l-5.1,10.5L363,385.5z M365.1,435.6l8.8-18l4,8.3L365.1,435.6z
		 M376.2,412.9l6.2-12.7l14.7,11.1l-15.8,12L376.2,412.9z M400.5,463.3l-17.4-36.2l17.4-13.2l17.4,13.2L400.5,463.3z M419.8,423.3
		l-15.8-12l14.7-11.1l6.2,12.7L419.8,423.3z M435.9,435.6l-12.8-9.7l4-8.3L435.9,435.6z"/>
	<path class="st0" d="M400.2,427.5c-0.1,0.2-0.3,0.4-0.5,0.5c-0.2,0.1-0.5,0.2-0.7,0.3c-0.3,0.1-0.5,0.1-0.8,0.1v1.2h2v5.2h1.6v-8.1
		h-1.3C400.4,427,400.3,427.2,400.2,427.5z"/>
	<path class="st0" d="M401,437.2c-0.2,0.2-0.3,0.3-0.5,0.5c-0.2-0.2-0.3-0.4-0.5-0.5c-0.2-0.2-0.3-0.3-0.5-0.4
		c-0.2-0.1-0.4-0.2-0.6-0.3c-0.2-0.1-0.4-0.1-0.7-0.1c-0.3,0-0.6,0.1-0.8,0.2c-0.2,0.1-0.5,0.3-0.6,0.5c-0.2,0.2-0.3,0.4-0.4,0.7
		c-0.1,0.3-0.1,0.5-0.1,0.8s0,0.6,0.1,0.8c0.1,0.3,0.2,0.5,0.4,0.7c0.2,0.2,0.4,0.3,0.6,0.5c0.2,0.1,0.5,0.2,0.8,0.2
		c0.3,0,0.5,0,0.7-0.1c0.2-0.1,0.4-0.2,0.6-0.3c0.2-0.1,0.3-0.3,0.5-0.4c0.2-0.2,0.3-0.3,0.5-0.5c0.1,0.2,0.3,0.3,0.5,0.5
		c0.2,0.2,0.3,0.3,0.5,0.4c0.2,0.1,0.4,0.2,0.6,0.3c0.2,0.1,0.4,0.1,0.7,0.1c0.3,0,0.6-0.1,0.8-0.2c0.3-0.1,0.5-0.3,0.6-0.5
		c0.2-0.2,0.3-0.4,0.4-0.7c0.1-0.3,0.1-0.5,0.1-0.8s0-0.6-0.1-0.8c-0.1-0.3-0.2-0.5-0.4-0.7c-0.2-0.2-0.4-0.3-0.6-0.4
		c-0.2-0.1-0.5-0.2-0.8-0.2c-0.2,0-0.5,0-0.7,0.1c-0.2,0.1-0.4,0.2-0.6,0.3C401.3,436.9,401.1,437,401,437.2z M399.5,438.8
		c-0.1,0.1-0.2,0.2-0.4,0.3c-0.1,0.1-0.3,0.2-0.4,0.2c-0.1,0.1-0.3,0.1-0.4,0.1c-0.3,0-0.5-0.1-0.7-0.3c-0.2-0.2-0.2-0.4-0.2-0.7
		c0-0.3,0.1-0.5,0.2-0.7c0.2-0.2,0.4-0.3,0.6-0.3c0.1,0,0.3,0,0.4,0.1c0.1,0.1,0.3,0.1,0.4,0.2c0.1,0.1,0.3,0.2,0.4,0.3
		c0.1,0.1,0.2,0.2,0.3,0.3C399.7,438.6,399.6,438.7,399.5,438.8z M401.9,437.8c0.1-0.1,0.3-0.2,0.4-0.2c0.1-0.1,0.3-0.1,0.4-0.1
		c0.3,0,0.5,0.1,0.7,0.3c0.2,0.2,0.2,0.4,0.2,0.7c0,0.3-0.1,0.5-0.2,0.7c-0.2,0.2-0.4,0.3-0.7,0.3c-0.2,0-0.3,0-0.5-0.1
		c-0.1-0.1-0.3-0.1-0.4-0.2c-0.1-0.1-0.3-0.2-0.4-0.3c-0.1-0.1-0.2-0.2-0.3-0.3c0.1-0.1,0.2-0.2,0.3-0.3
		C401.6,438,401.7,437.9,401.9,437.8z"/>
	<polygon class="st0" points="400.5,348.4 413.5,348.4 407,343.4 400.5,338.5 394,343.4 387.5,348.4 	"/>
	
		<rect x="407.9" y="336.4" transform="matrix(0.7045 -0.7097 0.7097 0.7045 -118.0121 391.4243)" class="st0" width="6.2" height="2.1"/>
	
		<rect x="399.4" y="328.1" transform="matrix(1 -3.399181e-03 3.399181e-03 1 -1.1237 1.3631)" class="st0" width="2.1" height="6.2"/>
	
		<rect x="388.9" y="334.3" transform="matrix(0.7097 -0.7045 0.7045 0.7097 -124.5289 372.6651)" class="st0" width="2.1" height="6.2"/>
</g>
</svg>
