%TF.GenerationSoftware,KiCad,Pcbnew,8.0.6*%
%TF.CreationDate,2025-02-14T22:00:12-04:00*%
%TF.ProjectId,nsec-ctf-sao-2025,6e736563-2d63-4746-962d-73616f2d3230,rev?*%
%TF.SameCoordinates,Original*%
%TF.FileFunction,Paste,Top*%
%TF.FilePolarity,Positive*%
%FSLAX46Y46*%
G04 Gerber Fmt 4.6, Leading zero omitted, Abs format (unit mm)*
G04 Created by KiCad (PCBNEW 8.0.6) date 2025-02-14 22:00:12*
%MOMM*%
%LPD*%
G01*
G04 APERTURE LIST*
G04 Aperture macros list*
%AMRoundRect*
0 Rectangle with rounded corners*
0 $1 Rounding radius*
0 $2 $3 $4 $5 $6 $7 $8 $9 X,Y pos of 4 corners*
0 Add a 4 corners polygon primitive as box body*
4,1,4,$2,$3,$4,$5,$6,$7,$8,$9,$2,$3,0*
0 Add four circle primitives for the rounded corners*
1,1,$1+$1,$2,$3*
1,1,$1+$1,$4,$5*
1,1,$1+$1,$6,$7*
1,1,$1+$1,$8,$9*
0 Add four rect primitives between the rounded corners*
20,1,$1+$1,$2,$3,$4,$5,0*
20,1,$1+$1,$4,$5,$6,$7,0*
20,1,$1+$1,$6,$7,$8,$9,0*
20,1,$1+$1,$8,$9,$2,$3,0*%
G04 Aperture macros list end*
%ADD10RoundRect,0.250001X0.462499X0.624999X-0.462499X0.624999X-0.462499X-0.624999X0.462499X-0.624999X0*%
%ADD11RoundRect,0.250001X-0.462499X-0.624999X0.462499X-0.624999X0.462499X0.624999X-0.462499X0.624999X0*%
%ADD12RoundRect,0.250000X-0.400000X-0.625000X0.400000X-0.625000X0.400000X0.625000X-0.400000X0.625000X0*%
%ADD13RoundRect,0.250000X0.400000X0.625000X-0.400000X0.625000X-0.400000X-0.625000X0.400000X-0.625000X0*%
%ADD14R,0.950013X1.150013*%
%ADD15R,0.532004X1.037490*%
%ADD16RoundRect,0.250000X-0.350000X-0.450000X0.350000X-0.450000X0.350000X0.450000X-0.350000X0.450000X0*%
G04 APERTURE END LIST*
D10*
%TO.C,D5*%
X121237500Y-89000000D03*
X118262500Y-89000000D03*
%TD*%
%TO.C,D2*%
X95062500Y-96750000D03*
X92087500Y-96750000D03*
%TD*%
D11*
%TO.C,D3*%
X101262500Y-89000000D03*
X104237500Y-89000000D03*
%TD*%
D12*
%TO.C,R2*%
X92275000Y-89000000D03*
X95375000Y-89000000D03*
%TD*%
D13*
%TO.C,R4*%
X113425000Y-88987500D03*
X110325000Y-88987500D03*
%TD*%
%TO.C,R6*%
X129125000Y-89000000D03*
X126025000Y-89000000D03*
%TD*%
%TO.C,R7*%
X135300000Y-96750000D03*
X132200000Y-96750000D03*
%TD*%
D14*
%TO.C,D10*%
X104267405Y-92825000D03*
X100882595Y-92825000D03*
%TD*%
D13*
%TO.C,R3*%
X104250000Y-96750000D03*
X101150000Y-96750000D03*
%TD*%
D10*
%TO.C,D1*%
X86932500Y-89000000D03*
X83957500Y-89000000D03*
%TD*%
D15*
%TO.C,U1*%
X117450038Y-93701346D03*
X119349962Y-93701346D03*
X118400000Y-91498654D03*
%TD*%
D11*
%TO.C,D7*%
X132762500Y-89000000D03*
X135737500Y-89000000D03*
%TD*%
%TO.C,D4*%
X110450000Y-96750000D03*
X113425000Y-96750000D03*
%TD*%
D13*
%TO.C,R8*%
X142000000Y-89000000D03*
X138900000Y-89000000D03*
%TD*%
D16*
%TO.C,R9*%
X122050000Y-100000000D03*
X124050000Y-100000000D03*
%TD*%
D12*
%TO.C,R1*%
X83950000Y-96750000D03*
X87050000Y-96750000D03*
%TD*%
D16*
%TO.C,R10*%
X115125000Y-100000000D03*
X117125000Y-100000000D03*
%TD*%
D12*
%TO.C,R5*%
X118075000Y-96750000D03*
X121175000Y-96750000D03*
%TD*%
D11*
%TO.C,D8*%
X138987500Y-96750000D03*
X141962500Y-96750000D03*
%TD*%
%TO.C,D6*%
X126012500Y-96750000D03*
X128987500Y-96750000D03*
%TD*%
M02*
