%TF.GenerationSoftware,KiCad,Pcbnew,8.0.6*%
%TF.CreationDate,2025-02-14T22:00:12-04:00*%
%TF.ProjectId,nsec-ctf-sao-2025,6e736563-2d63-4746-962d-73616f2d3230,rev?*%
%TF.SameCoordinates,Original*%
%TF.FileFunction,Copper,L2,Bot*%
%TF.FilePolarity,Positive*%
%FSLAX46Y46*%
G04 Gerber Fmt 4.6, Leading zero omitted, Abs format (unit mm)*
G04 Created by KiCad (PCBNEW 8.0.6) date 2025-02-14 22:00:12*
%MOMM*%
%LPD*%
G01*
G04 APERTURE LIST*
G04 Aperture macros list*
%AMFreePoly0*
4,1,19,0.500000,-0.750000,0.000000,-0.750000,0.000000,-0.744911,-0.071157,-0.744911,-0.207708,-0.704816,-0.327430,-0.627875,-0.420627,-0.520320,-0.479746,-0.390866,-0.500000,-0.250000,-0.500000,0.250000,-0.479746,0.390866,-0.420627,0.520320,-0.327430,0.627875,-0.207708,0.704816,-0.071157,0.744911,0.000000,0.744911,0.000000,0.750000,0.500000,0.750000,0.500000,-0.750000,0.500000,-0.750000,
$1*%
%AMFreePoly1*
4,1,19,0.000000,0.744911,0.071157,0.744911,0.207708,0.704816,0.327430,0.627875,0.420627,0.520320,0.479746,0.390866,0.500000,0.250000,0.500000,-0.250000,0.479746,-0.390866,0.420627,-0.520320,0.327430,-0.627875,0.207708,-0.704816,0.071157,-0.744911,0.000000,-0.744911,0.000000,-0.750000,-0.500000,-0.750000,-0.500000,0.750000,0.000000,0.750000,0.000000,0.744911,0.000000,0.744911,
$1*%
G04 Aperture macros list end*
%TA.AperFunction,EtchedComponent*%
%ADD10C,0.000000*%
%TD*%
%TA.AperFunction,SMDPad,CuDef*%
%ADD11FreePoly0,90.000000*%
%TD*%
%TA.AperFunction,SMDPad,CuDef*%
%ADD12FreePoly1,90.000000*%
%TD*%
%TA.AperFunction,ComponentPad*%
%ADD13R,1.700000X1.700000*%
%TD*%
%TA.AperFunction,ComponentPad*%
%ADD14O,1.700000X1.700000*%
%TD*%
%TA.AperFunction,ViaPad*%
%ADD15C,0.600000*%
%TD*%
%TA.AperFunction,Conductor*%
%ADD16C,0.200000*%
%TD*%
G04 APERTURE END LIST*
D10*
%TA.AperFunction,EtchedComponent*%
%TO.C,JP6*%
G36*
X124500000Y-93050000D02*
G01*
X123900000Y-93050000D01*
X123900000Y-92550000D01*
X124500000Y-92550000D01*
X124500000Y-93050000D01*
G37*
%TD.AperFunction*%
%TA.AperFunction,EtchedComponent*%
%TO.C,JP1*%
G36*
X86700000Y-93050000D02*
G01*
X86100000Y-93050000D01*
X86100000Y-92550000D01*
X86700000Y-92550000D01*
X86700000Y-93050000D01*
G37*
%TD.AperFunction*%
%TA.AperFunction,EtchedComponent*%
%TO.C,JP3*%
G36*
X102500000Y-93050000D02*
G01*
X101900000Y-93050000D01*
X101900000Y-92550000D01*
X102500000Y-92550000D01*
X102500000Y-93050000D01*
G37*
%TD.AperFunction*%
%TA.AperFunction,EtchedComponent*%
%TO.C,JP7*%
G36*
X132100000Y-93050000D02*
G01*
X131500000Y-93050000D01*
X131500000Y-92550000D01*
X132100000Y-92550000D01*
X132100000Y-93050000D01*
G37*
%TD.AperFunction*%
%TA.AperFunction,EtchedComponent*%
%TO.C,JP4*%
G36*
X110300000Y-93050000D02*
G01*
X109700000Y-93050000D01*
X109700000Y-92550000D01*
X110300000Y-92550000D01*
X110300000Y-93050000D01*
G37*
%TD.AperFunction*%
%TA.AperFunction,EtchedComponent*%
%TO.C,JP5*%
G36*
X117300000Y-93050000D02*
G01*
X116700000Y-93050000D01*
X116700000Y-92550000D01*
X117300000Y-92550000D01*
X117300000Y-93050000D01*
G37*
%TD.AperFunction*%
%TA.AperFunction,EtchedComponent*%
%TO.C,JP2*%
G36*
X94100000Y-93050000D02*
G01*
X93500000Y-93050000D01*
X93500000Y-92550000D01*
X94100000Y-92550000D01*
X94100000Y-93050000D01*
G37*
%TD.AperFunction*%
%TA.AperFunction,EtchedComponent*%
%TO.C,JP8*%
G36*
X139500000Y-93050000D02*
G01*
X138900000Y-93050000D01*
X138900000Y-92550000D01*
X139500000Y-92550000D01*
X139500000Y-93050000D01*
G37*
%TD.AperFunction*%
%TD*%
D11*
%TO.P,JP6,1,A*%
%TO.N,Net-(D6-A)*%
X124200000Y-93450000D03*
D12*
%TO.P,JP6,2,B*%
%TO.N,SV6*%
X124200000Y-92150000D03*
%TD*%
D13*
%TO.P,J1,1,Pin_1*%
%TO.N,SV4*%
X77650000Y-99200000D03*
D14*
%TO.P,J1,2,Pin_2*%
%TO.N,+3V3*%
X77650000Y-96660000D03*
%TO.P,J1,3,Pin_3*%
%TO.N,GPIO2*%
X77650000Y-94120000D03*
%TO.P,J1,4,Pin_4*%
%TO.N,GPIO3*%
X77650000Y-91580000D03*
%TO.P,J1,5,Pin_5*%
%TO.N,SV1*%
X77650000Y-89040000D03*
%TO.P,J1,6,Pin_6*%
%TO.N,SV2*%
X77650000Y-86500000D03*
%TD*%
D11*
%TO.P,JP1,1,A*%
%TO.N,Net-(JP1-A)*%
X86400000Y-93450000D03*
D12*
%TO.P,JP1,2,B*%
%TO.N,SV1*%
X86400000Y-92150000D03*
%TD*%
D11*
%TO.P,JP3,1,A*%
%TO.N,Net-(D3-A)*%
X102200000Y-93450000D03*
D12*
%TO.P,JP3,2,B*%
%TO.N,SV3*%
X102200000Y-92150000D03*
%TD*%
D11*
%TO.P,JP7,1,A*%
%TO.N,Net-(D7-A)*%
X131800000Y-93450000D03*
D12*
%TO.P,JP7,2,B*%
%TO.N,SV8*%
X131800000Y-92150000D03*
%TD*%
D11*
%TO.P,JP4,1,A*%
%TO.N,Net-(D4-A)*%
X110000000Y-93450000D03*
D12*
%TO.P,JP4,2,B*%
%TO.N,SV4*%
X110000000Y-92150000D03*
%TD*%
D11*
%TO.P,JP5,1,A*%
%TO.N,Net-(JP5-A)*%
X117000000Y-93450000D03*
D12*
%TO.P,JP5,2,B*%
%TO.N,SV5*%
X117000000Y-92150000D03*
%TD*%
D11*
%TO.P,JP2,1,A*%
%TO.N,Net-(D2-A)*%
X93800000Y-93450000D03*
D12*
%TO.P,JP2,2,B*%
%TO.N,SV2*%
X93800000Y-92150000D03*
%TD*%
D11*
%TO.P,JP8,1,A*%
%TO.N,Net-(D8-A)*%
X139200000Y-93450000D03*
D12*
%TO.P,JP8,2,B*%
%TO.N,SV7*%
X139200000Y-92150000D03*
%TD*%
D13*
%TO.P,J2,1,Pin_1*%
%TO.N,SV3*%
X146225000Y-99200000D03*
D14*
%TO.P,J2,2,Pin_2*%
%TO.N,SV4*%
X146225000Y-96660000D03*
%TO.P,J2,3,Pin_3*%
%TO.N,SV5*%
X146225000Y-94120000D03*
%TO.P,J2,4,Pin_4*%
%TO.N,SV6*%
X146225000Y-91580000D03*
%TO.P,J2,5,Pin_5*%
%TO.N,SV7*%
X146225000Y-89040000D03*
%TO.P,J2,6,Pin_6*%
%TO.N,SV8*%
X146225000Y-86500000D03*
%TD*%
D15*
%TO.N,SV4*%
X115400000Y-90200000D03*
%TO.N,Net-(D2-A)*%
X92250000Y-95000000D03*
X92250000Y-95000000D03*
%TO.N,Net-(D3-A)*%
X98200000Y-93250000D03*
%TO.N,Net-(D4-A)*%
X108200000Y-98600000D03*
%TO.N,Net-(D6-A)*%
X126612500Y-94896765D03*
%TO.N,Net-(D7-A)*%
X134500000Y-94650000D03*
%TO.N,Net-(D8-A)*%
X136800000Y-93750000D03*
%TO.N,Net-(JP1-A)*%
X86750000Y-95000000D03*
%TO.N,Net-(JP5-A)*%
X122850000Y-96100000D03*
%TD*%
D16*
%TO.N,SV1*%
X86400000Y-91850000D02*
X86400000Y-92150000D01*
X77650000Y-89040000D02*
X83590000Y-89040000D01*
X83590000Y-89040000D02*
X86400000Y-91850000D01*
%TO.N,SV2*%
X93800000Y-92150000D02*
X92900000Y-92150000D01*
X92900000Y-92150000D02*
X87250000Y-86500000D01*
X77650000Y-86500000D02*
X87000000Y-86500000D01*
%TO.N,SV3*%
X107951471Y-99200000D02*
X106200000Y-97448529D01*
X146225000Y-99200000D02*
X107951471Y-99200000D01*
X103181337Y-92150000D02*
X102200000Y-92150000D01*
X106200000Y-95168663D02*
X103181337Y-92150000D01*
X106200000Y-97448529D02*
X106200000Y-95168663D01*
%TO.N,SV4*%
X146225000Y-96660000D02*
X146135000Y-96750000D01*
X115400000Y-90200000D02*
X115400000Y-91200000D01*
X115400000Y-91200000D02*
X113900000Y-92700000D01*
X113900000Y-93100000D02*
X112800000Y-92000000D01*
X117550000Y-96750000D02*
X113900000Y-93100000D01*
X113900000Y-92700000D02*
X113900000Y-93100000D01*
X146135000Y-96750000D02*
X117550000Y-96750000D01*
X112800000Y-92000000D02*
X110150000Y-92000000D01*
X110150000Y-92000000D02*
X110000000Y-92150000D01*
%TO.N,SV5*%
X123500000Y-95750000D02*
X119900000Y-92150000D01*
X146225000Y-94120000D02*
X144595000Y-95750000D01*
X119900000Y-92150000D02*
X117000000Y-92150000D01*
X144595000Y-95750000D02*
X123500000Y-95750000D01*
%TO.N,SV6*%
X126550000Y-92150000D02*
X124200000Y-92150000D01*
X146225000Y-91580000D02*
X142555000Y-95250000D01*
X142555000Y-95250000D02*
X129650000Y-95250000D01*
X129650000Y-95250000D02*
X126550000Y-92150000D01*
%TO.N,SV7*%
X139300000Y-92250000D02*
X139200000Y-92150000D01*
X143015000Y-92250000D02*
X139300000Y-92250000D01*
X146225000Y-89040000D02*
X143015000Y-92250000D01*
%TO.N,SV8*%
X133450000Y-90500000D02*
X144199314Y-90500000D01*
X144850000Y-87875000D02*
X146225000Y-86500000D01*
X144850000Y-89849314D02*
X144850000Y-87875000D01*
X144199314Y-90500000D02*
X144850000Y-89849314D01*
X131800000Y-92150000D02*
X133450000Y-90500000D01*
%TO.N,Net-(D2-A)*%
X92250000Y-95000000D02*
X93800000Y-93450000D01*
%TO.N,Net-(D3-A)*%
X102200000Y-93450000D02*
X102000000Y-93250000D01*
X102000000Y-93250000D02*
X98200000Y-93250000D01*
%TO.N,Net-(D4-A)*%
X107600000Y-96050000D02*
X110000000Y-93650000D01*
X108200000Y-98600000D02*
X107600000Y-98000000D01*
X110000000Y-93650000D02*
X110000000Y-93450000D01*
X107600000Y-98000000D02*
X107600000Y-96050000D01*
%TO.N,Net-(D6-A)*%
X125646765Y-94896765D02*
X124200000Y-93450000D01*
X126612500Y-94896765D02*
X125646765Y-94896765D01*
%TO.N,Net-(D7-A)*%
X131800000Y-93450000D02*
X133000000Y-94650000D01*
X133000000Y-94650000D02*
X134500000Y-94650000D01*
%TO.N,Net-(D8-A)*%
X139050000Y-93600000D02*
X139200000Y-93450000D01*
X136950000Y-93600000D02*
X139050000Y-93600000D01*
X136800000Y-93750000D02*
X136950000Y-93600000D01*
%TO.N,Net-(JP1-A)*%
X86750000Y-95000000D02*
X86750000Y-93800000D01*
X86750000Y-93800000D02*
X86400000Y-93450000D01*
%TO.N,Net-(JP5-A)*%
X120200000Y-93450000D02*
X122850000Y-96100000D01*
X117000000Y-93450000D02*
X120200000Y-93450000D01*
%TD*%
M02*
