M48
; DRILL file {KiCad 8.0.6} date 2025-02-14T22:00:12-0400
; FORMAT={-:-/ absolute / inch / decimal}
; #@! TF.CreationDate,2025-02-14T22:00:12-04:00
; #@! TF.GenerationSoftware,Kicad,Pcbnew,8.0.6
; #@! TF.FileFunction,Plated,1,2,PTH
FMAT,2
INCH
; #@! TA.AperFunction,Plated,PTH,ViaDrill
T1C0.0118
; #@! TA.AperFunction,Plated,PTH,ComponentDrill
T2C0.0394
%
G90
G05
T1
X3.4154Y-3.7402
X3.6319Y-3.7402
X3.6319Y-3.7402
X3.8661Y-3.6713
X4.2598Y-3.8819
X4.5433Y-3.5512
X4.8366Y-3.7835
X4.9847Y-3.7361
X5.2953Y-3.7264
X5.3858Y-3.6909
T2
X3.0571Y-3.4055
X3.0571Y-3.5055
X3.0571Y-3.6055
X3.0571Y-3.7055
X3.0571Y-3.8055
X3.0571Y-3.9055
X5.7569Y-3.4055
X5.7569Y-3.5055
X5.7569Y-3.6055
X5.7569Y-3.7055
X5.7569Y-3.8055
X5.7569Y-3.9055
M30
