%TF.GenerationSoftware,KiCad,Pcbnew,8.0.6*%
%TF.CreationDate,2025-02-14T22:00:12-04:00*%
%TF.ProjectId,nsec-ctf-sao-2025,6e736563-2d63-4746-962d-73616f2d3230,rev?*%
%TF.SameCoordinates,Original*%
%TF.FileFunction,Copper,L1,Top*%
%TF.FilePolarity,Positive*%
%FSLAX46Y46*%
G04 Gerber Fmt 4.6, Leading zero omitted, Abs format (unit mm)*
G04 Created by KiCad (PCBNEW 8.0.6) date 2025-02-14 22:00:12*
%MOMM*%
%LPD*%
G01*
G04 APERTURE LIST*
G04 Aperture macros list*
%AMRoundRect*
0 Rectangle with rounded corners*
0 $1 Rounding radius*
0 $2 $3 $4 $5 $6 $7 $8 $9 X,Y pos of 4 corners*
0 Add a 4 corners polygon primitive as box body*
4,1,4,$2,$3,$4,$5,$6,$7,$8,$9,$2,$3,0*
0 Add four circle primitives for the rounded corners*
1,1,$1+$1,$2,$3*
1,1,$1+$1,$4,$5*
1,1,$1+$1,$6,$7*
1,1,$1+$1,$8,$9*
0 Add four rect primitives between the rounded corners*
20,1,$1+$1,$2,$3,$4,$5,0*
20,1,$1+$1,$4,$5,$6,$7,0*
20,1,$1+$1,$6,$7,$8,$9,0*
20,1,$1+$1,$8,$9,$2,$3,0*%
G04 Aperture macros list end*
%TA.AperFunction,SMDPad,CuDef*%
%ADD10RoundRect,0.250001X0.462499X0.624999X-0.462499X0.624999X-0.462499X-0.624999X0.462499X-0.624999X0*%
%TD*%
%TA.AperFunction,SMDPad,CuDef*%
%ADD11RoundRect,0.250001X-0.462499X-0.624999X0.462499X-0.624999X0.462499X0.624999X-0.462499X0.624999X0*%
%TD*%
%TA.AperFunction,SMDPad,CuDef*%
%ADD12RoundRect,0.250000X-0.400000X-0.625000X0.400000X-0.625000X0.400000X0.625000X-0.400000X0.625000X0*%
%TD*%
%TA.AperFunction,SMDPad,CuDef*%
%ADD13RoundRect,0.250000X0.400000X0.625000X-0.400000X0.625000X-0.400000X-0.625000X0.400000X-0.625000X0*%
%TD*%
%TA.AperFunction,SMDPad,CuDef*%
%ADD14R,0.950013X1.150013*%
%TD*%
%TA.AperFunction,SMDPad,CuDef*%
%ADD15R,0.532004X1.037490*%
%TD*%
%TA.AperFunction,SMDPad,CuDef*%
%ADD16RoundRect,0.250000X-0.350000X-0.450000X0.350000X-0.450000X0.350000X0.450000X-0.350000X0.450000X0*%
%TD*%
%TA.AperFunction,ComponentPad*%
%ADD17R,1.700000X1.700000*%
%TD*%
%TA.AperFunction,ComponentPad*%
%ADD18O,1.700000X1.700000*%
%TD*%
%TA.AperFunction,ViaPad*%
%ADD19C,0.600000*%
%TD*%
%TA.AperFunction,Conductor*%
%ADD20C,0.200000*%
%TD*%
G04 APERTURE END LIST*
D10*
%TO.P,D5,1,K*%
%TO.N,Net-(D5-K)*%
X121237500Y-89000000D03*
%TO.P,D5,2,A*%
%TO.N,+3V3*%
X118262500Y-89000000D03*
%TD*%
%TO.P,D2,1,K*%
%TO.N,Net-(D2-K)*%
X95062500Y-96750000D03*
%TO.P,D2,2,A*%
%TO.N,Net-(D2-A)*%
X92087500Y-96750000D03*
%TD*%
D11*
%TO.P,D3,1,K*%
%TO.N,Net-(D3-K)*%
X101262500Y-89000000D03*
%TO.P,D3,2,A*%
%TO.N,Net-(D3-A)*%
X104237500Y-89000000D03*
%TD*%
D12*
%TO.P,R2,1*%
%TO.N,SV4*%
X92275000Y-89000000D03*
%TO.P,R2,2*%
%TO.N,Net-(D2-K)*%
X95375000Y-89000000D03*
%TD*%
D13*
%TO.P,R4,1*%
%TO.N,SV4*%
X113425000Y-88987500D03*
%TO.P,R4,2*%
%TO.N,Net-(D4-K)*%
X110325000Y-88987500D03*
%TD*%
%TO.P,R6,1*%
%TO.N,SV4*%
X129125000Y-89000000D03*
%TO.P,R6,2*%
%TO.N,Net-(D6-K)*%
X126025000Y-89000000D03*
%TD*%
%TO.P,R7,1*%
%TO.N,SV4*%
X135300000Y-96750000D03*
%TO.P,R7,2*%
%TO.N,Net-(D7-K)*%
X132200000Y-96750000D03*
%TD*%
D14*
%TO.P,D10,1,C*%
%TO.N,Net-(D10-C)*%
X104267405Y-92825000D03*
%TO.P,D10,2,A*%
%TO.N,SV4*%
X100882595Y-92825000D03*
%TD*%
D13*
%TO.P,R3,1*%
%TO.N,Net-(D10-C)*%
X104250000Y-96750000D03*
%TO.P,R3,2*%
%TO.N,Net-(D3-K)*%
X101150000Y-96750000D03*
%TD*%
D10*
%TO.P,D1,1,K*%
%TO.N,Net-(D1-K)*%
X86932500Y-89000000D03*
%TO.P,D1,2,A*%
%TO.N,SV4*%
X83957500Y-89000000D03*
%TD*%
D15*
%TO.P,U1,1,B*%
%TO.N,Net-(U1-B)*%
X117450038Y-93701346D03*
%TO.P,U1,2,E*%
%TO.N,Net-(U1-E)*%
X119349962Y-93701346D03*
%TO.P,U1,3,C*%
%TO.N,SV4*%
X118400000Y-91498654D03*
%TD*%
D11*
%TO.P,D7,1,K*%
%TO.N,Net-(D7-K)*%
X132762500Y-89000000D03*
%TO.P,D7,2,A*%
%TO.N,Net-(D7-A)*%
X135737500Y-89000000D03*
%TD*%
%TO.P,D4,1,K*%
%TO.N,Net-(D4-K)*%
X110450000Y-96750000D03*
%TO.P,D4,2,A*%
%TO.N,Net-(D4-A)*%
X113425000Y-96750000D03*
%TD*%
D13*
%TO.P,R8,1*%
%TO.N,SV4*%
X142000000Y-89000000D03*
%TO.P,R8,2*%
%TO.N,Net-(D8-K)*%
X138900000Y-89000000D03*
%TD*%
D16*
%TO.P,R9,1*%
%TO.N,Net-(U1-B)*%
X122050000Y-100000000D03*
%TO.P,R9,2*%
%TO.N,Net-(JP5-A)*%
X124050000Y-100000000D03*
%TD*%
D12*
%TO.P,R1,1*%
%TO.N,Net-(D1-K)*%
X83950000Y-96750000D03*
%TO.P,R1,2*%
%TO.N,Net-(JP1-A)*%
X87050000Y-96750000D03*
%TD*%
D16*
%TO.P,R10,1*%
%TO.N,SV4*%
X115125000Y-100000000D03*
%TO.P,R10,2*%
%TO.N,Net-(U1-B)*%
X117125000Y-100000000D03*
%TD*%
D12*
%TO.P,R5,1*%
%TO.N,Net-(U1-E)*%
X118075000Y-96750000D03*
%TO.P,R5,2*%
%TO.N,Net-(D5-K)*%
X121175000Y-96750000D03*
%TD*%
D11*
%TO.P,D8,1,K*%
%TO.N,Net-(D8-K)*%
X138987500Y-96750000D03*
%TO.P,D8,2,A*%
%TO.N,Net-(D8-A)*%
X141962500Y-96750000D03*
%TD*%
%TO.P,D6,1,K*%
%TO.N,Net-(D6-K)*%
X126012500Y-96750000D03*
%TO.P,D6,2,A*%
%TO.N,Net-(D6-A)*%
X128987500Y-96750000D03*
%TD*%
D17*
%TO.P,J1,1,Pin_1*%
%TO.N,SV4*%
X77650000Y-99200000D03*
D18*
%TO.P,J1,2,Pin_2*%
%TO.N,+3V3*%
X77650000Y-96660000D03*
%TO.P,J1,3,Pin_3*%
%TO.N,GPIO2*%
X77650000Y-94120000D03*
%TO.P,J1,4,Pin_4*%
%TO.N,GPIO3*%
X77650000Y-91580000D03*
%TO.P,J1,5,Pin_5*%
%TO.N,SV1*%
X77650000Y-89040000D03*
%TO.P,J1,6,Pin_6*%
%TO.N,SV2*%
X77650000Y-86500000D03*
%TD*%
D17*
%TO.P,J2,1,Pin_1*%
%TO.N,SV3*%
X146225000Y-99200000D03*
D18*
%TO.P,J2,2,Pin_2*%
%TO.N,SV4*%
X146225000Y-96660000D03*
%TO.P,J2,3,Pin_3*%
%TO.N,SV5*%
X146225000Y-94120000D03*
%TO.P,J2,4,Pin_4*%
%TO.N,SV6*%
X146225000Y-91580000D03*
%TO.P,J2,5,Pin_5*%
%TO.N,SV7*%
X146225000Y-89040000D03*
%TO.P,J2,6,Pin_6*%
%TO.N,SV8*%
X146225000Y-86500000D03*
%TD*%
D19*
%TO.N,SV4*%
X115400000Y-90200000D03*
%TO.N,Net-(D2-A)*%
X92250000Y-95000000D03*
X92250000Y-95000000D03*
%TO.N,Net-(D3-A)*%
X98200000Y-93250000D03*
%TO.N,Net-(D4-A)*%
X108200000Y-98600000D03*
%TO.N,Net-(D6-A)*%
X126612500Y-94896765D03*
%TO.N,Net-(D7-A)*%
X134500000Y-94650000D03*
%TO.N,Net-(D8-A)*%
X136800000Y-93750000D03*
%TO.N,Net-(JP1-A)*%
X86750000Y-95000000D03*
%TO.N,Net-(JP5-A)*%
X122850000Y-96100000D03*
%TD*%
D20*
%TO.N,Net-(D1-K)*%
X83950000Y-91982500D02*
X86932500Y-89000000D01*
X83950000Y-96750000D02*
X83950000Y-91982500D01*
%TO.N,Net-(D2-K)*%
X95062500Y-96750000D02*
X95062500Y-89312500D01*
X95062500Y-89312500D02*
X95375000Y-89000000D01*
%TO.N,Net-(D3-K)*%
X101150000Y-96750000D02*
X99250000Y-94850000D01*
X99250000Y-94850000D02*
X99250000Y-91012500D01*
X99250000Y-91012500D02*
X101262500Y-89000000D01*
%TO.N,Net-(D4-K)*%
X110450000Y-96750000D02*
X110450000Y-89112500D01*
X110450000Y-89112500D02*
X110325000Y-88987500D01*
%TO.N,Net-(D5-K)*%
X121175000Y-96750000D02*
X121175000Y-89062500D01*
X121175000Y-89062500D02*
X121237500Y-89000000D01*
%TO.N,Net-(D6-K)*%
X126012500Y-89012500D02*
X126025000Y-89000000D01*
X126012500Y-96750000D02*
X126012500Y-89012500D01*
%TO.N,Net-(D7-K)*%
X132200000Y-96750000D02*
X132200000Y-89562500D01*
X132200000Y-89562500D02*
X132762500Y-89000000D01*
%TO.N,Net-(D8-K)*%
X138987500Y-89087500D02*
X138900000Y-89000000D01*
X138987500Y-96750000D02*
X138987500Y-89087500D01*
%TO.N,SV1*%
X77650000Y-89040000D02*
X77660000Y-89040000D01*
%TO.N,SV2*%
X77650000Y-86500000D02*
X78175000Y-85975000D01*
%TO.N,SV4*%
X76525000Y-99200000D02*
X77650000Y-99200000D01*
X85445000Y-87892500D02*
X85867500Y-87892500D01*
X77850000Y-99000000D02*
X77650000Y-99200000D01*
X76375000Y-99350000D02*
X76525000Y-99200000D01*
%TO.N,+3V3*%
X113900000Y-85200000D02*
X117700000Y-89000000D01*
X84200000Y-85200000D02*
X113600000Y-85200000D01*
X80600000Y-93710000D02*
X80600000Y-88800000D01*
X77650000Y-96660000D02*
X80600000Y-93710000D01*
X117700000Y-89000000D02*
X118262500Y-89000000D01*
X80600000Y-88800000D02*
X84200000Y-85200000D01*
%TO.N,Net-(D10-C)*%
X104250000Y-92842405D02*
X104267405Y-92825000D01*
X104250000Y-96750000D02*
X104250000Y-92842405D01*
X104267405Y-92970095D02*
X104237500Y-93000000D01*
X104267405Y-92825000D02*
X104267405Y-92970095D01*
%TO.N,Net-(U1-E)*%
X119349962Y-93701346D02*
X119349962Y-95475038D01*
X119349962Y-95475038D02*
X118075000Y-96750000D01*
%TO.N,Net-(U1-B)*%
X117125000Y-100000000D02*
X122050000Y-100000000D01*
X117450038Y-93701346D02*
X115726346Y-95425038D01*
X115726346Y-98601346D02*
X117125000Y-100000000D01*
X115726346Y-95425038D02*
X115726346Y-98601346D01*
%TO.N,Net-(D2-A)*%
X92087500Y-96750000D02*
X92087500Y-95162500D01*
X92087500Y-95162500D02*
X92250000Y-95000000D01*
%TO.N,Net-(D3-A)*%
X100200000Y-87000000D02*
X102237500Y-87000000D01*
X102237500Y-87000000D02*
X104237500Y-89000000D01*
X98200000Y-89000000D02*
X100200000Y-87000000D01*
X98200000Y-93250000D02*
X98200000Y-89000000D01*
%TO.N,Net-(D4-A)*%
X111575000Y-98600000D02*
X113425000Y-96750000D01*
X108200000Y-98600000D02*
X111575000Y-98600000D01*
%TO.N,Net-(D6-A)*%
X127134265Y-94896765D02*
X128987500Y-96750000D01*
X126612500Y-94896765D02*
X127134265Y-94896765D01*
%TO.N,Net-(D7-A)*%
X134500000Y-89750000D02*
X135250000Y-89000000D01*
X134500000Y-94650000D02*
X134500000Y-89750000D01*
X135250000Y-89000000D02*
X135737500Y-89000000D01*
%TO.N,Net-(D8-A)*%
X139962500Y-98750000D02*
X141962500Y-96750000D01*
X136800000Y-93750000D02*
X136750000Y-93800000D01*
X136750000Y-97250000D02*
X138250000Y-98750000D01*
X136750000Y-93800000D02*
X136750000Y-97250000D01*
X138250000Y-98750000D02*
X139962500Y-98750000D01*
%TO.N,Net-(JP1-A)*%
X87050000Y-95300000D02*
X86750000Y-95000000D01*
X87050000Y-96750000D02*
X87050000Y-95300000D01*
%TO.N,Net-(JP5-A)*%
X122850000Y-96100000D02*
X122850000Y-97150000D01*
X124050000Y-98350000D02*
X124050000Y-100150000D01*
X122850000Y-97150000D02*
X124050000Y-98350000D01*
%TD*%
%TA.AperFunction,Conductor*%
%TO.N,SV4*%
G36*
X151392539Y-83400185D02*
G01*
X151438294Y-83452989D01*
X151449500Y-83504500D01*
X151449500Y-102305500D01*
X151429815Y-102372539D01*
X151377011Y-102418294D01*
X151325500Y-102429500D01*
X72574500Y-102429500D01*
X72507461Y-102409815D01*
X72461706Y-102357011D01*
X72450500Y-102305500D01*
X72450500Y-86499999D01*
X76294341Y-86499999D01*
X76294341Y-86500000D01*
X76314936Y-86735403D01*
X76314938Y-86735413D01*
X76376094Y-86963655D01*
X76376096Y-86963659D01*
X76376097Y-86963663D01*
X76475965Y-87177830D01*
X76475967Y-87177834D01*
X76611501Y-87371395D01*
X76611506Y-87371402D01*
X76778597Y-87538493D01*
X76778603Y-87538498D01*
X76964158Y-87668425D01*
X77007783Y-87723002D01*
X77014977Y-87792500D01*
X76983454Y-87854855D01*
X76964158Y-87871575D01*
X76778597Y-88001505D01*
X76611505Y-88168597D01*
X76475965Y-88362169D01*
X76475964Y-88362171D01*
X76376098Y-88576335D01*
X76376094Y-88576344D01*
X76314938Y-88804586D01*
X76314936Y-88804596D01*
X76294341Y-89039999D01*
X76294341Y-89040000D01*
X76314936Y-89275403D01*
X76314938Y-89275413D01*
X76376094Y-89503655D01*
X76376096Y-89503659D01*
X76376097Y-89503663D01*
X76456001Y-89675018D01*
X76475965Y-89717830D01*
X76475967Y-89717834D01*
X76611501Y-89911395D01*
X76611506Y-89911402D01*
X76778597Y-90078493D01*
X76778603Y-90078498D01*
X76964158Y-90208425D01*
X77007783Y-90263002D01*
X77014977Y-90332500D01*
X76983454Y-90394855D01*
X76964158Y-90411575D01*
X76778597Y-90541505D01*
X76611505Y-90708597D01*
X76475965Y-90902169D01*
X76475964Y-90902171D01*
X76376098Y-91116335D01*
X76376094Y-91116344D01*
X76314938Y-91344586D01*
X76314936Y-91344596D01*
X76294341Y-91579999D01*
X76294341Y-91580000D01*
X76314936Y-91815403D01*
X76314938Y-91815413D01*
X76376094Y-92043655D01*
X76376096Y-92043659D01*
X76376097Y-92043663D01*
X76449988Y-92202122D01*
X76475965Y-92257830D01*
X76475967Y-92257834D01*
X76611501Y-92451395D01*
X76611506Y-92451402D01*
X76778597Y-92618493D01*
X76778603Y-92618498D01*
X76964158Y-92748425D01*
X77007783Y-92803002D01*
X77014977Y-92872500D01*
X76983454Y-92934855D01*
X76964158Y-92951575D01*
X76778597Y-93081505D01*
X76611505Y-93248597D01*
X76475965Y-93442169D01*
X76475964Y-93442171D01*
X76376098Y-93656335D01*
X76376094Y-93656344D01*
X76314938Y-93884586D01*
X76314936Y-93884596D01*
X76294341Y-94119999D01*
X76294341Y-94120000D01*
X76314936Y-94355403D01*
X76314938Y-94355413D01*
X76376094Y-94583655D01*
X76376096Y-94583659D01*
X76376097Y-94583663D01*
X76463427Y-94770943D01*
X76475965Y-94797830D01*
X76475967Y-94797834D01*
X76611501Y-94991395D01*
X76611506Y-94991402D01*
X76778597Y-95158493D01*
X76778603Y-95158498D01*
X76964158Y-95288425D01*
X77007783Y-95343002D01*
X77014977Y-95412500D01*
X76983454Y-95474855D01*
X76964158Y-95491575D01*
X76778597Y-95621505D01*
X76611505Y-95788597D01*
X76475965Y-95982169D01*
X76475964Y-95982171D01*
X76376098Y-96196335D01*
X76376094Y-96196344D01*
X76314938Y-96424586D01*
X76314936Y-96424596D01*
X76294341Y-96659999D01*
X76294341Y-96660000D01*
X76314936Y-96895403D01*
X76314938Y-96895413D01*
X76376094Y-97123655D01*
X76376096Y-97123659D01*
X76376097Y-97123663D01*
X76471874Y-97329057D01*
X76475965Y-97337830D01*
X76475967Y-97337834D01*
X76575222Y-97479584D01*
X76611501Y-97531396D01*
X76611506Y-97531402D01*
X76733818Y-97653714D01*
X76767303Y-97715037D01*
X76762319Y-97784729D01*
X76720447Y-97840662D01*
X76689471Y-97857577D01*
X76557912Y-97906646D01*
X76557906Y-97906649D01*
X76442812Y-97992809D01*
X76442809Y-97992812D01*
X76356649Y-98107906D01*
X76356645Y-98107913D01*
X76306403Y-98242620D01*
X76306401Y-98242627D01*
X76300000Y-98302155D01*
X76300000Y-98950000D01*
X77216988Y-98950000D01*
X77184075Y-99007007D01*
X77150000Y-99134174D01*
X77150000Y-99265826D01*
X77184075Y-99392993D01*
X77216988Y-99450000D01*
X76300000Y-99450000D01*
X76300000Y-100097844D01*
X76306401Y-100157372D01*
X76306403Y-100157379D01*
X76356645Y-100292086D01*
X76356649Y-100292093D01*
X76442809Y-100407187D01*
X76442812Y-100407190D01*
X76557906Y-100493350D01*
X76557913Y-100493354D01*
X76692620Y-100543596D01*
X76692627Y-100543598D01*
X76752155Y-100549999D01*
X76752172Y-100550000D01*
X77400000Y-100550000D01*
X77400000Y-99633012D01*
X77457007Y-99665925D01*
X77584174Y-99700000D01*
X77715826Y-99700000D01*
X77842993Y-99665925D01*
X77900000Y-99633012D01*
X77900000Y-100550000D01*
X78547828Y-100550000D01*
X78547844Y-100549999D01*
X78607372Y-100543598D01*
X78607379Y-100543596D01*
X78724305Y-100499986D01*
X114025001Y-100499986D01*
X114035494Y-100602697D01*
X114090641Y-100769119D01*
X114090643Y-100769124D01*
X114182684Y-100918345D01*
X114306654Y-101042315D01*
X114455875Y-101134356D01*
X114455880Y-101134358D01*
X114622302Y-101189505D01*
X114622309Y-101189506D01*
X114725019Y-101199999D01*
X114874999Y-101199999D01*
X114875000Y-101199998D01*
X114875000Y-100250000D01*
X114025001Y-100250000D01*
X114025001Y-100499986D01*
X78724305Y-100499986D01*
X78742086Y-100493354D01*
X78742093Y-100493350D01*
X78857187Y-100407190D01*
X78857190Y-100407187D01*
X78943350Y-100292093D01*
X78943354Y-100292086D01*
X78993596Y-100157379D01*
X78993598Y-100157372D01*
X78999999Y-100097844D01*
X79000000Y-100097827D01*
X79000000Y-99500013D01*
X114025000Y-99500013D01*
X114025000Y-99750000D01*
X115251000Y-99750000D01*
X115318039Y-99769685D01*
X115363794Y-99822489D01*
X115375000Y-99874000D01*
X115375000Y-101199999D01*
X115524972Y-101199999D01*
X115524986Y-101199998D01*
X115627697Y-101189505D01*
X115794119Y-101134358D01*
X115794124Y-101134356D01*
X115943342Y-101042317D01*
X116036964Y-100948695D01*
X116098287Y-100915210D01*
X116167979Y-100920194D01*
X116212327Y-100948695D01*
X116306344Y-101042712D01*
X116455666Y-101134814D01*
X116622203Y-101189999D01*
X116724991Y-101200500D01*
X117525008Y-101200499D01*
X117525016Y-101200498D01*
X117525019Y-101200498D01*
X117581302Y-101194748D01*
X117627797Y-101189999D01*
X117794334Y-101134814D01*
X117943656Y-101042712D01*
X118067712Y-100918656D01*
X118159814Y-100769334D01*
X118187595Y-100685495D01*
X118227368Y-100628051D01*
X118291884Y-100601228D01*
X118305301Y-100600500D01*
X120869699Y-100600500D01*
X120936738Y-100620185D01*
X120982493Y-100672989D01*
X120987403Y-100685492D01*
X121015186Y-100769334D01*
X121107288Y-100918656D01*
X121231344Y-101042712D01*
X121380666Y-101134814D01*
X121547203Y-101189999D01*
X121649991Y-101200500D01*
X122450008Y-101200499D01*
X122450016Y-101200498D01*
X122450019Y-101200498D01*
X122506302Y-101194748D01*
X122552797Y-101189999D01*
X122719334Y-101134814D01*
X122868656Y-101042712D01*
X122962319Y-100949049D01*
X123023642Y-100915564D01*
X123093334Y-100920548D01*
X123137681Y-100949049D01*
X123231344Y-101042712D01*
X123380666Y-101134814D01*
X123547203Y-101189999D01*
X123649991Y-101200500D01*
X124450008Y-101200499D01*
X124450016Y-101200498D01*
X124450019Y-101200498D01*
X124506302Y-101194748D01*
X124552797Y-101189999D01*
X124719334Y-101134814D01*
X124868656Y-101042712D01*
X124992712Y-100918656D01*
X125084814Y-100769334D01*
X125139999Y-100602797D01*
X125150500Y-100500009D01*
X125150499Y-99499992D01*
X125139999Y-99397203D01*
X125084814Y-99230666D01*
X124992712Y-99081344D01*
X124868656Y-98957288D01*
X124719334Y-98865186D01*
X124719332Y-98865185D01*
X124713187Y-98861395D01*
X124714290Y-98859605D01*
X124669649Y-98820290D01*
X124650500Y-98754091D01*
X124650500Y-98270944D01*
X124650499Y-98270940D01*
X124645017Y-98250478D01*
X124609577Y-98118215D01*
X124575859Y-98059814D01*
X124530520Y-97981284D01*
X124418716Y-97869480D01*
X124418715Y-97869479D01*
X124414385Y-97865149D01*
X124414374Y-97865139D01*
X123486819Y-96937584D01*
X123453334Y-96876261D01*
X123450500Y-96849903D01*
X123450500Y-96682412D01*
X123470185Y-96615373D01*
X123477555Y-96605097D01*
X123479810Y-96602267D01*
X123479816Y-96602262D01*
X123575789Y-96449522D01*
X123635368Y-96279255D01*
X123637549Y-96259901D01*
X123655565Y-96100003D01*
X123655565Y-96099996D01*
X123652747Y-96074984D01*
X124799500Y-96074984D01*
X124799500Y-97425015D01*
X124810000Y-97527795D01*
X124810001Y-97527797D01*
X124811196Y-97531402D01*
X124865186Y-97694335D01*
X124865187Y-97694337D01*
X124957286Y-97843651D01*
X124957289Y-97843655D01*
X125081344Y-97967710D01*
X125081348Y-97967713D01*
X125230662Y-98059812D01*
X125230664Y-98059813D01*
X125230666Y-98059814D01*
X125397203Y-98114999D01*
X125499992Y-98125500D01*
X125499997Y-98125500D01*
X126525003Y-98125500D01*
X126525008Y-98125500D01*
X126627797Y-98114999D01*
X126794334Y-98059814D01*
X126943655Y-97967711D01*
X127067711Y-97843655D01*
X127159814Y-97694334D01*
X127214999Y-97527797D01*
X127225500Y-97425008D01*
X127225500Y-96136597D01*
X127245185Y-96069558D01*
X127297989Y-96023803D01*
X127367147Y-96013859D01*
X127430703Y-96042884D01*
X127437181Y-96048916D01*
X127738181Y-96349916D01*
X127771666Y-96411239D01*
X127774500Y-96437597D01*
X127774500Y-97425015D01*
X127785000Y-97527795D01*
X127785001Y-97527797D01*
X127786196Y-97531402D01*
X127840186Y-97694335D01*
X127840187Y-97694337D01*
X127932286Y-97843651D01*
X127932289Y-97843655D01*
X128056344Y-97967710D01*
X128056348Y-97967713D01*
X128205662Y-98059812D01*
X128205664Y-98059813D01*
X128205666Y-98059814D01*
X128372203Y-98114999D01*
X128474992Y-98125500D01*
X128474997Y-98125500D01*
X129500003Y-98125500D01*
X129500008Y-98125500D01*
X129602797Y-98114999D01*
X129769334Y-98059814D01*
X129918655Y-97967711D01*
X130042711Y-97843655D01*
X130134814Y-97694334D01*
X130189999Y-97527797D01*
X130200500Y-97425008D01*
X130200500Y-96074992D01*
X130200499Y-96074983D01*
X131049500Y-96074983D01*
X131049500Y-97425001D01*
X131049501Y-97425018D01*
X131060000Y-97527796D01*
X131060001Y-97527799D01*
X131115185Y-97694331D01*
X131115187Y-97694336D01*
X131137506Y-97730521D01*
X131207288Y-97843656D01*
X131331344Y-97967712D01*
X131480666Y-98059814D01*
X131647203Y-98114999D01*
X131749991Y-98125500D01*
X132650008Y-98125499D01*
X132650016Y-98125498D01*
X132650019Y-98125498D01*
X132721314Y-98118215D01*
X132752797Y-98114999D01*
X132919334Y-98059814D01*
X133068656Y-97967712D01*
X133192712Y-97843656D01*
X133284814Y-97694334D01*
X133339999Y-97527797D01*
X133350500Y-97425009D01*
X133350500Y-97424986D01*
X134150001Y-97424986D01*
X134160494Y-97527697D01*
X134215641Y-97694119D01*
X134215643Y-97694124D01*
X134307684Y-97843345D01*
X134431654Y-97967315D01*
X134580875Y-98059356D01*
X134580880Y-98059358D01*
X134747302Y-98114505D01*
X134747309Y-98114506D01*
X134850019Y-98124999D01*
X135049999Y-98124999D01*
X135050000Y-98124998D01*
X135050000Y-97000000D01*
X134150001Y-97000000D01*
X134150001Y-97424986D01*
X133350500Y-97424986D01*
X133350499Y-96074992D01*
X133339999Y-95972203D01*
X133284814Y-95805666D01*
X133192712Y-95656344D01*
X133068656Y-95532288D01*
X132954999Y-95462184D01*
X132919336Y-95440187D01*
X132919335Y-95440186D01*
X132919334Y-95440186D01*
X132910631Y-95437302D01*
X132885494Y-95428972D01*
X132828050Y-95389199D01*
X132801228Y-95324683D01*
X132800500Y-95311267D01*
X132800500Y-90499500D01*
X132820185Y-90432461D01*
X132872989Y-90386706D01*
X132924500Y-90375500D01*
X133275003Y-90375500D01*
X133275008Y-90375500D01*
X133377797Y-90364999D01*
X133544334Y-90309814D01*
X133693655Y-90217711D01*
X133693666Y-90217699D01*
X133698586Y-90213811D01*
X133763381Y-90187669D01*
X133832023Y-90200707D01*
X133882720Y-90248786D01*
X133899500Y-90311075D01*
X133899500Y-94067587D01*
X133879815Y-94134626D01*
X133872450Y-94144896D01*
X133870186Y-94147734D01*
X133774211Y-94300476D01*
X133714631Y-94470745D01*
X133714630Y-94470750D01*
X133694435Y-94649996D01*
X133694435Y-94650003D01*
X133714630Y-94829249D01*
X133714631Y-94829254D01*
X133774211Y-94999523D01*
X133855284Y-95128549D01*
X133870184Y-95152262D01*
X133997738Y-95279816D01*
X134150144Y-95375579D01*
X134150480Y-95375790D01*
X134288725Y-95424165D01*
X134345501Y-95464886D01*
X134371248Y-95529839D01*
X134357792Y-95598401D01*
X134335453Y-95628886D01*
X134307682Y-95656656D01*
X134215643Y-95805875D01*
X134215641Y-95805880D01*
X134160494Y-95972302D01*
X134160493Y-95972309D01*
X134150000Y-96075013D01*
X134150000Y-96500000D01*
X135050000Y-96500000D01*
X135050000Y-95375000D01*
X135550000Y-95375000D01*
X135550000Y-98124999D01*
X135749972Y-98124999D01*
X135749986Y-98124998D01*
X135852697Y-98114505D01*
X136019119Y-98059358D01*
X136019124Y-98059356D01*
X136168345Y-97967315D01*
X136292313Y-97843347D01*
X136294995Y-97839956D01*
X136352014Y-97799577D01*
X136421813Y-97796434D01*
X136479946Y-97829181D01*
X137765139Y-99114374D01*
X137765149Y-99114385D01*
X137769479Y-99118715D01*
X137769480Y-99118716D01*
X137881284Y-99230520D01*
X137881286Y-99230521D01*
X137881290Y-99230524D01*
X138018209Y-99309573D01*
X138018216Y-99309577D01*
X138130019Y-99339534D01*
X138170942Y-99350500D01*
X138170943Y-99350500D01*
X139875831Y-99350500D01*
X139875847Y-99350501D01*
X139883443Y-99350501D01*
X140041554Y-99350501D01*
X140041557Y-99350501D01*
X140194285Y-99309577D01*
X140244404Y-99280639D01*
X140331216Y-99230520D01*
X140443020Y-99118716D01*
X140443020Y-99118714D01*
X140453228Y-99108507D01*
X140453230Y-99108504D01*
X141399915Y-98161819D01*
X141461238Y-98128334D01*
X141487596Y-98125500D01*
X142475003Y-98125500D01*
X142475008Y-98125500D01*
X142577797Y-98114999D01*
X142744334Y-98059814D01*
X142893655Y-97967711D01*
X143017711Y-97843655D01*
X143109814Y-97694334D01*
X143164999Y-97527797D01*
X143175500Y-97425008D01*
X143175500Y-96074992D01*
X143164999Y-95972203D01*
X143109814Y-95805666D01*
X143109813Y-95805664D01*
X143109812Y-95805662D01*
X143017713Y-95656348D01*
X143017710Y-95656344D01*
X142893655Y-95532289D01*
X142893651Y-95532286D01*
X142744337Y-95440187D01*
X142744335Y-95440186D01*
X142643926Y-95406914D01*
X142577797Y-95385001D01*
X142577795Y-95385000D01*
X142475015Y-95374500D01*
X142475008Y-95374500D01*
X141449992Y-95374500D01*
X141449984Y-95374500D01*
X141347204Y-95385000D01*
X141347203Y-95385001D01*
X141180664Y-95440186D01*
X141180662Y-95440187D01*
X141031348Y-95532286D01*
X141031344Y-95532289D01*
X140907289Y-95656344D01*
X140907286Y-95656348D01*
X140815187Y-95805662D01*
X140815186Y-95805664D01*
X140760001Y-95972203D01*
X140760000Y-95972204D01*
X140749500Y-96074984D01*
X140749500Y-97062402D01*
X140729815Y-97129441D01*
X140713181Y-97150083D01*
X140412181Y-97451083D01*
X140350858Y-97484568D01*
X140281166Y-97479584D01*
X140225233Y-97437712D01*
X140200816Y-97372248D01*
X140200500Y-97363402D01*
X140200500Y-96074997D01*
X140200499Y-96074984D01*
X140194254Y-96013859D01*
X140189999Y-95972203D01*
X140134814Y-95805666D01*
X140134813Y-95805664D01*
X140134812Y-95805662D01*
X140042713Y-95656348D01*
X140042710Y-95656344D01*
X139918655Y-95532289D01*
X139918651Y-95532286D01*
X139769337Y-95440187D01*
X139672995Y-95408262D01*
X139615551Y-95368489D01*
X139588728Y-95303973D01*
X139588000Y-95290556D01*
X139588000Y-90398347D01*
X139607685Y-90331308D01*
X139646901Y-90292810D01*
X139768656Y-90217712D01*
X139892712Y-90093656D01*
X139984814Y-89944334D01*
X140039999Y-89777797D01*
X140050500Y-89675009D01*
X140050500Y-89674986D01*
X140850001Y-89674986D01*
X140860494Y-89777697D01*
X140915641Y-89944119D01*
X140915643Y-89944124D01*
X141007684Y-90093345D01*
X141131654Y-90217315D01*
X141280875Y-90309356D01*
X141280880Y-90309358D01*
X141447302Y-90364505D01*
X141447309Y-90364506D01*
X141550019Y-90374999D01*
X141749999Y-90374999D01*
X142250000Y-90374999D01*
X142449972Y-90374999D01*
X142449986Y-90374998D01*
X142552697Y-90364505D01*
X142719119Y-90309358D01*
X142719124Y-90309356D01*
X142868345Y-90217315D01*
X142992315Y-90093345D01*
X143084356Y-89944124D01*
X143084358Y-89944119D01*
X143139505Y-89777697D01*
X143139506Y-89777690D01*
X143149999Y-89674986D01*
X143150000Y-89674973D01*
X143150000Y-89250000D01*
X142250000Y-89250000D01*
X142250000Y-90374999D01*
X141749999Y-90374999D01*
X141750000Y-90374998D01*
X141750000Y-89250000D01*
X140850001Y-89250000D01*
X140850001Y-89674986D01*
X140050500Y-89674986D01*
X140050499Y-88325013D01*
X140850000Y-88325013D01*
X140850000Y-88750000D01*
X141750000Y-88750000D01*
X142250000Y-88750000D01*
X143149999Y-88750000D01*
X143149999Y-88325028D01*
X143149998Y-88325013D01*
X143139505Y-88222302D01*
X143084358Y-88055880D01*
X143084356Y-88055875D01*
X142992315Y-87906654D01*
X142868345Y-87782684D01*
X142719124Y-87690643D01*
X142719119Y-87690641D01*
X142552697Y-87635494D01*
X142552690Y-87635493D01*
X142449986Y-87625000D01*
X142250000Y-87625000D01*
X142250000Y-88750000D01*
X141750000Y-88750000D01*
X141750000Y-87625000D01*
X141550029Y-87625000D01*
X141550012Y-87625001D01*
X141447302Y-87635494D01*
X141280880Y-87690641D01*
X141280875Y-87690643D01*
X141131654Y-87782684D01*
X141007684Y-87906654D01*
X140915643Y-88055875D01*
X140915641Y-88055880D01*
X140860494Y-88222302D01*
X140860493Y-88222309D01*
X140850000Y-88325013D01*
X140050499Y-88325013D01*
X140050499Y-88324992D01*
X140050497Y-88324977D01*
X140039999Y-88222203D01*
X140039998Y-88222200D01*
X140022236Y-88168599D01*
X139984814Y-88055666D01*
X139892712Y-87906344D01*
X139768656Y-87782288D01*
X139619334Y-87690186D01*
X139452797Y-87635001D01*
X139452795Y-87635000D01*
X139350010Y-87624500D01*
X138449998Y-87624500D01*
X138449980Y-87624501D01*
X138347203Y-87635000D01*
X138347200Y-87635001D01*
X138180668Y-87690185D01*
X138180663Y-87690187D01*
X138031342Y-87782289D01*
X137907289Y-87906342D01*
X137815187Y-88055663D01*
X137815185Y-88055668D01*
X137787349Y-88139670D01*
X137760001Y-88222203D01*
X137760001Y-88222204D01*
X137760000Y-88222204D01*
X137749500Y-88324983D01*
X137749500Y-89675001D01*
X137749501Y-89675018D01*
X137760000Y-89777796D01*
X137760001Y-89777799D01*
X137815185Y-89944331D01*
X137815187Y-89944336D01*
X137850069Y-90000888D01*
X137907288Y-90093656D01*
X138031344Y-90217712D01*
X138180666Y-90309814D01*
X138302005Y-90350021D01*
X138359449Y-90389794D01*
X138386272Y-90454309D01*
X138387000Y-90467727D01*
X138387000Y-95290556D01*
X138367315Y-95357595D01*
X138314511Y-95403350D01*
X138302005Y-95408262D01*
X138205662Y-95440187D01*
X138056348Y-95532286D01*
X138056344Y-95532289D01*
X137932289Y-95656344D01*
X137932286Y-95656348D01*
X137840187Y-95805662D01*
X137840186Y-95805664D01*
X137785001Y-95972203D01*
X137785000Y-95972204D01*
X137774500Y-96074984D01*
X137774500Y-97125903D01*
X137754815Y-97192942D01*
X137702011Y-97238697D01*
X137632853Y-97248641D01*
X137569297Y-97219616D01*
X137562819Y-97213584D01*
X137386819Y-97037584D01*
X137353334Y-96976261D01*
X137350500Y-96949903D01*
X137350500Y-94382940D01*
X137370185Y-94315901D01*
X137386819Y-94295259D01*
X137407867Y-94274211D01*
X137429816Y-94252262D01*
X137525789Y-94099522D01*
X137585368Y-93929255D01*
X137587208Y-93912928D01*
X137605565Y-93750003D01*
X137605565Y-93749996D01*
X137585369Y-93570750D01*
X137585368Y-93570745D01*
X137563195Y-93507379D01*
X137525789Y-93400478D01*
X137429816Y-93247738D01*
X137302262Y-93120184D01*
X137149523Y-93024211D01*
X136979254Y-92964631D01*
X136979249Y-92964630D01*
X136800004Y-92944435D01*
X136799996Y-92944435D01*
X136620750Y-92964630D01*
X136620745Y-92964631D01*
X136450476Y-93024211D01*
X136297737Y-93120184D01*
X136170184Y-93247737D01*
X136074211Y-93400476D01*
X136014631Y-93570745D01*
X136014630Y-93570750D01*
X135994435Y-93749996D01*
X135994435Y-93750003D01*
X136014630Y-93929249D01*
X136014631Y-93929254D01*
X136074211Y-94099524D01*
X136130493Y-94189094D01*
X136149500Y-94255067D01*
X136149500Y-95312125D01*
X136129815Y-95379164D01*
X136077011Y-95424919D01*
X136007853Y-95434863D01*
X135986496Y-95429831D01*
X135852697Y-95385494D01*
X135852690Y-95385493D01*
X135749986Y-95375000D01*
X135550000Y-95375000D01*
X135050000Y-95375000D01*
X135050000Y-95361515D01*
X135032735Y-95329897D01*
X135037719Y-95260205D01*
X135066220Y-95215858D01*
X135088827Y-95193251D01*
X135129816Y-95152262D01*
X135225789Y-94999522D01*
X135285368Y-94829255D01*
X135285369Y-94829249D01*
X135305565Y-94650003D01*
X135305565Y-94649996D01*
X135285369Y-94470750D01*
X135285368Y-94470745D01*
X135250180Y-94370184D01*
X135225789Y-94300478D01*
X135205358Y-94267963D01*
X135163109Y-94200724D01*
X135129816Y-94147738D01*
X135129814Y-94147736D01*
X135129813Y-94147734D01*
X135127550Y-94144896D01*
X135126659Y-94142715D01*
X135126111Y-94141842D01*
X135126264Y-94141745D01*
X135101144Y-94080209D01*
X135100500Y-94067587D01*
X135100500Y-90499500D01*
X135120185Y-90432461D01*
X135172989Y-90386706D01*
X135224500Y-90375500D01*
X136250003Y-90375500D01*
X136250008Y-90375500D01*
X136352797Y-90364999D01*
X136519334Y-90309814D01*
X136668655Y-90217711D01*
X136792711Y-90093655D01*
X136884814Y-89944334D01*
X136939999Y-89777797D01*
X136950500Y-89675008D01*
X136950500Y-88324992D01*
X136939999Y-88222203D01*
X136884814Y-88055666D01*
X136884813Y-88055664D01*
X136884812Y-88055662D01*
X136792713Y-87906348D01*
X136792710Y-87906344D01*
X136668655Y-87782289D01*
X136668651Y-87782286D01*
X136519337Y-87690187D01*
X136519335Y-87690186D01*
X136436065Y-87662593D01*
X136352797Y-87635001D01*
X136352795Y-87635000D01*
X136250015Y-87624500D01*
X136250008Y-87624500D01*
X135224992Y-87624500D01*
X135224984Y-87624500D01*
X135122204Y-87635000D01*
X135122203Y-87635001D01*
X134955664Y-87690186D01*
X134955662Y-87690187D01*
X134806348Y-87782286D01*
X134806344Y-87782289D01*
X134682289Y-87906344D01*
X134682286Y-87906348D01*
X134590187Y-88055662D01*
X134590186Y-88055664D01*
X134535001Y-88222203D01*
X134535000Y-88222204D01*
X134524500Y-88324984D01*
X134524500Y-88824902D01*
X134504815Y-88891941D01*
X134488181Y-88912583D01*
X134187181Y-89213583D01*
X134125858Y-89247068D01*
X134056166Y-89242084D01*
X134000233Y-89200212D01*
X133975816Y-89134748D01*
X133975500Y-89125902D01*
X133975500Y-88324997D01*
X133975499Y-88324984D01*
X133974226Y-88312528D01*
X133964999Y-88222203D01*
X133909814Y-88055666D01*
X133909813Y-88055664D01*
X133909812Y-88055662D01*
X133817713Y-87906348D01*
X133817710Y-87906344D01*
X133693655Y-87782289D01*
X133693651Y-87782286D01*
X133544337Y-87690187D01*
X133544335Y-87690186D01*
X133461065Y-87662593D01*
X133377797Y-87635001D01*
X133377795Y-87635000D01*
X133275015Y-87624500D01*
X133275008Y-87624500D01*
X132249992Y-87624500D01*
X132249984Y-87624500D01*
X132147204Y-87635000D01*
X132147203Y-87635001D01*
X131980664Y-87690186D01*
X131980662Y-87690187D01*
X131831348Y-87782286D01*
X131831344Y-87782289D01*
X131707289Y-87906344D01*
X131707286Y-87906348D01*
X131615187Y-88055662D01*
X131615186Y-88055664D01*
X131560001Y-88222203D01*
X131560000Y-88222204D01*
X131549500Y-88324984D01*
X131549500Y-89675015D01*
X131560000Y-89777795D01*
X131593206Y-89878001D01*
X131599500Y-89917005D01*
X131599500Y-95311267D01*
X131579815Y-95378306D01*
X131527011Y-95424061D01*
X131514506Y-95428972D01*
X131480671Y-95440184D01*
X131480663Y-95440187D01*
X131331342Y-95532289D01*
X131207289Y-95656342D01*
X131115187Y-95805663D01*
X131115185Y-95805668D01*
X131111869Y-95815676D01*
X131060001Y-95972203D01*
X131060001Y-95972204D01*
X131060000Y-95972204D01*
X131049500Y-96074983D01*
X130200499Y-96074983D01*
X130189999Y-95972203D01*
X130134814Y-95805666D01*
X130134813Y-95805664D01*
X130134812Y-95805662D01*
X130042713Y-95656348D01*
X130042710Y-95656344D01*
X129918655Y-95532289D01*
X129918651Y-95532286D01*
X129769337Y-95440187D01*
X129769335Y-95440186D01*
X129668926Y-95406914D01*
X129602797Y-95385001D01*
X129602795Y-95385000D01*
X129500015Y-95374500D01*
X129500008Y-95374500D01*
X128512597Y-95374500D01*
X128445558Y-95354815D01*
X128424916Y-95338181D01*
X127621855Y-94535120D01*
X127621853Y-94535117D01*
X127502982Y-94416246D01*
X127502974Y-94416240D01*
X127401201Y-94357482D01*
X127401199Y-94357481D01*
X127366055Y-94337190D01*
X127366054Y-94337189D01*
X127353528Y-94333832D01*
X127213322Y-94296264D01*
X127213319Y-94296264D01*
X127194911Y-94296264D01*
X127127872Y-94276579D01*
X127117597Y-94269210D01*
X127114762Y-94266949D01*
X126962021Y-94170975D01*
X126791749Y-94111395D01*
X126723116Y-94103662D01*
X126658702Y-94076595D01*
X126619147Y-94019000D01*
X126613000Y-93980442D01*
X126613000Y-90442874D01*
X126632685Y-90375835D01*
X126685489Y-90330080D01*
X126697988Y-90325170D01*
X126744334Y-90309814D01*
X126893656Y-90217712D01*
X127017712Y-90093656D01*
X127109814Y-89944334D01*
X127164999Y-89777797D01*
X127175500Y-89675009D01*
X127175500Y-89674986D01*
X127975001Y-89674986D01*
X127985494Y-89777697D01*
X128040641Y-89944119D01*
X128040643Y-89944124D01*
X128132684Y-90093345D01*
X128256654Y-90217315D01*
X128405875Y-90309356D01*
X128405880Y-90309358D01*
X128572302Y-90364505D01*
X128572309Y-90364506D01*
X128675019Y-90374999D01*
X128874999Y-90374999D01*
X129375000Y-90374999D01*
X129574972Y-90374999D01*
X129574986Y-90374998D01*
X129677697Y-90364505D01*
X129844119Y-90309358D01*
X129844124Y-90309356D01*
X129993345Y-90217315D01*
X130117315Y-90093345D01*
X130209356Y-89944124D01*
X130209358Y-89944119D01*
X130264505Y-89777697D01*
X130264506Y-89777690D01*
X130274999Y-89674986D01*
X130275000Y-89674973D01*
X130275000Y-89250000D01*
X129375000Y-89250000D01*
X129375000Y-90374999D01*
X128874999Y-90374999D01*
X128875000Y-90374998D01*
X128875000Y-89250000D01*
X127975001Y-89250000D01*
X127975001Y-89674986D01*
X127175500Y-89674986D01*
X127175499Y-88325013D01*
X127975000Y-88325013D01*
X127975000Y-88750000D01*
X128875000Y-88750000D01*
X129375000Y-88750000D01*
X130274999Y-88750000D01*
X130274999Y-88325028D01*
X130274998Y-88325013D01*
X130264505Y-88222302D01*
X130209358Y-88055880D01*
X130209356Y-88055875D01*
X130117315Y-87906654D01*
X129993345Y-87782684D01*
X129844124Y-87690643D01*
X129844119Y-87690641D01*
X129677697Y-87635494D01*
X129677690Y-87635493D01*
X129574986Y-87625000D01*
X129375000Y-87625000D01*
X129375000Y-88750000D01*
X128875000Y-88750000D01*
X128875000Y-87625000D01*
X128675029Y-87625000D01*
X128675012Y-87625001D01*
X128572302Y-87635494D01*
X128405880Y-87690641D01*
X128405875Y-87690643D01*
X128256654Y-87782684D01*
X128132684Y-87906654D01*
X128040643Y-88055875D01*
X128040641Y-88055880D01*
X127985494Y-88222302D01*
X127985493Y-88222309D01*
X127975000Y-88325013D01*
X127175499Y-88325013D01*
X127175499Y-88324992D01*
X127175497Y-88324977D01*
X127164999Y-88222203D01*
X127164998Y-88222200D01*
X127147236Y-88168599D01*
X127109814Y-88055666D01*
X127017712Y-87906344D01*
X126893656Y-87782288D01*
X126744334Y-87690186D01*
X126577797Y-87635001D01*
X126577795Y-87635000D01*
X126475010Y-87624500D01*
X125574998Y-87624500D01*
X125574980Y-87624501D01*
X125472203Y-87635000D01*
X125472200Y-87635001D01*
X125305668Y-87690185D01*
X125305663Y-87690187D01*
X125156342Y-87782289D01*
X125032289Y-87906342D01*
X124940187Y-88055663D01*
X124940185Y-88055668D01*
X124912349Y-88139670D01*
X124885001Y-88222203D01*
X124885001Y-88222204D01*
X124885000Y-88222204D01*
X124874500Y-88324983D01*
X124874500Y-89675001D01*
X124874501Y-89675018D01*
X124885000Y-89777796D01*
X124885001Y-89777799D01*
X124940185Y-89944331D01*
X124940187Y-89944336D01*
X124975069Y-90000888D01*
X125032288Y-90093656D01*
X125156344Y-90217712D01*
X125305666Y-90309814D01*
X125327001Y-90316883D01*
X125384446Y-90356653D01*
X125411271Y-90421167D01*
X125412000Y-90434590D01*
X125412000Y-95290556D01*
X125392315Y-95357595D01*
X125339511Y-95403350D01*
X125327005Y-95408262D01*
X125230662Y-95440187D01*
X125081348Y-95532286D01*
X125081344Y-95532289D01*
X124957289Y-95656344D01*
X124957286Y-95656348D01*
X124865187Y-95805662D01*
X124865186Y-95805664D01*
X124810001Y-95972203D01*
X124810000Y-95972204D01*
X124799500Y-96074984D01*
X123652747Y-96074984D01*
X123635369Y-95920750D01*
X123635368Y-95920745D01*
X123595099Y-95805662D01*
X123575789Y-95750478D01*
X123554521Y-95716631D01*
X123516641Y-95656345D01*
X123479816Y-95597738D01*
X123352262Y-95470184D01*
X123304519Y-95440185D01*
X123199523Y-95374211D01*
X123029254Y-95314631D01*
X123029249Y-95314630D01*
X122850004Y-95294435D01*
X122849996Y-95294435D01*
X122670750Y-95314630D01*
X122670745Y-95314631D01*
X122500476Y-95374211D01*
X122347739Y-95470183D01*
X122252326Y-95565596D01*
X122191002Y-95599080D01*
X122121311Y-95594096D01*
X122076965Y-95565596D01*
X122043657Y-95532289D01*
X122043656Y-95532288D01*
X121929999Y-95462184D01*
X121894336Y-95440187D01*
X121894335Y-95440186D01*
X121894334Y-95440186D01*
X121885631Y-95437302D01*
X121860494Y-95428972D01*
X121803050Y-95389199D01*
X121776228Y-95324683D01*
X121775500Y-95311267D01*
X121775500Y-90480154D01*
X121795185Y-90413115D01*
X121847989Y-90367360D01*
X121860496Y-90362448D01*
X121892010Y-90352005D01*
X122019334Y-90309814D01*
X122168655Y-90217711D01*
X122292711Y-90093655D01*
X122384814Y-89944334D01*
X122439999Y-89777797D01*
X122450500Y-89675008D01*
X122450500Y-88324992D01*
X122439999Y-88222203D01*
X122384814Y-88055666D01*
X122384813Y-88055664D01*
X122384812Y-88055662D01*
X122292713Y-87906348D01*
X122292710Y-87906344D01*
X122168655Y-87782289D01*
X122168651Y-87782286D01*
X122019337Y-87690187D01*
X122019335Y-87690186D01*
X121936065Y-87662593D01*
X121852797Y-87635001D01*
X121852795Y-87635000D01*
X121750015Y-87624500D01*
X121750008Y-87624500D01*
X120724992Y-87624500D01*
X120724984Y-87624500D01*
X120622204Y-87635000D01*
X120622203Y-87635001D01*
X120455664Y-87690186D01*
X120455662Y-87690187D01*
X120306348Y-87782286D01*
X120306344Y-87782289D01*
X120182289Y-87906344D01*
X120182286Y-87906348D01*
X120090187Y-88055662D01*
X120090186Y-88055664D01*
X120035001Y-88222203D01*
X120035000Y-88222204D01*
X120024500Y-88324984D01*
X120024500Y-89675015D01*
X120035000Y-89777795D01*
X120035001Y-89777796D01*
X120090186Y-89944335D01*
X120090187Y-89944337D01*
X120182286Y-90093651D01*
X120182289Y-90093655D01*
X120306344Y-90217710D01*
X120306348Y-90217713D01*
X120455657Y-90309809D01*
X120455660Y-90309810D01*
X120455666Y-90309814D01*
X120489503Y-90321026D01*
X120546948Y-90360798D01*
X120573772Y-90425313D01*
X120574500Y-90438732D01*
X120574500Y-95311267D01*
X120554815Y-95378306D01*
X120502011Y-95424061D01*
X120489506Y-95428972D01*
X120455671Y-95440184D01*
X120455663Y-95440187D01*
X120306342Y-95532289D01*
X120182287Y-95656344D01*
X120168377Y-95678897D01*
X120116429Y-95725621D01*
X120047466Y-95736842D01*
X119983384Y-95708999D01*
X119944529Y-95650930D01*
X119943065Y-95581704D01*
X119950462Y-95554097D01*
X119950463Y-95554094D01*
X119950463Y-95388385D01*
X119950462Y-95388367D01*
X119950462Y-94649697D01*
X119970147Y-94582658D01*
X119975195Y-94575386D01*
X120010630Y-94528051D01*
X120059760Y-94462422D01*
X120110055Y-94327574D01*
X120116464Y-94267964D01*
X120116463Y-93134729D01*
X120110055Y-93075118D01*
X120068846Y-92964632D01*
X120059761Y-92940272D01*
X120059757Y-92940265D01*
X119973511Y-92825056D01*
X119973508Y-92825053D01*
X119858299Y-92738807D01*
X119858292Y-92738803D01*
X119723450Y-92688511D01*
X119723449Y-92688510D01*
X119723447Y-92688510D01*
X119663837Y-92682101D01*
X119663827Y-92682101D01*
X119036089Y-92682101D01*
X119036080Y-92682102D01*
X118990757Y-92686974D01*
X118921997Y-92674566D01*
X118893577Y-92648105D01*
X118874128Y-92706548D01*
X118846582Y-92735096D01*
X118726412Y-92825056D01*
X118640166Y-92940265D01*
X118640162Y-92940272D01*
X118589868Y-93075118D01*
X118583461Y-93134717D01*
X118583461Y-93134724D01*
X118583460Y-93134736D01*
X118583460Y-94267961D01*
X118583461Y-94267967D01*
X118589868Y-94327574D01*
X118640162Y-94462419D01*
X118640163Y-94462421D01*
X118724729Y-94575386D01*
X118749146Y-94640850D01*
X118749462Y-94649697D01*
X118749462Y-95174940D01*
X118729777Y-95241979D01*
X118713147Y-95262616D01*
X118671791Y-95303973D01*
X118635861Y-95339903D01*
X118574537Y-95373387D01*
X118535582Y-95375579D01*
X118525028Y-95374501D01*
X118525012Y-95374500D01*
X118525009Y-95374500D01*
X118525003Y-95374500D01*
X117624998Y-95374500D01*
X117624980Y-95374501D01*
X117522203Y-95385000D01*
X117522200Y-95385001D01*
X117355668Y-95440185D01*
X117355663Y-95440187D01*
X117206342Y-95532289D01*
X117082289Y-95656342D01*
X116990187Y-95805663D01*
X116990185Y-95805668D01*
X116986869Y-95815676D01*
X116935001Y-95972203D01*
X116935001Y-95972204D01*
X116935000Y-95972204D01*
X116924500Y-96074983D01*
X116924500Y-97425001D01*
X116924501Y-97425018D01*
X116935000Y-97527796D01*
X116935001Y-97527799D01*
X116990185Y-97694331D01*
X116990187Y-97694336D01*
X117012506Y-97730521D01*
X117082288Y-97843656D01*
X117206344Y-97967712D01*
X117355666Y-98059814D01*
X117522203Y-98114999D01*
X117624991Y-98125500D01*
X118525008Y-98125499D01*
X118525016Y-98125498D01*
X118525019Y-98125498D01*
X118596314Y-98118215D01*
X118627797Y-98114999D01*
X118794334Y-98059814D01*
X118943656Y-97967712D01*
X119067712Y-97843656D01*
X119159814Y-97694334D01*
X119214999Y-97527797D01*
X119225500Y-97425009D01*
X119225499Y-96500097D01*
X119245183Y-96433059D01*
X119261818Y-96412417D01*
X119514235Y-96160000D01*
X119830060Y-95844175D01*
X119891381Y-95810692D01*
X119961073Y-95815676D01*
X120017006Y-95857548D01*
X120041423Y-95923012D01*
X120036113Y-95965520D01*
X120036418Y-95965586D01*
X120035668Y-95969086D01*
X120035448Y-95970852D01*
X120035002Y-95972196D01*
X120035000Y-95972204D01*
X120024500Y-96074983D01*
X120024500Y-97425001D01*
X120024501Y-97425018D01*
X120035000Y-97527796D01*
X120035001Y-97527799D01*
X120090185Y-97694331D01*
X120090187Y-97694336D01*
X120112506Y-97730521D01*
X120182288Y-97843656D01*
X120306344Y-97967712D01*
X120455666Y-98059814D01*
X120622203Y-98114999D01*
X120724991Y-98125500D01*
X121625008Y-98125499D01*
X121625016Y-98125498D01*
X121625019Y-98125498D01*
X121696314Y-98118215D01*
X121727797Y-98114999D01*
X121894334Y-98059814D01*
X122043656Y-97967712D01*
X122167712Y-97843656D01*
X122259814Y-97694334D01*
X122267585Y-97670882D01*
X122307356Y-97613439D01*
X122371872Y-97586616D01*
X122440648Y-97598931D01*
X122472971Y-97622207D01*
X122488349Y-97637585D01*
X122488355Y-97637590D01*
X123413181Y-98562416D01*
X123446666Y-98623739D01*
X123449500Y-98650097D01*
X123449500Y-98754091D01*
X123429815Y-98821130D01*
X123385731Y-98859641D01*
X123386813Y-98861395D01*
X123380667Y-98865185D01*
X123380666Y-98865186D01*
X123282419Y-98925784D01*
X123231342Y-98957289D01*
X123137681Y-99050951D01*
X123076358Y-99084436D01*
X123006666Y-99079452D01*
X122962319Y-99050951D01*
X122868657Y-98957289D01*
X122868656Y-98957288D01*
X122719334Y-98865186D01*
X122552797Y-98810001D01*
X122552795Y-98810000D01*
X122450010Y-98799500D01*
X121649998Y-98799500D01*
X121649980Y-98799501D01*
X121547203Y-98810000D01*
X121547200Y-98810001D01*
X121380668Y-98865185D01*
X121380663Y-98865187D01*
X121231342Y-98957289D01*
X121107289Y-99081342D01*
X121015187Y-99230663D01*
X121015185Y-99230668D01*
X121015115Y-99230880D01*
X120989038Y-99309577D01*
X120987405Y-99314504D01*
X120947632Y-99371949D01*
X120883116Y-99398772D01*
X120869699Y-99399500D01*
X118305301Y-99399500D01*
X118238262Y-99379815D01*
X118192507Y-99327011D01*
X118187595Y-99314504D01*
X118159814Y-99230666D01*
X118067712Y-99081344D01*
X117943656Y-98957288D01*
X117794334Y-98865186D01*
X117627797Y-98810001D01*
X117627795Y-98810000D01*
X117525016Y-98799500D01*
X117525009Y-98799500D01*
X116825097Y-98799500D01*
X116758058Y-98779815D01*
X116737416Y-98763181D01*
X116363165Y-98388930D01*
X116329680Y-98327607D01*
X116326846Y-98301249D01*
X116326846Y-95725134D01*
X116346531Y-95658095D01*
X116363161Y-95637457D01*
X117243709Y-94756908D01*
X117305032Y-94723424D01*
X117331390Y-94720590D01*
X117763911Y-94720590D01*
X117763912Y-94720590D01*
X117823523Y-94714182D01*
X117958371Y-94663887D01*
X118073586Y-94577637D01*
X118159836Y-94462422D01*
X118210131Y-94327574D01*
X118216540Y-94267964D01*
X118216539Y-93134729D01*
X118210131Y-93075118D01*
X118168922Y-92964632D01*
X118159837Y-92940272D01*
X118159833Y-92940265D01*
X118073587Y-92825056D01*
X118073584Y-92825053D01*
X117953418Y-92735096D01*
X117911547Y-92679162D01*
X117909582Y-92651690D01*
X117848852Y-92684851D01*
X117809243Y-92686974D01*
X117763913Y-92682101D01*
X117763903Y-92682101D01*
X117136165Y-92682101D01*
X117136159Y-92682102D01*
X117076552Y-92688509D01*
X116941707Y-92738803D01*
X116941700Y-92738807D01*
X116826491Y-92825053D01*
X116826488Y-92825056D01*
X116740242Y-92940265D01*
X116740238Y-92940272D01*
X116689944Y-93075118D01*
X116683537Y-93134717D01*
X116683537Y-93134724D01*
X116683536Y-93134736D01*
X116683536Y-93567249D01*
X116663851Y-93634288D01*
X116647217Y-93654930D01*
X115357632Y-94944516D01*
X115245827Y-95056320D01*
X115245825Y-95056322D01*
X115231125Y-95081785D01*
X115216959Y-95106322D01*
X115166769Y-95193253D01*
X115125845Y-95345981D01*
X115125845Y-95345983D01*
X115125845Y-95514084D01*
X115125846Y-95514097D01*
X115125846Y-98514676D01*
X115125845Y-98514694D01*
X115125845Y-98676000D01*
X115106160Y-98743039D01*
X115053356Y-98788794D01*
X115001845Y-98800000D01*
X114725029Y-98800000D01*
X114725012Y-98800001D01*
X114622302Y-98810494D01*
X114455880Y-98865641D01*
X114455875Y-98865643D01*
X114306654Y-98957684D01*
X114182684Y-99081654D01*
X114090643Y-99230875D01*
X114090641Y-99230880D01*
X114035494Y-99397302D01*
X114035493Y-99397309D01*
X114025000Y-99500013D01*
X79000000Y-99500013D01*
X79000000Y-99450000D01*
X78083012Y-99450000D01*
X78115925Y-99392993D01*
X78150000Y-99265826D01*
X78150000Y-99134174D01*
X78115925Y-99007007D01*
X78083012Y-98950000D01*
X79000000Y-98950000D01*
X79000000Y-98599996D01*
X107394435Y-98599996D01*
X107394435Y-98600003D01*
X107414630Y-98779249D01*
X107414631Y-98779254D01*
X107474211Y-98949523D01*
X107557039Y-99081342D01*
X107570184Y-99102262D01*
X107697738Y-99229816D01*
X107850478Y-99325789D01*
X108020745Y-99385368D01*
X108020750Y-99385369D01*
X108199996Y-99405565D01*
X108200000Y-99405565D01*
X108200004Y-99405565D01*
X108379249Y-99385369D01*
X108379252Y-99385368D01*
X108379255Y-99385368D01*
X108549522Y-99325789D01*
X108702262Y-99229816D01*
X108702267Y-99229810D01*
X108705097Y-99227555D01*
X108707275Y-99226665D01*
X108708158Y-99226111D01*
X108708255Y-99226265D01*
X108769783Y-99201145D01*
X108782412Y-99200500D01*
X111488331Y-99200500D01*
X111488347Y-99200501D01*
X111495943Y-99200501D01*
X111654054Y-99200501D01*
X111654057Y-99200501D01*
X111806785Y-99159577D01*
X111877558Y-99118716D01*
X111943716Y-99080520D01*
X112055520Y-98968716D01*
X112055520Y-98968714D01*
X112065724Y-98958511D01*
X112065728Y-98958506D01*
X112862415Y-98161819D01*
X112923738Y-98128334D01*
X112950096Y-98125500D01*
X113937503Y-98125500D01*
X113937508Y-98125500D01*
X114040297Y-98114999D01*
X114206834Y-98059814D01*
X114356155Y-97967711D01*
X114480211Y-97843655D01*
X114572314Y-97694334D01*
X114627499Y-97527797D01*
X114638000Y-97425008D01*
X114638000Y-96074992D01*
X114627499Y-95972203D01*
X114572314Y-95805666D01*
X114572313Y-95805664D01*
X114572312Y-95805662D01*
X114480213Y-95656348D01*
X114480210Y-95656344D01*
X114356155Y-95532289D01*
X114356151Y-95532286D01*
X114206837Y-95440187D01*
X114206835Y-95440186D01*
X114106426Y-95406914D01*
X114040297Y-95385001D01*
X114040295Y-95385000D01*
X113937515Y-95374500D01*
X113937508Y-95374500D01*
X112912492Y-95374500D01*
X112912484Y-95374500D01*
X112809704Y-95385000D01*
X112809703Y-95385001D01*
X112643164Y-95440186D01*
X112643162Y-95440187D01*
X112493848Y-95532286D01*
X112493844Y-95532289D01*
X112369789Y-95656344D01*
X112369786Y-95656348D01*
X112277687Y-95805662D01*
X112277686Y-95805664D01*
X112222501Y-95972203D01*
X112222500Y-95972204D01*
X112212000Y-96074984D01*
X112212000Y-97062402D01*
X112192315Y-97129441D01*
X112175681Y-97150083D01*
X111874681Y-97451083D01*
X111813358Y-97484568D01*
X111743666Y-97479584D01*
X111687733Y-97437712D01*
X111663316Y-97372248D01*
X111663000Y-97363402D01*
X111663000Y-96074997D01*
X111662999Y-96074984D01*
X111656754Y-96013859D01*
X111652499Y-95972203D01*
X111597314Y-95805666D01*
X111597313Y-95805664D01*
X111597312Y-95805662D01*
X111505213Y-95656348D01*
X111505210Y-95656344D01*
X111381155Y-95532289D01*
X111381151Y-95532286D01*
X111231837Y-95440187D01*
X111135495Y-95408262D01*
X111078051Y-95368489D01*
X111051228Y-95303973D01*
X111050500Y-95290556D01*
X111050500Y-92065243D01*
X117633998Y-92065243D01*
X117640399Y-92124771D01*
X117640401Y-92124778D01*
X117690643Y-92259485D01*
X117690647Y-92259492D01*
X117776807Y-92374586D01*
X117776810Y-92374589D01*
X117896806Y-92464419D01*
X117938677Y-92520353D01*
X117940641Y-92547824D01*
X118001372Y-92514664D01*
X118040987Y-92512541D01*
X118086158Y-92517398D01*
X118086170Y-92517399D01*
X118150000Y-92517399D01*
X118650000Y-92517399D01*
X118713830Y-92517399D01*
X118713841Y-92517398D01*
X118759012Y-92512541D01*
X118827772Y-92524945D01*
X118856196Y-92551407D01*
X118875651Y-92492961D01*
X118903194Y-92464417D01*
X119023192Y-92374585D01*
X119109352Y-92259492D01*
X119109356Y-92259485D01*
X119159598Y-92124778D01*
X119159600Y-92124771D01*
X119166001Y-92065243D01*
X119166002Y-92065226D01*
X119166002Y-91748654D01*
X118650000Y-91748654D01*
X118650000Y-92517399D01*
X118150000Y-92517399D01*
X118150000Y-91748654D01*
X117633998Y-91748654D01*
X117633998Y-92065243D01*
X111050500Y-92065243D01*
X111050500Y-90362717D01*
X111070185Y-90295678D01*
X111109405Y-90257178D01*
X111193651Y-90205215D01*
X111193654Y-90205213D01*
X111193653Y-90205213D01*
X111193656Y-90205212D01*
X111317712Y-90081156D01*
X111409814Y-89931834D01*
X111464999Y-89765297D01*
X111475500Y-89662509D01*
X111475500Y-89662486D01*
X112275001Y-89662486D01*
X112285494Y-89765197D01*
X112340641Y-89931619D01*
X112340643Y-89931624D01*
X112432684Y-90080845D01*
X112556654Y-90204815D01*
X112705875Y-90296856D01*
X112705880Y-90296858D01*
X112872302Y-90352005D01*
X112872309Y-90352006D01*
X112975019Y-90362499D01*
X113174999Y-90362499D01*
X113675000Y-90362499D01*
X113874972Y-90362499D01*
X113874986Y-90362498D01*
X113977697Y-90352005D01*
X114144119Y-90296858D01*
X114144124Y-90296856D01*
X114293345Y-90204815D01*
X114417315Y-90080845D01*
X114509356Y-89931624D01*
X114509358Y-89931619D01*
X114564505Y-89765197D01*
X114564506Y-89765190D01*
X114574999Y-89662486D01*
X114575000Y-89662473D01*
X114575000Y-89237500D01*
X113675000Y-89237500D01*
X113675000Y-90362499D01*
X113174999Y-90362499D01*
X113175000Y-90362498D01*
X113175000Y-89237500D01*
X112275001Y-89237500D01*
X112275001Y-89662486D01*
X111475500Y-89662486D01*
X111475499Y-88312513D01*
X112275000Y-88312513D01*
X112275000Y-88737500D01*
X113175000Y-88737500D01*
X113675000Y-88737500D01*
X114574999Y-88737500D01*
X114574999Y-88312528D01*
X114574998Y-88312513D01*
X114564505Y-88209802D01*
X114509358Y-88043380D01*
X114509356Y-88043375D01*
X114417315Y-87894154D01*
X114293345Y-87770184D01*
X114144124Y-87678143D01*
X114144119Y-87678141D01*
X113977697Y-87622994D01*
X113977690Y-87622993D01*
X113874986Y-87612500D01*
X113675000Y-87612500D01*
X113675000Y-88737500D01*
X113175000Y-88737500D01*
X113175000Y-87612500D01*
X112975029Y-87612500D01*
X112975012Y-87612501D01*
X112872302Y-87622994D01*
X112705880Y-87678141D01*
X112705875Y-87678143D01*
X112556654Y-87770184D01*
X112432684Y-87894154D01*
X112340643Y-88043375D01*
X112340641Y-88043380D01*
X112285494Y-88209802D01*
X112285493Y-88209809D01*
X112275000Y-88312513D01*
X111475499Y-88312513D01*
X111475499Y-88312492D01*
X111472999Y-88288023D01*
X111464999Y-88209703D01*
X111464998Y-88209700D01*
X111414027Y-88055881D01*
X111409814Y-88043166D01*
X111317712Y-87893844D01*
X111193656Y-87769788D01*
X111064605Y-87690189D01*
X111044336Y-87677687D01*
X111044331Y-87677685D01*
X111016386Y-87668425D01*
X110877797Y-87622501D01*
X110877795Y-87622500D01*
X110775010Y-87612000D01*
X109874998Y-87612000D01*
X109874980Y-87612001D01*
X109772203Y-87622500D01*
X109772200Y-87622501D01*
X109605668Y-87677685D01*
X109605663Y-87677687D01*
X109456342Y-87769789D01*
X109332289Y-87893842D01*
X109240187Y-88043163D01*
X109240185Y-88043168D01*
X109212349Y-88127170D01*
X109185001Y-88209703D01*
X109185001Y-88209704D01*
X109185000Y-88209704D01*
X109174500Y-88312483D01*
X109174500Y-89662501D01*
X109174501Y-89662518D01*
X109185000Y-89765296D01*
X109185001Y-89765299D01*
X109240185Y-89931831D01*
X109240187Y-89931836D01*
X109275069Y-89988388D01*
X109332288Y-90081156D01*
X109456344Y-90205212D01*
X109605666Y-90297314D01*
X109680912Y-90322248D01*
X109764504Y-90349948D01*
X109821949Y-90389721D01*
X109848772Y-90454237D01*
X109849500Y-90467654D01*
X109849500Y-95290556D01*
X109829815Y-95357595D01*
X109777011Y-95403350D01*
X109764505Y-95408262D01*
X109668162Y-95440187D01*
X109518848Y-95532286D01*
X109518844Y-95532289D01*
X109394789Y-95656344D01*
X109394786Y-95656348D01*
X109302687Y-95805662D01*
X109302686Y-95805664D01*
X109247501Y-95972203D01*
X109247500Y-95972204D01*
X109237000Y-96074984D01*
X109237000Y-97425015D01*
X109247500Y-97527795D01*
X109247501Y-97527797D01*
X109248696Y-97531402D01*
X109302686Y-97694335D01*
X109302687Y-97694337D01*
X109374278Y-97810403D01*
X109392719Y-97877795D01*
X109371797Y-97944459D01*
X109318155Y-97989229D01*
X109268740Y-97999500D01*
X108782412Y-97999500D01*
X108715373Y-97979815D01*
X108705097Y-97972445D01*
X108702263Y-97970185D01*
X108702262Y-97970184D01*
X108600439Y-97906204D01*
X108549523Y-97874211D01*
X108379254Y-97814631D01*
X108379249Y-97814630D01*
X108200004Y-97794435D01*
X108199996Y-97794435D01*
X108020750Y-97814630D01*
X108020745Y-97814631D01*
X107850476Y-97874211D01*
X107697737Y-97970184D01*
X107570184Y-98097737D01*
X107474211Y-98250476D01*
X107414631Y-98420745D01*
X107414630Y-98420750D01*
X107394435Y-98599996D01*
X79000000Y-98599996D01*
X79000000Y-98302172D01*
X78999999Y-98302155D01*
X78993598Y-98242627D01*
X78993596Y-98242620D01*
X78943354Y-98107913D01*
X78943350Y-98107906D01*
X78857190Y-97992812D01*
X78857187Y-97992809D01*
X78742093Y-97906649D01*
X78742088Y-97906646D01*
X78610528Y-97857577D01*
X78554595Y-97815705D01*
X78530178Y-97750241D01*
X78545030Y-97681968D01*
X78566175Y-97653720D01*
X78688495Y-97531401D01*
X78824035Y-97337830D01*
X78923903Y-97123663D01*
X78985063Y-96895408D01*
X79005659Y-96660000D01*
X78985063Y-96424592D01*
X78950671Y-96296239D01*
X78952334Y-96226393D01*
X78982763Y-96176470D01*
X79084250Y-96074983D01*
X82799500Y-96074983D01*
X82799500Y-97425001D01*
X82799501Y-97425018D01*
X82810000Y-97527796D01*
X82810001Y-97527799D01*
X82865185Y-97694331D01*
X82865187Y-97694336D01*
X82887506Y-97730521D01*
X82957288Y-97843656D01*
X83081344Y-97967712D01*
X83230666Y-98059814D01*
X83397203Y-98114999D01*
X83499991Y-98125500D01*
X84400008Y-98125499D01*
X84400016Y-98125498D01*
X84400019Y-98125498D01*
X84471314Y-98118215D01*
X84502797Y-98114999D01*
X84669334Y-98059814D01*
X84818656Y-97967712D01*
X84942712Y-97843656D01*
X85034814Y-97694334D01*
X85089999Y-97527797D01*
X85100500Y-97425009D01*
X85100499Y-96074992D01*
X85100498Y-96074983D01*
X85899500Y-96074983D01*
X85899500Y-97425001D01*
X85899501Y-97425018D01*
X85910000Y-97527796D01*
X85910001Y-97527799D01*
X85965185Y-97694331D01*
X85965187Y-97694336D01*
X85987506Y-97730521D01*
X86057288Y-97843656D01*
X86181344Y-97967712D01*
X86330666Y-98059814D01*
X86497203Y-98114999D01*
X86599991Y-98125500D01*
X87500008Y-98125499D01*
X87500016Y-98125498D01*
X87500019Y-98125498D01*
X87571314Y-98118215D01*
X87602797Y-98114999D01*
X87769334Y-98059814D01*
X87918656Y-97967712D01*
X88042712Y-97843656D01*
X88134814Y-97694334D01*
X88189999Y-97527797D01*
X88200500Y-97425009D01*
X88200499Y-96074992D01*
X88200498Y-96074984D01*
X90874500Y-96074984D01*
X90874500Y-97425015D01*
X90885000Y-97527795D01*
X90885001Y-97527797D01*
X90886196Y-97531402D01*
X90940186Y-97694335D01*
X90940187Y-97694337D01*
X91032286Y-97843651D01*
X91032289Y-97843655D01*
X91156344Y-97967710D01*
X91156348Y-97967713D01*
X91305662Y-98059812D01*
X91305664Y-98059813D01*
X91305666Y-98059814D01*
X91472203Y-98114999D01*
X91574992Y-98125500D01*
X91574997Y-98125500D01*
X92600003Y-98125500D01*
X92600008Y-98125500D01*
X92702797Y-98114999D01*
X92869334Y-98059814D01*
X93018655Y-97967711D01*
X93142711Y-97843655D01*
X93234814Y-97694334D01*
X93289999Y-97527797D01*
X93300500Y-97425008D01*
X93300500Y-96074992D01*
X93300499Y-96074984D01*
X93849500Y-96074984D01*
X93849500Y-97425015D01*
X93860000Y-97527795D01*
X93860001Y-97527797D01*
X93861196Y-97531402D01*
X93915186Y-97694335D01*
X93915187Y-97694337D01*
X94007286Y-97843651D01*
X94007289Y-97843655D01*
X94131344Y-97967710D01*
X94131348Y-97967713D01*
X94280662Y-98059812D01*
X94280664Y-98059813D01*
X94280666Y-98059814D01*
X94447203Y-98114999D01*
X94549992Y-98125500D01*
X94549997Y-98125500D01*
X95575003Y-98125500D01*
X95575008Y-98125500D01*
X95677797Y-98114999D01*
X95844334Y-98059814D01*
X95993655Y-97967711D01*
X96117711Y-97843655D01*
X96209814Y-97694334D01*
X96264999Y-97527797D01*
X96275500Y-97425008D01*
X96275500Y-96074992D01*
X96264999Y-95972203D01*
X96209814Y-95805666D01*
X96209813Y-95805664D01*
X96209812Y-95805662D01*
X96117713Y-95656348D01*
X96117710Y-95656344D01*
X95993655Y-95532289D01*
X95993651Y-95532286D01*
X95844337Y-95440187D01*
X95747995Y-95408262D01*
X95690551Y-95368489D01*
X95663728Y-95303973D01*
X95663000Y-95290556D01*
X95663000Y-93249996D01*
X97394435Y-93249996D01*
X97394435Y-93250003D01*
X97414630Y-93429249D01*
X97414631Y-93429254D01*
X97474211Y-93599523D01*
X97557789Y-93732535D01*
X97570184Y-93752262D01*
X97697738Y-93879816D01*
X97850478Y-93975789D01*
X97915457Y-93998526D01*
X98020745Y-94035368D01*
X98020750Y-94035369D01*
X98199996Y-94055565D01*
X98200000Y-94055565D01*
X98200004Y-94055565D01*
X98379249Y-94035369D01*
X98379251Y-94035368D01*
X98379255Y-94035368D01*
X98379258Y-94035366D01*
X98379262Y-94035366D01*
X98484545Y-93998526D01*
X98554324Y-93994964D01*
X98614951Y-94029692D01*
X98647179Y-94091686D01*
X98649500Y-94115567D01*
X98649500Y-94763330D01*
X98649499Y-94763348D01*
X98649499Y-94929054D01*
X98649498Y-94929054D01*
X98690424Y-95081789D01*
X98690425Y-95081790D01*
X98717422Y-95128549D01*
X98717423Y-95128550D01*
X98754778Y-95193251D01*
X98769479Y-95218714D01*
X98769481Y-95218717D01*
X98888349Y-95337585D01*
X98888355Y-95337590D01*
X99963181Y-96412416D01*
X99996666Y-96473739D01*
X99999500Y-96500097D01*
X99999500Y-97425001D01*
X99999501Y-97425019D01*
X100010000Y-97527796D01*
X100010001Y-97527799D01*
X100065185Y-97694331D01*
X100065187Y-97694336D01*
X100087506Y-97730521D01*
X100157288Y-97843656D01*
X100281344Y-97967712D01*
X100430666Y-98059814D01*
X100597203Y-98114999D01*
X100699991Y-98125500D01*
X101600008Y-98125499D01*
X101600016Y-98125498D01*
X101600019Y-98125498D01*
X101671314Y-98118215D01*
X101702797Y-98114999D01*
X101869334Y-98059814D01*
X102018656Y-97967712D01*
X102142712Y-97843656D01*
X102234814Y-97694334D01*
X102289999Y-97527797D01*
X102300500Y-97425009D01*
X102300499Y-96074992D01*
X102300498Y-96074983D01*
X103099500Y-96074983D01*
X103099500Y-97425001D01*
X103099501Y-97425018D01*
X103110000Y-97527796D01*
X103110001Y-97527799D01*
X103165185Y-97694331D01*
X103165187Y-97694336D01*
X103187506Y-97730521D01*
X103257288Y-97843656D01*
X103381344Y-97967712D01*
X103530666Y-98059814D01*
X103697203Y-98114999D01*
X103799991Y-98125500D01*
X104700008Y-98125499D01*
X104700016Y-98125498D01*
X104700019Y-98125498D01*
X104771314Y-98118215D01*
X104802797Y-98114999D01*
X104969334Y-98059814D01*
X105118656Y-97967712D01*
X105242712Y-97843656D01*
X105334814Y-97694334D01*
X105389999Y-97527797D01*
X105400500Y-97425009D01*
X105400499Y-96074992D01*
X105389999Y-95972203D01*
X105334814Y-95805666D01*
X105242712Y-95656344D01*
X105118656Y-95532288D01*
X105004999Y-95462184D01*
X104969336Y-95440187D01*
X104969335Y-95440186D01*
X104969334Y-95440186D01*
X104960631Y-95437302D01*
X104935494Y-95428972D01*
X104878050Y-95389199D01*
X104851228Y-95324683D01*
X104850500Y-95311267D01*
X104850500Y-93979967D01*
X104870185Y-93912928D01*
X104922989Y-93867173D01*
X104931153Y-93863790D01*
X104984743Y-93843803D01*
X105099958Y-93757553D01*
X105186208Y-93642338D01*
X105236503Y-93507490D01*
X105242912Y-93447880D01*
X105242911Y-92202121D01*
X105236503Y-92142510D01*
X105229889Y-92124778D01*
X105186209Y-92007664D01*
X105186205Y-92007657D01*
X105099959Y-91892448D01*
X105099956Y-91892445D01*
X104984747Y-91806199D01*
X104984740Y-91806195D01*
X104849894Y-91755901D01*
X104849895Y-91755901D01*
X104790295Y-91749494D01*
X104790293Y-91749493D01*
X104790285Y-91749493D01*
X104790276Y-91749493D01*
X103744527Y-91749493D01*
X103744521Y-91749494D01*
X103684914Y-91755901D01*
X103550069Y-91806195D01*
X103550062Y-91806199D01*
X103434853Y-91892445D01*
X103434850Y-91892448D01*
X103348604Y-92007657D01*
X103348600Y-92007664D01*
X103298306Y-92142510D01*
X103291899Y-92202109D01*
X103291899Y-92202116D01*
X103291898Y-92202128D01*
X103291898Y-93447877D01*
X103291899Y-93447883D01*
X103298306Y-93507490D01*
X103348600Y-93642335D01*
X103348604Y-93642342D01*
X103434850Y-93757551D01*
X103434853Y-93757554D01*
X103550062Y-93843800D01*
X103550069Y-93843804D01*
X103568830Y-93850801D01*
X103624765Y-93892671D01*
X103649184Y-93958135D01*
X103649500Y-93966984D01*
X103649500Y-95311267D01*
X103629815Y-95378306D01*
X103577011Y-95424061D01*
X103564506Y-95428972D01*
X103530671Y-95440184D01*
X103530663Y-95440187D01*
X103381342Y-95532289D01*
X103257289Y-95656342D01*
X103165187Y-95805663D01*
X103165185Y-95805668D01*
X103161869Y-95815676D01*
X103110001Y-95972203D01*
X103110001Y-95972204D01*
X103110000Y-95972204D01*
X103099500Y-96074983D01*
X102300498Y-96074983D01*
X102289999Y-95972203D01*
X102234814Y-95805666D01*
X102142712Y-95656344D01*
X102018656Y-95532288D01*
X101904999Y-95462184D01*
X101869336Y-95440187D01*
X101869331Y-95440185D01*
X101853270Y-95434863D01*
X101702797Y-95385001D01*
X101702795Y-95385000D01*
X101600010Y-95374500D01*
X100699999Y-95374500D01*
X100699985Y-95374501D01*
X100689415Y-95375581D01*
X100620723Y-95362807D01*
X100589139Y-95339903D01*
X99886819Y-94637583D01*
X99853334Y-94576260D01*
X99850500Y-94549902D01*
X99850500Y-93855273D01*
X99870185Y-93788234D01*
X99922989Y-93742479D01*
X99992147Y-93732535D01*
X100048812Y-93756007D01*
X100165498Y-93843359D01*
X100165501Y-93843361D01*
X100300208Y-93893603D01*
X100300215Y-93893605D01*
X100359743Y-93900006D01*
X100359760Y-93900007D01*
X100632595Y-93900007D01*
X101132595Y-93900007D01*
X101405430Y-93900007D01*
X101405446Y-93900006D01*
X101464974Y-93893605D01*
X101464981Y-93893603D01*
X101599688Y-93843361D01*
X101599695Y-93843357D01*
X101714789Y-93757197D01*
X101714792Y-93757194D01*
X101800952Y-93642100D01*
X101800956Y-93642093D01*
X101851198Y-93507386D01*
X101851200Y-93507379D01*
X101857601Y-93447851D01*
X101857602Y-93447834D01*
X101857602Y-93075000D01*
X101132595Y-93075000D01*
X101132595Y-93900007D01*
X100632595Y-93900007D01*
X100632595Y-92575000D01*
X101132595Y-92575000D01*
X101857602Y-92575000D01*
X101857602Y-92202165D01*
X101857601Y-92202148D01*
X101851200Y-92142620D01*
X101851198Y-92142613D01*
X101800956Y-92007906D01*
X101800952Y-92007899D01*
X101714792Y-91892805D01*
X101714789Y-91892802D01*
X101599695Y-91806642D01*
X101599688Y-91806638D01*
X101464981Y-91756396D01*
X101464974Y-91756394D01*
X101405446Y-91749993D01*
X101132595Y-91749993D01*
X101132595Y-92575000D01*
X100632595Y-92575000D01*
X100632595Y-91749993D01*
X100359743Y-91749993D01*
X100300215Y-91756394D01*
X100300208Y-91756396D01*
X100165501Y-91806638D01*
X100165499Y-91806639D01*
X100048811Y-91893993D01*
X99983347Y-91918410D01*
X99915074Y-91903559D01*
X99865668Y-91854154D01*
X99850500Y-91794726D01*
X99850500Y-91312596D01*
X99870185Y-91245557D01*
X99886815Y-91224919D01*
X100699915Y-90411818D01*
X100761238Y-90378334D01*
X100787596Y-90375500D01*
X101775003Y-90375500D01*
X101775008Y-90375500D01*
X101877797Y-90364999D01*
X102044334Y-90309814D01*
X102193655Y-90217711D01*
X102317711Y-90093655D01*
X102409814Y-89944334D01*
X102464999Y-89777797D01*
X102475500Y-89675008D01*
X102475500Y-88386597D01*
X102495185Y-88319558D01*
X102547989Y-88273803D01*
X102617147Y-88263859D01*
X102680703Y-88292884D01*
X102687181Y-88298916D01*
X102988181Y-88599916D01*
X103021666Y-88661239D01*
X103024500Y-88687597D01*
X103024500Y-89675015D01*
X103035000Y-89777795D01*
X103035001Y-89777796D01*
X103090186Y-89944335D01*
X103090187Y-89944337D01*
X103182286Y-90093651D01*
X103182289Y-90093655D01*
X103306344Y-90217710D01*
X103306348Y-90217713D01*
X103455662Y-90309812D01*
X103455664Y-90309813D01*
X103455666Y-90309814D01*
X103622203Y-90364999D01*
X103724992Y-90375500D01*
X103724997Y-90375500D01*
X104750003Y-90375500D01*
X104750008Y-90375500D01*
X104852797Y-90364999D01*
X105019334Y-90309814D01*
X105168655Y-90217711D01*
X105292711Y-90093655D01*
X105384814Y-89944334D01*
X105439999Y-89777797D01*
X105450500Y-89675008D01*
X105450500Y-88324992D01*
X105439999Y-88222203D01*
X105384814Y-88055666D01*
X105384813Y-88055664D01*
X105384812Y-88055662D01*
X105292713Y-87906348D01*
X105292710Y-87906344D01*
X105168655Y-87782289D01*
X105168651Y-87782286D01*
X105019337Y-87690187D01*
X105019335Y-87690186D01*
X104936065Y-87662593D01*
X104852797Y-87635001D01*
X104852795Y-87635000D01*
X104750015Y-87624500D01*
X104750008Y-87624500D01*
X103762597Y-87624500D01*
X103695558Y-87604815D01*
X103674916Y-87588181D01*
X102725090Y-86638355D01*
X102725088Y-86638352D01*
X102606217Y-86519481D01*
X102606216Y-86519480D01*
X102519404Y-86469360D01*
X102519404Y-86469359D01*
X102519400Y-86469358D01*
X102469285Y-86440423D01*
X102316557Y-86399499D01*
X102158443Y-86399499D01*
X102150847Y-86399499D01*
X102150831Y-86399500D01*
X100279057Y-86399500D01*
X100120943Y-86399500D01*
X99968215Y-86440423D01*
X99968214Y-86440423D01*
X99968212Y-86440424D01*
X99968209Y-86440425D01*
X99918096Y-86469359D01*
X99918095Y-86469360D01*
X99874689Y-86494420D01*
X99831285Y-86519479D01*
X99831282Y-86519481D01*
X97719481Y-88631282D01*
X97719479Y-88631285D01*
X97702186Y-88661239D01*
X97683396Y-88693784D01*
X97640423Y-88768215D01*
X97599499Y-88920943D01*
X97599499Y-88920945D01*
X97599499Y-89089046D01*
X97599500Y-89089059D01*
X97599500Y-92667587D01*
X97579815Y-92734626D01*
X97572450Y-92744896D01*
X97570186Y-92747734D01*
X97474211Y-92900476D01*
X97414631Y-93070745D01*
X97414630Y-93070750D01*
X97394435Y-93249996D01*
X95663000Y-93249996D01*
X95663000Y-90499499D01*
X95682685Y-90432460D01*
X95735489Y-90386705D01*
X95787000Y-90375499D01*
X95825002Y-90375499D01*
X95825008Y-90375499D01*
X95927797Y-90364999D01*
X96094334Y-90309814D01*
X96243656Y-90217712D01*
X96367712Y-90093656D01*
X96459814Y-89944334D01*
X96514999Y-89777797D01*
X96525500Y-89675009D01*
X96525499Y-88324992D01*
X96525497Y-88324977D01*
X96514999Y-88222203D01*
X96514998Y-88222200D01*
X96497236Y-88168599D01*
X96459814Y-88055666D01*
X96367712Y-87906344D01*
X96243656Y-87782288D01*
X96094334Y-87690186D01*
X95927797Y-87635001D01*
X95927795Y-87635000D01*
X95825010Y-87624500D01*
X94924998Y-87624500D01*
X94924980Y-87624501D01*
X94822203Y-87635000D01*
X94822200Y-87635001D01*
X94655668Y-87690185D01*
X94655663Y-87690187D01*
X94506342Y-87782289D01*
X94382289Y-87906342D01*
X94290187Y-88055663D01*
X94290185Y-88055668D01*
X94262349Y-88139670D01*
X94235001Y-88222203D01*
X94235001Y-88222204D01*
X94235000Y-88222204D01*
X94224500Y-88324983D01*
X94224500Y-89675001D01*
X94224501Y-89675018D01*
X94235000Y-89777796D01*
X94235001Y-89777799D01*
X94290185Y-89944331D01*
X94290187Y-89944336D01*
X94325069Y-90000888D01*
X94382287Y-90093655D01*
X94382289Y-90093657D01*
X94425681Y-90137049D01*
X94459166Y-90198372D01*
X94462000Y-90224730D01*
X94462000Y-95290556D01*
X94442315Y-95357595D01*
X94389511Y-95403350D01*
X94377005Y-95408262D01*
X94280662Y-95440187D01*
X94131348Y-95532286D01*
X94131344Y-95532289D01*
X94007289Y-95656344D01*
X94007286Y-95656348D01*
X93915187Y-95805662D01*
X93915186Y-95805664D01*
X93860001Y-95972203D01*
X93860000Y-95972204D01*
X93849500Y-96074984D01*
X93300499Y-96074984D01*
X93289999Y-95972203D01*
X93234814Y-95805666D01*
X93234813Y-95805664D01*
X93234812Y-95805662D01*
X93142713Y-95656348D01*
X93142710Y-95656344D01*
X93018655Y-95532289D01*
X93018651Y-95532286D01*
X93011417Y-95527824D01*
X92964692Y-95475876D01*
X92953471Y-95406914D01*
X92971519Y-95356316D01*
X92975789Y-95349522D01*
X93035368Y-95179255D01*
X93035369Y-95179246D01*
X93055565Y-95000003D01*
X93055565Y-94999996D01*
X93035369Y-94820750D01*
X93035368Y-94820745D01*
X93027350Y-94797830D01*
X92975789Y-94650478D01*
X92975298Y-94649697D01*
X92929155Y-94576260D01*
X92879816Y-94497738D01*
X92752262Y-94370184D01*
X92728738Y-94355403D01*
X92599523Y-94274211D01*
X92429254Y-94214631D01*
X92429249Y-94214630D01*
X92250004Y-94194435D01*
X92249996Y-94194435D01*
X92070750Y-94214630D01*
X92070745Y-94214631D01*
X91900476Y-94274211D01*
X91747737Y-94370184D01*
X91620184Y-94497737D01*
X91524211Y-94650476D01*
X91464631Y-94820745D01*
X91464630Y-94820750D01*
X91444435Y-94999996D01*
X91444435Y-95000003D01*
X91464630Y-95179246D01*
X91464632Y-95179255D01*
X91480042Y-95223295D01*
X91487000Y-95264248D01*
X91487000Y-95290556D01*
X91467315Y-95357595D01*
X91414511Y-95403350D01*
X91402005Y-95408262D01*
X91305662Y-95440187D01*
X91156348Y-95532286D01*
X91156344Y-95532289D01*
X91032289Y-95656344D01*
X91032286Y-95656348D01*
X90940187Y-95805662D01*
X90940186Y-95805664D01*
X90885001Y-95972203D01*
X90885000Y-95972204D01*
X90874500Y-96074984D01*
X88200498Y-96074984D01*
X88189999Y-95972203D01*
X88134814Y-95805666D01*
X88042712Y-95656344D01*
X87918656Y-95532288D01*
X87804999Y-95462184D01*
X87769336Y-95440187D01*
X87769335Y-95440186D01*
X87769334Y-95440186D01*
X87760631Y-95437302D01*
X87735494Y-95428972D01*
X87678050Y-95389199D01*
X87651228Y-95324683D01*
X87650500Y-95311267D01*
X87650500Y-95220945D01*
X87650500Y-95220943D01*
X87649903Y-95218716D01*
X87609577Y-95068215D01*
X87565228Y-94991401D01*
X87564929Y-94990884D01*
X87549121Y-94942809D01*
X87535369Y-94820749D01*
X87535368Y-94820745D01*
X87527350Y-94797830D01*
X87475789Y-94650478D01*
X87475298Y-94649697D01*
X87429155Y-94576260D01*
X87379816Y-94497738D01*
X87252262Y-94370184D01*
X87228738Y-94355403D01*
X87099523Y-94274211D01*
X86929254Y-94214631D01*
X86929249Y-94214630D01*
X86750004Y-94194435D01*
X86749996Y-94194435D01*
X86570750Y-94214630D01*
X86570745Y-94214631D01*
X86400476Y-94274211D01*
X86247737Y-94370184D01*
X86120184Y-94497737D01*
X86024211Y-94650476D01*
X85964631Y-94820745D01*
X85964630Y-94820750D01*
X85944435Y-94999996D01*
X85944435Y-95000003D01*
X85964630Y-95179249D01*
X85964631Y-95179254D01*
X86024211Y-95349524D01*
X86090527Y-95455063D01*
X86100027Y-95470183D01*
X86102759Y-95474530D01*
X86121760Y-95541767D01*
X86101393Y-95608602D01*
X86085449Y-95628183D01*
X86057287Y-95656344D01*
X85965187Y-95805663D01*
X85965185Y-95805668D01*
X85961869Y-95815676D01*
X85910001Y-95972203D01*
X85910001Y-95972204D01*
X85910000Y-95972204D01*
X85899500Y-96074983D01*
X85100498Y-96074983D01*
X85089999Y-95972203D01*
X85034814Y-95805666D01*
X84942712Y-95656344D01*
X84818656Y-95532288D01*
X84704999Y-95462184D01*
X84669336Y-95440187D01*
X84669335Y-95440186D01*
X84669334Y-95440186D01*
X84660631Y-95437302D01*
X84635494Y-95428972D01*
X84578050Y-95389199D01*
X84551228Y-95324683D01*
X84550500Y-95311267D01*
X84550500Y-92282596D01*
X84570185Y-92215557D01*
X84586814Y-92194920D01*
X86369915Y-90411818D01*
X86431238Y-90378334D01*
X86457596Y-90375500D01*
X87445003Y-90375500D01*
X87445008Y-90375500D01*
X87547797Y-90364999D01*
X87714334Y-90309814D01*
X87863655Y-90217711D01*
X87987711Y-90093655D01*
X88079814Y-89944334D01*
X88134999Y-89777797D01*
X88145500Y-89675008D01*
X88145500Y-89674986D01*
X91125001Y-89674986D01*
X91135494Y-89777697D01*
X91190641Y-89944119D01*
X91190643Y-89944124D01*
X91282684Y-90093345D01*
X91406654Y-90217315D01*
X91555875Y-90309356D01*
X91555880Y-90309358D01*
X91722302Y-90364505D01*
X91722309Y-90364506D01*
X91825019Y-90374999D01*
X92024999Y-90374999D01*
X92525000Y-90374999D01*
X92724972Y-90374999D01*
X92724986Y-90374998D01*
X92827697Y-90364505D01*
X92994119Y-90309358D01*
X92994124Y-90309356D01*
X93143345Y-90217315D01*
X93267315Y-90093345D01*
X93359356Y-89944124D01*
X93359358Y-89944119D01*
X93414505Y-89777697D01*
X93414506Y-89777690D01*
X93424999Y-89674986D01*
X93425000Y-89674973D01*
X93425000Y-89250000D01*
X92525000Y-89250000D01*
X92525000Y-90374999D01*
X92024999Y-90374999D01*
X92025000Y-90374998D01*
X92025000Y-89250000D01*
X91125001Y-89250000D01*
X91125001Y-89674986D01*
X88145500Y-89674986D01*
X88145500Y-88325013D01*
X91125000Y-88325013D01*
X91125000Y-88750000D01*
X92025000Y-88750000D01*
X92525000Y-88750000D01*
X93424999Y-88750000D01*
X93424999Y-88325028D01*
X93424998Y-88325013D01*
X93414505Y-88222302D01*
X93359358Y-88055880D01*
X93359356Y-88055875D01*
X93267315Y-87906654D01*
X93143345Y-87782684D01*
X92994124Y-87690643D01*
X92994119Y-87690641D01*
X92827697Y-87635494D01*
X92827690Y-87635493D01*
X92724986Y-87625000D01*
X92525000Y-87625000D01*
X92525000Y-88750000D01*
X92025000Y-88750000D01*
X92025000Y-87625000D01*
X91825029Y-87625000D01*
X91825012Y-87625001D01*
X91722302Y-87635494D01*
X91555880Y-87690641D01*
X91555875Y-87690643D01*
X91406654Y-87782684D01*
X91282684Y-87906654D01*
X91190643Y-88055875D01*
X91190641Y-88055880D01*
X91135494Y-88222302D01*
X91135493Y-88222309D01*
X91125000Y-88325013D01*
X88145500Y-88325013D01*
X88145500Y-88324992D01*
X88134999Y-88222203D01*
X88079814Y-88055666D01*
X88079813Y-88055664D01*
X88079812Y-88055662D01*
X87987713Y-87906348D01*
X87987710Y-87906344D01*
X87863655Y-87782289D01*
X87863651Y-87782286D01*
X87714337Y-87690187D01*
X87714335Y-87690186D01*
X87631065Y-87662593D01*
X87547797Y-87635001D01*
X87547795Y-87635000D01*
X87445015Y-87624500D01*
X87445008Y-87624500D01*
X86419992Y-87624500D01*
X86419984Y-87624500D01*
X86317204Y-87635000D01*
X86317203Y-87635001D01*
X86150664Y-87690186D01*
X86150662Y-87690187D01*
X86001348Y-87782286D01*
X86001344Y-87782289D01*
X85877289Y-87906344D01*
X85877286Y-87906348D01*
X85785187Y-88055662D01*
X85785186Y-88055664D01*
X85730001Y-88222203D01*
X85730000Y-88222204D01*
X85719500Y-88324984D01*
X85719500Y-89312402D01*
X85699815Y-89379441D01*
X85683181Y-89400083D01*
X85381681Y-89701583D01*
X85320358Y-89735068D01*
X85250666Y-89730084D01*
X85194733Y-89688212D01*
X85170316Y-89622748D01*
X85170000Y-89613902D01*
X85170000Y-89250000D01*
X84207500Y-89250000D01*
X84207500Y-90375000D01*
X84408901Y-90375000D01*
X84475940Y-90394685D01*
X84521695Y-90447489D01*
X84531639Y-90516647D01*
X84502614Y-90580203D01*
X84496582Y-90586681D01*
X83581286Y-91501978D01*
X83469481Y-91613782D01*
X83469479Y-91613784D01*
X83443200Y-91659301D01*
X83432093Y-91678541D01*
X83399230Y-91735460D01*
X83391129Y-91749493D01*
X83390423Y-91750715D01*
X83349499Y-91903443D01*
X83349499Y-91903445D01*
X83349499Y-92071546D01*
X83349500Y-92071559D01*
X83349500Y-95311267D01*
X83329815Y-95378306D01*
X83277011Y-95424061D01*
X83264506Y-95428972D01*
X83230671Y-95440184D01*
X83230663Y-95440187D01*
X83081342Y-95532289D01*
X82957289Y-95656342D01*
X82865187Y-95805663D01*
X82865185Y-95805668D01*
X82861869Y-95815676D01*
X82810001Y-95972203D01*
X82810001Y-95972204D01*
X82810000Y-95972204D01*
X82799500Y-96074983D01*
X79084250Y-96074983D01*
X80958506Y-94200728D01*
X80958511Y-94200724D01*
X80968714Y-94190520D01*
X80968716Y-94190520D01*
X81080520Y-94078716D01*
X81136483Y-93981784D01*
X81159577Y-93941785D01*
X81200501Y-93789057D01*
X81200501Y-93630943D01*
X81200501Y-93623348D01*
X81200500Y-93623330D01*
X81200500Y-89674985D01*
X82745000Y-89674985D01*
X82755493Y-89777689D01*
X82755494Y-89777696D01*
X82810641Y-89944118D01*
X82810643Y-89944123D01*
X82902684Y-90093344D01*
X83026655Y-90217315D01*
X83175876Y-90309356D01*
X83175881Y-90309358D01*
X83342303Y-90364505D01*
X83342310Y-90364506D01*
X83445014Y-90374999D01*
X83445027Y-90375000D01*
X83707500Y-90375000D01*
X83707500Y-89250000D01*
X82745000Y-89250000D01*
X82745000Y-89674985D01*
X81200500Y-89674985D01*
X81200500Y-89100097D01*
X81220185Y-89033058D01*
X81236819Y-89012416D01*
X81924221Y-88325014D01*
X82745000Y-88325014D01*
X82745000Y-88750000D01*
X83707500Y-88750000D01*
X84207500Y-88750000D01*
X85170000Y-88750000D01*
X85170000Y-88325027D01*
X85169999Y-88325014D01*
X85159506Y-88222310D01*
X85159505Y-88222303D01*
X85104358Y-88055881D01*
X85104356Y-88055876D01*
X85012315Y-87906655D01*
X84888344Y-87782684D01*
X84739123Y-87690643D01*
X84739118Y-87690641D01*
X84572696Y-87635494D01*
X84572689Y-87635493D01*
X84469985Y-87625000D01*
X84207500Y-87625000D01*
X84207500Y-88750000D01*
X83707500Y-88750000D01*
X83707500Y-87625000D01*
X83445014Y-87625000D01*
X83342310Y-87635493D01*
X83342303Y-87635494D01*
X83175881Y-87690641D01*
X83175876Y-87690643D01*
X83026655Y-87782684D01*
X82902684Y-87906655D01*
X82810643Y-88055876D01*
X82810641Y-88055881D01*
X82755494Y-88222303D01*
X82755493Y-88222310D01*
X82745000Y-88325014D01*
X81924221Y-88325014D01*
X84412416Y-85836819D01*
X84473739Y-85803334D01*
X84500097Y-85800500D01*
X113599903Y-85800500D01*
X113666942Y-85820185D01*
X113687584Y-85836819D01*
X117013181Y-89162416D01*
X117046666Y-89223739D01*
X117049500Y-89250097D01*
X117049500Y-89675015D01*
X117060000Y-89777795D01*
X117060001Y-89777796D01*
X117115186Y-89944335D01*
X117115187Y-89944337D01*
X117207286Y-90093651D01*
X117207289Y-90093655D01*
X117331344Y-90217710D01*
X117331348Y-90217713D01*
X117480662Y-90309812D01*
X117480664Y-90309813D01*
X117480666Y-90309814D01*
X117647203Y-90364999D01*
X117701720Y-90370568D01*
X117748199Y-90375317D01*
X117812891Y-90401713D01*
X117853043Y-90458894D01*
X117855906Y-90528705D01*
X117820572Y-90588982D01*
X117809909Y-90597941D01*
X117776807Y-90622721D01*
X117690647Y-90737815D01*
X117690643Y-90737822D01*
X117640401Y-90872529D01*
X117640399Y-90872536D01*
X117633998Y-90932064D01*
X117633998Y-91248654D01*
X119166002Y-91248654D01*
X119166002Y-90932081D01*
X119166001Y-90932064D01*
X119159600Y-90872536D01*
X119159598Y-90872529D01*
X119109356Y-90737822D01*
X119109352Y-90737815D01*
X119023192Y-90622721D01*
X118930014Y-90552967D01*
X118888144Y-90497033D01*
X118883160Y-90427341D01*
X118916646Y-90366019D01*
X118965320Y-90335996D01*
X119044334Y-90309814D01*
X119193655Y-90217711D01*
X119317711Y-90093655D01*
X119409814Y-89944334D01*
X119464999Y-89777797D01*
X119475500Y-89675008D01*
X119475500Y-88324992D01*
X119464999Y-88222203D01*
X119409814Y-88055666D01*
X119409813Y-88055664D01*
X119409812Y-88055662D01*
X119317713Y-87906348D01*
X119317710Y-87906344D01*
X119193655Y-87782289D01*
X119193651Y-87782286D01*
X119044337Y-87690187D01*
X119044335Y-87690186D01*
X118961065Y-87662593D01*
X118877797Y-87635001D01*
X118877795Y-87635000D01*
X118775015Y-87624500D01*
X118775008Y-87624500D01*
X117749992Y-87624500D01*
X117749984Y-87624500D01*
X117647204Y-87635000D01*
X117647203Y-87635001D01*
X117564670Y-87662349D01*
X117480668Y-87690185D01*
X117480659Y-87690189D01*
X117414903Y-87730748D01*
X117347510Y-87749188D01*
X117280847Y-87728265D01*
X117262126Y-87712890D01*
X116049235Y-86499999D01*
X144869341Y-86499999D01*
X144869341Y-86500000D01*
X144889936Y-86735403D01*
X144889938Y-86735413D01*
X144951094Y-86963655D01*
X144951096Y-86963659D01*
X144951097Y-86963663D01*
X145050965Y-87177830D01*
X145050967Y-87177834D01*
X145186501Y-87371395D01*
X145186506Y-87371402D01*
X145353597Y-87538493D01*
X145353603Y-87538498D01*
X145539158Y-87668425D01*
X145582783Y-87723002D01*
X145589977Y-87792500D01*
X145558454Y-87854855D01*
X145539158Y-87871575D01*
X145353597Y-88001505D01*
X145186505Y-88168597D01*
X145050965Y-88362169D01*
X145050964Y-88362171D01*
X144951098Y-88576335D01*
X144951094Y-88576344D01*
X144889938Y-88804586D01*
X144889936Y-88804596D01*
X144869341Y-89039999D01*
X144869341Y-89040000D01*
X144889936Y-89275403D01*
X144889938Y-89275413D01*
X144951094Y-89503655D01*
X144951096Y-89503659D01*
X144951097Y-89503663D01*
X145031001Y-89675018D01*
X145050965Y-89717830D01*
X145050967Y-89717834D01*
X145186501Y-89911395D01*
X145186506Y-89911402D01*
X145353597Y-90078493D01*
X145353603Y-90078498D01*
X145539158Y-90208425D01*
X145582783Y-90263002D01*
X145589977Y-90332500D01*
X145558454Y-90394855D01*
X145539158Y-90411575D01*
X145353597Y-90541505D01*
X145186505Y-90708597D01*
X145050965Y-90902169D01*
X145050964Y-90902171D01*
X144951098Y-91116335D01*
X144951094Y-91116344D01*
X144889938Y-91344586D01*
X144889936Y-91344596D01*
X144869341Y-91579999D01*
X144869341Y-91580000D01*
X144889936Y-91815403D01*
X144889938Y-91815413D01*
X144951094Y-92043655D01*
X144951096Y-92043659D01*
X144951097Y-92043663D01*
X145024988Y-92202122D01*
X145050965Y-92257830D01*
X145050967Y-92257834D01*
X145186501Y-92451395D01*
X145186506Y-92451402D01*
X145353597Y-92618493D01*
X145353603Y-92618498D01*
X145539158Y-92748425D01*
X145582783Y-92803002D01*
X145589977Y-92872500D01*
X145558454Y-92934855D01*
X145539158Y-92951575D01*
X145353597Y-93081505D01*
X145186505Y-93248597D01*
X145050965Y-93442169D01*
X145050964Y-93442171D01*
X144951098Y-93656335D01*
X144951094Y-93656344D01*
X144889938Y-93884586D01*
X144889936Y-93884596D01*
X144869341Y-94119999D01*
X144869341Y-94120000D01*
X144889936Y-94355403D01*
X144889938Y-94355413D01*
X144951094Y-94583655D01*
X144951096Y-94583659D01*
X144951097Y-94583663D01*
X145038427Y-94770943D01*
X145050965Y-94797830D01*
X145050967Y-94797834D01*
X145186501Y-94991395D01*
X145186506Y-94991402D01*
X145353597Y-95158493D01*
X145353603Y-95158498D01*
X145539594Y-95288730D01*
X145583219Y-95343307D01*
X145590413Y-95412805D01*
X145558890Y-95475160D01*
X145539595Y-95491880D01*
X145353922Y-95621890D01*
X145353920Y-95621891D01*
X145186891Y-95788920D01*
X145186886Y-95788926D01*
X145051400Y-95982420D01*
X145051399Y-95982422D01*
X144951570Y-96196507D01*
X144951567Y-96196513D01*
X144894364Y-96409999D01*
X144894364Y-96410000D01*
X145791988Y-96410000D01*
X145759075Y-96467007D01*
X145725000Y-96594174D01*
X145725000Y-96725826D01*
X145759075Y-96852993D01*
X145791988Y-96910000D01*
X144894364Y-96910000D01*
X144951567Y-97123486D01*
X144951570Y-97123492D01*
X145051399Y-97337578D01*
X145186894Y-97531082D01*
X145308946Y-97653134D01*
X145342431Y-97714457D01*
X145337447Y-97784149D01*
X145295575Y-97840082D01*
X145264598Y-97856997D01*
X145132671Y-97906202D01*
X145132664Y-97906206D01*
X145017455Y-97992452D01*
X145017452Y-97992455D01*
X144931206Y-98107664D01*
X144931202Y-98107671D01*
X144880908Y-98242517D01*
X144874594Y-98301249D01*
X144874501Y-98302123D01*
X144874500Y-98302135D01*
X144874500Y-100097870D01*
X144874501Y-100097876D01*
X144880908Y-100157483D01*
X144931202Y-100292328D01*
X144931206Y-100292335D01*
X145017452Y-100407544D01*
X145017455Y-100407547D01*
X145132664Y-100493793D01*
X145132671Y-100493797D01*
X145267517Y-100544091D01*
X145267516Y-100544091D01*
X145274444Y-100544835D01*
X145327127Y-100550500D01*
X147122872Y-100550499D01*
X147182483Y-100544091D01*
X147317331Y-100493796D01*
X147432546Y-100407546D01*
X147518796Y-100292331D01*
X147569091Y-100157483D01*
X147575500Y-100097873D01*
X147575499Y-98302128D01*
X147569091Y-98242517D01*
X147525435Y-98125470D01*
X147518797Y-98107671D01*
X147518793Y-98107664D01*
X147432547Y-97992455D01*
X147432544Y-97992452D01*
X147317335Y-97906206D01*
X147317328Y-97906202D01*
X147185401Y-97856997D01*
X147129467Y-97815126D01*
X147105050Y-97749662D01*
X147119902Y-97681389D01*
X147141053Y-97653133D01*
X147263108Y-97531078D01*
X147398600Y-97337578D01*
X147498429Y-97123492D01*
X147498432Y-97123486D01*
X147555636Y-96910000D01*
X146658012Y-96910000D01*
X146690925Y-96852993D01*
X146725000Y-96725826D01*
X146725000Y-96594174D01*
X146690925Y-96467007D01*
X146658012Y-96410000D01*
X147555636Y-96410000D01*
X147555635Y-96409999D01*
X147498432Y-96196513D01*
X147498429Y-96196507D01*
X147398600Y-95982422D01*
X147398599Y-95982420D01*
X147263113Y-95788926D01*
X147263108Y-95788920D01*
X147096078Y-95621890D01*
X146910405Y-95491879D01*
X146866780Y-95437302D01*
X146859588Y-95367804D01*
X146891110Y-95305449D01*
X146910406Y-95288730D01*
X146910842Y-95288425D01*
X147096401Y-95158495D01*
X147263495Y-94991401D01*
X147399035Y-94797830D01*
X147498903Y-94583663D01*
X147560063Y-94355408D01*
X147580659Y-94120000D01*
X147578867Y-94099523D01*
X147570031Y-93998526D01*
X147560063Y-93884592D01*
X147498903Y-93656337D01*
X147399035Y-93442171D01*
X147389992Y-93429255D01*
X147263494Y-93248597D01*
X147096402Y-93081506D01*
X147096396Y-93081501D01*
X146910842Y-92951575D01*
X146867217Y-92896998D01*
X146860023Y-92827500D01*
X146891546Y-92765145D01*
X146910842Y-92748425D01*
X146933026Y-92732891D01*
X147096401Y-92618495D01*
X147263495Y-92451401D01*
X147399035Y-92257830D01*
X147498903Y-92043663D01*
X147560063Y-91815408D01*
X147580659Y-91580000D01*
X147560063Y-91344592D01*
X147498903Y-91116337D01*
X147399035Y-90902171D01*
X147378285Y-90872536D01*
X147263494Y-90708597D01*
X147096402Y-90541506D01*
X147096396Y-90541501D01*
X146910842Y-90411575D01*
X146867217Y-90356998D01*
X146860023Y-90287500D01*
X146891546Y-90225145D01*
X146910842Y-90208425D01*
X146933026Y-90192891D01*
X147096401Y-90078495D01*
X147263495Y-89911401D01*
X147399035Y-89717830D01*
X147498903Y-89503663D01*
X147560063Y-89275408D01*
X147580659Y-89040000D01*
X147560063Y-88804592D01*
X147498903Y-88576337D01*
X147399035Y-88362171D01*
X147373028Y-88325028D01*
X147263494Y-88168597D01*
X147096402Y-88001506D01*
X147096396Y-88001501D01*
X146910842Y-87871575D01*
X146867217Y-87816998D01*
X146860023Y-87747500D01*
X146891546Y-87685145D01*
X146910842Y-87668425D01*
X146976428Y-87622501D01*
X147096401Y-87538495D01*
X147263495Y-87371401D01*
X147399035Y-87177830D01*
X147498903Y-86963663D01*
X147560063Y-86735408D01*
X147580659Y-86500000D01*
X147560063Y-86264592D01*
X147498903Y-86036337D01*
X147399035Y-85822171D01*
X147397645Y-85820185D01*
X147263494Y-85628597D01*
X147096402Y-85461506D01*
X147096395Y-85461501D01*
X146902834Y-85325967D01*
X146902830Y-85325965D01*
X146902828Y-85325964D01*
X146688663Y-85226097D01*
X146688659Y-85226096D01*
X146688655Y-85226094D01*
X146460413Y-85164938D01*
X146460403Y-85164936D01*
X146225001Y-85144341D01*
X146224999Y-85144341D01*
X145989596Y-85164936D01*
X145989586Y-85164938D01*
X145761344Y-85226094D01*
X145761335Y-85226098D01*
X145547171Y-85325964D01*
X145547169Y-85325965D01*
X145353597Y-85461505D01*
X145186505Y-85628597D01*
X145050965Y-85822169D01*
X145050964Y-85822171D01*
X144951098Y-86036335D01*
X144951094Y-86036344D01*
X144889938Y-86264586D01*
X144889936Y-86264596D01*
X144869341Y-86499999D01*
X116049235Y-86499999D01*
X114268718Y-84719483D01*
X114268716Y-84719481D01*
X114131785Y-84640423D01*
X113979057Y-84599499D01*
X113820943Y-84599499D01*
X113820939Y-84599499D01*
X113782089Y-84609909D01*
X113717907Y-84609909D01*
X113679060Y-84599500D01*
X113679057Y-84599500D01*
X84286669Y-84599500D01*
X84286653Y-84599499D01*
X84279057Y-84599499D01*
X84120943Y-84599499D01*
X84013587Y-84628265D01*
X83968210Y-84640424D01*
X83968209Y-84640425D01*
X83918096Y-84669359D01*
X83918095Y-84669360D01*
X83874689Y-84694420D01*
X83831285Y-84719479D01*
X83831282Y-84719481D01*
X80119479Y-88431284D01*
X80099538Y-88465823D01*
X80091110Y-88480423D01*
X80040423Y-88568215D01*
X79999499Y-88720943D01*
X79999499Y-88720945D01*
X79999499Y-88889046D01*
X79999500Y-88889059D01*
X79999500Y-93409902D01*
X79979815Y-93476941D01*
X79963181Y-93497583D01*
X79214432Y-94246332D01*
X79153109Y-94279817D01*
X79083417Y-94274833D01*
X79027484Y-94232961D01*
X79003067Y-94167497D01*
X79003223Y-94147843D01*
X79005659Y-94120000D01*
X79005659Y-94119999D01*
X78995031Y-93998526D01*
X78985063Y-93884592D01*
X78923903Y-93656337D01*
X78824035Y-93442171D01*
X78814992Y-93429255D01*
X78688494Y-93248597D01*
X78521402Y-93081506D01*
X78521396Y-93081501D01*
X78335842Y-92951575D01*
X78292217Y-92896998D01*
X78285023Y-92827500D01*
X78316546Y-92765145D01*
X78335842Y-92748425D01*
X78358026Y-92732891D01*
X78521401Y-92618495D01*
X78688495Y-92451401D01*
X78824035Y-92257830D01*
X78923903Y-92043663D01*
X78985063Y-91815408D01*
X79005659Y-91580000D01*
X78985063Y-91344592D01*
X78923903Y-91116337D01*
X78824035Y-90902171D01*
X78803285Y-90872536D01*
X78688494Y-90708597D01*
X78521402Y-90541506D01*
X78521396Y-90541501D01*
X78335842Y-90411575D01*
X78292217Y-90356998D01*
X78285023Y-90287500D01*
X78316546Y-90225145D01*
X78335842Y-90208425D01*
X78358026Y-90192891D01*
X78521401Y-90078495D01*
X78688495Y-89911401D01*
X78824035Y-89717830D01*
X78923903Y-89503663D01*
X78985063Y-89275408D01*
X79005659Y-89040000D01*
X78985063Y-88804592D01*
X78923903Y-88576337D01*
X78824035Y-88362171D01*
X78798028Y-88325028D01*
X78688494Y-88168597D01*
X78521402Y-88001506D01*
X78521396Y-88001501D01*
X78335842Y-87871575D01*
X78292217Y-87816998D01*
X78285023Y-87747500D01*
X78316546Y-87685145D01*
X78335842Y-87668425D01*
X78401428Y-87622501D01*
X78521401Y-87538495D01*
X78688495Y-87371401D01*
X78824035Y-87177830D01*
X78923903Y-86963663D01*
X78985063Y-86735408D01*
X79005659Y-86500000D01*
X78985063Y-86264592D01*
X78923903Y-86036337D01*
X78824035Y-85822171D01*
X78822645Y-85820185D01*
X78688494Y-85628597D01*
X78521402Y-85461506D01*
X78521395Y-85461501D01*
X78327834Y-85325967D01*
X78327830Y-85325965D01*
X78327828Y-85325964D01*
X78113663Y-85226097D01*
X78113659Y-85226096D01*
X78113655Y-85226094D01*
X77885413Y-85164938D01*
X77885403Y-85164936D01*
X77650001Y-85144341D01*
X77649999Y-85144341D01*
X77414596Y-85164936D01*
X77414586Y-85164938D01*
X77186344Y-85226094D01*
X77186335Y-85226098D01*
X76972171Y-85325964D01*
X76972169Y-85325965D01*
X76778597Y-85461505D01*
X76611505Y-85628597D01*
X76475965Y-85822169D01*
X76475964Y-85822171D01*
X76376098Y-86036335D01*
X76376094Y-86036344D01*
X76314938Y-86264586D01*
X76314936Y-86264596D01*
X76294341Y-86499999D01*
X72450500Y-86499999D01*
X72450500Y-83504500D01*
X72470185Y-83437461D01*
X72522989Y-83391706D01*
X72574500Y-83380500D01*
X151325500Y-83380500D01*
X151392539Y-83400185D01*
G37*
%TD.AperFunction*%
%TD*%
M02*
