%TF.GenerationSoftware,KiCad,Pcbnew,8.0.6*%
%TF.CreationDate,2025-02-14T22:00:12-04:00*%
%TF.ProjectId,nsec-ctf-sao-2025,6e736563-2d63-4746-962d-73616f2d3230,rev?*%
%TF.SameCoordinates,Original*%
%TF.FileFunction,Legend,Bot*%
%TF.FilePolarity,Positive*%
%FSLAX46Y46*%
G04 Gerber Fmt 4.6, Leading zero omitted, Abs format (unit mm)*
G04 Created by KiCad (PCBNEW 8.0.6) date 2025-02-14 22:00:12*
%MOMM*%
%LPD*%
G01*
G04 APERTURE LIST*
G04 Aperture macros list*
%AMFreePoly0*
4,1,19,0.500000,-0.750000,0.000000,-0.750000,0.000000,-0.744911,-0.071157,-0.744911,-0.207708,-0.704816,-0.327430,-0.627875,-0.420627,-0.520320,-0.479746,-0.390866,-0.500000,-0.250000,-0.500000,0.250000,-0.479746,0.390866,-0.420627,0.520320,-0.327430,0.627875,-0.207708,0.704816,-0.071157,0.744911,0.000000,0.744911,0.000000,0.750000,0.500000,0.750000,0.500000,-0.750000,0.500000,-0.750000,
$1*%
%AMFreePoly1*
4,1,19,0.000000,0.744911,0.071157,0.744911,0.207708,0.704816,0.327430,0.627875,0.420627,0.520320,0.479746,0.390866,0.500000,0.250000,0.500000,-0.250000,0.479746,-0.390866,0.420627,-0.520320,0.327430,-0.627875,0.207708,-0.704816,0.071157,-0.744911,0.000000,-0.744911,0.000000,-0.750000,-0.500000,-0.750000,-0.500000,0.750000,0.000000,0.750000,0.000000,0.744911,0.000000,0.744911,
$1*%
G04 Aperture macros list end*
%ADD10C,0.300000*%
%ADD11C,0.150000*%
%ADD12C,0.120000*%
%ADD13FreePoly0,90.000000*%
%ADD14FreePoly1,90.000000*%
%ADD15R,1.700000X1.700000*%
%ADD16O,1.700000X1.700000*%
G04 APERTURE END LIST*
D10*
G36*
X138851186Y-85951095D02*
G01*
X138936587Y-85928151D01*
X139087124Y-85910795D01*
X139208757Y-85918855D01*
X139318106Y-85977745D01*
X139452206Y-86071079D01*
X139565276Y-86170685D01*
X139672575Y-86285952D01*
X139984717Y-86285952D01*
X140004097Y-86333490D01*
X140050800Y-86474481D01*
X140082570Y-86628282D01*
X140093161Y-86779078D01*
X140092105Y-86825109D01*
X140073328Y-86978639D01*
X140031082Y-87132311D01*
X139972993Y-87270739D01*
X139717271Y-87270739D01*
X139607362Y-87296385D01*
X139574045Y-87329186D01*
X139482798Y-87446594D01*
X139425645Y-87524263D01*
X139380216Y-87585584D01*
X139287892Y-87705247D01*
X138910537Y-88115575D01*
X138803558Y-88588918D01*
X138720760Y-88568401D01*
X138604720Y-88529847D01*
X138475675Y-88439752D01*
X138400649Y-88310939D01*
X138379309Y-88163935D01*
X138383173Y-88117001D01*
X138426643Y-87971263D01*
X138489218Y-87838604D01*
X138522191Y-87781451D01*
X138537823Y-87749850D01*
X138595445Y-87605955D01*
X138629169Y-87458318D01*
X138604989Y-87458318D01*
X138566710Y-87457891D01*
X138405929Y-87445417D01*
X138249308Y-87411299D01*
X138103803Y-87349141D01*
X138048497Y-87312952D01*
X137948573Y-87201614D01*
X137916201Y-87071437D01*
X138061304Y-87071437D01*
X138095436Y-87171171D01*
X138216643Y-87254619D01*
X138236719Y-87262250D01*
X138384821Y-87297696D01*
X138544447Y-87313695D01*
X138695847Y-87317634D01*
X138794033Y-87317634D01*
X138791102Y-87398967D01*
X138787077Y-87476705D01*
X138754877Y-87635615D01*
X138698366Y-87782550D01*
X138626238Y-87916273D01*
X138599860Y-87960969D01*
X138567628Y-88022169D01*
X138533182Y-88165401D01*
X138574581Y-88310664D01*
X138698778Y-88396210D01*
X138777180Y-88035708D01*
X139194836Y-87590209D01*
X139260725Y-87506720D01*
X139352372Y-87387243D01*
X139444971Y-87266515D01*
X139559002Y-87163761D01*
X139579541Y-87155861D01*
X139728653Y-87134038D01*
X139878471Y-87130055D01*
X139899886Y-87063637D01*
X139931086Y-86914607D01*
X139941486Y-86758562D01*
X139940984Y-86727506D01*
X139923402Y-86572034D01*
X139884333Y-86426636D01*
X139605163Y-86426636D01*
X139536350Y-86344685D01*
X139421345Y-86231805D01*
X139292197Y-86130980D01*
X139165526Y-86051479D01*
X139090788Y-86051479D01*
X139047557Y-86040488D01*
X139270307Y-86119623D01*
X139208140Y-86244710D01*
X139114235Y-86359225D01*
X139231472Y-86416378D01*
X139174986Y-86508055D01*
X139075401Y-86620076D01*
X139135484Y-86644256D01*
X139071016Y-86757738D01*
X138960362Y-86862609D01*
X139005059Y-86882393D01*
X138968251Y-86951430D01*
X138869442Y-87073107D01*
X138733687Y-87153650D01*
X138588136Y-87176950D01*
X138475296Y-87165226D01*
X138343405Y-87130055D01*
X138129448Y-87130055D01*
X138266468Y-86968855D01*
X138379309Y-86973251D01*
X138515596Y-87021612D01*
X138604989Y-87036266D01*
X138672493Y-87029311D01*
X138795498Y-86948339D01*
X138453314Y-86801793D01*
X138332414Y-86801793D01*
X138271311Y-86807995D01*
X138140439Y-86880195D01*
X138102186Y-86926724D01*
X138061304Y-87071437D01*
X137916201Y-87071437D01*
X137911828Y-87053852D01*
X137937840Y-86907489D01*
X138015875Y-86782009D01*
X137978453Y-86661109D01*
X138133845Y-86661109D01*
X138143370Y-86695547D01*
X138220667Y-86672006D01*
X138371981Y-86661109D01*
X138485554Y-86661109D01*
X138790369Y-86787138D01*
X138795690Y-86785819D01*
X138922993Y-86708004D01*
X138575680Y-86567320D01*
X138361723Y-86567320D01*
X138332551Y-86567709D01*
X138187334Y-86592233D01*
X138133845Y-86661109D01*
X137978453Y-86661109D01*
X137977773Y-86658911D01*
X138025401Y-86524822D01*
X138142637Y-86453747D01*
X138140439Y-86407585D01*
X138281856Y-86407585D01*
X138284787Y-86426636D01*
X138602791Y-86426636D01*
X138913468Y-86554131D01*
X139013852Y-86479392D01*
X139028506Y-86479392D01*
X138648220Y-86285952D01*
X138499476Y-86285952D01*
X138384715Y-86297830D01*
X138281856Y-86407585D01*
X138140439Y-86407585D01*
X138145806Y-86339783D01*
X138217934Y-86205705D01*
X138356367Y-86156186D01*
X138509862Y-86156186D01*
X138680460Y-86145268D01*
X138965491Y-86295478D01*
X139048290Y-86192163D01*
X139057815Y-86180439D01*
X138748604Y-86051479D01*
X138684856Y-86051479D01*
X138616335Y-86056528D01*
X138509862Y-86156186D01*
X138356367Y-86156186D01*
X138360258Y-86154794D01*
X138358792Y-86139406D01*
X138397321Y-86009250D01*
X138527238Y-85928879D01*
X138684856Y-85910795D01*
X138779378Y-85910795D01*
X138851186Y-85951095D01*
G37*
G36*
X131662760Y-85120542D02*
G01*
X131786950Y-85201514D01*
X131834760Y-85309225D01*
X131850697Y-85456503D01*
X131827250Y-86434696D01*
X132051465Y-85578136D01*
X132085829Y-85484009D01*
X132177740Y-85354179D01*
X132324040Y-85301165D01*
X132357310Y-85302703D01*
X132491835Y-85364180D01*
X132519462Y-85404320D01*
X132548988Y-85549560D01*
X132540993Y-85621648D01*
X132507222Y-85767913D01*
X132263956Y-86589302D01*
X132600279Y-86010446D01*
X132607932Y-85998545D01*
X132708471Y-85878212D01*
X132850872Y-85817006D01*
X132867126Y-85817553D01*
X133000348Y-85879288D01*
X133011348Y-85891066D01*
X133061898Y-86029497D01*
X133035841Y-86148392D01*
X132969574Y-86280090D01*
X132580495Y-86935150D01*
X132602477Y-87179148D01*
X132575695Y-87349550D01*
X132542061Y-87507949D01*
X132501575Y-87654343D01*
X132445681Y-87809964D01*
X132380460Y-87949246D01*
X132204605Y-88151479D01*
X132204605Y-88385952D01*
X132173999Y-88398552D01*
X132020542Y-88449356D01*
X131866368Y-88479839D01*
X131711479Y-88490000D01*
X131650937Y-88488385D01*
X131493973Y-88470224D01*
X131345853Y-88436627D01*
X131191242Y-88386685D01*
X131191242Y-88086999D01*
X131137146Y-88048212D01*
X131020367Y-87956363D01*
X130905478Y-87857426D01*
X130795568Y-87756538D01*
X130416015Y-87248025D01*
X129962146Y-86814982D01*
X130172016Y-86814982D01*
X130536182Y-87157166D01*
X130882030Y-87622449D01*
X130973942Y-87709781D01*
X131094750Y-87816241D01*
X131217608Y-87918170D01*
X131337055Y-88012993D01*
X131337055Y-88285568D01*
X131395927Y-88303933D01*
X131542800Y-88337114D01*
X131690963Y-88349316D01*
X131751717Y-88347777D01*
X131901808Y-88329377D01*
X132050732Y-88286301D01*
X132050732Y-88113377D01*
X132244173Y-87881102D01*
X132295942Y-87769973D01*
X132348981Y-87628212D01*
X132394096Y-87473407D01*
X132426459Y-87330336D01*
X132453000Y-87177683D01*
X132427355Y-86893384D01*
X132843545Y-86199490D01*
X132864442Y-86162757D01*
X132916085Y-86024368D01*
X132902163Y-85973077D01*
X132857466Y-85957690D01*
X132827591Y-85967543D01*
X132730704Y-86082254D01*
X132272749Y-86804724D01*
X132085903Y-86718262D01*
X132366538Y-85711493D01*
X132370975Y-85695991D01*
X132403175Y-85545896D01*
X132382658Y-85466029D01*
X132319644Y-85441849D01*
X132216317Y-85532867D01*
X132165038Y-85674856D01*
X131901256Y-86629602D01*
X131698290Y-86595163D01*
X131698290Y-85547362D01*
X131700488Y-85417669D01*
X131673377Y-85292372D01*
X131594242Y-85254270D01*
X131502938Y-85351586D01*
X131487997Y-85503398D01*
X131489462Y-85569344D01*
X131515108Y-86614214D01*
X131296755Y-86614214D01*
X130992672Y-85690244D01*
X130959150Y-85602087D01*
X130856385Y-85488743D01*
X130805826Y-85511458D01*
X130788974Y-85586929D01*
X130795625Y-85653217D01*
X130829274Y-85797955D01*
X131090858Y-86774682D01*
X131062728Y-86886160D01*
X131038101Y-87031137D01*
X131050860Y-87038193D01*
X131182701Y-87128372D01*
X131289032Y-87230339D01*
X131382484Y-87351339D01*
X131268911Y-87441465D01*
X131202931Y-87366349D01*
X131079367Y-87249827D01*
X130945494Y-87152309D01*
X130801313Y-87073795D01*
X130646824Y-87014284D01*
X130596174Y-86929087D01*
X130495150Y-86816448D01*
X130469923Y-86798716D01*
X130324424Y-86754898D01*
X130309513Y-86755426D01*
X130172016Y-86814982D01*
X129962146Y-86814982D01*
X129952930Y-86806189D01*
X130015212Y-86758562D01*
X130037271Y-86741082D01*
X130171028Y-86654953D01*
X130320760Y-86614214D01*
X130423103Y-86626186D01*
X130559630Y-86686755D01*
X130661479Y-86774682D01*
X130750139Y-86894849D01*
X130757027Y-86897259D01*
X130898150Y-86954200D01*
X130901800Y-86919872D01*
X130928925Y-86774682D01*
X130674668Y-85797222D01*
X130655478Y-85708184D01*
X130640963Y-85561284D01*
X130641439Y-85541957D01*
X130695184Y-85402281D01*
X130709530Y-85389573D01*
X130854187Y-85348060D01*
X130898620Y-85353589D01*
X131019966Y-85436536D01*
X131099211Y-85564068D01*
X131153872Y-85701967D01*
X131389811Y-86474996D01*
X131343649Y-85496803D01*
X131344637Y-85450398D01*
X131368336Y-85294716D01*
X131452517Y-85158869D01*
X131596441Y-85113586D01*
X131662760Y-85120542D01*
G37*
G36*
X124080111Y-85315087D02*
G01*
X124042240Y-85469511D01*
X123996559Y-85637535D01*
X123950621Y-85786702D01*
X123896700Y-85936898D01*
X123834647Y-86077124D01*
X123754205Y-86219268D01*
X123665282Y-86351068D01*
X123574025Y-86470600D01*
X123470216Y-86594059D01*
X123454361Y-86612016D01*
X123380355Y-86694082D01*
X123281777Y-86813433D01*
X123185538Y-86956796D01*
X123113358Y-87100313D01*
X123065238Y-87243985D01*
X123039508Y-87411798D01*
X123038171Y-87459783D01*
X123048965Y-87614154D01*
X123081345Y-87760179D01*
X123135312Y-87897858D01*
X123210866Y-88027190D01*
X123308007Y-88148176D01*
X123345184Y-88186650D01*
X123464316Y-88289741D01*
X123591999Y-88371504D01*
X123728235Y-88431936D01*
X123873024Y-88471040D01*
X124026364Y-88488815D01*
X124079378Y-88490000D01*
X124235098Y-88479335D01*
X124382419Y-88447341D01*
X124521343Y-88394018D01*
X124651868Y-88319365D01*
X124773996Y-88223384D01*
X124812840Y-88186650D01*
X124916927Y-88068446D01*
X124999479Y-87941896D01*
X125060496Y-87806999D01*
X125099978Y-87663756D01*
X125117924Y-87512168D01*
X125119120Y-87459783D01*
X125102781Y-87291910D01*
X125062767Y-87148187D01*
X124998745Y-87004618D01*
X124910715Y-86861203D01*
X124819016Y-86741809D01*
X124777669Y-86694082D01*
X124703663Y-86612016D01*
X124598061Y-86487996D01*
X124505011Y-86367903D01*
X124414038Y-86235462D01*
X124339460Y-86108151D01*
X124323377Y-86077124D01*
X124261461Y-85936898D01*
X124207886Y-85786702D01*
X124162411Y-85637535D01*
X124117349Y-85469511D01*
X124080111Y-85315087D01*
G37*
G36*
X117378576Y-85316552D02*
G01*
X117494616Y-85355106D01*
X117623661Y-85445202D01*
X117698687Y-85574015D01*
X117720027Y-85721018D01*
X117716163Y-85767953D01*
X117672693Y-85913690D01*
X117610118Y-86046350D01*
X117577145Y-86103503D01*
X117561513Y-86135104D01*
X117503891Y-86278999D01*
X117470167Y-86426636D01*
X117494347Y-86426636D01*
X117532629Y-86427065D01*
X117693494Y-86439623D01*
X117850344Y-86473970D01*
X117996266Y-86536545D01*
X118051360Y-86572523D01*
X118150903Y-86683480D01*
X118187508Y-86831102D01*
X118161496Y-86977465D01*
X118083461Y-87102944D01*
X118121563Y-87226043D01*
X118073935Y-87360865D01*
X117956699Y-87431207D01*
X117958897Y-87477369D01*
X117953530Y-87545171D01*
X117881402Y-87679249D01*
X117739078Y-87730160D01*
X117740544Y-87745547D01*
X117702015Y-87875704D01*
X117572099Y-87956075D01*
X117414480Y-87974159D01*
X117319958Y-87974159D01*
X117248150Y-87933859D01*
X117162749Y-87956803D01*
X117012212Y-87974159D01*
X116890579Y-87966099D01*
X116781230Y-87907209D01*
X116647130Y-87813874D01*
X116534060Y-87714269D01*
X116426762Y-87599002D01*
X116114619Y-87599002D01*
X116095239Y-87551464D01*
X116048536Y-87410473D01*
X116016766Y-87256671D01*
X116007616Y-87126392D01*
X116157850Y-87126392D01*
X116158352Y-87157447D01*
X116175934Y-87312920D01*
X116215003Y-87458318D01*
X116494173Y-87458318D01*
X116562986Y-87540269D01*
X116677992Y-87653149D01*
X116807139Y-87753974D01*
X116933810Y-87833475D01*
X117008548Y-87833475D01*
X117051779Y-87844466D01*
X116829030Y-87765331D01*
X116859254Y-87704515D01*
X117041521Y-87704515D01*
X117350732Y-87833475D01*
X117414480Y-87833475D01*
X117483001Y-87828426D01*
X117589473Y-87728767D01*
X117418876Y-87739685D01*
X117133845Y-87589476D01*
X117051046Y-87692791D01*
X117041521Y-87704515D01*
X116859254Y-87704515D01*
X116891196Y-87640244D01*
X116985101Y-87525729D01*
X116867864Y-87468576D01*
X116906690Y-87405561D01*
X117070830Y-87405561D01*
X117451116Y-87599002D01*
X117599860Y-87599002D01*
X117714621Y-87587123D01*
X117817480Y-87477369D01*
X117814549Y-87458318D01*
X117496545Y-87458318D01*
X117185868Y-87330823D01*
X117085484Y-87405561D01*
X117070830Y-87405561D01*
X116906690Y-87405561D01*
X116924350Y-87376899D01*
X117023935Y-87264877D01*
X116963852Y-87240697D01*
X117000066Y-87176950D01*
X117176343Y-87176950D01*
X117523656Y-87317634D01*
X117737613Y-87317634D01*
X117766785Y-87317245D01*
X117912002Y-87292721D01*
X117965491Y-87223845D01*
X117955966Y-87189406D01*
X117878669Y-87212948D01*
X117727355Y-87223845D01*
X117613782Y-87223845D01*
X117308967Y-87097815D01*
X117303647Y-87099135D01*
X117176343Y-87176950D01*
X117000066Y-87176950D01*
X117028320Y-87127216D01*
X117138974Y-87022344D01*
X117094277Y-87002561D01*
X117131085Y-86933524D01*
X117229894Y-86811846D01*
X117365649Y-86731304D01*
X117511200Y-86708004D01*
X117624773Y-86719727D01*
X117755931Y-86754898D01*
X117969888Y-86754898D01*
X117832868Y-86916099D01*
X117720027Y-86911702D01*
X117584473Y-86864075D01*
X117494347Y-86848688D01*
X117426843Y-86855643D01*
X117303838Y-86936615D01*
X117646022Y-87083161D01*
X117766922Y-87083161D01*
X117828083Y-87077017D01*
X117959630Y-87005491D01*
X117997529Y-86958608D01*
X118038032Y-86813517D01*
X118003900Y-86713944D01*
X117882693Y-86631067D01*
X117862618Y-86623348D01*
X117714515Y-86587490D01*
X117554889Y-86571304D01*
X117403489Y-86567320D01*
X117305303Y-86567320D01*
X117308234Y-86485987D01*
X117312259Y-86408249D01*
X117344459Y-86249339D01*
X117400970Y-86102404D01*
X117473098Y-85968681D01*
X117499476Y-85923984D01*
X117531708Y-85862785D01*
X117566154Y-85719553D01*
X117524755Y-85574289D01*
X117400558Y-85488743D01*
X117322156Y-85849246D01*
X116904501Y-86294745D01*
X116838612Y-86378234D01*
X116746964Y-86497711D01*
X116654365Y-86618542D01*
X116540334Y-86721926D01*
X116519795Y-86729654D01*
X116370683Y-86751002D01*
X116220865Y-86754898D01*
X116199450Y-86821316D01*
X116168250Y-86970347D01*
X116157850Y-87126392D01*
X116007616Y-87126392D01*
X116006175Y-87105875D01*
X116007232Y-87059844D01*
X116026008Y-86906315D01*
X116068254Y-86752642D01*
X116126343Y-86614214D01*
X116382065Y-86614214D01*
X116491974Y-86589302D01*
X116525291Y-86556054D01*
X116616538Y-86438360D01*
X116673691Y-86360690D01*
X116719120Y-86299370D01*
X116811444Y-86179706D01*
X117188799Y-85769378D01*
X117295778Y-85296036D01*
X117378576Y-85316552D01*
G37*
G36*
X111088411Y-85228808D02*
G01*
X111156245Y-85359783D01*
X111104954Y-85469692D01*
X111104954Y-88912051D01*
X110855826Y-88912051D01*
X110855826Y-87622449D01*
X110787972Y-87559595D01*
X110670675Y-87468576D01*
X110522976Y-87382022D01*
X110367703Y-87320198D01*
X110204857Y-87283104D01*
X110034438Y-87270739D01*
X109909874Y-87280265D01*
X109909874Y-87954375D01*
X109901244Y-88007956D01*
X109804161Y-88127482D01*
X109664410Y-88202037D01*
X109553057Y-88241152D01*
X109398246Y-88277325D01*
X109249640Y-88296147D01*
X109090683Y-88302421D01*
X109030935Y-88301290D01*
X108856806Y-88284332D01*
X108690353Y-88247023D01*
X108531577Y-88189363D01*
X108380478Y-88111353D01*
X108237055Y-88012993D01*
X108237055Y-87943384D01*
X108385066Y-87943384D01*
X108462746Y-87994561D01*
X108604914Y-88067700D01*
X108755005Y-88119943D01*
X108913020Y-88151289D01*
X109078960Y-88161737D01*
X109130488Y-88161054D01*
X109278582Y-88150815D01*
X109431711Y-88125026D01*
X109572819Y-88084068D01*
X109686807Y-88034523D01*
X109788974Y-87918471D01*
X109753554Y-87852612D01*
X109627773Y-87774856D01*
X109572086Y-87749944D01*
X109537909Y-87732259D01*
X109422865Y-87628956D01*
X109380844Y-87480300D01*
X109380844Y-87451723D01*
X109503942Y-87451723D01*
X109516284Y-87492440D01*
X109625850Y-87592679D01*
X109761863Y-87669344D01*
X109761863Y-87301514D01*
X109604692Y-87339467D01*
X109503942Y-87451723D01*
X109380844Y-87451723D01*
X109380844Y-86543872D01*
X109246804Y-86562168D01*
X109097278Y-86567320D01*
X109006168Y-86564652D01*
X108848157Y-86547146D01*
X108691970Y-86513301D01*
X108537606Y-86463117D01*
X108385066Y-86396594D01*
X108385066Y-87943384D01*
X108237055Y-87943384D01*
X108237055Y-86115226D01*
X108370011Y-86203394D01*
X108505829Y-86276289D01*
X108644509Y-86333911D01*
X108786051Y-86376261D01*
X108930456Y-86403337D01*
X109077723Y-86415141D01*
X109227852Y-86411672D01*
X109380844Y-86392930D01*
X109380844Y-85975275D01*
X109528855Y-85975275D01*
X109528855Y-87218715D01*
X109569852Y-87202871D01*
X109715253Y-87161311D01*
X109874106Y-87137068D01*
X110028576Y-87130055D01*
X110088565Y-87131169D01*
X110261904Y-87147870D01*
X110425300Y-87184612D01*
X110578752Y-87241396D01*
X110722261Y-87318221D01*
X110855826Y-87415087D01*
X110855826Y-85894675D01*
X110781556Y-85830511D01*
X110656799Y-85737596D01*
X110505485Y-85649240D01*
X110352419Y-85586128D01*
X110197602Y-85548260D01*
X110041032Y-85535638D01*
X109893481Y-85546371D01*
X109728924Y-85597462D01*
X109613384Y-85690627D01*
X109546861Y-85825867D01*
X109528855Y-85975275D01*
X109380844Y-85975275D01*
X109380844Y-85967215D01*
X109381489Y-85932008D01*
X109404054Y-85772736D01*
X109473683Y-85618494D01*
X109589732Y-85504488D01*
X109721898Y-85440221D01*
X109886301Y-85403896D01*
X110041032Y-85394954D01*
X110097624Y-85396148D01*
X110262866Y-85414051D01*
X110421307Y-85453438D01*
X110572947Y-85514309D01*
X110717787Y-85596663D01*
X110855826Y-85700502D01*
X110855826Y-85468960D01*
X110804535Y-85359783D01*
X110838616Y-85255598D01*
X110982588Y-85207376D01*
X111088411Y-85228808D01*
G37*
G36*
X102681507Y-86098374D02*
G01*
X103392254Y-86098374D01*
X103392254Y-86989371D01*
X102681507Y-86989371D01*
X102681507Y-88288499D01*
X102463886Y-88490000D01*
X101616852Y-88490000D01*
X101616852Y-87176950D01*
X100905373Y-87176950D01*
X100905373Y-86332847D01*
X101358199Y-86332847D01*
X101358199Y-86754898D01*
X102069678Y-86754898D01*
X102069678Y-88067948D01*
X102430914Y-88067948D01*
X102430914Y-86754898D01*
X103141660Y-86754898D01*
X103141660Y-86332847D01*
X102430914Y-86332847D01*
X102430914Y-85676322D01*
X102069678Y-85676322D01*
X102069678Y-86332847D01*
X101358199Y-86332847D01*
X100905373Y-86332847D01*
X100905373Y-86299141D01*
X101121528Y-86098374D01*
X101616852Y-86098374D01*
X101616852Y-85642616D01*
X101835205Y-85441849D01*
X102681507Y-85441849D01*
X102681507Y-86098374D01*
G37*
G36*
X94596580Y-86054410D02*
G01*
X94680844Y-86127683D01*
X95514689Y-86145268D01*
X95635709Y-86147968D01*
X95792871Y-86163120D01*
X95934542Y-86201688D01*
X96015193Y-86262283D01*
X96059106Y-86403921D01*
X96040868Y-86489822D01*
X95929413Y-86592233D01*
X95857423Y-86618840D01*
X95709964Y-86645863D01*
X95555722Y-86653049D01*
X94814200Y-86661109D01*
X94800279Y-86655247D01*
X94837648Y-86704340D01*
X94866224Y-86823775D01*
X94866024Y-86835106D01*
X94814933Y-86976915D01*
X94689637Y-87058981D01*
X94703558Y-87134452D01*
X94702551Y-87158700D01*
X94639078Y-87291256D01*
X94613688Y-87311142D01*
X94475680Y-87361598D01*
X94476413Y-87377718D01*
X94475110Y-87410192D01*
X94421390Y-87551353D01*
X94288880Y-87629135D01*
X94143021Y-87645896D01*
X94066085Y-87641500D01*
X93994277Y-87607794D01*
X93901885Y-87631013D01*
X93752477Y-87645896D01*
X93623517Y-87639302D01*
X93536139Y-87598970D01*
X93405072Y-87521181D01*
X93274005Y-87422643D01*
X93157501Y-87317634D01*
X92857083Y-87317634D01*
X92837964Y-87269403D01*
X92791893Y-87126254D01*
X92760551Y-86969920D01*
X92750104Y-86816448D01*
X92750425Y-86806922D01*
X92902512Y-86806922D01*
X92904521Y-86877530D01*
X92922660Y-87028570D01*
X92959665Y-87176950D01*
X93231507Y-87176950D01*
X93279581Y-87228241D01*
X93392351Y-87332930D01*
X93511498Y-87422780D01*
X93651360Y-87505212D01*
X93717306Y-87505212D01*
X93760537Y-87505212D01*
X93562700Y-87403363D01*
X93601778Y-87344991D01*
X93612269Y-87335219D01*
X93787648Y-87335219D01*
X94085136Y-87503014D01*
X94159141Y-87505212D01*
X94247627Y-87491474D01*
X94326936Y-87364528D01*
X94148150Y-87364528D01*
X93874842Y-87309574D01*
X93787648Y-87335219D01*
X93612269Y-87335219D01*
X93712177Y-87242163D01*
X93603000Y-87192337D01*
X93626839Y-87146740D01*
X93653048Y-87103677D01*
X93819888Y-87103677D01*
X94188450Y-87237034D01*
X94370167Y-87223845D01*
X94507920Y-87200397D01*
X94549685Y-87134452D01*
X94529902Y-87083161D01*
X94236810Y-87083161D01*
X94023586Y-86993768D01*
X93938521Y-87013946D01*
X93819888Y-87103677D01*
X93653048Y-87103677D01*
X93708407Y-87012719D01*
X93822086Y-86905840D01*
X93708513Y-86856015D01*
X93743007Y-86789337D01*
X93913677Y-86789337D01*
X94278576Y-86942477D01*
X94492533Y-86942477D01*
X94513692Y-86942213D01*
X94661793Y-86912435D01*
X94714549Y-86828904D01*
X94680844Y-86774682D01*
X94568736Y-86754898D01*
X94293230Y-86754898D01*
X94199441Y-86682358D01*
X94117376Y-86661109D01*
X94015181Y-86682272D01*
X93913677Y-86789337D01*
X93743007Y-86789337D01*
X93749202Y-86777361D01*
X93839511Y-86651515D01*
X93870537Y-86627983D01*
X93868363Y-86570362D01*
X93946509Y-86570362D01*
X93950627Y-86567239D01*
X93949581Y-86567320D01*
X93946509Y-86570362D01*
X93868363Y-86570362D01*
X93867042Y-86535370D01*
X94185511Y-86535370D01*
X94230949Y-86545338D01*
X94340125Y-86614214D01*
X94407536Y-86614214D01*
X94397553Y-86606338D01*
X94287369Y-86505771D01*
X94247630Y-86520196D01*
X94185511Y-86535370D01*
X93867042Y-86535370D01*
X93865317Y-86489651D01*
X93912212Y-86426636D01*
X94015893Y-86422148D01*
X94168667Y-86398586D01*
X94318143Y-86354829D01*
X94385051Y-86411106D01*
X94516392Y-86488729D01*
X94665457Y-86520425D01*
X94685476Y-86520148D01*
X94832519Y-86488918D01*
X94613977Y-86269832D01*
X94834717Y-86269832D01*
X95050139Y-86496978D01*
X94995184Y-86534347D01*
X95436287Y-86520425D01*
X95495947Y-86519944D01*
X95650061Y-86512732D01*
X95797522Y-86489651D01*
X95911828Y-86411249D01*
X95828591Y-86321314D01*
X95680614Y-86291948D01*
X95533007Y-86285952D01*
X94834717Y-86269832D01*
X94613977Y-86269832D01*
X94537962Y-86193628D01*
X94028715Y-86151130D01*
X93920775Y-86188133D01*
X93768414Y-86246385D01*
X93624991Y-86304018D01*
X93486384Y-86361177D01*
X93330425Y-86426636D01*
X92967725Y-86426636D01*
X92942314Y-86506943D01*
X92911682Y-86660365D01*
X92902512Y-86806922D01*
X92750425Y-86806922D01*
X92752984Y-86730853D01*
X92772684Y-86579307D01*
X92811047Y-86431007D01*
X92868073Y-86285952D01*
X93317969Y-86285952D01*
X93434576Y-86227391D01*
X93579212Y-86162456D01*
X93733105Y-86101167D01*
X93872381Y-86051536D01*
X94018457Y-86004584D01*
X94596580Y-86054410D01*
G37*
G36*
X86730739Y-85954026D02*
G01*
X87388729Y-85713691D01*
X87270027Y-86404654D01*
X87928018Y-86644989D01*
X87390928Y-87097083D01*
X87741172Y-87705247D01*
X87040683Y-87705247D01*
X86917585Y-88395478D01*
X86379762Y-87945582D01*
X85842672Y-88395478D01*
X85718841Y-87705247D01*
X85018353Y-87705247D01*
X85368597Y-87097083D01*
X85157069Y-86919030D01*
X85512944Y-86919030D01*
X85515179Y-86985559D01*
X85537774Y-87133582D01*
X85593393Y-87290385D01*
X85668130Y-87416770D01*
X85767201Y-87533056D01*
X85799304Y-87563756D01*
X85918155Y-87655609D01*
X86066349Y-87730874D01*
X86227733Y-87774449D01*
X86379762Y-87786580D01*
X86445905Y-87784352D01*
X86593227Y-87761822D01*
X86749573Y-87706363D01*
X86875857Y-87631841D01*
X86992323Y-87533056D01*
X87037762Y-87484456D01*
X87126404Y-87363842D01*
X87197914Y-87213632D01*
X87234414Y-87071380D01*
X87246580Y-86919030D01*
X87245590Y-86874473D01*
X87226526Y-86725063D01*
X87175029Y-86566760D01*
X87091841Y-86421737D01*
X86993056Y-86305736D01*
X86944462Y-86260297D01*
X86823913Y-86171655D01*
X86673864Y-86100145D01*
X86531827Y-86063645D01*
X86379762Y-86051479D01*
X86313370Y-86053714D01*
X86165668Y-86076309D01*
X86009231Y-86131927D01*
X85883167Y-86206665D01*
X85767201Y-86305736D01*
X85721763Y-86354205D01*
X85633120Y-86474564D01*
X85561611Y-86624567D01*
X85525111Y-86766714D01*
X85512944Y-86919030D01*
X85157069Y-86919030D01*
X84831507Y-86644989D01*
X85490230Y-86404654D01*
X85368597Y-85713691D01*
X86026587Y-85954026D01*
X86379762Y-85323147D01*
X86730739Y-85954026D01*
G37*
G36*
X132580635Y-98854410D02*
G01*
X132664898Y-98927683D01*
X133498743Y-98945268D01*
X133619763Y-98947968D01*
X133776926Y-98963120D01*
X133918597Y-99001688D01*
X133999247Y-99062283D01*
X134043161Y-99203921D01*
X134024923Y-99289822D01*
X133913468Y-99392233D01*
X133841477Y-99418840D01*
X133694018Y-99445863D01*
X133539776Y-99453049D01*
X132798255Y-99461109D01*
X132784333Y-99455247D01*
X132821702Y-99504340D01*
X132850279Y-99623775D01*
X132850078Y-99635106D01*
X132798988Y-99776915D01*
X132673691Y-99858981D01*
X132687613Y-99934452D01*
X132686605Y-99958700D01*
X132623133Y-100091256D01*
X132597742Y-100111142D01*
X132459734Y-100161598D01*
X132460467Y-100177718D01*
X132459165Y-100210192D01*
X132405444Y-100351353D01*
X132272934Y-100429135D01*
X132127076Y-100445896D01*
X132050139Y-100441500D01*
X131978332Y-100407794D01*
X131885939Y-100431013D01*
X131736531Y-100445896D01*
X131607571Y-100439302D01*
X131520193Y-100398970D01*
X131389126Y-100321181D01*
X131258060Y-100222643D01*
X131141556Y-100117634D01*
X130841137Y-100117634D01*
X130822019Y-100069403D01*
X130775947Y-99926254D01*
X130744606Y-99769920D01*
X130734159Y-99616448D01*
X130734480Y-99606922D01*
X130886566Y-99606922D01*
X130888575Y-99677530D01*
X130906715Y-99828570D01*
X130943719Y-99976950D01*
X131215561Y-99976950D01*
X131263635Y-100028241D01*
X131376406Y-100132930D01*
X131495552Y-100222780D01*
X131635415Y-100305212D01*
X131701360Y-100305212D01*
X131744591Y-100305212D01*
X131546755Y-100203363D01*
X131585832Y-100144991D01*
X131596323Y-100135219D01*
X131771702Y-100135219D01*
X132069190Y-100303014D01*
X132143196Y-100305212D01*
X132231681Y-100291474D01*
X132310990Y-100164528D01*
X132132205Y-100164528D01*
X131858897Y-100109574D01*
X131771702Y-100135219D01*
X131596323Y-100135219D01*
X131696231Y-100042163D01*
X131587055Y-99992337D01*
X131610893Y-99946740D01*
X131637102Y-99903677D01*
X131803942Y-99903677D01*
X132172505Y-100037034D01*
X132354221Y-100023845D01*
X132491974Y-100000397D01*
X132533740Y-99934452D01*
X132513956Y-99883161D01*
X132220865Y-99883161D01*
X132007641Y-99793768D01*
X131922576Y-99813946D01*
X131803942Y-99903677D01*
X131637102Y-99903677D01*
X131692462Y-99812719D01*
X131806140Y-99705840D01*
X131692568Y-99656015D01*
X131727062Y-99589337D01*
X131897732Y-99589337D01*
X132262630Y-99742477D01*
X132476587Y-99742477D01*
X132497747Y-99742213D01*
X132645847Y-99712435D01*
X132698604Y-99628904D01*
X132664898Y-99574682D01*
X132552791Y-99554898D01*
X132277285Y-99554898D01*
X132183496Y-99482358D01*
X132101430Y-99461109D01*
X131999236Y-99482272D01*
X131897732Y-99589337D01*
X131727062Y-99589337D01*
X131733257Y-99577361D01*
X131823566Y-99451515D01*
X131854591Y-99427984D01*
X131852417Y-99370365D01*
X131930560Y-99370365D01*
X131934682Y-99367239D01*
X131933635Y-99367320D01*
X131930560Y-99370365D01*
X131852417Y-99370365D01*
X131851096Y-99335370D01*
X132169565Y-99335370D01*
X132215003Y-99345338D01*
X132324180Y-99414214D01*
X132391591Y-99414214D01*
X132381607Y-99406338D01*
X132271423Y-99305771D01*
X132231684Y-99320196D01*
X132169565Y-99335370D01*
X131851096Y-99335370D01*
X131849371Y-99289651D01*
X131896266Y-99226636D01*
X131999947Y-99222148D01*
X132152721Y-99198586D01*
X132302198Y-99154829D01*
X132369105Y-99211106D01*
X132500447Y-99288729D01*
X132649511Y-99320425D01*
X132669531Y-99320148D01*
X132816573Y-99288918D01*
X132598031Y-99069832D01*
X132818771Y-99069832D01*
X133034193Y-99296978D01*
X132979239Y-99334347D01*
X133420341Y-99320425D01*
X133480002Y-99319944D01*
X133634115Y-99312732D01*
X133781577Y-99289651D01*
X133895882Y-99211249D01*
X133812645Y-99121314D01*
X133664668Y-99091948D01*
X133517062Y-99085952D01*
X132818771Y-99069832D01*
X132598031Y-99069832D01*
X132522016Y-98993628D01*
X132012770Y-98951130D01*
X131904830Y-98988133D01*
X131752468Y-99046385D01*
X131609045Y-99104018D01*
X131470438Y-99161177D01*
X131314480Y-99226636D01*
X130951779Y-99226636D01*
X130926369Y-99306943D01*
X130895737Y-99460365D01*
X130886566Y-99606922D01*
X130734480Y-99606922D01*
X130737039Y-99530853D01*
X130756739Y-99379307D01*
X130795102Y-99231007D01*
X130852128Y-99085952D01*
X131302023Y-99085952D01*
X131418630Y-99027391D01*
X131563267Y-98962456D01*
X131717160Y-98901167D01*
X131856435Y-98851536D01*
X132002512Y-98804584D01*
X132580635Y-98854410D01*
G37*
G36*
X125178611Y-98898374D02*
G01*
X125889357Y-98898374D01*
X125889357Y-99789371D01*
X125178611Y-99789371D01*
X125178611Y-101088499D01*
X124960990Y-101290000D01*
X124113956Y-101290000D01*
X124113956Y-99976950D01*
X123402477Y-99976950D01*
X123402477Y-99132847D01*
X123855303Y-99132847D01*
X123855303Y-99554898D01*
X124566782Y-99554898D01*
X124566782Y-100867948D01*
X124928018Y-100867948D01*
X124928018Y-99554898D01*
X125638764Y-99554898D01*
X125638764Y-99132847D01*
X124928018Y-99132847D01*
X124928018Y-98476322D01*
X124566782Y-98476322D01*
X124566782Y-99132847D01*
X123855303Y-99132847D01*
X123402477Y-99132847D01*
X123402477Y-99099141D01*
X123618632Y-98898374D01*
X124113956Y-98898374D01*
X124113956Y-98442616D01*
X124332309Y-98241849D01*
X125178611Y-98241849D01*
X125178611Y-98898374D01*
G37*
G36*
X118354710Y-99772519D02*
G01*
X118568667Y-99273531D01*
X118290963Y-99273531D01*
X118075540Y-99618646D01*
X116939811Y-99582742D01*
X117501081Y-98241849D01*
X117147906Y-98241849D01*
X116282554Y-99554898D01*
X116094975Y-99554898D01*
X115943066Y-99563453D01*
X115794624Y-99591607D01*
X115766713Y-99599595D01*
X115634822Y-99642093D01*
X115499002Y-99710424D01*
X115472156Y-99763726D01*
X115579541Y-99869250D01*
X115634822Y-99889755D01*
X115766713Y-99932254D01*
X115913480Y-99964335D01*
X116066151Y-99976557D01*
X116100837Y-99976950D01*
X116281821Y-99986475D01*
X117147906Y-101290000D01*
X117501081Y-101290000D01*
X116940544Y-99961563D01*
X118075540Y-99925659D01*
X118291695Y-100258318D01*
X118568667Y-100258318D01*
X118354710Y-99772519D01*
G37*
G36*
X140443161Y-98393489D02*
G01*
X140059211Y-101490000D01*
X139806420Y-101490000D01*
X139985205Y-100044326D01*
X139855066Y-99930029D01*
X139723484Y-99839380D01*
X139590459Y-99772378D01*
X139433441Y-99724097D01*
X139274459Y-99708004D01*
X139374110Y-100423879D01*
X139375175Y-100432667D01*
X139320203Y-100573471D01*
X139193126Y-100654689D01*
X139169238Y-100664982D01*
X139022095Y-100709721D01*
X138865188Y-100732962D01*
X138705129Y-100739685D01*
X138539440Y-100734957D01*
X138376866Y-100720772D01*
X138217406Y-100697130D01*
X138061060Y-100664031D01*
X137907828Y-100621476D01*
X137757711Y-100569463D01*
X137610707Y-100507994D01*
X137466817Y-100437069D01*
X137326923Y-100356606D01*
X137191907Y-100266892D01*
X137061767Y-100167928D01*
X136936505Y-100059713D01*
X136907219Y-100031137D01*
X137256524Y-100031137D01*
X137293290Y-100060304D01*
X137446590Y-100167711D01*
X137609874Y-100260304D01*
X137783141Y-100338082D01*
X137966392Y-100401045D01*
X138110382Y-100438545D01*
X138259987Y-100467712D01*
X138415209Y-100488546D01*
X138576045Y-100501046D01*
X138742498Y-100505212D01*
X138770247Y-100505029D01*
X138928152Y-100494908D01*
X139075889Y-100458318D01*
X139100962Y-100445804D01*
X139182868Y-100324228D01*
X139160886Y-100272937D01*
X139078820Y-100229706D01*
X139035408Y-100207023D01*
X138909179Y-100125942D01*
X138814305Y-100000362D01*
X138789979Y-99884591D01*
X138933007Y-99884591D01*
X138933218Y-99890743D01*
X139017156Y-100013334D01*
X139148429Y-100096350D01*
X139172609Y-100108806D01*
X139126448Y-99728520D01*
X139024438Y-99761393D01*
X138933007Y-99884591D01*
X138789979Y-99884591D01*
X138735170Y-99623740D01*
X138703127Y-99649120D01*
X138568815Y-99742583D01*
X138424679Y-99823154D01*
X138270720Y-99890834D01*
X138106938Y-99945623D01*
X137933333Y-99987520D01*
X137749905Y-100016526D01*
X137556653Y-100032640D01*
X137405268Y-100036266D01*
X137256524Y-100031137D01*
X136907219Y-100031137D01*
X136816120Y-99942248D01*
X136700612Y-99815532D01*
X136589982Y-99679565D01*
X136484228Y-99534347D01*
X136582643Y-99597030D01*
X136736619Y-99675383D01*
X136898220Y-99734931D01*
X137067446Y-99775675D01*
X137214292Y-99795263D01*
X137366434Y-99801793D01*
X137560801Y-99794809D01*
X137746765Y-99773858D01*
X137924326Y-99738939D01*
X138093483Y-99690052D01*
X138254237Y-99627197D01*
X138406588Y-99550375D01*
X138550534Y-99459586D01*
X138686078Y-99354829D01*
X138637718Y-99095443D01*
X138628581Y-99043836D01*
X138623259Y-98986999D01*
X138780600Y-98986999D01*
X138784206Y-99057272D01*
X138806245Y-99208283D01*
X138875854Y-99562923D01*
X138945235Y-99523814D01*
X139091382Y-99484094D01*
X139247348Y-99473531D01*
X139298968Y-99474750D01*
X139451184Y-99493039D01*
X139599432Y-99533277D01*
X139743714Y-99595461D01*
X139884029Y-99679593D01*
X140020376Y-99785673D01*
X140129553Y-98859504D01*
X139994785Y-98779712D01*
X139841187Y-98701814D01*
X139696450Y-98643391D01*
X139538790Y-98599843D01*
X139373377Y-98582533D01*
X139233532Y-98591632D01*
X139083549Y-98627470D01*
X138946196Y-98697571D01*
X138916602Y-98719662D01*
X138816986Y-98836550D01*
X138780600Y-98986999D01*
X138623259Y-98986999D01*
X138614270Y-98891011D01*
X138639119Y-98738587D01*
X138713667Y-98605731D01*
X138824563Y-98501933D01*
X138906755Y-98449640D01*
X139043566Y-98391487D01*
X139196606Y-98357677D01*
X139346266Y-98348060D01*
X139402426Y-98348998D01*
X139566680Y-98363080D01*
X139724597Y-98394061D01*
X139876178Y-98441940D01*
X140021421Y-98506718D01*
X140160327Y-98588394D01*
X140188904Y-98387627D01*
X140388206Y-97903293D01*
X140443161Y-98393489D01*
G37*
G36*
X110044023Y-97920542D02*
G01*
X110168213Y-98001514D01*
X110216024Y-98109225D01*
X110231960Y-98256503D01*
X110208513Y-99234696D01*
X110432728Y-98378136D01*
X110467092Y-98284009D01*
X110559004Y-98154179D01*
X110705303Y-98101165D01*
X110738573Y-98102703D01*
X110873098Y-98164180D01*
X110900725Y-98204320D01*
X110930251Y-98349560D01*
X110922257Y-98421648D01*
X110888485Y-98567913D01*
X110645219Y-99389302D01*
X110981542Y-98810446D01*
X110989195Y-98798545D01*
X111089734Y-98678212D01*
X111232135Y-98617006D01*
X111248389Y-98617553D01*
X111381612Y-98679288D01*
X111392611Y-98691066D01*
X111443161Y-98829497D01*
X111417104Y-98948392D01*
X111350837Y-99080090D01*
X110961758Y-99735150D01*
X110983740Y-99979148D01*
X110956958Y-100149550D01*
X110923324Y-100307949D01*
X110882838Y-100454343D01*
X110826944Y-100609964D01*
X110761723Y-100749246D01*
X110585868Y-100951479D01*
X110585868Y-101185952D01*
X110555263Y-101198552D01*
X110401805Y-101249356D01*
X110247631Y-101279839D01*
X110092742Y-101290000D01*
X110032200Y-101288385D01*
X109875236Y-101270224D01*
X109727116Y-101236627D01*
X109572505Y-101186685D01*
X109572505Y-100886999D01*
X109518409Y-100848212D01*
X109401630Y-100756363D01*
X109286741Y-100657426D01*
X109176831Y-100556538D01*
X108797278Y-100048025D01*
X108343409Y-99614982D01*
X108553279Y-99614982D01*
X108917445Y-99957166D01*
X109263293Y-100422449D01*
X109355205Y-100509781D01*
X109476013Y-100616241D01*
X109598871Y-100718170D01*
X109718318Y-100812993D01*
X109718318Y-101085568D01*
X109777190Y-101103933D01*
X109924063Y-101137114D01*
X110072226Y-101149316D01*
X110132980Y-101147777D01*
X110283071Y-101129377D01*
X110431995Y-101086301D01*
X110431995Y-100913377D01*
X110625436Y-100681102D01*
X110677205Y-100569973D01*
X110730244Y-100428212D01*
X110775359Y-100273407D01*
X110807722Y-100130336D01*
X110834263Y-99977683D01*
X110808618Y-99693384D01*
X111224808Y-98999490D01*
X111245705Y-98962757D01*
X111297348Y-98824368D01*
X111283426Y-98773077D01*
X111238729Y-98757690D01*
X111208854Y-98767543D01*
X111111967Y-98882254D01*
X110654012Y-99604724D01*
X110467166Y-99518262D01*
X110747801Y-98511493D01*
X110752238Y-98495991D01*
X110784438Y-98345896D01*
X110763921Y-98266029D01*
X110700907Y-98241849D01*
X110597581Y-98332867D01*
X110546301Y-98474856D01*
X110282519Y-99429602D01*
X110079553Y-99395163D01*
X110079553Y-98347362D01*
X110081751Y-98217669D01*
X110054640Y-98092372D01*
X109975505Y-98054270D01*
X109884201Y-98151586D01*
X109869260Y-98303398D01*
X109870725Y-98369344D01*
X109896371Y-99414214D01*
X109678018Y-99414214D01*
X109373935Y-98490244D01*
X109340413Y-98402087D01*
X109237648Y-98288743D01*
X109187090Y-98311458D01*
X109170237Y-98386929D01*
X109176888Y-98453217D01*
X109210537Y-98597955D01*
X109472121Y-99574682D01*
X109443991Y-99686160D01*
X109419364Y-99831137D01*
X109432123Y-99838193D01*
X109563964Y-99928372D01*
X109670295Y-100030339D01*
X109763747Y-100151339D01*
X109650174Y-100241465D01*
X109584194Y-100166349D01*
X109460630Y-100049827D01*
X109326757Y-99952309D01*
X109182577Y-99873795D01*
X109028087Y-99814284D01*
X108977437Y-99729087D01*
X108876413Y-99616448D01*
X108851186Y-99598716D01*
X108705687Y-99554898D01*
X108690776Y-99555426D01*
X108553279Y-99614982D01*
X108343409Y-99614982D01*
X108334193Y-99606189D01*
X108396475Y-99558562D01*
X108418535Y-99541082D01*
X108552291Y-99454953D01*
X108702023Y-99414214D01*
X108804366Y-99426186D01*
X108940893Y-99486755D01*
X109042742Y-99574682D01*
X109131402Y-99694849D01*
X109138290Y-99697259D01*
X109279413Y-99754200D01*
X109283063Y-99719872D01*
X109310188Y-99574682D01*
X109055931Y-98597222D01*
X109036741Y-98508184D01*
X109022226Y-98361284D01*
X109022702Y-98341957D01*
X109076448Y-98202281D01*
X109090793Y-98189573D01*
X109235450Y-98148060D01*
X109279883Y-98153589D01*
X109401229Y-98236536D01*
X109480474Y-98364068D01*
X109535136Y-98501967D01*
X109771074Y-99274996D01*
X109724912Y-98296803D01*
X109725900Y-98250398D01*
X109749599Y-98094716D01*
X109833780Y-97958869D01*
X109977704Y-97913586D01*
X110044023Y-97920542D01*
G37*
G36*
X102712571Y-97984645D02*
G01*
X102815053Y-98101279D01*
X102853384Y-98255771D01*
X102850267Y-98316590D01*
X102818751Y-98469922D01*
X102764724Y-98614075D01*
X102734682Y-98681486D01*
X103356769Y-98220600D01*
X103374159Y-98240123D01*
X103459851Y-98363256D01*
X103500383Y-98514424D01*
X103493550Y-98575314D01*
X103430408Y-98717206D01*
X103329545Y-98841415D01*
X103220481Y-98943070D01*
X102848988Y-99264005D01*
X103315003Y-99706573D01*
X103315003Y-100352107D01*
X103260818Y-100350481D01*
X103147231Y-100328876D01*
X103232039Y-100418934D01*
X103311339Y-100551409D01*
X102691451Y-100808597D01*
X102232030Y-100856957D01*
X102141813Y-100927413D01*
X101997901Y-101019789D01*
X101843684Y-101096193D01*
X101679164Y-101156626D01*
X101534192Y-101194786D01*
X101382065Y-101221856D01*
X101171772Y-101433614D01*
X101051550Y-101384164D01*
X100919952Y-101298016D01*
X100797680Y-101181224D01*
X100700298Y-101056726D01*
X100612477Y-100914110D01*
X100790753Y-100914110D01*
X100806355Y-100941538D01*
X100896300Y-101068979D01*
X101006138Y-101180248D01*
X101135868Y-101275345D01*
X101324912Y-101069448D01*
X101473916Y-101050969D01*
X101617302Y-101018429D01*
X101781952Y-100960821D01*
X101938512Y-100882966D01*
X102062801Y-100802620D01*
X102181472Y-100708213D01*
X102648953Y-100665715D01*
X103089323Y-100482533D01*
X102992197Y-100388917D01*
X102848255Y-100352107D01*
X102728820Y-100372623D01*
X102602058Y-100438569D01*
X102550696Y-100426562D01*
X102404954Y-100386545D01*
X102369426Y-100377389D01*
X102222505Y-100346978D01*
X102204351Y-100284818D01*
X102171551Y-100132912D01*
X102164569Y-100047292D01*
X102313363Y-100047292D01*
X102314415Y-100075958D01*
X102335345Y-100222414D01*
X102424423Y-100244433D01*
X102572749Y-100284696D01*
X102577283Y-100282513D01*
X102717829Y-100230474D01*
X102852651Y-100211423D01*
X102950785Y-100226560D01*
X102866869Y-100098085D01*
X102830669Y-99935917D01*
X102710456Y-99882502D01*
X102575680Y-99811353D01*
X102537212Y-99853583D01*
X102428218Y-99955724D01*
X102313363Y-100047292D01*
X102164569Y-100047292D01*
X102159490Y-99985010D01*
X102215990Y-99938367D01*
X102335665Y-99833923D01*
X102445022Y-99730175D01*
X102554431Y-99615715D01*
X102566117Y-99623907D01*
X102701847Y-99707317D01*
X102836657Y-99772476D01*
X102982344Y-99827473D01*
X102979413Y-99919797D01*
X102982344Y-99975267D01*
X103038764Y-100122709D01*
X103166992Y-100197501D01*
X103169190Y-99768855D01*
X102722226Y-99349734D01*
X101837822Y-99551235D01*
X100790753Y-100914110D01*
X100612477Y-100914110D01*
X100609769Y-100909713D01*
X101596022Y-99616448D01*
X101605161Y-99543913D01*
X101625429Y-99365833D01*
X101628790Y-99330683D01*
X101789462Y-99330683D01*
X101789869Y-99329951D01*
X102110397Y-99329951D01*
X102671667Y-99214180D01*
X103058548Y-98892512D01*
X103183570Y-98779580D01*
X103289615Y-98655674D01*
X103344312Y-98514424D01*
X103325994Y-98435289D01*
X102110397Y-99329951D01*
X101789869Y-99329951D01*
X101859943Y-99203921D01*
X102035659Y-99203921D01*
X102489951Y-98863935D01*
X102588136Y-98649246D01*
X102627978Y-98556982D01*
X102679613Y-98410981D01*
X102705373Y-98260167D01*
X102705110Y-98248274D01*
X102637962Y-98117285D01*
X102035659Y-99203921D01*
X101859943Y-99203921D01*
X101989497Y-98970914D01*
X101994065Y-98913046D01*
X102001221Y-98766482D01*
X102001174Y-98752640D01*
X101992105Y-98595479D01*
X101953593Y-98447745D01*
X101937515Y-98419503D01*
X101817306Y-98327578D01*
X101821556Y-98404472D01*
X101825366Y-98553991D01*
X101824489Y-98702204D01*
X101821123Y-98866931D01*
X101815233Y-99017335D01*
X101805170Y-99174704D01*
X101789462Y-99330683D01*
X101628790Y-99330683D01*
X101642012Y-99192404D01*
X101654910Y-99023626D01*
X101664123Y-98859499D01*
X101669650Y-98700023D01*
X101671493Y-98545198D01*
X101670974Y-98483882D01*
X101664770Y-98333503D01*
X101650244Y-98186161D01*
X101747697Y-98148060D01*
X101809418Y-98152046D01*
X101948819Y-98201654D01*
X102051584Y-98307957D01*
X102111451Y-98447479D01*
X102140439Y-98601618D01*
X102149965Y-98685150D01*
X102580809Y-97906992D01*
X102712571Y-97984645D01*
G37*
G36*
X94849321Y-98851536D02*
G01*
X94988596Y-98901167D01*
X95142489Y-98962456D01*
X95287126Y-99027391D01*
X95403733Y-99085952D01*
X95853628Y-99085952D01*
X95910654Y-99231007D01*
X95949017Y-99379307D01*
X95968717Y-99530853D01*
X95971598Y-99616448D01*
X95961150Y-99769920D01*
X95929809Y-99926254D01*
X95883737Y-100069403D01*
X95864619Y-100117634D01*
X95564200Y-100117634D01*
X95447697Y-100222643D01*
X95316630Y-100321181D01*
X95185563Y-100398970D01*
X95098185Y-100439302D01*
X94969225Y-100445896D01*
X94819817Y-100431013D01*
X94727424Y-100407794D01*
X94655617Y-100441500D01*
X94578681Y-100445896D01*
X94432822Y-100429135D01*
X94300312Y-100351353D01*
X94246591Y-100210192D01*
X94245289Y-100177718D01*
X94245889Y-100164528D01*
X94394766Y-100164528D01*
X94474075Y-100291474D01*
X94562561Y-100305212D01*
X94636566Y-100303014D01*
X94934054Y-100135219D01*
X94846859Y-100109574D01*
X94573551Y-100164528D01*
X94394766Y-100164528D01*
X94245889Y-100164528D01*
X94246022Y-100161598D01*
X94108014Y-100111142D01*
X94082623Y-100091256D01*
X94019151Y-99958700D01*
X94018143Y-99934452D01*
X94172016Y-99934452D01*
X94213782Y-100000397D01*
X94351535Y-100023845D01*
X94533251Y-100037034D01*
X94901814Y-99903677D01*
X94783181Y-99813946D01*
X94698115Y-99793768D01*
X94484891Y-99883161D01*
X94191800Y-99883161D01*
X94172016Y-99934452D01*
X94018143Y-99934452D01*
X94032065Y-99858981D01*
X93907501Y-99776915D01*
X93855681Y-99635106D01*
X93855570Y-99628904D01*
X94007152Y-99628904D01*
X94060642Y-99712435D01*
X94208016Y-99742213D01*
X94229169Y-99742477D01*
X94443126Y-99742477D01*
X94808025Y-99589337D01*
X94706520Y-99482272D01*
X94604326Y-99461109D01*
X94522993Y-99482358D01*
X94428471Y-99554898D01*
X94152965Y-99554898D01*
X94040858Y-99574682D01*
X94007152Y-99628904D01*
X93855570Y-99628904D01*
X93855478Y-99623775D01*
X93884787Y-99504340D01*
X93921423Y-99455247D01*
X93907501Y-99461109D01*
X93165980Y-99453049D01*
X93011738Y-99445863D01*
X92864279Y-99418840D01*
X92851762Y-99414214D01*
X94314166Y-99414214D01*
X94381577Y-99414214D01*
X94456038Y-99367239D01*
X94771074Y-99367239D01*
X94775192Y-99370363D01*
X94772121Y-99367320D01*
X94771074Y-99367239D01*
X94456038Y-99367239D01*
X94490753Y-99345338D01*
X94536190Y-99335370D01*
X94474072Y-99320196D01*
X94434333Y-99305771D01*
X94324149Y-99406338D01*
X94314166Y-99414214D01*
X92851762Y-99414214D01*
X92792288Y-99392233D01*
X92680834Y-99289822D01*
X92664151Y-99211249D01*
X92809874Y-99211249D01*
X92924180Y-99289651D01*
X93071641Y-99312732D01*
X93225755Y-99319944D01*
X93285415Y-99320425D01*
X93726517Y-99334347D01*
X93671563Y-99296978D01*
X93679207Y-99288918D01*
X93889183Y-99288918D01*
X94036225Y-99320148D01*
X94056245Y-99320425D01*
X94205310Y-99288729D01*
X94336651Y-99211106D01*
X94403558Y-99154829D01*
X94553035Y-99198586D01*
X94705809Y-99222148D01*
X94809490Y-99226636D01*
X94856385Y-99289651D01*
X94851164Y-99427983D01*
X94882190Y-99451515D01*
X94972499Y-99577361D01*
X95013189Y-99656015D01*
X94899616Y-99705840D01*
X95013295Y-99812719D01*
X95094863Y-99946740D01*
X95118702Y-99992337D01*
X95009525Y-100042163D01*
X95119924Y-100144991D01*
X95159002Y-100203363D01*
X94961165Y-100305212D01*
X95004396Y-100305212D01*
X95070341Y-100305212D01*
X95210204Y-100222780D01*
X95329350Y-100132930D01*
X95442121Y-100028241D01*
X95490195Y-99976950D01*
X95762037Y-99976950D01*
X95799041Y-99828570D01*
X95817181Y-99677530D01*
X95819190Y-99606922D01*
X95810019Y-99460365D01*
X95779387Y-99306943D01*
X95753977Y-99226636D01*
X95391277Y-99226636D01*
X95235318Y-99161177D01*
X95096711Y-99104018D01*
X94953288Y-99046385D01*
X94800926Y-98988133D01*
X94692986Y-98951130D01*
X94183740Y-98993628D01*
X93889183Y-99288918D01*
X93679207Y-99288918D01*
X93886985Y-99069832D01*
X93188695Y-99085952D01*
X93041088Y-99091948D01*
X92893111Y-99121314D01*
X92809874Y-99211249D01*
X92664151Y-99211249D01*
X92662595Y-99203921D01*
X92706509Y-99062283D01*
X92787159Y-99001688D01*
X92928831Y-98963120D01*
X93085993Y-98947968D01*
X93207013Y-98945268D01*
X94040858Y-98927683D01*
X94125122Y-98854410D01*
X94703244Y-98804584D01*
X94849321Y-98851536D01*
G37*
G36*
X86642498Y-98754026D02*
G01*
X87300488Y-98513691D01*
X87181786Y-99204654D01*
X87839776Y-99444989D01*
X87302686Y-99897083D01*
X87652930Y-100505247D01*
X86952442Y-100505247D01*
X86829344Y-101195478D01*
X86291521Y-100745582D01*
X85754431Y-101195478D01*
X85630600Y-100505247D01*
X84930111Y-100505247D01*
X85280355Y-99897083D01*
X85068827Y-99719030D01*
X85424703Y-99719030D01*
X85426938Y-99785559D01*
X85449533Y-99933582D01*
X85505151Y-100090385D01*
X85579889Y-100216770D01*
X85678960Y-100333056D01*
X85711062Y-100363756D01*
X85829913Y-100455609D01*
X85978108Y-100530874D01*
X86139491Y-100574449D01*
X86291521Y-100586580D01*
X86357664Y-100584352D01*
X86504985Y-100561822D01*
X86661331Y-100506363D01*
X86787615Y-100431841D01*
X86904082Y-100333056D01*
X86949520Y-100284456D01*
X87038163Y-100163842D01*
X87109672Y-100013632D01*
X87146172Y-99871380D01*
X87158339Y-99719030D01*
X87157348Y-99674473D01*
X87138284Y-99525063D01*
X87086787Y-99366760D01*
X87003600Y-99221737D01*
X86904815Y-99105736D01*
X86856221Y-99060297D01*
X86735672Y-98971655D01*
X86585623Y-98900145D01*
X86443586Y-98863645D01*
X86291521Y-98851479D01*
X86225129Y-98853714D01*
X86077427Y-98876309D01*
X85920989Y-98931927D01*
X85794925Y-99006665D01*
X85678960Y-99105736D01*
X85633521Y-99154205D01*
X85544879Y-99274564D01*
X85473369Y-99424567D01*
X85436870Y-99566714D01*
X85424703Y-99719030D01*
X85068827Y-99719030D01*
X84743265Y-99444989D01*
X85401988Y-99204654D01*
X85280355Y-98513691D01*
X85938346Y-98754026D01*
X86291521Y-98123147D01*
X86642498Y-98754026D01*
G37*
D11*
X125454819Y-91966666D02*
X126169104Y-91966666D01*
X126169104Y-91966666D02*
X126311961Y-91919047D01*
X126311961Y-91919047D02*
X126407200Y-91823809D01*
X126407200Y-91823809D02*
X126454819Y-91680952D01*
X126454819Y-91680952D02*
X126454819Y-91585714D01*
X126454819Y-92442857D02*
X125454819Y-92442857D01*
X125454819Y-92442857D02*
X125454819Y-92823809D01*
X125454819Y-92823809D02*
X125502438Y-92919047D01*
X125502438Y-92919047D02*
X125550057Y-92966666D01*
X125550057Y-92966666D02*
X125645295Y-93014285D01*
X125645295Y-93014285D02*
X125788152Y-93014285D01*
X125788152Y-93014285D02*
X125883390Y-92966666D01*
X125883390Y-92966666D02*
X125931009Y-92919047D01*
X125931009Y-92919047D02*
X125978628Y-92823809D01*
X125978628Y-92823809D02*
X125978628Y-92442857D01*
X125454819Y-93871428D02*
X125454819Y-93680952D01*
X125454819Y-93680952D02*
X125502438Y-93585714D01*
X125502438Y-93585714D02*
X125550057Y-93538095D01*
X125550057Y-93538095D02*
X125692914Y-93442857D01*
X125692914Y-93442857D02*
X125883390Y-93395238D01*
X125883390Y-93395238D02*
X126264342Y-93395238D01*
X126264342Y-93395238D02*
X126359580Y-93442857D01*
X126359580Y-93442857D02*
X126407200Y-93490476D01*
X126407200Y-93490476D02*
X126454819Y-93585714D01*
X126454819Y-93585714D02*
X126454819Y-93776190D01*
X126454819Y-93776190D02*
X126407200Y-93871428D01*
X126407200Y-93871428D02*
X126359580Y-93919047D01*
X126359580Y-93919047D02*
X126264342Y-93966666D01*
X126264342Y-93966666D02*
X126026247Y-93966666D01*
X126026247Y-93966666D02*
X125931009Y-93919047D01*
X125931009Y-93919047D02*
X125883390Y-93871428D01*
X125883390Y-93871428D02*
X125835771Y-93776190D01*
X125835771Y-93776190D02*
X125835771Y-93585714D01*
X125835771Y-93585714D02*
X125883390Y-93490476D01*
X125883390Y-93490476D02*
X125931009Y-93442857D01*
X125931009Y-93442857D02*
X126026247Y-93395238D01*
X77983333Y-100984819D02*
X77983333Y-101699104D01*
X77983333Y-101699104D02*
X78030952Y-101841961D01*
X78030952Y-101841961D02*
X78126190Y-101937200D01*
X78126190Y-101937200D02*
X78269047Y-101984819D01*
X78269047Y-101984819D02*
X78364285Y-101984819D01*
X76983333Y-101984819D02*
X77554761Y-101984819D01*
X77269047Y-101984819D02*
X77269047Y-100984819D01*
X77269047Y-100984819D02*
X77364285Y-101127676D01*
X77364285Y-101127676D02*
X77459523Y-101222914D01*
X77459523Y-101222914D02*
X77554761Y-101270533D01*
X87654819Y-91966666D02*
X88369104Y-91966666D01*
X88369104Y-91966666D02*
X88511961Y-91919047D01*
X88511961Y-91919047D02*
X88607200Y-91823809D01*
X88607200Y-91823809D02*
X88654819Y-91680952D01*
X88654819Y-91680952D02*
X88654819Y-91585714D01*
X88654819Y-92442857D02*
X87654819Y-92442857D01*
X87654819Y-92442857D02*
X87654819Y-92823809D01*
X87654819Y-92823809D02*
X87702438Y-92919047D01*
X87702438Y-92919047D02*
X87750057Y-92966666D01*
X87750057Y-92966666D02*
X87845295Y-93014285D01*
X87845295Y-93014285D02*
X87988152Y-93014285D01*
X87988152Y-93014285D02*
X88083390Y-92966666D01*
X88083390Y-92966666D02*
X88131009Y-92919047D01*
X88131009Y-92919047D02*
X88178628Y-92823809D01*
X88178628Y-92823809D02*
X88178628Y-92442857D01*
X88654819Y-93966666D02*
X88654819Y-93395238D01*
X88654819Y-93680952D02*
X87654819Y-93680952D01*
X87654819Y-93680952D02*
X87797676Y-93585714D01*
X87797676Y-93585714D02*
X87892914Y-93490476D01*
X87892914Y-93490476D02*
X87940533Y-93395238D01*
X103454819Y-91966666D02*
X104169104Y-91966666D01*
X104169104Y-91966666D02*
X104311961Y-91919047D01*
X104311961Y-91919047D02*
X104407200Y-91823809D01*
X104407200Y-91823809D02*
X104454819Y-91680952D01*
X104454819Y-91680952D02*
X104454819Y-91585714D01*
X104454819Y-92442857D02*
X103454819Y-92442857D01*
X103454819Y-92442857D02*
X103454819Y-92823809D01*
X103454819Y-92823809D02*
X103502438Y-92919047D01*
X103502438Y-92919047D02*
X103550057Y-92966666D01*
X103550057Y-92966666D02*
X103645295Y-93014285D01*
X103645295Y-93014285D02*
X103788152Y-93014285D01*
X103788152Y-93014285D02*
X103883390Y-92966666D01*
X103883390Y-92966666D02*
X103931009Y-92919047D01*
X103931009Y-92919047D02*
X103978628Y-92823809D01*
X103978628Y-92823809D02*
X103978628Y-92442857D01*
X103454819Y-93347619D02*
X103454819Y-93966666D01*
X103454819Y-93966666D02*
X103835771Y-93633333D01*
X103835771Y-93633333D02*
X103835771Y-93776190D01*
X103835771Y-93776190D02*
X103883390Y-93871428D01*
X103883390Y-93871428D02*
X103931009Y-93919047D01*
X103931009Y-93919047D02*
X104026247Y-93966666D01*
X104026247Y-93966666D02*
X104264342Y-93966666D01*
X104264342Y-93966666D02*
X104359580Y-93919047D01*
X104359580Y-93919047D02*
X104407200Y-93871428D01*
X104407200Y-93871428D02*
X104454819Y-93776190D01*
X104454819Y-93776190D02*
X104454819Y-93490476D01*
X104454819Y-93490476D02*
X104407200Y-93395238D01*
X104407200Y-93395238D02*
X104359580Y-93347619D01*
X133054819Y-91966666D02*
X133769104Y-91966666D01*
X133769104Y-91966666D02*
X133911961Y-91919047D01*
X133911961Y-91919047D02*
X134007200Y-91823809D01*
X134007200Y-91823809D02*
X134054819Y-91680952D01*
X134054819Y-91680952D02*
X134054819Y-91585714D01*
X134054819Y-92442857D02*
X133054819Y-92442857D01*
X133054819Y-92442857D02*
X133054819Y-92823809D01*
X133054819Y-92823809D02*
X133102438Y-92919047D01*
X133102438Y-92919047D02*
X133150057Y-92966666D01*
X133150057Y-92966666D02*
X133245295Y-93014285D01*
X133245295Y-93014285D02*
X133388152Y-93014285D01*
X133388152Y-93014285D02*
X133483390Y-92966666D01*
X133483390Y-92966666D02*
X133531009Y-92919047D01*
X133531009Y-92919047D02*
X133578628Y-92823809D01*
X133578628Y-92823809D02*
X133578628Y-92442857D01*
X133054819Y-93347619D02*
X133054819Y-94014285D01*
X133054819Y-94014285D02*
X134054819Y-93585714D01*
X111254819Y-91966666D02*
X111969104Y-91966666D01*
X111969104Y-91966666D02*
X112111961Y-91919047D01*
X112111961Y-91919047D02*
X112207200Y-91823809D01*
X112207200Y-91823809D02*
X112254819Y-91680952D01*
X112254819Y-91680952D02*
X112254819Y-91585714D01*
X112254819Y-92442857D02*
X111254819Y-92442857D01*
X111254819Y-92442857D02*
X111254819Y-92823809D01*
X111254819Y-92823809D02*
X111302438Y-92919047D01*
X111302438Y-92919047D02*
X111350057Y-92966666D01*
X111350057Y-92966666D02*
X111445295Y-93014285D01*
X111445295Y-93014285D02*
X111588152Y-93014285D01*
X111588152Y-93014285D02*
X111683390Y-92966666D01*
X111683390Y-92966666D02*
X111731009Y-92919047D01*
X111731009Y-92919047D02*
X111778628Y-92823809D01*
X111778628Y-92823809D02*
X111778628Y-92442857D01*
X111588152Y-93871428D02*
X112254819Y-93871428D01*
X111207200Y-93633333D02*
X111921485Y-93395238D01*
X111921485Y-93395238D02*
X111921485Y-94014285D01*
X118254819Y-91966666D02*
X118969104Y-91966666D01*
X118969104Y-91966666D02*
X119111961Y-91919047D01*
X119111961Y-91919047D02*
X119207200Y-91823809D01*
X119207200Y-91823809D02*
X119254819Y-91680952D01*
X119254819Y-91680952D02*
X119254819Y-91585714D01*
X119254819Y-92442857D02*
X118254819Y-92442857D01*
X118254819Y-92442857D02*
X118254819Y-92823809D01*
X118254819Y-92823809D02*
X118302438Y-92919047D01*
X118302438Y-92919047D02*
X118350057Y-92966666D01*
X118350057Y-92966666D02*
X118445295Y-93014285D01*
X118445295Y-93014285D02*
X118588152Y-93014285D01*
X118588152Y-93014285D02*
X118683390Y-92966666D01*
X118683390Y-92966666D02*
X118731009Y-92919047D01*
X118731009Y-92919047D02*
X118778628Y-92823809D01*
X118778628Y-92823809D02*
X118778628Y-92442857D01*
X118254819Y-93919047D02*
X118254819Y-93442857D01*
X118254819Y-93442857D02*
X118731009Y-93395238D01*
X118731009Y-93395238D02*
X118683390Y-93442857D01*
X118683390Y-93442857D02*
X118635771Y-93538095D01*
X118635771Y-93538095D02*
X118635771Y-93776190D01*
X118635771Y-93776190D02*
X118683390Y-93871428D01*
X118683390Y-93871428D02*
X118731009Y-93919047D01*
X118731009Y-93919047D02*
X118826247Y-93966666D01*
X118826247Y-93966666D02*
X119064342Y-93966666D01*
X119064342Y-93966666D02*
X119159580Y-93919047D01*
X119159580Y-93919047D02*
X119207200Y-93871428D01*
X119207200Y-93871428D02*
X119254819Y-93776190D01*
X119254819Y-93776190D02*
X119254819Y-93538095D01*
X119254819Y-93538095D02*
X119207200Y-93442857D01*
X119207200Y-93442857D02*
X119159580Y-93395238D01*
X95054819Y-91966666D02*
X95769104Y-91966666D01*
X95769104Y-91966666D02*
X95911961Y-91919047D01*
X95911961Y-91919047D02*
X96007200Y-91823809D01*
X96007200Y-91823809D02*
X96054819Y-91680952D01*
X96054819Y-91680952D02*
X96054819Y-91585714D01*
X96054819Y-92442857D02*
X95054819Y-92442857D01*
X95054819Y-92442857D02*
X95054819Y-92823809D01*
X95054819Y-92823809D02*
X95102438Y-92919047D01*
X95102438Y-92919047D02*
X95150057Y-92966666D01*
X95150057Y-92966666D02*
X95245295Y-93014285D01*
X95245295Y-93014285D02*
X95388152Y-93014285D01*
X95388152Y-93014285D02*
X95483390Y-92966666D01*
X95483390Y-92966666D02*
X95531009Y-92919047D01*
X95531009Y-92919047D02*
X95578628Y-92823809D01*
X95578628Y-92823809D02*
X95578628Y-92442857D01*
X95150057Y-93395238D02*
X95102438Y-93442857D01*
X95102438Y-93442857D02*
X95054819Y-93538095D01*
X95054819Y-93538095D02*
X95054819Y-93776190D01*
X95054819Y-93776190D02*
X95102438Y-93871428D01*
X95102438Y-93871428D02*
X95150057Y-93919047D01*
X95150057Y-93919047D02*
X95245295Y-93966666D01*
X95245295Y-93966666D02*
X95340533Y-93966666D01*
X95340533Y-93966666D02*
X95483390Y-93919047D01*
X95483390Y-93919047D02*
X96054819Y-93347619D01*
X96054819Y-93347619D02*
X96054819Y-93966666D01*
X140454819Y-91966666D02*
X141169104Y-91966666D01*
X141169104Y-91966666D02*
X141311961Y-91919047D01*
X141311961Y-91919047D02*
X141407200Y-91823809D01*
X141407200Y-91823809D02*
X141454819Y-91680952D01*
X141454819Y-91680952D02*
X141454819Y-91585714D01*
X141454819Y-92442857D02*
X140454819Y-92442857D01*
X140454819Y-92442857D02*
X140454819Y-92823809D01*
X140454819Y-92823809D02*
X140502438Y-92919047D01*
X140502438Y-92919047D02*
X140550057Y-92966666D01*
X140550057Y-92966666D02*
X140645295Y-93014285D01*
X140645295Y-93014285D02*
X140788152Y-93014285D01*
X140788152Y-93014285D02*
X140883390Y-92966666D01*
X140883390Y-92966666D02*
X140931009Y-92919047D01*
X140931009Y-92919047D02*
X140978628Y-92823809D01*
X140978628Y-92823809D02*
X140978628Y-92442857D01*
X140883390Y-93585714D02*
X140835771Y-93490476D01*
X140835771Y-93490476D02*
X140788152Y-93442857D01*
X140788152Y-93442857D02*
X140692914Y-93395238D01*
X140692914Y-93395238D02*
X140645295Y-93395238D01*
X140645295Y-93395238D02*
X140550057Y-93442857D01*
X140550057Y-93442857D02*
X140502438Y-93490476D01*
X140502438Y-93490476D02*
X140454819Y-93585714D01*
X140454819Y-93585714D02*
X140454819Y-93776190D01*
X140454819Y-93776190D02*
X140502438Y-93871428D01*
X140502438Y-93871428D02*
X140550057Y-93919047D01*
X140550057Y-93919047D02*
X140645295Y-93966666D01*
X140645295Y-93966666D02*
X140692914Y-93966666D01*
X140692914Y-93966666D02*
X140788152Y-93919047D01*
X140788152Y-93919047D02*
X140835771Y-93871428D01*
X140835771Y-93871428D02*
X140883390Y-93776190D01*
X140883390Y-93776190D02*
X140883390Y-93585714D01*
X140883390Y-93585714D02*
X140931009Y-93490476D01*
X140931009Y-93490476D02*
X140978628Y-93442857D01*
X140978628Y-93442857D02*
X141073866Y-93395238D01*
X141073866Y-93395238D02*
X141264342Y-93395238D01*
X141264342Y-93395238D02*
X141359580Y-93442857D01*
X141359580Y-93442857D02*
X141407200Y-93490476D01*
X141407200Y-93490476D02*
X141454819Y-93585714D01*
X141454819Y-93585714D02*
X141454819Y-93776190D01*
X141454819Y-93776190D02*
X141407200Y-93871428D01*
X141407200Y-93871428D02*
X141359580Y-93919047D01*
X141359580Y-93919047D02*
X141264342Y-93966666D01*
X141264342Y-93966666D02*
X141073866Y-93966666D01*
X141073866Y-93966666D02*
X140978628Y-93919047D01*
X140978628Y-93919047D02*
X140931009Y-93871428D01*
X140931009Y-93871428D02*
X140883390Y-93776190D01*
X146558333Y-100984819D02*
X146558333Y-101699104D01*
X146558333Y-101699104D02*
X146605952Y-101841961D01*
X146605952Y-101841961D02*
X146701190Y-101937200D01*
X146701190Y-101937200D02*
X146844047Y-101984819D01*
X146844047Y-101984819D02*
X146939285Y-101984819D01*
X146129761Y-101080057D02*
X146082142Y-101032438D01*
X146082142Y-101032438D02*
X145986904Y-100984819D01*
X145986904Y-100984819D02*
X145748809Y-100984819D01*
X145748809Y-100984819D02*
X145653571Y-101032438D01*
X145653571Y-101032438D02*
X145605952Y-101080057D01*
X145605952Y-101080057D02*
X145558333Y-101175295D01*
X145558333Y-101175295D02*
X145558333Y-101270533D01*
X145558333Y-101270533D02*
X145605952Y-101413390D01*
X145605952Y-101413390D02*
X146177380Y-101984819D01*
X146177380Y-101984819D02*
X145558333Y-101984819D01*
D12*
%TO.C,JP6*%
X123200000Y-93500000D02*
X123200000Y-92100000D01*
X123900000Y-91400000D02*
X124500000Y-91400000D01*
X124500000Y-94200000D02*
X123900000Y-94200000D01*
X125200000Y-92100000D02*
X125200000Y-93500000D01*
X123200000Y-92100000D02*
G75*
G02*
X123900000Y-91400000I700000J0D01*
G01*
X123900000Y-94200000D02*
G75*
G02*
X123200000Y-93500000I-1J699999D01*
G01*
X124500000Y-91400000D02*
G75*
G02*
X125200000Y-92100000I0J-700000D01*
G01*
X125200000Y-93500000D02*
G75*
G02*
X124500000Y-94200000I-699999J-1D01*
G01*
%TO.C,J1*%
X76320000Y-85170000D02*
X76320000Y-97930000D01*
X76320000Y-100530000D02*
X76320000Y-99200000D01*
X77650000Y-100530000D02*
X76320000Y-100530000D01*
X78980000Y-85170000D02*
X76320000Y-85170000D01*
X78980000Y-85170000D02*
X78980000Y-97930000D01*
X78980000Y-97930000D02*
X76320000Y-97930000D01*
%TO.C,JP1*%
X85400000Y-93500000D02*
X85400000Y-92100000D01*
X86100000Y-91400000D02*
X86700000Y-91400000D01*
X86700000Y-94200000D02*
X86100000Y-94200000D01*
X87400000Y-92100000D02*
X87400000Y-93500000D01*
X85400000Y-92100000D02*
G75*
G02*
X86100000Y-91400000I700000J0D01*
G01*
X86100000Y-94200000D02*
G75*
G02*
X85400000Y-93500000I-1J699999D01*
G01*
X86700000Y-91400000D02*
G75*
G02*
X87400000Y-92100000I0J-700000D01*
G01*
X87400000Y-93500000D02*
G75*
G02*
X86700000Y-94200000I-699999J-1D01*
G01*
%TO.C,JP3*%
X101200000Y-93500000D02*
X101200000Y-92100000D01*
X101900000Y-91400000D02*
X102500000Y-91400000D01*
X102500000Y-94200000D02*
X101900000Y-94200000D01*
X103200000Y-92100000D02*
X103200000Y-93500000D01*
X101200000Y-92100000D02*
G75*
G02*
X101900000Y-91400000I700000J0D01*
G01*
X101900000Y-94200000D02*
G75*
G02*
X101200000Y-93500000I-1J699999D01*
G01*
X102500000Y-91400000D02*
G75*
G02*
X103200000Y-92100000I0J-700000D01*
G01*
X103200000Y-93500000D02*
G75*
G02*
X102500000Y-94200000I-699999J-1D01*
G01*
%TO.C,JP7*%
X130800000Y-93500000D02*
X130800000Y-92100000D01*
X131500000Y-91400000D02*
X132100000Y-91400000D01*
X132100000Y-94200000D02*
X131500000Y-94200000D01*
X132800000Y-92100000D02*
X132800000Y-93500000D01*
X130800000Y-92100000D02*
G75*
G02*
X131500000Y-91400000I700000J0D01*
G01*
X131500000Y-94200000D02*
G75*
G02*
X130800000Y-93500000I-1J699999D01*
G01*
X132100000Y-91400000D02*
G75*
G02*
X132800000Y-92100000I0J-700000D01*
G01*
X132800000Y-93500000D02*
G75*
G02*
X132100000Y-94200000I-699999J-1D01*
G01*
%TO.C,JP4*%
X109000000Y-93500000D02*
X109000000Y-92100000D01*
X109700000Y-91400000D02*
X110300000Y-91400000D01*
X110300000Y-94200000D02*
X109700000Y-94200000D01*
X111000000Y-92100000D02*
X111000000Y-93500000D01*
X109000000Y-92100000D02*
G75*
G02*
X109700000Y-91400000I700000J0D01*
G01*
X109700000Y-94200000D02*
G75*
G02*
X109000000Y-93500000I-1J699999D01*
G01*
X110300000Y-91400000D02*
G75*
G02*
X111000000Y-92100000I0J-700000D01*
G01*
X111000000Y-93500000D02*
G75*
G02*
X110300000Y-94200000I-699999J-1D01*
G01*
%TO.C,JP5*%
X116000000Y-93500000D02*
X116000000Y-92100000D01*
X116700000Y-91400000D02*
X117300000Y-91400000D01*
X117300000Y-94200000D02*
X116700000Y-94200000D01*
X118000000Y-92100000D02*
X118000000Y-93500000D01*
X116000000Y-92100000D02*
G75*
G02*
X116700000Y-91400000I700000J0D01*
G01*
X116700000Y-94200000D02*
G75*
G02*
X116000000Y-93500000I-1J699999D01*
G01*
X117300000Y-91400000D02*
G75*
G02*
X118000000Y-92100000I0J-700000D01*
G01*
X118000000Y-93500000D02*
G75*
G02*
X117300000Y-94200000I-699999J-1D01*
G01*
%TO.C,JP2*%
X92800000Y-93500000D02*
X92800000Y-92100000D01*
X93500000Y-91400000D02*
X94100000Y-91400000D01*
X94100000Y-94200000D02*
X93500000Y-94200000D01*
X94800000Y-92100000D02*
X94800000Y-93500000D01*
X92800000Y-92100000D02*
G75*
G02*
X93500000Y-91400000I700000J0D01*
G01*
X93500000Y-94200000D02*
G75*
G02*
X92800000Y-93500000I-1J699999D01*
G01*
X94100000Y-91400000D02*
G75*
G02*
X94800000Y-92100000I0J-700000D01*
G01*
X94800000Y-93500000D02*
G75*
G02*
X94100000Y-94200000I-699999J-1D01*
G01*
%TO.C,JP8*%
X138200000Y-93500000D02*
X138200000Y-92100000D01*
X138900000Y-91400000D02*
X139500000Y-91400000D01*
X139500000Y-94200000D02*
X138900000Y-94200000D01*
X140200000Y-92100000D02*
X140200000Y-93500000D01*
X138200000Y-92100000D02*
G75*
G02*
X138900000Y-91400000I700000J0D01*
G01*
X138900000Y-94200000D02*
G75*
G02*
X138200000Y-93500000I-1J699999D01*
G01*
X139500000Y-91400000D02*
G75*
G02*
X140200000Y-92100000I0J-700000D01*
G01*
X140200000Y-93500000D02*
G75*
G02*
X139500000Y-94200000I-699999J-1D01*
G01*
%TO.C,J2*%
X144895000Y-85170000D02*
X144895000Y-97930000D01*
X144895000Y-100530000D02*
X144895000Y-99200000D01*
X146225000Y-100530000D02*
X144895000Y-100530000D01*
X147555000Y-85170000D02*
X144895000Y-85170000D01*
X147555000Y-85170000D02*
X147555000Y-97930000D01*
X147555000Y-97930000D02*
X144895000Y-97930000D01*
%TD*%
%LPC*%
D13*
%TO.C,JP6*%
X124200000Y-93450000D03*
D14*
X124200000Y-92150000D03*
%TD*%
D15*
%TO.C,J1*%
X77650000Y-99200000D03*
D16*
X77650000Y-96660000D03*
X77650000Y-94120000D03*
X77650000Y-91580000D03*
X77650000Y-89040000D03*
X77650000Y-86500000D03*
%TD*%
D13*
%TO.C,JP1*%
X86400000Y-93450000D03*
D14*
X86400000Y-92150000D03*
%TD*%
D13*
%TO.C,JP3*%
X102200000Y-93450000D03*
D14*
X102200000Y-92150000D03*
%TD*%
D13*
%TO.C,JP7*%
X131800000Y-93450000D03*
D14*
X131800000Y-92150000D03*
%TD*%
D13*
%TO.C,JP4*%
X110000000Y-93450000D03*
D14*
X110000000Y-92150000D03*
%TD*%
D13*
%TO.C,JP5*%
X117000000Y-93450000D03*
D14*
X117000000Y-92150000D03*
%TD*%
D13*
%TO.C,JP2*%
X93800000Y-93450000D03*
D14*
X93800000Y-92150000D03*
%TD*%
D13*
%TO.C,JP8*%
X139200000Y-93450000D03*
D14*
X139200000Y-92150000D03*
%TD*%
D15*
%TO.C,J2*%
X146225000Y-99200000D03*
D16*
X146225000Y-96660000D03*
X146225000Y-94120000D03*
X146225000Y-91580000D03*
X146225000Y-89040000D03*
X146225000Y-86500000D03*
%TD*%
%LPD*%
M02*
