G04 EAGLE Gerber RS-274X export*
G75*
%MOMM*%
%FSLAX34Y34*%
%LPD*%
%INTop Copper*%
%IPPOS*%
%AMOC8*
5,1,8,0,0,1.08239X$1,22.5*%
G01*
%ADD10P,1.429621X8X292.500000*%
%ADD11P,1.429621X8X22.500000*%

G36*
X170481Y37757D02*
X170481Y37757D01*
X170486Y37756D01*
X170653Y37781D01*
X170822Y37806D01*
X170826Y37807D01*
X170831Y37808D01*
X170988Y37871D01*
X171146Y37932D01*
X171151Y37935D01*
X171155Y37937D01*
X171170Y37947D01*
X171353Y38064D01*
X189878Y52068D01*
X189908Y52097D01*
X190037Y52206D01*
X190894Y53064D01*
X191380Y53265D01*
X191443Y53300D01*
X191509Y53326D01*
X191646Y53413D01*
X191685Y53434D01*
X191696Y53445D01*
X191716Y53457D01*
X192135Y53774D01*
X193309Y54080D01*
X193348Y54095D01*
X193508Y54146D01*
X194629Y54611D01*
X195155Y54611D01*
X195226Y54619D01*
X195297Y54617D01*
X195457Y54646D01*
X195501Y54651D01*
X195515Y54656D01*
X195538Y54660D01*
X196047Y54792D01*
X197248Y54625D01*
X197290Y54624D01*
X197458Y54611D01*
X224271Y54611D01*
X228006Y53064D01*
X233873Y47197D01*
X233893Y47180D01*
X233910Y47160D01*
X234030Y47072D01*
X234146Y46980D01*
X234170Y46969D01*
X234191Y46953D01*
X234327Y46894D01*
X234461Y46831D01*
X234487Y46825D01*
X234511Y46815D01*
X234657Y46789D01*
X234802Y46758D01*
X234828Y46758D01*
X234854Y46753D01*
X235002Y46761D01*
X235150Y46764D01*
X235176Y46770D01*
X235202Y46771D01*
X235344Y46812D01*
X235488Y46849D01*
X235511Y46861D01*
X235537Y46868D01*
X235666Y46940D01*
X235798Y47008D01*
X235818Y47025D01*
X235841Y47038D01*
X236027Y47197D01*
X238822Y49991D01*
X241894Y53064D01*
X245629Y54611D01*
X261366Y54611D01*
X261392Y54614D01*
X261418Y54612D01*
X261565Y54634D01*
X261712Y54651D01*
X261737Y54659D01*
X261763Y54663D01*
X261901Y54718D01*
X262040Y54768D01*
X262062Y54782D01*
X262087Y54792D01*
X262208Y54877D01*
X262333Y54957D01*
X262351Y54976D01*
X262373Y54991D01*
X262472Y55101D01*
X262575Y55208D01*
X262589Y55230D01*
X262606Y55250D01*
X262678Y55380D01*
X262754Y55507D01*
X262762Y55532D01*
X262775Y55555D01*
X262815Y55698D01*
X262860Y55839D01*
X262862Y55865D01*
X262870Y55890D01*
X262889Y56134D01*
X262889Y56736D01*
X262885Y56774D01*
X262885Y56843D01*
X262772Y58446D01*
X262811Y58564D01*
X262836Y58684D01*
X262870Y58802D01*
X262875Y58868D01*
X262883Y58905D01*
X262882Y58952D01*
X262889Y59046D01*
X262889Y59171D01*
X263504Y60655D01*
X263515Y60693D01*
X263542Y60757D01*
X264050Y62280D01*
X264132Y62375D01*
X264201Y62476D01*
X264277Y62572D01*
X264307Y62631D01*
X264328Y62663D01*
X264345Y62706D01*
X264388Y62790D01*
X264436Y62906D01*
X265572Y64041D01*
X265596Y64072D01*
X265646Y64121D01*
X266698Y65334D01*
X266810Y65390D01*
X266913Y65457D01*
X267020Y65517D01*
X267070Y65560D01*
X267102Y65581D01*
X267134Y65615D01*
X267206Y65675D01*
X267294Y65764D01*
X268779Y66379D01*
X268813Y66398D01*
X268877Y66423D01*
X276877Y70424D01*
X276983Y70493D01*
X277093Y70555D01*
X277129Y70588D01*
X277169Y70614D01*
X277256Y70705D01*
X277349Y70791D01*
X277377Y70831D01*
X277410Y70866D01*
X277474Y70975D01*
X277545Y71079D01*
X277569Y71135D01*
X277587Y71166D01*
X277602Y71212D01*
X277641Y71304D01*
X281861Y83964D01*
X281886Y84084D01*
X281920Y84202D01*
X281925Y84268D01*
X281933Y84305D01*
X281932Y84352D01*
X281939Y84446D01*
X281939Y84571D01*
X282554Y86055D01*
X282565Y86093D01*
X282592Y86157D01*
X283100Y87680D01*
X283182Y87775D01*
X283251Y87876D01*
X283327Y87972D01*
X283357Y88031D01*
X283378Y88063D01*
X283395Y88106D01*
X283438Y88190D01*
X283486Y88306D01*
X284622Y89441D01*
X284646Y89472D01*
X284696Y89521D01*
X285748Y90734D01*
X285860Y90790D01*
X285962Y90857D01*
X286070Y90917D01*
X286120Y90960D01*
X286152Y90981D01*
X286184Y91014D01*
X286256Y91075D01*
X286344Y91164D01*
X287829Y91779D01*
X287863Y91798D01*
X287927Y91823D01*
X289364Y92542D01*
X289488Y92551D01*
X289609Y92573D01*
X289731Y92588D01*
X289794Y92608D01*
X289831Y92615D01*
X289874Y92634D01*
X289963Y92663D01*
X290079Y92711D01*
X291686Y92711D01*
X291724Y92715D01*
X291793Y92715D01*
X293396Y92828D01*
X293514Y92789D01*
X293634Y92764D01*
X293752Y92730D01*
X293818Y92725D01*
X293855Y92717D01*
X293902Y92718D01*
X293996Y92711D01*
X301992Y92711D01*
X302092Y92722D01*
X302193Y92724D01*
X302265Y92742D01*
X302339Y92751D01*
X302433Y92784D01*
X302531Y92809D01*
X302597Y92843D01*
X302667Y92868D01*
X302751Y92923D01*
X302840Y92969D01*
X302897Y93017D01*
X302960Y93057D01*
X303029Y93129D01*
X303106Y93194D01*
X303150Y93254D01*
X303202Y93308D01*
X303253Y93394D01*
X303313Y93475D01*
X303342Y93543D01*
X303381Y93607D01*
X303411Y93703D01*
X303451Y93795D01*
X303464Y93868D01*
X303487Y93939D01*
X303495Y94039D01*
X303513Y94138D01*
X303509Y94212D01*
X303515Y94286D01*
X303500Y94386D01*
X303495Y94486D01*
X303474Y94557D01*
X303463Y94631D01*
X303426Y94724D01*
X303398Y94821D01*
X303362Y94886D01*
X303334Y94955D01*
X303277Y95037D01*
X303228Y95125D01*
X303163Y95201D01*
X303135Y95241D01*
X303109Y95265D01*
X303069Y95311D01*
X298433Y99947D01*
X298411Y99965D01*
X298393Y99986D01*
X298201Y100138D01*
X297482Y100617D01*
X296995Y101345D01*
X296977Y101365D01*
X296964Y101388D01*
X296806Y101575D01*
X296186Y102194D01*
X295855Y102993D01*
X295842Y103017D01*
X295833Y103044D01*
X295714Y103257D01*
X295233Y103975D01*
X295061Y104835D01*
X295053Y104860D01*
X295050Y104886D01*
X294975Y105119D01*
X294639Y105929D01*
X294639Y106793D01*
X294636Y106821D01*
X294638Y106849D01*
X294610Y107092D01*
X294440Y107939D01*
X294610Y108799D01*
X294612Y108825D01*
X294620Y108851D01*
X294639Y109095D01*
X294639Y109971D01*
X294970Y110769D01*
X294978Y110797D01*
X294990Y110821D01*
X295057Y111057D01*
X295225Y111904D01*
X295711Y112634D01*
X295723Y112657D01*
X295739Y112678D01*
X295851Y112896D01*
X296186Y113706D01*
X296797Y114317D01*
X296815Y114339D01*
X296836Y114357D01*
X296960Y114513D01*
X296961Y114515D01*
X296962Y114516D01*
X296988Y114549D01*
X319783Y148743D01*
X319852Y148876D01*
X319925Y149008D01*
X319931Y149031D01*
X319942Y149053D01*
X319979Y149199D01*
X320020Y149344D01*
X320022Y149373D01*
X320027Y149391D01*
X320027Y149438D01*
X320039Y149588D01*
X320039Y153910D01*
X320025Y154036D01*
X320018Y154162D01*
X320005Y154209D01*
X319999Y154257D01*
X319957Y154376D01*
X319922Y154497D01*
X319898Y154539D01*
X319882Y154585D01*
X319813Y154691D01*
X319752Y154801D01*
X319712Y154847D01*
X319693Y154877D01*
X319658Y154911D01*
X319593Y154987D01*
X315236Y159344D01*
X313689Y163079D01*
X313689Y173471D01*
X315236Y177206D01*
X318480Y180449D01*
X318553Y180542D01*
X318634Y180629D01*
X318662Y180678D01*
X318697Y180722D01*
X318747Y180829D01*
X318806Y180932D01*
X318821Y180987D01*
X318846Y181038D01*
X318870Y181153D01*
X318904Y181267D01*
X318907Y181323D01*
X318919Y181378D01*
X318917Y181496D01*
X318924Y181615D01*
X318914Y181686D01*
X318913Y181727D01*
X318902Y181771D01*
X318890Y181857D01*
X308319Y229424D01*
X308275Y229551D01*
X308238Y229681D01*
X308218Y229716D01*
X308205Y229754D01*
X308134Y229868D01*
X308068Y229985D01*
X308036Y230023D01*
X308019Y230049D01*
X307984Y230084D01*
X307909Y230171D01*
X298956Y239125D01*
X298860Y239201D01*
X298769Y239283D01*
X298713Y239318D01*
X298683Y239341D01*
X298641Y239361D01*
X298560Y239410D01*
X287927Y244727D01*
X287890Y244740D01*
X287829Y244771D01*
X286344Y245386D01*
X286256Y245475D01*
X286160Y245551D01*
X286069Y245633D01*
X286013Y245668D01*
X285983Y245691D01*
X285941Y245711D01*
X285860Y245760D01*
X285748Y245816D01*
X284696Y247029D01*
X284667Y247056D01*
X284622Y247109D01*
X279906Y251825D01*
X279810Y251901D01*
X279719Y251983D01*
X279663Y252018D01*
X279633Y252041D01*
X279591Y252061D01*
X279510Y252110D01*
X279398Y252166D01*
X278346Y253379D01*
X278317Y253406D01*
X278272Y253459D01*
X277136Y254594D01*
X277088Y254710D01*
X277055Y254769D01*
X277052Y254778D01*
X277045Y254787D01*
X277029Y254817D01*
X276977Y254928D01*
X276938Y254981D01*
X276919Y255014D01*
X276887Y255049D01*
X276832Y255125D01*
X276750Y255220D01*
X276242Y256743D01*
X276225Y256779D01*
X276204Y256845D01*
X275589Y258329D01*
X275589Y258454D01*
X275575Y258576D01*
X275570Y258698D01*
X275554Y258763D01*
X275549Y258800D01*
X275534Y258844D01*
X275511Y258936D01*
X270633Y273570D01*
X270609Y273621D01*
X270594Y273675D01*
X270536Y273779D01*
X270486Y273886D01*
X270451Y273930D01*
X270423Y273979D01*
X270280Y274148D01*
X270270Y274160D01*
X270268Y274162D01*
X270265Y274166D01*
X231187Y313243D01*
X231088Y313322D01*
X230995Y313406D01*
X230952Y313430D01*
X230914Y313460D01*
X230800Y313514D01*
X230690Y313575D01*
X230643Y313588D01*
X230599Y313609D01*
X230476Y313635D01*
X230354Y313670D01*
X230293Y313675D01*
X230259Y313682D01*
X230211Y313681D01*
X230110Y313689D01*
X227866Y313689D01*
X227830Y313685D01*
X227793Y313688D01*
X227657Y313665D01*
X227519Y313649D01*
X227485Y313637D01*
X227449Y313631D01*
X227322Y313579D01*
X227191Y313532D01*
X227161Y313512D01*
X227127Y313498D01*
X227015Y313418D01*
X226899Y313343D01*
X226873Y313317D01*
X226844Y313296D01*
X226676Y313118D01*
X205820Y287048D01*
X205771Y286970D01*
X205714Y286897D01*
X205662Y286795D01*
X205635Y286753D01*
X205625Y286724D01*
X205603Y286679D01*
X205464Y286344D01*
X204492Y285373D01*
X204461Y285334D01*
X204380Y285247D01*
X203522Y284174D01*
X203204Y284000D01*
X203129Y283946D01*
X203048Y283901D01*
X202961Y283827D01*
X202920Y283798D01*
X202900Y283775D01*
X202862Y283742D01*
X202606Y283486D01*
X201336Y282960D01*
X201292Y282936D01*
X201184Y282887D01*
X199981Y282225D01*
X199621Y282185D01*
X199530Y282164D01*
X199439Y282153D01*
X199330Y282118D01*
X199281Y282107D01*
X199253Y282093D01*
X199206Y282078D01*
X198871Y281939D01*
X197497Y281939D01*
X197447Y281934D01*
X197329Y281930D01*
X195963Y281778D01*
X195615Y281879D01*
X195524Y281894D01*
X195435Y281920D01*
X195321Y281929D01*
X195272Y281937D01*
X195241Y281935D01*
X195191Y281939D01*
X185307Y281939D01*
X185279Y281936D01*
X185251Y281938D01*
X185008Y281910D01*
X184161Y281740D01*
X183301Y281910D01*
X183275Y281912D01*
X183249Y281920D01*
X183005Y281939D01*
X182129Y281939D01*
X181331Y282270D01*
X181303Y282278D01*
X181279Y282290D01*
X181043Y282357D01*
X180196Y282525D01*
X179466Y283011D01*
X179443Y283023D01*
X179422Y283039D01*
X179204Y283151D01*
X178394Y283486D01*
X177783Y284097D01*
X177761Y284115D01*
X177743Y284136D01*
X177551Y284288D01*
X176832Y284767D01*
X176345Y285495D01*
X176327Y285515D01*
X176314Y285538D01*
X176156Y285725D01*
X175536Y286344D01*
X175205Y287143D01*
X175192Y287167D01*
X175183Y287194D01*
X175064Y287407D01*
X174583Y288125D01*
X174411Y288985D01*
X174403Y289010D01*
X174400Y289036D01*
X174325Y289269D01*
X173989Y290079D01*
X173989Y290943D01*
X173986Y290971D01*
X173988Y290999D01*
X173960Y291242D01*
X169715Y312465D01*
X169700Y312513D01*
X169692Y312563D01*
X169646Y312678D01*
X169608Y312796D01*
X169582Y312840D01*
X169563Y312887D01*
X169493Y312989D01*
X169429Y313095D01*
X169393Y313131D01*
X169364Y313173D01*
X169272Y313256D01*
X169186Y313345D01*
X169143Y313373D01*
X169106Y313406D01*
X168997Y313466D01*
X168892Y313533D01*
X168845Y313550D01*
X168801Y313575D01*
X168681Y313609D01*
X168564Y313650D01*
X168514Y313656D01*
X168465Y313670D01*
X168221Y313689D01*
X127282Y313689D01*
X127280Y313689D01*
X127279Y313689D01*
X127103Y313669D01*
X126936Y313649D01*
X126934Y313649D01*
X126932Y313649D01*
X126770Y313590D01*
X126608Y313532D01*
X126606Y313531D01*
X126605Y313530D01*
X126465Y313440D01*
X126315Y313343D01*
X126314Y313341D01*
X126312Y313341D01*
X126196Y313220D01*
X126073Y313092D01*
X126072Y313091D01*
X126071Y313089D01*
X125983Y312942D01*
X125894Y312793D01*
X125893Y312791D01*
X125893Y312790D01*
X125841Y312626D01*
X125788Y312461D01*
X125788Y312459D01*
X125787Y312458D01*
X125774Y312287D01*
X125760Y312114D01*
X125760Y312112D01*
X125760Y312110D01*
X125789Y311867D01*
X130389Y288865D01*
X130397Y288840D01*
X130400Y288814D01*
X130475Y288581D01*
X130811Y287771D01*
X130811Y286907D01*
X130814Y286879D01*
X130812Y286851D01*
X130840Y286608D01*
X131010Y285761D01*
X130840Y284901D01*
X130838Y284875D01*
X130830Y284849D01*
X130811Y284605D01*
X130811Y283729D01*
X130480Y282931D01*
X130472Y282903D01*
X130460Y282879D01*
X130393Y282643D01*
X130225Y281796D01*
X129739Y281066D01*
X129727Y281043D01*
X129711Y281022D01*
X129599Y280804D01*
X129264Y279994D01*
X128653Y279383D01*
X128635Y279361D01*
X128614Y279343D01*
X128462Y279151D01*
X127983Y278432D01*
X127255Y277945D01*
X127235Y277927D01*
X127212Y277914D01*
X127025Y277756D01*
X120056Y270786D01*
X116321Y269239D01*
X109846Y269239D01*
X109724Y269225D01*
X109602Y269220D01*
X109537Y269204D01*
X109500Y269199D01*
X109456Y269184D01*
X109364Y269161D01*
X109246Y269122D01*
X107643Y269235D01*
X107604Y269234D01*
X107536Y269239D01*
X105929Y269239D01*
X105813Y269287D01*
X105696Y269321D01*
X105580Y269362D01*
X105515Y269372D01*
X105478Y269383D01*
X105431Y269385D01*
X105338Y269399D01*
X105214Y269408D01*
X103777Y270126D01*
X103740Y270140D01*
X103679Y270171D01*
X102194Y270786D01*
X102106Y270875D01*
X102010Y270951D01*
X101919Y271033D01*
X101863Y271068D01*
X101833Y271091D01*
X101791Y271111D01*
X101710Y271160D01*
X95931Y274049D01*
X95875Y274070D01*
X95822Y274099D01*
X95712Y274129D01*
X95604Y274169D01*
X95544Y274176D01*
X95486Y274192D01*
X95372Y274196D01*
X95258Y274210D01*
X95198Y274204D01*
X95138Y274206D01*
X95025Y274185D01*
X94911Y274172D01*
X94855Y274152D01*
X94796Y274141D01*
X94607Y274065D01*
X94583Y274056D01*
X94577Y274053D01*
X94569Y274049D01*
X90034Y271782D01*
X89933Y271716D01*
X89828Y271658D01*
X89788Y271621D01*
X89743Y271592D01*
X89659Y271504D01*
X89570Y271423D01*
X89529Y271368D01*
X89502Y271340D01*
X89478Y271300D01*
X89424Y271227D01*
X62889Y228772D01*
X62832Y228652D01*
X62769Y228536D01*
X62758Y228495D01*
X62740Y228457D01*
X62711Y228328D01*
X62676Y228200D01*
X62674Y228158D01*
X62665Y228116D01*
X62667Y227984D01*
X62662Y227852D01*
X62670Y227810D01*
X62670Y227768D01*
X62702Y227640D01*
X62727Y227510D01*
X62747Y227461D01*
X62755Y227430D01*
X62777Y227385D01*
X62819Y227283D01*
X65390Y222140D01*
X65457Y222037D01*
X65517Y221930D01*
X65560Y221880D01*
X65581Y221848D01*
X65615Y221816D01*
X65676Y221744D01*
X65764Y221656D01*
X66379Y220171D01*
X66398Y220137D01*
X66423Y220073D01*
X67142Y218636D01*
X67151Y218512D01*
X67173Y218391D01*
X67188Y218269D01*
X67208Y218206D01*
X67215Y218169D01*
X67234Y218126D01*
X67263Y218037D01*
X67311Y217921D01*
X67311Y216315D01*
X67315Y216276D01*
X67315Y216207D01*
X67428Y214604D01*
X67389Y214486D01*
X67364Y214366D01*
X67330Y214248D01*
X67325Y214182D01*
X67317Y214145D01*
X67318Y214098D01*
X67311Y214004D01*
X67311Y213879D01*
X66696Y212395D01*
X66685Y212357D01*
X66658Y212294D01*
X66150Y210769D01*
X66068Y210675D01*
X65999Y210574D01*
X65923Y210478D01*
X65893Y210419D01*
X65872Y210387D01*
X65854Y210343D01*
X65812Y210260D01*
X65764Y210144D01*
X64628Y209009D01*
X64604Y208978D01*
X64554Y208930D01*
X63502Y207716D01*
X63390Y207660D01*
X63287Y207593D01*
X63180Y207533D01*
X63130Y207490D01*
X63098Y207469D01*
X63066Y207435D01*
X62994Y207375D01*
X60391Y204771D01*
X60307Y204666D01*
X60218Y204565D01*
X60199Y204530D01*
X60174Y204498D01*
X60117Y204377D01*
X60053Y204258D01*
X60038Y204211D01*
X60025Y204183D01*
X60015Y204134D01*
X59981Y204024D01*
X48919Y154245D01*
X48914Y154197D01*
X48901Y154151D01*
X48896Y154025D01*
X48882Y153899D01*
X48888Y153851D01*
X48886Y153803D01*
X48910Y153679D01*
X48926Y153553D01*
X48943Y153508D01*
X48952Y153461D01*
X49043Y153234D01*
X52690Y145940D01*
X52757Y145837D01*
X52817Y145730D01*
X52860Y145680D01*
X52881Y145648D01*
X52915Y145616D01*
X52975Y145544D01*
X53064Y145456D01*
X53679Y143971D01*
X53698Y143937D01*
X53724Y143873D01*
X54442Y142436D01*
X54451Y142312D01*
X54473Y142191D01*
X54488Y142069D01*
X54508Y142006D01*
X54515Y141969D01*
X54534Y141926D01*
X54563Y141837D01*
X54611Y141721D01*
X54611Y140114D01*
X54615Y140076D01*
X54615Y140007D01*
X54728Y138404D01*
X54689Y138286D01*
X54664Y138166D01*
X54630Y138048D01*
X54625Y137982D01*
X54617Y137945D01*
X54618Y137898D01*
X54611Y137804D01*
X54611Y123886D01*
X54624Y123773D01*
X54628Y123658D01*
X54644Y123600D01*
X54651Y123540D01*
X54689Y123432D01*
X54719Y123322D01*
X54754Y123252D01*
X54768Y123212D01*
X54792Y123175D01*
X54828Y123103D01*
X70861Y96381D01*
X70885Y96349D01*
X70904Y96313D01*
X70977Y96228D01*
X71027Y96155D01*
X71049Y96135D01*
X71073Y96104D01*
X71104Y96079D01*
X71130Y96048D01*
X71254Y95950D01*
X71286Y95922D01*
X71301Y95914D01*
X71322Y95897D01*
X86884Y85522D01*
X86956Y85485D01*
X87022Y85440D01*
X87151Y85386D01*
X87194Y85363D01*
X87216Y85358D01*
X87248Y85344D01*
X87681Y85200D01*
X88649Y84361D01*
X88688Y84333D01*
X88802Y84244D01*
X89868Y83533D01*
X90122Y83154D01*
X90174Y83093D01*
X90218Y83025D01*
X90316Y82926D01*
X90347Y82889D01*
X90365Y82875D01*
X90389Y82851D01*
X90734Y82552D01*
X91307Y81406D01*
X91334Y81365D01*
X91404Y81239D01*
X92117Y80175D01*
X92207Y79727D01*
X92231Y79650D01*
X92246Y79571D01*
X92299Y79442D01*
X92314Y79395D01*
X92325Y79376D01*
X92338Y79345D01*
X107459Y49103D01*
X107471Y49084D01*
X107479Y49063D01*
X107566Y48939D01*
X107649Y48811D01*
X107665Y48795D01*
X107678Y48777D01*
X107791Y48675D01*
X107901Y48570D01*
X107920Y48559D01*
X107937Y48544D01*
X108070Y48470D01*
X108201Y48393D01*
X108222Y48386D01*
X108242Y48375D01*
X108389Y48334D01*
X108533Y48288D01*
X108556Y48286D01*
X108577Y48280D01*
X108821Y48261D01*
X134860Y48261D01*
X134986Y48275D01*
X135112Y48282D01*
X135159Y48295D01*
X135207Y48301D01*
X135326Y48343D01*
X135447Y48378D01*
X135489Y48402D01*
X135535Y48418D01*
X135641Y48487D01*
X135751Y48548D01*
X135797Y48588D01*
X135827Y48607D01*
X135861Y48642D01*
X135937Y48707D01*
X140294Y53064D01*
X144029Y54611D01*
X154421Y54611D01*
X158156Y53064D01*
X167364Y43856D01*
X168911Y40121D01*
X168911Y39279D01*
X168930Y39110D01*
X168948Y38942D01*
X168950Y38937D01*
X168951Y38932D01*
X169008Y38772D01*
X169064Y38613D01*
X169066Y38609D01*
X169068Y38604D01*
X169159Y38463D01*
X169251Y38319D01*
X169255Y38316D01*
X169257Y38312D01*
X169378Y38195D01*
X169500Y38075D01*
X169504Y38073D01*
X169508Y38069D01*
X169652Y37983D01*
X169798Y37895D01*
X169803Y37893D01*
X169807Y37891D01*
X169968Y37839D01*
X170129Y37786D01*
X170134Y37786D01*
X170139Y37784D01*
X170308Y37771D01*
X170477Y37756D01*
X170481Y37757D01*
G37*
%LPC*%
G36*
X136333Y252221D02*
X136333Y252221D01*
X131571Y256983D01*
X131571Y263717D01*
X136333Y268479D01*
X143067Y268479D01*
X147829Y263717D01*
X147829Y256983D01*
X143067Y252221D01*
X136333Y252221D01*
G37*
%LPD*%
%LPC*%
G36*
X136333Y226821D02*
X136333Y226821D01*
X131571Y231583D01*
X131571Y238317D01*
X136333Y243079D01*
X143067Y243079D01*
X147829Y238317D01*
X147829Y231583D01*
X143067Y226821D01*
X136333Y226821D01*
G37*
%LPD*%
%LPC*%
G36*
X212533Y188721D02*
X212533Y188721D01*
X207771Y193483D01*
X207771Y200217D01*
X212533Y204979D01*
X219267Y204979D01*
X224029Y200217D01*
X224029Y193483D01*
X219267Y188721D01*
X212533Y188721D01*
G37*
%LPD*%
%LPC*%
G36*
X116331Y198881D02*
X116331Y198881D01*
X116331Y205995D01*
X118088Y205995D01*
X123445Y200638D01*
X123445Y198881D01*
X116331Y198881D01*
G37*
%LPD*%
%LPC*%
G36*
X105155Y198881D02*
X105155Y198881D01*
X105155Y200638D01*
X110512Y205995D01*
X112269Y205995D01*
X112269Y198881D01*
X105155Y198881D01*
G37*
%LPD*%
%LPC*%
G36*
X116331Y187705D02*
X116331Y187705D01*
X116331Y194819D01*
X123445Y194819D01*
X123445Y193062D01*
X118088Y187705D01*
X116331Y187705D01*
G37*
%LPD*%
%LPC*%
G36*
X110512Y187705D02*
X110512Y187705D01*
X105155Y193062D01*
X105155Y194819D01*
X112269Y194819D01*
X112269Y187705D01*
X110512Y187705D01*
G37*
%LPD*%
D10*
X139700Y260350D03*
X139700Y234950D03*
D11*
X114300Y196850D03*
X215900Y196850D03*
M02*
