G04 EAGLE Gerber RS-274X export*
G75*
%MOMM*%
%FSLAX34Y34*%
%LPD*%
%IN*%
%IPPOS*%
%AMOC8*
5,1,8,0,0,1.08239X$1,22.5*%
G01*
%ADD10C,0.254000*%


D10*
X38100Y152400D02*
X44450Y139700D01*
X44450Y120650D01*
X63500Y88900D01*
X82550Y76200D01*
X101600Y38100D01*
X139700Y38100D01*
X146050Y44450D01*
X152400Y44450D01*
X158750Y38100D01*
X158750Y31750D01*
X171450Y25400D01*
X196650Y44450D01*
X222250Y44450D01*
X234950Y31750D01*
X247650Y44450D01*
X266700Y44450D01*
X273050Y50800D01*
X273050Y57150D01*
X285750Y63500D01*
X292100Y82550D01*
X304800Y82550D01*
X317500Y88900D01*
X317500Y95250D01*
X304800Y107950D01*
X330200Y146050D01*
X330200Y158750D01*
X323850Y165100D01*
X323850Y171450D01*
X330200Y177800D01*
X317500Y234950D01*
X304800Y247650D01*
X292100Y254000D01*
X285750Y260350D01*
X279400Y279400D01*
X234950Y323850D01*
X222250Y323850D01*
X196850Y292100D01*
X184150Y292100D01*
X177800Y323850D01*
X120650Y323850D01*
X114300Y317500D01*
X120650Y285750D01*
X114300Y279400D01*
X107950Y279400D01*
X95250Y285750D01*
X82550Y279400D01*
X50800Y228600D01*
X57150Y215900D01*
X50800Y209550D01*
X38100Y152400D01*
M02*
