M48
;GenerationSoftware,Autodesk,EAGLE,9.6.2*%
;CreationDate,2023-01-06T20:43:16Z*%
FMAT,2
ICI,OFF
METRIC,TZ,000.000
T7C0.350
T6C0.600
T5C0.813
T4C0.900
T3C1.016
T2C3.200
T1C4.000
%
G90
M71
T1
X44450Y74295
T2
X59690Y33909
X36195Y33909
T3
X16510Y48260
X59690Y10160
X46990Y10160
X16510Y45720
X16510Y43180
X16510Y40640
T4
X33426Y1905
X36424Y1905
T5
X12065Y43180
X12065Y40640
X85725Y43180
X85725Y40640
X85725Y38100
X85725Y35560
X85725Y33020
X12065Y33020
X12065Y35560
X12065Y38100
X38100Y69850
X27940Y69850
X60960Y69850
X50800Y69850
X31750Y74930
X34290Y74930
X54610Y74930
X57150Y74930
T6
X44862Y5712
X50642Y5712
X43427Y6202
X52077Y6202
X43427Y2032
X52077Y2032
T7
X25400Y6350
X55245Y58420
X35560Y12700
X26670Y3175
X56515Y9525
X81280Y55880
X32385Y22225
X22860Y22225
X7620Y12700
X50546Y19304
X64770Y15875
X41910Y21590
X52070Y14605
X83185Y49530
X8890Y18415
X9525Y17780
X10160Y17145
X49657Y13208
X50800Y13335
X62230Y15240
X35560Y20955
X67310Y16510
X42545Y22225
X3810Y9017
X29845Y10795
X12065Y27305
X46990Y18415
X18415Y8255
X47625Y20320
X18415Y19685
X48260Y19685
X17145Y14605
X74930Y52705
X81280Y31750
X51435Y13970
X46355Y20320
X13970Y16510
X43180Y24765
X82550Y55245
X42545Y24130
X41910Y45720
X47625Y45720
X83820Y55245
X53340Y14605
X49530Y17272
X82550Y50800
X53975Y15240
X49784Y18542
X81915Y51435
X48895Y3175
X59055Y5080
X47625Y3175
X55880Y5715
X48260Y15875
X47625Y15240
X42926Y14986
X40640Y12065
X36957Y15240
X69215Y74930
X26035Y74930
X76200Y74930
X17780Y74930
X27940Y6350
X32385Y15240
X69215Y5715
X65405Y5715
X69215Y17145
X18415Y23495
X10795Y15875
X26035Y15875
X13335Y27305
X23495Y27305
X33655Y27305
X43815Y27305
X17145Y15875
X53975Y27305
X64135Y27305
X74295Y27305
X81280Y27305
X75565Y58420
X65405Y58420
X45085Y58420
X34925Y58420
X24765Y58420
X14605Y58420
X4445Y58420
X31115Y8890
X59055Y23495
X59055Y20955
X51435Y23495
M30