G04 EAGLE Gerber RS-274X export*
G75*
%MOMM*%
%FSLAX34Y34*%
%LPD*%
%IN*%
%IPPOS*%
%AMOC8*
5,1,8,0,0,1.08239X$1,22.5*%
G01*
%ADD10C,0.254000*%


D10*
X-400000Y-2500000D02*
X0Y-3000000D01*
X400000Y-2500000D01*
X250000Y-400000D01*
X350000Y0D01*
X300000Y50000D01*
X-300000Y50000D01*
X-350000Y0D01*
X-250000Y-400000D01*
X-400000Y-2500000D01*
X-192273Y-357783D02*
X-192199Y-358034D01*
X-192103Y-358278D01*
X-191986Y-358512D01*
X-191849Y-358735D01*
X-191694Y-358946D01*
X-191520Y-359142D01*
X-191330Y-359322D01*
X-191126Y-359485D01*
X-190907Y-359629D01*
X-190677Y-359754D01*
X-190437Y-359858D01*
X-190189Y-359942D01*
X-189935Y-360003D01*
X-189676Y-360041D01*
X-189415Y-360057D01*
X-189153Y-360050D01*
X-188893Y-360021D01*
X-188636Y-359969D01*
X-177963Y-357307D01*
X-177712Y-357233D01*
X-177469Y-357137D01*
X-177234Y-357020D01*
X-177011Y-356884D01*
X-176801Y-356728D01*
X-176605Y-356555D01*
X-176425Y-356365D01*
X-176262Y-356160D01*
X-176117Y-355942D01*
X-175993Y-355712D01*
X-175888Y-355472D01*
X-175805Y-355223D01*
X-175744Y-354969D01*
X-175705Y-354710D01*
X-175689Y-354449D01*
X-175696Y-354187D01*
X-175726Y-353927D01*
X-175778Y-353671D01*
X-175852Y-353420D01*
X-175948Y-353176D01*
X-176065Y-352942D01*
X-176202Y-352719D01*
X-176357Y-352509D01*
X-176531Y-352313D01*
X-176721Y-352132D01*
X-176926Y-351970D01*
X-177144Y-351825D01*
X-177374Y-351700D01*
X-177614Y-351596D01*
X-177862Y-351513D01*
X-178116Y-351452D01*
X-178375Y-351413D01*
X-178637Y-351397D01*
X-178898Y-351404D01*
X-179158Y-351434D01*
X-179415Y-351486D01*
X-190088Y-354147D01*
X-190339Y-354221D01*
X-190582Y-354317D01*
X-190817Y-354434D01*
X-191040Y-354571D01*
X-191250Y-354726D01*
X-191446Y-354900D01*
X-191626Y-355090D01*
X-191789Y-355294D01*
X-191934Y-355513D01*
X-192059Y-355743D01*
X-192163Y-355983D01*
X-192246Y-356231D01*
X-192307Y-356485D01*
X-192346Y-356744D01*
X-192362Y-357005D01*
X-192355Y-357267D01*
X-192325Y-357527D01*
X-192273Y-357783D01*
X-213199Y-273853D02*
X-213125Y-274104D01*
X-213029Y-274347D01*
X-212912Y-274582D01*
X-212776Y-274805D01*
X-212620Y-275015D01*
X-212446Y-275211D01*
X-212257Y-275391D01*
X-212052Y-275554D01*
X-211834Y-275699D01*
X-211604Y-275823D01*
X-211364Y-275928D01*
X-211115Y-276011D01*
X-210861Y-276072D01*
X-210602Y-276111D01*
X-210341Y-276127D01*
X-210079Y-276120D01*
X-209819Y-276090D01*
X-209563Y-276038D01*
X-198889Y-273377D01*
X-198638Y-273303D01*
X-198395Y-273207D01*
X-198161Y-273090D01*
X-197938Y-272953D01*
X-197727Y-272797D01*
X-197531Y-272624D01*
X-197351Y-272434D01*
X-197188Y-272229D01*
X-197044Y-272011D01*
X-196919Y-271781D01*
X-196814Y-271541D01*
X-196731Y-271293D01*
X-196670Y-271038D01*
X-196632Y-270780D01*
X-196616Y-270518D01*
X-196622Y-270257D01*
X-196652Y-269997D01*
X-196704Y-269740D01*
X-196779Y-269489D01*
X-196875Y-269246D01*
X-196991Y-269012D01*
X-197128Y-268788D01*
X-197284Y-268578D01*
X-197457Y-268382D01*
X-197647Y-268202D01*
X-197852Y-268039D01*
X-198070Y-267894D01*
X-198300Y-267770D01*
X-198540Y-267665D01*
X-198788Y-267582D01*
X-199043Y-267521D01*
X-199302Y-267482D01*
X-199563Y-267466D01*
X-199824Y-267473D01*
X-200084Y-267503D01*
X-200341Y-267555D01*
X-211014Y-270216D01*
X-211265Y-270291D01*
X-211509Y-270387D01*
X-211743Y-270503D01*
X-211966Y-270640D01*
X-212176Y-270796D01*
X-212372Y-270969D01*
X-212553Y-271159D01*
X-212715Y-271364D01*
X-212860Y-271582D01*
X-212985Y-271812D01*
X-213089Y-272052D01*
X-213172Y-272300D01*
X-213233Y-272555D01*
X-213272Y-272814D01*
X-213288Y-273075D01*
X-213281Y-273336D01*
X-213251Y-273596D01*
X-213199Y-273853D01*
X-252205Y-283578D02*
X-252131Y-283829D01*
X-252035Y-284073D01*
X-251918Y-284307D01*
X-251781Y-284530D01*
X-251626Y-284740D01*
X-251452Y-284936D01*
X-251262Y-285117D01*
X-251058Y-285279D01*
X-250839Y-285424D01*
X-250609Y-285549D01*
X-250369Y-285653D01*
X-250121Y-285736D01*
X-249867Y-285797D01*
X-249608Y-285836D01*
X-249347Y-285852D01*
X-249085Y-285845D01*
X-248825Y-285815D01*
X-248569Y-285763D01*
X-240806Y-283828D01*
X-240555Y-283754D01*
X-240312Y-283658D01*
X-240078Y-283541D01*
X-239854Y-283404D01*
X-239644Y-283248D01*
X-239448Y-283075D01*
X-239268Y-282885D01*
X-239105Y-282680D01*
X-238960Y-282462D01*
X-238836Y-282232D01*
X-238731Y-281992D01*
X-238648Y-281744D01*
X-238587Y-281489D01*
X-238548Y-281231D01*
X-238532Y-280969D01*
X-238539Y-280708D01*
X-238569Y-280448D01*
X-238621Y-280191D01*
X-238695Y-279940D01*
X-238791Y-279697D01*
X-238908Y-279463D01*
X-239045Y-279239D01*
X-239201Y-279029D01*
X-239374Y-278833D01*
X-239564Y-278653D01*
X-239769Y-278490D01*
X-239987Y-278346D01*
X-240217Y-278221D01*
X-240457Y-278116D01*
X-240705Y-278033D01*
X-240960Y-277972D01*
X-241218Y-277933D01*
X-241480Y-277917D01*
X-241741Y-277924D01*
X-242001Y-277954D01*
X-242258Y-278006D01*
X-250020Y-279942D01*
X-250271Y-280016D01*
X-250515Y-280112D01*
X-250749Y-280229D01*
X-250972Y-280365D01*
X-251182Y-280521D01*
X-251378Y-280694D01*
X-251558Y-280884D01*
X-251721Y-281089D01*
X-251866Y-281307D01*
X-251991Y-281537D01*
X-252095Y-281777D01*
X-252178Y-282025D01*
X-252239Y-282280D01*
X-252278Y-282539D01*
X-252294Y-282800D01*
X-252287Y-283062D01*
X-252257Y-283322D01*
X-252205Y-283578D01*
X-231279Y-367509D02*
X-231205Y-367760D01*
X-231109Y-368003D01*
X-230992Y-368237D01*
X-230855Y-368461D01*
X-230700Y-368671D01*
X-230526Y-368867D01*
X-230336Y-369047D01*
X-230131Y-369210D01*
X-229913Y-369354D01*
X-229683Y-369479D01*
X-229443Y-369584D01*
X-229195Y-369667D01*
X-228940Y-369728D01*
X-228682Y-369767D01*
X-228420Y-369783D01*
X-228159Y-369776D01*
X-227899Y-369746D01*
X-227642Y-369694D01*
X-219880Y-367758D01*
X-219629Y-367684D01*
X-219385Y-367588D01*
X-219151Y-367471D01*
X-218928Y-367335D01*
X-218718Y-367179D01*
X-218522Y-367006D01*
X-218342Y-366816D01*
X-218179Y-366611D01*
X-218034Y-366393D01*
X-217909Y-366163D01*
X-217805Y-365923D01*
X-217722Y-365674D01*
X-217661Y-365420D01*
X-217622Y-365161D01*
X-217606Y-364900D01*
X-217613Y-364638D01*
X-217643Y-364378D01*
X-217695Y-364122D01*
X-217769Y-363871D01*
X-217865Y-363627D01*
X-217982Y-363393D01*
X-218119Y-363170D01*
X-218274Y-362960D01*
X-218448Y-362764D01*
X-218638Y-362583D01*
X-218842Y-362421D01*
X-219061Y-362276D01*
X-219291Y-362151D01*
X-219531Y-362047D01*
X-219779Y-361964D01*
X-220033Y-361903D01*
X-220292Y-361864D01*
X-220553Y-361848D01*
X-220815Y-361855D01*
X-221075Y-361885D01*
X-221331Y-361937D01*
X-229094Y-363872D01*
X-229345Y-363946D01*
X-229588Y-364042D01*
X-229822Y-364159D01*
X-230046Y-364296D01*
X-230256Y-364452D01*
X-230452Y-364625D01*
X-230632Y-364815D01*
X-230795Y-365020D01*
X-230940Y-365238D01*
X-231064Y-365468D01*
X-231169Y-365708D01*
X-231252Y-365956D01*
X-231313Y-366211D01*
X-231352Y-366469D01*
X-231368Y-366731D01*
X-231361Y-366992D01*
X-231331Y-367252D01*
X-231279Y-367509D01*
X200000Y-224600D02*
X200095Y-226779D01*
X200380Y-228941D01*
X200852Y-231070D01*
X201508Y-233151D01*
X202342Y-235165D01*
X203349Y-237100D01*
X204521Y-238939D01*
X205849Y-240670D01*
X207322Y-242278D01*
X208930Y-243751D01*
X210661Y-245079D01*
X212500Y-246251D01*
X214435Y-247258D01*
X216450Y-248092D01*
X218530Y-248748D01*
X220659Y-249220D01*
X222821Y-249505D01*
X225000Y-249600D01*
X227179Y-249505D01*
X229341Y-249220D01*
X231470Y-248748D01*
X233551Y-248092D01*
X235565Y-247258D01*
X237500Y-246251D01*
X239339Y-245079D01*
X241070Y-243751D01*
X242678Y-242278D01*
X244151Y-240670D01*
X245479Y-238939D01*
X246651Y-237100D01*
X247658Y-235165D01*
X248492Y-233151D01*
X249148Y-231070D01*
X249620Y-228941D01*
X249905Y-226779D01*
X250000Y-224600D01*
X250000Y-24600D01*
X249905Y-22421D01*
X249620Y-20259D01*
X249148Y-18130D01*
X248492Y-16050D01*
X247658Y-14035D01*
X246651Y-12100D01*
X245479Y-10261D01*
X244151Y-8530D01*
X242678Y-6922D01*
X241070Y-5449D01*
X239339Y-4121D01*
X237500Y-2949D01*
X235565Y-1942D01*
X233551Y-1108D01*
X231470Y-452D01*
X229341Y20D01*
X227179Y305D01*
X225000Y400D01*
X222821Y305D01*
X220659Y20D01*
X218530Y-452D01*
X216450Y-1108D01*
X214435Y-1942D01*
X212500Y-2949D01*
X210661Y-4121D01*
X208930Y-5449D01*
X207322Y-6922D01*
X205849Y-8530D01*
X204521Y-10261D01*
X203349Y-12100D01*
X202342Y-14035D01*
X201508Y-16050D01*
X200852Y-18130D01*
X200380Y-20259D01*
X200095Y-22421D01*
X200000Y-24600D01*
X200000Y-224600D01*
X-250000Y-224600D02*
X-249905Y-226779D01*
X-249620Y-228941D01*
X-249148Y-231070D01*
X-248492Y-233151D01*
X-247658Y-235165D01*
X-246651Y-237100D01*
X-245479Y-238939D01*
X-244151Y-240670D01*
X-242678Y-242278D01*
X-241070Y-243751D01*
X-239339Y-245079D01*
X-237500Y-246251D01*
X-235565Y-247258D01*
X-233551Y-248092D01*
X-231470Y-248748D01*
X-229341Y-249220D01*
X-227179Y-249505D01*
X-225000Y-249600D01*
X-222821Y-249505D01*
X-220659Y-249220D01*
X-218530Y-248748D01*
X-216450Y-248092D01*
X-214435Y-247258D01*
X-212500Y-246251D01*
X-210661Y-245079D01*
X-208930Y-243751D01*
X-207322Y-242278D01*
X-205849Y-240670D01*
X-204521Y-238939D01*
X-203349Y-237100D01*
X-202342Y-235165D01*
X-201508Y-233151D01*
X-200852Y-231070D01*
X-200380Y-228941D01*
X-200095Y-226779D01*
X-200000Y-224600D01*
X-200000Y-24600D01*
X-200095Y-22421D01*
X-200380Y-20259D01*
X-200852Y-18130D01*
X-201508Y-16050D01*
X-202342Y-14035D01*
X-203349Y-12100D01*
X-204521Y-10261D01*
X-205849Y-8530D01*
X-207322Y-6922D01*
X-208930Y-5449D01*
X-210661Y-4121D01*
X-212500Y-2949D01*
X-214435Y-1942D01*
X-216450Y-1108D01*
X-218530Y-452D01*
X-220659Y20D01*
X-222821Y305D01*
X-225000Y400D01*
X-227179Y305D01*
X-229341Y20D01*
X-231470Y-452D01*
X-233551Y-1108D01*
X-235565Y-1942D01*
X-237500Y-2949D01*
X-239339Y-4121D01*
X-241070Y-5449D01*
X-242678Y-6922D01*
X-244151Y-8530D01*
X-245479Y-10261D01*
X-246651Y-12100D01*
X-247658Y-14035D01*
X-248492Y-16050D01*
X-249148Y-18130D01*
X-249620Y-20259D01*
X-249905Y-22421D01*
X-250000Y-24600D01*
X-250000Y-224600D01*
X-239368Y-590337D02*
X-239393Y-589748D01*
X-239496Y-589167D01*
X-239673Y-588605D01*
X-239922Y-588070D01*
X-240239Y-587572D01*
X-240619Y-587120D01*
X-241053Y-586722D01*
X-241537Y-586384D01*
X-242060Y-586111D01*
X-242614Y-585909D01*
X-243190Y-585782D01*
X-243778Y-585730D01*
X-244367Y-585756D01*
X-244948Y-585859D01*
X-245511Y-586036D01*
X-246045Y-586285D01*
X-246543Y-586602D01*
X-246995Y-586981D01*
X-247393Y-587416D01*
X-247732Y-587899D01*
X-248004Y-588423D01*
X-248206Y-588977D01*
X-248333Y-589553D01*
X-248385Y-590141D01*
X-248359Y-590730D01*
X-248257Y-591311D01*
X-248079Y-591873D01*
X-247830Y-592408D01*
X-247513Y-592906D01*
X-247134Y-593357D01*
X-246699Y-593756D01*
X-246216Y-594094D01*
X-245692Y-594367D01*
X-245138Y-594568D01*
X-244562Y-594696D01*
X-243975Y-594748D01*
X-243385Y-594722D01*
X-242804Y-594619D01*
X-242242Y-594442D01*
X-241707Y-594193D01*
X-241210Y-593876D01*
X-240758Y-593497D01*
X-240359Y-593062D01*
X-240021Y-592578D01*
X-239748Y-592055D01*
X-239547Y-591501D01*
X-239419Y-590925D01*
X-239368Y-590337D01*
X-236755Y-560479D02*
X-236781Y-559890D01*
X-236883Y-559309D01*
X-237061Y-558747D01*
X-237310Y-558212D01*
X-237627Y-557714D01*
X-238006Y-557263D01*
X-238441Y-556864D01*
X-238924Y-556526D01*
X-239448Y-556253D01*
X-240002Y-556052D01*
X-240578Y-555924D01*
X-241166Y-555872D01*
X-241755Y-555898D01*
X-242336Y-556001D01*
X-242898Y-556178D01*
X-243433Y-556427D01*
X-243931Y-556744D01*
X-244382Y-557123D01*
X-244781Y-557558D01*
X-245119Y-558042D01*
X-245392Y-558565D01*
X-245593Y-559119D01*
X-245721Y-559695D01*
X-245772Y-560283D01*
X-245747Y-560872D01*
X-245644Y-561453D01*
X-245467Y-562015D01*
X-245218Y-562550D01*
X-244901Y-563048D01*
X-244522Y-563500D01*
X-244087Y-563898D01*
X-243603Y-564236D01*
X-243080Y-564509D01*
X-242526Y-564711D01*
X-241950Y-564838D01*
X-241362Y-564890D01*
X-240773Y-564864D01*
X-240192Y-564761D01*
X-239629Y-564584D01*
X-239095Y-564335D01*
X-238597Y-564018D01*
X-238145Y-563639D01*
X-237747Y-563204D01*
X-237409Y-562721D01*
X-237136Y-562197D01*
X-236934Y-561643D01*
X-236807Y-561067D01*
X-236755Y-560479D01*
X-205738Y-289874D02*
X-206208Y-289915D01*
X-206679Y-289882D01*
X-207140Y-289776D01*
X-207577Y-289599D01*
X-207982Y-289356D01*
X-208344Y-289052D01*
X-208654Y-288696D01*
X-208904Y-288295D01*
X-209088Y-287861D01*
X-209203Y-287402D01*
X-209244Y-286932D01*
X-209211Y-286461D01*
X-209105Y-286001D01*
X-208928Y-285563D01*
X-208685Y-285158D01*
X-208381Y-284796D01*
X-208025Y-284487D01*
X-207624Y-284236D01*
X-207190Y-284052D01*
X-206731Y-283938D01*
X-206261Y-283897D01*
X-205790Y-283929D01*
X-205330Y-284036D01*
X-204892Y-284213D01*
X-204487Y-284456D01*
X-204125Y-284759D01*
X-203816Y-285116D01*
X-203565Y-285516D01*
X-203381Y-285951D01*
X-203267Y-286409D01*
X-203226Y-286879D01*
X-203258Y-287351D01*
X-203365Y-287811D01*
X-203542Y-288248D01*
X-203785Y-288653D01*
X-204088Y-289015D01*
X-204445Y-289325D01*
X-204845Y-289575D01*
X-205280Y-289759D01*
X-205738Y-289874D01*
X-191755Y-345957D02*
X-192225Y-345998D01*
X-192696Y-345965D01*
X-193156Y-345859D01*
X-193594Y-345682D01*
X-193999Y-345439D01*
X-194361Y-345135D01*
X-194671Y-344779D01*
X-194921Y-344378D01*
X-195105Y-343944D01*
X-195220Y-343486D01*
X-195261Y-343015D01*
X-195228Y-342544D01*
X-195122Y-342084D01*
X-194945Y-341646D01*
X-194701Y-341241D01*
X-194398Y-340880D01*
X-194042Y-340570D01*
X-193641Y-340320D01*
X-193206Y-340135D01*
X-192748Y-340021D01*
X-192278Y-339980D01*
X-191807Y-340013D01*
X-191347Y-340119D01*
X-190909Y-340296D01*
X-190504Y-340539D01*
X-190142Y-340842D01*
X-189833Y-341199D01*
X-189582Y-341599D01*
X-189398Y-342034D01*
X-189284Y-342492D01*
X-189242Y-342963D01*
X-189275Y-343434D01*
X-189382Y-343894D01*
X-189558Y-344332D01*
X-189802Y-344736D01*
X-190105Y-345098D01*
X-190462Y-345408D01*
X-190862Y-345658D01*
X-191297Y-345843D01*
X-191755Y-345957D01*
M02*
