M48
;Layer_Color=6321
;FILE_FORMAT=2:5
INCH,LZ
;TYPE=PLATED
T1F00S00C0.00787
T2F00S00C0.01000
T3F00S00C0.01500
T4F00S00C0.03150
T5F00S00C0.03347
T6F00S00C0.03937
T7F00S00C0.04134
T8F00S00C0.04200
T9F00S00C0.04528
T10F00S00C0.04724
T11F00S00C0.16000
;TYPE=NON_PLATED
T12F00S00C0.03900
%
T01
X0521063Y02485
X0523032Y0250468
X0521063Y0252437
X0525Y0252437
X0525Y02485
X0412496Y0249504
X0408165
X0403835
X0399504
Y0253835
Y0258165
Y0262496
X0403835
Y0258165
Y0253835
X0408165
Y0258165
Y0262496
X0412496
Y0258165
Y0253835
T02
X0455Y01545
X04925Y0153
X04875Y01355
Y01285
X0497Y01295
X0504
X05Y0137
X04825Y0138
X04755Y0135
X0479Y0126
X0492Y01175
Y01095
X04885Y01005
X0504Y0099
Y0094
X0499Y0091
X0516Y0093
X05175Y01015
Y01065
Y01115
Y01165
X0551Y0156
X05635
Y01515
X0571Y01485
X0583Y0153
X06295Y0191
X06275Y02135
X06411Y02151
X0644Y02055
X06495Y02235
X0652Y0244
X06465Y02525
X06595Y02665
X0657Y0278
X06525
X0640571Y0279571
X0644Y0312
X0636228Y03114
X0625Y03105
X06185Y02985
X0596Y02775
X0589Y0282
X05655Y02715
X0536Y02725
X0532Y02785
X0517Y0275
X05095Y02735
X051Y02675
X0515
X0502Y02705
X0495
X04935Y028
X0489Y0285
X04855Y02895
X04735Y0288
X04725Y0298
X0477Y02985
X04955Y0295
X05035Y02885
X05Y0285
X04815Y02785
X04715Y02635
Y0256
X0471Y0251
Y02445
X04785
X04825Y0241
Y025
X0488Y02455
X0499Y0235
X0494Y02285
X0496Y02185
X04835Y021
X04775Y0215
X04735Y02195
X047Y02235
X04735Y0198
X04755Y01925
X04915Y0186
X05015
X05105
X0512Y01775
X05075Y01615
X0510468Y01565
X0529Y0158
X05365Y016
X05385Y01675
X0529Y0169
X05315Y0175
X05255Y01855
Y01905
X05225
Y0199
X05255Y0198
X0514Y02
X05175Y0205
Y0212
X0532Y02185
X05385Y02145
X05505Y02215
X0555Y0218
X05565Y0227
X0564Y02205
X0587Y0218
X05895Y02055
X0587Y01995
X05905Y0197
X0597Y0194
Y01835
X05905Y01845
X0594Y01725
X05889Y01671
X05905Y01605
X05635Y0159
X05585Y0164
X0555Y01695
X05685Y01685
X05635Y01825
X0561Y0197
X05495Y01915
X0546Y01885
X0551Y0159
X0493Y0163
X0497Y0169
X04875Y01685
X0482Y01625
X0488Y01565
X04915Y02015
X0501Y02005
X0532Y0245
X0533Y02485
Y02545
X0543Y02575
X05455Y02515
X05405Y02465
X05425Y02435
X05775Y02425
X0578Y02485
X0624Y0249
X06225Y0229
X0624Y0198
X0597Y02045
X05795Y01995
X061Y01745
X05725Y03015
X0567Y0307
X0562Y03005
X0553Y03
X05455Y0299
X05775Y031
X04635Y03105
X0458Y0311
X04585Y03065
X0453Y0309
X04485Y03095
X0449Y0301
X04435Y0304
X04415Y0312
X04335Y0308
Y0302
X04255
X0424Y03075
X04135Y0305
X039Y03035
X03775
X0365
X0354Y03115
X03445Y031
Y03035
X0331
X0322Y02995
X03385Y0294
X0334Y02865
X0341Y027
X03355Y0264
X03175
X03145Y0282
X0366Y02785
X0372
X03745Y02875
X0384Y0287
X0383Y02675
X0361Y027
X03545Y02645
X03605Y0221
X0356Y02095
X0353Y02015
X03545Y01955
X03495
X03775Y0197
X0378Y020175
Y02065
Y021125
Y0216
Y022075
X03775Y02255
X0383
X0388
X0393
X03985Y02265
X0417Y0229
X04215Y0228
X0425Y0225
X04285Y02215
X0432Y02175
X04355Y0214
X0439Y0211
X0444333
X0449667
X0455
X0455Y0206071
Y0201143
Y0196214
Y0191286
Y0186357
Y0181429
Y01765
Y0172
Y01675
Y01625
Y0158
X0463Y0208
X04685Y02035
X04545Y02165
X04485Y0222
X045Y0235
X0455Y02335
X0464Y0237
X0466Y02445
X0463Y02475
X04655Y0251
Y0256
Y0263
X0465Y0269
Y02735
X0457Y0269
X04505Y0266
X0459Y02575
X04585Y02525
X04415Y0252
Y02475
X0441Y0242
X04455Y02425
X0429
Y02355
X043Y02285
X04385Y0228
X04325Y02475
X0427Y02545
X04415Y02575
X0433222Y0266722
X04315Y02725
X04375
X0401Y0282
X04655Y02285
X03365Y02265
X0324Y02255
Y02185
X0326Y02125
X03095Y02185
X031Y02255
X0302Y0222
X0298Y02285
X03035Y02375
X0286Y02365
X02945Y02125
X02846Y02722
X0272Y0265
X0279Y029
X0294Y0291
X03085Y0304
X0308Y03115
X0303Y03223
X029Y03255
X03125Y034
X03334Y03524
X03315Y03585
X036Y03635
X0373Y03535
X0379Y0337
Y0331
X03775Y03125
X039
X0365
X0359Y0316
X03465Y0319
X0351Y03235
X0404Y03305
X04035Y0337
X0412
Y03305
X04265Y033
Y03365
Y0347
X04435Y0337
Y03295
X0467Y033
Y0337
X0457Y03155
X0443Y0381
X04295Y038
X04285Y0399
X03995Y03815
X03805Y03725
X0373Y03792
X0489Y03765
X05035Y0374
X0505Y03795
X0481491Y0391009
X0483Y0357
X04815Y03265
X0475Y0323
X04725Y0316
X04755Y0313
X04795Y03125
X04925Y03155
X05031
X05138
X05245
X05352
X05459
X0515Y0335
X0572Y03485
X0589Y0352
X05995Y0351
X05915Y034
X0615Y03365
X0623Y0334
X06175Y03165
X05635Y03655
T03
X04845Y02975
Y03175
X05975Y03325
T04
X06215Y0267878
Y0275752
Y0283626
T05
X0499216Y0070704
X05189
T06
X06215Y0260004
Y02915
X0599Y0312
X0589
Y0322
X0599
T07
X04085Y0283
X04185
X04285
X04385
X04485
X04585
X04685
Y0293
X04585
X04485
X04385
X04285
X04185
X04085
T08
X0515602Y0291394
X0525602
X0535603
X0545603
X0555603
X0565602
X0575602
X0585603
T09
X0495279Y0060074
X0522837
T10
X0356953Y0333748
X0561638
T11
X0457Y03875
T12
X05675Y01845
X05875Y01805
Y01885
X04505Y02425
X04545Y02625
X04465
M30
