G04 EAGLE Gerber RS-274X export*
G75*
%MOMM*%
%FSLAX34Y34*%
%LPD*%
%INSilkscreen Bottom*%
%IPPOS*%
%AMOC8*
5,1,8,0,0,1.08239X$1,22.5*%
G01*
%ADD10C,0.203200*%
%ADD11C,0.304800*%
%ADD12R,0.406400X0.101600*%
%ADD13R,0.203200X0.101600*%
%ADD14R,0.609600X0.101600*%
%ADD15R,0.381000X0.127000*%
%ADD16R,1.143000X0.127000*%
%ADD17R,0.762000X0.127000*%
%ADD18R,1.905000X0.127000*%
%ADD19R,1.524000X0.127000*%
%ADD20R,3.048000X0.127000*%
%ADD21R,4.191000X0.127000*%
%ADD22C,0.101600*%
%ADD23C,0.254000*%
%ADD24C,0.457200*%
%ADD25C,0.152400*%
%ADD26C,0.076200*%
%ADD27C,0.508000*%


D10*
X247842Y-2473291D02*
X251723Y-2451279D01*
X241940Y-2449553D01*
X240215Y-2459337D02*
X249998Y-2461062D01*
X234458Y-2448234D02*
X230576Y-2470247D01*
X220793Y-2468521D01*
X215224Y-2467540D02*
X211768Y-2444233D01*
X200549Y-2464952D01*
X203354Y-2459772D02*
X214360Y-2461713D01*
X187011Y-2449955D02*
X183342Y-2449309D01*
X181186Y-2461538D01*
X188523Y-2462831D01*
X188523Y-2462832D02*
X188661Y-2462854D01*
X188799Y-2462872D01*
X188938Y-2462887D01*
X189077Y-2462897D01*
X189216Y-2462904D01*
X189355Y-2462907D01*
X189494Y-2462906D01*
X189634Y-2462901D01*
X189773Y-2462892D01*
X189911Y-2462879D01*
X190050Y-2462862D01*
X190187Y-2462842D01*
X190325Y-2462818D01*
X190461Y-2462789D01*
X190597Y-2462757D01*
X190731Y-2462721D01*
X190865Y-2462682D01*
X190997Y-2462638D01*
X191128Y-2462591D01*
X191258Y-2462541D01*
X191386Y-2462486D01*
X191513Y-2462428D01*
X191638Y-2462367D01*
X191762Y-2462302D01*
X191883Y-2462234D01*
X192002Y-2462162D01*
X192120Y-2462087D01*
X192235Y-2462009D01*
X192348Y-2461927D01*
X192459Y-2461843D01*
X192567Y-2461755D01*
X192673Y-2461664D01*
X192776Y-2461571D01*
X192876Y-2461474D01*
X192974Y-2461375D01*
X193069Y-2461273D01*
X193161Y-2461168D01*
X193250Y-2461061D01*
X193336Y-2460951D01*
X193419Y-2460839D01*
X193499Y-2460725D01*
X193575Y-2460609D01*
X193648Y-2460490D01*
X193718Y-2460370D01*
X193785Y-2460247D01*
X193848Y-2460123D01*
X193907Y-2459997D01*
X193963Y-2459869D01*
X194015Y-2459740D01*
X194064Y-2459610D01*
X194109Y-2459478D01*
X194150Y-2459345D01*
X194188Y-2459211D01*
X194221Y-2459075D01*
X194251Y-2458939D01*
X194278Y-2458802D01*
X194277Y-2458802D02*
X196434Y-2446573D01*
X196434Y-2446574D02*
X196456Y-2446436D01*
X196474Y-2446298D01*
X196489Y-2446159D01*
X196499Y-2446020D01*
X196506Y-2445881D01*
X196509Y-2445742D01*
X196508Y-2445603D01*
X196503Y-2445463D01*
X196494Y-2445324D01*
X196481Y-2445186D01*
X196464Y-2445047D01*
X196444Y-2444910D01*
X196420Y-2444772D01*
X196391Y-2444636D01*
X196359Y-2444500D01*
X196323Y-2444366D01*
X196284Y-2444232D01*
X196240Y-2444100D01*
X196193Y-2443969D01*
X196143Y-2443839D01*
X196088Y-2443711D01*
X196030Y-2443584D01*
X195969Y-2443459D01*
X195904Y-2443336D01*
X195836Y-2443214D01*
X195764Y-2443095D01*
X195689Y-2442977D01*
X195611Y-2442862D01*
X195529Y-2442749D01*
X195445Y-2442638D01*
X195357Y-2442530D01*
X195266Y-2442424D01*
X195173Y-2442321D01*
X195076Y-2442221D01*
X194977Y-2442123D01*
X194875Y-2442028D01*
X194770Y-2441936D01*
X194663Y-2441847D01*
X194553Y-2441761D01*
X194441Y-2441678D01*
X194327Y-2441598D01*
X194211Y-2441522D01*
X194092Y-2441449D01*
X193972Y-2441379D01*
X193849Y-2441312D01*
X193725Y-2441249D01*
X193599Y-2441190D01*
X193471Y-2441134D01*
X193342Y-2441082D01*
X193212Y-2441033D01*
X193080Y-2440988D01*
X192947Y-2440947D01*
X192813Y-2440909D01*
X192677Y-2440876D01*
X192541Y-2440846D01*
X192405Y-2440819D01*
X185067Y-2439525D01*
X174233Y-2451485D02*
X159558Y-2448898D01*
X151113Y-2451191D02*
X149240Y-2433208D01*
X151113Y-2451191D02*
X138884Y-2449035D01*
X143415Y-2444790D02*
X141690Y-2454573D01*
X131551Y-2452786D02*
X120758Y-2428186D01*
X135433Y-2430773D02*
X116876Y-2450198D01*
X114952Y-2427162D02*
X102723Y-2425006D01*
X111070Y-2449174D01*
X98841Y-2447018D01*
X91077Y-2445649D02*
X94958Y-2423636D01*
X88844Y-2422558D01*
X88690Y-2422533D01*
X88536Y-2422512D01*
X88381Y-2422494D01*
X88225Y-2422481D01*
X88069Y-2422471D01*
X87913Y-2422466D01*
X87757Y-2422464D01*
X87601Y-2422466D01*
X87445Y-2422472D01*
X87290Y-2422482D01*
X87134Y-2422496D01*
X86979Y-2422514D01*
X86825Y-2422536D01*
X86671Y-2422561D01*
X86518Y-2422591D01*
X86365Y-2422624D01*
X86213Y-2422661D01*
X86063Y-2422702D01*
X85913Y-2422747D01*
X85765Y-2422795D01*
X85618Y-2422847D01*
X85472Y-2422903D01*
X85328Y-2422963D01*
X85185Y-2423026D01*
X85044Y-2423092D01*
X84905Y-2423163D01*
X84767Y-2423236D01*
X84632Y-2423313D01*
X84498Y-2423394D01*
X84366Y-2423478D01*
X84237Y-2423565D01*
X84109Y-2423655D01*
X83984Y-2423748D01*
X83862Y-2423845D01*
X83742Y-2423945D01*
X83624Y-2424047D01*
X83509Y-2424153D01*
X83397Y-2424261D01*
X83288Y-2424372D01*
X83181Y-2424486D01*
X83077Y-2424603D01*
X82976Y-2424722D01*
X82879Y-2424844D01*
X82784Y-2424968D01*
X82692Y-2425094D01*
X82604Y-2425223D01*
X82519Y-2425353D01*
X82437Y-2425486D01*
X82359Y-2425621D01*
X82284Y-2425758D01*
X82212Y-2425897D01*
X82144Y-2426037D01*
X82080Y-2426179D01*
X82019Y-2426323D01*
X81962Y-2426468D01*
X81908Y-2426615D01*
X81858Y-2426763D01*
X81812Y-2426912D01*
X81770Y-2427062D01*
X81731Y-2427213D01*
X81696Y-2427365D01*
X81665Y-2427518D01*
X81638Y-2427672D01*
X81615Y-2427826D01*
X81596Y-2427981D01*
X81580Y-2428136D01*
X81569Y-2428292D01*
X81561Y-2428448D01*
X81557Y-2428604D01*
X81558Y-2428760D01*
X81562Y-2428916D01*
X81570Y-2429072D01*
X81582Y-2429227D01*
X81598Y-2429382D01*
X81617Y-2429537D01*
X81641Y-2429691D01*
X81669Y-2429845D01*
X81700Y-2429998D01*
X81735Y-2430150D01*
X81774Y-2430301D01*
X81817Y-2430451D01*
X81864Y-2430600D01*
X81914Y-2430748D01*
X81968Y-2430894D01*
X82025Y-2431039D01*
X82087Y-2431183D01*
X82152Y-2431325D01*
X82220Y-2431465D01*
X82292Y-2431603D01*
X82367Y-2431740D01*
X82446Y-2431875D01*
X82528Y-2432007D01*
X82614Y-2432138D01*
X82702Y-2432266D01*
X82794Y-2432392D01*
X82889Y-2432516D01*
X82987Y-2432637D01*
X83089Y-2432756D01*
X83193Y-2432873D01*
X83300Y-2432986D01*
X83409Y-2433097D01*
X83522Y-2433205D01*
X83637Y-2433310D01*
X83755Y-2433413D01*
X83875Y-2433512D01*
X83998Y-2433608D01*
X84123Y-2433701D01*
X84251Y-2433791D01*
X84381Y-2433878D01*
X84513Y-2433961D01*
X84647Y-2434041D01*
X84782Y-2434118D01*
X84920Y-2434191D01*
X85060Y-2434261D01*
X85201Y-2434327D01*
X85344Y-2434390D01*
X85488Y-2434449D01*
X85634Y-2434505D01*
X85781Y-2434556D01*
X85930Y-2434604D01*
X86080Y-2434649D01*
X86230Y-2434689D01*
X86382Y-2434726D01*
X86535Y-2434759D01*
X86688Y-2434788D01*
X86687Y-2434787D02*
X92802Y-2435866D01*
X85465Y-2434572D02*
X78848Y-2443493D01*
X67160Y-2429453D02*
X76330Y-2420352D01*
X67160Y-2429453D02*
X61656Y-2417764D01*
X67160Y-2429453D02*
X65112Y-2441070D01*
X52383Y-2432521D02*
X52408Y-2432367D01*
X52429Y-2432213D01*
X52447Y-2432058D01*
X52460Y-2431902D01*
X52470Y-2431746D01*
X52475Y-2431590D01*
X52477Y-2431434D01*
X52475Y-2431278D01*
X52469Y-2431122D01*
X52459Y-2430967D01*
X52445Y-2430811D01*
X52427Y-2430656D01*
X52405Y-2430502D01*
X52380Y-2430348D01*
X52350Y-2430195D01*
X52317Y-2430042D01*
X52280Y-2429891D01*
X52239Y-2429740D01*
X52194Y-2429590D01*
X52146Y-2429442D01*
X52094Y-2429295D01*
X52038Y-2429149D01*
X51978Y-2429005D01*
X51915Y-2428862D01*
X51849Y-2428721D01*
X51778Y-2428582D01*
X51705Y-2428444D01*
X51628Y-2428309D01*
X51547Y-2428175D01*
X51464Y-2428043D01*
X51376Y-2427914D01*
X51286Y-2427786D01*
X51193Y-2427662D01*
X51096Y-2427539D01*
X50996Y-2427419D01*
X50894Y-2427301D01*
X50788Y-2427186D01*
X50680Y-2427074D01*
X50569Y-2426965D01*
X50455Y-2426858D01*
X50338Y-2426754D01*
X50219Y-2426653D01*
X50097Y-2426556D01*
X49973Y-2426461D01*
X49847Y-2426369D01*
X49718Y-2426281D01*
X49588Y-2426196D01*
X49455Y-2426114D01*
X49320Y-2426036D01*
X49183Y-2425961D01*
X49044Y-2425889D01*
X48904Y-2425821D01*
X48762Y-2425757D01*
X48618Y-2425696D01*
X48473Y-2425639D01*
X48326Y-2425585D01*
X48178Y-2425535D01*
X48029Y-2425489D01*
X47879Y-2425447D01*
X47728Y-2425408D01*
X47576Y-2425373D01*
X47423Y-2425342D01*
X47269Y-2425315D01*
X47115Y-2425292D01*
X46960Y-2425273D01*
X46805Y-2425257D01*
X46649Y-2425246D01*
X46493Y-2425238D01*
X46337Y-2425234D01*
X46181Y-2425235D01*
X46025Y-2425239D01*
X45869Y-2425247D01*
X45714Y-2425259D01*
X45559Y-2425275D01*
X45404Y-2425294D01*
X45250Y-2425318D01*
X45096Y-2425346D01*
X44943Y-2425377D01*
X44791Y-2425412D01*
X44640Y-2425451D01*
X44490Y-2425494D01*
X44341Y-2425541D01*
X44193Y-2425591D01*
X44047Y-2425645D01*
X43902Y-2425703D01*
X43758Y-2425764D01*
X43616Y-2425829D01*
X43476Y-2425897D01*
X43338Y-2425969D01*
X43201Y-2426044D01*
X43066Y-2426123D01*
X42934Y-2426205D01*
X42803Y-2426291D01*
X42675Y-2426379D01*
X42549Y-2426471D01*
X42425Y-2426566D01*
X42304Y-2426664D01*
X42185Y-2426766D01*
X42068Y-2426870D01*
X41955Y-2426977D01*
X41844Y-2427086D01*
X41736Y-2427199D01*
X41631Y-2427314D01*
X41528Y-2427432D01*
X41429Y-2427552D01*
X41333Y-2427675D01*
X41240Y-2427801D01*
X41150Y-2427928D01*
X41063Y-2428058D01*
X40980Y-2428190D01*
X40899Y-2428324D01*
X40823Y-2428459D01*
X40750Y-2428597D01*
X40680Y-2428737D01*
X40614Y-2428878D01*
X40551Y-2429021D01*
X40492Y-2429165D01*
X40436Y-2429311D01*
X40385Y-2429459D01*
X40337Y-2429607D01*
X40292Y-2429757D01*
X40252Y-2429907D01*
X40215Y-2430059D01*
X40182Y-2430212D01*
X40153Y-2430365D01*
X40128Y-2430520D01*
X40107Y-2430676D01*
X40089Y-2430832D01*
X40076Y-2430989D01*
X40066Y-2431146D01*
X40061Y-2431303D01*
X40059Y-2431461D01*
X40061Y-2431618D01*
X40068Y-2431775D01*
X40078Y-2431932D01*
X40093Y-2432089D01*
X40111Y-2432245D01*
X40133Y-2432401D01*
X40160Y-2432556D01*
X40190Y-2432710D01*
X40224Y-2432864D01*
X40262Y-2433016D01*
X40303Y-2433168D01*
X40349Y-2433319D01*
X40398Y-2433468D01*
X40452Y-2433616D01*
X40509Y-2433763D01*
X40569Y-2433908D01*
X40633Y-2434051D01*
X40701Y-2434193D01*
X40773Y-2434333D01*
X40848Y-2434472D01*
X40926Y-2434608D01*
X41008Y-2434742D01*
X41093Y-2434874D01*
X41182Y-2435004D01*
X41274Y-2435132D01*
X41369Y-2435257D01*
X41467Y-2435380D01*
X41568Y-2435501D01*
X41673Y-2435618D01*
X41780Y-2435733D01*
X41890Y-2435846D01*
X42003Y-2435955D01*
X42119Y-2436062D01*
X42237Y-2436166D01*
X42358Y-2436266D01*
X42481Y-2436364D01*
X42607Y-2436458D01*
X42735Y-2436549D01*
X42866Y-2436637D01*
X42999Y-2436721D01*
X43133Y-2436803D01*
X43270Y-2436880D01*
X43409Y-2436954D01*
X43549Y-2437025D01*
X43692Y-2437092D01*
X43836Y-2437156D01*
X43981Y-2437215D01*
X44128Y-2437272D01*
X44276Y-2437324D01*
X44426Y-2437372D01*
X44577Y-2437417D01*
X44729Y-2437458D01*
X44882Y-2437495D01*
X45035Y-2437528D01*
X45190Y-2437558D01*
X45345Y-2437583D01*
X45501Y-2437604D01*
X45657Y-2437622D01*
X45814Y-2437635D01*
X45971Y-2437645D01*
X46128Y-2437650D01*
X46285Y-2437652D01*
X46443Y-2437650D01*
X46600Y-2437643D01*
X46757Y-2437633D01*
X46914Y-2437618D01*
X47070Y-2437600D01*
X47225Y-2437578D01*
X47381Y-2437552D01*
X47535Y-2437521D01*
X47689Y-2437487D01*
X47841Y-2437449D01*
X47993Y-2437408D01*
X48143Y-2437362D01*
X48293Y-2437313D01*
X48441Y-2437259D01*
X48587Y-2437203D01*
X48733Y-2437142D01*
X48876Y-2437078D01*
X49018Y-2437010D01*
X49158Y-2436938D01*
X49296Y-2436863D01*
X49433Y-2436785D01*
X49567Y-2436703D01*
X49699Y-2436618D01*
X49829Y-2436529D01*
X49957Y-2436437D01*
X50082Y-2436342D01*
X50205Y-2436244D01*
X50326Y-2436143D01*
X50443Y-2436038D01*
X50558Y-2435931D01*
X50671Y-2435821D01*
X50780Y-2435708D01*
X50887Y-2435592D01*
X50990Y-2435474D01*
X51091Y-2435353D01*
X51189Y-2435230D01*
X51283Y-2435104D01*
X51374Y-2434976D01*
X51462Y-2434845D01*
X51546Y-2434713D01*
X51628Y-2434578D01*
X51705Y-2434441D01*
X51779Y-2434302D01*
X51850Y-2434162D01*
X51917Y-2434020D01*
X51981Y-2433876D01*
X52040Y-2433730D01*
X52097Y-2433583D01*
X52149Y-2433435D01*
X52197Y-2433285D01*
X52242Y-2433134D01*
X52283Y-2432982D01*
X52320Y-2432830D01*
X52353Y-2432676D01*
X52383Y-2432521D01*
X53100Y-2421299D02*
X53122Y-2421161D01*
X53141Y-2421021D01*
X53155Y-2420882D01*
X53166Y-2420741D01*
X53172Y-2420601D01*
X53175Y-2420460D01*
X53174Y-2420320D01*
X53168Y-2420179D01*
X53159Y-2420039D01*
X53146Y-2419899D01*
X53129Y-2419760D01*
X53107Y-2419621D01*
X53082Y-2419482D01*
X53053Y-2419345D01*
X53021Y-2419208D01*
X52984Y-2419072D01*
X52943Y-2418938D01*
X52899Y-2418804D01*
X52851Y-2418672D01*
X52799Y-2418542D01*
X52744Y-2418412D01*
X52685Y-2418285D01*
X52622Y-2418159D01*
X52556Y-2418035D01*
X52486Y-2417913D01*
X52413Y-2417793D01*
X52336Y-2417675D01*
X52256Y-2417559D01*
X52173Y-2417446D01*
X52087Y-2417335D01*
X51998Y-2417226D01*
X51905Y-2417120D01*
X51810Y-2417017D01*
X51712Y-2416917D01*
X51611Y-2416819D01*
X51507Y-2416724D01*
X51401Y-2416632D01*
X51292Y-2416543D01*
X51180Y-2416458D01*
X51067Y-2416375D01*
X50950Y-2416296D01*
X50832Y-2416220D01*
X50712Y-2416147D01*
X50589Y-2416078D01*
X50465Y-2416012D01*
X50339Y-2415950D01*
X50211Y-2415892D01*
X50082Y-2415837D01*
X49951Y-2415786D01*
X49818Y-2415738D01*
X49685Y-2415695D01*
X49550Y-2415655D01*
X49414Y-2415619D01*
X49277Y-2415586D01*
X49140Y-2415558D01*
X49001Y-2415534D01*
X48862Y-2415513D01*
X48723Y-2415497D01*
X48583Y-2415484D01*
X48442Y-2415476D01*
X48302Y-2415471D01*
X48161Y-2415470D01*
X48021Y-2415474D01*
X47880Y-2415481D01*
X47740Y-2415492D01*
X47600Y-2415507D01*
X47461Y-2415526D01*
X47322Y-2415550D01*
X47184Y-2415577D01*
X47047Y-2415608D01*
X46911Y-2415642D01*
X46776Y-2415681D01*
X46642Y-2415723D01*
X46509Y-2415770D01*
X46378Y-2415819D01*
X46248Y-2415873D01*
X46119Y-2415930D01*
X45993Y-2415991D01*
X45868Y-2416056D01*
X45745Y-2416124D01*
X45624Y-2416195D01*
X45505Y-2416270D01*
X45388Y-2416348D01*
X45273Y-2416430D01*
X45161Y-2416514D01*
X45051Y-2416602D01*
X44944Y-2416693D01*
X44839Y-2416787D01*
X44737Y-2416884D01*
X44638Y-2416983D01*
X44542Y-2417086D01*
X44449Y-2417191D01*
X44358Y-2417298D01*
X44271Y-2417409D01*
X44187Y-2417521D01*
X44106Y-2417636D01*
X44028Y-2417753D01*
X43954Y-2417873D01*
X43883Y-2417994D01*
X43816Y-2418118D01*
X43752Y-2418243D01*
X43692Y-2418370D01*
X43635Y-2418498D01*
X43582Y-2418629D01*
X43533Y-2418760D01*
X43487Y-2418893D01*
X43445Y-2419027D01*
X43407Y-2419163D01*
X43373Y-2419299D01*
X43343Y-2419436D01*
X43316Y-2419574D01*
X43294Y-2419712D01*
X43276Y-2419850D01*
X43261Y-2419989D01*
X43251Y-2420128D01*
X43244Y-2420267D01*
X43241Y-2420406D01*
X43242Y-2420545D01*
X43247Y-2420685D01*
X43256Y-2420824D01*
X43269Y-2420962D01*
X43286Y-2421101D01*
X43306Y-2421238D01*
X43330Y-2421376D01*
X43359Y-2421512D01*
X43391Y-2421648D01*
X43427Y-2421782D01*
X43466Y-2421916D01*
X43510Y-2422048D01*
X43557Y-2422179D01*
X43607Y-2422309D01*
X43662Y-2422437D01*
X43720Y-2422564D01*
X43781Y-2422689D01*
X43846Y-2422812D01*
X43914Y-2422934D01*
X43986Y-2423053D01*
X44061Y-2423171D01*
X44139Y-2423286D01*
X44221Y-2423399D01*
X44305Y-2423510D01*
X44393Y-2423618D01*
X44484Y-2423724D01*
X44577Y-2423827D01*
X44674Y-2423927D01*
X44773Y-2424025D01*
X44875Y-2424120D01*
X44980Y-2424212D01*
X45087Y-2424301D01*
X45197Y-2424387D01*
X45309Y-2424470D01*
X45423Y-2424550D01*
X45539Y-2424626D01*
X45658Y-2424699D01*
X45778Y-2424769D01*
X45901Y-2424836D01*
X46025Y-2424899D01*
X46151Y-2424958D01*
X46279Y-2425014D01*
X46408Y-2425066D01*
X46538Y-2425115D01*
X46670Y-2425160D01*
X46803Y-2425201D01*
X46937Y-2425239D01*
X47073Y-2425272D01*
X47209Y-2425302D01*
X47345Y-2425329D01*
X47483Y-2425351D01*
X47621Y-2425369D01*
X47760Y-2425384D01*
X47899Y-2425394D01*
X48038Y-2425401D01*
X48177Y-2425404D01*
X48316Y-2425403D01*
X48456Y-2425398D01*
X48595Y-2425389D01*
X48733Y-2425376D01*
X48872Y-2425359D01*
X49009Y-2425339D01*
X49147Y-2425315D01*
X49283Y-2425286D01*
X49419Y-2425254D01*
X49553Y-2425218D01*
X49687Y-2425179D01*
X49819Y-2425135D01*
X49950Y-2425088D01*
X50080Y-2425038D01*
X50208Y-2424983D01*
X50335Y-2424925D01*
X50460Y-2424864D01*
X50583Y-2424799D01*
X50705Y-2424731D01*
X50824Y-2424659D01*
X50942Y-2424584D01*
X51057Y-2424506D01*
X51170Y-2424424D01*
X51281Y-2424340D01*
X51389Y-2424252D01*
X51495Y-2424161D01*
X51598Y-2424068D01*
X51698Y-2423971D01*
X51796Y-2423872D01*
X51891Y-2423770D01*
X51983Y-2423665D01*
X52072Y-2423558D01*
X52158Y-2423448D01*
X52241Y-2423336D01*
X52321Y-2423222D01*
X52397Y-2423106D01*
X52470Y-2422987D01*
X52540Y-2422867D01*
X52607Y-2422744D01*
X52670Y-2422620D01*
X52729Y-2422494D01*
X52785Y-2422366D01*
X52837Y-2422237D01*
X52886Y-2422107D01*
X52931Y-2421975D01*
X52972Y-2421842D01*
X53010Y-2421708D01*
X53043Y-2421572D01*
X53073Y-2421436D01*
X53100Y-2421299D01*
X34599Y-2412993D02*
X30718Y-2435006D01*
X32874Y-2422777D02*
X20645Y-2420620D01*
X22370Y-2410837D02*
X18489Y-2432850D01*
X10132Y-2431376D02*
X4017Y-2430298D01*
X3862Y-2430268D01*
X3708Y-2430235D01*
X3556Y-2430198D01*
X3404Y-2430157D01*
X3253Y-2430112D01*
X3103Y-2430064D01*
X2955Y-2430012D01*
X2808Y-2429955D01*
X2662Y-2429896D01*
X2519Y-2429832D01*
X2376Y-2429765D01*
X2236Y-2429694D01*
X2097Y-2429620D01*
X1960Y-2429543D01*
X1825Y-2429461D01*
X1693Y-2429377D01*
X1562Y-2429289D01*
X1434Y-2429198D01*
X1308Y-2429104D01*
X1185Y-2429006D01*
X1064Y-2428905D01*
X946Y-2428802D01*
X830Y-2428695D01*
X717Y-2428586D01*
X607Y-2428473D01*
X500Y-2428358D01*
X395Y-2428241D01*
X294Y-2428120D01*
X196Y-2427997D01*
X101Y-2427872D01*
X9Y-2427744D01*
X-80Y-2427614D01*
X-165Y-2427482D01*
X-247Y-2427348D01*
X-325Y-2427212D01*
X-400Y-2427073D01*
X-472Y-2426933D01*
X-540Y-2426791D01*
X-604Y-2426648D01*
X-665Y-2426502D01*
X-721Y-2426356D01*
X-775Y-2426208D01*
X-824Y-2426058D01*
X-870Y-2425908D01*
X-911Y-2425756D01*
X-949Y-2425604D01*
X-983Y-2425450D01*
X-1014Y-2425296D01*
X-1040Y-2425140D01*
X-1062Y-2424985D01*
X-1080Y-2424829D01*
X-1095Y-2424672D01*
X-1105Y-2424515D01*
X-1112Y-2424358D01*
X-1114Y-2424200D01*
X-1112Y-2424043D01*
X-1107Y-2423886D01*
X-1097Y-2423729D01*
X-1084Y-2423572D01*
X-1066Y-2423416D01*
X-1045Y-2423260D01*
X-1020Y-2423105D01*
X-990Y-2422950D01*
X-957Y-2422797D01*
X-920Y-2422644D01*
X-879Y-2422492D01*
X-834Y-2422341D01*
X-786Y-2422191D01*
X-734Y-2422043D01*
X-677Y-2421896D01*
X-618Y-2421751D01*
X-554Y-2421607D01*
X-487Y-2421464D01*
X-416Y-2421324D01*
X-342Y-2421185D01*
X-265Y-2421048D01*
X-183Y-2420914D01*
X-99Y-2420781D01*
X-11Y-2420650D01*
X80Y-2420522D01*
X174Y-2420396D01*
X272Y-2420273D01*
X372Y-2420152D01*
X476Y-2420034D01*
X583Y-2419918D01*
X692Y-2419805D01*
X805Y-2419695D01*
X920Y-2419588D01*
X1037Y-2419483D01*
X1158Y-2419382D01*
X1281Y-2419284D01*
X1406Y-2419189D01*
X1534Y-2419097D01*
X1664Y-2419008D01*
X1796Y-2418923D01*
X1930Y-2418841D01*
X2066Y-2418763D01*
X2205Y-2418688D01*
X2345Y-2418616D01*
X2487Y-2418548D01*
X2630Y-2418484D01*
X2776Y-2418424D01*
X2922Y-2418367D01*
X3070Y-2418313D01*
X3220Y-2418264D01*
X3370Y-2418218D01*
X3522Y-2418177D01*
X3674Y-2418139D01*
X3828Y-2418105D01*
X3982Y-2418075D01*
X4137Y-2418048D01*
X4293Y-2418026D01*
X4449Y-2418008D01*
X4606Y-2417993D01*
X4763Y-2417983D01*
X4920Y-2417976D01*
X5077Y-2417974D01*
X5235Y-2417976D01*
X5392Y-2417981D01*
X5549Y-2417991D01*
X5706Y-2418004D01*
X5862Y-2418022D01*
X6018Y-2418043D01*
X6173Y-2418068D01*
X6676Y-2408070D02*
X14013Y-2409364D01*
X6676Y-2408069D02*
X6538Y-2408047D01*
X6400Y-2408029D01*
X6261Y-2408014D01*
X6122Y-2408004D01*
X5983Y-2407997D01*
X5844Y-2407994D01*
X5705Y-2407995D01*
X5565Y-2408000D01*
X5426Y-2408009D01*
X5288Y-2408022D01*
X5149Y-2408039D01*
X5012Y-2408059D01*
X4874Y-2408083D01*
X4738Y-2408112D01*
X4602Y-2408144D01*
X4468Y-2408180D01*
X4334Y-2408219D01*
X4202Y-2408263D01*
X4071Y-2408310D01*
X3941Y-2408360D01*
X3813Y-2408415D01*
X3686Y-2408473D01*
X3561Y-2408534D01*
X3438Y-2408599D01*
X3316Y-2408667D01*
X3197Y-2408739D01*
X3079Y-2408814D01*
X2964Y-2408892D01*
X2851Y-2408974D01*
X2740Y-2409058D01*
X2632Y-2409146D01*
X2526Y-2409237D01*
X2423Y-2409330D01*
X2323Y-2409427D01*
X2225Y-2409526D01*
X2130Y-2409628D01*
X2038Y-2409733D01*
X1949Y-2409840D01*
X1863Y-2409950D01*
X1780Y-2410062D01*
X1700Y-2410176D01*
X1624Y-2410292D01*
X1551Y-2410411D01*
X1481Y-2410531D01*
X1414Y-2410654D01*
X1351Y-2410778D01*
X1292Y-2410904D01*
X1236Y-2411032D01*
X1184Y-2411161D01*
X1135Y-2411291D01*
X1090Y-2411423D01*
X1049Y-2411556D01*
X1011Y-2411690D01*
X978Y-2411826D01*
X948Y-2411962D01*
X921Y-2412098D01*
X899Y-2412236D01*
X881Y-2412374D01*
X866Y-2412513D01*
X856Y-2412652D01*
X849Y-2412791D01*
X846Y-2412930D01*
X847Y-2413069D01*
X852Y-2413209D01*
X861Y-2413348D01*
X874Y-2413486D01*
X891Y-2413625D01*
X911Y-2413762D01*
X935Y-2413900D01*
X964Y-2414036D01*
X996Y-2414172D01*
X1032Y-2414306D01*
X1071Y-2414440D01*
X1115Y-2414572D01*
X1162Y-2414703D01*
X1212Y-2414833D01*
X1267Y-2414961D01*
X1325Y-2415088D01*
X1386Y-2415213D01*
X1451Y-2415336D01*
X1519Y-2415458D01*
X1591Y-2415577D01*
X1666Y-2415695D01*
X1744Y-2415810D01*
X1826Y-2415923D01*
X1910Y-2416034D01*
X1998Y-2416142D01*
X2089Y-2416248D01*
X2182Y-2416351D01*
X2279Y-2416451D01*
X2378Y-2416549D01*
X2480Y-2416644D01*
X2585Y-2416736D01*
X2692Y-2416825D01*
X2802Y-2416911D01*
X2914Y-2416994D01*
X3028Y-2417074D01*
X3144Y-2417150D01*
X3263Y-2417223D01*
X3383Y-2417293D01*
X3506Y-2417360D01*
X3630Y-2417423D01*
X3756Y-2417482D01*
X3884Y-2417538D01*
X4013Y-2417590D01*
X4143Y-2417639D01*
X4275Y-2417684D01*
X4408Y-2417725D01*
X4542Y-2417763D01*
X4678Y-2417796D01*
X4814Y-2417826D01*
X4950Y-2417853D01*
X4951Y-2417853D02*
X9842Y-2418716D01*
X-6573Y-2405734D02*
X-10454Y-2427746D01*
X-6573Y-2405734D02*
X-12688Y-2404655D01*
X-12841Y-2404630D01*
X-12994Y-2404609D01*
X-13148Y-2404592D01*
X-13302Y-2404578D01*
X-13457Y-2404569D01*
X-13611Y-2404563D01*
X-13766Y-2404561D01*
X-13921Y-2404563D01*
X-14075Y-2404569D01*
X-14230Y-2404578D01*
X-14384Y-2404592D01*
X-14538Y-2404609D01*
X-14691Y-2404630D01*
X-14844Y-2404655D01*
X-14996Y-2404684D01*
X-15148Y-2404717D01*
X-15298Y-2404753D01*
X-15448Y-2404793D01*
X-15596Y-2404837D01*
X-15743Y-2404884D01*
X-15890Y-2404935D01*
X-16034Y-2404990D01*
X-16178Y-2405049D01*
X-16320Y-2405110D01*
X-16460Y-2405176D01*
X-16599Y-2405245D01*
X-16735Y-2405317D01*
X-16871Y-2405393D01*
X-17004Y-2405472D01*
X-17135Y-2405554D01*
X-17264Y-2405640D01*
X-17390Y-2405729D01*
X-17515Y-2405821D01*
X-17637Y-2405916D01*
X-17757Y-2406014D01*
X-17874Y-2406115D01*
X-17989Y-2406218D01*
X-18101Y-2406325D01*
X-18211Y-2406435D01*
X-18318Y-2406547D01*
X-18421Y-2406662D01*
X-18522Y-2406779D01*
X-18620Y-2406899D01*
X-18715Y-2407021D01*
X-18807Y-2407146D01*
X-18896Y-2407272D01*
X-18982Y-2407401D01*
X-19064Y-2407532D01*
X-19143Y-2407666D01*
X-19219Y-2407801D01*
X-19291Y-2407937D01*
X-19360Y-2408076D01*
X-19426Y-2408216D01*
X-19487Y-2408358D01*
X-19546Y-2408502D01*
X-19601Y-2408646D01*
X-19652Y-2408793D01*
X-19699Y-2408940D01*
X-19743Y-2409088D01*
X-19783Y-2409238D01*
X-19819Y-2409388D01*
X-19852Y-2409540D01*
X-19881Y-2409692D01*
X-19880Y-2409692D02*
X-21605Y-2419475D01*
X-21606Y-2419475D02*
X-21631Y-2419630D01*
X-21652Y-2419786D01*
X-21670Y-2419942D01*
X-21683Y-2420099D01*
X-21693Y-2420256D01*
X-21698Y-2420413D01*
X-21700Y-2420571D01*
X-21698Y-2420728D01*
X-21691Y-2420885D01*
X-21681Y-2421042D01*
X-21666Y-2421199D01*
X-21648Y-2421355D01*
X-21626Y-2421511D01*
X-21600Y-2421666D01*
X-21569Y-2421820D01*
X-21535Y-2421974D01*
X-21497Y-2422126D01*
X-21456Y-2422278D01*
X-21410Y-2422428D01*
X-21361Y-2422578D01*
X-21307Y-2422726D01*
X-21251Y-2422872D01*
X-21190Y-2423018D01*
X-21126Y-2423161D01*
X-21058Y-2423303D01*
X-20986Y-2423443D01*
X-20911Y-2423581D01*
X-20833Y-2423718D01*
X-20751Y-2423852D01*
X-20666Y-2423984D01*
X-20577Y-2424114D01*
X-20485Y-2424242D01*
X-20390Y-2424367D01*
X-20292Y-2424490D01*
X-20191Y-2424611D01*
X-20086Y-2424728D01*
X-19979Y-2424843D01*
X-19869Y-2424956D01*
X-19756Y-2425065D01*
X-19640Y-2425172D01*
X-19522Y-2425275D01*
X-19401Y-2425376D01*
X-19278Y-2425474D01*
X-19152Y-2425568D01*
X-19024Y-2425659D01*
X-18893Y-2425747D01*
X-18761Y-2425831D01*
X-18626Y-2425913D01*
X-18489Y-2425990D01*
X-18350Y-2426064D01*
X-18210Y-2426135D01*
X-18067Y-2426202D01*
X-17924Y-2426266D01*
X-17778Y-2426325D01*
X-17631Y-2426382D01*
X-17483Y-2426434D01*
X-17333Y-2426482D01*
X-17182Y-2426527D01*
X-17030Y-2426568D01*
X-16878Y-2426605D01*
X-16724Y-2426638D01*
X-16569Y-2426668D01*
X-10454Y-2427746D01*
X-31870Y-2423970D02*
X-27988Y-2401958D01*
X-40217Y-2399801D02*
X-30360Y-2415410D01*
X-34389Y-2409655D02*
X-44099Y-2421814D01*
D11*
X-190500Y-537210D02*
X-256540Y-516890D01*
X-190500Y-537210D02*
X-198120Y-622300D01*
X-264160Y-627380D01*
D12*
X268732Y29464D03*
D13*
X257556Y29464D03*
D12*
X238252Y29464D03*
D13*
X225044Y29464D03*
D14*
X208788Y29464D03*
D13*
X198628Y29464D03*
D12*
X189484Y29464D03*
X179324Y29464D03*
D13*
X166116Y29464D03*
X157988Y29464D03*
D14*
X143764Y29464D03*
D12*
X122428Y29464D03*
D14*
X111252Y29464D03*
D13*
X105156Y29464D03*
D14*
X88900Y29464D03*
D12*
X75692Y29464D03*
D13*
X68580Y29464D03*
D14*
X60452Y29464D03*
X44196Y29464D03*
D13*
X32004Y29464D03*
D12*
X22860Y29464D03*
D13*
X1524Y29464D03*
D14*
X-8636Y29464D03*
D13*
X-20828Y29464D03*
D12*
X-38100Y29464D03*
X-52324Y29464D03*
D13*
X-65532Y29464D03*
X-79756Y29464D03*
D12*
X-92964Y29464D03*
D14*
X-100076Y29464D03*
D13*
X-116332Y29464D03*
X-136652Y29464D03*
D12*
X-145796Y29464D03*
D13*
X-154940Y29464D03*
D12*
X-172212Y29464D03*
X-186436Y29464D03*
D13*
X-207772Y29464D03*
D12*
X-214884Y29464D03*
D13*
X-221996Y29464D03*
X-230124Y29464D03*
D12*
X-245364Y29464D03*
D14*
X-256540Y29464D03*
D12*
X-267716Y29464D03*
X268732Y30480D03*
D13*
X257556Y30480D03*
D12*
X238252Y30480D03*
D13*
X225044Y30480D03*
D14*
X208788Y30480D03*
D13*
X198628Y30480D03*
D12*
X189484Y30480D03*
X179324Y30480D03*
D13*
X166116Y30480D03*
X157988Y30480D03*
D14*
X143764Y30480D03*
D12*
X122428Y30480D03*
D14*
X111252Y30480D03*
D13*
X105156Y30480D03*
D14*
X88900Y30480D03*
D12*
X75692Y30480D03*
D13*
X68580Y30480D03*
D14*
X60452Y30480D03*
X44196Y30480D03*
D13*
X32004Y30480D03*
D12*
X22860Y30480D03*
D13*
X1524Y30480D03*
D14*
X-8636Y30480D03*
D13*
X-20828Y30480D03*
D12*
X-38100Y30480D03*
X-52324Y30480D03*
D13*
X-65532Y30480D03*
X-79756Y30480D03*
D12*
X-92964Y30480D03*
D14*
X-100076Y30480D03*
D13*
X-116332Y30480D03*
X-136652Y30480D03*
D12*
X-145796Y30480D03*
D13*
X-154940Y30480D03*
D12*
X-172212Y30480D03*
X-186436Y30480D03*
D13*
X-207772Y30480D03*
D12*
X-214884Y30480D03*
D13*
X-221996Y30480D03*
X-230124Y30480D03*
D12*
X-245364Y30480D03*
D14*
X-256540Y30480D03*
D12*
X-267716Y30480D03*
X268732Y31496D03*
D13*
X257556Y31496D03*
D12*
X238252Y31496D03*
D13*
X225044Y31496D03*
D14*
X208788Y31496D03*
D13*
X198628Y31496D03*
D12*
X189484Y31496D03*
X179324Y31496D03*
D13*
X166116Y31496D03*
X157988Y31496D03*
D14*
X143764Y31496D03*
D12*
X122428Y31496D03*
D14*
X111252Y31496D03*
D13*
X105156Y31496D03*
D14*
X88900Y31496D03*
D12*
X75692Y31496D03*
D13*
X68580Y31496D03*
D14*
X60452Y31496D03*
X44196Y31496D03*
D13*
X32004Y31496D03*
D12*
X22860Y31496D03*
D13*
X1524Y31496D03*
D14*
X-8636Y31496D03*
D13*
X-20828Y31496D03*
D12*
X-38100Y31496D03*
X-52324Y31496D03*
D13*
X-65532Y31496D03*
X-79756Y31496D03*
D12*
X-92964Y31496D03*
D14*
X-100076Y31496D03*
D13*
X-116332Y31496D03*
X-136652Y31496D03*
D12*
X-145796Y31496D03*
D13*
X-154940Y31496D03*
D12*
X-172212Y31496D03*
X-186436Y31496D03*
D13*
X-207772Y31496D03*
D12*
X-214884Y31496D03*
D13*
X-221996Y31496D03*
X-230124Y31496D03*
D12*
X-245364Y31496D03*
D14*
X-256540Y31496D03*
D12*
X-267716Y31496D03*
X268732Y32512D03*
D13*
X257556Y32512D03*
D12*
X238252Y32512D03*
D13*
X225044Y32512D03*
D14*
X208788Y32512D03*
D13*
X198628Y32512D03*
D12*
X189484Y32512D03*
X179324Y32512D03*
D13*
X166116Y32512D03*
X157988Y32512D03*
D14*
X143764Y32512D03*
D12*
X122428Y32512D03*
D14*
X111252Y32512D03*
D13*
X105156Y32512D03*
D14*
X88900Y32512D03*
D12*
X75692Y32512D03*
D13*
X68580Y32512D03*
D14*
X60452Y32512D03*
X44196Y32512D03*
D13*
X32004Y32512D03*
D12*
X22860Y32512D03*
D13*
X1524Y32512D03*
D14*
X-8636Y32512D03*
D13*
X-20828Y32512D03*
D12*
X-38100Y32512D03*
X-52324Y32512D03*
D13*
X-65532Y32512D03*
X-79756Y32512D03*
D12*
X-92964Y32512D03*
D14*
X-100076Y32512D03*
D13*
X-116332Y32512D03*
X-136652Y32512D03*
D12*
X-145796Y32512D03*
D13*
X-154940Y32512D03*
D12*
X-172212Y32512D03*
X-186436Y32512D03*
D13*
X-207772Y32512D03*
D12*
X-214884Y32512D03*
D13*
X-221996Y32512D03*
X-230124Y32512D03*
D12*
X-245364Y32512D03*
D14*
X-256540Y32512D03*
D12*
X-267716Y32512D03*
X268732Y33528D03*
D13*
X257556Y33528D03*
D12*
X238252Y33528D03*
D13*
X225044Y33528D03*
D14*
X208788Y33528D03*
D13*
X198628Y33528D03*
D12*
X189484Y33528D03*
X179324Y33528D03*
D13*
X166116Y33528D03*
X157988Y33528D03*
D14*
X143764Y33528D03*
D12*
X122428Y33528D03*
D14*
X111252Y33528D03*
D13*
X105156Y33528D03*
D14*
X88900Y33528D03*
D12*
X75692Y33528D03*
D13*
X68580Y33528D03*
D14*
X60452Y33528D03*
X44196Y33528D03*
D13*
X32004Y33528D03*
D12*
X22860Y33528D03*
D13*
X1524Y33528D03*
D14*
X-8636Y33528D03*
D13*
X-20828Y33528D03*
D12*
X-38100Y33528D03*
X-52324Y33528D03*
D13*
X-65532Y33528D03*
X-79756Y33528D03*
D12*
X-92964Y33528D03*
D14*
X-100076Y33528D03*
D13*
X-116332Y33528D03*
X-136652Y33528D03*
D12*
X-145796Y33528D03*
D13*
X-154940Y33528D03*
D12*
X-172212Y33528D03*
X-186436Y33528D03*
D13*
X-207772Y33528D03*
D12*
X-214884Y33528D03*
D13*
X-221996Y33528D03*
X-230124Y33528D03*
D12*
X-245364Y33528D03*
D14*
X-256540Y33528D03*
D12*
X-267716Y33528D03*
D15*
X152400Y-521970D03*
X144780Y-521970D03*
X133350Y-521970D03*
X125730Y-521970D03*
X114300Y-521970D03*
D16*
X95250Y-521970D03*
D15*
X152400Y-520700D03*
X144780Y-520700D03*
X133350Y-520700D03*
X125730Y-520700D03*
X114300Y-520700D03*
D16*
X95250Y-520700D03*
D15*
X152400Y-519430D03*
X144780Y-519430D03*
X133350Y-519430D03*
X125730Y-519430D03*
X114300Y-519430D03*
D16*
X95250Y-519430D03*
D15*
X182880Y-518160D03*
X160020Y-518160D03*
D17*
X150495Y-518160D03*
D15*
X137160Y-518160D03*
X129540Y-518160D03*
D18*
X102870Y-518160D03*
D15*
X182880Y-516890D03*
X160020Y-516890D03*
D17*
X150495Y-516890D03*
D15*
X137160Y-516890D03*
X129540Y-516890D03*
D18*
X102870Y-516890D03*
D15*
X182880Y-515620D03*
X160020Y-515620D03*
D17*
X150495Y-515620D03*
D15*
X137160Y-515620D03*
X129540Y-515620D03*
D18*
X102870Y-515620D03*
D15*
X182880Y-514350D03*
X160020Y-514350D03*
D19*
X142875Y-514350D03*
D15*
X121920Y-514350D03*
X114300Y-514350D03*
X102870Y-514350D03*
X95250Y-514350D03*
X182880Y-513080D03*
X160020Y-513080D03*
D19*
X142875Y-513080D03*
D15*
X121920Y-513080D03*
X114300Y-513080D03*
X102870Y-513080D03*
X95250Y-513080D03*
X182880Y-511810D03*
X160020Y-511810D03*
D19*
X142875Y-511810D03*
D15*
X121920Y-511810D03*
X114300Y-511810D03*
X102870Y-511810D03*
X95250Y-511810D03*
X140970Y-510540D03*
X125730Y-510540D03*
D16*
X114300Y-510540D03*
X95250Y-510540D03*
D15*
X140970Y-509270D03*
X125730Y-509270D03*
D16*
X114300Y-509270D03*
X95250Y-509270D03*
D15*
X140970Y-508000D03*
X125730Y-508000D03*
D16*
X114300Y-508000D03*
X95250Y-508000D03*
D15*
X182880Y-506730D03*
X160020Y-506730D03*
D17*
X150495Y-506730D03*
D15*
X137160Y-506730D03*
X129540Y-506730D03*
D20*
X108585Y-506730D03*
D15*
X182880Y-505460D03*
X160020Y-505460D03*
D17*
X150495Y-505460D03*
D15*
X137160Y-505460D03*
X129540Y-505460D03*
D20*
X108585Y-505460D03*
D15*
X182880Y-504190D03*
X160020Y-504190D03*
D17*
X150495Y-504190D03*
D15*
X137160Y-504190D03*
X129540Y-504190D03*
D20*
X108585Y-504190D03*
D15*
X182880Y-502920D03*
X160020Y-502920D03*
D17*
X150495Y-502920D03*
D15*
X137160Y-502920D03*
D16*
X125730Y-502920D03*
D19*
X100965Y-502920D03*
D15*
X182880Y-501650D03*
X160020Y-501650D03*
D17*
X150495Y-501650D03*
D15*
X137160Y-501650D03*
D16*
X125730Y-501650D03*
D19*
X100965Y-501650D03*
D15*
X182880Y-500380D03*
X160020Y-500380D03*
D17*
X150495Y-500380D03*
D15*
X137160Y-500380D03*
D16*
X125730Y-500380D03*
D19*
X100965Y-500380D03*
D18*
X137160Y-499110D03*
D15*
X121920Y-499110D03*
X114300Y-499110D03*
X106680Y-499110D03*
D18*
X137160Y-497840D03*
D15*
X121920Y-497840D03*
X114300Y-497840D03*
X106680Y-497840D03*
D18*
X137160Y-496570D03*
D15*
X121920Y-496570D03*
X114300Y-496570D03*
X106680Y-496570D03*
D16*
X148590Y-495300D03*
D15*
X133350Y-495300D03*
X121920Y-495300D03*
X106680Y-495300D03*
D16*
X148590Y-494030D03*
D15*
X133350Y-494030D03*
X121920Y-494030D03*
X106680Y-494030D03*
D16*
X148590Y-492760D03*
D15*
X133350Y-492760D03*
X121920Y-492760D03*
X106680Y-492760D03*
D17*
X180975Y-491490D03*
X169545Y-491490D03*
X158115Y-491490D03*
D15*
X148590Y-491490D03*
X140970Y-491490D03*
D20*
X112395Y-491490D03*
D17*
X180975Y-490220D03*
X169545Y-490220D03*
X158115Y-490220D03*
D15*
X148590Y-490220D03*
X140970Y-490220D03*
D20*
X112395Y-490220D03*
D17*
X180975Y-488950D03*
X169545Y-488950D03*
X158115Y-488950D03*
D15*
X148590Y-488950D03*
X140970Y-488950D03*
D20*
X112395Y-488950D03*
D17*
X173355Y-487680D03*
D15*
X163830Y-487680D03*
D19*
X146685Y-487680D03*
D17*
X108585Y-487680D03*
X97155Y-487680D03*
X173355Y-486410D03*
D15*
X163830Y-486410D03*
D19*
X146685Y-486410D03*
D17*
X108585Y-486410D03*
X97155Y-486410D03*
X173355Y-485140D03*
D15*
X163830Y-485140D03*
D19*
X146685Y-485140D03*
D17*
X108585Y-485140D03*
X97155Y-485140D03*
X161925Y-483870D03*
D15*
X148590Y-483870D03*
X140970Y-483870D03*
D16*
X125730Y-483870D03*
D19*
X104775Y-483870D03*
D17*
X161925Y-482600D03*
D15*
X148590Y-482600D03*
X140970Y-482600D03*
D16*
X125730Y-482600D03*
D19*
X104775Y-482600D03*
D17*
X161925Y-481330D03*
D15*
X148590Y-481330D03*
X140970Y-481330D03*
D16*
X125730Y-481330D03*
D19*
X104775Y-481330D03*
D17*
X180975Y-480060D03*
D15*
X167640Y-480060D03*
D18*
X148590Y-480060D03*
D15*
X133350Y-480060D03*
D16*
X121920Y-480060D03*
D15*
X106680Y-480060D03*
X95250Y-480060D03*
D17*
X180975Y-478790D03*
D15*
X167640Y-478790D03*
D18*
X148590Y-478790D03*
D15*
X133350Y-478790D03*
D16*
X121920Y-478790D03*
D15*
X106680Y-478790D03*
X95250Y-478790D03*
D17*
X180975Y-477520D03*
D15*
X167640Y-477520D03*
D18*
X148590Y-477520D03*
D15*
X133350Y-477520D03*
D16*
X121920Y-477520D03*
D15*
X106680Y-477520D03*
X95250Y-477520D03*
X179070Y-476250D03*
X171450Y-476250D03*
D19*
X158115Y-476250D03*
D15*
X137160Y-476250D03*
X129540Y-476250D03*
D17*
X116205Y-476250D03*
D19*
X97155Y-476250D03*
D15*
X179070Y-474980D03*
X171450Y-474980D03*
D19*
X158115Y-474980D03*
D15*
X137160Y-474980D03*
X129540Y-474980D03*
D17*
X116205Y-474980D03*
D19*
X97155Y-474980D03*
D15*
X179070Y-473710D03*
X171450Y-473710D03*
D19*
X158115Y-473710D03*
D15*
X137160Y-473710D03*
X129540Y-473710D03*
D17*
X116205Y-473710D03*
D19*
X97155Y-473710D03*
D15*
X175260Y-472440D03*
D17*
X165735Y-472440D03*
D15*
X148590Y-472440D03*
X129540Y-472440D03*
X121920Y-472440D03*
X114300Y-472440D03*
X106680Y-472440D03*
D17*
X97155Y-472440D03*
D15*
X175260Y-471170D03*
D17*
X165735Y-471170D03*
D15*
X148590Y-471170D03*
X129540Y-471170D03*
X121920Y-471170D03*
X114300Y-471170D03*
X106680Y-471170D03*
D17*
X97155Y-471170D03*
D15*
X175260Y-469900D03*
D17*
X165735Y-469900D03*
D15*
X148590Y-469900D03*
X129540Y-469900D03*
X121920Y-469900D03*
X114300Y-469900D03*
X106680Y-469900D03*
D17*
X97155Y-469900D03*
D15*
X179070Y-468630D03*
D21*
X140970Y-468630D03*
D17*
X112395Y-468630D03*
X100965Y-468630D03*
D15*
X179070Y-467360D03*
D21*
X140970Y-467360D03*
D17*
X112395Y-467360D03*
X100965Y-467360D03*
D15*
X179070Y-466090D03*
D21*
X140970Y-466090D03*
D17*
X112395Y-466090D03*
X100965Y-466090D03*
D19*
X173355Y-464820D03*
D15*
X152400Y-464820D03*
X133350Y-464820D03*
D17*
X123825Y-464820D03*
X104775Y-464820D03*
D15*
X95250Y-464820D03*
D19*
X173355Y-463550D03*
D15*
X152400Y-463550D03*
X133350Y-463550D03*
D17*
X123825Y-463550D03*
X104775Y-463550D03*
D15*
X95250Y-463550D03*
D19*
X173355Y-462280D03*
D15*
X152400Y-462280D03*
X133350Y-462280D03*
D17*
X123825Y-462280D03*
X104775Y-462280D03*
D15*
X95250Y-462280D03*
D17*
X180975Y-461010D03*
D16*
X163830Y-461010D03*
D15*
X144780Y-461010D03*
X110490Y-461010D03*
D19*
X97155Y-461010D03*
D17*
X180975Y-459740D03*
D16*
X163830Y-459740D03*
D15*
X144780Y-459740D03*
X110490Y-459740D03*
D19*
X97155Y-459740D03*
D17*
X180975Y-458470D03*
D16*
X163830Y-458470D03*
D15*
X144780Y-458470D03*
X110490Y-458470D03*
D19*
X97155Y-458470D03*
D17*
X142875Y-457200D03*
X127635Y-457200D03*
X142875Y-455930D03*
X127635Y-455930D03*
X142875Y-454660D03*
X127635Y-454660D03*
D15*
X152400Y-453390D03*
X144780Y-453390D03*
X137160Y-453390D03*
X129540Y-453390D03*
X121920Y-453390D03*
X152400Y-452120D03*
X144780Y-452120D03*
X137160Y-452120D03*
X129540Y-452120D03*
X121920Y-452120D03*
X152400Y-450850D03*
X144780Y-450850D03*
X137160Y-450850D03*
X129540Y-450850D03*
X121920Y-450850D03*
X182880Y-449580D03*
X160020Y-449580D03*
D16*
X148590Y-449580D03*
D17*
X131445Y-449580D03*
D15*
X121920Y-449580D03*
X114300Y-449580D03*
X91440Y-449580D03*
X182880Y-448310D03*
X160020Y-448310D03*
D16*
X148590Y-448310D03*
D17*
X131445Y-448310D03*
D15*
X121920Y-448310D03*
X114300Y-448310D03*
X91440Y-448310D03*
X182880Y-447040D03*
X160020Y-447040D03*
D16*
X148590Y-447040D03*
D17*
X131445Y-447040D03*
D15*
X121920Y-447040D03*
X114300Y-447040D03*
X91440Y-447040D03*
X182880Y-445770D03*
X160020Y-445770D03*
D17*
X146685Y-445770D03*
X135255Y-445770D03*
D15*
X125730Y-445770D03*
X114300Y-445770D03*
X91440Y-445770D03*
X182880Y-444500D03*
X160020Y-444500D03*
D17*
X146685Y-444500D03*
X135255Y-444500D03*
D15*
X125730Y-444500D03*
X114300Y-444500D03*
X91440Y-444500D03*
X182880Y-443230D03*
X160020Y-443230D03*
D17*
X146685Y-443230D03*
X135255Y-443230D03*
D15*
X125730Y-443230D03*
X114300Y-443230D03*
X91440Y-443230D03*
D16*
X148590Y-441960D03*
D15*
X129540Y-441960D03*
X121920Y-441960D03*
D16*
X148590Y-440690D03*
D15*
X129540Y-440690D03*
X121920Y-440690D03*
D16*
X148590Y-439420D03*
D15*
X129540Y-439420D03*
X121920Y-439420D03*
X182880Y-438150D03*
X160020Y-438150D03*
D17*
X150495Y-438150D03*
D15*
X137160Y-438150D03*
X114300Y-438150D03*
X91440Y-438150D03*
X182880Y-436880D03*
X160020Y-436880D03*
D17*
X150495Y-436880D03*
D15*
X137160Y-436880D03*
X114300Y-436880D03*
X91440Y-436880D03*
X182880Y-435610D03*
X160020Y-435610D03*
D17*
X150495Y-435610D03*
D15*
X137160Y-435610D03*
X114300Y-435610D03*
X91440Y-435610D03*
X182880Y-434340D03*
X160020Y-434340D03*
X152400Y-434340D03*
D16*
X137160Y-434340D03*
D15*
X121920Y-434340D03*
X114300Y-434340D03*
X91440Y-434340D03*
X182880Y-433070D03*
X160020Y-433070D03*
X152400Y-433070D03*
D16*
X137160Y-433070D03*
D15*
X121920Y-433070D03*
X114300Y-433070D03*
X91440Y-433070D03*
X182880Y-431800D03*
X160020Y-431800D03*
X152400Y-431800D03*
D16*
X137160Y-431800D03*
D15*
X121920Y-431800D03*
X114300Y-431800D03*
X91440Y-431800D03*
X152400Y-430530D03*
D19*
X127635Y-430530D03*
D15*
X152400Y-429260D03*
D19*
X127635Y-429260D03*
D15*
X152400Y-427990D03*
D19*
X127635Y-427990D03*
D22*
X158242Y-79304D02*
X154996Y-76708D01*
X154996Y-88392D01*
X151751Y-88392D02*
X158242Y-88392D01*
X154672Y-95758D02*
X154565Y-95760D01*
X154459Y-95766D01*
X154353Y-95776D01*
X154247Y-95789D01*
X154141Y-95807D01*
X154037Y-95828D01*
X153933Y-95853D01*
X153830Y-95882D01*
X153729Y-95914D01*
X153629Y-95951D01*
X153530Y-95991D01*
X153432Y-96034D01*
X153336Y-96081D01*
X153242Y-96132D01*
X153150Y-96186D01*
X153060Y-96243D01*
X152972Y-96303D01*
X152887Y-96367D01*
X152804Y-96434D01*
X152723Y-96504D01*
X152645Y-96576D01*
X152569Y-96652D01*
X152497Y-96730D01*
X152427Y-96811D01*
X152360Y-96894D01*
X152296Y-96979D01*
X152236Y-97067D01*
X152179Y-97157D01*
X152125Y-97249D01*
X152074Y-97343D01*
X152027Y-97439D01*
X151984Y-97537D01*
X151944Y-97636D01*
X151907Y-97736D01*
X151875Y-97837D01*
X151846Y-97940D01*
X151821Y-98044D01*
X151800Y-98148D01*
X151782Y-98254D01*
X151769Y-98360D01*
X151759Y-98466D01*
X151753Y-98572D01*
X151751Y-98679D01*
X154672Y-95758D02*
X154793Y-95760D01*
X154914Y-95766D01*
X155034Y-95776D01*
X155155Y-95789D01*
X155274Y-95807D01*
X155394Y-95828D01*
X155512Y-95853D01*
X155629Y-95882D01*
X155746Y-95915D01*
X155861Y-95951D01*
X155975Y-95992D01*
X156088Y-96035D01*
X156200Y-96083D01*
X156309Y-96134D01*
X156417Y-96189D01*
X156524Y-96247D01*
X156628Y-96308D01*
X156730Y-96373D01*
X156830Y-96441D01*
X156928Y-96512D01*
X157024Y-96586D01*
X157117Y-96663D01*
X157207Y-96744D01*
X157295Y-96827D01*
X157380Y-96913D01*
X157463Y-97002D01*
X157542Y-97093D01*
X157619Y-97187D01*
X157692Y-97283D01*
X157762Y-97381D01*
X157829Y-97482D01*
X157893Y-97585D01*
X157954Y-97690D01*
X158011Y-97797D01*
X158064Y-97905D01*
X158114Y-98015D01*
X158161Y-98127D01*
X158203Y-98240D01*
X158242Y-98355D01*
X152725Y-100951D02*
X152646Y-100873D01*
X152570Y-100793D01*
X152497Y-100710D01*
X152427Y-100624D01*
X152360Y-100537D01*
X152296Y-100446D01*
X152236Y-100354D01*
X152178Y-100260D01*
X152124Y-100163D01*
X152074Y-100065D01*
X152027Y-99965D01*
X151983Y-99864D01*
X151943Y-99761D01*
X151907Y-99656D01*
X151875Y-99551D01*
X151846Y-99444D01*
X151821Y-99337D01*
X151799Y-99228D01*
X151782Y-99119D01*
X151768Y-99010D01*
X151759Y-98900D01*
X151753Y-98789D01*
X151751Y-98679D01*
X152725Y-100951D02*
X158242Y-107442D01*
X151751Y-107442D01*
X154996Y-126492D02*
X158242Y-126492D01*
X154996Y-126492D02*
X154883Y-126490D01*
X154770Y-126484D01*
X154657Y-126474D01*
X154544Y-126460D01*
X154432Y-126443D01*
X154321Y-126421D01*
X154211Y-126396D01*
X154101Y-126366D01*
X153993Y-126333D01*
X153886Y-126296D01*
X153780Y-126256D01*
X153676Y-126211D01*
X153573Y-126163D01*
X153472Y-126112D01*
X153373Y-126057D01*
X153276Y-125999D01*
X153181Y-125937D01*
X153088Y-125872D01*
X152998Y-125804D01*
X152910Y-125733D01*
X152824Y-125658D01*
X152741Y-125581D01*
X152661Y-125501D01*
X152584Y-125418D01*
X152509Y-125332D01*
X152438Y-125244D01*
X152370Y-125154D01*
X152305Y-125061D01*
X152243Y-124966D01*
X152185Y-124869D01*
X152130Y-124770D01*
X152079Y-124669D01*
X152031Y-124566D01*
X151986Y-124462D01*
X151946Y-124356D01*
X151909Y-124249D01*
X151876Y-124141D01*
X151846Y-124031D01*
X151821Y-123921D01*
X151799Y-123810D01*
X151782Y-123698D01*
X151768Y-123585D01*
X151758Y-123472D01*
X151752Y-123359D01*
X151750Y-123246D01*
X151752Y-123133D01*
X151758Y-123020D01*
X151768Y-122907D01*
X151782Y-122794D01*
X151799Y-122682D01*
X151821Y-122571D01*
X151846Y-122461D01*
X151876Y-122351D01*
X151909Y-122243D01*
X151946Y-122136D01*
X151986Y-122030D01*
X152031Y-121926D01*
X152079Y-121823D01*
X152130Y-121722D01*
X152185Y-121623D01*
X152243Y-121526D01*
X152305Y-121431D01*
X152370Y-121338D01*
X152438Y-121248D01*
X152509Y-121160D01*
X152584Y-121074D01*
X152661Y-120991D01*
X152741Y-120911D01*
X152824Y-120834D01*
X152910Y-120759D01*
X152998Y-120688D01*
X153088Y-120620D01*
X153181Y-120555D01*
X153276Y-120493D01*
X153373Y-120435D01*
X153472Y-120380D01*
X153573Y-120329D01*
X153676Y-120281D01*
X153780Y-120236D01*
X153886Y-120196D01*
X153993Y-120159D01*
X154101Y-120126D01*
X154211Y-120096D01*
X154321Y-120071D01*
X154432Y-120049D01*
X154544Y-120032D01*
X154657Y-120018D01*
X154770Y-120008D01*
X154883Y-120002D01*
X154996Y-120000D01*
X154347Y-114808D02*
X158242Y-114808D01*
X154347Y-114808D02*
X154246Y-114810D01*
X154146Y-114816D01*
X154046Y-114826D01*
X153946Y-114839D01*
X153847Y-114857D01*
X153748Y-114878D01*
X153651Y-114903D01*
X153554Y-114932D01*
X153459Y-114965D01*
X153365Y-115001D01*
X153273Y-115041D01*
X153182Y-115084D01*
X153093Y-115131D01*
X153006Y-115181D01*
X152920Y-115235D01*
X152837Y-115292D01*
X152757Y-115352D01*
X152678Y-115415D01*
X152602Y-115482D01*
X152529Y-115551D01*
X152459Y-115623D01*
X152391Y-115697D01*
X152326Y-115774D01*
X152265Y-115854D01*
X152206Y-115936D01*
X152151Y-116020D01*
X152099Y-116106D01*
X152050Y-116194D01*
X152005Y-116284D01*
X151963Y-116376D01*
X151925Y-116469D01*
X151891Y-116564D01*
X151860Y-116659D01*
X151833Y-116756D01*
X151810Y-116854D01*
X151790Y-116953D01*
X151775Y-117053D01*
X151763Y-117153D01*
X151755Y-117253D01*
X151751Y-117354D01*
X151751Y-117454D01*
X151755Y-117555D01*
X151763Y-117655D01*
X151775Y-117755D01*
X151790Y-117855D01*
X151810Y-117954D01*
X151833Y-118052D01*
X151860Y-118149D01*
X151891Y-118244D01*
X151925Y-118339D01*
X151963Y-118432D01*
X152005Y-118524D01*
X152050Y-118614D01*
X152099Y-118702D01*
X152151Y-118788D01*
X152206Y-118872D01*
X152265Y-118954D01*
X152326Y-119034D01*
X152391Y-119111D01*
X152459Y-119185D01*
X152529Y-119257D01*
X152602Y-119326D01*
X152678Y-119393D01*
X152757Y-119456D01*
X152837Y-119516D01*
X152920Y-119573D01*
X153006Y-119627D01*
X153093Y-119677D01*
X153182Y-119724D01*
X153273Y-119767D01*
X153365Y-119807D01*
X153459Y-119843D01*
X153554Y-119876D01*
X153651Y-119905D01*
X153748Y-119930D01*
X153847Y-119951D01*
X153946Y-119969D01*
X154046Y-119982D01*
X154146Y-119992D01*
X154246Y-119998D01*
X154347Y-120000D01*
X154347Y-120001D02*
X156944Y-120001D01*
X155646Y-133858D02*
X158242Y-142946D01*
X151751Y-142946D01*
X153698Y-140349D02*
X153698Y-145542D01*
D23*
X176530Y-43180D02*
X176530Y-13208D01*
X159879Y-43180D01*
X159879Y-13208D01*
X150706Y-21534D02*
X150706Y-34854D01*
X150707Y-21534D02*
X150705Y-21331D01*
X150697Y-21129D01*
X150685Y-20926D01*
X150668Y-20724D01*
X150645Y-20523D01*
X150618Y-20322D01*
X150586Y-20121D01*
X150549Y-19922D01*
X150508Y-19724D01*
X150461Y-19526D01*
X150410Y-19330D01*
X150354Y-19135D01*
X150293Y-18942D01*
X150228Y-18750D01*
X150158Y-18560D01*
X150083Y-18371D01*
X150004Y-18185D01*
X149920Y-18000D01*
X149831Y-17817D01*
X149739Y-17637D01*
X149642Y-17459D01*
X149540Y-17284D01*
X149435Y-17110D01*
X149325Y-16940D01*
X149211Y-16772D01*
X149093Y-16607D01*
X148971Y-16445D01*
X148845Y-16286D01*
X148715Y-16131D01*
X148582Y-15978D01*
X148445Y-15829D01*
X148304Y-15683D01*
X148160Y-15540D01*
X148012Y-15401D01*
X147861Y-15266D01*
X147707Y-15134D01*
X147549Y-15006D01*
X147389Y-14883D01*
X147226Y-14763D01*
X147059Y-14647D01*
X146890Y-14535D01*
X146718Y-14427D01*
X146544Y-14323D01*
X146367Y-14224D01*
X146188Y-14129D01*
X146007Y-14039D01*
X145823Y-13953D01*
X145637Y-13871D01*
X145450Y-13794D01*
X145260Y-13722D01*
X145069Y-13654D01*
X144877Y-13591D01*
X144682Y-13532D01*
X144487Y-13479D01*
X144290Y-13430D01*
X144092Y-13386D01*
X143893Y-13346D01*
X143693Y-13312D01*
X143493Y-13283D01*
X143292Y-13258D01*
X143090Y-13238D01*
X142888Y-13223D01*
X142685Y-13214D01*
X142482Y-13209D01*
X142280Y-13209D01*
X142077Y-13214D01*
X141874Y-13223D01*
X141672Y-13238D01*
X141470Y-13258D01*
X141269Y-13283D01*
X141069Y-13312D01*
X140869Y-13346D01*
X140670Y-13386D01*
X140472Y-13430D01*
X140275Y-13479D01*
X140080Y-13532D01*
X139885Y-13591D01*
X139693Y-13654D01*
X139502Y-13722D01*
X139312Y-13794D01*
X139125Y-13871D01*
X138939Y-13953D01*
X138755Y-14039D01*
X138574Y-14129D01*
X138395Y-14224D01*
X138218Y-14323D01*
X138044Y-14427D01*
X137872Y-14535D01*
X137703Y-14647D01*
X137536Y-14763D01*
X137373Y-14883D01*
X137213Y-15006D01*
X137055Y-15134D01*
X136901Y-15266D01*
X136750Y-15401D01*
X136602Y-15540D01*
X136458Y-15683D01*
X136317Y-15829D01*
X136180Y-15978D01*
X136047Y-16131D01*
X135917Y-16286D01*
X135791Y-16445D01*
X135669Y-16607D01*
X135551Y-16772D01*
X135437Y-16940D01*
X135327Y-17110D01*
X135222Y-17284D01*
X135120Y-17459D01*
X135023Y-17637D01*
X134931Y-17817D01*
X134842Y-18000D01*
X134758Y-18185D01*
X134679Y-18371D01*
X134604Y-18560D01*
X134534Y-18750D01*
X134469Y-18942D01*
X134408Y-19135D01*
X134352Y-19330D01*
X134301Y-19526D01*
X134254Y-19724D01*
X134213Y-19922D01*
X134176Y-20121D01*
X134144Y-20322D01*
X134117Y-20523D01*
X134094Y-20724D01*
X134077Y-20926D01*
X134065Y-21129D01*
X134057Y-21331D01*
X134055Y-21534D01*
X134055Y-34854D01*
X134057Y-35057D01*
X134065Y-35259D01*
X134077Y-35462D01*
X134094Y-35664D01*
X134117Y-35865D01*
X134144Y-36066D01*
X134176Y-36267D01*
X134213Y-36466D01*
X134254Y-36664D01*
X134301Y-36862D01*
X134352Y-37058D01*
X134408Y-37253D01*
X134469Y-37446D01*
X134534Y-37638D01*
X134604Y-37828D01*
X134679Y-38017D01*
X134758Y-38203D01*
X134842Y-38388D01*
X134931Y-38571D01*
X135023Y-38751D01*
X135120Y-38929D01*
X135222Y-39104D01*
X135327Y-39278D01*
X135437Y-39448D01*
X135551Y-39616D01*
X135669Y-39781D01*
X135791Y-39943D01*
X135917Y-40102D01*
X136047Y-40257D01*
X136180Y-40410D01*
X136317Y-40559D01*
X136458Y-40705D01*
X136602Y-40848D01*
X136750Y-40987D01*
X136901Y-41122D01*
X137055Y-41254D01*
X137213Y-41382D01*
X137373Y-41505D01*
X137536Y-41625D01*
X137703Y-41741D01*
X137872Y-41853D01*
X138044Y-41961D01*
X138218Y-42065D01*
X138395Y-42164D01*
X138574Y-42259D01*
X138755Y-42349D01*
X138939Y-42435D01*
X139125Y-42517D01*
X139312Y-42594D01*
X139502Y-42666D01*
X139693Y-42734D01*
X139885Y-42797D01*
X140080Y-42856D01*
X140275Y-42909D01*
X140472Y-42958D01*
X140670Y-43002D01*
X140869Y-43042D01*
X141069Y-43076D01*
X141269Y-43105D01*
X141470Y-43130D01*
X141672Y-43150D01*
X141874Y-43165D01*
X142077Y-43174D01*
X142280Y-43179D01*
X142482Y-43179D01*
X142685Y-43174D01*
X142888Y-43165D01*
X143090Y-43150D01*
X143292Y-43130D01*
X143493Y-43105D01*
X143693Y-43076D01*
X143893Y-43042D01*
X144092Y-43002D01*
X144290Y-42958D01*
X144487Y-42909D01*
X144682Y-42856D01*
X144877Y-42797D01*
X145069Y-42734D01*
X145260Y-42666D01*
X145450Y-42594D01*
X145637Y-42517D01*
X145823Y-42435D01*
X146007Y-42349D01*
X146188Y-42259D01*
X146367Y-42164D01*
X146544Y-42065D01*
X146718Y-41961D01*
X146890Y-41853D01*
X147059Y-41741D01*
X147226Y-41625D01*
X147389Y-41505D01*
X147549Y-41382D01*
X147707Y-41254D01*
X147861Y-41122D01*
X148012Y-40987D01*
X148160Y-40848D01*
X148304Y-40705D01*
X148445Y-40559D01*
X148582Y-40410D01*
X148715Y-40257D01*
X148845Y-40102D01*
X148971Y-39943D01*
X149093Y-39781D01*
X149211Y-39616D01*
X149325Y-39448D01*
X149435Y-39278D01*
X149540Y-39104D01*
X149642Y-38929D01*
X149739Y-38751D01*
X149831Y-38571D01*
X149920Y-38388D01*
X150004Y-38203D01*
X150083Y-38017D01*
X150158Y-37828D01*
X150228Y-37638D01*
X150293Y-37446D01*
X150354Y-37253D01*
X150410Y-37058D01*
X150461Y-36862D01*
X150508Y-36664D01*
X150549Y-36466D01*
X150586Y-36267D01*
X150618Y-36066D01*
X150645Y-35865D01*
X150668Y-35664D01*
X150685Y-35462D01*
X150697Y-35259D01*
X150705Y-35057D01*
X150707Y-34854D01*
X124882Y-43180D02*
X124882Y-13208D01*
X116557Y-13208D01*
X116354Y-13210D01*
X116152Y-13218D01*
X115949Y-13230D01*
X115747Y-13247D01*
X115546Y-13270D01*
X115345Y-13297D01*
X115144Y-13329D01*
X114945Y-13366D01*
X114747Y-13407D01*
X114549Y-13454D01*
X114353Y-13505D01*
X114158Y-13561D01*
X113965Y-13622D01*
X113773Y-13687D01*
X113583Y-13757D01*
X113394Y-13832D01*
X113208Y-13911D01*
X113023Y-13995D01*
X112840Y-14084D01*
X112660Y-14176D01*
X112482Y-14273D01*
X112307Y-14375D01*
X112133Y-14480D01*
X111963Y-14590D01*
X111795Y-14704D01*
X111630Y-14822D01*
X111468Y-14944D01*
X111309Y-15070D01*
X111154Y-15200D01*
X111001Y-15333D01*
X110852Y-15470D01*
X110706Y-15611D01*
X110563Y-15755D01*
X110424Y-15903D01*
X110289Y-16054D01*
X110157Y-16208D01*
X110029Y-16366D01*
X109906Y-16526D01*
X109786Y-16689D01*
X109670Y-16856D01*
X109558Y-17025D01*
X109450Y-17197D01*
X109346Y-17371D01*
X109247Y-17548D01*
X109152Y-17727D01*
X109062Y-17908D01*
X108976Y-18092D01*
X108894Y-18278D01*
X108817Y-18465D01*
X108745Y-18655D01*
X108677Y-18846D01*
X108614Y-19038D01*
X108555Y-19233D01*
X108502Y-19428D01*
X108453Y-19625D01*
X108409Y-19823D01*
X108369Y-20022D01*
X108335Y-20222D01*
X108306Y-20422D01*
X108281Y-20623D01*
X108261Y-20825D01*
X108246Y-21027D01*
X108237Y-21230D01*
X108232Y-21433D01*
X108232Y-21635D01*
X108237Y-21838D01*
X108246Y-22041D01*
X108261Y-22243D01*
X108281Y-22445D01*
X108306Y-22646D01*
X108335Y-22846D01*
X108369Y-23046D01*
X108409Y-23245D01*
X108453Y-23443D01*
X108502Y-23640D01*
X108555Y-23835D01*
X108614Y-24030D01*
X108677Y-24222D01*
X108745Y-24413D01*
X108817Y-24603D01*
X108894Y-24790D01*
X108976Y-24976D01*
X109062Y-25160D01*
X109152Y-25341D01*
X109247Y-25520D01*
X109346Y-25697D01*
X109450Y-25871D01*
X109558Y-26043D01*
X109670Y-26212D01*
X109786Y-26379D01*
X109906Y-26542D01*
X110029Y-26702D01*
X110157Y-26860D01*
X110289Y-27014D01*
X110424Y-27165D01*
X110563Y-27313D01*
X110706Y-27457D01*
X110852Y-27598D01*
X111001Y-27735D01*
X111154Y-27868D01*
X111309Y-27998D01*
X111468Y-28124D01*
X111630Y-28246D01*
X111795Y-28364D01*
X111963Y-28478D01*
X112133Y-28588D01*
X112307Y-28693D01*
X112482Y-28795D01*
X112660Y-28892D01*
X112840Y-28984D01*
X113023Y-29073D01*
X113208Y-29157D01*
X113394Y-29236D01*
X113583Y-29311D01*
X113773Y-29381D01*
X113965Y-29446D01*
X114158Y-29507D01*
X114353Y-29563D01*
X114549Y-29614D01*
X114747Y-29661D01*
X114945Y-29702D01*
X115144Y-29739D01*
X115345Y-29771D01*
X115546Y-29798D01*
X115747Y-29821D01*
X115949Y-29838D01*
X116152Y-29850D01*
X116354Y-29858D01*
X116557Y-29860D01*
X116557Y-29859D02*
X124882Y-29859D01*
X114891Y-29859D02*
X108231Y-43180D01*
X93233Y-43180D02*
X93233Y-13208D01*
X101558Y-13208D02*
X84907Y-13208D01*
X77401Y-13208D02*
X77401Y-43180D01*
X77401Y-26529D02*
X60749Y-26529D01*
X60749Y-13208D02*
X60749Y-43180D01*
X42419Y-43180D02*
X42258Y-43178D01*
X42097Y-43172D01*
X41937Y-43163D01*
X41776Y-43149D01*
X41616Y-43131D01*
X41457Y-43110D01*
X41298Y-43085D01*
X41139Y-43056D01*
X40982Y-43023D01*
X40825Y-42986D01*
X40669Y-42946D01*
X40515Y-42902D01*
X40361Y-42854D01*
X40208Y-42802D01*
X40057Y-42747D01*
X39908Y-42688D01*
X39759Y-42626D01*
X39612Y-42560D01*
X39467Y-42490D01*
X39324Y-42417D01*
X39182Y-42341D01*
X39043Y-42261D01*
X38905Y-42177D01*
X38769Y-42091D01*
X38636Y-42001D01*
X38504Y-41908D01*
X38375Y-41812D01*
X38249Y-41713D01*
X38124Y-41610D01*
X38003Y-41505D01*
X37883Y-41397D01*
X37767Y-41286D01*
X37653Y-41172D01*
X37542Y-41056D01*
X37434Y-40936D01*
X37329Y-40815D01*
X37226Y-40690D01*
X37127Y-40564D01*
X37031Y-40435D01*
X36938Y-40303D01*
X36848Y-40170D01*
X36762Y-40034D01*
X36678Y-39896D01*
X36598Y-39757D01*
X36522Y-39615D01*
X36449Y-39472D01*
X36379Y-39327D01*
X36313Y-39180D01*
X36251Y-39031D01*
X36192Y-38882D01*
X36137Y-38731D01*
X36085Y-38578D01*
X36037Y-38424D01*
X35993Y-38270D01*
X35953Y-38114D01*
X35916Y-37957D01*
X35883Y-37800D01*
X35854Y-37641D01*
X35829Y-37482D01*
X35808Y-37323D01*
X35790Y-37163D01*
X35776Y-37002D01*
X35767Y-36842D01*
X35761Y-36681D01*
X35759Y-36520D01*
X42419Y-43180D02*
X42756Y-43176D01*
X43092Y-43164D01*
X43428Y-43144D01*
X43764Y-43116D01*
X44098Y-43079D01*
X44432Y-43035D01*
X44765Y-42983D01*
X45096Y-42923D01*
X45425Y-42855D01*
X45753Y-42779D01*
X46080Y-42695D01*
X46404Y-42604D01*
X46725Y-42505D01*
X47044Y-42398D01*
X47361Y-42284D01*
X47675Y-42162D01*
X47986Y-42032D01*
X48293Y-41895D01*
X48597Y-41751D01*
X48898Y-41600D01*
X49195Y-41441D01*
X49488Y-41275D01*
X49777Y-41103D01*
X50062Y-40923D01*
X50342Y-40737D01*
X50618Y-40544D01*
X50889Y-40345D01*
X51156Y-40139D01*
X51417Y-39927D01*
X51673Y-39708D01*
X51924Y-39484D01*
X52170Y-39253D01*
X52410Y-39017D01*
X51578Y-19868D02*
X51576Y-19705D01*
X51570Y-19541D01*
X51560Y-19378D01*
X51546Y-19215D01*
X51528Y-19053D01*
X51506Y-18891D01*
X51480Y-18729D01*
X51450Y-18569D01*
X51416Y-18409D01*
X51378Y-18250D01*
X51337Y-18091D01*
X51291Y-17934D01*
X51242Y-17779D01*
X51189Y-17624D01*
X51132Y-17471D01*
X51071Y-17319D01*
X51007Y-17169D01*
X50938Y-17020D01*
X50867Y-16873D01*
X50791Y-16728D01*
X50713Y-16585D01*
X50630Y-16444D01*
X50545Y-16304D01*
X50455Y-16167D01*
X50363Y-16033D01*
X50267Y-15900D01*
X50168Y-15770D01*
X50066Y-15642D01*
X49961Y-15517D01*
X49852Y-15395D01*
X49741Y-15275D01*
X49627Y-15158D01*
X49510Y-15044D01*
X49390Y-14933D01*
X49268Y-14824D01*
X49143Y-14719D01*
X49015Y-14617D01*
X48885Y-14518D01*
X48752Y-14422D01*
X48618Y-14330D01*
X48481Y-14240D01*
X48341Y-14155D01*
X48200Y-14072D01*
X48057Y-13994D01*
X47912Y-13918D01*
X47765Y-13847D01*
X47616Y-13778D01*
X47466Y-13714D01*
X47314Y-13653D01*
X47161Y-13596D01*
X47006Y-13543D01*
X46851Y-13494D01*
X46694Y-13448D01*
X46536Y-13407D01*
X46376Y-13369D01*
X46217Y-13335D01*
X46056Y-13305D01*
X45894Y-13279D01*
X45732Y-13257D01*
X45570Y-13239D01*
X45407Y-13225D01*
X45244Y-13215D01*
X45080Y-13209D01*
X44917Y-13207D01*
X44917Y-13208D02*
X44619Y-13212D01*
X44322Y-13222D01*
X44025Y-13240D01*
X43728Y-13265D01*
X43432Y-13297D01*
X43137Y-13335D01*
X42843Y-13381D01*
X42550Y-13434D01*
X42259Y-13494D01*
X41969Y-13561D01*
X41680Y-13635D01*
X41394Y-13715D01*
X41109Y-13803D01*
X40827Y-13897D01*
X40547Y-13998D01*
X40269Y-14105D01*
X39995Y-14219D01*
X39722Y-14340D01*
X39453Y-14467D01*
X39187Y-14600D01*
X38924Y-14740D01*
X38665Y-14886D01*
X38409Y-15038D01*
X38157Y-15196D01*
X37909Y-15360D01*
X37664Y-15530D01*
X37424Y-15706D01*
X48248Y-25696D02*
X48387Y-25612D01*
X48525Y-25524D01*
X48660Y-25432D01*
X48794Y-25338D01*
X48924Y-25240D01*
X49053Y-25139D01*
X49179Y-25035D01*
X49303Y-24929D01*
X49423Y-24819D01*
X49542Y-24706D01*
X49657Y-24590D01*
X49770Y-24472D01*
X49879Y-24351D01*
X49986Y-24227D01*
X50090Y-24101D01*
X50191Y-23973D01*
X50288Y-23842D01*
X50382Y-23708D01*
X50473Y-23573D01*
X50561Y-23435D01*
X50646Y-23295D01*
X50727Y-23153D01*
X50804Y-23009D01*
X50878Y-22864D01*
X50949Y-22717D01*
X51016Y-22568D01*
X51079Y-22417D01*
X51139Y-22265D01*
X51195Y-22112D01*
X51247Y-21957D01*
X51296Y-21801D01*
X51341Y-21644D01*
X51382Y-21486D01*
X51419Y-21327D01*
X51452Y-21167D01*
X51482Y-21006D01*
X51507Y-20845D01*
X51529Y-20683D01*
X51546Y-20520D01*
X51560Y-20358D01*
X51570Y-20195D01*
X51576Y-20031D01*
X51578Y-19868D01*
X39089Y-30693D02*
X38949Y-30777D01*
X38812Y-30865D01*
X38676Y-30956D01*
X38543Y-31051D01*
X38412Y-31149D01*
X38284Y-31249D01*
X38158Y-31353D01*
X38034Y-31460D01*
X37913Y-31570D01*
X37795Y-31683D01*
X37680Y-31798D01*
X37567Y-31917D01*
X37457Y-32038D01*
X37351Y-32161D01*
X37247Y-32287D01*
X37146Y-32416D01*
X37049Y-32547D01*
X36954Y-32680D01*
X36863Y-32816D01*
X36776Y-32954D01*
X36691Y-33093D01*
X36610Y-33235D01*
X36533Y-33379D01*
X36458Y-33525D01*
X36388Y-33672D01*
X36321Y-33821D01*
X36258Y-33971D01*
X36198Y-34123D01*
X36142Y-34277D01*
X36090Y-34431D01*
X36041Y-34587D01*
X35996Y-34744D01*
X35955Y-34903D01*
X35918Y-35062D01*
X35885Y-35221D01*
X35855Y-35382D01*
X35830Y-35543D01*
X35808Y-35705D01*
X35791Y-35868D01*
X35777Y-36030D01*
X35767Y-36193D01*
X35761Y-36357D01*
X35759Y-36520D01*
X39089Y-30692D02*
X48247Y-25696D01*
X27419Y-43180D02*
X14098Y-43180D01*
X27419Y-43180D02*
X27419Y-13208D01*
X14098Y-13208D01*
X17428Y-26529D02*
X27419Y-26529D01*
X-67Y-43180D02*
X-6727Y-43180D01*
X-67Y-43180D02*
X94Y-43178D01*
X255Y-43172D01*
X415Y-43163D01*
X576Y-43149D01*
X736Y-43131D01*
X895Y-43110D01*
X1054Y-43085D01*
X1213Y-43056D01*
X1370Y-43023D01*
X1527Y-42986D01*
X1683Y-42946D01*
X1837Y-42902D01*
X1991Y-42854D01*
X2144Y-42802D01*
X2295Y-42747D01*
X2444Y-42688D01*
X2593Y-42626D01*
X2740Y-42560D01*
X2885Y-42490D01*
X3028Y-42417D01*
X3170Y-42341D01*
X3309Y-42261D01*
X3447Y-42177D01*
X3583Y-42091D01*
X3716Y-42001D01*
X3848Y-41908D01*
X3977Y-41812D01*
X4103Y-41713D01*
X4228Y-41610D01*
X4349Y-41505D01*
X4469Y-41397D01*
X4585Y-41286D01*
X4699Y-41172D01*
X4810Y-41056D01*
X4918Y-40936D01*
X5023Y-40815D01*
X5126Y-40690D01*
X5225Y-40564D01*
X5321Y-40435D01*
X5414Y-40303D01*
X5504Y-40170D01*
X5590Y-40034D01*
X5674Y-39896D01*
X5754Y-39757D01*
X5830Y-39615D01*
X5903Y-39472D01*
X5973Y-39327D01*
X6039Y-39180D01*
X6101Y-39031D01*
X6160Y-38882D01*
X6215Y-38731D01*
X6267Y-38578D01*
X6315Y-38424D01*
X6359Y-38270D01*
X6399Y-38114D01*
X6436Y-37957D01*
X6469Y-37800D01*
X6498Y-37641D01*
X6523Y-37482D01*
X6544Y-37323D01*
X6562Y-37163D01*
X6576Y-37002D01*
X6585Y-36842D01*
X6591Y-36681D01*
X6593Y-36520D01*
X6594Y-36520D02*
X6594Y-19868D01*
X6592Y-19705D01*
X6586Y-19541D01*
X6576Y-19378D01*
X6562Y-19215D01*
X6544Y-19053D01*
X6522Y-18891D01*
X6496Y-18729D01*
X6466Y-18569D01*
X6432Y-18409D01*
X6394Y-18250D01*
X6353Y-18091D01*
X6307Y-17934D01*
X6258Y-17779D01*
X6205Y-17624D01*
X6148Y-17471D01*
X6087Y-17319D01*
X6023Y-17169D01*
X5954Y-17020D01*
X5883Y-16873D01*
X5807Y-16728D01*
X5729Y-16585D01*
X5646Y-16444D01*
X5561Y-16304D01*
X5471Y-16167D01*
X5379Y-16033D01*
X5283Y-15900D01*
X5184Y-15770D01*
X5082Y-15642D01*
X4977Y-15517D01*
X4868Y-15395D01*
X4757Y-15275D01*
X4643Y-15158D01*
X4526Y-15044D01*
X4406Y-14933D01*
X4284Y-14824D01*
X4159Y-14719D01*
X4031Y-14617D01*
X3901Y-14518D01*
X3768Y-14422D01*
X3634Y-14330D01*
X3497Y-14240D01*
X3357Y-14155D01*
X3216Y-14072D01*
X3073Y-13994D01*
X2928Y-13918D01*
X2781Y-13847D01*
X2632Y-13778D01*
X2482Y-13714D01*
X2330Y-13653D01*
X2177Y-13596D01*
X2022Y-13543D01*
X1867Y-13494D01*
X1710Y-13448D01*
X1552Y-13407D01*
X1392Y-13369D01*
X1233Y-13335D01*
X1072Y-13305D01*
X910Y-13279D01*
X748Y-13257D01*
X586Y-13239D01*
X423Y-13225D01*
X260Y-13215D01*
X97Y-13209D01*
X-67Y-13207D01*
X-67Y-13208D02*
X-6727Y-13208D01*
X-23390Y-13208D02*
X-23571Y-13210D01*
X-23752Y-13217D01*
X-23933Y-13228D01*
X-24113Y-13243D01*
X-24293Y-13263D01*
X-24473Y-13287D01*
X-24651Y-13315D01*
X-24830Y-13348D01*
X-25007Y-13385D01*
X-25183Y-13426D01*
X-25358Y-13471D01*
X-25533Y-13521D01*
X-25705Y-13575D01*
X-25877Y-13633D01*
X-26047Y-13695D01*
X-26216Y-13761D01*
X-26382Y-13831D01*
X-26548Y-13906D01*
X-26711Y-13984D01*
X-26872Y-14066D01*
X-27031Y-14152D01*
X-27189Y-14242D01*
X-27344Y-14336D01*
X-27496Y-14433D01*
X-27647Y-14534D01*
X-27794Y-14639D01*
X-27939Y-14747D01*
X-28082Y-14859D01*
X-28222Y-14974D01*
X-28359Y-15092D01*
X-28493Y-15214D01*
X-28624Y-15339D01*
X-28752Y-15467D01*
X-28877Y-15598D01*
X-28999Y-15732D01*
X-29117Y-15869D01*
X-29232Y-16009D01*
X-29344Y-16152D01*
X-29452Y-16297D01*
X-29557Y-16444D01*
X-29658Y-16595D01*
X-29755Y-16747D01*
X-29849Y-16902D01*
X-29939Y-17060D01*
X-30025Y-17219D01*
X-30107Y-17380D01*
X-30185Y-17543D01*
X-30260Y-17709D01*
X-30330Y-17875D01*
X-30396Y-18044D01*
X-30458Y-18214D01*
X-30516Y-18386D01*
X-30570Y-18558D01*
X-30620Y-18733D01*
X-30665Y-18908D01*
X-30706Y-19084D01*
X-30743Y-19261D01*
X-30776Y-19440D01*
X-30804Y-19618D01*
X-30828Y-19798D01*
X-30848Y-19978D01*
X-30863Y-20158D01*
X-30874Y-20339D01*
X-30881Y-20520D01*
X-30883Y-20701D01*
X-23390Y-13208D02*
X-23157Y-13211D01*
X-22925Y-13219D01*
X-22692Y-13233D01*
X-22460Y-13253D01*
X-22229Y-13278D01*
X-21998Y-13309D01*
X-21768Y-13346D01*
X-21539Y-13388D01*
X-21311Y-13435D01*
X-21085Y-13488D01*
X-20859Y-13547D01*
X-20635Y-13611D01*
X-20413Y-13680D01*
X-20193Y-13755D01*
X-19974Y-13834D01*
X-19757Y-13920D01*
X-19543Y-14010D01*
X-19331Y-14106D01*
X-19121Y-14206D01*
X-18913Y-14312D01*
X-18709Y-14423D01*
X-18507Y-14539D01*
X-18307Y-14659D01*
X-18111Y-14784D01*
X-17918Y-14914D01*
X-17728Y-15049D01*
X-17542Y-15188D01*
X-17358Y-15332D01*
X-17179Y-15480D01*
X-17003Y-15632D01*
X-16831Y-15789D01*
X-16662Y-15950D01*
X-16498Y-16114D01*
X-16337Y-16283D01*
X-16181Y-16455D01*
X-16029Y-16632D01*
X-15881Y-16811D01*
X-15737Y-16995D01*
X-15598Y-17182D01*
X-15464Y-17372D01*
X-15334Y-17565D01*
X-15209Y-17761D01*
X-15089Y-17961D01*
X-14973Y-18163D01*
X-14863Y-18368D01*
X-14757Y-18575D01*
X-14657Y-18785D01*
X-14562Y-18998D01*
X-14471Y-19212D01*
X-14386Y-19429D01*
X-14307Y-19648D01*
X-14232Y-19868D01*
X-28385Y-26529D02*
X-28527Y-26391D01*
X-28665Y-26250D01*
X-28799Y-26105D01*
X-28930Y-25957D01*
X-29057Y-25806D01*
X-29180Y-25652D01*
X-29300Y-25494D01*
X-29415Y-25334D01*
X-29527Y-25171D01*
X-29635Y-25006D01*
X-29738Y-24838D01*
X-29838Y-24667D01*
X-29933Y-24494D01*
X-30024Y-24319D01*
X-30111Y-24141D01*
X-30193Y-23962D01*
X-30271Y-23780D01*
X-30344Y-23597D01*
X-30413Y-23412D01*
X-30477Y-23225D01*
X-30537Y-23037D01*
X-30592Y-22847D01*
X-30642Y-22656D01*
X-30688Y-22464D01*
X-30728Y-22271D01*
X-30765Y-22077D01*
X-30796Y-21882D01*
X-30822Y-21686D01*
X-30844Y-21490D01*
X-30861Y-21293D01*
X-30873Y-21096D01*
X-30881Y-20898D01*
X-30883Y-20701D01*
X-28385Y-26529D02*
X-14232Y-43180D01*
X-30883Y-43180D01*
X-39223Y-28194D02*
X-39230Y-27604D01*
X-39251Y-27015D01*
X-39286Y-26427D01*
X-39336Y-25839D01*
X-39399Y-25253D01*
X-39476Y-24668D01*
X-39567Y-24086D01*
X-39672Y-23505D01*
X-39791Y-22928D01*
X-39924Y-22353D01*
X-40070Y-21782D01*
X-40230Y-21215D01*
X-40403Y-20651D01*
X-40590Y-20092D01*
X-40790Y-19537D01*
X-41003Y-18987D01*
X-41229Y-18443D01*
X-41469Y-17904D01*
X-41721Y-17371D01*
X-41720Y-17371D02*
X-41772Y-17224D01*
X-41829Y-17078D01*
X-41888Y-16934D01*
X-41952Y-16792D01*
X-42019Y-16651D01*
X-42089Y-16512D01*
X-42164Y-16375D01*
X-42241Y-16239D01*
X-42322Y-16106D01*
X-42406Y-15975D01*
X-42494Y-15846D01*
X-42585Y-15719D01*
X-42679Y-15594D01*
X-42776Y-15472D01*
X-42876Y-15353D01*
X-42979Y-15236D01*
X-43085Y-15122D01*
X-43194Y-15010D01*
X-43306Y-14901D01*
X-43420Y-14795D01*
X-43537Y-14692D01*
X-43657Y-14592D01*
X-43779Y-14495D01*
X-43904Y-14401D01*
X-44031Y-14311D01*
X-44160Y-14223D01*
X-44291Y-14139D01*
X-44425Y-14058D01*
X-44560Y-13981D01*
X-44697Y-13907D01*
X-44837Y-13837D01*
X-44978Y-13770D01*
X-45120Y-13707D01*
X-45264Y-13647D01*
X-45410Y-13591D01*
X-45557Y-13539D01*
X-45705Y-13490D01*
X-45854Y-13445D01*
X-46005Y-13404D01*
X-46156Y-13367D01*
X-46309Y-13334D01*
X-46462Y-13304D01*
X-46616Y-13279D01*
X-46770Y-13257D01*
X-46925Y-13240D01*
X-47081Y-13226D01*
X-47236Y-13216D01*
X-47392Y-13210D01*
X-47548Y-13208D01*
X-47704Y-13210D01*
X-47860Y-13216D01*
X-48015Y-13226D01*
X-48171Y-13240D01*
X-48326Y-13257D01*
X-48480Y-13279D01*
X-48634Y-13304D01*
X-48787Y-13334D01*
X-48940Y-13367D01*
X-49091Y-13404D01*
X-49242Y-13445D01*
X-49391Y-13490D01*
X-49539Y-13539D01*
X-49686Y-13591D01*
X-49832Y-13647D01*
X-49976Y-13707D01*
X-50118Y-13770D01*
X-50259Y-13837D01*
X-50399Y-13907D01*
X-50536Y-13981D01*
X-50671Y-14058D01*
X-50805Y-14139D01*
X-50936Y-14223D01*
X-51065Y-14311D01*
X-51192Y-14401D01*
X-51317Y-14495D01*
X-51439Y-14592D01*
X-51559Y-14692D01*
X-51676Y-14795D01*
X-51790Y-14901D01*
X-51902Y-15010D01*
X-52011Y-15122D01*
X-52117Y-15236D01*
X-52220Y-15353D01*
X-52320Y-15472D01*
X-52417Y-15594D01*
X-52511Y-15719D01*
X-52602Y-15846D01*
X-52690Y-15975D01*
X-52774Y-16106D01*
X-52855Y-16239D01*
X-52932Y-16375D01*
X-53007Y-16512D01*
X-53077Y-16651D01*
X-53144Y-16792D01*
X-53208Y-16934D01*
X-53267Y-17078D01*
X-53324Y-17224D01*
X-53376Y-17371D01*
X-53375Y-17371D02*
X-53627Y-17904D01*
X-53867Y-18443D01*
X-54093Y-18987D01*
X-54306Y-19537D01*
X-54506Y-20092D01*
X-54693Y-20651D01*
X-54866Y-21215D01*
X-55026Y-21782D01*
X-55172Y-22353D01*
X-55305Y-22928D01*
X-55424Y-23505D01*
X-55529Y-24086D01*
X-55620Y-24668D01*
X-55697Y-25253D01*
X-55760Y-25839D01*
X-55810Y-26427D01*
X-55845Y-27015D01*
X-55866Y-27604D01*
X-55873Y-28194D01*
X-39223Y-28194D02*
X-39230Y-28784D01*
X-39251Y-29373D01*
X-39286Y-29961D01*
X-39336Y-30549D01*
X-39399Y-31135D01*
X-39476Y-31720D01*
X-39567Y-32302D01*
X-39672Y-32883D01*
X-39791Y-33460D01*
X-39924Y-34035D01*
X-40070Y-34606D01*
X-40230Y-35173D01*
X-40403Y-35737D01*
X-40590Y-36296D01*
X-40790Y-36851D01*
X-41003Y-37401D01*
X-41229Y-37945D01*
X-41469Y-38484D01*
X-41721Y-39017D01*
X-41720Y-39017D02*
X-41772Y-39164D01*
X-41829Y-39310D01*
X-41888Y-39454D01*
X-41952Y-39596D01*
X-42019Y-39737D01*
X-42089Y-39876D01*
X-42164Y-40013D01*
X-42241Y-40149D01*
X-42322Y-40282D01*
X-42406Y-40413D01*
X-42494Y-40542D01*
X-42585Y-40669D01*
X-42679Y-40794D01*
X-42776Y-40916D01*
X-42876Y-41035D01*
X-42979Y-41152D01*
X-43085Y-41266D01*
X-43194Y-41378D01*
X-43306Y-41487D01*
X-43420Y-41593D01*
X-43537Y-41696D01*
X-43657Y-41796D01*
X-43779Y-41893D01*
X-43904Y-41987D01*
X-44031Y-42077D01*
X-44160Y-42165D01*
X-44291Y-42249D01*
X-44425Y-42330D01*
X-44560Y-42407D01*
X-44697Y-42481D01*
X-44837Y-42551D01*
X-44978Y-42618D01*
X-45120Y-42681D01*
X-45264Y-42741D01*
X-45410Y-42797D01*
X-45557Y-42849D01*
X-45705Y-42898D01*
X-45854Y-42943D01*
X-46005Y-42984D01*
X-46156Y-43021D01*
X-46309Y-43054D01*
X-46462Y-43084D01*
X-46616Y-43109D01*
X-46770Y-43131D01*
X-46925Y-43148D01*
X-47081Y-43162D01*
X-47236Y-43172D01*
X-47392Y-43178D01*
X-47548Y-43180D01*
X-53375Y-39017D02*
X-53627Y-38484D01*
X-53867Y-37945D01*
X-54093Y-37401D01*
X-54306Y-36851D01*
X-54506Y-36296D01*
X-54693Y-35737D01*
X-54866Y-35173D01*
X-55026Y-34606D01*
X-55172Y-34035D01*
X-55305Y-33460D01*
X-55424Y-32883D01*
X-55529Y-32302D01*
X-55620Y-31720D01*
X-55697Y-31135D01*
X-55760Y-30549D01*
X-55810Y-29961D01*
X-55845Y-29373D01*
X-55866Y-28784D01*
X-55873Y-28194D01*
X-53376Y-39017D02*
X-53324Y-39164D01*
X-53267Y-39310D01*
X-53208Y-39454D01*
X-53144Y-39596D01*
X-53077Y-39737D01*
X-53006Y-39876D01*
X-52932Y-40013D01*
X-52855Y-40149D01*
X-52774Y-40282D01*
X-52690Y-40413D01*
X-52602Y-40542D01*
X-52511Y-40669D01*
X-52417Y-40794D01*
X-52320Y-40916D01*
X-52220Y-41035D01*
X-52117Y-41152D01*
X-52011Y-41266D01*
X-51902Y-41378D01*
X-51790Y-41487D01*
X-51676Y-41593D01*
X-51559Y-41696D01*
X-51439Y-41796D01*
X-51317Y-41893D01*
X-51192Y-41987D01*
X-51065Y-42077D01*
X-50936Y-42165D01*
X-50805Y-42249D01*
X-50671Y-42330D01*
X-50536Y-42407D01*
X-50399Y-42481D01*
X-50259Y-42551D01*
X-50118Y-42618D01*
X-49976Y-42681D01*
X-49832Y-42741D01*
X-49686Y-42797D01*
X-49539Y-42849D01*
X-49391Y-42898D01*
X-49242Y-42943D01*
X-49091Y-42984D01*
X-48940Y-43021D01*
X-48787Y-43054D01*
X-48634Y-43084D01*
X-48480Y-43109D01*
X-48326Y-43131D01*
X-48171Y-43148D01*
X-48015Y-43162D01*
X-47860Y-43172D01*
X-47704Y-43178D01*
X-47548Y-43180D01*
X-40888Y-36520D02*
X-54208Y-19868D01*
X-73371Y-13208D02*
X-73552Y-13210D01*
X-73733Y-13217D01*
X-73914Y-13228D01*
X-74094Y-13243D01*
X-74274Y-13263D01*
X-74454Y-13287D01*
X-74632Y-13315D01*
X-74811Y-13348D01*
X-74988Y-13385D01*
X-75164Y-13426D01*
X-75339Y-13471D01*
X-75514Y-13521D01*
X-75686Y-13575D01*
X-75858Y-13633D01*
X-76028Y-13695D01*
X-76197Y-13761D01*
X-76363Y-13831D01*
X-76529Y-13906D01*
X-76692Y-13984D01*
X-76853Y-14066D01*
X-77012Y-14152D01*
X-77170Y-14242D01*
X-77325Y-14336D01*
X-77477Y-14433D01*
X-77628Y-14534D01*
X-77775Y-14639D01*
X-77920Y-14747D01*
X-78063Y-14859D01*
X-78203Y-14974D01*
X-78340Y-15092D01*
X-78474Y-15214D01*
X-78605Y-15339D01*
X-78733Y-15467D01*
X-78858Y-15598D01*
X-78980Y-15732D01*
X-79098Y-15869D01*
X-79213Y-16009D01*
X-79325Y-16152D01*
X-79433Y-16297D01*
X-79538Y-16444D01*
X-79639Y-16595D01*
X-79736Y-16747D01*
X-79830Y-16902D01*
X-79920Y-17060D01*
X-80006Y-17219D01*
X-80088Y-17380D01*
X-80166Y-17543D01*
X-80241Y-17709D01*
X-80311Y-17875D01*
X-80377Y-18044D01*
X-80439Y-18214D01*
X-80497Y-18386D01*
X-80551Y-18558D01*
X-80601Y-18733D01*
X-80646Y-18908D01*
X-80687Y-19084D01*
X-80724Y-19261D01*
X-80757Y-19440D01*
X-80785Y-19618D01*
X-80809Y-19798D01*
X-80829Y-19978D01*
X-80844Y-20158D01*
X-80855Y-20339D01*
X-80862Y-20520D01*
X-80864Y-20701D01*
X-73371Y-13208D02*
X-73138Y-13211D01*
X-72906Y-13219D01*
X-72673Y-13233D01*
X-72441Y-13253D01*
X-72210Y-13278D01*
X-71979Y-13309D01*
X-71749Y-13346D01*
X-71520Y-13388D01*
X-71292Y-13435D01*
X-71066Y-13488D01*
X-70840Y-13547D01*
X-70616Y-13611D01*
X-70394Y-13680D01*
X-70174Y-13755D01*
X-69955Y-13834D01*
X-69738Y-13920D01*
X-69524Y-14010D01*
X-69312Y-14106D01*
X-69102Y-14206D01*
X-68894Y-14312D01*
X-68690Y-14423D01*
X-68488Y-14539D01*
X-68288Y-14659D01*
X-68092Y-14784D01*
X-67899Y-14914D01*
X-67709Y-15049D01*
X-67523Y-15188D01*
X-67339Y-15332D01*
X-67160Y-15480D01*
X-66984Y-15632D01*
X-66812Y-15789D01*
X-66643Y-15950D01*
X-66479Y-16114D01*
X-66318Y-16283D01*
X-66162Y-16455D01*
X-66010Y-16632D01*
X-65862Y-16811D01*
X-65718Y-16995D01*
X-65579Y-17182D01*
X-65445Y-17372D01*
X-65315Y-17565D01*
X-65190Y-17761D01*
X-65070Y-17961D01*
X-64954Y-18163D01*
X-64844Y-18368D01*
X-64738Y-18575D01*
X-64638Y-18785D01*
X-64543Y-18998D01*
X-64452Y-19212D01*
X-64367Y-19429D01*
X-64288Y-19648D01*
X-64213Y-19868D01*
X-78366Y-26529D02*
X-78508Y-26391D01*
X-78646Y-26250D01*
X-78780Y-26105D01*
X-78911Y-25957D01*
X-79038Y-25806D01*
X-79161Y-25652D01*
X-79281Y-25494D01*
X-79396Y-25334D01*
X-79508Y-25171D01*
X-79616Y-25006D01*
X-79719Y-24838D01*
X-79819Y-24667D01*
X-79914Y-24494D01*
X-80005Y-24319D01*
X-80092Y-24141D01*
X-80174Y-23962D01*
X-80252Y-23780D01*
X-80325Y-23597D01*
X-80394Y-23412D01*
X-80458Y-23225D01*
X-80518Y-23037D01*
X-80573Y-22847D01*
X-80623Y-22656D01*
X-80669Y-22464D01*
X-80709Y-22271D01*
X-80746Y-22077D01*
X-80777Y-21882D01*
X-80803Y-21686D01*
X-80825Y-21490D01*
X-80842Y-21293D01*
X-80854Y-21096D01*
X-80862Y-20898D01*
X-80864Y-20701D01*
X-78367Y-26529D02*
X-64213Y-43180D01*
X-80864Y-43180D01*
X-89204Y-43180D02*
X-97529Y-43180D01*
X-97732Y-43178D01*
X-97934Y-43170D01*
X-98137Y-43158D01*
X-98339Y-43141D01*
X-98540Y-43118D01*
X-98741Y-43091D01*
X-98942Y-43059D01*
X-99141Y-43022D01*
X-99339Y-42981D01*
X-99537Y-42934D01*
X-99733Y-42883D01*
X-99928Y-42827D01*
X-100121Y-42766D01*
X-100313Y-42701D01*
X-100503Y-42631D01*
X-100692Y-42556D01*
X-100878Y-42477D01*
X-101063Y-42393D01*
X-101246Y-42304D01*
X-101426Y-42212D01*
X-101604Y-42115D01*
X-101779Y-42013D01*
X-101953Y-41908D01*
X-102123Y-41798D01*
X-102291Y-41684D01*
X-102456Y-41566D01*
X-102618Y-41444D01*
X-102777Y-41318D01*
X-102932Y-41188D01*
X-103085Y-41055D01*
X-103234Y-40918D01*
X-103380Y-40777D01*
X-103523Y-40633D01*
X-103662Y-40485D01*
X-103797Y-40334D01*
X-103929Y-40180D01*
X-104057Y-40022D01*
X-104180Y-39862D01*
X-104300Y-39699D01*
X-104416Y-39532D01*
X-104528Y-39363D01*
X-104636Y-39191D01*
X-104740Y-39017D01*
X-104839Y-38840D01*
X-104934Y-38661D01*
X-105024Y-38480D01*
X-105110Y-38296D01*
X-105192Y-38110D01*
X-105269Y-37923D01*
X-105341Y-37733D01*
X-105409Y-37542D01*
X-105472Y-37350D01*
X-105531Y-37155D01*
X-105584Y-36960D01*
X-105633Y-36763D01*
X-105677Y-36565D01*
X-105717Y-36366D01*
X-105751Y-36166D01*
X-105780Y-35966D01*
X-105805Y-35765D01*
X-105825Y-35563D01*
X-105840Y-35361D01*
X-105849Y-35158D01*
X-105854Y-34955D01*
X-105854Y-34753D01*
X-105849Y-34550D01*
X-105840Y-34347D01*
X-105825Y-34145D01*
X-105805Y-33943D01*
X-105780Y-33742D01*
X-105751Y-33542D01*
X-105717Y-33342D01*
X-105677Y-33143D01*
X-105633Y-32945D01*
X-105584Y-32748D01*
X-105531Y-32553D01*
X-105472Y-32358D01*
X-105409Y-32166D01*
X-105341Y-31975D01*
X-105269Y-31785D01*
X-105192Y-31598D01*
X-105110Y-31412D01*
X-105024Y-31228D01*
X-104934Y-31047D01*
X-104839Y-30868D01*
X-104740Y-30691D01*
X-104636Y-30517D01*
X-104528Y-30345D01*
X-104416Y-30176D01*
X-104300Y-30009D01*
X-104180Y-29846D01*
X-104057Y-29686D01*
X-103929Y-29528D01*
X-103797Y-29374D01*
X-103662Y-29223D01*
X-103523Y-29075D01*
X-103380Y-28931D01*
X-103234Y-28790D01*
X-103085Y-28653D01*
X-102932Y-28520D01*
X-102777Y-28390D01*
X-102618Y-28264D01*
X-102456Y-28142D01*
X-102291Y-28024D01*
X-102123Y-27910D01*
X-101953Y-27800D01*
X-101779Y-27695D01*
X-101604Y-27593D01*
X-101426Y-27496D01*
X-101246Y-27404D01*
X-101063Y-27315D01*
X-100878Y-27231D01*
X-100692Y-27152D01*
X-100503Y-27077D01*
X-100313Y-27007D01*
X-100121Y-26942D01*
X-99928Y-26881D01*
X-99733Y-26825D01*
X-99537Y-26774D01*
X-99339Y-26727D01*
X-99141Y-26686D01*
X-98942Y-26649D01*
X-98741Y-26617D01*
X-98540Y-26590D01*
X-98339Y-26567D01*
X-98137Y-26550D01*
X-97934Y-26538D01*
X-97732Y-26530D01*
X-97529Y-26528D01*
X-99194Y-13208D02*
X-89204Y-13208D01*
X-99194Y-13208D02*
X-99356Y-13210D01*
X-99518Y-13216D01*
X-99680Y-13226D01*
X-99842Y-13240D01*
X-100003Y-13257D01*
X-100164Y-13279D01*
X-100324Y-13305D01*
X-100483Y-13334D01*
X-100642Y-13367D01*
X-100800Y-13405D01*
X-100957Y-13446D01*
X-101113Y-13490D01*
X-101267Y-13539D01*
X-101421Y-13591D01*
X-101573Y-13647D01*
X-101724Y-13707D01*
X-101873Y-13771D01*
X-102021Y-13838D01*
X-102167Y-13908D01*
X-102311Y-13983D01*
X-102454Y-14060D01*
X-102594Y-14141D01*
X-102732Y-14226D01*
X-102869Y-14314D01*
X-103003Y-14405D01*
X-103135Y-14499D01*
X-103264Y-14597D01*
X-103392Y-14697D01*
X-103516Y-14801D01*
X-103638Y-14908D01*
X-103758Y-15018D01*
X-103875Y-15130D01*
X-103989Y-15245D01*
X-104100Y-15364D01*
X-104208Y-15484D01*
X-104313Y-15608D01*
X-104415Y-15734D01*
X-104515Y-15862D01*
X-104611Y-15993D01*
X-104703Y-16126D01*
X-104793Y-16261D01*
X-104879Y-16399D01*
X-104962Y-16538D01*
X-105041Y-16679D01*
X-105117Y-16823D01*
X-105189Y-16968D01*
X-105258Y-17115D01*
X-105324Y-17263D01*
X-105385Y-17413D01*
X-105443Y-17565D01*
X-105497Y-17718D01*
X-105548Y-17872D01*
X-105595Y-18027D01*
X-105637Y-18183D01*
X-105677Y-18341D01*
X-105712Y-18499D01*
X-105743Y-18658D01*
X-105771Y-18818D01*
X-105794Y-18979D01*
X-105814Y-19140D01*
X-105830Y-19301D01*
X-105842Y-19463D01*
X-105850Y-19625D01*
X-105854Y-19787D01*
X-105854Y-19949D01*
X-105850Y-20111D01*
X-105842Y-20273D01*
X-105830Y-20435D01*
X-105814Y-20596D01*
X-105794Y-20757D01*
X-105771Y-20918D01*
X-105743Y-21078D01*
X-105712Y-21237D01*
X-105677Y-21395D01*
X-105637Y-21553D01*
X-105595Y-21709D01*
X-105548Y-21864D01*
X-105497Y-22018D01*
X-105443Y-22171D01*
X-105385Y-22323D01*
X-105324Y-22473D01*
X-105258Y-22621D01*
X-105189Y-22768D01*
X-105117Y-22913D01*
X-105041Y-23057D01*
X-104962Y-23198D01*
X-104879Y-23337D01*
X-104793Y-23475D01*
X-104703Y-23610D01*
X-104611Y-23743D01*
X-104515Y-23874D01*
X-104415Y-24002D01*
X-104313Y-24128D01*
X-104208Y-24252D01*
X-104100Y-24372D01*
X-103989Y-24491D01*
X-103875Y-24606D01*
X-103758Y-24718D01*
X-103638Y-24828D01*
X-103516Y-24935D01*
X-103392Y-25039D01*
X-103264Y-25139D01*
X-103135Y-25237D01*
X-103003Y-25331D01*
X-102869Y-25422D01*
X-102732Y-25510D01*
X-102594Y-25595D01*
X-102454Y-25676D01*
X-102311Y-25753D01*
X-102167Y-25828D01*
X-102021Y-25898D01*
X-101873Y-25965D01*
X-101724Y-26029D01*
X-101573Y-26089D01*
X-101421Y-26145D01*
X-101267Y-26197D01*
X-101113Y-26246D01*
X-100957Y-26290D01*
X-100800Y-26331D01*
X-100642Y-26369D01*
X-100483Y-26402D01*
X-100324Y-26431D01*
X-100164Y-26457D01*
X-100003Y-26479D01*
X-99842Y-26496D01*
X-99680Y-26510D01*
X-99518Y-26520D01*
X-99356Y-26526D01*
X-99194Y-26528D01*
X-99194Y-26529D02*
X-92534Y-26529D01*
D12*
X268732Y24384D03*
D13*
X257556Y24384D03*
D12*
X238252Y24384D03*
D13*
X225044Y24384D03*
D14*
X208788Y24384D03*
D13*
X198628Y24384D03*
D12*
X189484Y24384D03*
X179324Y24384D03*
D13*
X166116Y24384D03*
X157988Y24384D03*
D14*
X143764Y24384D03*
D12*
X122428Y24384D03*
D14*
X111252Y24384D03*
D13*
X105156Y24384D03*
D14*
X88900Y24384D03*
D12*
X75692Y24384D03*
D13*
X68580Y24384D03*
D14*
X60452Y24384D03*
X44196Y24384D03*
D13*
X32004Y24384D03*
D12*
X22860Y24384D03*
D13*
X1524Y24384D03*
D14*
X-8636Y24384D03*
D13*
X-20828Y24384D03*
D12*
X-38100Y24384D03*
X-52324Y24384D03*
D13*
X-65532Y24384D03*
X-79756Y24384D03*
D12*
X-92964Y24384D03*
D14*
X-100076Y24384D03*
D13*
X-116332Y24384D03*
X-136652Y24384D03*
D12*
X-145796Y24384D03*
D13*
X-154940Y24384D03*
D12*
X-172212Y24384D03*
X-186436Y24384D03*
D13*
X-207772Y24384D03*
D12*
X-214884Y24384D03*
D13*
X-221996Y24384D03*
X-230124Y24384D03*
D12*
X-245364Y24384D03*
D14*
X-256540Y24384D03*
D12*
X-267716Y24384D03*
X268732Y25400D03*
D13*
X257556Y25400D03*
D12*
X238252Y25400D03*
D13*
X225044Y25400D03*
D14*
X208788Y25400D03*
D13*
X198628Y25400D03*
D12*
X189484Y25400D03*
X179324Y25400D03*
D13*
X166116Y25400D03*
X157988Y25400D03*
D14*
X143764Y25400D03*
D12*
X122428Y25400D03*
D14*
X111252Y25400D03*
D13*
X105156Y25400D03*
D14*
X88900Y25400D03*
D12*
X75692Y25400D03*
D13*
X68580Y25400D03*
D14*
X60452Y25400D03*
X44196Y25400D03*
D13*
X32004Y25400D03*
D12*
X22860Y25400D03*
D13*
X1524Y25400D03*
D14*
X-8636Y25400D03*
D13*
X-20828Y25400D03*
D12*
X-38100Y25400D03*
X-52324Y25400D03*
D13*
X-65532Y25400D03*
X-79756Y25400D03*
D12*
X-92964Y25400D03*
D14*
X-100076Y25400D03*
D13*
X-116332Y25400D03*
X-136652Y25400D03*
D12*
X-145796Y25400D03*
D13*
X-154940Y25400D03*
D12*
X-172212Y25400D03*
X-186436Y25400D03*
D13*
X-207772Y25400D03*
D12*
X-214884Y25400D03*
D13*
X-221996Y25400D03*
X-230124Y25400D03*
D12*
X-245364Y25400D03*
D14*
X-256540Y25400D03*
D12*
X-267716Y25400D03*
X268732Y26416D03*
D13*
X257556Y26416D03*
D12*
X238252Y26416D03*
D13*
X225044Y26416D03*
D14*
X208788Y26416D03*
D13*
X198628Y26416D03*
D12*
X189484Y26416D03*
X179324Y26416D03*
D13*
X166116Y26416D03*
X157988Y26416D03*
D14*
X143764Y26416D03*
D12*
X122428Y26416D03*
D14*
X111252Y26416D03*
D13*
X105156Y26416D03*
D14*
X88900Y26416D03*
D12*
X75692Y26416D03*
D13*
X68580Y26416D03*
D14*
X60452Y26416D03*
X44196Y26416D03*
D13*
X32004Y26416D03*
D12*
X22860Y26416D03*
D13*
X1524Y26416D03*
D14*
X-8636Y26416D03*
D13*
X-20828Y26416D03*
D12*
X-38100Y26416D03*
X-52324Y26416D03*
D13*
X-65532Y26416D03*
X-79756Y26416D03*
D12*
X-92964Y26416D03*
D14*
X-100076Y26416D03*
D13*
X-116332Y26416D03*
X-136652Y26416D03*
D12*
X-145796Y26416D03*
D13*
X-154940Y26416D03*
D12*
X-172212Y26416D03*
X-186436Y26416D03*
D13*
X-207772Y26416D03*
D12*
X-214884Y26416D03*
D13*
X-221996Y26416D03*
X-230124Y26416D03*
D12*
X-245364Y26416D03*
D14*
X-256540Y26416D03*
D12*
X-267716Y26416D03*
X268732Y27432D03*
D13*
X257556Y27432D03*
D12*
X238252Y27432D03*
D13*
X225044Y27432D03*
D14*
X208788Y27432D03*
D13*
X198628Y27432D03*
D12*
X189484Y27432D03*
X179324Y27432D03*
D13*
X166116Y27432D03*
X157988Y27432D03*
D14*
X143764Y27432D03*
D12*
X122428Y27432D03*
D14*
X111252Y27432D03*
D13*
X105156Y27432D03*
D14*
X88900Y27432D03*
D12*
X75692Y27432D03*
D13*
X68580Y27432D03*
D14*
X60452Y27432D03*
X44196Y27432D03*
D13*
X32004Y27432D03*
D12*
X22860Y27432D03*
D13*
X1524Y27432D03*
D14*
X-8636Y27432D03*
D13*
X-20828Y27432D03*
D12*
X-38100Y27432D03*
X-52324Y27432D03*
D13*
X-65532Y27432D03*
X-79756Y27432D03*
D12*
X-92964Y27432D03*
D14*
X-100076Y27432D03*
D13*
X-116332Y27432D03*
X-136652Y27432D03*
D12*
X-145796Y27432D03*
D13*
X-154940Y27432D03*
D12*
X-172212Y27432D03*
X-186436Y27432D03*
D13*
X-207772Y27432D03*
D12*
X-214884Y27432D03*
D13*
X-221996Y27432D03*
X-230124Y27432D03*
D12*
X-245364Y27432D03*
D14*
X-256540Y27432D03*
D12*
X-267716Y27432D03*
X268732Y28448D03*
D13*
X257556Y28448D03*
D12*
X238252Y28448D03*
D13*
X225044Y28448D03*
D14*
X208788Y28448D03*
D13*
X198628Y28448D03*
D12*
X189484Y28448D03*
X179324Y28448D03*
D13*
X166116Y28448D03*
X157988Y28448D03*
D14*
X143764Y28448D03*
D12*
X122428Y28448D03*
D14*
X111252Y28448D03*
D13*
X105156Y28448D03*
D14*
X88900Y28448D03*
D12*
X75692Y28448D03*
D13*
X68580Y28448D03*
D14*
X60452Y28448D03*
X44196Y28448D03*
D13*
X32004Y28448D03*
D12*
X22860Y28448D03*
D13*
X1524Y28448D03*
D14*
X-8636Y28448D03*
D13*
X-20828Y28448D03*
D12*
X-38100Y28448D03*
X-52324Y28448D03*
D13*
X-65532Y28448D03*
X-79756Y28448D03*
D12*
X-92964Y28448D03*
D14*
X-100076Y28448D03*
D13*
X-116332Y28448D03*
X-136652Y28448D03*
D12*
X-145796Y28448D03*
D13*
X-154940Y28448D03*
D12*
X-172212Y28448D03*
X-186436Y28448D03*
D13*
X-207772Y28448D03*
D12*
X-214884Y28448D03*
D13*
X-221996Y28448D03*
X-230124Y28448D03*
D12*
X-245364Y28448D03*
D14*
X-256540Y28448D03*
D12*
X-267716Y28448D03*
X268732Y19304D03*
D13*
X257556Y19304D03*
D12*
X238252Y19304D03*
D13*
X225044Y19304D03*
D14*
X208788Y19304D03*
D13*
X198628Y19304D03*
D12*
X189484Y19304D03*
X179324Y19304D03*
D13*
X166116Y19304D03*
X157988Y19304D03*
D14*
X143764Y19304D03*
D12*
X122428Y19304D03*
D14*
X111252Y19304D03*
D13*
X105156Y19304D03*
D14*
X88900Y19304D03*
D12*
X75692Y19304D03*
D13*
X68580Y19304D03*
D14*
X60452Y19304D03*
X44196Y19304D03*
D13*
X32004Y19304D03*
D12*
X22860Y19304D03*
D13*
X1524Y19304D03*
D14*
X-8636Y19304D03*
D13*
X-20828Y19304D03*
D12*
X-38100Y19304D03*
X-52324Y19304D03*
D13*
X-65532Y19304D03*
X-79756Y19304D03*
D12*
X-92964Y19304D03*
D14*
X-100076Y19304D03*
D13*
X-116332Y19304D03*
X-136652Y19304D03*
D12*
X-145796Y19304D03*
D13*
X-154940Y19304D03*
D12*
X-172212Y19304D03*
X-186436Y19304D03*
D13*
X-207772Y19304D03*
D12*
X-214884Y19304D03*
D13*
X-221996Y19304D03*
X-230124Y19304D03*
D12*
X-245364Y19304D03*
D14*
X-256540Y19304D03*
D12*
X-267716Y19304D03*
X268732Y20320D03*
D13*
X257556Y20320D03*
D12*
X238252Y20320D03*
D13*
X225044Y20320D03*
D14*
X208788Y20320D03*
D13*
X198628Y20320D03*
D12*
X189484Y20320D03*
X179324Y20320D03*
D13*
X166116Y20320D03*
X157988Y20320D03*
D14*
X143764Y20320D03*
D12*
X122428Y20320D03*
D14*
X111252Y20320D03*
D13*
X105156Y20320D03*
D14*
X88900Y20320D03*
D12*
X75692Y20320D03*
D13*
X68580Y20320D03*
D14*
X60452Y20320D03*
X44196Y20320D03*
D13*
X32004Y20320D03*
D12*
X22860Y20320D03*
D13*
X1524Y20320D03*
D14*
X-8636Y20320D03*
D13*
X-20828Y20320D03*
D12*
X-38100Y20320D03*
X-52324Y20320D03*
D13*
X-65532Y20320D03*
X-79756Y20320D03*
D12*
X-92964Y20320D03*
D14*
X-100076Y20320D03*
D13*
X-116332Y20320D03*
X-136652Y20320D03*
D12*
X-145796Y20320D03*
D13*
X-154940Y20320D03*
D12*
X-172212Y20320D03*
X-186436Y20320D03*
D13*
X-207772Y20320D03*
D12*
X-214884Y20320D03*
D13*
X-221996Y20320D03*
X-230124Y20320D03*
D12*
X-245364Y20320D03*
D14*
X-256540Y20320D03*
D12*
X-267716Y20320D03*
X268732Y21336D03*
D13*
X257556Y21336D03*
D12*
X238252Y21336D03*
D13*
X225044Y21336D03*
D14*
X208788Y21336D03*
D13*
X198628Y21336D03*
D12*
X189484Y21336D03*
X179324Y21336D03*
D13*
X166116Y21336D03*
X157988Y21336D03*
D14*
X143764Y21336D03*
D12*
X122428Y21336D03*
D14*
X111252Y21336D03*
D13*
X105156Y21336D03*
D14*
X88900Y21336D03*
D12*
X75692Y21336D03*
D13*
X68580Y21336D03*
D14*
X60452Y21336D03*
X44196Y21336D03*
D13*
X32004Y21336D03*
D12*
X22860Y21336D03*
D13*
X1524Y21336D03*
D14*
X-8636Y21336D03*
D13*
X-20828Y21336D03*
D12*
X-38100Y21336D03*
X-52324Y21336D03*
D13*
X-65532Y21336D03*
X-79756Y21336D03*
D12*
X-92964Y21336D03*
D14*
X-100076Y21336D03*
D13*
X-116332Y21336D03*
X-136652Y21336D03*
D12*
X-145796Y21336D03*
D13*
X-154940Y21336D03*
D12*
X-172212Y21336D03*
X-186436Y21336D03*
D13*
X-207772Y21336D03*
D12*
X-214884Y21336D03*
D13*
X-221996Y21336D03*
X-230124Y21336D03*
D12*
X-245364Y21336D03*
D14*
X-256540Y21336D03*
D12*
X-267716Y21336D03*
X268732Y22352D03*
D13*
X257556Y22352D03*
D12*
X238252Y22352D03*
D13*
X225044Y22352D03*
D14*
X208788Y22352D03*
D13*
X198628Y22352D03*
D12*
X189484Y22352D03*
X179324Y22352D03*
D13*
X166116Y22352D03*
X157988Y22352D03*
D14*
X143764Y22352D03*
D12*
X122428Y22352D03*
D14*
X111252Y22352D03*
D13*
X105156Y22352D03*
D14*
X88900Y22352D03*
D12*
X75692Y22352D03*
D13*
X68580Y22352D03*
D14*
X60452Y22352D03*
X44196Y22352D03*
D13*
X32004Y22352D03*
D12*
X22860Y22352D03*
D13*
X1524Y22352D03*
D14*
X-8636Y22352D03*
D13*
X-20828Y22352D03*
D12*
X-38100Y22352D03*
X-52324Y22352D03*
D13*
X-65532Y22352D03*
X-79756Y22352D03*
D12*
X-92964Y22352D03*
D14*
X-100076Y22352D03*
D13*
X-116332Y22352D03*
X-136652Y22352D03*
D12*
X-145796Y22352D03*
D13*
X-154940Y22352D03*
D12*
X-172212Y22352D03*
X-186436Y22352D03*
D13*
X-207772Y22352D03*
D12*
X-214884Y22352D03*
D13*
X-221996Y22352D03*
X-230124Y22352D03*
D12*
X-245364Y22352D03*
D14*
X-256540Y22352D03*
D12*
X-267716Y22352D03*
X268732Y23368D03*
D13*
X257556Y23368D03*
D12*
X238252Y23368D03*
D13*
X225044Y23368D03*
D14*
X208788Y23368D03*
D13*
X198628Y23368D03*
D12*
X189484Y23368D03*
X179324Y23368D03*
D13*
X166116Y23368D03*
X157988Y23368D03*
D14*
X143764Y23368D03*
D12*
X122428Y23368D03*
D14*
X111252Y23368D03*
D13*
X105156Y23368D03*
D14*
X88900Y23368D03*
D12*
X75692Y23368D03*
D13*
X68580Y23368D03*
D14*
X60452Y23368D03*
X44196Y23368D03*
D13*
X32004Y23368D03*
D12*
X22860Y23368D03*
D13*
X1524Y23368D03*
D14*
X-8636Y23368D03*
D13*
X-20828Y23368D03*
D12*
X-38100Y23368D03*
X-52324Y23368D03*
D13*
X-65532Y23368D03*
X-79756Y23368D03*
D12*
X-92964Y23368D03*
D14*
X-100076Y23368D03*
D13*
X-116332Y23368D03*
X-136652Y23368D03*
D12*
X-145796Y23368D03*
D13*
X-154940Y23368D03*
D12*
X-172212Y23368D03*
X-186436Y23368D03*
D13*
X-207772Y23368D03*
D12*
X-214884Y23368D03*
D13*
X-221996Y23368D03*
X-230124Y23368D03*
D12*
X-245364Y23368D03*
D14*
X-256540Y23368D03*
D12*
X-267716Y23368D03*
X268732Y14224D03*
D13*
X257556Y14224D03*
D12*
X238252Y14224D03*
D13*
X225044Y14224D03*
D14*
X208788Y14224D03*
D13*
X198628Y14224D03*
D12*
X189484Y14224D03*
X179324Y14224D03*
D13*
X166116Y14224D03*
X157988Y14224D03*
D14*
X143764Y14224D03*
D12*
X122428Y14224D03*
D14*
X111252Y14224D03*
D13*
X105156Y14224D03*
D14*
X88900Y14224D03*
D12*
X75692Y14224D03*
D13*
X68580Y14224D03*
D14*
X60452Y14224D03*
X44196Y14224D03*
D13*
X32004Y14224D03*
D12*
X22860Y14224D03*
D13*
X1524Y14224D03*
D14*
X-8636Y14224D03*
D13*
X-20828Y14224D03*
D12*
X-38100Y14224D03*
X-52324Y14224D03*
D13*
X-65532Y14224D03*
X-79756Y14224D03*
D12*
X-92964Y14224D03*
D14*
X-100076Y14224D03*
D13*
X-116332Y14224D03*
X-136652Y14224D03*
D12*
X-145796Y14224D03*
D13*
X-154940Y14224D03*
D12*
X-172212Y14224D03*
X-186436Y14224D03*
D13*
X-207772Y14224D03*
D12*
X-214884Y14224D03*
D13*
X-221996Y14224D03*
X-230124Y14224D03*
D12*
X-245364Y14224D03*
D14*
X-256540Y14224D03*
D12*
X-267716Y14224D03*
X268732Y15240D03*
D13*
X257556Y15240D03*
D12*
X238252Y15240D03*
D13*
X225044Y15240D03*
D14*
X208788Y15240D03*
D13*
X198628Y15240D03*
D12*
X189484Y15240D03*
X179324Y15240D03*
D13*
X166116Y15240D03*
X157988Y15240D03*
D14*
X143764Y15240D03*
D12*
X122428Y15240D03*
D14*
X111252Y15240D03*
D13*
X105156Y15240D03*
D14*
X88900Y15240D03*
D12*
X75692Y15240D03*
D13*
X68580Y15240D03*
D14*
X60452Y15240D03*
X44196Y15240D03*
D13*
X32004Y15240D03*
D12*
X22860Y15240D03*
D13*
X1524Y15240D03*
D14*
X-8636Y15240D03*
D13*
X-20828Y15240D03*
D12*
X-38100Y15240D03*
X-52324Y15240D03*
D13*
X-65532Y15240D03*
X-79756Y15240D03*
D12*
X-92964Y15240D03*
D14*
X-100076Y15240D03*
D13*
X-116332Y15240D03*
X-136652Y15240D03*
D12*
X-145796Y15240D03*
D13*
X-154940Y15240D03*
D12*
X-172212Y15240D03*
X-186436Y15240D03*
D13*
X-207772Y15240D03*
D12*
X-214884Y15240D03*
D13*
X-221996Y15240D03*
X-230124Y15240D03*
D12*
X-245364Y15240D03*
D14*
X-256540Y15240D03*
D12*
X-267716Y15240D03*
X268732Y16256D03*
D13*
X257556Y16256D03*
D12*
X238252Y16256D03*
D13*
X225044Y16256D03*
D14*
X208788Y16256D03*
D13*
X198628Y16256D03*
D12*
X189484Y16256D03*
X179324Y16256D03*
D13*
X166116Y16256D03*
X157988Y16256D03*
D14*
X143764Y16256D03*
D12*
X122428Y16256D03*
D14*
X111252Y16256D03*
D13*
X105156Y16256D03*
D14*
X88900Y16256D03*
D12*
X75692Y16256D03*
D13*
X68580Y16256D03*
D14*
X60452Y16256D03*
X44196Y16256D03*
D13*
X32004Y16256D03*
D12*
X22860Y16256D03*
D13*
X1524Y16256D03*
D14*
X-8636Y16256D03*
D13*
X-20828Y16256D03*
D12*
X-38100Y16256D03*
X-52324Y16256D03*
D13*
X-65532Y16256D03*
X-79756Y16256D03*
D12*
X-92964Y16256D03*
D14*
X-100076Y16256D03*
D13*
X-116332Y16256D03*
X-136652Y16256D03*
D12*
X-145796Y16256D03*
D13*
X-154940Y16256D03*
D12*
X-172212Y16256D03*
X-186436Y16256D03*
D13*
X-207772Y16256D03*
D12*
X-214884Y16256D03*
D13*
X-221996Y16256D03*
X-230124Y16256D03*
D12*
X-245364Y16256D03*
D14*
X-256540Y16256D03*
D12*
X-267716Y16256D03*
X268732Y17272D03*
D13*
X257556Y17272D03*
D12*
X238252Y17272D03*
D13*
X225044Y17272D03*
D14*
X208788Y17272D03*
D13*
X198628Y17272D03*
D12*
X189484Y17272D03*
X179324Y17272D03*
D13*
X166116Y17272D03*
X157988Y17272D03*
D14*
X143764Y17272D03*
D12*
X122428Y17272D03*
D14*
X111252Y17272D03*
D13*
X105156Y17272D03*
D14*
X88900Y17272D03*
D12*
X75692Y17272D03*
D13*
X68580Y17272D03*
D14*
X60452Y17272D03*
X44196Y17272D03*
D13*
X32004Y17272D03*
D12*
X22860Y17272D03*
D13*
X1524Y17272D03*
D14*
X-8636Y17272D03*
D13*
X-20828Y17272D03*
D12*
X-38100Y17272D03*
X-52324Y17272D03*
D13*
X-65532Y17272D03*
X-79756Y17272D03*
D12*
X-92964Y17272D03*
D14*
X-100076Y17272D03*
D13*
X-116332Y17272D03*
X-136652Y17272D03*
D12*
X-145796Y17272D03*
D13*
X-154940Y17272D03*
D12*
X-172212Y17272D03*
X-186436Y17272D03*
D13*
X-207772Y17272D03*
D12*
X-214884Y17272D03*
D13*
X-221996Y17272D03*
X-230124Y17272D03*
D12*
X-245364Y17272D03*
D14*
X-256540Y17272D03*
D12*
X-267716Y17272D03*
X268732Y18288D03*
D13*
X257556Y18288D03*
D12*
X238252Y18288D03*
D13*
X225044Y18288D03*
D14*
X208788Y18288D03*
D13*
X198628Y18288D03*
D12*
X189484Y18288D03*
X179324Y18288D03*
D13*
X166116Y18288D03*
X157988Y18288D03*
D14*
X143764Y18288D03*
D12*
X122428Y18288D03*
D14*
X111252Y18288D03*
D13*
X105156Y18288D03*
D14*
X88900Y18288D03*
D12*
X75692Y18288D03*
D13*
X68580Y18288D03*
D14*
X60452Y18288D03*
X44196Y18288D03*
D13*
X32004Y18288D03*
D12*
X22860Y18288D03*
D13*
X1524Y18288D03*
D14*
X-8636Y18288D03*
D13*
X-20828Y18288D03*
D12*
X-38100Y18288D03*
X-52324Y18288D03*
D13*
X-65532Y18288D03*
X-79756Y18288D03*
D12*
X-92964Y18288D03*
D14*
X-100076Y18288D03*
D13*
X-116332Y18288D03*
X-136652Y18288D03*
D12*
X-145796Y18288D03*
D13*
X-154940Y18288D03*
D12*
X-172212Y18288D03*
X-186436Y18288D03*
D13*
X-207772Y18288D03*
D12*
X-214884Y18288D03*
D13*
X-221996Y18288D03*
X-230124Y18288D03*
D12*
X-245364Y18288D03*
D14*
X-256540Y18288D03*
D12*
X-267716Y18288D03*
D24*
X-164169Y-2009366D02*
X-129286Y-2009366D01*
X-146727Y-2026807D02*
X-146727Y-1991924D01*
X-8862Y-2720086D02*
X-8862Y-2754969D01*
X-26303Y-2737527D02*
X8580Y-2737527D01*
X149634Y-2029714D02*
X149634Y-1994831D01*
X132193Y-2012273D02*
X167076Y-2012273D01*
D10*
X183885Y-2715768D02*
X190094Y-2715768D01*
X183885Y-2715768D02*
X183729Y-2715766D01*
X183573Y-2715760D01*
X183417Y-2715750D01*
X183262Y-2715737D01*
X183107Y-2715719D01*
X182952Y-2715698D01*
X182798Y-2715672D01*
X182645Y-2715643D01*
X182493Y-2715610D01*
X182341Y-2715573D01*
X182190Y-2715532D01*
X182041Y-2715488D01*
X181892Y-2715440D01*
X181745Y-2715388D01*
X181599Y-2715332D01*
X181455Y-2715273D01*
X181312Y-2715210D01*
X181171Y-2715143D01*
X181031Y-2715073D01*
X180894Y-2715000D01*
X180758Y-2714923D01*
X180624Y-2714843D01*
X180492Y-2714759D01*
X180363Y-2714672D01*
X180235Y-2714582D01*
X180110Y-2714489D01*
X179988Y-2714392D01*
X179867Y-2714293D01*
X179750Y-2714191D01*
X179635Y-2714085D01*
X179522Y-2713977D01*
X179413Y-2713866D01*
X179306Y-2713752D01*
X179202Y-2713636D01*
X179101Y-2713517D01*
X179003Y-2713395D01*
X178908Y-2713271D01*
X178816Y-2713145D01*
X178728Y-2713017D01*
X178643Y-2712886D01*
X178561Y-2712753D01*
X178482Y-2712618D01*
X178407Y-2712482D01*
X178335Y-2712343D01*
X178267Y-2712203D01*
X178202Y-2712061D01*
X178141Y-2711917D01*
X178084Y-2711772D01*
X178030Y-2711625D01*
X177980Y-2711478D01*
X177934Y-2711329D01*
X177891Y-2711179D01*
X177852Y-2711027D01*
X177817Y-2710875D01*
X177786Y-2710722D01*
X177759Y-2710569D01*
X177735Y-2710415D01*
X177716Y-2710260D01*
X177700Y-2710104D01*
X177688Y-2709949D01*
X177680Y-2709793D01*
X177676Y-2709637D01*
X177676Y-2709481D01*
X177680Y-2709325D01*
X177688Y-2709169D01*
X177700Y-2709014D01*
X177716Y-2708858D01*
X177735Y-2708703D01*
X177759Y-2708549D01*
X177786Y-2708396D01*
X177817Y-2708243D01*
X177852Y-2708091D01*
X177891Y-2707939D01*
X177934Y-2707789D01*
X177980Y-2707640D01*
X178030Y-2707493D01*
X178084Y-2707346D01*
X178141Y-2707201D01*
X178202Y-2707057D01*
X178267Y-2706915D01*
X178335Y-2706775D01*
X178407Y-2706636D01*
X178482Y-2706500D01*
X178561Y-2706365D01*
X178643Y-2706232D01*
X178728Y-2706101D01*
X178816Y-2705973D01*
X178908Y-2705847D01*
X179003Y-2705723D01*
X179101Y-2705601D01*
X179202Y-2705482D01*
X179306Y-2705366D01*
X179413Y-2705252D01*
X179522Y-2705141D01*
X179635Y-2705033D01*
X179750Y-2704927D01*
X179867Y-2704825D01*
X179988Y-2704726D01*
X180110Y-2704629D01*
X180235Y-2704536D01*
X180363Y-2704446D01*
X180492Y-2704359D01*
X180624Y-2704275D01*
X180758Y-2704195D01*
X180894Y-2704118D01*
X181031Y-2704045D01*
X181171Y-2703975D01*
X181312Y-2703908D01*
X181455Y-2703845D01*
X181599Y-2703786D01*
X181745Y-2703730D01*
X181892Y-2703678D01*
X182041Y-2703630D01*
X182190Y-2703586D01*
X182341Y-2703545D01*
X182493Y-2703508D01*
X182645Y-2703475D01*
X182798Y-2703446D01*
X182952Y-2703420D01*
X183107Y-2703399D01*
X183262Y-2703381D01*
X183417Y-2703368D01*
X183573Y-2703358D01*
X183729Y-2703352D01*
X183885Y-2703350D01*
X182643Y-2693416D02*
X190094Y-2693416D01*
X182643Y-2693416D02*
X182504Y-2693418D01*
X182364Y-2693424D01*
X182226Y-2693434D01*
X182087Y-2693447D01*
X181949Y-2693465D01*
X181811Y-2693486D01*
X181674Y-2693511D01*
X181538Y-2693541D01*
X181402Y-2693573D01*
X181268Y-2693610D01*
X181135Y-2693651D01*
X181003Y-2693695D01*
X180872Y-2693743D01*
X180742Y-2693794D01*
X180614Y-2693849D01*
X180488Y-2693908D01*
X180363Y-2693970D01*
X180240Y-2694036D01*
X180119Y-2694105D01*
X180000Y-2694177D01*
X179883Y-2694253D01*
X179769Y-2694332D01*
X179656Y-2694414D01*
X179546Y-2694500D01*
X179438Y-2694588D01*
X179333Y-2694679D01*
X179231Y-2694774D01*
X179131Y-2694871D01*
X179034Y-2694971D01*
X178939Y-2695073D01*
X178848Y-2695178D01*
X178760Y-2695286D01*
X178674Y-2695396D01*
X178592Y-2695509D01*
X178513Y-2695623D01*
X178437Y-2695740D01*
X178365Y-2695859D01*
X178296Y-2695980D01*
X178230Y-2696103D01*
X178168Y-2696228D01*
X178109Y-2696354D01*
X178054Y-2696482D01*
X178003Y-2696612D01*
X177955Y-2696743D01*
X177911Y-2696875D01*
X177870Y-2697008D01*
X177833Y-2697142D01*
X177801Y-2697278D01*
X177771Y-2697414D01*
X177746Y-2697551D01*
X177725Y-2697689D01*
X177707Y-2697827D01*
X177694Y-2697966D01*
X177684Y-2698104D01*
X177678Y-2698244D01*
X177676Y-2698383D01*
X177678Y-2698522D01*
X177684Y-2698662D01*
X177694Y-2698800D01*
X177707Y-2698939D01*
X177725Y-2699077D01*
X177746Y-2699215D01*
X177771Y-2699352D01*
X177801Y-2699488D01*
X177833Y-2699624D01*
X177870Y-2699758D01*
X177911Y-2699891D01*
X177955Y-2700023D01*
X178003Y-2700154D01*
X178054Y-2700284D01*
X178109Y-2700412D01*
X178168Y-2700538D01*
X178230Y-2700663D01*
X178296Y-2700786D01*
X178365Y-2700907D01*
X178437Y-2701026D01*
X178513Y-2701143D01*
X178592Y-2701257D01*
X178674Y-2701370D01*
X178760Y-2701480D01*
X178848Y-2701588D01*
X178939Y-2701693D01*
X179034Y-2701795D01*
X179131Y-2701895D01*
X179231Y-2701992D01*
X179333Y-2702087D01*
X179438Y-2702178D01*
X179546Y-2702266D01*
X179656Y-2702352D01*
X179769Y-2702434D01*
X179883Y-2702513D01*
X180000Y-2702589D01*
X180119Y-2702661D01*
X180240Y-2702730D01*
X180363Y-2702796D01*
X180488Y-2702858D01*
X180614Y-2702917D01*
X180742Y-2702972D01*
X180872Y-2703023D01*
X181003Y-2703071D01*
X181135Y-2703115D01*
X181268Y-2703156D01*
X181402Y-2703193D01*
X181538Y-2703225D01*
X181674Y-2703255D01*
X181811Y-2703280D01*
X181949Y-2703301D01*
X182087Y-2703319D01*
X182226Y-2703332D01*
X182364Y-2703342D01*
X182504Y-2703348D01*
X182643Y-2703350D01*
X187610Y-2703350D01*
X170646Y-2715768D02*
X160711Y-2700867D01*
X170646Y-2700867D02*
X160711Y-2715768D01*
X144134Y-2715768D02*
X136683Y-2693416D01*
X129232Y-2715768D01*
X131095Y-2710180D02*
X142271Y-2710180D01*
X123904Y-2715768D02*
X116453Y-2693416D01*
X109003Y-2715768D01*
X110865Y-2710180D02*
X122041Y-2710180D01*
X103675Y-2715768D02*
X96224Y-2693416D01*
X88773Y-2715768D01*
X90636Y-2710180D02*
X101812Y-2710180D01*
X187610Y-2729992D02*
X187610Y-2752344D01*
X185127Y-2752344D02*
X190094Y-2752344D01*
X190094Y-2729992D02*
X185127Y-2729992D01*
X177068Y-2737443D02*
X177068Y-2752344D01*
X177068Y-2737443D02*
X170859Y-2737443D01*
X170737Y-2737445D01*
X170615Y-2737451D01*
X170494Y-2737461D01*
X170373Y-2737475D01*
X170252Y-2737493D01*
X170132Y-2737515D01*
X170013Y-2737540D01*
X169895Y-2737570D01*
X169778Y-2737603D01*
X169662Y-2737641D01*
X169547Y-2737682D01*
X169434Y-2737727D01*
X169322Y-2737775D01*
X169211Y-2737827D01*
X169103Y-2737883D01*
X168997Y-2737942D01*
X168892Y-2738005D01*
X168790Y-2738071D01*
X168689Y-2738140D01*
X168591Y-2738213D01*
X168496Y-2738289D01*
X168403Y-2738367D01*
X168313Y-2738449D01*
X168225Y-2738534D01*
X168140Y-2738622D01*
X168058Y-2738712D01*
X167980Y-2738805D01*
X167904Y-2738900D01*
X167831Y-2738998D01*
X167762Y-2739098D01*
X167696Y-2739201D01*
X167633Y-2739305D01*
X167574Y-2739412D01*
X167518Y-2739520D01*
X167466Y-2739631D01*
X167418Y-2739742D01*
X167373Y-2739856D01*
X167332Y-2739971D01*
X167294Y-2740087D01*
X167261Y-2740204D01*
X167231Y-2740322D01*
X167206Y-2740441D01*
X167184Y-2740561D01*
X167166Y-2740682D01*
X167152Y-2740803D01*
X167142Y-2740924D01*
X167136Y-2741046D01*
X167134Y-2741168D01*
X167134Y-2752344D01*
X158129Y-2759795D02*
X158129Y-2737443D01*
X151921Y-2737443D01*
X151799Y-2737445D01*
X151677Y-2737451D01*
X151556Y-2737461D01*
X151435Y-2737475D01*
X151314Y-2737493D01*
X151194Y-2737515D01*
X151075Y-2737540D01*
X150957Y-2737570D01*
X150840Y-2737603D01*
X150724Y-2737641D01*
X150609Y-2737682D01*
X150496Y-2737727D01*
X150384Y-2737775D01*
X150273Y-2737827D01*
X150165Y-2737883D01*
X150059Y-2737942D01*
X149954Y-2738005D01*
X149852Y-2738071D01*
X149751Y-2738140D01*
X149653Y-2738213D01*
X149558Y-2738289D01*
X149465Y-2738367D01*
X149375Y-2738449D01*
X149287Y-2738534D01*
X149202Y-2738622D01*
X149120Y-2738712D01*
X149042Y-2738805D01*
X148966Y-2738900D01*
X148893Y-2738998D01*
X148824Y-2739098D01*
X148758Y-2739201D01*
X148695Y-2739305D01*
X148636Y-2739412D01*
X148580Y-2739520D01*
X148528Y-2739631D01*
X148480Y-2739742D01*
X148435Y-2739856D01*
X148394Y-2739971D01*
X148356Y-2740087D01*
X148323Y-2740204D01*
X148293Y-2740322D01*
X148268Y-2740441D01*
X148246Y-2740561D01*
X148228Y-2740682D01*
X148214Y-2740803D01*
X148204Y-2740924D01*
X148198Y-2741046D01*
X148196Y-2741168D01*
X148195Y-2741168D02*
X148195Y-2748619D01*
X148196Y-2748619D02*
X148198Y-2748738D01*
X148204Y-2748858D01*
X148213Y-2748977D01*
X148227Y-2749095D01*
X148244Y-2749214D01*
X148265Y-2749331D01*
X148289Y-2749448D01*
X148318Y-2749564D01*
X148350Y-2749679D01*
X148386Y-2749793D01*
X148425Y-2749905D01*
X148468Y-2750017D01*
X148515Y-2750127D01*
X148565Y-2750235D01*
X148618Y-2750342D01*
X148675Y-2750447D01*
X148736Y-2750550D01*
X148799Y-2750651D01*
X148866Y-2750750D01*
X148936Y-2750847D01*
X149009Y-2750942D01*
X149085Y-2751034D01*
X149163Y-2751123D01*
X149245Y-2751210D01*
X149330Y-2751295D01*
X149417Y-2751377D01*
X149506Y-2751455D01*
X149599Y-2751531D01*
X149693Y-2751604D01*
X149790Y-2751674D01*
X149889Y-2751741D01*
X149990Y-2751804D01*
X150093Y-2751865D01*
X150198Y-2751922D01*
X150305Y-2751975D01*
X150413Y-2752025D01*
X150523Y-2752072D01*
X150635Y-2752115D01*
X150747Y-2752154D01*
X150861Y-2752190D01*
X150976Y-2752222D01*
X151092Y-2752251D01*
X151209Y-2752275D01*
X151327Y-2752296D01*
X151445Y-2752313D01*
X151563Y-2752327D01*
X151682Y-2752336D01*
X151802Y-2752342D01*
X151921Y-2752344D01*
X158129Y-2752344D01*
X139981Y-2748619D02*
X139981Y-2737443D01*
X139981Y-2748619D02*
X139979Y-2748738D01*
X139973Y-2748858D01*
X139964Y-2748977D01*
X139950Y-2749095D01*
X139933Y-2749214D01*
X139912Y-2749331D01*
X139888Y-2749448D01*
X139859Y-2749564D01*
X139827Y-2749679D01*
X139791Y-2749793D01*
X139752Y-2749905D01*
X139709Y-2750017D01*
X139662Y-2750127D01*
X139612Y-2750235D01*
X139559Y-2750342D01*
X139502Y-2750447D01*
X139441Y-2750550D01*
X139378Y-2750651D01*
X139311Y-2750750D01*
X139241Y-2750847D01*
X139168Y-2750941D01*
X139092Y-2751034D01*
X139014Y-2751123D01*
X138932Y-2751210D01*
X138847Y-2751295D01*
X138760Y-2751377D01*
X138671Y-2751455D01*
X138578Y-2751531D01*
X138484Y-2751604D01*
X138387Y-2751674D01*
X138288Y-2751741D01*
X138187Y-2751804D01*
X138084Y-2751865D01*
X137979Y-2751922D01*
X137872Y-2751975D01*
X137764Y-2752025D01*
X137654Y-2752072D01*
X137542Y-2752115D01*
X137430Y-2752154D01*
X137316Y-2752190D01*
X137201Y-2752222D01*
X137085Y-2752251D01*
X136968Y-2752275D01*
X136851Y-2752296D01*
X136732Y-2752313D01*
X136614Y-2752327D01*
X136495Y-2752336D01*
X136375Y-2752342D01*
X136256Y-2752344D01*
X130047Y-2752344D01*
X130047Y-2737443D01*
X123325Y-2737443D02*
X115874Y-2737443D01*
X120841Y-2729992D02*
X120841Y-2748619D01*
X120839Y-2748738D01*
X120833Y-2748858D01*
X120824Y-2748977D01*
X120810Y-2749095D01*
X120793Y-2749214D01*
X120772Y-2749331D01*
X120748Y-2749448D01*
X120719Y-2749564D01*
X120687Y-2749679D01*
X120651Y-2749793D01*
X120612Y-2749905D01*
X120569Y-2750017D01*
X120522Y-2750127D01*
X120472Y-2750235D01*
X120419Y-2750342D01*
X120362Y-2750447D01*
X120301Y-2750550D01*
X120238Y-2750651D01*
X120171Y-2750750D01*
X120101Y-2750847D01*
X120028Y-2750941D01*
X119952Y-2751034D01*
X119874Y-2751123D01*
X119792Y-2751210D01*
X119707Y-2751295D01*
X119620Y-2751377D01*
X119531Y-2751455D01*
X119438Y-2751531D01*
X119344Y-2751604D01*
X119247Y-2751674D01*
X119148Y-2751741D01*
X119047Y-2751804D01*
X118944Y-2751865D01*
X118839Y-2751922D01*
X118732Y-2751975D01*
X118624Y-2752025D01*
X118514Y-2752072D01*
X118402Y-2752115D01*
X118290Y-2752154D01*
X118176Y-2752190D01*
X118061Y-2752222D01*
X117945Y-2752251D01*
X117828Y-2752275D01*
X117711Y-2752296D01*
X117592Y-2752313D01*
X117474Y-2752327D01*
X117355Y-2752336D01*
X117235Y-2752342D01*
X117116Y-2752344D01*
X115874Y-2752344D01*
X108662Y-2750481D02*
X108662Y-2749240D01*
X107420Y-2749240D01*
X107420Y-2750481D01*
X108662Y-2750481D01*
X108662Y-2740547D02*
X108662Y-2739305D01*
X107420Y-2739305D01*
X107420Y-2740547D01*
X108662Y-2740547D01*
X88626Y-2747377D02*
X83659Y-2729992D01*
X88626Y-2747377D02*
X76208Y-2747377D01*
X79934Y-2742410D02*
X79934Y-2752344D01*
X68878Y-2752344D02*
X68878Y-2751102D01*
X67636Y-2751102D01*
X67636Y-2752344D01*
X68878Y-2752344D01*
X60305Y-2752344D02*
X52854Y-2752344D01*
X52715Y-2752342D01*
X52575Y-2752336D01*
X52437Y-2752326D01*
X52298Y-2752313D01*
X52160Y-2752295D01*
X52022Y-2752274D01*
X51885Y-2752249D01*
X51749Y-2752219D01*
X51613Y-2752187D01*
X51479Y-2752150D01*
X51346Y-2752109D01*
X51214Y-2752065D01*
X51083Y-2752017D01*
X50953Y-2751966D01*
X50825Y-2751911D01*
X50699Y-2751852D01*
X50574Y-2751790D01*
X50451Y-2751724D01*
X50330Y-2751655D01*
X50211Y-2751583D01*
X50094Y-2751507D01*
X49980Y-2751428D01*
X49867Y-2751346D01*
X49757Y-2751260D01*
X49649Y-2751172D01*
X49544Y-2751081D01*
X49442Y-2750986D01*
X49342Y-2750889D01*
X49245Y-2750789D01*
X49150Y-2750687D01*
X49059Y-2750582D01*
X48971Y-2750474D01*
X48885Y-2750364D01*
X48803Y-2750251D01*
X48724Y-2750137D01*
X48648Y-2750020D01*
X48576Y-2749901D01*
X48507Y-2749780D01*
X48441Y-2749657D01*
X48379Y-2749532D01*
X48320Y-2749406D01*
X48265Y-2749278D01*
X48214Y-2749148D01*
X48166Y-2749018D01*
X48122Y-2748885D01*
X48081Y-2748752D01*
X48044Y-2748618D01*
X48012Y-2748482D01*
X47982Y-2748346D01*
X47957Y-2748209D01*
X47936Y-2748071D01*
X47918Y-2747933D01*
X47905Y-2747795D01*
X47895Y-2747656D01*
X47889Y-2747516D01*
X47887Y-2747377D01*
X47887Y-2744893D01*
X47889Y-2744754D01*
X47895Y-2744614D01*
X47905Y-2744476D01*
X47918Y-2744337D01*
X47936Y-2744199D01*
X47957Y-2744061D01*
X47982Y-2743924D01*
X48012Y-2743788D01*
X48044Y-2743652D01*
X48081Y-2743518D01*
X48122Y-2743385D01*
X48166Y-2743253D01*
X48214Y-2743122D01*
X48265Y-2742992D01*
X48320Y-2742864D01*
X48379Y-2742738D01*
X48441Y-2742613D01*
X48507Y-2742490D01*
X48576Y-2742369D01*
X48648Y-2742250D01*
X48724Y-2742133D01*
X48803Y-2742019D01*
X48885Y-2741906D01*
X48971Y-2741796D01*
X49059Y-2741688D01*
X49150Y-2741583D01*
X49245Y-2741481D01*
X49342Y-2741381D01*
X49442Y-2741284D01*
X49544Y-2741189D01*
X49649Y-2741098D01*
X49757Y-2741010D01*
X49867Y-2740924D01*
X49980Y-2740842D01*
X50094Y-2740763D01*
X50211Y-2740687D01*
X50330Y-2740615D01*
X50451Y-2740546D01*
X50574Y-2740480D01*
X50699Y-2740418D01*
X50825Y-2740359D01*
X50953Y-2740304D01*
X51083Y-2740253D01*
X51214Y-2740205D01*
X51346Y-2740161D01*
X51479Y-2740120D01*
X51613Y-2740083D01*
X51749Y-2740051D01*
X51885Y-2740021D01*
X52022Y-2739996D01*
X52160Y-2739975D01*
X52298Y-2739957D01*
X52437Y-2739944D01*
X52575Y-2739934D01*
X52715Y-2739928D01*
X52854Y-2739926D01*
X60305Y-2739926D01*
X60305Y-2729992D01*
X47887Y-2729992D01*
X41317Y-2729992D02*
X33867Y-2752344D01*
X26416Y-2729992D01*
D25*
X-259203Y-602222D02*
X-254277Y-545919D01*
X-247853Y-609779D02*
X-243352Y-610172D01*
X-230863Y-604701D02*
X-225937Y-548398D01*
X-237287Y-540841D02*
X-241788Y-540448D01*
D26*
X-208879Y-607466D02*
X-209226Y-611430D01*
X-211798Y-614201D01*
X-209226Y-611430D02*
X-207173Y-614605D01*
X-209226Y-611430D02*
X-212744Y-609791D01*
X-209226Y-611430D02*
X-205476Y-610427D01*
D25*
X-86360Y-2066163D02*
X-86360Y-2683637D01*
X-123925Y-2683637D01*
X-218440Y-2683637D02*
X-218440Y-2137455D01*
X-218440Y-2066163D02*
X-180875Y-2066163D01*
X-123925Y-2066163D02*
X-86360Y-2066163D01*
X-180875Y-2683637D02*
X-218440Y-2683637D01*
X-218440Y-2124411D02*
X-218440Y-2066163D01*
D27*
X-152400Y-2052193D02*
X-152278Y-2052191D01*
X-152156Y-2052185D01*
X-152034Y-2052175D01*
X-151913Y-2052162D01*
X-151792Y-2052144D01*
X-151672Y-2052123D01*
X-151552Y-2052097D01*
X-151434Y-2052068D01*
X-151316Y-2052036D01*
X-151199Y-2051999D01*
X-151084Y-2051959D01*
X-150970Y-2051915D01*
X-150858Y-2051867D01*
X-150747Y-2051816D01*
X-150638Y-2051761D01*
X-150530Y-2051703D01*
X-150425Y-2051641D01*
X-150322Y-2051576D01*
X-150220Y-2051508D01*
X-150121Y-2051436D01*
X-150025Y-2051362D01*
X-149930Y-2051284D01*
X-149839Y-2051203D01*
X-149749Y-2051120D01*
X-149663Y-2051034D01*
X-149580Y-2050944D01*
X-149499Y-2050853D01*
X-149421Y-2050758D01*
X-149347Y-2050662D01*
X-149275Y-2050563D01*
X-149207Y-2050461D01*
X-149142Y-2050358D01*
X-149080Y-2050253D01*
X-149022Y-2050145D01*
X-148967Y-2050036D01*
X-148916Y-2049925D01*
X-148868Y-2049813D01*
X-148824Y-2049699D01*
X-148784Y-2049584D01*
X-148747Y-2049467D01*
X-148715Y-2049349D01*
X-148686Y-2049231D01*
X-148660Y-2049111D01*
X-148639Y-2048991D01*
X-148621Y-2048870D01*
X-148608Y-2048749D01*
X-148598Y-2048627D01*
X-148592Y-2048505D01*
X-148590Y-2048383D01*
X-148592Y-2048261D01*
X-148598Y-2048139D01*
X-148608Y-2048017D01*
X-148621Y-2047896D01*
X-148639Y-2047775D01*
X-148660Y-2047655D01*
X-148686Y-2047535D01*
X-148715Y-2047417D01*
X-148747Y-2047299D01*
X-148784Y-2047182D01*
X-148824Y-2047067D01*
X-148868Y-2046953D01*
X-148916Y-2046841D01*
X-148967Y-2046730D01*
X-149022Y-2046621D01*
X-149080Y-2046513D01*
X-149142Y-2046408D01*
X-149207Y-2046305D01*
X-149275Y-2046203D01*
X-149347Y-2046104D01*
X-149421Y-2046008D01*
X-149499Y-2045913D01*
X-149580Y-2045822D01*
X-149663Y-2045732D01*
X-149749Y-2045646D01*
X-149839Y-2045563D01*
X-149930Y-2045482D01*
X-150025Y-2045404D01*
X-150121Y-2045330D01*
X-150220Y-2045258D01*
X-150322Y-2045190D01*
X-150425Y-2045125D01*
X-150530Y-2045063D01*
X-150638Y-2045005D01*
X-150747Y-2044950D01*
X-150858Y-2044899D01*
X-150970Y-2044851D01*
X-151084Y-2044807D01*
X-151199Y-2044767D01*
X-151316Y-2044730D01*
X-151434Y-2044698D01*
X-151552Y-2044669D01*
X-151672Y-2044643D01*
X-151792Y-2044622D01*
X-151913Y-2044604D01*
X-152034Y-2044591D01*
X-152156Y-2044581D01*
X-152278Y-2044575D01*
X-152400Y-2044573D01*
X-152522Y-2044575D01*
X-152644Y-2044581D01*
X-152766Y-2044591D01*
X-152887Y-2044604D01*
X-153008Y-2044622D01*
X-153128Y-2044643D01*
X-153248Y-2044669D01*
X-153366Y-2044698D01*
X-153484Y-2044730D01*
X-153601Y-2044767D01*
X-153716Y-2044807D01*
X-153830Y-2044851D01*
X-153942Y-2044899D01*
X-154053Y-2044950D01*
X-154162Y-2045005D01*
X-154270Y-2045063D01*
X-154375Y-2045125D01*
X-154478Y-2045190D01*
X-154580Y-2045258D01*
X-154679Y-2045330D01*
X-154775Y-2045404D01*
X-154870Y-2045482D01*
X-154961Y-2045563D01*
X-155051Y-2045646D01*
X-155137Y-2045732D01*
X-155220Y-2045822D01*
X-155301Y-2045913D01*
X-155379Y-2046008D01*
X-155453Y-2046104D01*
X-155525Y-2046203D01*
X-155593Y-2046305D01*
X-155658Y-2046408D01*
X-155720Y-2046513D01*
X-155778Y-2046621D01*
X-155833Y-2046730D01*
X-155884Y-2046841D01*
X-155932Y-2046953D01*
X-155976Y-2047067D01*
X-156016Y-2047182D01*
X-156053Y-2047299D01*
X-156085Y-2047417D01*
X-156114Y-2047535D01*
X-156140Y-2047655D01*
X-156161Y-2047775D01*
X-156179Y-2047896D01*
X-156192Y-2048017D01*
X-156202Y-2048139D01*
X-156208Y-2048261D01*
X-156210Y-2048383D01*
X-156208Y-2048505D01*
X-156202Y-2048627D01*
X-156192Y-2048749D01*
X-156179Y-2048870D01*
X-156161Y-2048991D01*
X-156140Y-2049111D01*
X-156114Y-2049231D01*
X-156085Y-2049349D01*
X-156053Y-2049467D01*
X-156016Y-2049584D01*
X-155976Y-2049699D01*
X-155932Y-2049813D01*
X-155884Y-2049925D01*
X-155833Y-2050036D01*
X-155778Y-2050145D01*
X-155720Y-2050253D01*
X-155658Y-2050358D01*
X-155593Y-2050461D01*
X-155525Y-2050563D01*
X-155453Y-2050662D01*
X-155379Y-2050758D01*
X-155301Y-2050853D01*
X-155220Y-2050944D01*
X-155137Y-2051034D01*
X-155051Y-2051120D01*
X-154961Y-2051203D01*
X-154870Y-2051284D01*
X-154775Y-2051362D01*
X-154679Y-2051436D01*
X-154580Y-2051508D01*
X-154478Y-2051576D01*
X-154375Y-2051641D01*
X-154270Y-2051703D01*
X-154162Y-2051761D01*
X-154053Y-2051816D01*
X-153942Y-2051867D01*
X-153830Y-2051915D01*
X-153716Y-2051959D01*
X-153601Y-2051999D01*
X-153484Y-2052036D01*
X-153366Y-2052068D01*
X-153248Y-2052097D01*
X-153128Y-2052123D01*
X-153008Y-2052144D01*
X-152887Y-2052162D01*
X-152766Y-2052175D01*
X-152644Y-2052185D01*
X-152522Y-2052191D01*
X-152400Y-2052193D01*
D26*
X-140081Y-2345803D02*
X-142734Y-2349119D01*
X-140081Y-2345803D02*
X-152019Y-2345803D01*
X-152019Y-2349119D02*
X-152019Y-2342487D01*
X-146050Y-2337689D02*
X-145815Y-2337686D01*
X-145580Y-2337678D01*
X-145346Y-2337664D01*
X-145112Y-2337644D01*
X-144878Y-2337619D01*
X-144646Y-2337588D01*
X-144414Y-2337552D01*
X-144182Y-2337510D01*
X-143952Y-2337463D01*
X-143724Y-2337410D01*
X-143496Y-2337352D01*
X-143270Y-2337288D01*
X-143046Y-2337219D01*
X-142823Y-2337145D01*
X-142602Y-2337065D01*
X-142383Y-2336980D01*
X-142166Y-2336890D01*
X-141951Y-2336795D01*
X-141739Y-2336694D01*
X-141647Y-2336661D01*
X-141556Y-2336623D01*
X-141467Y-2336582D01*
X-141379Y-2336538D01*
X-141294Y-2336490D01*
X-141210Y-2336439D01*
X-141128Y-2336384D01*
X-141049Y-2336326D01*
X-140972Y-2336265D01*
X-140898Y-2336201D01*
X-140826Y-2336134D01*
X-140757Y-2336064D01*
X-140691Y-2335992D01*
X-140627Y-2335917D01*
X-140567Y-2335839D01*
X-140510Y-2335759D01*
X-140456Y-2335677D01*
X-140406Y-2335593D01*
X-140359Y-2335507D01*
X-140315Y-2335419D01*
X-140275Y-2335329D01*
X-140238Y-2335238D01*
X-140206Y-2335145D01*
X-140177Y-2335051D01*
X-140151Y-2334957D01*
X-140130Y-2334861D01*
X-140112Y-2334764D01*
X-140099Y-2334667D01*
X-140089Y-2334569D01*
X-140083Y-2334471D01*
X-140081Y-2334373D01*
X-140083Y-2334275D01*
X-140089Y-2334177D01*
X-140099Y-2334079D01*
X-140112Y-2333982D01*
X-140130Y-2333885D01*
X-140151Y-2333789D01*
X-140177Y-2333695D01*
X-140206Y-2333601D01*
X-140238Y-2333508D01*
X-140275Y-2333417D01*
X-140315Y-2333327D01*
X-140359Y-2333239D01*
X-140406Y-2333153D01*
X-140456Y-2333069D01*
X-140510Y-2332987D01*
X-140567Y-2332907D01*
X-140627Y-2332829D01*
X-140691Y-2332754D01*
X-140757Y-2332682D01*
X-140826Y-2332612D01*
X-140898Y-2332545D01*
X-140972Y-2332481D01*
X-141049Y-2332420D01*
X-141128Y-2332362D01*
X-141210Y-2332307D01*
X-141294Y-2332256D01*
X-141379Y-2332208D01*
X-141467Y-2332164D01*
X-141556Y-2332123D01*
X-141647Y-2332085D01*
X-141739Y-2332052D01*
X-141739Y-2332051D02*
X-141951Y-2331950D01*
X-142166Y-2331855D01*
X-142383Y-2331765D01*
X-142602Y-2331680D01*
X-142823Y-2331600D01*
X-143045Y-2331526D01*
X-143270Y-2331457D01*
X-143496Y-2331393D01*
X-143724Y-2331335D01*
X-143952Y-2331282D01*
X-144182Y-2331235D01*
X-144414Y-2331193D01*
X-144646Y-2331157D01*
X-144878Y-2331126D01*
X-145112Y-2331101D01*
X-145346Y-2331081D01*
X-145580Y-2331067D01*
X-145815Y-2331059D01*
X-146050Y-2331056D01*
X-146050Y-2337689D02*
X-146285Y-2337686D01*
X-146520Y-2337678D01*
X-146754Y-2337664D01*
X-146988Y-2337644D01*
X-147222Y-2337619D01*
X-147454Y-2337588D01*
X-147686Y-2337552D01*
X-147918Y-2337510D01*
X-148148Y-2337463D01*
X-148376Y-2337410D01*
X-148604Y-2337352D01*
X-148830Y-2337288D01*
X-149054Y-2337219D01*
X-149277Y-2337145D01*
X-149498Y-2337065D01*
X-149717Y-2336980D01*
X-149934Y-2336890D01*
X-150149Y-2336795D01*
X-150361Y-2336694D01*
X-150453Y-2336661D01*
X-150544Y-2336623D01*
X-150633Y-2336582D01*
X-150721Y-2336538D01*
X-150806Y-2336490D01*
X-150890Y-2336438D01*
X-150972Y-2336384D01*
X-151051Y-2336326D01*
X-151128Y-2336265D01*
X-151202Y-2336201D01*
X-151274Y-2336134D01*
X-151343Y-2336064D01*
X-151409Y-2335992D01*
X-151473Y-2335917D01*
X-151533Y-2335839D01*
X-151590Y-2335759D01*
X-151644Y-2335677D01*
X-151694Y-2335593D01*
X-151741Y-2335507D01*
X-151785Y-2335419D01*
X-151825Y-2335329D01*
X-151862Y-2335238D01*
X-151894Y-2335145D01*
X-151923Y-2335051D01*
X-151949Y-2334957D01*
X-151970Y-2334861D01*
X-151988Y-2334764D01*
X-152001Y-2334667D01*
X-152011Y-2334569D01*
X-152017Y-2334471D01*
X-152019Y-2334373D01*
X-150361Y-2332052D02*
X-150149Y-2331951D01*
X-149934Y-2331856D01*
X-149717Y-2331766D01*
X-149498Y-2331681D01*
X-149277Y-2331601D01*
X-149055Y-2331527D01*
X-148830Y-2331458D01*
X-148604Y-2331394D01*
X-148376Y-2331336D01*
X-148148Y-2331283D01*
X-147918Y-2331236D01*
X-147686Y-2331194D01*
X-147454Y-2331158D01*
X-147222Y-2331127D01*
X-146988Y-2331102D01*
X-146754Y-2331082D01*
X-146520Y-2331068D01*
X-146285Y-2331060D01*
X-146050Y-2331057D01*
X-150361Y-2332052D02*
X-150453Y-2332085D01*
X-150544Y-2332123D01*
X-150633Y-2332164D01*
X-150721Y-2332208D01*
X-150806Y-2332256D01*
X-150890Y-2332308D01*
X-150972Y-2332362D01*
X-151051Y-2332420D01*
X-151128Y-2332481D01*
X-151202Y-2332545D01*
X-151274Y-2332612D01*
X-151343Y-2332682D01*
X-151409Y-2332754D01*
X-151473Y-2332829D01*
X-151533Y-2332907D01*
X-151590Y-2332987D01*
X-151644Y-2333069D01*
X-151694Y-2333153D01*
X-151741Y-2333239D01*
X-151785Y-2333327D01*
X-151825Y-2333417D01*
X-151862Y-2333508D01*
X-151894Y-2333601D01*
X-151923Y-2333695D01*
X-151949Y-2333789D01*
X-151970Y-2333885D01*
X-151988Y-2333982D01*
X-152001Y-2334079D01*
X-152011Y-2334177D01*
X-152017Y-2334275D01*
X-152019Y-2334373D01*
X-149366Y-2337026D02*
X-142734Y-2331720D01*
X-140081Y-2322611D02*
X-140083Y-2322504D01*
X-140089Y-2322398D01*
X-140098Y-2322292D01*
X-140111Y-2322186D01*
X-140128Y-2322081D01*
X-140149Y-2321976D01*
X-140174Y-2321873D01*
X-140202Y-2321770D01*
X-140234Y-2321668D01*
X-140269Y-2321568D01*
X-140308Y-2321469D01*
X-140351Y-2321371D01*
X-140397Y-2321275D01*
X-140446Y-2321180D01*
X-140499Y-2321088D01*
X-140555Y-2320997D01*
X-140614Y-2320909D01*
X-140676Y-2320822D01*
X-140742Y-2320738D01*
X-140810Y-2320656D01*
X-140881Y-2320577D01*
X-140955Y-2320500D01*
X-141032Y-2320426D01*
X-141111Y-2320355D01*
X-141193Y-2320287D01*
X-141277Y-2320221D01*
X-141364Y-2320159D01*
X-141452Y-2320100D01*
X-141543Y-2320044D01*
X-141635Y-2319991D01*
X-141730Y-2319942D01*
X-141826Y-2319896D01*
X-141924Y-2319853D01*
X-142023Y-2319814D01*
X-142123Y-2319779D01*
X-142225Y-2319747D01*
X-142328Y-2319719D01*
X-142431Y-2319694D01*
X-142536Y-2319673D01*
X-142641Y-2319656D01*
X-142747Y-2319643D01*
X-142853Y-2319634D01*
X-142959Y-2319628D01*
X-143066Y-2319626D01*
X-140081Y-2322611D02*
X-140083Y-2322732D01*
X-140089Y-2322852D01*
X-140098Y-2322972D01*
X-140111Y-2323092D01*
X-140128Y-2323211D01*
X-140149Y-2323330D01*
X-140173Y-2323448D01*
X-140202Y-2323565D01*
X-140233Y-2323681D01*
X-140269Y-2323797D01*
X-140308Y-2323911D01*
X-140351Y-2324023D01*
X-140397Y-2324135D01*
X-140446Y-2324245D01*
X-140500Y-2324353D01*
X-140556Y-2324459D01*
X-140616Y-2324564D01*
X-140679Y-2324667D01*
X-140745Y-2324767D01*
X-140814Y-2324866D01*
X-140887Y-2324962D01*
X-140962Y-2325056D01*
X-141040Y-2325148D01*
X-141122Y-2325237D01*
X-141206Y-2325324D01*
X-141292Y-2325408D01*
X-141381Y-2325489D01*
X-141473Y-2325567D01*
X-141567Y-2325642D01*
X-141664Y-2325714D01*
X-141762Y-2325784D01*
X-141863Y-2325850D01*
X-141966Y-2325913D01*
X-142071Y-2325972D01*
X-142177Y-2326029D01*
X-142286Y-2326082D01*
X-142395Y-2326131D01*
X-142507Y-2326177D01*
X-142620Y-2326220D01*
X-142734Y-2326258D01*
X-145388Y-2320621D02*
X-145308Y-2320541D01*
X-145226Y-2320463D01*
X-145142Y-2320389D01*
X-145054Y-2320317D01*
X-144965Y-2320249D01*
X-144872Y-2320183D01*
X-144778Y-2320121D01*
X-144682Y-2320063D01*
X-144583Y-2320008D01*
X-144483Y-2319956D01*
X-144381Y-2319908D01*
X-144277Y-2319863D01*
X-144172Y-2319823D01*
X-144065Y-2319786D01*
X-143957Y-2319752D01*
X-143848Y-2319723D01*
X-143738Y-2319697D01*
X-143627Y-2319676D01*
X-143516Y-2319658D01*
X-143404Y-2319644D01*
X-143292Y-2319634D01*
X-143179Y-2319628D01*
X-143066Y-2319626D01*
X-145387Y-2320622D02*
X-152019Y-2326259D01*
X-152019Y-2319627D01*
X-146050Y-2314829D02*
X-145815Y-2314826D01*
X-145580Y-2314818D01*
X-145346Y-2314804D01*
X-145112Y-2314784D01*
X-144878Y-2314759D01*
X-144646Y-2314728D01*
X-144414Y-2314692D01*
X-144182Y-2314650D01*
X-143952Y-2314603D01*
X-143724Y-2314550D01*
X-143496Y-2314492D01*
X-143270Y-2314428D01*
X-143046Y-2314359D01*
X-142823Y-2314285D01*
X-142602Y-2314205D01*
X-142383Y-2314120D01*
X-142166Y-2314030D01*
X-141951Y-2313935D01*
X-141739Y-2313834D01*
X-141647Y-2313801D01*
X-141556Y-2313763D01*
X-141467Y-2313722D01*
X-141379Y-2313678D01*
X-141294Y-2313630D01*
X-141210Y-2313579D01*
X-141128Y-2313524D01*
X-141049Y-2313466D01*
X-140972Y-2313405D01*
X-140898Y-2313341D01*
X-140826Y-2313274D01*
X-140757Y-2313204D01*
X-140691Y-2313132D01*
X-140627Y-2313057D01*
X-140567Y-2312979D01*
X-140510Y-2312899D01*
X-140456Y-2312817D01*
X-140406Y-2312733D01*
X-140359Y-2312647D01*
X-140315Y-2312559D01*
X-140275Y-2312469D01*
X-140238Y-2312378D01*
X-140206Y-2312285D01*
X-140177Y-2312191D01*
X-140151Y-2312097D01*
X-140130Y-2312001D01*
X-140112Y-2311904D01*
X-140099Y-2311807D01*
X-140089Y-2311709D01*
X-140083Y-2311611D01*
X-140081Y-2311513D01*
X-140083Y-2311415D01*
X-140089Y-2311317D01*
X-140099Y-2311219D01*
X-140112Y-2311122D01*
X-140130Y-2311025D01*
X-140151Y-2310929D01*
X-140177Y-2310835D01*
X-140206Y-2310741D01*
X-140238Y-2310648D01*
X-140275Y-2310557D01*
X-140315Y-2310467D01*
X-140359Y-2310379D01*
X-140406Y-2310293D01*
X-140456Y-2310209D01*
X-140510Y-2310127D01*
X-140567Y-2310047D01*
X-140627Y-2309969D01*
X-140691Y-2309894D01*
X-140757Y-2309822D01*
X-140826Y-2309752D01*
X-140898Y-2309685D01*
X-140972Y-2309621D01*
X-141049Y-2309560D01*
X-141128Y-2309502D01*
X-141210Y-2309447D01*
X-141294Y-2309396D01*
X-141379Y-2309348D01*
X-141467Y-2309304D01*
X-141556Y-2309263D01*
X-141647Y-2309225D01*
X-141739Y-2309192D01*
X-141951Y-2309091D01*
X-142166Y-2308996D01*
X-142383Y-2308906D01*
X-142602Y-2308821D01*
X-142823Y-2308741D01*
X-143045Y-2308667D01*
X-143270Y-2308598D01*
X-143496Y-2308534D01*
X-143724Y-2308476D01*
X-143952Y-2308423D01*
X-144182Y-2308376D01*
X-144414Y-2308334D01*
X-144646Y-2308298D01*
X-144878Y-2308267D01*
X-145112Y-2308242D01*
X-145346Y-2308222D01*
X-145580Y-2308208D01*
X-145815Y-2308200D01*
X-146050Y-2308197D01*
X-146050Y-2314829D02*
X-146285Y-2314826D01*
X-146520Y-2314818D01*
X-146754Y-2314804D01*
X-146988Y-2314784D01*
X-147222Y-2314759D01*
X-147454Y-2314728D01*
X-147686Y-2314692D01*
X-147918Y-2314650D01*
X-148148Y-2314603D01*
X-148376Y-2314550D01*
X-148604Y-2314492D01*
X-148830Y-2314428D01*
X-149054Y-2314359D01*
X-149277Y-2314285D01*
X-149498Y-2314205D01*
X-149717Y-2314120D01*
X-149934Y-2314030D01*
X-150149Y-2313935D01*
X-150361Y-2313834D01*
X-150453Y-2313801D01*
X-150544Y-2313763D01*
X-150633Y-2313722D01*
X-150721Y-2313678D01*
X-150806Y-2313630D01*
X-150890Y-2313578D01*
X-150972Y-2313524D01*
X-151051Y-2313466D01*
X-151128Y-2313405D01*
X-151202Y-2313341D01*
X-151274Y-2313274D01*
X-151343Y-2313204D01*
X-151409Y-2313132D01*
X-151473Y-2313057D01*
X-151533Y-2312979D01*
X-151590Y-2312899D01*
X-151644Y-2312817D01*
X-151694Y-2312733D01*
X-151741Y-2312647D01*
X-151785Y-2312559D01*
X-151825Y-2312469D01*
X-151862Y-2312378D01*
X-151894Y-2312285D01*
X-151923Y-2312191D01*
X-151949Y-2312097D01*
X-151970Y-2312001D01*
X-151988Y-2311904D01*
X-152001Y-2311807D01*
X-152011Y-2311709D01*
X-152017Y-2311611D01*
X-152019Y-2311513D01*
X-150361Y-2309192D02*
X-150149Y-2309091D01*
X-149934Y-2308996D01*
X-149717Y-2308906D01*
X-149498Y-2308821D01*
X-149277Y-2308741D01*
X-149055Y-2308667D01*
X-148830Y-2308598D01*
X-148604Y-2308534D01*
X-148376Y-2308476D01*
X-148148Y-2308423D01*
X-147918Y-2308376D01*
X-147686Y-2308334D01*
X-147454Y-2308298D01*
X-147222Y-2308267D01*
X-146988Y-2308242D01*
X-146754Y-2308222D01*
X-146520Y-2308208D01*
X-146285Y-2308200D01*
X-146050Y-2308197D01*
X-150361Y-2309192D02*
X-150453Y-2309225D01*
X-150544Y-2309263D01*
X-150633Y-2309304D01*
X-150721Y-2309348D01*
X-150806Y-2309396D01*
X-150890Y-2309448D01*
X-150972Y-2309502D01*
X-151051Y-2309560D01*
X-151128Y-2309621D01*
X-151202Y-2309685D01*
X-151274Y-2309752D01*
X-151343Y-2309822D01*
X-151409Y-2309894D01*
X-151473Y-2309969D01*
X-151533Y-2310047D01*
X-151590Y-2310127D01*
X-151644Y-2310209D01*
X-151694Y-2310293D01*
X-151741Y-2310379D01*
X-151785Y-2310467D01*
X-151825Y-2310557D01*
X-151862Y-2310648D01*
X-151894Y-2310741D01*
X-151923Y-2310835D01*
X-151949Y-2310929D01*
X-151970Y-2311025D01*
X-151988Y-2311122D01*
X-152001Y-2311219D01*
X-152011Y-2311317D01*
X-152017Y-2311415D01*
X-152019Y-2311513D01*
X-149366Y-2314166D02*
X-142734Y-2308860D01*
X-142734Y-2303399D02*
X-140081Y-2300083D01*
X-152019Y-2300083D01*
X-152019Y-2303399D02*
X-152019Y-2296767D01*
X-146050Y-2291969D02*
X-145815Y-2291966D01*
X-145580Y-2291958D01*
X-145346Y-2291944D01*
X-145112Y-2291924D01*
X-144878Y-2291899D01*
X-144646Y-2291868D01*
X-144414Y-2291832D01*
X-144182Y-2291790D01*
X-143952Y-2291743D01*
X-143724Y-2291690D01*
X-143496Y-2291632D01*
X-143270Y-2291568D01*
X-143046Y-2291499D01*
X-142823Y-2291425D01*
X-142602Y-2291345D01*
X-142383Y-2291260D01*
X-142166Y-2291170D01*
X-141951Y-2291075D01*
X-141739Y-2290974D01*
X-141647Y-2290941D01*
X-141556Y-2290903D01*
X-141467Y-2290862D01*
X-141379Y-2290818D01*
X-141294Y-2290770D01*
X-141210Y-2290719D01*
X-141128Y-2290664D01*
X-141049Y-2290606D01*
X-140972Y-2290545D01*
X-140898Y-2290481D01*
X-140826Y-2290414D01*
X-140757Y-2290344D01*
X-140691Y-2290272D01*
X-140627Y-2290197D01*
X-140567Y-2290119D01*
X-140510Y-2290039D01*
X-140456Y-2289957D01*
X-140406Y-2289873D01*
X-140359Y-2289787D01*
X-140315Y-2289699D01*
X-140275Y-2289609D01*
X-140238Y-2289518D01*
X-140206Y-2289425D01*
X-140177Y-2289331D01*
X-140151Y-2289237D01*
X-140130Y-2289141D01*
X-140112Y-2289044D01*
X-140099Y-2288947D01*
X-140089Y-2288849D01*
X-140083Y-2288751D01*
X-140081Y-2288653D01*
X-140083Y-2288555D01*
X-140089Y-2288457D01*
X-140099Y-2288359D01*
X-140112Y-2288262D01*
X-140130Y-2288165D01*
X-140151Y-2288069D01*
X-140177Y-2287975D01*
X-140206Y-2287881D01*
X-140238Y-2287788D01*
X-140275Y-2287697D01*
X-140315Y-2287607D01*
X-140359Y-2287519D01*
X-140406Y-2287433D01*
X-140456Y-2287349D01*
X-140510Y-2287267D01*
X-140567Y-2287187D01*
X-140627Y-2287109D01*
X-140691Y-2287034D01*
X-140757Y-2286962D01*
X-140826Y-2286892D01*
X-140898Y-2286825D01*
X-140972Y-2286761D01*
X-141049Y-2286700D01*
X-141128Y-2286642D01*
X-141210Y-2286587D01*
X-141294Y-2286536D01*
X-141379Y-2286488D01*
X-141467Y-2286444D01*
X-141556Y-2286403D01*
X-141647Y-2286365D01*
X-141739Y-2286332D01*
X-141951Y-2286231D01*
X-142166Y-2286136D01*
X-142383Y-2286046D01*
X-142602Y-2285961D01*
X-142823Y-2285881D01*
X-143045Y-2285807D01*
X-143270Y-2285738D01*
X-143496Y-2285674D01*
X-143724Y-2285616D01*
X-143952Y-2285563D01*
X-144182Y-2285516D01*
X-144414Y-2285474D01*
X-144646Y-2285438D01*
X-144878Y-2285407D01*
X-145112Y-2285382D01*
X-145346Y-2285362D01*
X-145580Y-2285348D01*
X-145815Y-2285340D01*
X-146050Y-2285337D01*
X-146050Y-2291969D02*
X-146285Y-2291966D01*
X-146520Y-2291958D01*
X-146754Y-2291944D01*
X-146988Y-2291924D01*
X-147222Y-2291899D01*
X-147454Y-2291868D01*
X-147686Y-2291832D01*
X-147918Y-2291790D01*
X-148148Y-2291743D01*
X-148376Y-2291690D01*
X-148604Y-2291632D01*
X-148830Y-2291568D01*
X-149054Y-2291499D01*
X-149277Y-2291425D01*
X-149498Y-2291345D01*
X-149717Y-2291260D01*
X-149934Y-2291170D01*
X-150149Y-2291075D01*
X-150361Y-2290974D01*
X-150453Y-2290941D01*
X-150544Y-2290903D01*
X-150633Y-2290862D01*
X-150721Y-2290818D01*
X-150806Y-2290770D01*
X-150890Y-2290718D01*
X-150972Y-2290664D01*
X-151051Y-2290606D01*
X-151128Y-2290545D01*
X-151202Y-2290481D01*
X-151274Y-2290414D01*
X-151343Y-2290344D01*
X-151409Y-2290272D01*
X-151473Y-2290197D01*
X-151533Y-2290119D01*
X-151590Y-2290039D01*
X-151644Y-2289957D01*
X-151694Y-2289873D01*
X-151741Y-2289787D01*
X-151785Y-2289699D01*
X-151825Y-2289609D01*
X-151862Y-2289518D01*
X-151894Y-2289425D01*
X-151923Y-2289331D01*
X-151949Y-2289237D01*
X-151970Y-2289141D01*
X-151988Y-2289044D01*
X-152001Y-2288947D01*
X-152011Y-2288849D01*
X-152017Y-2288751D01*
X-152019Y-2288653D01*
X-150361Y-2286332D02*
X-150149Y-2286231D01*
X-149934Y-2286136D01*
X-149717Y-2286046D01*
X-149498Y-2285961D01*
X-149277Y-2285881D01*
X-149055Y-2285807D01*
X-148830Y-2285738D01*
X-148604Y-2285674D01*
X-148376Y-2285616D01*
X-148148Y-2285563D01*
X-147918Y-2285516D01*
X-147686Y-2285474D01*
X-147454Y-2285438D01*
X-147222Y-2285407D01*
X-146988Y-2285382D01*
X-146754Y-2285362D01*
X-146520Y-2285348D01*
X-146285Y-2285340D01*
X-146050Y-2285337D01*
X-150361Y-2286332D02*
X-150453Y-2286365D01*
X-150544Y-2286403D01*
X-150633Y-2286444D01*
X-150721Y-2286488D01*
X-150806Y-2286536D01*
X-150890Y-2286588D01*
X-150972Y-2286642D01*
X-151051Y-2286700D01*
X-151128Y-2286761D01*
X-151202Y-2286825D01*
X-151274Y-2286892D01*
X-151343Y-2286962D01*
X-151409Y-2287034D01*
X-151473Y-2287109D01*
X-151533Y-2287187D01*
X-151590Y-2287267D01*
X-151644Y-2287349D01*
X-151694Y-2287433D01*
X-151741Y-2287519D01*
X-151785Y-2287607D01*
X-151825Y-2287697D01*
X-151862Y-2287788D01*
X-151894Y-2287881D01*
X-151923Y-2287975D01*
X-151949Y-2288069D01*
X-151970Y-2288165D01*
X-151988Y-2288262D01*
X-152001Y-2288359D01*
X-152011Y-2288457D01*
X-152017Y-2288555D01*
X-152019Y-2288653D01*
X-149366Y-2291306D02*
X-142734Y-2286000D01*
X-140081Y-2276891D02*
X-140083Y-2276784D01*
X-140089Y-2276678D01*
X-140098Y-2276572D01*
X-140111Y-2276466D01*
X-140128Y-2276361D01*
X-140149Y-2276256D01*
X-140174Y-2276153D01*
X-140202Y-2276050D01*
X-140234Y-2275948D01*
X-140269Y-2275848D01*
X-140308Y-2275749D01*
X-140351Y-2275651D01*
X-140397Y-2275555D01*
X-140446Y-2275460D01*
X-140499Y-2275368D01*
X-140555Y-2275277D01*
X-140614Y-2275189D01*
X-140676Y-2275102D01*
X-140742Y-2275018D01*
X-140810Y-2274936D01*
X-140881Y-2274857D01*
X-140955Y-2274780D01*
X-141032Y-2274706D01*
X-141111Y-2274635D01*
X-141193Y-2274567D01*
X-141277Y-2274501D01*
X-141364Y-2274439D01*
X-141452Y-2274380D01*
X-141543Y-2274324D01*
X-141635Y-2274271D01*
X-141730Y-2274222D01*
X-141826Y-2274176D01*
X-141924Y-2274133D01*
X-142023Y-2274094D01*
X-142123Y-2274059D01*
X-142225Y-2274027D01*
X-142328Y-2273999D01*
X-142431Y-2273974D01*
X-142536Y-2273953D01*
X-142641Y-2273936D01*
X-142747Y-2273923D01*
X-142853Y-2273914D01*
X-142959Y-2273908D01*
X-143066Y-2273906D01*
X-140081Y-2276891D02*
X-140083Y-2277012D01*
X-140089Y-2277132D01*
X-140098Y-2277252D01*
X-140111Y-2277372D01*
X-140128Y-2277491D01*
X-140149Y-2277610D01*
X-140173Y-2277728D01*
X-140202Y-2277845D01*
X-140233Y-2277961D01*
X-140269Y-2278077D01*
X-140308Y-2278191D01*
X-140351Y-2278303D01*
X-140397Y-2278415D01*
X-140446Y-2278525D01*
X-140500Y-2278633D01*
X-140556Y-2278739D01*
X-140616Y-2278844D01*
X-140679Y-2278947D01*
X-140745Y-2279047D01*
X-140814Y-2279146D01*
X-140887Y-2279242D01*
X-140962Y-2279336D01*
X-141040Y-2279428D01*
X-141122Y-2279517D01*
X-141206Y-2279604D01*
X-141292Y-2279688D01*
X-141381Y-2279769D01*
X-141473Y-2279847D01*
X-141567Y-2279922D01*
X-141664Y-2279994D01*
X-141762Y-2280064D01*
X-141863Y-2280130D01*
X-141966Y-2280193D01*
X-142071Y-2280252D01*
X-142177Y-2280309D01*
X-142286Y-2280362D01*
X-142395Y-2280411D01*
X-142507Y-2280457D01*
X-142620Y-2280500D01*
X-142734Y-2280538D01*
X-145388Y-2274901D02*
X-145308Y-2274821D01*
X-145226Y-2274743D01*
X-145142Y-2274669D01*
X-145054Y-2274597D01*
X-144965Y-2274529D01*
X-144872Y-2274463D01*
X-144778Y-2274401D01*
X-144682Y-2274343D01*
X-144583Y-2274288D01*
X-144483Y-2274236D01*
X-144381Y-2274188D01*
X-144277Y-2274143D01*
X-144172Y-2274103D01*
X-144065Y-2274066D01*
X-143957Y-2274032D01*
X-143848Y-2274003D01*
X-143738Y-2273977D01*
X-143627Y-2273956D01*
X-143516Y-2273938D01*
X-143404Y-2273924D01*
X-143292Y-2273914D01*
X-143179Y-2273908D01*
X-143066Y-2273906D01*
X-145387Y-2274902D02*
X-152019Y-2280539D01*
X-152019Y-2273907D01*
X-146050Y-2269109D02*
X-145815Y-2269106D01*
X-145580Y-2269098D01*
X-145346Y-2269084D01*
X-145112Y-2269064D01*
X-144878Y-2269039D01*
X-144646Y-2269008D01*
X-144414Y-2268972D01*
X-144182Y-2268930D01*
X-143952Y-2268883D01*
X-143724Y-2268830D01*
X-143496Y-2268772D01*
X-143270Y-2268708D01*
X-143046Y-2268639D01*
X-142823Y-2268565D01*
X-142602Y-2268485D01*
X-142383Y-2268400D01*
X-142166Y-2268310D01*
X-141951Y-2268215D01*
X-141739Y-2268114D01*
X-141647Y-2268081D01*
X-141556Y-2268043D01*
X-141467Y-2268002D01*
X-141379Y-2267958D01*
X-141294Y-2267910D01*
X-141210Y-2267859D01*
X-141128Y-2267804D01*
X-141049Y-2267746D01*
X-140972Y-2267685D01*
X-140898Y-2267621D01*
X-140826Y-2267554D01*
X-140757Y-2267484D01*
X-140691Y-2267412D01*
X-140627Y-2267337D01*
X-140567Y-2267259D01*
X-140510Y-2267179D01*
X-140456Y-2267097D01*
X-140406Y-2267013D01*
X-140359Y-2266927D01*
X-140315Y-2266839D01*
X-140275Y-2266749D01*
X-140238Y-2266658D01*
X-140206Y-2266565D01*
X-140177Y-2266471D01*
X-140151Y-2266377D01*
X-140130Y-2266281D01*
X-140112Y-2266184D01*
X-140099Y-2266087D01*
X-140089Y-2265989D01*
X-140083Y-2265891D01*
X-140081Y-2265793D01*
X-140083Y-2265695D01*
X-140089Y-2265597D01*
X-140099Y-2265499D01*
X-140112Y-2265402D01*
X-140130Y-2265305D01*
X-140151Y-2265209D01*
X-140177Y-2265115D01*
X-140206Y-2265021D01*
X-140238Y-2264928D01*
X-140275Y-2264837D01*
X-140315Y-2264747D01*
X-140359Y-2264659D01*
X-140406Y-2264573D01*
X-140456Y-2264489D01*
X-140510Y-2264407D01*
X-140567Y-2264327D01*
X-140627Y-2264249D01*
X-140691Y-2264174D01*
X-140757Y-2264102D01*
X-140826Y-2264032D01*
X-140898Y-2263965D01*
X-140972Y-2263901D01*
X-141049Y-2263840D01*
X-141128Y-2263782D01*
X-141210Y-2263727D01*
X-141294Y-2263676D01*
X-141379Y-2263628D01*
X-141467Y-2263584D01*
X-141556Y-2263543D01*
X-141647Y-2263505D01*
X-141739Y-2263472D01*
X-141951Y-2263371D01*
X-142166Y-2263276D01*
X-142383Y-2263186D01*
X-142602Y-2263101D01*
X-142823Y-2263021D01*
X-143045Y-2262947D01*
X-143270Y-2262878D01*
X-143496Y-2262814D01*
X-143724Y-2262756D01*
X-143952Y-2262703D01*
X-144182Y-2262656D01*
X-144414Y-2262614D01*
X-144646Y-2262578D01*
X-144878Y-2262547D01*
X-145112Y-2262522D01*
X-145346Y-2262502D01*
X-145580Y-2262488D01*
X-145815Y-2262480D01*
X-146050Y-2262477D01*
X-146050Y-2269109D02*
X-146285Y-2269106D01*
X-146520Y-2269098D01*
X-146754Y-2269084D01*
X-146988Y-2269064D01*
X-147222Y-2269039D01*
X-147454Y-2269008D01*
X-147686Y-2268972D01*
X-147918Y-2268930D01*
X-148148Y-2268883D01*
X-148376Y-2268830D01*
X-148604Y-2268772D01*
X-148830Y-2268708D01*
X-149054Y-2268639D01*
X-149277Y-2268565D01*
X-149498Y-2268485D01*
X-149717Y-2268400D01*
X-149934Y-2268310D01*
X-150149Y-2268215D01*
X-150361Y-2268114D01*
X-150453Y-2268081D01*
X-150544Y-2268043D01*
X-150633Y-2268002D01*
X-150721Y-2267958D01*
X-150806Y-2267910D01*
X-150890Y-2267858D01*
X-150972Y-2267804D01*
X-151051Y-2267746D01*
X-151128Y-2267685D01*
X-151202Y-2267621D01*
X-151274Y-2267554D01*
X-151343Y-2267484D01*
X-151409Y-2267412D01*
X-151473Y-2267337D01*
X-151533Y-2267259D01*
X-151590Y-2267179D01*
X-151644Y-2267097D01*
X-151694Y-2267013D01*
X-151741Y-2266927D01*
X-151785Y-2266839D01*
X-151825Y-2266749D01*
X-151862Y-2266658D01*
X-151894Y-2266565D01*
X-151923Y-2266471D01*
X-151949Y-2266377D01*
X-151970Y-2266281D01*
X-151988Y-2266184D01*
X-152001Y-2266087D01*
X-152011Y-2265989D01*
X-152017Y-2265891D01*
X-152019Y-2265793D01*
X-150361Y-2263472D02*
X-150149Y-2263371D01*
X-149934Y-2263276D01*
X-149717Y-2263186D01*
X-149498Y-2263101D01*
X-149277Y-2263021D01*
X-149055Y-2262947D01*
X-148830Y-2262878D01*
X-148604Y-2262814D01*
X-148376Y-2262756D01*
X-148148Y-2262703D01*
X-147918Y-2262656D01*
X-147686Y-2262614D01*
X-147454Y-2262578D01*
X-147222Y-2262547D01*
X-146988Y-2262522D01*
X-146754Y-2262502D01*
X-146520Y-2262488D01*
X-146285Y-2262480D01*
X-146050Y-2262477D01*
X-150361Y-2263472D02*
X-150453Y-2263505D01*
X-150544Y-2263543D01*
X-150633Y-2263584D01*
X-150721Y-2263628D01*
X-150806Y-2263676D01*
X-150890Y-2263728D01*
X-150972Y-2263782D01*
X-151051Y-2263840D01*
X-151128Y-2263901D01*
X-151202Y-2263965D01*
X-151274Y-2264032D01*
X-151343Y-2264102D01*
X-151409Y-2264174D01*
X-151473Y-2264249D01*
X-151533Y-2264327D01*
X-151590Y-2264407D01*
X-151644Y-2264489D01*
X-151694Y-2264573D01*
X-151741Y-2264659D01*
X-151785Y-2264747D01*
X-151825Y-2264837D01*
X-151862Y-2264928D01*
X-151894Y-2265021D01*
X-151923Y-2265115D01*
X-151949Y-2265209D01*
X-151970Y-2265305D01*
X-151988Y-2265402D01*
X-152001Y-2265499D01*
X-152011Y-2265597D01*
X-152017Y-2265695D01*
X-152019Y-2265793D01*
X-149366Y-2268446D02*
X-142734Y-2263140D01*
X-153345Y-2258159D02*
X-153345Y-2252853D01*
X-152019Y-2248006D02*
X-140081Y-2248006D01*
X-140081Y-2241374D02*
X-147376Y-2248006D01*
X-144724Y-2245353D02*
X-152019Y-2241374D01*
X-152019Y-2236705D02*
X-152019Y-2231399D01*
X-152019Y-2236705D02*
X-140081Y-2236705D01*
X-140081Y-2231399D01*
X-145387Y-2232725D02*
X-145387Y-2236705D01*
X-140081Y-2227863D02*
X-145718Y-2223883D01*
X-140081Y-2219904D01*
X-145718Y-2223883D02*
X-152019Y-2223883D01*
D25*
X-66040Y-2066163D02*
X-66040Y-2683637D01*
X-66040Y-2066163D02*
X-28475Y-2066163D01*
X66040Y-2066163D02*
X66040Y-2612345D01*
X66040Y-2683637D02*
X28475Y-2683637D01*
X-28475Y-2683637D02*
X-66040Y-2683637D01*
X28475Y-2066163D02*
X66040Y-2066163D01*
X66040Y-2625389D02*
X66040Y-2683637D01*
D27*
X0Y-2697607D02*
X-122Y-2697609D01*
X-244Y-2697615D01*
X-366Y-2697625D01*
X-487Y-2697638D01*
X-608Y-2697656D01*
X-728Y-2697677D01*
X-848Y-2697703D01*
X-966Y-2697732D01*
X-1084Y-2697764D01*
X-1201Y-2697801D01*
X-1316Y-2697841D01*
X-1430Y-2697885D01*
X-1542Y-2697933D01*
X-1653Y-2697984D01*
X-1762Y-2698039D01*
X-1870Y-2698097D01*
X-1975Y-2698159D01*
X-2078Y-2698224D01*
X-2180Y-2698292D01*
X-2279Y-2698364D01*
X-2375Y-2698438D01*
X-2470Y-2698516D01*
X-2561Y-2698597D01*
X-2651Y-2698680D01*
X-2737Y-2698766D01*
X-2820Y-2698856D01*
X-2901Y-2698947D01*
X-2979Y-2699042D01*
X-3053Y-2699138D01*
X-3125Y-2699237D01*
X-3193Y-2699339D01*
X-3258Y-2699442D01*
X-3320Y-2699547D01*
X-3378Y-2699655D01*
X-3433Y-2699764D01*
X-3484Y-2699875D01*
X-3532Y-2699987D01*
X-3576Y-2700101D01*
X-3616Y-2700216D01*
X-3653Y-2700333D01*
X-3685Y-2700451D01*
X-3714Y-2700569D01*
X-3740Y-2700689D01*
X-3761Y-2700809D01*
X-3779Y-2700930D01*
X-3792Y-2701051D01*
X-3802Y-2701173D01*
X-3808Y-2701295D01*
X-3810Y-2701417D01*
X-3808Y-2701539D01*
X-3802Y-2701661D01*
X-3792Y-2701783D01*
X-3779Y-2701904D01*
X-3761Y-2702025D01*
X-3740Y-2702145D01*
X-3714Y-2702265D01*
X-3685Y-2702383D01*
X-3653Y-2702501D01*
X-3616Y-2702618D01*
X-3576Y-2702733D01*
X-3532Y-2702847D01*
X-3484Y-2702959D01*
X-3433Y-2703070D01*
X-3378Y-2703179D01*
X-3320Y-2703287D01*
X-3258Y-2703392D01*
X-3193Y-2703495D01*
X-3125Y-2703597D01*
X-3053Y-2703696D01*
X-2979Y-2703792D01*
X-2901Y-2703887D01*
X-2820Y-2703978D01*
X-2737Y-2704068D01*
X-2651Y-2704154D01*
X-2561Y-2704237D01*
X-2470Y-2704318D01*
X-2375Y-2704396D01*
X-2279Y-2704470D01*
X-2180Y-2704542D01*
X-2078Y-2704610D01*
X-1975Y-2704675D01*
X-1870Y-2704737D01*
X-1762Y-2704795D01*
X-1653Y-2704850D01*
X-1542Y-2704901D01*
X-1430Y-2704949D01*
X-1316Y-2704993D01*
X-1201Y-2705033D01*
X-1084Y-2705070D01*
X-966Y-2705102D01*
X-848Y-2705131D01*
X-728Y-2705157D01*
X-608Y-2705178D01*
X-487Y-2705196D01*
X-366Y-2705209D01*
X-244Y-2705219D01*
X-122Y-2705225D01*
X0Y-2705227D01*
X122Y-2705225D01*
X244Y-2705219D01*
X366Y-2705209D01*
X487Y-2705196D01*
X608Y-2705178D01*
X728Y-2705157D01*
X848Y-2705131D01*
X966Y-2705102D01*
X1084Y-2705070D01*
X1201Y-2705033D01*
X1316Y-2704993D01*
X1430Y-2704949D01*
X1542Y-2704901D01*
X1653Y-2704850D01*
X1762Y-2704795D01*
X1870Y-2704737D01*
X1975Y-2704675D01*
X2078Y-2704610D01*
X2180Y-2704542D01*
X2279Y-2704470D01*
X2375Y-2704396D01*
X2470Y-2704318D01*
X2561Y-2704237D01*
X2651Y-2704154D01*
X2737Y-2704068D01*
X2820Y-2703978D01*
X2901Y-2703887D01*
X2979Y-2703792D01*
X3053Y-2703696D01*
X3125Y-2703597D01*
X3193Y-2703495D01*
X3258Y-2703392D01*
X3320Y-2703287D01*
X3378Y-2703179D01*
X3433Y-2703070D01*
X3484Y-2702959D01*
X3532Y-2702847D01*
X3576Y-2702733D01*
X3616Y-2702618D01*
X3653Y-2702501D01*
X3685Y-2702383D01*
X3714Y-2702265D01*
X3740Y-2702145D01*
X3761Y-2702025D01*
X3779Y-2701904D01*
X3792Y-2701783D01*
X3802Y-2701661D01*
X3808Y-2701539D01*
X3810Y-2701417D01*
X3808Y-2701295D01*
X3802Y-2701173D01*
X3792Y-2701051D01*
X3779Y-2700930D01*
X3761Y-2700809D01*
X3740Y-2700689D01*
X3714Y-2700569D01*
X3685Y-2700451D01*
X3653Y-2700333D01*
X3616Y-2700216D01*
X3576Y-2700101D01*
X3532Y-2699987D01*
X3484Y-2699875D01*
X3433Y-2699764D01*
X3378Y-2699655D01*
X3320Y-2699547D01*
X3258Y-2699442D01*
X3193Y-2699339D01*
X3125Y-2699237D01*
X3053Y-2699138D01*
X2979Y-2699042D01*
X2901Y-2698947D01*
X2820Y-2698856D01*
X2737Y-2698766D01*
X2651Y-2698680D01*
X2561Y-2698597D01*
X2470Y-2698516D01*
X2375Y-2698438D01*
X2279Y-2698364D01*
X2180Y-2698292D01*
X2078Y-2698224D01*
X1975Y-2698159D01*
X1870Y-2698097D01*
X1762Y-2698039D01*
X1653Y-2697984D01*
X1542Y-2697933D01*
X1430Y-2697885D01*
X1316Y-2697841D01*
X1201Y-2697801D01*
X1084Y-2697764D01*
X966Y-2697732D01*
X848Y-2697703D01*
X728Y-2697677D01*
X608Y-2697656D01*
X487Y-2697638D01*
X366Y-2697625D01*
X244Y-2697615D01*
X122Y-2697609D01*
X0Y-2697607D01*
D26*
X9666Y-2349119D02*
X12319Y-2345803D01*
X381Y-2345803D01*
X381Y-2349119D02*
X381Y-2342487D01*
X6350Y-2337689D02*
X6585Y-2337686D01*
X6820Y-2337678D01*
X7054Y-2337664D01*
X7288Y-2337644D01*
X7522Y-2337619D01*
X7754Y-2337588D01*
X7986Y-2337552D01*
X8218Y-2337510D01*
X8448Y-2337463D01*
X8676Y-2337410D01*
X8904Y-2337352D01*
X9130Y-2337288D01*
X9354Y-2337219D01*
X9577Y-2337145D01*
X9798Y-2337065D01*
X10017Y-2336980D01*
X10234Y-2336890D01*
X10449Y-2336795D01*
X10661Y-2336694D01*
X10753Y-2336661D01*
X10844Y-2336623D01*
X10933Y-2336582D01*
X11021Y-2336538D01*
X11106Y-2336490D01*
X11190Y-2336439D01*
X11272Y-2336384D01*
X11351Y-2336326D01*
X11428Y-2336265D01*
X11502Y-2336201D01*
X11574Y-2336134D01*
X11643Y-2336064D01*
X11709Y-2335992D01*
X11773Y-2335917D01*
X11833Y-2335839D01*
X11890Y-2335759D01*
X11944Y-2335677D01*
X11994Y-2335593D01*
X12041Y-2335507D01*
X12085Y-2335419D01*
X12125Y-2335329D01*
X12162Y-2335238D01*
X12194Y-2335145D01*
X12223Y-2335051D01*
X12249Y-2334957D01*
X12270Y-2334861D01*
X12288Y-2334764D01*
X12301Y-2334667D01*
X12311Y-2334569D01*
X12317Y-2334471D01*
X12319Y-2334373D01*
X12317Y-2334275D01*
X12311Y-2334177D01*
X12301Y-2334079D01*
X12288Y-2333982D01*
X12270Y-2333885D01*
X12249Y-2333789D01*
X12223Y-2333695D01*
X12194Y-2333601D01*
X12162Y-2333508D01*
X12125Y-2333417D01*
X12085Y-2333327D01*
X12041Y-2333239D01*
X11994Y-2333153D01*
X11944Y-2333069D01*
X11890Y-2332987D01*
X11833Y-2332907D01*
X11773Y-2332829D01*
X11709Y-2332754D01*
X11643Y-2332682D01*
X11574Y-2332612D01*
X11502Y-2332545D01*
X11428Y-2332481D01*
X11351Y-2332420D01*
X11272Y-2332362D01*
X11190Y-2332307D01*
X11106Y-2332256D01*
X11021Y-2332208D01*
X10933Y-2332164D01*
X10844Y-2332123D01*
X10753Y-2332085D01*
X10661Y-2332052D01*
X10661Y-2332051D02*
X10449Y-2331950D01*
X10234Y-2331855D01*
X10017Y-2331765D01*
X9798Y-2331680D01*
X9577Y-2331600D01*
X9355Y-2331526D01*
X9130Y-2331457D01*
X8904Y-2331393D01*
X8676Y-2331335D01*
X8448Y-2331282D01*
X8218Y-2331235D01*
X7986Y-2331193D01*
X7754Y-2331157D01*
X7522Y-2331126D01*
X7288Y-2331101D01*
X7054Y-2331081D01*
X6820Y-2331067D01*
X6585Y-2331059D01*
X6350Y-2331056D01*
X6350Y-2337689D02*
X6115Y-2337686D01*
X5880Y-2337678D01*
X5646Y-2337664D01*
X5412Y-2337644D01*
X5178Y-2337619D01*
X4946Y-2337588D01*
X4714Y-2337552D01*
X4483Y-2337510D01*
X4252Y-2337463D01*
X4024Y-2337410D01*
X3796Y-2337352D01*
X3570Y-2337288D01*
X3346Y-2337219D01*
X3123Y-2337145D01*
X2902Y-2337065D01*
X2683Y-2336980D01*
X2466Y-2336890D01*
X2251Y-2336795D01*
X2039Y-2336694D01*
X1947Y-2336661D01*
X1856Y-2336623D01*
X1767Y-2336582D01*
X1679Y-2336538D01*
X1594Y-2336490D01*
X1510Y-2336439D01*
X1428Y-2336384D01*
X1349Y-2336326D01*
X1272Y-2336265D01*
X1198Y-2336201D01*
X1126Y-2336134D01*
X1057Y-2336064D01*
X991Y-2335992D01*
X927Y-2335917D01*
X867Y-2335839D01*
X810Y-2335759D01*
X756Y-2335677D01*
X706Y-2335593D01*
X659Y-2335507D01*
X615Y-2335419D01*
X575Y-2335329D01*
X538Y-2335238D01*
X506Y-2335145D01*
X477Y-2335051D01*
X451Y-2334957D01*
X430Y-2334861D01*
X412Y-2334764D01*
X399Y-2334667D01*
X389Y-2334569D01*
X383Y-2334471D01*
X381Y-2334373D01*
X2039Y-2332052D02*
X2251Y-2331951D01*
X2466Y-2331856D01*
X2683Y-2331766D01*
X2902Y-2331681D01*
X3123Y-2331601D01*
X3346Y-2331527D01*
X3570Y-2331458D01*
X3796Y-2331394D01*
X4024Y-2331336D01*
X4252Y-2331283D01*
X4482Y-2331236D01*
X4714Y-2331194D01*
X4946Y-2331158D01*
X5178Y-2331127D01*
X5412Y-2331102D01*
X5646Y-2331082D01*
X5880Y-2331068D01*
X6115Y-2331060D01*
X6350Y-2331057D01*
X2039Y-2332052D02*
X1947Y-2332085D01*
X1856Y-2332123D01*
X1767Y-2332164D01*
X1679Y-2332208D01*
X1594Y-2332256D01*
X1510Y-2332308D01*
X1428Y-2332362D01*
X1349Y-2332420D01*
X1272Y-2332481D01*
X1198Y-2332545D01*
X1126Y-2332612D01*
X1057Y-2332682D01*
X991Y-2332754D01*
X927Y-2332829D01*
X867Y-2332907D01*
X810Y-2332987D01*
X756Y-2333069D01*
X706Y-2333153D01*
X659Y-2333239D01*
X615Y-2333327D01*
X575Y-2333417D01*
X538Y-2333508D01*
X506Y-2333601D01*
X477Y-2333695D01*
X451Y-2333789D01*
X430Y-2333885D01*
X412Y-2333982D01*
X399Y-2334079D01*
X389Y-2334177D01*
X383Y-2334275D01*
X381Y-2334373D01*
X3034Y-2337026D02*
X9666Y-2331720D01*
X12320Y-2322611D02*
X12318Y-2322504D01*
X12312Y-2322398D01*
X12303Y-2322292D01*
X12290Y-2322186D01*
X12273Y-2322081D01*
X12252Y-2321976D01*
X12227Y-2321873D01*
X12199Y-2321770D01*
X12167Y-2321668D01*
X12132Y-2321568D01*
X12093Y-2321469D01*
X12050Y-2321371D01*
X12004Y-2321275D01*
X11955Y-2321180D01*
X11902Y-2321088D01*
X11846Y-2320997D01*
X11787Y-2320909D01*
X11725Y-2320822D01*
X11659Y-2320738D01*
X11591Y-2320656D01*
X11520Y-2320577D01*
X11446Y-2320500D01*
X11369Y-2320426D01*
X11290Y-2320355D01*
X11208Y-2320287D01*
X11124Y-2320221D01*
X11037Y-2320159D01*
X10949Y-2320100D01*
X10858Y-2320044D01*
X10766Y-2319991D01*
X10671Y-2319942D01*
X10575Y-2319896D01*
X10477Y-2319853D01*
X10378Y-2319814D01*
X10278Y-2319779D01*
X10176Y-2319747D01*
X10073Y-2319719D01*
X9970Y-2319694D01*
X9865Y-2319673D01*
X9760Y-2319656D01*
X9654Y-2319643D01*
X9548Y-2319634D01*
X9442Y-2319628D01*
X9335Y-2319626D01*
X12319Y-2322611D02*
X12317Y-2322732D01*
X12311Y-2322852D01*
X12302Y-2322972D01*
X12289Y-2323092D01*
X12272Y-2323211D01*
X12251Y-2323330D01*
X12227Y-2323448D01*
X12198Y-2323565D01*
X12167Y-2323681D01*
X12131Y-2323797D01*
X12092Y-2323911D01*
X12049Y-2324023D01*
X12003Y-2324135D01*
X11954Y-2324245D01*
X11900Y-2324353D01*
X11844Y-2324459D01*
X11784Y-2324564D01*
X11721Y-2324667D01*
X11655Y-2324767D01*
X11586Y-2324866D01*
X11513Y-2324962D01*
X11438Y-2325056D01*
X11360Y-2325148D01*
X11278Y-2325237D01*
X11194Y-2325324D01*
X11108Y-2325408D01*
X11019Y-2325489D01*
X10927Y-2325567D01*
X10833Y-2325642D01*
X10736Y-2325714D01*
X10638Y-2325784D01*
X10537Y-2325850D01*
X10434Y-2325913D01*
X10329Y-2325972D01*
X10223Y-2326029D01*
X10114Y-2326082D01*
X10005Y-2326131D01*
X9893Y-2326177D01*
X9780Y-2326220D01*
X9666Y-2326258D01*
X7013Y-2320621D02*
X7093Y-2320541D01*
X7175Y-2320463D01*
X7259Y-2320389D01*
X7347Y-2320317D01*
X7437Y-2320249D01*
X7529Y-2320183D01*
X7623Y-2320121D01*
X7719Y-2320063D01*
X7818Y-2320008D01*
X7918Y-2319956D01*
X8020Y-2319908D01*
X8124Y-2319863D01*
X8229Y-2319823D01*
X8336Y-2319786D01*
X8444Y-2319752D01*
X8553Y-2319723D01*
X8663Y-2319697D01*
X8774Y-2319676D01*
X8885Y-2319658D01*
X8997Y-2319644D01*
X9109Y-2319634D01*
X9222Y-2319628D01*
X9335Y-2319626D01*
X7013Y-2320622D02*
X381Y-2326259D01*
X381Y-2319627D01*
X6350Y-2314829D02*
X6585Y-2314826D01*
X6820Y-2314818D01*
X7054Y-2314804D01*
X7288Y-2314784D01*
X7522Y-2314759D01*
X7754Y-2314728D01*
X7986Y-2314692D01*
X8218Y-2314650D01*
X8448Y-2314603D01*
X8676Y-2314550D01*
X8904Y-2314492D01*
X9130Y-2314428D01*
X9354Y-2314359D01*
X9577Y-2314285D01*
X9798Y-2314205D01*
X10017Y-2314120D01*
X10234Y-2314030D01*
X10449Y-2313935D01*
X10661Y-2313834D01*
X10753Y-2313801D01*
X10844Y-2313763D01*
X10933Y-2313722D01*
X11021Y-2313678D01*
X11106Y-2313630D01*
X11190Y-2313579D01*
X11272Y-2313524D01*
X11351Y-2313466D01*
X11428Y-2313405D01*
X11502Y-2313341D01*
X11574Y-2313274D01*
X11643Y-2313204D01*
X11709Y-2313132D01*
X11773Y-2313057D01*
X11833Y-2312979D01*
X11890Y-2312899D01*
X11944Y-2312817D01*
X11994Y-2312733D01*
X12041Y-2312647D01*
X12085Y-2312559D01*
X12125Y-2312469D01*
X12162Y-2312378D01*
X12194Y-2312285D01*
X12223Y-2312191D01*
X12249Y-2312097D01*
X12270Y-2312001D01*
X12288Y-2311904D01*
X12301Y-2311807D01*
X12311Y-2311709D01*
X12317Y-2311611D01*
X12319Y-2311513D01*
X12317Y-2311415D01*
X12311Y-2311317D01*
X12301Y-2311219D01*
X12288Y-2311122D01*
X12270Y-2311025D01*
X12249Y-2310929D01*
X12223Y-2310835D01*
X12194Y-2310741D01*
X12162Y-2310648D01*
X12125Y-2310557D01*
X12085Y-2310467D01*
X12041Y-2310379D01*
X11994Y-2310293D01*
X11944Y-2310209D01*
X11890Y-2310127D01*
X11833Y-2310047D01*
X11773Y-2309969D01*
X11709Y-2309894D01*
X11643Y-2309822D01*
X11574Y-2309752D01*
X11502Y-2309685D01*
X11428Y-2309621D01*
X11351Y-2309560D01*
X11272Y-2309502D01*
X11190Y-2309447D01*
X11106Y-2309396D01*
X11021Y-2309348D01*
X10933Y-2309304D01*
X10844Y-2309263D01*
X10753Y-2309225D01*
X10661Y-2309192D01*
X10449Y-2309091D01*
X10234Y-2308996D01*
X10017Y-2308906D01*
X9798Y-2308821D01*
X9577Y-2308741D01*
X9355Y-2308667D01*
X9130Y-2308598D01*
X8904Y-2308534D01*
X8676Y-2308476D01*
X8448Y-2308423D01*
X8218Y-2308376D01*
X7986Y-2308334D01*
X7754Y-2308298D01*
X7522Y-2308267D01*
X7288Y-2308242D01*
X7054Y-2308222D01*
X6820Y-2308208D01*
X6585Y-2308200D01*
X6350Y-2308197D01*
X6350Y-2314829D02*
X6115Y-2314826D01*
X5880Y-2314818D01*
X5646Y-2314804D01*
X5412Y-2314784D01*
X5178Y-2314759D01*
X4946Y-2314728D01*
X4714Y-2314692D01*
X4483Y-2314650D01*
X4252Y-2314603D01*
X4024Y-2314550D01*
X3796Y-2314492D01*
X3570Y-2314428D01*
X3346Y-2314359D01*
X3123Y-2314285D01*
X2902Y-2314205D01*
X2683Y-2314120D01*
X2466Y-2314030D01*
X2251Y-2313935D01*
X2039Y-2313834D01*
X1947Y-2313801D01*
X1856Y-2313763D01*
X1767Y-2313722D01*
X1679Y-2313678D01*
X1594Y-2313630D01*
X1510Y-2313579D01*
X1428Y-2313524D01*
X1349Y-2313466D01*
X1272Y-2313405D01*
X1198Y-2313341D01*
X1126Y-2313274D01*
X1057Y-2313204D01*
X991Y-2313132D01*
X927Y-2313057D01*
X867Y-2312979D01*
X810Y-2312899D01*
X756Y-2312817D01*
X706Y-2312733D01*
X659Y-2312647D01*
X615Y-2312559D01*
X575Y-2312469D01*
X538Y-2312378D01*
X506Y-2312285D01*
X477Y-2312191D01*
X451Y-2312097D01*
X430Y-2312001D01*
X412Y-2311904D01*
X399Y-2311807D01*
X389Y-2311709D01*
X383Y-2311611D01*
X381Y-2311513D01*
X2039Y-2309192D02*
X2251Y-2309091D01*
X2466Y-2308996D01*
X2683Y-2308906D01*
X2902Y-2308821D01*
X3123Y-2308741D01*
X3346Y-2308667D01*
X3570Y-2308598D01*
X3796Y-2308534D01*
X4024Y-2308476D01*
X4252Y-2308423D01*
X4482Y-2308376D01*
X4714Y-2308334D01*
X4946Y-2308298D01*
X5178Y-2308267D01*
X5412Y-2308242D01*
X5646Y-2308222D01*
X5880Y-2308208D01*
X6115Y-2308200D01*
X6350Y-2308197D01*
X2039Y-2309192D02*
X1947Y-2309225D01*
X1856Y-2309263D01*
X1767Y-2309304D01*
X1679Y-2309348D01*
X1594Y-2309396D01*
X1510Y-2309448D01*
X1428Y-2309502D01*
X1349Y-2309560D01*
X1272Y-2309621D01*
X1198Y-2309685D01*
X1126Y-2309752D01*
X1057Y-2309822D01*
X991Y-2309894D01*
X927Y-2309969D01*
X867Y-2310047D01*
X810Y-2310127D01*
X756Y-2310209D01*
X706Y-2310293D01*
X659Y-2310379D01*
X615Y-2310467D01*
X575Y-2310557D01*
X538Y-2310648D01*
X506Y-2310741D01*
X477Y-2310835D01*
X451Y-2310929D01*
X430Y-2311025D01*
X412Y-2311122D01*
X399Y-2311219D01*
X389Y-2311317D01*
X383Y-2311415D01*
X381Y-2311513D01*
X3034Y-2314166D02*
X9666Y-2308860D01*
X9666Y-2303399D02*
X12319Y-2300083D01*
X381Y-2300083D01*
X381Y-2303399D02*
X381Y-2296767D01*
X6350Y-2291969D02*
X6585Y-2291966D01*
X6820Y-2291958D01*
X7054Y-2291944D01*
X7288Y-2291924D01*
X7522Y-2291899D01*
X7754Y-2291868D01*
X7986Y-2291832D01*
X8218Y-2291790D01*
X8448Y-2291743D01*
X8676Y-2291690D01*
X8904Y-2291632D01*
X9130Y-2291568D01*
X9354Y-2291499D01*
X9577Y-2291425D01*
X9798Y-2291345D01*
X10017Y-2291260D01*
X10234Y-2291170D01*
X10449Y-2291075D01*
X10661Y-2290974D01*
X10753Y-2290941D01*
X10844Y-2290903D01*
X10933Y-2290862D01*
X11021Y-2290818D01*
X11106Y-2290770D01*
X11190Y-2290719D01*
X11272Y-2290664D01*
X11351Y-2290606D01*
X11428Y-2290545D01*
X11502Y-2290481D01*
X11574Y-2290414D01*
X11643Y-2290344D01*
X11709Y-2290272D01*
X11773Y-2290197D01*
X11833Y-2290119D01*
X11890Y-2290039D01*
X11944Y-2289957D01*
X11994Y-2289873D01*
X12041Y-2289787D01*
X12085Y-2289699D01*
X12125Y-2289609D01*
X12162Y-2289518D01*
X12194Y-2289425D01*
X12223Y-2289331D01*
X12249Y-2289237D01*
X12270Y-2289141D01*
X12288Y-2289044D01*
X12301Y-2288947D01*
X12311Y-2288849D01*
X12317Y-2288751D01*
X12319Y-2288653D01*
X12317Y-2288555D01*
X12311Y-2288457D01*
X12301Y-2288359D01*
X12288Y-2288262D01*
X12270Y-2288165D01*
X12249Y-2288069D01*
X12223Y-2287975D01*
X12194Y-2287881D01*
X12162Y-2287788D01*
X12125Y-2287697D01*
X12085Y-2287607D01*
X12041Y-2287519D01*
X11994Y-2287433D01*
X11944Y-2287349D01*
X11890Y-2287267D01*
X11833Y-2287187D01*
X11773Y-2287109D01*
X11709Y-2287034D01*
X11643Y-2286962D01*
X11574Y-2286892D01*
X11502Y-2286825D01*
X11428Y-2286761D01*
X11351Y-2286700D01*
X11272Y-2286642D01*
X11190Y-2286587D01*
X11106Y-2286536D01*
X11021Y-2286488D01*
X10933Y-2286444D01*
X10844Y-2286403D01*
X10753Y-2286365D01*
X10661Y-2286332D01*
X10449Y-2286231D01*
X10234Y-2286136D01*
X10017Y-2286046D01*
X9798Y-2285961D01*
X9577Y-2285881D01*
X9355Y-2285807D01*
X9130Y-2285738D01*
X8904Y-2285674D01*
X8676Y-2285616D01*
X8448Y-2285563D01*
X8218Y-2285516D01*
X7986Y-2285474D01*
X7754Y-2285438D01*
X7522Y-2285407D01*
X7288Y-2285382D01*
X7054Y-2285362D01*
X6820Y-2285348D01*
X6585Y-2285340D01*
X6350Y-2285337D01*
X6350Y-2291969D02*
X6115Y-2291966D01*
X5880Y-2291958D01*
X5646Y-2291944D01*
X5412Y-2291924D01*
X5178Y-2291899D01*
X4946Y-2291868D01*
X4714Y-2291832D01*
X4483Y-2291790D01*
X4252Y-2291743D01*
X4024Y-2291690D01*
X3796Y-2291632D01*
X3570Y-2291568D01*
X3346Y-2291499D01*
X3123Y-2291425D01*
X2902Y-2291345D01*
X2683Y-2291260D01*
X2466Y-2291170D01*
X2251Y-2291075D01*
X2039Y-2290974D01*
X1947Y-2290941D01*
X1856Y-2290903D01*
X1767Y-2290862D01*
X1679Y-2290818D01*
X1594Y-2290770D01*
X1510Y-2290719D01*
X1428Y-2290664D01*
X1349Y-2290606D01*
X1272Y-2290545D01*
X1198Y-2290481D01*
X1126Y-2290414D01*
X1057Y-2290344D01*
X991Y-2290272D01*
X927Y-2290197D01*
X867Y-2290119D01*
X810Y-2290039D01*
X756Y-2289957D01*
X706Y-2289873D01*
X659Y-2289787D01*
X615Y-2289699D01*
X575Y-2289609D01*
X538Y-2289518D01*
X506Y-2289425D01*
X477Y-2289331D01*
X451Y-2289237D01*
X430Y-2289141D01*
X412Y-2289044D01*
X399Y-2288947D01*
X389Y-2288849D01*
X383Y-2288751D01*
X381Y-2288653D01*
X2039Y-2286332D02*
X2251Y-2286231D01*
X2466Y-2286136D01*
X2683Y-2286046D01*
X2902Y-2285961D01*
X3123Y-2285881D01*
X3346Y-2285807D01*
X3570Y-2285738D01*
X3796Y-2285674D01*
X4024Y-2285616D01*
X4252Y-2285563D01*
X4482Y-2285516D01*
X4714Y-2285474D01*
X4946Y-2285438D01*
X5178Y-2285407D01*
X5412Y-2285382D01*
X5646Y-2285362D01*
X5880Y-2285348D01*
X6115Y-2285340D01*
X6350Y-2285337D01*
X2039Y-2286332D02*
X1947Y-2286365D01*
X1856Y-2286403D01*
X1767Y-2286444D01*
X1679Y-2286488D01*
X1594Y-2286536D01*
X1510Y-2286588D01*
X1428Y-2286642D01*
X1349Y-2286700D01*
X1272Y-2286761D01*
X1198Y-2286825D01*
X1126Y-2286892D01*
X1057Y-2286962D01*
X991Y-2287034D01*
X927Y-2287109D01*
X867Y-2287187D01*
X810Y-2287267D01*
X756Y-2287349D01*
X706Y-2287433D01*
X659Y-2287519D01*
X615Y-2287607D01*
X575Y-2287697D01*
X538Y-2287788D01*
X506Y-2287881D01*
X477Y-2287975D01*
X451Y-2288069D01*
X430Y-2288165D01*
X412Y-2288262D01*
X399Y-2288359D01*
X389Y-2288457D01*
X383Y-2288555D01*
X381Y-2288653D01*
X3034Y-2291306D02*
X9666Y-2286000D01*
X12320Y-2276891D02*
X12318Y-2276784D01*
X12312Y-2276678D01*
X12303Y-2276572D01*
X12290Y-2276466D01*
X12273Y-2276361D01*
X12252Y-2276256D01*
X12227Y-2276153D01*
X12199Y-2276050D01*
X12167Y-2275948D01*
X12132Y-2275848D01*
X12093Y-2275749D01*
X12050Y-2275651D01*
X12004Y-2275555D01*
X11955Y-2275460D01*
X11902Y-2275368D01*
X11846Y-2275277D01*
X11787Y-2275189D01*
X11725Y-2275102D01*
X11659Y-2275018D01*
X11591Y-2274936D01*
X11520Y-2274857D01*
X11446Y-2274780D01*
X11369Y-2274706D01*
X11290Y-2274635D01*
X11208Y-2274567D01*
X11124Y-2274501D01*
X11037Y-2274439D01*
X10949Y-2274380D01*
X10858Y-2274324D01*
X10766Y-2274271D01*
X10671Y-2274222D01*
X10575Y-2274176D01*
X10477Y-2274133D01*
X10378Y-2274094D01*
X10278Y-2274059D01*
X10176Y-2274027D01*
X10073Y-2273999D01*
X9970Y-2273974D01*
X9865Y-2273953D01*
X9760Y-2273936D01*
X9654Y-2273923D01*
X9548Y-2273914D01*
X9442Y-2273908D01*
X9335Y-2273906D01*
X12319Y-2276891D02*
X12317Y-2277012D01*
X12311Y-2277132D01*
X12302Y-2277252D01*
X12289Y-2277372D01*
X12272Y-2277491D01*
X12251Y-2277610D01*
X12227Y-2277728D01*
X12198Y-2277845D01*
X12167Y-2277961D01*
X12131Y-2278077D01*
X12092Y-2278191D01*
X12049Y-2278303D01*
X12003Y-2278415D01*
X11954Y-2278525D01*
X11900Y-2278633D01*
X11844Y-2278739D01*
X11784Y-2278844D01*
X11721Y-2278947D01*
X11655Y-2279047D01*
X11586Y-2279146D01*
X11513Y-2279242D01*
X11438Y-2279336D01*
X11360Y-2279428D01*
X11278Y-2279517D01*
X11194Y-2279604D01*
X11108Y-2279688D01*
X11019Y-2279769D01*
X10927Y-2279847D01*
X10833Y-2279922D01*
X10736Y-2279994D01*
X10638Y-2280064D01*
X10537Y-2280130D01*
X10434Y-2280193D01*
X10329Y-2280252D01*
X10223Y-2280309D01*
X10114Y-2280362D01*
X10005Y-2280411D01*
X9893Y-2280457D01*
X9780Y-2280500D01*
X9666Y-2280538D01*
X7013Y-2274902D02*
X7093Y-2274822D01*
X7175Y-2274744D01*
X7259Y-2274670D01*
X7347Y-2274598D01*
X7437Y-2274530D01*
X7529Y-2274464D01*
X7623Y-2274402D01*
X7719Y-2274344D01*
X7818Y-2274289D01*
X7918Y-2274237D01*
X8020Y-2274189D01*
X8124Y-2274144D01*
X8229Y-2274104D01*
X8336Y-2274067D01*
X8444Y-2274033D01*
X8553Y-2274004D01*
X8663Y-2273978D01*
X8774Y-2273957D01*
X8885Y-2273939D01*
X8997Y-2273925D01*
X9109Y-2273915D01*
X9222Y-2273909D01*
X9335Y-2273907D01*
X7013Y-2274902D02*
X381Y-2280539D01*
X381Y-2273907D01*
X6350Y-2269109D02*
X6585Y-2269106D01*
X6820Y-2269098D01*
X7054Y-2269084D01*
X7288Y-2269064D01*
X7522Y-2269039D01*
X7754Y-2269008D01*
X7986Y-2268972D01*
X8218Y-2268930D01*
X8448Y-2268883D01*
X8676Y-2268830D01*
X8904Y-2268772D01*
X9130Y-2268708D01*
X9354Y-2268639D01*
X9577Y-2268565D01*
X9798Y-2268485D01*
X10017Y-2268400D01*
X10234Y-2268310D01*
X10449Y-2268215D01*
X10661Y-2268114D01*
X10753Y-2268081D01*
X10844Y-2268043D01*
X10933Y-2268002D01*
X11021Y-2267958D01*
X11106Y-2267910D01*
X11190Y-2267859D01*
X11272Y-2267804D01*
X11351Y-2267746D01*
X11428Y-2267685D01*
X11502Y-2267621D01*
X11574Y-2267554D01*
X11643Y-2267484D01*
X11709Y-2267412D01*
X11773Y-2267337D01*
X11833Y-2267259D01*
X11890Y-2267179D01*
X11944Y-2267097D01*
X11994Y-2267013D01*
X12041Y-2266927D01*
X12085Y-2266839D01*
X12125Y-2266749D01*
X12162Y-2266658D01*
X12194Y-2266565D01*
X12223Y-2266471D01*
X12249Y-2266377D01*
X12270Y-2266281D01*
X12288Y-2266184D01*
X12301Y-2266087D01*
X12311Y-2265989D01*
X12317Y-2265891D01*
X12319Y-2265793D01*
X12317Y-2265695D01*
X12311Y-2265597D01*
X12301Y-2265499D01*
X12288Y-2265402D01*
X12270Y-2265305D01*
X12249Y-2265209D01*
X12223Y-2265115D01*
X12194Y-2265021D01*
X12162Y-2264928D01*
X12125Y-2264837D01*
X12085Y-2264747D01*
X12041Y-2264659D01*
X11994Y-2264573D01*
X11944Y-2264489D01*
X11890Y-2264407D01*
X11833Y-2264327D01*
X11773Y-2264249D01*
X11709Y-2264174D01*
X11643Y-2264102D01*
X11574Y-2264032D01*
X11502Y-2263965D01*
X11428Y-2263901D01*
X11351Y-2263840D01*
X11272Y-2263782D01*
X11190Y-2263727D01*
X11106Y-2263676D01*
X11021Y-2263628D01*
X10933Y-2263584D01*
X10844Y-2263543D01*
X10753Y-2263505D01*
X10661Y-2263472D01*
X10449Y-2263371D01*
X10234Y-2263276D01*
X10017Y-2263186D01*
X9798Y-2263101D01*
X9577Y-2263021D01*
X9355Y-2262947D01*
X9130Y-2262878D01*
X8904Y-2262814D01*
X8676Y-2262756D01*
X8448Y-2262703D01*
X8218Y-2262656D01*
X7986Y-2262614D01*
X7754Y-2262578D01*
X7522Y-2262547D01*
X7288Y-2262522D01*
X7054Y-2262502D01*
X6820Y-2262488D01*
X6585Y-2262480D01*
X6350Y-2262477D01*
X6350Y-2269109D02*
X6115Y-2269106D01*
X5880Y-2269098D01*
X5646Y-2269084D01*
X5412Y-2269064D01*
X5178Y-2269039D01*
X4946Y-2269008D01*
X4714Y-2268972D01*
X4483Y-2268930D01*
X4252Y-2268883D01*
X4024Y-2268830D01*
X3796Y-2268772D01*
X3570Y-2268708D01*
X3346Y-2268639D01*
X3123Y-2268565D01*
X2902Y-2268485D01*
X2683Y-2268400D01*
X2466Y-2268310D01*
X2251Y-2268215D01*
X2039Y-2268114D01*
X1947Y-2268081D01*
X1856Y-2268043D01*
X1767Y-2268002D01*
X1679Y-2267958D01*
X1594Y-2267910D01*
X1510Y-2267859D01*
X1428Y-2267804D01*
X1349Y-2267746D01*
X1272Y-2267685D01*
X1198Y-2267621D01*
X1126Y-2267554D01*
X1057Y-2267484D01*
X991Y-2267412D01*
X927Y-2267337D01*
X867Y-2267259D01*
X810Y-2267179D01*
X756Y-2267097D01*
X706Y-2267013D01*
X659Y-2266927D01*
X615Y-2266839D01*
X575Y-2266749D01*
X538Y-2266658D01*
X506Y-2266565D01*
X477Y-2266471D01*
X451Y-2266377D01*
X430Y-2266281D01*
X412Y-2266184D01*
X399Y-2266087D01*
X389Y-2265989D01*
X383Y-2265891D01*
X381Y-2265793D01*
X2039Y-2263472D02*
X2251Y-2263371D01*
X2466Y-2263276D01*
X2683Y-2263186D01*
X2902Y-2263101D01*
X3123Y-2263021D01*
X3346Y-2262947D01*
X3570Y-2262878D01*
X3796Y-2262814D01*
X4024Y-2262756D01*
X4252Y-2262703D01*
X4482Y-2262656D01*
X4714Y-2262614D01*
X4946Y-2262578D01*
X5178Y-2262547D01*
X5412Y-2262522D01*
X5646Y-2262502D01*
X5880Y-2262488D01*
X6115Y-2262480D01*
X6350Y-2262477D01*
X2039Y-2263472D02*
X1947Y-2263505D01*
X1856Y-2263543D01*
X1767Y-2263584D01*
X1679Y-2263628D01*
X1594Y-2263676D01*
X1510Y-2263728D01*
X1428Y-2263782D01*
X1349Y-2263840D01*
X1272Y-2263901D01*
X1198Y-2263965D01*
X1126Y-2264032D01*
X1057Y-2264102D01*
X991Y-2264174D01*
X927Y-2264249D01*
X867Y-2264327D01*
X810Y-2264407D01*
X756Y-2264489D01*
X706Y-2264573D01*
X659Y-2264659D01*
X615Y-2264747D01*
X575Y-2264837D01*
X538Y-2264928D01*
X506Y-2265021D01*
X477Y-2265115D01*
X451Y-2265209D01*
X430Y-2265305D01*
X412Y-2265402D01*
X399Y-2265499D01*
X389Y-2265597D01*
X383Y-2265695D01*
X381Y-2265793D01*
X3034Y-2268446D02*
X9666Y-2263140D01*
X-945Y-2258159D02*
X-945Y-2252853D01*
X381Y-2248006D02*
X12319Y-2248006D01*
X12319Y-2241374D02*
X5024Y-2248006D01*
X7676Y-2245353D02*
X381Y-2241374D01*
X381Y-2236705D02*
X381Y-2231399D01*
X381Y-2236705D02*
X12319Y-2236705D01*
X12319Y-2231399D01*
X7013Y-2232725D02*
X7013Y-2236705D01*
X12319Y-2227863D02*
X6682Y-2223883D01*
X12319Y-2219904D01*
X6682Y-2223883D02*
X381Y-2223883D01*
D25*
X218440Y-2066163D02*
X218440Y-2683637D01*
X180875Y-2683637D01*
X86360Y-2683637D02*
X86360Y-2137455D01*
X86360Y-2066163D02*
X123925Y-2066163D01*
X180875Y-2066163D02*
X218440Y-2066163D01*
X123925Y-2683637D02*
X86360Y-2683637D01*
X86360Y-2124411D02*
X86360Y-2066163D01*
D27*
X152400Y-2052193D02*
X152522Y-2052191D01*
X152644Y-2052185D01*
X152766Y-2052175D01*
X152887Y-2052162D01*
X153008Y-2052144D01*
X153128Y-2052123D01*
X153248Y-2052097D01*
X153366Y-2052068D01*
X153484Y-2052036D01*
X153601Y-2051999D01*
X153716Y-2051959D01*
X153830Y-2051915D01*
X153942Y-2051867D01*
X154053Y-2051816D01*
X154162Y-2051761D01*
X154270Y-2051703D01*
X154375Y-2051641D01*
X154478Y-2051576D01*
X154580Y-2051508D01*
X154679Y-2051436D01*
X154775Y-2051362D01*
X154870Y-2051284D01*
X154961Y-2051203D01*
X155051Y-2051120D01*
X155137Y-2051034D01*
X155220Y-2050944D01*
X155301Y-2050853D01*
X155379Y-2050758D01*
X155453Y-2050662D01*
X155525Y-2050563D01*
X155593Y-2050461D01*
X155658Y-2050358D01*
X155720Y-2050253D01*
X155778Y-2050145D01*
X155833Y-2050036D01*
X155884Y-2049925D01*
X155932Y-2049813D01*
X155976Y-2049699D01*
X156016Y-2049584D01*
X156053Y-2049467D01*
X156085Y-2049349D01*
X156114Y-2049231D01*
X156140Y-2049111D01*
X156161Y-2048991D01*
X156179Y-2048870D01*
X156192Y-2048749D01*
X156202Y-2048627D01*
X156208Y-2048505D01*
X156210Y-2048383D01*
X156208Y-2048261D01*
X156202Y-2048139D01*
X156192Y-2048017D01*
X156179Y-2047896D01*
X156161Y-2047775D01*
X156140Y-2047655D01*
X156114Y-2047535D01*
X156085Y-2047417D01*
X156053Y-2047299D01*
X156016Y-2047182D01*
X155976Y-2047067D01*
X155932Y-2046953D01*
X155884Y-2046841D01*
X155833Y-2046730D01*
X155778Y-2046621D01*
X155720Y-2046513D01*
X155658Y-2046408D01*
X155593Y-2046305D01*
X155525Y-2046203D01*
X155453Y-2046104D01*
X155379Y-2046008D01*
X155301Y-2045913D01*
X155220Y-2045822D01*
X155137Y-2045732D01*
X155051Y-2045646D01*
X154961Y-2045563D01*
X154870Y-2045482D01*
X154775Y-2045404D01*
X154679Y-2045330D01*
X154580Y-2045258D01*
X154478Y-2045190D01*
X154375Y-2045125D01*
X154270Y-2045063D01*
X154162Y-2045005D01*
X154053Y-2044950D01*
X153942Y-2044899D01*
X153830Y-2044851D01*
X153716Y-2044807D01*
X153601Y-2044767D01*
X153484Y-2044730D01*
X153366Y-2044698D01*
X153248Y-2044669D01*
X153128Y-2044643D01*
X153008Y-2044622D01*
X152887Y-2044604D01*
X152766Y-2044591D01*
X152644Y-2044581D01*
X152522Y-2044575D01*
X152400Y-2044573D01*
X152278Y-2044575D01*
X152156Y-2044581D01*
X152034Y-2044591D01*
X151913Y-2044604D01*
X151792Y-2044622D01*
X151672Y-2044643D01*
X151552Y-2044669D01*
X151434Y-2044698D01*
X151316Y-2044730D01*
X151199Y-2044767D01*
X151084Y-2044807D01*
X150970Y-2044851D01*
X150858Y-2044899D01*
X150747Y-2044950D01*
X150638Y-2045005D01*
X150530Y-2045063D01*
X150425Y-2045125D01*
X150322Y-2045190D01*
X150220Y-2045258D01*
X150121Y-2045330D01*
X150025Y-2045404D01*
X149930Y-2045482D01*
X149839Y-2045563D01*
X149749Y-2045646D01*
X149663Y-2045732D01*
X149580Y-2045822D01*
X149499Y-2045913D01*
X149421Y-2046008D01*
X149347Y-2046104D01*
X149275Y-2046203D01*
X149207Y-2046305D01*
X149142Y-2046408D01*
X149080Y-2046513D01*
X149022Y-2046621D01*
X148967Y-2046730D01*
X148916Y-2046841D01*
X148868Y-2046953D01*
X148824Y-2047067D01*
X148784Y-2047182D01*
X148747Y-2047299D01*
X148715Y-2047417D01*
X148686Y-2047535D01*
X148660Y-2047655D01*
X148639Y-2047775D01*
X148621Y-2047896D01*
X148608Y-2048017D01*
X148598Y-2048139D01*
X148592Y-2048261D01*
X148590Y-2048383D01*
X148592Y-2048505D01*
X148598Y-2048627D01*
X148608Y-2048749D01*
X148621Y-2048870D01*
X148639Y-2048991D01*
X148660Y-2049111D01*
X148686Y-2049231D01*
X148715Y-2049349D01*
X148747Y-2049467D01*
X148784Y-2049584D01*
X148824Y-2049699D01*
X148868Y-2049813D01*
X148916Y-2049925D01*
X148967Y-2050036D01*
X149022Y-2050145D01*
X149080Y-2050253D01*
X149142Y-2050358D01*
X149207Y-2050461D01*
X149275Y-2050563D01*
X149347Y-2050662D01*
X149421Y-2050758D01*
X149499Y-2050853D01*
X149580Y-2050944D01*
X149663Y-2051034D01*
X149749Y-2051120D01*
X149839Y-2051203D01*
X149930Y-2051284D01*
X150025Y-2051362D01*
X150121Y-2051436D01*
X150220Y-2051508D01*
X150322Y-2051576D01*
X150425Y-2051641D01*
X150530Y-2051703D01*
X150638Y-2051761D01*
X150747Y-2051816D01*
X150858Y-2051867D01*
X150970Y-2051915D01*
X151084Y-2051959D01*
X151199Y-2051999D01*
X151316Y-2052036D01*
X151434Y-2052068D01*
X151552Y-2052097D01*
X151672Y-2052123D01*
X151792Y-2052144D01*
X151913Y-2052162D01*
X152034Y-2052175D01*
X152156Y-2052185D01*
X152278Y-2052191D01*
X152400Y-2052193D01*
D26*
X164719Y-2345803D02*
X162066Y-2349119D01*
X164719Y-2345803D02*
X152781Y-2345803D01*
X152781Y-2349119D02*
X152781Y-2342487D01*
X158750Y-2337689D02*
X158985Y-2337686D01*
X159220Y-2337678D01*
X159454Y-2337664D01*
X159688Y-2337644D01*
X159922Y-2337619D01*
X160154Y-2337588D01*
X160386Y-2337552D01*
X160618Y-2337510D01*
X160848Y-2337463D01*
X161076Y-2337410D01*
X161304Y-2337352D01*
X161530Y-2337288D01*
X161754Y-2337219D01*
X161977Y-2337145D01*
X162198Y-2337065D01*
X162417Y-2336980D01*
X162634Y-2336890D01*
X162849Y-2336795D01*
X163061Y-2336694D01*
X163153Y-2336661D01*
X163244Y-2336623D01*
X163333Y-2336582D01*
X163421Y-2336538D01*
X163506Y-2336490D01*
X163590Y-2336439D01*
X163672Y-2336384D01*
X163751Y-2336326D01*
X163828Y-2336265D01*
X163902Y-2336201D01*
X163974Y-2336134D01*
X164043Y-2336064D01*
X164109Y-2335992D01*
X164173Y-2335917D01*
X164233Y-2335839D01*
X164290Y-2335759D01*
X164344Y-2335677D01*
X164394Y-2335593D01*
X164441Y-2335507D01*
X164485Y-2335419D01*
X164525Y-2335329D01*
X164562Y-2335238D01*
X164594Y-2335145D01*
X164623Y-2335051D01*
X164649Y-2334957D01*
X164670Y-2334861D01*
X164688Y-2334764D01*
X164701Y-2334667D01*
X164711Y-2334569D01*
X164717Y-2334471D01*
X164719Y-2334373D01*
X164717Y-2334275D01*
X164711Y-2334177D01*
X164701Y-2334079D01*
X164688Y-2333982D01*
X164670Y-2333885D01*
X164649Y-2333789D01*
X164623Y-2333695D01*
X164594Y-2333601D01*
X164562Y-2333508D01*
X164525Y-2333417D01*
X164485Y-2333327D01*
X164441Y-2333239D01*
X164394Y-2333153D01*
X164344Y-2333069D01*
X164290Y-2332987D01*
X164233Y-2332907D01*
X164173Y-2332829D01*
X164109Y-2332754D01*
X164043Y-2332682D01*
X163974Y-2332612D01*
X163902Y-2332545D01*
X163828Y-2332481D01*
X163751Y-2332420D01*
X163672Y-2332362D01*
X163590Y-2332307D01*
X163506Y-2332256D01*
X163421Y-2332208D01*
X163333Y-2332164D01*
X163244Y-2332123D01*
X163153Y-2332085D01*
X163061Y-2332052D01*
X163061Y-2332051D02*
X162849Y-2331950D01*
X162634Y-2331855D01*
X162417Y-2331765D01*
X162198Y-2331680D01*
X161977Y-2331600D01*
X161755Y-2331526D01*
X161530Y-2331457D01*
X161304Y-2331393D01*
X161076Y-2331335D01*
X160848Y-2331282D01*
X160618Y-2331235D01*
X160386Y-2331193D01*
X160154Y-2331157D01*
X159922Y-2331126D01*
X159688Y-2331101D01*
X159454Y-2331081D01*
X159220Y-2331067D01*
X158985Y-2331059D01*
X158750Y-2331056D01*
X158750Y-2337689D02*
X158515Y-2337686D01*
X158280Y-2337678D01*
X158046Y-2337664D01*
X157812Y-2337644D01*
X157578Y-2337619D01*
X157346Y-2337588D01*
X157114Y-2337552D01*
X156883Y-2337510D01*
X156652Y-2337463D01*
X156424Y-2337410D01*
X156196Y-2337352D01*
X155970Y-2337288D01*
X155746Y-2337219D01*
X155523Y-2337145D01*
X155302Y-2337065D01*
X155083Y-2336980D01*
X154866Y-2336890D01*
X154651Y-2336795D01*
X154439Y-2336694D01*
X154347Y-2336661D01*
X154256Y-2336623D01*
X154167Y-2336582D01*
X154079Y-2336538D01*
X153994Y-2336490D01*
X153910Y-2336439D01*
X153828Y-2336384D01*
X153749Y-2336326D01*
X153672Y-2336265D01*
X153598Y-2336201D01*
X153526Y-2336134D01*
X153457Y-2336064D01*
X153391Y-2335992D01*
X153327Y-2335917D01*
X153267Y-2335839D01*
X153210Y-2335759D01*
X153156Y-2335677D01*
X153106Y-2335593D01*
X153059Y-2335507D01*
X153015Y-2335419D01*
X152975Y-2335329D01*
X152938Y-2335238D01*
X152906Y-2335145D01*
X152877Y-2335051D01*
X152851Y-2334957D01*
X152830Y-2334861D01*
X152812Y-2334764D01*
X152799Y-2334667D01*
X152789Y-2334569D01*
X152783Y-2334471D01*
X152781Y-2334373D01*
X154439Y-2332052D02*
X154651Y-2331951D01*
X154866Y-2331856D01*
X155083Y-2331766D01*
X155302Y-2331681D01*
X155523Y-2331601D01*
X155746Y-2331527D01*
X155970Y-2331458D01*
X156196Y-2331394D01*
X156424Y-2331336D01*
X156652Y-2331283D01*
X156882Y-2331236D01*
X157114Y-2331194D01*
X157346Y-2331158D01*
X157578Y-2331127D01*
X157812Y-2331102D01*
X158046Y-2331082D01*
X158280Y-2331068D01*
X158515Y-2331060D01*
X158750Y-2331057D01*
X154439Y-2332052D02*
X154347Y-2332085D01*
X154256Y-2332123D01*
X154167Y-2332164D01*
X154079Y-2332208D01*
X153994Y-2332256D01*
X153910Y-2332308D01*
X153828Y-2332362D01*
X153749Y-2332420D01*
X153672Y-2332481D01*
X153598Y-2332545D01*
X153526Y-2332612D01*
X153457Y-2332682D01*
X153391Y-2332754D01*
X153327Y-2332829D01*
X153267Y-2332907D01*
X153210Y-2332987D01*
X153156Y-2333069D01*
X153106Y-2333153D01*
X153059Y-2333239D01*
X153015Y-2333327D01*
X152975Y-2333417D01*
X152938Y-2333508D01*
X152906Y-2333601D01*
X152877Y-2333695D01*
X152851Y-2333789D01*
X152830Y-2333885D01*
X152812Y-2333982D01*
X152799Y-2334079D01*
X152789Y-2334177D01*
X152783Y-2334275D01*
X152781Y-2334373D01*
X155434Y-2337026D02*
X162066Y-2331720D01*
X164720Y-2322611D02*
X164718Y-2322504D01*
X164712Y-2322398D01*
X164703Y-2322292D01*
X164690Y-2322186D01*
X164673Y-2322081D01*
X164652Y-2321976D01*
X164627Y-2321873D01*
X164599Y-2321770D01*
X164567Y-2321668D01*
X164532Y-2321568D01*
X164493Y-2321469D01*
X164450Y-2321371D01*
X164404Y-2321275D01*
X164355Y-2321180D01*
X164302Y-2321088D01*
X164246Y-2320997D01*
X164187Y-2320909D01*
X164125Y-2320822D01*
X164059Y-2320738D01*
X163991Y-2320656D01*
X163920Y-2320577D01*
X163846Y-2320500D01*
X163769Y-2320426D01*
X163690Y-2320355D01*
X163608Y-2320287D01*
X163524Y-2320221D01*
X163437Y-2320159D01*
X163349Y-2320100D01*
X163258Y-2320044D01*
X163166Y-2319991D01*
X163071Y-2319942D01*
X162975Y-2319896D01*
X162877Y-2319853D01*
X162778Y-2319814D01*
X162678Y-2319779D01*
X162576Y-2319747D01*
X162473Y-2319719D01*
X162370Y-2319694D01*
X162265Y-2319673D01*
X162160Y-2319656D01*
X162054Y-2319643D01*
X161948Y-2319634D01*
X161842Y-2319628D01*
X161735Y-2319626D01*
X164719Y-2322611D02*
X164717Y-2322732D01*
X164711Y-2322852D01*
X164702Y-2322972D01*
X164689Y-2323092D01*
X164672Y-2323211D01*
X164651Y-2323330D01*
X164627Y-2323448D01*
X164598Y-2323565D01*
X164567Y-2323681D01*
X164531Y-2323797D01*
X164492Y-2323911D01*
X164449Y-2324023D01*
X164403Y-2324135D01*
X164354Y-2324245D01*
X164300Y-2324353D01*
X164244Y-2324459D01*
X164184Y-2324564D01*
X164121Y-2324667D01*
X164055Y-2324767D01*
X163986Y-2324866D01*
X163913Y-2324962D01*
X163838Y-2325056D01*
X163760Y-2325148D01*
X163678Y-2325237D01*
X163594Y-2325324D01*
X163508Y-2325408D01*
X163419Y-2325489D01*
X163327Y-2325567D01*
X163233Y-2325642D01*
X163136Y-2325714D01*
X163038Y-2325784D01*
X162937Y-2325850D01*
X162834Y-2325913D01*
X162729Y-2325972D01*
X162623Y-2326029D01*
X162514Y-2326082D01*
X162405Y-2326131D01*
X162293Y-2326177D01*
X162180Y-2326220D01*
X162066Y-2326258D01*
X159413Y-2320621D02*
X159493Y-2320541D01*
X159575Y-2320463D01*
X159659Y-2320389D01*
X159747Y-2320317D01*
X159837Y-2320249D01*
X159929Y-2320183D01*
X160023Y-2320121D01*
X160119Y-2320063D01*
X160218Y-2320008D01*
X160318Y-2319956D01*
X160420Y-2319908D01*
X160524Y-2319863D01*
X160629Y-2319823D01*
X160736Y-2319786D01*
X160844Y-2319752D01*
X160953Y-2319723D01*
X161063Y-2319697D01*
X161174Y-2319676D01*
X161285Y-2319658D01*
X161397Y-2319644D01*
X161509Y-2319634D01*
X161622Y-2319628D01*
X161735Y-2319626D01*
X159413Y-2320622D02*
X152781Y-2326259D01*
X152781Y-2319627D01*
X158750Y-2314829D02*
X158985Y-2314826D01*
X159220Y-2314818D01*
X159454Y-2314804D01*
X159688Y-2314784D01*
X159922Y-2314759D01*
X160154Y-2314728D01*
X160386Y-2314692D01*
X160618Y-2314650D01*
X160848Y-2314603D01*
X161076Y-2314550D01*
X161304Y-2314492D01*
X161530Y-2314428D01*
X161754Y-2314359D01*
X161977Y-2314285D01*
X162198Y-2314205D01*
X162417Y-2314120D01*
X162634Y-2314030D01*
X162849Y-2313935D01*
X163061Y-2313834D01*
X163153Y-2313801D01*
X163244Y-2313763D01*
X163333Y-2313722D01*
X163421Y-2313678D01*
X163506Y-2313630D01*
X163590Y-2313579D01*
X163672Y-2313524D01*
X163751Y-2313466D01*
X163828Y-2313405D01*
X163902Y-2313341D01*
X163974Y-2313274D01*
X164043Y-2313204D01*
X164109Y-2313132D01*
X164173Y-2313057D01*
X164233Y-2312979D01*
X164290Y-2312899D01*
X164344Y-2312817D01*
X164394Y-2312733D01*
X164441Y-2312647D01*
X164485Y-2312559D01*
X164525Y-2312469D01*
X164562Y-2312378D01*
X164594Y-2312285D01*
X164623Y-2312191D01*
X164649Y-2312097D01*
X164670Y-2312001D01*
X164688Y-2311904D01*
X164701Y-2311807D01*
X164711Y-2311709D01*
X164717Y-2311611D01*
X164719Y-2311513D01*
X164717Y-2311415D01*
X164711Y-2311317D01*
X164701Y-2311219D01*
X164688Y-2311122D01*
X164670Y-2311025D01*
X164649Y-2310929D01*
X164623Y-2310835D01*
X164594Y-2310741D01*
X164562Y-2310648D01*
X164525Y-2310557D01*
X164485Y-2310467D01*
X164441Y-2310379D01*
X164394Y-2310293D01*
X164344Y-2310209D01*
X164290Y-2310127D01*
X164233Y-2310047D01*
X164173Y-2309969D01*
X164109Y-2309894D01*
X164043Y-2309822D01*
X163974Y-2309752D01*
X163902Y-2309685D01*
X163828Y-2309621D01*
X163751Y-2309560D01*
X163672Y-2309502D01*
X163590Y-2309447D01*
X163506Y-2309396D01*
X163421Y-2309348D01*
X163333Y-2309304D01*
X163244Y-2309263D01*
X163153Y-2309225D01*
X163061Y-2309192D01*
X162849Y-2309091D01*
X162634Y-2308996D01*
X162417Y-2308906D01*
X162198Y-2308821D01*
X161977Y-2308741D01*
X161755Y-2308667D01*
X161530Y-2308598D01*
X161304Y-2308534D01*
X161076Y-2308476D01*
X160848Y-2308423D01*
X160618Y-2308376D01*
X160386Y-2308334D01*
X160154Y-2308298D01*
X159922Y-2308267D01*
X159688Y-2308242D01*
X159454Y-2308222D01*
X159220Y-2308208D01*
X158985Y-2308200D01*
X158750Y-2308197D01*
X158750Y-2314829D02*
X158515Y-2314826D01*
X158280Y-2314818D01*
X158046Y-2314804D01*
X157812Y-2314784D01*
X157578Y-2314759D01*
X157346Y-2314728D01*
X157114Y-2314692D01*
X156883Y-2314650D01*
X156652Y-2314603D01*
X156424Y-2314550D01*
X156196Y-2314492D01*
X155970Y-2314428D01*
X155746Y-2314359D01*
X155523Y-2314285D01*
X155302Y-2314205D01*
X155083Y-2314120D01*
X154866Y-2314030D01*
X154651Y-2313935D01*
X154439Y-2313834D01*
X154347Y-2313801D01*
X154256Y-2313763D01*
X154167Y-2313722D01*
X154079Y-2313678D01*
X153994Y-2313630D01*
X153910Y-2313579D01*
X153828Y-2313524D01*
X153749Y-2313466D01*
X153672Y-2313405D01*
X153598Y-2313341D01*
X153526Y-2313274D01*
X153457Y-2313204D01*
X153391Y-2313132D01*
X153327Y-2313057D01*
X153267Y-2312979D01*
X153210Y-2312899D01*
X153156Y-2312817D01*
X153106Y-2312733D01*
X153059Y-2312647D01*
X153015Y-2312559D01*
X152975Y-2312469D01*
X152938Y-2312378D01*
X152906Y-2312285D01*
X152877Y-2312191D01*
X152851Y-2312097D01*
X152830Y-2312001D01*
X152812Y-2311904D01*
X152799Y-2311807D01*
X152789Y-2311709D01*
X152783Y-2311611D01*
X152781Y-2311513D01*
X154439Y-2309192D02*
X154651Y-2309091D01*
X154866Y-2308996D01*
X155083Y-2308906D01*
X155302Y-2308821D01*
X155523Y-2308741D01*
X155746Y-2308667D01*
X155970Y-2308598D01*
X156196Y-2308534D01*
X156424Y-2308476D01*
X156652Y-2308423D01*
X156882Y-2308376D01*
X157114Y-2308334D01*
X157346Y-2308298D01*
X157578Y-2308267D01*
X157812Y-2308242D01*
X158046Y-2308222D01*
X158280Y-2308208D01*
X158515Y-2308200D01*
X158750Y-2308197D01*
X154439Y-2309192D02*
X154347Y-2309225D01*
X154256Y-2309263D01*
X154167Y-2309304D01*
X154079Y-2309348D01*
X153994Y-2309396D01*
X153910Y-2309448D01*
X153828Y-2309502D01*
X153749Y-2309560D01*
X153672Y-2309621D01*
X153598Y-2309685D01*
X153526Y-2309752D01*
X153457Y-2309822D01*
X153391Y-2309894D01*
X153327Y-2309969D01*
X153267Y-2310047D01*
X153210Y-2310127D01*
X153156Y-2310209D01*
X153106Y-2310293D01*
X153059Y-2310379D01*
X153015Y-2310467D01*
X152975Y-2310557D01*
X152938Y-2310648D01*
X152906Y-2310741D01*
X152877Y-2310835D01*
X152851Y-2310929D01*
X152830Y-2311025D01*
X152812Y-2311122D01*
X152799Y-2311219D01*
X152789Y-2311317D01*
X152783Y-2311415D01*
X152781Y-2311513D01*
X155434Y-2314166D02*
X162066Y-2308860D01*
X162066Y-2303399D02*
X164719Y-2300083D01*
X152781Y-2300083D01*
X152781Y-2303399D02*
X152781Y-2296767D01*
X158750Y-2291969D02*
X158985Y-2291966D01*
X159220Y-2291958D01*
X159454Y-2291944D01*
X159688Y-2291924D01*
X159922Y-2291899D01*
X160154Y-2291868D01*
X160386Y-2291832D01*
X160618Y-2291790D01*
X160848Y-2291743D01*
X161076Y-2291690D01*
X161304Y-2291632D01*
X161530Y-2291568D01*
X161754Y-2291499D01*
X161977Y-2291425D01*
X162198Y-2291345D01*
X162417Y-2291260D01*
X162634Y-2291170D01*
X162849Y-2291075D01*
X163061Y-2290974D01*
X163153Y-2290941D01*
X163244Y-2290903D01*
X163333Y-2290862D01*
X163421Y-2290818D01*
X163506Y-2290770D01*
X163590Y-2290719D01*
X163672Y-2290664D01*
X163751Y-2290606D01*
X163828Y-2290545D01*
X163902Y-2290481D01*
X163974Y-2290414D01*
X164043Y-2290344D01*
X164109Y-2290272D01*
X164173Y-2290197D01*
X164233Y-2290119D01*
X164290Y-2290039D01*
X164344Y-2289957D01*
X164394Y-2289873D01*
X164441Y-2289787D01*
X164485Y-2289699D01*
X164525Y-2289609D01*
X164562Y-2289518D01*
X164594Y-2289425D01*
X164623Y-2289331D01*
X164649Y-2289237D01*
X164670Y-2289141D01*
X164688Y-2289044D01*
X164701Y-2288947D01*
X164711Y-2288849D01*
X164717Y-2288751D01*
X164719Y-2288653D01*
X164717Y-2288555D01*
X164711Y-2288457D01*
X164701Y-2288359D01*
X164688Y-2288262D01*
X164670Y-2288165D01*
X164649Y-2288069D01*
X164623Y-2287975D01*
X164594Y-2287881D01*
X164562Y-2287788D01*
X164525Y-2287697D01*
X164485Y-2287607D01*
X164441Y-2287519D01*
X164394Y-2287433D01*
X164344Y-2287349D01*
X164290Y-2287267D01*
X164233Y-2287187D01*
X164173Y-2287109D01*
X164109Y-2287034D01*
X164043Y-2286962D01*
X163974Y-2286892D01*
X163902Y-2286825D01*
X163828Y-2286761D01*
X163751Y-2286700D01*
X163672Y-2286642D01*
X163590Y-2286587D01*
X163506Y-2286536D01*
X163421Y-2286488D01*
X163333Y-2286444D01*
X163244Y-2286403D01*
X163153Y-2286365D01*
X163061Y-2286332D01*
X162849Y-2286231D01*
X162634Y-2286136D01*
X162417Y-2286046D01*
X162198Y-2285961D01*
X161977Y-2285881D01*
X161755Y-2285807D01*
X161530Y-2285738D01*
X161304Y-2285674D01*
X161076Y-2285616D01*
X160848Y-2285563D01*
X160618Y-2285516D01*
X160386Y-2285474D01*
X160154Y-2285438D01*
X159922Y-2285407D01*
X159688Y-2285382D01*
X159454Y-2285362D01*
X159220Y-2285348D01*
X158985Y-2285340D01*
X158750Y-2285337D01*
X158750Y-2291969D02*
X158515Y-2291966D01*
X158280Y-2291958D01*
X158046Y-2291944D01*
X157812Y-2291924D01*
X157578Y-2291899D01*
X157346Y-2291868D01*
X157114Y-2291832D01*
X156883Y-2291790D01*
X156652Y-2291743D01*
X156424Y-2291690D01*
X156196Y-2291632D01*
X155970Y-2291568D01*
X155746Y-2291499D01*
X155523Y-2291425D01*
X155302Y-2291345D01*
X155083Y-2291260D01*
X154866Y-2291170D01*
X154651Y-2291075D01*
X154439Y-2290974D01*
X154347Y-2290941D01*
X154256Y-2290903D01*
X154167Y-2290862D01*
X154079Y-2290818D01*
X153994Y-2290770D01*
X153910Y-2290719D01*
X153828Y-2290664D01*
X153749Y-2290606D01*
X153672Y-2290545D01*
X153598Y-2290481D01*
X153526Y-2290414D01*
X153457Y-2290344D01*
X153391Y-2290272D01*
X153327Y-2290197D01*
X153267Y-2290119D01*
X153210Y-2290039D01*
X153156Y-2289957D01*
X153106Y-2289873D01*
X153059Y-2289787D01*
X153015Y-2289699D01*
X152975Y-2289609D01*
X152938Y-2289518D01*
X152906Y-2289425D01*
X152877Y-2289331D01*
X152851Y-2289237D01*
X152830Y-2289141D01*
X152812Y-2289044D01*
X152799Y-2288947D01*
X152789Y-2288849D01*
X152783Y-2288751D01*
X152781Y-2288653D01*
X154439Y-2286332D02*
X154651Y-2286231D01*
X154866Y-2286136D01*
X155083Y-2286046D01*
X155302Y-2285961D01*
X155523Y-2285881D01*
X155746Y-2285807D01*
X155970Y-2285738D01*
X156196Y-2285674D01*
X156424Y-2285616D01*
X156652Y-2285563D01*
X156882Y-2285516D01*
X157114Y-2285474D01*
X157346Y-2285438D01*
X157578Y-2285407D01*
X157812Y-2285382D01*
X158046Y-2285362D01*
X158280Y-2285348D01*
X158515Y-2285340D01*
X158750Y-2285337D01*
X154439Y-2286332D02*
X154347Y-2286365D01*
X154256Y-2286403D01*
X154167Y-2286444D01*
X154079Y-2286488D01*
X153994Y-2286536D01*
X153910Y-2286588D01*
X153828Y-2286642D01*
X153749Y-2286700D01*
X153672Y-2286761D01*
X153598Y-2286825D01*
X153526Y-2286892D01*
X153457Y-2286962D01*
X153391Y-2287034D01*
X153327Y-2287109D01*
X153267Y-2287187D01*
X153210Y-2287267D01*
X153156Y-2287349D01*
X153106Y-2287433D01*
X153059Y-2287519D01*
X153015Y-2287607D01*
X152975Y-2287697D01*
X152938Y-2287788D01*
X152906Y-2287881D01*
X152877Y-2287975D01*
X152851Y-2288069D01*
X152830Y-2288165D01*
X152812Y-2288262D01*
X152799Y-2288359D01*
X152789Y-2288457D01*
X152783Y-2288555D01*
X152781Y-2288653D01*
X155434Y-2291306D02*
X162066Y-2286000D01*
X164720Y-2276891D02*
X164718Y-2276784D01*
X164712Y-2276678D01*
X164703Y-2276572D01*
X164690Y-2276466D01*
X164673Y-2276361D01*
X164652Y-2276256D01*
X164627Y-2276153D01*
X164599Y-2276050D01*
X164567Y-2275948D01*
X164532Y-2275848D01*
X164493Y-2275749D01*
X164450Y-2275651D01*
X164404Y-2275555D01*
X164355Y-2275460D01*
X164302Y-2275368D01*
X164246Y-2275277D01*
X164187Y-2275189D01*
X164125Y-2275102D01*
X164059Y-2275018D01*
X163991Y-2274936D01*
X163920Y-2274857D01*
X163846Y-2274780D01*
X163769Y-2274706D01*
X163690Y-2274635D01*
X163608Y-2274567D01*
X163524Y-2274501D01*
X163437Y-2274439D01*
X163349Y-2274380D01*
X163258Y-2274324D01*
X163166Y-2274271D01*
X163071Y-2274222D01*
X162975Y-2274176D01*
X162877Y-2274133D01*
X162778Y-2274094D01*
X162678Y-2274059D01*
X162576Y-2274027D01*
X162473Y-2273999D01*
X162370Y-2273974D01*
X162265Y-2273953D01*
X162160Y-2273936D01*
X162054Y-2273923D01*
X161948Y-2273914D01*
X161842Y-2273908D01*
X161735Y-2273906D01*
X164719Y-2276891D02*
X164717Y-2277012D01*
X164711Y-2277132D01*
X164702Y-2277252D01*
X164689Y-2277372D01*
X164672Y-2277491D01*
X164651Y-2277610D01*
X164627Y-2277728D01*
X164598Y-2277845D01*
X164567Y-2277961D01*
X164531Y-2278077D01*
X164492Y-2278191D01*
X164449Y-2278303D01*
X164403Y-2278415D01*
X164354Y-2278525D01*
X164300Y-2278633D01*
X164244Y-2278739D01*
X164184Y-2278844D01*
X164121Y-2278947D01*
X164055Y-2279047D01*
X163986Y-2279146D01*
X163913Y-2279242D01*
X163838Y-2279336D01*
X163760Y-2279428D01*
X163678Y-2279517D01*
X163594Y-2279604D01*
X163508Y-2279688D01*
X163419Y-2279769D01*
X163327Y-2279847D01*
X163233Y-2279922D01*
X163136Y-2279994D01*
X163038Y-2280064D01*
X162937Y-2280130D01*
X162834Y-2280193D01*
X162729Y-2280252D01*
X162623Y-2280309D01*
X162514Y-2280362D01*
X162405Y-2280411D01*
X162293Y-2280457D01*
X162180Y-2280500D01*
X162066Y-2280538D01*
X159413Y-2274902D02*
X159493Y-2274822D01*
X159575Y-2274744D01*
X159659Y-2274670D01*
X159747Y-2274598D01*
X159837Y-2274530D01*
X159929Y-2274464D01*
X160023Y-2274402D01*
X160119Y-2274344D01*
X160218Y-2274289D01*
X160318Y-2274237D01*
X160420Y-2274189D01*
X160524Y-2274144D01*
X160629Y-2274104D01*
X160736Y-2274067D01*
X160844Y-2274033D01*
X160953Y-2274004D01*
X161063Y-2273978D01*
X161174Y-2273957D01*
X161285Y-2273939D01*
X161397Y-2273925D01*
X161509Y-2273915D01*
X161622Y-2273909D01*
X161735Y-2273907D01*
X159413Y-2274902D02*
X152781Y-2280539D01*
X152781Y-2273907D01*
X158750Y-2269109D02*
X158985Y-2269106D01*
X159220Y-2269098D01*
X159454Y-2269084D01*
X159688Y-2269064D01*
X159922Y-2269039D01*
X160154Y-2269008D01*
X160386Y-2268972D01*
X160618Y-2268930D01*
X160848Y-2268883D01*
X161076Y-2268830D01*
X161304Y-2268772D01*
X161530Y-2268708D01*
X161754Y-2268639D01*
X161977Y-2268565D01*
X162198Y-2268485D01*
X162417Y-2268400D01*
X162634Y-2268310D01*
X162849Y-2268215D01*
X163061Y-2268114D01*
X163153Y-2268081D01*
X163244Y-2268043D01*
X163333Y-2268002D01*
X163421Y-2267958D01*
X163506Y-2267910D01*
X163590Y-2267859D01*
X163672Y-2267804D01*
X163751Y-2267746D01*
X163828Y-2267685D01*
X163902Y-2267621D01*
X163974Y-2267554D01*
X164043Y-2267484D01*
X164109Y-2267412D01*
X164173Y-2267337D01*
X164233Y-2267259D01*
X164290Y-2267179D01*
X164344Y-2267097D01*
X164394Y-2267013D01*
X164441Y-2266927D01*
X164485Y-2266839D01*
X164525Y-2266749D01*
X164562Y-2266658D01*
X164594Y-2266565D01*
X164623Y-2266471D01*
X164649Y-2266377D01*
X164670Y-2266281D01*
X164688Y-2266184D01*
X164701Y-2266087D01*
X164711Y-2265989D01*
X164717Y-2265891D01*
X164719Y-2265793D01*
X164717Y-2265695D01*
X164711Y-2265597D01*
X164701Y-2265499D01*
X164688Y-2265402D01*
X164670Y-2265305D01*
X164649Y-2265209D01*
X164623Y-2265115D01*
X164594Y-2265021D01*
X164562Y-2264928D01*
X164525Y-2264837D01*
X164485Y-2264747D01*
X164441Y-2264659D01*
X164394Y-2264573D01*
X164344Y-2264489D01*
X164290Y-2264407D01*
X164233Y-2264327D01*
X164173Y-2264249D01*
X164109Y-2264174D01*
X164043Y-2264102D01*
X163974Y-2264032D01*
X163902Y-2263965D01*
X163828Y-2263901D01*
X163751Y-2263840D01*
X163672Y-2263782D01*
X163590Y-2263727D01*
X163506Y-2263676D01*
X163421Y-2263628D01*
X163333Y-2263584D01*
X163244Y-2263543D01*
X163153Y-2263505D01*
X163061Y-2263472D01*
X162849Y-2263371D01*
X162634Y-2263276D01*
X162417Y-2263186D01*
X162198Y-2263101D01*
X161977Y-2263021D01*
X161755Y-2262947D01*
X161530Y-2262878D01*
X161304Y-2262814D01*
X161076Y-2262756D01*
X160848Y-2262703D01*
X160618Y-2262656D01*
X160386Y-2262614D01*
X160154Y-2262578D01*
X159922Y-2262547D01*
X159688Y-2262522D01*
X159454Y-2262502D01*
X159220Y-2262488D01*
X158985Y-2262480D01*
X158750Y-2262477D01*
X158750Y-2269109D02*
X158515Y-2269106D01*
X158280Y-2269098D01*
X158046Y-2269084D01*
X157812Y-2269064D01*
X157578Y-2269039D01*
X157346Y-2269008D01*
X157114Y-2268972D01*
X156883Y-2268930D01*
X156652Y-2268883D01*
X156424Y-2268830D01*
X156196Y-2268772D01*
X155970Y-2268708D01*
X155746Y-2268639D01*
X155523Y-2268565D01*
X155302Y-2268485D01*
X155083Y-2268400D01*
X154866Y-2268310D01*
X154651Y-2268215D01*
X154439Y-2268114D01*
X154347Y-2268081D01*
X154256Y-2268043D01*
X154167Y-2268002D01*
X154079Y-2267958D01*
X153994Y-2267910D01*
X153910Y-2267859D01*
X153828Y-2267804D01*
X153749Y-2267746D01*
X153672Y-2267685D01*
X153598Y-2267621D01*
X153526Y-2267554D01*
X153457Y-2267484D01*
X153391Y-2267412D01*
X153327Y-2267337D01*
X153267Y-2267259D01*
X153210Y-2267179D01*
X153156Y-2267097D01*
X153106Y-2267013D01*
X153059Y-2266927D01*
X153015Y-2266839D01*
X152975Y-2266749D01*
X152938Y-2266658D01*
X152906Y-2266565D01*
X152877Y-2266471D01*
X152851Y-2266377D01*
X152830Y-2266281D01*
X152812Y-2266184D01*
X152799Y-2266087D01*
X152789Y-2265989D01*
X152783Y-2265891D01*
X152781Y-2265793D01*
X154439Y-2263472D02*
X154651Y-2263371D01*
X154866Y-2263276D01*
X155083Y-2263186D01*
X155302Y-2263101D01*
X155523Y-2263021D01*
X155746Y-2262947D01*
X155970Y-2262878D01*
X156196Y-2262814D01*
X156424Y-2262756D01*
X156652Y-2262703D01*
X156882Y-2262656D01*
X157114Y-2262614D01*
X157346Y-2262578D01*
X157578Y-2262547D01*
X157812Y-2262522D01*
X158046Y-2262502D01*
X158280Y-2262488D01*
X158515Y-2262480D01*
X158750Y-2262477D01*
X154439Y-2263472D02*
X154347Y-2263505D01*
X154256Y-2263543D01*
X154167Y-2263584D01*
X154079Y-2263628D01*
X153994Y-2263676D01*
X153910Y-2263728D01*
X153828Y-2263782D01*
X153749Y-2263840D01*
X153672Y-2263901D01*
X153598Y-2263965D01*
X153526Y-2264032D01*
X153457Y-2264102D01*
X153391Y-2264174D01*
X153327Y-2264249D01*
X153267Y-2264327D01*
X153210Y-2264407D01*
X153156Y-2264489D01*
X153106Y-2264573D01*
X153059Y-2264659D01*
X153015Y-2264747D01*
X152975Y-2264837D01*
X152938Y-2264928D01*
X152906Y-2265021D01*
X152877Y-2265115D01*
X152851Y-2265209D01*
X152830Y-2265305D01*
X152812Y-2265402D01*
X152799Y-2265499D01*
X152789Y-2265597D01*
X152783Y-2265695D01*
X152781Y-2265793D01*
X155434Y-2268446D02*
X162066Y-2263140D01*
X151455Y-2258159D02*
X151455Y-2252853D01*
X152781Y-2248006D02*
X164719Y-2248006D01*
X164719Y-2241374D02*
X157424Y-2248006D01*
X160076Y-2245353D02*
X152781Y-2241374D01*
X152781Y-2236705D02*
X152781Y-2231399D01*
X152781Y-2236705D02*
X164719Y-2236705D01*
X164719Y-2231399D01*
X159413Y-2232725D02*
X159413Y-2236705D01*
X164719Y-2227863D02*
X159082Y-2223883D01*
X164719Y-2219904D01*
X159082Y-2223883D02*
X152781Y-2223883D01*
M02*
