G04 EAGLE Gerber RS-274X export*
G75*
%MOMM*%
%FSLAX34Y34*%
%LPD*%
%INSoldermask Top*%
%IPPOS*%
%AMOC8*
5,1,8,0,0,1.08239X$1,22.5*%
G01*
%ADD10R,1.000000X1.100000*%
%ADD11R,1.100000X1.000000*%
%ADD12R,1.500000X1.240000*%
%ADD13R,1.075000X1.000000*%
%ADD14R,1.240000X1.500000*%
%ADD15R,1.200000X0.550000*%
%ADD16R,0.900000X0.900000*%
%ADD17R,1.200000X1.200000*%
%ADD18R,1.000000X1.075000*%
%ADD19R,0.900000X0.800000*%
%ADD20R,1.200000X0.900000*%
%ADD21R,0.900000X1.200000*%
%ADD22R,6.000000X6.000000*%
%ADD23C,0.155000*%
%ADD24C,0.195000*%
%ADD25R,0.736600X3.251200*%
%ADD26C,0.900000*%
%ADD27R,0.700000X0.700000*%
%ADD28R,1.400000X1.400000*%
%ADD29R,0.400000X1.240000*%
%ADD30R,0.700000X1.240000*%
%ADD31C,0.600000*%
%ADD32C,3.251200*%

G36*
X-189260Y-362101D02*
X-189260Y-362101D01*
X-189256Y-362106D01*
X-188146Y-361958D01*
X-188143Y-361955D01*
X-188141Y-361957D01*
X-177467Y-359296D01*
X-177465Y-359293D01*
X-177462Y-359294D01*
X-176413Y-358903D01*
X-176409Y-358896D01*
X-176403Y-358898D01*
X-175467Y-358284D01*
X-175464Y-358276D01*
X-175459Y-358277D01*
X-174683Y-357470D01*
X-174682Y-357461D01*
X-174676Y-357461D01*
X-174099Y-356501D01*
X-174100Y-356493D01*
X-174095Y-356491D01*
X-173746Y-355427D01*
X-173748Y-355423D01*
X-173745Y-355421D01*
X-173747Y-355418D01*
X-173744Y-355416D01*
X-173641Y-354301D01*
X-173645Y-354294D01*
X-173641Y-354290D01*
X-173789Y-353180D01*
X-173794Y-353175D01*
X-173791Y-353170D01*
X-174168Y-352128D01*
X-174174Y-352123D01*
X-174172Y-352118D01*
X-174771Y-351185D01*
X-174779Y-351182D01*
X-174778Y-351176D01*
X-175570Y-350400D01*
X-175578Y-350399D01*
X-175579Y-350394D01*
X-176523Y-349813D01*
X-176531Y-349814D01*
X-176533Y-349808D01*
X-177583Y-349453D01*
X-177590Y-349455D01*
X-177593Y-349450D01*
X-178696Y-349337D01*
X-178703Y-349341D01*
X-178707Y-349337D01*
X-179807Y-349472D01*
X-179811Y-349475D01*
X-179813Y-349473D01*
X-190487Y-352134D01*
X-190489Y-352137D01*
X-190491Y-352136D01*
X-191555Y-352520D01*
X-191560Y-352527D01*
X-191565Y-352525D01*
X-192516Y-353136D01*
X-192519Y-353144D01*
X-192525Y-353143D01*
X-193317Y-353951D01*
X-193318Y-353959D01*
X-193323Y-353959D01*
X-193915Y-354923D01*
X-193915Y-354931D01*
X-193920Y-354933D01*
X-194283Y-356004D01*
X-194280Y-356012D01*
X-194285Y-356015D01*
X-194401Y-357140D01*
X-194396Y-357147D01*
X-194400Y-357151D01*
X-194263Y-358273D01*
X-194257Y-358279D01*
X-194260Y-358285D01*
X-193869Y-359334D01*
X-193862Y-359338D01*
X-193864Y-359344D01*
X-193250Y-360280D01*
X-193242Y-360282D01*
X-193243Y-360288D01*
X-192435Y-361064D01*
X-192427Y-361065D01*
X-192426Y-361070D01*
X-191467Y-361647D01*
X-191459Y-361646D01*
X-191457Y-361652D01*
X-190393Y-362000D01*
X-190385Y-361998D01*
X-190382Y-362003D01*
X-189267Y-362106D01*
X-189260Y-362101D01*
G37*
G36*
X-210186Y-278171D02*
X-210186Y-278171D01*
X-210182Y-278175D01*
X-209072Y-278027D01*
X-209069Y-278024D01*
X-209067Y-278026D01*
X-198394Y-275365D01*
X-198391Y-275362D01*
X-198388Y-275364D01*
X-197339Y-274973D01*
X-197335Y-274966D01*
X-197329Y-274968D01*
X-196393Y-274353D01*
X-196391Y-274346D01*
X-196385Y-274346D01*
X-195609Y-273539D01*
X-195608Y-273531D01*
X-195602Y-273530D01*
X-195026Y-272570D01*
X-195027Y-272562D01*
X-195021Y-272560D01*
X-194672Y-271496D01*
X-194674Y-271492D01*
X-194672Y-271491D01*
X-194674Y-271488D01*
X-194670Y-271486D01*
X-194567Y-270371D01*
X-194571Y-270364D01*
X-194567Y-270360D01*
X-194715Y-269250D01*
X-194721Y-269244D01*
X-194718Y-269239D01*
X-195108Y-268190D01*
X-195115Y-268186D01*
X-195113Y-268180D01*
X-195728Y-267244D01*
X-195736Y-267241D01*
X-195735Y-267236D01*
X-196542Y-266460D01*
X-196550Y-266459D01*
X-196551Y-266453D01*
X-197511Y-265877D01*
X-197519Y-265877D01*
X-197521Y-265872D01*
X-198585Y-265523D01*
X-198592Y-265526D01*
X-198595Y-265521D01*
X-199710Y-265418D01*
X-199713Y-265420D01*
X-199720Y-265420D01*
X-199721Y-265418D01*
X-200831Y-265566D01*
X-200833Y-265567D01*
X-200835Y-265568D01*
X-200837Y-265567D01*
X-211510Y-268228D01*
X-211513Y-268231D01*
X-211515Y-268230D01*
X-212564Y-268620D01*
X-212569Y-268627D01*
X-212574Y-268625D01*
X-213510Y-269240D01*
X-213513Y-269247D01*
X-213519Y-269247D01*
X-214294Y-270054D01*
X-214295Y-270062D01*
X-214301Y-270063D01*
X-214878Y-271023D01*
X-214877Y-271031D01*
X-214882Y-271033D01*
X-215231Y-272097D01*
X-215229Y-272102D01*
X-215232Y-272104D01*
X-215231Y-272106D01*
X-215233Y-272107D01*
X-215336Y-273222D01*
X-215332Y-273229D01*
X-215336Y-273233D01*
X-215189Y-274343D01*
X-215183Y-274349D01*
X-215186Y-274354D01*
X-214795Y-275403D01*
X-214788Y-275408D01*
X-214790Y-275413D01*
X-214176Y-276349D01*
X-214168Y-276352D01*
X-214169Y-276357D01*
X-213361Y-277133D01*
X-213353Y-277134D01*
X-213353Y-277140D01*
X-212393Y-277717D01*
X-212385Y-277716D01*
X-212383Y-277721D01*
X-211319Y-278070D01*
X-211311Y-278067D01*
X-211308Y-278072D01*
X-210193Y-278175D01*
X-210186Y-278171D01*
G37*
G36*
X-249192Y-287896D02*
X-249192Y-287896D01*
X-249188Y-287900D01*
X-248078Y-287753D01*
X-248075Y-287750D01*
X-248073Y-287752D01*
X-240310Y-285816D01*
X-240308Y-285813D01*
X-240305Y-285815D01*
X-239256Y-285424D01*
X-239252Y-285417D01*
X-239246Y-285419D01*
X-238310Y-284804D01*
X-238307Y-284797D01*
X-238302Y-284797D01*
X-237526Y-283990D01*
X-237525Y-283982D01*
X-237519Y-283981D01*
X-236943Y-283022D01*
X-236943Y-283013D01*
X-236938Y-283011D01*
X-236589Y-281948D01*
X-236592Y-281940D01*
X-236587Y-281937D01*
X-236484Y-280822D01*
X-236488Y-280815D01*
X-236484Y-280811D01*
X-236632Y-279701D01*
X-236637Y-279695D01*
X-236634Y-279690D01*
X-237025Y-278641D01*
X-237032Y-278637D01*
X-237030Y-278631D01*
X-237645Y-277695D01*
X-237652Y-277692D01*
X-237652Y-277687D01*
X-238459Y-276911D01*
X-238467Y-276910D01*
X-238468Y-276904D01*
X-239427Y-276328D01*
X-239436Y-276328D01*
X-239437Y-276323D01*
X-240501Y-275974D01*
X-240509Y-275977D01*
X-240512Y-275972D01*
X-241627Y-275869D01*
X-241634Y-275873D01*
X-241638Y-275869D01*
X-242748Y-276017D01*
X-242751Y-276020D01*
X-242753Y-276018D01*
X-250516Y-277953D01*
X-250518Y-277956D01*
X-250521Y-277955D01*
X-251570Y-278346D01*
X-251575Y-278353D01*
X-251580Y-278351D01*
X-252516Y-278965D01*
X-252519Y-278973D01*
X-252525Y-278972D01*
X-253300Y-279779D01*
X-253301Y-279788D01*
X-253307Y-279788D01*
X-253884Y-280748D01*
X-253883Y-280756D01*
X-253888Y-280758D01*
X-254237Y-281822D01*
X-254235Y-281827D01*
X-254238Y-281830D01*
X-254237Y-281831D01*
X-254239Y-281833D01*
X-254342Y-282948D01*
X-254338Y-282955D01*
X-254342Y-282959D01*
X-254195Y-284069D01*
X-254189Y-284074D01*
X-254192Y-284079D01*
X-253801Y-285128D01*
X-253794Y-285133D01*
X-253796Y-285138D01*
X-253182Y-286074D01*
X-253174Y-286077D01*
X-253175Y-286083D01*
X-252367Y-286858D01*
X-252359Y-286859D01*
X-252359Y-286865D01*
X-251399Y-287442D01*
X-251391Y-287441D01*
X-251389Y-287446D01*
X-250325Y-287795D01*
X-250317Y-287792D01*
X-250314Y-287797D01*
X-249199Y-287900D01*
X-249192Y-287896D01*
G37*
G36*
X-228266Y-371827D02*
X-228266Y-371827D01*
X-228262Y-371831D01*
X-227152Y-371683D01*
X-227149Y-371680D01*
X-227147Y-371682D01*
X-219384Y-369747D01*
X-219382Y-369744D01*
X-219379Y-369745D01*
X-218330Y-369354D01*
X-218325Y-369347D01*
X-218320Y-369349D01*
X-217384Y-368735D01*
X-217381Y-368727D01*
X-217375Y-368728D01*
X-216600Y-367921D01*
X-216599Y-367912D01*
X-216593Y-367912D01*
X-216016Y-366952D01*
X-216017Y-366944D01*
X-216012Y-366942D01*
X-215663Y-365878D01*
X-215666Y-365870D01*
X-215661Y-365867D01*
X-215558Y-364752D01*
X-215562Y-364745D01*
X-215558Y-364741D01*
X-215705Y-363631D01*
X-215711Y-363626D01*
X-215708Y-363621D01*
X-216099Y-362572D01*
X-216106Y-362567D01*
X-216104Y-362562D01*
X-216718Y-361626D01*
X-216726Y-361623D01*
X-216725Y-361617D01*
X-217533Y-360842D01*
X-217541Y-360841D01*
X-217541Y-360835D01*
X-218501Y-360258D01*
X-218509Y-360259D01*
X-218511Y-360254D01*
X-219575Y-359905D01*
X-219583Y-359908D01*
X-219586Y-359903D01*
X-220701Y-359800D01*
X-220708Y-359804D01*
X-220712Y-359800D01*
X-221822Y-359947D01*
X-221825Y-359950D01*
X-221827Y-359948D01*
X-229590Y-361884D01*
X-229592Y-361887D01*
X-229595Y-361885D01*
X-230644Y-362276D01*
X-230648Y-362283D01*
X-230654Y-362281D01*
X-231590Y-362896D01*
X-231593Y-362903D01*
X-231598Y-362903D01*
X-232374Y-363710D01*
X-232375Y-363718D01*
X-232381Y-363719D01*
X-232957Y-364678D01*
X-232957Y-364687D01*
X-232962Y-364689D01*
X-233311Y-365752D01*
X-233309Y-365758D01*
X-233312Y-365760D01*
X-233311Y-365762D01*
X-233313Y-365763D01*
X-233416Y-366878D01*
X-233412Y-366885D01*
X-233416Y-366889D01*
X-233268Y-367999D01*
X-233263Y-368005D01*
X-233266Y-368010D01*
X-232875Y-369059D01*
X-232868Y-369063D01*
X-232870Y-369069D01*
X-232255Y-370005D01*
X-232248Y-370008D01*
X-232248Y-370013D01*
X-231441Y-370789D01*
X-231433Y-370790D01*
X-231432Y-370796D01*
X-230473Y-371372D01*
X-230464Y-371372D01*
X-230463Y-371377D01*
X-229399Y-371726D01*
X-229391Y-371723D01*
X-229388Y-371728D01*
X-228273Y-371831D01*
X-228266Y-371827D01*
G37*
D10*
X270000Y-2091500D03*
X270000Y-2108500D03*
X-270000Y-2091500D03*
X-270000Y-2108500D03*
X250000Y-1891500D03*
X250000Y-1908500D03*
X-250000Y-1891500D03*
X-250000Y-1908500D03*
X230000Y-1691500D03*
X230000Y-1708500D03*
X-220000Y-1691500D03*
X-220000Y-1708500D03*
X210000Y-1491500D03*
X210000Y-1508500D03*
X-170000Y-1091500D03*
X-170000Y-1108500D03*
X-195000Y-1491500D03*
X-195000Y-1508500D03*
X190000Y-1291500D03*
X190000Y-1308500D03*
X-180000Y-1291500D03*
X-180000Y-1308500D03*
X170000Y-1091500D03*
X170000Y-1108500D03*
X150000Y-891500D03*
X150000Y-908500D03*
X-150000Y-891500D03*
X-150000Y-908500D03*
X140000Y-691500D03*
X140000Y-708500D03*
X-140000Y-691500D03*
X-140000Y-708500D03*
X-290000Y-2291500D03*
X-290000Y-2308500D03*
X290000Y-2291500D03*
X290000Y-2308500D03*
X-230000Y-2551500D03*
X-230000Y-2568500D03*
X230000Y-2551500D03*
X230000Y-2568500D03*
D11*
X-8500Y-2920000D03*
X8500Y-2920000D03*
D12*
X-114300Y-174600D03*
X-114300Y-155600D03*
D13*
X-173600Y-196850D03*
X-156600Y-196850D03*
D14*
X-104800Y-209550D03*
X-123800Y-209550D03*
D15*
X-152099Y-174600D03*
X-152099Y-165100D03*
X-152099Y-155600D03*
X-178101Y-155600D03*
X-178101Y-174600D03*
D16*
X-20500Y-376300D03*
X-20500Y-360300D03*
X20500Y-360300D03*
X20500Y-376300D03*
D17*
X-57150Y-237150D03*
X-57150Y-258150D03*
D18*
X-38100Y-239150D03*
X-38100Y-256150D03*
D14*
X92050Y-273050D03*
X73050Y-273050D03*
D19*
X204900Y-349250D03*
X225900Y-339750D03*
X225900Y-358750D03*
X233250Y-304800D03*
X212250Y-314300D03*
X212250Y-295300D03*
D18*
X-133350Y-156600D03*
X-133350Y-173600D03*
D12*
X-107950Y-47600D03*
X-107950Y-28600D03*
D20*
X-81380Y-27570D03*
X-81380Y-40270D03*
X-81380Y-52970D03*
X-81380Y-65670D03*
X-81380Y-78370D03*
X-81380Y-91070D03*
X-81380Y-103770D03*
X-81380Y-116470D03*
X-81380Y-129170D03*
X-81380Y-141870D03*
X-81380Y-154570D03*
X-81380Y-167270D03*
X-81380Y-179970D03*
X-81380Y-192670D03*
D21*
X-53380Y-206570D03*
X-40680Y-206570D03*
X-27980Y-206570D03*
X-15280Y-206570D03*
X-2580Y-206570D03*
X10120Y-206570D03*
X22820Y-206570D03*
X35520Y-206570D03*
X48220Y-206570D03*
X60920Y-206570D03*
D20*
X88620Y-192670D03*
X88620Y-179970D03*
X88620Y-167270D03*
X88620Y-154570D03*
X88620Y-141870D03*
X88620Y-129170D03*
X88620Y-116470D03*
X88620Y-103770D03*
X88620Y-91070D03*
X88620Y-78370D03*
X88620Y-65670D03*
X88620Y-52970D03*
X88620Y-40270D03*
X88620Y-27570D03*
D22*
X7020Y-104570D03*
D13*
X-99450Y-101600D03*
X-116450Y-101600D03*
X-116450Y-120650D03*
X-99450Y-120650D03*
D18*
X-44450Y-359800D03*
X-44450Y-376800D03*
D13*
X179950Y-330200D03*
X162950Y-330200D03*
X162950Y-361950D03*
X179950Y-361950D03*
X162950Y-381000D03*
X179950Y-381000D03*
D23*
X131025Y-308475D02*
X131025Y-296925D01*
X135675Y-296925D01*
X135675Y-308475D01*
X131025Y-308475D01*
X131025Y-307003D02*
X135675Y-307003D01*
X135675Y-305531D02*
X131025Y-305531D01*
X131025Y-304059D02*
X135675Y-304059D01*
X135675Y-302587D02*
X131025Y-302587D01*
X131025Y-301115D02*
X135675Y-301115D01*
X135675Y-299643D02*
X131025Y-299643D01*
X131025Y-298171D02*
X135675Y-298171D01*
X118325Y-296925D02*
X118325Y-308475D01*
X118325Y-296925D02*
X122975Y-296925D01*
X122975Y-308475D01*
X118325Y-308475D01*
X118325Y-307003D02*
X122975Y-307003D01*
X122975Y-305531D02*
X118325Y-305531D01*
X118325Y-304059D02*
X122975Y-304059D01*
X122975Y-302587D02*
X118325Y-302587D01*
X118325Y-301115D02*
X122975Y-301115D01*
X122975Y-299643D02*
X118325Y-299643D01*
X118325Y-298171D02*
X122975Y-298171D01*
X105625Y-296925D02*
X105625Y-308475D01*
X105625Y-296925D02*
X110275Y-296925D01*
X110275Y-308475D01*
X105625Y-308475D01*
X105625Y-307003D02*
X110275Y-307003D01*
X110275Y-305531D02*
X105625Y-305531D01*
X105625Y-304059D02*
X110275Y-304059D01*
X110275Y-302587D02*
X105625Y-302587D01*
X105625Y-301115D02*
X110275Y-301115D01*
X110275Y-299643D02*
X105625Y-299643D01*
X105625Y-298171D02*
X110275Y-298171D01*
X92925Y-296925D02*
X92925Y-308475D01*
X92925Y-296925D02*
X97575Y-296925D01*
X97575Y-308475D01*
X92925Y-308475D01*
X92925Y-307003D02*
X97575Y-307003D01*
X97575Y-305531D02*
X92925Y-305531D01*
X92925Y-304059D02*
X97575Y-304059D01*
X97575Y-302587D02*
X92925Y-302587D01*
X92925Y-301115D02*
X97575Y-301115D01*
X97575Y-299643D02*
X92925Y-299643D01*
X92925Y-298171D02*
X97575Y-298171D01*
X80225Y-296925D02*
X80225Y-308475D01*
X80225Y-296925D02*
X84875Y-296925D01*
X84875Y-308475D01*
X80225Y-308475D01*
X80225Y-307003D02*
X84875Y-307003D01*
X84875Y-305531D02*
X80225Y-305531D01*
X80225Y-304059D02*
X84875Y-304059D01*
X84875Y-302587D02*
X80225Y-302587D01*
X80225Y-301115D02*
X84875Y-301115D01*
X84875Y-299643D02*
X80225Y-299643D01*
X80225Y-298171D02*
X84875Y-298171D01*
X67525Y-296925D02*
X67525Y-308475D01*
X67525Y-296925D02*
X72175Y-296925D01*
X72175Y-308475D01*
X67525Y-308475D01*
X67525Y-307003D02*
X72175Y-307003D01*
X72175Y-305531D02*
X67525Y-305531D01*
X67525Y-304059D02*
X72175Y-304059D01*
X72175Y-302587D02*
X67525Y-302587D01*
X67525Y-301115D02*
X72175Y-301115D01*
X72175Y-299643D02*
X67525Y-299643D01*
X67525Y-298171D02*
X72175Y-298171D01*
X54825Y-296925D02*
X54825Y-308475D01*
X54825Y-296925D02*
X59475Y-296925D01*
X59475Y-308475D01*
X54825Y-308475D01*
X54825Y-307003D02*
X59475Y-307003D01*
X59475Y-305531D02*
X54825Y-305531D01*
X54825Y-304059D02*
X59475Y-304059D01*
X59475Y-302587D02*
X54825Y-302587D01*
X54825Y-301115D02*
X59475Y-301115D01*
X59475Y-299643D02*
X54825Y-299643D01*
X54825Y-298171D02*
X59475Y-298171D01*
X42125Y-296925D02*
X42125Y-308475D01*
X42125Y-296925D02*
X46775Y-296925D01*
X46775Y-308475D01*
X42125Y-308475D01*
X42125Y-307003D02*
X46775Y-307003D01*
X46775Y-305531D02*
X42125Y-305531D01*
X42125Y-304059D02*
X46775Y-304059D01*
X46775Y-302587D02*
X42125Y-302587D01*
X42125Y-301115D02*
X46775Y-301115D01*
X46775Y-299643D02*
X42125Y-299643D01*
X42125Y-298171D02*
X46775Y-298171D01*
X42125Y-351925D02*
X42125Y-363475D01*
X42125Y-351925D02*
X46775Y-351925D01*
X46775Y-363475D01*
X42125Y-363475D01*
X42125Y-362003D02*
X46775Y-362003D01*
X46775Y-360531D02*
X42125Y-360531D01*
X42125Y-359059D02*
X46775Y-359059D01*
X46775Y-357587D02*
X42125Y-357587D01*
X42125Y-356115D02*
X46775Y-356115D01*
X46775Y-354643D02*
X42125Y-354643D01*
X42125Y-353171D02*
X46775Y-353171D01*
X54825Y-351925D02*
X54825Y-363475D01*
X54825Y-351925D02*
X59475Y-351925D01*
X59475Y-363475D01*
X54825Y-363475D01*
X54825Y-362003D02*
X59475Y-362003D01*
X59475Y-360531D02*
X54825Y-360531D01*
X54825Y-359059D02*
X59475Y-359059D01*
X59475Y-357587D02*
X54825Y-357587D01*
X54825Y-356115D02*
X59475Y-356115D01*
X59475Y-354643D02*
X54825Y-354643D01*
X54825Y-353171D02*
X59475Y-353171D01*
X67525Y-351925D02*
X67525Y-363475D01*
X67525Y-351925D02*
X72175Y-351925D01*
X72175Y-363475D01*
X67525Y-363475D01*
X67525Y-362003D02*
X72175Y-362003D01*
X72175Y-360531D02*
X67525Y-360531D01*
X67525Y-359059D02*
X72175Y-359059D01*
X72175Y-357587D02*
X67525Y-357587D01*
X67525Y-356115D02*
X72175Y-356115D01*
X72175Y-354643D02*
X67525Y-354643D01*
X67525Y-353171D02*
X72175Y-353171D01*
X80225Y-351925D02*
X80225Y-363475D01*
X80225Y-351925D02*
X84875Y-351925D01*
X84875Y-363475D01*
X80225Y-363475D01*
X80225Y-362003D02*
X84875Y-362003D01*
X84875Y-360531D02*
X80225Y-360531D01*
X80225Y-359059D02*
X84875Y-359059D01*
X84875Y-357587D02*
X80225Y-357587D01*
X80225Y-356115D02*
X84875Y-356115D01*
X84875Y-354643D02*
X80225Y-354643D01*
X80225Y-353171D02*
X84875Y-353171D01*
X92925Y-351925D02*
X92925Y-363475D01*
X92925Y-351925D02*
X97575Y-351925D01*
X97575Y-363475D01*
X92925Y-363475D01*
X92925Y-362003D02*
X97575Y-362003D01*
X97575Y-360531D02*
X92925Y-360531D01*
X92925Y-359059D02*
X97575Y-359059D01*
X97575Y-357587D02*
X92925Y-357587D01*
X92925Y-356115D02*
X97575Y-356115D01*
X97575Y-354643D02*
X92925Y-354643D01*
X92925Y-353171D02*
X97575Y-353171D01*
X105625Y-351925D02*
X105625Y-363475D01*
X105625Y-351925D02*
X110275Y-351925D01*
X110275Y-363475D01*
X105625Y-363475D01*
X105625Y-362003D02*
X110275Y-362003D01*
X110275Y-360531D02*
X105625Y-360531D01*
X105625Y-359059D02*
X110275Y-359059D01*
X110275Y-357587D02*
X105625Y-357587D01*
X105625Y-356115D02*
X110275Y-356115D01*
X110275Y-354643D02*
X105625Y-354643D01*
X105625Y-353171D02*
X110275Y-353171D01*
X118325Y-351925D02*
X118325Y-363475D01*
X118325Y-351925D02*
X122975Y-351925D01*
X122975Y-363475D01*
X118325Y-363475D01*
X118325Y-362003D02*
X122975Y-362003D01*
X122975Y-360531D02*
X118325Y-360531D01*
X118325Y-359059D02*
X122975Y-359059D01*
X122975Y-357587D02*
X118325Y-357587D01*
X118325Y-356115D02*
X122975Y-356115D01*
X122975Y-354643D02*
X118325Y-354643D01*
X118325Y-353171D02*
X122975Y-353171D01*
X131025Y-351925D02*
X131025Y-363475D01*
X131025Y-351925D02*
X135675Y-351925D01*
X135675Y-363475D01*
X131025Y-363475D01*
X131025Y-362003D02*
X135675Y-362003D01*
X135675Y-360531D02*
X131025Y-360531D01*
X131025Y-359059D02*
X135675Y-359059D01*
X135675Y-357587D02*
X131025Y-357587D01*
X131025Y-356115D02*
X135675Y-356115D01*
X135675Y-354643D02*
X131025Y-354643D01*
X131025Y-353171D02*
X135675Y-353171D01*
D13*
X118500Y-88900D03*
X135500Y-88900D03*
X118500Y-69850D03*
X135500Y-69850D03*
D24*
X176475Y-310325D02*
X185125Y-310325D01*
X185125Y-312275D01*
X176475Y-312275D01*
X176475Y-310325D01*
X176475Y-310423D02*
X185125Y-310423D01*
X185125Y-303825D02*
X176475Y-303825D01*
X185125Y-303825D02*
X185125Y-305775D01*
X176475Y-305775D01*
X176475Y-303825D01*
X176475Y-303923D02*
X185125Y-303923D01*
X185125Y-297325D02*
X176475Y-297325D01*
X185125Y-297325D02*
X185125Y-299275D01*
X176475Y-299275D01*
X176475Y-297325D01*
X176475Y-297423D02*
X185125Y-297423D01*
X166425Y-297325D02*
X157775Y-297325D01*
X166425Y-297325D02*
X166425Y-299275D01*
X157775Y-299275D01*
X157775Y-297325D01*
X157775Y-297423D02*
X166425Y-297423D01*
X166425Y-303825D02*
X157775Y-303825D01*
X166425Y-303825D02*
X166425Y-305775D01*
X157775Y-305775D01*
X157775Y-303825D01*
X157775Y-303923D02*
X166425Y-303923D01*
X166425Y-310325D02*
X157775Y-310325D01*
X166425Y-310325D02*
X166425Y-312275D01*
X157775Y-312275D01*
X157775Y-310325D01*
X157775Y-310423D02*
X166425Y-310423D01*
D25*
G36*
X-40299Y-599667D02*
X-33920Y-595984D01*
X-17665Y-624139D01*
X-24044Y-627822D01*
X-40299Y-599667D01*
G37*
G36*
X-13629Y-645861D02*
X-7250Y-642178D01*
X9005Y-670333D01*
X2626Y-674016D01*
X-13629Y-645861D01*
G37*
G36*
X-18302Y-586967D02*
X-11923Y-583284D01*
X4332Y-611439D01*
X-2047Y-615122D01*
X-18302Y-586967D01*
G37*
G36*
X8368Y-633161D02*
X14747Y-629478D01*
X31002Y-657633D01*
X24623Y-661316D01*
X8368Y-633161D01*
G37*
G36*
X3695Y-574267D02*
X10074Y-570584D01*
X26329Y-598739D01*
X19950Y-602422D01*
X3695Y-574267D01*
G37*
G36*
X30365Y-620461D02*
X36744Y-616778D01*
X52999Y-644933D01*
X46620Y-648616D01*
X30365Y-620461D01*
G37*
D26*
X-243876Y-590239D03*
X-241264Y-560381D03*
D17*
X-143850Y-368300D03*
X-122850Y-368300D03*
D13*
X-162950Y-381000D03*
X-179950Y-381000D03*
D17*
X-169250Y-50800D03*
X-148250Y-50800D03*
D13*
X-167250Y-31750D03*
X-150250Y-31750D03*
D27*
X-189150Y-694500D03*
X-189150Y-705500D03*
X-170850Y-705500D03*
X-170850Y-694500D03*
X170850Y-694500D03*
X170850Y-705500D03*
X189150Y-705500D03*
X189150Y-694500D03*
X190850Y-894500D03*
X190850Y-905500D03*
X209150Y-905500D03*
X209150Y-894500D03*
X-229150Y-1094500D03*
X-229150Y-1105500D03*
X-210850Y-1105500D03*
X-210850Y-1094500D03*
X210850Y-1094500D03*
X210850Y-1105500D03*
X229150Y-1105500D03*
X229150Y-1094500D03*
X-249150Y-1294500D03*
X-249150Y-1305500D03*
X-230850Y-1305500D03*
X-230850Y-1294500D03*
X230850Y-1294500D03*
X230850Y-1305500D03*
X249150Y-1305500D03*
X249150Y-1294500D03*
X-269150Y-1494500D03*
X-269150Y-1505500D03*
X-250850Y-1505500D03*
X-250850Y-1494500D03*
X250850Y-1494500D03*
X250850Y-1505500D03*
X269150Y-1505500D03*
X269150Y-1494500D03*
X-289150Y-1694500D03*
X-289150Y-1705500D03*
X-270850Y-1705500D03*
X-270850Y-1694500D03*
X270850Y-1694500D03*
X270850Y-1705500D03*
X289150Y-1705500D03*
X289150Y-1694500D03*
X-309150Y-1894500D03*
X-309150Y-1905500D03*
X-290850Y-1905500D03*
X-290850Y-1894500D03*
X290850Y-1894500D03*
X290850Y-1905500D03*
X309150Y-1905500D03*
X309150Y-1894500D03*
X-329150Y-2094500D03*
X-329150Y-2105500D03*
X-310850Y-2105500D03*
X-310850Y-2094500D03*
X310850Y-2094500D03*
X310850Y-2105500D03*
X329150Y-2105500D03*
X329150Y-2094500D03*
X-349150Y-2294500D03*
X-349150Y-2305500D03*
X-330850Y-2305500D03*
X-330850Y-2294500D03*
X-209150Y-894500D03*
X-209150Y-905500D03*
X-190850Y-905500D03*
X-190850Y-894500D03*
X330850Y-2294500D03*
X330850Y-2305500D03*
X349150Y-2305500D03*
X349150Y-2294500D03*
X-289150Y-2554500D03*
X-289150Y-2565500D03*
X-270850Y-2565500D03*
X-270850Y-2554500D03*
X270850Y-2554500D03*
X270850Y-2565500D03*
X289150Y-2565500D03*
X289150Y-2554500D03*
X-9150Y-2864500D03*
X-9150Y-2875500D03*
X9150Y-2875500D03*
X9150Y-2864500D03*
D28*
X-139700Y-235500D03*
X-139700Y-272500D03*
X-165100Y-235500D03*
X-165100Y-272500D03*
D29*
G36*
X-198626Y-298819D02*
X-199594Y-294939D01*
X-187564Y-291939D01*
X-186596Y-295819D01*
X-198626Y-298819D01*
G37*
G36*
X-197416Y-303670D02*
X-198384Y-299790D01*
X-186354Y-296790D01*
X-185386Y-300670D01*
X-197416Y-303670D01*
G37*
G36*
X-196206Y-308521D02*
X-197174Y-304641D01*
X-185144Y-301641D01*
X-184176Y-305521D01*
X-196206Y-308521D01*
G37*
G36*
X-190158Y-332779D02*
X-191126Y-328899D01*
X-179096Y-325899D01*
X-178128Y-329779D01*
X-190158Y-332779D01*
G37*
G36*
X-191368Y-327927D02*
X-192336Y-324047D01*
X-180306Y-321047D01*
X-179338Y-324927D01*
X-191368Y-327927D01*
G37*
G36*
X-192578Y-323076D02*
X-193546Y-319196D01*
X-181516Y-316196D01*
X-180548Y-320076D01*
X-192578Y-323076D01*
G37*
G36*
X-194997Y-313373D02*
X-195965Y-309493D01*
X-183935Y-306493D01*
X-182967Y-310373D01*
X-194997Y-313373D01*
G37*
G36*
X-193787Y-318224D02*
X-194755Y-314344D01*
X-182725Y-311344D01*
X-181757Y-315224D01*
X-193787Y-318224D01*
G37*
D30*
G36*
X-201771Y-286204D02*
X-203464Y-279413D01*
X-191433Y-276414D01*
X-189740Y-283205D01*
X-201771Y-286204D01*
G37*
G36*
X-186288Y-348303D02*
X-187981Y-341512D01*
X-175950Y-338513D01*
X-174257Y-345304D01*
X-186288Y-348303D01*
G37*
G36*
X-199836Y-293967D02*
X-201529Y-287176D01*
X-189498Y-284177D01*
X-187805Y-290968D01*
X-199836Y-293967D01*
G37*
G36*
X-188224Y-340541D02*
X-189917Y-333750D01*
X-177886Y-330751D01*
X-176193Y-337542D01*
X-188224Y-340541D01*
G37*
D31*
X-206235Y-286906D03*
X-192252Y-342989D03*
D13*
X-141850Y-349250D03*
X-124850Y-349250D03*
X-141850Y-330200D03*
X-124850Y-330200D03*
D32*
X-205486Y-2130933D03*
X53086Y-2618867D03*
X99314Y-2130933D03*
M02*
