  0
SECTION
  2
HEADER
  9
$ACADVER
  1
AC1032
  9
$ACADMAINTVER
 90
      251
  9
$DWGCODEPAGE
  3
ANSI_1252
  9
$REQUIREDVERSIONS
160
                 0
  9
$INSBASE
 10
0.0
 20
0.0
 30
0.0
  9
$EXTMIN
 10
1.000000000000000E+20
 20
1.000000000000000E+20
 30
1.000000000000000E+20
  9
$EXTMAX
 10
-1.000000000000000E+20
 20
-1.000000000000000E+20
 30
-1.000000000000000E+20
  9
$LIMMIN
 10
0.0
 20
0.0
  9
$LIMMAX
 10
12.0
 20
9.0
  9
$ORTHOMODE
 70
     0
  9
$REGENMODE
 70
     1
  9
$FILLMODE
 70
     1
  9
$QTEXTMODE
 70
     0
  9
$MIRRTEXT
 70
     0
  9
$LTSCALE
 40
1.0
  9
$ATTMODE
 70
     1
  9
$TEXTSIZE
 40
0.2
  9
$TRACEWID
 40
0.05
  9
$TEXTSTYLE
  7
Standard
  9
$CLAYER
  8
0
  9
$CELTYPE
  6
ByLayer
  9
$CECOLOR
 62
   256
  9
$CELTSCALE
 40
1.0
  9
$DISPSILH
 70
     0
  9
$DIMSCALE
 40
1.0
  9
$DIMASZ
 40
0.18
  9
$DIMEXO
 40
0.0625
  9
$DIMDLI
 40
0.38
  9
$DIMRND
 40
0.0
  9
$DIMDLE
 40
0.0
  9
$DIMEXE
 40
0.18
  9
$DIMTP
 40
0.0
  9
$DIMTM
 40
0.0
  9
$DIMTXT
 40
0.18
  9
$DIMCEN
 40
0.09
  9
$DIMTSZ
 40
0.0
  9
$DIMTOL
 70
     0
  9
$DIMLIM
 70
     0
  9
$DIMTIH
 70
     1
  9
$DIMTOH
 70
     1
  9
$DIMSE1
 70
     0
  9
$DIMSE2
 70
     0
  9
$DIMTAD
 70
     0
  9
$DIMZIN
 70
     0
  9
$DIMBLK
  1

  9
$DIMASO
 70
     1
  9
$DIMSHO
 70
     1
  9
$DIMPOST
  1

  9
$DIMAPOST
  1

  9
$DIMALT
 70
     0
  9
$DIMALTD
 70
     2
  9
$DIMALTF
 40
25.4
  9
$DIMLFAC
 40
1.0
  9
$DIMTOFL
 70
     0
  9
$DIMTVP
 40
0.0
  9
$DIMTIX
 70
     0
  9
$DIMSOXD
 70
     0
  9
$DIMSAH
 70
     0
  9
$DIMBLK1
  1

  9
$DIMBLK2
  1

  9
$DIMSTYLE
  2
Standard
  9
$DIMCLRD
 70
     0
  9
$DIMCLRE
 70
     0
  9
$DIMCLRT
 70
     0
  9
$DIMTFAC
 40
1.0
  9
$DIMGAP
 40
0.09
  9
$DIMJUST
 70
     0
  9
$DIMSD1
 70
     0
  9
$DIMSD2
 70
     0
  9
$DIMTOLJ
 70
     1
  9
$DIMTZIN
 70
     0
  9
$DIMALTZ
 70
     0
  9
$DIMALTTZ
 70
     0
  9
$DIMUPT
 70
     0
  9
$DIMDEC
 70
     4
  9
$DIMTDEC
 70
     4
  9
$DIMALTU
 70
     2
  9
$DIMALTTD
 70
     2
  9
$DIMTXSTY
  7
Standard
  9
$DIMAUNIT
 70
     0
  9
$DIMADEC
 70
     0
  9
$DIMALTRND
 40
0.0
  9
$DIMAZIN
 70
     0
  9
$DIMDSEP
 70
    46
  9
$DIMATFIT
 70
     3
  9
$DIMFRAC
 70
     0
  9
$DIMLDRBLK
  1

  9
$DIMLUNIT
 70
     2
  9
$DIMLWD
 70
    -2
  9
$DIMLWE
 70
    -2
  9
$DIMTMOVE
 70
     0
  9
$DIMFXL
 40
1.0
  9
$DIMFXLON
 70
     0
  9
$DIMJOGANG
 40
0.7853981633974483
  9
$DIMTFILL
 70
     0
  9
$DIMTFILLCLR
 70
     0
  9
$DIMARCSYM
 70
     0
  9
$DIMLTYPE
  6

  9
$DIMLTEX1
  6

  9
$DIMLTEX2
  6

  9
$DIMTXTDIRECTION
 70
     0
  9
$LUNITS
 70
     2
  9
$LUPREC
 70
     4
  9
$SKETCHINC
 40
0.1
  9
$FILLETRAD
 40
0.0
  9
$AUNITS
 70
     0
  9
$AUPREC
 70
     0
  9
$MENU
  1
.
  9
$ELEVATION
 40
0.0
  9
$PELEVATION
 40
0.0
  9
$THICKNESS
 40
0.0
  9
$LIMCHECK
 70
     0
  9
$CHAMFERA
 40
0.0
  9
$CHAMFERB
 40
0.0
  9
$CHAMFERC
 40
0.0
  9
$CHAMFERD
 40
0.0
  9
$SKPOLY
 70
     0
  9
$TDCREATE
 40
2459986.608854167
  9
$TDUCREATE
 40
2459986.817187500
  9
$TDUPDATE
 40
2459986.608854167
  9
$TDUUPDATE
 40
2459986.817187500
  9
$TDINDWG
 40
0.0000000000
  9
$TDUSRTIMER
 40
0.0000000000
  9
$USRTIMER
 70
     1
  9
$ANGBASE
 50
0.0
  9
$ANGDIR
 70
     0
  9
$PDMODE
 70
     0
  9
$PDSIZE
 40
0.0
  9
$PLINEWID
 40
0.0
  9
$SPLFRAME
 70
     0
  9
$SPLINETYPE
 70
     6
  9
$SPLINESEGS
 70
     8
  9
$HANDSEED
  5
AF
  9
$SURFTAB1
 70
     6
  9
$SURFTAB2
 70
     6
  9
$SURFTYPE
 70
     6
  9
$SURFU
 70
     6
  9
$SURFV
 70
     6
  9
$UCSBASE
  2

  9
$UCSNAME
  2

  9
$UCSORG
 10
0.0
 20
0.0
 30
0.0
  9
$UCSXDIR
 10
1.0
 20
0.0
 30
0.0
  9
$UCSYDIR
 10
0.0
 20
1.0
 30
0.0
  9
$UCSORTHOREF
  2

  9
$UCSORTHOVIEW
 70
     0
  9
$UCSORGTOP
 10
0.0
 20
0.0
 30
0.0
  9
$UCSORGBOTTOM
 10
0.0
 20
0.0
 30
0.0
  9
$UCSORGLEFT
 10
0.0
 20
0.0
 30
0.0
  9
$UCSORGRIGHT
 10
0.0
 20
0.0
 30
0.0
  9
$UCSORGFRONT
 10
0.0
 20
0.0
 30
0.0
  9
$UCSORGBACK
 10
0.0
 20
0.0
 30
0.0
  9
$PUCSBASE
  2

  9
$PUCSNAME
  2

  9
$PUCSORG
 10
0.0
 20
0.0
 30
0.0
  9
$PUCSXDIR
 10
1.0
 20
0.0
 30
0.0
  9
$PUCSYDIR
 10
0.0
 20
1.0
 30
0.0
  9
$PUCSORTHOREF
  2

  9
$PUCSORTHOVIEW
 70
     0
  9
$PUCSORGTOP
 10
0.0
 20
0.0
 30
0.0
  9
$PUCSORGBOTTOM
 10
0.0
 20
0.0
 30
0.0
  9
$PUCSORGLEFT
 10
0.0
 20
0.0
 30
0.0
  9
$PUCSORGRIGHT
 10
0.0
 20
0.0
 30
0.0
  9
$PUCSORGFRONT
 10
0.0
 20
0.0
 30
0.0
  9
$PUCSORGBACK
 10
0.0
 20
0.0
 30
0.0
  9
$USERI1
 70
     0
  9
$USERI2
 70
     0
  9
$USERI3
 70
     0
  9
$USERI4
 70
     0
  9
$USERI5
 70
     0
  9
$USERR1
 40
0.0
  9
$USERR2
 40
0.0
  9
$USERR3
 40
0.0
  9
$USERR4
 40
0.0
  9
$USERR5
 40
0.0
  9
$WORLDVIEW
 70
     1
  9
$SHADEDGE
 70
     3
  9
$SHADEDIF
 70
    70
  9
$TILEMODE
 70
     1
  9
$MAXACTVP
 70
    64
  9
$PINSBASE
 10
0.0
 20
0.0
 30
0.0
  9
$PLIMCHECK
 70
     0
  9
$PEXTMIN
 10
1.000000000000000E+20
 20
1.000000000000000E+20
 30
1.000000000000000E+20
  9
$PEXTMAX
 10
-1.000000000000000E+20
 20
-1.000000000000000E+20
 30
-1.000000000000000E+20
  9
$PLIMMIN
 10
0.0
 20
0.0
  9
$PLIMMAX
 10
12.0
 20
9.0
  9
$UNITMODE
 70
     0
  9
$VISRETAIN
 70
     1
  9
$PLINEGEN
 70
     0
  9
$PSLTSCALE
 70
     1
  9
$TREEDEPTH
 70
  3020
  9
$CMLSTYLE
  2
Standard
  9
$CMLJUST
 70
     0
  9
$CMLSCALE
 40
1.0
  9
$PROXYGRAPHICS
 70
     1
  9
$MEASUREMENT
 70
     0
  9
$CELWEIGHT
370
    -1
  9
$ENDCAPS
280
     0
  9
$JOINSTYLE
280
     0
  9
$LWDISPLAY
290
     1
  9
$INSUNITS
 70
     4
  9
$HYPERLINKBASE
  1

  9
$STYLESHEET
  1

  9
$XEDIT
290
     1
  9
$CEPSNTYPE
380
     0
  9
$PSTYLEMODE
290
     1
  9
$FINGERPRINTGUID
  2
{596DE9E8-A9B6-0A43-BC11-B948AFF4E17C}
  9
$VERSIONGUID
  2
{B8A85AE2-4481-F949-AA8C-741B91FDBFB3}
  9
$EXTNAMES
290
     1
  9
$PSVPSCALE
 40
0.0
  9
$OLESTARTUP
290
     0
  9
$SORTENTS
280
   127
  9
$INDEXCTL
280
     0
  9
$HIDETEXT
280
     1
  9
$XCLIPFRAME
280
     2
  9
$HALOGAP
280
     0
  9
$OBSCOLOR
 70
   257
  9
$OBSLTYPE
280
     0
  9
$INTERSECTIONDISPLAY
280
     0
  9
$INTERSECTIONCOLOR
 70
   257
  9
$DIMASSOC
280
     2
  9
$PROJECTNAME
  1

  9
$CAMERADISPLAY
290
     0
  9
$LENSLENGTH
 40
50.0
  9
$CAMERAHEIGHT
 40
0.0
  9
$STEPSPERSEC
 40
2.0
  9
$STEPSIZE
 40
6.0
  9
$3DDWFPREC
 40
2.0
  9
$PSOLWIDTH
 40
0.25
  9
$PSOLHEIGHT
 40
4.0
  9
$LOFTANG1
 40
1.570796326794896
  9
$LOFTANG2
 40
1.570796326794896
  9
$LOFTMAG1
 40
0.0
  9
$LOFTMAG2
 40
0.0
  9
$LOFTPARAM
 70
     7
  9
$LOFTNORMALS
280
     1
  9
$LATITUDE
 40
37.795
  9
$LONGITUDE
 40
-122.394
  9
$NORTHDIRECTION
 40
0.0
  9
$TIMEZONE
 70
 -8000
  9
$LIGHTGLYPHDISPLAY
280
     1
  9
$TILEMODELIGHTSYNCH
280
     1
  9
$CMATERIAL
347
11
  9
$SOLIDHIST
280
     0
  9
$SHOWHIST
280
     1
  9
$DWFFRAME
280
     2
  9
$DGNFRAME
280
     0
  9
$REALWORLDSCALE
290
     1
  9
$INTERFERECOLOR
 62
     1
  9
$INTERFEREOBJVS
345
33
  9
$INTERFEREVPVS
346
30
  9
$CSHADOW
280
     0
  9
$SHADOWPLANELOCATION
 40
0.0
  0
ENDSEC
  0
SECTION
  2
CLASSES
  0
CLASS
  1
ACDBDICTIONARYWDFLT
  2
AcDbDictionaryWithDefault
  3
ObjectDBX Classes
 90
        0
 91
        1
280
     0
281
     0
  0
CLASS
  1
MATERIAL
  2
AcDbMaterial
  3
ObjectDBX Classes
 90
     1153
 91
        3
280
     0
281
     0
  0
CLASS
  1
VISUALSTYLE
  2
AcDbVisualStyle
  3
ObjectDBX Classes
 90
     4095
 91
       24
280
     0
281
     0
  0
CLASS
  1
SCALE
  2
AcDbScale
  3
ObjectDBX Classes
 90
     1153
 91
       17
280
     0
281
     0
  0
CLASS
  1
TABLESTYLE
  2
AcDbTableStyle
  3
ObjectDBX Classes
 90
     4095
 91
        1
280
     0
281
     0
  0
CLASS
  1
MLEADERSTYLE
  2
AcDbMLeaderStyle
  3
ACDB_MLEADERSTYLE_CLASS
 90
     4095
 91
        1
280
     0
281
     0
  0
CLASS
  1
ACDBSECTIONVIEWSTYLE
  2
AcDbSectionViewStyle
  3
ObjectDBX Classes
 90
     1025
 91
        1
280
     0
281
     0
  0
CLASS
  1
ACDBDETAILVIEWSTYLE
  2
AcDbDetailViewStyle
  3
ObjectDBX Classes
 90
     1025
 91
        1
280
     0
281
     0
  0
CLASS
  1
DICTIONARYVAR
  2
AcDbDictionaryVar
  3
ObjectDBX Classes
 90
        0
 91
        5
280
     0
281
     0
  0
CLASS
  1
CELLSTYLEMAP
  2
AcDbCellStyleMap
  3
ObjectDBX Classes
 90
     1152
 91
        1
280
     0
281
     0
  0
ENDSEC
  0
SECTION
  2
TABLES
  0
TABLE
  2
VPORT
  5
8
330
0
100
AcDbSymbolTable
 70
     1
  0
VPORT
  5
57
330
8
100
AcDbSymbolTableRecord
100
AcDbViewportTableRecord
  2
*Active
 70
     0
 10
0.0
 20
0.0
 11
1.0
 21
1.0
 12
0.0
 22
0.0
 13
0.0
 23
0.0
 14
1.0
 24
1.0
 15
0.0
 25
0.0
 16
0.0
 26
0.0
 36
1.0
 17
110.0820047952808
 27
-181.8653732078132
 37
0.0
 40
310.7922785079233
 41
0.2622950678879343
 42
50.0
 43
0.0
 44
0.0
 50
0.0
 51
0.0
 71
     0
 72
   100
 73
     1
 74
     1
 75
     0
 76
     0
 77
     0
 78
     0
281
     0
 65
     1
110
0.0
120
0.0
130
0.0
111
1.0
121
0.0
131
0.0
112
0.0
122
1.0
132
0.0
 79
     0
146
0.0
 60
     3
 61
     5
292
     1
282
     1
141
0.0
142
0.0
 63
   250
421
  3355443
  0
ENDTAB
  0
TABLE
  2
LTYPE
  5
5
330
0
100
AcDbSymbolTable
 70
     1
  0
LTYPE
  5
5B
330
5
100
AcDbSymbolTableRecord
100
AcDbLinetypeTableRecord
  2
ByBlock
 70
     0
  3

 72
    65
 73
     0
 40
0.0
  0
LTYPE
  5
5C
330
5
100
AcDbSymbolTableRecord
100
AcDbLinetypeTableRecord
  2
ByLayer
 70
     0
  3

 72
    65
 73
     0
 40
0.0
  0
LTYPE
  5
5D
330
5
100
AcDbSymbolTableRecord
100
AcDbLinetypeTableRecord
  2
Continuous
 70
     0
  3
Solid line
 72
    65
 73
     0
 40
0.0
  0
ENDTAB
  0
TABLE
  2
LAYER
  5
2
330
0
100
AcDbSymbolTable
 70
     4
  0
LAYER
  5
54
330
2
100
AcDbSymbolTableRecord
100
AcDbLayerTableRecord
  2
0
 70
     0
 62
     7
  6
Continuous
370
    -3
390
F
347
21
348
0
  0
LAYER
  5
78
330
2
100
AcDbSymbolTableRecord
100
AcDbLayerTableRecord
  2
shape
 70
     0
 62
     7
  6
Continuous
370
     0
390
F
347
21
348
0
  0
LAYER
  5
7B
330
2
100
AcDbSymbolTableRecord
100
AcDbLayerTableRecord
  2
stripes
 70
     0
 62
     7
  6
Continuous
370
     0
390
F
347
21
348
0
  0
LAYER
  5
88
330
2
100
AcDbSymbolTableRecord
100
AcDbLayerTableRecord
  2
squid
 70
     0
 62
     7
  6
Continuous
370
     0
390
F
347
21
348
0
  0
ENDTAB
  0
TABLE
  2
STYLE
  5
3
330
0
100
AcDbSymbolTable
 70
     2
  0
STYLE
  5
55
330
3
100
AcDbSymbolTableRecord
100
AcDbTextStyleTableRecord
  2
Standard
 70
     0
 40
0.0
 41
1.0
 50
0.0
 71
     0
 42
0.2
  3
txt
  4

  0
STYLE
  5
5A
330
3
100
AcDbSymbolTableRecord
100
AcDbTextStyleTableRecord
  2
Annotative
 70
     0
 40
0.0
 41
1.0
 50
0.0
 71
     0
 42
0.2
  3
txt
  4

1001
AcadAnnotative
1000
AnnotativeData
1002
{
1070
     1
1070
     1
1002
}
  0
ENDTAB
  0
TABLE
  2
VIEW
  5
6
330
0
100
AcDbSymbolTable
 70
     0
  0
ENDTAB
  0
TABLE
  2
UCS
  5
7
330
0
100
AcDbSymbolTable
 70
     0
  0
ENDTAB
  0
TABLE
  2
APPID
  5
9
330
0
100
AcDbSymbolTable
 70
     2
  0
APPID
  5
56
330
9
100
AcDbSymbolTableRecord
100
AcDbRegAppTableRecord
  2
ACAD
 70
     0
  0
APPID
  5
5E
330
9
100
AcDbSymbolTableRecord
100
AcDbRegAppTableRecord
  2
AcadAnnotative
 70
     0
  0
ENDTAB
  0
TABLE
  2
DIMSTYLE
  5
A
330
0
100
AcDbSymbolTable
 70
     2
100
AcDbDimStyleTable
 71
     0
  0
DIMSTYLE
105
58
330
A
100
AcDbSymbolTableRecord
100
AcDbDimStyleTableRecord
  2
Standard
 70
     0
340
55
  0
DIMSTYLE
105
59
330
A
100
AcDbSymbolTableRecord
100
AcDbDimStyleTableRecord
  2
Annotative
 70
     0
340
55
1001
AcadAnnotative
1000
AnnotativeData
1002
{
1070
     1
1070
     1
1002
}
  0
ENDTAB
  0
TABLE
  2
BLOCK_RECORD
  5
1
330
0
100
AcDbSymbolTable
 70
     3
  0
BLOCK_RECORD
  5
70
330
1
100
AcDbSymbolTableRecord
100
AcDbBlockTableRecord
  2
*Model_Space
340
73
 70
     0
280
     1
281
     0
  0
BLOCK_RECORD
  5
6C
330
1
100
AcDbSymbolTableRecord
100
AcDbBlockTableRecord
  2
*Paper_Space
340
6F
 70
     0
280
     1
281
     0
  0
BLOCK_RECORD
  5
74
330
1
100
AcDbSymbolTableRecord
100
AcDbBlockTableRecord
  2
*Paper_Space0
340
77
 70
     0
280
     1
281
     0
  0
BLOCK_RECORD
  5
7E
330
1
100
AcDbSymbolTableRecord
100
AcDbBlockTableRecord
  2
Block_0
340
0
102
{BLKREFS
331
7F
102
}
 70
     0
280
     1
281
     0
  0
BLOCK_RECORD
  5
89
330
1
100
AcDbSymbolTableRecord
100
AcDbBlockTableRecord
  2
Block_1
340
0
102
{BLKREFS
331
8A
102
}
 70
     0
280
     1
281
     0
  0
ENDTAB
  0
ENDSEC
  0
SECTION
  2
BLOCKS
  0
BLOCK
  5
71
330
70
100
AcDbEntity
  8
0
100
AcDbBlockBegin
  2
*Model_Space
 70
     0
 10
0.0
 20
0.0
 30
0.0
  3
*Model_Space
  1

  0
ENDBLK
  5
72
330
70
100
AcDbEntity
  8
0
100
AcDbBlockEnd
  0
BLOCK
  5
6D
330
6C
100
AcDbEntity
 67
     1
  8
0
100
AcDbBlockBegin
  2
*Paper_Space
 70
     0
 10
0.0
 20
0.0
 30
0.0
  3
*Paper_Space
  1

  0
ENDBLK
  5
6E
330
6C
100
AcDbEntity
 67
     1
  8
0
100
AcDbBlockEnd
  0
BLOCK
  5
75
330
74
100
AcDbEntity
 67
     1
  8
0
100
AcDbBlockBegin
  2
*Paper_Space0
 70
     0
 10
0.0
 20
0.0
 30
0.0
  3
*Paper_Space0
  1

  0
ENDBLK
  5
76
330
74
100
AcDbEntity
 67
     1
  8
0
100
AcDbBlockEnd
  0
BLOCK
  5
80
330
7E
100
AcDbEntity
  8
0
100
AcDbBlockBegin
  2
Block_0
 70
     0
 10
0.0
 20
0.0
 30
0.0
  3
Block_0
  1

  0
LWPOLYLINE
  5
82
330
7E
100
AcDbEntity
  8
stripes
100
AcDbPolyline
 90
        6
 70
     1
 43
0.0
 10
142.1118007973964
 20
-173.5472106507891
 10
110.4657223901887
 20
-213.5131286027345
 10
78.16682620127977
 20
-172.7228025183885
 10
76.59711776810491
 20
-194.1575564974242
 10
110.4657223901887
 20
-236.9289754955024
 10
143.6460413649203
 20
-195.0267211327621
  0
HATCH
  5
83
330
7E
100
AcDbEntity
  8
stripes
 62
   251
420
  5658457
440
 33554687
100
AcDbHatch
 10
0.0
 20
0.0
 30
0.0
210
0.0
220
0.0
230
1.0
  2
SOLID
 70
     1
 71
     1
 91
        1
 92
        1
 93
        6
 72
     1
 10
142.1118007973964
 20
-173.5472106507891
 11
110.4657223901887
 21
-213.5131286027345
 72
     1
 10
110.4657223901887
 20
-213.5131286027345
 11
78.16682620127977
 21
-172.7228025183885
 72
     1
 10
78.16682620127977
 20
-172.7228025183885
 11
76.59711776810491
 21
-194.1575564974242
 72
     1
 10
76.59711776810491
 20
-194.1575564974242
 11
110.4657223901887
 21
-236.9289754955024
 72
     1
 10
110.4657223901887
 20
-236.9289754955024
 11
143.6460413649203
 21
-195.0267211327621
 72
     1
 10
143.6460413649203
 20
-195.0267211327621
 11
142.1118007973964
 21
-173.5472106507891
 97
        1
330
82
 75
     2
 76
     1
 98
        1
 10
0.0
 20
0.0
450
        0
451
        0
460
0.0
461
0.0
452
        0
462
0.0
453
        0
470

  0
LWPOLYLINE
  5
84
330
7E
100
AcDbEntity
  8
stripes
100
AcDbPolyline
 90
        6
 70
     1
 43
0.0
 10
144.7782098452804
 20
-210.8770561016924
 10
110.4657223901887
 20
-254.210402021472
 10
75.43877005938177
 20
-209.9748229673698
 10
73.86906162620689
 20
-231.4096719708279
 10
110.4657223901887
 20
-277.6262489142392
 10
146.3124741689102
 20
-232.3566616080885
  0
HATCH
  5
85
330
7E
100
AcDbEntity
  8
stripes
 62
   251
420
  5658457
440
 33554687
100
AcDbHatch
 10
0.0
 20
0.0
 30
0.0
210
0.0
220
0.0
230
1.0
  2
SOLID
 70
     1
 71
     1
 91
        1
 92
        1
 93
        6
 72
     1
 10
144.7782098452804
 20
-210.8770561016924
 11
110.4657223901887
 21
-254.210402021472
 72
     1
 10
110.4657223901887
 20
-254.210402021472
 11
75.43877005938177
 21
-209.9748229673698
 72
     1
 10
75.43877005938177
 20
-209.9748229673698
 11
73.86906162620689
 21
-231.4096719708279
 72
     1
 10
73.86906162620689
 20
-231.4096719708279
 11
110.4657223901887
 21
-277.6262489142392
 72
     1
 10
110.4657223901887
 20
-277.6262489142392
 11
146.3124741689102
 21
-232.3566616080885
 72
     1
 10
146.3124741689102
 20
-232.3566616080885
 11
144.7782098452804
 21
-210.8770561016924
 97
        1
330
84
 75
     2
 76
     1
 98
        1
 10
0.0
 20
0.0
450
        0
451
        0
460
0.0
461
0.0
452
        0
462
0.0
453
        0
470

  0
LWPOLYLINE
  5
86
330
7E
100
AcDbEntity
  8
stripes
100
AcDbPolyline
 90
        6
 70
     1
 43
0.0
 10
147.4447139175869
 20
-248.207828040715
 10
110.4657223901887
 20
-294.9086969527487
 10
72.71066640527225
 20
-247.2277461483625
 10
71.14093421599147
 20
-268.6627139323489
 10
110.4657223901887
 20
-318.3245438455171
 10
148.9789782412167
 20
-269.6875523276387
  0
HATCH
  5
87
330
7E
100
AcDbEntity
  8
stripes
 62
   251
420
  5658457
440
 33554687
100
AcDbHatch
 10
0.0
 20
0.0
 30
0.0
210
0.0
220
0.0
230
1.0
  2
SOLID
 70
     1
 71
     1
 91
        1
 92
        1
 93
        6
 72
     1
 10
147.4447139175869
 20
-248.207828040715
 11
110.4657223901887
 21
-294.9086969527487
 72
     1
 10
110.4657223901887
 20
-294.9086969527487
 11
72.71066640527225
 21
-247.2277461483625
 72
     1
 10
72.71066640527225
 20
-247.2277461483625
 11
71.14093421599147
 21
-268.6627139323489
 72
     1
 10
71.14093421599147
 20
-268.6627139323489
 11
110.4657223901887
 21
-318.3245438455171
 72
     1
 10
110.4657223901887
 20
-318.3245438455171
 11
148.9789782412167
 21
-269.6875523276387
 72
     1
 10
148.9789782412167
 20
-269.6875523276387
 11
147.4447139175869
 21
-248.207828040715
 97
        1
330
86
 75
     2
 76
     1
 98
        1
 10
0.0
 20
0.0
450
        0
451
        0
460
0.0
461
0.0
452
        0
462
0.0
453
        0
470

  0
ENDBLK
  5
81
330
7E
100
AcDbEntity
  8
0
100
AcDbBlockEnd
  0
BLOCK
  5
8B
330
89
100
AcDbEntity
  8
0
100
AcDbBlockBegin
  2
Block_1
 70
     0
 10
0.0
 20
0.0
 30
0.0
  3
Block_1
  1

  0
SPLINE
  5
8D
330
89
100
AcDbEntity
  8
squid
100
AcDbSpline
210
0.0
220
0.0
230
1.0
 70
    11
 71
     3
 72
    14
 73
    10
 74
     0
 42
0.0000000001
 43
0.0000000001
 40
0.0
 40
0.0
 40
0.0
 40
0.0
 40
1.0
 40
1.0
 40
1.0
 40
2.0
 40
2.0
 40
2.0
 40
3.0
 40
3.0
 40
3.0
 40
3.0
 10
122.3974169954965
 20
-181.1802522842134
 30
0.0
 10
122.3974169954965
 20
-181.1802522842134
 30
0.0
 10
117.8796264353738
 20
-177.750681260494
 30
0.0
 10
117.8796264353738
 20
-177.750681260494
 30
0.0
 10
117.8796264353738
 20
-177.750681260494
 30
0.0
 10
119.2882398519053
 20
-174.8235343496046
 30
0.0
 10
119.2882398519053
 20
-174.8235343496046
 30
0.0
 10
119.2882398519053
 20
-174.8235343496046
 30
0.0
 10
122.3974169954965
 20
-181.1802522842134
 30
0.0
 10
122.3974169954965
 20
-181.1802522842134
 30
0.0
  0
SPLINE
  5
8E
330
89
100
AcDbEntity
  8
squid
100
AcDbSpline
210
0.0
220
0.0
230
1.0
 70
    11
 71
     3
 72
    17
 73
    13
 74
     0
 42
0.0000000001
 43
0.0000000001
 40
0.0
 40
0.0
 40
0.0
 40
0.0
 40
1.0
 40
1.0
 40
1.0
 40
2.0
 40
2.0
 40
2.0
 40
3.0
 40
3.0
 40
3.0
 40
4.0
 40
4.0
 40
4.0
 40
4.0
 10
116.6954394578595
 20
-176.8518127846987
 30
0.0
 10
116.6954394578595
 20
-176.8518127846987
 30
0.0
 10
111.1088080234381
 20
-172.6109002423561
 30
0.0
 10
111.1088080234381
 20
-172.6109002423561
 30
0.0
 10
111.1088080234381
 20
-172.6109002423561
 30
0.0
 10
116.284267311695
 20
-168.682134882824
 30
0.0
 10
116.284267311695
 20
-168.682134882824
 30
0.0
 10
116.284267311695
 20
-168.682134882824
 30
0.0
 10
118.4731948556356
 20
-173.1573139181636
 30
0.0
 10
118.4731948556356
 20
-173.1573139181636
 30
0.0
 10
118.4731948556356
 20
-173.1573139181636
 30
0.0
 10
116.6954394578595
 20
-176.8518127846987
 30
0.0
 10
116.6954394578595
 20
-176.8518127846987
 30
0.0
  0
SPLINE
  5
8F
330
89
100
AcDbEntity
  8
squid
100
AcDbSpline
210
0.0
220
0.0
230
1.0
 70
    11
 71
     3
 72
    17
 73
    13
 74
     0
 42
0.0000000001
 43
0.0000000001
 40
0.0
 40
0.0
 40
0.0
 40
0.0
 40
1.0
 40
1.0
 40
1.0
 40
2.0
 40
2.0
 40
2.0
 40
3.0
 40
3.0
 40
3.0
 40
4.0
 40
4.0
 40
4.0
 40
4.0
 10
109.9040366003994
 20
-190.9648402266457
 30
0.0
 10
109.9040366003994
 20
-190.9648402266457
 30
0.0
 10
103.7572972356167
 20
-178.1914596959849
 30
0.0
 10
103.7572972356167
 20
-178.1914596959849
 30
0.0
 10
103.7572972356167
 20
-178.1914596959849
 30
0.0
 10
109.9040366003994
 20
-173.5254223707625
 30
0.0
 10
109.9040366003994
 20
-173.5254223707625
 30
0.0
 10
109.9040366003994
 20
-173.5254223707625
 30
0.0
 10
116.0507544333354
 20
-178.1914596959849
 30
0.0
 10
116.0507544333354
 20
-178.1914596959849
 30
0.0
 10
116.0507544333354
 20
-178.1914596959849
 30
0.0
 10
109.9040366003994
 20
-190.9648402266457
 30
0.0
 10
109.9040366003994
 20
-190.9648402266457
 30
0.0
  0
SPLINE
  5
90
330
89
100
AcDbEntity
  8
squid
100
AcDbSpline
210
0.0
220
0.0
230
1.0
 70
    11
 71
     3
 72
    17
 73
    13
 74
     0
 42
0.0000000001
 43
0.0000000001
 40
0.0
 40
0.0
 40
0.0
 40
0.0
 40
1.0
 40
1.0
 40
1.0
 40
2.0
 40
2.0
 40
2.0
 40
3.0
 40
3.0
 40
3.0
 40
4.0
 40
4.0
 40
4.0
 40
4.0
 10
101.3348568133168
 20
-173.1573139181636
 30
0.0
 10
101.3348568133168
 20
-173.1573139181636
 30
0.0
 10
103.5237843572574
 20
-168.682134882824
 30
0.0
 10
103.5237843572574
 20
-168.682134882824
 30
0.0
 10
103.5237843572574
 20
-168.682134882824
 30
0.0
 10
108.699243645514
 20
-172.6109002423561
 30
0.0
 10
108.699243645514
 20
-172.6109002423561
 30
0.0
 10
108.699243645514
 20
-172.6109002423561
 30
0.0
 10
103.1126122110928
 20
-176.8518127846987
 30
0.0
 10
103.1126122110928
 20
-176.8518127846987
 30
0.0
 10
103.1126122110928
 20
-176.8518127846987
 30
0.0
 10
101.3348568133168
 20
-173.1573139181636
 30
0.0
 10
101.3348568133168
 20
-173.1573139181636
 30
0.0
  0
SPLINE
  5
91
330
89
100
AcDbEntity
  8
squid
100
AcDbSpline
210
0.0
220
0.0
230
1.0
 70
    11
 71
     3
 72
    14
 73
    10
 74
     0
 42
0.0000000001
 43
0.0000000001
 40
0.0
 40
0.0
 40
0.0
 40
0.0
 40
1.0
 40
1.0
 40
1.0
 40
2.0
 40
2.0
 40
2.0
 40
3.0
 40
3.0
 40
3.0
 40
3.0
 10
97.41065620530228
 20
-181.1802522842134
 30
0.0
 10
97.41065620530228
 20
-181.1802522842134
 30
0.0
 10
100.5198118170467
 20
-174.8235343496046
 30
0.0
 10
100.5198118170467
 20
-174.8235343496046
 30
0.0
 10
100.5198118170467
 20
-174.8235343496046
 30
0.0
 10
101.9284252335782
 20
-177.750681260494
 30
0.0
 10
101.9284252335782
 20
-177.750681260494
 30
0.0
 10
101.9284252335782
 20
-177.750681260494
 30
0.0
 10
97.41065620530228
 20
-181.1802522842134
 30
0.0
 10
97.41065620530228
 20
-181.1802522842134
 30
0.0
  0
SPLINE
  5
92
330
89
100
AcDbEntity
  8
squid
100
AcDbSpline
210
0.0
220
0.0
230
1.0
 70
    11
 71
     3
 72
    14
 73
    10
 74
     0
 42
0.0000000001
 43
0.0000000001
 40
0.0
 40
0.0
 40
0.0
 40
0.0
 40
1.0
 40
1.0
 40
1.0
 40
2.0
 40
2.0
 40
2.0
 40
3.0
 40
3.0
 40
3.0
 40
3.0
 10
96.68210463755908
 20
-163.4885673114228
 30
0.0
 10
96.68210463755908
 20
-163.4885673114228
 30
0.0
 10
102.3411046090176
 20
-167.7843860630615
 30
0.0
 10
102.3411046090176
 20
-167.7843860630615
 30
0.0
 10
102.3411046090176
 20
-167.7843860630615
 30
0.0
 10
100.5305346767445
 20
-171.4859689071882
 30
0.0
 10
100.5305346767445
 20
-171.4859689071882
 30
0.0
 10
100.5305346767445
 20
-171.4859689071882
 30
0.0
 10
96.68210463755908
 20
-163.4885673114228
 30
0.0
 10
96.68210463755908
 20
-163.4885673114228
 30
0.0
  0
SPLINE
  5
93
330
89
100
AcDbEntity
  8
squid
100
AcDbSpline
210
0.0
220
0.0
230
1.0
 70
     9
 71
     3
 72
    23
 73
    19
 74
     0
 42
0.0000000001
 43
0.0000000001
 40
0.0
 40
0.0
 40
0.0
 40
0.0
 40
1.0
 40
1.0
 40
1.0
 40
2.0
 40
2.0
 40
2.0
 40
3.0
 40
3.0
 40
3.0
 40
4.0
 40
4.0
 40
4.0
 40
5.0
 40
5.0
 40
5.0
 40
6.0
 40
6.0
 40
6.0
 40
6.0
 10
106.2495869688803
 20
-163.1091977029564
 30
0.0
 10
107.4138569881205
 20
-163.5169462854825
 30
0.0
 10
108.6479978501709
 20
-163.732523135472
 30
0.0
 10
109.9041011959398
 20
-163.732523135472
 30
0.0
 10
111.1601614780151
 20
-163.732523135472
 30
0.0
 10
112.3942377445251
 20
-163.5169462854825
 30
0.0
 10
113.5584647000717
 20
-163.10924076665
 30
0.0
 10
113.5584647000717
 20
-163.10924076665
 30
0.0
 10
115.6318954178694
 20
-167.3482585064757
 30
0.0
 10
115.6318954178694
 20
-167.3482585064757
 30
0.0
 10
115.6318954178694
 20
-167.3482585064757
 30
0.0
 10
109.9040366003994
 20
-171.696356582103
 30
0.0
 10
109.9040366003994
 20
-171.696356582103
 30
0.0
 10
109.9040366003994
 20
-171.696356582103
 30
0.0
 10
104.1761562510827
 20
-167.3482585064757
 30
0.0
 10
104.1761562510827
 20
-167.3482585064757
 30
0.0
 10
104.1761562510827
 20
-167.3482585064757
 30
0.0
 10
106.2495869688803
 20
-163.1091977029564
 30
0.0
 10
106.2495869688803
 20
-163.1091977029564
 30
0.0
  0
SPLINE
  5
94
330
89
100
AcDbEntity
  8
squid
100
AcDbSpline
210
0.0
220
0.0
230
1.0
 70
     9
 71
     3
 72
    29
 73
    25
 74
     0
 42
0.0000000001
 43
0.0000000001
 40
0.0
 40
0.0
 40
0.0
 40
0.0
 40
1.0
 40
1.0
 40
1.0
 40
2.0
 40
2.0
 40
2.0
 40
3.0
 40
3.0
 40
3.0
 40
4.0
 40
4.0
 40
4.0
 40
5.0
 40
5.0
 40
5.0
 40
6.0
 40
6.0
 40
6.0
 40
7.0
 40
7.0
 40
7.0
 40
8.0
 40
8.0
 40
8.0
 40
8.0
 10
104.0285554413865
 20
-159.2332930272761
 30
0.0
 10
105.2007491802428
 20
-158.1922067034804
 30
0.0
 10
106.6231645105624
 20
-157.4841965175679
 30
0.0
 10
108.1443894857677
 20
-157.1728675449353
 30
0.0
 10
107.7322914701915
 20
-157.6075524677867
 30
0.0
 10
107.4790123564856
 20
-158.1942737607715
 30
0.0
 10
107.4790123564856
 20
-158.8405306101108
 30
0.0
 10
107.4790123564856
 20
-160.1798330118485
 30
0.0
 10
108.5647557305085
 20
-161.2655763858717
 30
0.0
 10
109.9040581322462
 20
-161.2655763858717
 30
0.0
 10
111.2433820658306
 20
-161.2655763858717
 30
0.0
 10
112.3291039080071
 20
-160.1798330118485
 30
0.0
 10
112.3291039080071
 20
-158.8405306101108
 30
0.0
 10
112.3291039080071
 20
-158.1942737607715
 30
0.0
 10
112.0758463261477
 20
-157.6075524677867
 30
0.0
 10
111.6637483105715
 20
-157.1728675449353
 30
0.0
 10
113.18488715839
 20
-157.4841965175679
 30
0.0
 10
114.6072809568625
 20
-158.1922067034804
 30
0.0
 10
115.7794962275655
 20
-159.2332930272761
 30
0.0
 10
114.1640048271447
 20
-160.6677231281002
 30
0.0
 10
112.0743175650261
 20
-161.4739185353422
 30
0.0
 10
109.9041011959398
 20
-161.4739185353422
 30
0.0
 10
107.7339063587002
 20
-161.4739185353422
 30
0.0
 10
105.6442190965815
 20
-160.6677231281002
 30
0.0
 10
104.0285554413865
 20
-159.2332930272761
 30
0.0
  0
SPLINE
  5
95
330
89
100
AcDbEntity
  8
squid
100
AcDbSpline
210
0.0
220
0.0
230
1.0
 70
    11
 71
     3
 72
    14
 73
    10
 74
     0
 42
0.0000000001
 43
0.0000000001
 40
0.0
 40
0.0
 40
0.0
 40
0.0
 40
1.0
 40
1.0
 40
1.0
 40
2.0
 40
2.0
 40
2.0
 40
3.0
 40
3.0
 40
3.0
 40
3.0
 10
123.125947031393
 20
-163.4885673114228
 30
0.0
 10
123.125947031393
 20
-163.4885673114228
 30
0.0
 10
119.2775169922075
 20
-171.4859689071882
 30
0.0
 10
119.2775169922075
 20
-171.4859689071882
 30
0.0
 10
119.2775169922075
 20
-171.4859689071882
 30
0.0
 10
117.4669470599345
 20
-167.7843860630615
 30
0.0
 10
117.4669470599345
 20
-167.7843860630615
 30
0.0
 10
117.4669470599345
 20
-167.7843860630615
 30
0.0
 10
123.125947031393
 20
-163.4885673114228
 30
0.0
 10
123.125947031393
 20
-163.4885673114228
 30
0.0
  0
SPLINE
  5
96
330
89
100
AcDbEntity
  8
squid
100
AcDbSpline
210
0.0
220
0.0
230
1.0
 70
    11
 71
     3
 72
    65
 73
    61
 74
     0
 42
0.0000000001
 43
0.0000000001
 40
0.0
 40
0.0
 40
0.0
 40
0.0
 40
1.0
 40
1.0
 40
1.0
 40
2.0
 40
2.0
 40
2.0
 40
3.0
 40
3.0
 40
3.0
 40
4.0
 40
4.0
 40
4.0
 40
5.0
 40
5.0
 40
5.0
 40
6.0
 40
6.0
 40
6.0
 40
7.0
 40
7.0
 40
7.0
 40
8.0
 40
8.0
 40
8.0
 40
9.0
 40
9.0
 40
9.0
 40
10.0
 40
10.0
 40
10.0
 40
11.0
 40
11.0
 40
11.0
 40
12.0
 40
12.0
 40
12.0
 40
13.0
 40
13.0
 40
13.0
 40
14.0
 40
14.0
 40
14.0
 40
15.0
 40
15.0
 40
15.0
 40
16.0
 40
16.0
 40
16.0
 40
17.0
 40
17.0
 40
17.0
 40
18.0
 40
18.0
 40
18.0
 40
19.0
 40
19.0
 40
19.0
 40
20.0
 40
20.0
 40
20.0
 40
20.0
 10
127.0601168844676
 20
-158.6730559058341
 30
0.0
 10
127.0601168844676
 20
-158.6730559058341
 30
0.0
 10
116.8145751661088
 20
-166.4505096867131
 30
0.0
 10
116.8145751661088
 20
-166.4505096867131
 30
0.0
 10
116.8145751661088
 20
-166.4505096867131
 30
0.0
 10
114.900781560359
 20
-162.5378501485745
 30
0.0
 10
114.900781560359
 20
-162.5378501485745
 30
0.0
 10
116.1431260560336
 20
-161.9100245600813
 30
0.0
 10
117.2722776331711
 20
-161.0483846473735
 30
0.0
 10
118.2180424712593
 20
-159.9828596774793
 30
0.0
 10
118.2180424712593
 20
-159.9828596774793
 30
0.0
 10
118.8834196005417
 20
-159.2332930272761
 30
0.0
 10
118.8834196005417
 20
-159.2332930272761
 30
0.0
 10
118.8834196005417
 20
-159.2332930272761
 30
0.0
 10
118.2180424712593
 20
-158.4837479089196
 30
0.0
 10
118.2180424712593
 20
-158.4837479089196
 30
0.0
 10
116.1031629484047
 20
-156.1005169796109
 30
0.0
 10
113.0727493003451
 20
-154.7337184095316
 30
0.0
 10
109.9041011959398
 20
-154.7337184095316
 30
0.0
 10
106.7352808367602
 20
-154.7337184095316
 30
0.0
 10
103.7048671887005
 20
-156.1005169796109
 30
0.0
 10
101.589987665846
 20
-158.4837479089196
 30
0.0
 10
101.589987665846
 20
-158.4837479089196
 30
0.0
 10
100.9246105365635
 20
-159.2332930272761
 30
0.0
 10
100.9246105365635
 20
-159.2332930272761
 30
0.0
 10
100.9246105365635
 20
-159.2332930272761
 30
0.0
 10
101.589987665846
 20
-159.9828596774793
 30
0.0
 10
101.589987665846
 20
-159.9828596774793
 30
0.0
 10
102.535774035781
 20
-161.0483846473735
 30
0.0
 10
103.6649256129184
 20
-161.9100245600813
 30
0.0
 10
104.907270108593
 20
-162.5378501485745
 30
0.0
 10
104.907270108593
 20
-162.5378501485745
 30
0.0
 10
102.9934765028432
 20
-166.4505096867131
 30
0.0
 10
102.9934765028432
 20
-166.4505096867131
 30
0.0
 10
102.9934765028432
 20
-166.4505096867131
 30
0.0
 10
92.74793478448446
 20
-158.6730559058341
 30
0.0
 10
92.74793478448446
 20
-158.6730559058341
 30
0.0
 10
92.74793478448446
 20
-158.6730559058341
 30
0.0
 10
99.71557580786225
 20
-173.1521893386292
 30
0.0
 10
99.71557580786225
 20
-173.1521893386292
 30
0.0
 10
99.71557580786225
 20
-173.1521893386292
 30
0.0
 10
93.40799354761156
 20
-186.0477415679357
 30
0.0
 10
93.40799354761156
 20
-186.0477415679357
 30
0.0
 10
93.40799354761156
 20
-186.0477415679357
 30
0.0
 10
102.5731102581027
 20
-179.090435831014
 30
0.0
 10
102.5731102581027
 20
-179.090435831014
 30
0.0
 10
102.5731102581027
 20
-179.090435831014
 30
0.0
 10
109.9040366003994
 20
-194.3245834712485
 30
0.0
 10
109.9040366003994
 20
-194.3245834712485
 30
0.0
 10
109.9040366003994
 20
-194.3245834712485
 30
0.0
 10
117.2349414108497
 20
-179.090435831014
 30
0.0
 10
117.2349414108497
 20
-179.090435831014
 30
0.0
 10
117.2349414108497
 20
-179.090435831014
 30
0.0
 10
126.4000581213405
 20
-186.0477415679357
 30
0.0
 10
126.4000581213405
 20
-186.0477415679357
 30
0.0
 10
126.4000581213405
 20
-186.0477415679357
 30
0.0
 10
120.0924758610901
 20
-173.1521893386292
 30
0.0
 10
120.0924758610901
 20
-173.1521893386292
 30
0.0
 10
120.0924758610901
 20
-173.1521893386292
 30
0.0
 10
127.0601168844676
 20
-158.6730559058341
 30
0.0
 10
127.0601168844676
 20
-158.6730559058341
 30
0.0
  0
HATCH
  5
97
330
89
100
AcDbEntity
  8
squid
 62
   252
420
  9672088
440
 33554687
100
AcDbHatch
 10
0.0
 20
0.0
 30
0.0
210
0.0
220
0.0
230
1.0
  2
SOLID
 70
     1
 71
     1
 91
       10
 92
        1
 93
        1
 72
     4
 94
        3
 73
     0
 74
     0
 95
       14
 96
       10
 40
0.0
 40
0.0
 40
0.0
 40
0.0
 40
1.0
 40
1.0
 40
1.0
 40
2.0
 40
2.0
 40
2.0
 40
3.0
 40
3.0
 40
3.0
 40
3.0
 10
122.3974169954965
 20
-181.1802522842134
 10
122.3974169954965
 20
-181.1802522842134
 10
117.8796264353738
 20
-177.750681260494
 10
117.8796264353738
 20
-177.750681260494
 10
117.8796264353738
 20
-177.750681260494
 10
119.2882398519053
 20
-174.8235343496046
 10
119.2882398519053
 20
-174.8235343496046
 10
119.2882398519053
 20
-174.8235343496046
 10
122.3974169954965
 20
-181.1802522842134
 10
122.3974169954965
 20
-181.1802522842134
 97
        0
 97
        1
330
8D
 92
        1
 93
        1
 72
     4
 94
        3
 73
     0
 74
     0
 95
       17
 96
       13
 40
0.0
 40
0.0
 40
0.0
 40
0.0
 40
1.0
 40
1.0
 40
1.0
 40
2.0
 40
2.0
 40
2.0
 40
3.0
 40
3.0
 40
3.0
 40
4.0
 40
4.0
 40
4.0
 40
4.0
 10
116.6954394578595
 20
-176.8518127846987
 10
116.6954394578595
 20
-176.8518127846987
 10
111.1088080234381
 20
-172.6109002423561
 10
111.1088080234381
 20
-172.6109002423561
 10
111.1088080234381
 20
-172.6109002423561
 10
116.284267311695
 20
-168.682134882824
 10
116.284267311695
 20
-168.682134882824
 10
116.284267311695
 20
-168.682134882824
 10
118.4731948556356
 20
-173.1573139181636
 10
118.4731948556356
 20
-173.1573139181636
 10
118.4731948556356
 20
-173.1573139181636
 10
116.6954394578595
 20
-176.8518127846987
 10
116.6954394578595
 20
-176.8518127846987
 97
        0
 97
        1
330
8E
 92
        1
 93
        1
 72
     4
 94
        3
 73
     0
 74
     0
 95
       17
 96
       13
 40
0.0
 40
0.0
 40
0.0
 40
0.0
 40
1.0
 40
1.0
 40
1.0
 40
2.0
 40
2.0
 40
2.0
 40
3.0
 40
3.0
 40
3.0
 40
4.0
 40
4.0
 40
4.0
 40
4.0
 10
109.9040366003994
 20
-190.9648402266457
 10
109.9040366003994
 20
-190.9648402266457
 10
103.7572972356167
 20
-178.1914596959849
 10
103.7572972356167
 20
-178.1914596959849
 10
103.7572972356167
 20
-178.1914596959849
 10
109.9040366003994
 20
-173.5254223707625
 10
109.9040366003994
 20
-173.5254223707625
 10
109.9040366003994
 20
-173.5254223707625
 10
116.0507544333354
 20
-178.1914596959849
 10
116.0507544333354
 20
-178.1914596959849
 10
116.0507544333354
 20
-178.1914596959849
 10
109.9040366003994
 20
-190.9648402266457
 10
109.9040366003994
 20
-190.9648402266457
 97
        0
 97
        1
330
8F
 92
        1
 93
        1
 72
     4
 94
        3
 73
     0
 74
     0
 95
       17
 96
       13
 40
0.0
 40
0.0
 40
0.0
 40
0.0
 40
1.0
 40
1.0
 40
1.0
 40
2.0
 40
2.0
 40
2.0
 40
3.0
 40
3.0
 40
3.0
 40
4.0
 40
4.0
 40
4.0
 40
4.0
 10
101.3348568133168
 20
-173.1573139181636
 10
101.3348568133168
 20
-173.1573139181636
 10
103.5237843572574
 20
-168.682134882824
 10
103.5237843572574
 20
-168.682134882824
 10
103.5237843572574
 20
-168.682134882824
 10
108.699243645514
 20
-172.6109002423561
 10
108.699243645514
 20
-172.6109002423561
 10
108.699243645514
 20
-172.6109002423561
 10
103.1126122110928
 20
-176.8518127846987
 10
103.1126122110928
 20
-176.8518127846987
 10
103.1126122110928
 20
-176.8518127846987
 10
101.3348568133168
 20
-173.1573139181636
 10
101.3348568133168
 20
-173.1573139181636
 97
        0
 97
        1
330
90
 92
        1
 93
        1
 72
     4
 94
        3
 73
     0
 74
     0
 95
       14
 96
       10
 40
0.0
 40
0.0
 40
0.0
 40
0.0
 40
1.0
 40
1.0
 40
1.0
 40
2.0
 40
2.0
 40
2.0
 40
3.0
 40
3.0
 40
3.0
 40
3.0
 10
97.41065620530228
 20
-181.1802522842134
 10
97.41065620530228
 20
-181.1802522842134
 10
100.5198118170467
 20
-174.8235343496046
 10
100.5198118170467
 20
-174.8235343496046
 10
100.5198118170467
 20
-174.8235343496046
 10
101.9284252335782
 20
-177.750681260494
 10
101.9284252335782
 20
-177.750681260494
 10
101.9284252335782
 20
-177.750681260494
 10
97.41065620530228
 20
-181.1802522842134
 10
97.41065620530228
 20
-181.1802522842134
 97
        0
 97
        1
330
91
 92
        1
 93
        1
 72
     4
 94
        3
 73
     0
 74
     0
 95
       14
 96
       10
 40
0.0
 40
0.0
 40
0.0
 40
0.0
 40
1.0
 40
1.0
 40
1.0
 40
2.0
 40
2.0
 40
2.0
 40
3.0
 40
3.0
 40
3.0
 40
3.0
 10
96.68210463755908
 20
-163.4885673114228
 10
96.68210463755908
 20
-163.4885673114228
 10
102.3411046090176
 20
-167.7843860630615
 10
102.3411046090176
 20
-167.7843860630615
 10
102.3411046090176
 20
-167.7843860630615
 10
100.5305346767445
 20
-171.4859689071882
 10
100.5305346767445
 20
-171.4859689071882
 10
100.5305346767445
 20
-171.4859689071882
 10
96.68210463755908
 20
-163.4885673114228
 10
96.68210463755908
 20
-163.4885673114228
 97
        0
 97
        1
330
92
 92
        1
 93
        1
 72
     4
 94
        3
 73
     0
 74
     0
 95
       23
 96
       19
 40
0.0
 40
0.0
 40
0.0
 40
0.0
 40
1.0
 40
1.0
 40
1.0
 40
2.0
 40
2.0
 40
2.0
 40
3.0
 40
3.0
 40
3.0
 40
4.0
 40
4.0
 40
4.0
 40
5.0
 40
5.0
 40
5.0
 40
6.0
 40
6.0
 40
6.0
 40
6.0
 10
106.2495869688803
 20
-163.1091977029564
 10
107.4138569881205
 20
-163.5169462854825
 10
108.6479978501709
 20
-163.732523135472
 10
109.9041011959398
 20
-163.732523135472
 10
111.1601614780151
 20
-163.732523135472
 10
112.3942377445251
 20
-163.5169462854825
 10
113.5584647000717
 20
-163.10924076665
 10
113.5584647000717
 20
-163.10924076665
 10
115.6318954178694
 20
-167.3482585064757
 10
115.6318954178694
 20
-167.3482585064757
 10
115.6318954178694
 20
-167.3482585064757
 10
109.9040366003994
 20
-171.696356582103
 10
109.9040366003994
 20
-171.696356582103
 10
109.9040366003994
 20
-171.696356582103
 10
104.1761562510827
 20
-167.3482585064757
 10
104.1761562510827
 20
-167.3482585064757
 10
104.1761562510827
 20
-167.3482585064757
 10
106.2495869688803
 20
-163.1091977029564
 10
106.2495869688803
 20
-163.1091977029564
 97
        0
 97
        1
330
93
 92
        1
 93
        1
 72
     4
 94
        3
 73
     0
 74
     0
 95
       29
 96
       25
 40
0.0
 40
0.0
 40
0.0
 40
0.0
 40
1.0
 40
1.0
 40
1.0
 40
2.0
 40
2.0
 40
2.0
 40
3.0
 40
3.0
 40
3.0
 40
4.0
 40
4.0
 40
4.0
 40
5.0
 40
5.0
 40
5.0
 40
6.0
 40
6.0
 40
6.0
 40
7.0
 40
7.0
 40
7.0
 40
8.0
 40
8.0
 40
8.0
 40
8.0
 10
104.0285554413865
 20
-159.2332930272761
 10
105.2007491802428
 20
-158.1922067034804
 10
106.6231645105624
 20
-157.4841965175679
 10
108.1443894857677
 20
-157.1728675449353
 10
107.7322914701915
 20
-157.6075524677867
 10
107.4790123564856
 20
-158.1942737607715
 10
107.4790123564856
 20
-158.8405306101108
 10
107.4790123564856
 20
-160.1798330118485
 10
108.5647557305085
 20
-161.2655763858717
 10
109.9040581322462
 20
-161.2655763858717
 10
111.2433820658306
 20
-161.2655763858717
 10
112.3291039080071
 20
-160.1798330118485
 10
112.3291039080071
 20
-158.8405306101108
 10
112.3291039080071
 20
-158.1942737607715
 10
112.0758463261477
 20
-157.6075524677867
 10
111.6637483105715
 20
-157.1728675449353
 10
113.18488715839
 20
-157.4841965175679
 10
114.6072809568625
 20
-158.1922067034804
 10
115.7794962275655
 20
-159.2332930272761
 10
114.1640048271447
 20
-160.6677231281002
 10
112.0743175650261
 20
-161.4739185353422
 10
109.9041011959398
 20
-161.4739185353422
 10
107.7339063587002
 20
-161.4739185353422
 10
105.6442190965815
 20
-160.6677231281002
 10
104.0285554413865
 20
-159.2332930272761
 97
        0
 97
        1
330
94
 92
        1
 93
        1
 72
     4
 94
        3
 73
     0
 74
     0
 95
       14
 96
       10
 40
0.0
 40
0.0
 40
0.0
 40
0.0
 40
1.0
 40
1.0
 40
1.0
 40
2.0
 40
2.0
 40
2.0
 40
3.0
 40
3.0
 40
3.0
 40
3.0
 10
123.125947031393
 20
-163.4885673114228
 10
123.125947031393
 20
-163.4885673114228
 10
119.2775169922075
 20
-171.4859689071882
 10
119.2775169922075
 20
-171.4859689071882
 10
119.2775169922075
 20
-171.4859689071882
 10
117.4669470599345
 20
-167.7843860630615
 10
117.4669470599345
 20
-167.7843860630615
 10
117.4669470599345
 20
-167.7843860630615
 10
123.125947031393
 20
-163.4885673114228
 10
123.125947031393
 20
-163.4885673114228
 97
        0
 97
        1
330
95
 92
        1
 93
        1
 72
     4
 94
        3
 73
     0
 74
     0
 95
       65
 96
       61
 40
0.0
 40
0.0
 40
0.0
 40
0.0
 40
1.0
 40
1.0
 40
1.0
 40
2.0
 40
2.0
 40
2.0
 40
3.0
 40
3.0
 40
3.0
 40
4.0
 40
4.0
 40
4.0
 40
5.0
 40
5.0
 40
5.0
 40
6.0
 40
6.0
 40
6.0
 40
7.0
 40
7.0
 40
7.0
 40
8.0
 40
8.0
 40
8.0
 40
9.0
 40
9.0
 40
9.0
 40
10.0
 40
10.0
 40
10.0
 40
11.0
 40
11.0
 40
11.0
 40
12.0
 40
12.0
 40
12.0
 40
13.0
 40
13.0
 40
13.0
 40
14.0
 40
14.0
 40
14.0
 40
15.0
 40
15.0
 40
15.0
 40
16.0
 40
16.0
 40
16.0
 40
17.0
 40
17.0
 40
17.0
 40
18.0
 40
18.0
 40
18.0
 40
19.0
 40
19.0
 40
19.0
 40
20.0
 40
20.0
 40
20.0
 40
20.0
 10
127.0601168844676
 20
-158.6730559058341
 10
127.0601168844676
 20
-158.6730559058341
 10
116.8145751661088
 20
-166.4505096867131
 10
116.8145751661088
 20
-166.4505096867131
 10
116.8145751661088
 20
-166.4505096867131
 10
114.900781560359
 20
-162.5378501485745
 10
114.900781560359
 20
-162.5378501485745
 10
116.1431260560336
 20
-161.9100245600813
 10
117.2722776331711
 20
-161.0483846473735
 10
118.2180424712593
 20
-159.9828596774793
 10
118.2180424712593
 20
-159.9828596774793
 10
118.8834196005417
 20
-159.2332930272761
 10
118.8834196005417
 20
-159.2332930272761
 10
118.8834196005417
 20
-159.2332930272761
 10
118.2180424712593
 20
-158.4837479089196
 10
118.2180424712593
 20
-158.4837479089196
 10
116.1031629484047
 20
-156.1005169796109
 10
113.0727493003451
 20
-154.7337184095316
 10
109.9041011959398
 20
-154.7337184095316
 10
106.7352808367602
 20
-154.7337184095316
 10
103.7048671887005
 20
-156.1005169796109
 10
101.589987665846
 20
-158.4837479089196
 10
101.589987665846
 20
-158.4837479089196
 10
100.9246105365635
 20
-159.2332930272761
 10
100.9246105365635
 20
-159.2332930272761
 10
100.9246105365635
 20
-159.2332930272761
 10
101.589987665846
 20
-159.9828596774793
 10
101.589987665846
 20
-159.9828596774793
 10
102.535774035781
 20
-161.0483846473735
 10
103.6649256129184
 20
-161.9100245600813
 10
104.907270108593
 20
-162.5378501485745
 10
104.907270108593
 20
-162.5378501485745
 10
102.9934765028432
 20
-166.4505096867131
 10
102.9934765028432
 20
-166.4505096867131
 10
102.9934765028432
 20
-166.4505096867131
 10
92.74793478448446
 20
-158.6730559058341
 10
92.74793478448446
 20
-158.6730559058341
 10
92.74793478448446
 20
-158.6730559058341
 10
99.71557580786225
 20
-173.1521893386292
 10
99.71557580786225
 20
-173.1521893386292
 10
99.71557580786225
 20
-173.1521893386292
 10
93.40799354761156
 20
-186.0477415679357
 10
93.40799354761156
 20
-186.0477415679357
 10
93.40799354761156
 20
-186.0477415679357
 10
102.5731102581027
 20
-179.090435831014
 10
102.5731102581027
 20
-179.090435831014
 10
102.5731102581027
 20
-179.090435831014
 10
109.9040366003994
 20
-194.3245834712485
 10
109.9040366003994
 20
-194.3245834712485
 10
109.9040366003994
 20
-194.3245834712485
 10
117.2349414108497
 20
-179.090435831014
 10
117.2349414108497
 20
-179.090435831014
 10
117.2349414108497
 20
-179.090435831014
 10
126.4000581213405
 20
-186.0477415679357
 10
126.4000581213405
 20
-186.0477415679357
 10
126.4000581213405
 20
-186.0477415679357
 10
120.0924758610901
 20
-173.1521893386292
 10
120.0924758610901
 20
-173.1521893386292
 10
120.0924758610901
 20
-173.1521893386292
 10
127.0601168844676
 20
-158.6730559058341
 10
127.0601168844676
 20
-158.6730559058341
 97
        0
 97
        1
330
96
 75
     2
 76
     1
 98
        1
 10
0.0
 20
0.0
450
        0
451
        0
460
0.0
461
0.0
452
        0
462
0.0
453
        0
470

  0
SPLINE
  5
98
330
89
100
AcDbEntity
  8
squid
100
AcDbSpline
210
0.0
220
0.0
230
1.0
 70
     9
 71
     3
 72
    35
 73
    31
 74
     0
 42
0.0000000001
 43
0.0000000001
 40
0.0
 40
0.0
 40
0.0
 40
0.0
 40
1.0
 40
1.0
 40
1.0
 40
2.0
 40
2.0
 40
2.0
 40
3.0
 40
3.0
 40
3.0
 40
4.0
 40
4.0
 40
4.0
 40
5.0
 40
5.0
 40
5.0
 40
6.0
 40
6.0
 40
6.0
 40
7.0
 40
7.0
 40
7.0
 40
8.0
 40
8.0
 40
8.0
 40
9.0
 40
9.0
 40
9.0
 40
10.0
 40
10.0
 40
10.0
 40
10.0
 10
109.7899178124505
 20
-178.3066981399665
 30
0.0
 10
109.738219848325
 20
-178.3801217374959
 30
0.0
 10
109.6749592824771
 20
-178.439291252455
 30
0.0
 10
109.6002222422939
 20
-178.4841636211504
 30
0.0
 10
109.5253775428769
 20
-178.5290359898458
 30
0.0
 10
109.4411664901093
 20
-178.5603217632212
 30
0.0
 10
109.3473522336766
 20
-178.5779778775831
 30
0.0
 10
109.2534518498568
 20
-178.5956985874854
 30
0.0
 10
109.1562355616324
 20
-178.6031916701658
 30
0.0
 10
109.0557033690034
 20
-178.6004571256244
 30
0.0
 10
109.0557033690034
 20
-178.6004571256244
 30
0.0
 10
109.0557033690034
 20
-179.0369507236055
 30
0.0
 10
109.0557033690034
 20
-179.0369507236055
 30
0.0
 10
109.0557033690034
 20
-179.0369507236055
 30
0.0
 10
109.7736182044359
 20
-179.0369507236055
 30
0.0
 10
109.7736182044359
 20
-179.0369507236055
 30
0.0
 10
109.7736182044359
 20
-179.0369507236055
 30
0.0
 10
109.7736182044359
 20
-180.8888833335484
 30
0.0
 10
109.7736182044359
 20
-180.8888833335484
 30
0.0
 10
109.7736182044359
 20
-180.8888833335484
 30
0.0
 10
110.3528464147403
 20
-180.8888833335484
 30
0.0
 10
110.3528464147403
 20
-180.8888833335484
 30
0.0
 10
110.3528464147403
 20
-180.8888833335484
 30
0.0
 10
110.3528464147403
 20
-178.0334374724458
 30
0.0
 10
110.3528464147403
 20
-178.0334374724458
 30
0.0
 10
110.3528464147403
 20
-178.0334374724458
 30
0.0
 10
109.8918926388139
 20
-178.0334374724458
 30
0.0
 10
109.8918926388139
 20
-178.0334374724458
 30
0.0
 10
109.8755714989525
 20
-178.1422378942394
 30
0.0
 10
109.8415296491889
 20
-178.2332745424371
 30
0.0
 10
109.7899178124505
 20
-178.3066981399665
 30
0.0
  0
HATCH
  5
99
330
89
100
AcDbEntity
  8
squid
 62
   252
420
  9672088
440
 33554687
100
AcDbHatch
 10
0.0
 20
0.0
 30
0.0
210
0.0
220
0.0
230
1.0
  2
SOLID
 70
     1
 71
     1
 91
        1
 92
        1
 93
        1
 72
     4
 94
        3
 73
     0
 74
     0
 95
       35
 96
       31
 40
0.0
 40
0.0
 40
0.0
 40
0.0
 40
1.0
 40
1.0
 40
1.0
 40
2.0
 40
2.0
 40
2.0
 40
3.0
 40
3.0
 40
3.0
 40
4.0
 40
4.0
 40
4.0
 40
5.0
 40
5.0
 40
5.0
 40
6.0
 40
6.0
 40
6.0
 40
7.0
 40
7.0
 40
7.0
 40
8.0
 40
8.0
 40
8.0
 40
9.0
 40
9.0
 40
9.0
 40
10.0
 40
10.0
 40
10.0
 40
10.0
 10
109.7899178124505
 20
-178.3066981399665
 10
109.738219848325
 20
-178.3801217374959
 10
109.6749592824771
 20
-178.439291252455
 10
109.6002222422939
 20
-178.4841636211504
 10
109.5253775428769
 20
-178.5290359898458
 10
109.4411664901093
 20
-178.5603217632212
 10
109.3473522336766
 20
-178.5779778775831
 10
109.2534518498568
 20
-178.5956985874854
 10
109.1562355616324
 20
-178.6031916701658
 10
109.0557033690034
 20
-178.6004571256244
 10
109.0557033690034
 20
-178.6004571256244
 10
109.0557033690034
 20
-179.0369507236055
 10
109.0557033690034
 20
-179.0369507236055
 10
109.0557033690034
 20
-179.0369507236055
 10
109.7736182044359
 20
-179.0369507236055
 10
109.7736182044359
 20
-179.0369507236055
 10
109.7736182044359
 20
-179.0369507236055
 10
109.7736182044359
 20
-180.8888833335484
 10
109.7736182044359
 20
-180.8888833335484
 10
109.7736182044359
 20
-180.8888833335484
 10
110.3528464147403
 20
-180.8888833335484
 10
110.3528464147403
 20
-180.8888833335484
 10
110.3528464147403
 20
-180.8888833335484
 10
110.3528464147403
 20
-178.0334374724458
 10
110.3528464147403
 20
-178.0334374724458
 10
110.3528464147403
 20
-178.0334374724458
 10
109.8918926388139
 20
-178.0334374724458
 10
109.8918926388139
 20
-178.0334374724458
 10
109.8755714989525
 20
-178.1422378942394
 10
109.8415296491889
 20
-178.2332745424371
 10
109.7899178124505
 20
-178.3066981399665
 97
        0
 97
        1
330
98
 75
     2
 76
     1
 98
        1
 10
0.0
 20
0.0
450
        0
451
        0
460
0.0
461
0.0
452
        0
462
0.0
453
        0
470

  0
SPLINE
  5
9A
330
89
100
AcDbEntity
  8
squid
100
AcDbSpline
210
0.0
220
0.0
230
1.0
 70
     9
 71
     3
 72
    41
 73
    37
 74
     0
 42
0.0000000001
 43
0.0000000001
 40
0.0
 40
0.0
 40
0.0
 40
0.0
 40
1.0
 40
1.0
 40
1.0
 40
2.0
 40
2.0
 40
2.0
 40
3.0
 40
3.0
 40
3.0
 40
4.0
 40
4.0
 40
4.0
 40
5.0
 40
5.0
 40
5.0
 40
6.0
 40
6.0
 40
6.0
 40
7.0
 40
7.0
 40
7.0
 40
8.0
 40
8.0
 40
8.0
 40
9.0
 40
9.0
 40
9.0
 40
10.0
 40
10.0
 40
10.0
 40
11.0
 40
11.0
 40
11.0
 40
12.0
 40
12.0
 40
12.0
 40
12.0
 10
110.389558213505
 20
-181.9635162746317
 30
0.0
 10
110.4344305822004
 20
-181.9281394503676
 30
0.0
 10
110.4819513680501
 20
-181.8989422661301
 30
0.0
 10
110.5323143576751
 20
-181.8757955308385
 30
0.0
 10
110.5825696880661
 20
-181.8527349229342
 30
0.0
 10
110.6349351394419
 20
-181.8411723212118
 30
0.0
 10
110.6893891799557
 20
-181.8411723212118
 30
0.0
 10
110.7899213725846
 20
-181.8411723212118
 30
0.0
 10
110.8695030782939
 20
-181.8751280435883
 30
0.0
 10
110.9280266378496
 20
-181.9431256157284
 30
0.0
 10
110.9864425381713
 20
-182.0111447197153
 30
0.0
 10
111.0156612542556
 20
-182.0927073553286
 30
0.0
 10
111.0156612542556
 20
-182.187835054415
 30
0.0
 10
111.0156612542556
 20
-182.2830704127354
 30
0.0
 10
110.9885311273093
 20
-182.363319605695
 30
0.0
 10
110.9340986186423
 20
-182.4285611014469
 30
0.0
 10
110.8796445781286
 20
-182.4938241290456
 30
0.0
 10
110.8021514615572
 20
-182.5264664087683
 30
0.0
 10
110.7016192689283
 20
-182.5264664087683
 30
0.0
 10
110.6445168112603
 20
-182.5264664087683
 30
0.0
 10
110.5907302579968
 20
-182.5169708643371
 30
0.0
 10
110.5404749276057
 20
-182.4979151799343
 30
0.0
 10
110.4901119379807
 20
-182.4789456229187
 30
0.0
 10
110.4418160056469
 20
-182.4537102984892
 30
0.0
 10
110.3956301942978
 20
-182.422402993267
 30
0.0
 10
110.3493367237147
 20
-182.3912033472787
 30
0.0
 10
110.3059069887538
 20
-182.3558265230145
 30
0.0
 10
110.2651256709472
 20
-182.3163586478617
 30
0.0
 10
110.2243228212937
 20
-182.2769984319427
 30
0.0
 10
110.1862114524882
 20
-182.2367769421524
 30
0.0
 10
110.1509207556111
 20
-182.1959956243457
 30
0.0
 10
110.1835415034871
 20
-182.1607264593155
 30
0.0
 10
110.2202533022518
 20
-182.1219260714128
 30
0.0
 10
110.2610346200584
 20
-182.0798097791057
 30
0.0
 10
110.3018159378651
 20
-182.0376073594114
 30
0.0
 10
110.3447073766564
 20
-181.9988930988959
 30
0.0
 10
110.389558213505
 20
-181.9635162746317
 30
0.0
  0
SPLINE
  5
9B
330
89
100
AcDbEntity
  8
squid
100
AcDbSpline
210
0.0
220
0.0
230
1.0
 70
     9
 71
     3
 72
    41
 73
    37
 74
     0
 42
0.0000000001
 43
0.0000000001
 40
0.0
 40
0.0
 40
0.0
 40
0.0
 40
1.0
 40
1.0
 40
1.0
 40
2.0
 40
2.0
 40
2.0
 40
3.0
 40
3.0
 40
3.0
 40
4.0
 40
4.0
 40
4.0
 40
5.0
 40
5.0
 40
5.0
 40
6.0
 40
6.0
 40
6.0
 40
7.0
 40
7.0
 40
7.0
 40
8.0
 40
8.0
 40
8.0
 40
9.0
 40
9.0
 40
9.0
 40
10.0
 40
10.0
 40
10.0
 40
11.0
 40
11.0
 40
11.0
 40
12.0
 40
12.0
 40
12.0
 40
12.0
 10
109.5512803545566
 20
-182.3122891288197
 30
0.0
 10
109.51049903675
 20
-182.3517354721258
 30
0.0
 10
109.4669616425551
 20
-182.38711229639
 30
0.0
 10
109.4206681719721
 20
-182.4183334742251
 30
0.0
 10
109.3743962332358
 20
-182.4496192476004
 30
0.0
 10
109.3254543454985
 20
-182.475435931893
 30
0.0
 10
109.2738425087601
 20
-182.4958265907964
 30
0.0
 10
109.2221445446345
 20
-182.5162172496997
 30
0.0
 10
109.1704681123558
 20
-182.5264664087683
 30
0.0
 10
109.1188562756174
 20
-182.5264664087683
 30
0.0
 10
109.0182379556013
 20
-182.5264664087683
 30
0.0
 10
108.9393022052955
 20
-182.4952452309332
 30
0.0
 10
108.8822212794743
 20
-182.4326521523356
 30
0.0
 10
108.8251188218063
 20
-182.370059073738
 30
0.0
 10
108.7965675929723
 20
-182.2898098807785
 30
0.0
 10
108.7965675929723
 20
-182.1919261053038
 30
0.0
 10
108.7965675929723
 20
-182.1022028997598
 30
0.0
 10
108.824451334556
 20
-182.02128621955
 30
0.0
 10
108.8802188177235
 20
-181.9491975965211
 30
0.0
 10
108.9359001735038
 20
-181.8772166327262
 30
0.0
 10
109.0113908283244
 20
-181.8411723212118
 30
0.0
 10
109.1066261866448
 20
-181.8411723212118
 30
0.0
 10
109.1582164915364
 20
-181.8411723212118
 30
0.0
 10
109.2099144556619
 20
-181.8527349229342
 30
0.0
 10
109.2616124197874
 20
-181.8757955308385
 30
0.0
 10
109.3132027246791
 20
-181.8989422661301
 30
0.0
 10
109.3629197589006
 20
-181.9281394503676
 30
0.0
 10
109.4105266721374
 20
-181.9635162746317
 30
0.0
 10
109.458047457987
 20
-181.9988930988959
 30
0.0
 10
109.5036734413198
 20
-182.0376073594114
 30
0.0
 10
109.5472108355147
 20
-182.0798097791057
 30
0.0
 10
109.5906405704756
 20
-182.1219260714128
 30
0.0
 10
109.628773471128
 20
-182.1607264593155
 30
0.0
 10
109.6613942190039
 20
-182.1959956243457
 30
0.0
 10
109.628773471128
 20
-182.2341285249981
 30
0.0
 10
109.5920616723633
 20
-182.2729289129007
 30
0.0
 10
109.5512803545566
 20
-182.3122891288197
 30
0.0
  0
SPLINE
  5
9C
330
89
100
AcDbEntity
  8
squid
100
AcDbSpline
210
0.0
220
0.0
230
1.0
 70
     9
 71
     3
 72
   101
 73
    97
 74
     0
 42
0.0000000001
 43
0.0000000001
 40
0.0
 40
0.0
 40
0.0
 40
0.0
 40
1.0
 40
1.0
 40
1.0
 40
2.0
 40
2.0
 40
2.0
 40
3.0
 40
3.0
 40
3.0
 40
4.0
 40
4.0
 40
4.0
 40
5.0
 40
5.0
 40
5.0
 40
6.0
 40
6.0
 40
6.0
 40
7.0
 40
7.0
 40
7.0
 40
8.0
 40
8.0
 40
8.0
 40
9.0
 40
9.0
 40
9.0
 40
10.0
 40
10.0
 40
10.0
 40
11.0
 40
11.0
 40
11.0
 40
12.0
 40
12.0
 40
12.0
 40
13.0
 40
13.0
 40
13.0
 40
14.0
 40
14.0
 40
14.0
 40
15.0
 40
15.0
 40
15.0
 40
16.0
 40
16.0
 40
16.0
 40
17.0
 40
17.0
 40
17.0
 40
18.0
 40
18.0
 40
18.0
 40
19.0
 40
19.0
 40
19.0
 40
20.0
 40
20.0
 40
20.0
 40
21.0
 40
21.0
 40
21.0
 40
22.0
 40
22.0
 40
22.0
 40
23.0
 40
23.0
 40
23.0
 40
24.0
 40
24.0
 40
24.0
 40
25.0
 40
25.0
 40
25.0
 40
26.0
 40
26.0
 40
26.0
 40
27.0
 40
27.0
 40
27.0
 40
28.0
 40
28.0
 40
28.0
 40
29.0
 40
29.0
 40
29.0
 40
30.0
 40
30.0
 40
30.0
 40
31.0
 40
31.0
 40
31.0
 40
32.0
 40
32.0
 40
32.0
 40
32.0
 10
110.0672695308599
 20
-181.7391113674613
 30
0.0
 10
110.0114805158456
 20
-181.7989699015175
 30
0.0
 10
109.9578016218161
 20
-181.8601418782274
 30
0.0
 10
109.9061036576906
 20
-181.9227349568251
 30
0.0
 10
109.8516711490236
 20
-181.8574719292264
 30
0.0
 10
109.7966572804935
 20
-181.7956324652661
 30
0.0
 10
109.740889797326
 20
-181.7371089057104
 30
0.0
 10
109.6851223141586
 20
-181.6786930053887
 30
0.0
 10
109.6252637801024
 20
-181.6269950412632
 30
0.0
 10
109.5614218543913
 20
-181.5821442044146
 30
0.0
 10
109.4974938012931
 20
-181.537185708332
 30
0.0
 10
109.4281612546525
 20
-181.5012275242048
 30
0.0
 10
109.3534242144693
 20
-181.4740112698713
 30
0.0
 10
109.2785795150523
 20
-181.4468811429249
 30
0.0
 10
109.1963493921887
 20
-181.4332299520646
 30
0.0
 10
109.1066261866448
 20
-181.4332299520646
 30
0.0
 10
108.9978257648512
 20
-181.4332299520646
 30
0.0
 10
108.8998558619894
 20
-181.4529531237177
 30
0.0
 10
108.8128887328337
 20
-181.4923133396367
 30
0.0
 10
108.725813944444
 20
-181.5317596829428
 30
0.0
 10
108.6523903469146
 20
-181.5847926215688
 30
0.0
 10
108.5926394720923
 20
-181.6514767510552
 30
0.0
 10
108.5327809380361
 20
-181.7181393486948
 30
0.0
 10
108.4871549547033
 20
-181.7969674397667
 30
0.0
 10
108.455955308715
 20
-181.8880256198112
 30
0.0
 10
108.4246695353396
 20
-181.9791699272428
 30
0.0
 10
108.4090158827285
 20
-182.0777211899678
 30
0.0
 10
108.4090158827285
 20
-182.1837655353731
 30
0.0
 10
108.4090158827285
 20
-182.2898098807785
 30
0.0
 10
108.4253154907431
 20
-182.3891147581408
 30
0.0
 10
108.4579577704658
 20
-182.4815940400729
 30
0.0
 10
108.4906646457289
 20
-182.5740733220051
 30
0.0
 10
108.5381854315786
 20
-182.6536550277144
 30
0.0
 10
108.600800042023
 20
-182.7202314979668
 30
0.0
 10
108.6633069932335
 20
-182.7869156274532
 30
0.0
 10
108.7380440334166
 20
-182.8399270342325
 30
0.0
 10
108.8251188218063
 20
-182.8792872501515
 30
0.0
 10
108.9120859509621
 20
-182.9187551253044
 30
0.0
 10
109.0113908283244
 20
-182.9384782969574
 30
0.0
 10
109.1229473265061
 20
-182.9384782969574
 30
0.0
 10
109.2126705320501
 20
-182.9384782969574
 30
0.0
 10
109.2935656804131
 20
-182.9255807207345
 30
0.0
 10
109.365654303442
 20
-182.8996779090548
 30
0.0
 10
109.4376567990837
 20
-182.873882756609
 30
0.0
 10
109.5043409285701
 20
-182.8399270342325
 30
0.0
 10
109.56551290528
 20
-182.7977246145382
 30
0.0
 10
109.62668488199
 20
-182.755608322231
 30
0.0
 10
109.6844548269083
 20
-182.7066664344937
 30
0.0
 10
109.7388873355752
 20
-182.6508989513262
 30
0.0
 10
109.793233716855
 20
-182.5951314681587
 30
0.0
 10
109.8490227318693
 20
-182.5373615232404
 30
0.0
 10
109.9061036576906
 20
-182.4775029891842
 30
0.0
 10
109.9578016218161
 20
-182.5373615232404
 30
0.0
 10
110.0122556623298
 20
-182.5951314681587
 30
0.0
 10
110.0693581199978
 20
-182.6508989513262
 30
0.0
 10
110.1264390458191
 20
-182.7066664344937
 30
0.0
 10
110.1868574078916
 20
-182.755608322231
 30
0.0
 10
110.2507854609898
 20
-182.7977246145382
 30
0.0
 10
110.3147350459348
 20
-182.8399270342325
 30
0.0
 10
110.3834001053251
 20
-182.873882756609
 30
0.0
 10
110.4568021710077
 20
-182.8996779090548
 30
0.0
 10
110.5303118959243
 20
-182.9255807207345
 30
0.0
 10
110.6091399869961
 20
-182.9384782969574
 30
0.0
 10
110.6934586989976
 20
-182.9384782969574
 30
0.0
 10
110.8021514615572
 20
-182.9384782969574
 30
0.0
 10
110.9007888516693
 20
-182.9187551253044
 30
0.0
 10
110.9891986145596
 20
-182.8792872501515
 30
0.0
 10
111.0775007182158
 20
-182.8399270342325
 30
0.0
 10
111.1516779303826
 20
-182.7854945255656
 30
0.0
 10
111.2115364644389
 20
-182.7161619789249
 30
0.0
 10
111.2712873392611
 20
-182.6468294322842
 30
0.0
 10
111.3175592779974
 20
-182.5659127520744
 30
0.0
 10
111.3502015577202
 20
-182.4734334701423
 30
0.0
 10
111.3828223055961
 20
-182.3809541882101
 30
0.0
 10
111.3991434454575
 20
-182.2816493108478
 30
0.0
 10
111.3991434454575
 20
-182.1756049654424
 30
0.0
 10
111.3991434454575
 20
-182.0695606200371
 30
0.0
 10
111.3828223055961
 20
-181.9716768445624
 30
0.0
 10
111.3502015577202
 20
-181.8819536390184
 30
0.0
 10
111.3175592779974
 20
-181.7921227742406
 30
0.0
 10
111.2712873392611
 20
-181.7140698296528
 30
0.0
 10
111.2115364644389
 20
-181.6473857001665
 30
0.0
 10
111.1516779303826
 20
-181.5807015706801
 30
0.0
 10
111.0782543328532
 20
-181.5284437785382
 30
0.0
 10
110.9912010763103
 20
-181.4903108778859
 30
0.0
 10
110.9041262879207
 20
-181.4522856364674
 30
0.0
 10
110.806242512446
 20
-181.4332299520646
 30
0.0
 10
110.6975282180396
 20
-181.4332299520646
 30
0.0
 10
110.6104749614967
 20
-181.4332299520646
 30
0.0
 10
110.5295582812868
 20
-181.4468811429249
 30
0.0
 10
110.4548212411037
 20
-181.4740112698713
 30
0.0
 10
110.3799765416867
 20
-181.5012275242048
 30
0.0
 10
110.310643995046
 20
-181.537185708332
 30
0.0
 10
110.2467159419479
 20
-181.5821442044146
 30
0.0
 10
110.1827878888497
 20
-181.6269950412632
 30
0.0
 10
110.1229293547935
 20
-181.679360492639
 30
0.0
 10
110.0672695308599
 20
-181.7391113674613
 30
0.0
  0
HATCH
  5
9D
330
89
100
AcDbEntity
  8
squid
 62
   252
420
  9672088
440
 33554687
100
AcDbHatch
 10
0.0
 20
0.0
 30
0.0
210
0.0
220
0.0
230
1.0
  2
SOLID
 70
     1
 71
     1
 91
        3
 92
        1
 93
        1
 72
     4
 94
        3
 73
     0
 74
     0
 95
       41
 96
       37
 40
0.0
 40
0.0
 40
0.0
 40
0.0
 40
1.0
 40
1.0
 40
1.0
 40
2.0
 40
2.0
 40
2.0
 40
3.0
 40
3.0
 40
3.0
 40
4.0
 40
4.0
 40
4.0
 40
5.0
 40
5.0
 40
5.0
 40
6.0
 40
6.0
 40
6.0
 40
7.0
 40
7.0
 40
7.0
 40
8.0
 40
8.0
 40
8.0
 40
9.0
 40
9.0
 40
9.0
 40
10.0
 40
10.0
 40
10.0
 40
11.0
 40
11.0
 40
11.0
 40
12.0
 40
12.0
 40
12.0
 40
12.0
 10
110.389558213505
 20
-181.9635162746317
 10
110.4344305822004
 20
-181.9281394503676
 10
110.4819513680501
 20
-181.8989422661301
 10
110.5323143576751
 20
-181.8757955308385
 10
110.5825696880661
 20
-181.8527349229342
 10
110.6349351394419
 20
-181.8411723212118
 10
110.6893891799557
 20
-181.8411723212118
 10
110.7899213725846
 20
-181.8411723212118
 10
110.8695030782939
 20
-181.8751280435883
 10
110.9280266378496
 20
-181.9431256157284
 10
110.9864425381713
 20
-182.0111447197153
 10
111.0156612542556
 20
-182.0927073553286
 10
111.0156612542556
 20
-182.187835054415
 10
111.0156612542556
 20
-182.2830704127354
 10
110.9885311273093
 20
-182.363319605695
 10
110.9340986186423
 20
-182.4285611014469
 10
110.8796445781286
 20
-182.4938241290456
 10
110.8021514615572
 20
-182.5264664087683
 10
110.7016192689283
 20
-182.5264664087683
 10
110.6445168112603
 20
-182.5264664087683
 10
110.5907302579968
 20
-182.5169708643371
 10
110.5404749276057
 20
-182.4979151799343
 10
110.4901119379807
 20
-182.4789456229187
 10
110.4418160056469
 20
-182.4537102984892
 10
110.3956301942978
 20
-182.422402993267
 10
110.3493367237147
 20
-182.3912033472787
 10
110.3059069887538
 20
-182.3558265230145
 10
110.2651256709472
 20
-182.3163586478617
 10
110.2243228212937
 20
-182.2769984319427
 10
110.1862114524882
 20
-182.2367769421524
 10
110.1509207556111
 20
-182.1959956243457
 10
110.1835415034871
 20
-182.1607264593155
 10
110.2202533022518
 20
-182.1219260714128
 10
110.2610346200584
 20
-182.0798097791057
 10
110.3018159378651
 20
-182.0376073594114
 10
110.3447073766564
 20
-181.9988930988959
 10
110.389558213505
 20
-181.9635162746317
 97
        0
 97
        1
330
9A
 92
        1
 93
        1
 72
     4
 94
        3
 73
     0
 74
     0
 95
       41
 96
       37
 40
0.0
 40
0.0
 40
0.0
 40
0.0
 40
1.0
 40
1.0
 40
1.0
 40
2.0
 40
2.0
 40
2.0
 40
3.0
 40
3.0
 40
3.0
 40
4.0
 40
4.0
 40
4.0
 40
5.0
 40
5.0
 40
5.0
 40
6.0
 40
6.0
 40
6.0
 40
7.0
 40
7.0
 40
7.0
 40
8.0
 40
8.0
 40
8.0
 40
9.0
 40
9.0
 40
9.0
 40
10.0
 40
10.0
 40
10.0
 40
11.0
 40
11.0
 40
11.0
 40
12.0
 40
12.0
 40
12.0
 40
12.0
 10
109.5512803545566
 20
-182.3122891288197
 10
109.51049903675
 20
-182.3517354721258
 10
109.4669616425551
 20
-182.38711229639
 10
109.4206681719721
 20
-182.4183334742251
 10
109.3743962332358
 20
-182.4496192476004
 10
109.3254543454985
 20
-182.475435931893
 10
109.2738425087601
 20
-182.4958265907964
 10
109.2221445446345
 20
-182.5162172496997
 10
109.1704681123558
 20
-182.5264664087683
 10
109.1188562756174
 20
-182.5264664087683
 10
109.0182379556013
 20
-182.5264664087683
 10
108.9393022052955
 20
-182.4952452309332
 10
108.8822212794743
 20
-182.4326521523356
 10
108.8251188218063
 20
-182.370059073738
 10
108.7965675929723
 20
-182.2898098807785
 10
108.7965675929723
 20
-182.1919261053038
 10
108.7965675929723
 20
-182.1022028997598
 10
108.824451334556
 20
-182.02128621955
 10
108.8802188177235
 20
-181.9491975965211
 10
108.9359001735038
 20
-181.8772166327262
 10
109.0113908283244
 20
-181.8411723212118
 10
109.1066261866448
 20
-181.8411723212118
 10
109.1582164915364
 20
-181.8411723212118
 10
109.2099144556619
 20
-181.8527349229342
 10
109.2616124197874
 20
-181.8757955308385
 10
109.3132027246791
 20
-181.8989422661301
 10
109.3629197589006
 20
-181.9281394503676
 10
109.4105266721374
 20
-181.9635162746317
 10
109.458047457987
 20
-181.9988930988959
 10
109.5036734413198
 20
-182.0376073594114
 10
109.5472108355147
 20
-182.0798097791057
 10
109.5906405704756
 20
-182.1219260714128
 10
109.628773471128
 20
-182.1607264593155
 10
109.6613942190039
 20
-182.1959956243457
 10
109.628773471128
 20
-182.2341285249981
 10
109.5920616723633
 20
-182.2729289129007
 10
109.5512803545566
 20
-182.3122891288197
 97
        0
 97
        1
330
9B
 92
        1
 93
        1
 72
     4
 94
        3
 73
     0
 74
     0
 95
      101
 96
       97
 40
0.0
 40
0.0
 40
0.0
 40
0.0
 40
1.0
 40
1.0
 40
1.0
 40
2.0
 40
2.0
 40
2.0
 40
3.0
 40
3.0
 40
3.0
 40
4.0
 40
4.0
 40
4.0
 40
5.0
 40
5.0
 40
5.0
 40
6.0
 40
6.0
 40
6.0
 40
7.0
 40
7.0
 40
7.0
 40
8.0
 40
8.0
 40
8.0
 40
9.0
 40
9.0
 40
9.0
 40
10.0
 40
10.0
 40
10.0
 40
11.0
 40
11.0
 40
11.0
 40
12.0
 40
12.0
 40
12.0
 40
13.0
 40
13.0
 40
13.0
 40
14.0
 40
14.0
 40
14.0
 40
15.0
 40
15.0
 40
15.0
 40
16.0
 40
16.0
 40
16.0
 40
17.0
 40
17.0
 40
17.0
 40
18.0
 40
18.0
 40
18.0
 40
19.0
 40
19.0
 40
19.0
 40
20.0
 40
20.0
 40
20.0
 40
21.0
 40
21.0
 40
21.0
 40
22.0
 40
22.0
 40
22.0
 40
23.0
 40
23.0
 40
23.0
 40
24.0
 40
24.0
 40
24.0
 40
25.0
 40
25.0
 40
25.0
 40
26.0
 40
26.0
 40
26.0
 40
27.0
 40
27.0
 40
27.0
 40
28.0
 40
28.0
 40
28.0
 40
29.0
 40
29.0
 40
29.0
 40
30.0
 40
30.0
 40
30.0
 40
31.0
 40
31.0
 40
31.0
 40
32.0
 40
32.0
 40
32.0
 40
32.0
 10
110.0672695308599
 20
-181.7391113674613
 10
110.0114805158456
 20
-181.7989699015175
 10
109.9578016218161
 20
-181.8601418782274
 10
109.9061036576906
 20
-181.9227349568251
 10
109.8516711490236
 20
-181.8574719292264
 10
109.7966572804935
 20
-181.7956324652661
 10
109.740889797326
 20
-181.7371089057104
 10
109.6851223141586
 20
-181.6786930053887
 10
109.6252637801024
 20
-181.6269950412632
 10
109.5614218543913
 20
-181.5821442044146
 10
109.4974938012931
 20
-181.537185708332
 10
109.4281612546525
 20
-181.5012275242048
 10
109.3534242144693
 20
-181.4740112698713
 10
109.2785795150523
 20
-181.4468811429249
 10
109.1963493921887
 20
-181.4332299520646
 10
109.1066261866448
 20
-181.4332299520646
 10
108.9978257648512
 20
-181.4332299520646
 10
108.8998558619894
 20
-181.4529531237177
 10
108.8128887328337
 20
-181.4923133396367
 10
108.725813944444
 20
-181.5317596829428
 10
108.6523903469146
 20
-181.5847926215688
 10
108.5926394720923
 20
-181.6514767510552
 10
108.5327809380361
 20
-181.7181393486948
 10
108.4871549547033
 20
-181.7969674397667
 10
108.455955308715
 20
-181.8880256198112
 10
108.4246695353396
 20
-181.9791699272428
 10
108.4090158827285
 20
-182.0777211899678
 10
108.4090158827285
 20
-182.1837655353731
 10
108.4090158827285
 20
-182.2898098807785
 10
108.4253154907431
 20
-182.3891147581408
 10
108.4579577704658
 20
-182.4815940400729
 10
108.4906646457289
 20
-182.5740733220051
 10
108.5381854315786
 20
-182.6536550277144
 10
108.600800042023
 20
-182.7202314979668
 10
108.6633069932335
 20
-182.7869156274532
 10
108.7380440334166
 20
-182.8399270342325
 10
108.8251188218063
 20
-182.8792872501515
 10
108.9120859509621
 20
-182.9187551253044
 10
109.0113908283244
 20
-182.9384782969574
 10
109.1229473265061
 20
-182.9384782969574
 10
109.2126705320501
 20
-182.9384782969574
 10
109.2935656804131
 20
-182.9255807207345
 10
109.365654303442
 20
-182.8996779090548
 10
109.4376567990837
 20
-182.873882756609
 10
109.5043409285701
 20
-182.8399270342325
 10
109.56551290528
 20
-182.7977246145382
 10
109.62668488199
 20
-182.755608322231
 10
109.6844548269083
 20
-182.7066664344937
 10
109.7388873355752
 20
-182.6508989513262
 10
109.793233716855
 20
-182.5951314681587
 10
109.8490227318693
 20
-182.5373615232404
 10
109.9061036576906
 20
-182.4775029891842
 10
109.9578016218161
 20
-182.5373615232404
 10
110.0122556623298
 20
-182.5951314681587
 10
110.0693581199978
 20
-182.6508989513262
 10
110.1264390458191
 20
-182.7066664344937
 10
110.1868574078916
 20
-182.755608322231
 10
110.2507854609898
 20
-182.7977246145382
 10
110.3147350459348
 20
-182.8399270342325
 10
110.3834001053251
 20
-182.873882756609
 10
110.4568021710077
 20
-182.8996779090548
 10
110.5303118959243
 20
-182.9255807207345
 10
110.6091399869961
 20
-182.9384782969574
 10
110.6934586989976
 20
-182.9384782969574
 10
110.8021514615572
 20
-182.9384782969574
 10
110.9007888516693
 20
-182.9187551253044
 10
110.9891986145596
 20
-182.8792872501515
 10
111.0775007182158
 20
-182.8399270342325
 10
111.1516779303826
 20
-182.7854945255656
 10
111.2115364644389
 20
-182.7161619789249
 10
111.2712873392611
 20
-182.6468294322842
 10
111.3175592779974
 20
-182.5659127520744
 10
111.3502015577202
 20
-182.4734334701423
 10
111.3828223055961
 20
-182.3809541882101
 10
111.3991434454575
 20
-182.2816493108478
 10
111.3991434454575
 20
-182.1756049654424
 10
111.3991434454575
 20
-182.0695606200371
 10
111.3828223055961
 20
-181.9716768445624
 10
111.3502015577202
 20
-181.8819536390184
 10
111.3175592779974
 20
-181.7921227742406
 10
111.2712873392611
 20
-181.7140698296528
 10
111.2115364644389
 20
-181.6473857001665
 10
111.1516779303826
 20
-181.5807015706801
 10
111.0782543328532
 20
-181.5284437785382
 10
110.9912010763103
 20
-181.4903108778859
 10
110.9041262879207
 20
-181.4522856364674
 10
110.806242512446
 20
-181.4332299520646
 10
110.6975282180396
 20
-181.4332299520646
 10
110.6104749614967
 20
-181.4332299520646
 10
110.5295582812868
 20
-181.4468811429249
 10
110.4548212411037
 20
-181.4740112698713
 10
110.3799765416867
 20
-181.5012275242048
 10
110.310643995046
 20
-181.537185708332
 10
110.2467159419479
 20
-181.5821442044146
 10
110.1827878888497
 20
-181.6269950412632
 10
110.1229293547935
 20
-181.679360492639
 10
110.0672695308599
 20
-181.7391113674613
 97
        0
 97
        1
330
9C
 75
     2
 76
     1
 98
        1
 10
0.0
 20
0.0
450
        0
451
        0
460
0.0
461
0.0
452
        0
462
0.0
453
        0
470

  0
LWPOLYLINE
  5
9E
330
89
100
AcDbEntity
  8
squid
100
AcDbPolyline
 90
        6
 70
     1
 43
0.0
 10
109.9040581322462
 20
-150.401403177596
 10
114.4747309080675
 20
-150.401403177596
 10
112.1894052860802
 20
-148.6583140531403
 10
109.9040581322462
 20
-146.9152464605314
 10
107.6187325102589
 20
-148.6583140531403
 10
105.3333853564249
 20
-150.401403177596
  0
HATCH
  5
9F
330
89
100
AcDbEntity
  8
squid
 62
   252
420
  9672088
440
 33554687
100
AcDbHatch
 10
0.0
 20
0.0
 30
0.0
210
0.0
220
0.0
230
1.0
  2
SOLID
 70
     1
 71
     1
 91
        1
 92
        1
 93
        6
 72
     1
 10
109.9040581322462
 20
-150.401403177596
 11
114.4747309080675
 21
-150.401403177596
 72
     1
 10
114.4747309080675
 20
-150.401403177596
 11
112.1894052860802
 21
-148.6583140531403
 72
     1
 10
112.1894052860802
 20
-148.6583140531403
 11
109.9040581322462
 21
-146.9152464605314
 72
     1
 10
109.9040581322462
 20
-146.9152464605314
 11
107.6187325102589
 21
-148.6583140531403
 72
     1
 10
107.6187325102589
 20
-148.6583140531403
 11
105.3333853564249
 21
-150.401403177596
 72
     1
 10
105.3333853564249
 20
-150.401403177596
 11
109.9040581322462
 21
-150.401403177596
 97
        1
330
9E
 75
     2
 76
     1
 98
        1
 10
0.0
 20
0.0
450
        0
451
        0
460
0.0
461
0.0
452
        0
462
0.0
453
        0
470

  0
LWPOLYLINE
  5
A0
330
89
100
AcDbEntity
  8
squid
100
AcDbPolyline
 90
        4
 70
     1
 43
0.0
 10
114.6722856022998
 20
-146.0291463698783
 10
114.1455735662987
 20
-145.5062454707578
 10
112.5929336266369
 20
-147.0702757573676
 10
113.1196671944848
 20
-147.5931335927946
  0
HATCH
  5
A1
330
89
100
AcDbEntity
  8
squid
 62
   252
420
  9672088
440
 33554687
100
AcDbHatch
 10
0.0
 20
0.0
 30
0.0
210
0.0
220
0.0
230
1.0
  2
SOLID
 70
     1
 71
     1
 91
        1
 92
        1
 93
        4
 72
     1
 10
114.6722856022998
 20
-146.0291463698783
 11
114.1455735662987
 21
-145.5062454707578
 72
     1
 10
114.1455735662987
 20
-145.5062454707578
 11
112.5929336266369
 21
-147.0702757573676
 72
     1
 10
112.5929336266369
 20
-147.0702757573676
 11
113.1196671944848
 21
-147.5931335927946
 72
     1
 10
113.1196671944848
 20
-147.5931335927946
 11
114.6722856022998
 21
-146.0291463698783
 97
        1
330
A0
 75
     2
 76
     1
 98
        1
 10
0.0
 20
0.0
450
        0
451
        0
460
0.0
461
0.0
452
        0
462
0.0
453
        0
470

  0
LWPOLYLINE
  5
A2
330
89
100
AcDbEntity
  8
squid
100
AcDbPolyline
 90
        4
 70
     1
 43
0.0
 10
110.2611207474456
 20
-145.4736247228818
 10
110.2536276647651
 20
-143.2692588447979
 10
109.5113818424681
 20
-143.2717996027183
 10
109.5188749251485
 20
-145.4761654808022
  0
HATCH
  5
A3
330
89
100
AcDbEntity
  8
squid
 62
   252
420
  9672088
440
 33554687
100
AcDbHatch
 10
0.0
 20
0.0
 30
0.0
210
0.0
220
0.0
230
1.0
  2
SOLID
 70
     1
 71
     1
 91
        1
 92
        1
 93
        4
 72
     1
 10
110.2611207474456
 20
-145.4736247228818
 11
110.2536276647651
 21
-143.2692588447979
 72
     1
 10
110.2536276647651
 20
-143.2692588447979
 11
109.5113818424681
 21
-143.2717996027183
 72
     1
 10
109.5113818424681
 20
-143.2717996027183
 11
109.5188749251485
 21
-145.4761654808022
 72
     1
 10
109.5188749251485
 20
-145.4761654808022
 11
110.2611207474456
 21
-145.4736247228818
 97
        1
330
A2
 75
     2
 76
     1
 98
        1
 10
0.0
 20
0.0
450
        0
451
        0
460
0.0
461
0.0
452
        0
462
0.0
453
        0
470

  0
LWPOLYLINE
  5
A4
330
89
100
AcDbEntity
  8
squid
100
AcDbPolyline
 90
        4
 70
     1
 43
0.0
 10
107.2150965104683
 20
-147.0702757573676
 10
105.6625857618876
 20
-145.5063100662981
 10
105.1358737258861
 20
-146.0291679017251
 10
106.6883629426207
 20
-147.5931335927946
  0
HATCH
  5
A5
330
89
100
AcDbEntity
  8
squid
 62
   252
420
  9672088
440
 33554687
100
AcDbHatch
 10
0.0
 20
0.0
 30
0.0
210
0.0
220
0.0
230
1.0
  2
SOLID
 70
     1
 71
     1
 91
        1
 92
        1
 93
        4
 72
     1
 10
107.2150965104683
 20
-147.0702757573676
 11
105.6625857618876
 21
-145.5063100662981
 72
     1
 10
105.6625857618876
 20
-145.5063100662981
 11
105.1358737258861
 21
-146.0291679017251
 72
     1
 10
105.1358737258861
 20
-146.0291679017251
 11
106.6883629426207
 21
-147.5931335927946
 72
     1
 10
106.6883629426207
 20
-147.5931335927946
 11
107.2150965104683
 21
-147.0702757573676
 97
        1
330
A4
 75
     2
 76
     1
 98
        1
 10
0.0
 20
0.0
450
        0
451
        0
460
0.0
461
0.0
452
        0
462
0.0
453
        0
470

  0
ENDBLK
  5
8C
330
89
100
AcDbEntity
  8
0
100
AcDbBlockEnd
  0
ENDSEC
  0
SECTION
  2
ENTITIES
  0
LWPOLYLINE
  5
79
330
70
100
AcDbEntity
  8
shape
100
AcDbPolyline
 90
        9
 70
     1
 43
0.0
 10
80.11168060767689
 20
-29.51623343185055
 10
140.0523289828831
 20
-29.51623343185055
 10
145.047383014151
 20
-34.51128746311742
 10
135.0572749516159
 20
-74.47171971325494
 10
150.0424370454188
 20
-284.2639890264769
 10
110.0820047952806
 20
-334.2145293391482
 10
70.12157254514282
 20
-284.2639890264769
 10
85.10673463894439
 20
-74.47171971325494
 10
75.11662657641001
 20
-34.51128746311742
  0
HATCH
  5
7A
330
70
100
AcDbEntity
  8
shape
 62
    28
420
  1971211
440
 33554687
100
AcDbHatch
 10
0.0
 20
0.0
 30
0.0
210
0.0
220
0.0
230
1.0
  2
SOLID
 70
     1
 71
     1
 91
        1
 92
        1
 93
        9
 72
     1
 10
80.11168060767689
 20
-29.51623343185055
 11
140.0523289828831
 21
-29.51623343185055
 72
     1
 10
140.0523289828831
 20
-29.51623343185055
 11
145.047383014151
 21
-34.51128746311742
 72
     1
 10
145.047383014151
 20
-34.51128746311742
 11
135.0572749516159
 21
-74.47171971325494
 72
     1
 10
135.0572749516159
 20
-74.47171971325494
 11
150.0424370454188
 21
-284.2639890264769
 72
     1
 10
150.0424370454188
 20
-284.2639890264769
 11
110.0820047952806
 21
-334.2145293391482
 72
     1
 10
110.0820047952806
 20
-334.2145293391482
 11
70.12157254514282
 21
-284.2639890264769
 72
     1
 10
70.12157254514282
 20
-284.2639890264769
 11
85.10673463894439
 21
-74.47171971325494
 72
     1
 10
85.10673463894439
 20
-74.47171971325494
 11
75.11662657641001
 21
-34.51128746311742
 72
     1
 10
75.11662657641001
 20
-34.51128746311742
 11
80.11168060767689
 21
-29.51623343185055
 97
        1
330
79
 75
     2
 76
     1
 98
        1
 10
0.0
 20
0.0
450
        0
451
        0
460
0.0
461
0.0
452
        0
462
0.0
453
        0
470

  0
LWPOLYLINE
  5
7C
330
70
100
AcDbEntity
  8
stripes
100
AcDbPolyline
 90
        1
 70
     0
 43
0.0
 10
130.1015274327883
 20
-29.51623343185055
  0
HATCH
  5
7D
330
70
100
AcDbEntity
  8
stripes
 62
   251
420
  5658457
440
 33554687
100
AcDbHatch
 10
0.0
 20
0.0
 30
0.0
210
0.0
220
0.0
230
1.0
  2
SOLID
 70
     1
 71
     1
 91
        1
 92
        3
 72
     0
 73
     1
 93
        1
 10
130.1015274327883
 20
-29.51623343185055
 97
        0
 75
     2
 76
     1
 98
        1
 10
0.0
 20
0.0
450
        0
451
        0
460
0.0
461
0.0
452
        0
462
0.0
453
        0
470

  0
INSERT
  5
7F
330
70
100
AcDbEntity
  8
stripes
100
AcDbBlockReference
  2
Block_0
 10
0.0
 20
0.0
 30
0.0
  0
INSERT
  5
8A
330
70
100
AcDbEntity
  8
squid
100
AcDbBlockReference
  2
Block_1
 10
0.0
 20
0.0
 30
0.0
  0
ENDSEC
  0
SECTION
  2
OBJECTS
  0
DICTIONARY
  5
C
330
0
100
AcDbDictionary
281
     1
  3
ACAD_COLOR
350
63
  3
ACAD_DETAILVIEWSTYLE
350
6A
  3
ACAD_GROUP
350
D
  3
ACAD_LAYOUT
350
62
  3
ACAD_MATERIAL
350
10
  3
ACAD_MLEADERSTYLE
350
66
  3
ACAD_MLINESTYLE
350
5F
  3
ACAD_PLOTSETTINGS
350
61
  3
ACAD_PLOTSTYLENAME
350
E
  3
ACAD_SCALELIST
350
42
  3
ACAD_SECTIONVIEWSTYLE
350
68
  3
ACAD_TABLESTYLE
350
64
  3
ACAD_VISUALSTYLE
350
29
  3
ACDB_RECOMPOSE_DATA
350
AE
  3
AcDbVariableDictionary
350
A6
  0
DICTIONARY
  5
63
102
{ACAD_REACTORS
330
C
102
}
330
C
100
AcDbDictionary
281
     1
  0
DICTIONARY
  5
6A
102
{ACAD_REACTORS
330
C
102
}
330
C
100
AcDbDictionary
281
     1
  3
Imperial24
350
6B
  0
DICTIONARY
  5
D
102
{ACAD_REACTORS
330
C
102
}
330
C
100
AcDbDictionary
281
     1
  0
DICTIONARY
  5
62
102
{ACAD_REACTORS
330
C
102
}
330
C
100
AcDbDictionary
281
     1
  3
Layout1
350
6F
  3
Layout2
350
77
  3
Model
350
73
  0
DICTIONARY
  5
10
102
{ACAD_REACTORS
330
C
102
}
330
C
100
AcDbDictionary
281
     1
  3
ByBlock
350
19
  3
ByLayer
350
11
  3
Global
350
21
  0
DICTIONARY
  5
66
102
{ACAD_REACTORS
330
C
102
}
330
C
100
AcDbDictionary
281
     1
  3
Standard
350
67
  0
DICTIONARY
  5
5F
102
{ACAD_REACTORS
330
C
102
}
330
C
100
AcDbDictionary
281
     1
  3
Standard
350
60
  0
DICTIONARY
  5
61
102
{ACAD_REACTORS
330
C
102
}
330
C
100
AcDbDictionary
281
     1
  0
ACDBDICTIONARYWDFLT
  5
E
102
{ACAD_REACTORS
330
C
102
}
330
C
100
AcDbDictionary
281
     1
  3
Normal
350
F
100
AcDbDictionaryWithDefault
340
F
  0
DICTIONARY
  5
42
102
{ACAD_REACTORS
330
C
102
}
330
C
100
AcDbDictionary
281
     1
  3
A0
350
43
  3
A1
350
44
  3
A2
350
45
  3
A3
350
46
  3
A4
350
47
  3
A5
350
48
  3
A6
350
49
  3
A7
350
4A
  3
A8
350
4B
  3
A9
350
4C
  3
B0
350
4D
  3
B1
350
4E
  3
B2
350
4F
  3
B3
350
50
  3
B4
350
51
  3
B5
350
52
  3
B6
350
53
  0
DICTIONARY
  5
68
102
{ACAD_REACTORS
330
C
102
}
330
C
100
AcDbDictionary
281
     1
  3
Imperial24
350
69
  0
DICTIONARY
  5
64
102
{ACAD_REACTORS
330
C
102
}
330
C
100
AcDbDictionary
281
     1
  3
Standard
350
65
  0
DICTIONARY
  5
29
102
{ACAD_REACTORS
330
C
102
}
330
C
100
AcDbDictionary
281
     1
  3
2dWireframe
350
2F
  3
Basic
350
2E
  3
Brighten
350
35
  3
ColorChange
350
39
  3
Conceptual
350
32
  3
Dim
350
34
  3
EdgeColorOff
350
41
  3
Facepattern
350
38
  3
Flat
350
2A
  3
FlatWithEdges
350
2B
  3
Gouraud
350
2C
  3
GouraudWithEdges
350
2D
  3
Hidden
350
31
  3
JitterOff
350
3F
  3
Linepattern
350
37
  3
OverhangOff
350
40
  3
Realistic
350
33
  3
Shaded
350
3E
  3
Shaded with edges
350
3D
  3
Shades of Gray
350
3A
  3
Sketchy
350
3B
  3
Thicken
350
36
  3
Wireframe
350
30
  3
X-Ray
350
3C
  0
XRECORD
  5
AE
102
{ACAD_REACTORS
330
C
102
}
330
C
100
AcDbXrecord
280
     1
 90
        1
330
65
  0
DICTIONARY
  5
A6
102
{ACAD_REACTORS
330
C
102
}
330
C
100
AcDbDictionary
281
     1
  3
CANNOSCALE
350
AB
  3
CMLEADERSTYLE
350
A8
  3
CTABLESTYLE
350
A7
  3
CVIEWDETAILSTYLE
350
A9
  3
CVIEWSECTIONSTYLE
350
AA
  0
ACDBDETAILVIEWSTYLE
  5
6B
102
{ACAD_REACTORS
330
6A
102
}
330
6A
100
AcDbModelDocViewStyle
 70
     0
  3
Imperial24
290
     1
300
Imperial24
 90
        0
100
AcDbDetailViewStyle
 70
     0
 71
     0
 90
        3
 71
     1
340
55
 62
   256
 40
0.24
340
0
 62
   256
 40
0.24
300

 40
0.36
280
     3
 71
     2
340
5D
 90
       25
 62
   256
 71
     3
340
55
 62
   256
 40
0.24
 90
        1
 40
0.75
 90
        1
300
%<\AcVar ViewType \f "%tc1">% %<\AcVar ViewDetailId>%\PSCALE %<\AcVar ViewScale \f "%sn">%
 71
     4
340
5D
 90
       25
 62
   256
340
5D
 90
       25
 62
   256
280
     0
  0
LAYOUT
  5
6F
102
{ACAD_REACTORS
330
62
102
}
330
62
100
AcDbPlotSettings
  1

  2

  4

  6

 40
0.0
 41
0.0
 42
0.0
 43
0.0
 44
0.0
 45
0.0
 46
0.0
 47
0.0
 48
0.0
 49
0.0
140
0.0
141
0.0
142
1.0
143
1.0
 70
   688
 72
     0
 73
     0
 74
     5
  7

 75
    16
147
1.0
 76
     0
 77
     2
 78
   300
148
0.0
149
0.0
100
AcDbLayout
  1
Layout1
 70
     1
 71
     1
 10
0.0
 20
0.0
 11
12.0
 21
9.0
 12
0.0
 22
0.0
 32
0.0
 14
0.0
 24
0.0
 34
0.0
 15
0.0
 25
0.0
 35
0.0
146
0.0
 13
0.0
 23
0.0
 33
0.0
 16
1.0
 26
0.0
 36
0.0
 17
0.0
 27
1.0
 37
0.0
 76
     0
330
6C
  0
LAYOUT
  5
77
102
{ACAD_REACTORS
330
62
102
}
330
62
100
AcDbPlotSettings
  1

  2

  4

  6

 40
0.0
 41
0.0
 42
0.0
 43
0.0
 44
0.0
 45
0.0
 46
0.0
 47
0.0
 48
0.0
 49
0.0
140
0.0
141
0.0
142
1.0
143
1.0
 70
   688
 72
     0
 73
     0
 74
     5
  7

 75
    16
147
1.0
 76
     0
 77
     2
 78
   300
148
0.0
149
0.0
100
AcDbLayout
  1
Layout2
 70
     1
 71
     2
 10
0.0
 20
0.0
 11
12.0
 21
9.0
 12
0.0
 22
0.0
 32
0.0
 14
0.0
 24
0.0
 34
0.0
 15
0.0
 25
0.0
 35
0.0
146
0.0
 13
0.0
 23
0.0
 33
0.0
 16
1.0
 26
0.0
 36
0.0
 17
0.0
 27
1.0
 37
0.0
 76
     0
330
74
  0
LAYOUT
  5
73
102
{ACAD_REACTORS
330
62
102
}
330
62
100
AcDbPlotSettings
  1

  2

  4

  6

 40
0.0
 41
0.0
 42
0.0
 43
0.0
 44
0.0
 45
0.0
 46
0.0
 47
0.0
 48
0.0
 49
0.0
140
0.0
141
0.0
142
1.0
143
1.0
 70
  1712
 72
     0
 73
     0
 74
     0
  7

 75
     0
147
1.0
 76
     0
 77
     2
 78
   300
148
0.0
149
0.0
100
AcDbLayout
  1
Model
 70
     1
 71
     0
 10
0.0
 20
0.0
 11
12.0
 21
9.0
 12
0.0
 22
0.0
 32
0.0
 14
0.0
 24
0.0
 34
0.0
 15
0.0
 25
0.0
 35
0.0
146
0.0
 13
0.0
 23
0.0
 33
0.0
 16
1.0
 26
0.0
 36
0.0
 17
0.0
 27
1.0
 37
0.0
 76
     0
330
70
  0
MATERIAL
  5
19
102
{ACAD_XDICTIONARY
360
1A
102
}
102
{ACAD_REACTORS
330
10
102
}
330
10
100
AcDbMaterial
  1
ByBlock
 72
     0
 43
0.0208333333333333
 43
0.0
 43
0.0
 43
0.0
 43
0.0
 43
0.0208333333333333
 43
0.0
 43
0.0
 43
0.0
 43
0.0
 43
1.0
 43
0.0
 43
0.0
 43
0.0
 43
0.0
 43
1.0
 77
     0
 47
0.0208333333333333
 47
0.0
 47
0.0
 47
0.0
 47
0.0
 47
0.0208333333333333
 47
0.0
 47
0.0
 47
0.0
 47
0.0
 47
1.0
 47
0.0
 47
0.0
 47
0.0
 47
0.0
 47
1.0
171
     0
 49
0.0208333333333333
 49
0.0
 49
0.0
 49
0.0
 49
0.0
 49
0.0208333333333333
 49
0.0
 49
0.0
 49
0.0
 49
0.0
 49
1.0
 49
0.0
 49
0.0
 49
0.0
 49
0.0
 49
1.0
175
     0
142
0.0208333333333333
142
0.0
142
0.0
142
0.0
142
0.0
142
0.0208333333333333
142
0.0
142
0.0
142
0.0
142
0.0
142
1.0
142
0.0
142
0.0
142
0.0
142
0.0
142
1.0
179
     0
144
0.0208333333333333
144
0.0
144
0.0
144
0.0
144
0.0
144
0.0208333333333333
144
0.0
144
0.0
144
0.0
144
0.0
144
1.0
144
0.0
144
0.0
144
0.0
144
0.0
144
1.0
147
0.0208333333333333
147
0.0
147
0.0
147
0.0
147
0.0
147
0.0208333333333333
147
0.0
147
0.0
147
0.0
147
0.0
147
1.0
147
0.0
147
0.0
147
0.0
147
0.0
147
1.0
  0
MATERIAL
  5
11
102
{ACAD_XDICTIONARY
360
12
102
}
102
{ACAD_REACTORS
330
10
102
}
330
10
100
AcDbMaterial
  1
ByLayer
 72
     0
 43
0.0208333333333333
 43
0.0
 43
0.0
 43
0.0
 43
0.0
 43
0.0208333333333333
 43
0.0
 43
0.0
 43
0.0
 43
0.0
 43
1.0
 43
0.0
 43
0.0
 43
0.0
 43
0.0
 43
1.0
 77
     0
 47
0.0208333333333333
 47
0.0
 47
0.0
 47
0.0
 47
0.0
 47
0.0208333333333333
 47
0.0
 47
0.0
 47
0.0
 47
0.0
 47
1.0
 47
0.0
 47
0.0
 47
0.0
 47
0.0
 47
1.0
171
     0
 49
0.0208333333333333
 49
0.0
 49
0.0
 49
0.0
 49
0.0
 49
0.0208333333333333
 49
0.0
 49
0.0
 49
0.0
 49
0.0
 49
1.0
 49
0.0
 49
0.0
 49
0.0
 49
0.0
 49
1.0
175
     0
142
0.0208333333333333
142
0.0
142
0.0
142
0.0
142
0.0
142
0.0208333333333333
142
0.0
142
0.0
142
0.0
142
0.0
142
1.0
142
0.0
142
0.0
142
0.0
142
0.0
142
1.0
179
     0
144
0.0208333333333333
144
0.0
144
0.0
144
0.0
144
0.0
144
0.0208333333333333
144
0.0
144
0.0
144
0.0
144
0.0
144
1.0
144
0.0
144
0.0
144
0.0
144
0.0
144
1.0
147
0.0208333333333333
147
0.0
147
0.0
147
0.0
147
0.0
147
0.0208333333333333
147
0.0
147
0.0
147
0.0
147
0.0
147
1.0
147
0.0
147
0.0
147
0.0
147
0.0
147
1.0
  0
MATERIAL
  5
21
102
{ACAD_XDICTIONARY
360
22
102
}
102
{ACAD_REACTORS
330
10
102
}
330
10
100
AcDbMaterial
  1
Global
 72
     0
 43
0.0208333333333333
 43
0.0
 43
0.0
 43
0.0
 43
0.0
 43
0.0208333333333333
 43
0.0
 43
0.0
 43
0.0
 43
0.0
 43
1.0
 43
0.0
 43
0.0
 43
0.0
 43
0.0
 43
1.0
 77
     0
 47
0.0208333333333333
 47
0.0
 47
0.0
 47
0.0
 47
0.0
 47
0.0208333333333333
 47
0.0
 47
0.0
 47
0.0
 47
0.0
 47
1.0
 47
0.0
 47
0.0
 47
0.0
 47
0.0
 47
1.0
171
     0
 49
0.0208333333333333
 49
0.0
 49
0.0
 49
0.0
 49
0.0
 49
0.0208333333333333
 49
0.0
 49
0.0
 49
0.0
 49
0.0
 49
1.0
 49
0.0
 49
0.0
 49
0.0
 49
0.0
 49
1.0
175
     0
142
0.0208333333333333
142
0.0
142
0.0
142
0.0
142
0.0
142
0.0208333333333333
142
0.0
142
0.0
142
0.0
142
0.0
142
1.0
142
0.0
142
0.0
142
0.0
142
0.0
142
1.0
179
     0
144
0.0208333333333333
144
0.0
144
0.0
144
0.0
144
0.0
144
0.0208333333333333
144
0.0
144
0.0
144
0.0
144
0.0
144
1.0
144
0.0
144
0.0
144
0.0
144
0.0
144
1.0
147
0.0208333333333333
147
0.0
147
0.0
147
0.0
147
0.0
147
0.0208333333333333
147
0.0
147
0.0
147
0.0
147
0.0
147
1.0
147
0.0
147
0.0
147
0.0
147
0.0
147
1.0
  0
MLEADERSTYLE
  5
67
102
{ACAD_REACTORS
330
66
102
}
330
66
100
AcDbMLeaderStyle
179
     2
170
     2
171
     1
172
     0
 90
        2
 40
0.0
 41
0.0
173
     1
 91
-1056964608
340
5B
 92
       -2
290
     1
 42
0.09
291
     1
 43
0.36
  3
Standard
 44
0.18
300

342
55
174
     1
178
     6
175
     1
176
     0
 93
-1056964608
 45
0.18
292
     0
297
     0
 46
0.18
 94
-1056964608
 47
1.0
 49
1.0
140
1.0
293
     1
141
0.0
294
     1
177
     0
142
1.0
295
     1
296
     0
143
0.125
271
     0
272
     9
273
     9
298
     1
  0
MLINESTYLE
  5
60
102
{ACAD_REACTORS
330
5F
102
}
330
5F
100
AcDbMlineStyle
  2
STANDARD
 70
     0
  3

 62
   256
 51
90.0
 52
90.0
 71
     2
 49
0.5
 62
   256
  6
BYLAYER
 49
-0.5
 62
   256
  6
BYLAYER
  0
ACDBPLACEHOLDER
  5
F
102
{ACAD_REACTORS
330
E
102
}
330
E
  0
SCALE
  5
43
102
{ACAD_REACTORS
330
42
102
}
330
42
100
AcDbScale
 70
     0
300
1:1
140
1.0
141
1.0
290
     1
  0
SCALE
  5
44
102
{ACAD_REACTORS
330
42
102
}
330
42
100
AcDbScale
 70
     0
300
1/128" = 1'-0"
140
0.0078125
141
12.0
290
     0
  0
SCALE
  5
45
102
{ACAD_REACTORS
330
42
102
}
330
42
100
AcDbScale
 70
     0
300
1/64" = 1'-0"
140
0.015625
141
12.0
290
     0
  0
SCALE
  5
46
102
{ACAD_REACTORS
330
42
102
}
330
42
100
AcDbScale
 70
     0
300
1/32" = 1'-0"
140
0.03125
141
12.0
290
     0
  0
SCALE
  5
47
102
{ACAD_REACTORS
330
42
102
}
330
42
100
AcDbScale
 70
     0
300
1/16" = 1'-0"
140
0.0625
141
12.0
290
     0
  0
SCALE
  5
48
102
{ACAD_REACTORS
330
42
102
}
330
42
100
AcDbScale
 70
     0
300
3/32" = 1'-0"
140
0.09375
141
12.0
290
     0
  0
SCALE
  5
49
102
{ACAD_REACTORS
330
42
102
}
330
42
100
AcDbScale
 70
     0
300
1/8" = 1'-0"
140
0.125
141
12.0
290
     0
  0
SCALE
  5
4A
102
{ACAD_REACTORS
330
42
102
}
330
42
100
AcDbScale
 70
     0
300
3/16" = 1'-0"
140
0.1875
141
12.0
290
     0
  0
SCALE
  5
4B
102
{ACAD_REACTORS
330
42
102
}
330
42
100
AcDbScale
 70
     0
300
1/4" = 1'-0"
140
0.25
141
12.0
290
     0
  0
SCALE
  5
4C
102
{ACAD_REACTORS
330
42
102
}
330
42
100
AcDbScale
 70
     0
300
3/8" = 1'-0"
140
0.375
141
12.0
290
     0
  0
SCALE
  5
4D
102
{ACAD_REACTORS
330
42
102
}
330
42
100
AcDbScale
 70
     0
300
1/2" = 1'-0"
140
0.5
141
12.0
290
     0
  0
SCALE
  5
4E
102
{ACAD_REACTORS
330
42
102
}
330
42
100
AcDbScale
 70
     0
300
3/4" = 1'-0"
140
0.75
141
12.0
290
     0
  0
SCALE
  5
4F
102
{ACAD_REACTORS
330
42
102
}
330
42
100
AcDbScale
 70
     0
300
1" = 1'-0"
140
1.0
141
12.0
290
     0
  0
SCALE
  5
50
102
{ACAD_REACTORS
330
42
102
}
330
42
100
AcDbScale
 70
     0
300
1-1/2" = 1'-0"
140
1.5
141
12.0
290
     0
  0
SCALE
  5
51
102
{ACAD_REACTORS
330
42
102
}
330
42
100
AcDbScale
 70
     0
300
3" = 1'-0"
140
3.0
141
12.0
290
     0
  0
SCALE
  5
52
102
{ACAD_REACTORS
330
42
102
}
330
42
100
AcDbScale
 70
     0
300
6" = 1'-0"
140
6.0
141
12.0
290
     0
  0
SCALE
  5
53
102
{ACAD_REACTORS
330
42
102
}
330
42
100
AcDbScale
 70
     0
300
1'-0" = 1'-0"
140
12.0
141
12.0
290
     0
  0
ACDBSECTIONVIEWSTYLE
  5
69
102
{ACAD_REACTORS
330
68
102
}
330
68
100
AcDbModelDocViewStyle
 70
     0
  3
Imperial24
290
     1
300
Imperial24
 90
        0
100
AcDbSectionViewStyle
 70
     0
 71
     0
 90
       78
 71
     1
340
55
 62
   256
 40
0.24
340
0
340
0
 62
   256
 40
0.24
300
I, O, Q, S, X, Z
 40
0.48
 90
        3
 40
0.18
 90
        1
 71
     2
340
5D
 90
       25
 62
   256
340
5D
 90
       50
 62
   256
 40
0.24
 40
0.0
 40
0.24
 71
     3
340
55
 62
   256
 40
0.24
 90
        1
 40
0.75
 90
        1
300
%<\AcVar ViewType \f "%tc1">% %<\AcVar ViewSectionStartId>%-%<\AcVar ViewSectionEndId>%\PSCALE %<\AcVar ViewScale \f "%sn">%
 71
     4
 62
   256
 62
   257
300
ANSI31
 40
1.0
 90
        0
290
     0
290
     0
 90
        6
 40
0.0
 40
1.570796326794896
 40
0.2617993877991494
 40
1.308996938995747
 40
-0.2617993877991494
 40
1.832595714594046
  0
TABLESTYLE
  5
65
102
{ACAD_XDICTIONARY
360
AC
102
}
102
{ACAD_REACTORS
330
64
102
}
330
64
100
AcDbTableStyle
280
     0
  3
Standard
 70
     0
 71
     0
 40
0.06
 41
0.06
280
     0
281
     0
  7
Standard
140
0.18
170
     2
 62
     0
 63
     7
283
     0
 90
      512
 91
        0
  1

274
    -2
284
     1
 64
     0
275
    -2
285
     1
 65
     0
276
    -2
286
     1
 66
     0
277
    -2
287
     1
 67
     0
278
    -2
288
     1
 68
     0
279
    -2
289
     1
 69
     0
  7
Standard
140
0.25
170
     5
 62
     0
 63
     7
283
     0
 90
      512
 91
        0
  1

274
    -2
284
     1
 64
     0
275
    -2
285
     1
 65
     0
276
    -2
286
     1
 66
     0
277
    -2
287
     1
 67
     0
278
    -2
288
     1
 68
     0
279
    -2
289
     1
 69
     0
  7
Standard
140
0.18
170
     5
 62
     0
 63
     7
283
     0
 90
      512
 91
        0
  1

274
    -2
284
     1
 64
     0
275
    -2
285
     1
 65
     0
276
    -2
286
     1
 66
     0
277
    -2
287
     1
 67
     0
278
    -2
288
     1
 68
     0
279
    -2
289
     1
 69
     0
  0
VISUALSTYLE
  5
2F
102
{ACAD_REACTORS
330
29
102
}
330
29
100
AcDbVisualStyle
  2
2dWireframe
 70
     4
177
     3
291
     0
 70
    58
 90
        0
176
     1
 90
        2
176
     1
 90
        0
176
     1
 90
        0
176
     1
 40
0.6
176
     1
 40
30.0
176
     1
 62
     7
420
 16777215
176
     1
 90
        1
176
     1
 90
        4
176
     1
 62
     7
176
     1
 62
   257
176
     1
 90
        1
176
     1
 90
        1
176
     1
 40
1.0
176
     1
 90
        0
176
     1
 62
   257
176
     1
 40
1.0
176
     1
 90
        1
176
     1
 90
        6
176
     1
 90
        2
176
     1
 62
     7
176
     1
 90
        5
176
     1
 90
        0
176
     1
 90
        0
176
     1
290
     0
176
     1
 90
        1
176
     1
 40
0.0
176
     1
 90
        0
176
     1
290
     1
176
     1
290
     1
176
     1
290
     0
176
     1
290
     0
176
     1
290
     0
176
     1
290
     0
176
     1
290
     0
176
     1
290
     0
176
     1
290
     0
176
     1
 90
       50
176
     1
 40
0.0
176
     1
 40
1.0
176
     1
 90
        0
176
     1
 62
    18
420
        0
176
     1
 90
       50
176
     1
 90
        3
176
     1
 62
     5
420
      255
176
     1
290
     0
176
     1
 90
       50
176
     1
 90
       50
176
     1
 90
       50
176
     1
290
     0
176
     1
 90
       50
176
     1
 62
   256
176
     0
 40
1.0
176
     0
 90
        2
176
     1
  1
strokes_ogs.tif
176
     1
290
     0
176
     1
 40
1.0
176
     1
 40
1.0
176
     1
  0
VISUALSTYLE
  5
2E
102
{ACAD_REACTORS
330
29
102
}
330
29
100
AcDbVisualStyle
  2
Basic
 70
     7
177
     3
291
     1
 70
    58
 90
        1
176
     1
 90
        0
176
     1
 90
        1
176
     1
 90
        0
176
     1
 40
0.6
176
     1
 40
30.0
176
     1
 62
     7
420
 16777215
176
     1
 90
        0
176
     1
 90
        4
176
     1
 62
     7
176
     1
 62
   257
176
     1
 90
        1
176
     1
 90
        1
176
     1
 40
1.0
176
     1
 90
        8
176
     1
 62
     7
176
     1
 40
1.0
176
     1
 90
        1
176
     1
 90
        6
176
     1
 90
        2
176
     1
 62
     7
176
     1
 90
        5
176
     1
 90
        0
176
     1
 90
        0
176
     1
290
     0
176
     1
 90
        1
176
     1
 40
0.0
176
     1
 90
        0
176
     1
290
     0
176
     1
290
     1
176
     1
290
     1
176
     1
290
     0
176
     1
290
     0
176
     1
290
     0
176
     1
290
     0
176
     1
290
     0
176
     1
290
     0
176
     1
 90
       50
176
     1
 40
0.0
176
     1
 40
1.0
176
     1
 90
        0
176
     1
 62
    18
420
        0
176
     1
 90
       50
176
     1
 90
        3
176
     1
 62
     5
420
      255
176
     1
290
     0
176
     1
 90
       50
176
     1
 90
       50
176
     1
 90
       50
176
     1
290
     0
176
     1
 90
       50
176
     1
 62
   256
176
     0
 40
1.0
176
     0
 90
        2
176
     1
  1
strokes_ogs.tif
176
     1
290
     0
176
     1
 40
1.0
176
     1
 40
1.0
176
     1
  0
VISUALSTYLE
  5
35
102
{ACAD_REACTORS
330
29
102
}
330
29
100
AcDbVisualStyle
  2
Brighten
 70
    12
177
     3
291
     1
 70
    58
 90
        2
176
     1
 90
        2
176
     1
 90
        0
176
     1
 90
        0
176
     1
 40
0.6
176
     1
 40
30.0
176
     1
 62
     7
420
 16777215
176
     1
 90
        1
176
     1
 90
        4
176
     1
 62
     7
176
     1
 62
   257
176
     1
 90
        1
176
     1
 90
        1
176
     1
 40
1.0
176
     1
 90
        8
176
     1
 62
     7
176
     1
 40
1.0
176
     1
 90
        1
176
     1
 90
        6
176
     1
 90
        2
176
     1
 62
     7
176
     1
 90
        5
176
     1
 90
        0
176
     1
 90
        0
176
     1
290
     0
176
     1
 90
        1
176
     1
 40
50.0
176
     1
 90
        0
176
     1
290
     0
176
     1
290
     1
176
     1
290
     1
176
     1
290
     0
176
     1
290
     0
176
     1
290
     0
176
     1
290
     0
176
     1
290
     0
176
     1
290
     0
176
     1
 90
       50
176
     1
 40
0.0
176
     1
 40
1.0
176
     1
 90
        0
176
     1
 62
    18
420
        0
176
     1
 90
       50
176
     1
 90
        3
176
     1
 62
     5
420
      255
176
     1
290
     0
176
     1
 90
       50
176
     1
 90
       50
176
     1
 90
       50
176
     1
290
     0
176
     1
 90
       50
176
     1
 62
   256
176
     0
 40
1.0
176
     0
 90
        2
176
     1
  1
strokes_ogs.tif
176
     1
290
     0
176
     1
 40
1.0
176
     1
 40
1.0
176
     1
  0
VISUALSTYLE
  5
39
102
{ACAD_REACTORS
330
29
102
}
330
29
100
AcDbVisualStyle
  2
ColorChange
 70
    16
177
     3
291
     1
 70
    58
 90
        2
176
     1
 90
        2
176
     1
 90
        3
176
     1
 90
        0
176
     1
 40
0.6
176
     1
 40
30.0
176
     1
 62
     8
420
  8421504
176
     1
 90
        1
176
     1
 90
        4
176
     1
 62
     7
176
     1
 62
   257
176
     1
 90
        1
176
     1
 90
        1
176
     1
 40
1.0
176
     1
 90
        8
176
     1
 62
     8
420
  8421504
176
     1
 40
1.0
176
     1
 90
        1
176
     1
 90
        6
176
     1
 90
        2
176
     1
 62
     7
176
     1
 90
        5
176
     1
 90
        0
176
     1
 90
        0
176
     1
290
     0
176
     1
 90
        1
176
     1
 40
0.0
176
     1
 90
        0
176
     1
290
     0
176
     1
290
     1
176
     1
290
     1
176
     1
290
     0
176
     1
290
     0
176
     1
290
     0
176
     1
290
     0
176
     1
290
     0
176
     1
290
     0
176
     1
 90
       50
176
     1
 40
0.0
176
     1
 40
1.0
176
     1
 90
        0
176
     1
 62
    18
420
        0
176
     1
 90
       50
176
     1
 90
        3
176
     1
 62
     5
420
      255
176
     1
290
     0
176
     1
 90
       50
176
     1
 90
       50
176
     1
 90
       50
176
     1
290
     0
176
     1
 90
       50
176
     1
 62
   256
176
     0
 40
1.0
176
     0
 90
        2
176
     1
  1
strokes_ogs.tif
176
     1
290
     0
176
     1
 40
1.0
176
     1
 40
1.0
176
     1
  0
VISUALSTYLE
  5
32
102
{ACAD_REACTORS
330
29
102
}
330
29
100
AcDbVisualStyle
  2
Conceptual
 70
     9
177
     3
291
     0
 70
    58
 90
        3
176
     1
 90
        2
176
     1
 90
        0
176
     1
 90
        0
176
     1
 40
0.6
176
     1
 40
30.0
176
     1
 62
     7
420
 16777215
176
     1
 90
        2
176
     1
 90
        2
176
     1
 62
     7
176
     1
 62
   257
176
     1
 90
        1
176
     1
 90
        1
176
     1
 40
179.0
176
     1
 90
        8
176
     1
 62
     7
176
     1
 40
1.0
176
     1
 90
        1
176
     1
 90
        6
176
     1
 90
        2
176
     1
 62
     7
176
     1
 90
        3
176
     1
 90
        0
176
     1
 90
        0
176
     1
290
     0
176
     1
 90
        1
176
     1
 40
0.0
176
     1
 90
        0
176
     1
290
     0
176
     1
290
     1
176
     1
290
     1
176
     1
290
     0
176
     1
290
     0
176
     1
290
     0
176
     1
290
     0
176
     1
290
     0
176
     1
290
     0
176
     1
 90
       50
176
     1
 40
0.0
176
     1
 40
1.0
176
     1
 90
        0
176
     1
 62
    18
420
        0
176
     1
 90
       50
176
     1
 90
        3
176
     1
 62
     5
420
      255
176
     1
290
     0
176
     1
 90
       50
176
     1
 90
       50
176
     1
 90
       50
176
     1
290
     0
176
     1
 90
       50
176
     1
 62
   256
176
     0
 40
1.0
176
     0
 90
        2
176
     1
  1
strokes_ogs.tif
176
     1
290
     0
176
     1
 40
1.0
176
     1
 40
1.0
176
     1
  0
VISUALSTYLE
  5
34
102
{ACAD_REACTORS
330
29
102
}
330
29
100
AcDbVisualStyle
  2
Dim
 70
    11
177
     3
291
     1
 70
    58
 90
        2
176
     1
 90
        2
176
     1
 90
        0
176
     1
 90
        0
176
     1
 40
0.6
176
     1
 40
30.0
176
     1
 62
     7
420
 16777215
176
     1
 90
        1
176
     1
 90
        4
176
     1
 62
     7
176
     1
 62
   257
176
     1
 90
        1
176
     1
 90
        1
176
     1
 40
1.0
176
     1
 90
        8
176
     1
 62
     7
176
     1
 40
1.0
176
     1
 90
        1
176
     1
 90
        6
176
     1
 90
        2
176
     1
 62
     7
176
     1
 90
        5
176
     1
 90
        0
176
     1
 90
        0
176
     1
290
     0
176
     1
 90
        1
176
     1
 40
-50.0
176
     1
 90
        0
176
     1
290
     0
176
     1
290
     1
176
     1
290
     1
176
     1
290
     0
176
     1
290
     0
176
     1
290
     0
176
     1
290
     0
176
     1
290
     0
176
     1
290
     0
176
     1
 90
       50
176
     1
 40
0.0
176
     1
 40
1.0
176
     1
 90
        0
176
     1
 62
    18
420
        0
176
     1
 90
       50
176
     1
 90
        3
176
     1
 62
     5
420
      255
176
     1
290
     0
176
     1
 90
       50
176
     1
 90
       50
176
     1
 90
       50
176
     1
290
     0
176
     1
 90
       50
176
     1
 62
   256
176
     0
 40
1.0
176
     0
 90
        2
176
     1
  1
strokes_ogs.tif
176
     1
290
     0
176
     1
 40
1.0
176
     1
 40
1.0
176
     1
  0
VISUALSTYLE
  5
41
102
{ACAD_REACTORS
330
29
102
}
330
29
100
AcDbVisualStyle
  2
EdgeColorOff
 70
    22
177
     3
291
     1
 70
    58
 90
        2
176
     0
 90
        2
176
     0
 90
        0
176
     0
 90
        0
176
     0
 40
0.6
176
     0
 40
30.0
176
     0
 62
     7
420
 16777215
176
     0
 90
        1
176
     0
 90
        4
176
     0
 62
     7
176
     0
 62
   257
176
     0
 90
        1
176
     0
 90
        1
176
     0
 40
1.0
176
     0
 90
        8
176
     2
 62
     7
176
     0
 40
1.0
176
     0
 90
        1
176
     0
 90
        6
176
     0
 90
        2
176
     0
 62
     7
176
     0
 90
        5
176
     0
 90
        0
176
     0
 90
        0
176
     0
290
     0
176
     0
 90
        1
176
     0
 40
0.0
176
     0
 90
        0
176
     0
290
     0
176
     0
290
     1
176
     0
290
     1
176
     0
290
     0
176
     0
290
     0
176
     0
290
     0
176
     0
290
     0
176
     0
290
     0
176
     0
290
     0
176
     0
 90
       50
176
     0
 40
0.0
176
     0
 40
1.0
176
     0
 90
        0
176
     0
 62
    18
420
        0
176
     0
 90
       50
176
     0
 90
        3
176
     0
 62
     5
420
      255
176
     0
290
     0
176
     0
 90
       50
176
     0
 90
       50
176
     0
 90
       50
176
     0
290
     0
176
     0
 90
       50
176
     0
 62
   256
176
     0
 40
1.0
176
     0
 90
        2
176
     0
  1
strokes_ogs.tif
176
     0
290
     0
176
     0
 40
1.0
176
     0
 40
1.0
176
     0
  0
VISUALSTYLE
  5
38
102
{ACAD_REACTORS
330
29
102
}
330
29
100
AcDbVisualStyle
  2
Facepattern
 70
    15
177
     3
291
     1
 70
    58
 90
        2
176
     1
 90
        2
176
     1
 90
        0
176
     1
 90
        0
176
     1
 40
0.6
176
     1
 40
30.0
176
     1
 62
     7
420
 16777215
176
     1
 90
        1
176
     1
 90
        4
176
     1
 62
     7
176
     1
 62
   257
176
     1
 90
        1
176
     1
 90
        1
176
     1
 40
1.0
176
     1
 90
        8
176
     1
 62
     7
176
     1
 40
1.0
176
     1
 90
        1
176
     1
 90
        6
176
     1
 90
        2
176
     1
 62
     7
176
     1
 90
        5
176
     1
 90
        0
176
     1
 90
        0
176
     1
290
     0
176
     1
 90
        1
176
     1
 40
0.0
176
     1
 90
        0
176
     1
290
     0
176
     1
290
     1
176
     1
290
     1
176
     1
290
     0
176
     1
290
     0
176
     1
290
     0
176
     1
290
     0
176
     1
290
     0
176
     1
290
     0
176
     1
 90
       50
176
     1
 40
0.0
176
     1
 40
1.0
176
     1
 90
        0
176
     1
 62
    18
420
        0
176
     1
 90
       50
176
     1
 90
        3
176
     1
 62
     5
420
      255
176
     1
290
     0
176
     1
 90
       50
176
     1
 90
       50
176
     1
 90
       50
176
     1
290
     0
176
     1
 90
       50
176
     1
 62
   256
176
     0
 40
1.0
176
     0
 90
        2
176
     1
  1
strokes_ogs.tif
176
     1
290
     0
176
     1
 40
1.0
176
     1
 40
1.0
176
     1
  0
VISUALSTYLE
  5
2A
102
{ACAD_REACTORS
330
29
102
}
330
29
100
AcDbVisualStyle
  2
Flat
 70
     0
177
     3
291
     1
 70
    58
 90
        2
176
     1
 90
        1
176
     1
 90
        1
176
     1
 90
        2
176
     1
 40
0.6
176
     1
 40
30.0
176
     1
 62
     7
420
 16777215
176
     1
 90
        0
176
     1
 90
        0
176
     1
 62
     7
176
     1
 62
   257
176
     1
 90
        1
176
     1
 90
        1
176
     1
 40
1.0
176
     1
 90
        8
176
     1
 62
     7
176
     1
 40
1.0
176
     1
 90
        1
176
     1
 90
        6
176
     1
 90
        2
176
     1
 62
     7
176
     1
 90
        5
176
     1
 90
        0
176
     1
 90
        0
176
     1
290
     0
176
     1
 90
       13
176
     1
 40
0.0
176
     1
 90
        0
176
     1
290
     0
176
     1
290
     1
176
     1
290
     1
176
     1
290
     0
176
     1
290
     0
176
     1
290
     0
176
     1
290
     0
176
     1
290
     0
176
     1
290
     0
176
     1
 90
       50
176
     1
 40
0.0
176
     1
 40
1.0
176
     1
 90
        0
176
     1
 62
    18
420
        0
176
     1
 90
       50
176
     1
 90
        3
176
     1
 62
     5
420
      255
176
     1
290
     0
176
     1
 90
       50
176
     1
 90
       50
176
     1
 90
       50
176
     1
290
     0
176
     1
 90
       50
176
     1
 62
   256
176
     0
 40
1.0
176
     0
 90
        2
176
     1
  1
strokes_ogs.tif
176
     1
290
     0
176
     1
 40
1.0
176
     1
 40
1.0
176
     1
  0
VISUALSTYLE
  5
2B
102
{ACAD_REACTORS
330
29
102
}
330
29
100
AcDbVisualStyle
  2
FlatWithEdges
 70
     1
177
     3
291
     1
 70
    58
 90
        2
176
     1
 90
        1
176
     1
 90
        1
176
     1
 90
        2
176
     1
 40
0.6
176
     1
 40
30.0
176
     1
 62
     7
420
 16777215
176
     1
 90
        1
176
     1
 90
        0
176
     1
 62
     7
176
     1
 62
   257
176
     1
 90
        1
176
     1
 90
        1
176
     1
 40
1.0
176
     1
 90
        0
176
     1
 62
   257
176
     1
 40
1.0
176
     1
 90
        1
176
     1
 90
        6
176
     1
 90
        2
176
     1
 62
     7
176
     1
 90
        5
176
     1
 90
        0
176
     1
 90
        0
176
     1
290
     0
176
     1
 90
       13
176
     1
 40
0.0
176
     1
 90
        0
176
     1
290
     0
176
     1
290
     1
176
     1
290
     1
176
     1
290
     0
176
     1
290
     0
176
     1
290
     0
176
     1
290
     0
176
     1
290
     0
176
     1
290
     0
176
     1
 90
       50
176
     1
 40
0.0
176
     1
 40
1.0
176
     1
 90
        0
176
     1
 62
    18
420
        0
176
     1
 90
       50
176
     1
 90
        3
176
     1
 62
     5
420
      255
176
     1
290
     0
176
     1
 90
       50
176
     1
 90
       50
176
     1
 90
       50
176
     1
290
     0
176
     1
 90
       50
176
     1
 62
   256
176
     0
 40
1.0
176
     0
 90
        2
176
     1
  1
strokes_ogs.tif
176
     1
290
     0
176
     1
 40
1.0
176
     1
 40
1.0
176
     1
  0
VISUALSTYLE
  5
2C
102
{ACAD_REACTORS
330
29
102
}
330
29
100
AcDbVisualStyle
  2
Gouraud
 70
     2
177
     3
291
     1
 70
    58
 90
        2
176
     1
 90
        2
176
     1
 90
        1
176
     1
 90
        2
176
     1
 40
0.6
176
     1
 40
30.0
176
     1
 62
     7
420
 16777215
176
     1
 90
        0
176
     1
 90
        0
176
     1
 62
     7
176
     1
 62
   257
176
     1
 90
        1
176
     1
 90
        1
176
     1
 40
1.0
176
     1
 90
        0
176
     1
 62
     7
176
     1
 40
1.0
176
     1
 90
        1
176
     1
 90
        6
176
     1
 90
        2
176
     1
 62
     7
176
     1
 90
        5
176
     1
 90
        0
176
     1
 90
        0
176
     1
290
     0
176
     1
 90
       13
176
     1
 40
0.0
176
     1
 90
        0
176
     1
290
     0
176
     1
290
     1
176
     1
290
     1
176
     1
290
     0
176
     1
290
     0
176
     1
290
     0
176
     1
290
     0
176
     1
290
     0
176
     1
290
     0
176
     1
 90
       50
176
     1
 40
0.0
176
     1
 40
1.0
176
     1
 90
        0
176
     1
 62
    18
420
        0
176
     1
 90
       50
176
     1
 90
        3
176
     1
 62
     5
420
      255
176
     1
290
     0
176
     1
 90
       50
176
     1
 90
       50
176
     1
 90
       50
176
     1
290
     0
176
     1
 90
       50
176
     1
 62
   256
176
     0
 40
1.0
176
     0
 90
        2
176
     1
  1
strokes_ogs.tif
176
     1
290
     0
176
     1
 40
1.0
176
     1
 40
1.0
176
     1
  0
VISUALSTYLE
  5
2D
102
{ACAD_REACTORS
330
29
102
}
330
29
100
AcDbVisualStyle
  2
GouraudWithEdges
 70
     3
177
     3
291
     1
 70
    58
 90
        2
176
     1
 90
        2
176
     1
 90
        1
176
     1
 90
        2
176
     1
 40
0.6
176
     1
 40
30.0
176
     1
 62
     7
420
 16777215
176
     1
 90
        1
176
     1
 90
        0
176
     1
 62
     7
176
     1
 62
   257
176
     1
 90
        1
176
     1
 90
        1
176
     1
 40
1.0
176
     1
 90
        0
176
     1
 62
   257
176
     1
 40
1.0
176
     1
 90
        1
176
     1
 90
        6
176
     1
 90
        2
176
     1
 62
     7
176
     1
 90
        5
176
     1
 90
        0
176
     1
 90
        0
176
     1
290
     0
176
     1
 90
       13
176
     1
 40
0.0
176
     1
 90
        0
176
     1
290
     0
176
     1
290
     1
176
     1
290
     1
176
     1
290
     0
176
     1
290
     0
176
     1
290
     0
176
     1
290
     0
176
     1
290
     0
176
     1
290
     0
176
     1
 90
       50
176
     1
 40
0.0
176
     1
 40
1.0
176
     1
 90
        0
176
     1
 62
    18
420
        0
176
     1
 90
       50
176
     1
 90
        3
176
     1
 62
     5
420
      255
176
     1
290
     0
176
     1
 90
       50
176
     1
 90
       50
176
     1
 90
       50
176
     1
290
     0
176
     1
 90
       50
176
     1
 62
   256
176
     0
 40
1.0
176
     0
 90
        2
176
     1
  1
strokes_ogs.tif
176
     1
290
     0
176
     1
 40
1.0
176
     1
 40
1.0
176
     1
  0
VISUALSTYLE
  5
31
102
{ACAD_REACTORS
330
29
102
}
330
29
100
AcDbVisualStyle
  2
Hidden
 70
     6
177
     3
291
     0
 70
    58
 90
        1
176
     1
 90
        2
176
     1
 90
        2
176
     1
 90
        0
176
     1
 40
0.6
176
     1
 40
30.0
176
     1
 62
     7
420
 16777215
176
     1
 90
        2
176
     1
 90
        2
176
     1
 62
     7
176
     1
 62
   257
176
     1
 90
        2
176
     1
 90
        1
176
     1
 40
40.0
176
     1
 90
        0
176
     1
 62
   257
176
     1
 40
1.0
176
     1
 90
        1
176
     1
 90
        6
176
     1
 90
        2
176
     1
 62
     7
176
     1
 90
        3
176
     1
 90
        0
176
     1
 90
        0
176
     1
290
     0
176
     1
 90
        1
176
     1
 40
0.0
176
     1
 90
        0
176
     1
290
     0
176
     1
290
     1
176
     1
290
     1
176
     1
290
     0
176
     1
290
     0
176
     1
290
     0
176
     1
290
     0
176
     1
290
     0
176
     1
290
     0
176
     1
 90
       50
176
     1
 40
0.0
176
     1
 40
1.0
176
     1
 90
        0
176
     1
 62
    18
420
        0
176
     1
 90
       50
176
     1
 90
        3
176
     1
 62
     5
420
      255
176
     1
290
     0
176
     1
 90
       50
176
     1
 90
       50
176
     1
 90
       50
176
     1
290
     0
176
     1
 90
       50
176
     1
 62
   256
176
     0
 40
1.0
176
     0
 90
        2
176
     1
  1
strokes_ogs.tif
176
     1
290
     0
176
     1
 40
1.0
176
     1
 40
1.0
176
     1
  0
VISUALSTYLE
  5
3F
102
{ACAD_REACTORS
330
29
102
}
330
29
100
AcDbVisualStyle
  2
JitterOff
 70
    20
177
     3
291
     1
 70
    58
 90
        2
176
     0
 90
        2
176
     0
 90
        0
176
     0
 90
        0
176
     0
 40
0.6
176
     0
 40
30.0
176
     0
 62
     7
420
 16777215
176
     0
 90
        1
176
     0
 90
        4
176
     0
 62
     7
176
     0
 62
   257
176
     0
 90
        1
176
     0
 90
        1
176
     0
 40
1.0
176
     0
 90
       10
176
     2
 62
     7
176
     0
 40
1.0
176
     0
 90
        1
176
     0
 90
        6
176
     0
 90
        2
176
     0
 62
     7
176
     0
 90
        5
176
     0
 90
        0
176
     0
 90
        0
176
     0
290
     0
176
     0
 90
        1
176
     0
 40
0.0
176
     0
 90
        0
176
     0
290
     0
176
     0
290
     1
176
     0
290
     1
176
     0
290
     0
176
     0
290
     0
176
     0
290
     0
176
     0
290
     0
176
     0
290
     0
176
     0
290
     0
176
     0
 90
       50
176
     0
 40
0.0
176
     0
 40
1.0
176
     0
 90
        0
176
     0
 62
    18
420
        0
176
     0
 90
       50
176
     0
 90
        3
176
     0
 62
     5
420
      255
176
     0
290
     0
176
     0
 90
       50
176
     0
 90
       50
176
     0
 90
       50
176
     0
290
     0
176
     0
 90
       50
176
     0
 62
   256
176
     0
 40
1.0
176
     0
 90
        2
176
     0
  1
strokes_ogs.tif
176
     0
290
     0
176
     0
 40
1.0
176
     0
 40
1.0
176
     0
  0
VISUALSTYLE
  5
37
102
{ACAD_REACTORS
330
29
102
}
330
29
100
AcDbVisualStyle
  2
Linepattern
 70
    14
177
     3
291
     1
 70
    58
 90
        2
176
     1
 90
        2
176
     1
 90
        0
176
     1
 90
        0
176
     1
 40
0.6
176
     1
 40
30.0
176
     1
 62
     7
420
 16777215
176
     1
 90
        1
176
     1
 90
        4
176
     1
 62
     7
176
     1
 62
   257
176
     1
 90
        7
176
     1
 90
        7
176
     1
 40
1.0
176
     1
 90
        8
176
     1
 62
     7
176
     1
 40
1.0
176
     1
 90
        1
176
     1
 90
        6
176
     1
 90
        2
176
     1
 62
     7
176
     1
 90
        5
176
     1
 90
        0
176
     1
 90
        0
176
     1
290
     0
176
     1
 90
        1
176
     1
 40
0.0
176
     1
 90
        0
176
     1
290
     0
176
     1
290
     1
176
     1
290
     1
176
     1
290
     0
176
     1
290
     0
176
     1
290
     0
176
     1
290
     0
176
     1
290
     0
176
     1
290
     0
176
     1
 90
       50
176
     1
 40
0.0
176
     1
 40
1.0
176
     1
 90
        0
176
     1
 62
    18
420
        0
176
     1
 90
       50
176
     1
 90
        3
176
     1
 62
     5
420
      255
176
     1
290
     0
176
     1
 90
       50
176
     1
 90
       50
176
     1
 90
       50
176
     1
290
     0
176
     1
 90
       50
176
     1
 62
   256
176
     0
 40
1.0
176
     0
 90
        2
176
     1
  1
strokes_ogs.tif
176
     1
290
     0
176
     1
 40
1.0
176
     1
 40
1.0
176
     1
  0
VISUALSTYLE
  5
40
102
{ACAD_REACTORS
330
29
102
}
330
29
100
AcDbVisualStyle
  2
OverhangOff
 70
    21
177
     3
291
     1
 70
    58
 90
        2
176
     0
 90
        2
176
     0
 90
        0
176
     0
 90
        0
176
     0
 40
0.6
176
     0
 40
30.0
176
     0
 62
     7
420
 16777215
176
     0
 90
        1
176
     0
 90
        4
176
     0
 62
     7
176
     0
 62
   257
176
     0
 90
        1
176
     0
 90
        1
176
     0
 40
1.0
176
     0
 90
        9
176
     2
 62
     7
176
     0
 40
1.0
176
     0
 90
        1
176
     0
 90
        6
176
     0
 90
        2
176
     0
 62
     7
176
     0
 90
        5
176
     0
 90
        0
176
     0
 90
        0
176
     0
290
     0
176
     0
 90
        1
176
     0
 40
0.0
176
     0
 90
        0
176
     0
290
     0
176
     0
290
     1
176
     0
290
     1
176
     0
290
     0
176
     0
290
     0
176
     0
290
     0
176
     0
290
     0
176
     0
290
     0
176
     0
290
     0
176
     0
 90
       50
176
     0
 40
0.0
176
     0
 40
1.0
176
     0
 90
        0
176
     0
 62
    18
420
        0
176
     0
 90
       50
176
     0
 90
        3
176
     0
 62
     5
420
      255
176
     0
290
     0
176
     0
 90
       50
176
     0
 90
       50
176
     0
 90
       50
176
     0
290
     0
176
     0
 90
       50
176
     0
 62
   256
176
     0
 40
1.0
176
     0
 90
        2
176
     0
  1
strokes_ogs.tif
176
     0
290
     0
176
     0
 40
1.0
176
     0
 40
1.0
176
     0
  0
VISUALSTYLE
  5
33
102
{ACAD_REACTORS
330
29
102
}
330
29
100
AcDbVisualStyle
  2
Realistic
 70
     8
177
     3
291
     0
 70
    58
 90
        2
176
     1
 90
        3
176
     1
 90
        0
176
     1
 90
        2
176
     1
 40
0.6
176
     1
 40
30.0
176
     1
 62
     7
420
 16777215
176
     1
 90
        0
176
     1
 90
        0
176
     1
 62
     7
176
     1
 62
   257
176
     1
 90
        1
176
     1
 90
        1
176
     1
 40
1.0
176
     1
 90
        8
176
     1
 62
   257
176
     1
 40
1.0
176
     1
 90
        1
176
     1
 90
        6
176
     1
 90
        2
176
     1
 62
     7
176
     1
 90
        3
176
     1
 90
        0
176
     1
 90
        0
176
     1
290
     0
176
     1
 90
       13
176
     1
 40
0.0
176
     1
 90
        0
176
     1
290
     0
176
     1
290
     1
176
     1
290
     1
176
     1
290
     0
176
     1
290
     0
176
     1
290
     0
176
     1
290
     0
176
     1
290
     0
176
     1
290
     0
176
     1
 90
       50
176
     1
 40
0.0
176
     1
 40
1.0
176
     1
 90
        0
176
     1
 62
    18
420
        0
176
     1
 90
       50
176
     1
 90
        3
176
     1
 62
     5
420
      255
176
     1
290
     0
176
     1
 90
       50
176
     1
 90
       50
176
     1
 90
       50
176
     1
290
     0
176
     1
 90
       50
176
     1
 62
   256
176
     0
 40
1.0
176
     0
 90
        2
176
     1
  1
strokes_ogs.tif
176
     1
290
     0
176
     1
 40
1.0
176
     1
 40
1.0
176
     1
  0
VISUALSTYLE
  5
3E
102
{ACAD_REACTORS
330
29
102
}
330
29
100
AcDbVisualStyle
  2
Shaded
 70
    27
177
     3
291
     0
 70
    58
 90
        2
176
     1
 90
        2
176
     1
 90
        1
176
     1
 90
        2
176
     1
 40
0.6
176
     1
 40
30.0
176
     1
 62
     7
420
 16777215
176
     1
 90
        0
176
     1
 90
        4
176
     1
 62
     7
176
     1
 62
   257
176
     1
 90
        1
176
     1
 90
        1
176
     1
 40
1.0
176
     1
 90
        8
176
     1
 62
   257
176
     1
 40
1.0
176
     1
 90
        1
176
     1
 90
        6
176
     1
 90
        2
176
     1
 62
     8
420
  7895160
176
     1
 90
        3
176
     1
 90
        0
176
     1
 90
        0
176
     1
290
     0
176
     1
 90
        5
176
     1
 40
0.0
176
     1
 90
        0
176
     1
290
     0
176
     1
290
     1
176
     1
290
     1
176
     1
290
     0
176
     1
290
     0
176
     1
290
     0
176
     1
290
     0
176
     1
290
     0
176
     1
290
     0
176
     1
 90
       50
176
     1
 40
0.0
176
     1
 40
1.0
176
     1
 90
        0
176
     1
 62
    18
420
        0
176
     1
 90
       50
176
     1
 90
        3
176
     1
 62
     5
420
      255
176
     1
290
     0
176
     1
 90
       50
176
     1
 90
       50
176
     1
 90
       50
176
     1
290
     0
176
     1
 90
       50
176
     1
 62
   256
176
     0
 40
1.0
176
     0
 90
        2
176
     1
  1
strokes_ogs.tif
176
     1
290
     0
176
     1
 40
1.0
176
     1
 40
1.0
176
     1
  0
VISUALSTYLE
  5
3D
102
{ACAD_REACTORS
330
29
102
}
330
29
100
AcDbVisualStyle
  2
Shaded with edges
 70
    26
177
     3
291
     0
 70
    58
 90
        2
176
     1
 90
        2
176
     1
 90
        1
176
     1
 90
        2
176
     1
 40
0.6
176
     1
 40
30.0
176
     1
 62
     7
420
 16777215
176
     1
 90
        1
176
     1
 90
        2
176
     1
 62
     7
176
     1
 62
   257
176
     1
 90
        2
176
     1
 90
        1
176
     1
 40
1.0
176
     1
 90
        8
176
     1
 62
   257
176
     1
 40
1.0
176
     1
 90
        1
176
     1
 90
        6
176
     1
 90
        2
176
     1
 62
     7
176
     1
 90
        3
176
     1
 90
        0
176
     1
 90
        0
176
     1
290
     0
176
     1
 90
        5
176
     1
 40
0.0
176
     1
 90
        0
176
     1
290
     0
176
     1
290
     1
176
     1
290
     1
176
     1
290
     0
176
     1
290
     0
176
     1
290
     0
176
     1
290
     0
176
     1
290
     0
176
     1
290
     0
176
     1
 90
       50
176
     1
 40
0.0
176
     1
 40
1.0
176
     1
 90
        0
176
     1
 62
    18
420
        0
176
     1
 90
       50
176
     1
 90
        3
176
     1
 62
     5
420
      255
176
     1
290
     0
176
     1
 90
       50
176
     1
 90
       50
176
     1
 90
       50
176
     1
290
     0
176
     1
 90
       50
176
     1
 62
   256
176
     0
 40
1.0
176
     0
 90
        2
176
     1
  1
strokes_ogs.tif
176
     1
290
     0
176
     1
 40
1.0
176
     1
 40
1.0
176
     1
  0
VISUALSTYLE
  5
3A
102
{ACAD_REACTORS
330
29
102
}
330
29
100
AcDbVisualStyle
  2
Shades of Gray
 70
    23
177
     3
291
     0
 70
    58
 90
        2
176
     1
 90
        2
176
     1
 90
        3
176
     1
 90
        0
176
     1
 40
0.6
176
     1
 40
30.0
176
     1
 62
     7
420
 16777215
176
     1
 90
        2
176
     1
 90
        2
176
     1
 62
     7
176
     1
 62
     7
176
     1
 90
        1
176
     1
 90
        1
176
     1
 40
40.0
176
     1
 90
        8
176
     1
 62
     7
176
     1
 40
1.0
176
     1
 90
        1
176
     1
 90
        6
176
     1
 90
        2
176
     1
 62
     7
176
     1
 90
        3
176
     1
 90
        0
176
     1
 90
        0
176
     1
290
     0
176
     1
 90
        1
176
     1
 40
0.0
176
     1
 90
        0
176
     1
290
     0
176
     1
290
     1
176
     1
290
     1
176
     1
290
     0
176
     1
290
     0
176
     1
290
     0
176
     1
290
     0
176
     1
290
     0
176
     1
290
     0
176
     1
 90
       50
176
     1
 40
0.0
176
     1
 40
1.0
176
     1
 90
        0
176
     1
 62
    18
420
        0
176
     1
 90
       50
176
     1
 90
        3
176
     1
 62
     5
420
      255
176
     1
290
     0
176
     1
 90
       50
176
     1
 90
       50
176
     1
 90
       50
176
     1
290
     0
176
     1
 90
       50
176
     1
 62
   256
176
     0
 40
1.0
176
     0
 90
        2
176
     1
  1
strokes_ogs.tif
176
     1
290
     0
176
     1
 40
1.0
176
     1
 40
1.0
176
     1
  0
VISUALSTYLE
  5
3B
102
{ACAD_REACTORS
330
29
102
}
330
29
100
AcDbVisualStyle
  2
Sketchy
 70
    24
177
     3
291
     0
 70
    58
 90
        1
176
     1
 90
        2
176
     1
 90
        2
176
     1
 90
        0
176
     1
 40
0.6
176
     1
 40
30.0
176
     1
 62
     7
420
 16777215
176
     1
 90
        2
176
     1
 90
        2
176
     1
 62
     7
176
     1
 62
     7
176
     1
 90
        1
176
     1
 90
        1
176
     1
 40
40.0
176
     1
 90
       11
176
     1
 62
     7
176
     1
 40
1.0
176
     1
 90
        1
176
     1
 90
        6
176
     1
 90
        2
176
     1
 62
     7
176
     1
 90
        6
176
     1
 90
        0
176
     1
 90
        0
176
     1
290
     0
176
     1
 90
        1
176
     1
 40
0.0
176
     1
 90
        0
176
     1
290
     0
176
     1
290
     1
176
     1
290
     1
176
     1
290
     0
176
     1
290
     0
176
     1
290
     0
176
     1
290
     0
176
     1
290
     0
176
     1
290
     0
176
     1
 90
       50
176
     1
 40
0.0
176
     1
 40
1.0
176
     1
 90
        0
176
     1
 62
    18
420
        0
176
     1
 90
       50
176
     1
 90
        3
176
     1
 62
     5
420
      255
176
     1
290
     0
176
     1
 90
       50
176
     1
 90
       50
176
     1
 90
       50
176
     1
290
     0
176
     1
 90
       50
176
     1
 62
   256
176
     0
 40
1.0
176
     0
 90
        2
176
     1
  1
strokes_ogs.tif
176
     1
290
     0
176
     1
 40
1.0
176
     1
 40
1.0
176
     1
  0
VISUALSTYLE
  5
36
102
{ACAD_REACTORS
330
29
102
}
330
29
100
AcDbVisualStyle
  2
Thicken
 70
    13
177
     3
291
     1
 70
    58
 90
        2
176
     1
 90
        2
176
     1
 90
        0
176
     1
 90
        0
176
     1
 40
0.6
176
     1
 40
30.0
176
     1
 62
     7
420
 16777215
176
     1
 90
        1
176
     1
 90
        4
176
     1
 62
     7
176
     1
 62
   257
176
     1
 90
        1
176
     1
 90
        1
176
     1
 40
1.0
176
     1
 90
       12
176
     1
 62
     7
176
     1
 40
1.0
176
     1
 90
        1
176
     1
 90
        6
176
     1
 90
        2
176
     1
 62
     7
176
     1
 90
        5
176
     1
 90
        0
176
     1
 90
        0
176
     1
290
     0
176
     1
 90
        1
176
     1
 40
0.0
176
     1
 90
        0
176
     1
290
     0
176
     1
290
     1
176
     1
290
     1
176
     1
290
     0
176
     1
290
     0
176
     1
290
     0
176
     1
290
     0
176
     1
290
     0
176
     1
290
     0
176
     1
 90
       50
176
     1
 40
0.0
176
     1
 40
1.0
176
     1
 90
        0
176
     1
 62
    18
420
        0
176
     1
 90
       50
176
     1
 90
        3
176
     1
 62
     5
420
      255
176
     1
290
     0
176
     1
 90
       50
176
     1
 90
       50
176
     1
 90
       50
176
     1
290
     0
176
     1
 90
       50
176
     1
 62
   256
176
     0
 40
1.0
176
     0
 90
        2
176
     1
  1
strokes_ogs.tif
176
     1
290
     0
176
     1
 40
1.0
176
     1
 40
1.0
176
     1
  0
VISUALSTYLE
  5
30
102
{ACAD_REACTORS
330
29
102
}
330
29
100
AcDbVisualStyle
  2
Wireframe
 70
     5
177
     3
291
     0
 70
    58
 90
        0
176
     1
 90
        2
176
     1
 90
        0
176
     1
 90
        0
176
     1
 40
0.6
176
     1
 40
30.0
176
     1
 62
     7
420
 16777215
176
     1
 90
        1
176
     1
 90
        4
176
     1
 62
     7
176
     1
 62
   257
176
     1
 90
        1
176
     1
 90
        1
176
     1
 40
1.0
176
     1
 90
        0
176
     1
 62
   257
176
     1
 40
1.0
176
     1
 90
        1
176
     1
 90
        6
176
     1
 90
        2
176
     1
 62
     7
176
     1
 90
        3
176
     1
 90
        0
176
     1
 90
        0
176
     1
290
     0
176
     1
 90
        1
176
     1
 40
0.0
176
     1
 90
        0
176
     1
290
     0
176
     1
290
     1
176
     1
290
     1
176
     1
290
     0
176
     1
290
     0
176
     1
290
     0
176
     1
290
     0
176
     1
290
     0
176
     1
290
     0
176
     1
 90
       50
176
     1
 40
0.0
176
     1
 40
1.0
176
     1
 90
        0
176
     1
 62
    18
420
        0
176
     1
 90
       50
176
     1
 90
        3
176
     1
 62
     5
420
      255
176
     1
290
     0
176
     1
 90
       50
176
     1
 90
       50
176
     1
 90
       50
176
     1
290
     0
176
     1
 90
       50
176
     1
 62
   256
176
     0
 40
1.0
176
     0
 90
        2
176
     1
  1
strokes_ogs.tif
176
     1
290
     0
176
     1
 40
1.0
176
     1
 40
1.0
176
     1
  0
VISUALSTYLE
  5
3C
102
{ACAD_REACTORS
330
29
102
}
330
29
100
AcDbVisualStyle
  2
X-Ray
 70
    25
177
     3
291
     0
 70
    58
 90
        2
176
     1
 90
        2
176
     1
 90
        1
176
     1
 90
        1
176
     1
 40
0.5
176
     1
 40
30.0
176
     1
 62
     7
420
 16777215
176
     1
 90
        1
176
     1
 90
        0
176
     1
 62
     7
176
     1
 62
   257
176
     1
 90
        1
176
     1
 90
        1
176
     1
 40
1.0
176
     1
 90
        8
176
     1
 62
     7
176
     1
 40
1.0
176
     1
 90
        1
176
     1
 90
        6
176
     1
 90
        2
176
     1
 62
     7
176
     1
 90
        3
176
     1
 90
        0
176
     1
 90
        0
176
     1
290
     0
176
     1
 90
       13
176
     1
 40
0.0
176
     1
 90
        0
176
     1
290
     0
176
     1
290
     1
176
     1
290
     1
176
     1
290
     0
176
     1
290
     0
176
     1
290
     0
176
     1
290
     0
176
     1
290
     0
176
     1
290
     0
176
     1
 90
       50
176
     1
 40
0.0
176
     1
 40
1.0
176
     1
 90
        0
176
     1
 62
    18
420
        0
176
     1
 90
       50
176
     1
 90
        3
176
     1
 62
     5
420
      255
176
     1
290
     0
176
     1
 90
       50
176
     1
 90
       50
176
     1
 90
       50
176
     1
290
     0
176
     1
 90
       50
176
     1
 62
   256
176
     0
 40
1.0
176
     0
 90
        2
176
     1
  1
strokes_ogs.tif
176
     1
290
     0
176
     1
 40
1.0
176
     1
 40
1.0
176
     1
  0
DICTIONARYVAR
  5
AB
102
{ACAD_REACTORS
330
A6
102
}
330
A6
100
DictionaryVariables
280
     0
  1
1:1
  0
DICTIONARYVAR
  5
A8
102
{ACAD_REACTORS
330
A6
102
}
330
A6
100
DictionaryVariables
280
     0
  1
STANDARD
  0
DICTIONARYVAR
  5
A7
102
{ACAD_REACTORS
330
A6
102
}
330
A6
100
DictionaryVariables
280
     0
  1
STANDARD
  0
DICTIONARYVAR
  5
A9
102
{ACAD_REACTORS
330
A6
102
}
330
A6
100
DictionaryVariables
280
     0
  1
Imperial24
  0
DICTIONARYVAR
  5
AA
102
{ACAD_REACTORS
330
A6
102
}
330
A6
100
DictionaryVariables
280
     0
  1
Imperial24
  0
DICTIONARY
  5
1A
330
19
100
AcDbDictionary
280
     1
281
     1
  3
BUMPTILE
360
1C
  3
DIFFUSETILE
360
1B
  3
OPACITYTILE
360
1F
  3
REFLECTIONTILE
360
1E
  3
REFRACTIONTILE
360
20
  3
SPECULARTILE
360
1D
  0
DICTIONARY
  5
12
330
11
100
AcDbDictionary
280
     1
281
     1
  3
BUMPTILE
360
14
  3
DIFFUSETILE
360
13
  3
OPACITYTILE
360
17
  3
REFLECTIONTILE
360
16
  3
REFRACTIONTILE
360
18
  3
SPECULARTILE
360
15
  0
DICTIONARY
  5
22
330
21
100
AcDbDictionary
280
     1
281
     1
  3
BUMPTILE
360
24
  3
DIFFUSETILE
360
23
  3
OPACITYTILE
360
27
  3
REFLECTIONTILE
360
26
  3
REFRACTIONTILE
360
28
  3
SPECULARTILE
360
25
  0
DICTIONARY
  5
AC
330
65
100
AcDbDictionary
280
     1
281
     1
  3
ACAD_ROUNDTRIP_2008_TABLESTYLE_CELLSTYLEMAP
360
AD
  0
XRECORD
  5
1C
102
{ACAD_REACTORS
330
1A
102
}
330
1A
100
AcDbXrecord
280
     1
270
     1
271
     1
  0
XRECORD
  5
1B
102
{ACAD_REACTORS
330
1A
102
}
330
1A
100
AcDbXrecord
280
     1
270
     1
271
     1
  0
XRECORD
  5
1F
102
{ACAD_REACTORS
330
1A
102
}
330
1A
100
AcDbXrecord
280
     1
270
     1
271
     1
  0
XRECORD
  5
1E
102
{ACAD_REACTORS
330
1A
102
}
330
1A
100
AcDbXrecord
280
     1
270
     1
271
     1
  0
XRECORD
  5
20
102
{ACAD_REACTORS
330
1A
102
}
330
1A
100
AcDbXrecord
280
     1
270
     1
271
     1
  0
XRECORD
  5
1D
102
{ACAD_REACTORS
330
1A
102
}
330
1A
100
AcDbXrecord
280
     1
270
     1
271
     1
  0
XRECORD
  5
14
102
{ACAD_REACTORS
330
12
102
}
330
12
100
AcDbXrecord
280
     1
270
     1
271
     1
  0
XRECORD
  5
13
102
{ACAD_REACTORS
330
12
102
}
330
12
100
AcDbXrecord
280
     1
270
     1
271
     1
  0
XRECORD
  5
17
102
{ACAD_REACTORS
330
12
102
}
330
12
100
AcDbXrecord
280
     1
270
     1
271
     1
  0
XRECORD
  5
16
102
{ACAD_REACTORS
330
12
102
}
330
12
100
AcDbXrecord
280
     1
270
     1
271
     1
  0
XRECORD
  5
18
102
{ACAD_REACTORS
330
12
102
}
330
12
100
AcDbXrecord
280
     1
270
     1
271
     1
  0
XRECORD
  5
15
102
{ACAD_REACTORS
330
12
102
}
330
12
100
AcDbXrecord
280
     1
270
     1
271
     1
  0
XRECORD
  5
24
102
{ACAD_REACTORS
330
22
102
}
330
22
100
AcDbXrecord
280
     1
270
     1
271
     1
  0
XRECORD
  5
23
102
{ACAD_REACTORS
330
22
102
}
330
22
100
AcDbXrecord
280
     1
270
     1
271
     1
  0
XRECORD
  5
27
102
{ACAD_REACTORS
330
22
102
}
330
22
100
AcDbXrecord
280
     1
270
     1
271
     1
  0
XRECORD
  5
26
102
{ACAD_REACTORS
330
22
102
}
330
22
100
AcDbXrecord
280
     1
270
     1
271
     1
  0
XRECORD
  5
28
102
{ACAD_REACTORS
330
22
102
}
330
22
100
AcDbXrecord
280
     1
270
     1
271
     1
  0
XRECORD
  5
25
102
{ACAD_REACTORS
330
22
102
}
330
22
100
AcDbXrecord
280
     1
270
     1
271
     1
  0
CELLSTYLEMAP
  5
AD
102
{ACAD_REACTORS
330
AC
102
}
330
AC
100
AcDbCellStyleMap
 90
        3
300
CELLSTYLE
  1
TABLEFORMAT_BEGIN
 90
        5
170
     1
 91
        0
 92
    32768
 62
   257
 93
        1
300
CONTENTFORMAT
  1
CONTENTFORMAT_BEGIN
 90
        0
 91
        0
 92
      512
 93
        0
300

 40
0.0
140
1.0
 94
        5
 62
     0
340
55
144
0.25
309
CONTENTFORMAT_END
171
     0
 94
        0
309
TABLEFORMAT_END
  1
CELLSTYLE_BEGIN
 90
        1
 91
        1
300
_TITLE
309
CELLSTYLE_END
300
CELLSTYLE
  1
TABLEFORMAT_BEGIN
 90
        5
170
     1
 91
        0
 92
        0
 62
   257
 93
        1
300
CONTENTFORMAT
  1
CONTENTFORMAT_BEGIN
 90
        0
 91
        0
 92
      512
 93
        0
300

 40
0.0
140
1.0
 94
        5
 62
     0
340
55
144
0.18
309
CONTENTFORMAT_END
171
     0
 94
        0
309
TABLEFORMAT_END
  1
CELLSTYLE_BEGIN
 90
        2
 91
        1
300
_HEADER
309
CELLSTYLE_END
300
CELLSTYLE
  1
TABLEFORMAT_BEGIN
 90
        5
170
     1
 91
        0
 92
        0
 62
   257
 93
        1
300
CONTENTFORMAT
  1
CONTENTFORMAT_BEGIN
 90
        0
 91
        0
 92
      512
 93
        0
300

 40
0.0
140
1.0
 94
        2
 62
     0
340
55
144
0.18
309
CONTENTFORMAT_END
171
     0
 94
        0
309
TABLEFORMAT_END
  1
CELLSTYLE_BEGIN
 90
        3
 91
        2
300
_DATA
309
CELLSTYLE_END
  0
ENDSEC
  0
EOF
