%TF.GenerationSoftware,KiCad,Pcbnew,8.0.8*%
%TF.CreationDate,2025-04-07T01:54:08-03:00*%
%TF.ProjectId,Sao_CashBag,53616f5f-4361-4736-9842-61672e6b6963,rev?*%
%TF.SameCoordinates,Original*%
%TF.FileFunction,Legend,Bot*%
%TF.FilePolarity,Positive*%
%FSLAX46Y46*%
G04 Gerber Fmt 4.6, Leading zero omitted, Abs format (unit mm)*
G04 Created by KiCad (PCBNEW 8.0.8) date 2025-04-07 01:54:08*
%MOMM*%
%LPD*%
G01*
G04 APERTURE LIST*
G04 Aperture macros list*
%AMRoundRect*
0 Rectangle with rounded corners*
0 $1 Rounding radius*
0 $2 $3 $4 $5 $6 $7 $8 $9 X,Y pos of 4 corners*
0 Add a 4 corners polygon primitive as box body*
4,1,4,$2,$3,$4,$5,$6,$7,$8,$9,$2,$3,0*
0 Add four circle primitives for the rounded corners*
1,1,$1+$1,$2,$3*
1,1,$1+$1,$4,$5*
1,1,$1+$1,$6,$7*
1,1,$1+$1,$8,$9*
0 Add four rect primitives between the rounded corners*
20,1,$1+$1,$2,$3,$4,$5,0*
20,1,$1+$1,$4,$5,$6,$7,0*
20,1,$1+$1,$6,$7,$8,$9,0*
20,1,$1+$1,$8,$9,$2,$3,0*%
G04 Aperture macros list end*
%ADD10C,0.100000*%
%ADD11C,0.300000*%
%ADD12C,0.150000*%
%ADD13C,0.000000*%
%ADD14C,0.120000*%
%ADD15C,0.152400*%
%ADD16RoundRect,0.288462X0.461538X0.811538X-0.461538X0.811538X-0.461538X-0.811538X0.461538X-0.811538X0*%
%ADD17RoundRect,0.288462X-0.461538X-0.811538X0.461538X-0.811538X0.461538X0.811538X-0.461538X0.811538X0*%
%ADD18R,1.041400X3.200400*%
G04 APERTURE END LIST*
D10*
X134050000Y-122450000D02*
X139050000Y-122450000D01*
X139050000Y-127450000D01*
X134050000Y-127450000D01*
X134050000Y-122450000D01*
G36*
X134050000Y-122450000D02*
G01*
X139050000Y-122450000D01*
X139050000Y-127450000D01*
X134050000Y-127450000D01*
X134050000Y-122450000D01*
G37*
D11*
X119466917Y-135843685D02*
X119395489Y-135772257D01*
X119395489Y-135772257D02*
X119252632Y-135700828D01*
X119252632Y-135700828D02*
X118895489Y-135700828D01*
X118895489Y-135700828D02*
X118752632Y-135772257D01*
X118752632Y-135772257D02*
X118681203Y-135843685D01*
X118681203Y-135843685D02*
X118609774Y-135986542D01*
X118609774Y-135986542D02*
X118609774Y-136129400D01*
X118609774Y-136129400D02*
X118681203Y-136343685D01*
X118681203Y-136343685D02*
X119538346Y-137200828D01*
X119538346Y-137200828D02*
X118609774Y-137200828D01*
X117681203Y-135700828D02*
X117538346Y-135700828D01*
X117538346Y-135700828D02*
X117395489Y-135772257D01*
X117395489Y-135772257D02*
X117324061Y-135843685D01*
X117324061Y-135843685D02*
X117252632Y-135986542D01*
X117252632Y-135986542D02*
X117181203Y-136272257D01*
X117181203Y-136272257D02*
X117181203Y-136629400D01*
X117181203Y-136629400D02*
X117252632Y-136915114D01*
X117252632Y-136915114D02*
X117324061Y-137057971D01*
X117324061Y-137057971D02*
X117395489Y-137129400D01*
X117395489Y-137129400D02*
X117538346Y-137200828D01*
X117538346Y-137200828D02*
X117681203Y-137200828D01*
X117681203Y-137200828D02*
X117824061Y-137129400D01*
X117824061Y-137129400D02*
X117895489Y-137057971D01*
X117895489Y-137057971D02*
X117966918Y-136915114D01*
X117966918Y-136915114D02*
X118038346Y-136629400D01*
X118038346Y-136629400D02*
X118038346Y-136272257D01*
X118038346Y-136272257D02*
X117966918Y-135986542D01*
X117966918Y-135986542D02*
X117895489Y-135843685D01*
X117895489Y-135843685D02*
X117824061Y-135772257D01*
X117824061Y-135772257D02*
X117681203Y-135700828D01*
X116609775Y-135843685D02*
X116538347Y-135772257D01*
X116538347Y-135772257D02*
X116395490Y-135700828D01*
X116395490Y-135700828D02*
X116038347Y-135700828D01*
X116038347Y-135700828D02*
X115895490Y-135772257D01*
X115895490Y-135772257D02*
X115824061Y-135843685D01*
X115824061Y-135843685D02*
X115752632Y-135986542D01*
X115752632Y-135986542D02*
X115752632Y-136129400D01*
X115752632Y-136129400D02*
X115824061Y-136343685D01*
X115824061Y-136343685D02*
X116681204Y-137200828D01*
X116681204Y-137200828D02*
X115752632Y-137200828D01*
X114395490Y-135700828D02*
X115109776Y-135700828D01*
X115109776Y-135700828D02*
X115181204Y-136415114D01*
X115181204Y-136415114D02*
X115109776Y-136343685D01*
X115109776Y-136343685D02*
X114966919Y-136272257D01*
X114966919Y-136272257D02*
X114609776Y-136272257D01*
X114609776Y-136272257D02*
X114466919Y-136343685D01*
X114466919Y-136343685D02*
X114395490Y-136415114D01*
X114395490Y-136415114D02*
X114324061Y-136557971D01*
X114324061Y-136557971D02*
X114324061Y-136915114D01*
X114324061Y-136915114D02*
X114395490Y-137057971D01*
X114395490Y-137057971D02*
X114466919Y-137129400D01*
X114466919Y-137129400D02*
X114609776Y-137200828D01*
X114609776Y-137200828D02*
X114966919Y-137200828D01*
X114966919Y-137200828D02*
X115109776Y-137129400D01*
X115109776Y-137129400D02*
X115181204Y-137057971D01*
D12*
X122326071Y-122486408D02*
X122659404Y-122010217D01*
X122897499Y-122486408D02*
X122897499Y-121486408D01*
X122897499Y-121486408D02*
X122516547Y-121486408D01*
X122516547Y-121486408D02*
X122421309Y-121534027D01*
X122421309Y-121534027D02*
X122373690Y-121581646D01*
X122373690Y-121581646D02*
X122326071Y-121676884D01*
X122326071Y-121676884D02*
X122326071Y-121819741D01*
X122326071Y-121819741D02*
X122373690Y-121914979D01*
X122373690Y-121914979D02*
X122421309Y-121962598D01*
X122421309Y-121962598D02*
X122516547Y-122010217D01*
X122516547Y-122010217D02*
X122897499Y-122010217D01*
X121373690Y-122486408D02*
X121945118Y-122486408D01*
X121659404Y-122486408D02*
X121659404Y-121486408D01*
X121659404Y-121486408D02*
X121754642Y-121629265D01*
X121754642Y-121629265D02*
X121849880Y-121724503D01*
X121849880Y-121724503D02*
X121945118Y-121772122D01*
X136460685Y-134689116D02*
X136794018Y-134212925D01*
X137032113Y-134689116D02*
X137032113Y-133689116D01*
X137032113Y-133689116D02*
X136651161Y-133689116D01*
X136651161Y-133689116D02*
X136555923Y-133736735D01*
X136555923Y-133736735D02*
X136508304Y-133784354D01*
X136508304Y-133784354D02*
X136460685Y-133879592D01*
X136460685Y-133879592D02*
X136460685Y-134022449D01*
X136460685Y-134022449D02*
X136508304Y-134117687D01*
X136508304Y-134117687D02*
X136555923Y-134165306D01*
X136555923Y-134165306D02*
X136651161Y-134212925D01*
X136651161Y-134212925D02*
X137032113Y-134212925D01*
X136079732Y-133784354D02*
X136032113Y-133736735D01*
X136032113Y-133736735D02*
X135936875Y-133689116D01*
X135936875Y-133689116D02*
X135698780Y-133689116D01*
X135698780Y-133689116D02*
X135603542Y-133736735D01*
X135603542Y-133736735D02*
X135555923Y-133784354D01*
X135555923Y-133784354D02*
X135508304Y-133879592D01*
X135508304Y-133879592D02*
X135508304Y-133974830D01*
X135508304Y-133974830D02*
X135555923Y-134117687D01*
X135555923Y-134117687D02*
X136127351Y-134689116D01*
X136127351Y-134689116D02*
X135508304Y-134689116D01*
X129394884Y-128186646D02*
X129966312Y-128186646D01*
X129680598Y-128186646D02*
X129680598Y-127186646D01*
X129680598Y-127186646D02*
X129775836Y-127329503D01*
X129775836Y-127329503D02*
X129871074Y-127424741D01*
X129871074Y-127424741D02*
X129966312Y-127472360D01*
X129966312Y-134031884D02*
X129918693Y-133984265D01*
X129918693Y-133984265D02*
X129823455Y-133936646D01*
X129823455Y-133936646D02*
X129585360Y-133936646D01*
X129585360Y-133936646D02*
X129490122Y-133984265D01*
X129490122Y-133984265D02*
X129442503Y-134031884D01*
X129442503Y-134031884D02*
X129394884Y-134127122D01*
X129394884Y-134127122D02*
X129394884Y-134222360D01*
X129394884Y-134222360D02*
X129442503Y-134365217D01*
X129442503Y-134365217D02*
X130013931Y-134936646D01*
X130013931Y-134936646D02*
X129394884Y-134936646D01*
X120418693Y-134555693D02*
X119656789Y-134555693D01*
X120418693Y-127805693D02*
X119656789Y-127805693D01*
X120037741Y-128186646D02*
X120037741Y-127424741D01*
X110610521Y-138806591D02*
X110943854Y-138330400D01*
X111181949Y-138806591D02*
X111181949Y-137806591D01*
X111181949Y-137806591D02*
X110800997Y-137806591D01*
X110800997Y-137806591D02*
X110705759Y-137854210D01*
X110705759Y-137854210D02*
X110658140Y-137901829D01*
X110658140Y-137901829D02*
X110610521Y-137997067D01*
X110610521Y-137997067D02*
X110610521Y-138139924D01*
X110610521Y-138139924D02*
X110658140Y-138235162D01*
X110658140Y-138235162D02*
X110705759Y-138282781D01*
X110705759Y-138282781D02*
X110800997Y-138330400D01*
X110800997Y-138330400D02*
X111181949Y-138330400D01*
X110277187Y-137806591D02*
X109658140Y-137806591D01*
X109658140Y-137806591D02*
X109991473Y-138187543D01*
X109991473Y-138187543D02*
X109848616Y-138187543D01*
X109848616Y-138187543D02*
X109753378Y-138235162D01*
X109753378Y-138235162D02*
X109705759Y-138282781D01*
X109705759Y-138282781D02*
X109658140Y-138378019D01*
X109658140Y-138378019D02*
X109658140Y-138616114D01*
X109658140Y-138616114D02*
X109705759Y-138711352D01*
X109705759Y-138711352D02*
X109753378Y-138758972D01*
X109753378Y-138758972D02*
X109848616Y-138806591D01*
X109848616Y-138806591D02*
X110134330Y-138806591D01*
X110134330Y-138806591D02*
X110229568Y-138758972D01*
X110229568Y-138758972D02*
X110277187Y-138711352D01*
D13*
%TO.C,REF\u002A\u002A*%
G36*
X119481617Y-131025730D02*
G01*
X119481956Y-131025764D01*
X119482309Y-131025820D01*
X119482675Y-131025900D01*
X119483058Y-131026005D01*
X119483454Y-131026133D01*
X119483865Y-131026282D01*
X119484287Y-131026455D01*
X119484725Y-131026653D01*
X119485177Y-131026873D01*
X120572085Y-131570326D01*
X120572496Y-131570557D01*
X120572890Y-131570813D01*
X120573263Y-131571095D01*
X120573614Y-131571402D01*
X120573942Y-131571730D01*
X120574246Y-131572079D01*
X120574526Y-131572447D01*
X120574781Y-131572834D01*
X120575010Y-131573238D01*
X120575211Y-131573657D01*
X120575384Y-131574090D01*
X120575527Y-131574535D01*
X120575641Y-131574992D01*
X120575723Y-131575459D01*
X120575773Y-131575933D01*
X120575790Y-131576413D01*
X120575791Y-135138895D01*
X120575786Y-135139065D01*
X120575772Y-135139233D01*
X120575752Y-135139398D01*
X120575723Y-135139561D01*
X120575687Y-135139722D01*
X120575642Y-135139878D01*
X120575592Y-135140033D01*
X120575534Y-135140182D01*
X120575468Y-135140328D01*
X120575395Y-135140471D01*
X120575317Y-135140610D01*
X120575232Y-135140743D01*
X120575142Y-135140873D01*
X120575043Y-135140998D01*
X120574939Y-135141118D01*
X120574831Y-135141233D01*
X120574717Y-135141344D01*
X120574598Y-135141447D01*
X120574473Y-135141545D01*
X120574343Y-135141638D01*
X120574210Y-135141723D01*
X120574071Y-135141804D01*
X120573928Y-135141876D01*
X120573781Y-135141942D01*
X120573631Y-135142001D01*
X120573476Y-135142052D01*
X120573318Y-135142098D01*
X120573157Y-135142135D01*
X120572993Y-135142164D01*
X120572826Y-135142185D01*
X120572656Y-135142198D01*
X120572483Y-135142202D01*
X119485046Y-135142202D01*
X119484618Y-135142195D01*
X119484204Y-135142176D01*
X119483803Y-135142142D01*
X119483415Y-135142096D01*
X119483040Y-135142034D01*
X119482679Y-135141962D01*
X119482331Y-135141873D01*
X119481996Y-135141773D01*
X119481676Y-135141660D01*
X119481367Y-135141531D01*
X119481073Y-135141390D01*
X119480791Y-135141236D01*
X119480524Y-135141068D01*
X119480271Y-135140887D01*
X119480030Y-135140692D01*
X119479803Y-135140484D01*
X119479590Y-135140262D01*
X119479390Y-135140027D01*
X119479204Y-135139779D01*
X119479032Y-135139517D01*
X119478872Y-135139241D01*
X119478728Y-135138952D01*
X119478596Y-135138650D01*
X119478479Y-135138334D01*
X119478375Y-135138005D01*
X119478285Y-135137662D01*
X119478208Y-135137306D01*
X119478146Y-135136936D01*
X119478097Y-135136553D01*
X119478062Y-135136157D01*
X119478041Y-135135746D01*
X119478034Y-135135323D01*
X119478695Y-132982012D01*
X119477082Y-132914630D01*
X119471890Y-132847987D01*
X119462964Y-132782473D01*
X119450151Y-132718489D01*
X119442238Y-132687193D01*
X119433295Y-132656427D01*
X119423301Y-132626241D01*
X119412239Y-132596684D01*
X119400088Y-132567806D01*
X119386829Y-132539656D01*
X119372443Y-132512282D01*
X119356909Y-132485736D01*
X119340210Y-132460066D01*
X119322326Y-132435323D01*
X119303235Y-132411554D01*
X119282924Y-132388808D01*
X119261365Y-132367139D01*
X119238545Y-132346592D01*
X119214442Y-132327218D01*
X119189037Y-132309067D01*
X119162312Y-132292187D01*
X119134245Y-132276630D01*
X119104817Y-132262441D01*
X119074011Y-132249674D01*
X119041805Y-132238375D01*
X119008183Y-132228597D01*
X118973122Y-132220387D01*
X118936604Y-132213794D01*
X118904667Y-132209382D01*
X118873090Y-132206062D01*
X118841876Y-132203841D01*
X118811021Y-132202713D01*
X118780527Y-132202682D01*
X118750392Y-132203746D01*
X118720619Y-132205907D01*
X118691203Y-132209164D01*
X118643302Y-132216815D01*
X118597565Y-132227031D01*
X118553994Y-132239816D01*
X118512582Y-132255168D01*
X118492688Y-132263808D01*
X118473334Y-132273088D01*
X118454523Y-132283011D01*
X118436251Y-132293575D01*
X118418521Y-132304781D01*
X118401331Y-132316628D01*
X118384682Y-132329118D01*
X118368573Y-132342250D01*
X118353006Y-132356022D01*
X118337979Y-132370437D01*
X118323495Y-132385494D01*
X118309549Y-132401192D01*
X118296145Y-132417533D01*
X118283281Y-132434514D01*
X118270960Y-132452139D01*
X118259178Y-132470404D01*
X118237236Y-132508863D01*
X118217460Y-132549888D01*
X118199844Y-132593481D01*
X118184393Y-132639639D01*
X118173070Y-132679131D01*
X118163255Y-132718095D01*
X118154943Y-132756535D01*
X118148139Y-132794452D01*
X118142839Y-132831843D01*
X118139045Y-132868710D01*
X118136757Y-132905051D01*
X118135974Y-132940869D01*
X118135051Y-135134926D01*
X118135043Y-135135374D01*
X118135021Y-135135807D01*
X118134986Y-135136227D01*
X118134935Y-135136633D01*
X118134871Y-135137024D01*
X118134793Y-135137401D01*
X118134701Y-135137763D01*
X118134594Y-135138111D01*
X118134472Y-135138445D01*
X118134337Y-135138764D01*
X118134188Y-135139071D01*
X118134024Y-135139362D01*
X118133846Y-135139639D01*
X118133654Y-135139902D01*
X118133448Y-135140151D01*
X118133227Y-135140385D01*
X118132991Y-135140605D01*
X118132743Y-135140811D01*
X118132480Y-135141003D01*
X118132203Y-135141180D01*
X118131912Y-135141342D01*
X118131605Y-135141492D01*
X118131286Y-135141627D01*
X118130953Y-135141748D01*
X118130605Y-135141853D01*
X118130242Y-135141947D01*
X118129866Y-135142025D01*
X118129475Y-135142089D01*
X118129071Y-135142137D01*
X118128651Y-135142174D01*
X118128221Y-135142195D01*
X118127773Y-135142202D01*
X117040865Y-135142202D01*
X117040652Y-135142199D01*
X117040446Y-135142187D01*
X117040247Y-135142171D01*
X117040054Y-135142146D01*
X117039867Y-135142115D01*
X117039687Y-135142076D01*
X117039514Y-135142032D01*
X117039347Y-135141978D01*
X117039187Y-135141919D01*
X117039032Y-135141853D01*
X117038885Y-135141781D01*
X117038744Y-135141700D01*
X117038610Y-135141612D01*
X117038483Y-135141518D01*
X117038360Y-135141416D01*
X117038247Y-135141309D01*
X117038137Y-135141194D01*
X117038035Y-135141071D01*
X117037940Y-135140944D01*
X117037851Y-135140807D01*
X117037769Y-135140664D01*
X117037693Y-135140514D01*
X117037624Y-135140356D01*
X117037562Y-135140193D01*
X117037506Y-135140022D01*
X117037455Y-135139843D01*
X117037411Y-135139659D01*
X117037375Y-135139467D01*
X117037344Y-135139267D01*
X117037321Y-135139062D01*
X117037293Y-135138630D01*
X117037689Y-132602070D01*
X117038782Y-132542390D01*
X117041928Y-132482412D01*
X117047131Y-132422136D01*
X117054388Y-132361563D01*
X117063701Y-132300693D01*
X117075068Y-132239524D01*
X117088490Y-132178059D01*
X117103968Y-132116295D01*
X117113329Y-132082732D01*
X117123295Y-132049910D01*
X117133866Y-132017828D01*
X117145041Y-131986485D01*
X117156820Y-131955882D01*
X117169203Y-131926020D01*
X117182189Y-131896897D01*
X117195780Y-131868513D01*
X117232040Y-131800214D01*
X117271266Y-131735609D01*
X117313465Y-131674701D01*
X117358630Y-131617489D01*
X117406762Y-131563972D01*
X117457863Y-131514154D01*
X117511933Y-131468029D01*
X117568971Y-131425600D01*
X117628978Y-131386868D01*
X117691954Y-131351831D01*
X117757897Y-131320490D01*
X117826807Y-131292845D01*
X117898688Y-131268897D01*
X117973535Y-131248643D01*
X118051352Y-131232086D01*
X118132138Y-131219225D01*
X118201309Y-131211415D01*
X118270021Y-131206576D01*
X118338211Y-131204749D01*
X118405813Y-131205986D01*
X118472761Y-131210331D01*
X118538993Y-131217832D01*
X118604442Y-131228538D01*
X118669044Y-131242493D01*
X118732735Y-131259744D01*
X118795449Y-131280342D01*
X118857123Y-131304330D01*
X118917691Y-131331758D01*
X118977088Y-131362670D01*
X119035251Y-131397116D01*
X119092111Y-131435145D01*
X119147610Y-131476797D01*
X119190780Y-131512243D01*
X119233008Y-131549326D01*
X119274292Y-131588047D01*
X119314625Y-131628403D01*
X119354006Y-131670398D01*
X119392429Y-131714029D01*
X119429892Y-131759298D01*
X119466393Y-131806203D01*
X119467784Y-131807955D01*
X119469083Y-131809442D01*
X119469699Y-131810086D01*
X119470291Y-131810663D01*
X119470861Y-131811174D01*
X119471407Y-131811617D01*
X119471930Y-131811997D01*
X119472431Y-131812308D01*
X119472910Y-131812553D01*
X119473365Y-131812732D01*
X119473797Y-131812844D01*
X119474206Y-131812890D01*
X119474593Y-131812870D01*
X119474958Y-131812783D01*
X119475300Y-131812630D01*
X119475619Y-131812410D01*
X119475916Y-131812125D01*
X119476192Y-131811772D01*
X119476445Y-131811354D01*
X119476676Y-131810869D01*
X119476884Y-131810317D01*
X119477070Y-131809699D01*
X119477234Y-131809015D01*
X119477376Y-131808265D01*
X119477497Y-131807447D01*
X119477595Y-131806564D01*
X119477725Y-131804598D01*
X119477769Y-131802367D01*
X119477769Y-131031371D01*
X119477776Y-131030870D01*
X119477799Y-131030393D01*
X119477835Y-131029939D01*
X119477887Y-131029508D01*
X119477952Y-131029101D01*
X119478033Y-131028715D01*
X119478128Y-131028354D01*
X119478238Y-131028015D01*
X119478363Y-131027700D01*
X119478502Y-131027407D01*
X119478656Y-131027141D01*
X119478824Y-131026895D01*
X119479004Y-131026672D01*
X119479201Y-131026474D01*
X119479412Y-131026298D01*
X119479638Y-131026145D01*
X119479878Y-131026016D01*
X119480133Y-131025910D01*
X119480399Y-131025829D01*
X119480683Y-131025769D01*
X119480979Y-131025733D01*
X119481290Y-131025720D01*
X119481617Y-131025730D01*
G37*
G36*
X108997310Y-129968696D02*
G01*
X109054361Y-129971274D01*
X109112095Y-129975948D01*
X109201408Y-129987099D01*
X109288228Y-130002773D01*
X109372413Y-130023026D01*
X109453824Y-130047904D01*
X109532322Y-130077461D01*
X109570435Y-130094010D01*
X109607766Y-130111746D01*
X109644299Y-130130679D01*
X109680016Y-130150812D01*
X109714899Y-130172154D01*
X109748932Y-130194709D01*
X109782096Y-130218486D01*
X109814373Y-130243487D01*
X109845748Y-130269723D01*
X109876201Y-130297198D01*
X109905715Y-130325920D01*
X109934274Y-130355894D01*
X109961858Y-130387126D01*
X109988452Y-130419623D01*
X110014036Y-130453392D01*
X110038596Y-130488439D01*
X110062112Y-130524771D01*
X110084565Y-130562391D01*
X110105940Y-130601309D01*
X110126219Y-130641530D01*
X110145385Y-130683062D01*
X110163418Y-130725909D01*
X110172856Y-130750763D01*
X110181400Y-130776114D01*
X110189044Y-130801962D01*
X110195793Y-130828303D01*
X110201645Y-130855143D01*
X110206602Y-130882477D01*
X110210659Y-130910308D01*
X110213822Y-130938635D01*
X110215952Y-130963077D01*
X110217720Y-130986996D01*
X110219126Y-131010390D01*
X110220168Y-131033258D01*
X110220847Y-131055601D01*
X110221162Y-131077419D01*
X110221114Y-131098711D01*
X110220700Y-131119478D01*
X110212300Y-131357783D01*
X110210804Y-131418496D01*
X110210059Y-131479139D01*
X110210318Y-131539449D01*
X110211837Y-131599166D01*
X110212141Y-131606005D01*
X110212520Y-131612826D01*
X110212982Y-131619632D01*
X110213522Y-131626420D01*
X110214140Y-131633192D01*
X110214838Y-131639948D01*
X110215612Y-131646686D01*
X110216467Y-131653406D01*
X110216598Y-131654240D01*
X110216762Y-131655055D01*
X110216960Y-131655853D01*
X110217191Y-131656631D01*
X110217455Y-131657391D01*
X110217753Y-131658132D01*
X110218084Y-131658855D01*
X110218447Y-131659558D01*
X110218846Y-131660243D01*
X110219275Y-131660910D01*
X110219741Y-131661558D01*
X110220236Y-131662188D01*
X110220766Y-131662798D01*
X110221329Y-131663390D01*
X110221924Y-131663964D01*
X110222552Y-131664520D01*
X110267602Y-131703523D01*
X110311241Y-131743536D01*
X110353471Y-131784562D01*
X110394287Y-131826600D01*
X110433695Y-131869650D01*
X110471692Y-131913712D01*
X110508277Y-131958785D01*
X110543454Y-132004871D01*
X110577219Y-132051968D01*
X110609575Y-132100077D01*
X110640517Y-132149198D01*
X110670051Y-132199331D01*
X110698173Y-132250476D01*
X110724885Y-132302633D01*
X110750186Y-132355802D01*
X110774077Y-132409982D01*
X110774381Y-132410671D01*
X110774684Y-132411314D01*
X110774985Y-132411912D01*
X110775285Y-132412466D01*
X110775582Y-132412973D01*
X110775881Y-132413439D01*
X110776176Y-132413857D01*
X110776470Y-132414230D01*
X110776762Y-132414561D01*
X110777053Y-132414844D01*
X110777343Y-132415083D01*
X110777631Y-132415277D01*
X110777917Y-132415428D01*
X110778203Y-132415531D01*
X110778486Y-132415591D01*
X110778769Y-132415605D01*
X110779048Y-132415573D01*
X110779327Y-132415499D01*
X110779605Y-132415378D01*
X110779881Y-132415212D01*
X110780155Y-132415002D01*
X110780428Y-132414747D01*
X110780699Y-132414447D01*
X110780969Y-132414100D01*
X110781237Y-132413711D01*
X110781504Y-132413275D01*
X110781769Y-132412795D01*
X110782032Y-132412270D01*
X110782295Y-132411699D01*
X110782556Y-132411084D01*
X110782816Y-132410423D01*
X110783072Y-132409718D01*
X110796282Y-132373391D01*
X110810158Y-132337302D01*
X110824698Y-132301475D01*
X110839892Y-132265935D01*
X110855738Y-132230706D01*
X110872230Y-132195812D01*
X110889362Y-132161278D01*
X110907129Y-132127125D01*
X110925525Y-132093384D01*
X110944545Y-132060071D01*
X110964184Y-132027216D01*
X110984437Y-131994841D01*
X111005295Y-131962971D01*
X111026759Y-131931629D01*
X111048817Y-131900841D01*
X111071467Y-131870630D01*
X111143796Y-131782509D01*
X111220292Y-131701047D01*
X111300748Y-131626148D01*
X111384950Y-131557722D01*
X111472686Y-131495677D01*
X111563745Y-131439916D01*
X111657915Y-131390351D01*
X111754986Y-131346887D01*
X111854745Y-131309432D01*
X111956980Y-131277892D01*
X112061481Y-131252178D01*
X112168034Y-131232195D01*
X112276429Y-131217848D01*
X112386454Y-131209048D01*
X112497898Y-131205702D01*
X112610548Y-131207715D01*
X112711960Y-131214588D01*
X112812270Y-131226769D01*
X112911285Y-131244180D01*
X113008813Y-131266747D01*
X113104659Y-131294390D01*
X113198634Y-131327034D01*
X113290541Y-131364601D01*
X113380189Y-131407013D01*
X113467384Y-131454194D01*
X113551933Y-131506066D01*
X113633644Y-131562553D01*
X113712323Y-131623580D01*
X113787779Y-131689063D01*
X113859816Y-131758931D01*
X113928242Y-131833105D01*
X113992864Y-131911508D01*
X114036000Y-131968934D01*
X114076903Y-132027508D01*
X114115573Y-132087232D01*
X114152011Y-132148102D01*
X114186217Y-132210122D01*
X114218190Y-132273289D01*
X114247931Y-132337605D01*
X114275440Y-132403069D01*
X114300716Y-132469681D01*
X114323759Y-132537441D01*
X114344570Y-132606350D01*
X114363149Y-132676408D01*
X114379494Y-132747613D01*
X114393609Y-132819968D01*
X114405491Y-132893470D01*
X114415140Y-132968121D01*
X114418302Y-132998307D01*
X114420922Y-133028942D01*
X114422999Y-133060022D01*
X114424532Y-133091549D01*
X114424565Y-133092178D01*
X114424614Y-133092775D01*
X114424678Y-133093341D01*
X114424758Y-133093874D01*
X114424853Y-133094375D01*
X114424965Y-133094847D01*
X114425092Y-133095286D01*
X114425236Y-133095691D01*
X114425393Y-133096067D01*
X114425568Y-133096409D01*
X114425758Y-133096721D01*
X114425964Y-133096999D01*
X114426186Y-133097248D01*
X114426423Y-133097463D01*
X114426676Y-133097648D01*
X114426945Y-133097800D01*
X114427230Y-133097921D01*
X114427531Y-133098009D01*
X114427847Y-133098066D01*
X114428179Y-133098091D01*
X114428526Y-133098085D01*
X114428891Y-133098046D01*
X114429270Y-133097976D01*
X114429664Y-133097874D01*
X114430076Y-133097741D01*
X114430503Y-133097575D01*
X114430946Y-133097378D01*
X114431404Y-133097149D01*
X114431879Y-133096888D01*
X114432369Y-133096595D01*
X114432875Y-133096270D01*
X114433397Y-133095914D01*
X114470225Y-133070485D01*
X114507761Y-133045924D01*
X114545967Y-133022203D01*
X114584806Y-132999301D01*
X114624241Y-132977188D01*
X114664236Y-132955840D01*
X114745752Y-132915337D01*
X114829063Y-132877587D01*
X114913868Y-132842386D01*
X114999875Y-132809529D01*
X115086785Y-132778812D01*
X115332846Y-132694608D01*
X115568855Y-132613182D01*
X115609040Y-132598884D01*
X115648302Y-132584097D01*
X115686643Y-132568821D01*
X115724063Y-132553057D01*
X115760562Y-132536806D01*
X115796138Y-132520066D01*
X115830792Y-132502839D01*
X115864527Y-132485124D01*
X115885683Y-132473246D01*
X115906329Y-132460662D01*
X115926308Y-132447333D01*
X115945462Y-132433224D01*
X115963629Y-132418300D01*
X115980655Y-132402524D01*
X115996379Y-132385862D01*
X116010643Y-132368278D01*
X116017179Y-132359129D01*
X116023289Y-132349735D01*
X116028955Y-132340093D01*
X116034157Y-132330198D01*
X116038876Y-132320046D01*
X116043091Y-132309631D01*
X116046782Y-132298952D01*
X116049930Y-132288001D01*
X116052513Y-132276775D01*
X116054516Y-132265270D01*
X116055916Y-132253480D01*
X116056690Y-132241402D01*
X116056825Y-132229030D01*
X116056297Y-132216362D01*
X116055087Y-132203391D01*
X116053175Y-132190114D01*
X116050643Y-132177181D01*
X116047499Y-132164648D01*
X116043765Y-132152512D01*
X116039460Y-132140771D01*
X116034601Y-132129418D01*
X116029211Y-132118454D01*
X116023310Y-132107871D01*
X116016917Y-132097669D01*
X116010051Y-132087842D01*
X116002733Y-132078387D01*
X115994982Y-132069303D01*
X115986818Y-132060585D01*
X115969333Y-132044229D01*
X115950434Y-132029297D01*
X115930281Y-132015757D01*
X115909033Y-132003584D01*
X115886847Y-131992748D01*
X115863884Y-131983223D01*
X115840302Y-131974982D01*
X115816258Y-131967997D01*
X115791912Y-131962237D01*
X115767426Y-131957677D01*
X115728683Y-131952391D01*
X115689506Y-131948927D01*
X115649963Y-131947191D01*
X115610129Y-131947098D01*
X115570080Y-131948557D01*
X115529886Y-131951478D01*
X115489622Y-131955771D01*
X115449362Y-131961348D01*
X115409180Y-131968119D01*
X115369149Y-131975995D01*
X115329343Y-131984883D01*
X115289836Y-131994698D01*
X115212010Y-132016746D01*
X115136261Y-132041418D01*
X115058534Y-132069486D01*
X114981197Y-132099716D01*
X114904249Y-132132109D01*
X114827689Y-132166663D01*
X114751518Y-132203380D01*
X114675737Y-132242259D01*
X114600343Y-132283302D01*
X114525338Y-132326506D01*
X114524804Y-132326807D01*
X114524276Y-132327080D01*
X114523756Y-132327327D01*
X114523244Y-132327547D01*
X114522738Y-132327740D01*
X114522240Y-132327906D01*
X114521749Y-132328047D01*
X114521266Y-132328158D01*
X114520789Y-132328244D01*
X114520321Y-132328303D01*
X114519859Y-132328335D01*
X114519404Y-132328340D01*
X114518957Y-132328318D01*
X114518517Y-132328271D01*
X114518085Y-132328195D01*
X114517659Y-132328091D01*
X114517241Y-132327963D01*
X114516831Y-132327807D01*
X114516427Y-132327624D01*
X114516031Y-132327415D01*
X114515642Y-132327178D01*
X114515260Y-132326916D01*
X114514886Y-132326625D01*
X114514519Y-132326308D01*
X114514160Y-132325963D01*
X114513807Y-132325593D01*
X114513462Y-132325195D01*
X114513124Y-132324770D01*
X114512793Y-132324318D01*
X114512470Y-132323840D01*
X114512154Y-132323335D01*
X114511845Y-132322802D01*
X114072769Y-131527597D01*
X114072609Y-131527287D01*
X114072466Y-131526975D01*
X114072341Y-131526659D01*
X114072231Y-131526339D01*
X114072138Y-131526016D01*
X114072059Y-131525691D01*
X114071996Y-131525365D01*
X114071949Y-131525037D01*
X114071916Y-131524710D01*
X114071901Y-131524381D01*
X114071899Y-131524053D01*
X114071914Y-131523726D01*
X114071944Y-131523401D01*
X114071987Y-131523077D01*
X114072046Y-131522757D01*
X114072119Y-131522439D01*
X114072207Y-131522126D01*
X114072308Y-131521816D01*
X114072424Y-131521510D01*
X114072554Y-131521209D01*
X114072696Y-131520915D01*
X114072855Y-131520627D01*
X114073026Y-131520346D01*
X114073210Y-131520072D01*
X114073407Y-131519806D01*
X114073618Y-131519548D01*
X114073842Y-131519298D01*
X114074078Y-131519058D01*
X114074328Y-131518828D01*
X114074588Y-131518609D01*
X114074864Y-131518401D01*
X114075150Y-131518203D01*
X114166499Y-131460541D01*
X114260155Y-131406186D01*
X114355959Y-131355240D01*
X114453746Y-131307807D01*
X114553354Y-131263987D01*
X114654619Y-131223883D01*
X114757381Y-131187596D01*
X114861474Y-131155229D01*
X114966740Y-131126883D01*
X115073012Y-131102661D01*
X115180132Y-131082664D01*
X115287932Y-131066995D01*
X115396252Y-131055754D01*
X115504931Y-131049045D01*
X115613805Y-131046969D01*
X115722711Y-131049627D01*
X115819231Y-131056560D01*
X115915472Y-131068425D01*
X116011003Y-131085295D01*
X116105384Y-131107240D01*
X116198188Y-131134333D01*
X116288977Y-131166643D01*
X116377321Y-131204244D01*
X116420439Y-131225050D01*
X116462782Y-131247205D01*
X116504298Y-131270718D01*
X116544931Y-131295598D01*
X116584626Y-131321854D01*
X116623330Y-131349495D01*
X116660989Y-131378530D01*
X116697549Y-131408967D01*
X116732952Y-131440815D01*
X116767149Y-131474086D01*
X116800084Y-131508784D01*
X116831701Y-131544920D01*
X116861948Y-131582505D01*
X116890771Y-131621546D01*
X116918115Y-131662050D01*
X116943923Y-131704029D01*
X116968146Y-131747490D01*
X116990727Y-131792445D01*
X116991050Y-131793172D01*
X116991328Y-131793899D01*
X116991559Y-131794627D01*
X116991743Y-131795354D01*
X116991881Y-131796082D01*
X116991972Y-131796810D01*
X116992017Y-131797538D01*
X116992016Y-131798266D01*
X116991968Y-131798994D01*
X116991873Y-131799723D01*
X116991732Y-131800449D01*
X116991545Y-131801177D01*
X116991310Y-131801905D01*
X116991030Y-131802632D01*
X116990703Y-131803360D01*
X116990329Y-131804085D01*
X116968246Y-131846340D01*
X116947536Y-131889372D01*
X116928194Y-131933116D01*
X116910218Y-131977517D01*
X116893603Y-132022511D01*
X116878344Y-132068038D01*
X116864441Y-132114037D01*
X116851886Y-132160447D01*
X116840677Y-132207208D01*
X116830808Y-132254259D01*
X116822281Y-132301537D01*
X116815084Y-132348983D01*
X116809220Y-132396537D01*
X116804679Y-132444137D01*
X116801463Y-132491722D01*
X116799564Y-132539231D01*
X116796370Y-132690587D01*
X116794863Y-132840390D01*
X116795046Y-132988640D01*
X116796919Y-133135338D01*
X116796923Y-133136533D01*
X116796872Y-133137708D01*
X116796765Y-133138858D01*
X116796602Y-133139985D01*
X116796383Y-133141091D01*
X116796108Y-133142173D01*
X116795777Y-133143232D01*
X116795393Y-133144268D01*
X116794951Y-133145284D01*
X116794454Y-133146274D01*
X116793901Y-133147242D01*
X116793293Y-133148187D01*
X116792629Y-133149110D01*
X116791910Y-133150010D01*
X116791134Y-133150887D01*
X116790304Y-133151741D01*
X116779373Y-133162509D01*
X116768211Y-133173116D01*
X116756817Y-133183561D01*
X116745190Y-133193843D01*
X116733334Y-133203965D01*
X116721246Y-133213926D01*
X116708928Y-133223726D01*
X116696378Y-133233367D01*
X116657492Y-133261790D01*
X116617765Y-133288996D01*
X116577247Y-133315029D01*
X116535990Y-133339930D01*
X116494046Y-133363738D01*
X116451462Y-133386498D01*
X116408293Y-133408252D01*
X116364590Y-133429042D01*
X116320403Y-133448909D01*
X116275783Y-133467895D01*
X116185450Y-133503396D01*
X116094002Y-133535879D01*
X116001846Y-133565682D01*
X115790469Y-133630173D01*
X115581555Y-133692153D01*
X115543864Y-133703468D01*
X115506533Y-133715253D01*
X115469563Y-133727511D01*
X115432954Y-133740241D01*
X115396704Y-133753442D01*
X115360815Y-133767114D01*
X115325286Y-133781256D01*
X115290116Y-133795870D01*
X115273071Y-133803314D01*
X115256287Y-133811075D01*
X115239794Y-133819162D01*
X115223623Y-133827591D01*
X115207806Y-133836375D01*
X115192374Y-133845527D01*
X115177357Y-133855062D01*
X115162786Y-133864992D01*
X115148693Y-133875332D01*
X115135108Y-133886094D01*
X115122063Y-133897293D01*
X115109588Y-133908942D01*
X115097715Y-133921054D01*
X115086474Y-133933644D01*
X115075897Y-133946724D01*
X115066014Y-133960309D01*
X115063493Y-133964051D01*
X115061091Y-133967772D01*
X115058805Y-133971472D01*
X115056637Y-133975149D01*
X115054589Y-133978805D01*
X115052657Y-133982440D01*
X115050843Y-133986053D01*
X115049147Y-133989644D01*
X115047569Y-133993214D01*
X115046108Y-133996762D01*
X115044766Y-134000288D01*
X115043541Y-134003792D01*
X115042436Y-134007275D01*
X115041446Y-134010735D01*
X115040574Y-134014174D01*
X115039821Y-134017591D01*
X115036190Y-134038410D01*
X115033760Y-134058580D01*
X115032495Y-134078105D01*
X115032366Y-134096990D01*
X115033339Y-134115239D01*
X115035381Y-134132855D01*
X115038461Y-134149848D01*
X115042543Y-134166217D01*
X115047598Y-134181969D01*
X115053591Y-134197106D01*
X115060491Y-134211637D01*
X115068263Y-134225564D01*
X115076876Y-134238892D01*
X115086300Y-134251624D01*
X115096497Y-134263769D01*
X115107439Y-134275328D01*
X115119091Y-134286307D01*
X115131419Y-134296708D01*
X115144394Y-134306539D01*
X115157981Y-134315802D01*
X115172147Y-134324504D01*
X115186861Y-134332648D01*
X115217801Y-134347282D01*
X115250538Y-134359741D01*
X115284812Y-134370060D01*
X115320361Y-134378282D01*
X115356925Y-134384435D01*
X115411023Y-134390631D01*
X115465966Y-134394405D01*
X115521751Y-134395756D01*
X115578380Y-134394685D01*
X115635853Y-134391193D01*
X115694169Y-134385276D01*
X115753328Y-134376939D01*
X115813331Y-134366179D01*
X115879321Y-134351956D01*
X115944634Y-134335582D01*
X116009270Y-134317137D01*
X116073232Y-134296699D01*
X116136517Y-134274347D01*
X116199123Y-134250161D01*
X116261053Y-134224218D01*
X116322306Y-134196599D01*
X116382882Y-134167379D01*
X116442779Y-134136643D01*
X116501999Y-134104463D01*
X116560541Y-134070923D01*
X116618404Y-134036100D01*
X116675589Y-134000073D01*
X116732095Y-133962920D01*
X116787923Y-133924722D01*
X116788394Y-133924406D01*
X116788851Y-133924117D01*
X116789292Y-133923857D01*
X116789719Y-133923625D01*
X116790131Y-133923422D01*
X116790527Y-133923247D01*
X116790909Y-133923102D01*
X116791276Y-133922983D01*
X116791627Y-133922894D01*
X116791964Y-133922832D01*
X116792288Y-133922800D01*
X116792595Y-133922796D01*
X116792886Y-133922822D01*
X116793164Y-133922874D01*
X116793427Y-133922956D01*
X116793674Y-133923065D01*
X116793907Y-133923203D01*
X116794125Y-133923369D01*
X116794328Y-133923565D01*
X116794516Y-133923789D01*
X116794687Y-133924040D01*
X116794845Y-133924321D01*
X116794988Y-133924630D01*
X116795116Y-133924967D01*
X116795228Y-133925333D01*
X116795326Y-133925728D01*
X116795409Y-133926150D01*
X116795475Y-133926601D01*
X116795530Y-133927081D01*
X116795566Y-133927589D01*
X116795588Y-133928125D01*
X116795596Y-133928690D01*
X116795596Y-134994432D01*
X116795564Y-134995570D01*
X116795522Y-134996124D01*
X116795465Y-134996668D01*
X116795389Y-134997201D01*
X116795298Y-134997725D01*
X116795189Y-134998239D01*
X116795066Y-134998742D01*
X116794925Y-134999235D01*
X116794769Y-134999716D01*
X116794594Y-135000189D01*
X116794404Y-135000653D01*
X116794196Y-135001105D01*
X116793974Y-135001548D01*
X116793732Y-135001980D01*
X116793476Y-135002403D01*
X116793203Y-135002815D01*
X116792913Y-135003217D01*
X116792607Y-135003610D01*
X116792285Y-135003992D01*
X116791946Y-135004364D01*
X116791590Y-135004726D01*
X116791219Y-135005078D01*
X116790830Y-135005419D01*
X116790425Y-135005751D01*
X116790003Y-135006073D01*
X116789566Y-135006385D01*
X116789111Y-135006687D01*
X116788640Y-135006978D01*
X116788153Y-135007260D01*
X116787129Y-135007793D01*
X116700974Y-135047345D01*
X116614523Y-135083981D01*
X116527778Y-135117703D01*
X116440737Y-135148509D01*
X116353400Y-135176398D01*
X116265767Y-135201372D01*
X116177841Y-135223431D01*
X116089618Y-135242575D01*
X116001100Y-135258803D01*
X115912286Y-135272114D01*
X115823177Y-135282512D01*
X115733772Y-135289995D01*
X115644071Y-135294559D01*
X115554074Y-135296211D01*
X115463783Y-135294946D01*
X115373196Y-135290765D01*
X115266500Y-135281696D01*
X115160886Y-135267719D01*
X115056819Y-135248647D01*
X114954764Y-135224305D01*
X114855185Y-135194513D01*
X114806469Y-135177516D01*
X114758547Y-135159089D01*
X114711477Y-135139210D01*
X114665316Y-135117856D01*
X114620123Y-135095004D01*
X114575958Y-135070633D01*
X114532874Y-135044718D01*
X114490934Y-135017238D01*
X114450193Y-134988171D01*
X114410711Y-134957494D01*
X114372545Y-134925184D01*
X114335754Y-134891220D01*
X114300396Y-134855578D01*
X114266528Y-134818236D01*
X114234210Y-134779171D01*
X114203499Y-134738362D01*
X114174452Y-134695787D01*
X114147129Y-134651422D01*
X114121588Y-134605242D01*
X114097886Y-134557229D01*
X114076081Y-134507359D01*
X114056233Y-134455608D01*
X114056057Y-134455135D01*
X114055877Y-134454689D01*
X114055691Y-134454271D01*
X114055501Y-134453880D01*
X114055306Y-134453516D01*
X114055106Y-134453181D01*
X114054903Y-134452873D01*
X114054694Y-134452592D01*
X114054481Y-134452340D01*
X114054263Y-134452114D01*
X114054041Y-134451917D01*
X114053814Y-134451747D01*
X114053582Y-134451605D01*
X114053346Y-134451489D01*
X114053105Y-134451402D01*
X114052860Y-134451344D01*
X114052608Y-134451312D01*
X114052353Y-134451308D01*
X114052094Y-134451331D01*
X114051829Y-134451382D01*
X114051561Y-134451461D01*
X114051287Y-134451569D01*
X114051009Y-134451702D01*
X114050725Y-134451863D01*
X114050438Y-134452054D01*
X114050146Y-134452270D01*
X114049849Y-134452515D01*
X114049548Y-134452787D01*
X114049241Y-134453087D01*
X114048931Y-134453415D01*
X114048615Y-134453769D01*
X114048295Y-134454153D01*
X114010443Y-134500546D01*
X113978643Y-134538917D01*
X113965013Y-134555096D01*
X113952896Y-134569270D01*
X113942293Y-134581439D01*
X113933201Y-134591604D01*
X113865568Y-134662062D01*
X113794969Y-134728379D01*
X113721543Y-134790556D01*
X113645428Y-134848595D01*
X113566760Y-134902497D01*
X113485682Y-134952263D01*
X113402327Y-134997896D01*
X113316837Y-135039395D01*
X113229348Y-135076762D01*
X113140000Y-135110000D01*
X113048930Y-135139109D01*
X112956274Y-135164090D01*
X112862174Y-135184945D01*
X112766767Y-135201676D01*
X112670190Y-135214283D01*
X112572582Y-135222768D01*
X112480187Y-135227178D01*
X112388610Y-135228235D01*
X112297853Y-135225939D01*
X112207915Y-135220289D01*
X112118796Y-135211286D01*
X112030496Y-135198931D01*
X111943015Y-135183224D01*
X111856355Y-135164163D01*
X111781074Y-135144400D01*
X111707119Y-135121651D01*
X111634529Y-135095960D01*
X111563350Y-135067364D01*
X111493622Y-135035907D01*
X111425390Y-135001626D01*
X111358697Y-134964565D01*
X111293587Y-134924764D01*
X111230099Y-134882264D01*
X111168281Y-134837106D01*
X111108172Y-134789332D01*
X111049818Y-134738979D01*
X110993260Y-134686091D01*
X110938543Y-134630710D01*
X110885707Y-134572874D01*
X110834799Y-134512626D01*
X110834470Y-134512214D01*
X110834164Y-134511804D01*
X110833883Y-134511396D01*
X110833623Y-134510990D01*
X110833389Y-134510586D01*
X110833175Y-134510184D01*
X110832986Y-134509784D01*
X110832818Y-134509386D01*
X110832676Y-134508991D01*
X110832554Y-134508596D01*
X110832456Y-134508205D01*
X110832382Y-134507816D01*
X110832331Y-134507428D01*
X110832302Y-134507043D01*
X110832297Y-134506659D01*
X110832315Y-134506278D01*
X110832354Y-134505898D01*
X110832419Y-134505521D01*
X110832506Y-134505146D01*
X110832615Y-134504772D01*
X110832747Y-134504401D01*
X110832904Y-134504032D01*
X110833082Y-134503665D01*
X110833284Y-134503300D01*
X110833509Y-134502937D01*
X110833756Y-134502576D01*
X110834028Y-134502218D01*
X110834320Y-134501861D01*
X110834637Y-134501506D01*
X110834976Y-134501154D01*
X110835339Y-134500803D01*
X110835724Y-134500455D01*
X111452865Y-133954091D01*
X111453253Y-133953754D01*
X111453641Y-133953440D01*
X111454030Y-133953148D01*
X111454418Y-133952877D01*
X111454806Y-133952629D01*
X111455194Y-133952403D01*
X111455582Y-133952197D01*
X111455970Y-133952015D01*
X111456359Y-133951854D01*
X111456747Y-133951715D01*
X111457135Y-133951598D01*
X111457524Y-133951504D01*
X111457912Y-133951432D01*
X111458301Y-133951380D01*
X111458689Y-133951351D01*
X111459078Y-133951344D01*
X111459465Y-133951359D01*
X111459855Y-133951396D01*
X111460243Y-133951455D01*
X111460632Y-133951537D01*
X111461021Y-133951640D01*
X111461409Y-133951763D01*
X111461798Y-133951911D01*
X111462187Y-133952080D01*
X111462576Y-133952271D01*
X111462965Y-133952483D01*
X111463354Y-133952718D01*
X111463742Y-133952975D01*
X111464132Y-133953254D01*
X111464522Y-133953555D01*
X111464911Y-133953878D01*
X111465300Y-133954222D01*
X111503405Y-133988518D01*
X111542043Y-134021790D01*
X111581260Y-134053946D01*
X111621099Y-134084892D01*
X111661604Y-134114535D01*
X111702821Y-134142782D01*
X111744792Y-134169538D01*
X111787564Y-134194713D01*
X111831178Y-134218211D01*
X111875678Y-134239940D01*
X111921112Y-134259808D01*
X111967521Y-134277719D01*
X112014950Y-134293582D01*
X112063444Y-134307303D01*
X112113047Y-134318789D01*
X112163800Y-134327947D01*
X112195167Y-134332501D01*
X112226265Y-134336407D01*
X112257092Y-134339661D01*
X112287650Y-134342268D01*
X112317938Y-134344227D01*
X112347957Y-134345536D01*
X112377705Y-134346195D01*
X112407184Y-134346205D01*
X112436393Y-134345566D01*
X112465333Y-134344278D01*
X112494002Y-134342341D01*
X112522401Y-134339754D01*
X112550532Y-134336519D01*
X112578391Y-134332635D01*
X112605982Y-134328102D01*
X112633303Y-134322920D01*
X112668893Y-134315039D01*
X112703604Y-134306041D01*
X112737439Y-134295945D01*
X112770394Y-134284766D01*
X112802471Y-134272522D01*
X112833666Y-134259230D01*
X112863982Y-134244908D01*
X112893418Y-134229569D01*
X112921972Y-134213236D01*
X112949646Y-134195921D01*
X113002346Y-134158421D01*
X113051517Y-134117205D01*
X113097150Y-134072410D01*
X113139248Y-134024170D01*
X113177806Y-133972625D01*
X113212816Y-133917908D01*
X113244280Y-133860157D01*
X113272192Y-133799507D01*
X113296548Y-133736097D01*
X113317346Y-133670060D01*
X113334581Y-133601534D01*
X113334672Y-133601094D01*
X113334745Y-133600668D01*
X113334801Y-133600257D01*
X113334839Y-133599859D01*
X113334860Y-133599475D01*
X113334864Y-133599106D01*
X113334851Y-133598751D01*
X113334820Y-133598408D01*
X113334771Y-133598081D01*
X113334706Y-133597767D01*
X113334623Y-133597467D01*
X113334524Y-133597179D01*
X113334405Y-133596908D01*
X113334270Y-133596650D01*
X113334119Y-133596406D01*
X113333950Y-133596175D01*
X113333763Y-133595959D01*
X113333559Y-133595756D01*
X113333338Y-133595569D01*
X113333100Y-133595395D01*
X113332843Y-133595234D01*
X113332571Y-133595087D01*
X113332280Y-133594955D01*
X113331973Y-133594836D01*
X113331648Y-133594732D01*
X113331306Y-133594642D01*
X113330947Y-133594564D01*
X113330570Y-133594501D01*
X113330177Y-133594452D01*
X113329766Y-133594416D01*
X113329339Y-133594396D01*
X113328893Y-133594388D01*
X110909675Y-133594388D01*
X110909291Y-133594395D01*
X110908917Y-133594413D01*
X110908553Y-133594442D01*
X110908199Y-133594484D01*
X110907854Y-133594538D01*
X110907521Y-133594603D01*
X110907198Y-133594680D01*
X110906884Y-133594769D01*
X110906581Y-133594870D01*
X110906288Y-133594982D01*
X110906004Y-133595108D01*
X110905732Y-133595244D01*
X110905470Y-133595393D01*
X110905217Y-133595553D01*
X110904975Y-133595725D01*
X110904742Y-133595910D01*
X110904520Y-133596105D01*
X110904307Y-133596313D01*
X110904106Y-133596533D01*
X110903914Y-133596764D01*
X110903732Y-133597008D01*
X110903561Y-133597264D01*
X110903399Y-133597530D01*
X110903249Y-133597811D01*
X110903106Y-133598101D01*
X110902975Y-133598405D01*
X110902854Y-133598720D01*
X110902743Y-133599047D01*
X110902642Y-133599386D01*
X110902551Y-133599737D01*
X110902470Y-133600100D01*
X110902399Y-133600475D01*
X110889784Y-133664899D01*
X110875356Y-133728328D01*
X110859113Y-133790761D01*
X110841057Y-133852200D01*
X110821186Y-133912643D01*
X110799503Y-133972092D01*
X110776005Y-134030545D01*
X110750694Y-134088004D01*
X110723568Y-134144465D01*
X110694630Y-134199933D01*
X110663877Y-134254406D01*
X110631309Y-134307881D01*
X110596928Y-134360362D01*
X110560733Y-134411848D01*
X110522725Y-134462337D01*
X110482902Y-134511833D01*
X110420566Y-134583548D01*
X110355928Y-134651512D01*
X110288989Y-134715733D01*
X110219747Y-134776203D01*
X110148204Y-134832927D01*
X110074360Y-134885903D01*
X109998214Y-134935131D01*
X109919766Y-134980610D01*
X109839016Y-135022344D01*
X109755967Y-135060329D01*
X109670616Y-135094566D01*
X109582961Y-135125056D01*
X109493006Y-135151798D01*
X109400749Y-135174793D01*
X109306191Y-135194039D01*
X109209330Y-135209538D01*
X109138473Y-135218042D01*
X109066198Y-135224106D01*
X108992504Y-135227731D01*
X108917393Y-135228918D01*
X108840863Y-135227666D01*
X108762917Y-135223973D01*
X108683553Y-135217843D01*
X108602773Y-135209274D01*
X108536420Y-135200241D01*
X108471106Y-135189212D01*
X108406831Y-135176192D01*
X108343597Y-135161178D01*
X108281402Y-135144169D01*
X108220246Y-135125167D01*
X108160131Y-135104172D01*
X108101055Y-135081182D01*
X108043021Y-135056200D01*
X107986023Y-135029224D01*
X107930067Y-135000252D01*
X107875151Y-134969289D01*
X107821273Y-134936331D01*
X107768438Y-134901379D01*
X107716641Y-134864434D01*
X107665885Y-134825496D01*
X107625646Y-134792784D01*
X107585762Y-134758945D01*
X107546235Y-134723975D01*
X107507064Y-134687879D01*
X107468248Y-134650655D01*
X107429789Y-134612299D01*
X107391687Y-134572817D01*
X107353940Y-134532206D01*
X107353283Y-134531470D01*
X107352670Y-134530736D01*
X107352099Y-134530003D01*
X107351572Y-134529269D01*
X107351088Y-134528537D01*
X107350646Y-134527805D01*
X107350250Y-134527074D01*
X107349894Y-134526344D01*
X107349583Y-134525615D01*
X107349315Y-134524886D01*
X107349090Y-134524158D01*
X107348907Y-134523431D01*
X107348769Y-134522705D01*
X107348674Y-134521978D01*
X107348620Y-134521256D01*
X107348612Y-134520530D01*
X107348647Y-134519807D01*
X107348723Y-134519085D01*
X107348842Y-134518363D01*
X107349007Y-134517642D01*
X107349214Y-134516922D01*
X107349464Y-134516203D01*
X107349756Y-134515484D01*
X107350093Y-134514767D01*
X107350471Y-134514050D01*
X107350896Y-134513333D01*
X107351361Y-134512617D01*
X107351869Y-134511904D01*
X107352422Y-134511190D01*
X107353017Y-134510477D01*
X107353655Y-134509766D01*
X107354336Y-134509054D01*
X107981664Y-133875509D01*
X107982033Y-133875153D01*
X107982418Y-133874820D01*
X107982816Y-133874510D01*
X107983224Y-133874221D01*
X107983642Y-133873956D01*
X107984070Y-133873712D01*
X107984510Y-133873493D01*
X107984955Y-133873294D01*
X107985408Y-133873120D01*
X107985868Y-133872968D01*
X107986333Y-133872840D01*
X107986803Y-133872732D01*
X107987278Y-133872647D01*
X107987753Y-133872586D01*
X107988232Y-133872547D01*
X107988712Y-133872532D01*
X107989193Y-133872538D01*
X107989670Y-133872567D01*
X107990149Y-133872620D01*
X107990624Y-133872695D01*
X107991096Y-133872794D01*
X107991564Y-133872913D01*
X107992027Y-133873057D01*
X107992484Y-133873223D01*
X107992934Y-133873412D01*
X107993376Y-133873624D01*
X107993810Y-133873859D01*
X107994234Y-133874117D01*
X107994648Y-133874397D01*
X107995051Y-133874701D01*
X107995442Y-133875028D01*
X107995819Y-133875377D01*
X108019431Y-133898146D01*
X108043832Y-133920812D01*
X108069021Y-133943375D01*
X108095002Y-133965833D01*
X108121771Y-133988190D01*
X108149332Y-134010440D01*
X108177683Y-134032588D01*
X108206825Y-134054632D01*
X108249264Y-134084964D01*
X108292218Y-134113119D01*
X108335686Y-134139097D01*
X108379668Y-134162897D01*
X108424164Y-134184522D01*
X108469174Y-134203970D01*
X108514698Y-134221241D01*
X108560734Y-134236335D01*
X108607285Y-134249252D01*
X108654350Y-134259994D01*
X108701929Y-134268558D01*
X108750021Y-134274945D01*
X108798626Y-134279158D01*
X108847746Y-134281193D01*
X108897380Y-134281052D01*
X108947527Y-134278735D01*
X108997956Y-134274031D01*
X109047733Y-134266831D01*
X109096775Y-134257165D01*
X109144994Y-134245054D01*
X109192304Y-134230527D01*
X109238617Y-134213608D01*
X109283849Y-134194326D01*
X109327915Y-134172703D01*
X109370724Y-134148767D01*
X109412192Y-134122544D01*
X109452237Y-134094063D01*
X109490767Y-134063343D01*
X109527698Y-134030415D01*
X109562944Y-133995304D01*
X109596418Y-133958035D01*
X109628034Y-133918637D01*
X109659363Y-133875029D01*
X109688184Y-133830225D01*
X109714532Y-133784292D01*
X109738446Y-133737300D01*
X109759958Y-133689316D01*
X109779106Y-133640408D01*
X109795925Y-133590648D01*
X109810447Y-133540100D01*
X109822712Y-133488835D01*
X109832754Y-133436920D01*
X109840607Y-133384426D01*
X109846309Y-133331416D01*
X109849893Y-133277964D01*
X109851396Y-133224135D01*
X109850853Y-133170001D01*
X109848300Y-133115627D01*
X109844132Y-133067231D01*
X109838000Y-133019303D01*
X109829935Y-132971915D01*
X109819969Y-132925136D01*
X109814626Y-132904320D01*
X111706847Y-132904320D01*
X111706848Y-132904433D01*
X111706854Y-132904546D01*
X111706867Y-132904657D01*
X111706885Y-132904768D01*
X111706910Y-132904877D01*
X111706939Y-132904985D01*
X111706975Y-132905091D01*
X111707016Y-132905194D01*
X111707063Y-132905295D01*
X111707116Y-132905394D01*
X111707174Y-132905490D01*
X111707238Y-132905582D01*
X111707306Y-132905672D01*
X111707381Y-132905759D01*
X111707457Y-132905843D01*
X111707538Y-132905922D01*
X111707623Y-132905996D01*
X111707710Y-132906066D01*
X111707803Y-132906129D01*
X111707898Y-132906188D01*
X111707996Y-132906242D01*
X111708097Y-132906288D01*
X111708200Y-132906332D01*
X111708306Y-132906369D01*
X111708415Y-132906400D01*
X111708525Y-132906426D01*
X111708637Y-132906447D01*
X111708750Y-132906461D01*
X111708865Y-132906469D01*
X111708980Y-132906473D01*
X113345561Y-132906473D01*
X113345860Y-132906468D01*
X113346150Y-132906454D01*
X113346427Y-132906430D01*
X113346695Y-132906397D01*
X113346949Y-132906354D01*
X113347193Y-132906301D01*
X113347427Y-132906240D01*
X113347650Y-132906168D01*
X113347861Y-132906086D01*
X113348061Y-132905996D01*
X113348251Y-132905897D01*
X113348429Y-132905786D01*
X113348597Y-132905666D01*
X113348752Y-132905537D01*
X113348897Y-132905399D01*
X113349031Y-132905251D01*
X113349154Y-132905093D01*
X113349266Y-132904926D01*
X113349366Y-132904749D01*
X113349456Y-132904564D01*
X113349534Y-132904366D01*
X113349602Y-132904161D01*
X113349658Y-132903946D01*
X113349703Y-132903722D01*
X113349737Y-132903487D01*
X113349759Y-132903243D01*
X113349771Y-132902990D01*
X113349771Y-132902727D01*
X113349760Y-132902454D01*
X113349740Y-132902172D01*
X113349705Y-132901880D01*
X113349662Y-132901578D01*
X113342451Y-132860103D01*
X113333854Y-132818730D01*
X113323856Y-132777552D01*
X113312443Y-132736652D01*
X113299599Y-132696122D01*
X113285309Y-132656048D01*
X113269557Y-132616522D01*
X113252329Y-132577628D01*
X113233610Y-132539458D01*
X113213384Y-132502100D01*
X113191637Y-132465638D01*
X113168353Y-132430165D01*
X113143517Y-132395767D01*
X113117115Y-132362535D01*
X113089129Y-132330555D01*
X113059547Y-132299916D01*
X113020955Y-132264625D01*
X112980165Y-132232519D01*
X112937374Y-132203603D01*
X112892777Y-132177879D01*
X112846567Y-132155349D01*
X112798941Y-132136016D01*
X112750089Y-132119883D01*
X112700210Y-132106952D01*
X112649496Y-132097225D01*
X112598143Y-132090705D01*
X112546346Y-132087394D01*
X112494299Y-132087296D01*
X112442195Y-132090412D01*
X112390229Y-132096745D01*
X112338597Y-132106298D01*
X112287494Y-132119073D01*
X112254640Y-132129205D01*
X112222800Y-132140695D01*
X112191966Y-132153501D01*
X112162135Y-132167579D01*
X112133299Y-132182888D01*
X112105448Y-132199382D01*
X112078579Y-132217021D01*
X112052686Y-132235760D01*
X112027760Y-132255558D01*
X112003797Y-132276370D01*
X111958729Y-132320869D01*
X111917432Y-132368910D01*
X111879853Y-132420153D01*
X111845940Y-132474252D01*
X111815642Y-132530866D01*
X111788907Y-132589648D01*
X111765683Y-132650259D01*
X111745917Y-132712352D01*
X111729562Y-132775584D01*
X111716561Y-132839612D01*
X111706865Y-132904092D01*
X111706853Y-132904206D01*
X111706847Y-132904320D01*
X109814626Y-132904320D01*
X109808135Y-132879039D01*
X109794466Y-132833694D01*
X109778988Y-132789172D01*
X109761738Y-132745546D01*
X109742745Y-132702887D01*
X109722042Y-132661265D01*
X109699661Y-132620753D01*
X109675632Y-132581419D01*
X109649990Y-132543338D01*
X109622765Y-132506580D01*
X109593987Y-132471217D01*
X109563690Y-132437317D01*
X109531906Y-132404955D01*
X109498665Y-132374201D01*
X109463999Y-132345127D01*
X109427941Y-132317803D01*
X109390523Y-132292301D01*
X109351775Y-132268692D01*
X109311730Y-132247047D01*
X109270418Y-132227439D01*
X109227874Y-132209937D01*
X109184127Y-132194614D01*
X109139211Y-132181540D01*
X109093154Y-132170786D01*
X109045991Y-132162426D01*
X108997754Y-132156529D01*
X108948472Y-132153167D01*
X108898181Y-132152411D01*
X108851111Y-132153890D01*
X108804726Y-132157241D01*
X108759025Y-132162461D01*
X108714009Y-132169551D01*
X108669679Y-132178511D01*
X108626032Y-132189339D01*
X108583071Y-132202037D01*
X108540792Y-132216605D01*
X108499197Y-132233043D01*
X108458289Y-132251350D01*
X108418061Y-132271528D01*
X108378522Y-132293575D01*
X108339664Y-132317490D01*
X108301492Y-132343276D01*
X108264002Y-132370933D01*
X108227198Y-132400457D01*
X108202801Y-132421166D01*
X108178766Y-132442148D01*
X108155091Y-132463400D01*
X108131777Y-132484925D01*
X108108823Y-132506724D01*
X108086229Y-132528796D01*
X108063995Y-132551141D01*
X108042121Y-132573760D01*
X108041889Y-132573989D01*
X108041648Y-132574204D01*
X108041397Y-132574407D01*
X108041138Y-132574594D01*
X108040869Y-132574769D01*
X108040593Y-132574931D01*
X108040309Y-132575076D01*
X108040018Y-132575206D01*
X108039722Y-132575321D01*
X108039418Y-132575422D01*
X108039110Y-132575508D01*
X108038799Y-132575577D01*
X108038483Y-132575631D01*
X108038163Y-132575667D01*
X108037842Y-132575687D01*
X108037516Y-132575691D01*
X108037194Y-132575677D01*
X108036872Y-132575646D01*
X108036555Y-132575600D01*
X108036241Y-132575538D01*
X108035932Y-132575459D01*
X108035628Y-132575364D01*
X108035329Y-132575255D01*
X108035037Y-132575131D01*
X108034752Y-132574990D01*
X108034474Y-132574837D01*
X108034203Y-132574670D01*
X108033942Y-132574487D01*
X108033690Y-132574292D01*
X108033447Y-132574083D01*
X108033215Y-132573861D01*
X108032994Y-132573626D01*
X107370478Y-131860972D01*
X107370163Y-131860632D01*
X107369871Y-131860295D01*
X107369598Y-131859954D01*
X107369345Y-131859615D01*
X107369112Y-131859275D01*
X107368900Y-131858935D01*
X107368705Y-131858594D01*
X107368533Y-131858253D01*
X107368379Y-131857913D01*
X107368245Y-131857571D01*
X107368131Y-131857229D01*
X107368037Y-131856887D01*
X107367963Y-131856545D01*
X107367909Y-131856201D01*
X107367875Y-131855860D01*
X107367859Y-131855517D01*
X107367865Y-131855173D01*
X107367892Y-131854830D01*
X107367937Y-131854487D01*
X107368002Y-131854142D01*
X107368088Y-131853797D01*
X107368193Y-131853452D01*
X107368318Y-131853106D01*
X107368464Y-131852762D01*
X107368629Y-131852417D01*
X107368814Y-131852072D01*
X107369018Y-131851725D01*
X107369243Y-131851380D01*
X107369489Y-131851033D01*
X107369754Y-131850686D01*
X107370039Y-131850339D01*
X107370344Y-131849992D01*
X107408822Y-131808121D01*
X107447858Y-131767713D01*
X107487452Y-131728762D01*
X107527606Y-131691271D01*
X107568317Y-131655241D01*
X107609585Y-131620670D01*
X107651412Y-131587559D01*
X107693797Y-131555908D01*
X107694456Y-131555401D01*
X107695078Y-131554874D01*
X107695661Y-131554326D01*
X107696209Y-131553758D01*
X107696718Y-131553168D01*
X107697191Y-131552558D01*
X107697627Y-131551927D01*
X107698026Y-131551276D01*
X107698387Y-131550604D01*
X107698712Y-131549911D01*
X107698999Y-131549198D01*
X107699250Y-131548464D01*
X107699464Y-131547710D01*
X107699640Y-131546935D01*
X107699781Y-131546140D01*
X107699882Y-131545324D01*
X107700404Y-131539553D01*
X107700777Y-131533747D01*
X107700999Y-131527910D01*
X107701073Y-131522039D01*
X107700999Y-131516135D01*
X107700776Y-131510199D01*
X107700405Y-131504230D01*
X107699883Y-131498228D01*
X107692174Y-131415102D01*
X107685458Y-131334650D01*
X107679737Y-131256877D01*
X107677565Y-131222355D01*
X107677565Y-131222354D01*
X108273878Y-131222354D01*
X108273896Y-131264998D01*
X108273937Y-131266060D01*
X108274009Y-131267079D01*
X108274115Y-131268057D01*
X108274252Y-131268991D01*
X108274420Y-131269883D01*
X108274622Y-131270733D01*
X108274854Y-131271540D01*
X108275119Y-131272305D01*
X108275417Y-131273028D01*
X108275745Y-131273709D01*
X108276107Y-131274346D01*
X108276500Y-131274943D01*
X108276925Y-131275497D01*
X108277381Y-131276007D01*
X108277871Y-131276476D01*
X108278393Y-131276903D01*
X108278946Y-131277287D01*
X108279531Y-131277628D01*
X108280149Y-131277929D01*
X108280798Y-131278184D01*
X108281480Y-131278399D01*
X108282194Y-131278571D01*
X108282939Y-131278701D01*
X108283717Y-131278789D01*
X108284527Y-131278834D01*
X108285369Y-131278837D01*
X108286243Y-131278797D01*
X108287149Y-131278715D01*
X108288087Y-131278590D01*
X108289058Y-131278423D01*
X108290060Y-131278213D01*
X108291094Y-131277964D01*
X108372697Y-131258771D01*
X108455851Y-131242539D01*
X108540556Y-131229268D01*
X108626812Y-131218956D01*
X108714619Y-131211606D01*
X108803976Y-131207218D01*
X108894886Y-131205788D01*
X108987345Y-131207319D01*
X109073212Y-131211683D01*
X109157977Y-131219288D01*
X109241637Y-131230137D01*
X109324193Y-131244227D01*
X109405645Y-131261557D01*
X109445958Y-131271438D01*
X109485994Y-131282129D01*
X109525754Y-131293630D01*
X109565239Y-131305942D01*
X109604447Y-131319064D01*
X109643380Y-131332996D01*
X109643820Y-131333151D01*
X109644247Y-131333286D01*
X109644662Y-131333401D01*
X109645064Y-131333498D01*
X109645453Y-131333573D01*
X109645830Y-131333628D01*
X109646194Y-131333664D01*
X109646546Y-131333680D01*
X109646884Y-131333677D01*
X109647210Y-131333654D01*
X109647522Y-131333609D01*
X109647824Y-131333546D01*
X109648112Y-131333463D01*
X109648387Y-131333360D01*
X109648651Y-131333236D01*
X109648900Y-131333095D01*
X109649136Y-131332931D01*
X109649362Y-131332748D01*
X109649574Y-131332547D01*
X109649773Y-131332323D01*
X109649960Y-131332081D01*
X109650136Y-131331819D01*
X109650295Y-131331536D01*
X109650445Y-131331234D01*
X109650582Y-131330913D01*
X109650706Y-131330569D01*
X109650816Y-131330209D01*
X109650916Y-131329827D01*
X109651001Y-131329425D01*
X109651076Y-131329004D01*
X109651136Y-131328563D01*
X109651185Y-131328101D01*
X109653419Y-131294198D01*
X109654322Y-131260721D01*
X109653909Y-131227698D01*
X109652192Y-131195159D01*
X109649180Y-131163131D01*
X109644887Y-131131646D01*
X109639324Y-131100731D01*
X109632502Y-131070414D01*
X109624435Y-131040725D01*
X109615135Y-131011694D01*
X109604611Y-130983346D01*
X109592877Y-130955715D01*
X109579944Y-130928826D01*
X109565825Y-130902710D01*
X109550531Y-130877395D01*
X109534074Y-130852909D01*
X109516466Y-130829284D01*
X109497718Y-130806546D01*
X109477843Y-130784722D01*
X109456853Y-130763845D01*
X109434759Y-130743943D01*
X109411574Y-130725045D01*
X109387308Y-130707178D01*
X109361975Y-130690373D01*
X109335586Y-130674657D01*
X109308152Y-130660060D01*
X109279685Y-130646610D01*
X109250198Y-130634337D01*
X109219702Y-130623269D01*
X109188211Y-130613436D01*
X109155733Y-130604865D01*
X109122283Y-130597587D01*
X109083325Y-130590988D01*
X109043974Y-130586325D01*
X109004350Y-130583600D01*
X108964575Y-130582822D01*
X108924768Y-130583990D01*
X108885051Y-130587112D01*
X108845545Y-130592188D01*
X108806370Y-130599225D01*
X108767649Y-130608225D01*
X108729500Y-130619193D01*
X108692047Y-130632136D01*
X108655409Y-130647053D01*
X108619707Y-130663952D01*
X108585063Y-130682835D01*
X108551597Y-130703706D01*
X108519431Y-130726570D01*
X108488719Y-130751231D01*
X108460057Y-130777090D01*
X108433444Y-130804148D01*
X108408880Y-130832404D01*
X108386364Y-130861861D01*
X108365897Y-130892515D01*
X108347479Y-130924368D01*
X108331110Y-130957422D01*
X108316788Y-130991673D01*
X108304515Y-131027123D01*
X108294291Y-131063773D01*
X108286115Y-131101620D01*
X108279988Y-131140666D01*
X108275909Y-131180911D01*
X108273878Y-131222354D01*
X107677565Y-131222354D01*
X107675012Y-131181786D01*
X107674042Y-131159485D01*
X107673649Y-131137094D01*
X107673830Y-131114614D01*
X107674588Y-131092045D01*
X107675921Y-131069388D01*
X107677829Y-131046641D01*
X107680315Y-131023806D01*
X107683377Y-131000881D01*
X107687013Y-130977867D01*
X107691224Y-130954764D01*
X107696012Y-130931573D01*
X107701376Y-130908292D01*
X107707316Y-130884923D01*
X107713831Y-130861464D01*
X107720923Y-130837917D01*
X107728591Y-130814280D01*
X107747464Y-130761747D01*
X107768337Y-130710703D01*
X107791209Y-130661150D01*
X107816081Y-130613090D01*
X107842951Y-130566520D01*
X107871821Y-130521442D01*
X107902688Y-130477856D01*
X107935556Y-130435761D01*
X107970424Y-130395157D01*
X108007288Y-130356045D01*
X108046153Y-130318424D01*
X108087015Y-130282294D01*
X108129878Y-130247656D01*
X108174739Y-130214510D01*
X108221599Y-130182854D01*
X108270457Y-130152690D01*
X108317928Y-130125924D01*
X108366081Y-130101254D01*
X108414922Y-130078680D01*
X108464445Y-130058202D01*
X108514652Y-130039818D01*
X108565543Y-130023534D01*
X108617119Y-130009342D01*
X108669379Y-129997247D01*
X108722323Y-129987248D01*
X108775952Y-129979346D01*
X108830265Y-129973540D01*
X108885262Y-129969828D01*
X108940944Y-129968215D01*
X108997310Y-129968696D01*
G37*
D14*
%TO.C,R1*%
X121432341Y-122941589D02*
X122886469Y-122941589D01*
X121432341Y-124761589D02*
X122886469Y-124761589D01*
%TO.C,R2*%
X137021083Y-131504297D02*
X135566955Y-131504297D01*
X137021083Y-133324297D02*
X135566955Y-133324297D01*
D15*
%TO.C,J1*%
X121068473Y-128437927D02*
X121068473Y-133695727D01*
X121068473Y-133695727D02*
X121612033Y-133695727D01*
X121612033Y-128437927D02*
X121068473Y-128437927D01*
X123318913Y-133695727D02*
X124152033Y-133695727D01*
X124152033Y-128437927D02*
X123318913Y-128437927D01*
X125858913Y-133695727D02*
X126692033Y-133695727D01*
X126692033Y-128437927D02*
X125858913Y-128437927D01*
X128398913Y-133695727D02*
X128942473Y-133695727D01*
X128942473Y-128437927D02*
X128398913Y-128437927D01*
X128942473Y-133695727D02*
X128942473Y-128437927D01*
D14*
%TO.C,R3*%
X111170919Y-135621772D02*
X109716791Y-135621772D01*
X111170919Y-137441772D02*
X109716791Y-137441772D01*
%TD*%
%LPC*%
D16*
%TO.C,R1*%
X123809405Y-123851589D03*
X120509405Y-123851589D03*
%TD*%
D17*
%TO.C,R2*%
X134644019Y-132414297D03*
X137944019Y-132414297D03*
%TD*%
D18*
%TO.C,J1*%
X127545473Y-128541828D03*
X127545473Y-133591826D03*
X125005473Y-128541828D03*
X125005473Y-133591826D03*
X122465473Y-128541828D03*
X122465473Y-133591826D03*
%TD*%
D17*
%TO.C,R3*%
X108793855Y-136531772D03*
X112093855Y-136531772D03*
%TD*%
%LPD*%
M02*
