%TF.GenerationSoftware,KiCad,Pcbnew,8.0.8*%
%TF.CreationDate,2025-04-07T01:54:08-03:00*%
%TF.ProjectId,Sao_CashBag,53616f5f-4361-4736-9842-61672e6b6963,rev?*%
%TF.SameCoordinates,Original*%
%TF.FileFunction,Soldermask,Top*%
%TF.FilePolarity,Negative*%
%FSLAX46Y46*%
G04 Gerber Fmt 4.6, Leading zero omitted, Abs format (unit mm)*
G04 Created by KiCad (PCBNEW 8.0.8) date 2025-04-07 01:54:08*
%MOMM*%
%LPD*%
G01*
G04 APERTURE LIST*
G04 Aperture macros list*
%AMRoundRect*
0 Rectangle with rounded corners*
0 $1 Rounding radius*
0 $2 $3 $4 $5 $6 $7 $8 $9 X,Y pos of 4 corners*
0 Add a 4 corners polygon primitive as box body*
4,1,4,$2,$3,$4,$5,$6,$7,$8,$9,$2,$3,0*
0 Add four circle primitives for the rounded corners*
1,1,$1+$1,$2,$3*
1,1,$1+$1,$4,$5*
1,1,$1+$1,$6,$7*
1,1,$1+$1,$8,$9*
0 Add four rect primitives between the rounded corners*
20,1,$1+$1,$2,$3,$4,$5,0*
20,1,$1+$1,$4,$5,$6,$7,0*
20,1,$1+$1,$6,$7,$8,$9,0*
20,1,$1+$1,$8,$9,$2,$3,0*%
G04 Aperture macros list end*
%ADD10C,0.100000*%
%ADD11C,0.500000*%
%ADD12C,0.000000*%
%ADD13C,0.050000*%
%ADD14C,3.189925*%
%ADD15RoundRect,0.285088X-0.074296X-0.926139X0.839208X-0.398727X0.074296X0.926139X-0.839208X0.398727X0*%
%ADD16RoundRect,0.285088X0.527412X0.764912X-0.527412X0.764912X-0.527412X-0.764912X0.527412X-0.764912X0*%
G04 APERTURE END LIST*
D10*
X106818534Y-137325393D02*
X111759085Y-137325393D01*
X111759085Y-138285392D01*
X106818534Y-138285392D01*
X106818534Y-137325393D01*
G36*
X106818534Y-137325393D02*
G01*
X111759085Y-137325393D01*
X111759085Y-138285392D01*
X106818534Y-138285392D01*
X106818534Y-137325393D01*
G37*
D11*
X119199268Y-136566337D02*
G75*
G02*
X112109268Y-136566337I-3545000J0D01*
G01*
X112109268Y-136566337D02*
G75*
G02*
X119199268Y-136566337I3545000J0D01*
G01*
D10*
X123370256Y-120699668D02*
X123621444Y-120936901D01*
X123607489Y-121250886D01*
X123816813Y-121006676D01*
X124123720Y-120895389D01*
X124333044Y-120904692D01*
X124477244Y-121081454D01*
X124556322Y-121234958D01*
X124565625Y-121355900D01*
X124537715Y-121444281D01*
X124444783Y-121585804D01*
X123719128Y-121823037D01*
X123726106Y-122018405D01*
X124551670Y-123156081D01*
X125142527Y-124209323D01*
X125468041Y-124937655D01*
X125693745Y-125674586D01*
X125630848Y-125858678D01*
X125470467Y-125953684D01*
X125226157Y-126007530D01*
X124996001Y-125890887D01*
X124551670Y-124737635D01*
X123977294Y-123623217D01*
X123342346Y-122716150D01*
X122986497Y-122499849D01*
X122904993Y-123086306D01*
X122958587Y-123609263D01*
X123084181Y-124432601D01*
X123230607Y-125426076D01*
X123212001Y-125807510D01*
X123142226Y-126016833D01*
X122965564Y-126086256D01*
X122770096Y-126081956D01*
X122588682Y-126002878D01*
X122484121Y-125883910D01*
X122277023Y-125453986D01*
X122142226Y-124990797D01*
X122100361Y-124397714D01*
X122009654Y-122848721D01*
X122058496Y-121830014D01*
X121242135Y-121843969D01*
X119741985Y-121816059D01*
X119495348Y-121769895D01*
X119197644Y-121723379D01*
X119048792Y-121597785D01*
X118979017Y-121421023D01*
X118965063Y-121221003D01*
X119044140Y-121072150D01*
X119179038Y-120993073D01*
X119267418Y-120900040D01*
X119776872Y-120950856D01*
X120976992Y-121013653D01*
X121702647Y-121139247D01*
X121856151Y-120943879D01*
X122163158Y-120727578D01*
X122525985Y-120971788D01*
X122728331Y-121299728D01*
X122714376Y-120888059D01*
X122937655Y-120664781D01*
X123370256Y-120699668D01*
G36*
X123370256Y-120699668D02*
G01*
X123621444Y-120936901D01*
X123607489Y-121250886D01*
X123816813Y-121006676D01*
X124123720Y-120895389D01*
X124333044Y-120904692D01*
X124477244Y-121081454D01*
X124556322Y-121234958D01*
X124565625Y-121355900D01*
X124537715Y-121444281D01*
X124444783Y-121585804D01*
X123719128Y-121823037D01*
X123726106Y-122018405D01*
X124551670Y-123156081D01*
X125142527Y-124209323D01*
X125468041Y-124937655D01*
X125693745Y-125674586D01*
X125630848Y-125858678D01*
X125470467Y-125953684D01*
X125226157Y-126007530D01*
X124996001Y-125890887D01*
X124551670Y-124737635D01*
X123977294Y-123623217D01*
X123342346Y-122716150D01*
X122986497Y-122499849D01*
X122904993Y-123086306D01*
X122958587Y-123609263D01*
X123084181Y-124432601D01*
X123230607Y-125426076D01*
X123212001Y-125807510D01*
X123142226Y-126016833D01*
X122965564Y-126086256D01*
X122770096Y-126081956D01*
X122588682Y-126002878D01*
X122484121Y-125883910D01*
X122277023Y-125453986D01*
X122142226Y-124990797D01*
X122100361Y-124397714D01*
X122009654Y-122848721D01*
X122058496Y-121830014D01*
X121242135Y-121843969D01*
X119741985Y-121816059D01*
X119495348Y-121769895D01*
X119197644Y-121723379D01*
X119048792Y-121597785D01*
X118979017Y-121421023D01*
X118965063Y-121221003D01*
X119044140Y-121072150D01*
X119179038Y-120993073D01*
X119267418Y-120900040D01*
X119776872Y-120950856D01*
X120976992Y-121013653D01*
X121702647Y-121139247D01*
X121856151Y-120943879D01*
X122163158Y-120727578D01*
X122525985Y-120971788D01*
X122728331Y-121299728D01*
X122714376Y-120888059D01*
X122937655Y-120664781D01*
X123370256Y-120699668D01*
G37*
D12*
G36*
X111763067Y-136363835D02*
G01*
X111757687Y-136593049D01*
X111767372Y-136829796D01*
X111779209Y-136983681D01*
X111807188Y-137175231D01*
X111688815Y-137175231D01*
X111682358Y-136174437D01*
X111681282Y-136165828D01*
X111779209Y-136165828D01*
X111763067Y-136363835D01*
G37*
D13*
X122717908Y-127995973D02*
X123337206Y-128190566D01*
X123662706Y-128430125D01*
X123935602Y-128738167D01*
X124086521Y-129060680D01*
X124134071Y-129420406D01*
X123321587Y-129418338D01*
X123274037Y-129188858D01*
X123185139Y-128996591D01*
X122986669Y-128814660D01*
X122697234Y-128676145D01*
X122701369Y-130569875D01*
X123432967Y-130801904D01*
X123764626Y-131025843D01*
X124010645Y-131240851D01*
X124242350Y-131513603D01*
X124341428Y-131890012D01*
X124360034Y-132253873D01*
X124339360Y-132563982D01*
X124198778Y-132919573D01*
X123996173Y-133186266D01*
X123758423Y-133395073D01*
X123528943Y-133545992D01*
X123279463Y-133676611D01*
X122706121Y-133858169D01*
X122701987Y-134449442D01*
X122224419Y-134449442D01*
X122222352Y-133858169D01*
X121525548Y-133862827D01*
X121516245Y-133253464D01*
X122223292Y-133267419D01*
X122227522Y-131317345D01*
X122699919Y-131317345D01*
X122701987Y-133186266D01*
X122931467Y-133159390D01*
X123136139Y-133068425D01*
X123318069Y-132909236D01*
X123466921Y-132646677D01*
X123516539Y-132396523D01*
X123514471Y-132111223D01*
X123466921Y-131890012D01*
X123340810Y-131685340D01*
X123158880Y-131550960D01*
X122945939Y-131404175D01*
X122699919Y-131317345D01*
X122227522Y-131317345D01*
X122227944Y-131123017D01*
X121511593Y-131104411D01*
X121511593Y-133262767D01*
X121497989Y-133869539D01*
X121498765Y-134445308D01*
X120986052Y-134445308D01*
X120986052Y-133841629D01*
X120558102Y-133703114D01*
X120250061Y-133550127D01*
X119973030Y-133380601D01*
X119753887Y-133188334D01*
X119532676Y-132909236D01*
X119348678Y-132532971D01*
X119243241Y-132119493D01*
X120020580Y-132121560D01*
X120123950Y-132404793D01*
X120285206Y-132716969D01*
X120511341Y-132956161D01*
X120746234Y-133076695D01*
X120999490Y-133139161D01*
X120999490Y-130969176D01*
X120999493Y-130968249D01*
X120480991Y-130805558D01*
X120237039Y-130702188D01*
X120009626Y-130563673D01*
X119877313Y-130447899D01*
X119724326Y-130222553D01*
X119627159Y-130003410D01*
X119576364Y-129767468D01*
X119556867Y-129552719D01*
X119558464Y-129378749D01*
X120295852Y-129378749D01*
X120310324Y-129595825D01*
X120345469Y-129746745D01*
X120525024Y-129943147D01*
X120682145Y-130065123D01*
X120810324Y-130125077D01*
X120998456Y-130149886D01*
X121000110Y-130804845D01*
X121002591Y-130147819D01*
X121000524Y-128578669D01*
X120779313Y-128613815D01*
X120593248Y-128718526D01*
X120440261Y-128923923D01*
X120332756Y-129140274D01*
X120295852Y-129378749D01*
X119558464Y-129378749D01*
X119558935Y-129327373D01*
X119585811Y-129079286D01*
X119667070Y-128867378D01*
X119782213Y-128672010D01*
X119928998Y-128500417D01*
X120148141Y-128304015D01*
X120390026Y-128144825D01*
X120667056Y-128026984D01*
X120970963Y-127938086D01*
X120968895Y-127348880D01*
X121491945Y-127348880D01*
X121494013Y-127867795D01*
X122186381Y-127867228D01*
X122203745Y-128454008D01*
X121454732Y-128454934D01*
X121454223Y-130300605D01*
X122201678Y-130438704D01*
X122205813Y-128464345D01*
X122205195Y-127869862D01*
X122203128Y-127346812D01*
X122715841Y-127344745D01*
X122717908Y-127995973D01*
G36*
X122717908Y-127995973D02*
G01*
X123337206Y-128190566D01*
X123662706Y-128430125D01*
X123935602Y-128738167D01*
X124086521Y-129060680D01*
X124134071Y-129420406D01*
X123321587Y-129418338D01*
X123274037Y-129188858D01*
X123185139Y-128996591D01*
X122986669Y-128814660D01*
X122697234Y-128676145D01*
X122701369Y-130569875D01*
X123432967Y-130801904D01*
X123764626Y-131025843D01*
X124010645Y-131240851D01*
X124242350Y-131513603D01*
X124341428Y-131890012D01*
X124360034Y-132253873D01*
X124339360Y-132563982D01*
X124198778Y-132919573D01*
X123996173Y-133186266D01*
X123758423Y-133395073D01*
X123528943Y-133545992D01*
X123279463Y-133676611D01*
X122706121Y-133858169D01*
X122701987Y-134449442D01*
X122224419Y-134449442D01*
X122222352Y-133858169D01*
X121525548Y-133862827D01*
X121516245Y-133253464D01*
X122223292Y-133267419D01*
X122227522Y-131317345D01*
X122699919Y-131317345D01*
X122701987Y-133186266D01*
X122931467Y-133159390D01*
X123136139Y-133068425D01*
X123318069Y-132909236D01*
X123466921Y-132646677D01*
X123516539Y-132396523D01*
X123514471Y-132111223D01*
X123466921Y-131890012D01*
X123340810Y-131685340D01*
X123158880Y-131550960D01*
X122945939Y-131404175D01*
X122699919Y-131317345D01*
X122227522Y-131317345D01*
X122227944Y-131123017D01*
X121511593Y-131104411D01*
X121511593Y-133262767D01*
X121497989Y-133869539D01*
X121498765Y-134445308D01*
X120986052Y-134445308D01*
X120986052Y-133841629D01*
X120558102Y-133703114D01*
X120250061Y-133550127D01*
X119973030Y-133380601D01*
X119753887Y-133188334D01*
X119532676Y-132909236D01*
X119348678Y-132532971D01*
X119243241Y-132119493D01*
X120020580Y-132121560D01*
X120123950Y-132404793D01*
X120285206Y-132716969D01*
X120511341Y-132956161D01*
X120746234Y-133076695D01*
X120999490Y-133139161D01*
X120999490Y-130969176D01*
X120999493Y-130968249D01*
X120480991Y-130805558D01*
X120237039Y-130702188D01*
X120009626Y-130563673D01*
X119877313Y-130447899D01*
X119724326Y-130222553D01*
X119627159Y-130003410D01*
X119576364Y-129767468D01*
X119556867Y-129552719D01*
X119558464Y-129378749D01*
X120295852Y-129378749D01*
X120310324Y-129595825D01*
X120345469Y-129746745D01*
X120525024Y-129943147D01*
X120682145Y-130065123D01*
X120810324Y-130125077D01*
X120998456Y-130149886D01*
X121000110Y-130804845D01*
X121002591Y-130147819D01*
X121000524Y-128578669D01*
X120779313Y-128613815D01*
X120593248Y-128718526D01*
X120440261Y-128923923D01*
X120332756Y-129140274D01*
X120295852Y-129378749D01*
X119558464Y-129378749D01*
X119558935Y-129327373D01*
X119585811Y-129079286D01*
X119667070Y-128867378D01*
X119782213Y-128672010D01*
X119928998Y-128500417D01*
X120148141Y-128304015D01*
X120390026Y-128144825D01*
X120667056Y-128026984D01*
X120970963Y-127938086D01*
X120968895Y-127348880D01*
X121491945Y-127348880D01*
X121494013Y-127867795D01*
X122186381Y-127867228D01*
X122203745Y-128454008D01*
X121454732Y-128454934D01*
X121454223Y-130300605D01*
X122201678Y-130438704D01*
X122205813Y-128464345D01*
X122205195Y-127869862D01*
X122203128Y-127346812D01*
X122715841Y-127344745D01*
X122717908Y-127995973D01*
G37*
D12*
G36*
X113514884Y-133303843D02*
G01*
X113303083Y-133453218D01*
X113131413Y-133589217D01*
X113061495Y-133654371D01*
X112930121Y-133654371D01*
X112941111Y-132681809D01*
X112941907Y-132681818D01*
X113517113Y-132679588D01*
X113514884Y-133303843D01*
G37*
D10*
X106562687Y-136214319D02*
X111685952Y-136214319D01*
X111685952Y-137126824D01*
X106562687Y-137126824D01*
X106562687Y-136214319D01*
G36*
X106562687Y-136214319D02*
G01*
X111685952Y-136214319D01*
X111685952Y-137126824D01*
X106562687Y-137126824D01*
X106562687Y-136214319D01*
G37*
X107205481Y-130301827D02*
X114461845Y-130301827D01*
X114461845Y-131320051D01*
X107205481Y-131320051D01*
X107205481Y-130301827D01*
G36*
X107205481Y-130301827D02*
G01*
X114461845Y-130301827D01*
X114461845Y-131320051D01*
X107205481Y-131320051D01*
X107205481Y-130301827D01*
G37*
X108852609Y-129104702D02*
X116107944Y-129104702D01*
X116107944Y-130104702D01*
X108852609Y-130104702D01*
X108852609Y-129104702D01*
G36*
X108852609Y-129104702D02*
G01*
X116107944Y-129104702D01*
X116107944Y-130104702D01*
X108852609Y-130104702D01*
X108852609Y-129104702D01*
G37*
G36*
X106219117Y-132683920D02*
G01*
X113018065Y-132683920D01*
X113018065Y-133655512D01*
X106219117Y-133655512D01*
X106219117Y-132683920D01*
G37*
X106490775Y-138485752D02*
X112181326Y-138485752D01*
X112181326Y-139395901D01*
X106490775Y-139395901D01*
X106490775Y-138485752D01*
G36*
X106490775Y-138485752D02*
G01*
X112181326Y-138485752D01*
X112181326Y-139395901D01*
X106490775Y-139395901D01*
X106490775Y-138485752D01*
G37*
D12*
G36*
X112294792Y-138531589D02*
G01*
X112403011Y-138709970D01*
X112554040Y-138924028D01*
X112671772Y-139069112D01*
X112828748Y-139245115D01*
X112960750Y-139377118D01*
X113033519Y-139446175D01*
X112168756Y-139446698D01*
X112179439Y-138450722D01*
X112178250Y-138435263D01*
X112238900Y-138435263D01*
X112294792Y-138531589D01*
G37*
D10*
X106632931Y-131524168D02*
X113884680Y-131524168D01*
X113884680Y-132530413D01*
X106632931Y-132530413D01*
X106632931Y-131524168D01*
G36*
X106632931Y-131524168D02*
G01*
X113884680Y-131524168D01*
X113884680Y-132530413D01*
X106632931Y-132530413D01*
X106632931Y-131524168D01*
G37*
X132243589Y-134959727D02*
X134356187Y-134959727D01*
X134356187Y-137448300D01*
X132243589Y-137448300D01*
X132243589Y-134959727D01*
G36*
X132243589Y-134959727D02*
G01*
X134356187Y-134959727D01*
X134356187Y-137448300D01*
X132243589Y-137448300D01*
X132243589Y-134959727D01*
G37*
X106854975Y-133803562D02*
X112077368Y-133803562D01*
X112077368Y-134845530D01*
X106854975Y-134845530D01*
X106854975Y-133803562D01*
G36*
X106854975Y-133803562D02*
G01*
X112077368Y-133803562D01*
X112077368Y-134845530D01*
X106854975Y-134845530D01*
X106854975Y-133803562D01*
G37*
D12*
G36*
X112087705Y-134995965D02*
G01*
X112008409Y-135186996D01*
X111929834Y-135418396D01*
X111854863Y-135697373D01*
X111823866Y-135850198D01*
X111790705Y-136065017D01*
X111682575Y-136065017D01*
X111698434Y-135011824D01*
X111700597Y-134995244D01*
X112087705Y-134995965D01*
G37*
G36*
X111872880Y-137498012D02*
G01*
X111940191Y-137740875D01*
X112077540Y-138104716D01*
X112186693Y-138334845D01*
X111733711Y-138334845D01*
X111751903Y-137285165D01*
X111755541Y-137275159D01*
X111822852Y-137275159D01*
X111872880Y-137498012D01*
G37*
D10*
X106859504Y-135046034D02*
X111700055Y-135046034D01*
X111700055Y-136015562D01*
X106859504Y-136015562D01*
X106859504Y-135046034D01*
G36*
X106859504Y-135046034D02*
G01*
X111700055Y-135046034D01*
X111700055Y-136015562D01*
X106859504Y-136015562D01*
X106859504Y-135046034D01*
G37*
D14*
X117250200Y-136562988D02*
G75*
G02*
X114060276Y-136562988I-1594962J0D01*
G01*
X114060276Y-136562988D02*
G75*
G02*
X117250200Y-136562988I1594962J0D01*
G01*
D12*
G36*
X112094272Y-133754872D02*
G01*
X112952589Y-133755189D01*
X112787833Y-133923836D01*
X112617889Y-134121024D01*
X112453134Y-134338967D01*
X112244711Y-134673882D01*
X112133316Y-134895929D01*
X112072726Y-134895929D01*
X112090267Y-133753009D01*
X112094272Y-133754872D01*
G37*
D10*
X134050445Y-132090301D02*
X136163043Y-132090301D01*
X136163043Y-134578874D01*
X134050445Y-134578874D01*
X134050445Y-132090301D01*
G36*
X134050445Y-132090301D02*
G01*
X136163043Y-132090301D01*
X136163043Y-134578874D01*
X134050445Y-134578874D01*
X134050445Y-132090301D01*
G37*
D15*
%TO.C,D2*%
X131936853Y-127462943D03*
X134686483Y-125875443D03*
%TD*%
D16*
%TO.C,D3*%
X117258486Y-136577257D03*
X114083486Y-136577257D03*
%TD*%
%TO.C,D1*%
X123497616Y-119328931D03*
X120322616Y-119328931D03*
%TD*%
M02*
