%TF.GenerationSoftware,KiCad,Pcbnew,8.0.8*%
%TF.CreationDate,2025-04-07T01:54:08-03:00*%
%TF.ProjectId,Sao_CashBag,53616f5f-4361-4736-9842-61672e6b6963,rev?*%
%TF.SameCoordinates,Original*%
%TF.FileFunction,Copper,L1,Top*%
%TF.FilePolarity,Positive*%
%FSLAX46Y46*%
G04 Gerber Fmt 4.6, Leading zero omitted, Abs format (unit mm)*
G04 Created by KiCad (PCBNEW 8.0.8) date 2025-04-07 01:54:08*
%MOMM*%
%LPD*%
G01*
G04 APERTURE LIST*
G04 Aperture macros list*
%AMRoundRect*
0 Rectangle with rounded corners*
0 $1 Rounding radius*
0 $2 $3 $4 $5 $6 $7 $8 $9 X,Y pos of 4 corners*
0 Add a 4 corners polygon primitive as box body*
4,1,4,$2,$3,$4,$5,$6,$7,$8,$9,$2,$3,0*
0 Add four circle primitives for the rounded corners*
1,1,$1+$1,$2,$3*
1,1,$1+$1,$4,$5*
1,1,$1+$1,$6,$7*
1,1,$1+$1,$8,$9*
0 Add four rect primitives between the rounded corners*
20,1,$1+$1,$2,$3,$4,$5,0*
20,1,$1+$1,$4,$5,$6,$7,0*
20,1,$1+$1,$6,$7,$8,$9,0*
20,1,$1+$1,$8,$9,$2,$3,0*%
G04 Aperture macros list end*
%TA.AperFunction,NonConductor*%
%ADD10C,0.100000*%
%TD*%
%TA.AperFunction,NonConductor*%
%ADD11C,0.050000*%
%TD*%
%TA.AperFunction,SMDPad,CuDef*%
%ADD12RoundRect,0.285088X-0.074296X-0.926139X0.839208X-0.398727X0.074296X0.926139X-0.839208X0.398727X0*%
%TD*%
%TA.AperFunction,SMDPad,CuDef*%
%ADD13RoundRect,0.285088X0.527412X0.764912X-0.527412X0.764912X-0.527412X-0.764912X0.527412X-0.764912X0*%
%TD*%
%TA.AperFunction,ViaPad*%
%ADD14C,0.600000*%
%TD*%
%TA.AperFunction,Conductor*%
%ADD15C,0.200000*%
%TD*%
G04 APERTURE END LIST*
D10*
X132246656Y-134961955D02*
X134359254Y-134961955D01*
X134359254Y-137450528D01*
X132246656Y-137450528D01*
X132246656Y-134961955D01*
%TA.AperFunction,NonConductor*%
G36*
X132246656Y-134961955D02*
G01*
X134359254Y-134961955D01*
X134359254Y-137450528D01*
X132246656Y-137450528D01*
X132246656Y-134961955D01*
G37*
%TD.AperFunction*%
X134054070Y-132078873D02*
X136166668Y-132078873D01*
X136166668Y-134567446D01*
X134054070Y-134567446D01*
X134054070Y-132078873D01*
%TA.AperFunction,NonConductor*%
G36*
X134054070Y-132078873D02*
G01*
X136166668Y-132078873D01*
X136166668Y-134567446D01*
X134054070Y-134567446D01*
X134054070Y-132078873D01*
G37*
%TD.AperFunction*%
D11*
X122718294Y-127993825D02*
X123337592Y-128188418D01*
X123663092Y-128427977D01*
X123935988Y-128736019D01*
X124086907Y-129058532D01*
X124134457Y-129418258D01*
X123321973Y-129416190D01*
X123274423Y-129186710D01*
X123185525Y-128994443D01*
X122987055Y-128812512D01*
X122697620Y-128673997D01*
X122701755Y-130567727D01*
X123433353Y-130799756D01*
X123765012Y-131023695D01*
X124011031Y-131238703D01*
X124242736Y-131511455D01*
X124341814Y-131887864D01*
X124360420Y-132251725D01*
X124339746Y-132561834D01*
X124199164Y-132917425D01*
X123996559Y-133184118D01*
X123758809Y-133392925D01*
X123529329Y-133543844D01*
X123279849Y-133674463D01*
X122706507Y-133856021D01*
X122702373Y-134447294D01*
X122224805Y-134447294D01*
X122222738Y-133856021D01*
X121525934Y-133860679D01*
X121516631Y-133251316D01*
X122223678Y-133265271D01*
X122227908Y-131315197D01*
X122700305Y-131315197D01*
X122702373Y-133184118D01*
X122931853Y-133157242D01*
X123136525Y-133066277D01*
X123318455Y-132907088D01*
X123467307Y-132644529D01*
X123516925Y-132394375D01*
X123514857Y-132109075D01*
X123467307Y-131887864D01*
X123341196Y-131683192D01*
X123159266Y-131548812D01*
X122946325Y-131402027D01*
X122700305Y-131315197D01*
X122227908Y-131315197D01*
X122228330Y-131120869D01*
X121511979Y-131102263D01*
X121511979Y-133260619D01*
X121498375Y-133867391D01*
X121499151Y-134443160D01*
X120986438Y-134443160D01*
X120986438Y-133839481D01*
X120558488Y-133700966D01*
X120250447Y-133547979D01*
X119973416Y-133378453D01*
X119754273Y-133186186D01*
X119533062Y-132907088D01*
X119349064Y-132530823D01*
X119243627Y-132117345D01*
X120020966Y-132119412D01*
X120124336Y-132402645D01*
X120285592Y-132714821D01*
X120511727Y-132954013D01*
X120746620Y-133074547D01*
X120999876Y-133137013D01*
X120999876Y-130967028D01*
X120999879Y-130966101D01*
X120481377Y-130803410D01*
X120237425Y-130700040D01*
X120010012Y-130561525D01*
X119877699Y-130445751D01*
X119724712Y-130220405D01*
X119627545Y-130001262D01*
X119576750Y-129765320D01*
X119557253Y-129550571D01*
X119558850Y-129376601D01*
X120296238Y-129376601D01*
X120310710Y-129593677D01*
X120345855Y-129744597D01*
X120525410Y-129940999D01*
X120682531Y-130062975D01*
X120810710Y-130122929D01*
X120998842Y-130147738D01*
X121000496Y-130802697D01*
X121002977Y-130145671D01*
X121000910Y-128576521D01*
X120779699Y-128611667D01*
X120593634Y-128716378D01*
X120440647Y-128921775D01*
X120333142Y-129138126D01*
X120296238Y-129376601D01*
X119558850Y-129376601D01*
X119559321Y-129325225D01*
X119586197Y-129077138D01*
X119667456Y-128865230D01*
X119782599Y-128669862D01*
X119929384Y-128498269D01*
X120148527Y-128301867D01*
X120390412Y-128142677D01*
X120667442Y-128024836D01*
X120971349Y-127935938D01*
X120969281Y-127346732D01*
X121492331Y-127346732D01*
X121494399Y-127865647D01*
X122186767Y-127865080D01*
X122204131Y-128451860D01*
X121455118Y-128452786D01*
X121454609Y-130298457D01*
X122202064Y-130436556D01*
X122206199Y-128462197D01*
X122205581Y-127867714D01*
X122203514Y-127344664D01*
X122716227Y-127342597D01*
X122718294Y-127993825D01*
%TA.AperFunction,NonConductor*%
G36*
X122718294Y-127993825D02*
G01*
X123337592Y-128188418D01*
X123663092Y-128427977D01*
X123935988Y-128736019D01*
X124086907Y-129058532D01*
X124134457Y-129418258D01*
X123321973Y-129416190D01*
X123274423Y-129186710D01*
X123185525Y-128994443D01*
X122987055Y-128812512D01*
X122697620Y-128673997D01*
X122701755Y-130567727D01*
X123433353Y-130799756D01*
X123765012Y-131023695D01*
X124011031Y-131238703D01*
X124242736Y-131511455D01*
X124341814Y-131887864D01*
X124360420Y-132251725D01*
X124339746Y-132561834D01*
X124199164Y-132917425D01*
X123996559Y-133184118D01*
X123758809Y-133392925D01*
X123529329Y-133543844D01*
X123279849Y-133674463D01*
X122706507Y-133856021D01*
X122702373Y-134447294D01*
X122224805Y-134447294D01*
X122222738Y-133856021D01*
X121525934Y-133860679D01*
X121516631Y-133251316D01*
X122223678Y-133265271D01*
X122227908Y-131315197D01*
X122700305Y-131315197D01*
X122702373Y-133184118D01*
X122931853Y-133157242D01*
X123136525Y-133066277D01*
X123318455Y-132907088D01*
X123467307Y-132644529D01*
X123516925Y-132394375D01*
X123514857Y-132109075D01*
X123467307Y-131887864D01*
X123341196Y-131683192D01*
X123159266Y-131548812D01*
X122946325Y-131402027D01*
X122700305Y-131315197D01*
X122227908Y-131315197D01*
X122228330Y-131120869D01*
X121511979Y-131102263D01*
X121511979Y-133260619D01*
X121498375Y-133867391D01*
X121499151Y-134443160D01*
X120986438Y-134443160D01*
X120986438Y-133839481D01*
X120558488Y-133700966D01*
X120250447Y-133547979D01*
X119973416Y-133378453D01*
X119754273Y-133186186D01*
X119533062Y-132907088D01*
X119349064Y-132530823D01*
X119243627Y-132117345D01*
X120020966Y-132119412D01*
X120124336Y-132402645D01*
X120285592Y-132714821D01*
X120511727Y-132954013D01*
X120746620Y-133074547D01*
X120999876Y-133137013D01*
X120999876Y-130967028D01*
X120999879Y-130966101D01*
X120481377Y-130803410D01*
X120237425Y-130700040D01*
X120010012Y-130561525D01*
X119877699Y-130445751D01*
X119724712Y-130220405D01*
X119627545Y-130001262D01*
X119576750Y-129765320D01*
X119557253Y-129550571D01*
X119558850Y-129376601D01*
X120296238Y-129376601D01*
X120310710Y-129593677D01*
X120345855Y-129744597D01*
X120525410Y-129940999D01*
X120682531Y-130062975D01*
X120810710Y-130122929D01*
X120998842Y-130147738D01*
X121000496Y-130802697D01*
X121002977Y-130145671D01*
X121000910Y-128576521D01*
X120779699Y-128611667D01*
X120593634Y-128716378D01*
X120440647Y-128921775D01*
X120333142Y-129138126D01*
X120296238Y-129376601D01*
X119558850Y-129376601D01*
X119559321Y-129325225D01*
X119586197Y-129077138D01*
X119667456Y-128865230D01*
X119782599Y-128669862D01*
X119929384Y-128498269D01*
X120148527Y-128301867D01*
X120390412Y-128142677D01*
X120667442Y-128024836D01*
X120971349Y-127935938D01*
X120969281Y-127346732D01*
X121492331Y-127346732D01*
X121494399Y-127865647D01*
X122186767Y-127865080D01*
X122204131Y-128451860D01*
X121455118Y-128452786D01*
X121454609Y-130298457D01*
X122202064Y-130436556D01*
X122206199Y-128462197D01*
X122205581Y-127867714D01*
X122203514Y-127344664D01*
X122716227Y-127342597D01*
X122718294Y-127993825D01*
G37*
%TD.AperFunction*%
D12*
%TO.P,D2,1,K*%
%TO.N,GND*%
X131936853Y-127462943D03*
%TO.P,D2,2,A*%
%TO.N,Net-(D2-A)*%
X134686483Y-125875443D03*
%TD*%
D13*
%TO.P,D3,1,K*%
%TO.N,GND*%
X117258486Y-136577257D03*
%TO.P,D3,2,A*%
%TO.N,Net-(D3-A)*%
X114083486Y-136577257D03*
%TD*%
%TO.P,D1,1,K*%
%TO.N,GND*%
X123497616Y-119328931D03*
%TO.P,D1,2,A*%
%TO.N,Net-(D1-A)*%
X120322616Y-119328931D03*
%TD*%
D14*
%TO.N,GND*%
X132579429Y-125287848D03*
X117150000Y-138350000D03*
X125000000Y-118500000D03*
%TO.N,Net-(D1-A)*%
X118500000Y-118500000D03*
%TO.N,Net-(D2-A)*%
X134102256Y-128066616D03*
%TO.N,Net-(D3-A)*%
X114150000Y-134700000D03*
%TD*%
D15*
%TO.N,GND*%
X117158486Y-138341514D02*
X117158486Y-136552257D01*
X116545986Y-136552257D02*
X116545986Y-137333681D01*
X132579429Y-125287848D02*
X132579429Y-125420571D01*
X123397616Y-119303931D02*
X124196069Y-119303931D01*
X132579429Y-125287848D02*
X132035955Y-125831322D01*
X132035955Y-125831322D02*
X132035955Y-127434594D01*
X117150000Y-138350000D02*
X117158486Y-138341514D01*
X124196069Y-119303931D02*
X125000000Y-118500000D01*
%TO.N,Net-(D1-A)*%
X118500000Y-118500000D02*
X119303931Y-119303931D01*
X119303931Y-119303931D02*
X120422616Y-119303931D01*
%TO.N,Net-(D2-A)*%
X134612381Y-127556491D02*
X134612381Y-125947094D01*
X134102256Y-128066616D02*
X134612381Y-127556491D01*
%TO.N,Net-(D3-A)*%
X114183486Y-134733486D02*
X114183486Y-136552257D01*
X114795986Y-135724041D02*
X114795986Y-136552257D01*
X114150000Y-134700000D02*
X114183486Y-134733486D01*
%TD*%
%TA.AperFunction,NonConductor*%
G36*
X116132660Y-128848665D02*
G01*
X116199632Y-128868567D01*
X116245216Y-128921519D01*
X116256254Y-128972134D01*
X116261264Y-130144402D01*
X116241866Y-130211525D01*
X116189258Y-130257505D01*
X116136844Y-130268931D01*
X114500000Y-130263377D01*
X114499999Y-130263379D01*
X114517663Y-131285663D01*
X114499140Y-131353032D01*
X114447134Y-131399693D01*
X114395030Y-131411798D01*
X113961415Y-131416511D01*
X113961414Y-131416512D01*
X113945048Y-132485786D01*
X113924340Y-132552516D01*
X113870842Y-132597458D01*
X113822834Y-132607875D01*
X113518333Y-132612225D01*
X113518332Y-132612226D01*
X113504947Y-133254716D01*
X113483870Y-133321331D01*
X113451812Y-133353907D01*
X113271461Y-133479435D01*
X113271458Y-133479437D01*
X112972792Y-133735834D01*
X112701590Y-134021139D01*
X112460656Y-134332401D01*
X112252437Y-134666456D01*
X112079089Y-135019848D01*
X112079083Y-135019863D01*
X111942379Y-135388974D01*
X111843712Y-135770049D01*
X111784106Y-136159134D01*
X111764170Y-136552257D01*
X111784106Y-136945379D01*
X111843712Y-137334464D01*
X111942379Y-137715539D01*
X112079083Y-138084650D01*
X112079089Y-138084665D01*
X112252437Y-138438057D01*
X112252438Y-138438058D01*
X112460653Y-138772108D01*
X112701595Y-139083380D01*
X112972792Y-139368679D01*
X113123322Y-139497904D01*
X113161366Y-139556506D01*
X113161688Y-139626375D01*
X113124185Y-139685327D01*
X113060763Y-139714644D01*
X113043236Y-139715987D01*
X106295452Y-139753269D01*
X106228305Y-139733955D01*
X106182259Y-139681405D01*
X106170768Y-139629800D01*
X106141017Y-132628780D01*
X106160417Y-132561660D01*
X106213026Y-132515682D01*
X106240693Y-132506665D01*
X106251553Y-132504493D01*
X106278125Y-132502107D01*
X106282890Y-132502194D01*
X106293189Y-132498145D01*
X106314236Y-132491956D01*
X106325088Y-132489787D01*
X106329040Y-132487139D01*
X106352690Y-132474757D01*
X106357124Y-132473015D01*
X106365091Y-132465332D01*
X106382164Y-132451562D01*
X106391362Y-132445403D01*
X106394004Y-132441439D01*
X106411109Y-132420956D01*
X106414542Y-132417647D01*
X106418961Y-132407501D01*
X106429472Y-132388238D01*
X106429484Y-132388220D01*
X106435608Y-132379035D01*
X106436533Y-132374353D01*
X106444495Y-132348896D01*
X106446401Y-132344522D01*
X106446602Y-132333449D01*
X106448938Y-132311646D01*
X106451087Y-132300788D01*
X106450152Y-132296114D01*
X106447763Y-132269550D01*
X106461818Y-131496574D01*
X106482719Y-131429905D01*
X106536346Y-131385118D01*
X106585798Y-131374830D01*
X106881245Y-131374830D01*
X106881686Y-131374831D01*
X106920861Y-131374970D01*
X106920861Y-131374969D01*
X106920863Y-131374970D01*
X106920864Y-131374969D01*
X106921025Y-131374938D01*
X106921450Y-131374854D01*
X106921571Y-131374830D01*
X106921574Y-131374830D01*
X106958157Y-131359676D01*
X106958218Y-131359651D01*
X106994664Y-131344707D01*
X106994861Y-131344576D01*
X106995060Y-131344443D01*
X106995260Y-131344308D01*
X106995266Y-131344306D01*
X107009221Y-131330350D01*
X107023176Y-131316396D01*
X107023491Y-131316082D01*
X107026328Y-131313265D01*
X107051265Y-131288506D01*
X107051266Y-131288502D01*
X107051281Y-131288482D01*
X107051424Y-131288269D01*
X107051666Y-131287908D01*
X107052953Y-131284801D01*
X107066786Y-131251405D01*
X107082049Y-131214922D01*
X107082049Y-131214919D01*
X107082050Y-131214917D01*
X107082124Y-131214550D01*
X107082192Y-131214213D01*
X107082192Y-131174720D01*
X107082193Y-131174281D01*
X107082795Y-131004354D01*
X107085681Y-130189599D01*
X107105603Y-130122632D01*
X107158568Y-130077065D01*
X107209240Y-130066042D01*
X108554822Y-130061278D01*
X108555500Y-130061278D01*
X108594078Y-130061482D01*
X108594078Y-130061481D01*
X108594111Y-130061482D01*
X108594430Y-130061418D01*
X108595476Y-130061211D01*
X108595810Y-130061146D01*
X108595841Y-130061133D01*
X108595843Y-130061133D01*
X108631399Y-130046256D01*
X108632285Y-130045890D01*
X108667930Y-130031346D01*
X108667931Y-130031344D01*
X108667967Y-130031330D01*
X108668277Y-130031122D01*
X108669144Y-130030543D01*
X108669403Y-130030371D01*
X108669425Y-130030348D01*
X108669427Y-130030348D01*
X108696598Y-130002981D01*
X108697169Y-130002411D01*
X108724628Y-129975242D01*
X108724628Y-129975241D01*
X108724648Y-129975222D01*
X108724840Y-129974933D01*
X108725378Y-129974130D01*
X108725616Y-129973776D01*
X108725627Y-129973747D01*
X108725629Y-129973746D01*
X108733921Y-129953522D01*
X108740215Y-129938175D01*
X108740635Y-129937161D01*
X108755539Y-129901712D01*
X108755539Y-129901709D01*
X108755553Y-129901676D01*
X108755642Y-129901224D01*
X108755836Y-129900253D01*
X108755892Y-129899975D01*
X108755755Y-129861381D01*
X108755756Y-129860286D01*
X108755933Y-129826829D01*
X108759900Y-129073070D01*
X108779937Y-129006136D01*
X108832981Y-128960660D01*
X108884020Y-128949724D01*
X114470323Y-128955250D01*
X114475566Y-128955367D01*
X114504879Y-128956646D01*
X114508523Y-128956805D01*
X114508523Y-128956804D01*
X114508524Y-128956805D01*
X114508524Y-128956804D01*
X114508843Y-128956756D01*
X114510280Y-128956646D01*
X114515396Y-128955746D01*
X114516782Y-128955359D01*
X114517093Y-128955296D01*
X114517101Y-128955297D01*
X114547631Y-128942685D01*
X114552419Y-128940826D01*
X114583476Y-128929522D01*
X114583480Y-128929517D01*
X114583748Y-128929356D01*
X114585037Y-128928703D01*
X114589429Y-128925907D01*
X114590559Y-128925022D01*
X114590821Y-128924847D01*
X114590821Y-128924846D01*
X114590823Y-128924846D01*
X114614194Y-128901519D01*
X114617951Y-128897927D01*
X114641138Y-128876678D01*
X114703861Y-128845900D01*
X114725295Y-128844102D01*
X116132660Y-128848665D01*
G37*
%TD.AperFunction*%
%TA.AperFunction,NonConductor*%
G36*
X115852396Y-132744171D02*
G01*
X116224540Y-132782014D01*
X116236928Y-132783911D01*
X116603341Y-132859211D01*
X116615499Y-132862360D01*
X116972383Y-132974333D01*
X116984162Y-132978695D01*
X117327909Y-133126208D01*
X117339176Y-133131735D01*
X117666223Y-133313261D01*
X117676881Y-133319904D01*
X117983899Y-133533595D01*
X117993820Y-133541274D01*
X118277636Y-133784922D01*
X118286737Y-133793573D01*
X118403814Y-133916738D01*
X118544447Y-134064684D01*
X118552629Y-134074215D01*
X118781582Y-134369998D01*
X118788758Y-134380308D01*
X118986619Y-134697747D01*
X118992715Y-134708729D01*
X119157445Y-135044555D01*
X119162398Y-135056098D01*
X119292303Y-135406851D01*
X119296063Y-135418836D01*
X119389823Y-135780955D01*
X119392352Y-135793259D01*
X119448992Y-136162986D01*
X119450263Y-136175483D01*
X119469208Y-136549054D01*
X119469208Y-136561614D01*
X119450263Y-136935184D01*
X119448992Y-136947681D01*
X119392352Y-137317408D01*
X119389823Y-137329712D01*
X119296063Y-137691831D01*
X119292303Y-137703816D01*
X119162398Y-138054569D01*
X119157445Y-138066112D01*
X118992715Y-138401938D01*
X118986619Y-138412920D01*
X118788758Y-138730359D01*
X118781582Y-138740669D01*
X118552629Y-139036452D01*
X118544447Y-139045983D01*
X118286740Y-139317091D01*
X118277636Y-139325745D01*
X117993826Y-139569388D01*
X117983893Y-139577077D01*
X117676883Y-139790762D01*
X117666223Y-139797406D01*
X117339181Y-139978929D01*
X117327904Y-139984461D01*
X116984162Y-140131972D01*
X116972383Y-140136334D01*
X116615499Y-140248307D01*
X116603339Y-140251456D01*
X116236942Y-140326753D01*
X116224526Y-140328655D01*
X115852396Y-140366497D01*
X115839851Y-140367133D01*
X115465807Y-140367133D01*
X115453262Y-140366497D01*
X115081131Y-140328655D01*
X115068715Y-140326753D01*
X114702318Y-140251456D01*
X114690158Y-140248307D01*
X114333274Y-140136334D01*
X114321495Y-140131972D01*
X113977753Y-139984461D01*
X113966476Y-139978929D01*
X113639434Y-139797406D01*
X113628774Y-139790762D01*
X113321764Y-139577077D01*
X113311831Y-139569388D01*
X113219336Y-139489984D01*
X113028018Y-139325742D01*
X113018917Y-139317091D01*
X113007007Y-139304562D01*
X112761210Y-139045983D01*
X112753028Y-139036452D01*
X112524075Y-138740669D01*
X112516899Y-138730359D01*
X112319038Y-138412920D01*
X112312942Y-138401938D01*
X112148212Y-138066112D01*
X112143259Y-138054569D01*
X112104540Y-137950025D01*
X112013352Y-137703811D01*
X112009594Y-137691831D01*
X111915834Y-137329712D01*
X111913308Y-137317423D01*
X111856663Y-136947670D01*
X111855395Y-136935195D01*
X111836449Y-136561604D01*
X111836449Y-136555331D01*
X112331260Y-136555331D01*
X112331260Y-136555336D01*
X112350731Y-136914456D01*
X112350732Y-136914473D01*
X112408913Y-137269360D01*
X112408918Y-137269381D01*
X112425669Y-137329712D01*
X112505134Y-137615916D01*
X112505136Y-137615922D01*
X112505139Y-137615930D01*
X112638250Y-137950015D01*
X112638259Y-137950033D01*
X112806722Y-138267787D01*
X112806723Y-138267790D01*
X113008549Y-138565460D01*
X113008557Y-138565470D01*
X113157373Y-138740669D01*
X113241385Y-138839575D01*
X113502491Y-139086908D01*
X113788807Y-139304560D01*
X113788815Y-139304565D01*
X113788827Y-139304573D01*
X114096973Y-139489977D01*
X114096978Y-139489980D01*
X114096982Y-139489981D01*
X114096986Y-139489984D01*
X114285235Y-139577077D01*
X114423390Y-139640994D01*
X114764215Y-139755832D01*
X115115459Y-139833146D01*
X115473003Y-139872032D01*
X115832650Y-139872032D01*
X115832655Y-139872032D01*
X116190199Y-139833146D01*
X116541443Y-139755832D01*
X116882268Y-139640994D01*
X117208680Y-139489980D01*
X117399511Y-139375160D01*
X117516830Y-139304573D01*
X117516834Y-139304570D01*
X117516851Y-139304560D01*
X117803167Y-139086908D01*
X118064273Y-138839575D01*
X118297107Y-138565462D01*
X118498939Y-138267782D01*
X118667403Y-137950025D01*
X118800524Y-137615916D01*
X118896742Y-137269373D01*
X118950500Y-136941463D01*
X118954925Y-136914473D01*
X118954925Y-136914470D01*
X118954927Y-136914459D01*
X118974398Y-136555334D01*
X118954927Y-136196209D01*
X118951529Y-136175483D01*
X118896744Y-135841307D01*
X118896743Y-135841306D01*
X118896742Y-135841295D01*
X118800524Y-135494752D01*
X118770276Y-135418836D01*
X118667407Y-135160652D01*
X118667398Y-135160634D01*
X118498939Y-134842886D01*
X118498935Y-134842880D01*
X118498934Y-134842877D01*
X118297108Y-134545207D01*
X118297100Y-134545197D01*
X118064273Y-134271093D01*
X117803167Y-134023760D01*
X117803160Y-134023754D01*
X117803157Y-134023752D01*
X117708080Y-133951476D01*
X117516851Y-133806108D01*
X117516845Y-133806104D01*
X117516830Y-133806094D01*
X117208684Y-133620690D01*
X117208671Y-133620683D01*
X116882278Y-133469678D01*
X116882273Y-133469676D01*
X116882268Y-133469674D01*
X116716137Y-133413697D01*
X116541442Y-133354835D01*
X116190197Y-133277521D01*
X115832656Y-133238636D01*
X115832655Y-133238636D01*
X115473003Y-133238636D01*
X115473001Y-133238636D01*
X115115460Y-133277521D01*
X114764215Y-133354835D01*
X114500745Y-133443609D01*
X114423390Y-133469674D01*
X114423387Y-133469675D01*
X114423379Y-133469678D01*
X114096986Y-133620683D01*
X114096973Y-133620690D01*
X113788827Y-133806094D01*
X113788811Y-133806105D01*
X113502500Y-134023752D01*
X113502491Y-134023760D01*
X113241384Y-134271093D01*
X113008557Y-134545197D01*
X113008549Y-134545207D01*
X112806723Y-134842877D01*
X112806722Y-134842880D01*
X112638259Y-135160634D01*
X112638250Y-135160652D01*
X112505139Y-135494737D01*
X112505132Y-135494759D01*
X112408918Y-135841286D01*
X112408913Y-135841307D01*
X112350732Y-136196194D01*
X112350731Y-136196211D01*
X112331260Y-136555331D01*
X111836449Y-136555331D01*
X111836449Y-136549054D01*
X111854343Y-136196211D01*
X111855395Y-136175470D01*
X111856663Y-136162999D01*
X111913308Y-135793240D01*
X111915834Y-135780955D01*
X112009594Y-135418836D01*
X112013350Y-135406861D01*
X112143262Y-135056089D01*
X112148208Y-135044563D01*
X112312946Y-134708721D01*
X112319038Y-134697747D01*
X112414117Y-134545207D01*
X112516904Y-134380300D01*
X112524063Y-134370013D01*
X112753034Y-134074207D01*
X112761203Y-134064691D01*
X113018929Y-133793563D01*
X113028007Y-133784934D01*
X113311846Y-133541266D01*
X113321748Y-133533602D01*
X113628784Y-133319898D01*
X113639423Y-133313267D01*
X113966489Y-133131731D01*
X113977740Y-133126211D01*
X114321499Y-132978693D01*
X114333269Y-132974334D01*
X114690165Y-132862358D01*
X114702311Y-132859212D01*
X115068732Y-132783911D01*
X115081114Y-132782014D01*
X115453262Y-132744171D01*
X115465807Y-132743535D01*
X115839851Y-132743535D01*
X115852396Y-132744171D01*
G37*
%TD.AperFunction*%
M02*
