G04 EAGLE Gerber RS-274X export*
G75*
%MOMM*%
%FSLAX34Y34*%
%LPD*%
%INBottom Copper*%
%IPPOS*%
%AMOC8*
5,1,8,0,0,1.08239X$1,22.5*%
G01*
%ADD10P,1.429621X8X337.500000*%
%ADD11P,1.429621X8X77.500000*%
%ADD12C,1.524000*%
%ADD13P,1.649562X8X247.500000*%
%ADD14C,0.609600*%

G36*
X179495Y56690D02*
X179495Y56690D01*
X179606Y56687D01*
X179687Y56701D01*
X179731Y56703D01*
X179772Y56715D01*
X179847Y56728D01*
X183011Y57535D01*
X183012Y57535D01*
X183164Y57593D01*
X183337Y57659D01*
X183545Y57789D01*
X204364Y73290D01*
X204381Y73306D01*
X204412Y73327D01*
X213732Y80866D01*
X213747Y80881D01*
X213764Y80893D01*
X213937Y81066D01*
X239832Y111670D01*
X239911Y111789D01*
X239996Y111905D01*
X240012Y111939D01*
X240025Y111960D01*
X240042Y112006D01*
X240077Y112081D01*
X241284Y113387D01*
X241299Y113408D01*
X241327Y113437D01*
X242480Y114799D01*
X242552Y114848D01*
X242675Y114922D01*
X242702Y114948D01*
X242723Y114962D01*
X242757Y114998D01*
X242817Y115054D01*
X244432Y115799D01*
X244454Y115813D01*
X244492Y115828D01*
X246077Y116645D01*
X246163Y116663D01*
X246304Y116685D01*
X246340Y116698D01*
X246363Y116703D01*
X246409Y116723D01*
X246534Y116769D01*
X302608Y142650D01*
X302753Y142738D01*
X302901Y142828D01*
X302903Y142830D01*
X302905Y142831D01*
X303024Y142948D01*
X303151Y143071D01*
X303152Y143073D01*
X303154Y143075D01*
X303247Y143221D01*
X303338Y143364D01*
X303339Y143367D01*
X303341Y143369D01*
X303395Y143526D01*
X303454Y143693D01*
X303455Y143696D01*
X303456Y143699D01*
X303473Y143862D01*
X303493Y144039D01*
X303492Y144043D01*
X303493Y144045D01*
X303491Y144056D01*
X303472Y144283D01*
X302686Y148997D01*
X302657Y149097D01*
X302638Y149201D01*
X302603Y149287D01*
X302590Y149332D01*
X302571Y149365D01*
X302546Y149427D01*
X278180Y198159D01*
X278154Y198199D01*
X278110Y198286D01*
X254264Y236439D01*
X254258Y236446D01*
X254254Y236454D01*
X254150Y236582D01*
X254046Y236711D01*
X254040Y236717D01*
X254034Y236723D01*
X253846Y236879D01*
X206041Y270343D01*
X206002Y270364D01*
X205968Y270391D01*
X205750Y270502D01*
X205064Y270786D01*
X204359Y271492D01*
X204350Y271499D01*
X204344Y271507D01*
X204155Y271663D01*
X203337Y272235D01*
X202939Y272861D01*
X202911Y272895D01*
X202890Y272933D01*
X202731Y273119D01*
X182405Y293446D01*
X182297Y293531D01*
X182193Y293622D01*
X182161Y293640D01*
X182132Y293662D01*
X182007Y293721D01*
X181885Y293786D01*
X181850Y293795D01*
X181817Y293811D01*
X181682Y293840D01*
X181548Y293876D01*
X181512Y293877D01*
X181476Y293884D01*
X181338Y293882D01*
X181200Y293886D01*
X181156Y293879D01*
X181128Y293878D01*
X181079Y293866D01*
X180959Y293846D01*
X167617Y290511D01*
X167575Y290495D01*
X167530Y290486D01*
X167412Y290434D01*
X167291Y290388D01*
X167253Y290363D01*
X167211Y290344D01*
X167012Y290203D01*
X140136Y267807D01*
X140041Y267707D01*
X139941Y267612D01*
X139915Y267575D01*
X139896Y267555D01*
X139871Y267512D01*
X139800Y267412D01*
X108125Y213807D01*
X108104Y213762D01*
X108050Y213663D01*
X107602Y212679D01*
X107470Y212391D01*
X107223Y212160D01*
X107161Y212088D01*
X107092Y212022D01*
X107029Y211933D01*
X106998Y211895D01*
X106983Y211866D01*
X106951Y211822D01*
X106779Y211531D01*
X105662Y210691D01*
X105626Y210657D01*
X105537Y210587D01*
X74570Y181684D01*
X74560Y181672D01*
X74548Y181663D01*
X74447Y181540D01*
X74344Y181418D01*
X74337Y181405D01*
X74327Y181393D01*
X74257Y181249D01*
X74184Y181109D01*
X74181Y181094D01*
X74174Y181080D01*
X74138Y180925D01*
X74099Y180771D01*
X74099Y180756D01*
X74096Y180741D01*
X74096Y180580D01*
X74093Y180422D01*
X74096Y180407D01*
X74096Y180392D01*
X74133Y180238D01*
X74166Y180082D01*
X74173Y180068D01*
X74176Y180053D01*
X74278Y179830D01*
X82448Y165125D01*
X82459Y165108D01*
X82473Y165081D01*
X83434Y163478D01*
X83437Y163469D01*
X83472Y163322D01*
X83483Y163296D01*
X83488Y163278D01*
X83510Y163237D01*
X83521Y163214D01*
X83732Y161373D01*
X83737Y161353D01*
X83739Y161322D01*
X84014Y159475D01*
X84013Y159465D01*
X83988Y159316D01*
X83989Y159288D01*
X83987Y159269D01*
X83991Y159223D01*
X83992Y159197D01*
X83483Y157416D01*
X83480Y157396D01*
X83470Y157367D01*
X80459Y145323D01*
X80443Y145201D01*
X80419Y145080D01*
X80421Y145029D01*
X80414Y144977D01*
X80426Y144855D01*
X80430Y144732D01*
X80443Y144682D01*
X80448Y144630D01*
X80488Y144514D01*
X80520Y144395D01*
X80544Y144350D01*
X80561Y144301D01*
X80626Y144196D01*
X80683Y144088D01*
X80718Y144049D01*
X80745Y144005D01*
X80832Y143918D01*
X80913Y143825D01*
X80965Y143785D01*
X80992Y143759D01*
X81032Y143734D01*
X81107Y143676D01*
X123780Y115939D01*
X123828Y115915D01*
X123872Y115883D01*
X124086Y115786D01*
X124092Y115784D01*
X124093Y115783D01*
X124095Y115782D01*
X124719Y115558D01*
X125515Y114834D01*
X125516Y114834D01*
X125516Y114833D01*
X125710Y114684D01*
X126612Y114098D01*
X126988Y113550D01*
X127023Y113510D01*
X127052Y113464D01*
X127213Y113292D01*
X127217Y113288D01*
X127218Y113287D01*
X127219Y113285D01*
X153325Y89553D01*
X153344Y89539D01*
X153360Y89522D01*
X153558Y89379D01*
X154326Y88911D01*
X154823Y88232D01*
X154844Y88210D01*
X154861Y88183D01*
X155028Y88005D01*
X155650Y87439D01*
X156034Y86625D01*
X156046Y86605D01*
X156054Y86583D01*
X156182Y86375D01*
X176897Y58066D01*
X176914Y58048D01*
X176928Y58026D01*
X177033Y57920D01*
X177134Y57811D01*
X177155Y57796D01*
X177173Y57778D01*
X177375Y57641D01*
X178719Y56879D01*
X178822Y56835D01*
X178920Y56784D01*
X178982Y56768D01*
X179040Y56743D01*
X179150Y56724D01*
X179257Y56696D01*
X179321Y56694D01*
X179384Y56683D01*
X179495Y56690D01*
G37*
%LPC*%
G36*
X128542Y119776D02*
X128542Y119776D01*
X127372Y126407D01*
X131114Y131751D01*
X131193Y131898D01*
X131275Y132046D01*
X131277Y132052D01*
X131280Y132058D01*
X131323Y132216D01*
X131370Y132381D01*
X131371Y132389D01*
X131372Y132394D01*
X131373Y132416D01*
X131390Y132625D01*
X131390Y229508D01*
X132086Y231189D01*
X133586Y232690D01*
X157959Y257062D01*
X158037Y257161D01*
X158122Y257255D01*
X158145Y257297D01*
X158175Y257335D01*
X158229Y257449D01*
X158291Y257560D01*
X158304Y257607D01*
X158324Y257650D01*
X158351Y257774D01*
X158385Y257896D01*
X158390Y257956D01*
X158398Y257991D01*
X158397Y258039D01*
X158405Y258139D01*
X158405Y262537D01*
X163167Y267299D01*
X169901Y267299D01*
X174662Y262537D01*
X174662Y255803D01*
X169901Y251042D01*
X165503Y251042D01*
X165377Y251027D01*
X165251Y251021D01*
X165205Y251007D01*
X165157Y251002D01*
X165038Y250959D01*
X164916Y250924D01*
X164874Y250900D01*
X164828Y250884D01*
X164722Y250816D01*
X164612Y250754D01*
X164566Y250715D01*
X164536Y250695D01*
X164502Y250660D01*
X164426Y250595D01*
X140981Y227151D01*
X140903Y227052D01*
X140818Y226958D01*
X140795Y226916D01*
X140765Y226878D01*
X140711Y226764D01*
X140649Y226653D01*
X140636Y226606D01*
X140616Y226563D01*
X140589Y226439D01*
X140555Y226318D01*
X140550Y226257D01*
X140542Y226222D01*
X140543Y226174D01*
X140535Y226074D01*
X140535Y132017D01*
X140545Y131933D01*
X140545Y131848D01*
X140565Y131761D01*
X140575Y131671D01*
X140604Y131591D01*
X140623Y131509D01*
X140662Y131428D01*
X140692Y131343D01*
X140739Y131272D01*
X140776Y131196D01*
X140833Y131126D01*
X140881Y131050D01*
X140943Y130991D01*
X140996Y130926D01*
X141096Y130843D01*
X141132Y130808D01*
X141154Y130795D01*
X141185Y130770D01*
X143383Y129230D01*
X144552Y122599D01*
X140690Y117083D01*
X134058Y115913D01*
X128542Y119776D01*
G37*
%LPD*%
%LPC*%
G36*
X153421Y102525D02*
X153421Y102525D01*
X148065Y107882D01*
X148065Y115458D01*
X151298Y118691D01*
X151376Y118790D01*
X151461Y118883D01*
X151484Y118926D01*
X151514Y118964D01*
X151568Y119078D01*
X151629Y119189D01*
X151642Y119235D01*
X151663Y119279D01*
X151690Y119402D01*
X151724Y119524D01*
X151729Y119585D01*
X151736Y119619D01*
X151736Y119667D01*
X151744Y119768D01*
X151744Y170717D01*
X152440Y172398D01*
X153940Y173898D01*
X185691Y205649D01*
X185744Y205715D01*
X185804Y205775D01*
X185852Y205851D01*
X185907Y205922D01*
X185944Y205999D01*
X185989Y206071D01*
X186018Y206156D01*
X186056Y206237D01*
X186074Y206320D01*
X186102Y206400D01*
X186111Y206490D01*
X186130Y206578D01*
X186128Y206662D01*
X186137Y206747D01*
X186125Y206876D01*
X186124Y206926D01*
X186118Y206951D01*
X186114Y206990D01*
X185648Y209633D01*
X189510Y215149D01*
X196142Y216319D01*
X201658Y212456D01*
X202828Y205825D01*
X198965Y200308D01*
X192541Y199176D01*
X192381Y199128D01*
X192219Y199081D01*
X192213Y199078D01*
X192207Y199076D01*
X192062Y198993D01*
X191914Y198911D01*
X191909Y198906D01*
X191904Y198903D01*
X191887Y198888D01*
X191728Y198753D01*
X161335Y168360D01*
X161257Y168261D01*
X161172Y168167D01*
X161149Y168125D01*
X161119Y168087D01*
X161065Y167973D01*
X161004Y167862D01*
X160990Y167815D01*
X160970Y167772D01*
X160943Y167648D01*
X160909Y167526D01*
X160904Y167466D01*
X160896Y167431D01*
X160897Y167383D01*
X160889Y167283D01*
X160889Y121553D01*
X160904Y121428D01*
X160910Y121302D01*
X160924Y121255D01*
X160929Y121207D01*
X160972Y121088D01*
X161007Y120967D01*
X161030Y120925D01*
X161047Y120879D01*
X161115Y120773D01*
X161177Y120662D01*
X161216Y120616D01*
X161236Y120586D01*
X161270Y120553D01*
X161335Y120476D01*
X166354Y115458D01*
X166354Y107882D01*
X160997Y102525D01*
X153421Y102525D01*
G37*
%LPD*%
%LPC*%
G36*
X207303Y120486D02*
X207303Y120486D01*
X201946Y125842D01*
X201946Y133418D01*
X207303Y138775D01*
X214879Y138775D01*
X220235Y133418D01*
X220235Y125842D01*
X214879Y120486D01*
X207303Y120486D01*
G37*
%LPD*%
%LPC*%
G36*
X171382Y120486D02*
X171382Y120486D01*
X166025Y125842D01*
X166025Y133418D01*
X171382Y138775D01*
X178958Y138775D01*
X184314Y133418D01*
X184314Y125842D01*
X178958Y120486D01*
X171382Y120486D01*
G37*
%LPD*%
%LPC*%
G36*
X189342Y102525D02*
X189342Y102525D01*
X183986Y107882D01*
X183986Y115458D01*
X189342Y120814D01*
X196918Y120814D01*
X202275Y115458D01*
X202275Y107882D01*
X196918Y102525D01*
X189342Y102525D01*
G37*
%LPD*%
%LPC*%
G36*
X191311Y138446D02*
X191311Y138446D01*
X187950Y139838D01*
X185378Y142411D01*
X183986Y145772D01*
X183986Y149410D01*
X185378Y152771D01*
X187950Y155343D01*
X191311Y156735D01*
X194949Y156735D01*
X198310Y155343D01*
X200883Y152771D01*
X202275Y149410D01*
X202275Y145772D01*
X200883Y142411D01*
X198310Y139838D01*
X194949Y138446D01*
X191311Y138446D01*
G37*
%LPD*%
%LPC*%
G36*
X169781Y102689D02*
X169781Y102689D01*
X170961Y103870D01*
X179378Y103870D01*
X180559Y102689D01*
X175170Y97300D01*
X169781Y102689D01*
G37*
%LPD*%
%LPC*%
G36*
X178761Y93709D02*
X178761Y93709D01*
X184150Y99098D01*
X185330Y97918D01*
X185330Y89500D01*
X184150Y88320D01*
X178761Y93709D01*
G37*
%LPD*%
%LPC*%
G36*
X165009Y89500D02*
X165009Y89500D01*
X165009Y97918D01*
X166189Y99098D01*
X171579Y93709D01*
X166189Y88320D01*
X165009Y89500D01*
G37*
%LPD*%
%LPC*%
G36*
X170961Y83549D02*
X170961Y83549D01*
X169781Y84729D01*
X175170Y90118D01*
X180559Y84729D01*
X179378Y83549D01*
X170961Y83549D01*
G37*
%LPD*%
%LPC*%
G36*
X179464Y249112D02*
X179464Y249112D01*
X180706Y250354D01*
X188282Y250354D01*
X189524Y249112D01*
X184494Y244082D01*
X179464Y249112D01*
G37*
%LPD*%
%LPC*%
G36*
X187367Y241210D02*
X187367Y241210D01*
X192397Y246240D01*
X193639Y244998D01*
X193639Y237422D01*
X192397Y236180D01*
X187367Y241210D01*
G37*
%LPD*%
%LPC*%
G36*
X175350Y237422D02*
X175350Y237422D01*
X175350Y244998D01*
X176592Y246240D01*
X181622Y241210D01*
X176592Y236180D01*
X175350Y237422D01*
G37*
%LPD*%
%LPC*%
G36*
X180706Y232065D02*
X180706Y232065D01*
X179464Y233307D01*
X184494Y238337D01*
X189524Y233307D01*
X188282Y232065D01*
X180706Y232065D01*
G37*
%LPD*%
D10*
X166534Y259170D03*
X184494Y241210D03*
D11*
X135962Y124503D03*
X194238Y207729D03*
D12*
X193130Y147591D03*
D13*
X175170Y129630D03*
X157209Y111670D03*
X211091Y129630D03*
X193130Y111670D03*
X175170Y93709D03*
D14*
X135962Y228599D02*
X166534Y259170D01*
X135962Y228599D02*
X135962Y124503D01*
X156316Y169808D02*
X194238Y207729D01*
X156316Y169808D02*
X156316Y112563D01*
X157209Y111670D01*
M02*
