G04 EAGLE Gerber RS-274X export*
G75*
%MOMM*%
%FSLAX34Y34*%
%LPD*%
%INSilkscreen Bottom*%
%IPPOS*%
%AMOC8*
5,1,8,0,0,1.08239X$1,22.5*%
G01*
%ADD10C,0.101600*%
%ADD11C,0.152400*%
%ADD12C,0.609600*%
%ADD13R,0.863600X0.609600*%
%ADD14C,0.127000*%
%ADD15R,0.508000X0.508000*%
%ADD16C,0.076200*%


D10*
X284666Y132774D02*
X295665Y139124D01*
X281138Y138884D01*
X292137Y145234D01*
X286231Y148407D02*
X281343Y145585D01*
X286232Y148407D02*
X286333Y148467D01*
X286432Y148531D01*
X286529Y148599D01*
X286623Y148669D01*
X286716Y148743D01*
X286805Y148819D01*
X286892Y148899D01*
X286977Y148981D01*
X287058Y149066D01*
X287137Y149154D01*
X287212Y149245D01*
X287285Y149338D01*
X287354Y149433D01*
X287420Y149531D01*
X287483Y149630D01*
X287543Y149732D01*
X287599Y149836D01*
X287651Y149941D01*
X287701Y150049D01*
X287746Y150157D01*
X287788Y150268D01*
X287826Y150379D01*
X287860Y150492D01*
X287891Y150606D01*
X287917Y150721D01*
X287940Y150836D01*
X287959Y150953D01*
X287974Y151070D01*
X287985Y151187D01*
X287992Y151305D01*
X287996Y151423D01*
X287995Y151541D01*
X287991Y151658D01*
X287982Y151776D01*
X287970Y151893D01*
X287953Y152010D01*
X287933Y152126D01*
X287909Y152242D01*
X287881Y152356D01*
X287849Y152470D01*
X287813Y152582D01*
X287774Y152693D01*
X287731Y152803D01*
X287685Y152911D01*
X287634Y153018D01*
X287581Y153123D01*
X287523Y153226D01*
X287463Y153327D01*
X287399Y153426D01*
X287331Y153523D01*
X287261Y153617D01*
X287187Y153710D01*
X287111Y153799D01*
X287031Y153886D01*
X286949Y153971D01*
X286864Y154052D01*
X286776Y154131D01*
X286685Y154206D01*
X286592Y154279D01*
X286497Y154348D01*
X286399Y154414D01*
X286300Y154477D01*
X286198Y154537D01*
X286094Y154593D01*
X285989Y154645D01*
X285881Y154695D01*
X285773Y154740D01*
X285662Y154782D01*
X285551Y154820D01*
X285438Y154854D01*
X285324Y154885D01*
X285209Y154911D01*
X285094Y154934D01*
X284977Y154953D01*
X284860Y154968D01*
X284743Y154979D01*
X284625Y154986D01*
X284507Y154990D01*
X284389Y154989D01*
X284272Y154985D01*
X284154Y154976D01*
X284037Y154964D01*
X283920Y154947D01*
X283804Y154927D01*
X283688Y154903D01*
X283574Y154875D01*
X283460Y154843D01*
X283348Y154807D01*
X283237Y154768D01*
X283127Y154725D01*
X283019Y154679D01*
X282912Y154628D01*
X282807Y154575D01*
X282704Y154517D01*
X277815Y151695D01*
X277714Y151635D01*
X277615Y151571D01*
X277518Y151503D01*
X277424Y151433D01*
X277331Y151359D01*
X277242Y151283D01*
X277155Y151203D01*
X277070Y151121D01*
X276989Y151036D01*
X276910Y150948D01*
X276835Y150857D01*
X276762Y150764D01*
X276693Y150669D01*
X276627Y150571D01*
X276564Y150472D01*
X276504Y150370D01*
X276448Y150266D01*
X276396Y150161D01*
X276346Y150053D01*
X276301Y149945D01*
X276259Y149834D01*
X276221Y149723D01*
X276187Y149610D01*
X276156Y149496D01*
X276130Y149381D01*
X276107Y149266D01*
X276088Y149149D01*
X276073Y149032D01*
X276062Y148915D01*
X276055Y148797D01*
X276051Y148679D01*
X276052Y148561D01*
X276056Y148444D01*
X276065Y148326D01*
X276077Y148209D01*
X276094Y148092D01*
X276114Y147976D01*
X276138Y147860D01*
X276166Y147746D01*
X276198Y147632D01*
X276234Y147520D01*
X276273Y147409D01*
X276316Y147299D01*
X276362Y147191D01*
X276413Y147084D01*
X276466Y146979D01*
X276524Y146876D01*
X276584Y146775D01*
X276648Y146676D01*
X276716Y146579D01*
X276786Y146485D01*
X276860Y146392D01*
X276936Y146303D01*
X277016Y146216D01*
X277098Y146131D01*
X277183Y146050D01*
X277271Y145971D01*
X277362Y145896D01*
X277455Y145823D01*
X277550Y145754D01*
X277648Y145688D01*
X277747Y145625D01*
X277849Y145565D01*
X277953Y145509D01*
X278058Y145457D01*
X278166Y145407D01*
X278274Y145362D01*
X278385Y145320D01*
X278496Y145282D01*
X278609Y145248D01*
X278723Y145217D01*
X278838Y145191D01*
X278953Y145168D01*
X279070Y145149D01*
X279187Y145134D01*
X279304Y145123D01*
X279422Y145116D01*
X279540Y145112D01*
X279658Y145113D01*
X279775Y145117D01*
X279893Y145126D01*
X280010Y145138D01*
X280127Y145155D01*
X280243Y145175D01*
X280359Y145199D01*
X280473Y145227D01*
X280587Y145259D01*
X280699Y145295D01*
X280810Y145334D01*
X280920Y145377D01*
X281028Y145423D01*
X281135Y145474D01*
X281240Y145527D01*
X281343Y145585D01*
X271872Y154934D02*
X282870Y161284D01*
X281107Y164339D01*
X281106Y164339D02*
X281046Y164440D01*
X280982Y164539D01*
X280914Y164636D01*
X280844Y164731D01*
X280770Y164823D01*
X280694Y164912D01*
X280614Y164999D01*
X280532Y165084D01*
X280447Y165165D01*
X280359Y165244D01*
X280268Y165319D01*
X280175Y165392D01*
X280080Y165461D01*
X279982Y165527D01*
X279883Y165590D01*
X279781Y165650D01*
X279677Y165706D01*
X279572Y165758D01*
X279464Y165808D01*
X279356Y165853D01*
X279245Y165895D01*
X279134Y165933D01*
X279021Y165967D01*
X278907Y165998D01*
X278792Y166024D01*
X278677Y166047D01*
X278560Y166066D01*
X278443Y166081D01*
X278326Y166092D01*
X278208Y166099D01*
X278090Y166103D01*
X277972Y166102D01*
X277855Y166098D01*
X277737Y166089D01*
X277620Y166077D01*
X277503Y166060D01*
X277387Y166040D01*
X277271Y166016D01*
X277157Y165988D01*
X277043Y165956D01*
X276931Y165920D01*
X276820Y165881D01*
X276710Y165838D01*
X276602Y165792D01*
X276495Y165741D01*
X276390Y165688D01*
X276287Y165630D01*
X276186Y165570D01*
X276087Y165506D01*
X275990Y165438D01*
X275896Y165368D01*
X275803Y165294D01*
X275714Y165218D01*
X275627Y165138D01*
X275542Y165056D01*
X275461Y164971D01*
X275382Y164883D01*
X275307Y164792D01*
X275234Y164699D01*
X275165Y164604D01*
X275099Y164506D01*
X275036Y164407D01*
X274976Y164305D01*
X274920Y164201D01*
X274868Y164096D01*
X274818Y163988D01*
X274773Y163880D01*
X274731Y163769D01*
X274693Y163658D01*
X274659Y163545D01*
X274628Y163431D01*
X274602Y163316D01*
X274579Y163201D01*
X274560Y163084D01*
X274545Y162967D01*
X274534Y162850D01*
X274527Y162732D01*
X274523Y162614D01*
X274524Y162496D01*
X274528Y162379D01*
X274537Y162261D01*
X274549Y162144D01*
X274566Y162027D01*
X274586Y161911D01*
X274610Y161795D01*
X274638Y161681D01*
X274670Y161567D01*
X274706Y161455D01*
X274745Y161344D01*
X274788Y161234D01*
X274834Y161126D01*
X274885Y161019D01*
X274938Y160914D01*
X274996Y160811D01*
X276760Y157756D01*
X274643Y161422D02*
X268344Y161044D01*
X264386Y167901D02*
X275384Y174251D01*
X273620Y177306D02*
X277148Y171195D01*
X271182Y181530D02*
X260183Y175180D01*
X266293Y178707D02*
X262766Y184818D01*
X267654Y187640D02*
X256655Y181290D01*
X251894Y189536D02*
X251843Y189628D01*
X251795Y189723D01*
X251751Y189818D01*
X251711Y189916D01*
X251674Y190015D01*
X251641Y190115D01*
X251612Y190217D01*
X251587Y190319D01*
X251565Y190422D01*
X251548Y190526D01*
X251534Y190631D01*
X251524Y190736D01*
X251518Y190841D01*
X251516Y190947D01*
X251518Y191053D01*
X251524Y191158D01*
X251534Y191263D01*
X251548Y191368D01*
X251565Y191472D01*
X251587Y191575D01*
X251612Y191677D01*
X251641Y191779D01*
X251674Y191879D01*
X251711Y191978D01*
X251751Y192076D01*
X251795Y192171D01*
X251843Y192266D01*
X251894Y192358D01*
X251949Y192448D01*
X252006Y192537D01*
X252067Y192623D01*
X252132Y192706D01*
X252199Y192788D01*
X252269Y192866D01*
X252343Y192942D01*
X252419Y193016D01*
X252497Y193086D01*
X252579Y193153D01*
X252662Y193218D01*
X252748Y193279D01*
X252837Y193336D01*
X252927Y193391D01*
X251894Y189536D02*
X251971Y189405D01*
X252052Y189277D01*
X252136Y189151D01*
X252224Y189026D01*
X252314Y188904D01*
X252408Y188785D01*
X252504Y188668D01*
X252604Y188553D01*
X252706Y188441D01*
X252811Y188331D01*
X252919Y188224D01*
X253030Y188120D01*
X253143Y188019D01*
X253259Y187921D01*
X253377Y187826D01*
X253498Y187734D01*
X253621Y187645D01*
X253746Y187559D01*
X253874Y187476D01*
X254003Y187397D01*
X254134Y187320D01*
X254268Y187248D01*
X254403Y187178D01*
X254540Y187113D01*
X254678Y187050D01*
X254818Y186991D01*
X254960Y186936D01*
X255102Y186885D01*
X255246Y186837D01*
X255392Y186792D01*
X255538Y186752D01*
X262389Y191115D02*
X262479Y191169D01*
X262568Y191227D01*
X262654Y191288D01*
X262737Y191353D01*
X262819Y191420D01*
X262897Y191490D01*
X262973Y191563D01*
X263047Y191640D01*
X263117Y191718D01*
X263184Y191799D01*
X263249Y191883D01*
X263310Y191969D01*
X263367Y192058D01*
X263422Y192148D01*
X263473Y192240D01*
X263521Y192335D01*
X263565Y192430D01*
X263605Y192528D01*
X263642Y192627D01*
X263675Y192727D01*
X263704Y192829D01*
X263729Y192931D01*
X263751Y193034D01*
X263768Y193138D01*
X263782Y193243D01*
X263792Y193348D01*
X263798Y193454D01*
X263800Y193559D01*
X263798Y193665D01*
X263792Y193770D01*
X263782Y193875D01*
X263768Y193980D01*
X263751Y194084D01*
X263729Y194187D01*
X263704Y194289D01*
X263675Y194391D01*
X263642Y194491D01*
X263605Y194590D01*
X263564Y194688D01*
X263520Y194784D01*
X263473Y194878D01*
X263422Y194970D01*
X263422Y194969D02*
X263349Y195091D01*
X263273Y195211D01*
X263194Y195329D01*
X263112Y195445D01*
X263027Y195558D01*
X262939Y195669D01*
X262848Y195778D01*
X262754Y195884D01*
X262657Y195988D01*
X262557Y196089D01*
X262455Y196187D01*
X262350Y196282D01*
X262243Y196375D01*
X262133Y196465D01*
X262021Y196552D01*
X261906Y196636D01*
X261789Y196716D01*
X261671Y196794D01*
X261550Y196868D01*
X261427Y196939D01*
X261302Y197007D01*
X261176Y197071D01*
X261048Y197132D01*
X260918Y197190D01*
X259545Y191102D02*
X259639Y191052D01*
X259734Y191005D01*
X259831Y190961D01*
X259929Y190921D01*
X260029Y190885D01*
X260130Y190852D01*
X260233Y190824D01*
X260336Y190799D01*
X260440Y190778D01*
X260545Y190761D01*
X260651Y190747D01*
X260756Y190738D01*
X260862Y190733D01*
X260969Y190731D01*
X261075Y190733D01*
X261181Y190740D01*
X261287Y190750D01*
X261392Y190764D01*
X261497Y190783D01*
X261601Y190804D01*
X261704Y190830D01*
X261806Y190860D01*
X261907Y190893D01*
X262006Y190930D01*
X262105Y190971D01*
X262201Y191016D01*
X262296Y191064D01*
X262389Y191115D01*
X255771Y193404D02*
X255677Y193454D01*
X255582Y193501D01*
X255485Y193545D01*
X255387Y193585D01*
X255287Y193621D01*
X255186Y193654D01*
X255083Y193682D01*
X254980Y193707D01*
X254876Y193728D01*
X254771Y193745D01*
X254665Y193759D01*
X254560Y193768D01*
X254454Y193773D01*
X254347Y193775D01*
X254241Y193773D01*
X254135Y193766D01*
X254029Y193756D01*
X253924Y193742D01*
X253819Y193724D01*
X253715Y193702D01*
X253612Y193676D01*
X253510Y193646D01*
X253409Y193613D01*
X253310Y193576D01*
X253211Y193535D01*
X253115Y193490D01*
X253020Y193442D01*
X252927Y193391D01*
X255771Y193404D02*
X259545Y191102D01*
X247827Y196581D02*
X245005Y201469D01*
X247827Y196581D02*
X258826Y202931D01*
X256003Y207819D01*
X251821Y203775D02*
X253937Y200109D01*
X241301Y207883D02*
X239890Y210328D01*
X241302Y207884D02*
X241357Y207794D01*
X241414Y207705D01*
X241475Y207619D01*
X241540Y207536D01*
X241607Y207454D01*
X241677Y207376D01*
X241751Y207300D01*
X241827Y207226D01*
X241905Y207156D01*
X241987Y207089D01*
X242070Y207024D01*
X242156Y206963D01*
X242245Y206906D01*
X242335Y206851D01*
X242427Y206800D01*
X242522Y206752D01*
X242618Y206708D01*
X242715Y206668D01*
X242814Y206631D01*
X242914Y206598D01*
X243016Y206569D01*
X243118Y206544D01*
X243221Y206522D01*
X243325Y206505D01*
X243430Y206491D01*
X243535Y206481D01*
X243640Y206475D01*
X243746Y206473D01*
X243852Y206475D01*
X243957Y206481D01*
X244062Y206491D01*
X244167Y206505D01*
X244271Y206522D01*
X244374Y206544D01*
X244476Y206569D01*
X244578Y206598D01*
X244678Y206631D01*
X244777Y206668D01*
X244875Y206708D01*
X244970Y206752D01*
X245065Y206800D01*
X245157Y206851D01*
X245157Y206850D02*
X251267Y210378D01*
X251357Y210433D01*
X251446Y210490D01*
X251532Y210551D01*
X251615Y210616D01*
X251697Y210683D01*
X251775Y210753D01*
X251851Y210827D01*
X251925Y210903D01*
X251995Y210981D01*
X252062Y211063D01*
X252127Y211146D01*
X252188Y211232D01*
X252245Y211321D01*
X252300Y211411D01*
X252351Y211503D01*
X252399Y211598D01*
X252443Y211693D01*
X252483Y211791D01*
X252520Y211890D01*
X252553Y211990D01*
X252582Y212092D01*
X252607Y212194D01*
X252629Y212297D01*
X252646Y212401D01*
X252660Y212506D01*
X252670Y212611D01*
X252676Y212716D01*
X252678Y212822D01*
X252676Y212927D01*
X252670Y213033D01*
X252660Y213138D01*
X252646Y213243D01*
X252629Y213347D01*
X252607Y213450D01*
X252582Y213552D01*
X252553Y213654D01*
X252520Y213754D01*
X252483Y213853D01*
X252443Y213950D01*
X252399Y214046D01*
X252351Y214141D01*
X252300Y214233D01*
X250889Y216678D01*
X243319Y229791D02*
X243262Y229886D01*
X243201Y229978D01*
X243138Y230069D01*
X243071Y230158D01*
X243001Y230244D01*
X242928Y230328D01*
X242853Y230409D01*
X242775Y230487D01*
X242693Y230563D01*
X242610Y230635D01*
X242524Y230705D01*
X242435Y230772D01*
X242344Y230835D01*
X242251Y230896D01*
X242156Y230953D01*
X242060Y231006D01*
X241961Y231057D01*
X241860Y231104D01*
X241758Y231147D01*
X241655Y231187D01*
X241550Y231223D01*
X241444Y231255D01*
X241337Y231284D01*
X241229Y231309D01*
X241120Y231330D01*
X241011Y231347D01*
X240901Y231361D01*
X240790Y231370D01*
X240680Y231376D01*
X240569Y231378D01*
X240458Y231376D01*
X240348Y231370D01*
X240237Y231361D01*
X240127Y231347D01*
X240018Y231330D01*
X239909Y231309D01*
X239801Y231284D01*
X239694Y231255D01*
X239588Y231223D01*
X239483Y231187D01*
X239380Y231147D01*
X239278Y231104D01*
X239177Y231057D01*
X239078Y231006D01*
X238982Y230953D01*
X243318Y229791D02*
X243379Y229681D01*
X243437Y229570D01*
X243491Y229457D01*
X243542Y229343D01*
X243589Y229227D01*
X243632Y229110D01*
X243672Y228991D01*
X243708Y228871D01*
X243741Y228750D01*
X243769Y228629D01*
X243794Y228506D01*
X243816Y228383D01*
X243833Y228259D01*
X243847Y228135D01*
X243857Y228010D01*
X243863Y227885D01*
X243865Y227760D01*
X243863Y227635D01*
X243858Y227510D01*
X243849Y227385D01*
X243835Y227260D01*
X243818Y227137D01*
X243798Y227013D01*
X243773Y226890D01*
X243745Y226769D01*
X243713Y226648D01*
X243677Y226528D01*
X243638Y226409D01*
X243595Y226291D01*
X243548Y226175D01*
X243498Y226061D01*
X243445Y225948D01*
X243388Y225836D01*
X243327Y225727D01*
X243263Y225619D01*
X243196Y225513D01*
X243126Y225410D01*
X243053Y225308D01*
X242976Y225209D01*
X242897Y225113D01*
X242815Y225019D01*
X237372Y228801D02*
X237401Y228913D01*
X237433Y229023D01*
X237470Y229132D01*
X237510Y229240D01*
X237554Y229347D01*
X237601Y229452D01*
X237651Y229555D01*
X237706Y229656D01*
X237763Y229756D01*
X237824Y229854D01*
X237888Y229949D01*
X237956Y230042D01*
X238026Y230133D01*
X238100Y230222D01*
X238176Y230308D01*
X238256Y230391D01*
X238338Y230472D01*
X238422Y230550D01*
X238510Y230625D01*
X238600Y230697D01*
X238692Y230766D01*
X238786Y230831D01*
X238883Y230894D01*
X238981Y230953D01*
X237372Y228801D02*
X234260Y220080D01*
X230732Y226190D01*
X233587Y233945D02*
X233802Y234073D01*
X234014Y234205D01*
X234222Y234343D01*
X234427Y234485D01*
X234629Y234633D01*
X234827Y234785D01*
X235022Y234942D01*
X235212Y235103D01*
X235399Y235269D01*
X235582Y235440D01*
X235761Y235614D01*
X235935Y235793D01*
X236105Y235976D01*
X236271Y236163D01*
X236432Y236354D01*
X236588Y236549D01*
X236740Y236747D01*
X236887Y236949D01*
X237030Y237155D01*
X237030Y237154D02*
X237095Y237232D01*
X237157Y237312D01*
X237216Y237394D01*
X237272Y237479D01*
X237324Y237566D01*
X237373Y237654D01*
X237418Y237745D01*
X237460Y237837D01*
X237498Y237931D01*
X237533Y238026D01*
X237564Y238122D01*
X237591Y238220D01*
X237614Y238318D01*
X237633Y238418D01*
X237649Y238518D01*
X237661Y238618D01*
X237669Y238719D01*
X237673Y238820D01*
X237672Y238921D01*
X237669Y239022D01*
X237661Y239123D01*
X237649Y239224D01*
X237633Y239324D01*
X237614Y239423D01*
X237590Y239522D01*
X237563Y239619D01*
X237532Y239716D01*
X237498Y239811D01*
X237459Y239904D01*
X237418Y239996D01*
X237372Y240087D01*
X237323Y240176D01*
X237271Y240262D01*
X237215Y240347D01*
X237156Y240429D01*
X237094Y240509D01*
X237029Y240587D01*
X236961Y240662D01*
X236891Y240734D01*
X236817Y240803D01*
X236741Y240870D01*
X236662Y240933D01*
X236581Y240994D01*
X236497Y241051D01*
X236412Y241105D01*
X236324Y241156D01*
X236235Y241203D01*
X236143Y241247D01*
X236050Y241287D01*
X235956Y241323D01*
X235860Y241356D01*
X235763Y241385D01*
X235665Y241410D01*
X235566Y241432D01*
X235467Y241449D01*
X235366Y241463D01*
X235266Y241473D01*
X235165Y241479D01*
X235063Y241481D01*
X234962Y241479D01*
X234861Y241473D01*
X234760Y241464D01*
X234660Y241450D01*
X234561Y241432D01*
X234560Y241432D02*
X234311Y241412D01*
X234062Y241386D01*
X233815Y241353D01*
X233568Y241315D01*
X233322Y241271D01*
X233077Y241221D01*
X232834Y241165D01*
X232591Y241104D01*
X232351Y241036D01*
X232112Y240963D01*
X231875Y240884D01*
X231640Y240800D01*
X231406Y240710D01*
X231176Y240614D01*
X230947Y240513D01*
X230721Y240407D01*
X230498Y240295D01*
X230277Y240178D01*
X230059Y240056D01*
X233587Y233945D02*
X233370Y233823D01*
X233149Y233706D01*
X232925Y233594D01*
X232699Y233488D01*
X232471Y233387D01*
X232240Y233291D01*
X232007Y233201D01*
X231772Y233117D01*
X231535Y233038D01*
X231296Y232965D01*
X231055Y232897D01*
X230813Y232836D01*
X230569Y232780D01*
X230324Y232730D01*
X230079Y232686D01*
X229832Y232648D01*
X229584Y232616D01*
X229335Y232589D01*
X229086Y232569D01*
X229087Y232568D02*
X228987Y232550D01*
X228887Y232536D01*
X228786Y232527D01*
X228685Y232521D01*
X228584Y232519D01*
X228482Y232521D01*
X228381Y232527D01*
X228281Y232537D01*
X228180Y232551D01*
X228081Y232568D01*
X227982Y232590D01*
X227884Y232615D01*
X227787Y232644D01*
X227691Y232677D01*
X227597Y232713D01*
X227504Y232753D01*
X227413Y232797D01*
X227323Y232844D01*
X227235Y232895D01*
X227150Y232949D01*
X227066Y233006D01*
X226985Y233067D01*
X226906Y233130D01*
X226830Y233197D01*
X226756Y233266D01*
X226686Y233338D01*
X226618Y233413D01*
X226553Y233491D01*
X226491Y233571D01*
X226432Y233653D01*
X226376Y233738D01*
X226324Y233824D01*
X226616Y236845D02*
X226759Y237051D01*
X226906Y237253D01*
X227058Y237451D01*
X227214Y237646D01*
X227375Y237837D01*
X227541Y238024D01*
X227711Y238207D01*
X227885Y238386D01*
X228064Y238560D01*
X228247Y238731D01*
X228434Y238897D01*
X228624Y239058D01*
X228819Y239215D01*
X229017Y239367D01*
X229219Y239515D01*
X229424Y239657D01*
X229632Y239795D01*
X229844Y239927D01*
X230059Y240055D01*
X226617Y236846D02*
X226552Y236768D01*
X226490Y236688D01*
X226431Y236606D01*
X226375Y236521D01*
X226323Y236434D01*
X226274Y236346D01*
X226229Y236255D01*
X226187Y236163D01*
X226149Y236069D01*
X226114Y235974D01*
X226083Y235878D01*
X226056Y235780D01*
X226033Y235682D01*
X226014Y235582D01*
X225998Y235482D01*
X225986Y235382D01*
X225978Y235281D01*
X225974Y235180D01*
X225975Y235079D01*
X225978Y234978D01*
X225986Y234877D01*
X225998Y234776D01*
X226014Y234676D01*
X226033Y234577D01*
X226057Y234478D01*
X226084Y234381D01*
X226115Y234284D01*
X226149Y234189D01*
X226188Y234096D01*
X226230Y234003D01*
X226275Y233913D01*
X226324Y233824D01*
X230179Y232792D02*
X233467Y241208D01*
X230974Y251172D02*
X230917Y251267D01*
X230856Y251359D01*
X230793Y251450D01*
X230726Y251539D01*
X230656Y251625D01*
X230583Y251709D01*
X230508Y251790D01*
X230430Y251868D01*
X230348Y251944D01*
X230265Y252016D01*
X230179Y252086D01*
X230090Y252153D01*
X229999Y252216D01*
X229906Y252277D01*
X229811Y252334D01*
X229715Y252387D01*
X229616Y252438D01*
X229515Y252485D01*
X229413Y252528D01*
X229310Y252568D01*
X229205Y252604D01*
X229099Y252636D01*
X228992Y252665D01*
X228884Y252690D01*
X228775Y252711D01*
X228666Y252728D01*
X228556Y252742D01*
X228445Y252751D01*
X228335Y252757D01*
X228224Y252759D01*
X228113Y252757D01*
X228003Y252751D01*
X227892Y252742D01*
X227782Y252728D01*
X227673Y252711D01*
X227564Y252690D01*
X227456Y252665D01*
X227349Y252636D01*
X227243Y252604D01*
X227138Y252568D01*
X227035Y252528D01*
X226933Y252485D01*
X226832Y252438D01*
X226733Y252387D01*
X226637Y252334D01*
X230974Y251172D02*
X231035Y251062D01*
X231093Y250951D01*
X231147Y250838D01*
X231198Y250724D01*
X231245Y250608D01*
X231288Y250491D01*
X231328Y250372D01*
X231364Y250252D01*
X231397Y250131D01*
X231425Y250010D01*
X231450Y249887D01*
X231472Y249764D01*
X231489Y249640D01*
X231503Y249516D01*
X231513Y249391D01*
X231519Y249266D01*
X231521Y249141D01*
X231519Y249016D01*
X231514Y248891D01*
X231505Y248766D01*
X231491Y248641D01*
X231474Y248518D01*
X231454Y248394D01*
X231429Y248271D01*
X231401Y248150D01*
X231369Y248029D01*
X231333Y247909D01*
X231294Y247790D01*
X231251Y247672D01*
X231204Y247556D01*
X231154Y247442D01*
X231101Y247329D01*
X231044Y247217D01*
X230983Y247108D01*
X230919Y247000D01*
X230852Y246894D01*
X230782Y246791D01*
X230709Y246689D01*
X230632Y246590D01*
X230553Y246494D01*
X230471Y246400D01*
X225027Y250182D02*
X225056Y250294D01*
X225088Y250404D01*
X225125Y250513D01*
X225165Y250621D01*
X225209Y250728D01*
X225256Y250833D01*
X225306Y250936D01*
X225361Y251037D01*
X225418Y251137D01*
X225479Y251235D01*
X225543Y251330D01*
X225611Y251423D01*
X225681Y251514D01*
X225755Y251603D01*
X225831Y251689D01*
X225911Y251772D01*
X225993Y251853D01*
X226077Y251931D01*
X226165Y252006D01*
X226255Y252078D01*
X226347Y252147D01*
X226441Y252212D01*
X226538Y252275D01*
X226636Y252334D01*
X225027Y250182D02*
X221916Y241461D01*
X218388Y247571D01*
X220465Y263024D02*
X220561Y263077D01*
X220660Y263128D01*
X220761Y263175D01*
X220863Y263218D01*
X220966Y263258D01*
X221071Y263294D01*
X221177Y263326D01*
X221284Y263355D01*
X221392Y263380D01*
X221501Y263401D01*
X221610Y263418D01*
X221720Y263432D01*
X221831Y263441D01*
X221941Y263447D01*
X222052Y263449D01*
X222163Y263447D01*
X222273Y263441D01*
X222384Y263432D01*
X222494Y263418D01*
X222603Y263401D01*
X222712Y263380D01*
X222820Y263355D01*
X222927Y263326D01*
X223033Y263294D01*
X223138Y263258D01*
X223241Y263218D01*
X223343Y263175D01*
X223444Y263128D01*
X223543Y263077D01*
X223639Y263024D01*
X223734Y262967D01*
X223827Y262906D01*
X223918Y262843D01*
X224007Y262776D01*
X224093Y262706D01*
X224176Y262634D01*
X224258Y262558D01*
X224336Y262480D01*
X224411Y262399D01*
X224484Y262315D01*
X224554Y262229D01*
X224621Y262140D01*
X224684Y262049D01*
X224745Y261957D01*
X224802Y261862D01*
X224863Y261752D01*
X224921Y261641D01*
X224975Y261528D01*
X225026Y261414D01*
X225073Y261298D01*
X225116Y261181D01*
X225156Y261062D01*
X225192Y260942D01*
X225225Y260821D01*
X225253Y260700D01*
X225278Y260577D01*
X225300Y260454D01*
X225317Y260330D01*
X225331Y260206D01*
X225341Y260081D01*
X225347Y259956D01*
X225349Y259831D01*
X225347Y259706D01*
X225342Y259581D01*
X225333Y259456D01*
X225319Y259331D01*
X225302Y259208D01*
X225282Y259084D01*
X225257Y258961D01*
X225229Y258840D01*
X225197Y258719D01*
X225161Y258599D01*
X225122Y258480D01*
X225079Y258362D01*
X225032Y258246D01*
X224982Y258132D01*
X224929Y258019D01*
X224872Y257907D01*
X224811Y257798D01*
X224747Y257690D01*
X224680Y257584D01*
X224610Y257481D01*
X224537Y257379D01*
X224460Y257280D01*
X224381Y257184D01*
X224299Y257090D01*
X218855Y260872D02*
X218884Y260984D01*
X218916Y261094D01*
X218953Y261203D01*
X218993Y261311D01*
X219037Y261418D01*
X219084Y261523D01*
X219134Y261626D01*
X219189Y261727D01*
X219246Y261827D01*
X219307Y261925D01*
X219371Y262020D01*
X219439Y262113D01*
X219509Y262204D01*
X219583Y262293D01*
X219659Y262379D01*
X219739Y262462D01*
X219821Y262543D01*
X219905Y262621D01*
X219993Y262696D01*
X220083Y262768D01*
X220175Y262837D01*
X220269Y262902D01*
X220366Y262965D01*
X220464Y263024D01*
X218855Y260872D02*
X215744Y252151D01*
X212216Y258261D01*
D11*
X202438Y242034D02*
X191601Y242034D01*
X157988Y261084D02*
X147151Y261084D01*
X152569Y255665D02*
X152569Y266502D01*
D12*
X194238Y207729D02*
X188410Y199406D01*
X141790Y132826D02*
X135962Y124503D01*
D11*
X154171Y135008D02*
X154254Y134953D01*
X154339Y134900D01*
X154426Y134852D01*
X154515Y134806D01*
X154605Y134764D01*
X154697Y134726D01*
X154791Y134691D01*
X154885Y134660D01*
X154981Y134633D01*
X155078Y134609D01*
X155176Y134590D01*
X155274Y134574D01*
X155374Y134562D01*
X155473Y134554D01*
X155573Y134550D01*
X155672Y134549D01*
X155772Y134553D01*
X155871Y134561D01*
X155971Y134572D01*
X156069Y134588D01*
X156167Y134607D01*
X156264Y134630D01*
X156360Y134657D01*
X156455Y134687D01*
X156549Y134722D01*
X156641Y134760D01*
X156731Y134801D01*
X156820Y134846D01*
X156908Y134895D01*
X156993Y134947D01*
X157076Y135002D01*
X157157Y135060D01*
X157235Y135122D01*
X157311Y135187D01*
X157384Y135254D01*
X157455Y135325D01*
X157523Y135398D01*
X157588Y135473D01*
X157650Y135552D01*
X157709Y135632D01*
X139607Y145207D02*
X139527Y145266D01*
X139448Y145328D01*
X139373Y145393D01*
X139300Y145461D01*
X139229Y145532D01*
X139162Y145605D01*
X139097Y145681D01*
X139035Y145759D01*
X138977Y145840D01*
X138922Y145923D01*
X138870Y146008D01*
X138821Y146096D01*
X138776Y146185D01*
X138735Y146275D01*
X138697Y146367D01*
X138662Y146461D01*
X138632Y146556D01*
X138605Y146652D01*
X138582Y146749D01*
X138563Y146847D01*
X138547Y146945D01*
X138536Y147045D01*
X138528Y147144D01*
X138524Y147244D01*
X138525Y147343D01*
X138529Y147443D01*
X138537Y147542D01*
X138549Y147642D01*
X138565Y147740D01*
X138584Y147838D01*
X138608Y147935D01*
X138635Y148031D01*
X138666Y148125D01*
X138701Y148219D01*
X138739Y148311D01*
X138781Y148401D01*
X138827Y148490D01*
X138875Y148577D01*
X138928Y148662D01*
X138983Y148745D01*
X172491Y196600D02*
X172550Y196680D01*
X172612Y196759D01*
X172677Y196834D01*
X172745Y196907D01*
X172816Y196978D01*
X172889Y197045D01*
X172965Y197110D01*
X173043Y197172D01*
X173124Y197230D01*
X173207Y197285D01*
X173292Y197337D01*
X173380Y197386D01*
X173469Y197431D01*
X173559Y197472D01*
X173651Y197510D01*
X173745Y197545D01*
X173840Y197575D01*
X173936Y197602D01*
X174033Y197625D01*
X174131Y197644D01*
X174229Y197660D01*
X174329Y197671D01*
X174428Y197679D01*
X174528Y197683D01*
X174627Y197682D01*
X174727Y197678D01*
X174826Y197670D01*
X174926Y197658D01*
X175024Y197642D01*
X175122Y197623D01*
X175219Y197599D01*
X175315Y197572D01*
X175409Y197541D01*
X175503Y197506D01*
X175595Y197468D01*
X175685Y197426D01*
X175774Y197380D01*
X175861Y197332D01*
X175946Y197279D01*
X176029Y197224D01*
X190593Y187025D02*
X190673Y186966D01*
X190752Y186904D01*
X190827Y186839D01*
X190900Y186771D01*
X190971Y186700D01*
X191038Y186627D01*
X191103Y186551D01*
X191165Y186473D01*
X191223Y186392D01*
X191278Y186309D01*
X191330Y186224D01*
X191379Y186136D01*
X191424Y186047D01*
X191465Y185957D01*
X191503Y185865D01*
X191538Y185771D01*
X191568Y185676D01*
X191595Y185580D01*
X191618Y185483D01*
X191637Y185385D01*
X191653Y185287D01*
X191664Y185187D01*
X191672Y185088D01*
X191676Y184988D01*
X191675Y184889D01*
X191671Y184789D01*
X191663Y184690D01*
X191651Y184590D01*
X191635Y184492D01*
X191616Y184394D01*
X191592Y184297D01*
X191565Y184201D01*
X191534Y184107D01*
X191499Y184013D01*
X191461Y183921D01*
X191419Y183831D01*
X191373Y183742D01*
X191325Y183655D01*
X191272Y183570D01*
X191217Y183487D01*
X154171Y135009D02*
X139607Y145207D01*
X157709Y135633D02*
X159894Y138754D01*
X159582Y140522D01*
X141168Y151866D02*
X138983Y148745D01*
X141168Y151866D02*
X142937Y152177D01*
X187263Y180055D02*
X189032Y180366D01*
X187263Y180055D02*
X159582Y140522D01*
X170618Y191710D02*
X170306Y193478D01*
X170618Y191710D02*
X142937Y152177D01*
X189032Y180366D02*
X191217Y183487D01*
X172491Y196599D02*
X170306Y193478D01*
X176029Y197223D02*
X190593Y187025D01*
D13*
G36*
X190761Y197449D02*
X185808Y190376D01*
X180815Y193873D01*
X185768Y200946D01*
X190761Y197449D01*
G37*
G36*
X149385Y138359D02*
X144432Y131286D01*
X139439Y134783D01*
X144392Y141856D01*
X149385Y138359D01*
G37*
D14*
X173378Y168349D02*
X164015Y174904D01*
X162194Y172304D01*
X162132Y172211D01*
X162072Y172116D01*
X162016Y172019D01*
X161964Y171920D01*
X161915Y171819D01*
X161869Y171717D01*
X161828Y171613D01*
X161790Y171507D01*
X161755Y171401D01*
X161725Y171293D01*
X161698Y171184D01*
X161676Y171074D01*
X161657Y170964D01*
X161642Y170853D01*
X161631Y170741D01*
X161623Y170629D01*
X161620Y170517D01*
X161621Y170405D01*
X161626Y170293D01*
X161634Y170181D01*
X161647Y170070D01*
X161663Y169959D01*
X161684Y169849D01*
X161708Y169740D01*
X161736Y169631D01*
X161768Y169524D01*
X161804Y169418D01*
X161844Y169313D01*
X161887Y169209D01*
X161933Y169107D01*
X161984Y169007D01*
X162038Y168909D01*
X162095Y168813D01*
X162156Y168718D01*
X162219Y168626D01*
X162287Y168537D01*
X162357Y168449D01*
X162430Y168365D01*
X162506Y168282D01*
X162585Y168203D01*
X162667Y168126D01*
X162752Y168053D01*
X162839Y167982D01*
X162928Y167915D01*
X163020Y167850D01*
X163114Y167789D01*
X163210Y167732D01*
X163308Y167678D01*
X163408Y167627D01*
X163510Y167580D01*
X163613Y167536D01*
X163718Y167496D01*
X163824Y167460D01*
X163931Y167428D01*
X164040Y167399D01*
X164149Y167374D01*
X164259Y167354D01*
X164370Y167337D01*
X164481Y167324D01*
X164593Y167314D01*
X164705Y167309D01*
X164817Y167308D01*
X164929Y167311D01*
X165041Y167318D01*
X165152Y167328D01*
X165263Y167343D01*
X165374Y167361D01*
X165484Y167384D01*
X165593Y167410D01*
X165701Y167440D01*
X165807Y167474D01*
X165913Y167511D01*
X166017Y167553D01*
X166120Y167598D01*
X166221Y167646D01*
X166320Y167698D01*
X166417Y167754D01*
X166513Y167813D01*
X166606Y167875D01*
X166697Y167941D01*
X166785Y168009D01*
X166871Y168081D01*
X166955Y168156D01*
X167036Y168234D01*
X167114Y168314D01*
X167189Y168397D01*
X167261Y168483D01*
X167330Y168571D01*
X167396Y168662D01*
X167396Y168661D02*
X169217Y171262D01*
X167032Y168141D02*
X169736Y163147D01*
X159588Y164153D02*
X155686Y163009D01*
X165049Y156453D01*
X166870Y159053D02*
X163228Y153852D01*
D11*
X179660Y152081D02*
X188640Y161061D01*
X179660Y152081D02*
X179660Y143101D01*
X170680Y143101D01*
X161699Y134120D01*
X161699Y125140D01*
X188640Y161061D02*
X197620Y161061D01*
X161699Y125140D02*
X152719Y125140D01*
X143739Y116160D01*
X143739Y107180D01*
X170680Y80239D01*
X206601Y116160D02*
X215581Y116160D01*
X197620Y98199D02*
X188640Y98199D01*
X197620Y98199D02*
X206601Y107180D01*
X206601Y116160D01*
X224561Y134120D02*
X197620Y161061D01*
X224561Y134120D02*
X224561Y125140D01*
X215581Y116160D01*
X179660Y80239D02*
X170680Y80239D01*
X179660Y80239D02*
X188640Y89219D01*
X188640Y98199D01*
D14*
X144188Y95954D02*
X138800Y101342D01*
X138800Y95954D02*
X144188Y101342D01*
D15*
G36*
X189538Y111670D02*
X193130Y115262D01*
X196722Y111670D01*
X193130Y108078D01*
X189538Y111670D01*
G37*
G36*
X207499Y129630D02*
X211091Y133222D01*
X214683Y129630D01*
X211091Y126038D01*
X207499Y129630D01*
G37*
G36*
X171578Y93709D02*
X175170Y97301D01*
X178762Y93709D01*
X175170Y90117D01*
X171578Y93709D01*
G37*
G36*
X189538Y147591D02*
X193130Y151183D01*
X196722Y147591D01*
X193130Y143999D01*
X189538Y147591D01*
G37*
G36*
X171578Y129630D02*
X175170Y133222D01*
X178762Y129630D01*
X175170Y126038D01*
X171578Y129630D01*
G37*
G36*
X153617Y111670D02*
X157209Y115262D01*
X160801Y111670D01*
X157209Y108078D01*
X153617Y111670D01*
G37*
D14*
X165292Y81137D02*
X168884Y77545D01*
D16*
X202061Y170351D02*
X205383Y170720D01*
X202061Y170351D02*
X208706Y163705D01*
X210552Y165551D02*
X206860Y161859D01*
X228816Y143226D02*
X228751Y143157D01*
X228688Y143087D01*
X228628Y143013D01*
X228571Y142938D01*
X228517Y142860D01*
X228467Y142780D01*
X228420Y142698D01*
X228376Y142614D01*
X228335Y142528D01*
X228298Y142441D01*
X228264Y142353D01*
X228234Y142263D01*
X228208Y142172D01*
X228185Y142080D01*
X228166Y141988D01*
X228151Y141894D01*
X228140Y141800D01*
X228132Y141706D01*
X228128Y141611D01*
X228128Y141517D01*
X228132Y141422D01*
X228140Y141328D01*
X228151Y141234D01*
X228166Y141140D01*
X228185Y141048D01*
X228208Y140956D01*
X228234Y140865D01*
X228264Y140775D01*
X228298Y140687D01*
X228335Y140600D01*
X228376Y140514D01*
X228420Y140430D01*
X228467Y140348D01*
X228517Y140268D01*
X228571Y140190D01*
X228628Y140115D01*
X228688Y140041D01*
X228751Y139971D01*
X228816Y139902D01*
X228817Y143225D02*
X228895Y143300D01*
X228976Y143373D01*
X229059Y143442D01*
X229145Y143509D01*
X229233Y143572D01*
X229323Y143632D01*
X229415Y143689D01*
X229510Y143743D01*
X229606Y143793D01*
X229704Y143839D01*
X229803Y143882D01*
X229904Y143922D01*
X230007Y143957D01*
X230110Y143989D01*
X230215Y144018D01*
X230320Y144042D01*
X230427Y144063D01*
X230534Y144080D01*
X230642Y144093D01*
X230750Y144102D01*
X230858Y144108D01*
X230966Y144109D01*
X231075Y144106D01*
X231183Y144100D01*
X231291Y144090D01*
X231399Y144076D01*
X231505Y144058D01*
X231612Y144036D01*
X231717Y144010D01*
X231821Y143981D01*
X231925Y143948D01*
X232027Y143911D01*
X232127Y143870D01*
X232226Y143826D01*
X232324Y143779D01*
X230663Y139165D02*
X230565Y139164D01*
X230468Y139168D01*
X230371Y139175D01*
X230274Y139185D01*
X230178Y139200D01*
X230083Y139218D01*
X229988Y139240D01*
X229894Y139265D01*
X229801Y139294D01*
X229709Y139327D01*
X229619Y139363D01*
X229530Y139403D01*
X229443Y139446D01*
X229357Y139492D01*
X229274Y139541D01*
X229192Y139594D01*
X229112Y139650D01*
X229035Y139709D01*
X228960Y139771D01*
X228887Y139836D01*
X228817Y139903D01*
X230663Y139164D02*
X237493Y138610D01*
X233801Y134919D01*
M02*
