G04 EAGLE Gerber RS-274X export*
G75*
%MOMM*%
%FSLAX34Y34*%
%LPD*%
%INSolderpaste Top*%
%IPPOS*%
%AMOC8*
5,1,8,0,0,1.08239X$1,22.5*%
G01*
%ADD10R,1.100000X1.000000*%
%ADD11R,1.075000X1.000000*%
%ADD12R,1.240000X1.500000*%
%ADD13R,1.200000X1.200000*%
%ADD14R,1.400000X1.400000*%
%ADD15C,0.450000*%
%ADD16R,1.000000X1.075000*%
%ADD17R,1.524000X0.762000*%
%ADD18R,1.270000X0.558800*%
%ADD19R,0.558800X1.270000*%
%ADD20R,0.700000X0.700000*%
%ADD21R,1.200000X0.550000*%
%ADD22R,0.762000X2.209800*%
%ADD23R,0.990600X0.812800*%
%ADD24C,0.155000*%
%ADD25C,0.195000*%
%ADD26R,1.500000X1.500000*%
%ADD27R,1.800000X1.200000*%
%ADD28R,1.000000X1.100000*%
%ADD29R,0.600000X1.140000*%
%ADD30R,0.300000X1.140000*%
%ADD31R,0.736600X3.251200*%


D10*
X573650Y237490D03*
X556650Y237490D03*
X389500Y215900D03*
X372500Y215900D03*
D11*
X296300Y152400D03*
X313300Y152400D03*
D12*
X219100Y63500D03*
X238100Y63500D03*
D10*
X385200Y152400D03*
X402200Y152400D03*
D13*
X281600Y127000D03*
X302600Y127000D03*
D14*
X375200Y95250D03*
X412200Y95250D03*
D13*
X243500Y44450D03*
X264500Y44450D03*
D15*
X418171Y130341D02*
X428459Y140629D01*
X436944Y132144D02*
X426656Y121856D01*
X435141Y113371D02*
X445429Y123659D01*
D11*
X245500Y19050D03*
X262500Y19050D03*
D16*
X279400Y97400D03*
X279400Y80400D03*
D10*
X389500Y190500D03*
X372500Y190500D03*
X556650Y184150D03*
X573650Y184150D03*
D16*
X298450Y80400D03*
X298450Y97400D03*
D17*
X764540Y171450D03*
X708660Y171450D03*
X764540Y209550D03*
X708660Y209550D03*
X764540Y57150D03*
X708660Y57150D03*
X764540Y95250D03*
X708660Y95250D03*
X111760Y234950D03*
X167640Y234950D03*
X111760Y196850D03*
X167640Y196850D03*
X111760Y82550D03*
X167640Y82550D03*
X111760Y44450D03*
X167640Y44450D03*
X35560Y158750D03*
X91440Y158750D03*
X35560Y120650D03*
X91440Y120650D03*
X187960Y158750D03*
X243840Y158750D03*
X187960Y120650D03*
X243840Y120650D03*
D18*
G36*
X432563Y182460D02*
X423584Y173481D01*
X419633Y177432D01*
X428612Y186411D01*
X432563Y182460D01*
G37*
G36*
X438220Y176803D02*
X429241Y167824D01*
X425290Y171775D01*
X434269Y180754D01*
X438220Y176803D01*
G37*
G36*
X443876Y171146D02*
X434897Y162167D01*
X430946Y166118D01*
X439925Y175097D01*
X443876Y171146D01*
G37*
G36*
X449533Y165489D02*
X440554Y156510D01*
X436603Y160461D01*
X445582Y169440D01*
X449533Y165489D01*
G37*
G36*
X455190Y159832D02*
X446211Y150853D01*
X442260Y154804D01*
X451239Y163783D01*
X455190Y159832D01*
G37*
G36*
X460847Y154175D02*
X451868Y145196D01*
X447917Y149147D01*
X456896Y158126D01*
X460847Y154175D01*
G37*
G36*
X466504Y148519D02*
X457525Y139540D01*
X453574Y143491D01*
X462553Y152470D01*
X466504Y148519D01*
G37*
G36*
X472161Y142862D02*
X463182Y133883D01*
X459231Y137834D01*
X468210Y146813D01*
X472161Y142862D01*
G37*
D19*
G36*
X493269Y137834D02*
X489318Y133883D01*
X480339Y142862D01*
X484290Y146813D01*
X493269Y137834D01*
G37*
G36*
X498926Y143491D02*
X494975Y139540D01*
X485996Y148519D01*
X489947Y152470D01*
X498926Y143491D01*
G37*
G36*
X504583Y149147D02*
X500632Y145196D01*
X491653Y154175D01*
X495604Y158126D01*
X504583Y149147D01*
G37*
G36*
X510240Y154804D02*
X506289Y150853D01*
X497310Y159832D01*
X501261Y163783D01*
X510240Y154804D01*
G37*
G36*
X515897Y160461D02*
X511946Y156510D01*
X502967Y165489D01*
X506918Y169440D01*
X515897Y160461D01*
G37*
G36*
X521554Y166118D02*
X517603Y162167D01*
X508624Y171146D01*
X512575Y175097D01*
X521554Y166118D01*
G37*
G36*
X527210Y171775D02*
X523259Y167824D01*
X514280Y176803D01*
X518231Y180754D01*
X527210Y171775D01*
G37*
G36*
X532867Y177432D02*
X528916Y173481D01*
X519937Y182460D01*
X523888Y186411D01*
X532867Y177432D01*
G37*
D18*
G36*
X532867Y203568D02*
X523888Y194589D01*
X519937Y198540D01*
X528916Y207519D01*
X532867Y203568D01*
G37*
G36*
X527210Y209225D02*
X518231Y200246D01*
X514280Y204197D01*
X523259Y213176D01*
X527210Y209225D01*
G37*
G36*
X521554Y214882D02*
X512575Y205903D01*
X508624Y209854D01*
X517603Y218833D01*
X521554Y214882D01*
G37*
G36*
X515897Y220539D02*
X506918Y211560D01*
X502967Y215511D01*
X511946Y224490D01*
X515897Y220539D01*
G37*
G36*
X510240Y226196D02*
X501261Y217217D01*
X497310Y221168D01*
X506289Y230147D01*
X510240Y226196D01*
G37*
G36*
X504583Y231853D02*
X495604Y222874D01*
X491653Y226825D01*
X500632Y235804D01*
X504583Y231853D01*
G37*
G36*
X498926Y237509D02*
X489947Y228530D01*
X485996Y232481D01*
X494975Y241460D01*
X498926Y237509D01*
G37*
G36*
X493269Y243166D02*
X484290Y234187D01*
X480339Y238138D01*
X489318Y247117D01*
X493269Y243166D01*
G37*
D19*
G36*
X472161Y238138D02*
X468210Y234187D01*
X459231Y243166D01*
X463182Y247117D01*
X472161Y238138D01*
G37*
G36*
X466504Y232481D02*
X462553Y228530D01*
X453574Y237509D01*
X457525Y241460D01*
X466504Y232481D01*
G37*
G36*
X460847Y226825D02*
X456896Y222874D01*
X447917Y231853D01*
X451868Y235804D01*
X460847Y226825D01*
G37*
G36*
X455190Y221168D02*
X451239Y217217D01*
X442260Y226196D01*
X446211Y230147D01*
X455190Y221168D01*
G37*
G36*
X449533Y215511D02*
X445582Y211560D01*
X436603Y220539D01*
X440554Y224490D01*
X449533Y215511D01*
G37*
G36*
X443876Y209854D02*
X439925Y205903D01*
X430946Y214882D01*
X434897Y218833D01*
X443876Y209854D01*
G37*
G36*
X438220Y204197D02*
X434269Y200246D01*
X425290Y209225D01*
X429241Y213176D01*
X438220Y204197D01*
G37*
G36*
X432563Y198540D02*
X428612Y194589D01*
X419633Y203568D01*
X423584Y207519D01*
X432563Y198540D01*
G37*
D20*
X321050Y564300D03*
X321050Y553300D03*
X339350Y553300D03*
X339350Y564300D03*
X422650Y564300D03*
X422650Y553300D03*
X440950Y553300D03*
X440950Y564300D03*
X524250Y564300D03*
X524250Y553300D03*
X542550Y553300D03*
X542550Y564300D03*
X625850Y564300D03*
X625850Y553300D03*
X644150Y553300D03*
X644150Y564300D03*
X727450Y564300D03*
X727450Y553300D03*
X745750Y553300D03*
X745750Y564300D03*
X872750Y292950D03*
X872750Y303950D03*
X854450Y303950D03*
X854450Y292950D03*
X771150Y292950D03*
X771150Y303950D03*
X752850Y303950D03*
X752850Y292950D03*
X669550Y292950D03*
X669550Y303950D03*
X651250Y303950D03*
X651250Y292950D03*
X567950Y292950D03*
X567950Y303950D03*
X549650Y303950D03*
X549650Y292950D03*
X466350Y292950D03*
X466350Y303950D03*
X448050Y303950D03*
X448050Y292950D03*
D21*
X323549Y98400D03*
X323549Y88900D03*
X323549Y79400D03*
X349551Y79400D03*
X349551Y98400D03*
D20*
X364750Y292950D03*
X364750Y303950D03*
X346450Y303950D03*
X346450Y292950D03*
X16250Y564300D03*
X16250Y553300D03*
X34550Y553300D03*
X34550Y564300D03*
X117850Y564300D03*
X117850Y553300D03*
X136150Y553300D03*
X136150Y564300D03*
D22*
X371750Y50057D03*
X356750Y50057D03*
X326750Y50057D03*
D23*
X312750Y9400D03*
X312750Y28700D03*
X385750Y9400D03*
X385750Y28700D03*
D24*
X651725Y66175D02*
X651725Y77725D01*
X656375Y77725D01*
X656375Y66175D01*
X651725Y66175D01*
X651725Y67647D02*
X656375Y67647D01*
X656375Y69119D02*
X651725Y69119D01*
X651725Y70591D02*
X656375Y70591D01*
X656375Y72063D02*
X651725Y72063D01*
X651725Y73535D02*
X656375Y73535D01*
X656375Y75007D02*
X651725Y75007D01*
X651725Y76479D02*
X656375Y76479D01*
X639025Y77725D02*
X639025Y66175D01*
X639025Y77725D02*
X643675Y77725D01*
X643675Y66175D01*
X639025Y66175D01*
X639025Y67647D02*
X643675Y67647D01*
X643675Y69119D02*
X639025Y69119D01*
X639025Y70591D02*
X643675Y70591D01*
X643675Y72063D02*
X639025Y72063D01*
X639025Y73535D02*
X643675Y73535D01*
X643675Y75007D02*
X639025Y75007D01*
X639025Y76479D02*
X643675Y76479D01*
X626325Y77725D02*
X626325Y66175D01*
X626325Y77725D02*
X630975Y77725D01*
X630975Y66175D01*
X626325Y66175D01*
X626325Y67647D02*
X630975Y67647D01*
X630975Y69119D02*
X626325Y69119D01*
X626325Y70591D02*
X630975Y70591D01*
X630975Y72063D02*
X626325Y72063D01*
X626325Y73535D02*
X630975Y73535D01*
X630975Y75007D02*
X626325Y75007D01*
X626325Y76479D02*
X630975Y76479D01*
X613625Y77725D02*
X613625Y66175D01*
X613625Y77725D02*
X618275Y77725D01*
X618275Y66175D01*
X613625Y66175D01*
X613625Y67647D02*
X618275Y67647D01*
X618275Y69119D02*
X613625Y69119D01*
X613625Y70591D02*
X618275Y70591D01*
X618275Y72063D02*
X613625Y72063D01*
X613625Y73535D02*
X618275Y73535D01*
X618275Y75007D02*
X613625Y75007D01*
X613625Y76479D02*
X618275Y76479D01*
X600925Y77725D02*
X600925Y66175D01*
X600925Y77725D02*
X605575Y77725D01*
X605575Y66175D01*
X600925Y66175D01*
X600925Y67647D02*
X605575Y67647D01*
X605575Y69119D02*
X600925Y69119D01*
X600925Y70591D02*
X605575Y70591D01*
X605575Y72063D02*
X600925Y72063D01*
X600925Y73535D02*
X605575Y73535D01*
X605575Y75007D02*
X600925Y75007D01*
X600925Y76479D02*
X605575Y76479D01*
X588225Y77725D02*
X588225Y66175D01*
X588225Y77725D02*
X592875Y77725D01*
X592875Y66175D01*
X588225Y66175D01*
X588225Y67647D02*
X592875Y67647D01*
X592875Y69119D02*
X588225Y69119D01*
X588225Y70591D02*
X592875Y70591D01*
X592875Y72063D02*
X588225Y72063D01*
X588225Y73535D02*
X592875Y73535D01*
X592875Y75007D02*
X588225Y75007D01*
X588225Y76479D02*
X592875Y76479D01*
X575525Y77725D02*
X575525Y66175D01*
X575525Y77725D02*
X580175Y77725D01*
X580175Y66175D01*
X575525Y66175D01*
X575525Y67647D02*
X580175Y67647D01*
X580175Y69119D02*
X575525Y69119D01*
X575525Y70591D02*
X580175Y70591D01*
X580175Y72063D02*
X575525Y72063D01*
X575525Y73535D02*
X580175Y73535D01*
X580175Y75007D02*
X575525Y75007D01*
X575525Y76479D02*
X580175Y76479D01*
X562825Y77725D02*
X562825Y66175D01*
X562825Y77725D02*
X567475Y77725D01*
X567475Y66175D01*
X562825Y66175D01*
X562825Y67647D02*
X567475Y67647D01*
X567475Y69119D02*
X562825Y69119D01*
X562825Y70591D02*
X567475Y70591D01*
X567475Y72063D02*
X562825Y72063D01*
X562825Y73535D02*
X567475Y73535D01*
X567475Y75007D02*
X562825Y75007D01*
X562825Y76479D02*
X567475Y76479D01*
X562825Y22725D02*
X562825Y11175D01*
X562825Y22725D02*
X567475Y22725D01*
X567475Y11175D01*
X562825Y11175D01*
X562825Y12647D02*
X567475Y12647D01*
X567475Y14119D02*
X562825Y14119D01*
X562825Y15591D02*
X567475Y15591D01*
X567475Y17063D02*
X562825Y17063D01*
X562825Y18535D02*
X567475Y18535D01*
X567475Y20007D02*
X562825Y20007D01*
X562825Y21479D02*
X567475Y21479D01*
X575525Y22725D02*
X575525Y11175D01*
X575525Y22725D02*
X580175Y22725D01*
X580175Y11175D01*
X575525Y11175D01*
X575525Y12647D02*
X580175Y12647D01*
X580175Y14119D02*
X575525Y14119D01*
X575525Y15591D02*
X580175Y15591D01*
X580175Y17063D02*
X575525Y17063D01*
X575525Y18535D02*
X580175Y18535D01*
X580175Y20007D02*
X575525Y20007D01*
X575525Y21479D02*
X580175Y21479D01*
X588225Y22725D02*
X588225Y11175D01*
X588225Y22725D02*
X592875Y22725D01*
X592875Y11175D01*
X588225Y11175D01*
X588225Y12647D02*
X592875Y12647D01*
X592875Y14119D02*
X588225Y14119D01*
X588225Y15591D02*
X592875Y15591D01*
X592875Y17063D02*
X588225Y17063D01*
X588225Y18535D02*
X592875Y18535D01*
X592875Y20007D02*
X588225Y20007D01*
X588225Y21479D02*
X592875Y21479D01*
X600925Y22725D02*
X600925Y11175D01*
X600925Y22725D02*
X605575Y22725D01*
X605575Y11175D01*
X600925Y11175D01*
X600925Y12647D02*
X605575Y12647D01*
X605575Y14119D02*
X600925Y14119D01*
X600925Y15591D02*
X605575Y15591D01*
X605575Y17063D02*
X600925Y17063D01*
X600925Y18535D02*
X605575Y18535D01*
X605575Y20007D02*
X600925Y20007D01*
X600925Y21479D02*
X605575Y21479D01*
X613625Y22725D02*
X613625Y11175D01*
X613625Y22725D02*
X618275Y22725D01*
X618275Y11175D01*
X613625Y11175D01*
X613625Y12647D02*
X618275Y12647D01*
X618275Y14119D02*
X613625Y14119D01*
X613625Y15591D02*
X618275Y15591D01*
X618275Y17063D02*
X613625Y17063D01*
X613625Y18535D02*
X618275Y18535D01*
X618275Y20007D02*
X613625Y20007D01*
X613625Y21479D02*
X618275Y21479D01*
X626325Y22725D02*
X626325Y11175D01*
X626325Y22725D02*
X630975Y22725D01*
X630975Y11175D01*
X626325Y11175D01*
X626325Y12647D02*
X630975Y12647D01*
X630975Y14119D02*
X626325Y14119D01*
X626325Y15591D02*
X630975Y15591D01*
X630975Y17063D02*
X626325Y17063D01*
X626325Y18535D02*
X630975Y18535D01*
X630975Y20007D02*
X626325Y20007D01*
X626325Y21479D02*
X630975Y21479D01*
X639025Y22725D02*
X639025Y11175D01*
X639025Y22725D02*
X643675Y22725D01*
X643675Y11175D01*
X639025Y11175D01*
X639025Y12647D02*
X643675Y12647D01*
X643675Y14119D02*
X639025Y14119D01*
X639025Y15591D02*
X643675Y15591D01*
X643675Y17063D02*
X639025Y17063D01*
X639025Y18535D02*
X643675Y18535D01*
X643675Y20007D02*
X639025Y20007D01*
X639025Y21479D02*
X643675Y21479D01*
X651725Y22725D02*
X651725Y11175D01*
X651725Y22725D02*
X656375Y22725D01*
X656375Y11175D01*
X651725Y11175D01*
X651725Y12647D02*
X656375Y12647D01*
X656375Y14119D02*
X651725Y14119D01*
X651725Y15591D02*
X656375Y15591D01*
X656375Y17063D02*
X651725Y17063D01*
X651725Y18535D02*
X656375Y18535D01*
X656375Y20007D02*
X651725Y20007D01*
X651725Y21479D02*
X656375Y21479D01*
D25*
X553425Y89725D02*
X544775Y89725D01*
X553425Y89725D02*
X553425Y87775D01*
X544775Y87775D01*
X544775Y89725D01*
X544775Y89627D02*
X553425Y89627D01*
X553425Y96225D02*
X544775Y96225D01*
X553425Y96225D02*
X553425Y94275D01*
X544775Y94275D01*
X544775Y96225D01*
X544775Y96127D02*
X553425Y96127D01*
X553425Y102725D02*
X544775Y102725D01*
X553425Y102725D02*
X553425Y100775D01*
X544775Y100775D01*
X544775Y102725D01*
X544775Y102627D02*
X553425Y102627D01*
X534725Y102725D02*
X526075Y102725D01*
X534725Y102725D02*
X534725Y100775D01*
X526075Y100775D01*
X526075Y102725D01*
X526075Y102627D02*
X534725Y102627D01*
X534725Y96225D02*
X526075Y96225D01*
X534725Y96225D02*
X534725Y94275D01*
X526075Y94275D01*
X526075Y96225D01*
X526075Y96127D02*
X534725Y96127D01*
X534725Y89725D02*
X526075Y89725D01*
X534725Y89725D02*
X534725Y87775D01*
X526075Y87775D01*
X526075Y89725D01*
X526075Y89627D02*
X534725Y89627D01*
D20*
X219450Y564300D03*
X219450Y553300D03*
X237750Y553300D03*
X237750Y564300D03*
X263150Y292950D03*
X263150Y303950D03*
X244850Y303950D03*
X244850Y292950D03*
X161550Y292950D03*
X161550Y303950D03*
X143250Y303950D03*
X143250Y292950D03*
D13*
X575650Y209550D03*
X554650Y209550D03*
D10*
X33900Y584200D03*
X16900Y584200D03*
X135500Y584200D03*
X118500Y584200D03*
X237100Y584200D03*
X220100Y584200D03*
X338700Y584200D03*
X321700Y584200D03*
X440300Y584200D03*
X423300Y584200D03*
X541900Y584200D03*
X524900Y584200D03*
X643500Y584200D03*
X626500Y584200D03*
X745100Y584200D03*
X728100Y584200D03*
X855100Y273050D03*
X872100Y273050D03*
X753500Y273050D03*
X770500Y273050D03*
X651900Y273050D03*
X668900Y273050D03*
X550300Y273050D03*
X567300Y273050D03*
X448700Y273050D03*
X465700Y273050D03*
X347100Y273050D03*
X364100Y273050D03*
X245500Y273050D03*
X262500Y273050D03*
X143900Y273050D03*
X160900Y273050D03*
D14*
X375200Y76200D03*
X412200Y76200D03*
D26*
X677900Y749300D03*
X642900Y749300D03*
X246100Y749300D03*
X211100Y749300D03*
D27*
X213610Y698500D03*
X243590Y698500D03*
X645410Y698500D03*
X675390Y698500D03*
D13*
X162900Y749300D03*
X141900Y749300D03*
D11*
X160900Y698500D03*
X143900Y698500D03*
D13*
X747100Y749300D03*
X726100Y749300D03*
D11*
X745100Y698500D03*
X728100Y698500D03*
D28*
X675640Y52950D03*
X675640Y35950D03*
D11*
X328050Y120650D03*
X345050Y120650D03*
D29*
X445520Y67820D03*
X453520Y67820D03*
D30*
X475020Y67820D03*
X470020Y67820D03*
X465020Y67820D03*
X460020Y67820D03*
X480020Y67820D03*
X485020Y67820D03*
X490020Y67820D03*
X495020Y67820D03*
D29*
X501520Y67820D03*
X509520Y67820D03*
D16*
X412750Y33900D03*
X412750Y16900D03*
X539750Y33900D03*
X539750Y16900D03*
D10*
X91050Y101600D03*
X74050Y101600D03*
X201050Y44450D03*
X218050Y44450D03*
X201050Y196850D03*
X218050Y196850D03*
X243450Y101600D03*
X226450Y101600D03*
X707000Y228600D03*
X690000Y228600D03*
X709050Y114300D03*
X726050Y114300D03*
D31*
X812800Y636270D03*
X812800Y582930D03*
X838200Y636270D03*
X838200Y582930D03*
X863600Y636270D03*
X863600Y582930D03*
M02*
