%TF.GenerationSoftware,KiCad,Pcbnew,8.0.8*%
%TF.CreationDate,2025-03-20T15:54:22-03:00*%
%TF.ProjectId,nsec-badge-2025-panel,6e736563-2d62-4616-9467-652d32303235,rev?*%
%TF.SameCoordinates,Original*%
%TF.FileFunction,Paste,Bot*%
%TF.FilePolarity,Positive*%
%FSLAX46Y46*%
G04 Gerber Fmt 4.6, Leading zero omitted, Abs format (unit mm)*
G04 Created by KiCad (PCBNEW 8.0.8) date 2025-03-20 15:54:22*
%MOMM*%
%LPD*%
G01*
G04 APERTURE LIST*
G04 Aperture macros list*
%AMRoundRect*
0 Rectangle with rounded corners*
0 $1 Rounding radius*
0 $2 $3 $4 $5 $6 $7 $8 $9 X,Y pos of 4 corners*
0 Add a 4 corners polygon primitive as box body*
4,1,4,$2,$3,$4,$5,$6,$7,$8,$9,$2,$3,0*
0 Add four circle primitives for the rounded corners*
1,1,$1+$1,$2,$3*
1,1,$1+$1,$4,$5*
1,1,$1+$1,$6,$7*
1,1,$1+$1,$8,$9*
0 Add four rect primitives between the rounded corners*
20,1,$1+$1,$2,$3,$4,$5,0*
20,1,$1+$1,$4,$5,$6,$7,0*
20,1,$1+$1,$6,$7,$8,$9,0*
20,1,$1+$1,$8,$9,$2,$3,0*%
%AMFreePoly0*
4,1,9,0.499975,-0.599822,-0.050013,-0.599823,-0.050013,-0.199848,-0.500025,-0.199848,-0.500025,0.350191,-0.050013,0.350191,-0.050013,0.600178,0.499975,0.600178,0.499975,-0.599822,0.499975,-0.599822,$1*%
%AMFreePoly1*
4,1,5,0.349962,-0.599976,-0.350038,-0.599975,-0.350038,0.600025,0.349962,0.600025,0.349962,-0.599976,0.349962,-0.599976,$1*%
%AMFreePoly2*
4,1,5,0.224868,-0.600000,-0.225146,-0.600000,-0.225146,0.600000,0.224867,0.600000,0.224868,-0.600000,0.224868,-0.600000,$1*%
%AMFreePoly3*
4,1,9,0.050038,0.349784,0.500102,0.349835,0.500152,-0.200152,0.050114,-0.200127,0.050114,-0.600000,-0.499975,-0.600102,-0.499975,0.599848,0.050114,0.599898,0.050038,0.349784,0.050038,0.349784,$1*%
G04 Aperture macros list end*
%ADD10RoundRect,0.200000X0.200000X0.275000X-0.200000X0.275000X-0.200000X-0.275000X0.200000X-0.275000X0*%
%ADD11RoundRect,0.225000X0.225000X0.250000X-0.225000X0.250000X-0.225000X-0.250000X0.225000X-0.250000X0*%
%ADD12RoundRect,0.225000X-0.250000X0.225000X-0.250000X-0.225000X0.250000X-0.225000X0.250000X0.225000X0*%
%ADD13RoundRect,0.250001X-0.624999X0.462499X-0.624999X-0.462499X0.624999X-0.462499X0.624999X0.462499X0*%
%ADD14FreePoly0,150.000000*%
%ADD15FreePoly1,150.000000*%
%ADD16FreePoly2,150.000000*%
%ADD17FreePoly3,150.000000*%
%ADD18RoundRect,0.225000X-0.225000X-0.250000X0.225000X-0.250000X0.225000X0.250000X-0.225000X0.250000X0*%
%ADD19RoundRect,0.200000X0.275000X-0.200000X0.275000X0.200000X-0.275000X0.200000X-0.275000X-0.200000X0*%
%ADD20FreePoly0,180.000000*%
%ADD21FreePoly1,180.000000*%
%ADD22FreePoly2,180.000000*%
%ADD23FreePoly3,180.000000*%
%ADD24R,0.950013X1.150013*%
%ADD25RoundRect,0.200000X-0.275000X0.200000X-0.275000X-0.200000X0.275000X-0.200000X0.275000X0.200000X0*%
%ADD26RoundRect,0.250000X-0.250000X-0.475000X0.250000X-0.475000X0.250000X0.475000X-0.250000X0.475000X0*%
%ADD27FreePoly0,60.000000*%
%ADD28FreePoly1,60.000000*%
%ADD29FreePoly2,60.000000*%
%ADD30FreePoly3,60.000000*%
%ADD31FreePoly0,300.000000*%
%ADD32FreePoly1,300.000000*%
%ADD33FreePoly2,300.000000*%
%ADD34FreePoly3,300.000000*%
%ADD35RoundRect,0.200000X-0.200000X-0.275000X0.200000X-0.275000X0.200000X0.275000X-0.200000X0.275000X0*%
%ADD36R,1.500000X0.700000*%
%ADD37R,0.800000X1.000000*%
%ADD38RoundRect,0.225000X0.250000X-0.225000X0.250000X0.225000X-0.250000X0.225000X-0.250000X-0.225000X0*%
%ADD39FreePoly0,210.000000*%
%ADD40FreePoly1,210.000000*%
%ADD41FreePoly2,210.000000*%
%ADD42FreePoly3,210.000000*%
%ADD43R,1.000000X0.750013*%
%ADD44FreePoly0,0.000000*%
%ADD45FreePoly1,0.000000*%
%ADD46FreePoly2,0.000000*%
%ADD47FreePoly3,0.000000*%
%ADD48FreePoly0,90.000000*%
%ADD49FreePoly1,90.000000*%
%ADD50FreePoly2,90.000000*%
%ADD51FreePoly3,90.000000*%
%ADD52RoundRect,0.250000X0.250000X0.475000X-0.250000X0.475000X-0.250000X-0.475000X0.250000X-0.475000X0*%
%ADD53R,1.399543X1.000000*%
%ADD54FreePoly0,330.000000*%
%ADD55FreePoly1,330.000000*%
%ADD56FreePoly2,330.000000*%
%ADD57FreePoly3,330.000000*%
%ADD58FreePoly0,30.000000*%
%ADD59FreePoly1,30.000000*%
%ADD60FreePoly2,30.000000*%
%ADD61FreePoly3,30.000000*%
%ADD62FreePoly0,270.000000*%
%ADD63FreePoly1,270.000000*%
%ADD64FreePoly2,270.000000*%
%ADD65FreePoly3,270.000000*%
%ADD66FreePoly0,120.000000*%
%ADD67FreePoly1,120.000000*%
%ADD68FreePoly2,120.000000*%
%ADD69FreePoly3,120.000000*%
%ADD70RoundRect,0.250001X0.624999X-0.462499X0.624999X0.462499X-0.624999X0.462499X-0.624999X-0.462499X0*%
%ADD71R,0.622301X1.104902*%
%ADD72RoundRect,0.150000X0.150000X-0.587500X0.150000X0.587500X-0.150000X0.587500X-0.150000X-0.587500X0*%
%ADD73RoundRect,0.250000X0.475000X-0.250000X0.475000X0.250000X-0.475000X0.250000X-0.475000X-0.250000X0*%
%ADD74R,1.000000X2.000000*%
%ADD75R,0.700000X0.700000*%
%ADD76RoundRect,0.250000X-0.475000X0.250000X-0.475000X-0.250000X0.475000X-0.250000X0.475000X0.250000X0*%
%ADD77RoundRect,0.150000X-0.150000X0.587500X-0.150000X-0.587500X0.150000X-0.587500X0.150000X0.587500X0*%
%ADD78R,1.300000X0.300000*%
%ADD79FreePoly0,240.000000*%
%ADD80FreePoly1,240.000000*%
%ADD81FreePoly2,240.000000*%
%ADD82FreePoly3,240.000000*%
%ADD83R,0.350013X0.780010*%
G04 APERTURE END LIST*
D10*
%TO.C,R10*%
X114876027Y-212320000D03*
X113226027Y-212320000D03*
%TD*%
D11*
%TO.C,C5*%
X139026027Y-130120000D03*
X137476027Y-130120000D03*
%TD*%
D12*
%TO.C,C24*%
X79988479Y-238082535D03*
X79988479Y-239632535D03*
%TD*%
%TO.C,C21*%
X58638479Y-238057535D03*
X58638479Y-239607535D03*
%TD*%
D13*
%TO.C,F1*%
X81201000Y-44382500D03*
X81201000Y-47357500D03*
%TD*%
D14*
%TO.C,RGB6*%
X155954386Y-82559680D03*
D15*
X154772667Y-81906451D03*
D16*
X153939637Y-81425501D03*
D17*
X152878684Y-80813546D03*
%TD*%
D18*
%TO.C,C6*%
X156526013Y-117370000D03*
X158076013Y-117370000D03*
%TD*%
D11*
%TO.C,C14*%
X30776000Y-99370000D03*
X29226000Y-99370000D03*
%TD*%
D19*
%TO.C,R14*%
X171501013Y-95695000D03*
X171501013Y-94045000D03*
%TD*%
D10*
%TO.C,R6*%
X180826013Y-94370000D03*
X179176013Y-94370000D03*
%TD*%
D20*
%TO.C,RGB17*%
X116988491Y-13356855D03*
D21*
X115638478Y-13382001D03*
D22*
X114676578Y-13382001D03*
D23*
X113451788Y-13382509D03*
%TD*%
D19*
%TO.C,R7*%
X182501013Y-40295000D03*
X182501013Y-38645000D03*
%TD*%
D24*
%TO.C,D1*%
X167608622Y-178770000D03*
X170993432Y-178770000D03*
%TD*%
D25*
%TO.C,R9*%
X26506087Y-30945000D03*
X26506087Y-32595000D03*
%TD*%
D26*
%TO.C,C18*%
X108351027Y-150870000D03*
X110251027Y-150870000D03*
%TD*%
D27*
%TO.C,RGB3*%
X160811332Y-110323373D03*
D28*
X161464561Y-109141654D03*
D29*
X161945511Y-108308624D03*
D30*
X162557466Y-107247671D03*
%TD*%
D12*
%TO.C,C1*%
X174601027Y-150395000D03*
X174601027Y-151945000D03*
%TD*%
D31*
%TO.C,RGB5*%
X34446508Y-159285903D03*
D32*
X35143292Y-160442476D03*
D33*
X35624242Y-161275506D03*
D34*
X36237077Y-162335951D03*
%TD*%
D18*
%TO.C,C5*%
X149976013Y-119620000D03*
X151526013Y-119620000D03*
%TD*%
D35*
%TO.C,R5*%
X18077434Y-80370000D03*
X19727434Y-80370000D03*
%TD*%
D27*
%TO.C,RGB9*%
X68811334Y-162323373D03*
D28*
X69464563Y-161141654D03*
D29*
X69945513Y-160308624D03*
D30*
X70557468Y-159247671D03*
%TD*%
D12*
%TO.C,C10*%
X132401027Y-169295000D03*
X132401027Y-170845000D03*
%TD*%
D36*
%TO.C,KEY1*%
X11851038Y-98819936D03*
X11851038Y-95819936D03*
X11851038Y-94320064D03*
D37*
X10951114Y-100219987D03*
X10951114Y-92920013D03*
X8750962Y-92920013D03*
X8750962Y-100219987D03*
%TD*%
D19*
%TO.C,R9*%
X170495940Y-218795000D03*
X170495940Y-217145000D03*
%TD*%
D38*
%TO.C,C4*%
X113751027Y-153645000D03*
X113751027Y-152095000D03*
%TD*%
D18*
%TO.C,C12*%
X62126014Y-170770000D03*
X63676014Y-170770000D03*
%TD*%
D25*
%TO.C,R11*%
X14301014Y-213845000D03*
X14301014Y-215495000D03*
%TD*%
D39*
%TO.C,RGB8*%
X44110097Y-80790494D03*
D40*
X42953524Y-81487278D03*
D41*
X42120494Y-81968228D03*
D42*
X41060049Y-82581063D03*
%TD*%
D20*
%TO.C,RGB16*%
X124031976Y-13344587D03*
D21*
X122681963Y-13369733D03*
D22*
X121720063Y-13369733D03*
D23*
X120495273Y-13370241D03*
%TD*%
D20*
%TO.C,RGB1*%
X146241236Y-131008481D03*
D21*
X144891223Y-131033627D03*
D22*
X143929323Y-131033627D03*
D23*
X142704533Y-131034135D03*
%TD*%
D12*
%TO.C,C4*%
X83251000Y-96095000D03*
X83251000Y-97645000D03*
%TD*%
D18*
%TO.C,C15*%
X162726027Y-139270000D03*
X164276027Y-139270000D03*
%TD*%
D43*
%TO.C,SW4*%
X118751027Y-145520114D03*
X112751027Y-145520114D03*
X118751027Y-149219886D03*
X112751027Y-149219886D03*
%TD*%
D20*
%TO.C,RGB16*%
X32031963Y-13344587D03*
D21*
X30681950Y-13369733D03*
D22*
X29720050Y-13369733D03*
D23*
X28495260Y-13370241D03*
%TD*%
D20*
%TO.C,RGB18*%
X18031963Y-13344587D03*
D21*
X16681950Y-13369733D03*
D22*
X15720050Y-13369733D03*
D23*
X14495260Y-13370241D03*
%TD*%
D19*
%TO.C,R11*%
X90701000Y-35895000D03*
X90701000Y-34245000D03*
%TD*%
D25*
%TO.C,R8*%
X183313013Y-24817000D03*
X183313013Y-26467000D03*
%TD*%
D44*
%TO.C,RGB15*%
X158013549Y-236383145D03*
D45*
X159363562Y-236357999D03*
D46*
X160325462Y-236357999D03*
D47*
X161550252Y-236357491D03*
%TD*%
D39*
%TO.C,RGB8*%
X136110110Y-80790494D03*
D40*
X134953537Y-81487278D03*
D41*
X134120507Y-81968228D03*
D42*
X133060062Y-82581063D03*
%TD*%
D38*
%TO.C,C11*%
X54001000Y-77395000D03*
X54001000Y-75845000D03*
%TD*%
D48*
%TO.C,RGB4*%
X164362531Y-100710208D03*
D49*
X164337385Y-99360195D03*
D50*
X164337385Y-98398295D03*
D51*
X164336877Y-97173505D03*
%TD*%
D12*
%TO.C,C3*%
X88267675Y-150395267D03*
X88267675Y-151945267D03*
%TD*%
D52*
%TO.C,C18*%
X88651000Y-98870000D03*
X86751000Y-98870000D03*
%TD*%
D44*
%TO.C,RGB18*%
X86970051Y-236395413D03*
D45*
X88320064Y-236370267D03*
D46*
X89281964Y-236370267D03*
D47*
X90506754Y-236369759D03*
%TD*%
D35*
%TO.C,R6*%
X16176014Y-155370000D03*
X17826014Y-155370000D03*
%TD*%
D53*
%TO.C,LED2*%
X106601013Y-104519708D03*
X106601013Y-106620292D03*
%TD*%
D54*
%TO.C,RGB6*%
X41047641Y-167180320D03*
D55*
X42229360Y-167833549D03*
D56*
X43062390Y-168314499D03*
D57*
X44123343Y-168926454D03*
%TD*%
D25*
%TO.C,R1*%
X119601013Y-95145000D03*
X119601013Y-96795000D03*
%TD*%
D44*
%TO.C,RGB15*%
X66013536Y-236383145D03*
D45*
X67363549Y-236357999D03*
D46*
X68325449Y-236357999D03*
D47*
X69550239Y-236357491D03*
%TD*%
D58*
%TO.C,RGB2*%
X152891915Y-116949507D03*
D59*
X154048488Y-116252723D03*
D60*
X154881518Y-115771773D03*
D61*
X155941963Y-115158938D03*
%TD*%
D25*
%TO.C,R1*%
X27601000Y-95145000D03*
X27601000Y-96795000D03*
%TD*%
D62*
%TO.C,RGB10*%
X32638122Y-97120000D03*
D63*
X32663268Y-98470013D03*
D64*
X32663268Y-99431913D03*
D65*
X32663776Y-100656703D03*
%TD*%
D11*
%TO.C,C13*%
X127026013Y-85120000D03*
X125476013Y-85120000D03*
%TD*%
D54*
%TO.C,RGB6*%
X133047654Y-167180320D03*
D55*
X134229373Y-167833549D03*
D56*
X135062403Y-168314499D03*
D57*
X136123356Y-168926454D03*
%TD*%
D53*
%TO.C,LED1*%
X92801014Y-145220292D03*
X92801014Y-143119708D03*
%TD*%
D12*
%TO.C,C23*%
X164988492Y-237982535D03*
X164988492Y-239532535D03*
%TD*%
D38*
%TO.C,C20*%
X145013548Y-11882465D03*
X145013548Y-10332465D03*
%TD*%
D11*
%TO.C,C16*%
X39501000Y-116620000D03*
X37951000Y-116620000D03*
%TD*%
%TO.C,C15*%
X126276013Y-110470000D03*
X124726013Y-110470000D03*
%TD*%
D66*
%TO.C,RGB11*%
X70555521Y-142454098D03*
D67*
X69858737Y-141297525D03*
D68*
X69377787Y-140464495D03*
D69*
X68764952Y-139404050D03*
%TD*%
D24*
%TO.C,D2*%
X75608609Y-176270000D03*
X78993419Y-176270000D03*
%TD*%
D12*
%TO.C,C23*%
X72988479Y-237982535D03*
X72988479Y-239532535D03*
%TD*%
D18*
%TO.C,C5*%
X57976000Y-119620000D03*
X59526000Y-119620000D03*
%TD*%
D38*
%TO.C,C25*%
X18013535Y-11632465D03*
X18013535Y-10082465D03*
%TD*%
D18*
%TO.C,C6*%
X64526000Y-117370000D03*
X66076000Y-117370000D03*
%TD*%
D25*
%TO.C,R2*%
X104251013Y-108945000D03*
X104251013Y-110595000D03*
%TD*%
D31*
%TO.C,RGB11*%
X126446506Y-107285902D03*
D32*
X127143290Y-108442475D03*
D33*
X127624240Y-109275505D03*
D34*
X128237075Y-110335950D03*
%TD*%
D11*
%TO.C,C17*%
X175726013Y-35920000D03*
X174176013Y-35920000D03*
%TD*%
D38*
%TO.C,C3*%
X16734339Y-99344733D03*
X16734339Y-97794733D03*
%TD*%
D12*
%TO.C,C7*%
X164501013Y-108345000D03*
X164501013Y-109895000D03*
%TD*%
D25*
%TO.C,R11*%
X106301027Y-213845000D03*
X106301027Y-215495000D03*
%TD*%
%TO.C,R8*%
X91313000Y-24817000D03*
X91313000Y-26467000D03*
%TD*%
D48*
%TO.C,RGB4*%
X72362518Y-100710208D03*
D49*
X72337372Y-99360195D03*
D50*
X72337372Y-98398295D03*
D51*
X72336864Y-97173505D03*
%TD*%
D18*
%TO.C,C14*%
X166226027Y-150370000D03*
X167776027Y-150370000D03*
%TD*%
D43*
%TO.C,SW4*%
X170251013Y-104219886D03*
X176251013Y-104219886D03*
X170251013Y-100520114D03*
X176251013Y-100520114D03*
%TD*%
D18*
%TO.C,C14*%
X74226014Y-150370000D03*
X75776014Y-150370000D03*
%TD*%
D11*
%TO.C,C14*%
X122776013Y-99370000D03*
X121226013Y-99370000D03*
%TD*%
D18*
%TO.C,C13*%
X69976014Y-164620000D03*
X71526014Y-164620000D03*
%TD*%
D38*
%TO.C,C10*%
X64601000Y-80445000D03*
X64601000Y-78895000D03*
%TD*%
%TO.C,C21*%
X138363548Y-11682465D03*
X138363548Y-10132465D03*
%TD*%
D70*
%TO.C,F1*%
X115801027Y-205357500D03*
X115801027Y-202382500D03*
%TD*%
D66*
%TO.C,RGB5*%
X162555519Y-90454097D03*
D67*
X161858735Y-89297524D03*
D68*
X161377785Y-88464494D03*
D69*
X160764950Y-87404049D03*
%TD*%
D20*
%TO.C,RGB1*%
X54241223Y-131008481D03*
D21*
X52891210Y-131033627D03*
D22*
X51929310Y-131033627D03*
D23*
X50704520Y-131034135D03*
%TD*%
D20*
%TO.C,RGB17*%
X24988478Y-13356855D03*
D21*
X23638465Y-13382001D03*
D22*
X22676565Y-13382001D03*
D23*
X21451775Y-13382509D03*
%TD*%
D10*
%TO.C,R6*%
X88826000Y-94370000D03*
X87176000Y-94370000D03*
%TD*%
D12*
%TO.C,C21*%
X150638492Y-238057535D03*
X150638492Y-239607535D03*
%TD*%
D71*
%TO.C,U6*%
X117051280Y-99670025D03*
X118000480Y-99670025D03*
X118950695Y-99670025D03*
X118950695Y-102269975D03*
X117051280Y-102269975D03*
%TD*%
D52*
%TO.C,C18*%
X180651013Y-98870000D03*
X178751013Y-98870000D03*
%TD*%
D53*
%TO.C,LED1*%
X104201013Y-104519708D03*
X104201013Y-106620292D03*
%TD*%
D72*
%TO.C,Q1*%
X180651013Y-36557500D03*
X178751013Y-36557500D03*
X179701013Y-34682500D03*
%TD*%
D19*
%TO.C,R2*%
X184751027Y-140795000D03*
X184751027Y-139145000D03*
%TD*%
D14*
%TO.C,RGB12*%
X63954387Y-134559681D03*
D15*
X62772668Y-133906452D03*
D16*
X61939638Y-133425502D03*
D17*
X60878685Y-132813547D03*
%TD*%
D26*
%TO.C,C19*%
X108351027Y-153370000D03*
X110251027Y-153370000D03*
%TD*%
D11*
%TO.C,C8*%
X122776027Y-152620000D03*
X121226027Y-152620000D03*
%TD*%
%TO.C,C16*%
X131501013Y-116620000D03*
X129951013Y-116620000D03*
%TD*%
D14*
%TO.C,RGB6*%
X63954373Y-82559680D03*
D15*
X62772654Y-81906451D03*
D16*
X61939624Y-81425501D03*
D17*
X60878671Y-80813546D03*
%TD*%
D38*
%TO.C,C23*%
X124013548Y-11757465D03*
X124013548Y-10207465D03*
%TD*%
D11*
%TO.C,C17*%
X83726000Y-35920000D03*
X82176000Y-35920000D03*
%TD*%
D27*
%TO.C,RGB9*%
X160811347Y-162323373D03*
D28*
X161464576Y-161141654D03*
D29*
X161945526Y-160308624D03*
D30*
X162557481Y-159247671D03*
%TD*%
D12*
%TO.C,C11*%
X51001014Y-172345000D03*
X51001014Y-173895000D03*
%TD*%
D38*
%TO.C,C1*%
X22401000Y-99345000D03*
X22401000Y-97795000D03*
%TD*%
D43*
%TO.C,SW4*%
X78251000Y-104219886D03*
X84251000Y-104219886D03*
X78251000Y-100520114D03*
X84251000Y-100520114D03*
%TD*%
D18*
%TO.C,C12*%
X154126027Y-170770000D03*
X155676027Y-170770000D03*
%TD*%
D39*
%TO.C,RGB2*%
X136110125Y-132790493D03*
D40*
X134953552Y-133487277D03*
D41*
X134120522Y-133968227D03*
D42*
X133060077Y-134581062D03*
%TD*%
D24*
%TO.C,D1*%
X29393405Y-70970000D03*
X26008595Y-70970000D03*
%TD*%
D12*
%TO.C,C25*%
X86988479Y-238107535D03*
X86988479Y-239657535D03*
%TD*%
D44*
%TO.C,RGB17*%
X80013536Y-236383145D03*
D45*
X81363549Y-236357999D03*
D46*
X82325449Y-236357999D03*
D47*
X83550239Y-236357491D03*
%TD*%
D18*
%TO.C,C8*%
X166226013Y-97120000D03*
X167776013Y-97120000D03*
%TD*%
D12*
%TO.C,C22*%
X65938479Y-238082535D03*
X65938479Y-239632535D03*
%TD*%
D58*
%TO.C,RGB8*%
X60891917Y-168949506D03*
D59*
X62048490Y-168252722D03*
D60*
X62881520Y-167771772D03*
D61*
X63941965Y-167158937D03*
%TD*%
D38*
%TO.C,C3*%
X108734352Y-99344733D03*
X108734352Y-97794733D03*
%TD*%
D19*
%TO.C,R8*%
X105689027Y-224923000D03*
X105689027Y-223273000D03*
%TD*%
D12*
%TO.C,C7*%
X72501000Y-108345000D03*
X72501000Y-109895000D03*
%TD*%
D73*
%TO.C,C2*%
X19413815Y-99819733D03*
X19413815Y-97919733D03*
%TD*%
D53*
%TO.C,LED1*%
X184801027Y-145220292D03*
X184801027Y-143119708D03*
%TD*%
D71*
%TO.C,U6*%
X25051267Y-99670025D03*
X26000467Y-99670025D03*
X26950682Y-99670025D03*
X26950682Y-102269975D03*
X25051267Y-102269975D03*
%TD*%
D10*
%TO.C,R12*%
X18926014Y-209620000D03*
X17276014Y-209620000D03*
%TD*%
D11*
%TO.C,C6*%
X132476027Y-132370000D03*
X130926027Y-132370000D03*
%TD*%
D10*
%TO.C,R4*%
X175924593Y-163369936D03*
X174274593Y-163369936D03*
%TD*%
D26*
%TO.C,C19*%
X16351014Y-153370000D03*
X18251014Y-153370000D03*
%TD*%
D20*
%TO.C,RGB13*%
X145031976Y-13344587D03*
D21*
X143681963Y-13369733D03*
D22*
X142720063Y-13369733D03*
D23*
X141495273Y-13370241D03*
%TD*%
D38*
%TO.C,C21*%
X46363535Y-11682465D03*
X46363535Y-10132465D03*
%TD*%
D35*
%TO.C,R4*%
X113077447Y-86370064D03*
X114727447Y-86370064D03*
%TD*%
D11*
%TO.C,C13*%
X35026000Y-85120000D03*
X33476000Y-85120000D03*
%TD*%
D38*
%TO.C,C7*%
X32501014Y-141395000D03*
X32501014Y-139845000D03*
%TD*%
D74*
%TO.C,U1*%
X15701039Y-158720038D03*
X17200912Y-158720038D03*
X18701039Y-158720038D03*
X20200912Y-158720038D03*
X21701039Y-158720038D03*
X23200912Y-158720038D03*
X24701039Y-158720038D03*
X26200912Y-158720038D03*
X27701039Y-158720038D03*
X27701039Y-176220166D03*
X26200912Y-176220166D03*
X24701039Y-176220166D03*
X23200912Y-176220166D03*
X21701039Y-176220166D03*
X20200912Y-176220166D03*
X18701039Y-176220166D03*
X17200912Y-176220166D03*
X15701039Y-176220166D03*
D75*
X23001014Y-167330148D03*
X21900937Y-167330148D03*
X20800861Y-167330148D03*
X23001014Y-168429970D03*
X21900937Y-168429970D03*
X20800861Y-168429970D03*
X23001014Y-169530046D03*
X21900937Y-169530046D03*
X20800861Y-169530046D03*
%TD*%
D48*
%TO.C,RGB10*%
X72363892Y-152620000D03*
D49*
X72338746Y-151269987D03*
D50*
X72338746Y-150308087D03*
D51*
X72338238Y-149083297D03*
%TD*%
D53*
%TO.C,LED2*%
X182401027Y-145220292D03*
X182401027Y-143119708D03*
%TD*%
D20*
%TO.C,RGB15*%
X130988491Y-13356855D03*
D21*
X129638478Y-13382001D03*
D22*
X128676578Y-13382001D03*
D23*
X127451788Y-13382509D03*
%TD*%
D38*
%TO.C,C24*%
X117013548Y-11657465D03*
X117013548Y-10107465D03*
%TD*%
D12*
%TO.C,C4*%
X175251013Y-96095000D03*
X175251013Y-97645000D03*
%TD*%
D11*
%TO.C,C8*%
X30776014Y-152620000D03*
X29226014Y-152620000D03*
%TD*%
D66*
%TO.C,RGB5*%
X70555506Y-90454097D03*
D67*
X69858722Y-89297524D03*
D68*
X69377772Y-88464494D03*
D69*
X68764937Y-87404049D03*
%TD*%
D38*
%TO.C,C20*%
X53013535Y-11882465D03*
X53013535Y-10332465D03*
%TD*%
D24*
%TO.C,D2*%
X121393418Y-73470000D03*
X118008608Y-73470000D03*
%TD*%
D11*
%TO.C,C9*%
X32526014Y-160120000D03*
X30976014Y-160120000D03*
%TD*%
D10*
%TO.C,R10*%
X22876014Y-212320000D03*
X21226014Y-212320000D03*
%TD*%
D76*
%TO.C,C2*%
X85588199Y-149920267D03*
X85588199Y-151820267D03*
%TD*%
D44*
%TO.C,RGB1*%
X50760791Y-118731519D03*
D45*
X52110804Y-118706373D03*
D46*
X53072704Y-118706373D03*
D47*
X54297494Y-118705865D03*
%TD*%
D54*
%TO.C,RGB12*%
X41047627Y-115180319D03*
D55*
X42229346Y-115833548D03*
D56*
X43062376Y-116314498D03*
D57*
X44123329Y-116926453D03*
%TD*%
D27*
%TO.C,RGB3*%
X68811319Y-110323373D03*
D28*
X69464548Y-109141654D03*
D29*
X69945498Y-108308624D03*
D30*
X70557453Y-107247671D03*
%TD*%
D38*
%TO.C,C10*%
X156601013Y-80445000D03*
X156601013Y-78895000D03*
%TD*%
%TO.C,C25*%
X110013548Y-11632465D03*
X110013548Y-10082465D03*
%TD*%
D77*
%TO.C,Q1*%
X108351027Y-213182500D03*
X110251027Y-213182500D03*
X109301027Y-215057500D03*
%TD*%
D44*
%TO.C,RGB13*%
X143970064Y-236395413D03*
D45*
X145320077Y-236370267D03*
D46*
X146281977Y-236370267D03*
D47*
X147506767Y-236369759D03*
%TD*%
D12*
%TO.C,C20*%
X51988479Y-237857535D03*
X51988479Y-239407535D03*
%TD*%
D35*
%TO.C,R13*%
X178076013Y-42095000D03*
X179726013Y-42095000D03*
%TD*%
D74*
%TO.C,U1*%
X181300988Y-91019962D03*
X179801115Y-91019962D03*
X178300988Y-91019962D03*
X176801115Y-91019962D03*
X175300988Y-91019962D03*
X173801115Y-91019962D03*
X172300988Y-91019962D03*
X170801115Y-91019962D03*
X169300988Y-91019962D03*
X169300988Y-73519834D03*
X170801115Y-73519834D03*
X172300988Y-73519834D03*
X173801115Y-73519834D03*
X175300988Y-73519834D03*
X176801115Y-73519834D03*
X178300988Y-73519834D03*
X179801115Y-73519834D03*
X181300988Y-73519834D03*
D75*
X174001013Y-82409852D03*
X175101090Y-82409852D03*
X176201166Y-82409852D03*
X174001013Y-81310030D03*
X175101090Y-81310030D03*
X176201166Y-81310030D03*
X174001013Y-80209954D03*
X175101090Y-80209954D03*
X176201166Y-80209954D03*
%TD*%
D78*
%TO.C,U2*%
X15850618Y-88470013D03*
X15850618Y-87669911D03*
X15850618Y-86369936D03*
X15850618Y-85369936D03*
X15850618Y-84870064D03*
X15850618Y-83870318D03*
X15850618Y-82570000D03*
X15850618Y-81769987D03*
X15850618Y-82069962D03*
X15850618Y-82870000D03*
X15850618Y-83369936D03*
X15850618Y-84369936D03*
X15850618Y-85870064D03*
X15850618Y-86870064D03*
X15850618Y-87369936D03*
X15850618Y-88170038D03*
%TD*%
D31*
%TO.C,RGB5*%
X126446521Y-159285903D03*
D32*
X127143305Y-160442476D03*
D33*
X127624255Y-161275506D03*
D34*
X128237090Y-162335951D03*
%TD*%
D11*
%TO.C,C15*%
X34276000Y-110470000D03*
X32726000Y-110470000D03*
%TD*%
D12*
%TO.C,C24*%
X171988492Y-238082535D03*
X171988492Y-239632535D03*
%TD*%
D13*
%TO.C,F1*%
X173201013Y-44382500D03*
X173201013Y-47357500D03*
%TD*%
D18*
%TO.C,C9*%
X164476013Y-89620000D03*
X166026013Y-89620000D03*
%TD*%
D12*
%TO.C,C22*%
X157938492Y-238082535D03*
X157938492Y-239632535D03*
%TD*%
D58*
%TO.C,RGB2*%
X60891902Y-116949507D03*
D59*
X62048475Y-116252723D03*
D60*
X62881505Y-115771773D03*
D61*
X63941950Y-115158938D03*
%TD*%
D14*
%TO.C,RGB12*%
X155954400Y-134559681D03*
D15*
X154772681Y-133906452D03*
D16*
X153939651Y-133425502D03*
D17*
X152878698Y-132813547D03*
%TD*%
D71*
%TO.C,U6*%
X79950747Y-150069975D03*
X79001547Y-150069975D03*
X78051332Y-150069975D03*
X78051332Y-147470025D03*
X79950747Y-147470025D03*
%TD*%
D72*
%TO.C,Q1*%
X88651000Y-36557500D03*
X86751000Y-36557500D03*
X87701000Y-34682500D03*
%TD*%
D35*
%TO.C,R5*%
X110077447Y-80370000D03*
X111727447Y-80370000D03*
%TD*%
D19*
%TO.C,R1*%
X77401014Y-154595000D03*
X77401014Y-152945000D03*
%TD*%
D18*
%TO.C,C13*%
X161976027Y-164620000D03*
X163526027Y-164620000D03*
%TD*%
D19*
%TO.C,R1*%
X169401027Y-154595000D03*
X169401027Y-152945000D03*
%TD*%
D25*
%TO.C,R14*%
X117501027Y-154045000D03*
X117501027Y-155695000D03*
%TD*%
D18*
%TO.C,C16*%
X65501014Y-133120000D03*
X67051014Y-133120000D03*
%TD*%
D11*
%TO.C,C12*%
X134876013Y-78970000D03*
X133326013Y-78970000D03*
%TD*%
D20*
%TO.C,RGB7*%
X146262926Y-79019854D03*
D21*
X144912913Y-79045000D03*
D22*
X143951013Y-79045000D03*
D23*
X142726223Y-79045508D03*
%TD*%
D39*
%TO.C,RGB2*%
X44110112Y-132790493D03*
D40*
X42953539Y-133487277D03*
D41*
X42120509Y-133968227D03*
D42*
X41060064Y-134581062D03*
%TD*%
D79*
%TO.C,RGB3*%
X36190695Y-139416627D03*
D80*
X35537466Y-140598346D03*
D81*
X35056516Y-141431376D03*
D82*
X34444561Y-142492329D03*
%TD*%
D12*
%TO.C,C3*%
X180267688Y-150395267D03*
X180267688Y-151945267D03*
%TD*%
D38*
%TO.C,C22*%
X131063548Y-11657465D03*
X131063548Y-10107465D03*
%TD*%
%TO.C,C4*%
X21751014Y-153645000D03*
X21751014Y-152095000D03*
%TD*%
D12*
%TO.C,C25*%
X178988492Y-238107535D03*
X178988492Y-239657535D03*
%TD*%
D35*
%TO.C,R10*%
X174126013Y-37420000D03*
X175776013Y-37420000D03*
%TD*%
D10*
%TO.C,R13*%
X18926014Y-207645000D03*
X17276014Y-207645000D03*
%TD*%
D35*
%TO.C,R12*%
X178076013Y-40120000D03*
X179726013Y-40120000D03*
%TD*%
D83*
%TO.C,U3*%
X80901001Y-171859992D03*
X80251014Y-171859992D03*
X79601027Y-171859992D03*
X79601027Y-169880008D03*
X80251014Y-169880008D03*
X80901001Y-169880008D03*
%TD*%
D35*
%TO.C,R13*%
X86076000Y-42095000D03*
X87726000Y-42095000D03*
%TD*%
D19*
%TO.C,R7*%
X90501000Y-40295000D03*
X90501000Y-38645000D03*
%TD*%
D52*
%TO.C,C19*%
X88651000Y-96370000D03*
X86751000Y-96370000D03*
%TD*%
D71*
%TO.C,U6*%
X171950760Y-150069975D03*
X171001560Y-150069975D03*
X170051345Y-150069975D03*
X170051345Y-147470025D03*
X171950760Y-147470025D03*
%TD*%
D18*
%TO.C,C17*%
X21276014Y-213820000D03*
X22826014Y-213820000D03*
%TD*%
D44*
%TO.C,RGB7*%
X50739101Y-170720146D03*
D45*
X52089114Y-170695000D03*
D46*
X53051014Y-170695000D03*
D47*
X54275804Y-170694492D03*
%TD*%
D19*
%TO.C,R9*%
X78495927Y-218795000D03*
X78495927Y-217145000D03*
%TD*%
D18*
%TO.C,C15*%
X70726014Y-139270000D03*
X72276014Y-139270000D03*
%TD*%
D20*
%TO.C,RGB15*%
X38988478Y-13356855D03*
D21*
X37638465Y-13382001D03*
D22*
X36676565Y-13382001D03*
D23*
X35451775Y-13382509D03*
%TD*%
D20*
%TO.C,RGB13*%
X53031963Y-13344587D03*
D21*
X51681950Y-13369733D03*
D22*
X50720050Y-13369733D03*
D23*
X49495260Y-13370241D03*
%TD*%
D35*
%TO.C,R12*%
X86076000Y-40120000D03*
X87726000Y-40120000D03*
%TD*%
D38*
%TO.C,C23*%
X32013535Y-11757465D03*
X32013535Y-10207465D03*
%TD*%
D53*
%TO.C,LED2*%
X14601000Y-104519708D03*
X14601000Y-106620292D03*
%TD*%
D20*
%TO.C,RGB14*%
X138070076Y-13344587D03*
D21*
X136720063Y-13369733D03*
D22*
X135758163Y-13369733D03*
D23*
X134533373Y-13370241D03*
%TD*%
D38*
%TO.C,C24*%
X25013535Y-11657465D03*
X25013535Y-10107465D03*
%TD*%
D25*
%TO.C,R7*%
X106501027Y-209445000D03*
X106501027Y-211095000D03*
%TD*%
D44*
%TO.C,RGB7*%
X142739114Y-170720146D03*
D45*
X144089127Y-170695000D03*
D46*
X145051027Y-170695000D03*
D47*
X146275817Y-170694492D03*
%TD*%
D74*
%TO.C,U1*%
X107701052Y-158720038D03*
X109200925Y-158720038D03*
X110701052Y-158720038D03*
X112200925Y-158720038D03*
X113701052Y-158720038D03*
X115200925Y-158720038D03*
X116701052Y-158720038D03*
X118200925Y-158720038D03*
X119701052Y-158720038D03*
X119701052Y-176220166D03*
X118200925Y-176220166D03*
X116701052Y-176220166D03*
X115200925Y-176220166D03*
X113701052Y-176220166D03*
X112200925Y-176220166D03*
X110701052Y-176220166D03*
X109200925Y-176220166D03*
X107701052Y-176220166D03*
D75*
X115001027Y-167330148D03*
X113900950Y-167330148D03*
X112800874Y-167330148D03*
X115001027Y-168429970D03*
X113900950Y-168429970D03*
X112800874Y-168429970D03*
X115001027Y-169530046D03*
X113900950Y-169530046D03*
X112800874Y-169530046D03*
%TD*%
D24*
%TO.C,D1*%
X75608609Y-178770000D03*
X78993419Y-178770000D03*
%TD*%
D83*
%TO.C,U3*%
X24101013Y-77880008D03*
X24751000Y-77880008D03*
X25400987Y-77880008D03*
X25400987Y-79859992D03*
X24751000Y-79859992D03*
X24101013Y-79859992D03*
%TD*%
D19*
%TO.C,R11*%
X182701013Y-35895000D03*
X182701013Y-34245000D03*
%TD*%
D25*
%TO.C,R9*%
X118506100Y-30945000D03*
X118506100Y-32595000D03*
%TD*%
D31*
%TO.C,RGB11*%
X34446493Y-107285902D03*
D32*
X35143277Y-108442475D03*
D33*
X35624227Y-109275505D03*
D34*
X36237062Y-110335950D03*
%TD*%
D25*
%TO.C,R3*%
X14651000Y-108945000D03*
X14651000Y-110595000D03*
%TD*%
D76*
%TO.C,C2*%
X177588212Y-149920267D03*
X177588212Y-151820267D03*
%TD*%
D83*
%TO.C,U3*%
X172901014Y-171859992D03*
X172251027Y-171859992D03*
X171601040Y-171859992D03*
X171601040Y-169880008D03*
X172251027Y-169880008D03*
X172901014Y-169880008D03*
%TD*%
D44*
%TO.C,RGB17*%
X172013549Y-236383145D03*
D45*
X173363562Y-236357999D03*
D46*
X174325462Y-236357999D03*
D47*
X175550252Y-236357491D03*
%TD*%
D12*
%TO.C,C20*%
X143988492Y-237857535D03*
X143988492Y-239407535D03*
%TD*%
D26*
%TO.C,C18*%
X16351014Y-150870000D03*
X18251014Y-150870000D03*
%TD*%
D11*
%TO.C,C5*%
X47026014Y-130120000D03*
X45476014Y-130120000D03*
%TD*%
D44*
%TO.C,RGB14*%
X150931964Y-236395413D03*
D45*
X152281977Y-236370267D03*
D46*
X153243877Y-236370267D03*
D47*
X154468667Y-236369759D03*
%TD*%
D70*
%TO.C,F1*%
X23801014Y-205357500D03*
X23801014Y-202382500D03*
%TD*%
D25*
%TO.C,R14*%
X25501014Y-154045000D03*
X25501014Y-155695000D03*
%TD*%
D38*
%TO.C,C22*%
X39063535Y-11657465D03*
X39063535Y-10107465D03*
%TD*%
D35*
%TO.C,R4*%
X21077434Y-86370064D03*
X22727434Y-86370064D03*
%TD*%
D77*
%TO.C,Q1*%
X16351014Y-213182500D03*
X18251014Y-213182500D03*
X17301014Y-215057500D03*
%TD*%
D48*
%TO.C,RGB10*%
X164363905Y-152620000D03*
D49*
X164338759Y-151269987D03*
D50*
X164338759Y-150308087D03*
D51*
X164338251Y-149083297D03*
%TD*%
D10*
%TO.C,R5*%
X178924593Y-169370000D03*
X177274593Y-169370000D03*
%TD*%
D36*
%TO.C,KEY1*%
X93150976Y-150920064D03*
X93150976Y-153920064D03*
X93150976Y-155419936D03*
D37*
X94050900Y-149520013D03*
X94050900Y-156819987D03*
X96251052Y-156819987D03*
X96251052Y-149520013D03*
%TD*%
D12*
%TO.C,C10*%
X40401014Y-169295000D03*
X40401014Y-170845000D03*
%TD*%
D44*
%TO.C,RGB14*%
X58931951Y-236395413D03*
D45*
X60281964Y-236370267D03*
D46*
X61243864Y-236370267D03*
D47*
X62468654Y-236369759D03*
%TD*%
D79*
%TO.C,RGB9*%
X36190680Y-87416627D03*
D80*
X35537451Y-88598346D03*
D81*
X35056501Y-89431376D03*
D82*
X34444546Y-90492329D03*
%TD*%
D18*
%TO.C,C9*%
X72476000Y-89620000D03*
X74026000Y-89620000D03*
%TD*%
D24*
%TO.C,D2*%
X29393405Y-73470000D03*
X26008595Y-73470000D03*
%TD*%
D78*
%TO.C,U2*%
X181151409Y-161269987D03*
X181151409Y-162070089D03*
X181151409Y-163370064D03*
X181151409Y-164370064D03*
X181151409Y-164869936D03*
X181151409Y-165869682D03*
X181151409Y-167170000D03*
X181151409Y-167970013D03*
X181151409Y-167670038D03*
X181151409Y-166870000D03*
X181151409Y-166370064D03*
X181151409Y-165370064D03*
X181151409Y-163869936D03*
X181151409Y-162869936D03*
X181151409Y-162370064D03*
X181151409Y-161569962D03*
%TD*%
D62*
%TO.C,RGB4*%
X124639509Y-149029792D03*
D63*
X124664655Y-150379805D03*
D64*
X124664655Y-151341705D03*
D65*
X124665163Y-152566495D03*
%TD*%
D19*
%TO.C,R3*%
X90351014Y-140795000D03*
X90351014Y-139145000D03*
%TD*%
D52*
%TO.C,C19*%
X180651013Y-96370000D03*
X178751013Y-96370000D03*
%TD*%
D20*
%TO.C,RGB7*%
X54262913Y-79019854D03*
D21*
X52912900Y-79045000D03*
D22*
X51951000Y-79045000D03*
D23*
X50726210Y-79045508D03*
%TD*%
D83*
%TO.C,U3*%
X116101026Y-77880008D03*
X116751013Y-77880008D03*
X117401000Y-77880008D03*
X117401000Y-79859992D03*
X116751013Y-79859992D03*
X116101026Y-79859992D03*
%TD*%
D11*
%TO.C,C12*%
X42876000Y-78970000D03*
X41326000Y-78970000D03*
%TD*%
D44*
%TO.C,RGB16*%
X72970051Y-236395413D03*
D45*
X74320064Y-236370267D03*
D46*
X75281964Y-236370267D03*
D47*
X76506754Y-236369759D03*
%TD*%
D44*
%TO.C,RGB1*%
X142760804Y-118731519D03*
D45*
X144110817Y-118706373D03*
D46*
X145072717Y-118706373D03*
D47*
X146297507Y-118705865D03*
%TD*%
D36*
%TO.C,KEY1*%
X185150989Y-150920064D03*
X185150989Y-153920064D03*
X185150989Y-155419936D03*
D37*
X186050913Y-149520013D03*
X186050913Y-156819987D03*
X188251065Y-156819987D03*
X188251065Y-149520013D03*
%TD*%
D12*
%TO.C,C1*%
X82601014Y-150395000D03*
X82601014Y-151945000D03*
%TD*%
D18*
%TO.C,C17*%
X113276027Y-213820000D03*
X114826027Y-213820000D03*
%TD*%
D25*
%TO.C,R2*%
X12251000Y-108945000D03*
X12251000Y-110595000D03*
%TD*%
D38*
%TO.C,C1*%
X114401013Y-99345000D03*
X114401013Y-97795000D03*
%TD*%
D53*
%TO.C,LED1*%
X12201000Y-104519708D03*
X12201000Y-106620292D03*
%TD*%
D62*
%TO.C,RGB4*%
X32639496Y-149029792D03*
D63*
X32664642Y-150379805D03*
D64*
X32664642Y-151341705D03*
D65*
X32665150Y-152566495D03*
%TD*%
D43*
%TO.C,SW4*%
X26751014Y-145520114D03*
X20751014Y-145520114D03*
X26751014Y-149219886D03*
X20751014Y-149219886D03*
%TD*%
D12*
%TO.C,C11*%
X143001027Y-172345000D03*
X143001027Y-173895000D03*
%TD*%
D44*
%TO.C,RGB18*%
X178970064Y-236395413D03*
D45*
X180320077Y-236370267D03*
D46*
X181281977Y-236370267D03*
D47*
X182506767Y-236369759D03*
%TD*%
D25*
%TO.C,R3*%
X106651013Y-108945000D03*
X106651013Y-110595000D03*
%TD*%
D38*
%TO.C,C11*%
X146001013Y-77395000D03*
X146001013Y-75845000D03*
%TD*%
D54*
%TO.C,RGB12*%
X133047640Y-115180319D03*
D55*
X134229359Y-115833548D03*
D56*
X135062389Y-116314498D03*
D57*
X136123342Y-116926453D03*
%TD*%
D18*
%TO.C,C8*%
X74226000Y-97120000D03*
X75776000Y-97120000D03*
%TD*%
D10*
%TO.C,R13*%
X110926027Y-207645000D03*
X109276027Y-207645000D03*
%TD*%
D35*
%TO.C,R10*%
X82126000Y-37420000D03*
X83776000Y-37420000D03*
%TD*%
D20*
%TO.C,RGB18*%
X110031976Y-13344587D03*
D21*
X108681963Y-13369733D03*
D22*
X107720063Y-13369733D03*
D23*
X106495273Y-13370241D03*
%TD*%
D38*
%TO.C,C7*%
X124501027Y-141395000D03*
X124501027Y-139845000D03*
%TD*%
D11*
%TO.C,C9*%
X124526027Y-160120000D03*
X122976027Y-160120000D03*
%TD*%
D62*
%TO.C,RGB10*%
X124638135Y-97120000D03*
D63*
X124663281Y-98470013D03*
D64*
X124663281Y-99431913D03*
D65*
X124663789Y-100656703D03*
%TD*%
D19*
%TO.C,R2*%
X92751014Y-140795000D03*
X92751014Y-139145000D03*
%TD*%
D44*
%TO.C,RGB16*%
X164970064Y-236395413D03*
D45*
X166320077Y-236370267D03*
D46*
X167281977Y-236370267D03*
D47*
X168506767Y-236369759D03*
%TD*%
D24*
%TO.C,D1*%
X121393418Y-70970000D03*
X118008608Y-70970000D03*
%TD*%
D35*
%TO.C,R6*%
X108176027Y-155370000D03*
X109826027Y-155370000D03*
%TD*%
D79*
%TO.C,RGB3*%
X128190708Y-139416627D03*
D80*
X127537479Y-140598346D03*
D81*
X127056529Y-141431376D03*
D82*
X126444574Y-142492329D03*
%TD*%
D20*
%TO.C,RGB14*%
X46070063Y-13344587D03*
D21*
X44720050Y-13369733D03*
D22*
X43758150Y-13369733D03*
D23*
X42533360Y-13370241D03*
%TD*%
D79*
%TO.C,RGB9*%
X128190693Y-87416627D03*
D80*
X127537464Y-88598346D03*
D81*
X127056514Y-89431376D03*
D82*
X126444559Y-90492329D03*
%TD*%
D10*
%TO.C,R5*%
X86924580Y-169370000D03*
X85274580Y-169370000D03*
%TD*%
D73*
%TO.C,C2*%
X111413828Y-99819733D03*
X111413828Y-97919733D03*
%TD*%
D10*
%TO.C,R12*%
X110926027Y-209620000D03*
X109276027Y-209620000D03*
%TD*%
D44*
%TO.C,RGB13*%
X51970051Y-236395413D03*
D45*
X53320064Y-236370267D03*
D46*
X54281964Y-236370267D03*
D47*
X55506754Y-236369759D03*
%TD*%
D19*
%TO.C,R8*%
X13689014Y-224923000D03*
X13689014Y-223273000D03*
%TD*%
D78*
%TO.C,U2*%
X89151396Y-161269987D03*
X89151396Y-162070089D03*
X89151396Y-163370064D03*
X89151396Y-164370064D03*
X89151396Y-164869936D03*
X89151396Y-165869682D03*
X89151396Y-167170000D03*
X89151396Y-167970013D03*
X89151396Y-167670038D03*
X89151396Y-166870000D03*
X89151396Y-166370064D03*
X89151396Y-165370064D03*
X89151396Y-163869936D03*
X89151396Y-162869936D03*
X89151396Y-162370064D03*
X89151396Y-161569962D03*
%TD*%
D19*
%TO.C,R3*%
X182351027Y-140795000D03*
X182351027Y-139145000D03*
%TD*%
D25*
%TO.C,R7*%
X14501014Y-209445000D03*
X14501014Y-211095000D03*
%TD*%
D36*
%TO.C,KEY1*%
X103851051Y-98819936D03*
X103851051Y-95819936D03*
X103851051Y-94320064D03*
D37*
X102951127Y-100219987D03*
X102951127Y-92920013D03*
X100750975Y-92920013D03*
X100750975Y-100219987D03*
%TD*%
D10*
%TO.C,R4*%
X83924580Y-163369936D03*
X82274580Y-163369936D03*
%TD*%
D66*
%TO.C,RGB11*%
X162555534Y-142454098D03*
D67*
X161858750Y-141297525D03*
D68*
X161377800Y-140464495D03*
D69*
X160764965Y-139404050D03*
%TD*%
D78*
%TO.C,U2*%
X107850631Y-88470013D03*
X107850631Y-87669911D03*
X107850631Y-86369936D03*
X107850631Y-85369936D03*
X107850631Y-84870064D03*
X107850631Y-83870318D03*
X107850631Y-82570000D03*
X107850631Y-81769987D03*
X107850631Y-82069962D03*
X107850631Y-82870000D03*
X107850631Y-83369936D03*
X107850631Y-84369936D03*
X107850631Y-85870064D03*
X107850631Y-86870064D03*
X107850631Y-87369936D03*
X107850631Y-88170038D03*
%TD*%
D53*
%TO.C,LED2*%
X90401014Y-145220292D03*
X90401014Y-143119708D03*
%TD*%
D24*
%TO.C,D2*%
X167608622Y-176270000D03*
X170993432Y-176270000D03*
%TD*%
D18*
%TO.C,C16*%
X157501027Y-133120000D03*
X159051027Y-133120000D03*
%TD*%
D19*
%TO.C,R14*%
X79501000Y-95695000D03*
X79501000Y-94045000D03*
%TD*%
D11*
%TO.C,C6*%
X40476014Y-132370000D03*
X38926014Y-132370000D03*
%TD*%
D74*
%TO.C,U1*%
X89300975Y-91019962D03*
X87801102Y-91019962D03*
X86300975Y-91019962D03*
X84801102Y-91019962D03*
X83300975Y-91019962D03*
X81801102Y-91019962D03*
X80300975Y-91019962D03*
X78801102Y-91019962D03*
X77300975Y-91019962D03*
X77300975Y-73519834D03*
X78801102Y-73519834D03*
X80300975Y-73519834D03*
X81801102Y-73519834D03*
X83300975Y-73519834D03*
X84801102Y-73519834D03*
X86300975Y-73519834D03*
X87801102Y-73519834D03*
X89300975Y-73519834D03*
D75*
X82001000Y-82409852D03*
X83101077Y-82409852D03*
X84201153Y-82409852D03*
X82001000Y-81310030D03*
X83101077Y-81310030D03*
X84201153Y-81310030D03*
X82001000Y-80209954D03*
X83101077Y-80209954D03*
X84201153Y-80209954D03*
%TD*%
D58*
%TO.C,RGB8*%
X152891930Y-168949506D03*
D59*
X154048503Y-168252722D03*
D60*
X154881533Y-167771772D03*
D61*
X155941978Y-167158937D03*
%TD*%
M02*
