%TF.GenerationSoftware,KiCad,Pcbnew,8.0.8*%
%TF.CreationDate,2025-03-20T15:54:21-03:00*%
%TF.ProjectId,nsec-badge-2025-panel,6e736563-2d62-4616-9467-652d32303235,rev?*%
%TF.SameCoordinates,Original*%
%TF.FileFunction,Paste,Top*%
%TF.FilePolarity,Positive*%
%FSLAX46Y46*%
G04 Gerber Fmt 4.6, Leading zero omitted, Abs format (unit mm)*
G04 Created by KiCad (PCBNEW 8.0.8) date 2025-03-20 15:54:21*
%MOMM*%
%LPD*%
G01*
G04 APERTURE LIST*
%ADD10R,1.019990X2.400000*%
%ADD11R,1.000000X0.750013*%
G04 APERTURE END LIST*
D10*
%TO.C,J2*%
X116541018Y-113370000D03*
X114001013Y-113370000D03*
X111461008Y-113370000D03*
X111461008Y-107961974D03*
X114001013Y-107961974D03*
X116541018Y-107961974D03*
%TD*%
D11*
%TO.C,SW3*%
X17001000Y-28870000D03*
X23001000Y-28870000D03*
X17001000Y-32569772D03*
X23001000Y-32569772D03*
%TD*%
D10*
%TO.C,J1*%
X111461022Y-136370000D03*
X114001027Y-136370000D03*
X116541032Y-136370000D03*
X116541032Y-141778026D03*
X114001027Y-141778026D03*
X111461022Y-141778026D03*
%TD*%
D11*
%TO.C,SW3*%
X88001014Y-220870000D03*
X82001014Y-220870000D03*
X88001014Y-217170228D03*
X82001014Y-217170228D03*
%TD*%
D10*
%TO.C,J1*%
X85541005Y-113370000D03*
X83001000Y-113370000D03*
X80460995Y-113370000D03*
X80460995Y-107961974D03*
X83001000Y-107961974D03*
X85541005Y-107961974D03*
%TD*%
D11*
%TO.C,SW1*%
X174001013Y-34870000D03*
X180001013Y-34870000D03*
X174001013Y-38569772D03*
X180001013Y-38569772D03*
%TD*%
D10*
%TO.C,J1*%
X19461009Y-136370000D03*
X22001014Y-136370000D03*
X24541019Y-136370000D03*
X24541019Y-141778026D03*
X22001014Y-141778026D03*
X19461009Y-141778026D03*
%TD*%
%TO.C,J1*%
X177541018Y-113370000D03*
X175001013Y-113370000D03*
X172461008Y-113370000D03*
X172461008Y-107961974D03*
X175001013Y-107961974D03*
X177541018Y-107961974D03*
%TD*%
D11*
%TO.C,SW2*%
X115001027Y-227020114D03*
X109001027Y-227020114D03*
X115001027Y-223320342D03*
X109001027Y-223320342D03*
%TD*%
D10*
%TO.C,J2*%
X24541005Y-113370000D03*
X22001000Y-113370000D03*
X19460995Y-113370000D03*
X19460995Y-107961974D03*
X22001000Y-107961974D03*
X24541005Y-107961974D03*
%TD*%
D11*
%TO.C,SW1*%
X23001014Y-214870000D03*
X17001014Y-214870000D03*
X23001014Y-211170228D03*
X17001014Y-211170228D03*
%TD*%
%TO.C,SW2*%
X174001013Y-22719886D03*
X180001013Y-22719886D03*
X174001013Y-26419658D03*
X180001013Y-26419658D03*
%TD*%
%TO.C,SW2*%
X23001014Y-227020114D03*
X17001014Y-227020114D03*
X23001014Y-223320342D03*
X17001014Y-223320342D03*
%TD*%
%TO.C,SW3*%
X109001013Y-28870000D03*
X115001013Y-28870000D03*
X109001013Y-32569772D03*
X115001013Y-32569772D03*
%TD*%
%TO.C,SW1*%
X82001000Y-34870000D03*
X88001000Y-34870000D03*
X82001000Y-38569772D03*
X88001000Y-38569772D03*
%TD*%
D10*
%TO.C,J2*%
X80461009Y-136370000D03*
X83001014Y-136370000D03*
X85541019Y-136370000D03*
X85541019Y-141778026D03*
X83001014Y-141778026D03*
X80461009Y-141778026D03*
%TD*%
%TO.C,J2*%
X172461022Y-136370000D03*
X175001027Y-136370000D03*
X177541032Y-136370000D03*
X177541032Y-141778026D03*
X175001027Y-141778026D03*
X172461022Y-141778026D03*
%TD*%
D11*
%TO.C,SW2*%
X82001000Y-22719886D03*
X88001000Y-22719886D03*
X82001000Y-26419658D03*
X88001000Y-26419658D03*
%TD*%
%TO.C,SW3*%
X180001027Y-220870000D03*
X174001027Y-220870000D03*
X180001027Y-217170228D03*
X174001027Y-217170228D03*
%TD*%
%TO.C,SW1*%
X115001027Y-214870000D03*
X109001027Y-214870000D03*
X115001027Y-211170228D03*
X109001027Y-211170228D03*
%TD*%
M02*
