M48
; DRILL file {KiCad 8.0.8} date 2025-03-20T15:54:22-0300
; FORMAT={-:-/ absolute / inch / decimal}
; #@! TF.CreationDate,2025-03-20T15:54:22-03:00
; #@! TF.GenerationSoftware,Kicad,Pcbnew,8.0.8
; #@! TF.FileFunction,Plated,1,2,PTH
FMAT,2
INCH
; #@! TA.AperFunction,Plated,PTH,ViaDrill
T1C0.0118
; #@! TA.AperFunction,Plated,PTH,ViaDrill
T2C0.0157
; #@! TA.AperFunction,Plated,PTH,ComponentDrill
T3C0.0315
; #@! TA.AperFunction,Plated,PTH,ComponentDrill
T4C0.0360
; #@! TA.AperFunction,Plated,PTH,ComponentDrill
T5C0.0394
; #@! TA.AperFunction,Plated,PTH,ComponentDrill
T6C0.0400
; #@! TA.AperFunction,Plated,PTH,ComponentDrill
T7C0.0402
; #@! TA.AperFunction,Plated,PTH,ComponentDrill
T8C0.1969
%
G90
G05
T1
X0.376Y-9.2078
X0.3994Y-8.3138
X0.4016Y-9.2646
X0.4646Y-0.8295
X0.4961Y-0.8098
X0.5139Y-8.3138
X0.5355Y-0.4845
X0.5378Y-3.7721
X0.565Y-3.9495
X0.5867Y-8.7892
X0.6221Y-7.4358
X0.6733Y-7.4122
X0.6772Y-7.0028
X0.6792Y-3.4004
X0.7087Y-6.8256
X0.7363Y-6.1642
X0.7382Y-7.0028
X0.7638Y-4.3531
X0.7835Y-8.4555
X0.7934Y-3.4004
X0.7953Y-6.1642
X0.7953Y-7.0067
X0.8367Y-4.5815
X0.8544Y-6.1642
X0.8563Y-6.8098
X0.878Y-9.238
X0.9016Y-9.2783
X0.9134Y-6.1642
X0.9292Y-3.1878
X0.9508Y-6.7961
X0.9567Y-9.5303
X0.9607Y-3.2035
X0.9744Y-1.2823
X0.98Y-3.8545
X0.9843Y-7.8433
X0.9961Y-9.5303
X1.0789Y-7.6678
X1.0807Y-8.2006
X1.135Y-3.3545
X1.135Y-4.1445
X1.1674Y-0.3709
X1.2536Y-0.3468
X1.4489Y-8.8453
X1.4882Y-8.8177
X1.4961Y-8.3925
X1.5355Y-8.3935
X1.5355Y-8.739
X1.5709Y-8.7311
X1.5807Y-8.3955
X1.6221Y-8.735
X1.626Y-8.3984
X1.7122Y-8.7272
X1.785Y-0.3995
X1.8008Y-8.7272
X1.812Y-8.3217
X1.8859Y-8.5047
X1.8977Y-8.9319
X1.9134Y-8.3374
X1.9134Y-8.3728
X1.9252Y-8.985
X1.9331Y-0.3945
X1.9331Y-8.5283
X1.9366Y-8.4531
X1.9489Y-9.0146
X2.0079Y-1.4398
X2.126Y-8.3925
X2.1851Y-0.8177
X2.1974Y-1.3792
X2.2008Y-1.3039
X2.2008Y-9.4378
X2.2087Y-0.8472
X2.2205Y-1.4594
X2.2205Y-1.4949
X2.2363Y-0.9004
X2.2481Y-1.3276
X2.3219Y-1.5106
X2.3331Y-1.1051
X2.3489Y-9.4328
X2.4217Y-1.1051
X2.5079Y-1.4339
X2.5119Y-1.0972
X2.5532Y-1.4368
X2.563Y-1.1012
X2.5985Y-1.0933
X2.5985Y-1.4388
X2.6378Y-1.4398
X2.6457Y-1.0146
X2.6851Y-0.987
X2.8804Y-9.4854
X2.9666Y-9.4614
X2.9989Y-5.6878
X2.9989Y-6.4778
X3.0532Y-1.6317
X3.055Y-2.1645
X3.1378Y-0.302
X3.1496Y-1.989
X3.1539Y-5.9778
X3.1596Y-8.55
X3.1733Y-6.6287
X3.1772Y-0.302
X3.1831Y-3.0362
X3.2048Y-6.6445
X3.2205Y-3.6681
X3.2323Y-0.5539
X3.2559Y-0.5943
X3.2776Y-3.0224
X3.2796Y-3.6681
X3.2973Y-5.2508
X3.3386Y-2.8256
X3.3386Y-3.6681
X3.3405Y-6.4319
X3.3504Y-1.3768
X3.3701Y-5.4791
X3.3957Y-2.8295
X3.3977Y-3.6681
X3.4252Y-3.0067
X3.4547Y-6.4319
X3.4567Y-2.8295
X3.4607Y-2.4201
X3.5119Y-2.3965
X3.5473Y-1.0431
X3.5689Y-5.8828
X3.5961Y-6.0602
X3.5985Y-9.3478
X3.62Y-1.5185
X3.6378Y-9.0224
X3.6693Y-9.0028
X3.7323Y-0.5677
X3.7345Y-1.5185
X3.758Y-0.6245
X3.998Y-9.2078
X4.0214Y-8.3138
X4.0237Y-9.2646
X4.0867Y-0.8295
X4.1182Y-0.8098
X4.136Y-8.3138
X4.1575Y-0.4845
X4.1598Y-3.7721
X4.187Y-3.9495
X4.2087Y-8.7892
X4.2441Y-7.4358
X4.2953Y-7.4122
X4.2992Y-7.0028
X4.3013Y-3.4004
X4.3307Y-6.8256
X4.3583Y-6.1642
X4.3603Y-7.0028
X4.3859Y-4.3531
X4.4056Y-8.4555
X4.4155Y-3.4004
X4.4174Y-6.1642
X4.4174Y-7.0067
X4.4587Y-4.5815
X4.4764Y-6.1642
X4.4784Y-6.8098
X4.5Y-9.238
X4.5237Y-9.2783
X4.5355Y-6.1642
X4.5512Y-3.1878
X4.5729Y-6.7961
X4.5788Y-9.5303
X4.5827Y-3.2035
X4.5964Y-1.2823
X4.602Y-3.8545
X4.6063Y-7.8433
X4.6182Y-9.5303
X4.701Y-7.6678
X4.7028Y-8.2006
X4.757Y-3.3545
X4.757Y-4.1445
X4.7894Y-0.3709
X4.8756Y-0.3468
X5.0709Y-8.8453
X5.1103Y-8.8177
X5.1182Y-8.3925
X5.1575Y-8.3935
X5.1575Y-8.739
X5.193Y-8.7311
X5.2028Y-8.3955
X5.2441Y-8.735
X5.2481Y-8.3984
X5.3342Y-8.7272
X5.407Y-0.3995
X5.4229Y-8.7272
X5.4341Y-8.3217
X5.5079Y-8.5047
X5.5197Y-8.9319
X5.5355Y-8.3374
X5.5355Y-8.3728
X5.5473Y-8.985
X5.5552Y-0.3945
X5.5552Y-8.5283
X5.5586Y-8.4531
X5.5709Y-9.0146
X5.63Y-1.4398
X5.7481Y-8.3925
X5.8071Y-0.8177
X5.8194Y-1.3792
X5.8229Y-1.3039
X5.8229Y-9.4378
X5.8307Y-0.8472
X5.8426Y-1.4594
X5.8426Y-1.4949
X5.8583Y-0.9004
X5.8701Y-1.3276
X5.9439Y-1.5106
X5.9551Y-1.1051
X5.971Y-9.4328
X6.0438Y-1.1051
X6.13Y-1.4339
X6.1339Y-1.0972
X6.1752Y-1.4368
X6.1851Y-1.1012
X6.2205Y-1.0933
X6.2205Y-1.4388
X6.2599Y-1.4398
X6.2678Y-1.0146
X6.3071Y-0.987
X6.5024Y-9.4854
X6.5886Y-9.4614
X6.621Y-5.6878
X6.621Y-6.4778
X6.6752Y-1.6317
X6.677Y-2.1645
X6.7599Y-0.302
X6.7717Y-1.989
X6.776Y-5.9778
X6.7816Y-8.55
X6.7953Y-6.6287
X6.7993Y-0.302
X6.8052Y-3.0362
X6.8268Y-6.6445
X6.8426Y-3.6681
X6.8544Y-0.5539
X6.878Y-0.5943
X6.8996Y-3.0224
X6.9016Y-3.6681
X6.9193Y-5.2508
X6.9607Y-2.8256
X6.9607Y-3.6681
X6.9626Y-6.4319
X6.9725Y-1.3768
X6.9922Y-5.4791
X7.0178Y-2.8295
X7.0197Y-3.6681
X7.0473Y-3.0067
X7.0768Y-6.4319
X7.0788Y-2.8295
X7.0827Y-2.4201
X7.1339Y-2.3965
X7.1693Y-1.0431
X7.191Y-5.8828
X7.2182Y-6.0602
X7.2205Y-9.3478
X7.242Y-1.5185
X7.2599Y-9.0224
X7.2914Y-9.0028
X7.3544Y-0.5677
X7.3566Y-1.5185
X7.38Y-0.6245
T2
X0.441Y-0.4535
X0.465Y-0.9683
X0.4891Y-8.8543
X0.5237Y-8.2469
X0.538Y-8.8957
X0.54Y-0.3195
X0.563Y-8.3728
X0.5868Y-8.8561
X0.59Y-0.3195
X0.6439Y-9.3528
X0.6589Y-6.0878
X0.7678Y-5.6681
X0.7874Y-8.9437
X0.7914Y-1.1366
X0.7918Y-0.3197
X0.7973Y-9.5243
X0.88Y-4.0303
X0.9351Y-8.2547
X0.9548Y-0.3197
X0.9965Y-1.2181
X1.004Y-6.0185
X1.0197Y-8.0849
X1.0394Y-4.2508
X1.0446Y-1.1645
X1.0996Y-1.2195
X1.189Y-9.4772
X1.2422Y-9.5146
X1.3418Y-0.3197
X1.3918Y-0.3197
X1.5922Y-9.5126
X1.6918Y-0.3185
X1.7418Y-0.3587
X1.813Y-9.5087
X1.8922Y-9.5126
X1.9418Y-0.3098
X1.9918Y-0.3256
X2.1422Y-9.5067
X2.1922Y-9.5224
X2.2418Y-0.3197
X2.3209Y-0.3236
X2.3922Y-9.4736
X2.4422Y-9.5138
X2.5418Y-0.3197
X2.7422Y-9.5126
X2.7922Y-9.5126
X2.8918Y-0.3177
X2.9449Y-0.3551
X3.0344Y-8.6128
X3.0894Y-8.6678
X3.0945Y-5.5815
X3.1142Y-1.7473
X3.13Y-3.8138
X3.1375Y-8.6142
X3.1792Y-9.5126
X3.1989Y-1.5776
X3.254Y-5.802
X3.3367Y-0.308
X3.3422Y-9.5126
X3.3426Y-8.6957
X3.3465Y-0.8886
X3.3662Y-4.1642
X3.475Y-3.7445
X3.49Y-0.4795
X3.5439Y-9.5128
X3.5472Y-0.9762
X3.5709Y-1.4594
X3.5939Y-9.5128
X3.5959Y-0.9366
X3.6103Y-1.5854
X3.6448Y-0.978
X3.6689Y-8.864
X3.693Y-9.3787
X4.063Y-0.4535
X4.087Y-0.9683
X4.1112Y-8.8543
X4.1457Y-8.2469
X4.1601Y-8.8957
X4.162Y-0.3195
X4.1851Y-8.3728
X4.2088Y-8.8561
X4.212Y-0.3195
X4.266Y-9.3528
X4.281Y-6.0878
X4.3898Y-5.6681
X4.4095Y-8.9437
X4.4134Y-1.1366
X4.4138Y-0.3197
X4.4193Y-9.5243
X4.502Y-4.0303
X4.5571Y-8.2547
X4.5768Y-0.3197
X4.6185Y-1.2181
X4.626Y-6.0185
X4.6418Y-8.0849
X4.6615Y-4.2508
X4.6666Y-1.1645
X4.7216Y-1.2195
X4.8111Y-9.4772
X4.8642Y-9.5146
X4.9638Y-0.3197
X5.0138Y-0.3197
X5.2142Y-9.5126
X5.3138Y-0.3185
X5.3638Y-0.3587
X5.4351Y-9.5087
X5.5142Y-9.5126
X5.5638Y-0.3098
X5.6138Y-0.3256
X5.7642Y-9.5067
X5.8142Y-9.5224
X5.8638Y-0.3197
X5.943Y-0.3236
X6.0142Y-9.4736
X6.0642Y-9.5138
X6.1638Y-0.3197
X6.3642Y-9.5126
X6.4142Y-9.5126
X6.5138Y-0.3177
X6.567Y-0.3551
X6.6564Y-8.6128
X6.7114Y-8.6678
X6.7166Y-5.5815
X6.7363Y-1.7473
X6.752Y-3.8138
X6.7595Y-8.6142
X6.8012Y-9.5126
X6.8209Y-1.5776
X6.876Y-5.802
X6.9587Y-0.308
X6.9642Y-9.5126
X6.9646Y-8.6957
X6.9685Y-0.8886
X6.9882Y-4.1642
X7.097Y-3.7445
X7.112Y-0.4795
X7.166Y-9.5128
X7.1692Y-0.9762
X7.193Y-1.4594
X7.216Y-9.5128
X7.218Y-0.9366
X7.2323Y-1.5854
X7.2669Y-0.978
X7.291Y-8.864
X7.315Y-9.3787
T4
X0.5682Y-8.6228
X0.6682Y-8.6228
X3.4658Y-1.2094
X3.5658Y-1.2094
X4.1902Y-8.6228
X4.2902Y-8.6228
X7.0878Y-1.2094
X7.1878Y-1.2094
T5
X0.6662Y-0.9752
X0.7134Y-7.5195
X0.7134Y-7.6195
X0.7134Y-7.7195
X0.7134Y-7.8195
X0.7134Y-7.9195
X0.7134Y-8.0195
X0.7205Y-1.8128
X0.7205Y-1.9128
X0.7205Y-2.0128
X0.7205Y-2.1128
X0.7205Y-2.2128
X0.7205Y-2.3128
X0.7662Y-0.9752
X0.8662Y-0.9752
X0.9981Y-9.3374
X1.0981Y-9.3374
X1.1981Y-9.3374
X1.2981Y-9.3374
X1.3571Y-8.3843
X1.3571Y-8.4843
X1.3571Y-8.5843
X1.3571Y-8.6843
X1.3981Y-9.3374
X1.4981Y-9.3374
X1.5981Y-9.3374
X1.6981Y-9.3374
X1.7981Y-9.3374
X1.8981Y-9.3374
X2.2359Y-0.4949
X2.3359Y-0.4949
X2.4359Y-0.4949
X2.5359Y-0.4949
X2.6359Y-0.4949
X2.7359Y-0.4949
X2.7769Y-1.148
X2.7769Y-1.248
X2.7769Y-1.348
X2.7769Y-1.448
X2.8359Y-0.4949
X2.9359Y-0.4949
X3.0359Y-0.4949
X3.1359Y-0.4949
X3.2678Y-8.8571
X3.3678Y-8.8571
X3.4134Y-7.5195
X3.4134Y-7.6195
X3.4134Y-7.7195
X3.4134Y-7.8195
X3.4134Y-7.9195
X3.4134Y-8.0195
X3.4205Y-1.8128
X3.4205Y-1.9128
X3.4205Y-2.0128
X3.4205Y-2.1128
X3.4205Y-2.2128
X3.4205Y-2.3128
X3.4678Y-8.8571
X4.2882Y-0.9752
X4.3355Y-7.5195
X4.3355Y-7.6195
X4.3355Y-7.7195
X4.3355Y-7.8195
X4.3355Y-7.9195
X4.3355Y-8.0195
X4.3426Y-1.8128
X4.3426Y-1.9128
X4.3426Y-2.0128
X4.3426Y-2.1128
X4.3426Y-2.2128
X4.3426Y-2.3128
X4.3882Y-0.9752
X4.4882Y-0.9752
X4.6201Y-9.3374
X4.7201Y-9.3374
X4.8201Y-9.3374
X4.9201Y-9.3374
X4.9791Y-8.3843
X4.9791Y-8.4843
X4.9791Y-8.5843
X4.9791Y-8.6843
X5.0201Y-9.3374
X5.1201Y-9.3374
X5.2201Y-9.3374
X5.3201Y-9.3374
X5.4201Y-9.3374
X5.5201Y-9.3374
X5.8579Y-0.4949
X5.9579Y-0.4949
X6.0579Y-0.4949
X6.1579Y-0.4949
X6.2579Y-0.4949
X6.3579Y-0.4949
X6.3989Y-1.148
X6.3989Y-1.248
X6.3989Y-1.348
X6.3989Y-1.448
X6.4579Y-0.4949
X6.5579Y-0.4949
X6.6579Y-0.4949
X6.7579Y-0.4949
X6.8898Y-8.8571
X6.9898Y-8.8571
X7.0355Y-7.5195
X7.0355Y-7.6195
X7.0355Y-7.7195
X7.0355Y-7.8195
X7.0355Y-7.9195
X7.0355Y-8.0195
X7.0426Y-1.8128
X7.0426Y-1.9128
X7.0426Y-2.0128
X7.0426Y-2.1128
X7.0426Y-2.2128
X7.0426Y-2.3128
X7.0898Y-8.8571
T6
X0.7895Y-8.6228
X0.8904Y-8.6237
X0.9901Y-8.6244
X3.1438Y-1.2078
X3.2435Y-1.2085
X3.3444Y-1.2094
X4.4116Y-8.6228
X4.5125Y-8.6237
X4.6122Y-8.6244
X6.7659Y-1.2078
X6.8656Y-1.2085
X6.9665Y-1.2094
T7
X1.495Y-0.9745
X1.995Y-0.9745
X2.1389Y-8.8578
X2.6389Y-8.8578
X5.117Y-0.9745
X5.617Y-0.9745
X5.761Y-8.8578
X6.261Y-8.8578
T8
X0.53Y-4.6406
X0.5323Y-5.1917
X3.6016Y-4.6406
X3.6039Y-5.1917
X4.152Y-4.6406
X4.1543Y-5.1917
X7.2237Y-4.6406
X7.226Y-5.1917
T3
G00X0.4174Y-3.1809
M15
G01X0.441Y-3.1809
M16
G05
G00X0.4174Y-3.5215
M15
G01X0.441Y-3.5215
M16
G05
G00X0.578Y-3.1809
M15
G01X0.6095Y-3.1809
M16
G05
G00X0.578Y-3.5215
M15
G01X0.6095Y-3.5215
M16
G05
G00X3.5559Y-6.3108
M15
G01X3.5244Y-6.3108
M16
G05
G00X3.5559Y-6.6514
M15
G01X3.5244Y-6.6514
M16
G05
G00X3.7165Y-6.3108
M15
G01X3.6929Y-6.3108
M16
G05
G00X3.7165Y-6.6514
M15
G01X3.6929Y-6.6514
M16
G05
G00X4.0395Y-3.1809
M15
G01X4.0631Y-3.1809
M16
G05
G00X4.0395Y-3.5215
M15
G01X4.0631Y-3.5215
M16
G05
G00X4.2001Y-3.1809
M15
G01X4.2316Y-3.1809
M16
G05
G00X4.2001Y-3.5215
M15
G01X4.2316Y-3.5215
M16
G05
G00X7.1779Y-6.3108
M15
G01X7.1464Y-6.3108
M16
G05
G00X7.1779Y-6.6514
M15
G01X7.1464Y-6.6514
M16
G05
G00X7.3386Y-6.3108
M15
G01X7.3149Y-6.3108
M16
G05
G00X7.3386Y-6.6514
M15
G01X7.3149Y-6.6514
M16
G05
M30
