G04 EAGLE Gerber RS-274X export*
G75*
%MOMM*%
%FSLAX34Y34*%
%LPD*%
%INBottom Copper*%
%IPPOS*%
%AMOC8*
5,1,8,0,0,1.08239X$1,22.5*%
G01*
%ADD10R,1.524000X0.762000*%
%ADD11C,1.219200*%
%ADD12C,1.524000*%
%ADD13C,1.524000*%
%ADD14P,1.319650X8X202.500000*%
%ADD15P,1.319650X8X22.500000*%
%ADD16C,0.900000*%
%ADD17R,0.736600X3.251200*%
%ADD18C,1.270000*%
%ADD19C,0.525000*%
%ADD20C,0.304800*%
%ADD21C,0.406400*%

G36*
X836543Y2035D02*
X836543Y2035D01*
X836570Y2033D01*
X836744Y2055D01*
X836917Y2073D01*
X836943Y2080D01*
X836969Y2084D01*
X837135Y2139D01*
X837302Y2191D01*
X837326Y2204D01*
X837351Y2212D01*
X837503Y2299D01*
X837656Y2383D01*
X837677Y2400D01*
X837700Y2413D01*
X837953Y2628D01*
X886372Y51047D01*
X886389Y51068D01*
X886410Y51085D01*
X886517Y51223D01*
X886627Y51359D01*
X886640Y51382D01*
X886656Y51403D01*
X886734Y51560D01*
X886816Y51714D01*
X886824Y51740D01*
X886836Y51764D01*
X886881Y51933D01*
X886931Y52100D01*
X886933Y52127D01*
X886940Y52153D01*
X886967Y52483D01*
X886967Y229442D01*
X962572Y305047D01*
X962589Y305068D01*
X962610Y305085D01*
X962717Y305223D01*
X962827Y305359D01*
X962840Y305382D01*
X962856Y305403D01*
X962934Y305560D01*
X963016Y305714D01*
X963024Y305740D01*
X963036Y305764D01*
X963081Y305933D01*
X963131Y306100D01*
X963133Y306127D01*
X963140Y306153D01*
X963167Y306483D01*
X963167Y455517D01*
X963165Y455543D01*
X963167Y455570D01*
X963145Y455744D01*
X963127Y455917D01*
X963120Y455943D01*
X963116Y455969D01*
X963061Y456135D01*
X963009Y456302D01*
X962996Y456326D01*
X962988Y456351D01*
X962901Y456503D01*
X962817Y456656D01*
X962800Y456677D01*
X962787Y456700D01*
X962572Y456953D01*
X886967Y532558D01*
X886967Y734917D01*
X886965Y734943D01*
X886967Y734970D01*
X886945Y735144D01*
X886927Y735317D01*
X886920Y735343D01*
X886916Y735369D01*
X886861Y735535D01*
X886809Y735702D01*
X886796Y735726D01*
X886788Y735751D01*
X886701Y735903D01*
X886617Y736056D01*
X886600Y736077D01*
X886587Y736100D01*
X886372Y736353D01*
X837953Y784772D01*
X837932Y784789D01*
X837915Y784810D01*
X837777Y784917D01*
X837641Y785027D01*
X837618Y785040D01*
X837597Y785056D01*
X837440Y785134D01*
X837286Y785216D01*
X837260Y785224D01*
X837236Y785236D01*
X837067Y785281D01*
X836900Y785331D01*
X836873Y785333D01*
X836847Y785340D01*
X836517Y785367D01*
X52483Y785367D01*
X52457Y785365D01*
X52430Y785367D01*
X52256Y785345D01*
X52083Y785327D01*
X52057Y785320D01*
X52031Y785316D01*
X51865Y785261D01*
X51698Y785209D01*
X51674Y785196D01*
X51649Y785188D01*
X51497Y785101D01*
X51344Y785017D01*
X51323Y785000D01*
X51300Y784987D01*
X51047Y784772D01*
X2628Y736353D01*
X2611Y736332D01*
X2590Y736315D01*
X2483Y736177D01*
X2373Y736041D01*
X2360Y736018D01*
X2344Y735997D01*
X2266Y735840D01*
X2184Y735686D01*
X2176Y735660D01*
X2164Y735636D01*
X2119Y735467D01*
X2069Y735300D01*
X2067Y735273D01*
X2060Y735247D01*
X2033Y734917D01*
X2033Y535083D01*
X2035Y535057D01*
X2033Y535030D01*
X2055Y534856D01*
X2073Y534683D01*
X2080Y534657D01*
X2084Y534631D01*
X2139Y534465D01*
X2191Y534298D01*
X2204Y534274D01*
X2212Y534249D01*
X2299Y534097D01*
X2383Y533944D01*
X2400Y533923D01*
X2413Y533900D01*
X2628Y533647D01*
X78233Y458042D01*
X78233Y303958D01*
X2628Y228353D01*
X2611Y228332D01*
X2590Y228315D01*
X2483Y228177D01*
X2373Y228041D01*
X2360Y228018D01*
X2344Y227997D01*
X2266Y227840D01*
X2184Y227686D01*
X2176Y227660D01*
X2164Y227636D01*
X2119Y227467D01*
X2069Y227300D01*
X2067Y227273D01*
X2060Y227247D01*
X2033Y226917D01*
X2033Y52483D01*
X2035Y52457D01*
X2033Y52430D01*
X2055Y52256D01*
X2073Y52083D01*
X2080Y52057D01*
X2084Y52031D01*
X2139Y51865D01*
X2191Y51698D01*
X2204Y51674D01*
X2212Y51649D01*
X2299Y51497D01*
X2383Y51344D01*
X2400Y51323D01*
X2413Y51300D01*
X2628Y51047D01*
X51047Y2628D01*
X51068Y2611D01*
X51085Y2590D01*
X51223Y2483D01*
X51359Y2373D01*
X51382Y2360D01*
X51403Y2344D01*
X51560Y2266D01*
X51714Y2184D01*
X51740Y2176D01*
X51764Y2164D01*
X51933Y2119D01*
X52100Y2069D01*
X52127Y2067D01*
X52153Y2060D01*
X52483Y2033D01*
X836517Y2033D01*
X836543Y2035D01*
G37*
%LPC*%
G36*
X103937Y9143D02*
X103937Y9143D01*
X80338Y32742D01*
X80324Y32754D01*
X80312Y32767D01*
X80168Y32881D01*
X80026Y32997D01*
X80010Y33006D01*
X79996Y33017D01*
X79832Y33100D01*
X79670Y33186D01*
X79653Y33191D01*
X79637Y33199D01*
X79460Y33249D01*
X79285Y33301D01*
X79267Y33302D01*
X79250Y33307D01*
X79066Y33321D01*
X78884Y33337D01*
X78866Y33335D01*
X78848Y33337D01*
X78666Y33314D01*
X78483Y33294D01*
X78466Y33288D01*
X78449Y33286D01*
X78275Y33228D01*
X78100Y33172D01*
X78084Y33164D01*
X78067Y33158D01*
X77907Y33066D01*
X77747Y32977D01*
X77734Y32966D01*
X77718Y32957D01*
X77465Y32742D01*
X68439Y23716D01*
X64039Y28117D01*
X64038Y28117D01*
X64038Y28118D01*
X59638Y32518D01*
X68663Y41544D01*
X68675Y41558D01*
X68688Y41569D01*
X68802Y41713D01*
X68918Y41856D01*
X68927Y41871D01*
X68938Y41885D01*
X69021Y42050D01*
X69107Y42211D01*
X69112Y42228D01*
X69120Y42244D01*
X69170Y42422D01*
X69222Y42597D01*
X69223Y42615D01*
X69228Y42632D01*
X69242Y42815D01*
X69258Y42998D01*
X69256Y43016D01*
X69258Y43034D01*
X69235Y43215D01*
X69215Y43398D01*
X69209Y43415D01*
X69207Y43433D01*
X69149Y43607D01*
X69093Y43782D01*
X69085Y43798D01*
X69079Y43815D01*
X68987Y43974D01*
X68899Y44135D01*
X68887Y44148D01*
X68878Y44164D01*
X68663Y44417D01*
X63892Y49188D01*
X63871Y49205D01*
X63853Y49226D01*
X63716Y49332D01*
X63580Y49443D01*
X63556Y49456D01*
X63535Y49472D01*
X63379Y49550D01*
X63224Y49632D01*
X63199Y49640D01*
X63175Y49652D01*
X63006Y49697D01*
X62839Y49747D01*
X62812Y49749D01*
X62786Y49756D01*
X62455Y49783D01*
X58708Y49783D01*
X58681Y49781D01*
X58655Y49783D01*
X58481Y49761D01*
X58307Y49743D01*
X58282Y49736D01*
X58255Y49732D01*
X58090Y49677D01*
X57922Y49625D01*
X57899Y49612D01*
X57874Y49604D01*
X57722Y49517D01*
X57568Y49433D01*
X57548Y49416D01*
X57525Y49403D01*
X57272Y49188D01*
X36593Y28510D01*
X34909Y28510D01*
X28510Y34909D01*
X28510Y36593D01*
X52690Y60773D01*
X54374Y60773D01*
X57655Y57492D01*
X57676Y57475D01*
X57694Y57454D01*
X57832Y57347D01*
X57967Y57237D01*
X57991Y57224D01*
X58012Y57208D01*
X58169Y57130D01*
X58323Y57048D01*
X58348Y57040D01*
X58372Y57028D01*
X58542Y56983D01*
X58709Y56933D01*
X58735Y56931D01*
X58761Y56924D01*
X59092Y56897D01*
X60169Y56897D01*
X60178Y56898D01*
X60187Y56897D01*
X60381Y56918D01*
X60570Y56937D01*
X60578Y56939D01*
X60587Y56940D01*
X60771Y56998D01*
X60955Y57055D01*
X60963Y57059D01*
X60971Y57062D01*
X61140Y57155D01*
X61309Y57247D01*
X61316Y57252D01*
X61324Y57257D01*
X61471Y57381D01*
X61618Y57504D01*
X61624Y57511D01*
X61631Y57517D01*
X61750Y57668D01*
X61871Y57818D01*
X61875Y57826D01*
X61880Y57833D01*
X61968Y58006D01*
X62056Y58175D01*
X62059Y58184D01*
X62063Y58192D01*
X62115Y58378D01*
X62167Y58562D01*
X62168Y58571D01*
X62171Y58580D01*
X62185Y58773D01*
X62200Y58964D01*
X62199Y58972D01*
X62200Y58981D01*
X62176Y59174D01*
X62153Y59363D01*
X62151Y59372D01*
X62150Y59381D01*
X62088Y59564D01*
X62029Y59746D01*
X62024Y59754D01*
X62021Y59762D01*
X61925Y59929D01*
X61831Y60097D01*
X61825Y60104D01*
X61820Y60111D01*
X61606Y60364D01*
X55002Y66968D01*
X52323Y69647D01*
X52323Y85688D01*
X52321Y85715D01*
X52323Y85742D01*
X52301Y85915D01*
X52283Y86089D01*
X52276Y86114D01*
X52272Y86141D01*
X52217Y86307D01*
X52165Y86474D01*
X52152Y86497D01*
X52144Y86523D01*
X52057Y86674D01*
X51973Y86828D01*
X51956Y86848D01*
X51943Y86872D01*
X51728Y87125D01*
X48934Y89919D01*
X48927Y89924D01*
X48922Y89931D01*
X48772Y90051D01*
X48623Y90174D01*
X48615Y90178D01*
X48608Y90183D01*
X48438Y90272D01*
X48267Y90362D01*
X48266Y90363D01*
X48266Y92271D01*
X72446Y116451D01*
X74130Y116451D01*
X80530Y110051D01*
X80530Y108367D01*
X60032Y87869D01*
X60015Y87849D01*
X59994Y87831D01*
X59887Y87693D01*
X59777Y87558D01*
X59764Y87534D01*
X59748Y87513D01*
X59670Y87356D01*
X59588Y87202D01*
X59580Y87177D01*
X59568Y87153D01*
X59523Y86983D01*
X59473Y86816D01*
X59471Y86790D01*
X59464Y86764D01*
X59437Y86433D01*
X59437Y73435D01*
X59439Y73408D01*
X59437Y73381D01*
X59459Y73207D01*
X59477Y73034D01*
X59484Y73009D01*
X59488Y72982D01*
X59543Y72816D01*
X59595Y72649D01*
X59608Y72625D01*
X59616Y72600D01*
X59703Y72449D01*
X59787Y72295D01*
X59804Y72275D01*
X59817Y72251D01*
X60032Y71998D01*
X66636Y65394D01*
X66643Y65389D01*
X66648Y65382D01*
X66798Y65261D01*
X66947Y65139D01*
X66955Y65135D01*
X66962Y65129D01*
X67132Y65041D01*
X67303Y64951D01*
X67312Y64948D01*
X67319Y64944D01*
X67504Y64891D01*
X67689Y64836D01*
X67698Y64835D01*
X67706Y64833D01*
X67898Y64817D01*
X68090Y64799D01*
X68099Y64800D01*
X68108Y64800D01*
X68297Y64822D01*
X68490Y64843D01*
X68499Y64846D01*
X68507Y64847D01*
X68689Y64906D01*
X68874Y64964D01*
X68882Y64969D01*
X68890Y64971D01*
X69059Y65066D01*
X69226Y65159D01*
X69233Y65165D01*
X69241Y65169D01*
X69387Y65295D01*
X69533Y65420D01*
X69539Y65427D01*
X69546Y65432D01*
X69663Y65584D01*
X69783Y65736D01*
X69787Y65744D01*
X69792Y65751D01*
X69878Y65923D01*
X69965Y66094D01*
X69968Y66103D01*
X69972Y66111D01*
X70022Y66298D01*
X70073Y66482D01*
X70074Y66491D01*
X70076Y66500D01*
X70103Y66831D01*
X70103Y67908D01*
X70101Y67935D01*
X70103Y67962D01*
X70081Y68136D01*
X70063Y68309D01*
X70056Y68334D01*
X70052Y68361D01*
X69997Y68527D01*
X69945Y68694D01*
X69932Y68717D01*
X69924Y68743D01*
X69837Y68894D01*
X69753Y69048D01*
X69736Y69068D01*
X69723Y69092D01*
X69508Y69345D01*
X66227Y72626D01*
X66227Y74310D01*
X90407Y98490D01*
X92091Y98490D01*
X98490Y92091D01*
X98490Y90407D01*
X77812Y69728D01*
X77795Y69708D01*
X77774Y69690D01*
X77667Y69552D01*
X77557Y69417D01*
X77544Y69393D01*
X77528Y69372D01*
X77450Y69215D01*
X77368Y69061D01*
X77360Y69036D01*
X77348Y69012D01*
X77303Y68842D01*
X77253Y68675D01*
X77251Y68649D01*
X77244Y68623D01*
X77217Y68292D01*
X77217Y64545D01*
X77219Y64518D01*
X77217Y64491D01*
X77239Y64317D01*
X77257Y64144D01*
X77264Y64119D01*
X77268Y64092D01*
X77323Y63926D01*
X77375Y63759D01*
X77388Y63735D01*
X77396Y63710D01*
X77483Y63559D01*
X77567Y63405D01*
X77584Y63385D01*
X77597Y63361D01*
X77812Y63108D01*
X82943Y57977D01*
X82956Y57966D01*
X82968Y57952D01*
X83112Y57839D01*
X83254Y57722D01*
X83270Y57714D01*
X83284Y57703D01*
X83448Y57620D01*
X83610Y57534D01*
X83627Y57529D01*
X83643Y57521D01*
X83820Y57471D01*
X83996Y57419D01*
X84013Y57417D01*
X84031Y57413D01*
X84214Y57399D01*
X84397Y57383D01*
X84414Y57384D01*
X84432Y57383D01*
X84614Y57406D01*
X84797Y57426D01*
X84814Y57431D01*
X84832Y57434D01*
X85005Y57492D01*
X85181Y57547D01*
X85196Y57556D01*
X85213Y57562D01*
X85373Y57654D01*
X85533Y57742D01*
X85547Y57754D01*
X85562Y57763D01*
X85815Y57977D01*
X108368Y80530D01*
X108712Y80530D01*
X108730Y80532D01*
X108748Y80530D01*
X108930Y80551D01*
X109113Y80570D01*
X109130Y80575D01*
X109147Y80577D01*
X109322Y80634D01*
X109498Y80688D01*
X109513Y80696D01*
X109530Y80702D01*
X109690Y80792D01*
X109852Y80880D01*
X109865Y80891D01*
X109881Y80900D01*
X110020Y81020D01*
X110161Y81137D01*
X110172Y81151D01*
X110186Y81163D01*
X110298Y81308D01*
X110413Y81451D01*
X110421Y81467D01*
X110432Y81481D01*
X110514Y81646D01*
X110599Y81808D01*
X110604Y81825D01*
X110612Y81841D01*
X110659Y82020D01*
X110710Y82195D01*
X110712Y82213D01*
X110716Y82230D01*
X110743Y82561D01*
X110743Y86585D01*
X110741Y86612D01*
X110743Y86639D01*
X110721Y86813D01*
X110703Y86986D01*
X110696Y87011D01*
X110692Y87038D01*
X110637Y87204D01*
X110585Y87371D01*
X110572Y87394D01*
X110564Y87420D01*
X110477Y87571D01*
X110393Y87725D01*
X110376Y87745D01*
X110363Y87769D01*
X110148Y88022D01*
X76423Y121747D01*
X76402Y121764D01*
X76384Y121785D01*
X76247Y121892D01*
X76111Y122002D01*
X76088Y122015D01*
X76066Y122031D01*
X75909Y122109D01*
X75755Y122191D01*
X75730Y122199D01*
X75706Y122211D01*
X75536Y122256D01*
X75370Y122306D01*
X75359Y122307D01*
X73562Y123051D01*
X72251Y124362D01*
X71542Y126074D01*
X71542Y127926D01*
X72251Y129638D01*
X73562Y130949D01*
X75274Y131658D01*
X77126Y131658D01*
X78838Y130949D01*
X80149Y129638D01*
X80895Y127836D01*
X80898Y127813D01*
X80905Y127788D01*
X80909Y127761D01*
X80964Y127595D01*
X81016Y127428D01*
X81029Y127405D01*
X81037Y127379D01*
X81124Y127228D01*
X81208Y127074D01*
X81225Y127054D01*
X81238Y127030D01*
X81453Y126777D01*
X117857Y90373D01*
X117857Y76906D01*
X117046Y76095D01*
X117029Y76074D01*
X117009Y76057D01*
X116901Y75918D01*
X116791Y75783D01*
X116778Y75760D01*
X116762Y75738D01*
X116684Y75582D01*
X116602Y75428D01*
X116594Y75402D01*
X116582Y75378D01*
X116537Y75209D01*
X116487Y75042D01*
X116485Y75015D01*
X116478Y74989D01*
X116451Y74658D01*
X116451Y72446D01*
X93898Y49894D01*
X93887Y49880D01*
X93874Y49869D01*
X93760Y49725D01*
X93643Y49583D01*
X93635Y49567D01*
X93624Y49553D01*
X93540Y49388D01*
X93455Y49227D01*
X93450Y49210D01*
X93442Y49194D01*
X93392Y49016D01*
X93340Y48841D01*
X93338Y48823D01*
X93334Y48806D01*
X93320Y48623D01*
X93304Y48440D01*
X93306Y48422D01*
X93304Y48405D01*
X93327Y48222D01*
X93347Y48040D01*
X93352Y48023D01*
X93355Y48005D01*
X93413Y47831D01*
X93468Y47656D01*
X93477Y47640D01*
X93483Y47623D01*
X93575Y47464D01*
X93663Y47304D01*
X93675Y47290D01*
X93684Y47275D01*
X93898Y47022D01*
X111368Y29552D01*
X111389Y29535D01*
X111407Y29514D01*
X111544Y29407D01*
X111680Y29297D01*
X111703Y29284D01*
X111725Y29268D01*
X111882Y29190D01*
X112036Y29108D01*
X112061Y29100D01*
X112085Y29088D01*
X112255Y29043D01*
X112421Y28993D01*
X112448Y28991D01*
X112474Y28984D01*
X112805Y28957D01*
X283435Y28957D01*
X283462Y28959D01*
X283489Y28957D01*
X283663Y28979D01*
X283836Y28997D01*
X283862Y29004D01*
X283888Y29008D01*
X284054Y29063D01*
X284221Y29115D01*
X284245Y29128D01*
X284270Y29136D01*
X284421Y29223D01*
X284575Y29307D01*
X284595Y29324D01*
X284619Y29337D01*
X284872Y29552D01*
X376848Y121528D01*
X376865Y121549D01*
X376886Y121567D01*
X376993Y121704D01*
X377103Y121840D01*
X377116Y121863D01*
X377132Y121885D01*
X377210Y122042D01*
X377292Y122196D01*
X377300Y122221D01*
X377312Y122245D01*
X377357Y122415D01*
X377407Y122581D01*
X377409Y122608D01*
X377416Y122634D01*
X377443Y122965D01*
X377443Y166573D01*
X387996Y177126D01*
X388001Y177133D01*
X388008Y177138D01*
X388129Y177288D01*
X388251Y177437D01*
X388255Y177445D01*
X388261Y177452D01*
X388349Y177622D01*
X388439Y177793D01*
X388442Y177802D01*
X388446Y177809D01*
X388499Y177994D01*
X388554Y178179D01*
X388555Y178188D01*
X388557Y178196D01*
X388573Y178388D01*
X388591Y178580D01*
X388590Y178589D01*
X388590Y178598D01*
X388568Y178787D01*
X388547Y178980D01*
X388544Y178989D01*
X388543Y178997D01*
X388484Y179179D01*
X388426Y179364D01*
X388421Y179372D01*
X388419Y179380D01*
X388324Y179549D01*
X388231Y179716D01*
X388225Y179723D01*
X388221Y179731D01*
X388095Y179877D01*
X387970Y180023D01*
X387963Y180029D01*
X387958Y180036D01*
X387806Y180153D01*
X387654Y180273D01*
X387646Y180277D01*
X387639Y180282D01*
X387468Y180367D01*
X387296Y180455D01*
X387287Y180458D01*
X387279Y180462D01*
X387092Y180512D01*
X386908Y180563D01*
X386899Y180564D01*
X386890Y180566D01*
X386559Y180593D01*
X328727Y180593D01*
X320178Y189142D01*
X320157Y189159D01*
X320140Y189180D01*
X320002Y189287D01*
X319866Y189397D01*
X319843Y189410D01*
X319821Y189426D01*
X319665Y189504D01*
X319511Y189586D01*
X319485Y189594D01*
X319461Y189606D01*
X319292Y189651D01*
X319125Y189701D01*
X319098Y189703D01*
X319072Y189710D01*
X318741Y189737D01*
X281432Y189737D01*
X281414Y189735D01*
X281396Y189737D01*
X281214Y189716D01*
X281031Y189697D01*
X281014Y189692D01*
X280997Y189690D01*
X280822Y189633D01*
X280646Y189579D01*
X280631Y189571D01*
X280614Y189565D01*
X280454Y189475D01*
X280292Y189387D01*
X280279Y189376D01*
X280263Y189367D01*
X280124Y189247D01*
X279983Y189130D01*
X279972Y189116D01*
X279958Y189104D01*
X279846Y188959D01*
X279731Y188816D01*
X279723Y188800D01*
X279712Y188786D01*
X279630Y188621D01*
X279545Y188459D01*
X279540Y188442D01*
X279532Y188426D01*
X279485Y188247D01*
X279434Y188072D01*
X279432Y188054D01*
X279428Y188037D01*
X279401Y187706D01*
X279401Y186181D01*
X269240Y186181D01*
X259079Y186181D01*
X259079Y187706D01*
X259077Y187724D01*
X259079Y187742D01*
X259058Y187924D01*
X259039Y188107D01*
X259034Y188124D01*
X259032Y188141D01*
X258975Y188316D01*
X258921Y188492D01*
X258913Y188507D01*
X258907Y188524D01*
X258817Y188684D01*
X258730Y188846D01*
X258718Y188859D01*
X258709Y188875D01*
X258589Y189014D01*
X258472Y189155D01*
X258458Y189166D01*
X258446Y189180D01*
X258301Y189292D01*
X258158Y189407D01*
X258142Y189415D01*
X258128Y189426D01*
X257964Y189508D01*
X257801Y189593D01*
X257784Y189598D01*
X257768Y189606D01*
X257590Y189653D01*
X257414Y189704D01*
X257396Y189706D01*
X257379Y189710D01*
X257048Y189737D01*
X225044Y189737D01*
X225026Y189735D01*
X225008Y189737D01*
X224826Y189716D01*
X224643Y189697D01*
X224626Y189692D01*
X224609Y189690D01*
X224434Y189633D01*
X224258Y189579D01*
X224243Y189571D01*
X224226Y189565D01*
X224066Y189475D01*
X223904Y189387D01*
X223891Y189376D01*
X223875Y189367D01*
X223736Y189247D01*
X223595Y189130D01*
X223584Y189116D01*
X223570Y189104D01*
X223458Y188959D01*
X223343Y188816D01*
X223335Y188800D01*
X223324Y188786D01*
X223242Y188621D01*
X223157Y188459D01*
X223152Y188442D01*
X223144Y188426D01*
X223097Y188247D01*
X223046Y188072D01*
X223044Y188054D01*
X223040Y188037D01*
X223013Y187706D01*
X223013Y179498D01*
X221822Y178307D01*
X204898Y178307D01*
X203707Y179498D01*
X203707Y181073D01*
X203706Y181082D01*
X203707Y181091D01*
X203686Y181285D01*
X203667Y181474D01*
X203665Y181482D01*
X203664Y181491D01*
X203605Y181676D01*
X203549Y181859D01*
X203545Y181867D01*
X203542Y181875D01*
X203450Y182042D01*
X203357Y182213D01*
X203352Y182220D01*
X203347Y182228D01*
X203223Y182375D01*
X203100Y182522D01*
X203093Y182528D01*
X203087Y182535D01*
X202935Y182654D01*
X202786Y182775D01*
X202778Y182779D01*
X202771Y182784D01*
X202598Y182872D01*
X202429Y182960D01*
X202420Y182963D01*
X202412Y182967D01*
X202226Y183019D01*
X202042Y183071D01*
X202033Y183072D01*
X202024Y183075D01*
X201831Y183089D01*
X201640Y183104D01*
X201632Y183103D01*
X201623Y183104D01*
X201430Y183080D01*
X201241Y183057D01*
X201232Y183055D01*
X201223Y183054D01*
X201041Y182992D01*
X200858Y182933D01*
X200850Y182928D01*
X200842Y182925D01*
X200675Y182829D01*
X200507Y182735D01*
X200500Y182729D01*
X200493Y182724D01*
X200240Y182510D01*
X176703Y158973D01*
X176686Y158952D01*
X176665Y158934D01*
X176558Y158797D01*
X176448Y158661D01*
X176435Y158638D01*
X176419Y158616D01*
X176341Y158459D01*
X176259Y158305D01*
X176251Y158280D01*
X176239Y158256D01*
X176194Y158086D01*
X176144Y157920D01*
X176143Y157909D01*
X175399Y156112D01*
X174088Y154801D01*
X172822Y154277D01*
X172814Y154272D01*
X172805Y154270D01*
X172636Y154177D01*
X172467Y154086D01*
X172460Y154081D01*
X172452Y154077D01*
X172304Y153952D01*
X172156Y153830D01*
X172151Y153823D01*
X172144Y153817D01*
X172023Y153666D01*
X171903Y153517D01*
X171898Y153510D01*
X171893Y153503D01*
X171805Y153331D01*
X171716Y153161D01*
X171713Y153152D01*
X171709Y153144D01*
X171657Y152960D01*
X171602Y152774D01*
X171602Y152766D01*
X171599Y152757D01*
X171584Y152566D01*
X171568Y152373D01*
X171569Y152365D01*
X171568Y152356D01*
X171591Y152165D01*
X171613Y151973D01*
X171616Y151965D01*
X171617Y151956D01*
X171677Y151773D01*
X171736Y151590D01*
X171740Y151582D01*
X171743Y151574D01*
X171839Y151406D01*
X171933Y151238D01*
X171938Y151232D01*
X171943Y151224D01*
X172069Y151080D01*
X172194Y150933D01*
X172201Y150927D01*
X172207Y150920D01*
X172359Y150804D01*
X172511Y150684D01*
X172519Y150680D01*
X172526Y150675D01*
X172822Y150523D01*
X174088Y149999D01*
X175399Y148688D01*
X176108Y146976D01*
X176108Y145124D01*
X175399Y143412D01*
X174088Y142101D01*
X172376Y141392D01*
X170524Y141392D01*
X168812Y142101D01*
X167501Y143412D01*
X166755Y145214D01*
X166752Y145237D01*
X166745Y145262D01*
X166741Y145289D01*
X166686Y145455D01*
X166634Y145622D01*
X166621Y145645D01*
X166613Y145671D01*
X166526Y145822D01*
X166442Y145976D01*
X166425Y145996D01*
X166412Y146020D01*
X166197Y146273D01*
X161543Y150927D01*
X161543Y166573D01*
X183859Y188889D01*
X183868Y188899D01*
X183878Y188908D01*
X183995Y189055D01*
X184114Y189201D01*
X184120Y189212D01*
X184129Y189223D01*
X184215Y189391D01*
X184303Y189556D01*
X184307Y189569D01*
X184313Y189581D01*
X184364Y189762D01*
X184418Y189942D01*
X184419Y189956D01*
X184422Y189968D01*
X184437Y190154D01*
X184454Y190343D01*
X184452Y190357D01*
X184453Y190370D01*
X184431Y190554D01*
X184411Y190743D01*
X184406Y190756D01*
X184405Y190769D01*
X184346Y190947D01*
X184289Y191127D01*
X184283Y191139D01*
X184278Y191152D01*
X184185Y191316D01*
X184094Y191480D01*
X184086Y191490D01*
X184079Y191501D01*
X183955Y191643D01*
X183834Y191787D01*
X183823Y191795D01*
X183814Y191805D01*
X183666Y191919D01*
X183518Y192036D01*
X183506Y192042D01*
X183495Y192050D01*
X183200Y192202D01*
X181512Y192901D01*
X180201Y194212D01*
X179502Y195900D01*
X179496Y195912D01*
X179492Y195925D01*
X179401Y196089D01*
X179312Y196255D01*
X179303Y196265D01*
X179297Y196277D01*
X179176Y196420D01*
X179055Y196565D01*
X179045Y196574D01*
X179036Y196584D01*
X178889Y196701D01*
X178743Y196819D01*
X178731Y196825D01*
X178720Y196834D01*
X178552Y196919D01*
X178386Y197006D01*
X178373Y197010D01*
X178361Y197016D01*
X178180Y197067D01*
X178000Y197119D01*
X177987Y197120D01*
X177974Y197124D01*
X177785Y197138D01*
X177599Y197154D01*
X177586Y197152D01*
X177572Y197153D01*
X177384Y197130D01*
X177199Y197109D01*
X177186Y197105D01*
X177173Y197103D01*
X176994Y197043D01*
X176815Y196986D01*
X176804Y196979D01*
X176791Y196975D01*
X176628Y196881D01*
X176464Y196789D01*
X176454Y196780D01*
X176442Y196774D01*
X176189Y196559D01*
X144953Y165323D01*
X144936Y165302D01*
X144915Y165284D01*
X144808Y165147D01*
X144698Y165011D01*
X144685Y164988D01*
X144669Y164966D01*
X144591Y164809D01*
X144509Y164655D01*
X144501Y164630D01*
X144489Y164606D01*
X144444Y164436D01*
X144394Y164270D01*
X144393Y164259D01*
X143649Y162462D01*
X142338Y161151D01*
X140626Y160442D01*
X138774Y160442D01*
X137062Y161151D01*
X135751Y162462D01*
X135042Y164174D01*
X135042Y166026D01*
X135751Y167738D01*
X137062Y169049D01*
X138864Y169795D01*
X138887Y169798D01*
X138912Y169805D01*
X138939Y169809D01*
X139105Y169864D01*
X139272Y169916D01*
X139295Y169929D01*
X139321Y169937D01*
X139472Y170024D01*
X139626Y170108D01*
X139646Y170125D01*
X139670Y170138D01*
X139923Y170353D01*
X185217Y215647D01*
X201676Y215647D01*
X201694Y215649D01*
X201712Y215647D01*
X201894Y215668D01*
X202077Y215687D01*
X202094Y215692D01*
X202111Y215694D01*
X202286Y215751D01*
X202462Y215805D01*
X202477Y215813D01*
X202494Y215819D01*
X202654Y215909D01*
X202816Y215997D01*
X202829Y216008D01*
X202845Y216017D01*
X202984Y216137D01*
X203125Y216254D01*
X203136Y216268D01*
X203150Y216280D01*
X203262Y216425D01*
X203377Y216568D01*
X203385Y216584D01*
X203396Y216598D01*
X203478Y216763D01*
X203563Y216925D01*
X203568Y216942D01*
X203576Y216958D01*
X203623Y217137D01*
X203674Y217312D01*
X203676Y217330D01*
X203680Y217347D01*
X203707Y217678D01*
X203707Y226902D01*
X204898Y228093D01*
X221822Y228093D01*
X223414Y226501D01*
X223431Y226487D01*
X223446Y226470D01*
X223587Y226359D01*
X223726Y226246D01*
X223745Y226235D01*
X223763Y226221D01*
X223924Y226140D01*
X224081Y226057D01*
X224103Y226051D01*
X224123Y226041D01*
X224296Y225993D01*
X224467Y225942D01*
X224489Y225940D01*
X224511Y225934D01*
X224690Y225922D01*
X224868Y225906D01*
X224890Y225908D01*
X224913Y225907D01*
X225090Y225930D01*
X225268Y225949D01*
X225290Y225956D01*
X225312Y225959D01*
X225628Y226060D01*
X227674Y226908D01*
X229526Y226908D01*
X231329Y226161D01*
X231347Y226147D01*
X231371Y226134D01*
X231392Y226118D01*
X231549Y226040D01*
X231703Y225958D01*
X231728Y225950D01*
X231752Y225938D01*
X231922Y225893D01*
X232088Y225843D01*
X232115Y225841D01*
X232141Y225834D01*
X232472Y225807D01*
X257651Y225807D01*
X257677Y225809D01*
X257704Y225807D01*
X257878Y225829D01*
X258051Y225847D01*
X258077Y225854D01*
X258103Y225858D01*
X258269Y225914D01*
X258436Y225965D01*
X258460Y225978D01*
X258485Y225986D01*
X258636Y226073D01*
X258790Y226157D01*
X258811Y226174D01*
X258834Y226187D01*
X259087Y226402D01*
X260778Y228093D01*
X277702Y228093D01*
X279393Y226402D01*
X279414Y226385D01*
X279431Y226364D01*
X279569Y226257D01*
X279705Y226147D01*
X279728Y226134D01*
X279749Y226118D01*
X279906Y226040D01*
X280060Y225958D01*
X280086Y225950D01*
X280110Y225938D01*
X280279Y225893D01*
X280446Y225843D01*
X280473Y225841D01*
X280499Y225834D01*
X280829Y225807D01*
X319978Y225807D01*
X320005Y225809D01*
X320032Y225807D01*
X320206Y225829D01*
X320379Y225847D01*
X320404Y225854D01*
X320431Y225858D01*
X320597Y225913D01*
X320764Y225965D01*
X320787Y225978D01*
X320813Y225986D01*
X320964Y226073D01*
X321118Y226157D01*
X321126Y226163D01*
X322924Y226908D01*
X324776Y226908D01*
X326488Y226199D01*
X327799Y224888D01*
X328508Y223176D01*
X328508Y221324D01*
X327799Y219612D01*
X327301Y219114D01*
X327296Y219107D01*
X327289Y219102D01*
X327169Y218953D01*
X327046Y218803D01*
X327042Y218795D01*
X327036Y218788D01*
X326949Y218619D01*
X326858Y218447D01*
X326855Y218438D01*
X326851Y218431D01*
X326798Y218247D01*
X326743Y218061D01*
X326742Y218052D01*
X326740Y218044D01*
X326724Y217853D01*
X326706Y217660D01*
X326707Y217651D01*
X326707Y217642D01*
X326729Y217453D01*
X326750Y217260D01*
X326753Y217251D01*
X326754Y217243D01*
X326813Y217060D01*
X326871Y216876D01*
X326876Y216868D01*
X326878Y216860D01*
X326973Y216691D01*
X327066Y216524D01*
X327072Y216517D01*
X327076Y216509D01*
X327202Y216364D01*
X327327Y216217D01*
X327334Y216211D01*
X327339Y216204D01*
X327491Y216087D01*
X327643Y215967D01*
X327651Y215963D01*
X327658Y215958D01*
X327831Y215871D01*
X328001Y215785D01*
X328010Y215782D01*
X328018Y215778D01*
X328206Y215728D01*
X328389Y215677D01*
X328398Y215676D01*
X328407Y215674D01*
X328738Y215647D01*
X341833Y215647D01*
X344512Y212968D01*
X347639Y209841D01*
X347649Y209832D01*
X347658Y209822D01*
X347805Y209705D01*
X347951Y209586D01*
X347962Y209580D01*
X347973Y209571D01*
X348140Y209486D01*
X348306Y209397D01*
X348319Y209393D01*
X348331Y209387D01*
X348511Y209336D01*
X348692Y209282D01*
X348706Y209281D01*
X348718Y209278D01*
X348904Y209263D01*
X349093Y209246D01*
X349107Y209248D01*
X349120Y209246D01*
X349305Y209269D01*
X349493Y209289D01*
X349506Y209294D01*
X349519Y209295D01*
X349697Y209354D01*
X349877Y209411D01*
X349889Y209417D01*
X349902Y209422D01*
X350066Y209515D01*
X350230Y209606D01*
X350240Y209614D01*
X350251Y209621D01*
X350394Y209745D01*
X350537Y209866D01*
X350545Y209877D01*
X350555Y209886D01*
X350669Y210034D01*
X350786Y210182D01*
X350792Y210194D01*
X350800Y210205D01*
X350952Y210500D01*
X351651Y212188D01*
X352962Y213499D01*
X354674Y214208D01*
X356526Y214208D01*
X358329Y213461D01*
X358347Y213447D01*
X358371Y213434D01*
X358392Y213418D01*
X358549Y213340D01*
X358703Y213258D01*
X358728Y213250D01*
X358752Y213238D01*
X358922Y213193D01*
X359088Y213143D01*
X359115Y213141D01*
X359141Y213134D01*
X359472Y213107D01*
X412411Y213107D01*
X412429Y213109D01*
X412447Y213107D01*
X412629Y213128D01*
X412812Y213147D01*
X412829Y213152D01*
X412846Y213154D01*
X413021Y213211D01*
X413197Y213265D01*
X413212Y213273D01*
X413229Y213279D01*
X413389Y213369D01*
X413551Y213457D01*
X413564Y213468D01*
X413580Y213477D01*
X413719Y213597D01*
X413860Y213714D01*
X413871Y213728D01*
X413885Y213740D01*
X413997Y213885D01*
X414112Y214028D01*
X414120Y214044D01*
X414131Y214058D01*
X414213Y214223D01*
X414298Y214385D01*
X414303Y214402D01*
X414311Y214418D01*
X414358Y214597D01*
X414409Y214772D01*
X414411Y214790D01*
X414415Y214807D01*
X414442Y215138D01*
X414442Y216826D01*
X415151Y218538D01*
X416462Y219849D01*
X418174Y220558D01*
X418761Y220558D01*
X418779Y220560D01*
X418797Y220558D01*
X418979Y220579D01*
X419162Y220598D01*
X419179Y220603D01*
X419196Y220605D01*
X419371Y220662D01*
X419547Y220716D01*
X419562Y220724D01*
X419579Y220730D01*
X419739Y220820D01*
X419901Y220908D01*
X419914Y220919D01*
X419930Y220928D01*
X420069Y221048D01*
X420210Y221165D01*
X420221Y221179D01*
X420235Y221191D01*
X420347Y221336D01*
X420462Y221479D01*
X420470Y221495D01*
X420481Y221509D01*
X420563Y221674D01*
X420648Y221836D01*
X420653Y221853D01*
X420661Y221869D01*
X420708Y222048D01*
X420759Y222223D01*
X420761Y222241D01*
X420765Y222258D01*
X420792Y222589D01*
X420792Y223176D01*
X421501Y224888D01*
X422812Y226199D01*
X424524Y226908D01*
X426376Y226908D01*
X428179Y226161D01*
X428197Y226147D01*
X428221Y226134D01*
X428242Y226118D01*
X428399Y226040D01*
X428553Y225958D01*
X428578Y225950D01*
X428602Y225938D01*
X428772Y225893D01*
X428938Y225843D01*
X428965Y225841D01*
X428991Y225834D01*
X429322Y225807D01*
X566623Y225807D01*
X623178Y169252D01*
X623199Y169235D01*
X623217Y169214D01*
X623354Y169107D01*
X623490Y168997D01*
X623513Y168984D01*
X623535Y168968D01*
X623692Y168890D01*
X623846Y168808D01*
X623871Y168800D01*
X623895Y168788D01*
X624065Y168743D01*
X624231Y168693D01*
X624258Y168691D01*
X624284Y168684D01*
X624615Y168657D01*
X669228Y168657D01*
X669255Y168659D01*
X669282Y168657D01*
X669456Y168679D01*
X669629Y168697D01*
X669654Y168704D01*
X669681Y168708D01*
X669847Y168763D01*
X670014Y168815D01*
X670037Y168828D01*
X670063Y168836D01*
X670214Y168923D01*
X670368Y169007D01*
X670376Y169013D01*
X672174Y169758D01*
X674026Y169758D01*
X675738Y169049D01*
X677049Y167738D01*
X677758Y166026D01*
X677758Y164174D01*
X677049Y162462D01*
X675738Y161151D01*
X674026Y160442D01*
X672174Y160442D01*
X670371Y161189D01*
X670353Y161203D01*
X670329Y161216D01*
X670308Y161232D01*
X670151Y161310D01*
X669997Y161392D01*
X669972Y161400D01*
X669948Y161412D01*
X669778Y161457D01*
X669612Y161507D01*
X669585Y161509D01*
X669559Y161516D01*
X669228Y161543D01*
X654389Y161543D01*
X654371Y161541D01*
X654353Y161543D01*
X654171Y161522D01*
X653988Y161503D01*
X653971Y161498D01*
X653954Y161496D01*
X653779Y161439D01*
X653603Y161385D01*
X653588Y161377D01*
X653571Y161371D01*
X653411Y161281D01*
X653249Y161193D01*
X653236Y161182D01*
X653220Y161173D01*
X653081Y161053D01*
X652940Y160936D01*
X652929Y160922D01*
X652915Y160910D01*
X652803Y160765D01*
X652688Y160622D01*
X652680Y160606D01*
X652669Y160592D01*
X652587Y160427D01*
X652502Y160265D01*
X652497Y160248D01*
X652489Y160232D01*
X652442Y160053D01*
X652391Y159878D01*
X652389Y159860D01*
X652385Y159843D01*
X652358Y159512D01*
X652358Y157824D01*
X651649Y156112D01*
X650338Y154801D01*
X648626Y154092D01*
X646774Y154092D01*
X644971Y154839D01*
X644953Y154853D01*
X644929Y154866D01*
X644908Y154882D01*
X644751Y154960D01*
X644597Y155042D01*
X644572Y155050D01*
X644548Y155062D01*
X644378Y155107D01*
X644212Y155157D01*
X644185Y155159D01*
X644159Y155166D01*
X643828Y155193D01*
X628989Y155193D01*
X628971Y155191D01*
X628953Y155193D01*
X628771Y155172D01*
X628588Y155153D01*
X628571Y155148D01*
X628554Y155146D01*
X628379Y155089D01*
X628203Y155035D01*
X628188Y155027D01*
X628171Y155021D01*
X628011Y154931D01*
X627849Y154843D01*
X627836Y154832D01*
X627820Y154823D01*
X627681Y154703D01*
X627540Y154586D01*
X627529Y154572D01*
X627515Y154560D01*
X627403Y154415D01*
X627288Y154272D01*
X627280Y154256D01*
X627269Y154242D01*
X627186Y154077D01*
X627102Y153915D01*
X627097Y153898D01*
X627089Y153882D01*
X627042Y153703D01*
X626991Y153528D01*
X626989Y153510D01*
X626985Y153493D01*
X626958Y153162D01*
X626958Y151638D01*
X626960Y151620D01*
X626958Y151602D01*
X626979Y151420D01*
X626998Y151237D01*
X627003Y151220D01*
X627005Y151203D01*
X627062Y151028D01*
X627116Y150852D01*
X627124Y150837D01*
X627130Y150820D01*
X627220Y150660D01*
X627308Y150498D01*
X627319Y150485D01*
X627328Y150469D01*
X627448Y150330D01*
X627565Y150189D01*
X627579Y150178D01*
X627591Y150164D01*
X627736Y150052D01*
X627879Y149937D01*
X627895Y149929D01*
X627909Y149918D01*
X628074Y149836D01*
X628236Y149751D01*
X628253Y149746D01*
X628269Y149738D01*
X628448Y149691D01*
X628623Y149640D01*
X628641Y149638D01*
X628658Y149634D01*
X628989Y149607D01*
X804135Y149607D01*
X804162Y149609D01*
X804189Y149607D01*
X804363Y149629D01*
X804536Y149647D01*
X804561Y149654D01*
X804588Y149658D01*
X804754Y149713D01*
X804921Y149765D01*
X804944Y149778D01*
X804970Y149786D01*
X805121Y149873D01*
X805275Y149957D01*
X805295Y149974D01*
X805319Y149987D01*
X805572Y150202D01*
X814998Y159628D01*
X815015Y159649D01*
X815036Y159667D01*
X815143Y159804D01*
X815253Y159940D01*
X815266Y159963D01*
X815282Y159985D01*
X815360Y160142D01*
X815442Y160296D01*
X815450Y160321D01*
X815462Y160345D01*
X815507Y160515D01*
X815557Y160681D01*
X815559Y160708D01*
X815566Y160734D01*
X815593Y161065D01*
X815593Y310811D01*
X815593Y310816D01*
X815593Y310818D01*
X815592Y310830D01*
X815593Y310847D01*
X815572Y311029D01*
X815553Y311212D01*
X815548Y311229D01*
X815546Y311246D01*
X815489Y311421D01*
X815435Y311597D01*
X815427Y311612D01*
X815421Y311629D01*
X815331Y311789D01*
X815243Y311951D01*
X815232Y311964D01*
X815223Y311980D01*
X815103Y312119D01*
X814986Y312260D01*
X814972Y312271D01*
X814960Y312285D01*
X814815Y312397D01*
X814672Y312512D01*
X814656Y312520D01*
X814642Y312531D01*
X814477Y312613D01*
X814315Y312698D01*
X814298Y312703D01*
X814282Y312711D01*
X814103Y312758D01*
X813928Y312809D01*
X813910Y312811D01*
X813893Y312815D01*
X813562Y312842D01*
X811874Y312842D01*
X810162Y313551D01*
X808851Y314862D01*
X808142Y316574D01*
X808142Y318426D01*
X808889Y320229D01*
X808903Y320247D01*
X808916Y320271D01*
X808932Y320292D01*
X809010Y320449D01*
X809092Y320603D01*
X809100Y320628D01*
X809112Y320652D01*
X809157Y320822D01*
X809207Y320988D01*
X809209Y321015D01*
X809216Y321041D01*
X809243Y321372D01*
X809243Y499335D01*
X809241Y499362D01*
X809243Y499389D01*
X809221Y499563D01*
X809203Y499736D01*
X809196Y499761D01*
X809192Y499788D01*
X809137Y499954D01*
X809085Y500121D01*
X809072Y500144D01*
X809064Y500170D01*
X808977Y500321D01*
X808893Y500475D01*
X808876Y500495D01*
X808863Y500519D01*
X808648Y500772D01*
X786522Y522898D01*
X786501Y522915D01*
X786483Y522936D01*
X786346Y523043D01*
X786210Y523153D01*
X786187Y523166D01*
X786165Y523182D01*
X786008Y523260D01*
X785854Y523342D01*
X785829Y523350D01*
X785805Y523362D01*
X785635Y523407D01*
X785469Y523457D01*
X785442Y523459D01*
X785416Y523466D01*
X785085Y523493D01*
X753172Y523493D01*
X753145Y523491D01*
X753118Y523493D01*
X752944Y523471D01*
X752771Y523453D01*
X752746Y523446D01*
X752719Y523442D01*
X752553Y523387D01*
X752386Y523335D01*
X752363Y523322D01*
X752337Y523314D01*
X752186Y523227D01*
X752032Y523143D01*
X752024Y523137D01*
X750226Y522392D01*
X748374Y522392D01*
X746662Y523101D01*
X745351Y524412D01*
X744642Y526124D01*
X744642Y527812D01*
X744640Y527830D01*
X744642Y527848D01*
X744621Y528030D01*
X744602Y528213D01*
X744597Y528230D01*
X744595Y528247D01*
X744538Y528422D01*
X744484Y528598D01*
X744476Y528613D01*
X744470Y528630D01*
X744380Y528790D01*
X744292Y528952D01*
X744281Y528965D01*
X744272Y528981D01*
X744152Y529120D01*
X744035Y529261D01*
X744021Y529272D01*
X744009Y529286D01*
X743864Y529398D01*
X743721Y529513D01*
X743705Y529521D01*
X743691Y529532D01*
X743526Y529614D01*
X743364Y529699D01*
X743347Y529704D01*
X743331Y529712D01*
X743152Y529759D01*
X742977Y529810D01*
X742959Y529812D01*
X742942Y529816D01*
X742611Y529843D01*
X484915Y529843D01*
X484888Y529841D01*
X484861Y529843D01*
X484687Y529821D01*
X484514Y529803D01*
X484489Y529796D01*
X484462Y529792D01*
X484296Y529737D01*
X484129Y529685D01*
X484106Y529672D01*
X484080Y529664D01*
X483929Y529577D01*
X483775Y529493D01*
X483755Y529476D01*
X483731Y529463D01*
X483478Y529248D01*
X480402Y526172D01*
X480385Y526151D01*
X480364Y526133D01*
X480257Y525996D01*
X480147Y525860D01*
X480134Y525837D01*
X480118Y525815D01*
X480040Y525658D01*
X479958Y525504D01*
X479950Y525479D01*
X479938Y525455D01*
X479893Y525285D01*
X479843Y525119D01*
X479841Y525092D01*
X479834Y525066D01*
X479807Y524735D01*
X479807Y461072D01*
X479807Y461065D01*
X479807Y461060D01*
X479809Y461042D01*
X479807Y461018D01*
X479829Y460844D01*
X479847Y460671D01*
X479854Y460646D01*
X479858Y460619D01*
X479913Y460453D01*
X479965Y460286D01*
X479978Y460263D01*
X479986Y460237D01*
X480074Y460085D01*
X480157Y459932D01*
X480163Y459924D01*
X480908Y458126D01*
X480908Y456274D01*
X480199Y454562D01*
X478888Y453251D01*
X477176Y452542D01*
X475324Y452542D01*
X473612Y453251D01*
X472301Y454562D01*
X471592Y456274D01*
X471592Y458126D01*
X472339Y459929D01*
X472353Y459947D01*
X472366Y459971D01*
X472382Y459992D01*
X472460Y460149D01*
X472542Y460303D01*
X472550Y460328D01*
X472562Y460352D01*
X472607Y460522D01*
X472657Y460688D01*
X472659Y460715D01*
X472666Y460741D01*
X472693Y461072D01*
X472693Y481809D01*
X472692Y481818D01*
X472693Y481827D01*
X472672Y482019D01*
X472653Y482210D01*
X472651Y482219D01*
X472650Y482227D01*
X472592Y482410D01*
X472535Y482595D01*
X472531Y482603D01*
X472528Y482611D01*
X472435Y482780D01*
X472343Y482949D01*
X472338Y482956D01*
X472333Y482964D01*
X472208Y483111D01*
X472086Y483258D01*
X472079Y483264D01*
X472073Y483271D01*
X471921Y483391D01*
X471772Y483511D01*
X471764Y483515D01*
X471757Y483520D01*
X471585Y483608D01*
X471415Y483696D01*
X471406Y483699D01*
X471398Y483703D01*
X471212Y483754D01*
X471028Y483807D01*
X471019Y483808D01*
X471010Y483811D01*
X470818Y483825D01*
X470626Y483840D01*
X470618Y483839D01*
X470609Y483840D01*
X470416Y483816D01*
X470227Y483793D01*
X470218Y483791D01*
X470209Y483790D01*
X470026Y483728D01*
X469844Y483669D01*
X469836Y483664D01*
X469828Y483661D01*
X469662Y483566D01*
X469493Y483471D01*
X469486Y483465D01*
X469479Y483460D01*
X469226Y483246D01*
X467702Y481722D01*
X465023Y479043D01*
X440465Y479043D01*
X440438Y479041D01*
X440411Y479043D01*
X440237Y479021D01*
X440064Y479003D01*
X440039Y478996D01*
X440012Y478992D01*
X439846Y478937D01*
X439679Y478885D01*
X439656Y478872D01*
X439630Y478864D01*
X439479Y478777D01*
X439325Y478693D01*
X439305Y478676D01*
X439281Y478663D01*
X439028Y478448D01*
X435952Y475372D01*
X435935Y475351D01*
X435914Y475333D01*
X435807Y475196D01*
X435697Y475060D01*
X435684Y475037D01*
X435668Y475015D01*
X435590Y474858D01*
X435508Y474704D01*
X435500Y474679D01*
X435488Y474655D01*
X435443Y474485D01*
X435393Y474319D01*
X435391Y474292D01*
X435384Y474266D01*
X435357Y473935D01*
X435357Y251522D01*
X435359Y251495D01*
X435357Y251468D01*
X435379Y251294D01*
X435397Y251121D01*
X435404Y251096D01*
X435408Y251069D01*
X435463Y250903D01*
X435515Y250736D01*
X435528Y250713D01*
X435536Y250687D01*
X435623Y250536D01*
X435707Y250382D01*
X435713Y250374D01*
X436458Y248576D01*
X436458Y246724D01*
X435749Y245012D01*
X434438Y243701D01*
X432726Y242992D01*
X432139Y242992D01*
X432121Y242990D01*
X432103Y242992D01*
X431921Y242971D01*
X431738Y242952D01*
X431721Y242947D01*
X431704Y242945D01*
X431529Y242888D01*
X431353Y242834D01*
X431338Y242826D01*
X431321Y242820D01*
X431161Y242730D01*
X430999Y242642D01*
X430986Y242631D01*
X430970Y242622D01*
X430831Y242502D01*
X430690Y242385D01*
X430679Y242371D01*
X430665Y242359D01*
X430553Y242214D01*
X430438Y242071D01*
X430430Y242055D01*
X430419Y242041D01*
X430337Y241876D01*
X430252Y241714D01*
X430247Y241697D01*
X430239Y241681D01*
X430192Y241502D01*
X430141Y241327D01*
X430139Y241309D01*
X430135Y241292D01*
X430108Y240961D01*
X430108Y240374D01*
X429399Y238662D01*
X428088Y237351D01*
X426376Y236642D01*
X424524Y236642D01*
X422812Y237351D01*
X421501Y238662D01*
X420792Y240374D01*
X420792Y242226D01*
X421539Y244029D01*
X421553Y244047D01*
X421566Y244071D01*
X421582Y244092D01*
X421660Y244249D01*
X421742Y244403D01*
X421750Y244428D01*
X421762Y244452D01*
X421807Y244622D01*
X421857Y244788D01*
X421859Y244815D01*
X421866Y244841D01*
X421893Y245172D01*
X421893Y448535D01*
X421891Y448562D01*
X421893Y448589D01*
X421871Y448762D01*
X421853Y448936D01*
X421846Y448961D01*
X421842Y448988D01*
X421787Y449154D01*
X421735Y449321D01*
X421722Y449344D01*
X421714Y449370D01*
X421627Y449521D01*
X421543Y449675D01*
X421526Y449695D01*
X421513Y449719D01*
X421298Y449972D01*
X419323Y451947D01*
X419302Y451964D01*
X419284Y451985D01*
X419147Y452092D01*
X419011Y452202D01*
X418988Y452215D01*
X418966Y452231D01*
X418809Y452309D01*
X418655Y452391D01*
X418630Y452399D01*
X418606Y452411D01*
X418436Y452456D01*
X418270Y452506D01*
X418259Y452507D01*
X416371Y453289D01*
X416353Y453303D01*
X416329Y453316D01*
X416308Y453332D01*
X416151Y453410D01*
X415997Y453492D01*
X415972Y453500D01*
X415948Y453512D01*
X415778Y453557D01*
X415612Y453607D01*
X415585Y453609D01*
X415559Y453616D01*
X415228Y453643D01*
X183052Y453643D01*
X183030Y453641D01*
X183008Y453643D01*
X182830Y453621D01*
X182651Y453603D01*
X182630Y453597D01*
X182608Y453594D01*
X182438Y453538D01*
X182266Y453485D01*
X182247Y453475D01*
X182226Y453468D01*
X182070Y453379D01*
X181912Y453293D01*
X181895Y453279D01*
X181876Y453268D01*
X181741Y453150D01*
X181603Y453036D01*
X181589Y453018D01*
X181572Y453004D01*
X181463Y452861D01*
X181351Y452722D01*
X181341Y452702D01*
X181327Y452684D01*
X181175Y452389D01*
X180903Y451732D01*
X178188Y449017D01*
X174640Y447547D01*
X155560Y447547D01*
X152012Y449017D01*
X149297Y451732D01*
X147827Y455280D01*
X147827Y459120D01*
X149297Y462668D01*
X152012Y465383D01*
X155560Y466853D01*
X174640Y466853D01*
X178188Y465383D01*
X180903Y462668D01*
X181175Y462011D01*
X181186Y461991D01*
X181193Y461970D01*
X181281Y461814D01*
X181366Y461656D01*
X181380Y461639D01*
X181391Y461619D01*
X181508Y461483D01*
X181622Y461345D01*
X181639Y461331D01*
X181654Y461314D01*
X181795Y461205D01*
X181935Y461092D01*
X181954Y461081D01*
X181972Y461068D01*
X182132Y460988D01*
X182291Y460905D01*
X182312Y460898D01*
X182333Y460888D01*
X182506Y460842D01*
X182678Y460792D01*
X182700Y460790D01*
X182721Y460784D01*
X183052Y460757D01*
X415228Y460757D01*
X415255Y460759D01*
X415282Y460757D01*
X415456Y460779D01*
X415629Y460797D01*
X415654Y460804D01*
X415681Y460808D01*
X415847Y460863D01*
X416014Y460915D01*
X416037Y460928D01*
X416063Y460936D01*
X416214Y461023D01*
X416368Y461107D01*
X416376Y461113D01*
X418174Y461858D01*
X420026Y461858D01*
X421738Y461149D01*
X423049Y459838D01*
X423795Y458036D01*
X423798Y458013D01*
X423805Y457987D01*
X423809Y457961D01*
X423864Y457796D01*
X423916Y457628D01*
X423929Y457605D01*
X423937Y457579D01*
X424024Y457428D01*
X424108Y457274D01*
X424125Y457254D01*
X424138Y457230D01*
X424353Y456977D01*
X424776Y456554D01*
X424783Y456549D01*
X424788Y456542D01*
X424938Y456422D01*
X425087Y456299D01*
X425095Y456295D01*
X425102Y456289D01*
X425271Y456202D01*
X425443Y456111D01*
X425452Y456108D01*
X425459Y456104D01*
X425643Y456051D01*
X425829Y455996D01*
X425838Y455995D01*
X425846Y455993D01*
X426038Y455977D01*
X426230Y455959D01*
X426239Y455960D01*
X426248Y455960D01*
X426438Y455982D01*
X426630Y456003D01*
X426639Y456006D01*
X426647Y456007D01*
X426831Y456067D01*
X427014Y456124D01*
X427022Y456129D01*
X427030Y456131D01*
X427199Y456227D01*
X427366Y456319D01*
X427373Y456325D01*
X427381Y456329D01*
X427526Y456455D01*
X427673Y456580D01*
X427679Y456587D01*
X427686Y456592D01*
X427803Y456743D01*
X427923Y456895D01*
X427927Y456904D01*
X427932Y456911D01*
X428018Y457083D01*
X428105Y457254D01*
X428108Y457263D01*
X428112Y457271D01*
X428162Y457459D01*
X428213Y457642D01*
X428214Y457651D01*
X428216Y457660D01*
X428243Y457991D01*
X428243Y473935D01*
X428241Y473962D01*
X428243Y473989D01*
X428221Y474162D01*
X428203Y474336D01*
X428196Y474361D01*
X428192Y474388D01*
X428137Y474554D01*
X428085Y474721D01*
X428072Y474744D01*
X428064Y474770D01*
X427977Y474921D01*
X427893Y475075D01*
X427876Y475095D01*
X427863Y475119D01*
X427648Y475372D01*
X424572Y478448D01*
X424551Y478465D01*
X424533Y478486D01*
X424396Y478593D01*
X424260Y478703D01*
X424237Y478716D01*
X424215Y478732D01*
X424058Y478810D01*
X423904Y478892D01*
X423879Y478900D01*
X423855Y478912D01*
X423685Y478957D01*
X423519Y479007D01*
X423492Y479009D01*
X423466Y479016D01*
X423135Y479043D01*
X183052Y479043D01*
X183030Y479041D01*
X183008Y479043D01*
X182830Y479021D01*
X182651Y479003D01*
X182630Y478997D01*
X182608Y478994D01*
X182438Y478938D01*
X182266Y478885D01*
X182247Y478875D01*
X182226Y478868D01*
X182070Y478779D01*
X181912Y478693D01*
X181895Y478679D01*
X181876Y478668D01*
X181741Y478550D01*
X181603Y478436D01*
X181589Y478418D01*
X181572Y478404D01*
X181463Y478261D01*
X181351Y478122D01*
X181341Y478102D01*
X181327Y478084D01*
X181175Y477789D01*
X180903Y477132D01*
X178188Y474417D01*
X174640Y472947D01*
X155560Y472947D01*
X152012Y474417D01*
X149297Y477132D01*
X147827Y480680D01*
X147827Y484520D01*
X149297Y488068D01*
X152012Y490783D01*
X155560Y492253D01*
X174640Y492253D01*
X178188Y490783D01*
X180903Y488068D01*
X181175Y487411D01*
X181186Y487391D01*
X181193Y487370D01*
X181281Y487214D01*
X181366Y487056D01*
X181380Y487039D01*
X181391Y487019D01*
X181508Y486883D01*
X181622Y486745D01*
X181639Y486731D01*
X181654Y486714D01*
X181795Y486605D01*
X181935Y486492D01*
X181954Y486481D01*
X181972Y486468D01*
X182132Y486388D01*
X182291Y486305D01*
X182312Y486298D01*
X182333Y486288D01*
X182506Y486242D01*
X182678Y486192D01*
X182700Y486190D01*
X182721Y486184D01*
X183052Y486157D01*
X426923Y486157D01*
X430364Y482716D01*
X430378Y482705D01*
X430389Y482691D01*
X430533Y482578D01*
X430675Y482461D01*
X430691Y482453D01*
X430705Y482442D01*
X430869Y482358D01*
X431031Y482273D01*
X431048Y482268D01*
X431064Y482259D01*
X431241Y482210D01*
X431417Y482158D01*
X431435Y482156D01*
X431452Y482151D01*
X431635Y482138D01*
X431818Y482121D01*
X431836Y482123D01*
X431853Y482122D01*
X432035Y482145D01*
X432218Y482165D01*
X432235Y482170D01*
X432253Y482172D01*
X432427Y482231D01*
X432602Y482286D01*
X432618Y482295D01*
X432634Y482301D01*
X432794Y482393D01*
X432954Y482481D01*
X432968Y482493D01*
X432983Y482502D01*
X433236Y482716D01*
X436677Y486157D01*
X461235Y486157D01*
X461262Y486159D01*
X461289Y486157D01*
X461463Y486179D01*
X461636Y486197D01*
X461661Y486204D01*
X461688Y486208D01*
X461854Y486263D01*
X462021Y486315D01*
X462044Y486328D01*
X462070Y486336D01*
X462221Y486423D01*
X462375Y486507D01*
X462395Y486524D01*
X462419Y486537D01*
X462672Y486752D01*
X465748Y489828D01*
X465765Y489849D01*
X465786Y489867D01*
X465893Y490004D01*
X466003Y490140D01*
X466016Y490163D01*
X466032Y490185D01*
X466110Y490342D01*
X466192Y490496D01*
X466200Y490521D01*
X466212Y490545D01*
X466257Y490715D01*
X466307Y490881D01*
X466309Y490908D01*
X466316Y490934D01*
X466343Y491265D01*
X466343Y534873D01*
X469022Y537552D01*
X472098Y540628D01*
X474777Y543307D01*
X823185Y543307D01*
X823212Y543309D01*
X823239Y543307D01*
X823413Y543329D01*
X823586Y543347D01*
X823611Y543354D01*
X823638Y543358D01*
X823804Y543413D01*
X823971Y543465D01*
X823994Y543478D01*
X824020Y543486D01*
X824171Y543573D01*
X824325Y543657D01*
X824345Y543674D01*
X824369Y543687D01*
X824622Y543902D01*
X832947Y552227D01*
X832964Y552248D01*
X832985Y552266D01*
X833092Y552403D01*
X833202Y552539D01*
X833215Y552562D01*
X833231Y552584D01*
X833309Y552741D01*
X833391Y552895D01*
X833399Y552920D01*
X833411Y552944D01*
X833456Y553114D01*
X833506Y553280D01*
X833507Y553291D01*
X834251Y555088D01*
X835562Y556399D01*
X837274Y557108D01*
X839126Y557108D01*
X840838Y556399D01*
X842149Y555088D01*
X842848Y553400D01*
X842854Y553388D01*
X842858Y553375D01*
X842950Y553210D01*
X843038Y553045D01*
X843047Y553035D01*
X843053Y553023D01*
X843175Y552880D01*
X843295Y552735D01*
X843305Y552726D01*
X843314Y552716D01*
X843461Y552599D01*
X843607Y552481D01*
X843619Y552475D01*
X843630Y552466D01*
X843798Y552381D01*
X843964Y552294D01*
X843977Y552290D01*
X843989Y552284D01*
X844170Y552233D01*
X844350Y552181D01*
X844363Y552180D01*
X844376Y552176D01*
X844565Y552162D01*
X844751Y552146D01*
X844764Y552148D01*
X844778Y552147D01*
X844966Y552170D01*
X845151Y552191D01*
X845164Y552195D01*
X845177Y552197D01*
X845356Y552257D01*
X845535Y552315D01*
X845546Y552321D01*
X845559Y552325D01*
X845722Y552419D01*
X845886Y552511D01*
X845896Y552520D01*
X845908Y552526D01*
X846161Y552741D01*
X846748Y553328D01*
X846765Y553349D01*
X846786Y553367D01*
X846893Y553504D01*
X847003Y553640D01*
X847016Y553663D01*
X847032Y553685D01*
X847110Y553842D01*
X847192Y553996D01*
X847200Y554021D01*
X847212Y554045D01*
X847257Y554215D01*
X847307Y554381D01*
X847309Y554408D01*
X847316Y554434D01*
X847343Y554765D01*
X847343Y651735D01*
X847341Y651762D01*
X847343Y651789D01*
X847321Y651963D01*
X847303Y652136D01*
X847296Y652161D01*
X847292Y652188D01*
X847237Y652354D01*
X847185Y652521D01*
X847172Y652544D01*
X847164Y652570D01*
X847077Y652721D01*
X846993Y652875D01*
X846976Y652895D01*
X846963Y652919D01*
X846748Y653172D01*
X838423Y661497D01*
X838402Y661514D01*
X838384Y661535D01*
X838247Y661642D01*
X838111Y661752D01*
X838088Y661765D01*
X838066Y661781D01*
X837909Y661859D01*
X837755Y661941D01*
X837730Y661949D01*
X837706Y661961D01*
X837536Y662006D01*
X837370Y662056D01*
X837359Y662057D01*
X835562Y662801D01*
X834251Y664112D01*
X833542Y665824D01*
X833542Y667676D01*
X834251Y669388D01*
X835562Y670699D01*
X837274Y671408D01*
X839126Y671408D01*
X840838Y670699D01*
X842149Y669388D01*
X842895Y667586D01*
X842898Y667563D01*
X842905Y667538D01*
X842909Y667511D01*
X842964Y667345D01*
X843016Y667178D01*
X843029Y667155D01*
X843037Y667129D01*
X843124Y666978D01*
X843208Y666824D01*
X843225Y666804D01*
X843238Y666780D01*
X843453Y666527D01*
X854457Y655523D01*
X854457Y550977D01*
X833323Y529843D01*
X794541Y529843D01*
X794532Y529842D01*
X794523Y529843D01*
X794331Y529822D01*
X794140Y529803D01*
X794131Y529801D01*
X794123Y529800D01*
X793940Y529742D01*
X793755Y529685D01*
X793747Y529681D01*
X793739Y529678D01*
X793570Y529585D01*
X793401Y529493D01*
X793394Y529488D01*
X793386Y529483D01*
X793239Y529359D01*
X793092Y529236D01*
X793086Y529229D01*
X793079Y529223D01*
X792959Y529070D01*
X792839Y528922D01*
X792835Y528914D01*
X792830Y528907D01*
X792742Y528734D01*
X792654Y528565D01*
X792651Y528556D01*
X792647Y528548D01*
X792595Y528362D01*
X792543Y528178D01*
X792542Y528169D01*
X792539Y528160D01*
X792525Y527967D01*
X792510Y527776D01*
X792511Y527768D01*
X792510Y527759D01*
X792534Y527566D01*
X792557Y527377D01*
X792559Y527368D01*
X792560Y527359D01*
X792622Y527176D01*
X792681Y526994D01*
X792686Y526986D01*
X792689Y526978D01*
X792785Y526811D01*
X792879Y526643D01*
X792885Y526636D01*
X792890Y526629D01*
X793104Y526376D01*
X798489Y520991D01*
X798499Y520982D01*
X798508Y520972D01*
X798655Y520855D01*
X798801Y520736D01*
X798812Y520730D01*
X798823Y520721D01*
X798991Y520635D01*
X799156Y520547D01*
X799169Y520543D01*
X799181Y520537D01*
X799362Y520486D01*
X799542Y520432D01*
X799556Y520431D01*
X799568Y520428D01*
X799754Y520413D01*
X799943Y520396D01*
X799957Y520398D01*
X799970Y520397D01*
X800155Y520419D01*
X800343Y520440D01*
X800356Y520444D01*
X800369Y520445D01*
X800549Y520504D01*
X800727Y520561D01*
X800739Y520567D01*
X800752Y520572D01*
X800915Y520665D01*
X801080Y520756D01*
X801090Y520764D01*
X801101Y520771D01*
X801244Y520895D01*
X801387Y521016D01*
X801395Y521027D01*
X801405Y521036D01*
X801520Y521185D01*
X801636Y521332D01*
X801642Y521344D01*
X801650Y521355D01*
X801802Y521650D01*
X802501Y523338D01*
X803812Y524649D01*
X805524Y525358D01*
X807376Y525358D01*
X809088Y524649D01*
X810399Y523338D01*
X811145Y521536D01*
X811148Y521513D01*
X811155Y521488D01*
X811159Y521461D01*
X811214Y521295D01*
X811266Y521128D01*
X811279Y521104D01*
X811287Y521079D01*
X811374Y520928D01*
X811458Y520774D01*
X811475Y520754D01*
X811488Y520730D01*
X811703Y520477D01*
X818476Y513704D01*
X818483Y513699D01*
X818488Y513692D01*
X818638Y513571D01*
X818787Y513449D01*
X818795Y513445D01*
X818802Y513439D01*
X818972Y513351D01*
X819143Y513261D01*
X819152Y513258D01*
X819159Y513254D01*
X819344Y513201D01*
X819529Y513146D01*
X819538Y513145D01*
X819546Y513143D01*
X819738Y513127D01*
X819930Y513109D01*
X819939Y513110D01*
X819948Y513110D01*
X820137Y513132D01*
X820330Y513153D01*
X820339Y513156D01*
X820347Y513157D01*
X820529Y513216D01*
X820714Y513274D01*
X820722Y513279D01*
X820730Y513281D01*
X820899Y513376D01*
X821066Y513469D01*
X821073Y513475D01*
X821081Y513479D01*
X821227Y513605D01*
X821373Y513730D01*
X821379Y513737D01*
X821386Y513742D01*
X821503Y513894D01*
X821623Y514046D01*
X821627Y514054D01*
X821632Y514061D01*
X821718Y514233D01*
X821805Y514404D01*
X821808Y514413D01*
X821812Y514421D01*
X821862Y514608D01*
X821913Y514792D01*
X821914Y514801D01*
X821916Y514810D01*
X821943Y515141D01*
X821943Y516828D01*
X821941Y516855D01*
X821943Y516882D01*
X821921Y517056D01*
X821903Y517229D01*
X821896Y517254D01*
X821892Y517281D01*
X821837Y517447D01*
X821785Y517614D01*
X821772Y517637D01*
X821764Y517663D01*
X821677Y517814D01*
X821593Y517968D01*
X821587Y517976D01*
X820842Y519774D01*
X820842Y521626D01*
X821551Y523338D01*
X822862Y524649D01*
X824574Y525358D01*
X826426Y525358D01*
X828138Y524649D01*
X829449Y523338D01*
X830158Y521626D01*
X830158Y519774D01*
X829411Y517971D01*
X829397Y517953D01*
X829384Y517929D01*
X829368Y517908D01*
X829290Y517751D01*
X829208Y517597D01*
X829200Y517572D01*
X829188Y517548D01*
X829143Y517378D01*
X829093Y517212D01*
X829091Y517185D01*
X829084Y517159D01*
X829057Y516828D01*
X829057Y501989D01*
X829059Y501971D01*
X829057Y501953D01*
X829078Y501771D01*
X829097Y501588D01*
X829102Y501571D01*
X829104Y501554D01*
X829161Y501379D01*
X829215Y501203D01*
X829223Y501188D01*
X829229Y501171D01*
X829319Y501011D01*
X829407Y500849D01*
X829418Y500836D01*
X829427Y500820D01*
X829547Y500681D01*
X829664Y500540D01*
X829678Y500529D01*
X829690Y500515D01*
X829835Y500403D01*
X829978Y500288D01*
X829994Y500280D01*
X830008Y500269D01*
X830173Y500187D01*
X830335Y500102D01*
X830352Y500097D01*
X830368Y500089D01*
X830547Y500042D01*
X830722Y499991D01*
X830740Y499989D01*
X830757Y499985D01*
X831088Y499958D01*
X832776Y499958D01*
X834488Y499249D01*
X835799Y497938D01*
X836508Y496226D01*
X836508Y494374D01*
X835761Y492571D01*
X835747Y492553D01*
X835734Y492529D01*
X835718Y492508D01*
X835640Y492351D01*
X835558Y492197D01*
X835550Y492172D01*
X835538Y492148D01*
X835493Y491978D01*
X835443Y491812D01*
X835441Y491785D01*
X835434Y491759D01*
X835407Y491428D01*
X835407Y144577D01*
X832728Y141898D01*
X824854Y134024D01*
X824849Y134017D01*
X824842Y134012D01*
X824721Y133862D01*
X824599Y133713D01*
X824595Y133705D01*
X824589Y133698D01*
X824501Y133528D01*
X824411Y133357D01*
X824408Y133348D01*
X824404Y133341D01*
X824351Y133156D01*
X824296Y132971D01*
X824295Y132962D01*
X824293Y132954D01*
X824277Y132762D01*
X824259Y132570D01*
X824260Y132561D01*
X824260Y132552D01*
X824282Y132363D01*
X824303Y132170D01*
X824306Y132161D01*
X824307Y132153D01*
X824367Y131969D01*
X824424Y131786D01*
X824429Y131778D01*
X824431Y131770D01*
X824526Y131601D01*
X824619Y131434D01*
X824625Y131427D01*
X824629Y131419D01*
X824755Y131273D01*
X824880Y131127D01*
X824887Y131121D01*
X824892Y131114D01*
X825044Y130997D01*
X825196Y130877D01*
X825204Y130873D01*
X825211Y130868D01*
X825383Y130782D01*
X825554Y130695D01*
X825563Y130692D01*
X825571Y130688D01*
X825758Y130638D01*
X825942Y130587D01*
X825951Y130586D01*
X825960Y130584D01*
X826291Y130557D01*
X842235Y130557D01*
X842262Y130559D01*
X842289Y130557D01*
X842463Y130579D01*
X842636Y130597D01*
X842662Y130604D01*
X842688Y130608D01*
X842854Y130663D01*
X843021Y130715D01*
X843045Y130728D01*
X843070Y130736D01*
X843221Y130823D01*
X843375Y130907D01*
X843395Y130924D01*
X843419Y130937D01*
X843672Y131152D01*
X859448Y146928D01*
X859465Y146949D01*
X859486Y146966D01*
X859593Y147104D01*
X859703Y147240D01*
X859716Y147263D01*
X859732Y147285D01*
X859810Y147442D01*
X859892Y147596D01*
X859900Y147621D01*
X859912Y147645D01*
X859957Y147815D01*
X860007Y147981D01*
X860009Y148008D01*
X860016Y148034D01*
X860043Y148365D01*
X860043Y249123D01*
X935648Y324728D01*
X935665Y324749D01*
X935686Y324767D01*
X935793Y324904D01*
X935903Y325040D01*
X935916Y325063D01*
X935932Y325085D01*
X936010Y325242D01*
X936092Y325396D01*
X936100Y325421D01*
X936112Y325445D01*
X936157Y325615D01*
X936207Y325781D01*
X936209Y325808D01*
X936216Y325834D01*
X936243Y326165D01*
X936243Y372335D01*
X936241Y372362D01*
X936243Y372389D01*
X936221Y372563D01*
X936203Y372736D01*
X936196Y372761D01*
X936192Y372788D01*
X936137Y372954D01*
X936085Y373121D01*
X936072Y373144D01*
X936064Y373170D01*
X935977Y373321D01*
X935893Y373475D01*
X935876Y373495D01*
X935863Y373519D01*
X935648Y373772D01*
X932572Y376848D01*
X932551Y376865D01*
X932533Y376886D01*
X932396Y376993D01*
X932260Y377103D01*
X932237Y377116D01*
X932215Y377132D01*
X932058Y377210D01*
X931904Y377292D01*
X931879Y377300D01*
X931855Y377312D01*
X931685Y377357D01*
X931519Y377407D01*
X931492Y377409D01*
X931466Y377416D01*
X931135Y377443D01*
X872028Y377443D01*
X872006Y377441D01*
X871984Y377443D01*
X871807Y377421D01*
X871628Y377403D01*
X871607Y377397D01*
X871584Y377394D01*
X871415Y377338D01*
X871243Y377285D01*
X871223Y377275D01*
X871202Y377268D01*
X871047Y377179D01*
X870889Y377093D01*
X870872Y377079D01*
X870852Y377068D01*
X870717Y376950D01*
X870580Y376836D01*
X870566Y376818D01*
X870549Y376804D01*
X870440Y376662D01*
X870327Y376522D01*
X870317Y376502D01*
X870303Y376484D01*
X870279Y376438D01*
X867951Y374109D01*
X866707Y373593D01*
X866706Y373593D01*
X864963Y372871D01*
X849537Y372871D01*
X846549Y374109D01*
X844263Y376395D01*
X843025Y379383D01*
X843025Y382617D01*
X844263Y385605D01*
X846549Y387891D01*
X849537Y389129D01*
X864963Y389129D01*
X867951Y387891D01*
X870291Y385551D01*
X870342Y385456D01*
X870356Y385439D01*
X870367Y385419D01*
X870484Y385284D01*
X870598Y385145D01*
X870616Y385131D01*
X870630Y385114D01*
X870772Y385005D01*
X870911Y384892D01*
X870931Y384881D01*
X870948Y384868D01*
X871109Y384788D01*
X871268Y384705D01*
X871289Y384698D01*
X871309Y384688D01*
X871483Y384642D01*
X871654Y384592D01*
X871676Y384590D01*
X871698Y384584D01*
X872028Y384557D01*
X934923Y384557D01*
X937602Y381878D01*
X939126Y380354D01*
X939133Y380349D01*
X939138Y380342D01*
X939289Y380221D01*
X939437Y380099D01*
X939445Y380095D01*
X939452Y380089D01*
X939622Y380001D01*
X939793Y379911D01*
X939802Y379908D01*
X939809Y379904D01*
X939994Y379851D01*
X940179Y379796D01*
X940188Y379795D01*
X940196Y379793D01*
X940387Y379777D01*
X940580Y379759D01*
X940589Y379760D01*
X940598Y379760D01*
X940787Y379782D01*
X940980Y379803D01*
X940989Y379806D01*
X940997Y379807D01*
X941179Y379866D01*
X941364Y379924D01*
X941372Y379929D01*
X941380Y379931D01*
X941547Y380026D01*
X941716Y380119D01*
X941723Y380125D01*
X941731Y380129D01*
X941876Y380254D01*
X942023Y380380D01*
X942029Y380387D01*
X942036Y380392D01*
X942152Y380543D01*
X942273Y380696D01*
X942277Y380704D01*
X942282Y380711D01*
X942367Y380881D01*
X942455Y381054D01*
X942458Y381063D01*
X942462Y381071D01*
X942511Y381257D01*
X942563Y381442D01*
X942564Y381451D01*
X942566Y381460D01*
X942593Y381791D01*
X942593Y397735D01*
X942591Y397762D01*
X942593Y397789D01*
X942571Y397963D01*
X942553Y398136D01*
X942546Y398161D01*
X942542Y398188D01*
X942487Y398354D01*
X942435Y398521D01*
X942422Y398544D01*
X942414Y398570D01*
X942327Y398721D01*
X942243Y398875D01*
X942226Y398895D01*
X942213Y398919D01*
X941998Y399172D01*
X938922Y402248D01*
X938901Y402265D01*
X938883Y402286D01*
X938746Y402393D01*
X938610Y402503D01*
X938587Y402516D01*
X938565Y402532D01*
X938408Y402610D01*
X938254Y402692D01*
X938229Y402700D01*
X938205Y402712D01*
X938035Y402757D01*
X937869Y402807D01*
X937842Y402809D01*
X937816Y402816D01*
X937485Y402843D01*
X872028Y402843D01*
X872006Y402841D01*
X871984Y402843D01*
X871807Y402821D01*
X871628Y402803D01*
X871607Y402797D01*
X871584Y402794D01*
X871415Y402738D01*
X871243Y402685D01*
X871223Y402675D01*
X871202Y402668D01*
X871047Y402579D01*
X870889Y402493D01*
X870872Y402479D01*
X870852Y402468D01*
X870717Y402350D01*
X870580Y402236D01*
X870566Y402218D01*
X870549Y402204D01*
X870440Y402062D01*
X870327Y401922D01*
X870317Y401902D01*
X870303Y401884D01*
X870279Y401838D01*
X867951Y399509D01*
X864963Y398271D01*
X849537Y398271D01*
X846549Y399509D01*
X844263Y401795D01*
X843025Y404783D01*
X843025Y408017D01*
X844263Y411005D01*
X846549Y413291D01*
X849537Y414529D01*
X864963Y414529D01*
X867951Y413291D01*
X870291Y410951D01*
X870342Y410856D01*
X870356Y410839D01*
X870367Y410819D01*
X870484Y410684D01*
X870598Y410545D01*
X870616Y410531D01*
X870630Y410514D01*
X870772Y410405D01*
X870911Y410292D01*
X870931Y410281D01*
X870948Y410268D01*
X871109Y410188D01*
X871268Y410105D01*
X871289Y410098D01*
X871309Y410088D01*
X871483Y410042D01*
X871654Y409992D01*
X871676Y409990D01*
X871698Y409984D01*
X872028Y409957D01*
X941273Y409957D01*
X943952Y407278D01*
X945476Y405754D01*
X945483Y405749D01*
X945488Y405742D01*
X945639Y405621D01*
X945787Y405499D01*
X945795Y405495D01*
X945802Y405489D01*
X945972Y405401D01*
X946143Y405311D01*
X946152Y405308D01*
X946159Y405304D01*
X946344Y405251D01*
X946529Y405196D01*
X946538Y405195D01*
X946546Y405193D01*
X946737Y405177D01*
X946930Y405159D01*
X946939Y405160D01*
X946948Y405160D01*
X947137Y405182D01*
X947330Y405203D01*
X947339Y405206D01*
X947347Y405207D01*
X947529Y405266D01*
X947714Y405324D01*
X947722Y405329D01*
X947730Y405331D01*
X947897Y405426D01*
X948066Y405519D01*
X948073Y405525D01*
X948081Y405529D01*
X948226Y405654D01*
X948373Y405780D01*
X948379Y405787D01*
X948386Y405792D01*
X948502Y405943D01*
X948623Y406096D01*
X948627Y406104D01*
X948632Y406111D01*
X948717Y406281D01*
X948805Y406454D01*
X948808Y406463D01*
X948812Y406471D01*
X948861Y406657D01*
X948913Y406842D01*
X948914Y406851D01*
X948916Y406860D01*
X948943Y407191D01*
X948943Y423135D01*
X948941Y423162D01*
X948943Y423189D01*
X948921Y423362D01*
X948903Y423536D01*
X948896Y423561D01*
X948892Y423588D01*
X948837Y423754D01*
X948785Y423921D01*
X948772Y423944D01*
X948764Y423970D01*
X948677Y424121D01*
X948593Y424275D01*
X948576Y424295D01*
X948563Y424319D01*
X948348Y424572D01*
X945272Y427648D01*
X945251Y427665D01*
X945233Y427686D01*
X945096Y427793D01*
X944960Y427903D01*
X944937Y427916D01*
X944915Y427932D01*
X944758Y428010D01*
X944604Y428092D01*
X944579Y428100D01*
X944555Y428112D01*
X944385Y428157D01*
X944219Y428207D01*
X944192Y428209D01*
X944166Y428216D01*
X943835Y428243D01*
X872028Y428243D01*
X872006Y428241D01*
X871984Y428243D01*
X871807Y428221D01*
X871628Y428203D01*
X871607Y428197D01*
X871584Y428194D01*
X871415Y428138D01*
X871243Y428085D01*
X871223Y428075D01*
X871202Y428068D01*
X871047Y427979D01*
X870889Y427893D01*
X870872Y427879D01*
X870852Y427868D01*
X870717Y427750D01*
X870580Y427636D01*
X870566Y427618D01*
X870549Y427604D01*
X870440Y427462D01*
X870327Y427322D01*
X870317Y427302D01*
X870303Y427284D01*
X870279Y427238D01*
X867951Y424909D01*
X864963Y423671D01*
X849537Y423671D01*
X846549Y424909D01*
X844263Y427195D01*
X843025Y430183D01*
X843025Y433417D01*
X844263Y436405D01*
X846549Y438691D01*
X849537Y439929D01*
X864963Y439929D01*
X867951Y438691D01*
X870291Y436351D01*
X870342Y436256D01*
X870356Y436239D01*
X870367Y436219D01*
X870484Y436084D01*
X870598Y435945D01*
X870616Y435931D01*
X870630Y435914D01*
X870772Y435805D01*
X870911Y435692D01*
X870931Y435681D01*
X870948Y435668D01*
X871109Y435588D01*
X871268Y435505D01*
X871289Y435498D01*
X871309Y435488D01*
X871483Y435442D01*
X871654Y435392D01*
X871676Y435390D01*
X871698Y435384D01*
X872028Y435357D01*
X947623Y435357D01*
X956057Y426923D01*
X956057Y309677D01*
X953378Y306998D01*
X880452Y234072D01*
X880435Y234051D01*
X880414Y234034D01*
X880307Y233896D01*
X880197Y233760D01*
X880184Y233737D01*
X880168Y233715D01*
X880090Y233558D01*
X880008Y233404D01*
X880000Y233379D01*
X879988Y233355D01*
X879943Y233185D01*
X879893Y233019D01*
X879891Y232992D01*
X879884Y232966D01*
X879857Y232635D01*
X879857Y131877D01*
X858723Y110743D01*
X606312Y110743D01*
X606303Y110742D01*
X606294Y110743D01*
X606103Y110723D01*
X605911Y110703D01*
X605902Y110701D01*
X605894Y110700D01*
X605710Y110642D01*
X605526Y110585D01*
X605518Y110581D01*
X605510Y110578D01*
X605341Y110485D01*
X605172Y110393D01*
X605165Y110388D01*
X605157Y110383D01*
X605009Y110257D01*
X604863Y110136D01*
X604857Y110129D01*
X604850Y110123D01*
X604731Y109972D01*
X604610Y109822D01*
X604606Y109814D01*
X604601Y109807D01*
X604513Y109634D01*
X604425Y109465D01*
X604423Y109456D01*
X604418Y109448D01*
X604367Y109262D01*
X604314Y109078D01*
X604313Y109069D01*
X604310Y109060D01*
X604296Y108868D01*
X604281Y108676D01*
X604282Y108668D01*
X604281Y108659D01*
X604305Y108467D01*
X604328Y108277D01*
X604330Y108268D01*
X604331Y108259D01*
X604392Y108079D01*
X604452Y107894D01*
X604457Y107886D01*
X604460Y107878D01*
X604554Y107713D01*
X604650Y107543D01*
X604656Y107536D01*
X604661Y107529D01*
X604875Y107276D01*
X605083Y107068D01*
X606553Y103520D01*
X606553Y99680D01*
X605083Y96132D01*
X602368Y93417D01*
X598820Y91947D01*
X594980Y91947D01*
X591432Y93417D01*
X588717Y96132D01*
X587247Y99680D01*
X587247Y103520D01*
X588717Y107068D01*
X588925Y107276D01*
X588930Y107283D01*
X588937Y107288D01*
X589059Y107439D01*
X589180Y107587D01*
X589184Y107595D01*
X589190Y107602D01*
X589278Y107772D01*
X589368Y107943D01*
X589371Y107952D01*
X589375Y107959D01*
X589428Y108143D01*
X589483Y108329D01*
X589484Y108338D01*
X589486Y108346D01*
X589502Y108537D01*
X589520Y108730D01*
X589519Y108739D01*
X589519Y108748D01*
X589497Y108936D01*
X589476Y109130D01*
X589473Y109139D01*
X589472Y109147D01*
X589413Y109329D01*
X589355Y109514D01*
X589350Y109522D01*
X589348Y109530D01*
X589253Y109699D01*
X589160Y109866D01*
X589154Y109873D01*
X589150Y109881D01*
X589024Y110026D01*
X588899Y110173D01*
X588892Y110179D01*
X588887Y110186D01*
X588736Y110303D01*
X588583Y110423D01*
X588575Y110427D01*
X588568Y110432D01*
X588396Y110518D01*
X588225Y110605D01*
X588216Y110608D01*
X588208Y110612D01*
X588020Y110662D01*
X587837Y110713D01*
X587828Y110714D01*
X587819Y110716D01*
X587488Y110743D01*
X512877Y110743D01*
X507024Y116596D01*
X507023Y116597D01*
X500800Y122820D01*
X500793Y122825D01*
X500788Y122832D01*
X500638Y122953D01*
X500489Y123075D01*
X500481Y123079D01*
X500474Y123085D01*
X500303Y123173D01*
X500133Y123263D01*
X500125Y123266D01*
X500117Y123270D01*
X499931Y123323D01*
X499747Y123378D01*
X499738Y123379D01*
X499730Y123381D01*
X499538Y123397D01*
X499346Y123415D01*
X499337Y123414D01*
X499328Y123414D01*
X499139Y123392D01*
X498946Y123371D01*
X498937Y123368D01*
X498929Y123367D01*
X498747Y123308D01*
X498562Y123250D01*
X498554Y123245D01*
X498546Y123243D01*
X498377Y123148D01*
X498210Y123055D01*
X498203Y123049D01*
X498195Y123045D01*
X498049Y122919D01*
X497903Y122794D01*
X497897Y122787D01*
X497890Y122782D01*
X497772Y122629D01*
X497653Y122478D01*
X497649Y122470D01*
X497644Y122463D01*
X497558Y122291D01*
X497471Y122120D01*
X497468Y122111D01*
X497464Y122103D01*
X497414Y121916D01*
X497363Y121732D01*
X497362Y121723D01*
X497360Y121714D01*
X497333Y121383D01*
X497333Y118983D01*
X496057Y115902D01*
X493698Y113543D01*
X490617Y112267D01*
X487283Y112267D01*
X484202Y113543D01*
X481843Y115902D01*
X481302Y117210D01*
X481297Y117218D01*
X481295Y117226D01*
X481202Y117396D01*
X481111Y117565D01*
X481106Y117571D01*
X481101Y117579D01*
X480977Y117728D01*
X480855Y117875D01*
X480848Y117881D01*
X480842Y117887D01*
X480690Y118009D01*
X480542Y118129D01*
X480535Y118133D01*
X480527Y118138D01*
X480355Y118227D01*
X480186Y118316D01*
X480177Y118318D01*
X480169Y118322D01*
X479985Y118375D01*
X479799Y118429D01*
X479790Y118430D01*
X479782Y118432D01*
X479591Y118447D01*
X479398Y118463D01*
X479389Y118462D01*
X479381Y118463D01*
X479189Y118440D01*
X478998Y118418D01*
X478990Y118416D01*
X478981Y118414D01*
X478799Y118354D01*
X478615Y118295D01*
X478607Y118291D01*
X478599Y118288D01*
X478433Y118193D01*
X478263Y118099D01*
X478257Y118093D01*
X478249Y118088D01*
X478104Y117962D01*
X477958Y117837D01*
X477952Y117830D01*
X477945Y117824D01*
X477828Y117671D01*
X477709Y117520D01*
X477705Y117512D01*
X477700Y117505D01*
X477548Y117210D01*
X477007Y115902D01*
X474665Y113560D01*
X474579Y113455D01*
X474487Y113357D01*
X474452Y113300D01*
X474410Y113248D01*
X474347Y113129D01*
X474275Y113014D01*
X474252Y112952D01*
X474221Y112893D01*
X474183Y112763D01*
X474136Y112636D01*
X474125Y112571D01*
X474106Y112507D01*
X474094Y112372D01*
X474073Y112239D01*
X474076Y112172D01*
X474070Y112106D01*
X474085Y111971D01*
X474090Y111836D01*
X474106Y111772D01*
X474113Y111706D01*
X474154Y111577D01*
X474187Y111445D01*
X474215Y111385D01*
X474235Y111322D01*
X474300Y111203D01*
X474358Y111081D01*
X474398Y111028D01*
X474430Y110969D01*
X474517Y110866D01*
X474598Y110758D01*
X474647Y110713D01*
X474690Y110662D01*
X474796Y110579D01*
X474897Y110488D01*
X474962Y110448D01*
X475006Y110413D01*
X475077Y110377D01*
X475179Y110314D01*
X475225Y110290D01*
X476519Y109350D01*
X477650Y108219D01*
X478590Y106925D01*
X479316Y105500D01*
X479759Y104139D01*
X470408Y104139D01*
X470390Y104137D01*
X470373Y104139D01*
X470190Y104118D01*
X470008Y104099D01*
X469991Y104094D01*
X469973Y104092D01*
X469895Y104067D01*
X469758Y104106D01*
X469740Y104108D01*
X469723Y104112D01*
X469392Y104139D01*
X460041Y104139D01*
X460484Y105500D01*
X461210Y106925D01*
X462150Y108219D01*
X463281Y109350D01*
X464575Y110290D01*
X464621Y110314D01*
X464734Y110387D01*
X464853Y110452D01*
X464904Y110495D01*
X464960Y110531D01*
X465057Y110625D01*
X465160Y110713D01*
X465201Y110765D01*
X465249Y110811D01*
X465326Y110923D01*
X465410Y111029D01*
X465440Y111088D01*
X465477Y111143D01*
X465531Y111267D01*
X465592Y111388D01*
X465610Y111452D01*
X465636Y111513D01*
X465664Y111645D01*
X465700Y111775D01*
X465705Y111842D01*
X465718Y111907D01*
X465719Y112042D01*
X465729Y112177D01*
X465721Y112243D01*
X465722Y112309D01*
X465696Y112442D01*
X465679Y112576D01*
X465658Y112640D01*
X465645Y112705D01*
X465594Y112830D01*
X465551Y112958D01*
X465517Y113016D01*
X465492Y113077D01*
X465417Y113190D01*
X465350Y113307D01*
X465300Y113365D01*
X465269Y113412D01*
X465213Y113468D01*
X465135Y113560D01*
X462793Y115902D01*
X461517Y118983D01*
X461517Y122317D01*
X462793Y125398D01*
X465152Y127757D01*
X468233Y129033D01*
X470662Y129033D01*
X470680Y129035D01*
X470698Y129033D01*
X470880Y129054D01*
X471063Y129073D01*
X471080Y129078D01*
X471097Y129080D01*
X471272Y129137D01*
X471448Y129191D01*
X471463Y129199D01*
X471480Y129205D01*
X471640Y129295D01*
X471802Y129383D01*
X471815Y129394D01*
X471831Y129403D01*
X471970Y129523D01*
X472111Y129640D01*
X472122Y129654D01*
X472136Y129666D01*
X472248Y129811D01*
X472363Y129954D01*
X472371Y129970D01*
X472382Y129984D01*
X472464Y130149D01*
X472549Y130311D01*
X472554Y130328D01*
X472562Y130344D01*
X472609Y130523D01*
X472660Y130698D01*
X472662Y130716D01*
X472666Y130733D01*
X472693Y131064D01*
X472693Y148528D01*
X472691Y148555D01*
X472693Y148582D01*
X472671Y148756D01*
X472653Y148929D01*
X472646Y148954D01*
X472642Y148981D01*
X472587Y149147D01*
X472535Y149314D01*
X472522Y149337D01*
X472514Y149363D01*
X472427Y149514D01*
X472343Y149668D01*
X472337Y149676D01*
X471592Y151474D01*
X471592Y153326D01*
X472301Y155038D01*
X473612Y156349D01*
X475324Y157058D01*
X475911Y157058D01*
X475929Y157060D01*
X475947Y157058D01*
X476129Y157079D01*
X476312Y157098D01*
X476329Y157103D01*
X476346Y157105D01*
X476521Y157162D01*
X476697Y157216D01*
X476712Y157224D01*
X476729Y157230D01*
X476889Y157320D01*
X477051Y157408D01*
X477064Y157419D01*
X477080Y157428D01*
X477219Y157548D01*
X477360Y157665D01*
X477371Y157679D01*
X477385Y157691D01*
X477497Y157836D01*
X477612Y157979D01*
X477620Y157995D01*
X477631Y158009D01*
X477713Y158174D01*
X477798Y158336D01*
X477803Y158353D01*
X477811Y158369D01*
X477858Y158548D01*
X477909Y158723D01*
X477911Y158741D01*
X477915Y158758D01*
X477942Y159089D01*
X477942Y159512D01*
X477940Y159530D01*
X477942Y159548D01*
X477921Y159730D01*
X477902Y159913D01*
X477897Y159930D01*
X477895Y159947D01*
X477838Y160122D01*
X477784Y160298D01*
X477776Y160313D01*
X477770Y160330D01*
X477680Y160490D01*
X477592Y160652D01*
X477581Y160665D01*
X477572Y160681D01*
X477452Y160820D01*
X477335Y160961D01*
X477321Y160972D01*
X477309Y160986D01*
X477164Y161098D01*
X477021Y161213D01*
X477005Y161221D01*
X476991Y161232D01*
X476826Y161314D01*
X476664Y161399D01*
X476647Y161404D01*
X476631Y161412D01*
X476452Y161459D01*
X476277Y161510D01*
X476259Y161512D01*
X476242Y161516D01*
X475911Y161543D01*
X408715Y161543D01*
X408688Y161541D01*
X408661Y161543D01*
X408487Y161521D01*
X408314Y161503D01*
X408288Y161496D01*
X408262Y161492D01*
X408096Y161436D01*
X407929Y161385D01*
X407905Y161372D01*
X407880Y161364D01*
X407729Y161277D01*
X407575Y161193D01*
X407555Y161176D01*
X407531Y161163D01*
X407278Y160948D01*
X397852Y151522D01*
X397835Y151501D01*
X397814Y151483D01*
X397707Y151346D01*
X397597Y151210D01*
X397584Y151187D01*
X397568Y151165D01*
X397490Y151008D01*
X397408Y150854D01*
X397400Y150829D01*
X397388Y150805D01*
X397343Y150635D01*
X397293Y150469D01*
X397291Y150442D01*
X397284Y150416D01*
X397257Y150085D01*
X397257Y106477D01*
X394579Y103799D01*
X394578Y103798D01*
X302602Y11822D01*
X299923Y9143D01*
X103937Y9143D01*
G37*
%LPD*%
%LPC*%
G36*
X100674Y166792D02*
X100674Y166792D01*
X98962Y167501D01*
X97651Y168812D01*
X96942Y170524D01*
X96942Y171111D01*
X96940Y171129D01*
X96942Y171147D01*
X96921Y171329D01*
X96902Y171512D01*
X96897Y171529D01*
X96895Y171546D01*
X96838Y171721D01*
X96784Y171897D01*
X96776Y171912D01*
X96770Y171929D01*
X96680Y172089D01*
X96592Y172251D01*
X96581Y172264D01*
X96572Y172280D01*
X96452Y172419D01*
X96335Y172560D01*
X96321Y172571D01*
X96309Y172585D01*
X96164Y172697D01*
X96021Y172812D01*
X96005Y172820D01*
X95991Y172831D01*
X95826Y172913D01*
X95664Y172998D01*
X95647Y173003D01*
X95631Y173011D01*
X95452Y173058D01*
X95277Y173109D01*
X95259Y173111D01*
X95242Y173115D01*
X94911Y173142D01*
X94324Y173142D01*
X92612Y173851D01*
X91301Y175162D01*
X90592Y176874D01*
X90592Y177461D01*
X90590Y177479D01*
X90592Y177497D01*
X90571Y177679D01*
X90552Y177862D01*
X90547Y177879D01*
X90545Y177896D01*
X90488Y178071D01*
X90434Y178247D01*
X90426Y178262D01*
X90420Y178279D01*
X90330Y178439D01*
X90242Y178601D01*
X90231Y178614D01*
X90222Y178630D01*
X90102Y178769D01*
X89985Y178910D01*
X89971Y178921D01*
X89959Y178935D01*
X89814Y179047D01*
X89671Y179162D01*
X89655Y179170D01*
X89641Y179181D01*
X89476Y179263D01*
X89314Y179348D01*
X89297Y179353D01*
X89281Y179361D01*
X89102Y179408D01*
X88927Y179459D01*
X88909Y179461D01*
X88892Y179465D01*
X88561Y179492D01*
X87974Y179492D01*
X86262Y180201D01*
X84951Y181512D01*
X84242Y183224D01*
X84242Y185076D01*
X84989Y186879D01*
X85003Y186897D01*
X85016Y186921D01*
X85032Y186942D01*
X85110Y187099D01*
X85192Y187253D01*
X85200Y187278D01*
X85212Y187302D01*
X85257Y187472D01*
X85307Y187638D01*
X85309Y187665D01*
X85316Y187691D01*
X85343Y188022D01*
X85343Y426923D01*
X93777Y435357D01*
X105872Y435357D01*
X105894Y435359D01*
X105916Y435357D01*
X106094Y435379D01*
X106272Y435397D01*
X106294Y435403D01*
X106316Y435406D01*
X106486Y435462D01*
X106657Y435515D01*
X106677Y435525D01*
X106698Y435533D01*
X106854Y435621D01*
X107011Y435707D01*
X107028Y435721D01*
X107048Y435732D01*
X107183Y435850D01*
X107320Y435964D01*
X107334Y435982D01*
X107351Y435997D01*
X107460Y436139D01*
X107573Y436278D01*
X107583Y436298D01*
X107597Y436316D01*
X107621Y436363D01*
X109949Y438691D01*
X112937Y439929D01*
X128363Y439929D01*
X131351Y438691D01*
X133637Y436405D01*
X134875Y433417D01*
X134875Y430183D01*
X133637Y427195D01*
X131351Y424909D01*
X128363Y423671D01*
X112937Y423671D01*
X109949Y424909D01*
X107609Y427249D01*
X107558Y427344D01*
X107544Y427361D01*
X107533Y427381D01*
X107416Y427517D01*
X107302Y427654D01*
X107284Y427669D01*
X107270Y427686D01*
X107129Y427795D01*
X106989Y427908D01*
X106969Y427919D01*
X106952Y427932D01*
X106791Y428012D01*
X106633Y428095D01*
X106611Y428102D01*
X106591Y428112D01*
X106417Y428158D01*
X106246Y428208D01*
X106224Y428210D01*
X106202Y428216D01*
X105872Y428243D01*
X97565Y428243D01*
X97538Y428241D01*
X97511Y428243D01*
X97337Y428221D01*
X97164Y428203D01*
X97139Y428196D01*
X97112Y428192D01*
X96946Y428137D01*
X96779Y428085D01*
X96756Y428072D01*
X96730Y428064D01*
X96579Y427977D01*
X96425Y427893D01*
X96405Y427876D01*
X96381Y427863D01*
X96128Y427648D01*
X93052Y424572D01*
X93035Y424551D01*
X93014Y424533D01*
X92907Y424396D01*
X92797Y424260D01*
X92784Y424237D01*
X92768Y424215D01*
X92690Y424058D01*
X92608Y423904D01*
X92600Y423879D01*
X92588Y423855D01*
X92543Y423685D01*
X92493Y423519D01*
X92491Y423492D01*
X92484Y423466D01*
X92457Y423135D01*
X92457Y407191D01*
X92458Y407182D01*
X92457Y407173D01*
X92478Y406981D01*
X92497Y406790D01*
X92499Y406781D01*
X92500Y406773D01*
X92558Y406590D01*
X92615Y406405D01*
X92619Y406397D01*
X92622Y406389D01*
X92715Y406220D01*
X92807Y406051D01*
X92812Y406044D01*
X92817Y406036D01*
X92942Y405889D01*
X93064Y405742D01*
X93071Y405736D01*
X93077Y405729D01*
X93229Y405609D01*
X93378Y405489D01*
X93386Y405485D01*
X93393Y405480D01*
X93565Y405392D01*
X93735Y405304D01*
X93744Y405301D01*
X93752Y405297D01*
X93938Y405246D01*
X94122Y405193D01*
X94131Y405192D01*
X94140Y405189D01*
X94332Y405175D01*
X94524Y405160D01*
X94532Y405161D01*
X94541Y405160D01*
X94734Y405184D01*
X94923Y405207D01*
X94932Y405209D01*
X94941Y405210D01*
X95124Y405272D01*
X95306Y405331D01*
X95314Y405336D01*
X95322Y405339D01*
X95488Y405434D01*
X95657Y405529D01*
X95664Y405535D01*
X95671Y405540D01*
X95924Y405754D01*
X97448Y407278D01*
X100127Y409957D01*
X105872Y409957D01*
X105894Y409959D01*
X105916Y409957D01*
X106094Y409979D01*
X106272Y409997D01*
X106294Y410003D01*
X106316Y410006D01*
X106486Y410062D01*
X106657Y410115D01*
X106677Y410125D01*
X106698Y410133D01*
X106854Y410221D01*
X107011Y410307D01*
X107028Y410321D01*
X107048Y410332D01*
X107183Y410450D01*
X107320Y410564D01*
X107334Y410582D01*
X107351Y410597D01*
X107460Y410739D01*
X107573Y410878D01*
X107583Y410898D01*
X107597Y410916D01*
X107621Y410963D01*
X109949Y413291D01*
X112937Y414529D01*
X128363Y414529D01*
X131351Y413291D01*
X133637Y411005D01*
X134875Y408017D01*
X134875Y404783D01*
X133637Y401795D01*
X131351Y399509D01*
X128363Y398271D01*
X112937Y398271D01*
X109949Y399509D01*
X107609Y401849D01*
X107558Y401944D01*
X107544Y401961D01*
X107533Y401981D01*
X107416Y402117D01*
X107302Y402254D01*
X107284Y402269D01*
X107270Y402286D01*
X107129Y402395D01*
X106989Y402508D01*
X106969Y402519D01*
X106952Y402532D01*
X106791Y402612D01*
X106633Y402695D01*
X106611Y402702D01*
X106591Y402712D01*
X106417Y402758D01*
X106246Y402808D01*
X106224Y402810D01*
X106202Y402816D01*
X105872Y402843D01*
X103915Y402843D01*
X103888Y402841D01*
X103861Y402843D01*
X103687Y402821D01*
X103514Y402803D01*
X103489Y402796D01*
X103462Y402792D01*
X103296Y402737D01*
X103129Y402685D01*
X103106Y402672D01*
X103080Y402664D01*
X102929Y402577D01*
X102775Y402493D01*
X102755Y402476D01*
X102731Y402463D01*
X102478Y402248D01*
X99402Y399172D01*
X99385Y399151D01*
X99364Y399133D01*
X99257Y398996D01*
X99147Y398860D01*
X99134Y398837D01*
X99118Y398815D01*
X99040Y398658D01*
X98958Y398504D01*
X98950Y398479D01*
X98938Y398455D01*
X98893Y398285D01*
X98843Y398119D01*
X98841Y398092D01*
X98834Y398066D01*
X98807Y397735D01*
X98807Y381791D01*
X98808Y381782D01*
X98807Y381773D01*
X98828Y381581D01*
X98847Y381390D01*
X98849Y381381D01*
X98850Y381373D01*
X98908Y381190D01*
X98965Y381005D01*
X98969Y380997D01*
X98972Y380989D01*
X99065Y380820D01*
X99157Y380651D01*
X99162Y380644D01*
X99167Y380636D01*
X99292Y380489D01*
X99414Y380342D01*
X99421Y380336D01*
X99427Y380329D01*
X99579Y380209D01*
X99728Y380089D01*
X99736Y380085D01*
X99743Y380080D01*
X99915Y379992D01*
X100085Y379904D01*
X100094Y379901D01*
X100102Y379897D01*
X100288Y379846D01*
X100472Y379793D01*
X100481Y379792D01*
X100490Y379789D01*
X100682Y379775D01*
X100874Y379760D01*
X100882Y379761D01*
X100891Y379760D01*
X101084Y379784D01*
X101273Y379807D01*
X101282Y379809D01*
X101291Y379810D01*
X101474Y379872D01*
X101656Y379931D01*
X101664Y379936D01*
X101672Y379939D01*
X101838Y380034D01*
X102007Y380129D01*
X102014Y380135D01*
X102021Y380140D01*
X102274Y380354D01*
X103798Y381878D01*
X106625Y384705D01*
X106657Y384715D01*
X106677Y384725D01*
X106698Y384733D01*
X106854Y384821D01*
X107011Y384907D01*
X107028Y384921D01*
X107048Y384932D01*
X107183Y385050D01*
X107320Y385164D01*
X107334Y385182D01*
X107351Y385197D01*
X107460Y385339D01*
X107573Y385478D01*
X107583Y385498D01*
X107597Y385516D01*
X107621Y385563D01*
X109949Y387891D01*
X112937Y389129D01*
X128363Y389129D01*
X131351Y387891D01*
X133637Y385605D01*
X134875Y382617D01*
X134875Y379383D01*
X133637Y376395D01*
X131351Y374109D01*
X130107Y373593D01*
X130106Y373593D01*
X128363Y372871D01*
X112937Y372871D01*
X109949Y374109D01*
X109455Y374603D01*
X109442Y374614D01*
X109430Y374628D01*
X109286Y374742D01*
X109144Y374858D01*
X109128Y374866D01*
X109114Y374877D01*
X108951Y374960D01*
X108788Y375047D01*
X108771Y375052D01*
X108755Y375060D01*
X108579Y375109D01*
X108402Y375161D01*
X108384Y375163D01*
X108367Y375168D01*
X108185Y375181D01*
X108001Y375198D01*
X107984Y375196D01*
X107966Y375197D01*
X107784Y375174D01*
X107601Y375154D01*
X107584Y375149D01*
X107566Y375147D01*
X107392Y375088D01*
X107217Y375033D01*
X107202Y375024D01*
X107185Y375018D01*
X107025Y374926D01*
X106865Y374838D01*
X106851Y374826D01*
X106836Y374817D01*
X106583Y374603D01*
X105752Y373772D01*
X105735Y373751D01*
X105714Y373733D01*
X105608Y373596D01*
X105497Y373460D01*
X105484Y373436D01*
X105468Y373415D01*
X105390Y373259D01*
X105308Y373104D01*
X105300Y373079D01*
X105288Y373055D01*
X105243Y372886D01*
X105193Y372719D01*
X105191Y372692D01*
X105184Y372666D01*
X105157Y372335D01*
X105157Y363321D01*
X105158Y363312D01*
X105157Y363303D01*
X105178Y363112D01*
X105197Y362920D01*
X105199Y362912D01*
X105200Y362903D01*
X105259Y362718D01*
X105315Y362535D01*
X105319Y362527D01*
X105322Y362519D01*
X105415Y362349D01*
X105507Y362181D01*
X105512Y362174D01*
X105517Y362166D01*
X105642Y362019D01*
X105764Y361872D01*
X105771Y361866D01*
X105777Y361859D01*
X105928Y361740D01*
X106078Y361620D01*
X106086Y361615D01*
X106093Y361610D01*
X106266Y361522D01*
X106435Y361434D01*
X106444Y361432D01*
X106452Y361428D01*
X106638Y361376D01*
X106822Y361323D01*
X106831Y361322D01*
X106840Y361320D01*
X107032Y361306D01*
X107224Y361290D01*
X107232Y361291D01*
X107241Y361290D01*
X107433Y361314D01*
X107623Y361337D01*
X107632Y361340D01*
X107641Y361341D01*
X107822Y361402D01*
X108006Y361462D01*
X108014Y361466D01*
X108022Y361469D01*
X108188Y361564D01*
X108357Y361659D01*
X108364Y361665D01*
X108371Y361670D01*
X108624Y361885D01*
X108928Y362188D01*
X110027Y362987D01*
X111239Y363604D01*
X112531Y364024D01*
X113874Y364237D01*
X118619Y364237D01*
X118619Y355600D01*
X118619Y346963D01*
X113874Y346963D01*
X112531Y347176D01*
X111239Y347596D01*
X110027Y348213D01*
X108928Y349012D01*
X108624Y349315D01*
X108617Y349321D01*
X108612Y349328D01*
X108462Y349448D01*
X108313Y349571D01*
X108305Y349575D01*
X108298Y349580D01*
X108128Y349669D01*
X107957Y349759D01*
X107949Y349762D01*
X107941Y349766D01*
X107755Y349819D01*
X107571Y349874D01*
X107562Y349875D01*
X107554Y349877D01*
X107362Y349893D01*
X107170Y349910D01*
X107161Y349909D01*
X107152Y349910D01*
X106962Y349888D01*
X106770Y349867D01*
X106761Y349864D01*
X106753Y349863D01*
X106569Y349803D01*
X106386Y349746D01*
X106378Y349741D01*
X106370Y349738D01*
X106201Y349643D01*
X106034Y349551D01*
X106027Y349545D01*
X106019Y349541D01*
X105874Y349415D01*
X105727Y349290D01*
X105721Y349283D01*
X105714Y349277D01*
X105597Y349126D01*
X105477Y348974D01*
X105473Y348966D01*
X105468Y348959D01*
X105382Y348787D01*
X105295Y348615D01*
X105292Y348607D01*
X105288Y348599D01*
X105238Y348411D01*
X105187Y348228D01*
X105186Y348219D01*
X105184Y348210D01*
X105157Y347879D01*
X105157Y337202D01*
X105158Y337194D01*
X105157Y337185D01*
X105178Y336993D01*
X105197Y336802D01*
X105199Y336793D01*
X105200Y336784D01*
X105258Y336602D01*
X105315Y336417D01*
X105319Y336409D01*
X105322Y336400D01*
X105415Y336232D01*
X105507Y336063D01*
X105512Y336056D01*
X105517Y336048D01*
X105642Y335900D01*
X105764Y335754D01*
X105771Y335748D01*
X105777Y335741D01*
X105929Y335621D01*
X106078Y335501D01*
X106086Y335497D01*
X106093Y335492D01*
X106265Y335404D01*
X106435Y335316D01*
X106444Y335313D01*
X106452Y335309D01*
X106638Y335257D01*
X106822Y335204D01*
X106831Y335204D01*
X106840Y335201D01*
X107032Y335187D01*
X107224Y335171D01*
X107232Y335172D01*
X107241Y335172D01*
X107434Y335196D01*
X107623Y335218D01*
X107632Y335221D01*
X107641Y335222D01*
X107824Y335284D01*
X108006Y335343D01*
X108014Y335348D01*
X108022Y335350D01*
X108188Y335446D01*
X108357Y335541D01*
X108364Y335547D01*
X108371Y335551D01*
X108624Y335766D01*
X109949Y337091D01*
X110567Y337347D01*
X112937Y338329D01*
X128363Y338329D01*
X131351Y337091D01*
X133637Y334805D01*
X134875Y331817D01*
X134875Y328583D01*
X133637Y325595D01*
X131351Y323309D01*
X128363Y322071D01*
X112937Y322071D01*
X109949Y323309D01*
X108624Y324634D01*
X108617Y324640D01*
X108612Y324646D01*
X108461Y324768D01*
X108313Y324889D01*
X108305Y324893D01*
X108298Y324899D01*
X108128Y324987D01*
X107957Y325078D01*
X107948Y325080D01*
X107941Y325084D01*
X107756Y325137D01*
X107571Y325192D01*
X107562Y325193D01*
X107554Y325196D01*
X107363Y325211D01*
X107170Y325229D01*
X107161Y325228D01*
X107152Y325229D01*
X106963Y325206D01*
X106770Y325185D01*
X106761Y325183D01*
X106753Y325182D01*
X106571Y325122D01*
X106386Y325064D01*
X106378Y325060D01*
X106370Y325057D01*
X106203Y324963D01*
X106034Y324869D01*
X106027Y324863D01*
X106019Y324859D01*
X105874Y324734D01*
X105727Y324609D01*
X105721Y324602D01*
X105714Y324596D01*
X105598Y324445D01*
X105477Y324293D01*
X105473Y324285D01*
X105468Y324278D01*
X105382Y324106D01*
X105295Y323934D01*
X105292Y323925D01*
X105288Y323917D01*
X105238Y323731D01*
X105187Y323546D01*
X105186Y323537D01*
X105184Y323528D01*
X105157Y323198D01*
X105157Y175322D01*
X105159Y175295D01*
X105157Y175268D01*
X105179Y175094D01*
X105197Y174921D01*
X105204Y174896D01*
X105208Y174869D01*
X105263Y174703D01*
X105315Y174536D01*
X105328Y174513D01*
X105336Y174487D01*
X105423Y174336D01*
X105507Y174182D01*
X105513Y174174D01*
X106258Y172376D01*
X106258Y170524D01*
X105549Y168812D01*
X104238Y167501D01*
X102526Y166792D01*
X100674Y166792D01*
G37*
%LPD*%
%LPC*%
G36*
X297524Y103292D02*
X297524Y103292D01*
X296465Y103731D01*
X296435Y103740D01*
X296407Y103754D01*
X296243Y103798D01*
X296080Y103847D01*
X296049Y103850D01*
X296019Y103858D01*
X295688Y103885D01*
X132541Y103885D01*
X131048Y104504D01*
X117204Y118348D01*
X116585Y119841D01*
X116585Y270288D01*
X116582Y270319D01*
X116584Y270350D01*
X116562Y270520D01*
X116545Y270688D01*
X116536Y270718D01*
X116532Y270749D01*
X116431Y271065D01*
X115992Y272124D01*
X115992Y273976D01*
X116701Y275688D01*
X118012Y276999D01*
X119724Y277708D01*
X121576Y277708D01*
X123288Y276999D01*
X124599Y275688D01*
X125308Y273976D01*
X125308Y272124D01*
X124869Y271065D01*
X124860Y271035D01*
X124846Y271007D01*
X124802Y270843D01*
X124753Y270680D01*
X124750Y270649D01*
X124742Y270619D01*
X124715Y270288D01*
X124715Y123175D01*
X124717Y123148D01*
X124715Y123122D01*
X124737Y122948D01*
X124755Y122774D01*
X124762Y122749D01*
X124766Y122722D01*
X124821Y122557D01*
X124873Y122390D01*
X124886Y122366D01*
X124894Y122341D01*
X124981Y122189D01*
X125065Y122035D01*
X125082Y122015D01*
X125095Y121992D01*
X125310Y121739D01*
X134439Y112610D01*
X134459Y112593D01*
X134477Y112572D01*
X134615Y112465D01*
X134750Y112355D01*
X134774Y112342D01*
X134795Y112326D01*
X134952Y112248D01*
X135106Y112166D01*
X135131Y112158D01*
X135156Y112146D01*
X135325Y112101D01*
X135492Y112051D01*
X135518Y112049D01*
X135544Y112042D01*
X135875Y112015D01*
X295688Y112015D01*
X295719Y112018D01*
X295750Y112016D01*
X295920Y112038D01*
X296088Y112055D01*
X296118Y112064D01*
X296149Y112068D01*
X296465Y112169D01*
X297524Y112608D01*
X299376Y112608D01*
X301088Y111899D01*
X302399Y110588D01*
X303108Y108876D01*
X303108Y107024D01*
X302399Y105312D01*
X301088Y104001D01*
X299376Y103292D01*
X297524Y103292D01*
G37*
%LPD*%
%LPC*%
G36*
X440941Y709567D02*
X440941Y709567D01*
X434066Y711409D01*
X427901Y714968D01*
X422868Y720001D01*
X419309Y726166D01*
X417467Y733041D01*
X417467Y740159D01*
X419309Y747034D01*
X422868Y753199D01*
X427901Y758232D01*
X434066Y761791D01*
X440941Y763633D01*
X448059Y763633D01*
X454934Y761791D01*
X461099Y758232D01*
X466132Y753199D01*
X469691Y747034D01*
X471533Y740159D01*
X471533Y733041D01*
X469691Y726166D01*
X466132Y720001D01*
X461099Y714968D01*
X454934Y711409D01*
X448059Y709567D01*
X440941Y709567D01*
G37*
%LPD*%
%LPC*%
G36*
X513679Y22351D02*
X513679Y22351D01*
X513679Y25018D01*
X513828Y25766D01*
X513829Y25781D01*
X513834Y25796D01*
X513849Y25981D01*
X513867Y26166D01*
X513865Y26182D01*
X513867Y26198D01*
X513845Y26382D01*
X513826Y26567D01*
X513822Y26582D01*
X513820Y26597D01*
X513762Y26775D01*
X513707Y26952D01*
X513700Y26965D01*
X513695Y26980D01*
X513603Y27142D01*
X513515Y27305D01*
X513505Y27317D01*
X513497Y27331D01*
X513376Y27471D01*
X513256Y27614D01*
X513244Y27624D01*
X513234Y27636D01*
X513087Y27749D01*
X512942Y27866D01*
X512928Y27873D01*
X512916Y27882D01*
X512749Y27965D01*
X512584Y28050D01*
X512569Y28055D01*
X512555Y28062D01*
X512375Y28110D01*
X512197Y28161D01*
X512182Y28162D01*
X512166Y28166D01*
X511836Y28193D01*
X492822Y28193D01*
X492795Y28191D01*
X492768Y28193D01*
X492594Y28171D01*
X492421Y28153D01*
X492396Y28146D01*
X492369Y28142D01*
X492203Y28087D01*
X492036Y28035D01*
X492013Y28022D01*
X491987Y28014D01*
X491836Y27927D01*
X491682Y27843D01*
X491674Y27837D01*
X489876Y27092D01*
X488024Y27092D01*
X486312Y27801D01*
X485001Y29112D01*
X484477Y30378D01*
X484472Y30386D01*
X484470Y30395D01*
X484377Y30563D01*
X484286Y30733D01*
X484281Y30740D01*
X484276Y30748D01*
X484152Y30896D01*
X484030Y31044D01*
X484023Y31049D01*
X484017Y31056D01*
X483867Y31176D01*
X483717Y31297D01*
X483709Y31302D01*
X483702Y31307D01*
X483534Y31394D01*
X483361Y31484D01*
X483352Y31487D01*
X483344Y31491D01*
X483161Y31543D01*
X482974Y31598D01*
X482965Y31598D01*
X482957Y31601D01*
X482766Y31616D01*
X482573Y31632D01*
X482564Y31631D01*
X482556Y31632D01*
X482365Y31609D01*
X482173Y31587D01*
X482165Y31584D01*
X482156Y31583D01*
X481974Y31523D01*
X481790Y31464D01*
X481782Y31459D01*
X481774Y31457D01*
X481608Y31362D01*
X481438Y31267D01*
X481432Y31262D01*
X481424Y31257D01*
X481279Y31131D01*
X481133Y31006D01*
X481127Y30999D01*
X481120Y30993D01*
X481004Y30841D01*
X480884Y30689D01*
X480880Y30681D01*
X480875Y30674D01*
X480723Y30378D01*
X480199Y29112D01*
X478888Y27801D01*
X477176Y27092D01*
X475324Y27092D01*
X473612Y27801D01*
X472301Y29112D01*
X471592Y30824D01*
X471592Y32676D01*
X472301Y34388D01*
X473612Y35699D01*
X475414Y36445D01*
X475437Y36448D01*
X475462Y36455D01*
X475489Y36459D01*
X475655Y36514D01*
X475822Y36566D01*
X475846Y36579D01*
X475871Y36587D01*
X476022Y36674D01*
X476176Y36758D01*
X476196Y36775D01*
X476220Y36788D01*
X476473Y37003D01*
X484798Y45328D01*
X487477Y48007D01*
X514352Y48007D01*
X514361Y48008D01*
X514369Y48007D01*
X514560Y48027D01*
X514752Y48047D01*
X514761Y48049D01*
X514770Y48050D01*
X514953Y48108D01*
X515137Y48165D01*
X515145Y48169D01*
X515154Y48172D01*
X515322Y48265D01*
X515491Y48357D01*
X515498Y48362D01*
X515506Y48367D01*
X515652Y48491D01*
X515800Y48614D01*
X515806Y48621D01*
X515813Y48627D01*
X515932Y48778D01*
X516053Y48928D01*
X516057Y48936D01*
X516062Y48943D01*
X516150Y49115D01*
X516238Y49285D01*
X516241Y49294D01*
X516245Y49302D01*
X516296Y49487D01*
X516350Y49672D01*
X516350Y49681D01*
X516353Y49690D01*
X516367Y49882D01*
X516383Y50074D01*
X516381Y50082D01*
X516382Y50091D01*
X516358Y50283D01*
X516336Y50473D01*
X516333Y50482D01*
X516332Y50491D01*
X516271Y50673D01*
X516211Y50856D01*
X516206Y50864D01*
X516204Y50872D01*
X516107Y51040D01*
X516013Y51207D01*
X516007Y51214D01*
X516003Y51221D01*
X515788Y51474D01*
X515262Y52000D01*
X514486Y53161D01*
X514212Y53823D01*
X514206Y53835D01*
X514202Y53848D01*
X514111Y54012D01*
X514022Y54178D01*
X514013Y54188D01*
X514007Y54200D01*
X513885Y54343D01*
X513766Y54488D01*
X513755Y54497D01*
X513746Y54507D01*
X513599Y54624D01*
X513453Y54742D01*
X513441Y54748D01*
X513431Y54756D01*
X513263Y54842D01*
X513096Y54929D01*
X513084Y54933D01*
X513072Y54939D01*
X512890Y54989D01*
X512710Y55042D01*
X512697Y55043D01*
X512684Y55047D01*
X512495Y55061D01*
X512309Y55077D01*
X512296Y55075D01*
X512282Y55076D01*
X512094Y55052D01*
X511909Y55032D01*
X511896Y55027D01*
X511883Y55026D01*
X511704Y54966D01*
X511526Y54908D01*
X511514Y54902D01*
X511501Y54898D01*
X511339Y54804D01*
X511174Y54712D01*
X511164Y54703D01*
X511152Y54697D01*
X510899Y54482D01*
X509271Y52853D01*
X507421Y52087D01*
X505419Y52087D01*
X503569Y52853D01*
X502153Y54269D01*
X501387Y56119D01*
X501387Y58121D01*
X502153Y59971D01*
X503569Y61387D01*
X505419Y62153D01*
X507421Y62153D01*
X509271Y61387D01*
X510212Y60446D01*
X510219Y60440D01*
X510224Y60433D01*
X510374Y60313D01*
X510523Y60191D01*
X510531Y60186D01*
X510538Y60181D01*
X510708Y60092D01*
X510879Y60002D01*
X510887Y59999D01*
X510895Y59995D01*
X511080Y59942D01*
X511265Y59887D01*
X511274Y59886D01*
X511282Y59884D01*
X511473Y59868D01*
X511666Y59851D01*
X511675Y59852D01*
X511684Y59851D01*
X511873Y59873D01*
X512066Y59894D01*
X512075Y59897D01*
X512083Y59898D01*
X512265Y59957D01*
X512364Y59989D01*
X516221Y59989D01*
X516221Y56520D01*
X516223Y56517D01*
X516221Y56515D01*
X516334Y55513D01*
X516340Y55507D01*
X516336Y55502D01*
X516669Y54551D01*
X516676Y54547D01*
X516674Y54541D01*
X517210Y53688D01*
X517218Y53685D01*
X517217Y53679D01*
X517929Y52967D01*
X517938Y52966D01*
X517938Y52960D01*
X518739Y52457D01*
X518739Y50038D01*
X518740Y50020D01*
X518739Y50002D01*
X518760Y49820D01*
X518778Y49637D01*
X518784Y49620D01*
X518786Y49603D01*
X518843Y49428D01*
X518897Y49252D01*
X518905Y49237D01*
X518911Y49220D01*
X519001Y49060D01*
X519088Y48898D01*
X519100Y48885D01*
X519109Y48869D01*
X519229Y48730D01*
X519346Y48589D01*
X519360Y48578D01*
X519372Y48564D01*
X519517Y48452D01*
X519660Y48337D01*
X519676Y48329D01*
X519690Y48318D01*
X519855Y48236D01*
X520017Y48151D01*
X520034Y48146D01*
X520050Y48138D01*
X520228Y48091D01*
X520404Y48040D01*
X520422Y48038D01*
X520439Y48034D01*
X520770Y48007D01*
X520788Y48008D01*
X520805Y48007D01*
X520806Y48007D01*
X520988Y48028D01*
X521171Y48047D01*
X521188Y48052D01*
X521206Y48054D01*
X521380Y48111D01*
X521556Y48165D01*
X521571Y48173D01*
X521588Y48179D01*
X521749Y48269D01*
X521910Y48357D01*
X521923Y48368D01*
X521939Y48377D01*
X522078Y48497D01*
X522219Y48614D01*
X522230Y48628D01*
X522244Y48640D01*
X522356Y48785D01*
X522471Y48928D01*
X522480Y48944D01*
X522490Y48958D01*
X522572Y49123D01*
X522657Y49285D01*
X522662Y49302D01*
X522670Y49318D01*
X522718Y49497D01*
X522768Y49672D01*
X522770Y49690D01*
X522774Y49707D01*
X522801Y50038D01*
X522801Y52457D01*
X523602Y52960D01*
X523605Y52968D01*
X523611Y52967D01*
X524323Y53679D01*
X524324Y53688D01*
X524330Y53688D01*
X524866Y54541D01*
X524865Y54549D01*
X524871Y54551D01*
X525204Y55502D01*
X525203Y55503D01*
X525204Y55503D01*
X525203Y55505D01*
X525201Y55510D01*
X525206Y55513D01*
X525319Y56515D01*
X525317Y56518D01*
X525319Y56520D01*
X525319Y59989D01*
X527861Y59989D01*
X527861Y55822D01*
X527588Y54452D01*
X527054Y53161D01*
X526855Y52865D01*
X526278Y52000D01*
X525752Y51474D01*
X525746Y51467D01*
X525740Y51462D01*
X525620Y51313D01*
X525497Y51163D01*
X525493Y51155D01*
X525487Y51148D01*
X525400Y50979D01*
X525308Y50807D01*
X525306Y50798D01*
X525302Y50791D01*
X525249Y50607D01*
X525194Y50421D01*
X525193Y50412D01*
X525190Y50404D01*
X525175Y50213D01*
X525157Y50020D01*
X525158Y50011D01*
X525157Y50002D01*
X525180Y49813D01*
X525201Y49620D01*
X525203Y49611D01*
X525204Y49603D01*
X525264Y49420D01*
X525322Y49236D01*
X525326Y49228D01*
X525329Y49220D01*
X525424Y49051D01*
X525517Y48884D01*
X525523Y48877D01*
X525527Y48869D01*
X525653Y48724D01*
X525777Y48577D01*
X525784Y48571D01*
X525790Y48564D01*
X525942Y48447D01*
X526093Y48327D01*
X526101Y48323D01*
X526108Y48318D01*
X526282Y48231D01*
X526452Y48145D01*
X526461Y48142D01*
X526469Y48138D01*
X526657Y48088D01*
X526840Y48037D01*
X526849Y48036D01*
X526858Y48034D01*
X527188Y48007D01*
X550135Y48007D01*
X550162Y48009D01*
X550189Y48007D01*
X550363Y48029D01*
X550536Y48047D01*
X550561Y48054D01*
X550588Y48058D01*
X550754Y48113D01*
X550921Y48165D01*
X550944Y48178D01*
X550970Y48186D01*
X551121Y48273D01*
X551275Y48357D01*
X551295Y48374D01*
X551319Y48387D01*
X551572Y48602D01*
X554648Y51678D01*
X554665Y51699D01*
X554686Y51717D01*
X554793Y51854D01*
X554903Y51990D01*
X554916Y52014D01*
X554932Y52035D01*
X555010Y52192D01*
X555092Y52346D01*
X555100Y52371D01*
X555112Y52395D01*
X555157Y52565D01*
X555207Y52731D01*
X555209Y52758D01*
X555216Y52784D01*
X555243Y53115D01*
X555243Y53278D01*
X555241Y53305D01*
X555243Y53332D01*
X555221Y53505D01*
X555203Y53679D01*
X555195Y53705D01*
X555192Y53731D01*
X555137Y53896D01*
X555085Y54064D01*
X555072Y54088D01*
X555064Y54113D01*
X554977Y54265D01*
X554893Y54418D01*
X554887Y54426D01*
X554142Y56224D01*
X554142Y58076D01*
X554851Y59788D01*
X556162Y61099D01*
X557874Y61808D01*
X559726Y61808D01*
X561438Y61099D01*
X562749Y59788D01*
X563458Y58076D01*
X563458Y56224D01*
X562711Y54421D01*
X562697Y54403D01*
X562684Y54380D01*
X562668Y54358D01*
X562590Y54202D01*
X562508Y54048D01*
X562500Y54022D01*
X562488Y53998D01*
X562443Y53828D01*
X562393Y53662D01*
X562391Y53635D01*
X562384Y53609D01*
X562357Y53278D01*
X562357Y49327D01*
X553923Y40893D01*
X491265Y40893D01*
X491238Y40891D01*
X491211Y40893D01*
X491037Y40871D01*
X490864Y40853D01*
X490838Y40846D01*
X490812Y40842D01*
X490646Y40787D01*
X490479Y40735D01*
X490455Y40722D01*
X490430Y40714D01*
X490278Y40626D01*
X490125Y40543D01*
X490105Y40526D01*
X490081Y40513D01*
X489828Y40298D01*
X489241Y39711D01*
X489232Y39701D01*
X489222Y39692D01*
X489105Y39545D01*
X488986Y39399D01*
X488980Y39388D01*
X488971Y39377D01*
X488885Y39210D01*
X488797Y39044D01*
X488793Y39031D01*
X488787Y39019D01*
X488736Y38839D01*
X488682Y38658D01*
X488681Y38644D01*
X488678Y38632D01*
X488663Y38444D01*
X488646Y38257D01*
X488648Y38243D01*
X488646Y38230D01*
X488669Y38046D01*
X488689Y37857D01*
X488694Y37844D01*
X488695Y37831D01*
X488754Y37653D01*
X488811Y37473D01*
X488817Y37461D01*
X488822Y37448D01*
X488915Y37284D01*
X489006Y37120D01*
X489014Y37110D01*
X489021Y37099D01*
X489145Y36956D01*
X489266Y36813D01*
X489277Y36805D01*
X489286Y36795D01*
X489434Y36681D01*
X489582Y36564D01*
X489594Y36558D01*
X489605Y36550D01*
X489900Y36398D01*
X491679Y35661D01*
X491697Y35647D01*
X491721Y35634D01*
X491742Y35618D01*
X491899Y35540D01*
X492053Y35458D01*
X492078Y35450D01*
X492102Y35438D01*
X492272Y35393D01*
X492438Y35343D01*
X492465Y35341D01*
X492491Y35334D01*
X492822Y35307D01*
X581885Y35307D01*
X581912Y35309D01*
X581939Y35307D01*
X582113Y35329D01*
X582286Y35347D01*
X582311Y35354D01*
X582338Y35358D01*
X582504Y35413D01*
X582671Y35465D01*
X582694Y35478D01*
X582720Y35486D01*
X582871Y35573D01*
X583025Y35657D01*
X583045Y35674D01*
X583069Y35687D01*
X583322Y35902D01*
X586398Y38978D01*
X586415Y38999D01*
X586436Y39017D01*
X586543Y39154D01*
X586653Y39290D01*
X586666Y39313D01*
X586682Y39335D01*
X586760Y39492D01*
X586842Y39646D01*
X586850Y39671D01*
X586862Y39695D01*
X586907Y39865D01*
X586957Y40031D01*
X586959Y40058D01*
X586966Y40084D01*
X586993Y40415D01*
X586993Y46928D01*
X586991Y46955D01*
X586993Y46982D01*
X586971Y47156D01*
X586953Y47329D01*
X586946Y47354D01*
X586942Y47381D01*
X586887Y47547D01*
X586835Y47714D01*
X586822Y47737D01*
X586814Y47763D01*
X586727Y47914D01*
X586643Y48068D01*
X586637Y48076D01*
X585892Y49874D01*
X585892Y51726D01*
X586601Y53438D01*
X587912Y54749D01*
X589624Y55458D01*
X591476Y55458D01*
X593188Y54749D01*
X594499Y53438D01*
X595208Y51726D01*
X595208Y49874D01*
X594461Y48071D01*
X594447Y48053D01*
X594434Y48029D01*
X594418Y48008D01*
X594340Y47851D01*
X594258Y47697D01*
X594250Y47672D01*
X594238Y47648D01*
X594193Y47478D01*
X594143Y47312D01*
X594141Y47285D01*
X594134Y47259D01*
X594107Y46928D01*
X594107Y36627D01*
X585673Y28193D01*
X529704Y28193D01*
X529689Y28192D01*
X529673Y28193D01*
X529489Y28172D01*
X529304Y28153D01*
X529289Y28149D01*
X529273Y28147D01*
X529096Y28090D01*
X528919Y28035D01*
X528905Y28028D01*
X528890Y28023D01*
X528728Y27932D01*
X528565Y27843D01*
X528553Y27833D01*
X528539Y27826D01*
X528398Y27705D01*
X528255Y27586D01*
X528246Y27574D01*
X528234Y27563D01*
X528119Y27417D01*
X528003Y27272D01*
X527996Y27258D01*
X527986Y27246D01*
X527902Y27078D01*
X527818Y26915D01*
X527813Y26900D01*
X527806Y26886D01*
X527757Y26706D01*
X527706Y26528D01*
X527705Y26512D01*
X527701Y26497D01*
X527688Y26312D01*
X527673Y26126D01*
X527675Y26111D01*
X527674Y26095D01*
X527712Y25766D01*
X527861Y25018D01*
X527861Y22351D01*
X525319Y22351D01*
X525319Y24320D01*
X525317Y24323D01*
X525319Y24326D01*
X525206Y25327D01*
X525200Y25333D01*
X525204Y25338D01*
X524871Y26289D01*
X524864Y26293D01*
X524866Y26299D01*
X524330Y27152D01*
X524322Y27155D01*
X524323Y27161D01*
X523611Y27873D01*
X523602Y27874D01*
X523602Y27880D01*
X522749Y28416D01*
X522741Y28415D01*
X522739Y28421D01*
X521788Y28754D01*
X521780Y28751D01*
X521777Y28756D01*
X520776Y28869D01*
X520768Y28865D01*
X520765Y28869D01*
X519763Y28756D01*
X519757Y28750D01*
X519752Y28754D01*
X518801Y28421D01*
X518797Y28414D01*
X518791Y28416D01*
X517938Y27880D01*
X517935Y27872D01*
X517929Y27873D01*
X517217Y27161D01*
X517216Y27152D01*
X517210Y27152D01*
X516674Y26299D01*
X516675Y26291D01*
X516669Y26289D01*
X516336Y25338D01*
X516339Y25331D01*
X516335Y25328D01*
X516335Y25327D01*
X516334Y25327D01*
X516221Y24326D01*
X516223Y24322D01*
X516221Y24320D01*
X516221Y22351D01*
X513679Y22351D01*
G37*
%LPD*%
%LPC*%
G36*
X593313Y321057D02*
X593313Y321057D01*
X586685Y323803D01*
X581613Y328875D01*
X578867Y335503D01*
X578867Y342677D01*
X581613Y349305D01*
X586685Y354377D01*
X593313Y357123D01*
X600487Y357123D01*
X607115Y354377D01*
X612187Y349305D01*
X614933Y342677D01*
X614933Y335503D01*
X612187Y328875D01*
X607115Y323803D01*
X600487Y321057D01*
X593313Y321057D01*
G37*
%LPD*%
%LPC*%
G36*
X358363Y321057D02*
X358363Y321057D01*
X351735Y323803D01*
X346663Y328875D01*
X343917Y335503D01*
X343917Y342677D01*
X346663Y349305D01*
X351735Y354377D01*
X358363Y357123D01*
X365537Y357123D01*
X372165Y354377D01*
X377237Y349305D01*
X379983Y342677D01*
X379983Y335503D01*
X377237Y328875D01*
X372165Y323803D01*
X365537Y321057D01*
X358363Y321057D01*
G37*
%LPD*%
%LPC*%
G36*
X155560Y422147D02*
X155560Y422147D01*
X152012Y423617D01*
X149297Y426332D01*
X147827Y429880D01*
X147827Y433720D01*
X149297Y437268D01*
X152012Y439983D01*
X155560Y441453D01*
X174640Y441453D01*
X178188Y439983D01*
X180903Y437268D01*
X182373Y433720D01*
X182373Y429880D01*
X180903Y426332D01*
X178188Y423617D01*
X174640Y422147D01*
X155560Y422147D01*
G37*
%LPD*%
%LPC*%
G36*
X16949Y46470D02*
X16949Y46470D01*
X10549Y52870D01*
X10549Y54554D01*
X34729Y78734D01*
X36322Y78734D01*
X36340Y78735D01*
X36358Y78734D01*
X36540Y78755D01*
X36723Y78774D01*
X36740Y78779D01*
X36757Y78781D01*
X36932Y78838D01*
X37108Y78892D01*
X37123Y78900D01*
X37140Y78906D01*
X37300Y78996D01*
X37462Y79083D01*
X37475Y79095D01*
X37491Y79104D01*
X37630Y79224D01*
X37771Y79341D01*
X37782Y79355D01*
X37796Y79367D01*
X37908Y79512D01*
X38023Y79655D01*
X38031Y79671D01*
X38042Y79685D01*
X38124Y79850D01*
X38209Y80012D01*
X38214Y80029D01*
X38222Y80045D01*
X38269Y80224D01*
X38320Y80399D01*
X38322Y80417D01*
X38326Y80434D01*
X38353Y80765D01*
X38353Y83666D01*
X38351Y83689D01*
X38353Y83711D01*
X38331Y83888D01*
X38313Y84067D01*
X38307Y84088D01*
X38304Y84110D01*
X38248Y84280D01*
X38195Y84452D01*
X38185Y84471D01*
X38178Y84493D01*
X38089Y84649D01*
X38003Y84806D01*
X37989Y84823D01*
X37978Y84842D01*
X37860Y84978D01*
X37746Y85115D01*
X37728Y85129D01*
X37714Y85146D01*
X37571Y85255D01*
X37432Y85368D01*
X37412Y85378D01*
X37395Y85391D01*
X37099Y85543D01*
X35462Y86221D01*
X34151Y87532D01*
X33442Y89244D01*
X33442Y91096D01*
X34151Y92808D01*
X35462Y94119D01*
X37174Y94828D01*
X39026Y94828D01*
X40738Y94119D01*
X42049Y92808D01*
X42795Y91006D01*
X42798Y90983D01*
X42805Y90958D01*
X42809Y90931D01*
X42865Y90765D01*
X42916Y90598D01*
X42928Y90575D01*
X42937Y90549D01*
X43024Y90398D01*
X43108Y90244D01*
X43125Y90224D01*
X43138Y90200D01*
X43353Y89947D01*
X44799Y88501D01*
X44806Y88496D01*
X44811Y88489D01*
X44962Y88368D01*
X45110Y88246D01*
X45118Y88242D01*
X45125Y88236D01*
X45296Y88148D01*
X45466Y88058D01*
X45467Y88057D01*
X45467Y76358D01*
X43408Y74299D01*
X43391Y74278D01*
X43370Y74260D01*
X43263Y74123D01*
X43153Y73987D01*
X43140Y73963D01*
X43124Y73942D01*
X43046Y73785D01*
X42964Y73631D01*
X42956Y73606D01*
X42944Y73582D01*
X42899Y73412D01*
X42849Y73246D01*
X42847Y73219D01*
X42840Y73193D01*
X42813Y72862D01*
X42813Y70650D01*
X18633Y46470D01*
X16949Y46470D01*
G37*
%LPD*%
%LPC*%
G36*
X849537Y322071D02*
X849537Y322071D01*
X846549Y323309D01*
X844263Y325595D01*
X843025Y328583D01*
X843025Y331817D01*
X844263Y334805D01*
X846549Y337091D01*
X847167Y337347D01*
X849537Y338329D01*
X864963Y338329D01*
X867951Y337091D01*
X870237Y334805D01*
X871475Y331817D01*
X871475Y328583D01*
X870237Y325595D01*
X867951Y323309D01*
X864963Y322071D01*
X849537Y322071D01*
G37*
%LPD*%
%LPC*%
G36*
X314133Y741171D02*
X314133Y741171D01*
X309371Y745933D01*
X309371Y752667D01*
X314133Y757429D01*
X320867Y757429D01*
X325629Y752667D01*
X325629Y745933D01*
X320867Y741171D01*
X314133Y741171D01*
G37*
%LPD*%
%LPC*%
G36*
X542733Y741171D02*
X542733Y741171D01*
X537971Y745933D01*
X537971Y752667D01*
X542733Y757429D01*
X549467Y757429D01*
X554229Y752667D01*
X554229Y745933D01*
X549467Y741171D01*
X542733Y741171D01*
G37*
%LPD*%
%LPC*%
G36*
X377633Y690371D02*
X377633Y690371D01*
X372871Y695133D01*
X372871Y701867D01*
X377633Y706629D01*
X384367Y706629D01*
X389129Y701867D01*
X389129Y695133D01*
X384367Y690371D01*
X377633Y690371D01*
G37*
%LPD*%
%LPC*%
G36*
X276033Y690371D02*
X276033Y690371D01*
X271271Y695133D01*
X271271Y701867D01*
X276033Y706629D01*
X282767Y706629D01*
X287529Y701867D01*
X287529Y695133D01*
X282767Y690371D01*
X276033Y690371D01*
G37*
%LPD*%
%LPC*%
G36*
X606233Y690371D02*
X606233Y690371D01*
X601471Y695133D01*
X601471Y701867D01*
X606233Y706629D01*
X612967Y706629D01*
X617729Y701867D01*
X617729Y695133D01*
X612967Y690371D01*
X606233Y690371D01*
G37*
%LPD*%
%LPC*%
G36*
X504633Y690371D02*
X504633Y690371D01*
X499871Y695133D01*
X499871Y701867D01*
X504633Y706629D01*
X511367Y706629D01*
X516129Y701867D01*
X516129Y695133D01*
X511367Y690371D01*
X504633Y690371D01*
G37*
%LPD*%
%LPC*%
G36*
X362937Y12517D02*
X362937Y12517D01*
X360536Y13512D01*
X358698Y15350D01*
X357703Y17751D01*
X357703Y20349D01*
X358698Y22750D01*
X360536Y24588D01*
X362937Y25583D01*
X365535Y25583D01*
X367936Y24588D01*
X369774Y22750D01*
X370769Y20349D01*
X370769Y17751D01*
X369774Y15350D01*
X367936Y13512D01*
X365535Y12517D01*
X362937Y12517D01*
G37*
%LPD*%
%LPC*%
G36*
X332965Y12517D02*
X332965Y12517D01*
X330564Y13512D01*
X328726Y15350D01*
X327731Y17751D01*
X327731Y20349D01*
X328726Y22750D01*
X330564Y24588D01*
X332965Y25583D01*
X335563Y25583D01*
X337964Y24588D01*
X339802Y22750D01*
X340797Y20349D01*
X340797Y17751D01*
X339802Y15350D01*
X337964Y13512D01*
X335563Y12517D01*
X332965Y12517D01*
G37*
%LPD*%
%LPC*%
G36*
X436301Y52457D02*
X436301Y52457D01*
X437102Y52960D01*
X437105Y52968D01*
X437111Y52967D01*
X437823Y53679D01*
X437824Y53688D01*
X437830Y53688D01*
X438366Y54541D01*
X438365Y54549D01*
X438371Y54551D01*
X438704Y55502D01*
X438703Y55503D01*
X438704Y55503D01*
X438703Y55505D01*
X438701Y55510D01*
X438706Y55513D01*
X438819Y56515D01*
X438817Y56518D01*
X438819Y56520D01*
X438819Y59989D01*
X442656Y59989D01*
X442841Y59937D01*
X443026Y59884D01*
X443035Y59883D01*
X443044Y59881D01*
X443236Y59867D01*
X443428Y59851D01*
X443436Y59852D01*
X443445Y59851D01*
X443638Y59876D01*
X443827Y59898D01*
X443836Y59901D01*
X443845Y59902D01*
X444028Y59963D01*
X444210Y60023D01*
X444218Y60027D01*
X444226Y60030D01*
X444392Y60125D01*
X444561Y60221D01*
X444568Y60227D01*
X444575Y60231D01*
X444828Y60446D01*
X445769Y61387D01*
X447619Y62153D01*
X449621Y62153D01*
X451471Y61387D01*
X452887Y59971D01*
X453653Y58121D01*
X453653Y56119D01*
X452887Y54269D01*
X451471Y52853D01*
X449621Y52087D01*
X447619Y52087D01*
X445769Y52853D01*
X444141Y54482D01*
X444130Y54490D01*
X444122Y54501D01*
X443975Y54618D01*
X443829Y54737D01*
X443817Y54743D01*
X443807Y54752D01*
X443640Y54838D01*
X443474Y54926D01*
X443461Y54929D01*
X443449Y54936D01*
X443269Y54987D01*
X443088Y55040D01*
X443074Y55042D01*
X443061Y55045D01*
X442875Y55060D01*
X442687Y55077D01*
X442673Y55075D01*
X442660Y55076D01*
X442475Y55054D01*
X442286Y55033D01*
X442274Y55029D01*
X442260Y55028D01*
X442083Y54969D01*
X441903Y54912D01*
X441891Y54905D01*
X441878Y54901D01*
X441716Y54809D01*
X441550Y54717D01*
X441540Y54708D01*
X441528Y54702D01*
X441387Y54579D01*
X441243Y54457D01*
X441235Y54446D01*
X441225Y54437D01*
X441111Y54289D01*
X440994Y54141D01*
X440987Y54129D01*
X440979Y54118D01*
X440828Y53823D01*
X440674Y53452D01*
X440554Y53161D01*
X439891Y52170D01*
X439778Y52000D01*
X438790Y51012D01*
X437629Y50236D01*
X436338Y49702D01*
X436301Y49694D01*
X436301Y52457D01*
G37*
%LPD*%
%LPC*%
G36*
X167639Y408939D02*
X167639Y408939D01*
X167639Y416561D01*
X173520Y416561D01*
X175099Y416311D01*
X176620Y415816D01*
X178045Y415090D01*
X179339Y414150D01*
X180470Y413019D01*
X181410Y411725D01*
X182136Y410300D01*
X182579Y408939D01*
X167639Y408939D01*
G37*
%LPD*%
%LPC*%
G36*
X147621Y408939D02*
X147621Y408939D01*
X148064Y410300D01*
X148790Y411725D01*
X149730Y413019D01*
X150861Y414150D01*
X152155Y415090D01*
X153580Y415816D01*
X155101Y416311D01*
X156680Y416561D01*
X162561Y416561D01*
X162561Y408939D01*
X147621Y408939D01*
G37*
%LPD*%
%LPC*%
G36*
X167639Y396239D02*
X167639Y396239D01*
X167639Y403861D01*
X182579Y403861D01*
X182136Y402500D01*
X181410Y401075D01*
X180470Y399781D01*
X179339Y398650D01*
X178045Y397710D01*
X176620Y396984D01*
X175099Y396489D01*
X173520Y396239D01*
X167639Y396239D01*
G37*
%LPD*%
%LPC*%
G36*
X156680Y396239D02*
X156680Y396239D01*
X155101Y396489D01*
X153580Y396984D01*
X152155Y397710D01*
X150861Y398650D01*
X149730Y399781D01*
X148790Y401075D01*
X148064Y402500D01*
X147621Y403861D01*
X162561Y403861D01*
X162561Y396239D01*
X156680Y396239D01*
G37*
%LPD*%
%LPC*%
G36*
X53377Y10041D02*
X53377Y10041D01*
X52731Y10214D01*
X52151Y10549D01*
X50747Y11953D01*
X62602Y23808D01*
X65566Y20844D01*
X55272Y10549D01*
X54692Y10214D01*
X54046Y10041D01*
X53377Y10041D01*
G37*
%LPD*%
%LPC*%
G36*
X46470Y16230D02*
X46470Y16230D01*
X46135Y16810D01*
X45962Y17456D01*
X45962Y18125D01*
X46135Y18771D01*
X46470Y19351D01*
X56765Y29645D01*
X59729Y26681D01*
X47874Y14826D01*
X46470Y16230D01*
G37*
%LPD*%
%LPC*%
G36*
X122681Y357631D02*
X122681Y357631D01*
X122681Y364237D01*
X127426Y364237D01*
X128769Y364024D01*
X130061Y363604D01*
X131273Y362987D01*
X132372Y362188D01*
X133334Y361226D01*
X134133Y360127D01*
X134750Y358915D01*
X135167Y357631D01*
X122681Y357631D01*
G37*
%LPD*%
%LPC*%
G36*
X859281Y357631D02*
X859281Y357631D01*
X859281Y364237D01*
X864026Y364237D01*
X865369Y364024D01*
X866661Y363604D01*
X867873Y362987D01*
X868972Y362188D01*
X869934Y361226D01*
X870733Y360127D01*
X871350Y358915D01*
X871767Y357631D01*
X859281Y357631D01*
G37*
%LPD*%
%LPC*%
G36*
X842733Y357631D02*
X842733Y357631D01*
X843150Y358915D01*
X843767Y360127D01*
X844566Y361226D01*
X845528Y362188D01*
X846627Y362987D01*
X847839Y363604D01*
X849131Y364024D01*
X850474Y364237D01*
X855219Y364237D01*
X855219Y357631D01*
X842733Y357631D01*
G37*
%LPD*%
%LPC*%
G36*
X122681Y346963D02*
X122681Y346963D01*
X122681Y353569D01*
X135167Y353569D01*
X134750Y352285D01*
X134133Y351073D01*
X133334Y349974D01*
X132372Y349012D01*
X131273Y348213D01*
X130061Y347596D01*
X128769Y347176D01*
X127426Y346963D01*
X122681Y346963D01*
G37*
%LPD*%
%LPC*%
G36*
X859281Y346963D02*
X859281Y346963D01*
X859281Y353569D01*
X871767Y353569D01*
X871350Y352285D01*
X870733Y351073D01*
X869934Y349974D01*
X868972Y349012D01*
X867873Y348213D01*
X866661Y347596D01*
X865369Y347176D01*
X864026Y346963D01*
X859281Y346963D01*
G37*
%LPD*%
%LPC*%
G36*
X850474Y346963D02*
X850474Y346963D01*
X849131Y347176D01*
X847839Y347596D01*
X846627Y348213D01*
X845528Y349012D01*
X844566Y349974D01*
X843767Y351073D01*
X843150Y352285D01*
X842733Y353569D01*
X855219Y353569D01*
X855219Y346963D01*
X850474Y346963D01*
G37*
%LPD*%
%LPC*%
G36*
X472439Y99061D02*
X472439Y99061D01*
X479759Y99061D01*
X479316Y97700D01*
X478590Y96275D01*
X477650Y94981D01*
X476519Y93850D01*
X475225Y92910D01*
X473800Y92184D01*
X472439Y91741D01*
X472439Y99061D01*
G37*
%LPD*%
%LPC*%
G36*
X466000Y92184D02*
X466000Y92184D01*
X464575Y92910D01*
X463281Y93850D01*
X462150Y94981D01*
X461210Y96275D01*
X460484Y97700D01*
X460041Y99061D01*
X467361Y99061D01*
X467361Y91741D01*
X466000Y92184D01*
G37*
%LPD*%
%LPC*%
G36*
X271271Y177799D02*
X271271Y177799D01*
X271271Y182119D01*
X279401Y182119D01*
X279401Y180005D01*
X279228Y179359D01*
X278893Y178780D01*
X278420Y178307D01*
X277841Y177972D01*
X277195Y177799D01*
X271271Y177799D01*
G37*
%LPD*%
%LPC*%
G36*
X261285Y177799D02*
X261285Y177799D01*
X260639Y177972D01*
X260060Y178307D01*
X259587Y178780D01*
X259252Y179359D01*
X259079Y180005D01*
X259079Y182119D01*
X267209Y182119D01*
X267209Y177799D01*
X261285Y177799D01*
G37*
%LPD*%
%LPC*%
G36*
X573531Y751331D02*
X573531Y751331D01*
X573531Y757937D01*
X575077Y757937D01*
X580137Y752877D01*
X580137Y751331D01*
X573531Y751331D01*
G37*
%LPD*%
%LPC*%
G36*
X344931Y751331D02*
X344931Y751331D01*
X344931Y757937D01*
X346477Y757937D01*
X351537Y752877D01*
X351537Y751331D01*
X344931Y751331D01*
G37*
%LPD*%
%LPC*%
G36*
X562863Y751331D02*
X562863Y751331D01*
X562863Y752877D01*
X567923Y757937D01*
X569469Y757937D01*
X569469Y751331D01*
X562863Y751331D01*
G37*
%LPD*%
%LPC*%
G36*
X334263Y751331D02*
X334263Y751331D01*
X334263Y752877D01*
X339323Y757937D01*
X340869Y757937D01*
X340869Y751331D01*
X334263Y751331D01*
G37*
%LPD*%
%LPC*%
G36*
X573531Y740663D02*
X573531Y740663D01*
X573531Y747269D01*
X580137Y747269D01*
X580137Y745723D01*
X575077Y740663D01*
X573531Y740663D01*
G37*
%LPD*%
%LPC*%
G36*
X344931Y740663D02*
X344931Y740663D01*
X344931Y747269D01*
X351537Y747269D01*
X351537Y745723D01*
X346477Y740663D01*
X344931Y740663D01*
G37*
%LPD*%
%LPC*%
G36*
X339323Y740663D02*
X339323Y740663D01*
X334263Y745723D01*
X334263Y747269D01*
X340869Y747269D01*
X340869Y740663D01*
X339323Y740663D01*
G37*
%LPD*%
%LPC*%
G36*
X567923Y740663D02*
X567923Y740663D01*
X562863Y745723D01*
X562863Y747269D01*
X569469Y747269D01*
X569469Y740663D01*
X567923Y740663D01*
G37*
%LPD*%
%LPC*%
G36*
X432202Y49702D02*
X432202Y49702D01*
X430911Y50236D01*
X429750Y51012D01*
X428762Y52000D01*
X427986Y53161D01*
X427452Y54452D01*
X427179Y55822D01*
X427179Y59989D01*
X429721Y59989D01*
X429721Y56520D01*
X429723Y56517D01*
X429721Y56515D01*
X429834Y55513D01*
X429840Y55507D01*
X429836Y55502D01*
X430169Y54551D01*
X430176Y54547D01*
X430174Y54541D01*
X430710Y53688D01*
X430718Y53685D01*
X430717Y53679D01*
X431429Y52967D01*
X431438Y52966D01*
X431438Y52960D01*
X432239Y52457D01*
X432239Y49694D01*
X432202Y49702D01*
G37*
%LPD*%
%LPC*%
G36*
X427179Y64051D02*
X427179Y64051D01*
X427179Y68218D01*
X427452Y69588D01*
X427800Y70430D01*
X427986Y70879D01*
X428564Y71744D01*
X428762Y72040D01*
X429750Y73028D01*
X430911Y73804D01*
X432202Y74338D01*
X432239Y74346D01*
X432239Y71583D01*
X431438Y71080D01*
X431435Y71072D01*
X431429Y71073D01*
X430717Y70361D01*
X430716Y70352D01*
X430710Y70352D01*
X430174Y69499D01*
X430175Y69491D01*
X430169Y69489D01*
X429836Y68538D01*
X429838Y68534D01*
X429835Y68532D01*
X429837Y68529D01*
X429834Y68527D01*
X429721Y67526D01*
X429723Y67522D01*
X429721Y67520D01*
X429721Y64051D01*
X427179Y64051D01*
G37*
%LPD*%
%LPC*%
G36*
X513679Y64051D02*
X513679Y64051D01*
X513679Y68218D01*
X513952Y69588D01*
X514442Y70772D01*
X514486Y70879D01*
X515240Y72007D01*
X515262Y72040D01*
X516250Y73028D01*
X517411Y73804D01*
X518702Y74338D01*
X518739Y74346D01*
X518739Y71583D01*
X517938Y71080D01*
X517935Y71072D01*
X517929Y71073D01*
X517217Y70361D01*
X517216Y70352D01*
X517210Y70352D01*
X516674Y69499D01*
X516675Y69491D01*
X516669Y69489D01*
X516336Y68538D01*
X516338Y68534D01*
X516335Y68532D01*
X516337Y68529D01*
X516334Y68527D01*
X516221Y67526D01*
X516223Y67522D01*
X516221Y67520D01*
X516221Y64051D01*
X513679Y64051D01*
G37*
%LPD*%
%LPC*%
G36*
X438819Y64051D02*
X438819Y64051D01*
X438819Y67520D01*
X438817Y67523D01*
X438819Y67526D01*
X438706Y68527D01*
X438700Y68533D01*
X438704Y68538D01*
X438371Y69489D01*
X438364Y69493D01*
X438366Y69499D01*
X437830Y70352D01*
X437822Y70355D01*
X437823Y70361D01*
X437111Y71073D01*
X437102Y71074D01*
X437102Y71080D01*
X436301Y71583D01*
X436301Y74346D01*
X436338Y74338D01*
X437492Y73860D01*
X437629Y73804D01*
X438735Y73064D01*
X438736Y73064D01*
X438790Y73028D01*
X439778Y72040D01*
X440554Y70879D01*
X441088Y69588D01*
X441361Y68218D01*
X441361Y64051D01*
X438819Y64051D01*
G37*
%LPD*%
%LPC*%
G36*
X525319Y64051D02*
X525319Y64051D01*
X525319Y67520D01*
X525317Y67523D01*
X525319Y67526D01*
X525206Y68527D01*
X525200Y68533D01*
X525204Y68538D01*
X524871Y69489D01*
X524864Y69493D01*
X524866Y69499D01*
X524330Y70352D01*
X524322Y70355D01*
X524323Y70361D01*
X523611Y71073D01*
X523602Y71074D01*
X523602Y71080D01*
X522801Y71583D01*
X522801Y74346D01*
X522838Y74338D01*
X523572Y74034D01*
X524129Y73804D01*
X524903Y73286D01*
X525290Y73028D01*
X526278Y72040D01*
X527054Y70879D01*
X527588Y69588D01*
X527861Y68218D01*
X527861Y64051D01*
X525319Y64051D01*
G37*
%LPD*%
%LPC*%
G36*
X432202Y9502D02*
X432202Y9502D01*
X430911Y10036D01*
X429750Y10812D01*
X428762Y11800D01*
X427986Y12961D01*
X427452Y14252D01*
X427179Y15622D01*
X427179Y18289D01*
X429721Y18289D01*
X429721Y16320D01*
X429723Y16317D01*
X429721Y16315D01*
X429834Y15313D01*
X429840Y15307D01*
X429836Y15302D01*
X430169Y14351D01*
X430176Y14347D01*
X430174Y14341D01*
X430710Y13488D01*
X430718Y13485D01*
X430717Y13479D01*
X431429Y12767D01*
X431438Y12766D01*
X431438Y12760D01*
X432239Y12257D01*
X432239Y9494D01*
X432202Y9502D01*
G37*
%LPD*%
%LPC*%
G36*
X518701Y9502D02*
X518701Y9502D01*
X517411Y10036D01*
X516250Y10812D01*
X515262Y11800D01*
X514486Y12961D01*
X513952Y14252D01*
X513679Y15622D01*
X513679Y18289D01*
X516221Y18289D01*
X516221Y16320D01*
X516223Y16317D01*
X516221Y16315D01*
X516334Y15313D01*
X516340Y15307D01*
X516336Y15302D01*
X516669Y14351D01*
X516676Y14347D01*
X516674Y14341D01*
X517210Y13488D01*
X517218Y13485D01*
X517217Y13479D01*
X517929Y12767D01*
X517938Y12766D01*
X517938Y12760D01*
X518739Y12257D01*
X518739Y9494D01*
X518701Y9502D01*
G37*
%LPD*%
%LPC*%
G36*
X427179Y22351D02*
X427179Y22351D01*
X427179Y25018D01*
X427452Y26388D01*
X427761Y27136D01*
X427986Y27679D01*
X428512Y28465D01*
X428762Y28840D01*
X429750Y29828D01*
X430911Y30604D01*
X432202Y31138D01*
X432239Y31146D01*
X432239Y28383D01*
X431438Y27880D01*
X431435Y27872D01*
X431429Y27873D01*
X430717Y27161D01*
X430716Y27152D01*
X430710Y27152D01*
X430174Y26299D01*
X430175Y26291D01*
X430169Y26289D01*
X429836Y25338D01*
X429839Y25331D01*
X429835Y25328D01*
X429835Y25327D01*
X429834Y25327D01*
X429721Y24326D01*
X429723Y24322D01*
X429721Y24320D01*
X429721Y22351D01*
X427179Y22351D01*
G37*
%LPD*%
%LPC*%
G36*
X436301Y12257D02*
X436301Y12257D01*
X437102Y12760D01*
X437105Y12768D01*
X437111Y12767D01*
X437823Y13479D01*
X437824Y13488D01*
X437830Y13488D01*
X438366Y14341D01*
X438365Y14349D01*
X438371Y14351D01*
X438704Y15302D01*
X438703Y15303D01*
X438704Y15303D01*
X438703Y15305D01*
X438701Y15310D01*
X438706Y15313D01*
X438819Y16315D01*
X438817Y16318D01*
X438819Y16320D01*
X438819Y18289D01*
X441361Y18289D01*
X441361Y15622D01*
X441088Y14252D01*
X440725Y13375D01*
X440554Y12961D01*
X439956Y12067D01*
X439778Y11800D01*
X438790Y10812D01*
X437629Y10036D01*
X436338Y9502D01*
X436301Y9494D01*
X436301Y12257D01*
G37*
%LPD*%
%LPC*%
G36*
X522801Y12257D02*
X522801Y12257D01*
X523602Y12760D01*
X523605Y12768D01*
X523611Y12767D01*
X524323Y13479D01*
X524324Y13488D01*
X524330Y13488D01*
X524866Y14341D01*
X524865Y14349D01*
X524871Y14351D01*
X525204Y15302D01*
X525203Y15303D01*
X525204Y15303D01*
X525203Y15305D01*
X525201Y15310D01*
X525206Y15313D01*
X525319Y16315D01*
X525317Y16318D01*
X525319Y16320D01*
X525319Y18289D01*
X527861Y18289D01*
X527861Y15622D01*
X527588Y14252D01*
X527072Y13005D01*
X527054Y12961D01*
X526278Y11800D01*
X525290Y10812D01*
X524129Y10036D01*
X522838Y9502D01*
X522801Y9494D01*
X522801Y12257D01*
G37*
%LPD*%
%LPC*%
G36*
X438819Y22351D02*
X438819Y22351D01*
X438819Y24320D01*
X438817Y24323D01*
X438819Y24326D01*
X438706Y25327D01*
X438700Y25333D01*
X438704Y25338D01*
X438371Y26289D01*
X438364Y26293D01*
X438366Y26299D01*
X437830Y27152D01*
X437822Y27155D01*
X437823Y27161D01*
X437111Y27873D01*
X437102Y27874D01*
X437102Y27880D01*
X436301Y28383D01*
X436301Y31146D01*
X436338Y31138D01*
X437338Y30724D01*
X437629Y30604D01*
X438620Y29941D01*
X438790Y29828D01*
X439778Y28840D01*
X440554Y27679D01*
X441088Y26388D01*
X441361Y25018D01*
X441361Y22351D01*
X438819Y22351D01*
G37*
%LPD*%
D10*
X213360Y184150D03*
X269240Y184150D03*
X213360Y222250D03*
X269240Y222250D03*
D11*
X851154Y431800D02*
X863346Y431800D01*
X863346Y406400D02*
X851154Y406400D01*
X851154Y381000D02*
X863346Y381000D01*
X863346Y355600D02*
X851154Y355600D01*
X851154Y330200D02*
X863346Y330200D01*
X126746Y330200D02*
X114554Y330200D01*
X114554Y355600D02*
X126746Y355600D01*
X126746Y381000D02*
X114554Y381000D01*
X114554Y406400D02*
X126746Y406400D01*
X126746Y431800D02*
X114554Y431800D01*
D12*
X596900Y101600D03*
X469900Y101600D03*
D13*
X172720Y482600D02*
X157480Y482600D01*
X157480Y457200D02*
X172720Y457200D01*
X172720Y431800D02*
X157480Y431800D01*
X157480Y406400D02*
X172720Y406400D01*
D14*
X381000Y698500D03*
X279400Y698500D03*
X609600Y698500D03*
X508000Y698500D03*
D15*
X317500Y749300D03*
X342900Y749300D03*
X546100Y749300D03*
X571500Y749300D03*
D16*
X434270Y62020D03*
X520770Y62020D03*
X434270Y20320D03*
X520770Y20320D03*
D17*
G36*
X91429Y50299D02*
X86220Y55508D01*
X109209Y78497D01*
X114418Y73288D01*
X91429Y50299D01*
G37*
G36*
X53712Y12582D02*
X48503Y17791D01*
X71492Y40780D01*
X76701Y35571D01*
X53712Y12582D01*
G37*
G36*
X73469Y68260D02*
X68260Y73469D01*
X91249Y96458D01*
X96458Y91249D01*
X73469Y68260D01*
G37*
G36*
X35751Y30542D02*
X30542Y35751D01*
X53531Y58740D01*
X58740Y53531D01*
X35751Y30542D01*
G37*
G36*
X55508Y86220D02*
X50299Y91429D01*
X73288Y114418D01*
X78497Y109209D01*
X55508Y86220D01*
G37*
G36*
X17791Y48503D02*
X12582Y53712D01*
X35571Y76701D01*
X40780Y71492D01*
X17791Y48503D01*
G37*
D18*
X469900Y120650D03*
X488950Y120650D03*
D19*
X429260Y149860D03*
X406400Y120650D03*
X369570Y152400D03*
X692150Y749300D03*
X260350Y749300D03*
X762000Y749300D03*
X177800Y749300D03*
X279400Y63500D03*
X323850Y152400D03*
X692150Y57150D03*
X654050Y57150D03*
X692150Y171450D03*
X184150Y234950D03*
X107950Y158750D03*
X260350Y158750D03*
X184150Y82550D03*
X133350Y273050D03*
X234950Y273050D03*
X336550Y273050D03*
X438150Y273050D03*
X539750Y273050D03*
X641350Y273050D03*
X742950Y273050D03*
X812800Y273050D03*
X755650Y584200D03*
X654050Y584200D03*
X450850Y584200D03*
X349250Y584200D03*
X247650Y584200D03*
X146050Y584200D03*
X44450Y584200D03*
X311150Y88900D03*
X590550Y234950D03*
X590550Y209550D03*
X514350Y234950D03*
X254000Y63500D03*
X552450Y584200D03*
X355600Y127000D03*
X266700Y31750D03*
X565150Y95250D03*
X863600Y666750D03*
D20*
X323850Y222250D02*
X269240Y222250D01*
D19*
X323850Y222250D03*
X228600Y222250D03*
D20*
X269240Y222250D01*
D19*
X76200Y127000D03*
D20*
X114300Y88900D01*
X114300Y78379D02*
X100319Y64398D01*
X114300Y78379D02*
X114300Y88900D01*
X285750Y25400D02*
X381000Y120650D01*
X381000Y165100D01*
X393700Y177800D01*
X476250Y177800D02*
X491490Y193040D01*
X476250Y177800D02*
X393700Y177800D01*
X491490Y193040D02*
X505460Y193040D01*
D19*
X505460Y193040D03*
D20*
X285750Y25400D02*
X110490Y25400D01*
X73660Y73660D02*
X82359Y82359D01*
X73660Y62230D02*
X110490Y25400D01*
X73660Y62230D02*
X73660Y73660D01*
D19*
X647700Y158750D03*
D20*
X615950Y158750D01*
X558800Y215900D01*
X419100Y215900D01*
D19*
X419100Y215900D03*
X520700Y146050D03*
D20*
X533400Y133350D01*
X819150Y133350D01*
X831850Y146050D01*
D19*
X831850Y495300D03*
D20*
X831850Y146050D01*
D19*
X88900Y184150D03*
D20*
X88900Y425450D01*
X95250Y431800D01*
X120650Y431800D01*
D19*
X95250Y177800D03*
D20*
X95250Y400050D02*
X101600Y406400D01*
X120650Y406400D01*
X95250Y400050D02*
X95250Y177800D01*
D19*
X101600Y171450D03*
D20*
X101600Y374650D02*
X107950Y381000D01*
X120650Y381000D01*
X101600Y374650D02*
X101600Y171450D01*
D19*
X496570Y132080D03*
D20*
X511175Y117475D01*
X514350Y114300D01*
X857250Y114300D01*
X876300Y234950D02*
X952500Y311150D01*
X952500Y425450D01*
X946150Y431800D01*
X857250Y431800D01*
X876300Y133350D02*
X857250Y114300D01*
X876300Y133350D02*
X876300Y234950D01*
D19*
X508000Y133350D03*
D20*
X520700Y120650D01*
X850900Y120650D01*
X946150Y317500D02*
X946150Y400050D01*
X939800Y406400D01*
X857250Y406400D01*
X869950Y139700D02*
X850900Y120650D01*
X869950Y139700D02*
X869950Y241300D01*
X946150Y317500D01*
D19*
X622300Y152400D03*
D20*
X552450Y209550D02*
X355600Y209550D01*
D19*
X355600Y209550D03*
D20*
X609600Y152400D02*
X622300Y152400D01*
X609600Y152400D02*
X552450Y209550D01*
D19*
X673100Y165100D03*
D20*
X622300Y165100D01*
X565150Y222250D01*
X425450Y222250D01*
D19*
X425450Y222250D03*
D20*
X41910Y77831D02*
X26681Y62602D01*
X41910Y77831D02*
X41910Y86360D01*
X38100Y90170D01*
D19*
X38100Y90170D03*
X298450Y107950D03*
D21*
X133350Y107950D01*
X120650Y120650D01*
X120650Y273050D01*
D19*
X120650Y273050D03*
D20*
X330200Y184150D02*
X469900Y184150D01*
D19*
X469900Y184150D03*
D20*
X330200Y184150D02*
X321056Y193294D01*
D19*
X171450Y158750D03*
D20*
X205994Y193294D01*
X321056Y193294D01*
X342900Y196850D02*
X469900Y196850D01*
X476250Y203200D01*
D19*
X476250Y203200D03*
D20*
X342900Y196850D02*
X334010Y205740D01*
X193040Y205740D01*
X184150Y196850D01*
D19*
X184150Y196850D03*
D20*
X476250Y190500D02*
X482600Y196850D01*
D19*
X482600Y196850D03*
D20*
X336550Y190500D02*
X327660Y199390D01*
X336550Y190500D02*
X476250Y190500D01*
X327660Y199390D02*
X199390Y199390D01*
D19*
X171450Y146050D03*
D20*
X165100Y152400D02*
X165100Y165100D01*
X165100Y152400D02*
X171450Y146050D01*
X165100Y165100D02*
X199390Y199390D01*
D19*
X749300Y527050D03*
D20*
X812800Y501650D02*
X812800Y317500D01*
X812800Y501650D02*
X787400Y527050D01*
X749300Y527050D01*
D19*
X812800Y317500D03*
X514350Y139700D03*
D20*
X527050Y127000D01*
X844550Y127000D01*
X863600Y247650D02*
X939800Y323850D01*
X939800Y374650D01*
X933450Y381000D01*
X857250Y381000D01*
X863600Y146050D02*
X844550Y127000D01*
X863600Y146050D02*
X863600Y247650D01*
D19*
X463550Y203200D03*
D20*
X349250Y203200D01*
X340360Y212090D01*
X186690Y212090D01*
D19*
X139700Y165100D03*
D20*
X186690Y212090D01*
D19*
X431800Y247650D03*
D20*
X431800Y476250D01*
X469900Y533400D02*
X476250Y539750D01*
X469900Y488950D02*
X463550Y482600D01*
X469900Y488950D02*
X469900Y533400D01*
X463550Y482600D02*
X438150Y482600D01*
X431800Y476250D01*
X425450Y482600D01*
X165100Y482600D01*
X825500Y539750D02*
X838200Y552450D01*
D19*
X838200Y552450D03*
D20*
X825500Y539750D02*
X476250Y539750D01*
D19*
X425450Y241300D03*
D20*
X425450Y450850D01*
X419100Y457200D01*
X165100Y457200D01*
X831850Y533400D02*
X850900Y552450D01*
X482600Y533400D02*
X476250Y527050D01*
X482600Y533400D02*
X831850Y533400D01*
X476250Y527050D02*
X476250Y457200D01*
D19*
X419100Y457200D03*
X476250Y457200D03*
D20*
X838200Y666750D02*
X850900Y654050D01*
D19*
X838200Y666750D03*
D20*
X850900Y654050D02*
X850900Y552450D01*
D19*
X533400Y146050D03*
D20*
X539750Y139700D01*
X812800Y139700D01*
X825500Y152400D01*
X393700Y107950D02*
X298450Y12700D01*
X393700Y107950D02*
X393700Y152400D01*
X406400Y165100D01*
D19*
X495300Y172720D03*
D20*
X487680Y165100D01*
X406400Y165100D01*
X53340Y53340D02*
X44641Y44641D01*
X105410Y12700D02*
X298450Y12700D01*
X105410Y12700D02*
X64770Y53340D01*
X53340Y53340D01*
D19*
X825500Y520700D03*
D20*
X825500Y152400D01*
D19*
X539750Y152400D03*
D20*
X546100Y146050D01*
X806450Y146050D02*
X819150Y158750D01*
X819150Y508000D01*
X806450Y146050D02*
X546100Y146050D01*
X387350Y114300D02*
X292100Y19050D01*
X387350Y114300D02*
X387350Y158750D01*
X400050Y171450D01*
X481330Y171450D01*
D19*
X497840Y185420D03*
D20*
X495300Y185420D01*
X481330Y171450D01*
X292100Y19050D02*
X107950Y19050D01*
X55880Y71120D01*
X55880Y91801D02*
X64398Y100319D01*
X55880Y91801D02*
X55880Y71120D01*
X806450Y520700D02*
X819150Y508000D01*
D19*
X806450Y520700D03*
X488950Y31750D03*
D20*
X590550Y38100D02*
X590550Y50800D01*
D19*
X590550Y50800D03*
D20*
X590550Y38100D02*
X584200Y31750D01*
X488950Y31750D01*
D19*
X476250Y31750D03*
D20*
X488950Y44450D01*
X552450Y44450D01*
D19*
X558800Y57150D03*
D20*
X558800Y50800D02*
X552450Y44450D01*
X558800Y50800D02*
X558800Y57150D01*
D19*
X482600Y158750D03*
D20*
X488950Y152400D01*
X488950Y120650D01*
D19*
X476250Y152400D03*
D20*
X476250Y127000D01*
X469900Y120650D01*
M02*
