G04 EAGLE Gerber RS-274X export*
G75*
%MOMM*%
%FSLAX34Y34*%
%LPD*%
%IN*%
%IPPOS*%
%AMOC8*
5,1,8,0,0,1.08239X$1,22.5*%
G01*
%ADD10C,0.254000*%


D10*
X0Y50800D02*
X50800Y0D01*
X838200Y0D01*
X889000Y50800D01*
X889000Y228600D01*
X965200Y304800D01*
X965200Y457200D01*
X889000Y533400D01*
X889000Y736600D01*
X838200Y787400D01*
X50800Y787400D01*
X0Y736600D01*
X0Y533400D01*
X76200Y457200D01*
X76200Y304800D01*
X0Y228600D01*
X0Y50800D01*
X517770Y16320D02*
X517781Y16059D01*
X517816Y15799D01*
X517872Y15544D01*
X517951Y15294D01*
X518051Y15052D01*
X518172Y14820D01*
X518313Y14599D01*
X518472Y14392D01*
X518649Y14199D01*
X518842Y14022D01*
X519049Y13863D01*
X519270Y13722D01*
X519502Y13601D01*
X519744Y13501D01*
X519994Y13422D01*
X520249Y13366D01*
X520509Y13331D01*
X520770Y13320D01*
X521031Y13331D01*
X521291Y13366D01*
X521546Y13422D01*
X521796Y13501D01*
X522038Y13601D01*
X522270Y13722D01*
X522491Y13863D01*
X522698Y14022D01*
X522891Y14199D01*
X523068Y14392D01*
X523227Y14599D01*
X523368Y14820D01*
X523489Y15052D01*
X523589Y15294D01*
X523668Y15544D01*
X523724Y15799D01*
X523759Y16059D01*
X523770Y16320D01*
X523770Y24320D01*
X523759Y24581D01*
X523724Y24841D01*
X523668Y25096D01*
X523589Y25346D01*
X523489Y25588D01*
X523368Y25820D01*
X523227Y26041D01*
X523068Y26248D01*
X522891Y26441D01*
X522698Y26618D01*
X522491Y26777D01*
X522270Y26918D01*
X522038Y27039D01*
X521796Y27139D01*
X521546Y27218D01*
X521291Y27274D01*
X521031Y27309D01*
X520770Y27320D01*
X520509Y27309D01*
X520249Y27274D01*
X519994Y27218D01*
X519744Y27139D01*
X519502Y27039D01*
X519270Y26918D01*
X519049Y26777D01*
X518842Y26618D01*
X518649Y26441D01*
X518472Y26248D01*
X518313Y26041D01*
X518172Y25820D01*
X518051Y25588D01*
X517951Y25346D01*
X517872Y25096D01*
X517816Y24841D01*
X517781Y24581D01*
X517770Y24320D01*
X517770Y16320D01*
X431270Y16320D02*
X431281Y16059D01*
X431316Y15799D01*
X431372Y15544D01*
X431451Y15294D01*
X431551Y15052D01*
X431672Y14820D01*
X431813Y14599D01*
X431972Y14392D01*
X432149Y14199D01*
X432342Y14022D01*
X432549Y13863D01*
X432770Y13722D01*
X433002Y13601D01*
X433244Y13501D01*
X433494Y13422D01*
X433749Y13366D01*
X434009Y13331D01*
X434270Y13320D01*
X434531Y13331D01*
X434791Y13366D01*
X435046Y13422D01*
X435296Y13501D01*
X435538Y13601D01*
X435770Y13722D01*
X435991Y13863D01*
X436198Y14022D01*
X436391Y14199D01*
X436568Y14392D01*
X436727Y14599D01*
X436868Y14820D01*
X436989Y15052D01*
X437089Y15294D01*
X437168Y15544D01*
X437224Y15799D01*
X437259Y16059D01*
X437270Y16320D01*
X437270Y24320D01*
X437259Y24581D01*
X437224Y24841D01*
X437168Y25096D01*
X437089Y25346D01*
X436989Y25588D01*
X436868Y25820D01*
X436727Y26041D01*
X436568Y26248D01*
X436391Y26441D01*
X436198Y26618D01*
X435991Y26777D01*
X435770Y26918D01*
X435538Y27039D01*
X435296Y27139D01*
X435046Y27218D01*
X434791Y27274D01*
X434531Y27309D01*
X434270Y27320D01*
X434009Y27309D01*
X433749Y27274D01*
X433494Y27218D01*
X433244Y27139D01*
X433002Y27039D01*
X432770Y26918D01*
X432549Y26777D01*
X432342Y26618D01*
X432149Y26441D01*
X431972Y26248D01*
X431813Y26041D01*
X431672Y25820D01*
X431551Y25588D01*
X431451Y25346D01*
X431372Y25096D01*
X431316Y24841D01*
X431281Y24581D01*
X431270Y24320D01*
X431270Y16320D01*
X517770Y56520D02*
X517781Y56259D01*
X517816Y55999D01*
X517872Y55744D01*
X517951Y55494D01*
X518051Y55252D01*
X518172Y55020D01*
X518313Y54799D01*
X518472Y54592D01*
X518649Y54399D01*
X518842Y54222D01*
X519049Y54063D01*
X519270Y53922D01*
X519502Y53801D01*
X519744Y53701D01*
X519994Y53622D01*
X520249Y53566D01*
X520509Y53531D01*
X520770Y53520D01*
X521031Y53531D01*
X521291Y53566D01*
X521546Y53622D01*
X521796Y53701D01*
X522038Y53801D01*
X522270Y53922D01*
X522491Y54063D01*
X522698Y54222D01*
X522891Y54399D01*
X523068Y54592D01*
X523227Y54799D01*
X523368Y55020D01*
X523489Y55252D01*
X523589Y55494D01*
X523668Y55744D01*
X523724Y55999D01*
X523759Y56259D01*
X523770Y56520D01*
X523770Y67520D01*
X523759Y67781D01*
X523724Y68041D01*
X523668Y68296D01*
X523589Y68546D01*
X523489Y68788D01*
X523368Y69020D01*
X523227Y69241D01*
X523068Y69448D01*
X522891Y69641D01*
X522698Y69818D01*
X522491Y69977D01*
X522270Y70118D01*
X522038Y70239D01*
X521796Y70339D01*
X521546Y70418D01*
X521291Y70474D01*
X521031Y70509D01*
X520770Y70520D01*
X520509Y70509D01*
X520249Y70474D01*
X519994Y70418D01*
X519744Y70339D01*
X519502Y70239D01*
X519270Y70118D01*
X519049Y69977D01*
X518842Y69818D01*
X518649Y69641D01*
X518472Y69448D01*
X518313Y69241D01*
X518172Y69020D01*
X518051Y68788D01*
X517951Y68546D01*
X517872Y68296D01*
X517816Y68041D01*
X517781Y67781D01*
X517770Y67520D01*
X517770Y56520D01*
X431270Y56520D02*
X431281Y56259D01*
X431316Y55999D01*
X431372Y55744D01*
X431451Y55494D01*
X431551Y55252D01*
X431672Y55020D01*
X431813Y54799D01*
X431972Y54592D01*
X432149Y54399D01*
X432342Y54222D01*
X432549Y54063D01*
X432770Y53922D01*
X433002Y53801D01*
X433244Y53701D01*
X433494Y53622D01*
X433749Y53566D01*
X434009Y53531D01*
X434270Y53520D01*
X434531Y53531D01*
X434791Y53566D01*
X435046Y53622D01*
X435296Y53701D01*
X435538Y53801D01*
X435770Y53922D01*
X435991Y54063D01*
X436198Y54222D01*
X436391Y54399D01*
X436568Y54592D01*
X436727Y54799D01*
X436868Y55020D01*
X436989Y55252D01*
X437089Y55494D01*
X437168Y55744D01*
X437224Y55999D01*
X437259Y56259D01*
X437270Y56520D01*
X437270Y67520D01*
X437259Y67781D01*
X437224Y68041D01*
X437168Y68296D01*
X437089Y68546D01*
X436989Y68788D01*
X436868Y69020D01*
X436727Y69241D01*
X436568Y69448D01*
X436391Y69641D01*
X436198Y69818D01*
X435991Y69977D01*
X435770Y70118D01*
X435538Y70239D01*
X435296Y70339D01*
X435046Y70418D01*
X434791Y70474D01*
X434531Y70509D01*
X434270Y70520D01*
X434009Y70509D01*
X433749Y70474D01*
X433494Y70418D01*
X433244Y70339D01*
X433002Y70239D01*
X432770Y70118D01*
X432549Y69977D01*
X432342Y69818D01*
X432149Y69641D01*
X431972Y69448D01*
X431813Y69241D01*
X431672Y69020D01*
X431551Y68788D01*
X431451Y68546D01*
X431372Y68296D01*
X431316Y68041D01*
X431281Y67781D01*
X431270Y67520D01*
X431270Y56520D01*
X469500Y735899D02*
X469421Y734498D01*
X469264Y733104D01*
X469029Y731721D01*
X468717Y730353D01*
X468329Y729005D01*
X467865Y727681D01*
X467329Y726385D01*
X466720Y725121D01*
X466041Y723893D01*
X465295Y722705D01*
X464483Y721561D01*
X463608Y720464D01*
X462674Y719418D01*
X461682Y718426D01*
X460636Y717492D01*
X459539Y716617D01*
X458395Y715805D01*
X457207Y715059D01*
X455979Y714380D01*
X454715Y713771D01*
X453419Y713235D01*
X452095Y712771D01*
X450747Y712383D01*
X449379Y712071D01*
X447996Y711836D01*
X446602Y711679D01*
X445201Y711600D01*
X443799Y711600D01*
X442398Y711679D01*
X441004Y711836D01*
X439621Y712071D01*
X438253Y712383D01*
X436905Y712771D01*
X435581Y713235D01*
X434285Y713771D01*
X433021Y714380D01*
X431793Y715059D01*
X430605Y715805D01*
X429461Y716617D01*
X428364Y717492D01*
X427318Y718426D01*
X426326Y719418D01*
X425392Y720464D01*
X424517Y721561D01*
X423705Y722705D01*
X422959Y723893D01*
X422280Y725121D01*
X421671Y726385D01*
X421135Y727681D01*
X420671Y729005D01*
X420283Y730353D01*
X419971Y731721D01*
X419736Y733104D01*
X419579Y734498D01*
X419500Y735899D01*
X419500Y737301D01*
X419579Y738702D01*
X419736Y740096D01*
X419971Y741479D01*
X420283Y742847D01*
X420671Y744195D01*
X421135Y745519D01*
X421671Y746815D01*
X422280Y748079D01*
X422959Y749307D01*
X423705Y750495D01*
X424517Y751639D01*
X425392Y752736D01*
X426326Y753782D01*
X427318Y754774D01*
X428364Y755708D01*
X429461Y756583D01*
X430605Y757395D01*
X431793Y758141D01*
X433021Y758820D01*
X434285Y759429D01*
X435581Y759965D01*
X436905Y760429D01*
X438253Y760817D01*
X439621Y761129D01*
X441004Y761364D01*
X442398Y761521D01*
X443799Y761600D01*
X445201Y761600D01*
X446602Y761521D01*
X447996Y761364D01*
X449379Y761129D01*
X450747Y760817D01*
X452095Y760429D01*
X453419Y759965D01*
X454715Y759429D01*
X455979Y758820D01*
X457207Y758141D01*
X458395Y757395D01*
X459539Y756583D01*
X460636Y755708D01*
X461682Y754774D01*
X462674Y753782D01*
X463608Y752736D01*
X464483Y751639D01*
X465295Y750495D01*
X466041Y749307D01*
X466720Y748079D01*
X467329Y746815D01*
X467865Y745519D01*
X468329Y744195D01*
X468717Y742847D01*
X469029Y741479D01*
X469264Y740096D01*
X469421Y738702D01*
X469500Y737301D01*
X469500Y735899D01*
X334559Y23550D02*
X335144Y23473D01*
X335714Y23320D01*
X336259Y23095D01*
X336769Y22800D01*
X337237Y22441D01*
X337655Y22023D01*
X338014Y21555D01*
X338309Y21045D01*
X338534Y20500D01*
X338687Y19930D01*
X338764Y19345D01*
X338764Y18755D01*
X338687Y18170D01*
X338534Y17600D01*
X338309Y17055D01*
X338014Y16545D01*
X337655Y16077D01*
X337237Y15659D01*
X336769Y15300D01*
X336259Y15005D01*
X335714Y14780D01*
X335144Y14627D01*
X334559Y14550D01*
X333969Y14550D01*
X333384Y14627D01*
X332814Y14780D01*
X332269Y15005D01*
X331759Y15300D01*
X331291Y15659D01*
X330873Y16077D01*
X330514Y16545D01*
X330219Y17055D01*
X329994Y17600D01*
X329841Y18170D01*
X329764Y18755D01*
X329764Y19345D01*
X329841Y19930D01*
X329994Y20500D01*
X330219Y21045D01*
X330514Y21555D01*
X330873Y22023D01*
X331291Y22441D01*
X331759Y22800D01*
X332269Y23095D01*
X332814Y23320D01*
X333384Y23473D01*
X333969Y23550D01*
X334559Y23550D01*
X364531Y23550D02*
X365116Y23473D01*
X365686Y23320D01*
X366231Y23095D01*
X366741Y22800D01*
X367209Y22441D01*
X367627Y22023D01*
X367986Y21555D01*
X368281Y21045D01*
X368506Y20500D01*
X368659Y19930D01*
X368736Y19345D01*
X368736Y18755D01*
X368659Y18170D01*
X368506Y17600D01*
X368281Y17055D01*
X367986Y16545D01*
X367627Y16077D01*
X367209Y15659D01*
X366741Y15300D01*
X366231Y15005D01*
X365686Y14780D01*
X365116Y14627D01*
X364531Y14550D01*
X363941Y14550D01*
X363356Y14627D01*
X362786Y14780D01*
X362241Y15005D01*
X361731Y15300D01*
X361263Y15659D01*
X360845Y16077D01*
X360486Y16545D01*
X360191Y17055D01*
X359966Y17600D01*
X359813Y18170D01*
X359736Y18755D01*
X359736Y19345D01*
X359813Y19930D01*
X359966Y20500D01*
X360191Y21045D01*
X360486Y21555D01*
X360845Y22023D01*
X361263Y22441D01*
X361731Y22800D01*
X362241Y23095D01*
X362786Y23320D01*
X363356Y23473D01*
X363941Y23550D01*
X364531Y23550D01*
X580900Y338566D02*
X580969Y337521D01*
X581105Y336482D01*
X581310Y335455D01*
X581581Y334443D01*
X581917Y333451D01*
X582318Y332483D01*
X582782Y331544D01*
X583306Y330636D01*
X583888Y329765D01*
X584525Y328934D01*
X585216Y328147D01*
X585957Y327406D01*
X586744Y326715D01*
X587575Y326078D01*
X588446Y325496D01*
X589354Y324972D01*
X590293Y324508D01*
X591261Y324107D01*
X592253Y323771D01*
X593265Y323500D01*
X594292Y323295D01*
X595331Y323159D01*
X596376Y323090D01*
X597424Y323090D01*
X598469Y323159D01*
X599508Y323295D01*
X600535Y323500D01*
X601547Y323771D01*
X602539Y324107D01*
X603507Y324508D01*
X604446Y324972D01*
X605354Y325496D01*
X606225Y326078D01*
X607056Y326715D01*
X607843Y327406D01*
X608584Y328147D01*
X609275Y328934D01*
X609913Y329765D01*
X610495Y330636D01*
X611018Y331544D01*
X611482Y332483D01*
X611883Y333451D01*
X612219Y334443D01*
X612490Y335455D01*
X612695Y336482D01*
X612832Y337521D01*
X612900Y338566D01*
X612900Y339614D01*
X612832Y340659D01*
X612695Y341698D01*
X612490Y342725D01*
X612219Y343737D01*
X611883Y344729D01*
X611482Y345697D01*
X611018Y346636D01*
X610495Y347544D01*
X609913Y348415D01*
X609275Y349246D01*
X608584Y350033D01*
X607843Y350774D01*
X607056Y351465D01*
X606225Y352103D01*
X605354Y352685D01*
X604446Y353208D01*
X603507Y353672D01*
X602539Y354073D01*
X601547Y354409D01*
X600535Y354680D01*
X599508Y354885D01*
X598469Y355022D01*
X597424Y355090D01*
X596376Y355090D01*
X595331Y355022D01*
X594292Y354885D01*
X593265Y354680D01*
X592253Y354409D01*
X591261Y354073D01*
X590293Y353672D01*
X589354Y353208D01*
X588446Y352685D01*
X587575Y352103D01*
X586744Y351465D01*
X585957Y350774D01*
X585216Y350033D01*
X584525Y349246D01*
X583888Y348415D01*
X583306Y347544D01*
X582782Y346636D01*
X582318Y345697D01*
X581917Y344729D01*
X581581Y343737D01*
X581310Y342725D01*
X581105Y341698D01*
X580969Y340659D01*
X580900Y339614D01*
X580900Y338566D01*
X345950Y338566D02*
X346019Y337521D01*
X346155Y336482D01*
X346360Y335455D01*
X346631Y334443D01*
X346967Y333451D01*
X347368Y332483D01*
X347832Y331544D01*
X348356Y330636D01*
X348938Y329765D01*
X349575Y328934D01*
X350266Y328147D01*
X351007Y327406D01*
X351794Y326715D01*
X352625Y326078D01*
X353496Y325496D01*
X354404Y324972D01*
X355343Y324508D01*
X356311Y324107D01*
X357303Y323771D01*
X358315Y323500D01*
X359342Y323295D01*
X360381Y323159D01*
X361426Y323090D01*
X362474Y323090D01*
X363519Y323159D01*
X364558Y323295D01*
X365585Y323500D01*
X366597Y323771D01*
X367589Y324107D01*
X368557Y324508D01*
X369496Y324972D01*
X370404Y325496D01*
X371275Y326078D01*
X372106Y326715D01*
X372893Y327406D01*
X373634Y328147D01*
X374325Y328934D01*
X374963Y329765D01*
X375545Y330636D01*
X376068Y331544D01*
X376532Y332483D01*
X376933Y333451D01*
X377269Y334443D01*
X377540Y335455D01*
X377745Y336482D01*
X377882Y337521D01*
X377950Y338566D01*
X377950Y339614D01*
X377882Y340659D01*
X377745Y341698D01*
X377540Y342725D01*
X377269Y343737D01*
X376933Y344729D01*
X376532Y345697D01*
X376068Y346636D01*
X375545Y347544D01*
X374963Y348415D01*
X374325Y349246D01*
X373634Y350033D01*
X372893Y350774D01*
X372106Y351465D01*
X371275Y352103D01*
X370404Y352685D01*
X369496Y353208D01*
X368557Y353672D01*
X367589Y354073D01*
X366597Y354409D01*
X365585Y354680D01*
X364558Y354885D01*
X363519Y355022D01*
X362474Y355090D01*
X361426Y355090D01*
X360381Y355022D01*
X359342Y354885D01*
X358315Y354680D01*
X357303Y354409D01*
X356311Y354073D01*
X355343Y353672D01*
X354404Y353208D01*
X353496Y352685D01*
X352625Y352103D01*
X351794Y351465D01*
X351007Y350774D01*
X350266Y350033D01*
X349575Y349246D01*
X348938Y348415D01*
X348356Y347544D01*
X347832Y346636D01*
X347368Y345697D01*
X346967Y344729D01*
X346631Y343737D01*
X346360Y342725D01*
X346155Y341698D01*
X346019Y340659D01*
X345950Y339614D01*
X345950Y338566D01*
X451620Y56884D02*
X451546Y56418D01*
X451400Y55968D01*
X451186Y55548D01*
X450908Y55166D01*
X450574Y54832D01*
X450192Y54554D01*
X449772Y54340D01*
X449323Y54194D01*
X448856Y54120D01*
X448384Y54120D01*
X447918Y54194D01*
X447468Y54340D01*
X447048Y54554D01*
X446666Y54832D01*
X446332Y55166D01*
X446054Y55548D01*
X445840Y55968D01*
X445694Y56418D01*
X445620Y56884D01*
X445620Y57356D01*
X445694Y57823D01*
X445840Y58272D01*
X446054Y58692D01*
X446332Y59074D01*
X446666Y59408D01*
X447048Y59686D01*
X447468Y59900D01*
X447918Y60046D01*
X448384Y60120D01*
X448856Y60120D01*
X449323Y60046D01*
X449772Y59900D01*
X450192Y59686D01*
X450574Y59408D01*
X450908Y59074D01*
X451186Y58692D01*
X451400Y58272D01*
X451546Y57823D01*
X451620Y57356D01*
X451620Y56884D01*
X509420Y56884D02*
X509346Y56418D01*
X509200Y55968D01*
X508986Y55548D01*
X508708Y55166D01*
X508374Y54832D01*
X507992Y54554D01*
X507572Y54340D01*
X507123Y54194D01*
X506656Y54120D01*
X506184Y54120D01*
X505718Y54194D01*
X505268Y54340D01*
X504848Y54554D01*
X504466Y54832D01*
X504132Y55166D01*
X503854Y55548D01*
X503640Y55968D01*
X503494Y56418D01*
X503420Y56884D01*
X503420Y57356D01*
X503494Y57823D01*
X503640Y58272D01*
X503854Y58692D01*
X504132Y59074D01*
X504466Y59408D01*
X504848Y59686D01*
X505268Y59900D01*
X505718Y60046D01*
X506184Y60120D01*
X506656Y60120D01*
X507123Y60046D01*
X507572Y59900D01*
X507992Y59686D01*
X508374Y59408D01*
X508708Y59074D01*
X508986Y58692D01*
X509200Y58272D01*
X509346Y57823D01*
X509420Y57356D01*
X509420Y56884D01*
M02*
