G04 EAGLE Gerber RS-274X export*
G75*
%MOMM*%
%FSLAX34Y34*%
%LPD*%
%INSoldermask Top*%
%IPPOS*%
%AMOC8*
5,1,8,0,0,1.08239X$1,22.5*%
G01*
%ADD10C,5.000000*%
%ADD11C,3.200000*%
%ADD12R,1.100000X1.000000*%
%ADD13R,1.240000X1.500000*%
%ADD14R,1.075000X1.000000*%
%ADD15R,1.500000X1.240000*%
%ADD16R,1.200000X1.200000*%
%ADD17R,1.400000X1.400000*%
%ADD18R,0.400000X1.350000*%
%ADD19R,2.100000X1.600000*%
%ADD20R,1.900000X1.900000*%
%ADD21R,1.800000X1.900000*%
%ADD22C,0.450000*%
%ADD23R,3.495041X1.534159*%
%ADD24R,1.000000X1.075000*%
%ADD25R,1.524000X0.762000*%
%ADD26C,1.219200*%
%ADD27R,1.270000X0.558800*%
%ADD28R,0.558800X1.270000*%
%ADD29R,0.700000X0.700000*%
%ADD30R,1.200000X0.550000*%
%ADD31R,0.762000X2.209800*%
%ADD32R,0.990600X0.812800*%
%ADD33C,0.900000*%
%ADD34C,1.524000*%
%ADD35C,4.470400*%
%ADD36C,0.155000*%
%ADD37C,0.195000*%
%ADD38C,1.524000*%
%ADD39R,1.270000X0.660400*%
%ADD40P,1.319650X8X202.500000*%
%ADD41P,1.319650X8X22.500000*%
%ADD42R,1.500000X1.500000*%
%ADD43R,1.800000X1.200000*%
%ADD44P,1.649562X8X22.500000*%
%ADD45P,1.649562X8X157.500000*%

G36*
X674435Y118122D02*
X674435Y118122D01*
X674501Y118124D01*
X674544Y118142D01*
X674591Y118150D01*
X674648Y118184D01*
X674708Y118209D01*
X674743Y118240D01*
X674784Y118265D01*
X674826Y118316D01*
X674874Y118360D01*
X674896Y118402D01*
X674925Y118439D01*
X674946Y118501D01*
X674977Y118560D01*
X674985Y118614D01*
X674997Y118651D01*
X674996Y118691D01*
X675004Y118745D01*
X675004Y122555D01*
X674993Y122620D01*
X674991Y122686D01*
X674973Y122729D01*
X674965Y122776D01*
X674931Y122833D01*
X674906Y122893D01*
X674875Y122928D01*
X674850Y122969D01*
X674799Y123011D01*
X674755Y123059D01*
X674713Y123081D01*
X674676Y123110D01*
X674614Y123131D01*
X674555Y123162D01*
X674501Y123170D01*
X674464Y123182D01*
X674424Y123181D01*
X674370Y123189D01*
X671830Y123189D01*
X671765Y123178D01*
X671699Y123176D01*
X671656Y123158D01*
X671609Y123150D01*
X671552Y123116D01*
X671492Y123091D01*
X671457Y123060D01*
X671416Y123035D01*
X671375Y122984D01*
X671326Y122940D01*
X671304Y122898D01*
X671275Y122861D01*
X671254Y122799D01*
X671223Y122740D01*
X671215Y122686D01*
X671203Y122649D01*
X671203Y122645D01*
X671203Y122644D01*
X671204Y122609D01*
X671196Y122555D01*
X671196Y118745D01*
X671207Y118680D01*
X671209Y118614D01*
X671227Y118571D01*
X671235Y118524D01*
X671269Y118467D01*
X671294Y118407D01*
X671325Y118372D01*
X671350Y118331D01*
X671401Y118290D01*
X671445Y118241D01*
X671487Y118219D01*
X671524Y118190D01*
X671586Y118169D01*
X671645Y118138D01*
X671699Y118130D01*
X671736Y118118D01*
X671776Y118119D01*
X671830Y118111D01*
X674370Y118111D01*
X674435Y118122D01*
G37*
G36*
X649035Y118122D02*
X649035Y118122D01*
X649101Y118124D01*
X649144Y118142D01*
X649191Y118150D01*
X649248Y118184D01*
X649308Y118209D01*
X649343Y118240D01*
X649384Y118265D01*
X649426Y118316D01*
X649474Y118360D01*
X649496Y118402D01*
X649525Y118439D01*
X649546Y118501D01*
X649577Y118560D01*
X649585Y118614D01*
X649597Y118651D01*
X649596Y118691D01*
X649604Y118745D01*
X649604Y122555D01*
X649593Y122620D01*
X649591Y122686D01*
X649573Y122729D01*
X649565Y122776D01*
X649531Y122833D01*
X649506Y122893D01*
X649475Y122928D01*
X649450Y122969D01*
X649399Y123011D01*
X649355Y123059D01*
X649313Y123081D01*
X649276Y123110D01*
X649214Y123131D01*
X649155Y123162D01*
X649101Y123170D01*
X649064Y123182D01*
X649024Y123181D01*
X648970Y123189D01*
X646430Y123189D01*
X646365Y123178D01*
X646299Y123176D01*
X646256Y123158D01*
X646209Y123150D01*
X646152Y123116D01*
X646092Y123091D01*
X646057Y123060D01*
X646016Y123035D01*
X645975Y122984D01*
X645926Y122940D01*
X645904Y122898D01*
X645875Y122861D01*
X645854Y122799D01*
X645823Y122740D01*
X645815Y122686D01*
X645803Y122649D01*
X645803Y122645D01*
X645803Y122644D01*
X645804Y122609D01*
X645796Y122555D01*
X645796Y118745D01*
X645807Y118680D01*
X645809Y118614D01*
X645827Y118571D01*
X645835Y118524D01*
X645869Y118467D01*
X645894Y118407D01*
X645925Y118372D01*
X645950Y118331D01*
X646001Y118290D01*
X646045Y118241D01*
X646087Y118219D01*
X646124Y118190D01*
X646186Y118169D01*
X646245Y118138D01*
X646299Y118130D01*
X646336Y118118D01*
X646376Y118119D01*
X646430Y118111D01*
X648970Y118111D01*
X649035Y118122D01*
G37*
G36*
X623635Y118122D02*
X623635Y118122D01*
X623701Y118124D01*
X623744Y118142D01*
X623791Y118150D01*
X623848Y118184D01*
X623908Y118209D01*
X623943Y118240D01*
X623984Y118265D01*
X624026Y118316D01*
X624074Y118360D01*
X624096Y118402D01*
X624125Y118439D01*
X624146Y118501D01*
X624177Y118560D01*
X624185Y118614D01*
X624197Y118651D01*
X624196Y118691D01*
X624204Y118745D01*
X624204Y122555D01*
X624193Y122620D01*
X624191Y122686D01*
X624173Y122729D01*
X624165Y122776D01*
X624131Y122833D01*
X624106Y122893D01*
X624075Y122928D01*
X624050Y122969D01*
X623999Y123011D01*
X623955Y123059D01*
X623913Y123081D01*
X623876Y123110D01*
X623814Y123131D01*
X623755Y123162D01*
X623701Y123170D01*
X623664Y123182D01*
X623624Y123181D01*
X623570Y123189D01*
X621030Y123189D01*
X620965Y123178D01*
X620899Y123176D01*
X620856Y123158D01*
X620809Y123150D01*
X620752Y123116D01*
X620692Y123091D01*
X620657Y123060D01*
X620616Y123035D01*
X620575Y122984D01*
X620526Y122940D01*
X620504Y122898D01*
X620475Y122861D01*
X620454Y122799D01*
X620423Y122740D01*
X620415Y122686D01*
X620403Y122649D01*
X620403Y122645D01*
X620403Y122644D01*
X620404Y122609D01*
X620396Y122555D01*
X620396Y118745D01*
X620407Y118680D01*
X620409Y118614D01*
X620427Y118571D01*
X620435Y118524D01*
X620469Y118467D01*
X620494Y118407D01*
X620525Y118372D01*
X620550Y118331D01*
X620601Y118290D01*
X620645Y118241D01*
X620687Y118219D01*
X620724Y118190D01*
X620786Y118169D01*
X620845Y118138D01*
X620899Y118130D01*
X620936Y118118D01*
X620976Y118119D01*
X621030Y118111D01*
X623570Y118111D01*
X623635Y118122D01*
G37*
D10*
X76200Y736600D03*
X812800Y736600D03*
D11*
X361950Y339090D03*
X596900Y339090D03*
D12*
X573650Y234950D03*
X556650Y234950D03*
X389500Y215900D03*
X372500Y215900D03*
D13*
X339750Y127000D03*
X358750Y127000D03*
D14*
X296300Y152400D03*
X313300Y152400D03*
D15*
X266700Y66700D03*
X266700Y85700D03*
X673100Y28600D03*
X673100Y47600D03*
D12*
X395850Y152400D03*
X378850Y152400D03*
D16*
X294300Y127000D03*
X315300Y127000D03*
D17*
X387900Y88900D03*
X424900Y88900D03*
D16*
X294300Y50800D03*
X315300Y50800D03*
D18*
X482600Y41910D03*
X476100Y41910D03*
X489100Y41910D03*
X469600Y41910D03*
X495600Y41910D03*
D19*
X451600Y40660D03*
X513600Y40660D03*
D20*
X470600Y15160D03*
X494600Y15160D03*
D21*
X444600Y15160D03*
X520600Y15160D03*
D22*
X418171Y130341D02*
X428459Y140629D01*
X436944Y132144D02*
X426656Y121856D01*
X435141Y113371D02*
X445429Y123659D01*
D23*
G36*
X438696Y109220D02*
X413984Y133932D01*
X424832Y144780D01*
X449544Y120068D01*
X438696Y109220D01*
G37*
D14*
X296300Y25400D03*
X313300Y25400D03*
D24*
X292100Y97400D03*
X292100Y80400D03*
D12*
X389500Y190500D03*
X372500Y190500D03*
X556650Y184150D03*
X573650Y184150D03*
D24*
X311150Y80400D03*
X311150Y97400D03*
D25*
X764540Y171450D03*
X708660Y171450D03*
X764540Y209550D03*
X708660Y209550D03*
X764540Y57150D03*
X708660Y57150D03*
X764540Y95250D03*
X708660Y95250D03*
X111760Y234950D03*
X167640Y234950D03*
X111760Y196850D03*
X167640Y196850D03*
X111760Y82550D03*
X167640Y82550D03*
X111760Y44450D03*
X167640Y44450D03*
X35560Y158750D03*
X91440Y158750D03*
X35560Y120650D03*
X91440Y120650D03*
X187960Y158750D03*
X243840Y158750D03*
X187960Y120650D03*
X243840Y120650D03*
D26*
X882904Y431800D02*
X895096Y431800D01*
X895096Y406400D02*
X882904Y406400D01*
X882904Y381000D02*
X895096Y381000D01*
X895096Y355600D02*
X882904Y355600D01*
X882904Y330200D02*
X895096Y330200D01*
X107696Y330200D02*
X95504Y330200D01*
X95504Y355600D02*
X107696Y355600D01*
X107696Y381000D02*
X95504Y381000D01*
X95504Y406400D02*
X107696Y406400D01*
X107696Y431800D02*
X95504Y431800D01*
D27*
G36*
X432563Y182460D02*
X423584Y173481D01*
X419633Y177432D01*
X428612Y186411D01*
X432563Y182460D01*
G37*
G36*
X438220Y176803D02*
X429241Y167824D01*
X425290Y171775D01*
X434269Y180754D01*
X438220Y176803D01*
G37*
G36*
X443876Y171146D02*
X434897Y162167D01*
X430946Y166118D01*
X439925Y175097D01*
X443876Y171146D01*
G37*
G36*
X449533Y165489D02*
X440554Y156510D01*
X436603Y160461D01*
X445582Y169440D01*
X449533Y165489D01*
G37*
G36*
X455190Y159832D02*
X446211Y150853D01*
X442260Y154804D01*
X451239Y163783D01*
X455190Y159832D01*
G37*
G36*
X460847Y154175D02*
X451868Y145196D01*
X447917Y149147D01*
X456896Y158126D01*
X460847Y154175D01*
G37*
G36*
X466504Y148519D02*
X457525Y139540D01*
X453574Y143491D01*
X462553Y152470D01*
X466504Y148519D01*
G37*
G36*
X472161Y142862D02*
X463182Y133883D01*
X459231Y137834D01*
X468210Y146813D01*
X472161Y142862D01*
G37*
D28*
G36*
X493269Y137834D02*
X489318Y133883D01*
X480339Y142862D01*
X484290Y146813D01*
X493269Y137834D01*
G37*
G36*
X498926Y143491D02*
X494975Y139540D01*
X485996Y148519D01*
X489947Y152470D01*
X498926Y143491D01*
G37*
G36*
X504583Y149147D02*
X500632Y145196D01*
X491653Y154175D01*
X495604Y158126D01*
X504583Y149147D01*
G37*
G36*
X510240Y154804D02*
X506289Y150853D01*
X497310Y159832D01*
X501261Y163783D01*
X510240Y154804D01*
G37*
G36*
X515897Y160461D02*
X511946Y156510D01*
X502967Y165489D01*
X506918Y169440D01*
X515897Y160461D01*
G37*
G36*
X521554Y166118D02*
X517603Y162167D01*
X508624Y171146D01*
X512575Y175097D01*
X521554Y166118D01*
G37*
G36*
X527210Y171775D02*
X523259Y167824D01*
X514280Y176803D01*
X518231Y180754D01*
X527210Y171775D01*
G37*
G36*
X532867Y177432D02*
X528916Y173481D01*
X519937Y182460D01*
X523888Y186411D01*
X532867Y177432D01*
G37*
D27*
G36*
X532867Y203568D02*
X523888Y194589D01*
X519937Y198540D01*
X528916Y207519D01*
X532867Y203568D01*
G37*
G36*
X527210Y209225D02*
X518231Y200246D01*
X514280Y204197D01*
X523259Y213176D01*
X527210Y209225D01*
G37*
G36*
X521554Y214882D02*
X512575Y205903D01*
X508624Y209854D01*
X517603Y218833D01*
X521554Y214882D01*
G37*
G36*
X515897Y220539D02*
X506918Y211560D01*
X502967Y215511D01*
X511946Y224490D01*
X515897Y220539D01*
G37*
G36*
X510240Y226196D02*
X501261Y217217D01*
X497310Y221168D01*
X506289Y230147D01*
X510240Y226196D01*
G37*
G36*
X504583Y231853D02*
X495604Y222874D01*
X491653Y226825D01*
X500632Y235804D01*
X504583Y231853D01*
G37*
G36*
X498926Y237509D02*
X489947Y228530D01*
X485996Y232481D01*
X494975Y241460D01*
X498926Y237509D01*
G37*
G36*
X493269Y243166D02*
X484290Y234187D01*
X480339Y238138D01*
X489318Y247117D01*
X493269Y243166D01*
G37*
D28*
G36*
X472161Y238138D02*
X468210Y234187D01*
X459231Y243166D01*
X463182Y247117D01*
X472161Y238138D01*
G37*
G36*
X466504Y232481D02*
X462553Y228530D01*
X453574Y237509D01*
X457525Y241460D01*
X466504Y232481D01*
G37*
G36*
X460847Y226825D02*
X456896Y222874D01*
X447917Y231853D01*
X451868Y235804D01*
X460847Y226825D01*
G37*
G36*
X455190Y221168D02*
X451239Y217217D01*
X442260Y226196D01*
X446211Y230147D01*
X455190Y221168D01*
G37*
G36*
X449533Y215511D02*
X445582Y211560D01*
X436603Y220539D01*
X440554Y224490D01*
X449533Y215511D01*
G37*
G36*
X443876Y209854D02*
X439925Y205903D01*
X430946Y214882D01*
X434897Y218833D01*
X443876Y209854D01*
G37*
G36*
X438220Y204197D02*
X434269Y200246D01*
X425290Y209225D01*
X429241Y213176D01*
X438220Y204197D01*
G37*
G36*
X432563Y198540D02*
X428612Y194589D01*
X419633Y203568D01*
X423584Y207519D01*
X432563Y198540D01*
G37*
D29*
X321050Y564300D03*
X321050Y553300D03*
X339350Y553300D03*
X339350Y564300D03*
X422650Y564300D03*
X422650Y553300D03*
X440950Y553300D03*
X440950Y564300D03*
X524250Y564300D03*
X524250Y553300D03*
X542550Y553300D03*
X542550Y564300D03*
X625850Y564300D03*
X625850Y553300D03*
X644150Y553300D03*
X644150Y564300D03*
X727450Y564300D03*
X727450Y553300D03*
X745750Y553300D03*
X745750Y564300D03*
X872750Y292950D03*
X872750Y303950D03*
X854450Y303950D03*
X854450Y292950D03*
X771150Y292950D03*
X771150Y303950D03*
X752850Y303950D03*
X752850Y292950D03*
X669550Y292950D03*
X669550Y303950D03*
X651250Y303950D03*
X651250Y292950D03*
X567950Y292950D03*
X567950Y303950D03*
X549650Y303950D03*
X549650Y292950D03*
X466350Y292950D03*
X466350Y303950D03*
X448050Y303950D03*
X448050Y292950D03*
D30*
X336249Y98400D03*
X336249Y88900D03*
X336249Y79400D03*
X362251Y79400D03*
X362251Y98400D03*
D29*
X364750Y292950D03*
X364750Y303950D03*
X346450Y303950D03*
X346450Y292950D03*
X16250Y564300D03*
X16250Y553300D03*
X34550Y553300D03*
X34550Y564300D03*
X117850Y564300D03*
X117850Y553300D03*
X136150Y553300D03*
X136150Y564300D03*
D31*
X397150Y50057D03*
X382150Y50057D03*
X352150Y50057D03*
D32*
X338150Y9400D03*
X338150Y28700D03*
X411150Y9400D03*
X411150Y28700D03*
D33*
X359664Y19050D03*
X389636Y19050D03*
D34*
X596900Y101600D03*
X469900Y101600D03*
D35*
X596900Y338836D03*
X361950Y338836D03*
D36*
X651725Y77725D02*
X651725Y66175D01*
X651725Y77725D02*
X656375Y77725D01*
X656375Y66175D01*
X651725Y66175D01*
X651725Y67647D02*
X656375Y67647D01*
X656375Y69119D02*
X651725Y69119D01*
X651725Y70591D02*
X656375Y70591D01*
X656375Y72063D02*
X651725Y72063D01*
X651725Y73535D02*
X656375Y73535D01*
X656375Y75007D02*
X651725Y75007D01*
X651725Y76479D02*
X656375Y76479D01*
X639025Y77725D02*
X639025Y66175D01*
X639025Y77725D02*
X643675Y77725D01*
X643675Y66175D01*
X639025Y66175D01*
X639025Y67647D02*
X643675Y67647D01*
X643675Y69119D02*
X639025Y69119D01*
X639025Y70591D02*
X643675Y70591D01*
X643675Y72063D02*
X639025Y72063D01*
X639025Y73535D02*
X643675Y73535D01*
X643675Y75007D02*
X639025Y75007D01*
X639025Y76479D02*
X643675Y76479D01*
X626325Y77725D02*
X626325Y66175D01*
X626325Y77725D02*
X630975Y77725D01*
X630975Y66175D01*
X626325Y66175D01*
X626325Y67647D02*
X630975Y67647D01*
X630975Y69119D02*
X626325Y69119D01*
X626325Y70591D02*
X630975Y70591D01*
X630975Y72063D02*
X626325Y72063D01*
X626325Y73535D02*
X630975Y73535D01*
X630975Y75007D02*
X626325Y75007D01*
X626325Y76479D02*
X630975Y76479D01*
X613625Y77725D02*
X613625Y66175D01*
X613625Y77725D02*
X618275Y77725D01*
X618275Y66175D01*
X613625Y66175D01*
X613625Y67647D02*
X618275Y67647D01*
X618275Y69119D02*
X613625Y69119D01*
X613625Y70591D02*
X618275Y70591D01*
X618275Y72063D02*
X613625Y72063D01*
X613625Y73535D02*
X618275Y73535D01*
X618275Y75007D02*
X613625Y75007D01*
X613625Y76479D02*
X618275Y76479D01*
X600925Y77725D02*
X600925Y66175D01*
X600925Y77725D02*
X605575Y77725D01*
X605575Y66175D01*
X600925Y66175D01*
X600925Y67647D02*
X605575Y67647D01*
X605575Y69119D02*
X600925Y69119D01*
X600925Y70591D02*
X605575Y70591D01*
X605575Y72063D02*
X600925Y72063D01*
X600925Y73535D02*
X605575Y73535D01*
X605575Y75007D02*
X600925Y75007D01*
X600925Y76479D02*
X605575Y76479D01*
X588225Y77725D02*
X588225Y66175D01*
X588225Y77725D02*
X592875Y77725D01*
X592875Y66175D01*
X588225Y66175D01*
X588225Y67647D02*
X592875Y67647D01*
X592875Y69119D02*
X588225Y69119D01*
X588225Y70591D02*
X592875Y70591D01*
X592875Y72063D02*
X588225Y72063D01*
X588225Y73535D02*
X592875Y73535D01*
X592875Y75007D02*
X588225Y75007D01*
X588225Y76479D02*
X592875Y76479D01*
X575525Y77725D02*
X575525Y66175D01*
X575525Y77725D02*
X580175Y77725D01*
X580175Y66175D01*
X575525Y66175D01*
X575525Y67647D02*
X580175Y67647D01*
X580175Y69119D02*
X575525Y69119D01*
X575525Y70591D02*
X580175Y70591D01*
X580175Y72063D02*
X575525Y72063D01*
X575525Y73535D02*
X580175Y73535D01*
X580175Y75007D02*
X575525Y75007D01*
X575525Y76479D02*
X580175Y76479D01*
X562825Y77725D02*
X562825Y66175D01*
X562825Y77725D02*
X567475Y77725D01*
X567475Y66175D01*
X562825Y66175D01*
X562825Y67647D02*
X567475Y67647D01*
X567475Y69119D02*
X562825Y69119D01*
X562825Y70591D02*
X567475Y70591D01*
X567475Y72063D02*
X562825Y72063D01*
X562825Y73535D02*
X567475Y73535D01*
X567475Y75007D02*
X562825Y75007D01*
X562825Y76479D02*
X567475Y76479D01*
X562825Y22725D02*
X562825Y11175D01*
X562825Y22725D02*
X567475Y22725D01*
X567475Y11175D01*
X562825Y11175D01*
X562825Y12647D02*
X567475Y12647D01*
X567475Y14119D02*
X562825Y14119D01*
X562825Y15591D02*
X567475Y15591D01*
X567475Y17063D02*
X562825Y17063D01*
X562825Y18535D02*
X567475Y18535D01*
X567475Y20007D02*
X562825Y20007D01*
X562825Y21479D02*
X567475Y21479D01*
X575525Y22725D02*
X575525Y11175D01*
X575525Y22725D02*
X580175Y22725D01*
X580175Y11175D01*
X575525Y11175D01*
X575525Y12647D02*
X580175Y12647D01*
X580175Y14119D02*
X575525Y14119D01*
X575525Y15591D02*
X580175Y15591D01*
X580175Y17063D02*
X575525Y17063D01*
X575525Y18535D02*
X580175Y18535D01*
X580175Y20007D02*
X575525Y20007D01*
X575525Y21479D02*
X580175Y21479D01*
X588225Y22725D02*
X588225Y11175D01*
X588225Y22725D02*
X592875Y22725D01*
X592875Y11175D01*
X588225Y11175D01*
X588225Y12647D02*
X592875Y12647D01*
X592875Y14119D02*
X588225Y14119D01*
X588225Y15591D02*
X592875Y15591D01*
X592875Y17063D02*
X588225Y17063D01*
X588225Y18535D02*
X592875Y18535D01*
X592875Y20007D02*
X588225Y20007D01*
X588225Y21479D02*
X592875Y21479D01*
X600925Y22725D02*
X600925Y11175D01*
X600925Y22725D02*
X605575Y22725D01*
X605575Y11175D01*
X600925Y11175D01*
X600925Y12647D02*
X605575Y12647D01*
X605575Y14119D02*
X600925Y14119D01*
X600925Y15591D02*
X605575Y15591D01*
X605575Y17063D02*
X600925Y17063D01*
X600925Y18535D02*
X605575Y18535D01*
X605575Y20007D02*
X600925Y20007D01*
X600925Y21479D02*
X605575Y21479D01*
X613625Y22725D02*
X613625Y11175D01*
X613625Y22725D02*
X618275Y22725D01*
X618275Y11175D01*
X613625Y11175D01*
X613625Y12647D02*
X618275Y12647D01*
X618275Y14119D02*
X613625Y14119D01*
X613625Y15591D02*
X618275Y15591D01*
X618275Y17063D02*
X613625Y17063D01*
X613625Y18535D02*
X618275Y18535D01*
X618275Y20007D02*
X613625Y20007D01*
X613625Y21479D02*
X618275Y21479D01*
X626325Y22725D02*
X626325Y11175D01*
X626325Y22725D02*
X630975Y22725D01*
X630975Y11175D01*
X626325Y11175D01*
X626325Y12647D02*
X630975Y12647D01*
X630975Y14119D02*
X626325Y14119D01*
X626325Y15591D02*
X630975Y15591D01*
X630975Y17063D02*
X626325Y17063D01*
X626325Y18535D02*
X630975Y18535D01*
X630975Y20007D02*
X626325Y20007D01*
X626325Y21479D02*
X630975Y21479D01*
X639025Y22725D02*
X639025Y11175D01*
X639025Y22725D02*
X643675Y22725D01*
X643675Y11175D01*
X639025Y11175D01*
X639025Y12647D02*
X643675Y12647D01*
X643675Y14119D02*
X639025Y14119D01*
X639025Y15591D02*
X643675Y15591D01*
X643675Y17063D02*
X639025Y17063D01*
X639025Y18535D02*
X643675Y18535D01*
X643675Y20007D02*
X639025Y20007D01*
X639025Y21479D02*
X643675Y21479D01*
X651725Y22725D02*
X651725Y11175D01*
X651725Y22725D02*
X656375Y22725D01*
X656375Y11175D01*
X651725Y11175D01*
X651725Y12647D02*
X656375Y12647D01*
X656375Y14119D02*
X651725Y14119D01*
X651725Y15591D02*
X656375Y15591D01*
X656375Y17063D02*
X651725Y17063D01*
X651725Y18535D02*
X656375Y18535D01*
X656375Y20007D02*
X651725Y20007D01*
X651725Y21479D02*
X656375Y21479D01*
D37*
X526225Y87575D02*
X526225Y96225D01*
X528175Y96225D01*
X528175Y87575D01*
X526225Y87575D01*
X526225Y89427D02*
X528175Y89427D01*
X528175Y91279D02*
X526225Y91279D01*
X526225Y93131D02*
X528175Y93131D01*
X528175Y94983D02*
X526225Y94983D01*
X519725Y96225D02*
X519725Y87575D01*
X519725Y96225D02*
X521675Y96225D01*
X521675Y87575D01*
X519725Y87575D01*
X519725Y89427D02*
X521675Y89427D01*
X521675Y91279D02*
X519725Y91279D01*
X519725Y93131D02*
X521675Y93131D01*
X521675Y94983D02*
X519725Y94983D01*
X513225Y96225D02*
X513225Y87575D01*
X513225Y96225D02*
X515175Y96225D01*
X515175Y87575D01*
X513225Y87575D01*
X513225Y89427D02*
X515175Y89427D01*
X515175Y91279D02*
X513225Y91279D01*
X513225Y93131D02*
X515175Y93131D01*
X515175Y94983D02*
X513225Y94983D01*
X513225Y77525D02*
X513225Y68875D01*
X513225Y77525D02*
X515175Y77525D01*
X515175Y68875D01*
X513225Y68875D01*
X513225Y70727D02*
X515175Y70727D01*
X515175Y72579D02*
X513225Y72579D01*
X513225Y74431D02*
X515175Y74431D01*
X515175Y76283D02*
X513225Y76283D01*
X519725Y77525D02*
X519725Y68875D01*
X519725Y77525D02*
X521675Y77525D01*
X521675Y68875D01*
X519725Y68875D01*
X519725Y70727D02*
X521675Y70727D01*
X521675Y72579D02*
X519725Y72579D01*
X519725Y74431D02*
X521675Y74431D01*
X521675Y76283D02*
X519725Y76283D01*
X526225Y77525D02*
X526225Y68875D01*
X526225Y77525D02*
X528175Y77525D01*
X528175Y68875D01*
X526225Y68875D01*
X526225Y70727D02*
X528175Y70727D01*
X528175Y72579D02*
X526225Y72579D01*
X526225Y74431D02*
X528175Y74431D01*
X528175Y76283D02*
X526225Y76283D01*
D29*
X219450Y564300D03*
X219450Y553300D03*
X237750Y553300D03*
X237750Y564300D03*
D38*
X172720Y482600D02*
X157480Y482600D01*
X157480Y457200D02*
X172720Y457200D01*
X172720Y431800D02*
X157480Y431800D01*
X157480Y406400D02*
X172720Y406400D01*
D29*
X263150Y292950D03*
X263150Y303950D03*
X244850Y303950D03*
X244850Y292950D03*
X161550Y292950D03*
X161550Y303950D03*
X143250Y303950D03*
X143250Y292950D03*
D16*
X575650Y209550D03*
X554650Y209550D03*
D12*
X33900Y584200D03*
X16900Y584200D03*
X135500Y584200D03*
X118500Y584200D03*
X237100Y584200D03*
X220100Y584200D03*
X338700Y584200D03*
X321700Y584200D03*
X440300Y584200D03*
X423300Y584200D03*
X541900Y584200D03*
X524900Y584200D03*
X643500Y584200D03*
X626500Y584200D03*
X745100Y584200D03*
X728100Y584200D03*
X855100Y273050D03*
X872100Y273050D03*
X753500Y273050D03*
X770500Y273050D03*
X651900Y273050D03*
X668900Y273050D03*
X550300Y273050D03*
X567300Y273050D03*
X448700Y273050D03*
X465700Y273050D03*
X347100Y273050D03*
X364100Y273050D03*
X245500Y273050D03*
X262500Y273050D03*
X143900Y273050D03*
X160900Y273050D03*
D17*
X419650Y69850D03*
X456650Y69850D03*
D39*
X622300Y125857D03*
X622300Y115443D03*
X647700Y125857D03*
X647700Y115443D03*
X673100Y125857D03*
X673100Y115443D03*
D40*
X431800Y698500D03*
X330200Y698500D03*
X558800Y698500D03*
X457200Y698500D03*
D41*
X368300Y749300D03*
X393700Y749300D03*
X495300Y749300D03*
X520700Y749300D03*
D42*
X627100Y749300D03*
X592100Y749300D03*
X296900Y749300D03*
X261900Y749300D03*
D43*
X264410Y698500D03*
X294390Y698500D03*
X594610Y698500D03*
X624590Y698500D03*
D16*
X213700Y749300D03*
X192700Y749300D03*
D14*
X211700Y698500D03*
X194700Y698500D03*
D16*
X696300Y749300D03*
X675300Y749300D03*
D14*
X694300Y698500D03*
X677300Y698500D03*
D34*
X812800Y565150D03*
D44*
X838200Y565150D03*
X863600Y565150D03*
X812800Y590550D03*
X838200Y590550D03*
X863600Y590550D03*
D34*
X71391Y35470D03*
D45*
X53430Y53430D03*
X35470Y71391D03*
X53430Y17509D03*
X35470Y35470D03*
X17509Y53430D03*
M02*
