M48
METRIC,LZ,000.000
;FILE_FORMAT=3:3
;TYPE=NON_PLATED
;Layer: NPTH_Through
;EasyEDA v6.5.42, 2024-02-25 13:01:32
;b3e2e6fb8f204fb0a1d4e493a2091a1c,d07ef30ec77949ce8e11233ba57d236c,10
;Gerber Generator version 0.2
;Holesize 1 = 0.551 mm
T01C0.551
;Holesize 2 = 2.000 mm
T02C2.000
%
G05
G90
T01
X044453Y046761
X045240Y045911
X046151Y045061
X046164Y044211
X046165Y043361
X046166Y042511
X046167Y041661
X046168Y040811
X031685Y046761
X030899Y045911
X029988Y045061
X029937Y044211
X029937Y043361
X029937Y042511
X029937Y041661
X029937Y040811
X082238Y046761
X083025Y045911
X083936Y045061
X083949Y044211
X083950Y043361
X083951Y042511
X083952Y041661
X083953Y040811
X069470Y046761
X068683Y045911
X067772Y045061
X067721Y044211
X067721Y043361
X067721Y042511
X067721Y041661
X067721Y040811
X016202Y073675
X017052Y073809
X017902Y073897
X018752Y073941
X019602Y073941
X020452Y073897
X021302Y073809
X022152Y073675
X016202Y013624
X017052Y013624
X017902Y013624
X018752Y013624
X019602Y013624
X020452Y013624
X021302Y013624
X022152Y013624
X053987Y073675
X054837Y073809
X055687Y073897
X056537Y073941
X057387Y073941
X058237Y073897
X059087Y073809
X059937Y073675
X053987Y013624
X054837Y013624
X055687Y013624
X056537Y013624
X057387Y013624
X058237Y013624
X059087Y013624
X059937Y013624
X091771Y073675
X092621Y073809
X093471Y073897
X094321Y073941
X095171Y073941
X096021Y073897
X096871Y073809
X097721Y073675
X091771Y013624
X092621Y013624
X093471Y013624
X094321Y013624
X095171Y013624
X096021Y013624
X096871Y013624
X097721Y013624
T02
X007785Y080855
X106139Y080855
X012785Y006716
X101139Y006716
M30
