G04 Layer: TopPasteMaskLayer*
G04 Panelize: Stamp Hole, Column: 3, Row: 1, Board Size: 32.78mm x 60.14mm, Panelized Board Size: 108.35mm x 60.14mm*
G04 EasyEDA v6.5.42, 2024-02-25 13:01:32*
G04 b3e2e6fb8f204fb0a1d4e493a2091a1c,d07ef30ec77949ce8e11233ba57d236c,10*
G04 Gerber Generator version 0.2*
G04 Scale: 100 percent, Rotated: No, Reflected: No *
G04 Dimensions in millimeters *
G04 leading zeros omitted , absolute positions ,4 integer and 5 decimal *
%FSLAX45Y45*%
%MOMM*%

%AMMACRO1*21,1,$1,$2,0,0,$3*%
%ADD10R,0.9500X1.1500*%
%ADD11O,0.58801X2.0450048*%
%ADD12MACRO1,1X1.3995X0.0000*%
%ADD13R,1.0000X1.3995*%
%ADD14O,2.2500082X0.6299962*%
%ADD15R,3.2000X0.8000*%

%LPD*%
G36*
X2751785Y5076139D02*
G01*
X2741777Y5066131D01*
X2741777Y5030012D01*
X2751785Y5020005D01*
X2772867Y5020005D01*
X2782874Y5009997D01*
X2782874Y4972202D01*
X2772867Y4962194D01*
X2751785Y4962194D01*
X2741777Y4952187D01*
X2741777Y4916068D01*
X2751785Y4906060D01*
X2852572Y4906060D01*
X2862529Y4916068D01*
X2862529Y5066131D01*
X2852572Y5076139D01*
G37*
G36*
X2456027Y5076139D02*
G01*
X2446070Y5066131D01*
X2446070Y4916068D01*
X2456027Y4906060D01*
X2556814Y4906060D01*
X2566822Y4916068D01*
X2566822Y4952187D01*
X2556814Y4962194D01*
X2535732Y4962194D01*
X2525725Y4972202D01*
X2525725Y5009997D01*
X2535732Y5020005D01*
X2556814Y5020005D01*
X2566822Y5030012D01*
X2566822Y5066131D01*
X2556814Y5076139D01*
G37*
G36*
X1401927Y2231339D02*
G01*
X1391970Y2221331D01*
X1391970Y2071268D01*
X1401927Y2061260D01*
X1502714Y2061260D01*
X1512722Y2071268D01*
X1512722Y2107387D01*
X1502714Y2117394D01*
X1481632Y2117394D01*
X1471625Y2127402D01*
X1471625Y2165197D01*
X1481632Y2175205D01*
X1502714Y2175205D01*
X1512722Y2185212D01*
X1512722Y2221331D01*
X1502714Y2231339D01*
G37*
G36*
X1697685Y2231339D02*
G01*
X1687677Y2221331D01*
X1687677Y2185212D01*
X1697685Y2175205D01*
X1718767Y2175205D01*
X1728774Y2165197D01*
X1728774Y2127402D01*
X1718767Y2117394D01*
X1697685Y2117394D01*
X1687677Y2107387D01*
X1687677Y2071268D01*
X1697685Y2061260D01*
X1798472Y2061260D01*
X1808429Y2071268D01*
X1808429Y2221331D01*
X1798472Y2231339D01*
G37*
G36*
X1697685Y1799539D02*
G01*
X1687677Y1789531D01*
X1687677Y1753412D01*
X1697685Y1743405D01*
X1718767Y1743405D01*
X1728774Y1733397D01*
X1728774Y1695602D01*
X1718767Y1685594D01*
X1697685Y1685594D01*
X1687677Y1675587D01*
X1687677Y1639468D01*
X1697685Y1629460D01*
X1798472Y1629460D01*
X1808429Y1639468D01*
X1808429Y1789531D01*
X1798472Y1799539D01*
G37*
G36*
X1401927Y1799539D02*
G01*
X1391970Y1789531D01*
X1391970Y1639468D01*
X1401927Y1629460D01*
X1502714Y1629460D01*
X1512722Y1639468D01*
X1512722Y1675587D01*
X1502714Y1685594D01*
X1481632Y1685594D01*
X1471625Y1695602D01*
X1471625Y1733397D01*
X1481632Y1743405D01*
X1502714Y1743405D01*
X1512722Y1753412D01*
X1512722Y1789531D01*
X1502714Y1799539D01*
G37*
G36*
X3074568Y5475122D02*
G01*
X3064560Y5465114D01*
X3064560Y5364327D01*
X3074568Y5354370D01*
X3224631Y5354370D01*
X3234639Y5364327D01*
X3234639Y5465114D01*
X3224631Y5475122D01*
X3188512Y5475122D01*
X3178505Y5465114D01*
X3178505Y5444032D01*
X3168497Y5434025D01*
X3130702Y5434025D01*
X3120694Y5444032D01*
X3120694Y5465114D01*
X3110687Y5475122D01*
G37*
G36*
X3074568Y5770829D02*
G01*
X3064560Y5760872D01*
X3064560Y5660085D01*
X3074568Y5650077D01*
X3110687Y5650077D01*
X3120694Y5660085D01*
X3120694Y5681167D01*
X3130702Y5691174D01*
X3168497Y5691174D01*
X3178505Y5681167D01*
X3178505Y5660085D01*
X3188512Y5650077D01*
X3224631Y5650077D01*
X3234639Y5660085D01*
X3234639Y5760872D01*
X3224631Y5770829D01*
G37*
G36*
X1545285Y3793439D02*
G01*
X1535277Y3783431D01*
X1535277Y3747312D01*
X1545285Y3737305D01*
X1566367Y3737305D01*
X1576374Y3727297D01*
X1576374Y3689502D01*
X1566367Y3679494D01*
X1545285Y3679494D01*
X1535277Y3669487D01*
X1535277Y3633368D01*
X1545285Y3623360D01*
X1646072Y3623360D01*
X1656029Y3633368D01*
X1656029Y3783431D01*
X1646072Y3793439D01*
G37*
G36*
X1249527Y3793439D02*
G01*
X1239570Y3783431D01*
X1239570Y3633368D01*
X1249527Y3623360D01*
X1350314Y3623360D01*
X1360322Y3633368D01*
X1360322Y3669487D01*
X1350314Y3679494D01*
X1329232Y3679494D01*
X1319225Y3689502D01*
X1319225Y3727297D01*
X1329232Y3737305D01*
X1350314Y3737305D01*
X1360322Y3747312D01*
X1360322Y3783431D01*
X1350314Y3793439D01*
G37*
G36*
X598068Y5796229D02*
G01*
X588060Y5786272D01*
X588060Y5685485D01*
X598068Y5675477D01*
X634187Y5675477D01*
X644194Y5685485D01*
X644194Y5706567D01*
X654202Y5716574D01*
X691997Y5716574D01*
X702005Y5706567D01*
X702005Y5685485D01*
X712012Y5675477D01*
X748131Y5675477D01*
X758139Y5685485D01*
X758139Y5786272D01*
X748131Y5796229D01*
G37*
G36*
X598068Y5500522D02*
G01*
X588060Y5490514D01*
X588060Y5389727D01*
X598068Y5379770D01*
X748131Y5379770D01*
X758139Y5389727D01*
X758139Y5490514D01*
X748131Y5500522D01*
X712012Y5500522D01*
X702005Y5490514D01*
X702005Y5469432D01*
X691997Y5459425D01*
X654202Y5459425D01*
X644194Y5469432D01*
X644194Y5490514D01*
X634187Y5500522D01*
G37*
D10*
G01*
X1151559Y5003800D03*
G01*
X1490040Y5003800D03*
D11*
G01*
X2273300Y1589659D03*
G01*
X2400300Y1589659D03*
G01*
X2527300Y1589659D03*
G01*
X2654300Y1589659D03*
G01*
X2273300Y2144140D03*
G01*
X2400300Y2144140D03*
G01*
X2527300Y2144140D03*
G01*
X2654300Y2144140D03*
D12*
G01*
X2939783Y6261100D03*
D13*
G01*
X3149828Y6261100D03*
D12*
G01*
X1342783Y4330700D03*
D13*
G01*
X1552829Y4330700D03*
D12*
G01*
X879741Y6261100D03*
D13*
G01*
X669670Y6261100D03*
D14*
G01*
X1196390Y2997200D03*
G01*
X1196390Y2870200D03*
G01*
X1196390Y2743200D03*
G01*
X1196390Y2616200D03*
G01*
X1902409Y2997200D03*
G01*
X1902409Y2870200D03*
G01*
X1902409Y2743200D03*
G01*
X1902409Y2616200D03*
D15*
G01*
X2195804Y5461000D03*
G01*
X1715820Y5461000D03*
G01*
X2195804Y5715000D03*
G01*
X1715820Y5715000D03*
G01*
X2195804Y5969000D03*
G01*
X1715820Y5969000D03*
G01*
X2195804Y6223000D03*
G01*
X1715820Y6223000D03*
M02*
