G04 Layer: TopSilkscreenLayer*
G04 EasyEDA v6.5.40, 2024-02-07 10:12:07*
G04 964da254980c4c80920fb8b7fcdf49c0,d07ef30ec77949ce8e11233ba57d236c,10*
G04 Gerber Generator version 0.2*
G04 Scale: 100 percent, Rotated: No, Reflected: No *
G04 Dimensions in millimeters *
G04 leading zeros omitted , absolute positions ,4 integer and 5 decimal *
%FSLAX45Y45*%
%MOMM*%

%ADD10C,0.3000*%
%ADD11C,0.2032*%
%ADD12C,0.1500*%
%ADD13C,0.1524*%
%ADD14C,0.2540*%
%ADD15C,0.0168*%

%LPD*%
D10*
X1230629Y5861050D02*
G01*
X1221486Y5879592D01*
X1202944Y5898134D01*
X1184655Y5907278D01*
X1147571Y5907278D01*
X1129029Y5898134D01*
X1110742Y5879592D01*
X1101344Y5861050D01*
X1092200Y5833363D01*
X1092200Y5787389D01*
X1101344Y5759450D01*
X1110742Y5741162D01*
X1129029Y5722620D01*
X1147571Y5713476D01*
X1184655Y5713476D01*
X1202944Y5722620D01*
X1221486Y5741162D01*
X1230629Y5759450D01*
X1356360Y5907278D02*
G01*
X1356360Y5713476D01*
X1291589Y5907278D02*
G01*
X1421129Y5907278D01*
X1482089Y5907278D02*
G01*
X1482089Y5713476D01*
X1482089Y5907278D02*
G01*
X1601978Y5907278D01*
X1482089Y5815076D02*
G01*
X1555750Y5815076D01*
X1879092Y5907278D02*
G01*
X1805178Y5713476D01*
X1879092Y5907278D02*
G01*
X1953006Y5713476D01*
X1832863Y5777992D02*
G01*
X1925320Y5777992D01*
X2013965Y5907278D02*
G01*
X2013965Y5713476D01*
X2013965Y5907278D02*
G01*
X2078736Y5907278D01*
X2106422Y5898134D01*
X2124709Y5879592D01*
X2134108Y5861050D01*
X2143252Y5833363D01*
X2143252Y5787389D01*
X2134108Y5759450D01*
X2124709Y5741162D01*
X2106422Y5722620D01*
X2078736Y5713476D01*
X2013965Y5713476D01*
X2204211Y5907278D02*
G01*
X2204211Y5713476D01*
X2204211Y5907278D02*
G01*
X2268981Y5907278D01*
X2296668Y5898134D01*
X2315209Y5879592D01*
X2324354Y5861050D01*
X2333497Y5833363D01*
X2333497Y5787389D01*
X2324354Y5759450D01*
X2315209Y5741162D01*
X2296668Y5722620D01*
X2268981Y5713476D01*
X2204211Y5713476D01*
X2449829Y5907278D02*
G01*
X2431541Y5898134D01*
X2413000Y5879592D01*
X2403856Y5861050D01*
X2394458Y5833363D01*
X2394458Y5787389D01*
X2403856Y5759450D01*
X2413000Y5741162D01*
X2431541Y5722620D01*
X2449829Y5713476D01*
X2486913Y5713476D01*
X2505456Y5722620D01*
X2523743Y5741162D01*
X2533141Y5759450D01*
X2542286Y5787389D01*
X2542286Y5833363D01*
X2533141Y5861050D01*
X2523743Y5879592D01*
X2505456Y5898134D01*
X2486913Y5907278D01*
X2449829Y5907278D01*
X2603245Y5907278D02*
G01*
X2603245Y5713476D01*
X2603245Y5907278D02*
G01*
X2732531Y5713476D01*
X2732531Y5907278D02*
G01*
X2732531Y5713476D01*
D11*
X1003300Y559562D02*
G01*
X1058671Y430276D01*
X1114044Y559562D02*
G01*
X1058671Y430276D01*
X1175004Y587247D02*
G01*
X1193545Y596392D01*
X1221231Y624078D01*
X1221231Y430276D01*
D12*
X1376171Y5145531D02*
G01*
X1371854Y5154676D01*
X1362710Y5163565D01*
X1353565Y5168137D01*
X1335278Y5168137D01*
X1326387Y5163565D01*
X1317244Y5154676D01*
X1312671Y5145531D01*
X1308100Y5131815D01*
X1308100Y5109210D01*
X1312671Y5095494D01*
X1317244Y5086350D01*
X1326387Y5077205D01*
X1335278Y5072634D01*
X1353565Y5072634D01*
X1362710Y5077205D01*
X1371854Y5086350D01*
X1376171Y5095494D01*
X1469897Y5154676D02*
G01*
X1460754Y5163565D01*
X1447292Y5168137D01*
X1429004Y5168137D01*
X1415287Y5163565D01*
X1406397Y5154676D01*
X1406397Y5145531D01*
X1410715Y5136387D01*
X1415287Y5131815D01*
X1424431Y5127244D01*
X1451610Y5118100D01*
X1460754Y5113781D01*
X1465326Y5109210D01*
X1469897Y5100065D01*
X1469897Y5086350D01*
X1460754Y5077205D01*
X1447292Y5072634D01*
X1429004Y5072634D01*
X1415287Y5077205D01*
X1406397Y5086350D01*
X1308100Y4901437D02*
G01*
X1308100Y4805934D01*
X1308100Y4901437D02*
G01*
X1339850Y4901437D01*
X1353565Y4896865D01*
X1362710Y4887976D01*
X1367281Y4878831D01*
X1371854Y4865115D01*
X1371854Y4842510D01*
X1367281Y4828794D01*
X1362710Y4819650D01*
X1353565Y4810505D01*
X1339850Y4805934D01*
X1308100Y4805934D01*
X1429004Y4901437D02*
G01*
X1419860Y4896865D01*
X1410715Y4887976D01*
X1406397Y4878831D01*
X1401826Y4865115D01*
X1401826Y4842510D01*
X1406397Y4828794D01*
X1410715Y4819650D01*
X1419860Y4810505D01*
X1429004Y4805934D01*
X1447292Y4805934D01*
X1456181Y4810505D01*
X1465326Y4819650D01*
X1469897Y4828794D01*
X1474470Y4842510D01*
X1474470Y4865115D01*
X1469897Y4878831D01*
X1465326Y4887976D01*
X1456181Y4896865D01*
X1447292Y4901437D01*
X1429004Y4901437D01*
X1308100Y4660137D02*
G01*
X1330705Y4564634D01*
X1353565Y4660137D02*
G01*
X1330705Y4564634D01*
X1353565Y4660137D02*
G01*
X1376171Y4564634D01*
X1399031Y4660137D02*
G01*
X1376171Y4564634D01*
X1429004Y4660137D02*
G01*
X1429004Y4564634D01*
X1429004Y4660137D02*
G01*
X1469897Y4660137D01*
X1483613Y4655565D01*
X1488186Y4650994D01*
X1492757Y4642104D01*
X1492757Y4628387D01*
X1488186Y4619244D01*
X1483613Y4614671D01*
X1469897Y4610100D01*
X1429004Y4610100D01*
X2413000Y4914137D02*
G01*
X2413000Y4818634D01*
X2476754Y4914137D02*
G01*
X2476754Y4818634D01*
X2413000Y4868671D02*
G01*
X2476754Y4868671D01*
X2533904Y4914137D02*
G01*
X2524759Y4909565D01*
X2515615Y4900676D01*
X2511297Y4891531D01*
X2506725Y4877815D01*
X2506725Y4855210D01*
X2511297Y4841494D01*
X2515615Y4832350D01*
X2524759Y4823205D01*
X2533904Y4818634D01*
X2552191Y4818634D01*
X2561081Y4823205D01*
X2570225Y4832350D01*
X2574797Y4841494D01*
X2579370Y4855210D01*
X2579370Y4877815D01*
X2574797Y4891531D01*
X2570225Y4900676D01*
X2561081Y4909565D01*
X2552191Y4914137D01*
X2533904Y4914137D01*
X2609341Y4914137D02*
G01*
X2609341Y4818634D01*
X2609341Y4818634D02*
G01*
X2663952Y4818634D01*
X2693924Y4914137D02*
G01*
X2693924Y4818634D01*
X2693924Y4914137D02*
G01*
X2725674Y4914137D01*
X2739390Y4909565D01*
X2748534Y4900676D01*
X2753106Y4891531D01*
X2757424Y4877815D01*
X2757424Y4855210D01*
X2753106Y4841494D01*
X2748534Y4832350D01*
X2739390Y4823205D01*
X2725674Y4818634D01*
X2693924Y4818634D01*
X2481072Y4637531D02*
G01*
X2476754Y4646676D01*
X2467609Y4655565D01*
X2458465Y4660137D01*
X2440177Y4660137D01*
X2431288Y4655565D01*
X2422143Y4646676D01*
X2417572Y4637531D01*
X2413000Y4623815D01*
X2413000Y4601210D01*
X2417572Y4587494D01*
X2422143Y4578350D01*
X2431288Y4569205D01*
X2440177Y4564634D01*
X2458465Y4564634D01*
X2467609Y4569205D01*
X2476754Y4578350D01*
X2481072Y4587494D01*
X2511297Y4660137D02*
G01*
X2511297Y4564634D01*
X2511297Y4564634D02*
G01*
X2565654Y4564634D01*
X2595625Y4660137D02*
G01*
X2595625Y4564634D01*
X2659379Y4660137D02*
G01*
X2595625Y4596637D01*
X2618486Y4619244D02*
G01*
X2659379Y4564634D01*
X2425700Y4418837D02*
G01*
X2425700Y4323334D01*
X2425700Y4418837D02*
G01*
X2457450Y4418837D01*
X2471165Y4414265D01*
X2480309Y4405376D01*
X2484881Y4396231D01*
X2489454Y4382515D01*
X2489454Y4359910D01*
X2484881Y4346194D01*
X2480309Y4337050D01*
X2471165Y4327905D01*
X2457450Y4323334D01*
X2425700Y4323334D01*
X2519425Y4418837D02*
G01*
X2519425Y4323334D01*
D13*
X2826903Y5343204D02*
G01*
X2826903Y5234238D01*
X2826903Y5343204D02*
G01*
X2873639Y5343204D01*
X2889133Y5338124D01*
X2894467Y5332790D01*
X2899547Y5322376D01*
X2899547Y5311962D01*
X2894467Y5301548D01*
X2889133Y5296468D01*
X2873639Y5291388D01*
X2826903Y5291388D02*
G01*
X2873639Y5291388D01*
X2889133Y5286054D01*
X2894467Y5280974D01*
X2899547Y5270560D01*
X2899547Y5254812D01*
X2894467Y5244398D01*
X2889133Y5239318D01*
X2873639Y5234238D01*
X2826903Y5234238D01*
X2933837Y5343204D02*
G01*
X2933837Y5234238D01*
X2933837Y5234238D02*
G01*
X2996321Y5234238D01*
X3030611Y5343204D02*
G01*
X3030611Y5265226D01*
X3035691Y5249732D01*
X3046105Y5239318D01*
X3061853Y5234238D01*
X3072013Y5234238D01*
X3087761Y5239318D01*
X3098175Y5249732D01*
X3103255Y5265226D01*
X3103255Y5343204D01*
X3137545Y5343204D02*
G01*
X3137545Y5234238D01*
X3137545Y5343204D02*
G01*
X3205109Y5343204D01*
X3137545Y5291388D02*
G01*
X3179201Y5291388D01*
X3137545Y5234238D02*
G01*
X3205109Y5234238D01*
X1398778Y3391407D02*
G01*
X1393444Y3401821D01*
X1383029Y3412236D01*
X1372870Y3417315D01*
X1352042Y3417315D01*
X1341628Y3412236D01*
X1331213Y3401821D01*
X1325879Y3391407D01*
X1320800Y3375660D01*
X1320800Y3349752D01*
X1325879Y3334257D01*
X1331213Y3323844D01*
X1341628Y3313429D01*
X1352042Y3308350D01*
X1372870Y3308350D01*
X1383029Y3313429D01*
X1393444Y3323844D01*
X1398778Y3334257D01*
X1398778Y3349752D01*
X1372870Y3349752D02*
G01*
X1398778Y3349752D01*
X1433068Y3417315D02*
G01*
X1433068Y3308350D01*
X1433068Y3417315D02*
G01*
X1479804Y3417315D01*
X1495297Y3412236D01*
X1500631Y3406902D01*
X1505712Y3396487D01*
X1505712Y3386073D01*
X1500631Y3375660D01*
X1495297Y3370579D01*
X1479804Y3365500D01*
X1433068Y3365500D01*
X1469389Y3365500D02*
G01*
X1505712Y3308350D01*
X1540002Y3417315D02*
G01*
X1540002Y3308350D01*
X1540002Y3417315D02*
G01*
X1607565Y3417315D01*
X1540002Y3365500D02*
G01*
X1581657Y3365500D01*
X1540002Y3308350D02*
G01*
X1607565Y3308350D01*
X1641855Y3417315D02*
G01*
X1641855Y3308350D01*
X1641855Y3417315D02*
G01*
X1709420Y3417315D01*
X1641855Y3365500D02*
G01*
X1683512Y3365500D01*
X1641855Y3308350D02*
G01*
X1709420Y3308350D01*
X1743710Y3417315D02*
G01*
X1743710Y3308350D01*
X1743710Y3417315D02*
G01*
X1816354Y3308350D01*
X1816354Y3417315D02*
G01*
X1816354Y3308350D01*
X658327Y5356412D02*
G01*
X658327Y5247446D01*
X658327Y5356412D02*
G01*
X705063Y5356412D01*
X720557Y5351332D01*
X725891Y5345998D01*
X730971Y5335584D01*
X730971Y5325170D01*
X725891Y5314756D01*
X720557Y5309676D01*
X705063Y5304596D01*
X658327Y5304596D01*
X694649Y5304596D02*
G01*
X730971Y5247446D01*
X765261Y5356412D02*
G01*
X765261Y5247446D01*
X765261Y5356412D02*
G01*
X832825Y5356412D01*
X765261Y5304596D02*
G01*
X806917Y5304596D01*
X765261Y5247446D02*
G01*
X832825Y5247446D01*
X867115Y5356412D02*
G01*
X867115Y5247446D01*
X867115Y5356412D02*
G01*
X903437Y5356412D01*
X919185Y5351332D01*
X929599Y5340918D01*
X934679Y5330504D01*
X940013Y5314756D01*
X940013Y5288848D01*
X934679Y5273354D01*
X929599Y5262940D01*
X919185Y5252526D01*
X903437Y5247446D01*
X867115Y5247446D01*
X2010156Y1283715D02*
G01*
X1968500Y1174750D01*
X2010156Y1283715D02*
G01*
X2051558Y1174750D01*
X1983993Y1211071D02*
G01*
X2036063Y1211071D01*
X2122170Y1283715D02*
G01*
X2122170Y1174750D01*
X2085847Y1283715D02*
G01*
X2158745Y1283715D01*
X2193036Y1283715D02*
G01*
X2193036Y1174750D01*
X2193036Y1283715D02*
G01*
X2260600Y1283715D01*
X2193036Y1231900D02*
G01*
X2234438Y1231900D01*
X2193036Y1174750D02*
G01*
X2260600Y1174750D01*
X2372613Y1257807D02*
G01*
X2367534Y1268221D01*
X2357120Y1278636D01*
X2346706Y1283715D01*
X2325877Y1283715D01*
X2315463Y1278636D01*
X2305050Y1268221D01*
X2299970Y1257807D01*
X2294890Y1242060D01*
X2294890Y1216152D01*
X2299970Y1200657D01*
X2305050Y1190244D01*
X2315463Y1179829D01*
X2325877Y1174750D01*
X2346706Y1174750D01*
X2357120Y1179829D01*
X2367534Y1190244D01*
X2372613Y1200657D01*
X2484881Y1257807D02*
G01*
X2479802Y1268221D01*
X2469388Y1278636D01*
X2458974Y1283715D01*
X2438145Y1283715D01*
X2427731Y1278636D01*
X2417318Y1268221D01*
X2412238Y1257807D01*
X2406904Y1242060D01*
X2406904Y1216152D01*
X2412238Y1200657D01*
X2417318Y1190244D01*
X2427731Y1179829D01*
X2438145Y1174750D01*
X2458974Y1174750D01*
X2469388Y1179829D01*
X2479802Y1190244D01*
X2484881Y1200657D01*
X2581656Y1268221D02*
G01*
X2576322Y1278636D01*
X2560827Y1283715D01*
X2550413Y1283715D01*
X2534920Y1278636D01*
X2524506Y1262887D01*
X2519172Y1236979D01*
X2519172Y1211071D01*
X2524506Y1190244D01*
X2534920Y1179829D01*
X2550413Y1174750D01*
X2555493Y1174750D01*
X2571241Y1179829D01*
X2581656Y1190244D01*
X2586736Y1205737D01*
X2586736Y1211071D01*
X2581656Y1226565D01*
X2571241Y1236979D01*
X2555493Y1242060D01*
X2550413Y1242060D01*
X2534920Y1236979D01*
X2524506Y1226565D01*
X2519172Y1211071D01*
X2652268Y1283715D02*
G01*
X2636520Y1278636D01*
X2626359Y1262887D01*
X2621025Y1236979D01*
X2621025Y1221486D01*
X2626359Y1195323D01*
X2636520Y1179829D01*
X2652268Y1174750D01*
X2662681Y1174750D01*
X2678175Y1179829D01*
X2688590Y1195323D01*
X2693670Y1221486D01*
X2693670Y1236979D01*
X2688590Y1262887D01*
X2678175Y1278636D01*
X2662681Y1283715D01*
X2652268Y1283715D01*
X2754122Y1283715D02*
G01*
X2738374Y1278636D01*
X2733293Y1268221D01*
X2733293Y1257807D01*
X2738374Y1247394D01*
X2748788Y1242060D01*
X2769615Y1236979D01*
X2785109Y1231900D01*
X2795524Y1221486D01*
X2800858Y1211071D01*
X2800858Y1195323D01*
X2795524Y1184910D01*
X2790443Y1179829D01*
X2774950Y1174750D01*
X2754122Y1174750D01*
X2738374Y1179829D01*
X2733293Y1184910D01*
X2727959Y1195323D01*
X2727959Y1211071D01*
X2733293Y1221486D01*
X2743708Y1231900D01*
X2759202Y1236979D01*
X2780029Y1242060D01*
X2790443Y1247394D01*
X2795524Y1257807D01*
X2795524Y1268221D01*
X2790443Y1278636D01*
X2774950Y1283715D01*
X2754122Y1283715D01*
X2835147Y1283715D02*
G01*
X2835147Y1174750D01*
X2835147Y1283715D02*
G01*
X2881884Y1283715D01*
X2897377Y1278636D01*
X2902711Y1273302D01*
X2907791Y1262887D01*
X2907791Y1252473D01*
X2902711Y1242060D01*
X2897377Y1236979D01*
X2881884Y1231900D01*
X2835147Y1231900D02*
G01*
X2881884Y1231900D01*
X2897377Y1226565D01*
X2902711Y1221486D01*
X2907791Y1211071D01*
X2907791Y1195323D01*
X2902711Y1184910D01*
X2897377Y1179829D01*
X2881884Y1174750D01*
X2835147Y1174750D01*
X1358900Y2198115D02*
G01*
X1358900Y2089150D01*
X1358900Y2198115D02*
G01*
X1426463Y2198115D01*
X1358900Y2146300D02*
G01*
X1400555Y2146300D01*
X1460754Y2198115D02*
G01*
X1460754Y2089150D01*
X1460754Y2089150D02*
G01*
X1522984Y2089150D01*
X1598929Y2198115D02*
G01*
X1557273Y2089150D01*
X1598929Y2198115D02*
G01*
X1640586Y2089150D01*
X1573021Y2125471D02*
G01*
X1624837Y2125471D01*
X1747520Y2182621D02*
G01*
X1737105Y2193036D01*
X1721612Y2198115D01*
X1700784Y2198115D01*
X1685289Y2193036D01*
X1674876Y2182621D01*
X1674876Y2172207D01*
X1679955Y2161794D01*
X1685289Y2156460D01*
X1695450Y2151379D01*
X1726692Y2140965D01*
X1737105Y2135886D01*
X1742439Y2130552D01*
X1747520Y2120137D01*
X1747520Y2104644D01*
X1737105Y2094229D01*
X1721612Y2089150D01*
X1700784Y2089150D01*
X1685289Y2094229D01*
X1674876Y2104644D01*
X1781810Y2198115D02*
G01*
X1781810Y2089150D01*
X1854454Y2198115D02*
G01*
X1854454Y2089150D01*
X1781810Y2146300D02*
G01*
X1854454Y2146300D01*
X1549400Y5436615D02*
G01*
X1575307Y5327650D01*
X1601470Y5436615D02*
G01*
X1575307Y5327650D01*
X1601470Y5436615D02*
G01*
X1627378Y5327650D01*
X1653286Y5436615D02*
G01*
X1627378Y5327650D01*
X1692910Y5410707D02*
G01*
X1692910Y5415787D01*
X1697989Y5426202D01*
X1703070Y5431536D01*
X1713484Y5436615D01*
X1734312Y5436615D01*
X1744726Y5431536D01*
X1750060Y5426202D01*
X1755139Y5415787D01*
X1755139Y5405373D01*
X1750060Y5394960D01*
X1739645Y5379465D01*
X1687576Y5327650D01*
X1760220Y5327650D01*
X1856994Y5436615D02*
G01*
X1804923Y5436615D01*
X1799844Y5389879D01*
X1804923Y5394960D01*
X1820671Y5400294D01*
X1836165Y5400294D01*
X1851660Y5394960D01*
X1862073Y5384800D01*
X1867407Y5369052D01*
X1867407Y5358637D01*
X1862073Y5343144D01*
X1851660Y5332729D01*
X1836165Y5327650D01*
X1820671Y5327650D01*
X1804923Y5332729D01*
X1799844Y5337810D01*
X1794510Y5348223D01*
X1932940Y5436615D02*
G01*
X1922526Y5431536D01*
X1912112Y5421121D01*
X1906778Y5410707D01*
X1901697Y5394960D01*
X1901697Y5369052D01*
X1906778Y5353557D01*
X1912112Y5343144D01*
X1922526Y5332729D01*
X1932940Y5327650D01*
X1953513Y5327650D01*
X1963927Y5332729D01*
X1974341Y5343144D01*
X1979675Y5353557D01*
X1984756Y5369052D01*
X1984756Y5394960D01*
X1979675Y5410707D01*
X1974341Y5421121D01*
X1963927Y5431536D01*
X1953513Y5436615D01*
X1932940Y5436615D01*
X1948434Y5348223D02*
G01*
X1979675Y5317236D01*
X2081529Y5421121D02*
G01*
X2076195Y5431536D01*
X2060702Y5436615D01*
X2050288Y5436615D01*
X2034540Y5431536D01*
X2024379Y5415787D01*
X2019045Y5389879D01*
X2019045Y5363971D01*
X2024379Y5343144D01*
X2034540Y5332729D01*
X2050288Y5327650D01*
X2055368Y5327650D01*
X2071115Y5332729D01*
X2081529Y5343144D01*
X2086609Y5358637D01*
X2086609Y5363971D01*
X2081529Y5379465D01*
X2071115Y5389879D01*
X2055368Y5394960D01*
X2050288Y5394960D01*
X2034540Y5389879D01*
X2024379Y5379465D01*
X2019045Y5363971D01*
X2172970Y5436615D02*
G01*
X2120900Y5363971D01*
X2198877Y5363971D01*
X2172970Y5436615D02*
G01*
X2172970Y5327650D01*
X2233168Y5436615D02*
G01*
X2233168Y5327650D01*
X2233168Y5436615D02*
G01*
X2300731Y5436615D01*
X2233168Y5384800D02*
G01*
X2274570Y5384800D01*
X2335022Y5436615D02*
G01*
X2376424Y5327650D01*
X2418079Y5436615D02*
G01*
X2376424Y5327650D01*
X3310519Y4567488D02*
G01*
X3201553Y4567488D01*
X3310519Y4567488D02*
G01*
X3310519Y4520752D01*
X3305439Y4505258D01*
X3300105Y4499924D01*
X3289691Y4494844D01*
X3279277Y4494844D01*
X3268863Y4499924D01*
X3263783Y4505258D01*
X3258703Y4520752D01*
X3258703Y4567488D01*
X3258703Y4531166D02*
G01*
X3201553Y4494844D01*
X3310519Y4460554D02*
G01*
X3201553Y4460554D01*
X3310519Y4460554D02*
G01*
X3310519Y4413818D01*
X3305439Y4398070D01*
X3300105Y4392990D01*
X3289691Y4387656D01*
X3279277Y4387656D01*
X3268863Y4392990D01*
X3263783Y4398070D01*
X3258703Y4413818D01*
X3258703Y4460554D02*
G01*
X3258703Y4413818D01*
X3253369Y4398070D01*
X3248289Y4392990D01*
X3237875Y4387656D01*
X3222127Y4387656D01*
X3211713Y4392990D01*
X3206633Y4398070D01*
X3201553Y4413818D01*
X3201553Y4460554D01*
X1511300Y2871215D02*
G01*
X1511300Y2762250D01*
X1511300Y2871215D02*
G01*
X1558036Y2871215D01*
X1573529Y2866136D01*
X1578863Y2860802D01*
X1583944Y2850387D01*
X1583944Y2839973D01*
X1578863Y2829560D01*
X1573529Y2824479D01*
X1558036Y2819400D01*
X1511300Y2819400D01*
X1547621Y2819400D02*
G01*
X1583944Y2762250D01*
X1696212Y2845307D02*
G01*
X1691131Y2855721D01*
X1680718Y2866136D01*
X1670304Y2871215D01*
X1649476Y2871215D01*
X1639062Y2866136D01*
X1628647Y2855721D01*
X1623568Y2845307D01*
X1618234Y2829560D01*
X1618234Y2803652D01*
X1623568Y2788157D01*
X1628647Y2777744D01*
X1639062Y2767329D01*
X1649476Y2762250D01*
X1670304Y2762250D01*
X1680718Y2767329D01*
X1691131Y2777744D01*
X1696212Y2788157D01*
X1696212Y2803652D01*
X1670304Y2803652D02*
G01*
X1696212Y2803652D01*
X466811Y4390196D02*
G01*
X575777Y4390196D01*
X466811Y4390196D02*
G01*
X466811Y4436932D01*
X471891Y4452426D01*
X477225Y4457760D01*
X487639Y4462840D01*
X498053Y4462840D01*
X508467Y4457760D01*
X513547Y4452426D01*
X518627Y4436932D01*
X518627Y4390196D01*
X518627Y4426518D02*
G01*
X575777Y4462840D01*
X466811Y4497130D02*
G01*
X575777Y4497130D01*
X466811Y4497130D02*
G01*
X466811Y4543866D01*
X471891Y4559614D01*
X477225Y4564694D01*
X487639Y4570028D01*
X498053Y4570028D01*
X508467Y4564694D01*
X513547Y4559614D01*
X518627Y4543866D01*
X518627Y4497130D01*
X518627Y4533706D02*
G01*
X575777Y4570028D01*
G36*
X3029458Y5111394D02*
G01*
X3003499Y5075428D01*
X3028492Y5039410D01*
G37*
G36*
X1576578Y3198215D02*
G01*
X1575562Y3126232D01*
X1601571Y3162249D01*
G37*
G36*
X774395Y5124602D02*
G01*
X773379Y5052618D01*
X799388Y5088636D01*
G37*
D12*
X2980471Y5002413D02*
G01*
X2865473Y5002413D01*
X2865473Y5147411D01*
X2985472Y5147411D01*
X3047471Y5148412D02*
G01*
X3171471Y5148412D01*
X3171471Y5003413D01*
X3047471Y5003413D01*
X2865473Y5002413D02*
G01*
X2862470Y5002413D01*
X2842470Y5022413D01*
X2842470Y5124411D01*
X2845473Y5127411D01*
X2865473Y5147411D01*
X1624568Y3235223D02*
G01*
X1739567Y3235223D01*
X1739567Y3090224D01*
X1619567Y3090224D01*
X1557568Y3089224D02*
G01*
X1433568Y3089224D01*
X1433568Y3234222D01*
X1557568Y3234222D01*
X1739567Y3235223D02*
G01*
X1742569Y3235223D01*
X1762569Y3215223D01*
X1762569Y3113224D01*
X1759567Y3110224D01*
X1739567Y3090224D01*
X822396Y5161620D02*
G01*
X937394Y5161620D01*
X937394Y5016621D01*
X817394Y5016621D01*
X755395Y5015621D02*
G01*
X631395Y5015621D01*
X631395Y5160619D01*
X755395Y5160619D01*
X937394Y5161620D02*
G01*
X940396Y5161620D01*
X960396Y5141620D01*
X960396Y5039621D01*
X957394Y5036621D01*
X937394Y5016621D01*
D13*
X2211179Y622559D02*
G01*
X2211179Y926840D01*
X2716420Y926840D01*
X2716420Y622559D01*
X2211179Y622559D01*
X1369860Y1965670D02*
G01*
X1805139Y1965670D01*
X1805139Y1437929D01*
X1369860Y1437929D01*
X1369860Y1965670D01*
D14*
X2209805Y4212099D02*
G01*
X1701805Y4212099D01*
X2209805Y4292986D02*
G01*
X2209805Y4212099D01*
X2209805Y5262100D02*
G01*
X2209805Y5181213D01*
X2209805Y5262100D02*
G01*
X1701805Y5262100D01*
X1701805Y4292986D02*
G01*
X1701805Y4212099D01*
X1701805Y4546986D02*
G01*
X1701805Y4419213D01*
X1701805Y4800986D02*
G01*
X1701805Y4673213D01*
X1701805Y5054986D02*
G01*
X1701805Y4927213D01*
X1701805Y5262100D02*
G01*
X1701805Y5181213D01*
X2209805Y4546986D02*
G01*
X2209805Y4419213D01*
X2209805Y4800986D02*
G01*
X2209805Y4673213D01*
X2209805Y5054986D02*
G01*
X2209805Y4927213D01*
D13*
X2922193Y4370768D02*
G01*
X2922193Y4234776D01*
X3138012Y4234776D01*
X3138012Y4370768D01*
X2922193Y4561009D02*
G01*
X2922193Y4697001D01*
X3138012Y4697001D01*
X3138012Y4561009D01*
X1682620Y2482890D02*
G01*
X1818612Y2482890D01*
X1818612Y2698709D01*
X1682620Y2698709D01*
X1492379Y2482890D02*
G01*
X1356387Y2482890D01*
X1356387Y2698709D01*
X1492379Y2698709D01*
X867836Y4574217D02*
G01*
X867836Y4710209D01*
X652018Y4710209D01*
X652018Y4574217D01*
X867836Y4383976D02*
G01*
X867836Y4247984D01*
X652018Y4247984D01*
X652018Y4383976D01*
D10*
G75*
G01
X2288311Y697789D02*
G03X2288311Y697789I-15011J0D01*
G75*
G01
X2213661Y497459D02*
G03X2213661Y497459I-15011J0D01*
G75*
G01
X1460119Y1892300D02*
G03X1460119Y1892300I-15011J0D01*
G75*
G01
X1249502Y1969033D02*
G03X1249502Y1969033I-15011J0D01*
D14*
G75*
G01
X1638310Y5219708D02*
G03X1638310Y5219708I-12700J0D01*
M02*
