G04 Layer: TopLayer*
G04 EasyEDA v6.5.40, 2024-02-16 10:36:59*
G04 cbf7a00361bd432e9e78a992b2a5909c,d07ef30ec77949ce8e11233ba57d236c,10*
G04 Gerber Generator version 0.2*
G04 Scale: 100 percent, Rotated: No, Reflected: No *
G04 Dimensions in millimeters *
G04 leading zeros omitted , absolute positions ,4 integer and 5 decimal *
%FSLAX45Y45*%
%MOMM*%

%AMMACRO1*21,1,$1,$2,0,0,$3*%
%ADD10C,0.2540*%
%ADD11R,0.8999X1.0000*%
%ADD12O,0.58801X2.0450048*%
%ADD13O,2.2500082X0.6299962*%
%ADD14R,3.2000X0.8000*%
%ADD15MACRO1,1.701X1.2075X0.0000*%
%ADD16R,1.7010X1.2075*%
%ADD17MACRO1,1.701X1.2075X90.0000*%
%ADD18C,0.6100*%

%LPD*%
D10*
X1595628Y2718815D02*
G01*
X1638300Y2806700D01*
X1634236Y4003039D01*
X1511300Y4125976D01*
X1511300Y4610100D01*
X1525523Y4610100D01*
X2400300Y4610100D02*
G01*
X2400300Y4595837D01*
X2400300Y3517900D01*
X2197100Y4610100D02*
G01*
X2400300Y4610100D01*
X2654300Y1051930D02*
G01*
X2654300Y736600D01*
X699996Y4335211D02*
G01*
X699996Y4425838D01*
X1935401Y1892289D02*
G01*
X1870428Y1892289D01*
X1783737Y1805599D01*
X1783737Y1488861D01*
X2220668Y1051930D01*
X2273297Y1051930D01*
X1940506Y1892289D02*
G01*
X1935401Y1892289D01*
X1935398Y1892287D02*
G01*
X1930400Y1897286D01*
X1930400Y5029200D01*
X2273297Y1051930D02*
G01*
X2273297Y773242D01*
X2322802Y723737D01*
X3102000Y4309808D02*
G01*
X3097491Y4305300D01*
X2946400Y4305300D01*
X2527300Y1051930D02*
G01*
X2527300Y901700D01*
X2857243Y5075392D02*
G01*
X2856329Y5074478D01*
X2856329Y4031935D01*
X2932478Y5075392D02*
G01*
X2857243Y5075392D01*
X870379Y5088600D02*
G01*
X945639Y5088600D01*
X945639Y5088600D02*
G01*
X945639Y1757644D01*
X1191994Y1511289D01*
X1234488Y1511289D01*
X1940506Y1638289D02*
G01*
X2011067Y1638289D01*
X2074440Y1701662D01*
X1715818Y4610089D02*
G01*
X1525546Y4610089D01*
X1595676Y2603489D02*
G01*
X1595676Y2718780D01*
X1595676Y2545857D02*
G01*
X1595676Y2603489D01*
X1595676Y2545857D02*
G01*
X1595676Y2488199D01*
X1234488Y1638289D02*
G01*
X1288463Y1638289D01*
X1595676Y1945502D01*
X1595676Y2488199D01*
X2195802Y4356089D02*
G01*
X2195802Y1711111D01*
X1995980Y1511289D01*
X1940506Y1511289D01*
X3101997Y4605568D02*
G01*
X3101997Y4696195D01*
X3101997Y4696195D02*
G01*
X3102480Y4696678D01*
X3102480Y5075392D01*
X699996Y4630968D02*
G01*
X699996Y4721595D01*
X699996Y4721595D02*
G01*
X700377Y4721976D01*
X700377Y5088600D01*
X1715818Y5118089D02*
G01*
X1525546Y5118089D01*
X1234488Y1892289D02*
G01*
X1188869Y1937908D01*
X1188869Y4781412D01*
X1525546Y5118089D01*
X2654300Y508000D02*
G01*
X2654300Y545845D01*
X2654300Y647700D01*
X2856329Y4031935D02*
G01*
X2743200Y3733800D01*
X2743200Y647700D01*
X2565400Y647700D01*
X2565400Y647700D02*
G01*
X2082800Y647700D01*
X1234439Y1496060D01*
X1234439Y1511300D01*
X700026Y4425950D02*
G01*
X546100Y4521200D01*
X546100Y5092700D01*
X546100Y5219700D01*
X1892300Y5219700D01*
X1930400Y5181600D01*
X1930400Y5029200D01*
X2195802Y4864089D02*
G01*
X2005556Y4864089D01*
X2005584Y4864100D02*
G01*
X1993900Y4864100D01*
X1993900Y2108200D01*
X2096770Y1920494D01*
X2096770Y1873504D01*
X1988565Y1765300D01*
X1940559Y1765300D01*
X1715818Y4864089D02*
G01*
X1525546Y4864089D01*
X1234439Y1765300D02*
G01*
X1292352Y1765300D01*
X1447800Y1920747D01*
X1447800Y4737100D01*
X1525523Y4864100D01*
X1532788Y3175000D02*
G01*
X1536700Y3264042D01*
X1536700Y3695700D01*
X1299971Y2603500D02*
G01*
X1295400Y3073400D01*
X1362710Y3175000D01*
D11*
G01*
X2932480Y5075402D03*
G01*
X3102483Y5075402D03*
G01*
X1532788Y3175000D03*
G01*
X1362786Y3175000D03*
G01*
X870381Y5088610D03*
G01*
X700379Y5088610D03*
D12*
G01*
X2273300Y497459D03*
G01*
X2400300Y497459D03*
G01*
X2527300Y497459D03*
G01*
X2654300Y497459D03*
G01*
X2273300Y1051940D03*
G01*
X2400300Y1051940D03*
G01*
X2527300Y1051940D03*
G01*
X2654300Y1051940D03*
D13*
G01*
X1234490Y1892300D03*
G01*
X1234490Y1765300D03*
G01*
X1234490Y1638300D03*
G01*
X1234490Y1511300D03*
G01*
X1940509Y1892300D03*
G01*
X1940509Y1765300D03*
G01*
X1940509Y1638300D03*
G01*
X1940509Y1511300D03*
D14*
G01*
X2195804Y4356100D03*
G01*
X1715820Y4356100D03*
G01*
X2195804Y4610100D03*
G01*
X1715820Y4610100D03*
G01*
X2195804Y4864100D03*
G01*
X1715820Y4864100D03*
G01*
X2195804Y5118100D03*
G01*
X1715820Y5118100D03*
D15*
G01*
X3101995Y4309823D03*
D16*
G01*
X3102000Y4605578D03*
D17*
G01*
X1595676Y2603500D03*
G01*
X1299923Y2603500D03*
D15*
G01*
X699998Y4630976D03*
D16*
G01*
X699998Y4335221D03*
D18*
G01*
X2654300Y736600D03*
G01*
X1930400Y5029200D03*
G01*
X2322804Y723747D03*
G01*
X2946400Y4305300D03*
G01*
X2527300Y901700D03*
G01*
X1536700Y3695700D03*
G01*
X2856331Y4031945D03*
G01*
X2074443Y1701672D03*
G01*
X2400300Y3517900D03*
M02*
