G04 Layer: TopLayer*
G04 Panelize: Stamp Hole, Column: 3, Row: 1, Board Size: 32.78mm x 60.14mm, Panelized Board Size: 108.35mm x 60.14mm*
G04 EasyEDA v6.5.42, 2024-02-25 13:01:32*
G04 b3e2e6fb8f204fb0a1d4e493a2091a1c,d07ef30ec77949ce8e11233ba57d236c,10*
G04 Gerber Generator version 0.2*
G04 Scale: 100 percent, Rotated: No, Reflected: No *
G04 Dimensions in millimeters *
G04 leading zeros omitted , absolute positions ,4 integer and 5 decimal *
%FSLAX45Y45*%
%MOMM*%

%AMMACRO1*21,1,$1,$2,0,0,$3*%
%ADD10C,0.2540*%
%ADD11R,0.9500X1.1500*%
%ADD12MACRO1,1.701X1.2075X90.0000*%
%ADD13MACRO1,1.701X1.2075X-90.0000*%
%ADD14O,0.58801X2.0450048*%
%ADD15MACRO1,1X1.3995X0.0000*%
%ADD16R,1.0000X1.3995*%
%ADD17O,2.2500082X0.6299962*%
%ADD18R,3.2000X0.8000*%
%ADD19MACRO1,1.701X1.2075X0.0000*%
%ADD20R,1.7010X1.2075*%
%ADD21C,1.0000*%
%ADD22C,0.6100*%

%LPD*%
D10*
X2654297Y2144130D02*
G01*
X2654297Y2571816D01*
X2504793Y2721320D01*
X2504793Y4530333D01*
X1861207Y1714489D02*
G01*
X1974339Y1827621D01*
X2407612Y1827621D01*
X2654297Y2074306D01*
X2654297Y2144130D01*
X1748076Y1714489D02*
G01*
X1861207Y1714489D01*
X729663Y5553242D02*
G01*
X910028Y5372877D01*
X910028Y2682610D01*
X1086253Y2506385D01*
X1325217Y2506385D01*
X1325217Y2506385D02*
G01*
X1325217Y1979386D01*
X1452318Y1852284D01*
X1902406Y2997189D02*
G01*
X1816021Y2997189D01*
X1325217Y2506385D01*
X811019Y6002416D02*
G01*
X811019Y5634598D01*
X729663Y5553242D01*
X729663Y5553242D02*
G01*
X673097Y5553242D01*
X673097Y5440111D02*
G01*
X673097Y5553242D01*
X1748076Y2146289D02*
G01*
X1634944Y2146289D01*
X1452318Y1714489D02*
G01*
X1452318Y1852284D01*
X1452318Y1852284D02*
G01*
X1634944Y2034910D01*
X1634944Y2146289D01*
X1748076Y2146289D02*
G01*
X1861207Y2146289D01*
X2273297Y2144130D02*
G01*
X1863366Y2144130D01*
X1861207Y2146289D01*
X3149597Y5414711D02*
G01*
X2989247Y5414711D01*
X2390010Y2309408D02*
G01*
X2439819Y2309408D01*
X2527297Y2221931D01*
X2527297Y2144130D01*
X1565450Y2146289D02*
G01*
X1565450Y2202855D01*
X1672003Y2309408D01*
X2390010Y2309408D01*
X1452318Y2146289D02*
G01*
X1565450Y2146289D01*
X1490037Y5003789D02*
G01*
X1490037Y5359897D01*
X1196388Y2997189D02*
G01*
X1106573Y3087004D01*
X1106573Y4871811D01*
X1400274Y6134724D02*
G01*
X1488539Y6222989D01*
X1715818Y6222989D01*
X1902406Y2743189D02*
G01*
X1810280Y2743189D01*
X1725952Y2658861D01*
X1725952Y2592237D01*
X1793135Y2525054D01*
X2024529Y2525054D01*
X2275024Y2775549D01*
X2275024Y5211587D01*
X2408679Y5345242D01*
X2408679Y5714862D01*
X2408552Y5714989D01*
X2195802Y5714989D02*
G01*
X2408552Y5714989D01*
X1327579Y3440292D02*
G01*
X1186660Y3581186D01*
X1186660Y4601504D01*
X1251938Y4666782D01*
X1251938Y5463885D01*
X1503042Y5714989D01*
X1327579Y3440292D02*
G01*
X1595676Y3708389D01*
X1196388Y2743189D02*
G01*
X1271902Y2743189D01*
X1375128Y2846415D01*
X1375128Y3111845D01*
X1327553Y3159419D01*
X1327553Y3440267D01*
X1327579Y3440292D01*
X1715818Y5714989D02*
G01*
X1503042Y5714989D01*
X2633952Y6061903D02*
G01*
X2013607Y6061903D01*
X1937915Y5986211D01*
X1937915Y5863503D01*
X2837025Y6261089D02*
G01*
X2637838Y6061903D01*
X2633952Y6061903D01*
X2619550Y4991089D02*
G01*
X2633952Y5005491D01*
X2633952Y6061903D01*
X1937915Y5863503D02*
G01*
X1151557Y5863503D01*
X1937915Y5863503D02*
G01*
X1937915Y4770363D01*
X1622905Y4455353D01*
X1151557Y5863503D02*
G01*
X1151557Y5003789D01*
X982494Y6261089D02*
G01*
X1151557Y6092027D01*
X1151557Y5863503D01*
X1622905Y4455353D02*
G01*
X1467431Y4455353D01*
X1342768Y4330689D01*
X1196388Y2616189D02*
G01*
X1287574Y2616189D01*
X1709112Y3037728D01*
X1709112Y4369145D01*
X1622905Y4455353D01*
X879726Y6261089D02*
G01*
X982494Y6261089D01*
X2654297Y1589648D02*
G01*
X2742105Y1677456D01*
X2742105Y3517153D01*
X2619550Y3639708D01*
X2619550Y4991089D01*
X2506418Y4991089D02*
G01*
X2619550Y4991089D01*
X2939768Y6261089D02*
G01*
X2837025Y6261089D01*
X3149597Y5710468D02*
G01*
X3149597Y5823600D01*
X3149597Y5823600D02*
G01*
X3149826Y5823828D01*
X3149826Y6261089D01*
X673097Y5735868D02*
G01*
X673097Y5849000D01*
X673097Y5849000D02*
G01*
X669668Y5852429D01*
X669668Y6261089D01*
X1552826Y4330689D02*
G01*
X1450083Y4330689D01*
X1299918Y3708389D02*
G01*
X1413050Y3708389D01*
X1413050Y3708389D02*
G01*
X1450083Y3745423D01*
X1450083Y4330689D01*
X1902406Y2616189D02*
G01*
X1976727Y2616189D01*
X2209467Y2848930D01*
X2209467Y5447324D01*
X2195802Y5460989D01*
X1196388Y2870189D02*
G01*
X1114600Y2870189D01*
X1011044Y2973745D01*
X1011044Y5932236D01*
X776881Y6166398D01*
X776881Y6355019D01*
X812772Y6390909D01*
X1024176Y6390909D01*
X1446095Y5968989D01*
X1503042Y5968989D01*
X1715818Y5968989D02*
G01*
X1503042Y5968989D01*
X2195802Y5968989D02*
G01*
X2408552Y5968989D01*
X2126104Y4833584D02*
G01*
X2126104Y3005292D01*
X1991001Y2870189D01*
X1902406Y2870189D01*
X2408552Y5968989D02*
G01*
X2408552Y5826978D01*
X2478605Y5756925D01*
X2478605Y5297286D01*
X2390005Y2309408D02*
G01*
X2390005Y5110825D01*
X2409997Y5130812D01*
X2430040Y5130812D01*
X2561963Y5262742D01*
X2561963Y5858136D01*
X2540000Y5880100D01*
X2806700Y4991100D02*
G01*
X2806700Y5181600D01*
D11*
G01*
X1151559Y5003800D03*
G01*
X1490040Y5003800D03*
D12*
G01*
X2802176Y4991100D03*
G01*
X2506423Y4991100D03*
D13*
G01*
X1452323Y2146300D03*
G01*
X1748076Y2146300D03*
D12*
G01*
X1748076Y1714500D03*
G01*
X1452323Y1714500D03*
D14*
G01*
X2273300Y1589659D03*
G01*
X2400300Y1589659D03*
G01*
X2527300Y1589659D03*
G01*
X2654300Y1589659D03*
G01*
X2273300Y2144140D03*
G01*
X2400300Y2144140D03*
G01*
X2527300Y2144140D03*
G01*
X2654300Y2144140D03*
D15*
G01*
X2939778Y6261100D03*
D16*
G01*
X3149828Y6261100D03*
D15*
G01*
X1342771Y4330700D03*
D16*
G01*
X1552829Y4330700D03*
D15*
G01*
X879728Y6261100D03*
D16*
G01*
X669670Y6261100D03*
D17*
G01*
X1196390Y2997200D03*
G01*
X1196390Y2870200D03*
G01*
X1196390Y2743200D03*
G01*
X1196390Y2616200D03*
G01*
X1902409Y2997200D03*
G01*
X1902409Y2870200D03*
G01*
X1902409Y2743200D03*
G01*
X1902409Y2616200D03*
D18*
G01*
X2195804Y5461000D03*
G01*
X1715820Y5461000D03*
G01*
X2195804Y5715000D03*
G01*
X1715820Y5715000D03*
G01*
X2195804Y5969000D03*
G01*
X1715820Y5969000D03*
G01*
X2195804Y6223000D03*
G01*
X1715820Y6223000D03*
D19*
G01*
X3149602Y5414723D03*
D20*
G01*
X3149600Y5710478D03*
D12*
G01*
X1595676Y3708400D03*
G01*
X1299923Y3708400D03*
D19*
G01*
X673100Y5735876D03*
D20*
G01*
X673100Y5440121D03*
D21*
G01*
X1278480Y8085519D03*
G01*
X10113863Y8085519D03*
G01*
X1778479Y671601D03*
G01*
X9613864Y671601D03*
D22*
G01*
X2504795Y4530344D03*
G01*
X811021Y6002426D03*
G01*
X2989249Y5414721D03*
G01*
X2540000Y5880100D03*
G01*
X1490040Y5359907D03*
G01*
X2806700Y5181600D03*
G01*
X1400276Y6134735D03*
G01*
X1106576Y4871821D03*
G01*
X2126106Y4833594D03*
G01*
X2478608Y5297296D03*
M02*
