G04 Layer: BottomSilkscreenLayer*
G04 EasyEDA v6.5.40, 2024-02-16 10:36:59*
G04 cbf7a00361bd432e9e78a992b2a5909c,d07ef30ec77949ce8e11233ba57d236c,10*
G04 Gerber Generator version 0.2*
G04 Scale: 100 percent, Rotated: No, Reflected: No *
G04 Dimensions in millimeters *
G04 leading zeros omitted , absolute positions ,4 integer and 5 decimal *
%FSLAX45Y45*%
%MOMM*%

%ADD10C,0.1500*%
%ADD11C,0.3000*%
%ADD12C,0.1524*%
%ADD13C,0.1520*%
%ADD14C,0.2540*%
%ADD15C,0.0154*%

%LPD*%
G36*
X1634744Y3097784D02*
G01*
X1627174Y3096107D01*
X1614576Y3094634D01*
X1605330Y3092856D01*
X1597761Y3091078D01*
X1589379Y3089656D01*
X1584299Y3088436D01*
X1563319Y3081782D01*
X1553210Y3078276D01*
X1539798Y3072892D01*
X1525473Y3066440D01*
X1504492Y3055874D01*
X1487678Y3045002D01*
X1483461Y3042005D01*
X1480108Y3040176D01*
X1464970Y3028899D01*
X1449882Y3016859D01*
X1421536Y2989072D01*
X1407820Y2972409D01*
X1399540Y2961335D01*
X1383284Y2936951D01*
X1373733Y2920644D01*
X1366266Y2904693D01*
X1366266Y2903524D01*
X1361186Y2893618D01*
X1356309Y2880664D01*
X1346250Y2848711D01*
X1341221Y2826004D01*
X1339291Y2811729D01*
X1337665Y2802483D01*
X1335887Y2778150D01*
X1336344Y2741523D01*
X892302Y2297430D01*
X892302Y2294077D01*
X904087Y2294077D01*
X904087Y2295753D01*
X1345184Y2736900D01*
X1345082Y2783992D01*
X1347876Y2807512D01*
X1350213Y2822651D01*
X1352854Y2836113D01*
X1355140Y2845358D01*
X1360982Y2865678D01*
X1369314Y2888183D01*
X1377391Y2906674D01*
X1382420Y2916783D01*
X1389786Y2928924D01*
X1389786Y2929636D01*
X1396492Y2940710D01*
X1396492Y2941878D01*
X1399641Y2945333D01*
X1412189Y2964078D01*
X1422095Y2975610D01*
X1453235Y3007258D01*
X1469593Y3021685D01*
X1490726Y3036112D01*
X1505153Y3044952D01*
X1505712Y3044952D01*
X1514551Y3050590D01*
X1533042Y3059938D01*
X1562455Y3071926D01*
X1575917Y3075990D01*
X1597761Y3081832D01*
X1614576Y3085236D01*
X1632204Y3087725D01*
X1650695Y3089656D01*
X1689049Y3089910D01*
X1689506Y3089452D01*
X1717090Y3086912D01*
X1745640Y3081070D01*
X1761642Y3076803D01*
X1783486Y3069437D01*
X1796084Y3064103D01*
X1811223Y3058109D01*
X1819605Y3052521D01*
X1820875Y3052521D01*
X1842463Y3039872D01*
X1860346Y3039872D01*
X1860346Y3039059D01*
X1859534Y3039059D01*
X1859534Y3039872D01*
X1842463Y3039872D01*
X1856587Y3031337D01*
X1876755Y3016046D01*
X1891893Y3001772D01*
X1916785Y2976422D01*
X1923186Y2968040D01*
X1928418Y2962148D01*
X1928418Y2960878D01*
X1933905Y2954578D01*
X1939340Y2946755D01*
X1939340Y2945688D01*
X1946300Y2935274D01*
X1962810Y2905861D01*
X1974494Y2877261D01*
X1977847Y2868015D01*
X1982876Y2851251D01*
X1986330Y2838602D01*
X1988921Y2824327D01*
X1992223Y2802483D01*
X1994204Y2783992D01*
X1994154Y2752090D01*
X1992274Y2727706D01*
X1989124Y2706674D01*
X1984756Y2685999D01*
X1976272Y2656281D01*
X1973072Y2649575D01*
X1966975Y2634437D01*
X1957476Y2613406D01*
X1953006Y2606700D01*
X1941068Y2586532D01*
X1933041Y2575712D01*
X1930806Y2571648D01*
X1924913Y2563825D01*
X1914550Y2551277D01*
X1884324Y2521000D01*
X1867052Y2506675D01*
X1857400Y2500223D01*
X1849018Y2494178D01*
X1822145Y2478328D01*
X1812036Y2473299D01*
X1799437Y2467406D01*
X1782622Y2460752D01*
X1773377Y2457348D01*
X1751177Y2450947D01*
X1749704Y2450033D01*
X1727149Y2445766D01*
X1705305Y2442362D01*
X1670050Y2439924D01*
X1645107Y2441702D01*
X1641449Y2439263D01*
X1200302Y1999538D01*
X1198575Y1999538D01*
X904087Y2294077D01*
X892302Y2294077D01*
X892302Y2293264D01*
X1197762Y1987804D01*
X1202334Y1987804D01*
X1514856Y2299563D01*
X1515821Y2299563D01*
X1515821Y2073503D01*
X1493215Y2073503D01*
X1492199Y2071827D01*
X1484833Y2071827D01*
X1483817Y2070150D01*
X1476451Y2070150D01*
X1475384Y2068474D01*
X1468018Y2068474D01*
X1467002Y2066798D01*
X1462125Y2066798D01*
X1461109Y2065121D01*
X1457096Y2065121D01*
X1456080Y2063445D01*
X1452778Y2063445D01*
X1449882Y2061921D01*
X1437233Y2056942D01*
X1427175Y2051913D01*
X1417574Y2046732D01*
X1410055Y2041550D01*
X1408277Y2041550D01*
X1408277Y2039874D01*
X1406042Y2039874D01*
X1402791Y2036927D01*
X1396898Y2032812D01*
X1396085Y2031847D01*
X1390192Y2027783D01*
X1376629Y2015947D01*
X1369618Y2007514D01*
X1364945Y2002485D01*
X1360881Y1996592D01*
X1359865Y1995779D01*
X1355801Y1989886D01*
X1352804Y1986635D01*
X1352804Y1984451D01*
X1351127Y1984451D01*
X1351127Y1982622D01*
X1345946Y1975104D01*
X1340815Y1965502D01*
X1335786Y1955444D01*
X1330756Y1942846D01*
X1329283Y1939899D01*
X1329283Y1936648D01*
X1327607Y1935581D01*
X1327607Y1931568D01*
X1325930Y1930552D01*
X1325930Y1925726D01*
X1324254Y1924659D01*
X1324254Y1917547D01*
X1322679Y1915922D01*
X1319987Y1889912D01*
X1319143Y1874012D01*
X1327404Y1874012D01*
X1327658Y1892198D01*
X1329283Y1895246D01*
X1329283Y1908708D01*
X1330960Y1909724D01*
X1330960Y1917090D01*
X1332636Y1918157D01*
X1332636Y1924659D01*
X1334312Y1925726D01*
X1334312Y1929688D01*
X1335989Y1930755D01*
X1335989Y1934768D01*
X1337665Y1935784D01*
X1337665Y1939086D01*
X1339138Y1941982D01*
X1342542Y1950415D01*
X1348638Y1963013D01*
X1353718Y1971395D01*
X1354683Y1974342D01*
X1356156Y1974342D01*
X1356156Y1976120D01*
X1364843Y1989074D01*
X1365910Y1989886D01*
X1369923Y1995779D01*
X1370888Y1996592D01*
X1380134Y2007463D01*
X1383487Y2010918D01*
X1396085Y2021839D01*
X1396898Y2022754D01*
X1402791Y2026767D01*
X1403654Y2027834D01*
X1416608Y2036521D01*
X1418336Y2036521D01*
X1418336Y2037994D01*
X1421282Y2038959D01*
X1429715Y2044039D01*
X1442313Y2050135D01*
X1453642Y2055012D01*
X1456893Y2055012D01*
X1457960Y2056688D01*
X1461922Y2056688D01*
X1462989Y2058365D01*
X1467002Y2058365D01*
X1468018Y2060041D01*
X1474571Y2060041D01*
X1475587Y2061718D01*
X1482953Y2061718D01*
X1483969Y2063445D01*
X1491335Y2063445D01*
X1492402Y2065121D01*
X1499768Y2065121D01*
X1500784Y2066798D01*
X1522577Y2066798D01*
X1522526Y2306675D01*
X1647748Y2431897D01*
X1683461Y2431389D01*
X1706321Y2433167D01*
X1734261Y2437333D01*
X1745234Y2439924D01*
X1748993Y2440635D01*
X1761642Y2443988D01*
X1771700Y2447239D01*
X1795983Y2455824D01*
X1808683Y2461971D01*
X1828850Y2471216D01*
X1837232Y2476550D01*
X1848154Y2482799D01*
X1856587Y2488895D01*
X1857146Y2490317D01*
X1859280Y2490317D01*
X1865274Y2494940D01*
X1874875Y2501646D01*
X1888540Y2512517D01*
X1921306Y2545334D01*
X1933651Y2559913D01*
X1935581Y2563215D01*
X1943150Y2573680D01*
X1947316Y2580030D01*
X1954225Y2589885D01*
X1964232Y2606700D01*
X1977288Y2635148D01*
X1984451Y2652928D01*
X1992985Y2680665D01*
X1995525Y2693263D01*
X1997964Y2703322D01*
X2001520Y2728569D01*
X2003348Y2747010D01*
X2003247Y2781503D01*
X2001469Y2804160D01*
X1998014Y2826867D01*
X1989734Y2861868D01*
X1988210Y2864662D01*
X1982876Y2882341D01*
X1972868Y2904998D01*
X1962099Y2926842D01*
X1953869Y2940761D01*
X1951431Y2943656D01*
X1941525Y2959658D01*
X1932228Y2971139D01*
X1927047Y2978505D01*
X1914652Y2992424D01*
X1897735Y3009239D01*
X1884934Y3020517D01*
X1866646Y3034588D01*
X1864360Y3037332D01*
X1866646Y3038094D01*
X1873402Y3039160D01*
X1941474Y3047542D01*
X2009546Y3050540D01*
X2012137Y3051708D01*
X2013457Y3050387D01*
X2049881Y3049066D01*
X2079294Y3048254D01*
X2082647Y3046679D01*
X2101951Y3044850D01*
X2105304Y3043326D01*
X2114550Y3042462D01*
X2126335Y3040634D01*
X2135581Y3039821D01*
X2138934Y3038297D01*
X2147316Y3037433D01*
X2154478Y3036366D01*
X2155444Y3034842D01*
X2161946Y3034842D01*
X2162962Y3033166D01*
X2169515Y3033166D01*
X2170531Y3031490D01*
X2177084Y3031490D01*
X2178100Y3029813D01*
X2184654Y3029813D01*
X2185670Y3028137D01*
X2192172Y3028137D01*
X2193239Y3026460D01*
X2199741Y3026460D01*
X2200808Y3024784D01*
X2207310Y3024784D01*
X2208377Y3023057D01*
X2214067Y3023057D01*
X2215083Y3021380D01*
X2219909Y3021380D01*
X2220976Y3019704D01*
X2224989Y3019704D01*
X2226005Y3018028D01*
X2230831Y3018028D01*
X2231898Y3016351D01*
X2235911Y3016351D01*
X2236927Y3014675D01*
X2241753Y3014675D01*
X2242820Y3012998D01*
X2246833Y3012998D01*
X2247849Y3011322D01*
X2252726Y3011322D01*
X2253742Y3009646D01*
X2257755Y3009646D01*
X2258771Y3007969D01*
X2263648Y3007969D01*
X2264664Y3006293D01*
X2268677Y3006293D01*
X2269693Y3004616D01*
X2274570Y3004616D01*
X2275586Y3002889D01*
X2279599Y3002889D01*
X2280615Y3001213D01*
X2283917Y3001213D01*
X2283917Y2999536D01*
X2286457Y2999536D01*
X2289352Y2998063D01*
X2297734Y2994710D01*
X2313279Y2987802D01*
X2315819Y2987802D01*
X2315819Y2986125D01*
X2318359Y2986125D01*
X2321306Y2984601D01*
X2329688Y2981299D01*
X2337257Y2977896D01*
X2356561Y2968345D01*
X2371699Y2960166D01*
X2387650Y2952140D01*
X2388514Y2951175D01*
X2401112Y2944926D01*
X2406091Y2941980D01*
X2409444Y2939034D01*
X2410917Y2939034D01*
X2418232Y2934004D01*
X2420010Y2934004D01*
X2420010Y2932633D01*
X2424633Y2930245D01*
X2436774Y2922219D01*
X2438501Y2922219D01*
X2438501Y2920542D01*
X2440279Y2920542D01*
X2450185Y2913837D01*
X2451963Y2913837D01*
X2451963Y2912567D01*
X2456586Y2910484D01*
X2466644Y2902915D01*
X2469184Y2900781D01*
X2475077Y2896717D01*
X2475890Y2895752D01*
X2513736Y2866339D01*
X2560726Y2822651D01*
X2569210Y2814167D01*
X2583688Y2798267D01*
X2592730Y2788920D01*
X2601010Y2779826D01*
X2612948Y2767177D01*
X2617012Y2761335D01*
X2618028Y2760472D01*
X2622042Y2754579D01*
X2623058Y2753766D01*
X2627071Y2747873D01*
X2628036Y2747010D01*
X2656941Y2708402D01*
X2656992Y2706979D01*
X2662021Y2699664D01*
X2662021Y2698597D01*
X2667101Y2691282D01*
X2667101Y2690215D01*
X2672130Y2682849D01*
X2672130Y2681782D01*
X2677160Y2674467D01*
X2677160Y2673400D01*
X2682189Y2666034D01*
X2682189Y2664968D01*
X2686862Y2657957D01*
X2688894Y2653741D01*
X2689758Y2642006D01*
X2692450Y2615946D01*
X2693974Y2614320D01*
X2693974Y2607208D01*
X2695651Y2606192D01*
X2695651Y2601315D01*
X2697327Y2600299D01*
X2697327Y2596286D01*
X2699004Y2595270D01*
X2699004Y2591968D01*
X2700528Y2589072D01*
X2705506Y2576423D01*
X2710535Y2566365D01*
X2715717Y2556764D01*
X2720848Y2549245D01*
X2720848Y2547467D01*
X2722524Y2547467D01*
X2722524Y2545232D01*
X2748178Y2515971D01*
X2759964Y2504135D01*
X2765806Y2500071D01*
X2766669Y2499055D01*
X2772562Y2494991D01*
X2773426Y2493772D01*
X2782620Y2488895D01*
X2798572Y2480005D01*
X2812034Y2473299D01*
X2822498Y2468473D01*
X2826664Y2468473D01*
X2827680Y2466797D01*
X2832506Y2466797D01*
X2833573Y2465120D01*
X2838399Y2465120D01*
X2839466Y2463444D01*
X2846832Y2463444D01*
X2847848Y2461717D01*
X2855214Y2461717D01*
X2856280Y2460040D01*
X2863646Y2460040D01*
X2864662Y2458364D01*
X2885592Y2458364D01*
X2885592Y2073503D01*
X2864662Y2073503D01*
X2863646Y2071827D01*
X2856280Y2071827D01*
X2855214Y2070150D01*
X2847848Y2070150D01*
X2846832Y2068474D01*
X2839466Y2068474D01*
X2838399Y2066798D01*
X2833573Y2066798D01*
X2832506Y2065121D01*
X2827680Y2065121D01*
X2826664Y2063445D01*
X2822498Y2063445D01*
X2819603Y2061921D01*
X2812034Y2058619D01*
X2798572Y2051913D01*
X2782620Y2042972D01*
X2773426Y2038096D01*
X2772562Y2036876D01*
X2766669Y2032812D01*
X2765806Y2031847D01*
X2759964Y2027732D01*
X2748178Y2015896D01*
X2722524Y1986635D01*
X2722524Y1984451D01*
X2720848Y1984451D01*
X2720848Y1982622D01*
X2715717Y1975104D01*
X2710535Y1965502D01*
X2705506Y1955444D01*
X2700528Y1942846D01*
X2699004Y1939899D01*
X2699004Y1936648D01*
X2697327Y1935581D01*
X2697327Y1931568D01*
X2695651Y1930552D01*
X2695651Y1925726D01*
X2693974Y1924659D01*
X2693974Y1917547D01*
X2692450Y1915922D01*
X2691384Y1906676D01*
X2688793Y1876704D01*
X2683459Y1867306D01*
X2680512Y1863953D01*
X2680512Y1861718D01*
X2679141Y1861718D01*
X2676804Y1857095D01*
X2665425Y1839925D01*
X2665425Y1838960D01*
X2662021Y1835353D01*
X2662021Y1833168D01*
X2660548Y1833168D01*
X2657906Y1827682D01*
X2645664Y1809750D01*
X2623007Y1779828D01*
X2622042Y1778965D01*
X2618028Y1773072D01*
X2617012Y1772259D01*
X2612948Y1766366D01*
X2611983Y1765503D01*
X2607868Y1759661D01*
X2595930Y1747012D01*
X2587650Y1737918D01*
X2578658Y1728571D01*
X2564130Y1712671D01*
X2557373Y1705864D01*
X2548178Y1698040D01*
X2540508Y1690725D01*
X2531364Y1682902D01*
X2523744Y1675587D01*
X2517902Y1670812D01*
X2508656Y1662125D01*
X2502814Y1658061D01*
X2501950Y1657045D01*
X2496058Y1652981D01*
X2495245Y1652016D01*
X2489352Y1647952D01*
X2488488Y1646936D01*
X2482646Y1642872D01*
X2459126Y1624685D01*
X2439771Y1611731D01*
X2435148Y1609344D01*
X2435148Y1607972D01*
X2432964Y1607972D01*
X2429357Y1604619D01*
X2428392Y1604619D01*
X2411222Y1593240D01*
X2406599Y1590852D01*
X2406599Y1589481D01*
X2404364Y1589481D01*
X2401062Y1586534D01*
X2396083Y1583639D01*
X2370023Y1570634D01*
X2369464Y1569313D01*
X2366365Y1569313D01*
X2365806Y1567992D01*
X2330551Y1550619D01*
X2317902Y1545590D01*
X2315006Y1544116D01*
X2312466Y1544116D01*
X2309520Y1542592D01*
X2281986Y1531620D01*
X2272131Y1527302D01*
X2268880Y1527302D01*
X2267813Y1525625D01*
X2263800Y1525625D01*
X2262784Y1523949D01*
X2258771Y1523949D01*
X2257755Y1522222D01*
X2253742Y1522222D01*
X2252726Y1520545D01*
X2248712Y1520545D01*
X2247646Y1518869D01*
X2243632Y1518869D01*
X2242616Y1517192D01*
X2238603Y1517192D01*
X2237587Y1515516D01*
X2233574Y1515516D01*
X2232558Y1513840D01*
X2228545Y1513840D01*
X2227478Y1512163D01*
X2223465Y1512163D01*
X2222449Y1510487D01*
X2218436Y1510487D01*
X2217420Y1508810D01*
X2213406Y1508810D01*
X2212340Y1507134D01*
X2208377Y1507134D01*
X2207310Y1505458D01*
X2200808Y1505458D01*
X2199741Y1503781D01*
X2192375Y1503781D01*
X2191359Y1502054D01*
X2183993Y1502054D01*
X2182977Y1500378D01*
X2175611Y1500378D01*
X2174544Y1498701D01*
X2167178Y1498701D01*
X2166162Y1497025D01*
X2158796Y1497025D01*
X2157730Y1495348D01*
X2150364Y1495348D01*
X2149348Y1493672D01*
X2142236Y1493672D01*
X2140610Y1492148D01*
X2128875Y1491234D01*
X2074214Y1484325D01*
X2024634Y1481937D01*
X2003653Y1481124D01*
X1935581Y1484274D01*
X1900275Y1489506D01*
X1891030Y1490370D01*
X1887677Y1491945D01*
X1867509Y1493824D01*
X1865884Y1495348D01*
X1859635Y1495348D01*
X1858568Y1497025D01*
X1852066Y1497025D01*
X1851152Y1498549D01*
X1838909Y1500530D01*
X1835556Y1501952D01*
X1822551Y1503934D01*
X1821586Y1505458D01*
X1815084Y1505458D01*
X1814068Y1507134D01*
X1807514Y1507134D01*
X1806498Y1508810D01*
X1802079Y1508810D01*
X1796084Y1510690D01*
X1793138Y1512163D01*
X1789887Y1512163D01*
X1788820Y1513840D01*
X1784705Y1513840D01*
X1781810Y1515364D01*
X1774240Y1517345D01*
X1771294Y1518869D01*
X1768043Y1518869D01*
X1766976Y1520545D01*
X1762861Y1520545D01*
X1759966Y1522069D01*
X1752396Y1524101D01*
X1749450Y1525625D01*
X1746199Y1525625D01*
X1745132Y1527302D01*
X1740306Y1527302D01*
X1739239Y1528978D01*
X1735988Y1528978D01*
X1724660Y1534210D01*
X1717090Y1537157D01*
X1708708Y1540967D01*
X1701139Y1543862D01*
X1692706Y1547672D01*
X1685137Y1550619D01*
X1676755Y1554378D01*
X1672539Y1556054D01*
X1668373Y1558340D01*
X1655724Y1564640D01*
X1655165Y1565960D01*
X1652117Y1565960D01*
X1651558Y1567180D01*
X1623822Y1581454D01*
X1622958Y1582420D01*
X1613712Y1586941D01*
X1608734Y1589887D01*
X1605432Y1592834D01*
X1604010Y1592834D01*
X1581404Y1607972D01*
X1579676Y1607972D01*
X1579676Y1609344D01*
X1575054Y1611731D01*
X1549857Y1628444D01*
X1547672Y1630629D01*
X1514551Y1655368D01*
X1513738Y1656334D01*
X1507845Y1660398D01*
X1506982Y1661414D01*
X1501140Y1665478D01*
X1488541Y1677416D01*
X1479397Y1685696D01*
X1470050Y1694688D01*
X1454150Y1709216D01*
X1447342Y1716024D01*
X1434744Y1730248D01*
X1432204Y1732737D01*
X1419656Y1747012D01*
X1417066Y1749552D01*
X1404518Y1763826D01*
X1403553Y1764690D01*
X1399540Y1770583D01*
X1398524Y1771396D01*
X1394460Y1777288D01*
X1393494Y1778152D01*
X1389430Y1783994D01*
X1388465Y1784857D01*
X1367485Y1812594D01*
X1366520Y1813407D01*
X1357833Y1826361D01*
X1357833Y1828139D01*
X1356156Y1828139D01*
X1356156Y1829866D01*
X1347774Y1842312D01*
X1347774Y1843328D01*
X1337665Y1858314D01*
X1337665Y1860042D01*
X1335989Y1860042D01*
X1335989Y1861820D01*
X1329283Y1871725D01*
X1329283Y1873351D01*
X1327404Y1874012D01*
X1319143Y1874012D01*
X1319072Y1872691D01*
X1324254Y1865223D01*
X1324254Y1863445D01*
X1325930Y1863445D01*
X1325930Y1861667D01*
X1334312Y1849221D01*
X1334312Y1848205D01*
X1342339Y1836115D01*
X1344676Y1831492D01*
X1346098Y1831492D01*
X1346098Y1829714D01*
X1350772Y1822653D01*
X1353108Y1818030D01*
X1354480Y1818030D01*
X1354480Y1815846D01*
X1357477Y1812594D01*
X1361541Y1806702D01*
X1362557Y1805838D01*
X1366570Y1799996D01*
X1367586Y1799132D01*
X1371650Y1793239D01*
X1372616Y1792427D01*
X1398625Y1757934D01*
X1401165Y1755444D01*
X1405940Y1749552D01*
X1416253Y1738630D01*
X1421079Y1732737D01*
X1431391Y1721815D01*
X1436217Y1715922D01*
X1445768Y1705864D01*
X1494434Y1660499D01*
X1522120Y1639519D01*
X1522984Y1638554D01*
X1528826Y1634489D01*
X1529689Y1633524D01*
X1535582Y1629460D01*
X1536395Y1628444D01*
X1542288Y1624431D01*
X1543151Y1623415D01*
X1549044Y1619351D01*
X1552295Y1616354D01*
X1553718Y1616354D01*
X1557324Y1613001D01*
X1559509Y1613001D01*
X1559509Y1611630D01*
X1564132Y1609242D01*
X1581302Y1597863D01*
X1582267Y1597863D01*
X1585874Y1594510D01*
X1588109Y1594510D01*
X1588109Y1593138D01*
X1592732Y1590751D01*
X1607820Y1580743D01*
X1636420Y1565706D01*
X1653235Y1557172D01*
X1654048Y1556258D01*
X1671726Y1547418D01*
X1673809Y1547469D01*
X1673809Y1545793D01*
X1676349Y1545793D01*
X1679295Y1544269D01*
X1687677Y1540967D01*
X1696059Y1537157D01*
X1700275Y1535480D01*
X1703222Y1534007D01*
X1705762Y1534007D01*
X1705762Y1532331D01*
X1708302Y1532331D01*
X1711198Y1530858D01*
X1719630Y1527505D01*
X1728012Y1523695D01*
X1732229Y1522069D01*
X1735124Y1520545D01*
X1739239Y1520545D01*
X1740306Y1518869D01*
X1744319Y1518869D01*
X1745335Y1517192D01*
X1750161Y1517192D01*
X1751228Y1515516D01*
X1755241Y1515516D01*
X1756257Y1513840D01*
X1761083Y1513840D01*
X1762150Y1512163D01*
X1766163Y1512163D01*
X1767179Y1510487D01*
X1772005Y1510487D01*
X1773072Y1508810D01*
X1777085Y1508810D01*
X1778101Y1507134D01*
X1782978Y1507134D01*
X1783994Y1505458D01*
X1788007Y1505458D01*
X1789023Y1503781D01*
X1793138Y1503781D01*
X1796084Y1502257D01*
X1802079Y1500378D01*
X1806498Y1500378D01*
X1807514Y1498701D01*
X1814068Y1498701D01*
X1815084Y1497025D01*
X1821586Y1497025D01*
X1822653Y1495348D01*
X1829155Y1495348D01*
X1830222Y1493672D01*
X1836724Y1493672D01*
X1837791Y1491996D01*
X1844293Y1491996D01*
X1845360Y1490319D01*
X1851863Y1490319D01*
X1852879Y1488643D01*
X1859432Y1488643D01*
X1860448Y1486966D01*
X1867001Y1486966D01*
X1868017Y1485290D01*
X1878533Y1485290D01*
X1880107Y1483715D01*
X1890217Y1482801D01*
X1902815Y1481023D01*
X1912061Y1480159D01*
X1915414Y1478635D01*
X1924659Y1477772D01*
X1938070Y1475994D01*
X1974240Y1474216D01*
X2035556Y1474216D01*
X2071725Y1476044D01*
X2148179Y1485442D01*
X2149754Y1486966D01*
X2156917Y1486966D01*
X2157933Y1488643D01*
X2165045Y1488643D01*
X2166670Y1490116D01*
X2173376Y1491081D01*
X2213305Y1498904D01*
X2214270Y1500378D01*
X2218232Y1500378D01*
X2219299Y1502054D01*
X2223312Y1502054D01*
X2224328Y1503781D01*
X2228342Y1503781D01*
X2229358Y1505458D01*
X2233371Y1505458D01*
X2234438Y1507134D01*
X2238400Y1507134D01*
X2239467Y1508810D01*
X2243480Y1508810D01*
X2244496Y1510487D01*
X2248509Y1510487D01*
X2249525Y1512163D01*
X2253538Y1512163D01*
X2254554Y1513840D01*
X2258568Y1513840D01*
X2259634Y1515516D01*
X2263648Y1515516D01*
X2264664Y1517192D01*
X2268677Y1517192D01*
X2269693Y1518869D01*
X2272995Y1518869D01*
X2275890Y1520342D01*
X2295245Y1528114D01*
X2304897Y1532331D01*
X2307437Y1532331D01*
X2310384Y1533804D01*
X2335580Y1543913D01*
X2360777Y1556258D01*
X2361336Y1557528D01*
X2364435Y1557528D01*
X2364994Y1558848D01*
X2397760Y1575257D01*
X2405024Y1579422D01*
X2422144Y1590751D01*
X2426766Y1593138D01*
X2426766Y1594510D01*
X2428494Y1594510D01*
X2450693Y1609242D01*
X2455316Y1611630D01*
X2455316Y1613001D01*
X2457500Y1613001D01*
X2460802Y1615998D01*
X2466644Y1620062D01*
X2467508Y1621078D01*
X2473401Y1625092D01*
X2474214Y1626107D01*
X2507335Y1650847D01*
X2509520Y1652981D01*
X2515412Y1657045D01*
X2517952Y1659636D01*
X2532227Y1672234D01*
X2534716Y1674774D01*
X2548991Y1687322D01*
X2551531Y1689912D01*
X2565755Y1702511D01*
X2576880Y1714246D01*
X2585161Y1723440D01*
X2612948Y1752904D01*
X2617012Y1758797D01*
X2617927Y1759661D01*
X2639364Y1787804D01*
X2639872Y1788210D01*
X2643886Y1794103D01*
X2644902Y1794916D01*
X2648915Y1800809D01*
X2649931Y1801672D01*
X2653995Y1807565D01*
X2656992Y1810816D01*
X2656992Y1812239D01*
X2660345Y1815846D01*
X2660345Y1818030D01*
X2662021Y1818030D01*
X2662021Y1819757D01*
X2675483Y1839823D01*
X2675483Y1840788D01*
X2678836Y1844395D01*
X2678836Y1846630D01*
X2680512Y1846630D01*
X2680512Y1848357D01*
X2691942Y1865528D01*
X2695498Y1873097D01*
X2696718Y1877263D01*
X2698242Y1894078D01*
X2699156Y1908403D01*
X2700680Y1909978D01*
X2700680Y1917090D01*
X2702356Y1918157D01*
X2702356Y1924659D01*
X2704084Y1925726D01*
X2704084Y1929688D01*
X2705760Y1930755D01*
X2705760Y1934768D01*
X2707436Y1935784D01*
X2707436Y1939086D01*
X2708910Y1941982D01*
X2712262Y1950415D01*
X2718409Y1963013D01*
X2723438Y1971395D01*
X2724404Y1974342D01*
X2725928Y1974342D01*
X2725928Y1976120D01*
X2731262Y1983993D01*
X2739796Y1994103D01*
X2742336Y1996592D01*
X2751531Y2007463D01*
X2766669Y2022652D01*
X2772562Y2026767D01*
X2773375Y2027783D01*
X2778404Y2031288D01*
X2793542Y2039620D01*
X2801112Y2044039D01*
X2823565Y2055012D01*
X2826664Y2055012D01*
X2827680Y2056688D01*
X2832506Y2056688D01*
X2833573Y2058365D01*
X2838399Y2058365D01*
X2839466Y2060041D01*
X2845968Y2060041D01*
X2847035Y2061718D01*
X2854401Y2061718D01*
X2855417Y2063445D01*
X2862783Y2063445D01*
X2863799Y2065121D01*
X2871165Y2065121D01*
X2872232Y2066798D01*
X2892298Y2066798D01*
X2892298Y2465120D01*
X2872232Y2465120D01*
X2871165Y2466797D01*
X2863799Y2466797D01*
X2862783Y2468473D01*
X2855417Y2468473D01*
X2854401Y2470150D01*
X2847035Y2470150D01*
X2845968Y2471826D01*
X2839466Y2471826D01*
X2838399Y2473502D01*
X2833573Y2473502D01*
X2832506Y2475179D01*
X2827680Y2475179D01*
X2826664Y2476855D01*
X2823565Y2476855D01*
X2801112Y2487828D01*
X2793542Y2492248D01*
X2778404Y2500579D01*
X2773375Y2504084D01*
X2772562Y2505100D01*
X2766669Y2509215D01*
X2751531Y2524455D01*
X2742336Y2535275D01*
X2739796Y2537815D01*
X2731262Y2547874D01*
X2725928Y2555748D01*
X2725928Y2557526D01*
X2724404Y2557526D01*
X2723438Y2560472D01*
X2718409Y2568905D01*
X2712262Y2581503D01*
X2708910Y2589885D01*
X2707436Y2592832D01*
X2707436Y2596083D01*
X2705760Y2597150D01*
X2705760Y2601112D01*
X2704084Y2602179D01*
X2704084Y2606192D01*
X2702356Y2607208D01*
X2702356Y2613761D01*
X2700680Y2614777D01*
X2700680Y2621889D01*
X2699156Y2623515D01*
X2698191Y2638653D01*
X2696667Y2655417D01*
X2695397Y2659634D01*
X2692298Y2664104D01*
X2692298Y2665222D01*
X2687269Y2672537D01*
X2687269Y2673604D01*
X2682189Y2680970D01*
X2682189Y2682036D01*
X2677160Y2689352D01*
X2677160Y2690418D01*
X2672130Y2697734D01*
X2672130Y2698851D01*
X2667101Y2706166D01*
X2667101Y2707233D01*
X2662021Y2714548D01*
X2662021Y2716022D01*
X2659075Y2719324D01*
X2654960Y2725166D01*
X2653995Y2726029D01*
X2649931Y2731922D01*
X2648915Y2732735D01*
X2644902Y2738628D01*
X2643936Y2739491D01*
X2628138Y2760472D01*
X2622042Y2768041D01*
X2617978Y2773934D01*
X2613710Y2778150D01*
X2605430Y2787345D01*
X2569108Y2826004D01*
X2519324Y2872435D01*
X2506167Y2882290D01*
X2503932Y2884474D01*
X2497734Y2889046D01*
X2496921Y2889961D01*
X2491028Y2894025D01*
X2488793Y2896209D01*
X2482646Y2900832D01*
X2480411Y2902915D01*
X2467508Y2912567D01*
X2464257Y2915513D01*
X2462022Y2915513D01*
X2462022Y2917190D01*
X2460294Y2917190D01*
X2450388Y2923946D01*
X2448610Y2923946D01*
X2448610Y2925622D01*
X2446832Y2925622D01*
X2431846Y2935681D01*
X2430881Y2935681D01*
X2418435Y2944114D01*
X2417368Y2944114D01*
X2410358Y2948940D01*
X2402789Y2953308D01*
X2390190Y2959557D01*
X2389632Y2960878D01*
X2386533Y2960878D01*
X2385974Y2962148D01*
X2358288Y2976422D01*
X2357424Y2977337D01*
X2338527Y2986328D01*
X2329078Y2990189D01*
X2316683Y2995574D01*
X2311196Y2997657D01*
X2302814Y3001467D01*
X2295245Y3004362D01*
X2283460Y3009544D01*
X2276754Y3011525D01*
X2273808Y3012998D01*
X2270556Y3012998D01*
X2269490Y3014675D01*
X2265375Y3014675D01*
X2262479Y3016199D01*
X2254910Y3018231D01*
X2251964Y3019704D01*
X2248712Y3019704D01*
X2247646Y3021380D01*
X2243531Y3021380D01*
X2240635Y3022904D01*
X2233066Y3024936D01*
X2230120Y3026460D01*
X2226868Y3026460D01*
X2225802Y3028137D01*
X2220976Y3028137D01*
X2219909Y3029813D01*
X2215083Y3029813D01*
X2214067Y3031490D01*
X2207514Y3031490D01*
X2206498Y3033166D01*
X2199944Y3033166D01*
X2199030Y3034690D01*
X2186838Y3036620D01*
X2183485Y3038094D01*
X2170430Y3040075D01*
X2169515Y3041548D01*
X2162962Y3041548D01*
X2161946Y3043275D01*
X2155647Y3043275D01*
X2154072Y3044748D01*
X2101951Y3052572D01*
X2092706Y3053435D01*
X2089353Y3054908D01*
X2077567Y3055924D01*
X2042312Y3057652D01*
X1980946Y3057702D01*
X1944827Y3055874D01*
X1866646Y3046425D01*
X1865071Y3044952D01*
X1858060Y3044952D01*
X1856181Y3042666D01*
X1857400Y3041294D01*
X1854911Y3042716D01*
X1843125Y3050590D01*
X1833880Y3056483D01*
X1815388Y3065729D01*
X1786483Y3078530D01*
X1785264Y3078530D01*
X1759254Y3087014D01*
X1733905Y3092856D01*
X1702816Y3097682D01*
G37*
G36*
X1731467Y3065932D02*
G01*
X1701546Y3036011D01*
X1701546Y3030677D01*
X1705660Y3027984D01*
X1731975Y3033166D01*
X1735480Y3033166D01*
X1720037Y3017418D01*
X1720037Y3012186D01*
X1724152Y3009493D01*
X1729892Y3012236D01*
X1757019Y3039668D01*
X1757019Y3045815D01*
X1752904Y3047695D01*
X1737258Y3044850D01*
X1731365Y3043377D01*
X1724253Y3042259D01*
X1724253Y3043580D01*
X1738528Y3058160D01*
X1738528Y3063290D01*
X1735886Y3065932D01*
G37*
G36*
X1758696Y3032302D02*
G01*
X1748078Y3028086D01*
X1739493Y3019298D01*
X1736140Y3013151D01*
X1734312Y3006699D01*
X1734715Y3004413D01*
X1744624Y3004413D01*
X1747774Y3013354D01*
X1753209Y3018993D01*
X1758238Y3021126D01*
X1762455Y3022092D01*
X1766620Y3020466D01*
X1769618Y3017774D01*
X1769618Y3010408D01*
X1767230Y3005836D01*
X1760778Y2999638D01*
X1754530Y2997047D01*
X1750415Y2997047D01*
X1745437Y3001213D01*
X1744624Y3004413D01*
X1734715Y3004413D01*
X1736140Y2996336D01*
X1743608Y2988716D01*
X1749704Y2986735D01*
X1760270Y2987598D01*
X1768093Y2992170D01*
X1776120Y3000349D01*
X1779676Y3007868D01*
X1780743Y3016961D01*
X1778660Y3023209D01*
X1773428Y3029204D01*
X1766671Y3032302D01*
G37*
G36*
X1796084Y3002940D02*
G01*
X1786585Y3002229D01*
X1776374Y2997657D01*
X1768906Y2989681D01*
X1765249Y2981706D01*
X1764354Y2972612D01*
X1774647Y2972612D01*
X1774647Y2977794D01*
X1778203Y2984855D01*
X1781810Y2988767D01*
X1790649Y2992831D01*
X1791868Y2992729D01*
X1796084Y2991053D01*
X1800707Y2986633D01*
X1800707Y2984804D01*
X1781302Y2965500D01*
X1774647Y2972612D01*
X1764354Y2972612D01*
X1767230Y2965043D01*
X1778863Y2953359D01*
X1784248Y2953359D01*
X1813306Y2982366D01*
X1813306Y2989122D01*
X1802790Y2999486D01*
G37*
G36*
X2267102Y2977692D02*
G01*
X2267102Y2976016D01*
X2263800Y2976016D01*
X2262784Y2974340D01*
X2259076Y2974340D01*
X2256637Y2970987D01*
X2252776Y2970987D01*
X2245258Y2963468D01*
X2245258Y2960319D01*
X2240178Y2955036D01*
X2240178Y2951734D01*
X2238502Y2950718D01*
X2238502Y2945028D01*
X2236825Y2944012D01*
X2236825Y2930652D01*
X2243531Y2930652D01*
X2243531Y2939796D01*
X2245258Y2940812D01*
X2245258Y2946501D01*
X2246934Y2947568D01*
X2246934Y2950210D01*
X2249881Y2952953D01*
X2251964Y2956661D01*
X2251964Y2958439D01*
X2257806Y2964281D01*
X2261666Y2964281D01*
X2264105Y2967634D01*
X2267000Y2967634D01*
X2268016Y2969310D01*
X2272131Y2969310D01*
X2272131Y2970987D01*
X2286304Y2970987D01*
X2287371Y2969310D01*
X2290622Y2969310D01*
X2290622Y2967634D01*
X2295296Y2967634D01*
X2297734Y2964281D01*
X2300020Y2964281D01*
X2309114Y2954782D01*
X2309114Y2952496D01*
X2310790Y2952496D01*
X2310790Y2949143D01*
X2312466Y2949143D01*
X2312466Y2944114D01*
X2314143Y2944114D01*
X2314143Y2937357D01*
X2315819Y2937357D01*
X2315819Y2933242D01*
X2314143Y2932226D01*
X2314143Y2925622D01*
X2312466Y2925622D01*
X2312466Y2922219D01*
X2310790Y2922219D01*
X2310790Y2918002D01*
X2296515Y2903778D01*
X2294077Y2903778D01*
X2293061Y2902051D01*
X2288946Y2902051D01*
X2288946Y2900375D01*
X2270455Y2900375D01*
X2270455Y2902051D01*
X2265426Y2902051D01*
X2265426Y2903778D01*
X2262022Y2903778D01*
X2262022Y2905455D01*
X2259787Y2905455D01*
X2251964Y2912821D01*
X2251964Y2914700D01*
X2246934Y2919984D01*
X2246934Y2923946D01*
X2245258Y2923946D01*
X2245258Y2930652D01*
X2236825Y2930652D01*
X2236825Y2925622D01*
X2238502Y2925622D01*
X2238502Y2918866D01*
X2240178Y2918866D01*
X2240178Y2916326D01*
X2242312Y2912618D01*
X2245258Y2909874D01*
X2245258Y2907893D01*
X2252421Y2900832D01*
X2256993Y2898444D01*
X2256993Y2897022D01*
X2260346Y2897022D01*
X2260346Y2895346D01*
X2265426Y2895346D01*
X2265426Y2893669D01*
X2274570Y2893669D01*
X2275586Y2891993D01*
X2283917Y2891993D01*
X2283917Y2893669D01*
X2293975Y2893669D01*
X2293975Y2895346D01*
X2297226Y2895346D01*
X2298293Y2897022D01*
X2301544Y2897022D01*
X2317496Y2912973D01*
X2317496Y2917190D01*
X2319172Y2917190D01*
X2319172Y2920542D01*
X2320848Y2920542D01*
X2320848Y2928010D01*
X2322525Y2929077D01*
X2322525Y2942386D01*
X2320848Y2942386D01*
X2320848Y2949143D01*
X2319172Y2949143D01*
X2319172Y2954172D01*
X2317496Y2954172D01*
X2317496Y2957525D01*
X2316124Y2957525D01*
X2313736Y2962148D01*
X2304948Y2970987D01*
X2302764Y2970987D01*
X2300325Y2974340D01*
X2295652Y2974340D01*
X2295652Y2976016D01*
X2291537Y2976016D01*
X2290521Y2977692D01*
G37*
G36*
X1822145Y2976016D02*
G01*
X1813306Y2975305D01*
X1804416Y2971241D01*
X1795729Y2962452D01*
X1791970Y2954680D01*
X1791279Y2945993D01*
X1801520Y2945993D01*
X1801571Y2950413D01*
X1806448Y2958896D01*
X1812442Y2963468D01*
X1819605Y2965907D01*
X1822957Y2964027D01*
X1827580Y2959760D01*
X1827580Y2957931D01*
X1808124Y2938627D01*
X1801520Y2945993D01*
X1791279Y2945993D01*
X1794103Y2938221D01*
X1806143Y2926435D01*
X1811070Y2926435D01*
X1841246Y2956661D01*
X1840179Y2962148D01*
X1830527Y2972003D01*
G37*
G36*
X1854911Y2944672D02*
G01*
X1839772Y2938729D01*
X1827174Y2932480D01*
X1814271Y2926537D01*
X1813938Y2925927D01*
X1839214Y2925927D01*
X1842211Y2928112D01*
X1843582Y2928112D01*
X1843532Y2926029D01*
X1842007Y2923590D01*
X1839214Y2925927D01*
X1813938Y2925927D01*
X1812442Y2923184D01*
X1812442Y2919780D01*
X1816303Y2917240D01*
X1828342Y2921406D01*
X1837131Y2912821D01*
X1834083Y2904998D01*
X1833270Y2899511D01*
X1835353Y2897022D01*
X1839925Y2897022D01*
X1843278Y2900832D01*
X1856181Y2928924D01*
X1856181Y2929890D01*
X1860550Y2939491D01*
X1859076Y2943606D01*
G37*
G36*
X1893112Y2905455D02*
G01*
X1889607Y2901899D01*
X1890623Y2896717D01*
X1904238Y2882747D01*
X1898853Y2877718D01*
X1890420Y2885287D01*
X1885594Y2885287D01*
X1883003Y2881274D01*
X1884578Y2877261D01*
X1890623Y2871470D01*
X1890623Y2869184D01*
X1882597Y2861310D01*
X1878736Y2855874D01*
X1879803Y2852470D01*
X1883156Y2850692D01*
X1887728Y2851708D01*
X1914906Y2878988D01*
X1916633Y2883611D01*
X1915160Y2887370D01*
X1896770Y2905455D01*
G37*
G36*
X1918919Y2879394D02*
G01*
X1915820Y2876600D01*
X1915820Y2871876D01*
X1920849Y2866136D01*
X1920849Y2863951D01*
X1897329Y2840075D01*
X1897329Y2835198D01*
X1899361Y2833166D01*
X1903323Y2833166D01*
X1907844Y2835554D01*
X1928825Y2856687D01*
X1930298Y2856687D01*
X1936038Y2851658D01*
X1940458Y2851658D01*
X1943557Y2854452D01*
X1943557Y2858719D01*
X1922881Y2879394D01*
G37*
G36*
X1951532Y2847543D02*
G01*
X1940814Y2846781D01*
X1936394Y2843530D01*
X1935886Y2838907D01*
X1938680Y2835808D01*
X1950313Y2836773D01*
X1953818Y2833573D01*
X1955393Y2829458D01*
X1954275Y2822752D01*
X1944827Y2813405D01*
X1937359Y2811475D01*
X1933702Y2812897D01*
X1930044Y2817520D01*
X1931162Y2828798D01*
X1926539Y2831795D01*
X1922170Y2829356D01*
X1919935Y2825191D01*
X1920900Y2812592D01*
X1924659Y2807360D01*
X1929841Y2802991D01*
X1937918Y2801924D01*
X1943150Y2801772D01*
X1952802Y2806192D01*
X1961032Y2814472D01*
X1964639Y2821838D01*
X1965604Y2832049D01*
X1963572Y2838348D01*
X1958289Y2844342D01*
G37*
G36*
X2277160Y2258364D02*
G01*
X2277160Y2256688D01*
X2272131Y2256688D01*
X2272131Y2255012D01*
X2268880Y2255012D01*
X2267813Y2253335D01*
X2264511Y2253335D01*
X2253640Y2242464D01*
X2253640Y2239873D01*
X2251964Y2239873D01*
X2251964Y2235809D01*
X2250287Y2234742D01*
X2250287Y2215642D01*
X2256993Y2215642D01*
X2256993Y2230526D01*
X2258669Y2231593D01*
X2258669Y2234844D01*
X2260346Y2234844D01*
X2260346Y2237384D01*
X2269591Y2246630D01*
X2272030Y2246630D01*
X2273046Y2248306D01*
X2277160Y2248306D01*
X2277160Y2249982D01*
X2282190Y2249982D01*
X2282190Y2251659D01*
X2285593Y2251659D01*
X2285593Y2249982D01*
X2292299Y2249982D01*
X2292299Y2248306D01*
X2295652Y2248306D01*
X2295652Y2246630D01*
X2298649Y2246630D01*
X2301087Y2243277D01*
X2303322Y2243277D01*
X2305761Y2240838D01*
X2305761Y2238603D01*
X2309114Y2236165D01*
X2309114Y2233168D01*
X2310790Y2233168D01*
X2310790Y2226462D01*
X2312466Y2226462D01*
X2312466Y2219706D01*
X2310790Y2219706D01*
X2310790Y2213000D01*
X2309114Y2213000D01*
X2309114Y2210003D01*
X2305761Y2207564D01*
X2305761Y2205329D01*
X2303322Y2202891D01*
X2301087Y2202891D01*
X2298649Y2199538D01*
X2295652Y2199538D01*
X2295652Y2197862D01*
X2292299Y2197862D01*
X2292299Y2196185D01*
X2285593Y2196185D01*
X2285593Y2194509D01*
X2282190Y2194509D01*
X2282190Y2196185D01*
X2277160Y2196185D01*
X2277160Y2197862D01*
X2273046Y2197862D01*
X2272030Y2199538D01*
X2269591Y2199538D01*
X2260346Y2208784D01*
X2260346Y2211324D01*
X2258669Y2211324D01*
X2258669Y2214575D01*
X2256993Y2215642D01*
X2250287Y2215642D01*
X2250287Y2211425D01*
X2251964Y2210358D01*
X2251964Y2206294D01*
X2253640Y2206294D01*
X2253640Y2203704D01*
X2264511Y2192832D01*
X2267813Y2192832D01*
X2268880Y2191156D01*
X2272131Y2191156D01*
X2272131Y2189480D01*
X2277160Y2189480D01*
X2277160Y2187803D01*
X2290622Y2187803D01*
X2290622Y2189480D01*
X2297328Y2189480D01*
X2297328Y2191156D01*
X2300681Y2191156D01*
X2300681Y2192832D01*
X2303678Y2192832D01*
X2306116Y2196185D01*
X2308352Y2196185D01*
X2312466Y2200300D01*
X2312466Y2202535D01*
X2315819Y2204974D01*
X2315819Y2207971D01*
X2317496Y2207971D01*
X2317496Y2214676D01*
X2319172Y2214676D01*
X2319172Y2231491D01*
X2317496Y2231491D01*
X2317496Y2238197D01*
X2315819Y2238197D01*
X2315819Y2241194D01*
X2312466Y2243632D01*
X2312466Y2245868D01*
X2308352Y2249982D01*
X2306116Y2249982D01*
X2303678Y2253335D01*
X2300681Y2253335D01*
X2300681Y2255012D01*
X2297328Y2255012D01*
X2297328Y2256688D01*
X2290622Y2256688D01*
X2290622Y2258364D01*
G37*
G36*
X1818335Y2258364D02*
G01*
X1818335Y2256688D01*
X1811629Y2256688D01*
X1811629Y2255012D01*
X1808276Y2255012D01*
X1808276Y2253335D01*
X1805279Y2253335D01*
X1802841Y2249982D01*
X1800656Y2249982D01*
X1794814Y2244140D01*
X1794814Y2241550D01*
X1793138Y2241550D01*
X1793138Y2238197D01*
X1791462Y2238197D01*
X1791462Y2233168D01*
X1789785Y2233168D01*
X1789785Y2218029D01*
X1796491Y2218029D01*
X1796491Y2228138D01*
X1798167Y2228138D01*
X1798167Y2233168D01*
X1799843Y2233168D01*
X1799843Y2236520D01*
X1801520Y2236520D01*
X1801520Y2239111D01*
X1805686Y2243277D01*
X1807870Y2243277D01*
X1810308Y2246630D01*
X1813306Y2246630D01*
X1813306Y2248306D01*
X1816658Y2248306D01*
X1816658Y2249982D01*
X1823364Y2249982D01*
X1823364Y2251659D01*
X1825802Y2251659D01*
X1826869Y2249982D01*
X1831797Y2249982D01*
X1831797Y2248306D01*
X1835150Y2248306D01*
X1835150Y2246630D01*
X1839518Y2246630D01*
X1840382Y2243277D01*
X1842770Y2243277D01*
X1846935Y2239111D01*
X1846935Y2236927D01*
X1850288Y2234488D01*
X1850288Y2228138D01*
X1851964Y2228138D01*
X1851964Y2218029D01*
X1850288Y2218029D01*
X1850288Y2211679D01*
X1846935Y2209292D01*
X1846935Y2207056D01*
X1842770Y2202891D01*
X1840382Y2202891D01*
X1839518Y2199538D01*
X1835150Y2199538D01*
X1835150Y2197862D01*
X1831797Y2197862D01*
X1831797Y2196185D01*
X1827580Y2196185D01*
X1824024Y2194102D01*
X1823262Y2196185D01*
X1816658Y2196185D01*
X1816658Y2197862D01*
X1813306Y2197862D01*
X1813306Y2199538D01*
X1810308Y2199538D01*
X1807870Y2202891D01*
X1805686Y2202891D01*
X1801520Y2207056D01*
X1801520Y2209647D01*
X1799843Y2209647D01*
X1799843Y2213000D01*
X1798167Y2213000D01*
X1798167Y2218029D01*
X1789785Y2218029D01*
X1789785Y2213000D01*
X1791462Y2213000D01*
X1791462Y2207971D01*
X1793138Y2207971D01*
X1793138Y2204618D01*
X1794814Y2204618D01*
X1794814Y2202027D01*
X1800656Y2196185D01*
X1802841Y2196185D01*
X1805279Y2192832D01*
X1808276Y2192832D01*
X1808276Y2191156D01*
X1811629Y2191156D01*
X1811629Y2189480D01*
X1818335Y2189480D01*
X1818335Y2187803D01*
X1830019Y2187803D01*
X1831035Y2189480D01*
X1836826Y2189480D01*
X1836826Y2191156D01*
X1840179Y2191156D01*
X1840179Y2192832D01*
X1842719Y2192832D01*
X1846376Y2194915D01*
X1853641Y2202027D01*
X1853641Y2204212D01*
X1856993Y2206650D01*
X1856993Y2213000D01*
X1858670Y2213000D01*
X1858670Y2233168D01*
X1856993Y2233168D01*
X1856993Y2239518D01*
X1853641Y2241956D01*
X1853641Y2244140D01*
X1846376Y2251252D01*
X1842719Y2253335D01*
X1840179Y2253335D01*
X1840179Y2255012D01*
X1836826Y2255012D01*
X1836826Y2256688D01*
X1831035Y2256688D01*
X1830019Y2258364D01*
G37*
D10*
X2667000Y3326637D02*
G01*
X2667000Y3231134D01*
X2667000Y3326637D02*
G01*
X2626106Y3326637D01*
X2612390Y3322065D01*
X2607818Y3317494D01*
X2603245Y3308604D01*
X2603245Y3294887D01*
X2607818Y3285744D01*
X2612390Y3281171D01*
X2626106Y3276600D01*
X2667000Y3276600D01*
X2573274Y3326637D02*
G01*
X2573274Y3231134D01*
X2573274Y3231134D02*
G01*
X2518918Y3231134D01*
X2488691Y3326637D02*
G01*
X2488691Y3258565D01*
X2484374Y3244850D01*
X2475229Y3235705D01*
X2461513Y3231134D01*
X2452370Y3231134D01*
X2438908Y3235705D01*
X2429763Y3244850D01*
X2425191Y3258565D01*
X2425191Y3326637D01*
X2326893Y3304031D02*
G01*
X2331465Y3313176D01*
X2340609Y3322065D01*
X2349754Y3326637D01*
X2367788Y3326637D01*
X2376931Y3322065D01*
X2386075Y3313176D01*
X2390647Y3304031D01*
X2395220Y3290315D01*
X2395220Y3267710D01*
X2390647Y3253994D01*
X2386075Y3244850D01*
X2376931Y3235705D01*
X2367788Y3231134D01*
X2349754Y3231134D01*
X2340609Y3235705D01*
X2331465Y3244850D01*
X2326893Y3253994D01*
X2326893Y3267710D01*
X2349754Y3267710D02*
G01*
X2326893Y3267710D01*
X2227072Y3326637D02*
G01*
X2227072Y3231134D01*
X2227072Y3326637D02*
G01*
X2190750Y3231134D01*
X2154174Y3326637D02*
G01*
X2190750Y3231134D01*
X2154174Y3326637D02*
G01*
X2154174Y3231134D01*
X2124202Y3326637D02*
G01*
X2124202Y3231134D01*
X2124202Y3326637D02*
G01*
X2065274Y3326637D01*
X2124202Y3281171D02*
G01*
X2087879Y3281171D01*
X2124202Y3231134D02*
G01*
X2065274Y3231134D01*
X1965197Y3326637D02*
G01*
X1965197Y3231134D01*
X1965197Y3231134D02*
G01*
X1910587Y3231134D01*
X1880615Y3326637D02*
G01*
X1880615Y3231134D01*
X1850644Y3326637D02*
G01*
X1850644Y3231134D01*
X1786889Y3326637D02*
G01*
X1850644Y3263137D01*
X1827784Y3285744D02*
G01*
X1786889Y3231134D01*
X1756918Y3326637D02*
G01*
X1756918Y3231134D01*
X1756918Y3326637D02*
G01*
X1697989Y3326637D01*
X1756918Y3281171D02*
G01*
X1720595Y3281171D01*
X1756918Y3231134D02*
G01*
X1697989Y3231134D01*
X1566163Y3326637D02*
G01*
X1566163Y3231134D01*
X1597913Y3326637D02*
G01*
X1534160Y3326637D01*
X1504187Y3326637D02*
G01*
X1504187Y3231134D01*
X1440687Y3326637D02*
G01*
X1440687Y3231134D01*
X1504187Y3281171D02*
G01*
X1440687Y3281171D01*
X1374394Y3326637D02*
G01*
X1410715Y3231134D01*
X1374394Y3326637D02*
G01*
X1337818Y3231134D01*
X1397000Y3263137D02*
G01*
X1351534Y3263137D01*
X1276095Y3326637D02*
G01*
X1276095Y3231134D01*
X1307845Y3326637D02*
G01*
X1244345Y3326637D01*
X2323845Y5383276D02*
G01*
X2332990Y5392165D01*
X2346706Y5396737D01*
X2364993Y5396737D01*
X2378456Y5392165D01*
X2387600Y5383276D01*
X2387600Y5374131D01*
X2383027Y5364987D01*
X2378456Y5360415D01*
X2369311Y5355844D01*
X2342134Y5346700D01*
X2332990Y5342381D01*
X2328418Y5337810D01*
X2323845Y5328665D01*
X2323845Y5314950D01*
X2332990Y5305805D01*
X2346706Y5301234D01*
X2364993Y5301234D01*
X2378456Y5305805D01*
X2387600Y5314950D01*
X2257552Y5396737D02*
G01*
X2293874Y5301234D01*
X2257552Y5396737D02*
G01*
X2221229Y5301234D01*
X2280411Y5333237D02*
G01*
X2234945Y5333237D01*
X2164079Y5396737D02*
G01*
X2172970Y5392165D01*
X2182113Y5383276D01*
X2186686Y5374131D01*
X2191258Y5360415D01*
X2191258Y5337810D01*
X2186686Y5324094D01*
X2182113Y5314950D01*
X2172970Y5305805D01*
X2164079Y5301234D01*
X2145791Y5301234D01*
X2136647Y5305805D01*
X2127504Y5314950D01*
X2122931Y5324094D01*
X2118613Y5337810D01*
X2118613Y5360415D01*
X2122931Y5374131D01*
X2127504Y5383276D01*
X2136647Y5392165D01*
X2145791Y5396737D01*
X2164079Y5396737D01*
X2088388Y5342381D02*
G01*
X2006600Y5342381D01*
X1976627Y5396737D02*
G01*
X1976627Y5301234D01*
X1913128Y5396737D02*
G01*
X1913128Y5301234D01*
X1976627Y5351271D02*
G01*
X1913128Y5351271D01*
X1883155Y5396737D02*
G01*
X1883155Y5301234D01*
X1883155Y5396737D02*
G01*
X1823973Y5396737D01*
X1883155Y5351271D02*
G01*
X1846579Y5351271D01*
X1883155Y5301234D02*
G01*
X1823973Y5301234D01*
X1757679Y5396737D02*
G01*
X1794002Y5301234D01*
X1757679Y5396737D02*
G01*
X1721357Y5301234D01*
X1780286Y5333237D02*
G01*
X1734820Y5333237D01*
X1691131Y5396737D02*
G01*
X1691131Y5301234D01*
X1691131Y5396737D02*
G01*
X1659381Y5396737D01*
X1645665Y5392165D01*
X1636776Y5383276D01*
X1632204Y5374131D01*
X1627631Y5360415D01*
X1627631Y5337810D01*
X1632204Y5324094D01*
X1636776Y5314950D01*
X1645665Y5305805D01*
X1659381Y5301234D01*
X1691131Y5301234D01*
X1597660Y5396737D02*
G01*
X1597660Y5301234D01*
X1597660Y5396737D02*
G01*
X1538478Y5396737D01*
X1597660Y5351271D02*
G01*
X1561337Y5351271D01*
X1597660Y5301234D02*
G01*
X1538478Y5301234D01*
X1508505Y5396737D02*
G01*
X1508505Y5301234D01*
X1508505Y5396737D02*
G01*
X1467612Y5396737D01*
X1453895Y5392165D01*
X1449323Y5387594D01*
X1444752Y5378704D01*
X1444752Y5369560D01*
X1449323Y5360415D01*
X1453895Y5355844D01*
X1467612Y5351271D01*
X1508505Y5351271D01*
X1476755Y5351271D02*
G01*
X1444752Y5301234D01*
X2857500Y1383609D02*
G01*
X2857500Y1288153D01*
X2857500Y1333609D02*
G01*
X2843862Y1347246D01*
X2834772Y1351790D01*
X2821137Y1351790D01*
X2812046Y1347246D01*
X2807500Y1333609D01*
X2807500Y1288153D01*
X2763862Y1383609D02*
G01*
X2763862Y1306337D01*
X2759318Y1292699D01*
X2750228Y1288153D01*
X2741137Y1288153D01*
X2777500Y1351790D02*
G01*
X2745681Y1351790D01*
X2697500Y1383609D02*
G01*
X2697500Y1306337D01*
X2692953Y1292699D01*
X2683863Y1288153D01*
X2674772Y1288153D01*
X2711137Y1351790D02*
G01*
X2679318Y1351790D01*
X2644772Y1351790D02*
G01*
X2644772Y1256337D01*
X2644772Y1338153D02*
G01*
X2635681Y1347246D01*
X2626591Y1351790D01*
X2612953Y1351790D01*
X2603863Y1347246D01*
X2594772Y1338153D01*
X2590228Y1324518D01*
X2590228Y1315427D01*
X2594772Y1301790D01*
X2603863Y1292699D01*
X2612953Y1288153D01*
X2626591Y1288153D01*
X2635681Y1292699D01*
X2644772Y1301790D01*
X2510228Y1338153D02*
G01*
X2514772Y1347246D01*
X2528409Y1351790D01*
X2542047Y1351790D01*
X2555681Y1347246D01*
X2560228Y1338153D01*
X2555681Y1329062D01*
X2546591Y1324518D01*
X2523863Y1319971D01*
X2514772Y1315427D01*
X2510228Y1306337D01*
X2510228Y1301790D01*
X2514772Y1292699D01*
X2528409Y1288153D01*
X2542047Y1288153D01*
X2555681Y1292699D01*
X2560228Y1301790D01*
X2475682Y1342699D02*
G01*
X2480228Y1338153D01*
X2475682Y1333609D01*
X2471138Y1338153D01*
X2475682Y1342699D01*
X2475682Y1310881D02*
G01*
X2480228Y1306337D01*
X2475682Y1301790D01*
X2471138Y1306337D01*
X2475682Y1310881D01*
X2359319Y1401790D02*
G01*
X2441138Y1256337D01*
X2247501Y1401790D02*
G01*
X2329319Y1256337D01*
X2162954Y1383609D02*
G01*
X2162954Y1288153D01*
X2162954Y1338153D02*
G01*
X2172047Y1347246D01*
X2181138Y1351790D01*
X2194773Y1351790D01*
X2203864Y1347246D01*
X2212954Y1338153D01*
X2217501Y1324518D01*
X2217501Y1315427D01*
X2212954Y1301790D01*
X2203864Y1292699D01*
X2194773Y1288153D01*
X2181138Y1288153D01*
X2172047Y1292699D01*
X2162954Y1301790D01*
X2132954Y1383609D02*
G01*
X2132954Y1288153D01*
X2098410Y1310881D02*
G01*
X2102954Y1306337D01*
X2098410Y1301790D01*
X2093864Y1306337D01*
X2098410Y1310881D01*
X2063864Y1351790D02*
G01*
X2063864Y1288153D01*
X2063864Y1333609D02*
G01*
X2050229Y1347246D01*
X2041138Y1351790D01*
X2027501Y1351790D01*
X2018411Y1347246D01*
X2013864Y1333609D01*
X2013864Y1288153D01*
X1933864Y1338153D02*
G01*
X1938411Y1347246D01*
X1952048Y1351790D01*
X1965683Y1351790D01*
X1979320Y1347246D01*
X1983864Y1338153D01*
X1979320Y1329062D01*
X1970229Y1324518D01*
X1947501Y1319971D01*
X1938411Y1315427D01*
X1933864Y1306337D01*
X1933864Y1301790D01*
X1938411Y1292699D01*
X1952048Y1288153D01*
X1965683Y1288153D01*
X1979320Y1292699D01*
X1983864Y1301790D01*
X1903864Y1324518D02*
G01*
X1849320Y1324518D01*
X1849320Y1333609D01*
X1853864Y1342699D01*
X1858411Y1347246D01*
X1867501Y1351790D01*
X1881139Y1351790D01*
X1890229Y1347246D01*
X1899320Y1338153D01*
X1903864Y1324518D01*
X1903864Y1315427D01*
X1899320Y1301790D01*
X1890229Y1292699D01*
X1881139Y1288153D01*
X1867501Y1288153D01*
X1858411Y1292699D01*
X1849320Y1301790D01*
X1764774Y1338153D02*
G01*
X1773864Y1347246D01*
X1782955Y1351790D01*
X1796592Y1351790D01*
X1805683Y1347246D01*
X1814774Y1338153D01*
X1819320Y1324518D01*
X1819320Y1315427D01*
X1814774Y1301790D01*
X1805683Y1292699D01*
X1796592Y1288153D01*
X1782955Y1288153D01*
X1773864Y1292699D01*
X1764774Y1301790D01*
X1652955Y1401790D02*
G01*
X1734774Y1256337D01*
X1568411Y1351790D02*
G01*
X1568411Y1288153D01*
X1568411Y1338153D02*
G01*
X1577502Y1347246D01*
X1586593Y1351790D01*
X1600230Y1351790D01*
X1609321Y1347246D01*
X1618411Y1338153D01*
X1622955Y1324518D01*
X1622955Y1315427D01*
X1618411Y1301790D01*
X1609321Y1292699D01*
X1600230Y1288153D01*
X1586593Y1288153D01*
X1577502Y1292699D01*
X1568411Y1301790D01*
X1483865Y1383609D02*
G01*
X1483865Y1288153D01*
X1483865Y1338153D02*
G01*
X1492956Y1347246D01*
X1502049Y1351790D01*
X1515684Y1351790D01*
X1524774Y1347246D01*
X1533865Y1338153D01*
X1538411Y1324518D01*
X1538411Y1315427D01*
X1533865Y1301790D01*
X1524774Y1292699D01*
X1515684Y1288153D01*
X1502049Y1288153D01*
X1492956Y1292699D01*
X1483865Y1301790D01*
X1399321Y1383609D02*
G01*
X1399321Y1288153D01*
X1399321Y1338153D02*
G01*
X1408412Y1347246D01*
X1417502Y1351790D01*
X1431140Y1351790D01*
X1440230Y1347246D01*
X1449321Y1338153D01*
X1453865Y1324518D01*
X1453865Y1315427D01*
X1449321Y1301790D01*
X1440230Y1292699D01*
X1431140Y1288153D01*
X1417502Y1288153D01*
X1408412Y1292699D01*
X1399321Y1301790D01*
X1346593Y1351790D02*
G01*
X1355684Y1347246D01*
X1364775Y1338153D01*
X1369321Y1324518D01*
X1369321Y1315427D01*
X1364775Y1301790D01*
X1355684Y1292699D01*
X1346593Y1288153D01*
X1332956Y1288153D01*
X1323865Y1292699D01*
X1314775Y1301790D01*
X1310231Y1315427D01*
X1310231Y1324518D01*
X1314775Y1338153D01*
X1323865Y1347246D01*
X1332956Y1351790D01*
X1346593Y1351790D01*
X1280231Y1351790D02*
G01*
X1280231Y1288153D01*
X1280231Y1333609D02*
G01*
X1266593Y1347246D01*
X1257503Y1351790D01*
X1243865Y1351790D01*
X1234775Y1347246D01*
X1230231Y1333609D01*
X1230231Y1288153D01*
X1195684Y1310881D02*
G01*
X1200231Y1306337D01*
X1195684Y1301790D01*
X1191140Y1306337D01*
X1195684Y1310881D01*
X1161140Y1351790D02*
G01*
X1161140Y1256337D01*
X1161140Y1338153D02*
G01*
X1152050Y1347246D01*
X1142956Y1351790D01*
X1129322Y1351790D01*
X1120231Y1347246D01*
X1111140Y1338153D01*
X1106594Y1324518D01*
X1106594Y1315427D01*
X1111140Y1301790D01*
X1120231Y1292699D01*
X1129322Y1288153D01*
X1142956Y1288153D01*
X1152050Y1292699D01*
X1161140Y1301790D01*
X1022050Y1383609D02*
G01*
X1022050Y1288153D01*
X1022050Y1338153D02*
G01*
X1031140Y1347246D01*
X1040231Y1351790D01*
X1053866Y1351790D01*
X1062956Y1347246D01*
X1072050Y1338153D01*
X1076594Y1324518D01*
X1076594Y1315427D01*
X1072050Y1301790D01*
X1062956Y1292699D01*
X1053866Y1288153D01*
X1040231Y1288153D01*
X1031140Y1292699D01*
X1022050Y1301790D01*
X955685Y1383609D02*
G01*
X964775Y1383609D01*
X973866Y1379062D01*
X978413Y1365427D01*
X978413Y1288153D01*
X992050Y1351790D02*
G01*
X960231Y1351790D01*
D11*
X2604770Y5797550D02*
G01*
X2613913Y5816092D01*
X2632456Y5834634D01*
X2650743Y5843778D01*
X2687827Y5843778D01*
X2706370Y5834634D01*
X2724658Y5816092D01*
X2734056Y5797550D01*
X2743200Y5769863D01*
X2743200Y5723889D01*
X2734056Y5695950D01*
X2724658Y5677662D01*
X2706370Y5659120D01*
X2687827Y5649976D01*
X2650743Y5649976D01*
X2632456Y5659120D01*
X2613913Y5677662D01*
X2604770Y5695950D01*
X2479040Y5843778D02*
G01*
X2479040Y5649976D01*
X2543809Y5843778D02*
G01*
X2414270Y5843778D01*
X2353309Y5843778D02*
G01*
X2353309Y5649976D01*
X2353309Y5843778D02*
G01*
X2233422Y5843778D01*
X2353309Y5751576D02*
G01*
X2279650Y5751576D01*
X1956308Y5843778D02*
G01*
X2030222Y5649976D01*
X1956308Y5843778D02*
G01*
X1882394Y5649976D01*
X2002536Y5714492D02*
G01*
X1910079Y5714492D01*
X1821434Y5843778D02*
G01*
X1821434Y5649976D01*
X1821434Y5843778D02*
G01*
X1756663Y5843778D01*
X1728978Y5834634D01*
X1710689Y5816092D01*
X1701292Y5797550D01*
X1692147Y5769863D01*
X1692147Y5723889D01*
X1701292Y5695950D01*
X1710689Y5677662D01*
X1728978Y5659120D01*
X1756663Y5649976D01*
X1821434Y5649976D01*
X1631187Y5843778D02*
G01*
X1631187Y5649976D01*
X1631187Y5843778D02*
G01*
X1566418Y5843778D01*
X1538731Y5834634D01*
X1520189Y5816092D01*
X1511045Y5797550D01*
X1501902Y5769863D01*
X1501902Y5723889D01*
X1511045Y5695950D01*
X1520189Y5677662D01*
X1538731Y5659120D01*
X1566418Y5649976D01*
X1631187Y5649976D01*
X1385570Y5843778D02*
G01*
X1403857Y5834634D01*
X1422400Y5816092D01*
X1431544Y5797550D01*
X1440942Y5769863D01*
X1440942Y5723889D01*
X1431544Y5695950D01*
X1422400Y5677662D01*
X1403857Y5659120D01*
X1385570Y5649976D01*
X1348486Y5649976D01*
X1329944Y5659120D01*
X1311655Y5677662D01*
X1302257Y5695950D01*
X1293113Y5723889D01*
X1293113Y5769863D01*
X1302257Y5797550D01*
X1311655Y5816092D01*
X1329944Y5834634D01*
X1348486Y5843778D01*
X1385570Y5843778D01*
X1232154Y5843778D02*
G01*
X1232154Y5649976D01*
X1232154Y5843778D02*
G01*
X1102868Y5649976D01*
X1102868Y5843778D02*
G01*
X1102868Y5649976D01*
D12*
X1562100Y4088881D02*
G01*
X1562100Y4017291D01*
X1562100Y4088881D02*
G01*
X1538236Y4088881D01*
X1528008Y4085473D01*
X1521190Y4078653D01*
X1517782Y4071835D01*
X1514373Y4061609D01*
X1514373Y4044563D01*
X1517782Y4034335D01*
X1521190Y4027517D01*
X1528008Y4020700D01*
X1538236Y4017291D01*
X1562100Y4017291D01*
X1491874Y4047972D02*
G01*
X1430510Y4047972D01*
X1360281Y4078653D02*
G01*
X1367099Y4085473D01*
X1377327Y4088881D01*
X1390964Y4088881D01*
X1401190Y4085473D01*
X1408008Y4078653D01*
X1408008Y4071835D01*
X1404599Y4065018D01*
X1401190Y4061609D01*
X1394373Y4058198D01*
X1373919Y4051381D01*
X1367099Y4047972D01*
X1363690Y4044563D01*
X1360281Y4037746D01*
X1360281Y4027517D01*
X1367099Y4020700D01*
X1377327Y4017291D01*
X1390964Y4017291D01*
X1401190Y4020700D01*
X1408008Y4027517D01*
X1310510Y4088881D02*
G01*
X1337782Y4017291D01*
X1310510Y4088881D02*
G01*
X1283235Y4017291D01*
X1327553Y4041155D02*
G01*
X1293464Y4041155D01*
X1240281Y4088881D02*
G01*
X1247101Y4085473D01*
X1253919Y4078653D01*
X1257327Y4071835D01*
X1260736Y4061609D01*
X1260736Y4044563D01*
X1257327Y4034335D01*
X1253919Y4027517D01*
X1247101Y4020700D01*
X1240281Y4017291D01*
X1226647Y4017291D01*
X1219827Y4020700D01*
X1213010Y4027517D01*
X1209601Y4034335D01*
X1206192Y4044563D01*
X1206192Y4061609D01*
X1209601Y4071835D01*
X1213010Y4078653D01*
X1219827Y4085473D01*
X1226647Y4088881D01*
X1240281Y4088881D01*
X2692400Y4114281D02*
G01*
X2692400Y4042691D01*
X2692400Y4114281D02*
G01*
X2661719Y4114281D01*
X2651490Y4110873D01*
X2648082Y4107464D01*
X2644673Y4100644D01*
X2644673Y4093827D01*
X2648082Y4087009D01*
X2651490Y4083598D01*
X2661719Y4080189D01*
X2692400Y4080189D01*
X2668536Y4080189D02*
G01*
X2644673Y4042691D01*
X2622174Y4073372D02*
G01*
X2560810Y4073372D01*
X2490581Y4104053D02*
G01*
X2497401Y4110873D01*
X2507627Y4114281D01*
X2521264Y4114281D01*
X2531490Y4110873D01*
X2538308Y4104053D01*
X2538308Y4097235D01*
X2534899Y4090418D01*
X2531490Y4087009D01*
X2524673Y4083598D01*
X2504219Y4076781D01*
X2497401Y4073372D01*
X2493990Y4069963D01*
X2490581Y4063146D01*
X2490581Y4052917D01*
X2497401Y4046100D01*
X2507627Y4042691D01*
X2521264Y4042691D01*
X2531490Y4046100D01*
X2538308Y4052917D01*
X2440810Y4114281D02*
G01*
X2468082Y4042691D01*
X2440810Y4114281D02*
G01*
X2413535Y4042691D01*
X2457853Y4066555D02*
G01*
X2423764Y4066555D01*
X2370581Y4114281D02*
G01*
X2377401Y4110873D01*
X2384219Y4104053D01*
X2387627Y4097235D01*
X2391036Y4087009D01*
X2391036Y4069963D01*
X2387627Y4059735D01*
X2384219Y4052917D01*
X2377401Y4046100D01*
X2370581Y4042691D01*
X2356947Y4042691D01*
X2350127Y4046100D01*
X2343310Y4052917D01*
X2339901Y4059735D01*
X2336492Y4069963D01*
X2336492Y4087009D01*
X2339901Y4097235D01*
X2343310Y4104053D01*
X2350127Y4110873D01*
X2356947Y4114281D01*
X2370581Y4114281D01*
X1663700Y545581D02*
G01*
X1663700Y473991D01*
X1663700Y545581D02*
G01*
X1633019Y545581D01*
X1622790Y542173D01*
X1619382Y538764D01*
X1615973Y531944D01*
X1615973Y525127D01*
X1619382Y518309D01*
X1622790Y514898D01*
X1633019Y511489D01*
X1663700Y511489D01*
X1639836Y511489D02*
G01*
X1615973Y473991D01*
X1593474Y545581D02*
G01*
X1593474Y473991D01*
X1593474Y545581D02*
G01*
X1562790Y545581D01*
X1552564Y542173D01*
X1549153Y538764D01*
X1545744Y531944D01*
X1545744Y521718D01*
X1549153Y514898D01*
X1552564Y511489D01*
X1562790Y508081D01*
X1593474Y508081D01*
X1523245Y545581D02*
G01*
X1523245Y494446D01*
X1519836Y484217D01*
X1513019Y477400D01*
X1502790Y473991D01*
X1495973Y473991D01*
X1485745Y477400D01*
X1478927Y484217D01*
X1475519Y494446D01*
X1475519Y545581D01*
X1453019Y531944D02*
G01*
X1446199Y535353D01*
X1435973Y545581D01*
X1435973Y473991D01*
X2501900Y545581D02*
G01*
X2501900Y473991D01*
X2501900Y545581D02*
G01*
X2471219Y545581D01*
X2460990Y542173D01*
X2457582Y538764D01*
X2454173Y531944D01*
X2454173Y525127D01*
X2457582Y518309D01*
X2460990Y514898D01*
X2471219Y511489D01*
X2501900Y511489D01*
X2478036Y511489D02*
G01*
X2454173Y473991D01*
X2431674Y545581D02*
G01*
X2431674Y473991D01*
X2431674Y545581D02*
G01*
X2400990Y545581D01*
X2390764Y542173D01*
X2387353Y538764D01*
X2383944Y531944D01*
X2383944Y521718D01*
X2387353Y514898D01*
X2390764Y511489D01*
X2400990Y508081D01*
X2431674Y508081D01*
X2361445Y545581D02*
G01*
X2361445Y494446D01*
X2358036Y484217D01*
X2351219Y477400D01*
X2340990Y473991D01*
X2334173Y473991D01*
X2323945Y477400D01*
X2317127Y484217D01*
X2313719Y494446D01*
X2313719Y545581D01*
X2287808Y528535D02*
G01*
X2287808Y531944D01*
X2284399Y538764D01*
X2280991Y542173D01*
X2274173Y545581D01*
X2260536Y545581D01*
X2253719Y542173D01*
X2250310Y538764D01*
X2246901Y531944D01*
X2246901Y525127D01*
X2250310Y518309D01*
X2257127Y508081D01*
X2291219Y473991D01*
X2243490Y473991D01*
D13*
X1213599Y3949014D02*
G01*
X1230983Y3949014D01*
X1213599Y3797985D02*
G01*
X1230983Y3797985D01*
X1213599Y3797985D02*
G01*
X1213599Y3786880D01*
X1230983Y3786880D01*
X1230983Y3960119D02*
G01*
X1213599Y3960119D01*
X1213599Y3949014D01*
X1230983Y3949014D02*
G01*
X1230983Y3960119D01*
X1230983Y3786880D02*
G01*
X1230983Y3797985D01*
X1288887Y3786880D02*
G01*
X1288887Y3960119D01*
D12*
X1274599Y3786880D02*
G01*
X1274599Y3960119D01*
X1230983Y3786880D02*
G01*
X1512216Y3786880D01*
X1512216Y3786880D02*
G01*
X1512216Y3803680D01*
X1230983Y3960119D02*
G01*
X1512216Y3960119D01*
X1512216Y3960119D02*
G01*
X1512216Y3943319D01*
X2419479Y3778290D02*
G01*
X2283487Y3778290D01*
X2283487Y3994109D01*
X2419479Y3994109D01*
X2609720Y3778290D02*
G01*
X2745712Y3778290D01*
X2745712Y3994109D01*
X2609720Y3994109D01*
D14*
X2173998Y5102313D02*
G01*
X2173998Y5172199D01*
X1635000Y5172199D01*
X2173998Y4848313D02*
G01*
X2173998Y4956086D01*
X2173998Y4594313D02*
G01*
X2173998Y4702086D01*
X1635000Y4448086D02*
G01*
X1635000Y4378200D01*
X2173998Y4378200D01*
X2173998Y4448086D01*
X1635000Y4702086D02*
G01*
X1635000Y4594313D01*
X1635000Y4956086D02*
G01*
X1635000Y4848313D01*
X1635000Y5172199D02*
G01*
X1635000Y5102313D01*
D12*
X1631820Y831809D02*
G01*
X1767812Y831809D01*
X1767812Y615990D01*
X1631820Y615990D01*
X1441579Y831809D02*
G01*
X1305587Y831809D01*
X1305587Y615990D01*
X1441579Y615990D01*
X2457320Y844509D02*
G01*
X2593312Y844509D01*
X2593312Y628690D01*
X2457320Y628690D01*
X2267079Y844509D02*
G01*
X2131087Y844509D01*
X2131087Y628690D01*
X2267079Y628690D01*
D11*
G75*
G01
X2288007Y5146192D02*
G03X2288007Y5146192I-15011J0D01*
M02*
