G04 Layer: TopPasteMaskLayer*
G04 EasyEDA v6.5.40, 2024-02-16 10:36:59*
G04 cbf7a00361bd432e9e78a992b2a5909c,d07ef30ec77949ce8e11233ba57d236c,10*
G04 Gerber Generator version 0.2*
G04 Scale: 100 percent, Rotated: No, Reflected: No *
G04 Dimensions in millimeters *
G04 leading zeros omitted , absolute positions ,4 integer and 5 decimal *
%FSLAX45Y45*%
%MOMM*%

%ADD10R,0.8999X1.0000*%
%ADD11O,0.58801X2.0450048*%
%ADD12O,2.2500082X0.6299962*%
%ADD13R,3.2000X0.8000*%

%LPD*%
G36*
X3026968Y4370222D02*
G01*
X3016961Y4360214D01*
X3016961Y4259427D01*
X3026968Y4249470D01*
X3177032Y4249470D01*
X3187039Y4259427D01*
X3187039Y4360214D01*
X3177032Y4370222D01*
X3140913Y4370222D01*
X3130905Y4360214D01*
X3130905Y4339132D01*
X3120898Y4329125D01*
X3083052Y4329125D01*
X3073095Y4339132D01*
X3073095Y4360214D01*
X3063087Y4370222D01*
G37*
G36*
X3026968Y4665929D02*
G01*
X3016961Y4655972D01*
X3016961Y4555185D01*
X3026968Y4545177D01*
X3063087Y4545177D01*
X3073095Y4555185D01*
X3073095Y4576267D01*
X3083052Y4586274D01*
X3120898Y4586274D01*
X3130905Y4576267D01*
X3130905Y4555185D01*
X3140913Y4545177D01*
X3177032Y4545177D01*
X3187039Y4555185D01*
X3187039Y4655972D01*
X3177032Y4665929D01*
G37*
G36*
X1545285Y2688539D02*
G01*
X1535277Y2678531D01*
X1535277Y2642412D01*
X1545285Y2632405D01*
X1566367Y2632405D01*
X1576374Y2622397D01*
X1576374Y2584602D01*
X1566367Y2574594D01*
X1545285Y2574594D01*
X1535277Y2564587D01*
X1535277Y2528468D01*
X1545285Y2518460D01*
X1646072Y2518460D01*
X1656029Y2528468D01*
X1656029Y2678531D01*
X1646072Y2688539D01*
G37*
G36*
X1249527Y2688539D02*
G01*
X1239570Y2678531D01*
X1239570Y2528468D01*
X1249527Y2518460D01*
X1350314Y2518460D01*
X1360322Y2528468D01*
X1360322Y2564587D01*
X1350314Y2574594D01*
X1329232Y2574594D01*
X1319225Y2584602D01*
X1319225Y2622397D01*
X1329232Y2632405D01*
X1350314Y2632405D01*
X1360322Y2642412D01*
X1360322Y2678531D01*
X1350314Y2688539D01*
G37*
G36*
X624941Y4691329D02*
G01*
X614934Y4681372D01*
X614934Y4580585D01*
X624941Y4570577D01*
X661060Y4570577D01*
X671068Y4580585D01*
X671068Y4601667D01*
X681075Y4611674D01*
X718921Y4611674D01*
X728929Y4601667D01*
X728929Y4580585D01*
X738936Y4570577D01*
X775055Y4570577D01*
X785063Y4580585D01*
X785063Y4681372D01*
X775055Y4691329D01*
G37*
G36*
X624941Y4395622D02*
G01*
X614934Y4385614D01*
X614934Y4284827D01*
X624941Y4274870D01*
X775055Y4274870D01*
X785063Y4284827D01*
X785063Y4385614D01*
X775055Y4395622D01*
X738936Y4395622D01*
X728929Y4385614D01*
X728929Y4364532D01*
X718921Y4354525D01*
X681075Y4354525D01*
X671068Y4364532D01*
X671068Y4385614D01*
X661060Y4395622D01*
G37*
D10*
G01*
X2932480Y5075402D03*
G01*
X3102483Y5075402D03*
G01*
X1532788Y3175000D03*
G01*
X1362786Y3175000D03*
G01*
X870381Y5088610D03*
G01*
X700379Y5088610D03*
D11*
G01*
X2273300Y497459D03*
G01*
X2400300Y497459D03*
G01*
X2527300Y497459D03*
G01*
X2654300Y497459D03*
G01*
X2273300Y1051940D03*
G01*
X2400300Y1051940D03*
G01*
X2527300Y1051940D03*
G01*
X2654300Y1051940D03*
D12*
G01*
X1234490Y1892300D03*
G01*
X1234490Y1765300D03*
G01*
X1234490Y1638300D03*
G01*
X1234490Y1511300D03*
G01*
X1940509Y1892300D03*
G01*
X1940509Y1765300D03*
G01*
X1940509Y1638300D03*
G01*
X1940509Y1511300D03*
D13*
G01*
X2195804Y4356100D03*
G01*
X1715820Y4356100D03*
G01*
X2195804Y4610100D03*
G01*
X1715820Y4610100D03*
G01*
X2195804Y4864100D03*
G01*
X1715820Y4864100D03*
G01*
X2195804Y5118100D03*
G01*
X1715820Y5118100D03*
M02*
