G04 Layer: BottomPasteMaskLayer*
G04 EasyEDA v6.5.40, 2024-02-16 10:36:59*
G04 cbf7a00361bd432e9e78a992b2a5909c,d07ef30ec77949ce8e11233ba57d236c,10*
G04 Gerber Generator version 0.2*
G04 Scale: 100 percent, Rotated: No, Reflected: No *
G04 Dimensions in millimeters *
G04 leading zeros omitted , absolute positions ,4 integer and 5 decimal *
%FSLAX45Y45*%
%MOMM*%

%AMMACRO1*21,1,$1,$2,0,0,$3*%
%ADD10MACRO1,0.95X1.1501X0.0000*%
%ADD11MACRO1,1X3.4X-90.0000*%

%LPD*%
G36*
X2316327Y3971239D02*
G01*
X2306370Y3961231D01*
X2306370Y3811168D01*
X2316327Y3801160D01*
X2417114Y3801160D01*
X2427122Y3811168D01*
X2427122Y3847287D01*
X2417114Y3857294D01*
X2396032Y3857294D01*
X2386025Y3867302D01*
X2386025Y3905097D01*
X2396032Y3915105D01*
X2417114Y3915105D01*
X2427122Y3925112D01*
X2427122Y3961231D01*
X2417114Y3971239D01*
G37*
G36*
X2612085Y3971239D02*
G01*
X2602077Y3961231D01*
X2602077Y3925112D01*
X2612085Y3915105D01*
X2633167Y3915105D01*
X2643174Y3905097D01*
X2643174Y3867302D01*
X2633167Y3857294D01*
X2612085Y3857294D01*
X2602077Y3847287D01*
X2602077Y3811168D01*
X2612085Y3801160D01*
X2712872Y3801160D01*
X2722829Y3811168D01*
X2722829Y3961231D01*
X2712872Y3971239D01*
G37*
G36*
X1634185Y808939D02*
G01*
X1624177Y798931D01*
X1624177Y762812D01*
X1634185Y752805D01*
X1655267Y752805D01*
X1665274Y742797D01*
X1665274Y705002D01*
X1655267Y694994D01*
X1634185Y694994D01*
X1624177Y684987D01*
X1624177Y648868D01*
X1634185Y638860D01*
X1734972Y638860D01*
X1744929Y648868D01*
X1744929Y798931D01*
X1734972Y808939D01*
G37*
G36*
X1338427Y808939D02*
G01*
X1328470Y798931D01*
X1328470Y648868D01*
X1338427Y638860D01*
X1439214Y638860D01*
X1449222Y648868D01*
X1449222Y684987D01*
X1439214Y694994D01*
X1418132Y694994D01*
X1408125Y705002D01*
X1408125Y742797D01*
X1418132Y752805D01*
X1439214Y752805D01*
X1449222Y762812D01*
X1449222Y798931D01*
X1439214Y808939D01*
G37*
G36*
X2459685Y821639D02*
G01*
X2449677Y811631D01*
X2449677Y775512D01*
X2459685Y765505D01*
X2480767Y765505D01*
X2490774Y755497D01*
X2490774Y717702D01*
X2480767Y707694D01*
X2459685Y707694D01*
X2449677Y697687D01*
X2449677Y661568D01*
X2459685Y651560D01*
X2560472Y651560D01*
X2570429Y661568D01*
X2570429Y811631D01*
X2560472Y821639D01*
G37*
G36*
X2163927Y821639D02*
G01*
X2153970Y811631D01*
X2153970Y661568D01*
X2163927Y651560D01*
X2264714Y651560D01*
X2274722Y661568D01*
X2274722Y697687D01*
X2264714Y707694D01*
X2243632Y707694D01*
X2233625Y717702D01*
X2233625Y755497D01*
X2243632Y765505D01*
X2264714Y765505D01*
X2274722Y775512D01*
X2274722Y811631D01*
X2264714Y821639D01*
G37*
D10*
G01*
X1540840Y3873500D03*
G01*
X1202359Y3873500D03*
D11*
G01*
X2164994Y5029187D03*
G01*
X2164994Y4775187D03*
G01*
X2164994Y4521187D03*
G01*
X1645005Y5029187D03*
G01*
X1645005Y4775187D03*
G01*
X1645005Y4521187D03*
M02*
