G04 Layer: BottomSilkscreenLayer*
G04 EasyEDA v6.5.40, 2024-02-07 10:12:07*
G04 964da254980c4c80920fb8b7fcdf49c0,d07ef30ec77949ce8e11233ba57d236c,10*
G04 Gerber Generator version 0.2*
G04 Scale: 100 percent, Rotated: No, Reflected: No *
G04 Dimensions in millimeters *
G04 leading zeros omitted , absolute positions ,4 integer and 5 decimal *
%FSLAX45Y45*%
%MOMM*%

%ADD10C,0.1500*%
%ADD11C,0.1524*%
%ADD12C,0.1520*%
%ADD13C,0.2540*%
%ADD14C,0.3000*%
%ADD15C,0.0179*%

%LPD*%
G36*
X1624076Y2503474D02*
G01*
X1616506Y2501798D01*
X1603908Y2500325D01*
X1594662Y2498547D01*
X1587093Y2496769D01*
X1578711Y2495346D01*
X1573631Y2494127D01*
X1552651Y2487472D01*
X1542542Y2483967D01*
X1529130Y2478582D01*
X1514805Y2472131D01*
X1493824Y2461615D01*
X1477010Y2450693D01*
X1472793Y2447696D01*
X1469440Y2445867D01*
X1454302Y2434590D01*
X1439214Y2422550D01*
X1410868Y2394762D01*
X1397203Y2378100D01*
X1388872Y2367026D01*
X1372616Y2342642D01*
X1363065Y2326335D01*
X1355598Y2310384D01*
X1355598Y2309215D01*
X1350568Y2299309D01*
X1345641Y2286355D01*
X1335582Y2254402D01*
X1330553Y2231745D01*
X1328623Y2217420D01*
X1327048Y2208174D01*
X1325219Y2183841D01*
X1325676Y2147214D01*
X881634Y1703120D01*
X881634Y1699768D01*
X893419Y1699768D01*
X893419Y1701495D01*
X1334516Y2142591D01*
X1334414Y2189683D01*
X1337208Y2213254D01*
X1339545Y2228342D01*
X1342186Y2241804D01*
X1344472Y2251049D01*
X1350314Y2271369D01*
X1358646Y2293924D01*
X1366723Y2312416D01*
X1371752Y2322474D01*
X1379118Y2334615D01*
X1379118Y2335326D01*
X1385824Y2346401D01*
X1385824Y2347569D01*
X1388973Y2351074D01*
X1401521Y2369769D01*
X1411427Y2381300D01*
X1442567Y2412949D01*
X1458976Y2427376D01*
X1480058Y2441803D01*
X1494485Y2450642D01*
X1495044Y2450642D01*
X1503883Y2456281D01*
X1522374Y2465628D01*
X1551787Y2477617D01*
X1565249Y2481681D01*
X1587093Y2487523D01*
X1603908Y2490927D01*
X1621536Y2493416D01*
X1640027Y2495346D01*
X1678381Y2495600D01*
X1678889Y2495143D01*
X1706422Y2492603D01*
X1734972Y2486761D01*
X1750974Y2482545D01*
X1772818Y2475128D01*
X1800555Y2463800D01*
X1808937Y2458212D01*
X1810207Y2458212D01*
X1831857Y2445562D01*
X1849678Y2445562D01*
X1849678Y2444750D01*
X1848866Y2444750D01*
X1848866Y2445562D01*
X1831857Y2445562D01*
X1845919Y2437028D01*
X1866087Y2421737D01*
X1881225Y2407462D01*
X1906117Y2382164D01*
X1912518Y2373731D01*
X1917750Y2367838D01*
X1917750Y2366619D01*
X1923237Y2360320D01*
X1928672Y2352446D01*
X1928672Y2351379D01*
X1935632Y2340965D01*
X1952142Y2311552D01*
X1963826Y2283002D01*
X1967179Y2273757D01*
X1972208Y2256942D01*
X1975662Y2244293D01*
X1978253Y2230018D01*
X1981555Y2208174D01*
X1983536Y2189683D01*
X1983536Y2157780D01*
X1981606Y2133396D01*
X1978456Y2112416D01*
X1974088Y2091689D01*
X1965604Y2061972D01*
X1962404Y2055266D01*
X1956307Y2040128D01*
X1946808Y2019096D01*
X1942338Y2012391D01*
X1930400Y1992223D01*
X1922373Y1981403D01*
X1920138Y1977339D01*
X1914245Y1969516D01*
X1903882Y1957019D01*
X1873656Y1926691D01*
X1856384Y1912416D01*
X1838350Y1899869D01*
X1811477Y1884019D01*
X1801368Y1878990D01*
X1788769Y1873097D01*
X1771954Y1866442D01*
X1762709Y1863039D01*
X1740509Y1856638D01*
X1739036Y1855724D01*
X1716532Y1851456D01*
X1694637Y1848053D01*
X1659382Y1845614D01*
X1634439Y1847392D01*
X1630781Y1844954D01*
X1189634Y1405229D01*
X1187907Y1405229D01*
X893419Y1699768D01*
X881634Y1699768D01*
X881634Y1698955D01*
X1187094Y1393494D01*
X1191666Y1393494D01*
X1504188Y1705254D01*
X1505153Y1705254D01*
X1505153Y1479194D01*
X1482598Y1479194D01*
X1481531Y1477518D01*
X1474165Y1477518D01*
X1473149Y1475841D01*
X1465783Y1475841D01*
X1464716Y1474165D01*
X1457350Y1474165D01*
X1456334Y1472488D01*
X1451457Y1472488D01*
X1450441Y1470812D01*
X1446428Y1470812D01*
X1445412Y1469136D01*
X1442110Y1469136D01*
X1439214Y1467612D01*
X1426565Y1462633D01*
X1416507Y1457604D01*
X1406906Y1452422D01*
X1399387Y1447292D01*
X1397609Y1447292D01*
X1397609Y1445615D01*
X1395374Y1445615D01*
X1392123Y1442618D01*
X1386230Y1438554D01*
X1385417Y1437538D01*
X1379524Y1433474D01*
X1366012Y1421638D01*
X1358950Y1413256D01*
X1354277Y1408176D01*
X1350213Y1402334D01*
X1349197Y1401470D01*
X1345133Y1395577D01*
X1342136Y1392326D01*
X1342136Y1390142D01*
X1340459Y1390142D01*
X1340459Y1388313D01*
X1335278Y1380845D01*
X1330147Y1371244D01*
X1325118Y1361135D01*
X1320901Y1350619D01*
X1318615Y1345590D01*
X1318615Y1342339D01*
X1316939Y1341272D01*
X1316939Y1337310D01*
X1315262Y1336243D01*
X1315262Y1331417D01*
X1313586Y1330350D01*
X1313586Y1323238D01*
X1312062Y1321663D01*
X1309319Y1295603D01*
X1308474Y1279702D01*
X1316736Y1279702D01*
X1316990Y1297889D01*
X1318615Y1300937D01*
X1318615Y1314399D01*
X1320292Y1315415D01*
X1320292Y1322781D01*
X1321968Y1323848D01*
X1321968Y1330350D01*
X1323644Y1331417D01*
X1323644Y1335430D01*
X1325321Y1336446D01*
X1325321Y1340459D01*
X1326997Y1341475D01*
X1326997Y1344777D01*
X1328470Y1347673D01*
X1331214Y1354429D01*
X1337970Y1368704D01*
X1343050Y1377086D01*
X1344015Y1380032D01*
X1345488Y1380032D01*
X1345488Y1381810D01*
X1354175Y1394764D01*
X1355242Y1395577D01*
X1359306Y1401470D01*
X1360271Y1402334D01*
X1369466Y1413154D01*
X1372819Y1416608D01*
X1385417Y1427530D01*
X1386230Y1428445D01*
X1392123Y1432458D01*
X1392986Y1433525D01*
X1405940Y1442212D01*
X1407668Y1442212D01*
X1407668Y1443736D01*
X1410614Y1444650D01*
X1419047Y1449730D01*
X1431645Y1455877D01*
X1440027Y1459230D01*
X1442974Y1460703D01*
X1446225Y1460703D01*
X1447292Y1462379D01*
X1451305Y1462379D01*
X1452321Y1464056D01*
X1456334Y1464056D01*
X1457350Y1465732D01*
X1463903Y1465732D01*
X1464919Y1467459D01*
X1472285Y1467459D01*
X1473352Y1469136D01*
X1480718Y1469136D01*
X1481734Y1470812D01*
X1489100Y1470812D01*
X1490116Y1472488D01*
X1511909Y1472488D01*
X1511858Y1712366D01*
X1637080Y1837588D01*
X1672793Y1837080D01*
X1695653Y1838858D01*
X1723593Y1843024D01*
X1734566Y1845614D01*
X1738375Y1846325D01*
X1750974Y1849729D01*
X1761032Y1852980D01*
X1785315Y1861566D01*
X1798015Y1867662D01*
X1818182Y1876907D01*
X1826615Y1882241D01*
X1837537Y1888489D01*
X1845919Y1894586D01*
X1846478Y1896008D01*
X1848612Y1896008D01*
X1854606Y1900631D01*
X1864207Y1907336D01*
X1877872Y1918258D01*
X1910638Y1951075D01*
X1922983Y1965604D01*
X1924913Y1968906D01*
X1932482Y1979371D01*
X1943557Y1995576D01*
X1953564Y2012391D01*
X1966620Y2040839D01*
X1973783Y2058619D01*
X1982317Y2086356D01*
X1984857Y2098954D01*
X1987296Y2109012D01*
X1990852Y2134260D01*
X1992680Y2152751D01*
X1992579Y2187194D01*
X1990852Y2209850D01*
X1987346Y2232558D01*
X1979066Y2267559D01*
X1977542Y2270404D01*
X1972208Y2288032D01*
X1962200Y2310688D01*
X1951431Y2332583D01*
X1943201Y2346452D01*
X1940763Y2349347D01*
X1930857Y2365349D01*
X1921560Y2376881D01*
X1916379Y2384247D01*
X1903984Y2398115D01*
X1887118Y2414930D01*
X1874266Y2426208D01*
X1855978Y2440279D01*
X1853692Y2443073D01*
X1855978Y2443784D01*
X1862734Y2444851D01*
X1930806Y2453284D01*
X1998878Y2456230D01*
X2001469Y2457399D01*
X2002789Y2456078D01*
X2039213Y2454757D01*
X2068626Y2453995D01*
X2071979Y2452370D01*
X2091283Y2450541D01*
X2094636Y2449017D01*
X2103882Y2448204D01*
X2115667Y2446375D01*
X2124913Y2445512D01*
X2128266Y2443988D01*
X2136698Y2443124D01*
X2143810Y2442057D01*
X2144776Y2440533D01*
X2151278Y2440533D01*
X2152294Y2438857D01*
X2158847Y2438857D01*
X2159863Y2437180D01*
X2166416Y2437180D01*
X2167432Y2435504D01*
X2173986Y2435504D01*
X2175002Y2433828D01*
X2181555Y2433828D01*
X2182571Y2432151D01*
X2189073Y2432151D01*
X2190140Y2430475D01*
X2196642Y2430475D01*
X2197709Y2428798D01*
X2203399Y2428798D01*
X2204415Y2427122D01*
X2209241Y2427122D01*
X2210308Y2425446D01*
X2214321Y2425446D01*
X2215337Y2423718D01*
X2220163Y2423718D01*
X2221230Y2422042D01*
X2225243Y2422042D01*
X2226259Y2420366D01*
X2231085Y2420366D01*
X2232152Y2418689D01*
X2236165Y2418689D01*
X2237181Y2417013D01*
X2242058Y2417013D01*
X2243074Y2415336D01*
X2247087Y2415336D01*
X2248103Y2413660D01*
X2252980Y2413660D01*
X2253996Y2411984D01*
X2258009Y2411984D01*
X2259025Y2410307D01*
X2263902Y2410307D01*
X2264918Y2408631D01*
X2268931Y2408631D01*
X2269947Y2406954D01*
X2273249Y2406954D01*
X2273249Y2405278D01*
X2275789Y2405278D01*
X2278684Y2403754D01*
X2287066Y2400401D01*
X2302611Y2393492D01*
X2305151Y2393492D01*
X2305151Y2391816D01*
X2307691Y2391816D01*
X2310638Y2390343D01*
X2319020Y2386990D01*
X2326589Y2383586D01*
X2345893Y2374036D01*
X2361031Y2365857D01*
X2376982Y2357831D01*
X2377846Y2356866D01*
X2390444Y2350617D01*
X2395423Y2347671D01*
X2398776Y2344724D01*
X2400249Y2344724D01*
X2407564Y2339695D01*
X2409342Y2339695D01*
X2409342Y2338324D01*
X2413965Y2335987D01*
X2426106Y2327960D01*
X2427833Y2327960D01*
X2427833Y2326284D01*
X2429611Y2326284D01*
X2439517Y2319528D01*
X2441295Y2319528D01*
X2441295Y2318258D01*
X2445918Y2316175D01*
X2455976Y2308606D01*
X2458516Y2306472D01*
X2464409Y2302408D01*
X2465222Y2301443D01*
X2487828Y2283663D01*
X2503068Y2272080D01*
X2524810Y2251913D01*
X2534158Y2242870D01*
X2550058Y2228342D01*
X2558542Y2219909D01*
X2573020Y2204008D01*
X2582062Y2194610D01*
X2590342Y2185517D01*
X2602280Y2172919D01*
X2606344Y2167026D01*
X2607360Y2166162D01*
X2611374Y2160270D01*
X2612390Y2159457D01*
X2616403Y2153564D01*
X2617368Y2152751D01*
X2640025Y2122728D01*
X2646273Y2114092D01*
X2646324Y2112721D01*
X2651404Y2105355D01*
X2651404Y2104288D01*
X2656433Y2096973D01*
X2656433Y2095906D01*
X2661462Y2088540D01*
X2661462Y2087473D01*
X2666492Y2080158D01*
X2666492Y2079091D01*
X2671572Y2071776D01*
X2671572Y2070658D01*
X2676245Y2063648D01*
X2678226Y2059432D01*
X2679090Y2047697D01*
X2681782Y2021636D01*
X2683306Y2020062D01*
X2683306Y2012899D01*
X2684983Y2011883D01*
X2684983Y2007006D01*
X2686659Y2005990D01*
X2686659Y2001977D01*
X2688336Y2000961D01*
X2688336Y1997659D01*
X2689860Y1994763D01*
X2694838Y1982165D01*
X2699867Y1972056D01*
X2705049Y1962454D01*
X2710180Y1954936D01*
X2710180Y1953158D01*
X2711856Y1953158D01*
X2711856Y1950974D01*
X2737510Y1921713D01*
X2749296Y1909876D01*
X2755138Y1905762D01*
X2756001Y1904746D01*
X2761894Y1900732D01*
X2762758Y1899462D01*
X2771952Y1894586D01*
X2787954Y1885696D01*
X2801366Y1878990D01*
X2811881Y1874164D01*
X2815996Y1874164D01*
X2817012Y1872488D01*
X2821889Y1872488D01*
X2822905Y1870811D01*
X2827731Y1870811D01*
X2828798Y1869135D01*
X2836164Y1869135D01*
X2837180Y1867458D01*
X2844546Y1867458D01*
X2845612Y1865731D01*
X2852978Y1865731D01*
X2853994Y1864055D01*
X2874924Y1864055D01*
X2874924Y1479194D01*
X2853994Y1479194D01*
X2852978Y1477518D01*
X2845612Y1477518D01*
X2844546Y1475841D01*
X2837180Y1475841D01*
X2836164Y1474165D01*
X2828798Y1474165D01*
X2827731Y1472488D01*
X2822905Y1472488D01*
X2821889Y1470812D01*
X2817012Y1470812D01*
X2815996Y1469136D01*
X2811881Y1469136D01*
X2801366Y1464310D01*
X2787954Y1457604D01*
X2762758Y1443786D01*
X2761894Y1442567D01*
X2756001Y1438554D01*
X2755138Y1437538D01*
X2749296Y1433423D01*
X2737510Y1421587D01*
X2711856Y1392326D01*
X2711856Y1390142D01*
X2710180Y1390142D01*
X2710180Y1388313D01*
X2705049Y1380845D01*
X2699867Y1371244D01*
X2694838Y1361135D01*
X2689860Y1348536D01*
X2688336Y1345590D01*
X2688336Y1342339D01*
X2686659Y1341272D01*
X2686659Y1337310D01*
X2684983Y1336243D01*
X2684983Y1331417D01*
X2683306Y1330350D01*
X2683306Y1323238D01*
X2681782Y1321663D01*
X2679090Y1295603D01*
X2678125Y1282395D01*
X2672791Y1272997D01*
X2669844Y1269644D01*
X2669844Y1267460D01*
X2668473Y1267460D01*
X2666136Y1262837D01*
X2654757Y1245666D01*
X2654757Y1244701D01*
X2651404Y1241094D01*
X2651404Y1238859D01*
X2649880Y1238859D01*
X2647238Y1233424D01*
X2634996Y1215440D01*
X2612339Y1185519D01*
X2611374Y1184656D01*
X2607360Y1178763D01*
X2606344Y1177950D01*
X2602280Y1172057D01*
X2601315Y1171244D01*
X2597200Y1165352D01*
X2585262Y1152753D01*
X2577033Y1143609D01*
X2567990Y1134262D01*
X2553462Y1118362D01*
X2546705Y1111554D01*
X2537510Y1103731D01*
X2529840Y1096416D01*
X2520696Y1088644D01*
X2513076Y1081328D01*
X2507284Y1076502D01*
X2498039Y1067866D01*
X2492146Y1063752D01*
X2491282Y1062736D01*
X2485390Y1058722D01*
X2484577Y1057706D01*
X2478684Y1053642D01*
X2477871Y1052677D01*
X2471978Y1048562D01*
X2469438Y1046429D01*
X2448458Y1030427D01*
X2429103Y1017422D01*
X2424480Y1015034D01*
X2424480Y1013663D01*
X2422296Y1013663D01*
X2418689Y1010310D01*
X2417724Y1010310D01*
X2400554Y998931D01*
X2395931Y996543D01*
X2395931Y995171D01*
X2393696Y995171D01*
X2390394Y992225D01*
X2385415Y989330D01*
X2359355Y976325D01*
X2358796Y975004D01*
X2355697Y975004D01*
X2355138Y973734D01*
X2319883Y956310D01*
X2307285Y951280D01*
X2304338Y949807D01*
X2301798Y949807D01*
X2298852Y948334D01*
X2264410Y934466D01*
X2261463Y932992D01*
X2258212Y932992D01*
X2257145Y931316D01*
X2253183Y931316D01*
X2252116Y929640D01*
X2248103Y929640D01*
X2247087Y927963D01*
X2243074Y927963D01*
X2242058Y926287D01*
X2238044Y926287D01*
X2236978Y924560D01*
X2232964Y924560D01*
X2231948Y922883D01*
X2227935Y922883D01*
X2226919Y921207D01*
X2222906Y921207D01*
X2221890Y919530D01*
X2217877Y919530D01*
X2216810Y917854D01*
X2212797Y917854D01*
X2211781Y916178D01*
X2207768Y916178D01*
X2206752Y914501D01*
X2202738Y914501D01*
X2201722Y912825D01*
X2197709Y912825D01*
X2196642Y911148D01*
X2190140Y911148D01*
X2189073Y909472D01*
X2181707Y909472D01*
X2180691Y907796D01*
X2173325Y907796D01*
X2172309Y906119D01*
X2164943Y906119D01*
X2163876Y904392D01*
X2156510Y904392D01*
X2155494Y902716D01*
X2148128Y902716D01*
X2147062Y901039D01*
X2139696Y901039D01*
X2138680Y899363D01*
X2131568Y899363D01*
X2129942Y897839D01*
X2118207Y896924D01*
X2063546Y890016D01*
X1992985Y886815D01*
X1924913Y890016D01*
X1889607Y895248D01*
X1880362Y896112D01*
X1877009Y897636D01*
X1856841Y899515D01*
X1855266Y901039D01*
X1848967Y901039D01*
X1847900Y902716D01*
X1841398Y902716D01*
X1840484Y904240D01*
X1828292Y906221D01*
X1824888Y907694D01*
X1811883Y909624D01*
X1810969Y911148D01*
X1804416Y911148D01*
X1803400Y912825D01*
X1796846Y912825D01*
X1795830Y914501D01*
X1791411Y914501D01*
X1785416Y916381D01*
X1782521Y917854D01*
X1779219Y917854D01*
X1778152Y919530D01*
X1774037Y919530D01*
X1771142Y921054D01*
X1763572Y923086D01*
X1760626Y924560D01*
X1757375Y924560D01*
X1756308Y926287D01*
X1752193Y926287D01*
X1749298Y927760D01*
X1741728Y929792D01*
X1738782Y931316D01*
X1735531Y931316D01*
X1734464Y932992D01*
X1729638Y932992D01*
X1728571Y934669D01*
X1725320Y934669D01*
X1713992Y939901D01*
X1706422Y942848D01*
X1698040Y946658D01*
X1694637Y947877D01*
X1682038Y953363D01*
X1661871Y961745D01*
X1657705Y964082D01*
X1645056Y970330D01*
X1644497Y971651D01*
X1641449Y971651D01*
X1640890Y972921D01*
X1613154Y987145D01*
X1612290Y988110D01*
X1603044Y992682D01*
X1598066Y995578D01*
X1594764Y998524D01*
X1593342Y998524D01*
X1570736Y1013663D01*
X1569008Y1013663D01*
X1569008Y1015034D01*
X1564386Y1017422D01*
X1539189Y1034135D01*
X1537004Y1036319D01*
X1503883Y1061059D01*
X1503070Y1062075D01*
X1497177Y1066088D01*
X1496314Y1067104D01*
X1490472Y1071168D01*
X1477873Y1083106D01*
X1468729Y1091387D01*
X1459382Y1100378D01*
X1443482Y1114907D01*
X1436674Y1121714D01*
X1408988Y1152753D01*
X1406448Y1155242D01*
X1393850Y1169517D01*
X1392885Y1170381D01*
X1388872Y1176274D01*
X1387856Y1177086D01*
X1383792Y1182979D01*
X1382826Y1183843D01*
X1378762Y1189685D01*
X1377797Y1190548D01*
X1359458Y1214932D01*
X1355852Y1219098D01*
X1347165Y1232052D01*
X1347165Y1233830D01*
X1345488Y1233830D01*
X1345488Y1235557D01*
X1337106Y1248054D01*
X1337106Y1249019D01*
X1326997Y1264005D01*
X1326997Y1265783D01*
X1325321Y1265783D01*
X1325321Y1267510D01*
X1318615Y1277416D01*
X1318615Y1279042D01*
X1316736Y1279702D01*
X1308474Y1279702D01*
X1308404Y1278382D01*
X1313586Y1270914D01*
X1313586Y1269136D01*
X1315262Y1269136D01*
X1315262Y1267358D01*
X1323644Y1254912D01*
X1323644Y1253896D01*
X1331671Y1241806D01*
X1334008Y1237183D01*
X1335430Y1237183D01*
X1335430Y1235405D01*
X1340104Y1228344D01*
X1342440Y1223721D01*
X1343812Y1223721D01*
X1343812Y1221536D01*
X1346809Y1218285D01*
X1350873Y1212392D01*
X1351889Y1211580D01*
X1355902Y1205687D01*
X1356918Y1204823D01*
X1360982Y1198930D01*
X1361948Y1198118D01*
X1381455Y1172057D01*
X1387957Y1163675D01*
X1390497Y1161135D01*
X1395272Y1155242D01*
X1405585Y1144320D01*
X1410411Y1138428D01*
X1420723Y1127506D01*
X1425549Y1121664D01*
X1435100Y1111554D01*
X1483766Y1066190D01*
X1511909Y1044702D01*
X1518208Y1040231D01*
X1519021Y1039215D01*
X1524914Y1035151D01*
X1525727Y1034186D01*
X1531620Y1030122D01*
X1532483Y1029106D01*
X1538376Y1025042D01*
X1541627Y1022045D01*
X1543050Y1022045D01*
X1546656Y1018692D01*
X1548841Y1018692D01*
X1548841Y1017320D01*
X1553464Y1014933D01*
X1570634Y1003553D01*
X1571599Y1003553D01*
X1575206Y1000201D01*
X1577441Y1000201D01*
X1577441Y998829D01*
X1582064Y996492D01*
X1597152Y986434D01*
X1642567Y962863D01*
X1643380Y961948D01*
X1661058Y953160D01*
X1663141Y953160D01*
X1663141Y951484D01*
X1665681Y951484D01*
X1668627Y950010D01*
X1677009Y946658D01*
X1685391Y942848D01*
X1689607Y941171D01*
X1692554Y939698D01*
X1695094Y939698D01*
X1695094Y938021D01*
X1697634Y938021D01*
X1700530Y936548D01*
X1708962Y933196D01*
X1717344Y929386D01*
X1721561Y927760D01*
X1724456Y926287D01*
X1728571Y926287D01*
X1729638Y924560D01*
X1733651Y924560D01*
X1734667Y922883D01*
X1739493Y922883D01*
X1740560Y921207D01*
X1744573Y921207D01*
X1745589Y919530D01*
X1750415Y919530D01*
X1751482Y917854D01*
X1755495Y917854D01*
X1756511Y916178D01*
X1761388Y916178D01*
X1762404Y914501D01*
X1766417Y914501D01*
X1767433Y912825D01*
X1772310Y912825D01*
X1773326Y911148D01*
X1777339Y911148D01*
X1778355Y909472D01*
X1782521Y909472D01*
X1785416Y907999D01*
X1791411Y906119D01*
X1795830Y906119D01*
X1796846Y904392D01*
X1803400Y904392D01*
X1804416Y902716D01*
X1810969Y902716D01*
X1811985Y901039D01*
X1818487Y901039D01*
X1819554Y899363D01*
X1826056Y899363D01*
X1827123Y897686D01*
X1833625Y897686D01*
X1834692Y896010D01*
X1841195Y896010D01*
X1842211Y894334D01*
X1848764Y894334D01*
X1849780Y892657D01*
X1856333Y892657D01*
X1857349Y890981D01*
X1867865Y890981D01*
X1869439Y889406D01*
X1879549Y888492D01*
X1892147Y886714D01*
X1901393Y885850D01*
X1904746Y884326D01*
X1913991Y883462D01*
X1927453Y881684D01*
X1963572Y879906D01*
X2024888Y879906D01*
X2061057Y881735D01*
X2089200Y885088D01*
X2128266Y890117D01*
X2137511Y891133D01*
X2139086Y892657D01*
X2146249Y892657D01*
X2147265Y894334D01*
X2154428Y894334D01*
X2156002Y895858D01*
X2162708Y896772D01*
X2202637Y904595D01*
X2203602Y906119D01*
X2207564Y906119D01*
X2208631Y907796D01*
X2212644Y907796D01*
X2213660Y909472D01*
X2217674Y909472D01*
X2218690Y911148D01*
X2222703Y911148D01*
X2223770Y912825D01*
X2227732Y912825D01*
X2228799Y914501D01*
X2232812Y914501D01*
X2233828Y916178D01*
X2237841Y916178D01*
X2238857Y917854D01*
X2242870Y917854D01*
X2243937Y919530D01*
X2247900Y919530D01*
X2248966Y921207D01*
X2252980Y921207D01*
X2253996Y922883D01*
X2258009Y922883D01*
X2259025Y924560D01*
X2262327Y924560D01*
X2265222Y926084D01*
X2291283Y936548D01*
X2294229Y938021D01*
X2296769Y938021D01*
X2299716Y939495D01*
X2323033Y948842D01*
X2350109Y961948D01*
X2350668Y963218D01*
X2353767Y963218D01*
X2354326Y964539D01*
X2387092Y980948D01*
X2394356Y985113D01*
X2411476Y996492D01*
X2416098Y998829D01*
X2416098Y1000201D01*
X2417826Y1000201D01*
X2440025Y1014933D01*
X2444648Y1017320D01*
X2444648Y1018692D01*
X2446883Y1018692D01*
X2450134Y1021689D01*
X2455976Y1025753D01*
X2456840Y1026769D01*
X2462733Y1030782D01*
X2463546Y1031798D01*
X2496667Y1056538D01*
X2498852Y1058672D01*
X2504744Y1062736D01*
X2507284Y1065326D01*
X2521559Y1077925D01*
X2524048Y1080465D01*
X2538374Y1093012D01*
X2540863Y1095603D01*
X2555087Y1108202D01*
X2566212Y1119936D01*
X2574493Y1129131D01*
X2602280Y1158595D01*
X2606344Y1164488D01*
X2607259Y1165352D01*
X2628696Y1193495D01*
X2629204Y1193901D01*
X2633218Y1199794D01*
X2634234Y1200607D01*
X2638247Y1206500D01*
X2639263Y1207363D01*
X2643327Y1213256D01*
X2646324Y1216507D01*
X2646324Y1217930D01*
X2649677Y1221536D01*
X2649677Y1223721D01*
X2651404Y1223721D01*
X2651404Y1225448D01*
X2664815Y1245565D01*
X2664815Y1246479D01*
X2668168Y1250086D01*
X2668168Y1252321D01*
X2669844Y1252321D01*
X2669844Y1254048D01*
X2681274Y1271219D01*
X2684830Y1278788D01*
X2686050Y1283004D01*
X2687574Y1299768D01*
X2688488Y1314094D01*
X2690012Y1315669D01*
X2690012Y1322781D01*
X2691688Y1323848D01*
X2691688Y1330350D01*
X2693416Y1331417D01*
X2693416Y1335430D01*
X2695092Y1336446D01*
X2695092Y1340459D01*
X2696768Y1341475D01*
X2696768Y1344777D01*
X2698242Y1347673D01*
X2701645Y1356106D01*
X2707741Y1368704D01*
X2712770Y1377086D01*
X2713736Y1380032D01*
X2715260Y1380032D01*
X2715260Y1381861D01*
X2720594Y1389684D01*
X2729128Y1399794D01*
X2731668Y1402334D01*
X2740863Y1413154D01*
X2756001Y1428394D01*
X2761894Y1432458D01*
X2762707Y1433474D01*
X2767787Y1436979D01*
X2782874Y1445310D01*
X2790444Y1449730D01*
X2812897Y1460703D01*
X2815996Y1460703D01*
X2817012Y1462379D01*
X2821889Y1462379D01*
X2822905Y1464056D01*
X2827731Y1464056D01*
X2828798Y1465732D01*
X2835300Y1465732D01*
X2836367Y1467459D01*
X2843733Y1467459D01*
X2844749Y1469136D01*
X2852115Y1469136D01*
X2853131Y1470812D01*
X2860497Y1470812D01*
X2861564Y1472488D01*
X2881630Y1472488D01*
X2881630Y1870811D01*
X2861564Y1870811D01*
X2860497Y1872488D01*
X2853131Y1872488D01*
X2852115Y1874164D01*
X2844749Y1874164D01*
X2843733Y1875840D01*
X2836367Y1875840D01*
X2835300Y1877517D01*
X2828798Y1877517D01*
X2827731Y1879193D01*
X2822905Y1879193D01*
X2821889Y1880870D01*
X2817012Y1880870D01*
X2815996Y1882546D01*
X2812897Y1882546D01*
X2790444Y1893519D01*
X2782874Y1897938D01*
X2767787Y1906270D01*
X2762707Y1909775D01*
X2761894Y1910791D01*
X2756001Y1914906D01*
X2740863Y1930146D01*
X2731668Y1940966D01*
X2729128Y1943506D01*
X2720594Y1953564D01*
X2715260Y1961438D01*
X2715260Y1963216D01*
X2713736Y1963216D01*
X2712770Y1966163D01*
X2707741Y1974596D01*
X2701645Y1987194D01*
X2696768Y1998522D01*
X2696768Y2001774D01*
X2695092Y2002840D01*
X2695092Y2006854D01*
X2693416Y2007870D01*
X2693416Y2011883D01*
X2691688Y2012899D01*
X2691688Y2019452D01*
X2690012Y2020468D01*
X2690012Y2027631D01*
X2688488Y2029206D01*
X2687523Y2044344D01*
X2685999Y2061159D01*
X2684729Y2065324D01*
X2681630Y2069795D01*
X2681630Y2070912D01*
X2676601Y2078228D01*
X2676601Y2079294D01*
X2671572Y2086660D01*
X2671572Y2087727D01*
X2666492Y2095042D01*
X2666492Y2096109D01*
X2661462Y2103475D01*
X2661462Y2104542D01*
X2656433Y2111857D01*
X2656433Y2112924D01*
X2651404Y2120239D01*
X2651404Y2121763D01*
X2648407Y2125014D01*
X2644292Y2130907D01*
X2643327Y2131720D01*
X2639263Y2137613D01*
X2638247Y2138426D01*
X2634234Y2144318D01*
X2633268Y2145182D01*
X2612288Y2172919D01*
X2611374Y2173732D01*
X2607310Y2179624D01*
X2603042Y2183841D01*
X2594762Y2193086D01*
X2561894Y2228291D01*
X2523236Y2264613D01*
X2514041Y2272893D01*
X2508656Y2278126D01*
X2495499Y2287981D01*
X2493264Y2290165D01*
X2487117Y2294737D01*
X2486253Y2295652D01*
X2480360Y2299716D01*
X2478125Y2301900D01*
X2471978Y2306523D01*
X2469743Y2308606D01*
X2456840Y2318258D01*
X2453589Y2321204D01*
X2451404Y2321204D01*
X2451404Y2322880D01*
X2449626Y2322880D01*
X2439720Y2329637D01*
X2437942Y2329637D01*
X2437942Y2331313D01*
X2436164Y2331313D01*
X2421178Y2341372D01*
X2420213Y2341372D01*
X2407767Y2349804D01*
X2406700Y2349804D01*
X2399690Y2354630D01*
X2392121Y2358999D01*
X2379522Y2365298D01*
X2378964Y2366619D01*
X2375865Y2366619D01*
X2375306Y2367838D01*
X2347620Y2382113D01*
X2346756Y2383028D01*
X2327859Y2392019D01*
X2316530Y2396642D01*
X2306015Y2401265D01*
X2300528Y2403348D01*
X2292146Y2407158D01*
X2284577Y2410104D01*
X2272792Y2415235D01*
X2266086Y2417216D01*
X2263140Y2418689D01*
X2259888Y2418689D01*
X2258822Y2420366D01*
X2254707Y2420366D01*
X2251811Y2421890D01*
X2244242Y2423922D01*
X2241296Y2425446D01*
X2238044Y2425446D01*
X2236978Y2427122D01*
X2232863Y2427122D01*
X2229967Y2428595D01*
X2222398Y2430627D01*
X2219452Y2432151D01*
X2216200Y2432151D01*
X2215134Y2433828D01*
X2210308Y2433828D01*
X2209241Y2435504D01*
X2204415Y2435504D01*
X2203399Y2437180D01*
X2196846Y2437180D01*
X2195830Y2438857D01*
X2189276Y2438857D01*
X2188362Y2440381D01*
X2176170Y2442362D01*
X2172817Y2443784D01*
X2159762Y2445766D01*
X2158847Y2447290D01*
X2152294Y2447290D01*
X2151278Y2448966D01*
X2144979Y2448966D01*
X2143404Y2450439D01*
X2091283Y2458262D01*
X2082038Y2459126D01*
X2078685Y2460599D01*
X2066950Y2461666D01*
X2031644Y2463393D01*
X1970278Y2463393D01*
X1934159Y2461564D01*
X1855978Y2452166D01*
X1854403Y2450642D01*
X1847392Y2450642D01*
X1845513Y2448356D01*
X1846732Y2446985D01*
X1844243Y2448407D01*
X1832457Y2456281D01*
X1823212Y2462174D01*
X1804720Y2471420D01*
X1775815Y2484221D01*
X1774596Y2484221D01*
X1748586Y2492756D01*
X1723237Y2498598D01*
X1692148Y2503373D01*
G37*
G36*
X1720799Y2471623D02*
G01*
X1690878Y2441702D01*
X1690878Y2436368D01*
X1694992Y2433675D01*
X1721307Y2438857D01*
X1724812Y2438857D01*
X1709369Y2423109D01*
X1709369Y2417876D01*
X1713484Y2415184D01*
X1719224Y2417927D01*
X1746351Y2445359D01*
X1746351Y2451506D01*
X1742236Y2453386D01*
X1726590Y2450541D01*
X1720697Y2449068D01*
X1713585Y2447950D01*
X1713585Y2449271D01*
X1727860Y2463850D01*
X1727860Y2468981D01*
X1725218Y2471623D01*
G37*
G36*
X1748028Y2438044D02*
G01*
X1737410Y2433777D01*
X1728825Y2424988D01*
X1725472Y2418892D01*
X1723694Y2412390D01*
X1724075Y2410104D01*
X1733956Y2410104D01*
X1737106Y2419045D01*
X1742541Y2424734D01*
X1747621Y2426817D01*
X1751787Y2427782D01*
X1755952Y2426157D01*
X1758950Y2423464D01*
X1758950Y2416098D01*
X1756562Y2411577D01*
X1750110Y2405329D01*
X1743862Y2402738D01*
X1739747Y2402738D01*
X1734769Y2406904D01*
X1733956Y2410104D01*
X1724075Y2410104D01*
X1725472Y2402027D01*
X1732940Y2394458D01*
X1739036Y2392426D01*
X1749653Y2393289D01*
X1757425Y2397861D01*
X1765452Y2406040D01*
X1769008Y2413609D01*
X1770075Y2422652D01*
X1767992Y2428900D01*
X1762760Y2434945D01*
X1756003Y2437993D01*
G37*
G36*
X1785416Y2408631D02*
G01*
X1775917Y2407970D01*
X1765706Y2403348D01*
X1758238Y2395372D01*
X1754581Y2387396D01*
X1753686Y2378303D01*
X1763979Y2378303D01*
X1763979Y2383485D01*
X1767535Y2390546D01*
X1771142Y2394458D01*
X1779981Y2398522D01*
X1781200Y2398420D01*
X1785416Y2396744D01*
X1790039Y2392324D01*
X1790039Y2390495D01*
X1770634Y2371242D01*
X1763979Y2378303D01*
X1753686Y2378303D01*
X1756562Y2370734D01*
X1768195Y2359050D01*
X1773580Y2359050D01*
X1802638Y2388057D01*
X1802638Y2394813D01*
X1792122Y2405176D01*
G37*
G36*
X2256434Y2383383D02*
G01*
X2256434Y2381707D01*
X2253183Y2381707D01*
X2252116Y2380030D01*
X2248408Y2380030D01*
X2245969Y2376678D01*
X2242108Y2376678D01*
X2234590Y2369159D01*
X2234590Y2366010D01*
X2229510Y2360726D01*
X2229510Y2357475D01*
X2227834Y2356408D01*
X2227834Y2350719D01*
X2226157Y2349703D01*
X2226157Y2336342D01*
X2232914Y2336342D01*
X2232914Y2345486D01*
X2234590Y2346502D01*
X2234590Y2352192D01*
X2236266Y2353259D01*
X2236266Y2355900D01*
X2239213Y2358644D01*
X2241296Y2362352D01*
X2241296Y2364130D01*
X2247138Y2369972D01*
X2250998Y2369972D01*
X2253437Y2373325D01*
X2256332Y2373325D01*
X2257348Y2375001D01*
X2261463Y2375001D01*
X2261463Y2376678D01*
X2275636Y2376678D01*
X2276703Y2375001D01*
X2279954Y2375001D01*
X2279954Y2373325D01*
X2284628Y2373325D01*
X2287066Y2369972D01*
X2289352Y2369972D01*
X2298446Y2360472D01*
X2298446Y2358186D01*
X2300122Y2358186D01*
X2300122Y2354834D01*
X2301798Y2354834D01*
X2301798Y2349804D01*
X2303475Y2349804D01*
X2303475Y2343048D01*
X2305151Y2343048D01*
X2305151Y2338984D01*
X2303475Y2337917D01*
X2303475Y2331313D01*
X2301798Y2331313D01*
X2301798Y2327960D01*
X2300122Y2327960D01*
X2300122Y2323693D01*
X2285847Y2309469D01*
X2283409Y2309469D01*
X2282393Y2307793D01*
X2278278Y2307793D01*
X2278278Y2306116D01*
X2259787Y2306116D01*
X2259787Y2307793D01*
X2254758Y2307793D01*
X2254758Y2309469D01*
X2251354Y2309469D01*
X2251354Y2311146D01*
X2249119Y2311146D01*
X2241296Y2318512D01*
X2241296Y2320391D01*
X2236266Y2325674D01*
X2236266Y2329637D01*
X2234590Y2329637D01*
X2234590Y2336342D01*
X2226157Y2336342D01*
X2226157Y2331313D01*
X2227834Y2331313D01*
X2227834Y2324557D01*
X2229510Y2324557D01*
X2229510Y2322017D01*
X2231644Y2318308D01*
X2234590Y2315565D01*
X2234590Y2313635D01*
X2241753Y2306523D01*
X2246325Y2304135D01*
X2246325Y2302713D01*
X2249678Y2302713D01*
X2249678Y2301036D01*
X2254758Y2301036D01*
X2254758Y2299360D01*
X2263902Y2299360D01*
X2264918Y2297684D01*
X2273249Y2297684D01*
X2273249Y2299360D01*
X2283307Y2299360D01*
X2283307Y2301036D01*
X2286558Y2301036D01*
X2287625Y2302713D01*
X2290876Y2302713D01*
X2306828Y2318664D01*
X2306828Y2322880D01*
X2308504Y2322880D01*
X2308504Y2326284D01*
X2310180Y2326284D01*
X2310180Y2333701D01*
X2311908Y2334768D01*
X2311908Y2348128D01*
X2310180Y2348128D01*
X2310180Y2354834D01*
X2308504Y2354834D01*
X2308504Y2359863D01*
X2306828Y2359863D01*
X2306828Y2363216D01*
X2305456Y2363216D01*
X2303068Y2367838D01*
X2294280Y2376678D01*
X2292096Y2376678D01*
X2289657Y2380030D01*
X2284984Y2380030D01*
X2284984Y2381707D01*
X2280869Y2381707D01*
X2279853Y2383383D01*
G37*
G36*
X1811477Y2381707D02*
G01*
X1802638Y2380996D01*
X1793748Y2376932D01*
X1785061Y2368143D01*
X1781302Y2360371D01*
X1780611Y2351684D01*
X1790852Y2351684D01*
X1790903Y2356104D01*
X1795780Y2364587D01*
X1801774Y2369159D01*
X1808937Y2371598D01*
X1812289Y2369718D01*
X1816912Y2365451D01*
X1816912Y2363622D01*
X1797507Y2344318D01*
X1790852Y2351684D01*
X1780611Y2351684D01*
X1783435Y2343912D01*
X1795475Y2332126D01*
X1800402Y2332126D01*
X1830578Y2362352D01*
X1829511Y2367838D01*
X1819859Y2377694D01*
G37*
G36*
X1844243Y2350363D02*
G01*
X1829104Y2344420D01*
X1816506Y2338171D01*
X1803603Y2332278D01*
X1803253Y2331618D01*
X1828546Y2331618D01*
X1831543Y2333802D01*
X1832914Y2333802D01*
X1832864Y2331720D01*
X1831339Y2329332D01*
X1828546Y2331618D01*
X1803253Y2331618D01*
X1801774Y2328875D01*
X1801774Y2325471D01*
X1805635Y2322931D01*
X1817674Y2327097D01*
X1826463Y2318512D01*
X1823415Y2310688D01*
X1822602Y2305253D01*
X1824685Y2302713D01*
X1829257Y2302713D01*
X1832610Y2306523D01*
X1845513Y2334615D01*
X1845513Y2335631D01*
X1849882Y2345182D01*
X1848408Y2349296D01*
G37*
G36*
X1882495Y2311146D02*
G01*
X1878939Y2307590D01*
X1879955Y2302408D01*
X1893570Y2288438D01*
X1888185Y2283409D01*
X1879752Y2290978D01*
X1874926Y2290978D01*
X1872335Y2287016D01*
X1873910Y2283002D01*
X1879955Y2277211D01*
X1879955Y2274874D01*
X1871929Y2267000D01*
X1868068Y2261565D01*
X1869135Y2258212D01*
X1872488Y2256383D01*
X1877110Y2257399D01*
X1904238Y2284679D01*
X1905965Y2289302D01*
X1904492Y2293061D01*
X1886102Y2311146D01*
G37*
G36*
X1908251Y2285085D02*
G01*
X1905152Y2282291D01*
X1905152Y2277567D01*
X1910181Y2271826D01*
X1910181Y2269642D01*
X1886661Y2245766D01*
X1886661Y2240889D01*
X1888693Y2238857D01*
X1892655Y2238857D01*
X1897176Y2241296D01*
X1918157Y2262378D01*
X1919630Y2262378D01*
X1925370Y2257348D01*
X1929841Y2257348D01*
X1932889Y2260142D01*
X1932889Y2264410D01*
X1912213Y2285085D01*
G37*
G36*
X1940864Y2253234D02*
G01*
X1930146Y2252472D01*
X1925726Y2249220D01*
X1925218Y2244598D01*
X1928012Y2241499D01*
X1939645Y2242464D01*
X1943150Y2239264D01*
X1944725Y2235149D01*
X1943607Y2228443D01*
X1934159Y2219096D01*
X1926691Y2217166D01*
X1923034Y2218588D01*
X1919376Y2223211D01*
X1920493Y2234488D01*
X1915871Y2237486D01*
X1911502Y2235047D01*
X1909267Y2230882D01*
X1910232Y2218283D01*
X1913991Y2213051D01*
X1919173Y2208682D01*
X1927250Y2207615D01*
X1932482Y2207463D01*
X1942134Y2211882D01*
X1950364Y2220163D01*
X1953971Y2227529D01*
X1954936Y2237740D01*
X1952904Y2244039D01*
X1947621Y2250033D01*
G37*
G36*
X2266492Y1664055D02*
G01*
X2266492Y1662379D01*
X2261463Y1662379D01*
X2261463Y1660702D01*
X2258212Y1660702D01*
X2257145Y1659026D01*
X2253843Y1659026D01*
X2242972Y1648155D01*
X2242972Y1645564D01*
X2241296Y1645564D01*
X2241296Y1641500D01*
X2239619Y1640433D01*
X2239619Y1621332D01*
X2246325Y1621332D01*
X2246325Y1636268D01*
X2248001Y1637283D01*
X2248001Y1640535D01*
X2249678Y1640535D01*
X2249678Y1643125D01*
X2258923Y1652320D01*
X2261362Y1652320D01*
X2262378Y1653997D01*
X2266492Y1653997D01*
X2266492Y1655673D01*
X2271522Y1655673D01*
X2271522Y1657350D01*
X2274925Y1657350D01*
X2274925Y1655673D01*
X2281631Y1655673D01*
X2281631Y1653997D01*
X2284984Y1653997D01*
X2284984Y1652320D01*
X2287981Y1652320D01*
X2290419Y1648968D01*
X2292654Y1648968D01*
X2295093Y1646529D01*
X2295093Y1644294D01*
X2298446Y1641856D01*
X2298446Y1638858D01*
X2300122Y1638858D01*
X2300122Y1632153D01*
X2301798Y1632153D01*
X2301798Y1625396D01*
X2300122Y1625396D01*
X2300122Y1618691D01*
X2298446Y1618691D01*
X2298446Y1615694D01*
X2295093Y1613306D01*
X2295093Y1611020D01*
X2292654Y1608632D01*
X2290419Y1608632D01*
X2287981Y1605280D01*
X2284984Y1605280D01*
X2284984Y1603552D01*
X2281631Y1603552D01*
X2281631Y1601876D01*
X2274925Y1601876D01*
X2274925Y1600200D01*
X2271522Y1600200D01*
X2271522Y1601876D01*
X2266492Y1601876D01*
X2266492Y1603552D01*
X2262378Y1603552D01*
X2261362Y1605280D01*
X2258923Y1605280D01*
X2249678Y1614474D01*
X2249678Y1617014D01*
X2248001Y1617014D01*
X2248001Y1620266D01*
X2246325Y1621332D01*
X2239619Y1621332D01*
X2239619Y1617116D01*
X2241296Y1616100D01*
X2241296Y1611985D01*
X2242972Y1611985D01*
X2242972Y1609445D01*
X2253843Y1598523D01*
X2257145Y1598523D01*
X2258212Y1596847D01*
X2261463Y1596847D01*
X2261463Y1595170D01*
X2266492Y1595170D01*
X2266492Y1593494D01*
X2279954Y1593494D01*
X2279954Y1595170D01*
X2286660Y1595170D01*
X2286660Y1596847D01*
X2290013Y1596847D01*
X2290013Y1598523D01*
X2293010Y1598523D01*
X2295448Y1601876D01*
X2297684Y1601876D01*
X2301798Y1605991D01*
X2301798Y1608226D01*
X2305151Y1610664D01*
X2305151Y1613662D01*
X2306828Y1613662D01*
X2306828Y1620367D01*
X2308504Y1620367D01*
X2308504Y1637182D01*
X2306828Y1637182D01*
X2306828Y1643888D01*
X2305151Y1643888D01*
X2305151Y1646885D01*
X2301798Y1649323D01*
X2301798Y1651558D01*
X2297684Y1655673D01*
X2295448Y1655673D01*
X2293010Y1659026D01*
X2290013Y1659026D01*
X2290013Y1660702D01*
X2286660Y1660702D01*
X2286660Y1662379D01*
X2279954Y1662379D01*
X2279954Y1664055D01*
G37*
G36*
X1807667Y1664055D02*
G01*
X1807667Y1662379D01*
X1800961Y1662379D01*
X1800961Y1660702D01*
X1797608Y1660702D01*
X1797608Y1659026D01*
X1794611Y1659026D01*
X1792173Y1655673D01*
X1789988Y1655673D01*
X1784146Y1649831D01*
X1784146Y1647291D01*
X1782470Y1647291D01*
X1782470Y1643888D01*
X1780793Y1643888D01*
X1780793Y1638858D01*
X1779117Y1638858D01*
X1779117Y1623720D01*
X1785823Y1623720D01*
X1785823Y1633829D01*
X1787499Y1633829D01*
X1787499Y1638858D01*
X1789175Y1638858D01*
X1789175Y1642211D01*
X1790852Y1642211D01*
X1790852Y1644802D01*
X1795018Y1648968D01*
X1797253Y1648968D01*
X1799640Y1652320D01*
X1802638Y1652320D01*
X1802638Y1653997D01*
X1805990Y1653997D01*
X1805990Y1655673D01*
X1812747Y1655673D01*
X1812747Y1657350D01*
X1815134Y1657350D01*
X1816201Y1655673D01*
X1821129Y1655673D01*
X1821129Y1653997D01*
X1824482Y1653997D01*
X1824482Y1652320D01*
X1828850Y1652320D01*
X1829714Y1648968D01*
X1832102Y1648968D01*
X1836267Y1644802D01*
X1836267Y1642618D01*
X1839620Y1640179D01*
X1839620Y1633829D01*
X1841296Y1633829D01*
X1841296Y1623720D01*
X1839620Y1623720D01*
X1839620Y1617370D01*
X1836267Y1614982D01*
X1836267Y1612747D01*
X1832102Y1608632D01*
X1829714Y1608632D01*
X1828850Y1605280D01*
X1824482Y1605280D01*
X1824482Y1603552D01*
X1821129Y1603552D01*
X1821129Y1601876D01*
X1816912Y1601876D01*
X1813356Y1599793D01*
X1812594Y1601876D01*
X1805990Y1601876D01*
X1805990Y1603552D01*
X1802638Y1603552D01*
X1802638Y1605280D01*
X1799640Y1605280D01*
X1797253Y1608632D01*
X1795018Y1608632D01*
X1790852Y1612747D01*
X1790852Y1615338D01*
X1789175Y1615338D01*
X1789175Y1618691D01*
X1787499Y1618691D01*
X1787499Y1623720D01*
X1779117Y1623720D01*
X1779117Y1618691D01*
X1780793Y1618691D01*
X1780793Y1613662D01*
X1782470Y1613662D01*
X1782470Y1610309D01*
X1784146Y1610309D01*
X1784146Y1607718D01*
X1789988Y1601876D01*
X1792173Y1601876D01*
X1794611Y1598523D01*
X1797608Y1598523D01*
X1797608Y1596847D01*
X1800961Y1596847D01*
X1800961Y1595170D01*
X1807667Y1595170D01*
X1807667Y1593494D01*
X1819351Y1593494D01*
X1820367Y1595170D01*
X1826158Y1595170D01*
X1826158Y1596847D01*
X1829511Y1596847D01*
X1829511Y1598523D01*
X1832051Y1598523D01*
X1835708Y1600606D01*
X1842973Y1607718D01*
X1842973Y1609902D01*
X1846325Y1612341D01*
X1846325Y1618691D01*
X1848002Y1618691D01*
X1848002Y1638858D01*
X1846325Y1638858D01*
X1846325Y1645208D01*
X1842973Y1647647D01*
X1842973Y1649831D01*
X1835708Y1656943D01*
X1832051Y1659026D01*
X1829511Y1659026D01*
X1829511Y1660702D01*
X1826158Y1660702D01*
X1826158Y1662379D01*
X1820367Y1662379D01*
X1819351Y1664055D01*
G37*
D10*
X2705100Y2742437D02*
G01*
X2705100Y2646934D01*
X2705100Y2742437D02*
G01*
X2664206Y2742437D01*
X2650490Y2737865D01*
X2645918Y2733294D01*
X2641345Y2724404D01*
X2641345Y2710687D01*
X2645918Y2701544D01*
X2650490Y2696971D01*
X2664206Y2692400D01*
X2705100Y2692400D01*
X2611374Y2742437D02*
G01*
X2611374Y2646934D01*
X2611374Y2646934D02*
G01*
X2557018Y2646934D01*
X2526791Y2742437D02*
G01*
X2526791Y2674365D01*
X2522474Y2660650D01*
X2513329Y2651505D01*
X2499613Y2646934D01*
X2490470Y2646934D01*
X2477008Y2651505D01*
X2467863Y2660650D01*
X2463291Y2674365D01*
X2463291Y2742437D01*
X2364993Y2719831D02*
G01*
X2369565Y2728976D01*
X2378709Y2737865D01*
X2387854Y2742437D01*
X2405888Y2742437D01*
X2415031Y2737865D01*
X2424175Y2728976D01*
X2428747Y2719831D01*
X2433320Y2706115D01*
X2433320Y2683510D01*
X2428747Y2669794D01*
X2424175Y2660650D01*
X2415031Y2651505D01*
X2405888Y2646934D01*
X2387854Y2646934D01*
X2378709Y2651505D01*
X2369565Y2660650D01*
X2364993Y2669794D01*
X2364993Y2683510D01*
X2387854Y2683510D02*
G01*
X2364993Y2683510D01*
X2265172Y2742437D02*
G01*
X2265172Y2646934D01*
X2265172Y2742437D02*
G01*
X2228850Y2646934D01*
X2192274Y2742437D02*
G01*
X2228850Y2646934D01*
X2192274Y2742437D02*
G01*
X2192274Y2646934D01*
X2162302Y2742437D02*
G01*
X2162302Y2646934D01*
X2162302Y2742437D02*
G01*
X2103374Y2742437D01*
X2162302Y2696971D02*
G01*
X2125979Y2696971D01*
X2162302Y2646934D02*
G01*
X2103374Y2646934D01*
X2003297Y2742437D02*
G01*
X2003297Y2646934D01*
X2003297Y2646934D02*
G01*
X1948688Y2646934D01*
X1918715Y2742437D02*
G01*
X1918715Y2646934D01*
X1888744Y2742437D02*
G01*
X1888744Y2646934D01*
X1824989Y2742437D02*
G01*
X1888744Y2678937D01*
X1865884Y2701544D02*
G01*
X1824989Y2646934D01*
X1795018Y2742437D02*
G01*
X1795018Y2646934D01*
X1795018Y2742437D02*
G01*
X1736089Y2742437D01*
X1795018Y2696971D02*
G01*
X1758695Y2696971D01*
X1795018Y2646934D02*
G01*
X1736089Y2646934D01*
X1604263Y2742437D02*
G01*
X1604263Y2646934D01*
X1636013Y2742437D02*
G01*
X1572260Y2742437D01*
X1542287Y2742437D02*
G01*
X1542287Y2646934D01*
X1478787Y2742437D02*
G01*
X1478787Y2646934D01*
X1542287Y2696971D02*
G01*
X1478787Y2696971D01*
X1412494Y2742437D02*
G01*
X1448815Y2646934D01*
X1412494Y2742437D02*
G01*
X1375918Y2646934D01*
X1435100Y2678937D02*
G01*
X1389634Y2678937D01*
X1314195Y2742437D02*
G01*
X1314195Y2646934D01*
X1345945Y2742437D02*
G01*
X1282445Y2742437D01*
X2323845Y5383276D02*
G01*
X2332990Y5392165D01*
X2346706Y5396737D01*
X2364993Y5396737D01*
X2378456Y5392165D01*
X2387600Y5383276D01*
X2387600Y5374131D01*
X2383027Y5364987D01*
X2378456Y5360415D01*
X2369311Y5355844D01*
X2342134Y5346700D01*
X2332990Y5342381D01*
X2328418Y5337810D01*
X2323845Y5328665D01*
X2323845Y5314950D01*
X2332990Y5305805D01*
X2346706Y5301234D01*
X2364993Y5301234D01*
X2378456Y5305805D01*
X2387600Y5314950D01*
X2257552Y5396737D02*
G01*
X2293874Y5301234D01*
X2257552Y5396737D02*
G01*
X2221229Y5301234D01*
X2280411Y5333237D02*
G01*
X2234945Y5333237D01*
X2164079Y5396737D02*
G01*
X2172970Y5392165D01*
X2182113Y5383276D01*
X2186686Y5374131D01*
X2191258Y5360415D01*
X2191258Y5337810D01*
X2186686Y5324094D01*
X2182113Y5314950D01*
X2172970Y5305805D01*
X2164079Y5301234D01*
X2145791Y5301234D01*
X2136647Y5305805D01*
X2127504Y5314950D01*
X2122931Y5324094D01*
X2118613Y5337810D01*
X2118613Y5360415D01*
X2122931Y5374131D01*
X2127504Y5383276D01*
X2136647Y5392165D01*
X2145791Y5396737D01*
X2164079Y5396737D01*
X2088388Y5342381D02*
G01*
X2006600Y5342381D01*
X1976627Y5396737D02*
G01*
X1976627Y5301234D01*
X1913128Y5396737D02*
G01*
X1913128Y5301234D01*
X1976627Y5351271D02*
G01*
X1913128Y5351271D01*
X1883155Y5396737D02*
G01*
X1883155Y5301234D01*
X1883155Y5396737D02*
G01*
X1823973Y5396737D01*
X1883155Y5351271D02*
G01*
X1846579Y5351271D01*
X1883155Y5301234D02*
G01*
X1823973Y5301234D01*
X1757679Y5396737D02*
G01*
X1794002Y5301234D01*
X1757679Y5396737D02*
G01*
X1721357Y5301234D01*
X1780286Y5333237D02*
G01*
X1734820Y5333237D01*
X1691131Y5396737D02*
G01*
X1691131Y5301234D01*
X1691131Y5396737D02*
G01*
X1659381Y5396737D01*
X1645665Y5392165D01*
X1636776Y5383276D01*
X1632204Y5374131D01*
X1627631Y5360415D01*
X1627631Y5337810D01*
X1632204Y5324094D01*
X1636776Y5314950D01*
X1645665Y5305805D01*
X1659381Y5301234D01*
X1691131Y5301234D01*
X1597660Y5396737D02*
G01*
X1597660Y5301234D01*
X1597660Y5396737D02*
G01*
X1538478Y5396737D01*
X1597660Y5351271D02*
G01*
X1561337Y5351271D01*
X1597660Y5301234D02*
G01*
X1538478Y5301234D01*
X1508505Y5396737D02*
G01*
X1508505Y5301234D01*
X1508505Y5396737D02*
G01*
X1467612Y5396737D01*
X1453895Y5392165D01*
X1449323Y5387594D01*
X1444752Y5378704D01*
X1444752Y5369560D01*
X1449323Y5360415D01*
X1453895Y5355844D01*
X1467612Y5351271D01*
X1508505Y5351271D01*
X1476755Y5351271D02*
G01*
X1444752Y5301234D01*
D11*
X1714500Y4128538D02*
G01*
X1714500Y4019435D01*
X1714500Y4128538D02*
G01*
X1678132Y4128538D01*
X1662544Y4123344D01*
X1652155Y4112953D01*
X1646958Y4102562D01*
X1641764Y4086974D01*
X1641764Y4060997D01*
X1646958Y4045412D01*
X1652155Y4035021D01*
X1662544Y4024629D01*
X1678132Y4019435D01*
X1714500Y4019435D01*
X1607474Y4066194D02*
G01*
X1513954Y4066194D01*
X1406928Y4112953D02*
G01*
X1417320Y4123344D01*
X1432905Y4128538D01*
X1453687Y4128538D01*
X1469275Y4123344D01*
X1479664Y4112953D01*
X1479664Y4102562D01*
X1474470Y4092171D01*
X1469275Y4086974D01*
X1458884Y4081779D01*
X1427711Y4071388D01*
X1417320Y4066194D01*
X1412125Y4060997D01*
X1406928Y4050606D01*
X1406928Y4035021D01*
X1417320Y4024629D01*
X1432905Y4019435D01*
X1453687Y4019435D01*
X1469275Y4024629D01*
X1479664Y4035021D01*
X1331074Y4128538D02*
G01*
X1372638Y4019435D01*
X1331074Y4128538D02*
G01*
X1289512Y4019435D01*
X1357053Y4055803D02*
G01*
X1305097Y4055803D01*
X1224048Y4128538D02*
G01*
X1234439Y4123344D01*
X1244831Y4112953D01*
X1250025Y4102562D01*
X1255222Y4086974D01*
X1255222Y4060997D01*
X1250025Y4045412D01*
X1244831Y4035021D01*
X1234439Y4024629D01*
X1224048Y4019435D01*
X1203266Y4019435D01*
X1192875Y4024629D01*
X1182484Y4035021D01*
X1177289Y4045412D01*
X1172095Y4060997D01*
X1172095Y4086974D01*
X1177289Y4102562D01*
X1182484Y4112953D01*
X1192875Y4123344D01*
X1203266Y4128538D01*
X1224048Y4128538D01*
X2743200Y4153938D02*
G01*
X2743200Y4044835D01*
X2743200Y4153938D02*
G01*
X2696441Y4153938D01*
X2680855Y4148744D01*
X2675658Y4143547D01*
X2670464Y4133156D01*
X2670464Y4122765D01*
X2675658Y4112374D01*
X2680855Y4107179D01*
X2696441Y4101985D01*
X2743200Y4101985D01*
X2706832Y4101985D02*
G01*
X2670464Y4044835D01*
X2636174Y4091594D02*
G01*
X2542654Y4091594D01*
X2435628Y4138353D02*
G01*
X2446020Y4148744D01*
X2461605Y4153938D01*
X2482387Y4153938D01*
X2497975Y4148744D01*
X2508364Y4138353D01*
X2508364Y4127962D01*
X2503170Y4117571D01*
X2497975Y4112374D01*
X2487584Y4107179D01*
X2456411Y4096788D01*
X2446020Y4091594D01*
X2440825Y4086397D01*
X2435628Y4076006D01*
X2435628Y4060421D01*
X2446020Y4050029D01*
X2461605Y4044835D01*
X2482387Y4044835D01*
X2497975Y4050029D01*
X2508364Y4060421D01*
X2359774Y4153938D02*
G01*
X2401338Y4044835D01*
X2359774Y4153938D02*
G01*
X2318212Y4044835D01*
X2385753Y4081203D02*
G01*
X2333797Y4081203D01*
X2252748Y4153938D02*
G01*
X2263140Y4148744D01*
X2273531Y4138353D01*
X2278725Y4127962D01*
X2283922Y4112374D01*
X2283922Y4086397D01*
X2278725Y4070812D01*
X2273531Y4060421D01*
X2263140Y4050029D01*
X2252748Y4044835D01*
X2231966Y4044835D01*
X2221575Y4050029D01*
X2211184Y4060421D01*
X2205990Y4070812D01*
X2200795Y4086397D01*
X2200795Y4112374D01*
X2205990Y4127962D01*
X2211184Y4138353D01*
X2221575Y4148744D01*
X2231966Y4153938D01*
X2252748Y4153938D01*
D12*
X1277099Y3949014D02*
G01*
X1294483Y3949014D01*
X1277099Y3797985D02*
G01*
X1294483Y3797985D01*
X1277099Y3797985D02*
G01*
X1277099Y3786880D01*
X1294483Y3786880D01*
X1294483Y3960119D02*
G01*
X1277099Y3960119D01*
X1277099Y3949014D01*
X1294483Y3949014D02*
G01*
X1294483Y3960119D01*
X1294483Y3786880D02*
G01*
X1294483Y3797985D01*
X1352387Y3786880D02*
G01*
X1352387Y3960119D01*
D11*
X1338099Y3786880D02*
G01*
X1338099Y3960119D01*
X1294483Y3786880D02*
G01*
X1575716Y3786880D01*
X1575716Y3786880D02*
G01*
X1575716Y3803680D01*
X1294483Y3960119D02*
G01*
X1575716Y3960119D01*
X1575716Y3960119D02*
G01*
X1575716Y3943319D01*
X2432179Y3765590D02*
G01*
X2296187Y3765590D01*
X2296187Y3981409D01*
X2432179Y3981409D01*
X2622420Y3765590D02*
G01*
X2758412Y3765590D01*
X2758412Y3981409D01*
X2622420Y3981409D01*
D13*
X2173998Y5102313D02*
G01*
X2173998Y5172199D01*
X1635000Y5172199D01*
X2173998Y4848313D02*
G01*
X2173998Y4956086D01*
X2173998Y4594313D02*
G01*
X2173998Y4702086D01*
X1635000Y4448086D02*
G01*
X1635000Y4378200D01*
X2173998Y4378200D01*
X2173998Y4448086D01*
X1635000Y4702086D02*
G01*
X1635000Y4594313D01*
X1635000Y4956086D02*
G01*
X1635000Y4848313D01*
X1635000Y5172199D02*
G01*
X1635000Y5102313D01*
D14*
G75*
G01
X2288007Y5146192D02*
G03X2288007Y5146192I-15011J0D01*
M02*
