G04 Layer: BottomLayer*
G04 EasyEDA v6.5.40, 2024-02-07 10:12:07*
G04 964da254980c4c80920fb8b7fcdf49c0,d07ef30ec77949ce8e11233ba57d236c,10*
G04 Gerber Generator version 0.2*
G04 Scale: 100 percent, Rotated: No, Reflected: No *
G04 Dimensions in millimeters *
G04 leading zeros omitted , absolute positions ,4 integer and 5 decimal *
%FSLAX45Y45*%
%MOMM*%

%AMMACRO1*21,1,$1,$2,0,0,$3*%
%ADD10C,0.2540*%
%ADD11MACRO1,0.95X1.15X0.0000*%
%ADD12MACRO1,1.701X1.2075X90.0000*%
%ADD13MACRO1,1X3.4X-90.0000*%
%ADD14C,0.6100*%

%LPD*%
D10*
X1845249Y4521189D02*
G01*
X1845249Y4317024D01*
X2288783Y3873489D01*
X1644995Y4521189D02*
G01*
X1845249Y4521189D01*
X2379411Y3873489D02*
G01*
X2288783Y3873489D01*
X1444741Y5029189D02*
G01*
X1265849Y4850297D01*
X1265849Y3873489D01*
X1644995Y5029189D02*
G01*
X1444741Y5029189D01*
X1604330Y3873489D02*
G01*
X1604330Y3757462D01*
X1691375Y3670416D01*
X2765795Y3873489D02*
G01*
X2818627Y3873489D01*
X2830083Y3884945D01*
X2675168Y3873489D02*
G01*
X2720482Y3873489D01*
X2720482Y3873489D02*
G01*
X2765795Y3873489D01*
X2720482Y3873489D02*
G01*
X2517409Y3670416D01*
X1691375Y3670416D01*
X1845249Y4775189D02*
G01*
X1964603Y4655835D01*
X1964603Y4453219D01*
X2353884Y4063939D01*
X2527289Y4063939D01*
X1644995Y4775189D02*
G01*
X1845249Y4775189D01*
X2365237Y4521189D02*
G01*
X2568412Y4318015D01*
X2896783Y4318015D01*
X2164984Y4521189D02*
G01*
X2365237Y4521189D01*
X2164984Y5029189D02*
G01*
X1964730Y5029189D01*
X984722Y4442119D02*
G01*
X759932Y4442119D01*
X1964730Y5029189D02*
G01*
X1881621Y5112298D01*
X1458203Y5112298D01*
X984722Y4638817D01*
X984722Y4442119D01*
X984722Y4442119D02*
G01*
X984722Y3488730D01*
X1957771Y2515682D01*
X1957771Y2515682D02*
G01*
X2273289Y2200163D01*
X2273289Y1689343D01*
X2164989Y4775187D02*
G01*
X2362212Y4775187D01*
X2654300Y4483100D01*
D11*
G01*
X1604340Y3873500D03*
G01*
X1265859Y3873500D03*
D12*
G01*
X2379423Y3873500D03*
G01*
X2675176Y3873500D03*
D13*
G01*
X2164994Y5029200D03*
G01*
X2164991Y4775200D03*
G01*
X2164994Y4521200D03*
G01*
X1645005Y5029200D03*
G01*
X1645008Y4775200D03*
G01*
X1645005Y4521200D03*
D14*
G01*
X2654300Y4483100D03*
G01*
X2273289Y1689343D03*
G01*
X1957771Y2515682D03*
G01*
X759932Y4442119D03*
G01*
X2896783Y4318015D03*
G01*
X2527289Y4063939D03*
G01*
X2830083Y3884945D03*
G01*
X1691375Y3670416D03*
M02*
