G04 Layer: BoardOutlineLayer*
G04 Panelize: Stamp Hole, Column: 3, Row: 1, Board Size: 32.78mm x 60.14mm, Panelized Board Size: 108.35mm x 60.14mm*
G04 EasyEDA v6.5.42, 2024-02-25 13:01:32*
G04 b3e2e6fb8f204fb0a1d4e493a2091a1c,d07ef30ec77949ce8e11233ba57d236c,10*
G04 Gerber Generator version 0.2*
G04 Scale: 100 percent, Rotated: No, Reflected: No *
G04 Dimensions in millimeters *
G04 leading zeros omitted , absolute positions ,4 integer and 5 decimal *
%FSLAX45Y45*%
%MOMM*%

%ADD10C,0.2540*%
D10*
X846998Y4504903D02*
G01*
X850900Y1371600D01*
X2984512Y1371600D01*
X2984500Y4495800D01*
G75*
G01*
X2984513Y4501683D02*
G03*
X847166Y4504903I-1066801J1244599D01*
X4625466Y4504903D02*
G01*
X4629368Y1371600D01*
X6762981Y1371600D01*
X6762968Y4495800D01*
G75*
G01*
X6762981Y4501683D02*
G03*
X4625635Y4504903I-1066800J1244599D01*
X8403935Y4504903D02*
G01*
X8407836Y1371600D01*
X10541449Y1371600D01*
X10541436Y4495800D01*
G75*
G01*
X10541450Y4501683D02*
G03*
X8404103Y4504903I-1066801J1244599D01*
X278482Y8485519D02*
G01*
X11113861Y8485519D01*
X11113861Y271602D01*
X278482Y271602D01*
X278482Y8485519D01*
X1575706Y7885521D02*
G01*
X278483Y7885521D01*
X1575706Y871601D02*
G01*
X278483Y871601D01*
X5354165Y7885521D02*
G01*
X2259716Y7885521D01*
X5354165Y871601D02*
G01*
X2259716Y871601D01*
X9132625Y7885521D02*
G01*
X6038174Y7885521D01*
X9132625Y871601D02*
G01*
X6038174Y871601D01*
X11113861Y7885521D02*
G01*
X9816635Y7885521D01*
X11113861Y871601D02*
G01*
X9816635Y871601D01*
X4408335Y4720564D02*
G01*
X3205548Y4720564D01*
X4616874Y4036555D02*
G01*
X2993669Y4036555D01*
X8186794Y4720564D02*
G01*
X6984007Y4720564D01*
X8395333Y4036555D02*
G01*
X6772128Y4036555D01*
X1575706Y7358611D02*
G01*
X1575706Y7885521D01*
X1575706Y871601D02*
G01*
X1575706Y1362433D01*
X2259716Y7358611D02*
G01*
X2259716Y7885521D01*
X2259716Y871601D02*
G01*
X2259716Y1362433D01*
X5354165Y7358611D02*
G01*
X5354165Y7885521D01*
X5354165Y871601D02*
G01*
X5354165Y1362433D01*
X6038174Y7358611D02*
G01*
X6038174Y7885521D01*
X6038174Y871601D02*
G01*
X6038174Y1362433D01*
X9132625Y7358611D02*
G01*
X9132625Y7885521D01*
X9132625Y871601D02*
G01*
X9132625Y1362433D01*
X9816635Y7358611D02*
G01*
X9816635Y7885521D01*
X9816635Y871601D02*
G01*
X9816635Y1362433D01*

%LPD*%
M02*
