G04 Layer: BottomLayer*
G04 EasyEDA v6.5.40, 2024-02-16 10:36:59*
G04 cbf7a00361bd432e9e78a992b2a5909c,d07ef30ec77949ce8e11233ba57d236c,10*
G04 Gerber Generator version 0.2*
G04 Scale: 100 percent, Rotated: No, Reflected: No *
G04 Dimensions in millimeters *
G04 leading zeros omitted , absolute positions ,4 integer and 5 decimal *
%FSLAX45Y45*%
%MOMM*%

%AMMACRO1*21,1,$1,$2,0,0,$3*%
%ADD10C,0.2540*%
%ADD11MACRO1,0.95X1.15X0.0000*%
%ADD12MACRO1,1.701X1.2075X90.0000*%
%ADD13MACRO1,1X3.4X-90.0000*%
%ADD14MACRO1,1.701X1.2075X-90.0000*%
%ADD15C,0.6100*%

%LPD*%
D10*
X2654300Y736600D02*
G01*
X2768600Y850900D01*
X2768600Y3556000D01*
X3039877Y3839969D01*
X3039877Y4328157D01*
X2592326Y4775200D01*
X2165101Y4775200D01*
X2164989Y5029187D02*
G01*
X2164979Y5029200D01*
X1930400Y5029200D01*
X1388818Y723889D02*
G01*
X1479445Y723889D01*
X2259632Y736589D02*
G01*
X2214318Y736589D01*
X2322802Y723737D02*
G01*
X2317798Y723737D01*
X2304945Y736589D01*
X2164991Y4521189D02*
G01*
X2365245Y4521189D01*
X2365237Y4521187D02*
G01*
X2581125Y4305300D01*
X2946400Y4305300D01*
X1645003Y4775189D02*
G01*
X1444749Y4775189D01*
X1444749Y4775189D02*
G01*
X1430525Y4760965D01*
X1430525Y1372250D01*
X1883458Y919317D01*
X1775203Y723889D02*
G01*
X1883458Y832144D01*
X1883458Y919317D01*
X1883458Y919317D02*
G01*
X1901075Y901700D01*
X2527300Y901700D01*
X1684576Y723889D02*
G01*
X1775203Y723889D01*
X1536700Y3695700D02*
G01*
X1540840Y3699840D01*
X1540840Y3873500D01*
X2074440Y1701662D02*
G01*
X2074440Y3192040D01*
X2400300Y3517900D01*
X1645003Y5029189D02*
G01*
X1444749Y5029189D01*
X1444749Y5029187D02*
G01*
X1202359Y4786797D01*
X1202359Y3873500D01*
X1645003Y4521189D02*
G01*
X1845256Y4521189D01*
X2662478Y3886200D02*
G01*
X2808211Y4031932D01*
X2856334Y4031932D01*
X2366721Y3886200D02*
G01*
X2301504Y3886200D01*
X2286000Y3886200D01*
X1845256Y4521200D02*
G01*
X1845256Y4317024D01*
X2286000Y3886200D01*
X2654300Y736600D02*
G01*
X2514600Y736600D01*
X2214318Y736589D02*
G01*
X2123691Y736589D01*
X2259632Y736589D02*
G01*
X2304945Y736589D01*
X1540840Y3873500D02*
G01*
X1643974Y3873500D01*
X1643987Y3873487D01*
X2123691Y736600D02*
G01*
X1981200Y571500D01*
X1562100Y571500D01*
X1479445Y723900D01*
X2662427Y3886200D02*
G01*
X2497327Y3721100D01*
X1796287Y3721100D01*
X1643887Y3873500D01*
D11*
G01*
X1540840Y3873500D03*
G01*
X1202359Y3873500D03*
D12*
G01*
X2366723Y3886200D03*
G01*
X2662476Y3886200D03*
D13*
G01*
X2164994Y5029200D03*
G01*
X2164991Y4775200D03*
G01*
X2164994Y4521200D03*
G01*
X1645005Y5029200D03*
G01*
X1645008Y4775200D03*
G01*
X1645005Y4521200D03*
D14*
G01*
X1684576Y723900D03*
G01*
X1388823Y723900D03*
G01*
X2510076Y736600D03*
G01*
X2214323Y736600D03*
D15*
G01*
X2654300Y736600D03*
G01*
X1930400Y5029200D03*
G01*
X2322804Y723747D03*
G01*
X2946400Y4305300D03*
G01*
X2527300Y901700D03*
G01*
X1536700Y3695700D03*
G01*
X2856331Y4031945D03*
G01*
X2074443Y1701672D03*
G01*
X2400300Y3517900D03*
M02*
