G04 Layer: BottomPasteMaskLayer*
G04 EasyEDA v6.5.40, 2024-02-07 10:12:07*
G04 964da254980c4c80920fb8b7fcdf49c0,d07ef30ec77949ce8e11233ba57d236c,10*
G04 Gerber Generator version 0.2*
G04 Scale: 100 percent, Rotated: No, Reflected: No *
G04 Dimensions in millimeters *
G04 leading zeros omitted , absolute positions ,4 integer and 5 decimal *
%FSLAX45Y45*%
%MOMM*%

%AMMACRO1*21,1,$1,$2,0,0,$3*%
%ADD10MACRO1,0.95X1.1501X0.0000*%
%ADD11MACRO1,1X3.4X-90.0000*%

%LPD*%
G36*
X2329027Y3958539D02*
G01*
X2319070Y3948531D01*
X2319070Y3798468D01*
X2329027Y3788460D01*
X2429814Y3788460D01*
X2439822Y3798468D01*
X2439822Y3834587D01*
X2429814Y3844594D01*
X2408732Y3844594D01*
X2398725Y3854602D01*
X2398725Y3892397D01*
X2408732Y3902405D01*
X2429814Y3902405D01*
X2439822Y3912412D01*
X2439822Y3948531D01*
X2429814Y3958539D01*
G37*
G36*
X2624785Y3958539D02*
G01*
X2614777Y3948531D01*
X2614777Y3912412D01*
X2624785Y3902405D01*
X2645867Y3902405D01*
X2655874Y3892397D01*
X2655874Y3854602D01*
X2645867Y3844594D01*
X2624785Y3844594D01*
X2614777Y3834587D01*
X2614777Y3798468D01*
X2624785Y3788460D01*
X2725572Y3788460D01*
X2735529Y3798468D01*
X2735529Y3948531D01*
X2725572Y3958539D01*
G37*
D10*
G01*
X1604340Y3873500D03*
G01*
X1265859Y3873500D03*
D11*
G01*
X2164994Y5029187D03*
G01*
X2164994Y4775187D03*
G01*
X2164994Y4521187D03*
G01*
X1645005Y5029187D03*
G01*
X1645005Y4775187D03*
G01*
X1645005Y4521187D03*
M02*
