G04 Layer: TopSolderMaskLayer*
G04 Panelize: Stamp Hole, Column: 3, Row: 1, Board Size: 32.78mm x 60.14mm, Panelized Board Size: 108.35mm x 60.14mm*
G04 EasyEDA v6.5.42, 2024-02-25 13:01:32*
G04 b3e2e6fb8f204fb0a1d4e493a2091a1c,d07ef30ec77949ce8e11233ba57d236c,10*
G04 Gerber Generator version 0.2*
G04 Scale: 100 percent, Rotated: No, Reflected: No *
G04 Dimensions in millimeters *
G04 leading zeros omitted , absolute positions ,4 integer and 5 decimal *
%FSLAX45Y45*%
%MOMM*%

%AMMACRO1*1,1,$1,$2,$3*1,1,$1,$4,$5*1,1,$1,0-$2,0-$3*1,1,$1,0-$4,0-$5*20,1,$1,$2,$3,$4,$5,0*20,1,$1,$4,$5,0-$2,0-$3,0*20,1,$1,0-$2,0-$3,0-$4,0-$5,0*20,1,$1,0-$4,0-$5,$2,$3,0*4,1,4,$2,$3,$4,$5,0-$2,0-$3,0-$4,0-$5,$2,$3,0*%
%ADD10MACRO1,0.1016X0.475X-0.575X-0.475X-0.575*%
%ADD11MACRO1,0.1016X-0.6038X-0.8505X-0.6038X0.8505*%
%ADD12MACRO1,0.1016X0.6038X-0.8505X0.6038X0.8505*%
%ADD13MACRO1,0.1016X0.6038X0.8505X0.6038X-0.8505*%
%ADD14MACRO1,0.1016X-0.6038X0.8505X-0.6038X-0.8505*%
%ADD15O,0.68961X2.1466048*%
%ADD16MACRO1,0.1016X-0.5X-0.6998X0.5X-0.6998*%
%ADD17MACRO1,0.1016X0.5X-0.6998X-0.5X-0.6998*%
%ADD18MACRO1,0.1016X0.5X0.6998X-0.5X0.6998*%
%ADD19MACRO1,0.1016X-0.5X0.6998X0.5X0.6998*%
%ADD20O,2.3516082000000003X0.7315962*%
%ADD21MACRO1,0.1016X1.6X0.4X1.6X-0.4*%
%ADD22MACRO1,0.1016X-0.8505X0.6038X0.8505X0.6038*%
%ADD23MACRO1,0.1016X-0.8505X-0.6038X0.8505X-0.6038*%
%ADD24R,1.8026X1.3091*%
%ADD25C,3.0000*%

%LPD*%
D10*
G01*
X1151559Y5003800D03*
G01*
X1490040Y5003800D03*
D11*
G01*
X2802176Y4991100D03*
D12*
G01*
X2506423Y4991100D03*
D13*
G01*
X1452323Y2146300D03*
D14*
G01*
X1748076Y2146300D03*
D11*
G01*
X1748076Y1714500D03*
D12*
G01*
X1452323Y1714500D03*
D15*
G01*
X2273300Y1589659D03*
G01*
X2400300Y1589659D03*
G01*
X2527300Y1589659D03*
G01*
X2654300Y1589659D03*
G01*
X2273300Y2144140D03*
G01*
X2400300Y2144140D03*
G01*
X2527300Y2144140D03*
G01*
X2654300Y2144140D03*
D16*
G01*
X2939778Y6261100D03*
D17*
G01*
X3149836Y6261100D03*
D16*
G01*
X1342771Y4330700D03*
D17*
G01*
X1552828Y4330700D03*
D18*
G01*
X879728Y6261100D03*
D19*
G01*
X669671Y6261100D03*
D20*
G01*
X1196390Y2997200D03*
G01*
X1196390Y2870200D03*
G01*
X1196390Y2743200D03*
G01*
X1196390Y2616200D03*
G01*
X1902409Y2997200D03*
G01*
X1902409Y2870200D03*
G01*
X1902409Y2743200D03*
G01*
X1902409Y2616200D03*
D21*
G01*
X2195804Y5461000D03*
G01*
X1715808Y5461000D03*
G01*
X2195804Y5715000D03*
G01*
X1715808Y5715000D03*
G01*
X2195804Y5969000D03*
G01*
X1715808Y5969000D03*
G01*
X2195804Y6223000D03*
G01*
X1715808Y6223000D03*
D22*
G01*
X3149602Y5414723D03*
D23*
G01*
X3149602Y5710476D03*
D11*
G01*
X1595676Y3708400D03*
D12*
G01*
X1299923Y3708400D03*
D24*
G01*
X673100Y5735878D03*
G01*
X673100Y5440121D03*
D25*
G01*
X1278480Y8085519D03*
G01*
X10113863Y8085519D03*
G01*
X1778479Y671601D03*
G01*
X9613864Y671601D03*
M02*
