G04 Layer: BottomLayer*
G04 Panelize: Stamp Hole, Column: 3, Row: 1, Board Size: 32.78mm x 60.14mm, Panelized Board Size: 108.35mm x 60.14mm*
G04 EasyEDA v6.5.42, 2024-02-25 13:01:32*
G04 b3e2e6fb8f204fb0a1d4e493a2091a1c,d07ef30ec77949ce8e11233ba57d236c,10*
G04 Gerber Generator version 0.2*
G04 Scale: 100 percent, Rotated: No, Reflected: No *
G04 Dimensions in millimeters *
G04 leading zeros omitted , absolute positions ,4 integer and 5 decimal *
%FSLAX45Y45*%
%MOMM*%

%AMMACRO1*21,1,$1,$2,0,0,$3*%
%ADD10C,0.2540*%
%ADD11MACRO1,1X3.4X-90.0000*%
%ADD12C,1.0000*%
%ADD13C,0.6100*%

%LPD*%
D10*
X2164991Y5880089D02*
G01*
X2387749Y5880089D01*
X2504793Y4530333D02*
G01*
X3075099Y5100640D01*
X3075099Y5457510D01*
X2755262Y5777346D01*
X2490492Y5777346D01*
X2387749Y5880089D01*
X1942233Y6134089D02*
G01*
X1839033Y6237290D01*
X1045893Y6237290D01*
X811019Y6002416D01*
X2164991Y6134089D02*
G01*
X1942233Y6134089D01*
X2164991Y5626089D02*
G01*
X2777868Y5626089D01*
X2989247Y5414711D01*
X1645003Y5880089D02*
G01*
X1867761Y5880089D01*
X1645003Y6134089D02*
G01*
X1586278Y6134089D01*
X1421762Y5969574D01*
X1421762Y5428173D01*
X1490037Y5359897D01*
X1645003Y5626089D02*
G01*
X1867761Y5626089D01*
X2806700Y5181600D02*
G01*
X2312248Y5181600D01*
X1867761Y5626087D01*
X1400274Y6134724D02*
G01*
X1106573Y5841024D01*
X1106573Y4871811D01*
X2478605Y5297286D02*
G01*
X2836694Y5297286D01*
X2911726Y5222255D01*
X2911726Y5136504D01*
X2608806Y4833584D01*
X2126104Y4833584D01*
X2540000Y5880100D02*
G01*
X2437117Y5982982D01*
X1970659Y5982982D01*
X1867761Y5880087D01*
D11*
G01*
X2164994Y6134100D03*
G01*
X2164991Y5880100D03*
G01*
X2164994Y5626100D03*
G01*
X1645005Y6134100D03*
G01*
X1645008Y5880100D03*
G01*
X1645005Y5626100D03*
D12*
G01*
X1278480Y8085519D03*
G01*
X10113863Y8085519D03*
G01*
X1778479Y671601D03*
G01*
X9613864Y671601D03*
D13*
G01*
X2504795Y4530344D03*
G01*
X811021Y6002426D03*
G01*
X2989249Y5414721D03*
G01*
X2540000Y5880100D03*
G01*
X1490040Y5359907D03*
G01*
X2806700Y5181600D03*
G01*
X1400276Y6134735D03*
G01*
X1106576Y4871821D03*
G01*
X2126106Y4833594D03*
G01*
X2478608Y5297296D03*
M02*
