G04 EAGLE Gerber RS-274X export*
G75*
%MOMM*%
%FSLAX34Y34*%
%LPD*%
%INBottom Copper*%
%IPPOS*%
%AMOC8*
5,1,8,0,0,1.08239X$1,22.5*%
G01*
%ADD10R,7.300000X6.400000*%
%ADD11R,2.209800X0.762000*%
%ADD12C,0.889000*%
%ADD13R,0.812800X0.990600*%
%ADD14C,0.525000*%
%ADD15C,0.406400*%
%ADD16C,0.609600*%
%ADD17C,0.304800*%

G36*
X48Y-2996292D02*
X48Y-2996292D01*
X64Y-2996293D01*
X167Y-2996267D01*
X272Y-2996245D01*
X285Y-2996237D01*
X300Y-2996233D01*
X390Y-2996175D01*
X482Y-2996120D01*
X496Y-2996106D01*
X505Y-2996100D01*
X519Y-2996082D01*
X585Y-2996015D01*
X397733Y-2499580D01*
X397773Y-2499508D01*
X397821Y-2499440D01*
X397832Y-2499402D01*
X397852Y-2499368D01*
X397867Y-2499286D01*
X397891Y-2499207D01*
X397892Y-2499151D01*
X397897Y-2499128D01*
X397894Y-2499106D01*
X397895Y-2499059D01*
X249401Y-420149D01*
X249379Y-420056D01*
X249364Y-419962D01*
X249351Y-419938D01*
X249345Y-419912D01*
X249294Y-419831D01*
X249249Y-419747D01*
X249229Y-419728D01*
X249215Y-419705D01*
X249140Y-419645D01*
X249070Y-419580D01*
X249046Y-419569D01*
X249025Y-419552D01*
X248935Y-419518D01*
X248848Y-419479D01*
X248821Y-419476D01*
X248796Y-419467D01*
X248701Y-419464D01*
X248605Y-419455D01*
X248579Y-419461D01*
X248552Y-419460D01*
X248461Y-419488D01*
X248368Y-419510D01*
X248345Y-419524D01*
X248319Y-419532D01*
X248242Y-419588D01*
X248160Y-419639D01*
X248143Y-419660D01*
X248122Y-419675D01*
X248066Y-419753D01*
X248005Y-419827D01*
X247996Y-419852D01*
X247980Y-419874D01*
X247953Y-419966D01*
X247919Y-420056D01*
X247916Y-420091D01*
X247911Y-420108D01*
X247909Y-420155D01*
X247905Y-420203D01*
X247905Y-535084D01*
X202344Y-580645D01*
X95974Y-580645D01*
X95878Y-580661D01*
X95781Y-580670D01*
X95758Y-580680D01*
X95733Y-580684D01*
X95647Y-580730D01*
X95558Y-580771D01*
X95533Y-580792D01*
X95518Y-580799D01*
X95501Y-580818D01*
X95444Y-580864D01*
X55677Y-620631D01*
X55620Y-620711D01*
X55558Y-620786D01*
X55550Y-620809D01*
X55535Y-620830D01*
X55507Y-620923D01*
X55496Y-620951D01*
X55483Y-620979D01*
X55483Y-620987D01*
X55472Y-621014D01*
X55469Y-621047D01*
X55464Y-621063D01*
X55465Y-621088D01*
X55458Y-621161D01*
X55458Y-621689D01*
X52729Y-624418D01*
X48871Y-624418D01*
X46142Y-621689D01*
X46142Y-617831D01*
X48871Y-615102D01*
X49399Y-615102D01*
X49495Y-615086D01*
X49592Y-615077D01*
X49615Y-615067D01*
X49640Y-615063D01*
X49726Y-615017D01*
X49815Y-614976D01*
X49840Y-614955D01*
X49855Y-614948D01*
X49872Y-614929D01*
X49929Y-614883D01*
X89696Y-575116D01*
X90508Y-574304D01*
X90551Y-574244D01*
X90601Y-574190D01*
X90621Y-574146D01*
X90650Y-574105D01*
X90671Y-574035D01*
X90702Y-573968D01*
X90707Y-573919D01*
X90721Y-573872D01*
X90718Y-573799D01*
X90726Y-573725D01*
X90715Y-573677D01*
X90713Y-573628D01*
X90687Y-573559D01*
X90670Y-573488D01*
X90644Y-573446D01*
X90627Y-573400D01*
X90581Y-573343D01*
X90542Y-573280D01*
X90504Y-573249D01*
X90472Y-573211D01*
X90410Y-573172D01*
X90353Y-573125D01*
X90307Y-573108D01*
X90265Y-573082D01*
X90194Y-573065D01*
X90125Y-573039D01*
X90052Y-573032D01*
X90028Y-573026D01*
X90011Y-573028D01*
X89978Y-573025D01*
X25693Y-573025D01*
X25596Y-573041D01*
X25499Y-573050D01*
X25477Y-573060D01*
X25452Y-573064D01*
X25366Y-573110D01*
X25277Y-573151D01*
X25251Y-573172D01*
X25237Y-573179D01*
X25220Y-573198D01*
X25163Y-573244D01*
X24789Y-573618D01*
X20931Y-573618D01*
X18202Y-570889D01*
X18202Y-567031D01*
X20931Y-564302D01*
X24789Y-564302D01*
X25163Y-564676D01*
X25242Y-564733D01*
X25317Y-564795D01*
X25341Y-564803D01*
X25361Y-564818D01*
X25455Y-564846D01*
X25546Y-564881D01*
X25579Y-564884D01*
X25595Y-564889D01*
X25620Y-564888D01*
X25693Y-564895D01*
X193586Y-564895D01*
X193682Y-564879D01*
X193779Y-564870D01*
X193802Y-564860D01*
X193827Y-564856D01*
X193913Y-564810D01*
X194002Y-564769D01*
X194027Y-564748D01*
X194042Y-564741D01*
X194059Y-564722D01*
X194116Y-564676D01*
X229396Y-529396D01*
X229453Y-529316D01*
X229515Y-529241D01*
X229523Y-529218D01*
X229538Y-529197D01*
X229566Y-529104D01*
X229601Y-529013D01*
X229604Y-528980D01*
X229609Y-528964D01*
X229608Y-528939D01*
X229615Y-528866D01*
X229615Y-389934D01*
X229615Y-389931D01*
X229615Y-389928D01*
X229595Y-389812D01*
X229576Y-389693D01*
X229574Y-389690D01*
X229574Y-389687D01*
X229511Y-389553D01*
X229323Y-389235D01*
X229591Y-388196D01*
X229593Y-388175D01*
X229601Y-388156D01*
X229615Y-388009D01*
X229615Y-386936D01*
X229877Y-386675D01*
X229879Y-386672D01*
X229881Y-386670D01*
X229949Y-386574D01*
X230019Y-386476D01*
X230020Y-386473D01*
X230022Y-386471D01*
X230072Y-386332D01*
X249679Y-310357D01*
X249682Y-310321D01*
X249694Y-310287D01*
X249693Y-310200D01*
X249701Y-310114D01*
X249692Y-310079D01*
X249692Y-310043D01*
X249653Y-309901D01*
X238693Y-281405D01*
X238688Y-281397D01*
X238686Y-281388D01*
X238627Y-281292D01*
X238570Y-281195D01*
X238562Y-281188D01*
X238558Y-281180D01*
X238470Y-281109D01*
X238385Y-281035D01*
X238376Y-281031D01*
X238369Y-281025D01*
X238264Y-280986D01*
X238159Y-280943D01*
X238150Y-280943D01*
X238141Y-280939D01*
X237994Y-280925D01*
X232171Y-280925D01*
X232098Y-280937D01*
X232025Y-280939D01*
X231979Y-280956D01*
X231930Y-280964D01*
X231865Y-280999D01*
X231796Y-281025D01*
X231758Y-281056D01*
X231715Y-281079D01*
X231664Y-281133D01*
X231608Y-281180D01*
X231581Y-281222D01*
X231548Y-281257D01*
X231517Y-281324D01*
X231479Y-281387D01*
X231467Y-281435D01*
X231447Y-281480D01*
X231440Y-281553D01*
X231423Y-281624D01*
X231428Y-281673D01*
X231423Y-281723D01*
X231440Y-281794D01*
X231447Y-281867D01*
X231467Y-281912D01*
X231478Y-281960D01*
X231517Y-282023D01*
X231547Y-282090D01*
X231594Y-282146D01*
X231607Y-282168D01*
X231620Y-282178D01*
X231641Y-282204D01*
X233258Y-283821D01*
X233258Y-287679D01*
X230529Y-290408D01*
X226671Y-290408D01*
X225789Y-289526D01*
X225710Y-289469D01*
X225635Y-289407D01*
X225611Y-289399D01*
X225591Y-289384D01*
X225497Y-289356D01*
X225406Y-289321D01*
X225373Y-289318D01*
X225357Y-289313D01*
X225332Y-289314D01*
X225259Y-289307D01*
X186487Y-289307D01*
X159003Y-261823D01*
X159003Y-201174D01*
X158987Y-201077D01*
X158978Y-200980D01*
X158968Y-200958D01*
X158964Y-200933D01*
X158918Y-200847D01*
X158877Y-200758D01*
X158856Y-200732D01*
X158849Y-200718D01*
X158830Y-200701D01*
X158784Y-200644D01*
X152416Y-194276D01*
X152337Y-194219D01*
X152262Y-194157D01*
X152238Y-194149D01*
X152218Y-194134D01*
X152125Y-194106D01*
X152033Y-194071D01*
X152000Y-194068D01*
X151984Y-194063D01*
X151959Y-194064D01*
X151886Y-194057D01*
X111291Y-194057D01*
X111194Y-194073D01*
X111097Y-194082D01*
X111075Y-194092D01*
X111050Y-194096D01*
X110964Y-194142D01*
X110875Y-194183D01*
X110849Y-194204D01*
X110835Y-194211D01*
X110818Y-194230D01*
X110761Y-194276D01*
X109879Y-195158D01*
X106021Y-195158D01*
X103292Y-192429D01*
X103292Y-188571D01*
X106021Y-185842D01*
X109879Y-185842D01*
X110761Y-186724D01*
X110840Y-186781D01*
X110915Y-186843D01*
X110939Y-186851D01*
X110959Y-186866D01*
X111053Y-186894D01*
X111144Y-186929D01*
X111177Y-186932D01*
X111193Y-186937D01*
X111218Y-186936D01*
X111291Y-186943D01*
X155143Y-186943D01*
X157446Y-189246D01*
X164836Y-196636D01*
X164896Y-196679D01*
X164950Y-196729D01*
X164994Y-196750D01*
X165035Y-196778D01*
X165105Y-196800D01*
X165172Y-196830D01*
X165221Y-196835D01*
X165268Y-196849D01*
X165341Y-196847D01*
X165415Y-196854D01*
X165463Y-196843D01*
X165512Y-196841D01*
X165581Y-196816D01*
X165652Y-196799D01*
X165694Y-196773D01*
X165740Y-196756D01*
X165797Y-196709D01*
X165860Y-196670D01*
X165891Y-196632D01*
X165929Y-196601D01*
X165968Y-196538D01*
X166015Y-196482D01*
X166032Y-196436D01*
X166058Y-196394D01*
X166075Y-196322D01*
X166101Y-196253D01*
X166108Y-196180D01*
X166114Y-196156D01*
X166112Y-196140D01*
X166115Y-196106D01*
X166115Y-178524D01*
X166099Y-178428D01*
X166090Y-178331D01*
X166080Y-178308D01*
X166076Y-178283D01*
X166030Y-178197D01*
X165989Y-178108D01*
X165968Y-178083D01*
X165961Y-178068D01*
X165942Y-178051D01*
X165896Y-177994D01*
X157286Y-169384D01*
X157206Y-169327D01*
X157131Y-169265D01*
X157108Y-169257D01*
X157087Y-169242D01*
X156994Y-169214D01*
X156903Y-169179D01*
X156870Y-169176D01*
X156854Y-169171D01*
X156829Y-169172D01*
X156756Y-169165D01*
X129833Y-169165D01*
X129736Y-169181D01*
X129639Y-169190D01*
X129617Y-169200D01*
X129592Y-169204D01*
X129506Y-169250D01*
X129417Y-169291D01*
X129391Y-169312D01*
X129377Y-169319D01*
X129360Y-169338D01*
X129303Y-169384D01*
X128929Y-169758D01*
X125071Y-169758D01*
X122342Y-167029D01*
X122342Y-163171D01*
X125071Y-160442D01*
X128929Y-160442D01*
X129303Y-160816D01*
X129382Y-160873D01*
X129457Y-160935D01*
X129481Y-160943D01*
X129501Y-160958D01*
X129595Y-160986D01*
X129686Y-161021D01*
X129719Y-161024D01*
X129735Y-161029D01*
X129760Y-161028D01*
X129833Y-161035D01*
X160434Y-161035D01*
X174245Y-174846D01*
X174245Y-254546D01*
X174261Y-254642D01*
X174270Y-254739D01*
X174280Y-254762D01*
X174284Y-254787D01*
X174331Y-254873D01*
X174371Y-254962D01*
X174392Y-254987D01*
X174399Y-255002D01*
X174418Y-255019D01*
X174464Y-255076D01*
X174996Y-255608D01*
X175056Y-255651D01*
X175110Y-255701D01*
X175154Y-255721D01*
X175195Y-255750D01*
X175265Y-255771D01*
X175332Y-255802D01*
X175381Y-255807D01*
X175428Y-255821D01*
X175501Y-255818D01*
X175575Y-255826D01*
X175623Y-255815D01*
X175672Y-255813D01*
X175741Y-255787D01*
X175812Y-255770D01*
X175854Y-255744D01*
X175900Y-255727D01*
X175957Y-255681D01*
X176020Y-255642D01*
X176051Y-255604D01*
X176089Y-255572D01*
X176128Y-255510D01*
X176175Y-255453D01*
X176192Y-255407D01*
X176218Y-255365D01*
X176235Y-255294D01*
X176261Y-255225D01*
X176268Y-255152D01*
X176274Y-255128D01*
X176272Y-255111D01*
X176275Y-255078D01*
X176275Y-174714D01*
X176259Y-174618D01*
X176250Y-174521D01*
X176240Y-174498D01*
X176236Y-174473D01*
X176190Y-174387D01*
X176149Y-174298D01*
X176128Y-174273D01*
X176121Y-174258D01*
X176102Y-174241D01*
X176056Y-174184D01*
X158556Y-156684D01*
X158476Y-156627D01*
X158401Y-156565D01*
X158378Y-156557D01*
X158357Y-156542D01*
X158264Y-156514D01*
X158173Y-156479D01*
X158140Y-156476D01*
X158124Y-156471D01*
X158099Y-156472D01*
X158026Y-156465D01*
X129833Y-156465D01*
X129736Y-156481D01*
X129639Y-156490D01*
X129617Y-156500D01*
X129592Y-156504D01*
X129506Y-156550D01*
X129417Y-156591D01*
X129391Y-156612D01*
X129377Y-156619D01*
X129360Y-156638D01*
X129303Y-156684D01*
X128929Y-157058D01*
X125071Y-157058D01*
X122342Y-154329D01*
X122342Y-150471D01*
X125071Y-147742D01*
X128929Y-147742D01*
X129303Y-148116D01*
X129382Y-148173D01*
X129457Y-148235D01*
X129481Y-148243D01*
X129501Y-148258D01*
X129595Y-148286D01*
X129686Y-148321D01*
X129719Y-148324D01*
X129735Y-148329D01*
X129760Y-148328D01*
X129833Y-148335D01*
X161704Y-148335D01*
X184405Y-171036D01*
X184405Y-254546D01*
X184421Y-254642D01*
X184430Y-254739D01*
X184440Y-254762D01*
X184444Y-254787D01*
X184490Y-254873D01*
X184531Y-254962D01*
X184552Y-254987D01*
X184559Y-255002D01*
X184578Y-255019D01*
X184624Y-255076D01*
X194504Y-264956D01*
X194584Y-265013D01*
X194659Y-265075D01*
X194682Y-265083D01*
X194703Y-265098D01*
X194796Y-265126D01*
X194887Y-265161D01*
X194920Y-265164D01*
X194936Y-265169D01*
X194961Y-265168D01*
X195034Y-265175D01*
X245428Y-265175D01*
X245499Y-265163D01*
X245571Y-265161D01*
X245644Y-265140D01*
X245668Y-265136D01*
X245683Y-265128D01*
X245713Y-265119D01*
X246389Y-264840D01*
X247055Y-265118D01*
X247127Y-265135D01*
X247196Y-265161D01*
X247268Y-265168D01*
X247292Y-265174D01*
X247309Y-265172D01*
X247343Y-265175D01*
X248064Y-265175D01*
X248581Y-265692D01*
X248640Y-265735D01*
X248692Y-265784D01*
X248759Y-265820D01*
X248779Y-265835D01*
X248794Y-265839D01*
X248822Y-265854D01*
X249498Y-266135D01*
X249772Y-266802D01*
X249811Y-266865D01*
X249841Y-266932D01*
X249887Y-266989D01*
X249900Y-267010D01*
X249914Y-267020D01*
X249935Y-267047D01*
X250445Y-267556D01*
X250445Y-268288D01*
X250448Y-268308D01*
X250446Y-268325D01*
X250457Y-268371D01*
X250459Y-268431D01*
X250480Y-268504D01*
X250484Y-268528D01*
X250492Y-268543D01*
X250501Y-268573D01*
X267795Y-310573D01*
X267808Y-310594D01*
X267840Y-310663D01*
X268589Y-311957D01*
X268639Y-312018D01*
X268682Y-312085D01*
X268716Y-312112D01*
X268744Y-312145D01*
X268811Y-312187D01*
X268873Y-312236D01*
X268914Y-312251D01*
X268951Y-312274D01*
X269028Y-312292D01*
X269103Y-312319D01*
X269146Y-312319D01*
X269189Y-312329D01*
X269268Y-312321D01*
X269347Y-312323D01*
X269388Y-312309D01*
X269432Y-312305D01*
X269504Y-312272D01*
X269579Y-312248D01*
X269614Y-312222D01*
X269654Y-312204D01*
X269711Y-312150D01*
X269775Y-312103D01*
X269800Y-312067D01*
X269832Y-312037D01*
X269869Y-311967D01*
X269914Y-311902D01*
X269935Y-311843D01*
X269947Y-311822D01*
X269950Y-311802D01*
X269964Y-311763D01*
X344684Y-12882D01*
X344694Y-12767D01*
X344705Y-12651D01*
X344704Y-12645D01*
X344704Y-12639D01*
X344676Y-12527D01*
X344650Y-12414D01*
X344646Y-12408D01*
X344645Y-12402D01*
X344582Y-12305D01*
X344521Y-12206D01*
X344516Y-12202D01*
X344513Y-12197D01*
X344422Y-12125D01*
X344333Y-12052D01*
X344327Y-12049D01*
X344321Y-12045D01*
X344212Y-12006D01*
X344104Y-11965D01*
X344096Y-11965D01*
X344092Y-11963D01*
X344077Y-11963D01*
X343957Y-11951D01*
X250766Y-11951D01*
X250734Y-11956D01*
X250701Y-11954D01*
X250614Y-11976D01*
X250525Y-11990D01*
X250496Y-12006D01*
X250464Y-12014D01*
X250389Y-12063D01*
X250310Y-12105D01*
X250287Y-12129D01*
X250260Y-12147D01*
X250204Y-12218D01*
X250143Y-12284D01*
X250129Y-12313D01*
X250109Y-12339D01*
X250079Y-12424D01*
X250042Y-12506D01*
X250039Y-12538D01*
X250028Y-12569D01*
X250027Y-12659D01*
X250018Y-12749D01*
X250026Y-12780D01*
X250025Y-12813D01*
X250062Y-12956D01*
X252533Y-19745D01*
X252533Y-229455D01*
X249212Y-238579D01*
X242971Y-246017D01*
X234562Y-250871D01*
X225000Y-252557D01*
X215438Y-250871D01*
X207029Y-246017D01*
X200788Y-238579D01*
X197467Y-229455D01*
X197467Y-19745D01*
X199938Y-12956D01*
X199944Y-12924D01*
X199958Y-12894D01*
X199967Y-12805D01*
X199983Y-12716D01*
X199979Y-12684D01*
X199982Y-12651D01*
X199961Y-12564D01*
X199949Y-12475D01*
X199934Y-12446D01*
X199927Y-12414D01*
X199879Y-12337D01*
X199839Y-12257D01*
X199815Y-12234D01*
X199798Y-12206D01*
X199729Y-12149D01*
X199664Y-12086D01*
X199635Y-12072D01*
X199609Y-12052D01*
X199525Y-12020D01*
X199444Y-11981D01*
X199412Y-11977D01*
X199381Y-11965D01*
X199234Y-11951D01*
X-199234Y-11951D01*
X-199266Y-11956D01*
X-199299Y-11954D01*
X-199386Y-11976D01*
X-199475Y-11990D01*
X-199504Y-12006D01*
X-199536Y-12014D01*
X-199611Y-12063D01*
X-199690Y-12105D01*
X-199713Y-12129D01*
X-199740Y-12147D01*
X-199796Y-12218D01*
X-199857Y-12284D01*
X-199871Y-12313D01*
X-199891Y-12339D01*
X-199921Y-12424D01*
X-199958Y-12506D01*
X-199961Y-12538D01*
X-199972Y-12569D01*
X-199973Y-12659D01*
X-199982Y-12749D01*
X-199974Y-12780D01*
X-199975Y-12813D01*
X-199938Y-12956D01*
X-197467Y-19745D01*
X-197467Y-229455D01*
X-200788Y-238579D01*
X-207029Y-246017D01*
X-215438Y-250871D01*
X-225000Y-252557D01*
X-234562Y-250871D01*
X-242971Y-246017D01*
X-249212Y-238579D01*
X-252533Y-229455D01*
X-252533Y-19745D01*
X-250062Y-12956D01*
X-250056Y-12924D01*
X-250042Y-12894D01*
X-250033Y-12805D01*
X-250017Y-12716D01*
X-250021Y-12684D01*
X-250018Y-12651D01*
X-250039Y-12564D01*
X-250051Y-12475D01*
X-250066Y-12446D01*
X-250073Y-12414D01*
X-250121Y-12337D01*
X-250161Y-12257D01*
X-250185Y-12234D01*
X-250202Y-12206D01*
X-250271Y-12149D01*
X-250336Y-12086D01*
X-250365Y-12072D01*
X-250391Y-12052D01*
X-250475Y-12020D01*
X-250556Y-11981D01*
X-250588Y-11977D01*
X-250619Y-11965D01*
X-250766Y-11951D01*
X-343957Y-11951D01*
X-344072Y-11970D01*
X-344186Y-11986D01*
X-344192Y-11989D01*
X-344198Y-11990D01*
X-344300Y-12045D01*
X-344403Y-12098D01*
X-344408Y-12102D01*
X-344413Y-12105D01*
X-344492Y-12190D01*
X-344573Y-12273D01*
X-344576Y-12279D01*
X-344580Y-12284D01*
X-344628Y-12388D01*
X-344678Y-12493D01*
X-344678Y-12500D01*
X-344681Y-12506D01*
X-344692Y-12621D01*
X-344706Y-12736D01*
X-344705Y-12744D01*
X-344705Y-12749D01*
X-344702Y-12763D01*
X-344684Y-12882D01*
X-248542Y-397450D01*
X-248520Y-397500D01*
X-248508Y-397554D01*
X-248472Y-397612D01*
X-248445Y-397674D01*
X-248408Y-397715D01*
X-248379Y-397762D01*
X-248327Y-397804D01*
X-248282Y-397855D01*
X-248233Y-397881D01*
X-248191Y-397917D01*
X-248128Y-397940D01*
X-248068Y-397973D01*
X-248014Y-397983D01*
X-247962Y-398003D01*
X-247842Y-398015D01*
X-247828Y-398017D01*
X-247824Y-398016D01*
X-247815Y-398017D01*
X-235416Y-398017D01*
X-235299Y-397998D01*
X-235182Y-397980D01*
X-235179Y-397978D01*
X-235175Y-397978D01*
X-235071Y-397922D01*
X-234965Y-397867D01*
X-234963Y-397864D01*
X-234960Y-397863D01*
X-234879Y-397776D01*
X-234797Y-397690D01*
X-234795Y-397687D01*
X-234793Y-397685D01*
X-234744Y-397577D01*
X-234694Y-397469D01*
X-234693Y-397465D01*
X-234692Y-397462D01*
X-234691Y-397454D01*
X-234669Y-397323D01*
X-234648Y-397045D01*
X-234650Y-397027D01*
X-234646Y-396990D01*
X-234646Y-395084D01*
X-234600Y-395037D01*
X-234578Y-394989D01*
X-234547Y-394946D01*
X-234527Y-394879D01*
X-234497Y-394815D01*
X-234484Y-394737D01*
X-233046Y-393498D01*
X-233034Y-393484D01*
X-233005Y-393460D01*
X-221814Y-382269D01*
X-167515Y-382269D01*
X-167419Y-382253D01*
X-167322Y-382244D01*
X-167299Y-382234D01*
X-167274Y-382230D01*
X-167188Y-382184D01*
X-167099Y-382143D01*
X-167074Y-382122D01*
X-167059Y-382115D01*
X-167042Y-382096D01*
X-166985Y-382050D01*
X-157700Y-372765D01*
X-157643Y-372686D01*
X-157581Y-372610D01*
X-157573Y-372587D01*
X-157558Y-372567D01*
X-157530Y-372473D01*
X-157495Y-372382D01*
X-157492Y-372349D01*
X-157487Y-372333D01*
X-157488Y-372308D01*
X-157481Y-372235D01*
X-157481Y-277864D01*
X-157485Y-277840D01*
X-157482Y-277815D01*
X-157504Y-277720D01*
X-157520Y-277623D01*
X-157532Y-277602D01*
X-157538Y-277578D01*
X-157589Y-277494D01*
X-157635Y-277408D01*
X-157653Y-277391D01*
X-157666Y-277370D01*
X-157742Y-277308D01*
X-157813Y-277241D01*
X-157836Y-277231D01*
X-157855Y-277215D01*
X-157946Y-277181D01*
X-158036Y-277140D01*
X-158060Y-277138D01*
X-158083Y-277129D01*
X-158230Y-277115D01*
X-173134Y-277115D01*
X-181865Y-268384D01*
X-181865Y-104433D01*
X-181881Y-104336D01*
X-181890Y-104239D01*
X-181900Y-104217D01*
X-181904Y-104192D01*
X-181950Y-104106D01*
X-181991Y-104017D01*
X-182012Y-103991D01*
X-182019Y-103977D01*
X-182038Y-103960D01*
X-182084Y-103903D01*
X-182458Y-103529D01*
X-182458Y-99671D01*
X-179729Y-96942D01*
X-175871Y-96942D01*
X-173142Y-99671D01*
X-173142Y-103529D01*
X-173516Y-103903D01*
X-173573Y-103982D01*
X-173635Y-104057D01*
X-173643Y-104081D01*
X-173658Y-104101D01*
X-173686Y-104195D01*
X-173721Y-104286D01*
X-173724Y-104319D01*
X-173729Y-104335D01*
X-173728Y-104360D01*
X-173735Y-104433D01*
X-173735Y-264706D01*
X-173719Y-264802D01*
X-173710Y-264899D01*
X-173700Y-264922D01*
X-173696Y-264947D01*
X-173650Y-265033D01*
X-173609Y-265122D01*
X-173588Y-265147D01*
X-173581Y-265162D01*
X-173562Y-265179D01*
X-173516Y-265236D01*
X-169986Y-268766D01*
X-169906Y-268823D01*
X-169831Y-268885D01*
X-169808Y-268893D01*
X-169787Y-268908D01*
X-169694Y-268936D01*
X-169603Y-268971D01*
X-169570Y-268974D01*
X-169554Y-268979D01*
X-169529Y-268978D01*
X-169456Y-268985D01*
X-155831Y-268985D01*
X-155735Y-268969D01*
X-155638Y-268960D01*
X-155615Y-268950D01*
X-155590Y-268946D01*
X-155504Y-268900D01*
X-155415Y-268859D01*
X-155390Y-268838D01*
X-155375Y-268831D01*
X-155358Y-268812D01*
X-155301Y-268766D01*
X-154504Y-267969D01*
X-150296Y-267969D01*
X-147319Y-270946D01*
X-147319Y-376754D01*
X-162996Y-392431D01*
X-217295Y-392431D01*
X-217391Y-392447D01*
X-217488Y-392456D01*
X-217511Y-392466D01*
X-217536Y-392470D01*
X-217622Y-392516D01*
X-217711Y-392557D01*
X-217736Y-392578D01*
X-217751Y-392585D01*
X-217768Y-392604D01*
X-217825Y-392650D01*
X-224441Y-399266D01*
X-224482Y-399323D01*
X-224530Y-399374D01*
X-224552Y-399422D01*
X-224583Y-399465D01*
X-224603Y-399532D01*
X-224633Y-399595D01*
X-224647Y-399674D01*
X-224654Y-399698D01*
X-224654Y-399713D01*
X-224658Y-399741D01*
X-379912Y-2495661D01*
X-379904Y-2495746D01*
X-379905Y-2495832D01*
X-379893Y-2495867D01*
X-379890Y-2495904D01*
X-379855Y-2495982D01*
X-379828Y-2496064D01*
X-379800Y-2496107D01*
X-379791Y-2496127D01*
X-379776Y-2496143D01*
X-379747Y-2496187D01*
X-219106Y-2694703D01*
X-219089Y-2694718D01*
X-219054Y-2694761D01*
X-214015Y-2699800D01*
X-213936Y-2699857D01*
X-213860Y-2699919D01*
X-213837Y-2699927D01*
X-213817Y-2699942D01*
X-213723Y-2699970D01*
X-213632Y-2700005D01*
X-213599Y-2700008D01*
X-213583Y-2700013D01*
X-213558Y-2700012D01*
X-213485Y-2700019D01*
X-173209Y-2700019D01*
X-162174Y-2711055D01*
X-162086Y-2711117D01*
X-162002Y-2711183D01*
X-161988Y-2711188D01*
X-161975Y-2711197D01*
X-161873Y-2711228D01*
X-161771Y-2711263D01*
X-161756Y-2711263D01*
X-161742Y-2711268D01*
X-161635Y-2711264D01*
X-161527Y-2711265D01*
X-161513Y-2711260D01*
X-161498Y-2711260D01*
X-161397Y-2711222D01*
X-161296Y-2711188D01*
X-161280Y-2711178D01*
X-161270Y-2711174D01*
X-161252Y-2711160D01*
X-161172Y-2711107D01*
X-155949Y-2706877D01*
X-154274Y-2707053D01*
X-148419Y-2714284D01*
X-148595Y-2715958D01*
X-167077Y-2730925D01*
X-168752Y-2730749D01*
X-174607Y-2723518D01*
X-174431Y-2721843D01*
X-170284Y-2718485D01*
X-170242Y-2718438D01*
X-170192Y-2718397D01*
X-170161Y-2718347D01*
X-170122Y-2718303D01*
X-170097Y-2718244D01*
X-170063Y-2718190D01*
X-170050Y-2718133D01*
X-170027Y-2718078D01*
X-170022Y-2718015D01*
X-170008Y-2717953D01*
X-170014Y-2717894D01*
X-170009Y-2717835D01*
X-170025Y-2717773D01*
X-170031Y-2717710D01*
X-170056Y-2717656D01*
X-170071Y-2717599D01*
X-170106Y-2717546D01*
X-170132Y-2717488D01*
X-170193Y-2717414D01*
X-170205Y-2717395D01*
X-170213Y-2717388D01*
X-170226Y-2717373D01*
X-177199Y-2710400D01*
X-177278Y-2710343D01*
X-177353Y-2710281D01*
X-177377Y-2710273D01*
X-177397Y-2710258D01*
X-177490Y-2710230D01*
X-177582Y-2710195D01*
X-177615Y-2710192D01*
X-177631Y-2710187D01*
X-177655Y-2710188D01*
X-177728Y-2710181D01*
X-218004Y-2710181D01*
X-221200Y-2706985D01*
X-224997Y-2703188D01*
X-225044Y-2703154D01*
X-225085Y-2703113D01*
X-225143Y-2703084D01*
X-225195Y-2703046D01*
X-225251Y-2703029D01*
X-225303Y-2703003D01*
X-225411Y-2702981D01*
X-225429Y-2702975D01*
X-225436Y-2702976D01*
X-225448Y-2702973D01*
X-225489Y-2702969D01*
X-226620Y-2701571D01*
X-226637Y-2701556D01*
X-226672Y-2701513D01*
X-227944Y-2700241D01*
X-227944Y-2700200D01*
X-227953Y-2700143D01*
X-227953Y-2700084D01*
X-227973Y-2700023D01*
X-227984Y-2699959D01*
X-228011Y-2699908D01*
X-228030Y-2699852D01*
X-228090Y-2699761D01*
X-228099Y-2699744D01*
X-228104Y-2699739D01*
X-228111Y-2699729D01*
X-389041Y-2500855D01*
X-389047Y-2500850D01*
X-389056Y-2500837D01*
X-390412Y-2499265D01*
X-390430Y-2499223D01*
X-390211Y-2497146D01*
X-390212Y-2497138D01*
X-390209Y-2497123D01*
X-236022Y-415587D01*
X-236026Y-415535D01*
X-236021Y-415483D01*
X-236037Y-415415D01*
X-236043Y-415344D01*
X-236064Y-415297D01*
X-236076Y-415246D01*
X-236114Y-415186D01*
X-236142Y-415121D01*
X-236177Y-415083D01*
X-236205Y-415038D01*
X-236260Y-414994D01*
X-236307Y-414942D01*
X-236353Y-414917D01*
X-236393Y-414883D01*
X-236460Y-414859D01*
X-236522Y-414825D01*
X-236573Y-414816D01*
X-236622Y-414797D01*
X-236753Y-414784D01*
X-236762Y-414783D01*
X-236764Y-414783D01*
X-236769Y-414783D01*
X-248320Y-414783D01*
X-248440Y-414803D01*
X-248557Y-414821D01*
X-248559Y-414822D01*
X-248561Y-414822D01*
X-248667Y-414879D01*
X-248772Y-414935D01*
X-248774Y-414936D01*
X-248776Y-414937D01*
X-248858Y-415024D01*
X-248940Y-415111D01*
X-248942Y-415114D01*
X-248943Y-415115D01*
X-248992Y-415224D01*
X-249043Y-415333D01*
X-249043Y-415336D01*
X-249044Y-415338D01*
X-249045Y-415344D01*
X-249068Y-415479D01*
X-397895Y-2499059D01*
X-397887Y-2499141D01*
X-397888Y-2499224D01*
X-397876Y-2499262D01*
X-397872Y-2499302D01*
X-397839Y-2499378D01*
X-397813Y-2499456D01*
X-397782Y-2499504D01*
X-397773Y-2499525D01*
X-397759Y-2499540D01*
X-397733Y-2499580D01*
X-211936Y-2731826D01*
X-211862Y-2731893D01*
X-211792Y-2731964D01*
X-211772Y-2731974D01*
X-211755Y-2731989D01*
X-211663Y-2732028D01*
X-211574Y-2732073D01*
X-211551Y-2732076D01*
X-211531Y-2732085D01*
X-211431Y-2732093D01*
X-211332Y-2732107D01*
X-211310Y-2732102D01*
X-211287Y-2732104D01*
X-211191Y-2732079D01*
X-211093Y-2732061D01*
X-211073Y-2732050D01*
X-211051Y-2732044D01*
X-210967Y-2731990D01*
X-210880Y-2731940D01*
X-210865Y-2731923D01*
X-210846Y-2731911D01*
X-210784Y-2731833D01*
X-210718Y-2731758D01*
X-210705Y-2731732D01*
X-210695Y-2731719D01*
X-210687Y-2731696D01*
X-210652Y-2731626D01*
X-210447Y-2731093D01*
X-210054Y-2730551D01*
X-207801Y-2728727D01*
X-203557Y-2733968D01*
X-203538Y-2733984D01*
X-203525Y-2734004D01*
X-203448Y-2734065D01*
X-203374Y-2734130D01*
X-203352Y-2734139D01*
X-203332Y-2734154D01*
X-203240Y-2734186D01*
X-203150Y-2734225D01*
X-203125Y-2734226D01*
X-203102Y-2734234D01*
X-203004Y-2734235D01*
X-202906Y-2734242D01*
X-202882Y-2734236D01*
X-202858Y-2734236D01*
X-202765Y-2734205D01*
X-202670Y-2734181D01*
X-202650Y-2734167D01*
X-202626Y-2734160D01*
X-202503Y-2734078D01*
X-201920Y-2733606D01*
X-201918Y-2733607D01*
X-202502Y-2734080D01*
X-202518Y-2734098D01*
X-202539Y-2734111D01*
X-202599Y-2734189D01*
X-202664Y-2734262D01*
X-202674Y-2734285D01*
X-202689Y-2734304D01*
X-202721Y-2734397D01*
X-202759Y-2734487D01*
X-202761Y-2734511D01*
X-202769Y-2734534D01*
X-202769Y-2734632D01*
X-202777Y-2734730D01*
X-202770Y-2734754D01*
X-202771Y-2734778D01*
X-202740Y-2734871D01*
X-202715Y-2734966D01*
X-202702Y-2734987D01*
X-202694Y-2735010D01*
X-202613Y-2735133D01*
X-198369Y-2740374D01*
X-200622Y-2742199D01*
X-201233Y-2742471D01*
X-201901Y-2742577D01*
X-201992Y-2742607D01*
X-202084Y-2742630D01*
X-202107Y-2742645D01*
X-202133Y-2742654D01*
X-202209Y-2742711D01*
X-202289Y-2742763D01*
X-202306Y-2742785D01*
X-202327Y-2742801D01*
X-202381Y-2742880D01*
X-202440Y-2742955D01*
X-202449Y-2742980D01*
X-202464Y-2743003D01*
X-202489Y-2743095D01*
X-202521Y-2743185D01*
X-202522Y-2743212D01*
X-202529Y-2743238D01*
X-202523Y-2743333D01*
X-202525Y-2743429D01*
X-202516Y-2743455D01*
X-202515Y-2743482D01*
X-202479Y-2743570D01*
X-202449Y-2743661D01*
X-202430Y-2743691D01*
X-202423Y-2743708D01*
X-202407Y-2743726D01*
X-202369Y-2743785D01*
X-166106Y-2789114D01*
X-166049Y-2789165D01*
X-166000Y-2789222D01*
X-165959Y-2789246D01*
X-165924Y-2789277D01*
X-165855Y-2789307D01*
X-165789Y-2789345D01*
X-165743Y-2789355D01*
X-165700Y-2789373D01*
X-165625Y-2789379D01*
X-165550Y-2789395D01*
X-165504Y-2789389D01*
X-165457Y-2789393D01*
X-165383Y-2789374D01*
X-165308Y-2789365D01*
X-165266Y-2789344D01*
X-165220Y-2789332D01*
X-165157Y-2789291D01*
X-165089Y-2789258D01*
X-165055Y-2789225D01*
X-165016Y-2789199D01*
X-164969Y-2789140D01*
X-164915Y-2789087D01*
X-164894Y-2789045D01*
X-164864Y-2789008D01*
X-164839Y-2788937D01*
X-164805Y-2788869D01*
X-164791Y-2788801D01*
X-164783Y-2788778D01*
X-164783Y-2788760D01*
X-164775Y-2788724D01*
X-164746Y-2788449D01*
X-164507Y-2787824D01*
X-164114Y-2787283D01*
X-161860Y-2785458D01*
X-157616Y-2790699D01*
X-157598Y-2790716D01*
X-157585Y-2790736D01*
X-157507Y-2790796D01*
X-157434Y-2790861D01*
X-157411Y-2790871D01*
X-157392Y-2790886D01*
X-157300Y-2790918D01*
X-157209Y-2790956D01*
X-157185Y-2790958D01*
X-157162Y-2790966D01*
X-157064Y-2790967D01*
X-156966Y-2790974D01*
X-156942Y-2790968D01*
X-156918Y-2790968D01*
X-156825Y-2790937D01*
X-156730Y-2790912D01*
X-156709Y-2790899D01*
X-156686Y-2790891D01*
X-156563Y-2790810D01*
X-155979Y-2790338D01*
X-155978Y-2790339D01*
X-156562Y-2790811D01*
X-156578Y-2790830D01*
X-156598Y-2790843D01*
X-156658Y-2790920D01*
X-156724Y-2790994D01*
X-156733Y-2791016D01*
X-156748Y-2791036D01*
X-156780Y-2791128D01*
X-156819Y-2791219D01*
X-156820Y-2791243D01*
X-156828Y-2791266D01*
X-156829Y-2791364D01*
X-156836Y-2791462D01*
X-156830Y-2791486D01*
X-156830Y-2791510D01*
X-156799Y-2791603D01*
X-156775Y-2791698D01*
X-156761Y-2791718D01*
X-156753Y-2791742D01*
X-156672Y-2791865D01*
X-152428Y-2797106D01*
X-154682Y-2798931D01*
X-155293Y-2799203D01*
X-155953Y-2799307D01*
X-156350Y-2799266D01*
X-156422Y-2799270D01*
X-156493Y-2799264D01*
X-156543Y-2799277D01*
X-156594Y-2799280D01*
X-156660Y-2799307D01*
X-156729Y-2799324D01*
X-156772Y-2799352D01*
X-156820Y-2799372D01*
X-156874Y-2799418D01*
X-156934Y-2799457D01*
X-156966Y-2799498D01*
X-157005Y-2799531D01*
X-157041Y-2799593D01*
X-157085Y-2799649D01*
X-157102Y-2799697D01*
X-157128Y-2799742D01*
X-157143Y-2799812D01*
X-157166Y-2799879D01*
X-157167Y-2799930D01*
X-157177Y-2799981D01*
X-157169Y-2800052D01*
X-157170Y-2800123D01*
X-157154Y-2800172D01*
X-157147Y-2800223D01*
X-157116Y-2800287D01*
X-157094Y-2800355D01*
X-157052Y-2800420D01*
X-157041Y-2800443D01*
X-157030Y-2800454D01*
X-157014Y-2800479D01*
X-585Y-2996015D01*
X-505Y-2996086D01*
X-429Y-2996161D01*
X-415Y-2996168D01*
X-404Y-2996178D01*
X-306Y-2996220D01*
X-209Y-2996266D01*
X-194Y-2996268D01*
X-179Y-2996274D01*
X-73Y-2996282D01*
X33Y-2996295D01*
X48Y-2996292D01*
G37*
%LPC*%
G36*
X-140432Y-2765720D02*
X-140432Y-2765720D01*
X-146287Y-2758490D01*
X-146111Y-2756815D01*
X-131473Y-2744961D01*
X-131458Y-2744944D01*
X-131415Y-2744909D01*
X-125950Y-2739444D01*
X-125893Y-2739365D01*
X-125831Y-2739290D01*
X-125823Y-2739266D01*
X-125808Y-2739246D01*
X-125780Y-2739152D01*
X-125745Y-2739061D01*
X-125742Y-2739028D01*
X-125737Y-2739012D01*
X-125738Y-2738987D01*
X-125731Y-2738914D01*
X-125731Y-2720215D01*
X-125747Y-2720119D01*
X-125756Y-2720022D01*
X-125766Y-2719999D01*
X-125770Y-2719974D01*
X-125816Y-2719888D01*
X-125857Y-2719799D01*
X-125878Y-2719774D01*
X-125885Y-2719759D01*
X-125904Y-2719742D01*
X-125950Y-2719685D01*
X-147935Y-2697700D01*
X-148014Y-2697643D01*
X-148090Y-2697581D01*
X-148113Y-2697573D01*
X-148133Y-2697558D01*
X-148227Y-2697530D01*
X-148318Y-2697495D01*
X-148351Y-2697492D01*
X-148367Y-2697487D01*
X-148392Y-2697488D01*
X-148465Y-2697481D01*
X-207492Y-2697481D01*
X-207549Y-2697490D01*
X-207607Y-2697490D01*
X-207669Y-2697510D01*
X-207733Y-2697520D01*
X-207784Y-2697548D01*
X-207839Y-2697566D01*
X-207932Y-2697627D01*
X-207948Y-2697635D01*
X-207953Y-2697640D01*
X-207962Y-2697647D01*
X-207999Y-2697676D01*
X-209782Y-2697485D01*
X-209805Y-2697486D01*
X-209861Y-2697481D01*
X-211654Y-2697481D01*
X-211687Y-2697448D01*
X-211735Y-2697414D01*
X-211775Y-2697373D01*
X-211833Y-2697343D01*
X-211886Y-2697306D01*
X-211941Y-2697289D01*
X-211993Y-2697263D01*
X-212102Y-2697240D01*
X-212119Y-2697235D01*
X-212126Y-2697235D01*
X-212137Y-2697233D01*
X-212184Y-2697228D01*
X-213309Y-2695832D01*
X-213327Y-2695816D01*
X-213363Y-2695772D01*
X-214631Y-2694505D01*
X-214631Y-2694458D01*
X-214640Y-2694401D01*
X-214640Y-2694343D01*
X-214660Y-2694281D01*
X-214670Y-2694217D01*
X-214698Y-2694166D01*
X-214716Y-2694111D01*
X-214777Y-2694018D01*
X-214785Y-2694002D01*
X-214790Y-2693997D01*
X-214797Y-2693988D01*
X-369520Y-2502131D01*
X-369537Y-2502116D01*
X-369573Y-2502072D01*
X-370841Y-2500804D01*
X-370841Y-2500758D01*
X-370850Y-2500700D01*
X-370850Y-2500643D01*
X-370870Y-2500581D01*
X-370880Y-2500517D01*
X-370908Y-2500466D01*
X-370926Y-2500411D01*
X-370987Y-2500317D01*
X-370995Y-2500302D01*
X-371000Y-2500297D01*
X-371007Y-2500287D01*
X-371036Y-2500251D01*
X-370845Y-2498468D01*
X-370846Y-2498444D01*
X-370841Y-2498388D01*
X-370841Y-2442956D01*
X-338802Y-2410917D01*
X-338745Y-2410838D01*
X-338744Y-2410836D01*
X-338709Y-2410799D01*
X-338704Y-2410787D01*
X-338683Y-2410762D01*
X-338675Y-2410739D01*
X-338660Y-2410719D01*
X-338634Y-2410634D01*
X-338608Y-2410577D01*
X-338607Y-2410559D01*
X-338597Y-2410534D01*
X-338594Y-2410501D01*
X-338589Y-2410485D01*
X-338590Y-2410460D01*
X-338583Y-2410387D01*
X-338583Y-2346508D01*
X-337392Y-2345317D01*
X-262708Y-2345317D01*
X-261517Y-2346508D01*
X-261517Y-2412192D01*
X-262708Y-2413383D01*
X-326587Y-2413383D01*
X-326684Y-2413399D01*
X-326780Y-2413408D01*
X-326803Y-2413418D01*
X-326828Y-2413422D01*
X-326914Y-2413468D01*
X-327003Y-2413509D01*
X-327028Y-2413530D01*
X-327043Y-2413537D01*
X-327060Y-2413556D01*
X-327117Y-2413602D01*
X-360460Y-2446945D01*
X-360517Y-2447024D01*
X-360579Y-2447100D01*
X-360587Y-2447123D01*
X-360602Y-2447143D01*
X-360630Y-2447237D01*
X-360665Y-2447328D01*
X-360668Y-2447361D01*
X-360673Y-2447377D01*
X-360672Y-2447402D01*
X-360679Y-2447475D01*
X-360679Y-2496642D01*
X-360670Y-2496699D01*
X-360670Y-2496757D01*
X-360650Y-2496818D01*
X-360640Y-2496882D01*
X-360612Y-2496934D01*
X-360594Y-2496988D01*
X-360533Y-2497082D01*
X-360525Y-2497098D01*
X-360520Y-2497102D01*
X-360513Y-2497112D01*
X-207345Y-2687040D01*
X-207334Y-2687051D01*
X-207326Y-2687064D01*
X-207243Y-2687132D01*
X-207163Y-2687203D01*
X-207149Y-2687209D01*
X-207137Y-2687219D01*
X-207037Y-2687256D01*
X-206939Y-2687298D01*
X-206923Y-2687299D01*
X-206909Y-2687305D01*
X-206762Y-2687319D01*
X-143946Y-2687319D01*
X-115569Y-2715696D01*
X-115569Y-2743434D01*
X-118765Y-2746629D01*
X-120200Y-2748064D01*
X-120263Y-2748152D01*
X-120329Y-2748236D01*
X-120334Y-2748251D01*
X-120342Y-2748263D01*
X-120374Y-2748366D01*
X-120409Y-2748467D01*
X-120409Y-2748482D01*
X-120413Y-2748496D01*
X-120410Y-2748604D01*
X-120411Y-2748711D01*
X-120406Y-2748725D01*
X-120405Y-2748740D01*
X-120368Y-2748841D01*
X-120334Y-2748942D01*
X-120323Y-2748959D01*
X-120319Y-2748969D01*
X-120305Y-2748986D01*
X-120253Y-2749066D01*
X-120099Y-2749255D01*
X-120275Y-2750930D01*
X-138757Y-2765896D01*
X-140432Y-2765720D01*
G37*
%LPD*%
%LPC*%
G36*
X-231929Y-2560058D02*
X-231929Y-2560058D01*
X-234658Y-2557329D01*
X-234658Y-2553471D01*
X-231929Y-2550742D01*
X-228071Y-2550742D01*
X-227697Y-2551116D01*
X-227618Y-2551173D01*
X-227543Y-2551235D01*
X-227519Y-2551243D01*
X-227499Y-2551258D01*
X-227405Y-2551286D01*
X-227314Y-2551321D01*
X-227281Y-2551324D01*
X-227265Y-2551329D01*
X-227240Y-2551328D01*
X-227167Y-2551335D01*
X-11994Y-2551335D01*
X-11898Y-2551319D01*
X-11801Y-2551310D01*
X-11778Y-2551300D01*
X-11753Y-2551296D01*
X-11667Y-2551250D01*
X-11578Y-2551209D01*
X-11553Y-2551188D01*
X-11538Y-2551181D01*
X-11521Y-2551162D01*
X-11464Y-2551116D01*
X-4284Y-2543936D01*
X-4227Y-2543856D01*
X-4165Y-2543781D01*
X-4157Y-2543758D01*
X-4142Y-2543737D01*
X-4114Y-2543644D01*
X-4079Y-2543553D01*
X-4076Y-2543520D01*
X-4071Y-2543504D01*
X-4072Y-2543479D01*
X-4065Y-2543406D01*
X-4065Y-2348316D01*
X-1464Y-2345716D01*
X18316Y-2325935D01*
X361684Y-2325935D01*
X364284Y-2328536D01*
X370871Y-2335123D01*
X370951Y-2335180D01*
X371026Y-2335242D01*
X371049Y-2335250D01*
X371070Y-2335265D01*
X371163Y-2335293D01*
X371254Y-2335328D01*
X371287Y-2335331D01*
X371303Y-2335336D01*
X371328Y-2335335D01*
X371401Y-2335342D01*
X371929Y-2335342D01*
X374658Y-2338071D01*
X374658Y-2341929D01*
X371929Y-2344658D01*
X368071Y-2344658D01*
X365342Y-2341929D01*
X365342Y-2341401D01*
X365326Y-2341305D01*
X365317Y-2341208D01*
X365307Y-2341185D01*
X365303Y-2341160D01*
X365257Y-2341074D01*
X365216Y-2340985D01*
X365195Y-2340960D01*
X365188Y-2340945D01*
X365169Y-2340928D01*
X365123Y-2340871D01*
X358536Y-2334284D01*
X358456Y-2334227D01*
X358381Y-2334165D01*
X358358Y-2334157D01*
X358337Y-2334142D01*
X358244Y-2334114D01*
X358153Y-2334079D01*
X358120Y-2334076D01*
X358104Y-2334071D01*
X358079Y-2334072D01*
X358006Y-2334065D01*
X21994Y-2334065D01*
X21898Y-2334081D01*
X21801Y-2334090D01*
X21778Y-2334100D01*
X21753Y-2334104D01*
X21667Y-2334150D01*
X21578Y-2334191D01*
X21553Y-2334212D01*
X21538Y-2334219D01*
X21521Y-2334238D01*
X21464Y-2334284D01*
X4284Y-2351464D01*
X4227Y-2351544D01*
X4165Y-2351619D01*
X4157Y-2351642D01*
X4142Y-2351663D01*
X4114Y-2351756D01*
X4079Y-2351847D01*
X4076Y-2351880D01*
X4071Y-2351896D01*
X4072Y-2351921D01*
X4065Y-2351994D01*
X4065Y-2547084D01*
X-5716Y-2556864D01*
X-8316Y-2559465D01*
X-227167Y-2559465D01*
X-227264Y-2559481D01*
X-227361Y-2559490D01*
X-227383Y-2559500D01*
X-227408Y-2559504D01*
X-227494Y-2559550D01*
X-227583Y-2559591D01*
X-227609Y-2559612D01*
X-227623Y-2559619D01*
X-227639Y-2559637D01*
X-227642Y-2559638D01*
X-227645Y-2559642D01*
X-227697Y-2559684D01*
X-228071Y-2560058D01*
X-231929Y-2560058D01*
G37*
%LPD*%
%LPC*%
G36*
X-286929Y-2304658D02*
X-286929Y-2304658D01*
X-289658Y-2301929D01*
X-289658Y-2298071D01*
X-286929Y-2295342D01*
X-283071Y-2295342D01*
X-282697Y-2295716D01*
X-282618Y-2295773D01*
X-282543Y-2295835D01*
X-282519Y-2295843D01*
X-282499Y-2295858D01*
X-282405Y-2295886D01*
X-282314Y-2295921D01*
X-282281Y-2295924D01*
X-282265Y-2295929D01*
X-282240Y-2295928D01*
X-282167Y-2295935D01*
X-11994Y-2295935D01*
X-11898Y-2295919D01*
X-11801Y-2295910D01*
X-11778Y-2295900D01*
X-11753Y-2295896D01*
X-11667Y-2295850D01*
X-11578Y-2295809D01*
X-11553Y-2295788D01*
X-11538Y-2295781D01*
X-11521Y-2295762D01*
X-11464Y-2295716D01*
X-4284Y-2288536D01*
X-4227Y-2288456D01*
X-4165Y-2288381D01*
X-4157Y-2288358D01*
X-4142Y-2288337D01*
X-4114Y-2288244D01*
X-4079Y-2288153D01*
X-4076Y-2288120D01*
X-4071Y-2288104D01*
X-4072Y-2288079D01*
X-4065Y-2288006D01*
X-4065Y-2148316D01*
X-1464Y-2145716D01*
X8316Y-2135935D01*
X337167Y-2135935D01*
X337264Y-2135919D01*
X337361Y-2135910D01*
X337383Y-2135900D01*
X337408Y-2135896D01*
X337494Y-2135850D01*
X337583Y-2135809D01*
X337609Y-2135788D01*
X337623Y-2135781D01*
X337640Y-2135762D01*
X337697Y-2135716D01*
X338071Y-2135342D01*
X341929Y-2135342D01*
X344658Y-2138071D01*
X344658Y-2141929D01*
X341929Y-2144658D01*
X338071Y-2144658D01*
X337697Y-2144284D01*
X337618Y-2144227D01*
X337543Y-2144165D01*
X337519Y-2144157D01*
X337499Y-2144142D01*
X337405Y-2144114D01*
X337314Y-2144079D01*
X337281Y-2144076D01*
X337265Y-2144071D01*
X337240Y-2144072D01*
X337167Y-2144065D01*
X11994Y-2144065D01*
X11898Y-2144081D01*
X11801Y-2144090D01*
X11778Y-2144100D01*
X11753Y-2144104D01*
X11667Y-2144150D01*
X11578Y-2144191D01*
X11553Y-2144212D01*
X11538Y-2144219D01*
X11521Y-2144238D01*
X11464Y-2144284D01*
X4284Y-2151464D01*
X4227Y-2151544D01*
X4165Y-2151619D01*
X4157Y-2151642D01*
X4142Y-2151663D01*
X4114Y-2151756D01*
X4079Y-2151847D01*
X4076Y-2151880D01*
X4071Y-2151896D01*
X4072Y-2151921D01*
X4065Y-2151994D01*
X4065Y-2291684D01*
X1464Y-2294284D01*
X-8316Y-2304065D01*
X-282167Y-2304065D01*
X-282264Y-2304081D01*
X-282361Y-2304090D01*
X-282383Y-2304100D01*
X-282408Y-2304104D01*
X-282494Y-2304150D01*
X-282583Y-2304191D01*
X-282609Y-2304212D01*
X-282623Y-2304219D01*
X-282640Y-2304238D01*
X-282697Y-2304284D01*
X-283071Y-2304658D01*
X-286929Y-2304658D01*
G37*
%LPD*%
%LPC*%
G36*
X-281929Y-2104658D02*
X-281929Y-2104658D01*
X-284658Y-2101929D01*
X-284658Y-2098071D01*
X-281929Y-2095342D01*
X-278071Y-2095342D01*
X-277697Y-2095716D01*
X-277618Y-2095773D01*
X-277543Y-2095835D01*
X-277519Y-2095843D01*
X-277499Y-2095858D01*
X-277405Y-2095886D01*
X-277314Y-2095921D01*
X-277281Y-2095924D01*
X-277265Y-2095929D01*
X-277240Y-2095928D01*
X-277167Y-2095935D01*
X-11994Y-2095935D01*
X-11898Y-2095919D01*
X-11801Y-2095910D01*
X-11778Y-2095900D01*
X-11753Y-2095896D01*
X-11667Y-2095850D01*
X-11578Y-2095809D01*
X-11553Y-2095788D01*
X-11538Y-2095781D01*
X-11521Y-2095762D01*
X-11464Y-2095716D01*
X-4284Y-2088536D01*
X-4227Y-2088456D01*
X-4165Y-2088381D01*
X-4157Y-2088358D01*
X-4142Y-2088337D01*
X-4114Y-2088244D01*
X-4079Y-2088153D01*
X-4076Y-2088120D01*
X-4071Y-2088104D01*
X-4072Y-2088079D01*
X-4065Y-2088006D01*
X-4065Y-1948316D01*
X-1464Y-1945716D01*
X8316Y-1935935D01*
X317167Y-1935935D01*
X317264Y-1935919D01*
X317361Y-1935910D01*
X317383Y-1935900D01*
X317408Y-1935896D01*
X317494Y-1935850D01*
X317583Y-1935809D01*
X317609Y-1935788D01*
X317623Y-1935781D01*
X317640Y-1935762D01*
X317697Y-1935716D01*
X318071Y-1935342D01*
X321929Y-1935342D01*
X324658Y-1938071D01*
X324658Y-1941929D01*
X321929Y-1944658D01*
X318071Y-1944658D01*
X317697Y-1944284D01*
X317618Y-1944227D01*
X317543Y-1944165D01*
X317519Y-1944157D01*
X317499Y-1944142D01*
X317405Y-1944114D01*
X317314Y-1944079D01*
X317281Y-1944076D01*
X317265Y-1944071D01*
X317240Y-1944072D01*
X317167Y-1944065D01*
X11994Y-1944065D01*
X11898Y-1944081D01*
X11801Y-1944090D01*
X11778Y-1944100D01*
X11753Y-1944104D01*
X11667Y-1944150D01*
X11578Y-1944191D01*
X11553Y-1944212D01*
X11538Y-1944219D01*
X11521Y-1944238D01*
X11464Y-1944284D01*
X4284Y-1951464D01*
X4227Y-1951544D01*
X4165Y-1951619D01*
X4157Y-1951642D01*
X4142Y-1951663D01*
X4114Y-1951756D01*
X4079Y-1951847D01*
X4076Y-1951880D01*
X4071Y-1951896D01*
X4072Y-1951921D01*
X4065Y-1951994D01*
X4065Y-2091684D01*
X1464Y-2094284D01*
X-5716Y-2101464D01*
X-8316Y-2104065D01*
X-277167Y-2104065D01*
X-277264Y-2104081D01*
X-277361Y-2104090D01*
X-277383Y-2104100D01*
X-277408Y-2104104D01*
X-277494Y-2104150D01*
X-277583Y-2104191D01*
X-277609Y-2104212D01*
X-277623Y-2104219D01*
X-277640Y-2104238D01*
X-277697Y-2104284D01*
X-278071Y-2104658D01*
X-281929Y-2104658D01*
G37*
%LPD*%
%LPC*%
G36*
X-256929Y-1904658D02*
X-256929Y-1904658D01*
X-259658Y-1901929D01*
X-259658Y-1898071D01*
X-256929Y-1895342D01*
X-253071Y-1895342D01*
X-252697Y-1895716D01*
X-252618Y-1895773D01*
X-252543Y-1895835D01*
X-252519Y-1895843D01*
X-252499Y-1895858D01*
X-252405Y-1895886D01*
X-252314Y-1895921D01*
X-252281Y-1895924D01*
X-252265Y-1895929D01*
X-252240Y-1895928D01*
X-252167Y-1895935D01*
X-11994Y-1895935D01*
X-11898Y-1895919D01*
X-11801Y-1895910D01*
X-11778Y-1895900D01*
X-11753Y-1895896D01*
X-11667Y-1895850D01*
X-11578Y-1895809D01*
X-11553Y-1895788D01*
X-11538Y-1895781D01*
X-11521Y-1895762D01*
X-11464Y-1895716D01*
X-4284Y-1888536D01*
X-4227Y-1888456D01*
X-4165Y-1888381D01*
X-4157Y-1888358D01*
X-4142Y-1888337D01*
X-4114Y-1888244D01*
X-4079Y-1888153D01*
X-4076Y-1888120D01*
X-4071Y-1888104D01*
X-4072Y-1888079D01*
X-4065Y-1888006D01*
X-4065Y-1748316D01*
X-1464Y-1745716D01*
X8316Y-1735935D01*
X297167Y-1735935D01*
X297264Y-1735919D01*
X297361Y-1735910D01*
X297383Y-1735900D01*
X297408Y-1735896D01*
X297494Y-1735850D01*
X297583Y-1735809D01*
X297609Y-1735788D01*
X297623Y-1735781D01*
X297640Y-1735762D01*
X297697Y-1735716D01*
X298071Y-1735342D01*
X301929Y-1735342D01*
X304658Y-1738071D01*
X304658Y-1741929D01*
X301929Y-1744658D01*
X298071Y-1744658D01*
X297697Y-1744284D01*
X297618Y-1744227D01*
X297543Y-1744165D01*
X297519Y-1744157D01*
X297499Y-1744142D01*
X297405Y-1744114D01*
X297314Y-1744079D01*
X297281Y-1744076D01*
X297265Y-1744071D01*
X297240Y-1744072D01*
X297167Y-1744065D01*
X11994Y-1744065D01*
X11898Y-1744081D01*
X11801Y-1744090D01*
X11778Y-1744100D01*
X11753Y-1744104D01*
X11667Y-1744150D01*
X11578Y-1744191D01*
X11553Y-1744212D01*
X11538Y-1744219D01*
X11521Y-1744238D01*
X11464Y-1744284D01*
X4284Y-1751464D01*
X4227Y-1751544D01*
X4165Y-1751619D01*
X4157Y-1751642D01*
X4142Y-1751663D01*
X4114Y-1751756D01*
X4079Y-1751847D01*
X4076Y-1751880D01*
X4071Y-1751896D01*
X4072Y-1751921D01*
X4065Y-1751994D01*
X4065Y-1891684D01*
X1464Y-1894284D01*
X-5716Y-1901464D01*
X-8316Y-1904065D01*
X-252167Y-1904065D01*
X-252264Y-1904081D01*
X-252361Y-1904090D01*
X-252383Y-1904100D01*
X-252408Y-1904104D01*
X-252494Y-1904150D01*
X-252583Y-1904191D01*
X-252609Y-1904212D01*
X-252623Y-1904219D01*
X-252640Y-1904238D01*
X-252697Y-1904284D01*
X-253071Y-1904658D01*
X-256929Y-1904658D01*
G37*
%LPD*%
%LPC*%
G36*
X-241929Y-1704658D02*
X-241929Y-1704658D01*
X-244658Y-1701929D01*
X-244658Y-1698071D01*
X-241929Y-1695342D01*
X-238071Y-1695342D01*
X-237697Y-1695716D01*
X-237618Y-1695773D01*
X-237543Y-1695835D01*
X-237519Y-1695843D01*
X-237499Y-1695858D01*
X-237405Y-1695886D01*
X-237314Y-1695921D01*
X-237281Y-1695924D01*
X-237265Y-1695929D01*
X-237240Y-1695928D01*
X-237167Y-1695935D01*
X-11994Y-1695935D01*
X-11898Y-1695919D01*
X-11801Y-1695910D01*
X-11778Y-1695900D01*
X-11753Y-1695896D01*
X-11667Y-1695850D01*
X-11578Y-1695809D01*
X-11553Y-1695788D01*
X-11538Y-1695781D01*
X-11521Y-1695762D01*
X-11464Y-1695716D01*
X-4284Y-1688536D01*
X-4227Y-1688456D01*
X-4165Y-1688381D01*
X-4157Y-1688358D01*
X-4142Y-1688337D01*
X-4114Y-1688244D01*
X-4079Y-1688153D01*
X-4076Y-1688120D01*
X-4071Y-1688104D01*
X-4072Y-1688079D01*
X-4065Y-1688006D01*
X-4065Y-1548316D01*
X5716Y-1538536D01*
X8316Y-1535935D01*
X277167Y-1535935D01*
X277264Y-1535919D01*
X277361Y-1535910D01*
X277383Y-1535900D01*
X277408Y-1535896D01*
X277494Y-1535850D01*
X277583Y-1535809D01*
X277609Y-1535788D01*
X277623Y-1535781D01*
X277640Y-1535762D01*
X277697Y-1535716D01*
X278071Y-1535342D01*
X281929Y-1535342D01*
X284658Y-1538071D01*
X284658Y-1541929D01*
X281929Y-1544658D01*
X278071Y-1544658D01*
X277697Y-1544284D01*
X277618Y-1544227D01*
X277543Y-1544165D01*
X277519Y-1544157D01*
X277499Y-1544142D01*
X277405Y-1544114D01*
X277314Y-1544079D01*
X277281Y-1544076D01*
X277265Y-1544071D01*
X277241Y-1544072D01*
X277167Y-1544065D01*
X11994Y-1544065D01*
X11898Y-1544081D01*
X11801Y-1544090D01*
X11778Y-1544100D01*
X11753Y-1544104D01*
X11667Y-1544150D01*
X11578Y-1544191D01*
X11553Y-1544212D01*
X11538Y-1544219D01*
X11521Y-1544238D01*
X11464Y-1544284D01*
X4284Y-1551464D01*
X4227Y-1551544D01*
X4165Y-1551619D01*
X4157Y-1551642D01*
X4142Y-1551663D01*
X4114Y-1551756D01*
X4079Y-1551847D01*
X4076Y-1551880D01*
X4071Y-1551896D01*
X4072Y-1551921D01*
X4065Y-1551994D01*
X4065Y-1691684D01*
X-5716Y-1701464D01*
X-8316Y-1704065D01*
X-237167Y-1704065D01*
X-237264Y-1704081D01*
X-237361Y-1704090D01*
X-237383Y-1704100D01*
X-237408Y-1704104D01*
X-237494Y-1704150D01*
X-237583Y-1704191D01*
X-237609Y-1704212D01*
X-237623Y-1704219D01*
X-237640Y-1704238D01*
X-237697Y-1704284D01*
X-238071Y-1704658D01*
X-241929Y-1704658D01*
G37*
%LPD*%
%LPC*%
G36*
X-216929Y-1504658D02*
X-216929Y-1504658D01*
X-219658Y-1501929D01*
X-219658Y-1498071D01*
X-216929Y-1495342D01*
X-213071Y-1495342D01*
X-212697Y-1495716D01*
X-212618Y-1495773D01*
X-212543Y-1495835D01*
X-212519Y-1495843D01*
X-212499Y-1495858D01*
X-212405Y-1495886D01*
X-212314Y-1495921D01*
X-212281Y-1495924D01*
X-212265Y-1495929D01*
X-212240Y-1495928D01*
X-212167Y-1495935D01*
X-11994Y-1495935D01*
X-11898Y-1495919D01*
X-11801Y-1495910D01*
X-11778Y-1495900D01*
X-11753Y-1495896D01*
X-11667Y-1495850D01*
X-11578Y-1495809D01*
X-11553Y-1495788D01*
X-11538Y-1495781D01*
X-11521Y-1495762D01*
X-11464Y-1495716D01*
X-4284Y-1488536D01*
X-4227Y-1488456D01*
X-4165Y-1488381D01*
X-4157Y-1488358D01*
X-4142Y-1488337D01*
X-4114Y-1488244D01*
X-4079Y-1488153D01*
X-4076Y-1488120D01*
X-4071Y-1488104D01*
X-4072Y-1488079D01*
X-4065Y-1488006D01*
X-4065Y-1348316D01*
X5716Y-1338536D01*
X8316Y-1335935D01*
X257167Y-1335935D01*
X257264Y-1335919D01*
X257361Y-1335910D01*
X257383Y-1335900D01*
X257408Y-1335896D01*
X257494Y-1335850D01*
X257583Y-1335809D01*
X257609Y-1335788D01*
X257623Y-1335781D01*
X257640Y-1335762D01*
X257697Y-1335716D01*
X258071Y-1335342D01*
X261929Y-1335342D01*
X264658Y-1338071D01*
X264658Y-1341929D01*
X261929Y-1344658D01*
X258071Y-1344658D01*
X257697Y-1344284D01*
X257618Y-1344227D01*
X257543Y-1344165D01*
X257519Y-1344157D01*
X257499Y-1344142D01*
X257405Y-1344114D01*
X257314Y-1344079D01*
X257281Y-1344076D01*
X257265Y-1344071D01*
X257240Y-1344072D01*
X257167Y-1344065D01*
X11994Y-1344065D01*
X11898Y-1344081D01*
X11801Y-1344090D01*
X11778Y-1344100D01*
X11753Y-1344104D01*
X11667Y-1344150D01*
X11578Y-1344191D01*
X11553Y-1344212D01*
X11538Y-1344219D01*
X11521Y-1344238D01*
X11464Y-1344284D01*
X4284Y-1351464D01*
X4227Y-1351544D01*
X4165Y-1351619D01*
X4157Y-1351642D01*
X4142Y-1351663D01*
X4114Y-1351756D01*
X4079Y-1351847D01*
X4076Y-1351880D01*
X4071Y-1351896D01*
X4072Y-1351921D01*
X4065Y-1351994D01*
X4065Y-1491684D01*
X-5716Y-1501464D01*
X-8316Y-1504065D01*
X-212167Y-1504065D01*
X-212264Y-1504081D01*
X-212361Y-1504090D01*
X-212383Y-1504100D01*
X-212408Y-1504104D01*
X-212494Y-1504150D01*
X-212583Y-1504191D01*
X-212609Y-1504212D01*
X-212623Y-1504219D01*
X-212640Y-1504238D01*
X-212697Y-1504284D01*
X-213071Y-1504658D01*
X-216929Y-1504658D01*
G37*
%LPD*%
%LPC*%
G36*
X-201929Y-1304658D02*
X-201929Y-1304658D01*
X-204658Y-1301929D01*
X-204658Y-1298071D01*
X-201929Y-1295342D01*
X-198071Y-1295342D01*
X-197697Y-1295716D01*
X-197618Y-1295773D01*
X-197543Y-1295835D01*
X-197519Y-1295843D01*
X-197499Y-1295858D01*
X-197405Y-1295886D01*
X-197314Y-1295921D01*
X-197281Y-1295924D01*
X-197265Y-1295929D01*
X-197240Y-1295928D01*
X-197167Y-1295935D01*
X-11994Y-1295935D01*
X-11898Y-1295919D01*
X-11801Y-1295910D01*
X-11778Y-1295900D01*
X-11753Y-1295896D01*
X-11667Y-1295850D01*
X-11578Y-1295809D01*
X-11553Y-1295788D01*
X-11538Y-1295781D01*
X-11521Y-1295762D01*
X-11464Y-1295716D01*
X-4284Y-1288536D01*
X-4241Y-1288476D01*
X-4191Y-1288422D01*
X-4181Y-1288400D01*
X-4165Y-1288381D01*
X-4157Y-1288358D01*
X-4142Y-1288337D01*
X-4121Y-1288267D01*
X-4090Y-1288200D01*
X-4088Y-1288176D01*
X-4079Y-1288153D01*
X-4076Y-1288120D01*
X-4071Y-1288104D01*
X-4072Y-1288079D01*
X-4065Y-1288006D01*
X-4065Y-1148316D01*
X-1464Y-1145716D01*
X8316Y-1135935D01*
X237167Y-1135935D01*
X237264Y-1135919D01*
X237361Y-1135910D01*
X237383Y-1135900D01*
X237408Y-1135896D01*
X237494Y-1135850D01*
X237583Y-1135809D01*
X237609Y-1135788D01*
X237623Y-1135781D01*
X237640Y-1135762D01*
X237697Y-1135716D01*
X238071Y-1135342D01*
X241929Y-1135342D01*
X244658Y-1138071D01*
X244658Y-1141929D01*
X241929Y-1144658D01*
X238071Y-1144658D01*
X237697Y-1144284D01*
X237618Y-1144227D01*
X237543Y-1144165D01*
X237519Y-1144157D01*
X237499Y-1144142D01*
X237405Y-1144114D01*
X237314Y-1144079D01*
X237281Y-1144076D01*
X237265Y-1144071D01*
X237240Y-1144072D01*
X237167Y-1144065D01*
X11994Y-1144065D01*
X11898Y-1144081D01*
X11801Y-1144090D01*
X11778Y-1144100D01*
X11753Y-1144104D01*
X11667Y-1144150D01*
X11578Y-1144191D01*
X11553Y-1144212D01*
X11538Y-1144219D01*
X11521Y-1144238D01*
X11464Y-1144284D01*
X4284Y-1151464D01*
X4227Y-1151544D01*
X4165Y-1151619D01*
X4157Y-1151642D01*
X4142Y-1151663D01*
X4114Y-1151756D01*
X4079Y-1151847D01*
X4076Y-1151880D01*
X4071Y-1151896D01*
X4072Y-1151921D01*
X4065Y-1151994D01*
X4065Y-1291684D01*
X1464Y-1294284D01*
X-5716Y-1301464D01*
X-8316Y-1304065D01*
X-197167Y-1304065D01*
X-197264Y-1304081D01*
X-197361Y-1304090D01*
X-197383Y-1304100D01*
X-197408Y-1304104D01*
X-197494Y-1304150D01*
X-197583Y-1304191D01*
X-197609Y-1304212D01*
X-197623Y-1304219D01*
X-197640Y-1304238D01*
X-197697Y-1304284D01*
X-198071Y-1304658D01*
X-201929Y-1304658D01*
G37*
%LPD*%
%LPC*%
G36*
X-176929Y-1104658D02*
X-176929Y-1104658D01*
X-179658Y-1101929D01*
X-179658Y-1098071D01*
X-176929Y-1095342D01*
X-173071Y-1095342D01*
X-172697Y-1095716D01*
X-172618Y-1095773D01*
X-172543Y-1095835D01*
X-172519Y-1095843D01*
X-172499Y-1095858D01*
X-172405Y-1095886D01*
X-172314Y-1095921D01*
X-172281Y-1095924D01*
X-172265Y-1095929D01*
X-172240Y-1095928D01*
X-172167Y-1095935D01*
X-11994Y-1095935D01*
X-11898Y-1095919D01*
X-11801Y-1095910D01*
X-11778Y-1095900D01*
X-11753Y-1095896D01*
X-11667Y-1095850D01*
X-11578Y-1095809D01*
X-11553Y-1095788D01*
X-11538Y-1095781D01*
X-11521Y-1095762D01*
X-11464Y-1095716D01*
X-4284Y-1088536D01*
X-4227Y-1088456D01*
X-4165Y-1088381D01*
X-4157Y-1088358D01*
X-4142Y-1088337D01*
X-4114Y-1088244D01*
X-4079Y-1088153D01*
X-4076Y-1088120D01*
X-4071Y-1088104D01*
X-4072Y-1088079D01*
X-4065Y-1088006D01*
X-4065Y-948316D01*
X-1464Y-945716D01*
X8316Y-935935D01*
X217167Y-935935D01*
X217264Y-935919D01*
X217361Y-935910D01*
X217383Y-935900D01*
X217408Y-935896D01*
X217494Y-935850D01*
X217583Y-935809D01*
X217609Y-935788D01*
X217623Y-935781D01*
X217640Y-935762D01*
X217697Y-935716D01*
X218071Y-935342D01*
X221929Y-935342D01*
X224658Y-938071D01*
X224658Y-941929D01*
X221929Y-944658D01*
X218071Y-944658D01*
X217697Y-944284D01*
X217618Y-944227D01*
X217543Y-944165D01*
X217519Y-944157D01*
X217499Y-944142D01*
X217405Y-944114D01*
X217314Y-944079D01*
X217281Y-944076D01*
X217265Y-944071D01*
X217240Y-944072D01*
X217167Y-944065D01*
X11994Y-944065D01*
X11898Y-944081D01*
X11801Y-944090D01*
X11778Y-944100D01*
X11753Y-944104D01*
X11667Y-944150D01*
X11578Y-944191D01*
X11553Y-944212D01*
X11538Y-944219D01*
X11521Y-944238D01*
X11464Y-944284D01*
X4284Y-951464D01*
X4227Y-951544D01*
X4165Y-951619D01*
X4157Y-951642D01*
X4142Y-951663D01*
X4114Y-951756D01*
X4079Y-951847D01*
X4076Y-951880D01*
X4071Y-951896D01*
X4072Y-951921D01*
X4065Y-951994D01*
X4065Y-1091684D01*
X1464Y-1094284D01*
X-5716Y-1101464D01*
X-8316Y-1104065D01*
X-172167Y-1104065D01*
X-172264Y-1104081D01*
X-172361Y-1104090D01*
X-172383Y-1104100D01*
X-172408Y-1104104D01*
X-172494Y-1104150D01*
X-172583Y-1104191D01*
X-172609Y-1104212D01*
X-172623Y-1104219D01*
X-172640Y-1104238D01*
X-172697Y-1104284D01*
X-173071Y-1104658D01*
X-176929Y-1104658D01*
G37*
%LPD*%
%LPC*%
G36*
X-156929Y-904658D02*
X-156929Y-904658D01*
X-159658Y-901929D01*
X-159658Y-898071D01*
X-156929Y-895342D01*
X-153071Y-895342D01*
X-152697Y-895716D01*
X-152618Y-895773D01*
X-152543Y-895835D01*
X-152519Y-895843D01*
X-152499Y-895858D01*
X-152405Y-895886D01*
X-152314Y-895921D01*
X-152281Y-895924D01*
X-152265Y-895929D01*
X-152240Y-895928D01*
X-152167Y-895935D01*
X-11994Y-895935D01*
X-11898Y-895919D01*
X-11801Y-895910D01*
X-11778Y-895900D01*
X-11753Y-895896D01*
X-11667Y-895850D01*
X-11578Y-895809D01*
X-11553Y-895788D01*
X-11538Y-895781D01*
X-11521Y-895762D01*
X-11464Y-895716D01*
X-4284Y-888536D01*
X-4227Y-888456D01*
X-4165Y-888381D01*
X-4157Y-888358D01*
X-4142Y-888337D01*
X-4114Y-888244D01*
X-4079Y-888153D01*
X-4076Y-888120D01*
X-4071Y-888104D01*
X-4072Y-888079D01*
X-4065Y-888006D01*
X-4065Y-728316D01*
X-1464Y-725716D01*
X8316Y-715935D01*
X161684Y-715935D01*
X181464Y-735716D01*
X181544Y-735773D01*
X181619Y-735835D01*
X181642Y-735843D01*
X181663Y-735858D01*
X181756Y-735886D01*
X181847Y-735921D01*
X181880Y-735924D01*
X181896Y-735929D01*
X181921Y-735928D01*
X181994Y-735935D01*
X197167Y-735935D01*
X197264Y-735919D01*
X197361Y-735910D01*
X197383Y-735900D01*
X197408Y-735896D01*
X197494Y-735850D01*
X197583Y-735809D01*
X197609Y-735788D01*
X197623Y-735781D01*
X197640Y-735762D01*
X197697Y-735716D01*
X198071Y-735342D01*
X201929Y-735342D01*
X204658Y-738071D01*
X204658Y-741929D01*
X201929Y-744658D01*
X198071Y-744658D01*
X197697Y-744284D01*
X197618Y-744227D01*
X197543Y-744165D01*
X197519Y-744157D01*
X197499Y-744142D01*
X197405Y-744114D01*
X197314Y-744079D01*
X197281Y-744076D01*
X197265Y-744071D01*
X197240Y-744072D01*
X197167Y-744065D01*
X178316Y-744065D01*
X158536Y-724284D01*
X158456Y-724227D01*
X158381Y-724165D01*
X158358Y-724157D01*
X158337Y-724142D01*
X158244Y-724114D01*
X158153Y-724079D01*
X158120Y-724076D01*
X158104Y-724071D01*
X158079Y-724072D01*
X158006Y-724065D01*
X11994Y-724065D01*
X11898Y-724081D01*
X11801Y-724090D01*
X11778Y-724100D01*
X11753Y-724104D01*
X11667Y-724150D01*
X11578Y-724191D01*
X11553Y-724212D01*
X11538Y-724219D01*
X11521Y-724238D01*
X11464Y-724284D01*
X4284Y-731464D01*
X4227Y-731544D01*
X4165Y-731619D01*
X4157Y-731642D01*
X4142Y-731663D01*
X4114Y-731756D01*
X4079Y-731847D01*
X4076Y-731880D01*
X4071Y-731896D01*
X4072Y-731921D01*
X4065Y-731994D01*
X4065Y-891684D01*
X1464Y-894284D01*
X-8316Y-904065D01*
X-152167Y-904065D01*
X-152264Y-904081D01*
X-152361Y-904090D01*
X-152383Y-904100D01*
X-152408Y-904104D01*
X-152494Y-904150D01*
X-152583Y-904191D01*
X-152609Y-904212D01*
X-152623Y-904219D01*
X-152640Y-904238D01*
X-152697Y-904284D01*
X-153071Y-904658D01*
X-156929Y-904658D01*
G37*
%LPD*%
%LPC*%
G36*
X-141929Y-714658D02*
X-141929Y-714658D01*
X-144658Y-711929D01*
X-144658Y-708071D01*
X-141929Y-705342D01*
X-138071Y-705342D01*
X-137697Y-705716D01*
X-137618Y-705773D01*
X-137543Y-705835D01*
X-137519Y-705843D01*
X-137499Y-705858D01*
X-137405Y-705886D01*
X-137314Y-705921D01*
X-137281Y-705924D01*
X-137265Y-705929D01*
X-137240Y-705928D01*
X-137167Y-705935D01*
X-11994Y-705935D01*
X-11898Y-705919D01*
X-11801Y-705910D01*
X-11778Y-705900D01*
X-11753Y-705896D01*
X-11667Y-705850D01*
X-11578Y-705809D01*
X-11553Y-705788D01*
X-11538Y-705781D01*
X-11521Y-705762D01*
X-11464Y-705716D01*
X-4284Y-698536D01*
X-4227Y-698456D01*
X-4165Y-698381D01*
X-4157Y-698358D01*
X-4142Y-698337D01*
X-4114Y-698244D01*
X-4079Y-698153D01*
X-4076Y-698120D01*
X-4071Y-698104D01*
X-4072Y-698079D01*
X-4065Y-698006D01*
X-4065Y-548316D01*
X5716Y-538536D01*
X8316Y-535935D01*
X177167Y-535935D01*
X177264Y-535919D01*
X177361Y-535910D01*
X177383Y-535900D01*
X177408Y-535896D01*
X177494Y-535850D01*
X177583Y-535809D01*
X177609Y-535788D01*
X177623Y-535781D01*
X177640Y-535762D01*
X177697Y-535716D01*
X178071Y-535342D01*
X181929Y-535342D01*
X184658Y-538071D01*
X184658Y-541929D01*
X181929Y-544658D01*
X178071Y-544658D01*
X177697Y-544284D01*
X177618Y-544227D01*
X177543Y-544165D01*
X177519Y-544157D01*
X177499Y-544142D01*
X177405Y-544114D01*
X177314Y-544079D01*
X177281Y-544076D01*
X177265Y-544071D01*
X177240Y-544072D01*
X177167Y-544065D01*
X11994Y-544065D01*
X11898Y-544081D01*
X11801Y-544090D01*
X11778Y-544100D01*
X11753Y-544104D01*
X11667Y-544150D01*
X11578Y-544191D01*
X11553Y-544212D01*
X11538Y-544219D01*
X11521Y-544238D01*
X11464Y-544284D01*
X4284Y-551464D01*
X4227Y-551544D01*
X4165Y-551619D01*
X4157Y-551642D01*
X4142Y-551663D01*
X4114Y-551756D01*
X4079Y-551847D01*
X4076Y-551880D01*
X4071Y-551896D01*
X4072Y-551921D01*
X4065Y-551994D01*
X4065Y-701684D01*
X-8316Y-714065D01*
X-137167Y-714065D01*
X-137264Y-714081D01*
X-137361Y-714090D01*
X-137383Y-714100D01*
X-137408Y-714104D01*
X-137494Y-714150D01*
X-137583Y-714191D01*
X-137609Y-714212D01*
X-137623Y-714219D01*
X-137637Y-714234D01*
X-137639Y-714235D01*
X-137645Y-714241D01*
X-137697Y-714284D01*
X-138071Y-714658D01*
X-141929Y-714658D01*
G37*
%LPD*%
%LPC*%
G36*
X-1929Y-2664658D02*
X-1929Y-2664658D01*
X-4658Y-2661929D01*
X-4658Y-2658071D01*
X-4284Y-2657697D01*
X-4227Y-2657618D01*
X-4165Y-2657543D01*
X-4157Y-2657519D01*
X-4142Y-2657499D01*
X-4114Y-2657405D01*
X-4079Y-2657314D01*
X-4076Y-2657281D01*
X-4071Y-2657265D01*
X-4072Y-2657240D01*
X-4065Y-2657167D01*
X-4065Y-2583716D01*
X8316Y-2571335D01*
X307167Y-2571335D01*
X307264Y-2571319D01*
X307361Y-2571310D01*
X307383Y-2571300D01*
X307408Y-2571296D01*
X307494Y-2571250D01*
X307583Y-2571209D01*
X307609Y-2571188D01*
X307623Y-2571181D01*
X307640Y-2571162D01*
X307697Y-2571116D01*
X308071Y-2570742D01*
X311929Y-2570742D01*
X314658Y-2573471D01*
X314658Y-2577329D01*
X311929Y-2580058D01*
X308071Y-2580058D01*
X307697Y-2579684D01*
X307618Y-2579627D01*
X307543Y-2579565D01*
X307519Y-2579557D01*
X307499Y-2579542D01*
X307405Y-2579514D01*
X307314Y-2579479D01*
X307281Y-2579476D01*
X307265Y-2579471D01*
X307240Y-2579472D01*
X307167Y-2579465D01*
X11994Y-2579465D01*
X11898Y-2579481D01*
X11801Y-2579490D01*
X11778Y-2579500D01*
X11753Y-2579504D01*
X11667Y-2579550D01*
X11578Y-2579591D01*
X11553Y-2579612D01*
X11538Y-2579619D01*
X11521Y-2579638D01*
X11464Y-2579684D01*
X4284Y-2586864D01*
X4227Y-2586944D01*
X4165Y-2587019D01*
X4157Y-2587042D01*
X4142Y-2587063D01*
X4114Y-2587156D01*
X4079Y-2587247D01*
X4076Y-2587280D01*
X4071Y-2587296D01*
X4072Y-2587321D01*
X4065Y-2587394D01*
X4065Y-2657167D01*
X4081Y-2657264D01*
X4090Y-2657361D01*
X4100Y-2657383D01*
X4104Y-2657408D01*
X4150Y-2657494D01*
X4191Y-2657583D01*
X4212Y-2657609D01*
X4219Y-2657623D01*
X4238Y-2657640D01*
X4284Y-2657697D01*
X4658Y-2658071D01*
X4658Y-2661929D01*
X1929Y-2664658D01*
X-1929Y-2664658D01*
G37*
%LPD*%
%LPC*%
G36*
X-122579Y-506308D02*
X-122579Y-506308D01*
X-125308Y-503579D01*
X-125308Y-499721D01*
X-122579Y-496992D01*
X-121333Y-496992D01*
X-121236Y-496976D01*
X-121139Y-496967D01*
X-121117Y-496957D01*
X-121092Y-496953D01*
X-121006Y-496907D01*
X-120917Y-496866D01*
X-120891Y-496845D01*
X-120877Y-496838D01*
X-120860Y-496819D01*
X-120803Y-496773D01*
X-105376Y-481346D01*
X-105319Y-481267D01*
X-105257Y-481192D01*
X-105249Y-481168D01*
X-105234Y-481148D01*
X-105206Y-481055D01*
X-105171Y-480963D01*
X-105168Y-480930D01*
X-105163Y-480914D01*
X-105164Y-480889D01*
X-105157Y-480816D01*
X-105157Y-154184D01*
X-105173Y-154087D01*
X-105182Y-153990D01*
X-105192Y-153968D01*
X-105196Y-153943D01*
X-105242Y-153857D01*
X-105283Y-153768D01*
X-105304Y-153742D01*
X-105311Y-153728D01*
X-105330Y-153711D01*
X-105376Y-153654D01*
X-111507Y-147523D01*
X-111507Y-143041D01*
X-111523Y-142944D01*
X-111532Y-142847D01*
X-111542Y-142825D01*
X-111546Y-142800D01*
X-111592Y-142714D01*
X-111633Y-142625D01*
X-111654Y-142599D01*
X-111661Y-142585D01*
X-111680Y-142568D01*
X-111726Y-142511D01*
X-112608Y-141629D01*
X-112608Y-137771D01*
X-109879Y-135042D01*
X-106021Y-135042D01*
X-103292Y-137771D01*
X-103292Y-141629D01*
X-104174Y-142511D01*
X-104231Y-142590D01*
X-104293Y-142665D01*
X-104301Y-142689D01*
X-104316Y-142709D01*
X-104344Y-142803D01*
X-104379Y-142894D01*
X-104382Y-142927D01*
X-104387Y-142943D01*
X-104386Y-142968D01*
X-104393Y-143041D01*
X-104393Y-144266D01*
X-104377Y-144363D01*
X-104368Y-144460D01*
X-104358Y-144482D01*
X-104354Y-144507D01*
X-104308Y-144593D01*
X-104267Y-144682D01*
X-104246Y-144708D01*
X-104239Y-144722D01*
X-104220Y-144739D01*
X-104174Y-144796D01*
X-98043Y-150927D01*
X-98043Y-484073D01*
X-115773Y-501803D01*
X-115830Y-501882D01*
X-115892Y-501957D01*
X-115900Y-501981D01*
X-115915Y-502001D01*
X-115943Y-502094D01*
X-115978Y-502186D01*
X-115981Y-502219D01*
X-115986Y-502235D01*
X-115985Y-502260D01*
X-115992Y-502333D01*
X-115992Y-503579D01*
X-118721Y-506308D01*
X-122579Y-506308D01*
G37*
%LPD*%
%LPC*%
G36*
X-122579Y-480908D02*
X-122579Y-480908D01*
X-125308Y-478179D01*
X-125308Y-477651D01*
X-125324Y-477555D01*
X-125333Y-477458D01*
X-125343Y-477435D01*
X-125347Y-477410D01*
X-125393Y-477324D01*
X-125434Y-477235D01*
X-125455Y-477210D01*
X-125462Y-477195D01*
X-125481Y-477178D01*
X-125527Y-477121D01*
X-134814Y-467834D01*
X-137415Y-465234D01*
X-137415Y-282233D01*
X-137431Y-282136D01*
X-137440Y-282039D01*
X-137450Y-282017D01*
X-137454Y-281992D01*
X-137500Y-281906D01*
X-137541Y-281817D01*
X-137562Y-281791D01*
X-137569Y-281777D01*
X-137588Y-281760D01*
X-137634Y-281703D01*
X-138008Y-281329D01*
X-138008Y-277471D01*
X-135279Y-274742D01*
X-134751Y-274742D01*
X-134655Y-274726D01*
X-134558Y-274717D01*
X-134535Y-274707D01*
X-134510Y-274703D01*
X-134424Y-274657D01*
X-134335Y-274616D01*
X-134310Y-274595D01*
X-134295Y-274588D01*
X-134278Y-274569D01*
X-134221Y-274523D01*
X-131284Y-271586D01*
X-131227Y-271506D01*
X-131165Y-271431D01*
X-131157Y-271408D01*
X-131142Y-271387D01*
X-131114Y-271294D01*
X-131079Y-271203D01*
X-131076Y-271170D01*
X-131071Y-271154D01*
X-131072Y-271129D01*
X-131065Y-271056D01*
X-131065Y-186983D01*
X-131081Y-186886D01*
X-131090Y-186789D01*
X-131100Y-186767D01*
X-131104Y-186742D01*
X-131150Y-186656D01*
X-131191Y-186567D01*
X-131212Y-186541D01*
X-131219Y-186527D01*
X-131238Y-186510D01*
X-131284Y-186453D01*
X-131658Y-186079D01*
X-131658Y-182221D01*
X-128929Y-179492D01*
X-125071Y-179492D01*
X-122342Y-182221D01*
X-122342Y-186079D01*
X-122716Y-186453D01*
X-122773Y-186532D01*
X-122835Y-186607D01*
X-122843Y-186631D01*
X-122858Y-186651D01*
X-122886Y-186745D01*
X-122921Y-186836D01*
X-122924Y-186869D01*
X-122929Y-186885D01*
X-122928Y-186910D01*
X-122935Y-186983D01*
X-122935Y-274734D01*
X-128473Y-280271D01*
X-128530Y-280351D01*
X-128592Y-280426D01*
X-128600Y-280449D01*
X-128615Y-280470D01*
X-128643Y-280563D01*
X-128678Y-280654D01*
X-128681Y-280687D01*
X-128686Y-280703D01*
X-128685Y-280728D01*
X-128692Y-280801D01*
X-128692Y-281329D01*
X-129066Y-281703D01*
X-129123Y-281782D01*
X-129185Y-281857D01*
X-129193Y-281881D01*
X-129208Y-281901D01*
X-129236Y-281995D01*
X-129271Y-282086D01*
X-129274Y-282119D01*
X-129279Y-282135D01*
X-129278Y-282159D01*
X-129285Y-282233D01*
X-129285Y-461556D01*
X-129269Y-461652D01*
X-129260Y-461749D01*
X-129250Y-461772D01*
X-129246Y-461797D01*
X-129200Y-461883D01*
X-129159Y-461972D01*
X-129138Y-461997D01*
X-129131Y-462012D01*
X-129112Y-462029D01*
X-129066Y-462086D01*
X-119779Y-471373D01*
X-119699Y-471430D01*
X-119624Y-471492D01*
X-119601Y-471500D01*
X-119580Y-471515D01*
X-119487Y-471543D01*
X-119396Y-471578D01*
X-119363Y-471581D01*
X-119347Y-471586D01*
X-119322Y-471585D01*
X-119249Y-471592D01*
X-118721Y-471592D01*
X-115992Y-474321D01*
X-115992Y-478179D01*
X-118721Y-480908D01*
X-122579Y-480908D01*
G37*
%LPD*%
%LPC*%
G36*
X-90829Y-360258D02*
X-90829Y-360258D01*
X-93558Y-357529D01*
X-93558Y-353671D01*
X-92676Y-352789D01*
X-92619Y-352710D01*
X-92557Y-352635D01*
X-92549Y-352611D01*
X-92534Y-352591D01*
X-92506Y-352497D01*
X-92471Y-352406D01*
X-92468Y-352373D01*
X-92463Y-352357D01*
X-92464Y-352332D01*
X-92457Y-352259D01*
X-92457Y-65284D01*
X-92473Y-65187D01*
X-92482Y-65090D01*
X-92492Y-65068D01*
X-92496Y-65043D01*
X-92542Y-64957D01*
X-92583Y-64868D01*
X-92604Y-64842D01*
X-92611Y-64828D01*
X-92630Y-64811D01*
X-92676Y-64754D01*
X-95403Y-62027D01*
X-95482Y-61970D01*
X-95557Y-61908D01*
X-95581Y-61900D01*
X-95601Y-61885D01*
X-95694Y-61857D01*
X-95786Y-61822D01*
X-95819Y-61819D01*
X-95835Y-61814D01*
X-95860Y-61815D01*
X-95933Y-61808D01*
X-97179Y-61808D01*
X-99908Y-59079D01*
X-99908Y-55221D01*
X-97179Y-52492D01*
X-93321Y-52492D01*
X-90592Y-55221D01*
X-90592Y-56467D01*
X-90576Y-56564D01*
X-90567Y-56661D01*
X-90557Y-56683D01*
X-90553Y-56708D01*
X-90507Y-56794D01*
X-90466Y-56883D01*
X-90445Y-56909D01*
X-90438Y-56923D01*
X-90419Y-56940D01*
X-90373Y-56997D01*
X-85343Y-62027D01*
X-85343Y-352259D01*
X-85327Y-352356D01*
X-85318Y-352453D01*
X-85308Y-352475D01*
X-85304Y-352500D01*
X-85258Y-352586D01*
X-85217Y-352675D01*
X-85196Y-352701D01*
X-85189Y-352715D01*
X-85170Y-352732D01*
X-85124Y-352789D01*
X-84242Y-353671D01*
X-84242Y-357529D01*
X-86971Y-360258D01*
X-90829Y-360258D01*
G37*
%LPD*%
%LPC*%
G36*
X-78129Y-296758D02*
X-78129Y-296758D01*
X-80858Y-294029D01*
X-80858Y-290171D01*
X-78129Y-287442D01*
X-76883Y-287442D01*
X-76786Y-287426D01*
X-76689Y-287417D01*
X-76667Y-287407D01*
X-76642Y-287403D01*
X-76556Y-287357D01*
X-76467Y-287316D01*
X-76441Y-287295D01*
X-76427Y-287288D01*
X-76410Y-287269D01*
X-76353Y-287223D01*
X-71323Y-282193D01*
X155409Y-282193D01*
X155506Y-282177D01*
X155603Y-282168D01*
X155625Y-282158D01*
X155650Y-282154D01*
X155736Y-282108D01*
X155825Y-282067D01*
X155851Y-282046D01*
X155865Y-282039D01*
X155882Y-282020D01*
X155939Y-281974D01*
X156821Y-281092D01*
X160679Y-281092D01*
X163408Y-283821D01*
X163408Y-287679D01*
X160679Y-290408D01*
X156821Y-290408D01*
X155939Y-289526D01*
X155860Y-289469D01*
X155785Y-289407D01*
X155761Y-289399D01*
X155741Y-289384D01*
X155647Y-289356D01*
X155556Y-289321D01*
X155523Y-289318D01*
X155507Y-289313D01*
X155482Y-289314D01*
X155409Y-289307D01*
X-68066Y-289307D01*
X-68163Y-289323D01*
X-68260Y-289332D01*
X-68282Y-289342D01*
X-68307Y-289346D01*
X-68393Y-289392D01*
X-68482Y-289433D01*
X-68508Y-289454D01*
X-68522Y-289461D01*
X-68539Y-289480D01*
X-68596Y-289526D01*
X-71323Y-292253D01*
X-71380Y-292332D01*
X-71442Y-292407D01*
X-71450Y-292431D01*
X-71465Y-292451D01*
X-71493Y-292544D01*
X-71528Y-292636D01*
X-71531Y-292669D01*
X-71536Y-292685D01*
X-71535Y-292710D01*
X-71542Y-292783D01*
X-71542Y-294029D01*
X-74271Y-296758D01*
X-78129Y-296758D01*
G37*
%LPD*%
%LPC*%
G36*
X-78129Y-347558D02*
X-78129Y-347558D01*
X-80858Y-344829D01*
X-80858Y-340971D01*
X-78129Y-338242D01*
X-74271Y-338242D01*
X-73389Y-339124D01*
X-73310Y-339181D01*
X-73235Y-339243D01*
X-73211Y-339251D01*
X-73191Y-339266D01*
X-73097Y-339294D01*
X-73006Y-339329D01*
X-72973Y-339332D01*
X-72957Y-339337D01*
X-72932Y-339336D01*
X-72859Y-339343D01*
X68066Y-339343D01*
X68163Y-339327D01*
X68260Y-339318D01*
X68282Y-339308D01*
X68307Y-339304D01*
X68393Y-339258D01*
X68482Y-339217D01*
X68508Y-339196D01*
X68522Y-339189D01*
X68539Y-339170D01*
X68596Y-339124D01*
X77673Y-330047D01*
X77730Y-329968D01*
X77792Y-329893D01*
X77800Y-329869D01*
X77815Y-329849D01*
X77843Y-329756D01*
X77878Y-329664D01*
X77881Y-329631D01*
X77886Y-329615D01*
X77885Y-329590D01*
X77892Y-329517D01*
X77892Y-328271D01*
X80621Y-325542D01*
X84479Y-325542D01*
X87208Y-328271D01*
X87208Y-332129D01*
X84479Y-334858D01*
X83233Y-334858D01*
X83136Y-334874D01*
X83039Y-334883D01*
X83017Y-334893D01*
X82992Y-334897D01*
X82906Y-334943D01*
X82817Y-334984D01*
X82791Y-335005D01*
X82777Y-335012D01*
X82760Y-335031D01*
X82703Y-335077D01*
X71323Y-346457D01*
X-72859Y-346457D01*
X-72956Y-346473D01*
X-73053Y-346482D01*
X-73075Y-346492D01*
X-73100Y-346496D01*
X-73186Y-346542D01*
X-73275Y-346583D01*
X-73301Y-346604D01*
X-73315Y-346611D01*
X-73332Y-346630D01*
X-73389Y-346676D01*
X-74271Y-347558D01*
X-78129Y-347558D01*
G37*
%LPD*%
%LPC*%
G36*
X321949Y-2413891D02*
X321949Y-2413891D01*
X321949Y-2380849D01*
X359491Y-2380849D01*
X359491Y-2411684D01*
X359318Y-2412331D01*
X358983Y-2412910D01*
X358510Y-2413383D01*
X357931Y-2413718D01*
X357284Y-2413891D01*
X321949Y-2413891D01*
G37*
%LPD*%
%LPC*%
G36*
X283616Y-2413891D02*
X283616Y-2413891D01*
X282969Y-2413718D01*
X282390Y-2413383D01*
X281917Y-2412910D01*
X281582Y-2412331D01*
X281409Y-2411684D01*
X281409Y-2380849D01*
X318951Y-2380849D01*
X318951Y-2413891D01*
X283616Y-2413891D01*
G37*
%LPD*%
%LPC*%
G36*
X321949Y-2377851D02*
X321949Y-2377851D01*
X321949Y-2344809D01*
X357284Y-2344809D01*
X357931Y-2344982D01*
X358510Y-2345317D01*
X358983Y-2345790D01*
X359318Y-2346369D01*
X359491Y-2347016D01*
X359491Y-2377851D01*
X321949Y-2377851D01*
G37*
%LPD*%
%LPC*%
G36*
X281409Y-2377851D02*
X281409Y-2377851D01*
X281409Y-2347016D01*
X281443Y-2346891D01*
X281443Y-2346890D01*
X281582Y-2346369D01*
X281917Y-2345790D01*
X282390Y-2345317D01*
X282969Y-2344982D01*
X283616Y-2344809D01*
X318951Y-2344809D01*
X318951Y-2377851D01*
X281409Y-2377851D01*
G37*
%LPD*%
%LPC*%
G36*
X-1929Y-364958D02*
X-1929Y-364958D01*
X-4658Y-362229D01*
X-4658Y-358371D01*
X-1929Y-355642D01*
X1929Y-355642D01*
X2811Y-356524D01*
X2890Y-356581D01*
X2965Y-356643D01*
X2989Y-356651D01*
X3009Y-356666D01*
X3103Y-356694D01*
X3194Y-356729D01*
X3227Y-356732D01*
X3243Y-356737D01*
X3268Y-356736D01*
X3341Y-356743D01*
X82416Y-356743D01*
X82513Y-356727D01*
X82610Y-356718D01*
X82632Y-356708D01*
X82657Y-356704D01*
X82743Y-356658D01*
X82832Y-356617D01*
X82858Y-356596D01*
X82872Y-356589D01*
X82889Y-356570D01*
X82946Y-356524D01*
X100127Y-339343D01*
X149059Y-339343D01*
X149156Y-339327D01*
X149253Y-339318D01*
X149275Y-339308D01*
X149300Y-339304D01*
X149386Y-339258D01*
X149475Y-339217D01*
X149501Y-339196D01*
X149515Y-339189D01*
X149532Y-339170D01*
X149589Y-339124D01*
X150471Y-338242D01*
X154329Y-338242D01*
X157058Y-340971D01*
X157058Y-344829D01*
X154329Y-347558D01*
X150471Y-347558D01*
X149589Y-346676D01*
X149510Y-346619D01*
X149435Y-346557D01*
X149411Y-346549D01*
X149391Y-346534D01*
X149297Y-346506D01*
X149206Y-346471D01*
X149173Y-346468D01*
X149157Y-346463D01*
X149133Y-346464D01*
X149059Y-346457D01*
X103384Y-346457D01*
X103287Y-346473D01*
X103190Y-346482D01*
X103168Y-346492D01*
X103143Y-346496D01*
X103057Y-346542D01*
X102968Y-346583D01*
X102942Y-346604D01*
X102928Y-346611D01*
X102911Y-346630D01*
X102854Y-346676D01*
X85673Y-363857D01*
X3341Y-363857D01*
X3244Y-363873D01*
X3147Y-363882D01*
X3125Y-363892D01*
X3100Y-363896D01*
X3014Y-363942D01*
X2925Y-363983D01*
X2899Y-364004D01*
X2885Y-364011D01*
X2868Y-364030D01*
X2811Y-364076D01*
X1929Y-364958D01*
X-1929Y-364958D01*
G37*
%LPD*%
%LPC*%
G36*
X-78129Y-334858D02*
X-78129Y-334858D01*
X-80858Y-332129D01*
X-80858Y-328271D01*
X-78129Y-325542D01*
X-74271Y-325542D01*
X-73389Y-326424D01*
X-73310Y-326481D01*
X-73235Y-326543D01*
X-73211Y-326551D01*
X-73191Y-326566D01*
X-73097Y-326594D01*
X-73006Y-326629D01*
X-72973Y-326632D01*
X-72957Y-326637D01*
X-72932Y-326636D01*
X-72859Y-326643D01*
X61716Y-326643D01*
X61813Y-326627D01*
X61910Y-326618D01*
X61932Y-326608D01*
X61957Y-326604D01*
X62043Y-326558D01*
X62132Y-326517D01*
X62158Y-326496D01*
X62172Y-326489D01*
X62189Y-326470D01*
X62246Y-326424D01*
X64973Y-323697D01*
X65030Y-323618D01*
X65092Y-323543D01*
X65100Y-323519D01*
X65115Y-323499D01*
X65143Y-323406D01*
X65178Y-323314D01*
X65181Y-323281D01*
X65186Y-323265D01*
X65185Y-323240D01*
X65192Y-323167D01*
X65192Y-321921D01*
X67921Y-319192D01*
X71779Y-319192D01*
X74508Y-321921D01*
X74508Y-325779D01*
X71779Y-328508D01*
X70533Y-328508D01*
X70436Y-328524D01*
X70339Y-328533D01*
X70317Y-328543D01*
X70292Y-328547D01*
X70206Y-328593D01*
X70117Y-328634D01*
X70091Y-328655D01*
X70077Y-328662D01*
X70060Y-328681D01*
X70003Y-328727D01*
X64973Y-333757D01*
X-72859Y-333757D01*
X-72956Y-333773D01*
X-73053Y-333782D01*
X-73075Y-333792D01*
X-73100Y-333796D01*
X-73186Y-333842D01*
X-73275Y-333883D01*
X-73301Y-333904D01*
X-73315Y-333911D01*
X-73332Y-333930D01*
X-73389Y-333976D01*
X-74271Y-334858D01*
X-78129Y-334858D01*
G37*
%LPD*%
%LPC*%
G36*
X99671Y-385658D02*
X99671Y-385658D01*
X96942Y-382929D01*
X96942Y-379071D01*
X99671Y-376342D01*
X100917Y-376342D01*
X101014Y-376326D01*
X101111Y-376317D01*
X101133Y-376307D01*
X101158Y-376303D01*
X101244Y-376257D01*
X101333Y-376216D01*
X101359Y-376195D01*
X101373Y-376188D01*
X101390Y-376169D01*
X101447Y-376123D01*
X125527Y-352043D01*
X188716Y-352043D01*
X188813Y-352027D01*
X188910Y-352018D01*
X188932Y-352008D01*
X188957Y-352004D01*
X189043Y-351958D01*
X189132Y-351917D01*
X189158Y-351896D01*
X189172Y-351889D01*
X189189Y-351870D01*
X189246Y-351824D01*
X193074Y-347996D01*
X193131Y-347917D01*
X193193Y-347842D01*
X193201Y-347818D01*
X193216Y-347798D01*
X193244Y-347705D01*
X193279Y-347613D01*
X193282Y-347580D01*
X193287Y-347564D01*
X193286Y-347539D01*
X193293Y-347466D01*
X193293Y-327191D01*
X193277Y-327094D01*
X193268Y-326997D01*
X193258Y-326975D01*
X193254Y-326950D01*
X193208Y-326864D01*
X193167Y-326775D01*
X193146Y-326749D01*
X193139Y-326735D01*
X193120Y-326718D01*
X193074Y-326661D01*
X192192Y-325779D01*
X192192Y-321921D01*
X194921Y-319192D01*
X198779Y-319192D01*
X201508Y-321921D01*
X201508Y-325779D01*
X200626Y-326661D01*
X200569Y-326740D01*
X200507Y-326815D01*
X200499Y-326839D01*
X200484Y-326859D01*
X200456Y-326953D01*
X200421Y-327044D01*
X200418Y-327077D01*
X200413Y-327093D01*
X200414Y-327118D01*
X200407Y-327191D01*
X200407Y-350723D01*
X191973Y-359157D01*
X128784Y-359157D01*
X128687Y-359173D01*
X128590Y-359182D01*
X128568Y-359192D01*
X128543Y-359196D01*
X128457Y-359242D01*
X128368Y-359283D01*
X128342Y-359304D01*
X128328Y-359311D01*
X128311Y-359330D01*
X128254Y-359376D01*
X106477Y-381153D01*
X106420Y-381232D01*
X106358Y-381307D01*
X106350Y-381331D01*
X106335Y-381351D01*
X106307Y-381444D01*
X106272Y-381536D01*
X106269Y-381569D01*
X106264Y-381585D01*
X106265Y-381610D01*
X106258Y-381683D01*
X106258Y-382929D01*
X103529Y-385658D01*
X99671Y-385658D01*
G37*
%LPD*%
%LPC*%
G36*
X144121Y-372958D02*
X144121Y-372958D01*
X141392Y-370229D01*
X141392Y-366371D01*
X144121Y-363642D01*
X147979Y-363642D01*
X148861Y-364524D01*
X148940Y-364581D01*
X149015Y-364643D01*
X149039Y-364651D01*
X149059Y-364666D01*
X149153Y-364694D01*
X149244Y-364729D01*
X149277Y-364732D01*
X149293Y-364737D01*
X149318Y-364736D01*
X149391Y-364743D01*
X207766Y-364743D01*
X207863Y-364727D01*
X207960Y-364718D01*
X207982Y-364708D01*
X208007Y-364704D01*
X208093Y-364658D01*
X208182Y-364617D01*
X208208Y-364596D01*
X208222Y-364589D01*
X208239Y-364570D01*
X208296Y-364524D01*
X224824Y-347996D01*
X224881Y-347917D01*
X224943Y-347842D01*
X224951Y-347818D01*
X224966Y-347798D01*
X224994Y-347705D01*
X225029Y-347613D01*
X225032Y-347580D01*
X225037Y-347564D01*
X225036Y-347539D01*
X225043Y-347466D01*
X225043Y-333541D01*
X225027Y-333444D01*
X225018Y-333347D01*
X225008Y-333325D01*
X225004Y-333300D01*
X224958Y-333214D01*
X224917Y-333125D01*
X224896Y-333099D01*
X224889Y-333085D01*
X224870Y-333068D01*
X224824Y-333011D01*
X223942Y-332129D01*
X223942Y-328271D01*
X226671Y-325542D01*
X230529Y-325542D01*
X233258Y-328271D01*
X233258Y-332129D01*
X232376Y-333011D01*
X232319Y-333090D01*
X232257Y-333165D01*
X232249Y-333189D01*
X232234Y-333209D01*
X232206Y-333303D01*
X232171Y-333394D01*
X232168Y-333427D01*
X232163Y-333443D01*
X232164Y-333468D01*
X232157Y-333541D01*
X232157Y-350723D01*
X211023Y-371857D01*
X149391Y-371857D01*
X149294Y-371873D01*
X149197Y-371882D01*
X149175Y-371892D01*
X149150Y-371896D01*
X149064Y-371942D01*
X148975Y-371983D01*
X148949Y-372004D01*
X148935Y-372011D01*
X148918Y-372030D01*
X148861Y-372076D01*
X147979Y-372958D01*
X144121Y-372958D01*
G37*
%LPD*%
%LPC*%
G36*
X-265517Y-2458464D02*
X-265517Y-2458464D01*
X-265541Y-2458462D01*
X-265564Y-2458453D01*
X-265711Y-2458439D01*
X-265791Y-2458439D01*
X-266074Y-2458322D01*
X-266099Y-2458316D01*
X-266167Y-2458290D01*
X-269871Y-2457298D01*
X-274498Y-2452671D01*
X-276191Y-2446350D01*
X-276042Y-2445792D01*
X-276042Y-2445791D01*
X-275841Y-2445042D01*
X-275439Y-2443544D01*
X-275239Y-2442795D01*
X-275239Y-2442794D01*
X-274837Y-2441296D01*
X-274636Y-2440547D01*
X-274498Y-2440029D01*
X-269871Y-2435402D01*
X-263550Y-2433709D01*
X-261165Y-2434348D01*
X-261141Y-2434350D01*
X-261118Y-2434359D01*
X-261015Y-2434369D01*
X-260930Y-2434404D01*
X-260906Y-2434410D01*
X-260838Y-2434436D01*
X-257229Y-2435402D01*
X-252602Y-2440029D01*
X-251859Y-2442804D01*
X-251848Y-2442827D01*
X-251827Y-2442897D01*
X-251365Y-2444013D01*
X-251365Y-2444547D01*
X-251361Y-2444571D01*
X-251364Y-2444596D01*
X-251340Y-2444741D01*
X-250909Y-2446350D01*
X-251056Y-2446901D01*
X-251340Y-2447959D01*
X-251342Y-2447983D01*
X-251351Y-2448006D01*
X-251365Y-2448153D01*
X-251365Y-2448799D01*
X-251912Y-2450120D01*
X-251918Y-2450144D01*
X-251944Y-2450213D01*
X-252261Y-2451397D01*
X-252462Y-2452146D01*
X-252602Y-2452671D01*
X-257229Y-2457298D01*
X-260072Y-2458059D01*
X-260095Y-2458070D01*
X-260165Y-2458091D01*
X-261005Y-2458439D01*
X-261389Y-2458439D01*
X-261413Y-2458443D01*
X-261437Y-2458440D01*
X-261583Y-2458464D01*
X-263550Y-2458991D01*
X-265517Y-2458464D01*
G37*
%LPD*%
%LPC*%
G36*
X-159312Y-2742406D02*
X-159312Y-2742406D01*
X-165167Y-2735175D01*
X-164991Y-2733501D01*
X-146509Y-2718534D01*
X-144834Y-2718710D01*
X-138979Y-2725941D01*
X-139155Y-2727616D01*
X-157637Y-2742582D01*
X-159312Y-2742406D01*
G37*
%LPD*%
%LPC*%
G36*
X-182848Y-2750550D02*
X-182848Y-2750550D01*
X-185113Y-2749321D01*
X-186735Y-2747318D01*
X-187467Y-2744847D01*
X-187197Y-2742284D01*
X-185968Y-2740020D01*
X-183965Y-2738398D01*
X-181494Y-2737666D01*
X-178931Y-2737935D01*
X-176667Y-2739165D01*
X-175045Y-2741168D01*
X-174313Y-2743638D01*
X-174582Y-2746201D01*
X-175812Y-2748466D01*
X-177815Y-2750088D01*
X-180285Y-2750820D01*
X-182848Y-2750550D01*
G37*
%LPD*%
%LPC*%
G36*
X-163969Y-2773865D02*
X-163969Y-2773865D01*
X-166233Y-2772635D01*
X-167855Y-2770632D01*
X-168587Y-2768162D01*
X-168318Y-2765599D01*
X-167088Y-2763334D01*
X-165085Y-2761712D01*
X-162615Y-2760980D01*
X-160052Y-2761250D01*
X-157787Y-2762479D01*
X-156165Y-2764482D01*
X-155433Y-2766953D01*
X-155703Y-2769516D01*
X-156932Y-2771780D01*
X-158935Y-2773402D01*
X-161406Y-2774134D01*
X-163969Y-2773865D01*
G37*
%LPD*%
%LPC*%
G36*
X220321Y-390738D02*
X220321Y-390738D01*
X217592Y-388009D01*
X217592Y-384151D01*
X220321Y-381422D01*
X224179Y-381422D01*
X226908Y-384151D01*
X226908Y-388009D01*
X224179Y-390738D01*
X220321Y-390738D01*
G37*
%LPD*%
%LPC*%
G36*
X-286929Y-2284658D02*
X-286929Y-2284658D01*
X-289658Y-2281929D01*
X-289658Y-2278071D01*
X-286929Y-2275342D01*
X-283071Y-2275342D01*
X-280342Y-2278071D01*
X-280342Y-2281929D01*
X-283071Y-2284658D01*
X-286929Y-2284658D01*
G37*
%LPD*%
%LPC*%
G36*
X-256929Y-1884658D02*
X-256929Y-1884658D01*
X-259658Y-1881929D01*
X-259658Y-1878071D01*
X-256929Y-1875342D01*
X-253071Y-1875342D01*
X-250342Y-1878071D01*
X-250342Y-1881929D01*
X-253071Y-1884658D01*
X-256929Y-1884658D01*
G37*
%LPD*%
%LPC*%
G36*
X-281929Y-2084658D02*
X-281929Y-2084658D01*
X-284658Y-2081929D01*
X-284658Y-2078071D01*
X-281929Y-2075342D01*
X-278071Y-2075342D01*
X-275342Y-2078071D01*
X-275342Y-2081929D01*
X-278071Y-2084658D01*
X-281929Y-2084658D01*
G37*
%LPD*%
%LPC*%
G36*
X-195381Y-2721509D02*
X-195381Y-2721509D01*
X-195653Y-2720897D01*
X-195758Y-2720237D01*
X-195688Y-2719571D01*
X-195448Y-2718947D01*
X-195055Y-2718406D01*
X-192802Y-2716581D01*
X-189029Y-2721240D01*
X-192997Y-2724453D01*
X-195381Y-2721509D01*
G37*
%LPD*%
%LPC*%
G36*
X-149441Y-2778240D02*
X-149441Y-2778240D01*
X-149713Y-2777629D01*
X-149817Y-2776968D01*
X-149748Y-2776303D01*
X-149508Y-2775678D01*
X-149115Y-2775137D01*
X-146861Y-2773313D01*
X-143089Y-2777971D01*
X-147057Y-2781184D01*
X-149441Y-2778240D01*
G37*
%LPD*%
%LPC*%
G36*
X-187560Y-2730360D02*
X-187560Y-2730360D01*
X-188185Y-2730120D01*
X-188726Y-2729727D01*
X-191110Y-2726783D01*
X-187142Y-2723570D01*
X-183370Y-2728228D01*
X-185623Y-2730053D01*
X-186234Y-2730325D01*
X-186895Y-2730430D01*
X-187560Y-2730360D01*
G37*
%LPD*%
%LPC*%
G36*
X-141620Y-2787091D02*
X-141620Y-2787091D01*
X-142245Y-2786852D01*
X-142786Y-2786459D01*
X-145170Y-2783514D01*
X-141202Y-2780301D01*
X-137429Y-2784960D01*
X-139683Y-2786785D01*
X-140294Y-2787057D01*
X-140955Y-2787161D01*
X-141620Y-2787091D01*
G37*
%LPD*%
%LPC*%
G36*
X-184812Y-2721683D02*
X-184812Y-2721683D01*
X-180844Y-2718470D01*
X-178460Y-2721414D01*
X-178188Y-2722025D01*
X-178084Y-2722686D01*
X-178154Y-2723351D01*
X-178393Y-2723976D01*
X-178786Y-2724517D01*
X-181040Y-2726341D01*
X-184812Y-2721683D01*
G37*
%LPD*%
%LPC*%
G36*
X-153871Y-2790560D02*
X-153871Y-2790560D01*
X-149903Y-2787347D01*
X-147519Y-2790291D01*
X-147247Y-2790902D01*
X-147142Y-2791563D01*
X-147212Y-2792229D01*
X-147452Y-2792853D01*
X-147845Y-2793394D01*
X-150098Y-2795219D01*
X-153871Y-2790560D01*
G37*
%LPD*%
%LPC*%
G36*
X-199811Y-2733829D02*
X-199811Y-2733829D01*
X-195843Y-2730616D01*
X-193459Y-2733560D01*
X-193187Y-2734171D01*
X-193083Y-2734832D01*
X-193152Y-2735497D01*
X-193392Y-2736122D01*
X-193785Y-2736663D01*
X-196039Y-2738487D01*
X-199811Y-2733829D01*
G37*
%LPD*%
%LPC*%
G36*
X-138872Y-2778414D02*
X-138872Y-2778414D01*
X-134904Y-2775201D01*
X-132520Y-2778146D01*
X-132248Y-2778757D01*
X-132143Y-2779417D01*
X-132213Y-2780083D01*
X-132453Y-2780707D01*
X-132846Y-2781248D01*
X-135099Y-2783073D01*
X-138872Y-2778414D01*
G37*
%LPD*%
%LPC*%
G36*
X-190472Y-2714694D02*
X-190472Y-2714694D01*
X-188218Y-2712869D01*
X-187607Y-2712597D01*
X-186947Y-2712493D01*
X-186281Y-2712563D01*
X-185657Y-2712802D01*
X-185115Y-2713196D01*
X-182731Y-2716140D01*
X-186699Y-2719353D01*
X-190472Y-2714694D01*
G37*
%LPD*%
%LPC*%
G36*
X-205471Y-2726840D02*
X-205471Y-2726840D01*
X-203217Y-2725015D01*
X-202606Y-2724743D01*
X-201946Y-2724639D01*
X-201280Y-2724709D01*
X-200655Y-2724948D01*
X-200114Y-2725341D01*
X-197730Y-2728286D01*
X-201698Y-2731499D01*
X-205471Y-2726840D01*
G37*
%LPD*%
%LPC*%
G36*
X-144531Y-2771426D02*
X-144531Y-2771426D01*
X-142278Y-2769601D01*
X-141667Y-2769329D01*
X-141006Y-2769224D01*
X-140341Y-2769294D01*
X-139716Y-2769534D01*
X-139175Y-2769927D01*
X-136791Y-2772871D01*
X-140759Y-2776084D01*
X-144531Y-2771426D01*
G37*
%LPD*%
%LPC*%
G36*
X-159530Y-2783572D02*
X-159530Y-2783572D01*
X-157277Y-2781747D01*
X-156666Y-2781475D01*
X-156005Y-2781370D01*
X-155340Y-2781440D01*
X-154715Y-2781680D01*
X-154174Y-2782073D01*
X-151790Y-2785017D01*
X-155758Y-2788230D01*
X-159530Y-2783572D01*
G37*
%LPD*%
%LPC*%
G36*
X320449Y-2379351D02*
X320449Y-2379351D01*
X320449Y-2379349D01*
X320451Y-2379349D01*
X320451Y-2379351D01*
X320449Y-2379351D01*
G37*
%LPD*%
%LPC*%
G36*
X-140982Y-2778193D02*
X-140982Y-2778193D01*
X-140980Y-2778192D01*
X-140979Y-2778193D01*
X-140981Y-2778194D01*
X-140982Y-2778193D01*
G37*
%LPD*%
%LPC*%
G36*
X-186922Y-2721461D02*
X-186922Y-2721461D01*
X-186921Y-2721460D01*
X-186920Y-2721461D01*
X-186921Y-2721462D01*
X-186922Y-2721461D01*
G37*
%LPD*%
D10*
X320450Y-2379350D03*
X-300050Y-2379350D03*
D11*
G36*
X-150529Y-2714909D02*
X-167701Y-2728815D01*
X-172497Y-2722893D01*
X-155325Y-2708987D01*
X-150529Y-2714909D01*
G37*
G36*
X-141089Y-2726566D02*
X-158261Y-2740472D01*
X-163057Y-2734550D01*
X-145885Y-2720644D01*
X-141089Y-2726566D01*
G37*
G36*
X-122209Y-2749880D02*
X-139381Y-2763786D01*
X-144177Y-2757864D01*
X-127005Y-2743958D01*
X-122209Y-2749880D01*
G37*
D12*
X-162010Y-2767557D03*
X-180890Y-2744243D03*
D13*
G36*
X-149704Y-2791630D02*
X-156020Y-2796745D01*
X-162254Y-2789048D01*
X-155938Y-2783933D01*
X-149704Y-2791630D01*
G37*
G36*
X-134705Y-2779484D02*
X-141021Y-2784599D01*
X-147255Y-2776902D01*
X-140939Y-2771787D01*
X-134705Y-2779484D01*
G37*
G36*
X-195645Y-2734898D02*
X-201961Y-2740013D01*
X-208195Y-2732316D01*
X-201879Y-2727201D01*
X-195645Y-2734898D01*
G37*
G36*
X-180646Y-2722752D02*
X-186962Y-2727867D01*
X-193196Y-2720170D01*
X-186880Y-2715055D01*
X-180646Y-2722752D01*
G37*
D14*
X180000Y-540000D03*
D15*
X10000Y-540000D01*
X0Y-700000D02*
X-10000Y-710000D01*
X-140000Y-710000D01*
D14*
X-140000Y-710000D03*
D15*
X0Y-550000D02*
X10000Y-540000D01*
X0Y-550000D02*
X0Y-700000D01*
D14*
X200000Y-740000D03*
D15*
X180000Y-740000D01*
X160000Y-720000D01*
X10000Y-720000D01*
X0Y-730000D01*
D14*
X-155000Y-900000D03*
D15*
X-10000Y-900000D01*
X0Y-890000D01*
X0Y-730000D01*
D14*
X220000Y-940000D03*
D15*
X10000Y-940000D01*
X0Y-1090000D02*
X-10000Y-1100000D01*
X-175000Y-1100000D01*
D14*
X-175000Y-1100000D03*
D15*
X0Y-950000D02*
X10000Y-940000D01*
X0Y-950000D02*
X0Y-1090000D01*
D14*
X240000Y-1140000D03*
D15*
X10000Y-1140000D01*
X0Y-1290000D02*
X-10000Y-1300000D01*
X-200000Y-1300000D01*
D14*
X-200000Y-1300000D03*
D15*
X0Y-1150000D02*
X10000Y-1140000D01*
X0Y-1150000D02*
X0Y-1290000D01*
D14*
X260000Y-1340000D03*
D15*
X0Y-1350000D02*
X0Y-1490000D01*
X-10000Y-1500000D01*
X-215000Y-1500000D01*
D14*
X-215000Y-1500000D03*
D15*
X0Y-1350000D02*
X10000Y-1340000D01*
X260000Y-1340000D01*
D14*
X-100000Y-720000D03*
X-110000Y-910000D03*
X-130000Y-1110000D03*
X-150000Y-1310000D03*
X-190000Y-1710000D03*
X-210000Y-1910000D03*
X-230000Y-2110000D03*
X-240000Y-2310000D03*
X-170000Y-2565400D03*
X10000Y-2620000D03*
X-170000Y-1510000D03*
X-350000Y-2340000D03*
X-221300Y-2588100D03*
X-340000Y-2140000D03*
X-320000Y-1940000D03*
X-300000Y-1740000D03*
X-280000Y-1540000D03*
X-260000Y-1340000D03*
X-240350Y-1133950D03*
X-221300Y-930750D03*
X-202250Y-740250D03*
X-183200Y-530700D03*
X190000Y-2565400D03*
X20000Y-2910000D03*
X20000Y-2740000D03*
X200000Y-1710000D03*
X170000Y-1510000D03*
X220000Y-1910000D03*
X70000Y-510000D03*
X-80000Y-510000D03*
X260000Y-2310000D03*
X240000Y-2110000D03*
X160000Y-1310000D03*
X140000Y-1110000D03*
X120000Y-910000D03*
X100000Y-710000D03*
X-203200Y-342900D03*
X-139700Y-209550D03*
X57150Y-273050D03*
X133350Y-273050D03*
X196850Y-304800D03*
X38100Y-381000D03*
X-82550Y-317500D03*
X-184150Y-279400D03*
X-76200Y-241300D03*
X-133350Y-120650D03*
X-133350Y-31750D03*
X107950Y-31750D03*
X6350Y-88900D03*
X6350Y-120650D03*
X-12700Y-120650D03*
X25400Y-120650D03*
X25400Y-88900D03*
X-12700Y-88900D03*
X-165100Y-139700D03*
X-260350Y-279400D03*
X-196850Y-361950D03*
D16*
X-186921Y-2721461D02*
X-201920Y-2733607D01*
X-155979Y-2790339D02*
X-140980Y-2778193D01*
D15*
X-155979Y-2790339D02*
X-201920Y-2733607D01*
D14*
X-285000Y-2280000D03*
X-280000Y-2080000D03*
X-255000Y-1880000D03*
X-133350Y-279400D03*
D15*
X-133350Y-463550D02*
X-120650Y-476250D01*
X-133350Y-463550D02*
X-133350Y-279400D01*
D14*
X-120650Y-476250D03*
X-127000Y-184150D03*
D15*
X-127000Y-273050D02*
X-133350Y-279400D01*
X-127000Y-273050D02*
X-127000Y-184150D01*
D14*
X280000Y-1540000D03*
D15*
X0Y-1550000D02*
X0Y-1690000D01*
X-10000Y-1700000D01*
X-240000Y-1700000D01*
D14*
X-240000Y-1700000D03*
D15*
X0Y-1550000D02*
X10000Y-1540000D01*
X280000Y-1540000D01*
D14*
X300000Y-1740000D03*
D15*
X10000Y-1740000D01*
X0Y-1890000D02*
X-10000Y-1900000D01*
X-255000Y-1900000D01*
D14*
X-255000Y-1900000D03*
D15*
X0Y-1750000D02*
X10000Y-1740000D01*
X0Y-1750000D02*
X0Y-1890000D01*
D14*
X320000Y-1940000D03*
D15*
X10000Y-1940000D01*
X0Y-2090000D02*
X-10000Y-2100000D01*
X-280000Y-2100000D01*
D14*
X-280000Y-2100000D03*
D15*
X0Y-1950000D02*
X10000Y-1940000D01*
X0Y-1950000D02*
X0Y-2090000D01*
D14*
X340000Y-2140000D03*
D15*
X10000Y-2140000D01*
X-10000Y-2300000D02*
X-285000Y-2300000D01*
D14*
X-285000Y-2300000D03*
D15*
X0Y-2150000D02*
X10000Y-2140000D01*
X0Y-2290000D02*
X-10000Y-2300000D01*
X0Y-2290000D02*
X0Y-2150000D01*
D14*
X370000Y-2340000D03*
D15*
X360000Y-2330000D01*
X20000Y-2330000D01*
X0Y-2350000D01*
X0Y-2545400D01*
X-10000Y-2555400D01*
X-230000Y-2555400D01*
D14*
X-230000Y-2555400D03*
X310000Y-2575400D03*
D15*
X10000Y-2575400D01*
D14*
X0Y-2660000D03*
D15*
X0Y-2585400D01*
X10000Y-2575400D01*
D14*
X-76200Y-292100D03*
D17*
X-69850Y-285750D02*
X158750Y-285750D01*
X-69850Y-285750D02*
X-76200Y-292100D01*
D14*
X158750Y-285750D03*
D16*
X-229565Y-397205D02*
X-385149Y-2497588D01*
X-229565Y-397205D02*
X-219710Y-387350D01*
X-165100Y-387350D01*
X-152400Y-374650D01*
X-152400Y-273050D01*
D14*
X-152400Y-273050D03*
D16*
X-385149Y-2497588D02*
X-222863Y-2698137D01*
X-215900Y-2705100D01*
X-175314Y-2705100D01*
X-161513Y-2718901D01*
D14*
X-177800Y-101600D03*
D15*
X-177800Y-266700D01*
X-171450Y-273050D01*
X-152400Y-273050D01*
D14*
X222250Y-386080D03*
X0Y-360300D03*
D17*
X84200Y-360300D02*
X101600Y-342900D01*
X84200Y-360300D02*
X0Y-360300D01*
X101600Y-342900D02*
X152400Y-342900D01*
D14*
X152400Y-342900D03*
X-95250Y-57150D03*
D17*
X-88900Y-63500D01*
X-88900Y-355600D01*
D14*
X-88900Y-355600D03*
X228600Y-285750D03*
D17*
X187960Y-285750D01*
X162560Y-260350D01*
X162560Y-199390D01*
X153670Y-190500D01*
X107950Y-190500D01*
D14*
X107950Y-190500D03*
X-76200Y-342900D03*
D17*
X69850Y-342900D01*
X82550Y-330200D01*
D14*
X82550Y-330200D03*
X-76200Y-330200D03*
D17*
X63500Y-330200D01*
X69850Y-323850D01*
D14*
X69850Y-323850D03*
X146050Y-368300D03*
D17*
X209550Y-368300D01*
X228600Y-349250D01*
X228600Y-330200D01*
D14*
X228600Y-330200D03*
X101600Y-381000D03*
D17*
X127000Y-355600D01*
X190500Y-355600D01*
X196850Y-349250D01*
X196850Y-323850D01*
D14*
X196850Y-323850D03*
X-107950Y-139700D03*
D17*
X-107950Y-146050D01*
X-101600Y-152400D01*
X-101600Y-482600D01*
X-120650Y-501650D01*
D14*
X-120650Y-501650D03*
D16*
X-120650Y-2741329D02*
X-133193Y-2753872D01*
X-120650Y-2741329D02*
X-120650Y-2717800D01*
X-146050Y-2692400D01*
X-209550Y-2692400D01*
X-365760Y-2498700D01*
X-365760Y-2445060D01*
X-300050Y-2379350D01*
D14*
X127000Y-165100D03*
D15*
X158750Y-165100D01*
X170180Y-176530D01*
X170180Y-256540D01*
X190500Y-276860D01*
X241300Y-276860D01*
D14*
X22860Y-568960D03*
D15*
X195580Y-568960D01*
X233680Y-530860D01*
X233680Y-388620D01*
X254000Y-309880D01*
X241300Y-276860D01*
D14*
X127000Y-152400D03*
D15*
X160020Y-152400D02*
X180340Y-172720D01*
X180340Y-256540D02*
X193040Y-269240D01*
X246380Y-269240D01*
X160020Y-152400D02*
X127000Y-152400D01*
X180340Y-172720D02*
X180340Y-256540D01*
D14*
X50800Y-619760D03*
D15*
X93980Y-576580D01*
X200660Y-576580D01*
X243840Y-533400D01*
X243840Y-388620D01*
X264160Y-312420D02*
X246380Y-269240D01*
X264160Y-312420D02*
X243840Y-388620D01*
M02*
