G04 EAGLE Gerber RS-274X export*
G75*
%MOMM*%
%FSLAX34Y34*%
%LPD*%
%INSilkscreen Bottom*%
%IPPOS*%
%AMOC8*
5,1,8,0,0,1.08239X$1,22.5*%
G01*
%ADD10C,0.127000*%
%ADD11C,0.152400*%
%ADD12C,0.076200*%


D10*
X-289050Y-2456850D02*
X-289050Y-2301850D01*
X305950Y-2301850D02*
X305950Y-2456850D01*
X305450Y-2301350D02*
X-288550Y-2301350D01*
X-288550Y-2457350D02*
X305450Y-2457350D01*
X-311150Y-2442850D02*
X-336550Y-2442850D01*
X-323850Y-2455550D02*
X-323850Y-2430150D01*
X332550Y-2442850D02*
X357950Y-2442850D01*
X-349250Y-2442850D02*
X-349242Y-2442227D01*
X-349219Y-2441604D01*
X-349181Y-2440981D01*
X-349128Y-2440360D01*
X-349059Y-2439741D01*
X-348975Y-2439123D01*
X-348876Y-2438508D01*
X-348762Y-2437895D01*
X-348633Y-2437285D01*
X-348489Y-2436678D01*
X-348330Y-2436075D01*
X-348156Y-2435477D01*
X-347968Y-2434882D01*
X-347765Y-2434293D01*
X-347548Y-2433709D01*
X-347317Y-2433130D01*
X-347071Y-2432557D01*
X-346811Y-2431990D01*
X-346538Y-2431430D01*
X-346251Y-2430877D01*
X-345950Y-2430330D01*
X-345636Y-2429792D01*
X-345309Y-2429261D01*
X-344969Y-2428739D01*
X-344617Y-2428224D01*
X-344251Y-2427719D01*
X-343874Y-2427223D01*
X-343484Y-2426736D01*
X-343083Y-2426259D01*
X-342670Y-2425792D01*
X-342246Y-2425336D01*
X-341811Y-2424889D01*
X-341364Y-2424454D01*
X-340908Y-2424030D01*
X-340441Y-2423617D01*
X-339964Y-2423216D01*
X-339477Y-2422826D01*
X-338981Y-2422449D01*
X-338476Y-2422083D01*
X-337961Y-2421731D01*
X-337439Y-2421391D01*
X-336908Y-2421064D01*
X-336370Y-2420750D01*
X-335823Y-2420449D01*
X-335270Y-2420162D01*
X-334710Y-2419889D01*
X-334143Y-2419629D01*
X-333570Y-2419383D01*
X-332991Y-2419152D01*
X-332407Y-2418935D01*
X-331818Y-2418732D01*
X-331223Y-2418544D01*
X-330625Y-2418370D01*
X-330022Y-2418211D01*
X-329415Y-2418067D01*
X-328805Y-2417938D01*
X-328192Y-2417824D01*
X-327577Y-2417725D01*
X-326959Y-2417641D01*
X-326340Y-2417572D01*
X-325719Y-2417519D01*
X-325096Y-2417481D01*
X-324473Y-2417458D01*
X-323850Y-2417450D01*
X-323227Y-2417458D01*
X-322604Y-2417481D01*
X-321981Y-2417519D01*
X-321360Y-2417572D01*
X-320741Y-2417641D01*
X-320123Y-2417725D01*
X-319508Y-2417824D01*
X-318895Y-2417938D01*
X-318285Y-2418067D01*
X-317678Y-2418211D01*
X-317075Y-2418370D01*
X-316477Y-2418544D01*
X-315882Y-2418732D01*
X-315293Y-2418935D01*
X-314709Y-2419152D01*
X-314130Y-2419383D01*
X-313557Y-2419629D01*
X-312990Y-2419889D01*
X-312430Y-2420162D01*
X-311877Y-2420449D01*
X-311330Y-2420750D01*
X-310792Y-2421064D01*
X-310261Y-2421391D01*
X-309739Y-2421731D01*
X-309224Y-2422083D01*
X-308719Y-2422449D01*
X-308223Y-2422826D01*
X-307736Y-2423216D01*
X-307259Y-2423617D01*
X-306792Y-2424030D01*
X-306336Y-2424454D01*
X-305889Y-2424889D01*
X-305454Y-2425336D01*
X-305030Y-2425792D01*
X-304617Y-2426259D01*
X-304216Y-2426736D01*
X-303826Y-2427223D01*
X-303449Y-2427719D01*
X-303083Y-2428224D01*
X-302731Y-2428739D01*
X-302391Y-2429261D01*
X-302064Y-2429792D01*
X-301750Y-2430330D01*
X-301449Y-2430877D01*
X-301162Y-2431430D01*
X-300889Y-2431990D01*
X-300629Y-2432557D01*
X-300383Y-2433130D01*
X-300152Y-2433709D01*
X-299935Y-2434293D01*
X-299732Y-2434882D01*
X-299544Y-2435477D01*
X-299370Y-2436075D01*
X-299211Y-2436678D01*
X-299067Y-2437285D01*
X-298938Y-2437895D01*
X-298824Y-2438508D01*
X-298725Y-2439123D01*
X-298641Y-2439741D01*
X-298572Y-2440360D01*
X-298519Y-2440981D01*
X-298481Y-2441604D01*
X-298458Y-2442227D01*
X-298450Y-2442850D01*
X-298458Y-2443473D01*
X-298481Y-2444096D01*
X-298519Y-2444719D01*
X-298572Y-2445340D01*
X-298641Y-2445959D01*
X-298725Y-2446577D01*
X-298824Y-2447192D01*
X-298938Y-2447805D01*
X-299067Y-2448415D01*
X-299211Y-2449022D01*
X-299370Y-2449625D01*
X-299544Y-2450223D01*
X-299732Y-2450818D01*
X-299935Y-2451407D01*
X-300152Y-2451991D01*
X-300383Y-2452570D01*
X-300629Y-2453143D01*
X-300889Y-2453710D01*
X-301162Y-2454270D01*
X-301449Y-2454823D01*
X-301750Y-2455370D01*
X-302064Y-2455908D01*
X-302391Y-2456439D01*
X-302731Y-2456961D01*
X-303083Y-2457476D01*
X-303449Y-2457981D01*
X-303826Y-2458477D01*
X-304216Y-2458964D01*
X-304617Y-2459441D01*
X-305030Y-2459908D01*
X-305454Y-2460364D01*
X-305889Y-2460811D01*
X-306336Y-2461246D01*
X-306792Y-2461670D01*
X-307259Y-2462083D01*
X-307736Y-2462484D01*
X-308223Y-2462874D01*
X-308719Y-2463251D01*
X-309224Y-2463617D01*
X-309739Y-2463969D01*
X-310261Y-2464309D01*
X-310792Y-2464636D01*
X-311330Y-2464950D01*
X-311877Y-2465251D01*
X-312430Y-2465538D01*
X-312990Y-2465811D01*
X-313557Y-2466071D01*
X-314130Y-2466317D01*
X-314709Y-2466548D01*
X-315293Y-2466765D01*
X-315882Y-2466968D01*
X-316477Y-2467156D01*
X-317075Y-2467330D01*
X-317678Y-2467489D01*
X-318285Y-2467633D01*
X-318895Y-2467762D01*
X-319508Y-2467876D01*
X-320123Y-2467975D01*
X-320741Y-2468059D01*
X-321360Y-2468128D01*
X-321981Y-2468181D01*
X-322604Y-2468219D01*
X-323227Y-2468242D01*
X-323850Y-2468250D01*
X-324473Y-2468242D01*
X-325096Y-2468219D01*
X-325719Y-2468181D01*
X-326340Y-2468128D01*
X-326959Y-2468059D01*
X-327577Y-2467975D01*
X-328192Y-2467876D01*
X-328805Y-2467762D01*
X-329415Y-2467633D01*
X-330022Y-2467489D01*
X-330625Y-2467330D01*
X-331223Y-2467156D01*
X-331818Y-2466968D01*
X-332407Y-2466765D01*
X-332991Y-2466548D01*
X-333570Y-2466317D01*
X-334143Y-2466071D01*
X-334710Y-2465811D01*
X-335270Y-2465538D01*
X-335823Y-2465251D01*
X-336370Y-2464950D01*
X-336908Y-2464636D01*
X-337439Y-2464309D01*
X-337961Y-2463969D01*
X-338476Y-2463617D01*
X-338981Y-2463251D01*
X-339477Y-2462874D01*
X-339964Y-2462484D01*
X-340441Y-2462083D01*
X-340908Y-2461670D01*
X-341364Y-2461246D01*
X-341811Y-2460811D01*
X-342246Y-2460364D01*
X-342670Y-2459908D01*
X-343083Y-2459441D01*
X-343484Y-2458964D01*
X-343874Y-2458477D01*
X-344251Y-2457981D01*
X-344617Y-2457476D01*
X-344969Y-2456961D01*
X-345309Y-2456439D01*
X-345636Y-2455908D01*
X-345950Y-2455370D01*
X-346251Y-2454823D01*
X-346538Y-2454270D01*
X-346811Y-2453710D01*
X-347071Y-2453143D01*
X-347317Y-2452570D01*
X-347548Y-2451991D01*
X-347765Y-2451407D01*
X-347968Y-2450818D01*
X-348156Y-2450223D01*
X-348330Y-2449625D01*
X-348489Y-2449022D01*
X-348633Y-2448415D01*
X-348762Y-2447805D01*
X-348876Y-2447192D01*
X-348975Y-2446577D01*
X-349059Y-2445959D01*
X-349128Y-2445340D01*
X-349181Y-2444719D01*
X-349219Y-2444096D01*
X-349242Y-2443473D01*
X-349250Y-2442850D01*
X319850Y-2442850D02*
X319858Y-2442227D01*
X319881Y-2441604D01*
X319919Y-2440981D01*
X319972Y-2440360D01*
X320041Y-2439741D01*
X320125Y-2439123D01*
X320224Y-2438508D01*
X320338Y-2437895D01*
X320467Y-2437285D01*
X320611Y-2436678D01*
X320770Y-2436075D01*
X320944Y-2435477D01*
X321132Y-2434882D01*
X321335Y-2434293D01*
X321552Y-2433709D01*
X321783Y-2433130D01*
X322029Y-2432557D01*
X322289Y-2431990D01*
X322562Y-2431430D01*
X322849Y-2430877D01*
X323150Y-2430330D01*
X323464Y-2429792D01*
X323791Y-2429261D01*
X324131Y-2428739D01*
X324483Y-2428224D01*
X324849Y-2427719D01*
X325226Y-2427223D01*
X325616Y-2426736D01*
X326017Y-2426259D01*
X326430Y-2425792D01*
X326854Y-2425336D01*
X327289Y-2424889D01*
X327736Y-2424454D01*
X328192Y-2424030D01*
X328659Y-2423617D01*
X329136Y-2423216D01*
X329623Y-2422826D01*
X330119Y-2422449D01*
X330624Y-2422083D01*
X331139Y-2421731D01*
X331661Y-2421391D01*
X332192Y-2421064D01*
X332730Y-2420750D01*
X333277Y-2420449D01*
X333830Y-2420162D01*
X334390Y-2419889D01*
X334957Y-2419629D01*
X335530Y-2419383D01*
X336109Y-2419152D01*
X336693Y-2418935D01*
X337282Y-2418732D01*
X337877Y-2418544D01*
X338475Y-2418370D01*
X339078Y-2418211D01*
X339685Y-2418067D01*
X340295Y-2417938D01*
X340908Y-2417824D01*
X341523Y-2417725D01*
X342141Y-2417641D01*
X342760Y-2417572D01*
X343381Y-2417519D01*
X344004Y-2417481D01*
X344627Y-2417458D01*
X345250Y-2417450D01*
X345873Y-2417458D01*
X346496Y-2417481D01*
X347119Y-2417519D01*
X347740Y-2417572D01*
X348359Y-2417641D01*
X348977Y-2417725D01*
X349592Y-2417824D01*
X350205Y-2417938D01*
X350815Y-2418067D01*
X351422Y-2418211D01*
X352025Y-2418370D01*
X352623Y-2418544D01*
X353218Y-2418732D01*
X353807Y-2418935D01*
X354391Y-2419152D01*
X354970Y-2419383D01*
X355543Y-2419629D01*
X356110Y-2419889D01*
X356670Y-2420162D01*
X357223Y-2420449D01*
X357770Y-2420750D01*
X358308Y-2421064D01*
X358839Y-2421391D01*
X359361Y-2421731D01*
X359876Y-2422083D01*
X360381Y-2422449D01*
X360877Y-2422826D01*
X361364Y-2423216D01*
X361841Y-2423617D01*
X362308Y-2424030D01*
X362764Y-2424454D01*
X363211Y-2424889D01*
X363646Y-2425336D01*
X364070Y-2425792D01*
X364483Y-2426259D01*
X364884Y-2426736D01*
X365274Y-2427223D01*
X365651Y-2427719D01*
X366017Y-2428224D01*
X366369Y-2428739D01*
X366709Y-2429261D01*
X367036Y-2429792D01*
X367350Y-2430330D01*
X367651Y-2430877D01*
X367938Y-2431430D01*
X368211Y-2431990D01*
X368471Y-2432557D01*
X368717Y-2433130D01*
X368948Y-2433709D01*
X369165Y-2434293D01*
X369368Y-2434882D01*
X369556Y-2435477D01*
X369730Y-2436075D01*
X369889Y-2436678D01*
X370033Y-2437285D01*
X370162Y-2437895D01*
X370276Y-2438508D01*
X370375Y-2439123D01*
X370459Y-2439741D01*
X370528Y-2440360D01*
X370581Y-2440981D01*
X370619Y-2441604D01*
X370642Y-2442227D01*
X370650Y-2442850D01*
X370642Y-2443473D01*
X370619Y-2444096D01*
X370581Y-2444719D01*
X370528Y-2445340D01*
X370459Y-2445959D01*
X370375Y-2446577D01*
X370276Y-2447192D01*
X370162Y-2447805D01*
X370033Y-2448415D01*
X369889Y-2449022D01*
X369730Y-2449625D01*
X369556Y-2450223D01*
X369368Y-2450818D01*
X369165Y-2451407D01*
X368948Y-2451991D01*
X368717Y-2452570D01*
X368471Y-2453143D01*
X368211Y-2453710D01*
X367938Y-2454270D01*
X367651Y-2454823D01*
X367350Y-2455370D01*
X367036Y-2455908D01*
X366709Y-2456439D01*
X366369Y-2456961D01*
X366017Y-2457476D01*
X365651Y-2457981D01*
X365274Y-2458477D01*
X364884Y-2458964D01*
X364483Y-2459441D01*
X364070Y-2459908D01*
X363646Y-2460364D01*
X363211Y-2460811D01*
X362764Y-2461246D01*
X362308Y-2461670D01*
X361841Y-2462083D01*
X361364Y-2462484D01*
X360877Y-2462874D01*
X360381Y-2463251D01*
X359876Y-2463617D01*
X359361Y-2463969D01*
X358839Y-2464309D01*
X358308Y-2464636D01*
X357770Y-2464950D01*
X357223Y-2465251D01*
X356670Y-2465538D01*
X356110Y-2465811D01*
X355543Y-2466071D01*
X354970Y-2466317D01*
X354391Y-2466548D01*
X353807Y-2466765D01*
X353218Y-2466968D01*
X352623Y-2467156D01*
X352025Y-2467330D01*
X351422Y-2467489D01*
X350815Y-2467633D01*
X350205Y-2467762D01*
X349592Y-2467876D01*
X348977Y-2467975D01*
X348359Y-2468059D01*
X347740Y-2468128D01*
X347119Y-2468181D01*
X346496Y-2468219D01*
X345873Y-2468242D01*
X345250Y-2468250D01*
X344627Y-2468242D01*
X344004Y-2468219D01*
X343381Y-2468181D01*
X342760Y-2468128D01*
X342141Y-2468059D01*
X341523Y-2467975D01*
X340908Y-2467876D01*
X340295Y-2467762D01*
X339685Y-2467633D01*
X339078Y-2467489D01*
X338475Y-2467330D01*
X337877Y-2467156D01*
X337282Y-2466968D01*
X336693Y-2466765D01*
X336109Y-2466548D01*
X335530Y-2466317D01*
X334957Y-2466071D01*
X334390Y-2465811D01*
X333830Y-2465538D01*
X333277Y-2465251D01*
X332730Y-2464950D01*
X332192Y-2464636D01*
X331661Y-2464309D01*
X331139Y-2463969D01*
X330624Y-2463617D01*
X330119Y-2463251D01*
X329623Y-2462874D01*
X329136Y-2462484D01*
X328659Y-2462083D01*
X328192Y-2461670D01*
X327736Y-2461246D01*
X327289Y-2460811D01*
X326854Y-2460364D01*
X326430Y-2459908D01*
X326017Y-2459441D01*
X325616Y-2458964D01*
X325226Y-2458477D01*
X324849Y-2457981D01*
X324483Y-2457476D01*
X324131Y-2456961D01*
X323791Y-2456439D01*
X323464Y-2455908D01*
X323150Y-2455370D01*
X322849Y-2454823D01*
X322562Y-2454270D01*
X322289Y-2453710D01*
X322029Y-2453143D01*
X321783Y-2452570D01*
X321552Y-2451991D01*
X321335Y-2451407D01*
X321132Y-2450818D01*
X320944Y-2450223D01*
X320770Y-2449625D01*
X320611Y-2449022D01*
X320467Y-2448415D01*
X320338Y-2447805D01*
X320224Y-2447192D01*
X320125Y-2446577D01*
X320041Y-2445959D01*
X319972Y-2445340D01*
X319919Y-2444719D01*
X319881Y-2444096D01*
X319858Y-2443473D01*
X319850Y-2442850D01*
X281750Y-2430150D02*
X-250350Y-2430150D01*
X281750Y-2430150D02*
X281750Y-2328550D01*
X-250350Y-2328550D01*
X-250350Y-2341250D01*
X-250350Y-2417450D01*
X-250350Y-2430150D01*
X-250350Y-2417450D02*
X-263050Y-2404750D01*
X-263050Y-2353950D01*
X-250350Y-2341250D01*
D11*
X-200288Y-2742890D02*
X-164720Y-2786813D01*
X-151307Y-2784365D02*
X-147795Y-2781521D01*
X-142612Y-2768910D02*
X-178180Y-2724987D01*
X-191594Y-2727435D02*
X-195105Y-2730279D01*
D12*
X-124877Y-2755627D02*
X-122373Y-2758720D01*
X-122299Y-2762500D01*
X-122373Y-2758720D02*
X-118691Y-2759578D01*
X-122373Y-2758720D02*
X-126043Y-2759984D01*
X-122373Y-2758720D02*
X-120373Y-2755393D01*
X-112339Y-2760001D02*
X-106913Y-2766701D01*
X-106842Y-2766791D01*
X-106775Y-2766884D01*
X-106711Y-2766979D01*
X-106650Y-2767076D01*
X-106593Y-2767175D01*
X-106539Y-2767276D01*
X-106488Y-2767379D01*
X-106442Y-2767483D01*
X-106398Y-2767589D01*
X-106359Y-2767696D01*
X-106323Y-2767805D01*
X-106291Y-2767915D01*
X-106263Y-2768026D01*
X-106238Y-2768138D01*
X-106218Y-2768250D01*
X-106201Y-2768364D01*
X-106189Y-2768477D01*
X-106180Y-2768592D01*
X-106175Y-2768706D01*
X-106174Y-2768820D01*
X-106177Y-2768935D01*
X-106184Y-2769049D01*
X-106195Y-2769163D01*
X-106210Y-2769277D01*
X-106229Y-2769389D01*
X-106252Y-2769502D01*
X-106278Y-2769613D01*
X-106309Y-2769723D01*
X-106343Y-2769833D01*
X-106381Y-2769941D01*
X-106422Y-2770047D01*
X-106468Y-2770152D01*
X-106517Y-2770256D01*
X-106569Y-2770358D01*
X-106625Y-2770458D01*
X-106684Y-2770555D01*
X-106747Y-2770651D01*
X-106813Y-2770745D01*
X-106882Y-2770836D01*
X-106954Y-2770925D01*
X-107030Y-2771011D01*
X-107108Y-2771095D01*
X-107189Y-2771176D01*
X-107273Y-2771254D01*
X-107359Y-2771329D01*
X-107448Y-2771401D01*
X-107539Y-2771470D01*
X-107633Y-2771535D01*
X-107729Y-2771598D01*
X-107827Y-2771657D01*
X-107927Y-2771713D01*
X-108029Y-2771765D01*
X-108133Y-2771813D01*
X-108238Y-2771858D01*
X-108345Y-2771900D01*
X-108453Y-2771938D01*
X-108562Y-2771971D01*
X-108672Y-2772002D01*
X-108784Y-2772028D01*
X-108896Y-2772050D01*
X-109009Y-2772069D01*
X-109123Y-2772084D01*
X-109236Y-2772094D01*
X-109351Y-2772101D01*
X-109465Y-2772104D01*
X-109580Y-2772103D01*
X-109694Y-2772098D01*
X-109808Y-2772089D01*
X-109922Y-2772076D01*
X-110035Y-2772059D01*
X-110148Y-2772038D01*
X-110259Y-2772013D01*
X-110370Y-2771985D01*
X-110480Y-2771953D01*
X-110589Y-2771917D01*
X-110696Y-2771877D01*
X-110802Y-2771833D01*
X-110906Y-2771786D01*
X-111009Y-2771736D01*
X-111110Y-2771681D01*
X-111209Y-2771624D01*
X-111306Y-2771563D01*
X-111400Y-2771498D01*
X-111493Y-2771431D01*
X-111583Y-2771360D01*
X-111670Y-2771286D01*
X-111755Y-2771210D01*
X-111837Y-2771130D01*
X-111917Y-2771048D01*
X-111993Y-2770963D01*
X-112067Y-2770875D01*
X-112068Y-2770875D02*
X-117493Y-2764175D01*
X-114005Y-2776711D02*
X-117098Y-2779216D01*
X-117097Y-2779216D02*
X-117178Y-2779278D01*
X-117260Y-2779338D01*
X-117345Y-2779394D01*
X-117432Y-2779446D01*
X-117521Y-2779496D01*
X-117611Y-2779542D01*
X-117703Y-2779584D01*
X-117797Y-2779623D01*
X-117893Y-2779659D01*
X-117989Y-2779690D01*
X-118087Y-2779718D01*
X-118186Y-2779743D01*
X-118285Y-2779763D01*
X-118385Y-2779779D01*
X-118486Y-2779792D01*
X-118588Y-2779801D01*
X-118689Y-2779806D01*
X-118791Y-2779807D01*
X-118892Y-2779804D01*
X-118994Y-2779797D01*
X-119095Y-2779787D01*
X-119195Y-2779772D01*
X-119295Y-2779754D01*
X-119395Y-2779732D01*
X-119493Y-2779706D01*
X-119590Y-2779676D01*
X-119686Y-2779643D01*
X-119781Y-2779606D01*
X-119874Y-2779565D01*
X-119965Y-2779521D01*
X-120055Y-2779473D01*
X-120143Y-2779422D01*
X-120229Y-2779368D01*
X-120313Y-2779310D01*
X-120394Y-2779249D01*
X-120473Y-2779186D01*
X-120550Y-2779119D01*
X-120624Y-2779049D01*
X-120695Y-2778977D01*
X-120763Y-2778901D01*
X-120829Y-2778824D01*
X-121664Y-2777793D01*
X-121726Y-2777712D01*
X-121786Y-2777630D01*
X-121842Y-2777545D01*
X-121894Y-2777458D01*
X-121944Y-2777370D01*
X-121990Y-2777279D01*
X-122032Y-2777187D01*
X-122071Y-2777093D01*
X-122107Y-2776997D01*
X-122138Y-2776901D01*
X-122166Y-2776803D01*
X-122191Y-2776704D01*
X-122211Y-2776605D01*
X-122227Y-2776505D01*
X-122240Y-2776404D01*
X-122249Y-2776302D01*
X-122254Y-2776201D01*
X-122255Y-2776099D01*
X-122252Y-2775998D01*
X-122245Y-2775896D01*
X-122235Y-2775795D01*
X-122220Y-2775695D01*
X-122202Y-2775595D01*
X-122180Y-2775495D01*
X-122154Y-2775397D01*
X-122124Y-2775300D01*
X-122091Y-2775204D01*
X-122054Y-2775109D01*
X-122013Y-2775016D01*
X-121969Y-2774925D01*
X-121921Y-2774835D01*
X-121870Y-2774747D01*
X-121816Y-2774661D01*
X-121758Y-2774577D01*
X-121697Y-2774496D01*
X-121634Y-2774417D01*
X-121567Y-2774340D01*
X-121497Y-2774266D01*
X-121425Y-2774195D01*
X-121349Y-2774127D01*
X-121272Y-2774061D01*
X-118179Y-2771557D01*
X-121518Y-2767434D01*
X-126672Y-2771608D01*
M02*
