M48
; DRILL file {KiCad 8.0.0} date 2024-04-10T23:53:35-0300
; FORMAT={-:-/ absolute / inch / decimal}
; #@! TF.CreationDate,2024-04-10T23:53:35-03:00
; #@! TF.GenerationSoftware,Kicad,Pcbnew,8.0.0
; #@! TF.FileFunction,Plated,1,2,PTH
FMAT,2
INCH
; #@! TA.AperFunction,Plated,PTH,ComponentDrill
T1C0.0400
%
G90
G05
T1
X4.953Y-3.1851
X4.953Y-5.0829
X5.0237Y-3.1144
X5.0237Y-3.2558
X5.0237Y-5.0122
X5.0237Y-5.1536
X5.0945Y-3.0437
X5.0945Y-3.1851
X5.0945Y-5.0829
X5.0945Y-5.2243
X5.1652Y-3.1144
X5.1652Y-5.1536
X6.9215Y-3.1144
X6.9215Y-5.1536
X6.9922Y-3.0437
X6.9922Y-3.1851
X6.9922Y-5.0829
X6.9922Y-5.2243
X7.063Y-3.1144
X7.063Y-3.2558
X7.063Y-5.0122
X7.063Y-5.1536
X7.1337Y-3.1851
X7.1337Y-5.0829
M30
