%TF.GenerationSoftware,KiCad,Pcbnew,8.0.0*%
%TF.CreationDate,2024-04-10T23:53:27-03:00*%
%TF.ProjectId,sponsor_v1.0,73706f6e-736f-4725-9f76-312e302e6b69,rev?*%
%TF.SameCoordinates,Original*%
%TF.FileFunction,Legend,Top*%
%TF.FilePolarity,Positive*%
%FSLAX46Y46*%
G04 Gerber Fmt 4.6, Leading zero omitted, Abs format (unit mm)*
G04 Created by KiCad (PCBNEW 8.0.0) date 2024-04-10 23:53:27*
%MOMM*%
%LPD*%
G01*
G04 APERTURE LIST*
%ADD10C,0.000000*%
%ADD11C,0.142240*%
%ADD12C,0.114300*%
%ADD13C,0.152400*%
G04 APERTURE END LIST*
D10*
G36*
X154196483Y-87890818D02*
G01*
X154218752Y-87891262D01*
X154229447Y-87891745D01*
X154239881Y-87892466D01*
X154250077Y-87893471D01*
X154260060Y-87894810D01*
X154269852Y-87896528D01*
X154279478Y-87898674D01*
X154288962Y-87901295D01*
X154298327Y-87904439D01*
X154307597Y-87908153D01*
X154316795Y-87912485D01*
X154325946Y-87917482D01*
X154335073Y-87923191D01*
X154344007Y-87926609D01*
X154352560Y-87930763D01*
X154360733Y-87935630D01*
X154368525Y-87941186D01*
X154375938Y-87947407D01*
X154382971Y-87954269D01*
X154389623Y-87961749D01*
X154395895Y-87969823D01*
X154401788Y-87978467D01*
X154407300Y-87987658D01*
X154412431Y-87997371D01*
X154417183Y-88007583D01*
X154421555Y-88018270D01*
X154425546Y-88029409D01*
X154429157Y-88040975D01*
X154432389Y-88052945D01*
X154438438Y-88065837D01*
X154444298Y-88080060D01*
X154447098Y-88087611D01*
X154449778Y-88095423D01*
X154452316Y-88103473D01*
X154454688Y-88111737D01*
X154456870Y-88120191D01*
X154458838Y-88128812D01*
X154460568Y-88137575D01*
X154462037Y-88146456D01*
X154463221Y-88155433D01*
X154464096Y-88164481D01*
X154464639Y-88173577D01*
X154464825Y-88182696D01*
X153848504Y-88182696D01*
X153848690Y-88173759D01*
X153849233Y-88165178D01*
X153850108Y-88156930D01*
X153851292Y-88148991D01*
X153852761Y-88141337D01*
X153854491Y-88133944D01*
X153856459Y-88126789D01*
X153858641Y-88119848D01*
X153861013Y-88113097D01*
X153863551Y-88106512D01*
X153866232Y-88100069D01*
X153869032Y-88093746D01*
X153874892Y-88081360D01*
X153880943Y-88069164D01*
X153887028Y-88057372D01*
X153893138Y-88046292D01*
X153899295Y-88035878D01*
X153905523Y-88026082D01*
X153911847Y-88016856D01*
X153918289Y-88008152D01*
X153924874Y-87999924D01*
X153931626Y-87992123D01*
X153938567Y-87984703D01*
X153945722Y-87977615D01*
X153953115Y-87970812D01*
X153960769Y-87964247D01*
X153968708Y-87957872D01*
X153976957Y-87951640D01*
X153985537Y-87945502D01*
X153994475Y-87939413D01*
X154003784Y-87933521D01*
X154013450Y-87928009D01*
X154023448Y-87922877D01*
X154033756Y-87918125D01*
X154044348Y-87913753D01*
X154055202Y-87909762D01*
X154066293Y-87906151D01*
X154077598Y-87902919D01*
X154089093Y-87900068D01*
X154100754Y-87897598D01*
X154112558Y-87895507D01*
X154124481Y-87893796D01*
X154136498Y-87892466D01*
X154148587Y-87891515D01*
X154160724Y-87890945D01*
X154172884Y-87890755D01*
X154196483Y-87890818D01*
G37*
G36*
X150146522Y-87890945D02*
G01*
X150158659Y-87891515D01*
X150170748Y-87892466D01*
X150182766Y-87893796D01*
X150194688Y-87895507D01*
X150206492Y-87897598D01*
X150218153Y-87900068D01*
X150229648Y-87902919D01*
X150240953Y-87906151D01*
X150252044Y-87909762D01*
X150262898Y-87913753D01*
X150273490Y-87918125D01*
X150283797Y-87922877D01*
X150293796Y-87928009D01*
X150303461Y-87933521D01*
X150312771Y-87939413D01*
X150318759Y-87941028D01*
X150324563Y-87942830D01*
X150330189Y-87944816D01*
X150335643Y-87946983D01*
X150346057Y-87951849D01*
X150355854Y-87957405D01*
X150365080Y-87963625D01*
X150373784Y-87970487D01*
X150382012Y-87977967D01*
X150389813Y-87986041D01*
X150397233Y-87994685D01*
X150404321Y-88003875D01*
X150411124Y-88013589D01*
X150417689Y-88023801D01*
X150424064Y-88034488D01*
X150430297Y-88045627D01*
X150436434Y-88057194D01*
X150442524Y-88069164D01*
X150448416Y-88081332D01*
X150453928Y-88093524D01*
X150459059Y-88105764D01*
X150463811Y-88118075D01*
X150468183Y-88130480D01*
X150472174Y-88143005D01*
X150475785Y-88155672D01*
X150479017Y-88168505D01*
X150481868Y-88181529D01*
X150484339Y-88194766D01*
X150486430Y-88208241D01*
X150488140Y-88221977D01*
X150489471Y-88235999D01*
X150490422Y-88250329D01*
X150490992Y-88264992D01*
X150491182Y-88280011D01*
X150490992Y-88295209D01*
X150490422Y-88310358D01*
X150489471Y-88325413D01*
X150488140Y-88340325D01*
X150486430Y-88355047D01*
X150484339Y-88369532D01*
X150481868Y-88383732D01*
X150479017Y-88397599D01*
X150475785Y-88411085D01*
X150472174Y-88424145D01*
X150468183Y-88436729D01*
X150463811Y-88448790D01*
X150459059Y-88460281D01*
X150453928Y-88471155D01*
X150448416Y-88481363D01*
X150442524Y-88490859D01*
X150436256Y-88502651D01*
X150429631Y-88513730D01*
X150422674Y-88524145D01*
X150415408Y-88533941D01*
X150407857Y-88543167D01*
X150400044Y-88551871D01*
X150391994Y-88560099D01*
X150383730Y-88567900D01*
X150375276Y-88575320D01*
X150366655Y-88582408D01*
X150357892Y-88589211D01*
X150349010Y-88595776D01*
X150330986Y-88608383D01*
X150312771Y-88620610D01*
X150303461Y-88626502D01*
X150293795Y-88632014D01*
X150283797Y-88637146D01*
X150273490Y-88641898D01*
X150262897Y-88646269D01*
X150252044Y-88650261D01*
X150240953Y-88653872D01*
X150229647Y-88657103D01*
X150218152Y-88659954D01*
X150206491Y-88662425D01*
X150194687Y-88664516D01*
X150182765Y-88666227D01*
X150170747Y-88667557D01*
X150158658Y-88668507D01*
X150146522Y-88669078D01*
X150134362Y-88669268D01*
X150122384Y-88669078D01*
X150110762Y-88668507D01*
X150099473Y-88667557D01*
X150088493Y-88666227D01*
X150077798Y-88664516D01*
X150067364Y-88662425D01*
X150057168Y-88659954D01*
X150047186Y-88657103D01*
X150037393Y-88653872D01*
X150027767Y-88650261D01*
X150018283Y-88646269D01*
X150008919Y-88641898D01*
X149999649Y-88637146D01*
X149990450Y-88632014D01*
X149981299Y-88626502D01*
X149972172Y-88620610D01*
X149963053Y-88614342D01*
X149953957Y-88607718D01*
X149944909Y-88600761D01*
X149935932Y-88593495D01*
X149927050Y-88585944D01*
X149918288Y-88578131D01*
X149909667Y-88570081D01*
X149901213Y-88561817D01*
X149892949Y-88553363D01*
X149884899Y-88544743D01*
X149877087Y-88535980D01*
X149869536Y-88527098D01*
X149862270Y-88518122D01*
X149855313Y-88509074D01*
X149848689Y-88499978D01*
X149842421Y-88490859D01*
X149836528Y-88478690D01*
X149831017Y-88466498D01*
X149825885Y-88454259D01*
X149821133Y-88441948D01*
X149816761Y-88429542D01*
X149812770Y-88417017D01*
X149809159Y-88404350D01*
X149805927Y-88391516D01*
X149803076Y-88378493D01*
X149800605Y-88365255D01*
X149798515Y-88351781D01*
X149796804Y-88338044D01*
X149795474Y-88324023D01*
X149794523Y-88309693D01*
X149793953Y-88295030D01*
X149793763Y-88280011D01*
X149793953Y-88264814D01*
X149794523Y-88249664D01*
X149795474Y-88234609D01*
X149796804Y-88219697D01*
X149798515Y-88204974D01*
X149800605Y-88190490D01*
X149803076Y-88176290D01*
X149805927Y-88162423D01*
X149809159Y-88148937D01*
X149812770Y-88135877D01*
X149816761Y-88123293D01*
X149821133Y-88111232D01*
X149825885Y-88099741D01*
X149831017Y-88088868D01*
X149836528Y-88078660D01*
X149842421Y-88069164D01*
X149848689Y-88057372D01*
X149855313Y-88046292D01*
X149862270Y-88035878D01*
X149869536Y-88026082D01*
X149877087Y-88016856D01*
X149884899Y-88008152D01*
X149892949Y-87999924D01*
X149901213Y-87992123D01*
X149909667Y-87984703D01*
X149918288Y-87977615D01*
X149927050Y-87970812D01*
X149935932Y-87964247D01*
X149953957Y-87951640D01*
X149972172Y-87939413D01*
X149995771Y-87928009D01*
X150007060Y-87922877D01*
X150018041Y-87918125D01*
X150028736Y-87913753D01*
X150039169Y-87909762D01*
X150049366Y-87906151D01*
X150059348Y-87902919D01*
X150069141Y-87900068D01*
X150078767Y-87897598D01*
X150088250Y-87895507D01*
X150097615Y-87893796D01*
X150106885Y-87892466D01*
X150116083Y-87891515D01*
X150125234Y-87890945D01*
X150134362Y-87890755D01*
X150146522Y-87890945D01*
G37*
G36*
X157115896Y-87890818D02*
G01*
X157138165Y-87891262D01*
X157148860Y-87891745D01*
X157159294Y-87892466D01*
X157169490Y-87893471D01*
X157179473Y-87894810D01*
X157189265Y-87896528D01*
X157198891Y-87898674D01*
X157208375Y-87901295D01*
X157217740Y-87904439D01*
X157227010Y-87908153D01*
X157236208Y-87912485D01*
X157245359Y-87917482D01*
X157254486Y-87923191D01*
X157260568Y-87926609D01*
X157266650Y-87930763D01*
X157272732Y-87935630D01*
X157278814Y-87941186D01*
X157284896Y-87947407D01*
X157290979Y-87954269D01*
X157297061Y-87961749D01*
X157303143Y-87969823D01*
X157309225Y-87978467D01*
X157315308Y-87987658D01*
X157321390Y-87997371D01*
X157327472Y-88007583D01*
X157339637Y-88029409D01*
X157351802Y-88052945D01*
X157357851Y-88065837D01*
X157363711Y-88080060D01*
X157366511Y-88087611D01*
X157369191Y-88095423D01*
X157371729Y-88103473D01*
X157374101Y-88111737D01*
X157376283Y-88120191D01*
X157378251Y-88128812D01*
X157379981Y-88137575D01*
X157381450Y-88146456D01*
X157382634Y-88155433D01*
X157383509Y-88164481D01*
X157384052Y-88173577D01*
X157384238Y-88182696D01*
X156767917Y-88182696D01*
X156768103Y-88173759D01*
X156768646Y-88165178D01*
X156769521Y-88156930D01*
X156770704Y-88148991D01*
X156772173Y-88141337D01*
X156773904Y-88133944D01*
X156775872Y-88126789D01*
X156778053Y-88119848D01*
X156780425Y-88113097D01*
X156782963Y-88106512D01*
X156785644Y-88100069D01*
X156788444Y-88093746D01*
X156794304Y-88081360D01*
X156800356Y-88069164D01*
X156806441Y-88057372D01*
X156812551Y-88046292D01*
X156818708Y-88035878D01*
X156824936Y-88026082D01*
X156831260Y-88016856D01*
X156837702Y-88008152D01*
X156844287Y-87999924D01*
X156851039Y-87992123D01*
X156857980Y-87984703D01*
X156865135Y-87977615D01*
X156872528Y-87970812D01*
X156880182Y-87964247D01*
X156888121Y-87957872D01*
X156896370Y-87951640D01*
X156904950Y-87945502D01*
X156913888Y-87939413D01*
X156923197Y-87933521D01*
X156932862Y-87928009D01*
X156942860Y-87922877D01*
X156953168Y-87918125D01*
X156963760Y-87913753D01*
X156974613Y-87909762D01*
X156985705Y-87906151D01*
X156997010Y-87902919D01*
X157008505Y-87900068D01*
X157020167Y-87897598D01*
X157031971Y-87895507D01*
X157043893Y-87893796D01*
X157055911Y-87892466D01*
X157068000Y-87891515D01*
X157080137Y-87890945D01*
X157092297Y-87890755D01*
X157115896Y-87890818D01*
G37*
G36*
X152122200Y-87890941D02*
G01*
X152131323Y-87891484D01*
X152140446Y-87892359D01*
X152149569Y-87893542D01*
X152158692Y-87895011D01*
X152167815Y-87896741D01*
X152176938Y-87898709D01*
X152186061Y-87900891D01*
X152204308Y-87905801D01*
X152222554Y-87911281D01*
X152259048Y-87923191D01*
X152265134Y-87926423D01*
X152271244Y-87930034D01*
X152277401Y-87934026D01*
X152283630Y-87938398D01*
X152289953Y-87943149D01*
X152296396Y-87948281D01*
X152302981Y-87953793D01*
X152309733Y-87959685D01*
X152323829Y-87972610D01*
X152338876Y-87987055D01*
X152372582Y-88020506D01*
X152378474Y-88029629D01*
X152383985Y-88038752D01*
X152389117Y-88047875D01*
X152393869Y-88056998D01*
X152398240Y-88066121D01*
X152402232Y-88075244D01*
X152405843Y-88084368D01*
X152409074Y-88093491D01*
X152411925Y-88102614D01*
X152414396Y-88111737D01*
X152416487Y-88120860D01*
X152418198Y-88129984D01*
X152419529Y-88139107D01*
X152420479Y-88148230D01*
X152421049Y-88157354D01*
X152421240Y-88166477D01*
X151804917Y-88166477D01*
X151805103Y-88157358D01*
X151805645Y-88148262D01*
X151806520Y-88139214D01*
X151807704Y-88130237D01*
X151809173Y-88121355D01*
X151810904Y-88112592D01*
X151812872Y-88103972D01*
X151815054Y-88095518D01*
X151817426Y-88087254D01*
X151819964Y-88079204D01*
X151822645Y-88071391D01*
X151825444Y-88063840D01*
X151828339Y-88056574D01*
X151831305Y-88049616D01*
X151834318Y-88042992D01*
X151837355Y-88036723D01*
X151838970Y-88032209D01*
X151840768Y-88027786D01*
X151844894Y-88019206D01*
X151849685Y-88010958D01*
X151855094Y-88003019D01*
X151861073Y-87995365D01*
X151867574Y-87987972D01*
X151874551Y-87980817D01*
X151881956Y-87973876D01*
X151889741Y-87967125D01*
X151897858Y-87960540D01*
X151906261Y-87954097D01*
X151914901Y-87947773D01*
X151932704Y-87935387D01*
X151950887Y-87923191D01*
X151969166Y-87917141D01*
X151987634Y-87911282D01*
X152006482Y-87905802D01*
X152025901Y-87900892D01*
X152035883Y-87898710D01*
X152046079Y-87896742D01*
X152056513Y-87895012D01*
X152067208Y-87893543D01*
X152078189Y-87892359D01*
X152089478Y-87891484D01*
X152101099Y-87890941D01*
X152113077Y-87890755D01*
X152122200Y-87890941D01*
G37*
G36*
X147781516Y-83074759D02*
G01*
X147882021Y-83078192D01*
X147971217Y-83084523D01*
X148011767Y-83088932D01*
X148049722Y-83094252D01*
X148085158Y-83100547D01*
X148118154Y-83107878D01*
X148148785Y-83116307D01*
X148177130Y-83125898D01*
X148203265Y-83136713D01*
X148227267Y-83148813D01*
X148249215Y-83162262D01*
X148269185Y-83177121D01*
X148287254Y-83193453D01*
X148303500Y-83211321D01*
X148318000Y-83230786D01*
X148330830Y-83251912D01*
X148342069Y-83274760D01*
X148351793Y-83299393D01*
X148360080Y-83325873D01*
X148367006Y-83354262D01*
X148372650Y-83384624D01*
X148377088Y-83417020D01*
X148380398Y-83451512D01*
X148382656Y-83488164D01*
X148384327Y-83568193D01*
X148382720Y-83657607D01*
X148382720Y-83917110D01*
X148381477Y-84000632D01*
X148377335Y-84075150D01*
X148369677Y-84141162D01*
X148364336Y-84171135D01*
X148357885Y-84199168D01*
X148350246Y-84225324D01*
X148341341Y-84249666D01*
X148331095Y-84272256D01*
X148319428Y-84293156D01*
X148306265Y-84312428D01*
X148291528Y-84330136D01*
X148275140Y-84346340D01*
X148257023Y-84361105D01*
X148237101Y-84374491D01*
X148215296Y-84386562D01*
X148191531Y-84397379D01*
X148165729Y-84407006D01*
X148137812Y-84415504D01*
X148107703Y-84422936D01*
X148040602Y-84434851D01*
X147963807Y-84443249D01*
X147876702Y-84448630D01*
X147778667Y-84451493D01*
X147669087Y-84452337D01*
X147166298Y-84452337D01*
X147065464Y-84451137D01*
X146975440Y-84447300D01*
X146895632Y-84440469D01*
X146859373Y-84435820D01*
X146825446Y-84430289D01*
X146793775Y-84423831D01*
X146764288Y-84416402D01*
X146736909Y-84407957D01*
X146711564Y-84398453D01*
X146688180Y-84387843D01*
X146666681Y-84376084D01*
X146646994Y-84363131D01*
X146629044Y-84348940D01*
X146612757Y-84333466D01*
X146598059Y-84316665D01*
X146584876Y-84298491D01*
X146573133Y-84278901D01*
X146562756Y-84257849D01*
X146553671Y-84235292D01*
X146545804Y-84211185D01*
X146539080Y-84185483D01*
X146533425Y-84158142D01*
X146528765Y-84129117D01*
X146522132Y-84065837D01*
X146518588Y-83995286D01*
X146517539Y-83917110D01*
X146517539Y-83657607D01*
X146518596Y-83570866D01*
X146522196Y-83492820D01*
X146528979Y-83423042D01*
X146539587Y-83361104D01*
X146546525Y-83332942D01*
X146554661Y-83306579D01*
X146564074Y-83281963D01*
X146574844Y-83259039D01*
X146587051Y-83237755D01*
X146600776Y-83218056D01*
X146616098Y-83199890D01*
X146633099Y-83183203D01*
X146651857Y-83167941D01*
X146672454Y-83154051D01*
X146694969Y-83141480D01*
X146719483Y-83130175D01*
X146746076Y-83120080D01*
X146774828Y-83111144D01*
X146805819Y-83103313D01*
X146839130Y-83096533D01*
X146913030Y-83085913D01*
X146997169Y-83078857D01*
X147092190Y-83074937D01*
X147198734Y-83073725D01*
X147669084Y-83073725D01*
X147781516Y-83074759D01*
G37*
G36*
X165518378Y-83139376D02*
G01*
X165555932Y-83141767D01*
X165573491Y-83143599D01*
X165590254Y-83145870D01*
X165606233Y-83148592D01*
X165621440Y-83151778D01*
X165635887Y-83155438D01*
X165649586Y-83159586D01*
X165662548Y-83164233D01*
X165674785Y-83169390D01*
X165686309Y-83175070D01*
X165697133Y-83181285D01*
X165707268Y-83188046D01*
X165716725Y-83195366D01*
X165725518Y-83203256D01*
X165733657Y-83211727D01*
X165741154Y-83220793D01*
X165748022Y-83230465D01*
X165754272Y-83240754D01*
X165759917Y-83251673D01*
X165764967Y-83263233D01*
X165769436Y-83275447D01*
X165773334Y-83288326D01*
X165776674Y-83301882D01*
X165779467Y-83316127D01*
X165781726Y-83331073D01*
X165783462Y-83346731D01*
X165784688Y-83363114D01*
X165785654Y-83398102D01*
X165785654Y-83446760D01*
X165784870Y-83478893D01*
X165782423Y-83508436D01*
X165778170Y-83535462D01*
X165775323Y-83548052D01*
X165771970Y-83560039D01*
X165768094Y-83571433D01*
X165763679Y-83582242D01*
X165758704Y-83592474D01*
X165753154Y-83602139D01*
X165747010Y-83611246D01*
X165740254Y-83619803D01*
X165732868Y-83627820D01*
X165724835Y-83635306D01*
X165716137Y-83642268D01*
X165706755Y-83648717D01*
X165696673Y-83654661D01*
X165685872Y-83660109D01*
X165674335Y-83665070D01*
X165662043Y-83669553D01*
X165648979Y-83673567D01*
X165635125Y-83677120D01*
X165620464Y-83680222D01*
X165604977Y-83682881D01*
X165571454Y-83686908D01*
X165534415Y-83689272D01*
X165493718Y-83690045D01*
X164131328Y-83690045D01*
X164131328Y-83138600D01*
X165477498Y-83138600D01*
X165518378Y-83139376D01*
G37*
G36*
X174365484Y-83657606D02*
G01*
X165526151Y-92496938D01*
X141197716Y-92496938D01*
X137986365Y-89285586D01*
X149615356Y-89285586D01*
X149793765Y-89285586D01*
X149793765Y-88604391D01*
X149800034Y-88616365D01*
X149806658Y-88627959D01*
X149813615Y-88639172D01*
X149820881Y-88650006D01*
X149828433Y-88660460D01*
X149836245Y-88670533D01*
X149844295Y-88680226D01*
X149852559Y-88689539D01*
X149861013Y-88698472D01*
X149869633Y-88707025D01*
X149878396Y-88715198D01*
X149887277Y-88722991D01*
X149896254Y-88730403D01*
X149905302Y-88737435D01*
X149914397Y-88744087D01*
X149923517Y-88750359D01*
X149935867Y-88759106D01*
X149948574Y-88767116D01*
X149961613Y-88774414D01*
X149974962Y-88781023D01*
X149988595Y-88786966D01*
X150002489Y-88792268D01*
X150016622Y-88796953D01*
X150030967Y-88801043D01*
X150045503Y-88804564D01*
X150060206Y-88807537D01*
X150075050Y-88809989D01*
X150090014Y-88811941D01*
X150105073Y-88813418D01*
X150120202Y-88814444D01*
X150135380Y-88815042D01*
X150150581Y-88815236D01*
X150168641Y-88815042D01*
X150186346Y-88814444D01*
X150203717Y-88813418D01*
X150220780Y-88811941D01*
X150237557Y-88809989D01*
X150254073Y-88807538D01*
X150270352Y-88804564D01*
X150286416Y-88801044D01*
X150302291Y-88796954D01*
X150317999Y-88792269D01*
X150333565Y-88786967D01*
X150344401Y-88782797D01*
X150929094Y-88782797D01*
X151107502Y-88782797D01*
X151107502Y-88312450D01*
X151561631Y-88312450D01*
X151561825Y-88330692D01*
X151562423Y-88348910D01*
X151563448Y-88367081D01*
X151564925Y-88385180D01*
X151566877Y-88403185D01*
X151569328Y-88421070D01*
X151572302Y-88438814D01*
X151575822Y-88456391D01*
X151579912Y-88473778D01*
X151584596Y-88490951D01*
X151589898Y-88507887D01*
X151595841Y-88524561D01*
X151602450Y-88540950D01*
X151609748Y-88557030D01*
X151617758Y-88572778D01*
X151626505Y-88588169D01*
X151644815Y-88617820D01*
X151654089Y-88632075D01*
X151663505Y-88645950D01*
X151673112Y-88659445D01*
X151682956Y-88672559D01*
X151693085Y-88685294D01*
X151703546Y-88697648D01*
X151714388Y-88709622D01*
X151725657Y-88721216D01*
X151737402Y-88732430D01*
X151749669Y-88743264D01*
X151762506Y-88753717D01*
X151775961Y-88763791D01*
X151790082Y-88773484D01*
X151804914Y-88782797D01*
X151820124Y-88791544D01*
X151835357Y-88799554D01*
X151850638Y-88806852D01*
X151865989Y-88813461D01*
X151881436Y-88819404D01*
X151897002Y-88824706D01*
X151912710Y-88829390D01*
X151928585Y-88833480D01*
X151944649Y-88837001D01*
X151960928Y-88839974D01*
X151977444Y-88842425D01*
X151994221Y-88844377D01*
X152011283Y-88845854D01*
X152028655Y-88846880D01*
X152046359Y-88847478D01*
X152064419Y-88847672D01*
X152099455Y-88847609D01*
X152131829Y-88847165D01*
X152161923Y-88845962D01*
X152176233Y-88844956D01*
X152190116Y-88843618D01*
X152203618Y-88841900D01*
X152216788Y-88839754D01*
X152229673Y-88837133D01*
X152242321Y-88833989D01*
X152254778Y-88830275D01*
X152267092Y-88825943D01*
X152279312Y-88820946D01*
X152291484Y-88815236D01*
X152315083Y-88803071D01*
X152337352Y-88790906D01*
X152358481Y-88778741D01*
X152378660Y-88766577D01*
X152398078Y-88754412D01*
X152416927Y-88742248D01*
X152453673Y-88717921D01*
X152567204Y-88571952D01*
X152745617Y-88571952D01*
X152752428Y-88584814D01*
X152760570Y-88598815D01*
X152769852Y-88613577D01*
X152780083Y-88628719D01*
X152785496Y-88636314D01*
X152791075Y-88643861D01*
X152796797Y-88651313D01*
X152802638Y-88658623D01*
X152808573Y-88665742D01*
X152814580Y-88672624D01*
X152820635Y-88679221D01*
X152826713Y-88685485D01*
X152972681Y-88782800D01*
X153021339Y-88794710D01*
X153045667Y-88800190D01*
X153069996Y-88805100D01*
X153094324Y-88809250D01*
X153118653Y-88812450D01*
X153130817Y-88813634D01*
X153142981Y-88814510D01*
X153155145Y-88815052D01*
X153167309Y-88815238D01*
X153188221Y-88814858D01*
X153208396Y-88813718D01*
X153227858Y-88811817D01*
X153246631Y-88809156D01*
X153264739Y-88805734D01*
X153282206Y-88801553D01*
X153299054Y-88796611D01*
X153315309Y-88790909D01*
X153330994Y-88784446D01*
X153346132Y-88777223D01*
X153360747Y-88769240D01*
X153374863Y-88760497D01*
X153388504Y-88750994D01*
X153401694Y-88740731D01*
X153414456Y-88729707D01*
X153426814Y-88717923D01*
X153438590Y-88705747D01*
X153449558Y-88693499D01*
X153459671Y-88681109D01*
X153468881Y-88668505D01*
X153477141Y-88655616D01*
X153484403Y-88642371D01*
X153490619Y-88628698D01*
X153495743Y-88614526D01*
X153499727Y-88599784D01*
X153502522Y-88584400D01*
X153504082Y-88568304D01*
X153504360Y-88551424D01*
X153503307Y-88533688D01*
X153500876Y-88515026D01*
X153497020Y-88495366D01*
X153491691Y-88474637D01*
X153491501Y-88465336D01*
X153490931Y-88455727D01*
X153489980Y-88445879D01*
X153488650Y-88435866D01*
X153486939Y-88425757D01*
X153484848Y-88415624D01*
X153482378Y-88405538D01*
X153479527Y-88395572D01*
X153476295Y-88385795D01*
X153472684Y-88376280D01*
X153468693Y-88367097D01*
X153464321Y-88358319D01*
X153459569Y-88350015D01*
X153454437Y-88342258D01*
X153448925Y-88335119D01*
X153443033Y-88328669D01*
X153439620Y-88322586D01*
X153435495Y-88316504D01*
X153430704Y-88310422D01*
X153425295Y-88304339D01*
X153419316Y-88298257D01*
X153412814Y-88292175D01*
X153405837Y-88286093D01*
X153398433Y-88280011D01*
X153390648Y-88273928D01*
X153382530Y-88267846D01*
X153365488Y-88255682D01*
X153353619Y-88247573D01*
X153653874Y-88247573D01*
X153654068Y-88268670D01*
X153654666Y-88289387D01*
X153655691Y-88309724D01*
X153657168Y-88329681D01*
X153659120Y-88349258D01*
X153661571Y-88368455D01*
X153664544Y-88387272D01*
X153668064Y-88405708D01*
X153672155Y-88423765D01*
X153676839Y-88441441D01*
X153682141Y-88458737D01*
X153688084Y-88475653D01*
X153694693Y-88492189D01*
X153701990Y-88508345D01*
X153710001Y-88524121D01*
X153718748Y-88539516D01*
X153737058Y-88569166D01*
X153746332Y-88583421D01*
X153755748Y-88597296D01*
X153765355Y-88610790D01*
X153775198Y-88623904D01*
X153785327Y-88636639D01*
X153795789Y-88648993D01*
X153806631Y-88660967D01*
X153817900Y-88672561D01*
X153829645Y-88683775D01*
X153841912Y-88694608D01*
X153854749Y-88705062D01*
X153868204Y-88715135D01*
X153882324Y-88724829D01*
X153897157Y-88734142D01*
X153912366Y-88742889D01*
X153927599Y-88750899D01*
X153942879Y-88758197D01*
X153958231Y-88764805D01*
X153973678Y-88770749D01*
X153989244Y-88776051D01*
X154004952Y-88780735D01*
X154020827Y-88784825D01*
X154036891Y-88788345D01*
X154053170Y-88791319D01*
X154069686Y-88793770D01*
X154086463Y-88795722D01*
X154103526Y-88797199D01*
X154120897Y-88798225D01*
X154138602Y-88798823D01*
X154156662Y-88799017D01*
X154177759Y-88798823D01*
X154198476Y-88798225D01*
X154218813Y-88797199D01*
X154238770Y-88795722D01*
X154258347Y-88793771D01*
X154277544Y-88791320D01*
X154296361Y-88788346D01*
X154314797Y-88784826D01*
X154323742Y-88782800D01*
X154918958Y-88782800D01*
X155097367Y-88782800D01*
X155097367Y-88150262D01*
X155097430Y-88132713D01*
X155097873Y-88116303D01*
X155098356Y-88108408D01*
X155099077Y-88100654D01*
X155100082Y-88092996D01*
X155101420Y-88085386D01*
X155103139Y-88077775D01*
X155105285Y-88070117D01*
X155107906Y-88062363D01*
X155111050Y-88054468D01*
X155114764Y-88046382D01*
X155119096Y-88038058D01*
X155124093Y-88029450D01*
X155129803Y-88020509D01*
X155135885Y-88011576D01*
X155141968Y-88003023D01*
X155148051Y-87994850D01*
X155154133Y-87987057D01*
X155160215Y-87979644D01*
X155166298Y-87972612D01*
X155172380Y-87965960D01*
X155178462Y-87959688D01*
X155184544Y-87953796D01*
X155190627Y-87948284D01*
X155196709Y-87943153D01*
X155202791Y-87938401D01*
X155208873Y-87934030D01*
X155214954Y-87930038D01*
X155221036Y-87926427D01*
X155227118Y-87923196D01*
X155263610Y-87911285D01*
X155281856Y-87905805D01*
X155300102Y-87900894D01*
X155309226Y-87898713D01*
X155318349Y-87896745D01*
X155327472Y-87895014D01*
X155336595Y-87893545D01*
X155345719Y-87892361D01*
X155354842Y-87891486D01*
X155363965Y-87890943D01*
X155373089Y-87890757D01*
X155385245Y-87890951D01*
X155397353Y-87891549D01*
X155409367Y-87892575D01*
X155421238Y-87894052D01*
X155432919Y-87896004D01*
X155444363Y-87898454D01*
X155455521Y-87901428D01*
X155466347Y-87904948D01*
X155476793Y-87909038D01*
X155486811Y-87913722D01*
X155491645Y-87916295D01*
X155496354Y-87919024D01*
X155500932Y-87921914D01*
X155505374Y-87924968D01*
X155509674Y-87928188D01*
X155513824Y-87931577D01*
X155517821Y-87935138D01*
X155521657Y-87938874D01*
X155525326Y-87942789D01*
X155528824Y-87946885D01*
X155532143Y-87951165D01*
X155535278Y-87955632D01*
X155544025Y-87964945D01*
X155552035Y-87974639D01*
X155559333Y-87984712D01*
X155565941Y-87995166D01*
X155571885Y-88006000D01*
X155577187Y-88017213D01*
X155581871Y-88028807D01*
X155585961Y-88040782D01*
X155589481Y-88053136D01*
X155592455Y-88065870D01*
X155594906Y-88078985D01*
X155596858Y-88092479D01*
X155598335Y-88106354D01*
X155599361Y-88120609D01*
X155599959Y-88135245D01*
X155600153Y-88150260D01*
X155600153Y-88782797D01*
X155762347Y-88782797D01*
X155762347Y-88117824D01*
X155761967Y-88096727D01*
X155760827Y-88076010D01*
X155758926Y-88055673D01*
X155756265Y-88035716D01*
X155752843Y-88016139D01*
X155748662Y-87996942D01*
X155743720Y-87978125D01*
X155738018Y-87959689D01*
X155731555Y-87941633D01*
X155724333Y-87923957D01*
X155716494Y-87906974D01*
X155956966Y-87906974D01*
X156135377Y-87906974D01*
X156135377Y-88782797D01*
X156313786Y-88782797D01*
X156313786Y-88247573D01*
X156557065Y-88247573D01*
X156557259Y-88268670D01*
X156557857Y-88289387D01*
X156558882Y-88309724D01*
X156560359Y-88329681D01*
X156562311Y-88349258D01*
X156564762Y-88368455D01*
X156567736Y-88387272D01*
X156571256Y-88405708D01*
X156575346Y-88423765D01*
X156580030Y-88441441D01*
X156585332Y-88458737D01*
X156591275Y-88475653D01*
X156597884Y-88492189D01*
X156605182Y-88508345D01*
X156613192Y-88524121D01*
X156621940Y-88539516D01*
X156640250Y-88569166D01*
X156649523Y-88583421D01*
X156658940Y-88597296D01*
X156668546Y-88610790D01*
X156678390Y-88623904D01*
X156688519Y-88636639D01*
X156698981Y-88648993D01*
X156709822Y-88660967D01*
X156721092Y-88672561D01*
X156732836Y-88683775D01*
X156745103Y-88694608D01*
X156757940Y-88705062D01*
X156771395Y-88715135D01*
X156785516Y-88724829D01*
X156800348Y-88734142D01*
X156815558Y-88742889D01*
X156830791Y-88750899D01*
X156846072Y-88758197D01*
X156861424Y-88764805D01*
X156876870Y-88770749D01*
X156892436Y-88776051D01*
X156908144Y-88780735D01*
X156924019Y-88784825D01*
X156940083Y-88788345D01*
X156956362Y-88791319D01*
X156972878Y-88793770D01*
X156989655Y-88795722D01*
X157006718Y-88797199D01*
X157024089Y-88798225D01*
X157041793Y-88798823D01*
X157059854Y-88799017D01*
X157080951Y-88798823D01*
X157101668Y-88798225D01*
X157122005Y-88797199D01*
X157141962Y-88795722D01*
X157161539Y-88793771D01*
X157180735Y-88791320D01*
X157199552Y-88788346D01*
X157217988Y-88784826D01*
X157236045Y-88780736D01*
X157253721Y-88776052D01*
X157271017Y-88770750D01*
X157287933Y-88764806D01*
X157304469Y-88758198D01*
X157320624Y-88750900D01*
X157336399Y-88742889D01*
X157351795Y-88734142D01*
X157366992Y-88724829D01*
X157382142Y-88715135D01*
X157397197Y-88705062D01*
X157412109Y-88694608D01*
X157426832Y-88683775D01*
X157441316Y-88672561D01*
X157455516Y-88660967D01*
X157469383Y-88648993D01*
X157482869Y-88636639D01*
X157495928Y-88623904D01*
X157508512Y-88610790D01*
X157520574Y-88597296D01*
X157532065Y-88583421D01*
X157542938Y-88569166D01*
X157553146Y-88554531D01*
X157562642Y-88539516D01*
X157416674Y-88442201D01*
X157407551Y-88454175D01*
X157398428Y-88465769D01*
X157389305Y-88476983D01*
X157380182Y-88487816D01*
X157371059Y-88498270D01*
X157361936Y-88508343D01*
X157352813Y-88518036D01*
X157343689Y-88527350D01*
X157334566Y-88536283D01*
X157325443Y-88544836D01*
X157316320Y-88553008D01*
X157307196Y-88560801D01*
X157298073Y-88568213D01*
X157288950Y-88575245D01*
X157279827Y-88581897D01*
X157270703Y-88588169D01*
X157258539Y-88594061D01*
X157246375Y-88599573D01*
X157234211Y-88604705D01*
X157222047Y-88609457D01*
X157209883Y-88613829D01*
X157197719Y-88617820D01*
X157185554Y-88621431D01*
X157173390Y-88624663D01*
X157161226Y-88627514D01*
X157149062Y-88629984D01*
X157136898Y-88632075D01*
X157124734Y-88633786D01*
X157112570Y-88635116D01*
X157100405Y-88636067D01*
X157088241Y-88636637D01*
X157076077Y-88636827D01*
X157063917Y-88636637D01*
X157051780Y-88636067D01*
X157039690Y-88635116D01*
X157027672Y-88633786D01*
X157015749Y-88632075D01*
X157003945Y-88629984D01*
X156992284Y-88627514D01*
X156980789Y-88624663D01*
X156969484Y-88621431D01*
X156958392Y-88617820D01*
X156947539Y-88613829D01*
X156936947Y-88609457D01*
X156926640Y-88604705D01*
X156916641Y-88599573D01*
X156906975Y-88594061D01*
X156897666Y-88588169D01*
X156888729Y-88582080D01*
X156880148Y-88575942D01*
X156871900Y-88569710D01*
X156863961Y-88563335D01*
X156856307Y-88556769D01*
X156848914Y-88549967D01*
X156841759Y-88542879D01*
X156834818Y-88535458D01*
X156828067Y-88527657D01*
X156821482Y-88519429D01*
X156815039Y-88510725D01*
X156808716Y-88501499D01*
X156802487Y-88491703D01*
X156796330Y-88481289D01*
X156790220Y-88470210D01*
X156784134Y-88458418D01*
X156778084Y-88445494D01*
X156772224Y-88431049D01*
X156769425Y-88423257D01*
X156766744Y-88415084D01*
X156764206Y-88406531D01*
X156761835Y-88397598D01*
X156759653Y-88388285D01*
X156757685Y-88378592D01*
X156755955Y-88368518D01*
X156754486Y-88358065D01*
X156753302Y-88347231D01*
X156752426Y-88336018D01*
X156751884Y-88324424D01*
X156751698Y-88312450D01*
X157578866Y-88312450D01*
X157578866Y-88296228D01*
X157578834Y-88290114D01*
X157578612Y-88283811D01*
X157578371Y-88280528D01*
X157578010Y-88277127D01*
X157577507Y-88273583D01*
X157576838Y-88269873D01*
X157575978Y-88265973D01*
X157574904Y-88261860D01*
X157573593Y-88257508D01*
X157572020Y-88252896D01*
X157570162Y-88247998D01*
X157567996Y-88242791D01*
X157565496Y-88237252D01*
X157562640Y-88231356D01*
X157562267Y-88210259D01*
X157561183Y-88189542D01*
X157559432Y-88169205D01*
X157557065Y-88149248D01*
X157554127Y-88129671D01*
X157550666Y-88110474D01*
X157546730Y-88091658D01*
X157542367Y-88073221D01*
X157537623Y-88055165D01*
X157532547Y-88037489D01*
X157521587Y-88003277D01*
X157509866Y-87970586D01*
X157497765Y-87939415D01*
X157491489Y-87924582D01*
X157484809Y-87910461D01*
X157477701Y-87897006D01*
X157470142Y-87884168D01*
X157462108Y-87871901D01*
X157453575Y-87860156D01*
X157444519Y-87848887D01*
X157434917Y-87838045D01*
X157424744Y-87827584D01*
X157413978Y-87817455D01*
X157402594Y-87807611D01*
X157390568Y-87798005D01*
X157377877Y-87788589D01*
X157364497Y-87779315D01*
X157350405Y-87770137D01*
X157335575Y-87761006D01*
X157323039Y-87752259D01*
X157309789Y-87744249D01*
X157295875Y-87736951D01*
X157281343Y-87730343D01*
X157266240Y-87724399D01*
X157250615Y-87719097D01*
X157234515Y-87714412D01*
X157217987Y-87710322D01*
X157201079Y-87706802D01*
X157183839Y-87703828D01*
X157166313Y-87701376D01*
X157148550Y-87699424D01*
X157130596Y-87697947D01*
X157112500Y-87696921D01*
X157094309Y-87696323D01*
X157076070Y-87696129D01*
X157055155Y-87696323D01*
X157034953Y-87696921D01*
X157015416Y-87697947D01*
X156996497Y-87699424D01*
X156978147Y-87701376D01*
X156960321Y-87703827D01*
X156942970Y-87706801D01*
X156926046Y-87710321D01*
X156909502Y-87714411D01*
X156893291Y-87719096D01*
X156877365Y-87724398D01*
X156861677Y-87730342D01*
X156846179Y-87736951D01*
X156830823Y-87744248D01*
X156815562Y-87752259D01*
X156800348Y-87761006D01*
X156785516Y-87770319D01*
X156771395Y-87780012D01*
X156757940Y-87790086D01*
X156745103Y-87800539D01*
X156732836Y-87811373D01*
X156721092Y-87822587D01*
X156709822Y-87834180D01*
X156698981Y-87846155D01*
X156688519Y-87858509D01*
X156678390Y-87871243D01*
X156668546Y-87884358D01*
X156658940Y-87897852D01*
X156649523Y-87911727D01*
X156640250Y-87925982D01*
X156621940Y-87955632D01*
X156613193Y-87971027D01*
X156605183Y-87986803D01*
X156597885Y-88002959D01*
X156591276Y-88019495D01*
X156585333Y-88036411D01*
X156580031Y-88053707D01*
X156575347Y-88071383D01*
X156571257Y-88089439D01*
X156567736Y-88107875D01*
X156564763Y-88126692D01*
X156562312Y-88145888D01*
X156560360Y-88165465D01*
X156558883Y-88185422D01*
X156557857Y-88205759D01*
X156557065Y-88247573D01*
X156313786Y-88247573D01*
X156313786Y-87906974D01*
X156475976Y-87906974D01*
X156475976Y-87744785D01*
X156313786Y-87744785D01*
X156313786Y-87387969D01*
X156135377Y-87387969D01*
X156135377Y-87744785D01*
X155956966Y-87744785D01*
X155956966Y-87906974D01*
X155716494Y-87906974D01*
X155716350Y-87906661D01*
X155707606Y-87889745D01*
X155698103Y-87873209D01*
X155687840Y-87857053D01*
X155676816Y-87841278D01*
X155665032Y-87825883D01*
X155652674Y-87811244D01*
X155639911Y-87797721D01*
X155626721Y-87785292D01*
X155613080Y-87773931D01*
X155598963Y-87763616D01*
X155584348Y-87754323D01*
X155569210Y-87746027D01*
X155553525Y-87738706D01*
X155537271Y-87732335D01*
X155520422Y-87726890D01*
X155502956Y-87722349D01*
X155484848Y-87718686D01*
X155466075Y-87715879D01*
X155446613Y-87713903D01*
X155426438Y-87712735D01*
X155405527Y-87712351D01*
X155393367Y-87712541D01*
X155381230Y-87713111D01*
X155369141Y-87714061D01*
X155357123Y-87715392D01*
X155345201Y-87717102D01*
X155333397Y-87719193D01*
X155321735Y-87721664D01*
X155310240Y-87724515D01*
X155298935Y-87727746D01*
X155287844Y-87731358D01*
X155276991Y-87735349D01*
X155266399Y-87739721D01*
X155256092Y-87744472D01*
X155246093Y-87749604D01*
X155236427Y-87755116D01*
X155227118Y-87761008D01*
X155217999Y-87767280D01*
X155208903Y-87773932D01*
X155199855Y-87780965D01*
X155190878Y-87788377D01*
X155181997Y-87796170D01*
X155173234Y-87804342D01*
X155164613Y-87812895D01*
X155156159Y-87821828D01*
X155147895Y-87831141D01*
X155139845Y-87840835D01*
X155132033Y-87850908D01*
X155124482Y-87861361D01*
X155117216Y-87872195D01*
X155110259Y-87883409D01*
X155103635Y-87895003D01*
X155097367Y-87906977D01*
X155097367Y-87744787D01*
X154918958Y-87744787D01*
X154918958Y-88782800D01*
X154323742Y-88782800D01*
X154332853Y-88780736D01*
X154350530Y-88776052D01*
X154367826Y-88770750D01*
X154384741Y-88764806D01*
X154401277Y-88758198D01*
X154417433Y-88750900D01*
X154433208Y-88742889D01*
X154448603Y-88734142D01*
X154463800Y-88724829D01*
X154478950Y-88715135D01*
X154494005Y-88705062D01*
X154508917Y-88694608D01*
X154523639Y-88683775D01*
X154538124Y-88672561D01*
X154552323Y-88660967D01*
X154566190Y-88648993D01*
X154579677Y-88636639D01*
X154592736Y-88623904D01*
X154605321Y-88610790D01*
X154617382Y-88597296D01*
X154628873Y-88583421D01*
X154639747Y-88569166D01*
X154649955Y-88554531D01*
X154659451Y-88539516D01*
X154513480Y-88442201D01*
X154504357Y-88454175D01*
X154495234Y-88465769D01*
X154486111Y-88476983D01*
X154476988Y-88487816D01*
X154467866Y-88498270D01*
X154458743Y-88508343D01*
X154449620Y-88518036D01*
X154440497Y-88527350D01*
X154431374Y-88536283D01*
X154422251Y-88544836D01*
X154413128Y-88553008D01*
X154404005Y-88560801D01*
X154394881Y-88568213D01*
X154385758Y-88575245D01*
X154376635Y-88581897D01*
X154367512Y-88588169D01*
X154355347Y-88594061D01*
X154343183Y-88599573D01*
X154331019Y-88604705D01*
X154318854Y-88609457D01*
X154306690Y-88613829D01*
X154294525Y-88617820D01*
X154282361Y-88621431D01*
X154270197Y-88624663D01*
X154258033Y-88627514D01*
X154245868Y-88629984D01*
X154233704Y-88632075D01*
X154221540Y-88633786D01*
X154209376Y-88635116D01*
X154197212Y-88636067D01*
X154185048Y-88636637D01*
X154172884Y-88636827D01*
X154160723Y-88636637D01*
X154148587Y-88636067D01*
X154136498Y-88635116D01*
X154124480Y-88633786D01*
X154112557Y-88632075D01*
X154100753Y-88629984D01*
X154089092Y-88627514D01*
X154077597Y-88624663D01*
X154066292Y-88621431D01*
X154055201Y-88617820D01*
X154044347Y-88613829D01*
X154033755Y-88609457D01*
X154023448Y-88604705D01*
X154013450Y-88599573D01*
X154003784Y-88594061D01*
X153994475Y-88588169D01*
X153985537Y-88582080D01*
X153976957Y-88575942D01*
X153968709Y-88569710D01*
X153960769Y-88563335D01*
X153953115Y-88556769D01*
X153945722Y-88549967D01*
X153938567Y-88542879D01*
X153931626Y-88535458D01*
X153924874Y-88527657D01*
X153918289Y-88519429D01*
X153911847Y-88510725D01*
X153905523Y-88501499D01*
X153899295Y-88491703D01*
X153893138Y-88481289D01*
X153887028Y-88470210D01*
X153880943Y-88458418D01*
X153874893Y-88445494D01*
X153869033Y-88431049D01*
X153866233Y-88423257D01*
X153863552Y-88415084D01*
X153861014Y-88406531D01*
X153858642Y-88397598D01*
X153856460Y-88388285D01*
X153854492Y-88378592D01*
X153852761Y-88368518D01*
X153851292Y-88358065D01*
X153850108Y-88347231D01*
X153849233Y-88336018D01*
X153848690Y-88324424D01*
X153848504Y-88312450D01*
X154675672Y-88312450D01*
X154675672Y-88296228D01*
X154675640Y-88290114D01*
X154675419Y-88283811D01*
X154675177Y-88280528D01*
X154674816Y-88277127D01*
X154674313Y-88273583D01*
X154673644Y-88269873D01*
X154672785Y-88265973D01*
X154671711Y-88261860D01*
X154670400Y-88257508D01*
X154668828Y-88252896D01*
X154666970Y-88247998D01*
X154664803Y-88242791D01*
X154662304Y-88237252D01*
X154659448Y-88231356D01*
X154659076Y-88210259D01*
X154657991Y-88189542D01*
X154656241Y-88169205D01*
X154653873Y-88149248D01*
X154650935Y-88129671D01*
X154647474Y-88110474D01*
X154643538Y-88091658D01*
X154639174Y-88073221D01*
X154634431Y-88055165D01*
X154629355Y-88037489D01*
X154618394Y-88003277D01*
X154606674Y-87970586D01*
X154594574Y-87939415D01*
X154588297Y-87924582D01*
X154581617Y-87910461D01*
X154574510Y-87897006D01*
X154566950Y-87884168D01*
X154558916Y-87871901D01*
X154550383Y-87860156D01*
X154541327Y-87848887D01*
X154531725Y-87838045D01*
X154521552Y-87827584D01*
X154510786Y-87817455D01*
X154499401Y-87807611D01*
X154487376Y-87798005D01*
X154474685Y-87788589D01*
X154461305Y-87779315D01*
X154447213Y-87770137D01*
X154432384Y-87761006D01*
X154419847Y-87752259D01*
X154406597Y-87744249D01*
X154392683Y-87736951D01*
X154378150Y-87730343D01*
X154363048Y-87724399D01*
X154347423Y-87719097D01*
X154331323Y-87714412D01*
X154314795Y-87710322D01*
X154297887Y-87706802D01*
X154280647Y-87703828D01*
X154263121Y-87701376D01*
X154245358Y-87699424D01*
X154227405Y-87697947D01*
X154209309Y-87696921D01*
X154191118Y-87696323D01*
X154172879Y-87696129D01*
X154151964Y-87696323D01*
X154131762Y-87696921D01*
X154112224Y-87697947D01*
X154093305Y-87699424D01*
X154074956Y-87701376D01*
X154057129Y-87703827D01*
X154039777Y-87706801D01*
X154022854Y-87710321D01*
X154006310Y-87714411D01*
X153990099Y-87719096D01*
X153974173Y-87724398D01*
X153958485Y-87730342D01*
X153942986Y-87736951D01*
X153927631Y-87744248D01*
X153912370Y-87752259D01*
X153897157Y-87761006D01*
X153882324Y-87770319D01*
X153868204Y-87780012D01*
X153854749Y-87790086D01*
X153841912Y-87800539D01*
X153829645Y-87811373D01*
X153817900Y-87822587D01*
X153806631Y-87834180D01*
X153795789Y-87846155D01*
X153785327Y-87858509D01*
X153775198Y-87871243D01*
X153765355Y-87884358D01*
X153755748Y-87897852D01*
X153746332Y-87911727D01*
X153737058Y-87925982D01*
X153718748Y-87955632D01*
X153710001Y-87971027D01*
X153701991Y-87986803D01*
X153694694Y-88002959D01*
X153688085Y-88019495D01*
X153682142Y-88036411D01*
X153676840Y-88053707D01*
X153672155Y-88071383D01*
X153668065Y-88089439D01*
X153664545Y-88107875D01*
X153661571Y-88126692D01*
X153659120Y-88145888D01*
X153657168Y-88165465D01*
X153655691Y-88185422D01*
X153654666Y-88205759D01*
X153653874Y-88247573D01*
X153353619Y-88247573D01*
X153347684Y-88243518D01*
X153329501Y-88231354D01*
X153311223Y-88219221D01*
X153292755Y-88207279D01*
X153273906Y-88195717D01*
X153254488Y-88184725D01*
X153244505Y-88179502D01*
X153234309Y-88174493D01*
X153223875Y-88169722D01*
X153213180Y-88165212D01*
X153202200Y-88160987D01*
X153190911Y-88157071D01*
X153179289Y-88153487D01*
X153167311Y-88150260D01*
X153069996Y-88101602D01*
X153045922Y-88089437D01*
X153034359Y-88083354D01*
X153023367Y-88077272D01*
X153018144Y-88074231D01*
X153013135Y-88071190D01*
X153008364Y-88068149D01*
X153003854Y-88065108D01*
X152999629Y-88062067D01*
X152995713Y-88059026D01*
X152992129Y-88055985D01*
X152988903Y-88052945D01*
X152982853Y-88046832D01*
X152979887Y-88043715D01*
X152976993Y-88040528D01*
X152974193Y-88037245D01*
X152971512Y-88033844D01*
X152968974Y-88030300D01*
X152966602Y-88026590D01*
X152964420Y-88022689D01*
X152962452Y-88018575D01*
X152960721Y-88014223D01*
X152959252Y-88009610D01*
X152958068Y-88004712D01*
X152957193Y-87999505D01*
X152956650Y-87993966D01*
X152956464Y-87988070D01*
X152956654Y-87981992D01*
X152957224Y-87975938D01*
X152958175Y-87969931D01*
X152959506Y-87963995D01*
X152960313Y-87961062D01*
X152961216Y-87958155D01*
X152962214Y-87955278D01*
X152963307Y-87952433D01*
X152964495Y-87949624D01*
X152965778Y-87946854D01*
X152967156Y-87944125D01*
X152968629Y-87941441D01*
X152970197Y-87938804D01*
X152971861Y-87936218D01*
X152973619Y-87933685D01*
X152975472Y-87931209D01*
X152977420Y-87928792D01*
X152979463Y-87926438D01*
X152981602Y-87924148D01*
X152983835Y-87921927D01*
X152986163Y-87919778D01*
X152988587Y-87917702D01*
X152991105Y-87915704D01*
X152993718Y-87913786D01*
X152996427Y-87911951D01*
X152999230Y-87910202D01*
X153002128Y-87908542D01*
X153005122Y-87906974D01*
X153017287Y-87900925D01*
X153029451Y-87895065D01*
X153041616Y-87889585D01*
X153047698Y-87887047D01*
X153053780Y-87884675D01*
X153059862Y-87882493D01*
X153065944Y-87880525D01*
X153072026Y-87878795D01*
X153078108Y-87877326D01*
X153084191Y-87876142D01*
X153090273Y-87875267D01*
X153096355Y-87874724D01*
X153102437Y-87874538D01*
X153120683Y-87874602D01*
X153138929Y-87875045D01*
X153148052Y-87875528D01*
X153157175Y-87876249D01*
X153166298Y-87877254D01*
X153175421Y-87878593D01*
X153184544Y-87880311D01*
X153193667Y-87882457D01*
X153202790Y-87885078D01*
X153211913Y-87888222D01*
X153221036Y-87891936D01*
X153230159Y-87896268D01*
X153239282Y-87901265D01*
X153248405Y-87906974D01*
X153257342Y-87913057D01*
X153265923Y-87919139D01*
X153274171Y-87925222D01*
X153282111Y-87931304D01*
X153289765Y-87937386D01*
X153297158Y-87943469D01*
X153304313Y-87949551D01*
X153311255Y-87955633D01*
X153324591Y-87967797D01*
X153337357Y-87979961D01*
X153349744Y-87992125D01*
X153361940Y-88004289D01*
X153507908Y-87906974D01*
X153504681Y-87900892D01*
X153501097Y-87894810D01*
X153497181Y-87888728D01*
X153492956Y-87882645D01*
X153488446Y-87876563D01*
X153483674Y-87870481D01*
X153478665Y-87864399D01*
X153473442Y-87858317D01*
X153462450Y-87846152D01*
X153450888Y-87833988D01*
X153438946Y-87821823D01*
X153426814Y-87809659D01*
X153413921Y-87802881D01*
X153399698Y-87794962D01*
X153368019Y-87777224D01*
X153350945Y-87768164D01*
X153333300Y-87759484D01*
X153324323Y-87755405D01*
X153315275Y-87751564D01*
X153306180Y-87748008D01*
X153297060Y-87744785D01*
X153278117Y-87738735D01*
X153258033Y-87732875D01*
X153237190Y-87727395D01*
X153215966Y-87722485D01*
X153194742Y-87718335D01*
X153184248Y-87716605D01*
X153173898Y-87715136D01*
X153163737Y-87713952D01*
X153153814Y-87713077D01*
X153144176Y-87712535D01*
X153134871Y-87712348D01*
X153125565Y-87712535D01*
X153115927Y-87713077D01*
X153106004Y-87713952D01*
X153095844Y-87715136D01*
X153085493Y-87716605D01*
X153075000Y-87718335D01*
X153053776Y-87722484D01*
X153032552Y-87727394D01*
X153011708Y-87732874D01*
X152991624Y-87738734D01*
X152972681Y-87744785D01*
X152963562Y-87750689D01*
X152954467Y-87756284D01*
X152936443Y-87766834D01*
X152918798Y-87777002D01*
X152910178Y-87782122D01*
X152901724Y-87787361D01*
X152893460Y-87792790D01*
X152885410Y-87798480D01*
X152877597Y-87804502D01*
X152870046Y-87810929D01*
X152862780Y-87817831D01*
X152855823Y-87825279D01*
X152852467Y-87829230D01*
X152849198Y-87833345D01*
X152846018Y-87837632D01*
X152842930Y-87842100D01*
X152837038Y-87851227D01*
X152831526Y-87860378D01*
X152826394Y-87869577D01*
X152821643Y-87878846D01*
X152817271Y-87888211D01*
X152813280Y-87897695D01*
X152809669Y-87907321D01*
X152806437Y-87917113D01*
X152803586Y-87927096D01*
X152801115Y-87937292D01*
X152799024Y-87947726D01*
X152797313Y-87958421D01*
X152795983Y-87969401D01*
X152795032Y-87980690D01*
X152794462Y-87992312D01*
X152794272Y-88004289D01*
X152794462Y-88013591D01*
X152795032Y-88023201D01*
X152795983Y-88033048D01*
X152797313Y-88043062D01*
X152799024Y-88053171D01*
X152801115Y-88063304D01*
X152803586Y-88073389D01*
X152806437Y-88083356D01*
X152809669Y-88093133D01*
X152813280Y-88102648D01*
X152817271Y-88111831D01*
X152821643Y-88120609D01*
X152826394Y-88128913D01*
X152831526Y-88136670D01*
X152837038Y-88143810D01*
X152842930Y-88150260D01*
X152956462Y-88247573D01*
X152962730Y-88253469D01*
X152969355Y-88259009D01*
X152976312Y-88264216D01*
X152983578Y-88269114D01*
X152991129Y-88273727D01*
X152998942Y-88278078D01*
X153006992Y-88282192D01*
X153015256Y-88286093D01*
X153023710Y-88289803D01*
X153032330Y-88293347D01*
X153049975Y-88300031D01*
X153067999Y-88306335D01*
X153086213Y-88312450D01*
X153199748Y-88361105D01*
X153208680Y-88364150D01*
X153217233Y-88367219D01*
X153225406Y-88370335D01*
X153233198Y-88373523D01*
X153240611Y-88376806D01*
X153247643Y-88380207D01*
X153254295Y-88383751D01*
X153260568Y-88387461D01*
X153266460Y-88391362D01*
X153269263Y-88393391D01*
X153271971Y-88395476D01*
X153274585Y-88397621D01*
X153277103Y-88399828D01*
X153279527Y-88402100D01*
X153281855Y-88404441D01*
X153284088Y-88406853D01*
X153286227Y-88409339D01*
X153288270Y-88411902D01*
X153290218Y-88414546D01*
X153292071Y-88417273D01*
X153293829Y-88420086D01*
X153295492Y-88422988D01*
X153297060Y-88425982D01*
X153303111Y-88438146D01*
X153308971Y-88450311D01*
X153314452Y-88462475D01*
X153316990Y-88468557D01*
X153319362Y-88474639D01*
X153321544Y-88480721D01*
X153323512Y-88486803D01*
X153325242Y-88492885D01*
X153326711Y-88498967D01*
X153327895Y-88505049D01*
X153328770Y-88511131D01*
X153329313Y-88517213D01*
X153329499Y-88523295D01*
X153329309Y-88532228D01*
X153329071Y-88536552D01*
X153328739Y-88540781D01*
X153328311Y-88544915D01*
X153327788Y-88548954D01*
X153327171Y-88552898D01*
X153326458Y-88556747D01*
X153325650Y-88560501D01*
X153324747Y-88564160D01*
X153323749Y-88567723D01*
X153322656Y-88571192D01*
X153321468Y-88574566D01*
X153320185Y-88577845D01*
X153318807Y-88581028D01*
X153317334Y-88584117D01*
X153315766Y-88587110D01*
X153314103Y-88590009D01*
X153312345Y-88592812D01*
X153310492Y-88595521D01*
X153308544Y-88598134D01*
X153306501Y-88600653D01*
X153304362Y-88603076D01*
X153302129Y-88605405D01*
X153299801Y-88607638D01*
X153297377Y-88609776D01*
X153294859Y-88611819D01*
X153292245Y-88613768D01*
X153289537Y-88615621D01*
X153286733Y-88617379D01*
X153283835Y-88619042D01*
X153280841Y-88620610D01*
X153277428Y-88623647D01*
X153273303Y-88626660D01*
X153268512Y-88629626D01*
X153263103Y-88632520D01*
X153257124Y-88635320D01*
X153250622Y-88638000D01*
X153243645Y-88640539D01*
X153236240Y-88642911D01*
X153228456Y-88645093D01*
X153220338Y-88647061D01*
X153211936Y-88648791D01*
X153203295Y-88650260D01*
X153194465Y-88651445D01*
X153185492Y-88652320D01*
X153176425Y-88652862D01*
X153167309Y-88653048D01*
X153154448Y-88653017D01*
X153140446Y-88652795D01*
X153125684Y-88652193D01*
X153110542Y-88651021D01*
X153102947Y-88650161D01*
X153095400Y-88649088D01*
X153087948Y-88647777D01*
X153080639Y-88646205D01*
X153073519Y-88644348D01*
X153066638Y-88642181D01*
X153060041Y-88639682D01*
X153053777Y-88636827D01*
X153041612Y-88630714D01*
X153029447Y-88624410D01*
X153017283Y-88617727D01*
X153011201Y-88614183D01*
X153005118Y-88610473D01*
X152999036Y-88606572D01*
X152992954Y-88602458D01*
X152986872Y-88598107D01*
X152980790Y-88593494D01*
X152974708Y-88588595D01*
X152968626Y-88583388D01*
X152962544Y-88577849D01*
X152956462Y-88571952D01*
X152941764Y-88557000D01*
X152933085Y-88547719D01*
X152924025Y-88537487D01*
X152919472Y-88532074D01*
X152914966Y-88526495D01*
X152910554Y-88520773D01*
X152906286Y-88514933D01*
X152902207Y-88508997D01*
X152898366Y-88502991D01*
X152894811Y-88496937D01*
X152891587Y-88490859D01*
X152745617Y-88571952D01*
X152567204Y-88571952D01*
X152567205Y-88571950D01*
X152421235Y-88474635D01*
X152418008Y-88480717D01*
X152414424Y-88486800D01*
X152410508Y-88492883D01*
X152406283Y-88498965D01*
X152401773Y-88505047D01*
X152397002Y-88511130D01*
X152391993Y-88517212D01*
X152386770Y-88523294D01*
X152375778Y-88535459D01*
X152364216Y-88547623D01*
X152352274Y-88559786D01*
X152340141Y-88571950D01*
X152333877Y-88577846D01*
X152327280Y-88583386D01*
X152320398Y-88588593D01*
X152313279Y-88593491D01*
X152305969Y-88598104D01*
X152298517Y-88602455D01*
X152290970Y-88606569D01*
X152283375Y-88610470D01*
X152226609Y-88636825D01*
X152220341Y-88639680D01*
X152213716Y-88642179D01*
X152206759Y-88644345D01*
X152199493Y-88646203D01*
X152191941Y-88647775D01*
X152184129Y-88649086D01*
X152176079Y-88650159D01*
X152167815Y-88651018D01*
X152150741Y-88652191D01*
X152133096Y-88652793D01*
X152096858Y-88653046D01*
X152084697Y-88652856D01*
X152072560Y-88652286D01*
X152060471Y-88651335D01*
X152048453Y-88650005D01*
X152036530Y-88648294D01*
X152024726Y-88646203D01*
X152013064Y-88643732D01*
X152001569Y-88640881D01*
X151990264Y-88637650D01*
X151979173Y-88634038D01*
X151968319Y-88630047D01*
X151957727Y-88625675D01*
X151947420Y-88620924D01*
X151937422Y-88615792D01*
X151927756Y-88610280D01*
X151918446Y-88604389D01*
X151909509Y-88598120D01*
X151900929Y-88591496D01*
X151892681Y-88584538D01*
X151884741Y-88577272D01*
X151877087Y-88569721D01*
X151869695Y-88561908D01*
X151862540Y-88553858D01*
X151855598Y-88545594D01*
X151848847Y-88537140D01*
X151842262Y-88528519D01*
X151829496Y-88510875D01*
X151817110Y-88492850D01*
X151804914Y-88474635D01*
X151798865Y-88456357D01*
X151793005Y-88437889D01*
X151787525Y-88419040D01*
X151782615Y-88399622D01*
X151780433Y-88389640D01*
X151778465Y-88379444D01*
X151776735Y-88369010D01*
X151775266Y-88358315D01*
X151774082Y-88347334D01*
X151773207Y-88336045D01*
X151772664Y-88324423D01*
X151772478Y-88312445D01*
X152583278Y-88312445D01*
X152587619Y-88312445D01*
X152599646Y-88312445D01*
X152599646Y-88280009D01*
X152599393Y-88278489D01*
X152599151Y-88278228D01*
X152598791Y-88278299D01*
X152598288Y-88278846D01*
X152597619Y-88280010D01*
X152596760Y-88281935D01*
X152595686Y-88284762D01*
X152592804Y-88293696D01*
X152588781Y-88307951D01*
X152587619Y-88312445D01*
X152583278Y-88312445D01*
X152583233Y-88307572D01*
X152582635Y-88286855D01*
X152581610Y-88266518D01*
X152580133Y-88246561D01*
X152578181Y-88226984D01*
X152575730Y-88207787D01*
X152572756Y-88188971D01*
X152569236Y-88170534D01*
X152565146Y-88152478D01*
X152560462Y-88134802D01*
X152555160Y-88117506D01*
X152549217Y-88100590D01*
X152542608Y-88084054D01*
X152535310Y-88067898D01*
X152527300Y-88052123D01*
X152518552Y-88036728D01*
X152500243Y-88012430D01*
X152481553Y-87988323D01*
X152462103Y-87964596D01*
X152451974Y-87952934D01*
X152441512Y-87941439D01*
X152430671Y-87930134D01*
X152419402Y-87919043D01*
X152407657Y-87908189D01*
X152395390Y-87897597D01*
X152382552Y-87887290D01*
X152369097Y-87877292D01*
X152354977Y-87867626D01*
X152340144Y-87858317D01*
X152324935Y-87849570D01*
X152309702Y-87841560D01*
X152294421Y-87834262D01*
X152279069Y-87827654D01*
X152263623Y-87821710D01*
X152248057Y-87816408D01*
X152232349Y-87811724D01*
X152216474Y-87807634D01*
X152200409Y-87804114D01*
X152184131Y-87801140D01*
X152167615Y-87798689D01*
X152150837Y-87796737D01*
X152133775Y-87795260D01*
X152116403Y-87794234D01*
X152098699Y-87793636D01*
X152080639Y-87793442D01*
X152062582Y-87793632D01*
X152044906Y-87794202D01*
X152027610Y-87795153D01*
X152010695Y-87796483D01*
X151994159Y-87798194D01*
X151978003Y-87800285D01*
X151962228Y-87802756D01*
X151946832Y-87805607D01*
X151931817Y-87808838D01*
X151917182Y-87812449D01*
X151902927Y-87816440D01*
X151889052Y-87820812D01*
X151875558Y-87825564D01*
X151862443Y-87830696D01*
X151849709Y-87836208D01*
X151837355Y-87842100D01*
X151822522Y-87848372D01*
X151808401Y-87855024D01*
X151794946Y-87862057D01*
X151782109Y-87869470D01*
X151769842Y-87877262D01*
X151758097Y-87885435D01*
X151746828Y-87893988D01*
X151735986Y-87902922D01*
X151725525Y-87912235D01*
X151715396Y-87921928D01*
X151705552Y-87932002D01*
X151695946Y-87942455D01*
X151686530Y-87953289D01*
X151677256Y-87964503D01*
X151668077Y-87976096D01*
X151658946Y-87988070D01*
X151650013Y-88000420D01*
X151641460Y-88013127D01*
X151633287Y-88026166D01*
X151625494Y-88039514D01*
X151618081Y-88053147D01*
X151611049Y-88067041D01*
X151604396Y-88081173D01*
X151598124Y-88095519D01*
X151592232Y-88110055D01*
X151586720Y-88124758D01*
X151581588Y-88139603D01*
X151576836Y-88154566D01*
X151572465Y-88169625D01*
X151568473Y-88184755D01*
X151564862Y-88199933D01*
X151561631Y-88215135D01*
X151561631Y-88312450D01*
X151107502Y-88312450D01*
X151107502Y-88150260D01*
X151107534Y-88132045D01*
X151107756Y-88114020D01*
X151108358Y-88096376D01*
X151108861Y-88087755D01*
X151109530Y-88079301D01*
X151110389Y-88071037D01*
X151111462Y-88062987D01*
X151112773Y-88055174D01*
X151114345Y-88047623D01*
X151116202Y-88040357D01*
X151118368Y-88033399D01*
X151120867Y-88026775D01*
X151123722Y-88020506D01*
X151123912Y-88011573D01*
X151124149Y-88007249D01*
X151124482Y-88003020D01*
X151124910Y-87998886D01*
X151125432Y-87994847D01*
X151126050Y-87990903D01*
X151126763Y-87987055D01*
X151127571Y-87983301D01*
X151128473Y-87979642D01*
X151129471Y-87976078D01*
X151130564Y-87972610D01*
X151131752Y-87969236D01*
X151133035Y-87965957D01*
X151134413Y-87962774D01*
X151135886Y-87959685D01*
X151137454Y-87956692D01*
X151139117Y-87953793D01*
X151140875Y-87950990D01*
X151142729Y-87948281D01*
X151144677Y-87945668D01*
X151146720Y-87943149D01*
X151148858Y-87940726D01*
X151151092Y-87938398D01*
X151153420Y-87936164D01*
X151155843Y-87934026D01*
X151158362Y-87931983D01*
X151160975Y-87930034D01*
X151163684Y-87928181D01*
X151166487Y-87926423D01*
X151169386Y-87924759D01*
X151172379Y-87923191D01*
X151184575Y-87917141D01*
X151196961Y-87911282D01*
X151209727Y-87905802D01*
X151216312Y-87903264D01*
X151223063Y-87900892D01*
X151230004Y-87898710D01*
X151237160Y-87896742D01*
X151244552Y-87895012D01*
X151252206Y-87893543D01*
X151260145Y-87892359D01*
X151268393Y-87891484D01*
X151276974Y-87890941D01*
X151285911Y-87890755D01*
X151298044Y-87890787D01*
X151309986Y-87891008D01*
X151315827Y-87891250D01*
X151321549Y-87891610D01*
X151327128Y-87892113D01*
X151332540Y-87892782D01*
X151337763Y-87893642D01*
X151342772Y-87894715D01*
X151347543Y-87896026D01*
X151352053Y-87897598D01*
X151354203Y-87898489D01*
X151356278Y-87899455D01*
X151358276Y-87900498D01*
X151360194Y-87901621D01*
X151362029Y-87902827D01*
X151363778Y-87904119D01*
X151365438Y-87905501D01*
X151367005Y-87906974D01*
X151370228Y-87907160D01*
X151373784Y-87907703D01*
X151377625Y-87908578D01*
X151381703Y-87909762D01*
X151385972Y-87911231D01*
X151390383Y-87912961D01*
X151394889Y-87914929D01*
X151399443Y-87917110D01*
X151403996Y-87919482D01*
X151408502Y-87922020D01*
X151412914Y-87924701D01*
X151417182Y-87927501D01*
X151421261Y-87930395D01*
X151425102Y-87933362D01*
X151428658Y-87936375D01*
X151431882Y-87939413D01*
X151545414Y-87793442D01*
X151539331Y-87787546D01*
X151533249Y-87782007D01*
X151527166Y-87776800D01*
X151521084Y-87771902D01*
X151515002Y-87767289D01*
X151508919Y-87762938D01*
X151502837Y-87758824D01*
X151496755Y-87754924D01*
X151490672Y-87751213D01*
X151484590Y-87747669D01*
X151472426Y-87740985D01*
X151460262Y-87734682D01*
X151448099Y-87728568D01*
X151441834Y-87725713D01*
X151435238Y-87723214D01*
X151428355Y-87721048D01*
X151421236Y-87719191D01*
X151413926Y-87717619D01*
X151406474Y-87716308D01*
X151398927Y-87715235D01*
X151391332Y-87714376D01*
X151376190Y-87713204D01*
X151361428Y-87712602D01*
X151347427Y-87712380D01*
X151334567Y-87712348D01*
X151325444Y-87712721D01*
X151316321Y-87713806D01*
X151307198Y-87715556D01*
X151298075Y-87717923D01*
X151288952Y-87720861D01*
X151279829Y-87724322D01*
X151270705Y-87728258D01*
X151261582Y-87732621D01*
X151252459Y-87737365D01*
X151243336Y-87742441D01*
X151234213Y-87747802D01*
X151225089Y-87753401D01*
X151206843Y-87765122D01*
X151188596Y-87777223D01*
X151176464Y-87789387D01*
X151164522Y-87801552D01*
X151152960Y-87813716D01*
X151141968Y-87825881D01*
X151136745Y-87831963D01*
X151131736Y-87838045D01*
X151126965Y-87844127D01*
X151122455Y-87850209D01*
X151118229Y-87856292D01*
X151114313Y-87862374D01*
X151110730Y-87868456D01*
X151107502Y-87874538D01*
X151107502Y-87744785D01*
X150929094Y-87744785D01*
X150929094Y-88782797D01*
X150344401Y-88782797D01*
X150349012Y-88781023D01*
X150364364Y-88774415D01*
X150379644Y-88767117D01*
X150394877Y-88759106D01*
X150410086Y-88750359D01*
X150425101Y-88741046D01*
X150439737Y-88731353D01*
X150453992Y-88721280D01*
X150467866Y-88710826D01*
X150481361Y-88699992D01*
X150494476Y-88688779D01*
X150507210Y-88677185D01*
X150519564Y-88665211D01*
X150531538Y-88652856D01*
X150543132Y-88640122D01*
X150554346Y-88627007D01*
X150565180Y-88613513D01*
X150575634Y-88599638D01*
X150585707Y-88585383D01*
X150595401Y-88570748D01*
X150604714Y-88555733D01*
X150613639Y-88540342D01*
X150622137Y-88524594D01*
X150630159Y-88508513D01*
X150637659Y-88492124D01*
X150644588Y-88475450D01*
X150650900Y-88458514D01*
X150656546Y-88441341D01*
X150661480Y-88423954D01*
X150665653Y-88406377D01*
X150669019Y-88388633D01*
X150671529Y-88370747D01*
X150673137Y-88352743D01*
X150673794Y-88334643D01*
X150673453Y-88316472D01*
X150672067Y-88298254D01*
X150669589Y-88280011D01*
X150669395Y-88258914D01*
X150668797Y-88238197D01*
X150667771Y-88217860D01*
X150666294Y-88197903D01*
X150664342Y-88178326D01*
X150661891Y-88159129D01*
X150658918Y-88140313D01*
X150655398Y-88121876D01*
X150651308Y-88103820D01*
X150646623Y-88086144D01*
X150641322Y-88068848D01*
X150635378Y-88051932D01*
X150628769Y-88035396D01*
X150621472Y-88019241D01*
X150613461Y-88003465D01*
X150604714Y-87988070D01*
X150595401Y-87973055D01*
X150585707Y-87958420D01*
X150575634Y-87944165D01*
X150565180Y-87930290D01*
X150554346Y-87916795D01*
X150543132Y-87903680D01*
X150531538Y-87890946D01*
X150519564Y-87878592D01*
X150507210Y-87866618D01*
X150494476Y-87855024D01*
X150481361Y-87843810D01*
X150467866Y-87832976D01*
X150453992Y-87822522D01*
X150439737Y-87812449D01*
X150425101Y-87802756D01*
X150410086Y-87793442D01*
X150394877Y-87784695D01*
X150379644Y-87776685D01*
X150364364Y-87769388D01*
X150349012Y-87762779D01*
X150333565Y-87756836D01*
X150317999Y-87751534D01*
X150302291Y-87746850D01*
X150286416Y-87742759D01*
X150270352Y-87739239D01*
X150254073Y-87736265D01*
X150237557Y-87733814D01*
X150220780Y-87731862D01*
X150203717Y-87730385D01*
X150186346Y-87729360D01*
X150168641Y-87728762D01*
X150150581Y-87728568D01*
X150135380Y-87728762D01*
X150120202Y-87729360D01*
X150105073Y-87730385D01*
X150090014Y-87731862D01*
X150075050Y-87733814D01*
X150060206Y-87736265D01*
X150045503Y-87739238D01*
X150030967Y-87742758D01*
X150016622Y-87746849D01*
X150002489Y-87751533D01*
X149988595Y-87756835D01*
X149974962Y-87762778D01*
X149961613Y-87769387D01*
X149948574Y-87776685D01*
X149935867Y-87784695D01*
X149923517Y-87793442D01*
X149914397Y-87799714D01*
X149905302Y-87806367D01*
X149896254Y-87813399D01*
X149887277Y-87820812D01*
X149878396Y-87828605D01*
X149869633Y-87836778D01*
X149861013Y-87845331D01*
X149852559Y-87854264D01*
X149844295Y-87863577D01*
X149836245Y-87873270D01*
X149828433Y-87883344D01*
X149820881Y-87893798D01*
X149813615Y-87904631D01*
X149806658Y-87915845D01*
X149800034Y-87927439D01*
X149793765Y-87939413D01*
X149793765Y-87744785D01*
X149615356Y-87744785D01*
X149615356Y-89285586D01*
X137986365Y-89285586D01*
X136202280Y-87501501D01*
X151967104Y-87501501D01*
X152064419Y-87566376D01*
X152469893Y-87225777D01*
X152307703Y-87144683D01*
X151967104Y-87501501D01*
X136202280Y-87501501D01*
X133720778Y-85020000D01*
X136899695Y-85020000D01*
X138699998Y-85020000D01*
X138699998Y-85684976D01*
X140986871Y-85684976D01*
X140986871Y-83819797D01*
X141749167Y-83819797D01*
X141753083Y-83988116D01*
X141765291Y-84140755D01*
X141786479Y-84278379D01*
X141800656Y-84341768D01*
X141817337Y-84401652D01*
X141836608Y-84458116D01*
X141858554Y-84511241D01*
X141883262Y-84561112D01*
X141910818Y-84607810D01*
X141941308Y-84651421D01*
X141974819Y-84692025D01*
X142011436Y-84729708D01*
X142051245Y-84764551D01*
X142094333Y-84796639D01*
X142140786Y-84826053D01*
X142190689Y-84852878D01*
X142244130Y-84877197D01*
X142301194Y-84899092D01*
X142361967Y-84918647D01*
X142426535Y-84935945D01*
X142494985Y-84951069D01*
X142643874Y-84975128D01*
X142809322Y-84991490D01*
X142992019Y-85000819D01*
X143192653Y-85003781D01*
X143987380Y-85003781D01*
X144202111Y-85001191D01*
X144396814Y-84992947D01*
X144572367Y-84978335D01*
X144653238Y-84968419D01*
X144729650Y-84956644D01*
X144801716Y-84942921D01*
X144869543Y-84927160D01*
X144933242Y-84909273D01*
X144992923Y-84889171D01*
X145048696Y-84866764D01*
X145100671Y-84841963D01*
X145148957Y-84814679D01*
X145193664Y-84784824D01*
X145234903Y-84752308D01*
X145272783Y-84717042D01*
X145307414Y-84678937D01*
X145338906Y-84637903D01*
X145367369Y-84593853D01*
X145392913Y-84546695D01*
X145415647Y-84496343D01*
X145435681Y-84442706D01*
X145453126Y-84385695D01*
X145468092Y-84325221D01*
X145480687Y-84261196D01*
X145491023Y-84193529D01*
X145499208Y-84122133D01*
X145505353Y-84046918D01*
X145509320Y-83949547D01*
X145901219Y-83949547D01*
X145904196Y-84100190D01*
X145913636Y-84236293D01*
X145930299Y-84358522D01*
X145941576Y-84414641D01*
X145954944Y-84467540D01*
X145970497Y-84517304D01*
X145988332Y-84564015D01*
X146008542Y-84607756D01*
X146031223Y-84648610D01*
X146056470Y-84686661D01*
X146084378Y-84721991D01*
X146115042Y-84754685D01*
X146148557Y-84784824D01*
X146185018Y-84812492D01*
X146224520Y-84837773D01*
X146267158Y-84860749D01*
X146313027Y-84881504D01*
X146362223Y-84900121D01*
X146414839Y-84916682D01*
X146470972Y-84931272D01*
X146530716Y-84943973D01*
X146661418Y-84964041D01*
X146807705Y-84977551D01*
X146970338Y-84985170D01*
X147150077Y-84987561D01*
X147701520Y-84987561D01*
X147895534Y-84985700D01*
X148070660Y-84979515D01*
X148183156Y-84971344D01*
X153540346Y-84971344D01*
X156232693Y-84971344D01*
X156232693Y-84484775D01*
X154172886Y-84484775D01*
X154172886Y-83949548D01*
X156167818Y-83949548D01*
X156167818Y-83949547D01*
X156589508Y-83949547D01*
X156592660Y-84097517D01*
X156602559Y-84231637D01*
X156619871Y-84352499D01*
X156631515Y-84408144D01*
X156645261Y-84460698D01*
X156661193Y-84510234D01*
X156679393Y-84556828D01*
X156699946Y-84600552D01*
X156722934Y-84641482D01*
X156748441Y-84679692D01*
X156776549Y-84715256D01*
X156807341Y-84748248D01*
X156840902Y-84778742D01*
X156877313Y-84806813D01*
X156916659Y-84832534D01*
X156959022Y-84855981D01*
X157004485Y-84877228D01*
X157053132Y-84896348D01*
X157105046Y-84913416D01*
X157160310Y-84928506D01*
X157219006Y-84941692D01*
X157347032Y-84962651D01*
X157489787Y-84976886D01*
X157647938Y-84984991D01*
X157822149Y-84987561D01*
X158406031Y-84987561D01*
X158607874Y-84985217D01*
X158788382Y-84977931D01*
X158870976Y-84972316D01*
X158948647Y-84965324D01*
X159021531Y-84956905D01*
X159089763Y-84947014D01*
X159153482Y-84935602D01*
X159212823Y-84922622D01*
X159267924Y-84908026D01*
X159318920Y-84891768D01*
X159365948Y-84873799D01*
X159409145Y-84854071D01*
X159448648Y-84832538D01*
X159484594Y-84809152D01*
X159517117Y-84783865D01*
X159546357Y-84756631D01*
X159572448Y-84727400D01*
X159595528Y-84696126D01*
X159615733Y-84662761D01*
X159633200Y-84627259D01*
X159648066Y-84589570D01*
X159660466Y-84549648D01*
X159670538Y-84507445D01*
X159678419Y-84462914D01*
X159684244Y-84416008D01*
X159688151Y-84366677D01*
X159690276Y-84314876D01*
X159690755Y-84260557D01*
X159687325Y-84144173D01*
X159038566Y-84144173D01*
X159037157Y-84193254D01*
X159032611Y-84237274D01*
X159024454Y-84276495D01*
X159018873Y-84294387D01*
X159012210Y-84311178D01*
X159004408Y-84326900D01*
X158995405Y-84341585D01*
X158985144Y-84355266D01*
X158973563Y-84367976D01*
X158960605Y-84379748D01*
X158946210Y-84390614D01*
X158930317Y-84400607D01*
X158912869Y-84409759D01*
X158893805Y-84418104D01*
X158873066Y-84425674D01*
X158826325Y-84438618D01*
X158772172Y-84448854D01*
X158710131Y-84456643D01*
X158639728Y-84462246D01*
X158560486Y-84465924D01*
X158471931Y-84467940D01*
X158373588Y-84468554D01*
X157854583Y-84468554D01*
X157759277Y-84467706D01*
X157673736Y-84464816D01*
X157597460Y-84459359D01*
X157529951Y-84450814D01*
X157499328Y-84445220D01*
X157470710Y-84438658D01*
X157444034Y-84431062D01*
X157419237Y-84422367D01*
X157396259Y-84412509D01*
X157375035Y-84401420D01*
X157355504Y-84389037D01*
X157337604Y-84375294D01*
X157321272Y-84360125D01*
X157306445Y-84343466D01*
X157293062Y-84325250D01*
X157281059Y-84305413D01*
X157270375Y-84283889D01*
X157260948Y-84260613D01*
X157252714Y-84235519D01*
X157245612Y-84208542D01*
X157239578Y-84179618D01*
X157234552Y-84148679D01*
X157230470Y-84115662D01*
X157227270Y-84080501D01*
X157223267Y-84003485D01*
X157222043Y-83917108D01*
X157222043Y-83641386D01*
X157223275Y-83549481D01*
X157227333Y-83467982D01*
X157234766Y-83396272D01*
X157239918Y-83363895D01*
X157246118Y-83333733D01*
X157253436Y-83305709D01*
X157261938Y-83279746D01*
X157271693Y-83255767D01*
X157282770Y-83233695D01*
X157295236Y-83213452D01*
X157309161Y-83194961D01*
X157324613Y-83178145D01*
X157341659Y-83162927D01*
X157360368Y-83149229D01*
X157380808Y-83136975D01*
X157403049Y-83126087D01*
X157427157Y-83116488D01*
X157453201Y-83108100D01*
X157481251Y-83100847D01*
X157511373Y-83094651D01*
X157543636Y-83089435D01*
X157614859Y-83081634D01*
X157695467Y-83076827D01*
X157786005Y-83074396D01*
X157887021Y-83073723D01*
X158373588Y-83073723D01*
X158428295Y-83074008D01*
X158479951Y-83074863D01*
X158528643Y-83076289D01*
X158574458Y-83078284D01*
X158617481Y-83080850D01*
X158657798Y-83083986D01*
X158695496Y-83087693D01*
X158730661Y-83091969D01*
X158763379Y-83096816D01*
X158793735Y-83102233D01*
X158821817Y-83108220D01*
X158847710Y-83114777D01*
X158871500Y-83121905D01*
X158893274Y-83129602D01*
X158913118Y-83137870D01*
X158931117Y-83146708D01*
X158947358Y-83156117D01*
X158961927Y-83166095D01*
X158974911Y-83176644D01*
X158986394Y-83187762D01*
X158996464Y-83199452D01*
X159005207Y-83211711D01*
X159012708Y-83224540D01*
X159019054Y-83237940D01*
X159024330Y-83251910D01*
X159028624Y-83266450D01*
X159032021Y-83281560D01*
X159034607Y-83297240D01*
X159036468Y-83313491D01*
X159037691Y-83330312D01*
X159038566Y-83365664D01*
X159687325Y-83365664D01*
X159684340Y-83241262D01*
X159674844Y-83129191D01*
X159658032Y-83028856D01*
X159646629Y-82982904D01*
X159633093Y-82939663D01*
X159617325Y-82899060D01*
X159599222Y-82861020D01*
X159578684Y-82825468D01*
X159555610Y-82792331D01*
X159529899Y-82761534D01*
X159501449Y-82733003D01*
X159470161Y-82706663D01*
X159435932Y-82682441D01*
X159398663Y-82660262D01*
X159358251Y-82640053D01*
X159314596Y-82621737D01*
X159267598Y-82605243D01*
X159163165Y-82577418D01*
X159044144Y-82555984D01*
X159033257Y-82554718D01*
X160076582Y-82554718D01*
X160076582Y-84144175D01*
X160080050Y-84258251D01*
X160090647Y-84363417D01*
X160098707Y-84412726D01*
X160108656Y-84459887D01*
X160120529Y-84504929D01*
X160134362Y-84547876D01*
X160150192Y-84588757D01*
X160168052Y-84627597D01*
X160187979Y-84664424D01*
X160210009Y-84699264D01*
X160234178Y-84732144D01*
X160260520Y-84763090D01*
X160289071Y-84792130D01*
X160319868Y-84819290D01*
X160352946Y-84844597D01*
X160388340Y-84868078D01*
X160426086Y-84889759D01*
X160466219Y-84909667D01*
X160508776Y-84927828D01*
X160553793Y-84944271D01*
X160601303Y-84959020D01*
X160651344Y-84972103D01*
X160759159Y-84993379D01*
X160877522Y-85008311D01*
X161006720Y-85017113D01*
X161147035Y-85020000D01*
X162071516Y-85020000D01*
X162217178Y-85017291D01*
X162350343Y-85008976D01*
X162412372Y-85002626D01*
X162471438Y-84994768D01*
X162527594Y-84985366D01*
X162580893Y-84974384D01*
X162631388Y-84961786D01*
X162679133Y-84947537D01*
X162724182Y-84931601D01*
X162766587Y-84913943D01*
X162806403Y-84894526D01*
X162843683Y-84873316D01*
X162878480Y-84850276D01*
X162910848Y-84825372D01*
X162940840Y-84798566D01*
X162968509Y-84769825D01*
X162993910Y-84739111D01*
X163017095Y-84706390D01*
X163038119Y-84671626D01*
X163057033Y-84634783D01*
X163073893Y-84595825D01*
X163088751Y-84554718D01*
X163101661Y-84511424D01*
X163112676Y-84465909D01*
X163121849Y-84418137D01*
X163129235Y-84368073D01*
X163134887Y-84315680D01*
X163138858Y-84260923D01*
X163141970Y-84144175D01*
X163141965Y-84144175D01*
X163141965Y-82554718D01*
X162509425Y-82554718D01*
X162509425Y-84079300D01*
X162507687Y-84140347D01*
X162502361Y-84195905D01*
X162498301Y-84221693D01*
X162493282Y-84246190D01*
X162487282Y-84269421D01*
X162480282Y-84291413D01*
X162472260Y-84312194D01*
X162463195Y-84331791D01*
X162453068Y-84350228D01*
X162441856Y-84367535D01*
X162429540Y-84383736D01*
X162416099Y-84398860D01*
X162401510Y-84412932D01*
X162385755Y-84425980D01*
X162368812Y-84438030D01*
X162350660Y-84449109D01*
X162331279Y-84459243D01*
X162310647Y-84468460D01*
X162288745Y-84476785D01*
X162265550Y-84484247D01*
X162241043Y-84490871D01*
X162215203Y-84496684D01*
X162159438Y-84505986D01*
X162098091Y-84512365D01*
X162030994Y-84516035D01*
X161957982Y-84517211D01*
X161276784Y-84517211D01*
X161200916Y-84516035D01*
X161131320Y-84512365D01*
X161067806Y-84505986D01*
X161038271Y-84501714D01*
X161010185Y-84496684D01*
X160983524Y-84490871D01*
X160958265Y-84484247D01*
X160934384Y-84476785D01*
X160911857Y-84468460D01*
X160890661Y-84459243D01*
X160870771Y-84449109D01*
X160852165Y-84438030D01*
X160834817Y-84425980D01*
X160818705Y-84412932D01*
X160803805Y-84398860D01*
X160790093Y-84383736D01*
X160777545Y-84367535D01*
X160766137Y-84350228D01*
X160755846Y-84331791D01*
X160746647Y-84312194D01*
X160738518Y-84291413D01*
X160731434Y-84269421D01*
X160725372Y-84246190D01*
X160720307Y-84221693D01*
X160716217Y-84195905D01*
X160713077Y-84168799D01*
X160710864Y-84140347D01*
X160709553Y-84110523D01*
X160709121Y-84079300D01*
X160709121Y-82554718D01*
X160076582Y-82554718D01*
X159033257Y-82554718D01*
X158909728Y-82540347D01*
X158883055Y-82538500D01*
X163515002Y-82538500D01*
X163515002Y-85003781D01*
X164147542Y-85003781D01*
X164147542Y-84273928D01*
X165396402Y-84273928D01*
X165449249Y-84275262D01*
X165474262Y-84276935D01*
X165498342Y-84279281D01*
X165521496Y-84282305D01*
X165543729Y-84286009D01*
X165565047Y-84290396D01*
X165585457Y-84295469D01*
X165604963Y-84301230D01*
X165623573Y-84307684D01*
X165641292Y-84314833D01*
X165658126Y-84322680D01*
X165674080Y-84331227D01*
X165689162Y-84340478D01*
X165703376Y-84350436D01*
X165716729Y-84361104D01*
X165729227Y-84372485D01*
X165740876Y-84384581D01*
X165751681Y-84397396D01*
X165761648Y-84410933D01*
X165770784Y-84425194D01*
X165779094Y-84440183D01*
X165786585Y-84455903D01*
X165793262Y-84472356D01*
X165799131Y-84489545D01*
X165804199Y-84507474D01*
X165808470Y-84526146D01*
X165811952Y-84545563D01*
X165814649Y-84565728D01*
X165816569Y-84586644D01*
X165817716Y-84608315D01*
X165818097Y-84630743D01*
X165818097Y-85020000D01*
X166434413Y-85020000D01*
X166434413Y-84484775D01*
X166434176Y-84457878D01*
X166433467Y-84431917D01*
X166432288Y-84406876D01*
X166430643Y-84382742D01*
X166428535Y-84359498D01*
X166425967Y-84337130D01*
X166422942Y-84315623D01*
X166419462Y-84294963D01*
X166415530Y-84275134D01*
X166411150Y-84256122D01*
X166406325Y-84237912D01*
X166401057Y-84220489D01*
X166395350Y-84203838D01*
X166389206Y-84187944D01*
X166382629Y-84172793D01*
X166375621Y-84158369D01*
X166368185Y-84144658D01*
X166360325Y-84131645D01*
X166352042Y-84119315D01*
X166343341Y-84107653D01*
X166334225Y-84096645D01*
X166324695Y-84086275D01*
X166314756Y-84076528D01*
X166304410Y-84067391D01*
X166293660Y-84058847D01*
X166282509Y-84050883D01*
X166270960Y-84043482D01*
X166259016Y-84036631D01*
X166246679Y-84030315D01*
X166233954Y-84024519D01*
X166220843Y-84019227D01*
X166207349Y-84014425D01*
X166236445Y-83995589D01*
X166262975Y-83975493D01*
X166287035Y-83954020D01*
X166308718Y-83931049D01*
X166328121Y-83906464D01*
X166345337Y-83880143D01*
X166360463Y-83851970D01*
X166373593Y-83821825D01*
X166384823Y-83789589D01*
X166394247Y-83755143D01*
X166401960Y-83718370D01*
X166408057Y-83679149D01*
X166412635Y-83637362D01*
X166415786Y-83592891D01*
X166417608Y-83545616D01*
X166418194Y-83495419D01*
X166418194Y-83333229D01*
X166414931Y-83228083D01*
X166405016Y-83131442D01*
X166397505Y-83086237D01*
X166388259Y-83043070D01*
X166377255Y-83001910D01*
X166364469Y-82962727D01*
X166349878Y-82925493D01*
X166333457Y-82890177D01*
X166315183Y-82856751D01*
X166295032Y-82825183D01*
X166272981Y-82795444D01*
X166249005Y-82767506D01*
X166223081Y-82741337D01*
X166195185Y-82716908D01*
X166165293Y-82694191D01*
X166133382Y-82673154D01*
X166099428Y-82653768D01*
X166063406Y-82636004D01*
X166025294Y-82619831D01*
X165985067Y-82605221D01*
X165942702Y-82592143D01*
X165898175Y-82580568D01*
X165802540Y-82561806D01*
X165697972Y-82548700D01*
X165584280Y-82541010D01*
X165461275Y-82538500D01*
X166904770Y-82538500D01*
X166904770Y-85003781D01*
X169597116Y-85003781D01*
X169597116Y-84517211D01*
X167537305Y-84517211D01*
X167537305Y-83981987D01*
X169532235Y-83981987D01*
X169532235Y-83479200D01*
X167537305Y-83479200D01*
X167537305Y-83025069D01*
X169597116Y-83025069D01*
X169597116Y-82538500D01*
X166904770Y-82538500D01*
X165461275Y-82538500D01*
X163515002Y-82538500D01*
X158883055Y-82538500D01*
X158759110Y-82529913D01*
X158591480Y-82524089D01*
X158406031Y-82522279D01*
X157838368Y-82522279D01*
X157663975Y-82524334D01*
X157505309Y-82531117D01*
X157361754Y-82543555D01*
X157295450Y-82552183D01*
X157232691Y-82562573D01*
X157173402Y-82574840D01*
X157117503Y-82589099D01*
X157064919Y-82605467D01*
X157015573Y-82624059D01*
X156969386Y-82644992D01*
X156926281Y-82668380D01*
X156886182Y-82694341D01*
X156849011Y-82722989D01*
X156814692Y-82754440D01*
X156783146Y-82788811D01*
X156754296Y-82826217D01*
X156728066Y-82866774D01*
X156704378Y-82910597D01*
X156683155Y-82957803D01*
X156664320Y-83008508D01*
X156647795Y-83062827D01*
X156633503Y-83120875D01*
X156621368Y-83182770D01*
X156611311Y-83248626D01*
X156603256Y-83318560D01*
X156592842Y-83471124D01*
X156589508Y-83641387D01*
X156589508Y-83949547D01*
X156167818Y-83949547D01*
X156167818Y-83462980D01*
X154172886Y-83462980D01*
X154172886Y-83008848D01*
X156232693Y-83008848D01*
X156232693Y-82522280D01*
X153540346Y-82522280D01*
X153540346Y-84971344D01*
X148183156Y-84971344D01*
X148227777Y-84968103D01*
X148299857Y-84960155D01*
X148367765Y-84950562D01*
X148431610Y-84939210D01*
X148491502Y-84925988D01*
X148547551Y-84910782D01*
X148599867Y-84893479D01*
X148648560Y-84873966D01*
X148693740Y-84852131D01*
X148735516Y-84827861D01*
X148773999Y-84801043D01*
X148809298Y-84771564D01*
X148841524Y-84739312D01*
X148870785Y-84704172D01*
X148897193Y-84666033D01*
X148920857Y-84624782D01*
X148941886Y-84580306D01*
X148960391Y-84532491D01*
X148976482Y-84481226D01*
X148990268Y-84426397D01*
X149001860Y-84367891D01*
X149011366Y-84305596D01*
X149018898Y-84239399D01*
X149028477Y-84094846D01*
X149031474Y-83933329D01*
X149047696Y-83933329D01*
X149047696Y-83641387D01*
X149044698Y-83481815D01*
X149035120Y-83337187D01*
X149018081Y-83206861D01*
X149006489Y-83146861D01*
X148992703Y-83090196D01*
X148976612Y-83036786D01*
X148958107Y-82986551D01*
X148937078Y-82939410D01*
X148913431Y-82895315D01*
X149388295Y-82895315D01*
X149391965Y-83024524D01*
X149403215Y-83139075D01*
X149411793Y-83191143D01*
X149422399Y-83239893D01*
X149435079Y-83285442D01*
X149449876Y-83327905D01*
X149466834Y-83367399D01*
X149486000Y-83404039D01*
X149507416Y-83437940D01*
X149531128Y-83469220D01*
X149557181Y-83497992D01*
X149585618Y-83524374D01*
X149616484Y-83548481D01*
X149649824Y-83570430D01*
X149685683Y-83590335D01*
X149724104Y-83608312D01*
X149765133Y-83624478D01*
X149808814Y-83638948D01*
X149904310Y-83663265D01*
X150010949Y-83682188D01*
X150129087Y-83696645D01*
X150259080Y-83707562D01*
X150556059Y-83722482D01*
X151772481Y-83771139D01*
X151850657Y-83775139D01*
X151886863Y-83777866D01*
X151921207Y-83781086D01*
X151953734Y-83784805D01*
X151984487Y-83789029D01*
X152013512Y-83793764D01*
X152040853Y-83799015D01*
X152066555Y-83804790D01*
X152090662Y-83811092D01*
X152113219Y-83817930D01*
X152134271Y-83825308D01*
X152153861Y-83833232D01*
X152172034Y-83841709D01*
X152188836Y-83850744D01*
X152204310Y-83860343D01*
X152218501Y-83870513D01*
X152231453Y-83881258D01*
X152243212Y-83892586D01*
X152253822Y-83904502D01*
X152263326Y-83917012D01*
X152271771Y-83930121D01*
X152279200Y-83943837D01*
X152285658Y-83958164D01*
X152291189Y-83973109D01*
X152295838Y-83988678D01*
X152299650Y-84004876D01*
X152302668Y-84021710D01*
X152304939Y-84039185D01*
X152306505Y-84057308D01*
X152307413Y-84076084D01*
X152307705Y-84095519D01*
X152307183Y-84116334D01*
X152305622Y-84136217D01*
X152303028Y-84155184D01*
X152299406Y-84173256D01*
X152294762Y-84190448D01*
X152289102Y-84206778D01*
X152282433Y-84222266D01*
X152274760Y-84236927D01*
X152266090Y-84250781D01*
X152256427Y-84263845D01*
X152245778Y-84276137D01*
X152234149Y-84287675D01*
X152221547Y-84298476D01*
X152207976Y-84308558D01*
X152193443Y-84317940D01*
X152177953Y-84326639D01*
X152144129Y-84342058D01*
X152106552Y-84354958D01*
X152065268Y-84365483D01*
X152020325Y-84373775D01*
X151971771Y-84379976D01*
X151919653Y-84384229D01*
X151864019Y-84386676D01*
X151804917Y-84387460D01*
X150539840Y-84387460D01*
X150492343Y-84384728D01*
X150430520Y-84377006D01*
X150356770Y-84365008D01*
X150273493Y-84349447D01*
X150087957Y-84310483D01*
X149893108Y-84265818D01*
X149552256Y-84182189D01*
X149404511Y-84144175D01*
X149407620Y-84249864D01*
X149417214Y-84348021D01*
X149433698Y-84438718D01*
X149444650Y-84481292D01*
X149457476Y-84522027D01*
X149472227Y-84560932D01*
X149488952Y-84598018D01*
X149507703Y-84633291D01*
X149528529Y-84666762D01*
X149551482Y-84698439D01*
X149576612Y-84728331D01*
X149603969Y-84756448D01*
X149633604Y-84782797D01*
X149665567Y-84807388D01*
X149699910Y-84830230D01*
X149736681Y-84851332D01*
X149775932Y-84870703D01*
X149817714Y-84888350D01*
X149862076Y-84904285D01*
X149909069Y-84918514D01*
X149958744Y-84931048D01*
X150011152Y-84941895D01*
X150066342Y-84951065D01*
X150185272Y-84964405D01*
X150315939Y-84971140D01*
X150458746Y-84971342D01*
X152015766Y-84971342D01*
X152158756Y-84968273D01*
X152225800Y-84964406D01*
X152289937Y-84958956D01*
X152351212Y-84951902D01*
X152409667Y-84943224D01*
X152465349Y-84932901D01*
X152518302Y-84920911D01*
X152568570Y-84907235D01*
X152616198Y-84891851D01*
X152661231Y-84874738D01*
X152703712Y-84855877D01*
X152743687Y-84835245D01*
X152781200Y-84812823D01*
X152816295Y-84788589D01*
X152849018Y-84762522D01*
X152879412Y-84734603D01*
X152907522Y-84704809D01*
X152933394Y-84673121D01*
X152957070Y-84639518D01*
X152978597Y-84603978D01*
X152998018Y-84566481D01*
X153015377Y-84527006D01*
X153030721Y-84485533D01*
X153044092Y-84442040D01*
X153055536Y-84396506D01*
X153065098Y-84348912D01*
X153072820Y-84299236D01*
X153078750Y-84247458D01*
X153082930Y-84193556D01*
X153086220Y-84079299D01*
X153085175Y-84008337D01*
X153082039Y-83941342D01*
X153076812Y-83878197D01*
X153069494Y-83818781D01*
X153060086Y-83762977D01*
X153048587Y-83710666D01*
X153034997Y-83661728D01*
X153019316Y-83616044D01*
X153001545Y-83573497D01*
X152981683Y-83533968D01*
X152959730Y-83497336D01*
X152935687Y-83463485D01*
X152909553Y-83432294D01*
X152881328Y-83403646D01*
X152851012Y-83377421D01*
X152818606Y-83353500D01*
X152784109Y-83331765D01*
X152747521Y-83312097D01*
X152708842Y-83294378D01*
X152668073Y-83278487D01*
X152580262Y-83251720D01*
X152484089Y-83230844D01*
X152379553Y-83214910D01*
X152266653Y-83202968D01*
X152145391Y-83194067D01*
X152015766Y-83187256D01*
X150620936Y-83138599D01*
X150579327Y-83138361D01*
X150539714Y-83137458D01*
X150502191Y-83135605D01*
X150466855Y-83132516D01*
X150450036Y-83130420D01*
X150433799Y-83127907D01*
X150418156Y-83124943D01*
X150403119Y-83121493D01*
X150388700Y-83117519D01*
X150374910Y-83112987D01*
X150361762Y-83107861D01*
X150349267Y-83102106D01*
X150337437Y-83095685D01*
X150326285Y-83088564D01*
X150315821Y-83080705D01*
X150306059Y-83072075D01*
X150297009Y-83062637D01*
X150288683Y-83052356D01*
X150281095Y-83041195D01*
X150274254Y-83029120D01*
X150268174Y-83016095D01*
X150262866Y-83002083D01*
X150258342Y-82987050D01*
X150254614Y-82970960D01*
X150251694Y-82953777D01*
X150249593Y-82935465D01*
X150248324Y-82915989D01*
X150247898Y-82895314D01*
X150248370Y-82874545D01*
X150249771Y-82854798D01*
X150252081Y-82836049D01*
X150255279Y-82818274D01*
X150259345Y-82801449D01*
X150264256Y-82785551D01*
X150269993Y-82770556D01*
X150276535Y-82756440D01*
X150283861Y-82743179D01*
X150291950Y-82730749D01*
X150300782Y-82719127D01*
X150310335Y-82708290D01*
X150320589Y-82698212D01*
X150331524Y-82688871D01*
X150343117Y-82680243D01*
X150355349Y-82672304D01*
X150368199Y-82665030D01*
X150381646Y-82658397D01*
X150395669Y-82652383D01*
X150410247Y-82646962D01*
X150440986Y-82637807D01*
X150473697Y-82630743D01*
X150508214Y-82625579D01*
X150544370Y-82622126D01*
X150582000Y-82620194D01*
X150620936Y-82619592D01*
X151886015Y-82619592D01*
X151952950Y-82622324D01*
X152030719Y-82630046D01*
X152117230Y-82642044D01*
X152210394Y-82657605D01*
X152408316Y-82696569D01*
X152607759Y-82741234D01*
X152791996Y-82785900D01*
X152944302Y-82824863D01*
X153086218Y-82862877D01*
X153081834Y-82762712D01*
X153076342Y-82715053D01*
X153068637Y-82669009D01*
X153058710Y-82624581D01*
X153046553Y-82581769D01*
X153032157Y-82540572D01*
X153024465Y-82522280D01*
X153015513Y-82500991D01*
X152996612Y-82463025D01*
X152975445Y-82426675D01*
X152952003Y-82391941D01*
X152926277Y-82358822D01*
X152898258Y-82327318D01*
X152867938Y-82297431D01*
X152835308Y-82269158D01*
X152800358Y-82242501D01*
X152763080Y-82217460D01*
X152723464Y-82194035D01*
X152681503Y-82172225D01*
X152637186Y-82152030D01*
X152590506Y-82133451D01*
X152541452Y-82116488D01*
X152436191Y-82087408D01*
X152321332Y-82064790D01*
X152196803Y-82048634D01*
X152062533Y-82038941D01*
X151918451Y-82035710D01*
X150523620Y-82035710D01*
X150377230Y-82038414D01*
X150242007Y-82046702D01*
X150178508Y-82053021D01*
X150117712Y-82060834D01*
X150059588Y-82070174D01*
X150004108Y-82081072D01*
X149951241Y-82093563D01*
X149900957Y-82107678D01*
X149853228Y-82123450D01*
X149808023Y-82140911D01*
X149765313Y-82160096D01*
X149725067Y-82181035D01*
X149687257Y-82203762D01*
X149651853Y-82228310D01*
X149618824Y-82254711D01*
X149588141Y-82282998D01*
X149559775Y-82313203D01*
X149533695Y-82345359D01*
X149509872Y-82379499D01*
X149488277Y-82415656D01*
X149468880Y-82453862D01*
X149451650Y-82494149D01*
X149436558Y-82536551D01*
X149423576Y-82581100D01*
X149412671Y-82627829D01*
X149403817Y-82676771D01*
X149396981Y-82727957D01*
X149392135Y-82781422D01*
X149389250Y-82837197D01*
X149388295Y-82895315D01*
X148913431Y-82895315D01*
X148913414Y-82895283D01*
X148887006Y-82854091D01*
X148857744Y-82815753D01*
X148825519Y-82780188D01*
X148790219Y-82747317D01*
X148751737Y-82717060D01*
X148709960Y-82689335D01*
X148664780Y-82664064D01*
X148616087Y-82641165D01*
X148563771Y-82620560D01*
X148507722Y-82602166D01*
X148447830Y-82585905D01*
X148383985Y-82571696D01*
X148243998Y-82549114D01*
X148086881Y-82533778D01*
X147911755Y-82525047D01*
X147717742Y-82522279D01*
X147166298Y-82522279D01*
X146981031Y-82525051D01*
X146813915Y-82533810D01*
X146664096Y-82549221D01*
X146595405Y-82559629D01*
X146530717Y-82571950D01*
X146469925Y-82586266D01*
X146412923Y-82602661D01*
X146359604Y-82621218D01*
X146309860Y-82642021D01*
X146263585Y-82665151D01*
X146220672Y-82690693D01*
X146181013Y-82718730D01*
X146144503Y-82749345D01*
X146111033Y-82782620D01*
X146080498Y-82818639D01*
X146052790Y-82857486D01*
X146027802Y-82899243D01*
X146005428Y-82943994D01*
X145985560Y-82991821D01*
X145968092Y-83042808D01*
X145952916Y-83097038D01*
X145939927Y-83154595D01*
X145929016Y-83215560D01*
X145920077Y-83280018D01*
X145913003Y-83348052D01*
X145904022Y-83495179D01*
X145901219Y-83657606D01*
X145901219Y-83949547D01*
X145509320Y-83949547D01*
X145511962Y-83884673D01*
X145511962Y-83527856D01*
X145352307Y-83479959D01*
X145161291Y-83431207D01*
X144903751Y-83375803D01*
X144585391Y-83321159D01*
X144405185Y-83296439D01*
X144211911Y-83274688D01*
X144006283Y-83256834D01*
X143789014Y-83243803D01*
X143560816Y-83236521D01*
X143322402Y-83235915D01*
X144733452Y-83803578D01*
X144733452Y-84030643D01*
X144731821Y-84079906D01*
X144726483Y-84124441D01*
X144716774Y-84164462D01*
X144702027Y-84200182D01*
X144692558Y-84216497D01*
X144681579Y-84231816D01*
X144669009Y-84246168D01*
X144654764Y-84259578D01*
X144638761Y-84272073D01*
X144620916Y-84283680D01*
X144579371Y-84304338D01*
X144529463Y-84321765D01*
X144470526Y-84336174D01*
X144401897Y-84347780D01*
X144322908Y-84356796D01*
X144232896Y-84363436D01*
X144131195Y-84367915D01*
X144017140Y-84370445D01*
X143890065Y-84371241D01*
X143273744Y-84371241D01*
X143158268Y-84369831D01*
X143054694Y-84365285D01*
X142962381Y-84357128D01*
X142920248Y-84351547D01*
X142880689Y-84344885D01*
X142843625Y-84337082D01*
X142808975Y-84328080D01*
X142776659Y-84317819D01*
X142746598Y-84306238D01*
X142718710Y-84293280D01*
X142692916Y-84278885D01*
X142669135Y-84262993D01*
X142647288Y-84245544D01*
X142627294Y-84226480D01*
X142609073Y-84205741D01*
X142592545Y-84183268D01*
X142577629Y-84159001D01*
X142564246Y-84132881D01*
X142552315Y-84104848D01*
X142541756Y-84074844D01*
X142532489Y-84042808D01*
X142524434Y-84008681D01*
X142517510Y-83972404D01*
X142506736Y-83893163D01*
X142499526Y-83804608D01*
X142495239Y-83706265D01*
X142495239Y-83398104D01*
X142497036Y-83285850D01*
X142502778Y-83185832D01*
X142512986Y-83097360D01*
X142519929Y-83057239D01*
X142528184Y-83019746D01*
X142537816Y-82984795D01*
X142548893Y-82952300D01*
X142561478Y-82922176D01*
X142575637Y-82894334D01*
X142591435Y-82868691D01*
X142608938Y-82845159D01*
X142628211Y-82823652D01*
X142649319Y-82804085D01*
X142672328Y-82786371D01*
X142697303Y-82770423D01*
X142724309Y-82756157D01*
X142753412Y-82743486D01*
X142784677Y-82732323D01*
X142818169Y-82722582D01*
X142853954Y-82714178D01*
X142892097Y-82707025D01*
X142975718Y-82696123D01*
X143069555Y-82689190D01*
X143174131Y-82685535D01*
X143289968Y-82684470D01*
X143890067Y-82684470D01*
X144025885Y-82687567D01*
X144164649Y-82696317D01*
X144304743Y-82709915D01*
X144444553Y-82727552D01*
X144582462Y-82748419D01*
X144716854Y-82771710D01*
X144846115Y-82796617D01*
X144968628Y-82822331D01*
X145186951Y-82872952D01*
X145358898Y-82917110D01*
X145511965Y-82960192D01*
X145508009Y-82834879D01*
X145495524Y-82720234D01*
X145473583Y-82615899D01*
X145458777Y-82567487D01*
X145441260Y-82521520D01*
X145420916Y-82477952D01*
X145397628Y-82436738D01*
X145371282Y-82397836D01*
X145341761Y-82361199D01*
X145308949Y-82326784D01*
X145272731Y-82294545D01*
X145232991Y-82264439D01*
X145189613Y-82236421D01*
X145142481Y-82210446D01*
X145091479Y-82186469D01*
X145036493Y-82164447D01*
X144977404Y-82144334D01*
X144846461Y-82109659D01*
X144697723Y-82082087D01*
X144530263Y-82061263D01*
X144343155Y-82046830D01*
X144135472Y-82038431D01*
X143906289Y-82035711D01*
X143208872Y-82035711D01*
X142997365Y-82039243D01*
X142806218Y-82050283D01*
X142634505Y-82069495D01*
X142555647Y-82082374D01*
X142481300Y-82097546D01*
X142411349Y-82115093D01*
X142345676Y-82135100D01*
X142284168Y-82157648D01*
X142226707Y-82182822D01*
X142173178Y-82210704D01*
X142123466Y-82241378D01*
X142077453Y-82274927D01*
X142035026Y-82311433D01*
X141996067Y-82350981D01*
X141960461Y-82393653D01*
X141928092Y-82439532D01*
X141898844Y-82488701D01*
X141872601Y-82541245D01*
X141849248Y-82597245D01*
X141828669Y-82656785D01*
X141810748Y-82719948D01*
X141795369Y-82786818D01*
X141782417Y-82857477D01*
X141771774Y-82932008D01*
X141763327Y-83010495D01*
X141752552Y-83179670D01*
X141749167Y-83365665D01*
X141749167Y-83819797D01*
X140986871Y-83819797D01*
X140986871Y-81370734D01*
X138699998Y-81370734D01*
X138699998Y-82051930D01*
X136899695Y-82051930D01*
X136899695Y-85020000D01*
X133720778Y-85020000D01*
X132536794Y-83836015D01*
X141376125Y-74996684D01*
X165704563Y-74996684D01*
X174365484Y-83657606D01*
G37*
G36*
X140240797Y-85003781D02*
G01*
X138700000Y-85003781D01*
X138700000Y-84338802D01*
X137580891Y-84338802D01*
X137580891Y-82733125D01*
X138700000Y-82733125D01*
X138700000Y-82051930D01*
X140240797Y-82051930D01*
X140240797Y-85003781D01*
G37*
G36*
X138700000Y-85020000D02*
G01*
X138699998Y-85020000D01*
X138699998Y-85003781D01*
X138700000Y-85003781D01*
X138700000Y-85020000D01*
G37*
G36*
X154622842Y-119640314D02*
G01*
X154673138Y-119645703D01*
X154722484Y-119654229D01*
X154771022Y-119665439D01*
X154818895Y-119678882D01*
X154866245Y-119694107D01*
X154959947Y-119728097D01*
X155053270Y-119763798D01*
X155100144Y-119781161D01*
X155147352Y-119797597D01*
X155195035Y-119812655D01*
X155243335Y-119825884D01*
X155274284Y-119831452D01*
X155306184Y-119836213D01*
X155372073Y-119844640D01*
X155439484Y-119853827D01*
X155473284Y-119859538D01*
X155506894Y-119866436D01*
X155540124Y-119874854D01*
X155572784Y-119885125D01*
X155604683Y-119897583D01*
X155620289Y-119904735D01*
X155635633Y-119912558D01*
X155650692Y-119921094D01*
X155665442Y-119930384D01*
X155679859Y-119940471D01*
X155693920Y-119951394D01*
X155707601Y-119963197D01*
X155720878Y-119975920D01*
X155733728Y-119989606D01*
X155746126Y-120004295D01*
X155774049Y-120033597D01*
X155803018Y-120060808D01*
X155832937Y-120086118D01*
X155863712Y-120109718D01*
X155895247Y-120131797D01*
X155927447Y-120152546D01*
X155960217Y-120172154D01*
X155993463Y-120190812D01*
X156265131Y-120328675D01*
X156269646Y-120327296D01*
X156274068Y-120326196D01*
X156278402Y-120325369D01*
X156282649Y-120324810D01*
X156286813Y-120324512D01*
X156290897Y-120324470D01*
X156294904Y-120324676D01*
X156298836Y-120325127D01*
X156302697Y-120325815D01*
X156306490Y-120326735D01*
X156310218Y-120327880D01*
X156313883Y-120329245D01*
X156317489Y-120330824D01*
X156321038Y-120332611D01*
X156324534Y-120334600D01*
X156327979Y-120336784D01*
X156331377Y-120339159D01*
X156334730Y-120341718D01*
X156341315Y-120347365D01*
X156347758Y-120353677D01*
X156354081Y-120360606D01*
X156360310Y-120368106D01*
X156366467Y-120376129D01*
X156372577Y-120384626D01*
X156378663Y-120393552D01*
X156380465Y-120405388D01*
X156382813Y-120416589D01*
X156385684Y-120427184D01*
X156389053Y-120437203D01*
X156392898Y-120446675D01*
X156397195Y-120455631D01*
X156401919Y-120464099D01*
X156407046Y-120472111D01*
X156412554Y-120479694D01*
X156418419Y-120486880D01*
X156424616Y-120493698D01*
X156431121Y-120500177D01*
X156444965Y-120512238D01*
X156459758Y-120523301D01*
X156475312Y-120533604D01*
X156491436Y-120543384D01*
X156524634Y-120562326D01*
X156541328Y-120571964D01*
X156557832Y-120582029D01*
X156573957Y-120592759D01*
X156589511Y-120604392D01*
X156786787Y-120783628D01*
X156971067Y-120968590D01*
X157142281Y-121159302D01*
X157300356Y-121355786D01*
X157445222Y-121558068D01*
X157576807Y-121766170D01*
X157695040Y-121980117D01*
X157799849Y-122199933D01*
X157891164Y-122425640D01*
X157968913Y-122657263D01*
X158033024Y-122894826D01*
X158083427Y-123138352D01*
X158120051Y-123387866D01*
X158142823Y-123643390D01*
X158151673Y-123904949D01*
X158146529Y-124172566D01*
X158138546Y-124299906D01*
X158126762Y-124426462D01*
X158111176Y-124552209D01*
X158091789Y-124677126D01*
X158068601Y-124801187D01*
X158041611Y-124924370D01*
X158010820Y-125046649D01*
X157976228Y-125168002D01*
X157937834Y-125288405D01*
X157895640Y-125407833D01*
X157849643Y-125526264D01*
X157799846Y-125643673D01*
X157746248Y-125760037D01*
X157688848Y-125875332D01*
X157627647Y-125989534D01*
X157562644Y-126102619D01*
X157555771Y-126122163D01*
X157551704Y-126132660D01*
X157547186Y-126143418D01*
X157542193Y-126154271D01*
X157536701Y-126165053D01*
X157530686Y-126175598D01*
X157524125Y-126185739D01*
X157520632Y-126190606D01*
X157516993Y-126195309D01*
X157513206Y-126199829D01*
X157509268Y-126204143D01*
X157505175Y-126208232D01*
X157500925Y-126212075D01*
X157496514Y-126215650D01*
X157491940Y-126218937D01*
X157487200Y-126221915D01*
X157482290Y-126224564D01*
X157477208Y-126226862D01*
X157471951Y-126228789D01*
X157466516Y-126230324D01*
X157460900Y-126231446D01*
X157455100Y-126232134D01*
X157449112Y-126232368D01*
X157441698Y-126230660D01*
X157434652Y-126228587D01*
X157427962Y-126226163D01*
X157421616Y-126223403D01*
X157415604Y-126220323D01*
X157409912Y-126216937D01*
X157404529Y-126213260D01*
X157399443Y-126209307D01*
X157394641Y-126205092D01*
X157390114Y-126200631D01*
X157385847Y-126195938D01*
X157381830Y-126191029D01*
X157378051Y-126185917D01*
X157374497Y-126180618D01*
X157368019Y-126169519D01*
X157362301Y-126157850D01*
X157357249Y-126145730D01*
X157352766Y-126133277D01*
X157348759Y-126120610D01*
X157341790Y-126095110D01*
X157335580Y-126070181D01*
X157318094Y-125991811D01*
X157302128Y-125914581D01*
X157287683Y-125838111D01*
X157274759Y-125762021D01*
X157263355Y-125685931D01*
X157253471Y-125609461D01*
X157245108Y-125532230D01*
X157238265Y-125453860D01*
X157227633Y-125384673D01*
X157214032Y-125316982D01*
X157197532Y-125250765D01*
X157178205Y-125185996D01*
X157156122Y-125122653D01*
X157131354Y-125060712D01*
X157103973Y-125000148D01*
X157074049Y-124940939D01*
X157041655Y-124883060D01*
X157006861Y-124826488D01*
X156969739Y-124771199D01*
X156930360Y-124717169D01*
X156888795Y-124664374D01*
X156845115Y-124612791D01*
X156799392Y-124562396D01*
X156751698Y-124513165D01*
X156751698Y-124496946D01*
X156729258Y-124434425D01*
X156704467Y-124374637D01*
X156677252Y-124317652D01*
X156647542Y-124263542D01*
X156615266Y-124212378D01*
X156580354Y-124164232D01*
X156542732Y-124119174D01*
X156502331Y-124077277D01*
X156459079Y-124038610D01*
X156412905Y-124003246D01*
X156363737Y-123971256D01*
X156311505Y-123942711D01*
X156284217Y-123929753D01*
X156256136Y-123917682D01*
X156197560Y-123896241D01*
X156135705Y-123878458D01*
X156070501Y-123864406D01*
X156051064Y-123861081D01*
X156032274Y-123857195D01*
X156014114Y-123852757D01*
X155996566Y-123847775D01*
X155979612Y-123842259D01*
X155963234Y-123836216D01*
X155947414Y-123829658D01*
X155932134Y-123822591D01*
X155917378Y-123815025D01*
X155903126Y-123806970D01*
X155889361Y-123798433D01*
X155876065Y-123789424D01*
X155863221Y-123779952D01*
X155850810Y-123770025D01*
X155827219Y-123748845D01*
X155805147Y-123725954D01*
X155784454Y-123701423D01*
X155764995Y-123675325D01*
X155746630Y-123647730D01*
X155729215Y-123618709D01*
X155712608Y-123588334D01*
X155696666Y-123556677D01*
X155681247Y-123523807D01*
X154205322Y-120361109D01*
X154196599Y-120342866D01*
X154188754Y-120324647D01*
X154181908Y-120306476D01*
X154176178Y-120288376D01*
X154171683Y-120270371D01*
X154168543Y-120252484D01*
X154167518Y-120243593D01*
X154166876Y-120234741D01*
X154166632Y-120225930D01*
X154166800Y-120217164D01*
X154167397Y-120208445D01*
X154168435Y-120199777D01*
X154169932Y-120191162D01*
X154171900Y-120182603D01*
X154174355Y-120174104D01*
X154177313Y-120165668D01*
X154180787Y-120157297D01*
X154184793Y-120148994D01*
X154189345Y-120140762D01*
X154194458Y-120132605D01*
X154200148Y-120124525D01*
X154206429Y-120116525D01*
X154213315Y-120108608D01*
X154220822Y-120100778D01*
X154228965Y-120093036D01*
X154237758Y-120085387D01*
X154252758Y-120069991D01*
X154267282Y-120054216D01*
X154281236Y-120038060D01*
X154294525Y-120021524D01*
X154307054Y-120004609D01*
X154318727Y-119987313D01*
X154329450Y-119969637D01*
X154339128Y-119951581D01*
X154347665Y-119933144D01*
X154354967Y-119914328D01*
X154360939Y-119895131D01*
X154365484Y-119875555D01*
X154368510Y-119855598D01*
X154369919Y-119835261D01*
X154369989Y-119824949D01*
X154369618Y-119814543D01*
X154368797Y-119804042D01*
X154367512Y-119793446D01*
X154367699Y-119786030D01*
X154368248Y-119778977D01*
X154369142Y-119772268D01*
X154370363Y-119765886D01*
X154371892Y-119759812D01*
X154373713Y-119754030D01*
X154375806Y-119748521D01*
X154378156Y-119743268D01*
X154380742Y-119738252D01*
X154383549Y-119733455D01*
X154386557Y-119728861D01*
X154389750Y-119724451D01*
X154393109Y-119720207D01*
X154396616Y-119716112D01*
X154404005Y-119708295D01*
X154411774Y-119700859D01*
X154419780Y-119693661D01*
X154435936Y-119679406D01*
X154443799Y-119672065D01*
X154451331Y-119664392D01*
X154458387Y-119656244D01*
X154461692Y-119651947D01*
X154464825Y-119647477D01*
X154492007Y-119643524D01*
X154518828Y-119640750D01*
X154545303Y-119639098D01*
X154571452Y-119638513D01*
X154622842Y-119640314D01*
G37*
G36*
X153666144Y-120245646D02*
G01*
X153675953Y-120246335D01*
X153686314Y-120247574D01*
X153696583Y-120249329D01*
X153706117Y-120251538D01*
X153714945Y-120254181D01*
X153723093Y-120257236D01*
X153730587Y-120260683D01*
X153737455Y-120264502D01*
X153743723Y-120268671D01*
X153749417Y-120273170D01*
X153754565Y-120277978D01*
X153759194Y-120283073D01*
X153763329Y-120288436D01*
X153766999Y-120294046D01*
X153770228Y-120299881D01*
X153773045Y-120305921D01*
X153775476Y-120312146D01*
X153777547Y-120318533D01*
X153779286Y-120325063D01*
X153780719Y-120331715D01*
X153782774Y-120345301D01*
X153783927Y-120359125D01*
X153784390Y-120373020D01*
X153783630Y-120425985D01*
X153816068Y-121463996D01*
X153819109Y-121768355D01*
X153828232Y-122074234D01*
X153843437Y-122383154D01*
X153864723Y-122696637D01*
X153864494Y-122723975D01*
X153863646Y-122751123D01*
X153861943Y-122777891D01*
X153859148Y-122804089D01*
X153855022Y-122829526D01*
X153852385Y-122841900D01*
X153849327Y-122854013D01*
X153845818Y-122865840D01*
X153841827Y-122877359D01*
X153837326Y-122888545D01*
X153832284Y-122899375D01*
X153826672Y-122909824D01*
X153820461Y-122919870D01*
X153813619Y-122929488D01*
X153806118Y-122938655D01*
X153797929Y-122947346D01*
X153789020Y-122955539D01*
X153779363Y-122963209D01*
X153768929Y-122970332D01*
X153757686Y-122976886D01*
X153745606Y-122982845D01*
X153732659Y-122988186D01*
X153718815Y-122992887D01*
X153704044Y-122996922D01*
X153688317Y-123000267D01*
X153671604Y-123002901D01*
X153653876Y-123004797D01*
X153648491Y-123004829D01*
X153646249Y-123004904D01*
X153644246Y-123005051D01*
X153642432Y-123005292D01*
X153641582Y-123005456D01*
X153640761Y-123005653D01*
X153639964Y-123005885D01*
X153639185Y-123006156D01*
X153638418Y-123006468D01*
X153637657Y-123006825D01*
X153636896Y-123007229D01*
X153636128Y-123007684D01*
X153635349Y-123008192D01*
X153634552Y-123008757D01*
X153632881Y-123010068D01*
X153631068Y-123011640D01*
X153629064Y-123013497D01*
X153626823Y-123015663D01*
X153621438Y-123021017D01*
X153597311Y-123043978D01*
X153585413Y-123054395D01*
X153573636Y-123064066D01*
X153561990Y-123072965D01*
X153550484Y-123081065D01*
X153539126Y-123088339D01*
X153527925Y-123094761D01*
X153516891Y-123100304D01*
X153506032Y-123104942D01*
X153495357Y-123108647D01*
X153484876Y-123111392D01*
X153474596Y-123113152D01*
X153464527Y-123113899D01*
X153454677Y-123113606D01*
X153445057Y-123112248D01*
X153435674Y-123109796D01*
X153426537Y-123106225D01*
X153417656Y-123101508D01*
X153409039Y-123095617D01*
X153400696Y-123088527D01*
X153392634Y-123080210D01*
X153384864Y-123070640D01*
X153377393Y-123059790D01*
X153370232Y-123047633D01*
X153363388Y-123034143D01*
X153356871Y-123019292D01*
X153350689Y-123003055D01*
X153344852Y-122985404D01*
X153339368Y-122966312D01*
X153334247Y-122945754D01*
X153329497Y-122923701D01*
X153234209Y-123080822D01*
X153186946Y-123157482D01*
X153138923Y-123231862D01*
X153114388Y-123267958D01*
X153089379Y-123303200D01*
X153063799Y-123337491D01*
X153037555Y-123370737D01*
X153010550Y-123402842D01*
X152982690Y-123433712D01*
X152953879Y-123463251D01*
X152924023Y-123491364D01*
X152919554Y-123494543D01*
X152915257Y-123497978D01*
X152911114Y-123501638D01*
X152907108Y-123505494D01*
X152899434Y-123513676D01*
X152892093Y-123522285D01*
X152877838Y-123539835D01*
X152870639Y-123548301D01*
X152863202Y-123556245D01*
X152859351Y-123559946D01*
X152855386Y-123563428D01*
X152851291Y-123566660D01*
X152847047Y-123569613D01*
X152842636Y-123572257D01*
X152838042Y-123574562D01*
X152833246Y-123576499D01*
X152828230Y-123578038D01*
X152822976Y-123579150D01*
X152817467Y-123579804D01*
X152811685Y-123579971D01*
X152805612Y-123579621D01*
X152799230Y-123578725D01*
X152792521Y-123577252D01*
X152785468Y-123575174D01*
X152778053Y-123572460D01*
X152770963Y-123569278D01*
X152764859Y-123565820D01*
X152759681Y-123562094D01*
X152755371Y-123558110D01*
X152751869Y-123553877D01*
X152749115Y-123549403D01*
X152747050Y-123544697D01*
X152745614Y-123539768D01*
X152744749Y-123534626D01*
X152744395Y-123529279D01*
X152744492Y-123523736D01*
X152744981Y-123518006D01*
X152746897Y-123506019D01*
X152749669Y-123493392D01*
X152755878Y-123466497D01*
X152758365Y-123452372D01*
X152759246Y-123445172D01*
X152759806Y-123437892D01*
X152759986Y-123430540D01*
X152759727Y-123423126D01*
X152758969Y-123415658D01*
X152757652Y-123408146D01*
X152755718Y-123400598D01*
X152753106Y-123393023D01*
X152749758Y-123385431D01*
X152745614Y-123377830D01*
X152712741Y-123417557D01*
X152681056Y-123457689D01*
X152650606Y-123498248D01*
X152621439Y-123539258D01*
X152593603Y-123580744D01*
X152567144Y-123622728D01*
X152542111Y-123665236D01*
X152518551Y-123708290D01*
X152496511Y-123751914D01*
X152476039Y-123796132D01*
X152457183Y-123840968D01*
X152439990Y-123886445D01*
X152424508Y-123932588D01*
X152410783Y-123979420D01*
X152398865Y-124026965D01*
X152388799Y-124075246D01*
X152386265Y-124091148D01*
X152384491Y-124108190D01*
X152381703Y-124144175D01*
X152379929Y-124162358D01*
X152377395Y-124180161D01*
X152375724Y-124188801D01*
X152373720Y-124197203D01*
X152371337Y-124205321D01*
X152368525Y-124213106D01*
X152365239Y-124220510D01*
X152361429Y-124227487D01*
X152357050Y-124233989D01*
X152352053Y-124239968D01*
X152346390Y-124245377D01*
X152340015Y-124250169D01*
X152332880Y-124254295D01*
X152324937Y-124257708D01*
X152316138Y-124260361D01*
X152306437Y-124262206D01*
X152295785Y-124263196D01*
X152284136Y-124263283D01*
X152271441Y-124262420D01*
X152257653Y-124260559D01*
X152242725Y-124257652D01*
X152226609Y-124253653D01*
X152223570Y-124252321D01*
X152220543Y-124251356D01*
X152217539Y-124250749D01*
X152214572Y-124250485D01*
X152211651Y-124250555D01*
X152208790Y-124250945D01*
X152206001Y-124251644D01*
X152203294Y-124252640D01*
X152200683Y-124253921D01*
X152198178Y-124255475D01*
X152195793Y-124257291D01*
X152193538Y-124259356D01*
X152191425Y-124261659D01*
X152189467Y-124264187D01*
X152187676Y-124266930D01*
X152186062Y-124269874D01*
X152184638Y-124273008D01*
X152183417Y-124276321D01*
X152182409Y-124279799D01*
X152181627Y-124283432D01*
X152181083Y-124287208D01*
X152180788Y-124291114D01*
X152180754Y-124295140D01*
X152180994Y-124299271D01*
X152181518Y-124303498D01*
X152182340Y-124307808D01*
X152183470Y-124312190D01*
X152184921Y-124316630D01*
X152186705Y-124321119D01*
X152188833Y-124325642D01*
X152191318Y-124330190D01*
X152194171Y-124334749D01*
X152200435Y-124343876D01*
X152207032Y-124353026D01*
X152221034Y-124371494D01*
X152250938Y-124409761D01*
X152266079Y-124429941D01*
X152273532Y-124440375D01*
X152280841Y-124451070D01*
X152287960Y-124462051D01*
X152294842Y-124473341D01*
X152301439Y-124484963D01*
X152307703Y-124496941D01*
X152323736Y-124518411D01*
X152340933Y-124540213D01*
X152375874Y-124584625D01*
X152392144Y-124607140D01*
X152406633Y-124629798D01*
X152412979Y-124641165D01*
X152418603Y-124652550D01*
X152423414Y-124663947D01*
X152427319Y-124675350D01*
X152430225Y-124686753D01*
X152432042Y-124698150D01*
X152432678Y-124709535D01*
X152432038Y-124720902D01*
X152430033Y-124732246D01*
X152426570Y-124743560D01*
X152421556Y-124754838D01*
X152414901Y-124766075D01*
X152406510Y-124777264D01*
X152396294Y-124788400D01*
X152384159Y-124799476D01*
X152370013Y-124810487D01*
X152353765Y-124821427D01*
X152335322Y-124832289D01*
X152314592Y-124843069D01*
X152291484Y-124853759D01*
X152287063Y-124855420D01*
X152282919Y-124857354D01*
X152279042Y-124859549D01*
X152275423Y-124861994D01*
X152272054Y-124864676D01*
X152268925Y-124867584D01*
X152266028Y-124870706D01*
X152263353Y-124874030D01*
X152260893Y-124877544D01*
X152258637Y-124881237D01*
X152256578Y-124885095D01*
X152254705Y-124889108D01*
X152251486Y-124897550D01*
X152248908Y-124906467D01*
X152246901Y-124915765D01*
X152245392Y-124925347D01*
X152244311Y-124935120D01*
X152243586Y-124944987D01*
X152242921Y-124964628D01*
X152242826Y-124983508D01*
X152242921Y-125026052D01*
X152243586Y-125068405D01*
X152245392Y-125110377D01*
X152246901Y-125131162D01*
X152248908Y-125151780D01*
X152251486Y-125172208D01*
X152254705Y-125192422D01*
X152258637Y-125212399D01*
X152263353Y-125232114D01*
X152268925Y-125251544D01*
X152275423Y-125270666D01*
X152282919Y-125289455D01*
X152291484Y-125307887D01*
X152303248Y-125329001D01*
X152314133Y-125349829D01*
X152324021Y-125370468D01*
X152332792Y-125391011D01*
X152340327Y-125411554D01*
X152346509Y-125432192D01*
X152351217Y-125453020D01*
X152354333Y-125474134D01*
X152355739Y-125495627D01*
X152355315Y-125517596D01*
X152352943Y-125540134D01*
X152350989Y-125551647D01*
X152348504Y-125563338D01*
X152345473Y-125575219D01*
X152341880Y-125587302D01*
X152332950Y-125612121D01*
X152321598Y-125637891D01*
X152307703Y-125664705D01*
X152300898Y-125679132D01*
X152295650Y-125694969D01*
X152291898Y-125712107D01*
X152289584Y-125730436D01*
X152288647Y-125749846D01*
X152289030Y-125770227D01*
X152290671Y-125791469D01*
X152293512Y-125813462D01*
X152297494Y-125836098D01*
X152302557Y-125859264D01*
X152315687Y-125906753D01*
X152332429Y-125955050D01*
X152352307Y-126003275D01*
X152374846Y-126050550D01*
X152399570Y-126095996D01*
X152426006Y-126138733D01*
X152453676Y-126177883D01*
X152482107Y-126212566D01*
X152496458Y-126227958D01*
X152510822Y-126241904D01*
X152525138Y-126254293D01*
X152539348Y-126265017D01*
X152553391Y-126273964D01*
X152567208Y-126281026D01*
X152576049Y-126284162D01*
X152584341Y-126287484D01*
X152592105Y-126290991D01*
X152599360Y-126294679D01*
X152606129Y-126298545D01*
X152612431Y-126302587D01*
X152618288Y-126306800D01*
X152623720Y-126311183D01*
X152628749Y-126315733D01*
X152633394Y-126320445D01*
X152637677Y-126325318D01*
X152641618Y-126330349D01*
X152645239Y-126335533D01*
X152648559Y-126340869D01*
X152651601Y-126346354D01*
X152654384Y-126351984D01*
X152659258Y-126363669D01*
X152663349Y-126375901D01*
X152666821Y-126388655D01*
X152669843Y-126401908D01*
X152680740Y-126459433D01*
X152682862Y-126483578D01*
X152683274Y-126507392D01*
X152682166Y-126530920D01*
X152679727Y-126554211D01*
X152676147Y-126577312D01*
X152671617Y-126600270D01*
X152666327Y-126623133D01*
X152660467Y-126645949D01*
X152635125Y-126737689D01*
X152629265Y-126760980D01*
X152623975Y-126784509D01*
X152619445Y-126808323D01*
X152615865Y-126832470D01*
X152621900Y-126835276D01*
X152627839Y-126837628D01*
X152633684Y-126839547D01*
X152639433Y-126841053D01*
X152645088Y-126842167D01*
X152650647Y-126842909D01*
X152656111Y-126843302D01*
X152661481Y-126843364D01*
X152666755Y-126843118D01*
X152671934Y-126842584D01*
X152677018Y-126841782D01*
X152682008Y-126840734D01*
X152686902Y-126839460D01*
X152691701Y-126837982D01*
X152696405Y-126836319D01*
X152701014Y-126834493D01*
X152709947Y-126830434D01*
X152718500Y-126825971D01*
X152726673Y-126821271D01*
X152734466Y-126816499D01*
X152748911Y-126807408D01*
X152755564Y-126803420D01*
X152761836Y-126800027D01*
X152773984Y-126794162D01*
X152786038Y-126788844D01*
X152797901Y-126784239D01*
X152809479Y-126780513D01*
X152815132Y-126779031D01*
X152820678Y-126777832D01*
X152826104Y-126776936D01*
X152831400Y-126776363D01*
X152836554Y-126776135D01*
X152841553Y-126776272D01*
X152846386Y-126776795D01*
X152851040Y-126777725D01*
X152855505Y-126779083D01*
X152859768Y-126780889D01*
X152863816Y-126783164D01*
X152867639Y-126785930D01*
X152871225Y-126789206D01*
X152874561Y-126793014D01*
X152877635Y-126797374D01*
X152880437Y-126802307D01*
X152882953Y-126807835D01*
X152885173Y-126813977D01*
X152887083Y-126820754D01*
X152888673Y-126828188D01*
X152889930Y-126836299D01*
X152890843Y-126845108D01*
X152891399Y-126854636D01*
X152891587Y-126864903D01*
X152891956Y-126886009D01*
X152893013Y-126906782D01*
X152894688Y-126927269D01*
X152896909Y-126947519D01*
X152902706Y-126987496D01*
X152909834Y-127027093D01*
X152925800Y-127106667D01*
X152933497Y-127147405D01*
X152940245Y-127189283D01*
X152943775Y-127225071D01*
X152945294Y-127259488D01*
X152944882Y-127292586D01*
X152942621Y-127324419D01*
X152938589Y-127355040D01*
X152932868Y-127384503D01*
X152925537Y-127412861D01*
X152916677Y-127440168D01*
X152906367Y-127466477D01*
X152894688Y-127491842D01*
X152881721Y-127516316D01*
X152867545Y-127539953D01*
X152852240Y-127562805D01*
X152835887Y-127584927D01*
X152818565Y-127606372D01*
X152800356Y-127627193D01*
X152761594Y-127667178D01*
X152720243Y-127705310D01*
X152676943Y-127742016D01*
X152632337Y-127777725D01*
X152541771Y-127847859D01*
X152497094Y-127883140D01*
X152453676Y-127919133D01*
X152407316Y-127958077D01*
X152359530Y-127995761D01*
X152310414Y-128032067D01*
X152260062Y-128066877D01*
X152208570Y-128100072D01*
X152156033Y-128131532D01*
X152102545Y-128161138D01*
X152048202Y-128188773D01*
X151993098Y-128214318D01*
X151937330Y-128237652D01*
X151880991Y-128258659D01*
X151824177Y-128277218D01*
X151766983Y-128293212D01*
X151709504Y-128306520D01*
X151651836Y-128317026D01*
X151594072Y-128324609D01*
X151548642Y-128328386D01*
X151503568Y-128333542D01*
X151458827Y-128339933D01*
X151414395Y-128347417D01*
X151326362Y-128365093D01*
X151239280Y-128385430D01*
X151067207Y-128429525D01*
X150981836Y-128451001D01*
X150896655Y-128470577D01*
X150831078Y-128484626D01*
X150768138Y-128502381D01*
X150707811Y-128523748D01*
X150650075Y-128548631D01*
X150594904Y-128576935D01*
X150542275Y-128608565D01*
X150492165Y-128643426D01*
X150444549Y-128681424D01*
X150399405Y-128722462D01*
X150356707Y-128766446D01*
X150316433Y-128813282D01*
X150278558Y-128862873D01*
X150243060Y-128915125D01*
X150209913Y-128969943D01*
X150179095Y-129027232D01*
X150150581Y-129086897D01*
X150098757Y-129197137D01*
X150043132Y-129308896D01*
X149987506Y-129422176D01*
X149960881Y-129479385D01*
X149935682Y-129536975D01*
X149912383Y-129594945D01*
X149891460Y-129653295D01*
X149873388Y-129712025D01*
X149858642Y-129771135D01*
X149847697Y-129830626D01*
X149841029Y-129890496D01*
X149839113Y-129950747D01*
X149840085Y-129981015D01*
X149842423Y-130011378D01*
X149849848Y-130102056D01*
X149853922Y-130191688D01*
X149854718Y-130280370D01*
X149852307Y-130368197D01*
X149846759Y-130455264D01*
X149838147Y-130541665D01*
X149826541Y-130627496D01*
X149812012Y-130712851D01*
X149794633Y-130797827D01*
X149774474Y-130882517D01*
X149751606Y-130967017D01*
X149726102Y-131051422D01*
X149698031Y-131135827D01*
X149667466Y-131220327D01*
X149634478Y-131305017D01*
X149599137Y-131389992D01*
X149567558Y-131466576D01*
X149539615Y-131544230D01*
X149515140Y-131622881D01*
X149493967Y-131702460D01*
X149475931Y-131782893D01*
X149460865Y-131864111D01*
X149448602Y-131946042D01*
X149438976Y-132028614D01*
X149431821Y-132111756D01*
X149426970Y-132195398D01*
X149424258Y-132279467D01*
X149423518Y-132363892D01*
X149427288Y-132533526D01*
X149436950Y-132703729D01*
X149439425Y-132724830D01*
X149440783Y-132745574D01*
X149441048Y-132765986D01*
X149440244Y-132786089D01*
X149438395Y-132805907D01*
X149435524Y-132825463D01*
X149431655Y-132844782D01*
X149426812Y-132863888D01*
X149421019Y-132882803D01*
X149414299Y-132901552D01*
X149406676Y-132920158D01*
X149398175Y-132938646D01*
X149388818Y-132957039D01*
X149378630Y-132975360D01*
X149367634Y-132993634D01*
X149355854Y-133011885D01*
X149332096Y-133042672D01*
X149309478Y-133074196D01*
X149288000Y-133106432D01*
X149267663Y-133139358D01*
X149248467Y-133172948D01*
X149230410Y-133207180D01*
X149213494Y-133242030D01*
X149197719Y-133277473D01*
X149183084Y-133313487D01*
X149169589Y-133350047D01*
X149157235Y-133387129D01*
X149146021Y-133424710D01*
X149135948Y-133462767D01*
X149127015Y-133501274D01*
X149119222Y-133540209D01*
X149112570Y-133579548D01*
X149106100Y-133611107D01*
X149102565Y-133625476D01*
X149098822Y-133638913D01*
X149094865Y-133651423D01*
X149090689Y-133663012D01*
X149086287Y-133673686D01*
X149081653Y-133683452D01*
X149076781Y-133692315D01*
X149071667Y-133700281D01*
X149066302Y-133707356D01*
X149060682Y-133713546D01*
X149054801Y-133718857D01*
X149048653Y-133723295D01*
X149042231Y-133726866D01*
X149035531Y-133729575D01*
X149028545Y-133731430D01*
X149021268Y-133732434D01*
X149013694Y-133732596D01*
X149005817Y-133731920D01*
X148997632Y-133730412D01*
X148989131Y-133728079D01*
X148980310Y-133724926D01*
X148971162Y-133720959D01*
X148961682Y-133716185D01*
X148951863Y-133710608D01*
X148941699Y-133704236D01*
X148931185Y-133697074D01*
X148920315Y-133689127D01*
X148909082Y-133680403D01*
X148885506Y-133660644D01*
X148561127Y-133368707D01*
X148542817Y-133344505D01*
X148533543Y-133332642D01*
X148524127Y-133321064D01*
X148514520Y-133309865D01*
X148504676Y-133299142D01*
X148494547Y-133288989D01*
X148484086Y-133279502D01*
X148473244Y-133270774D01*
X148461975Y-133262902D01*
X148456165Y-133259317D01*
X148450230Y-133255981D01*
X148444165Y-133252906D01*
X148437963Y-133250104D01*
X148431619Y-133247588D01*
X148425126Y-133245369D01*
X148418478Y-133243458D01*
X148411671Y-133241868D01*
X148404697Y-133240611D01*
X148397551Y-133239698D01*
X148390226Y-133239142D01*
X148382718Y-133238954D01*
X148322752Y-133189474D01*
X148293517Y-133164045D01*
X148264877Y-133138094D01*
X148236901Y-133111572D01*
X148209663Y-133084433D01*
X148183232Y-133056628D01*
X148157680Y-133028111D01*
X148133078Y-132998833D01*
X148109498Y-132968747D01*
X148087011Y-132937806D01*
X148065688Y-132905962D01*
X148045601Y-132873167D01*
X148026820Y-132839375D01*
X148009417Y-132804537D01*
X147993464Y-132768606D01*
X147993285Y-132765383D01*
X147992798Y-132761827D01*
X147992074Y-132757986D01*
X147991183Y-132753908D01*
X147989187Y-132745229D01*
X147988224Y-132740723D01*
X147987381Y-132736170D01*
X147986727Y-132731617D01*
X147986335Y-132727111D01*
X147986276Y-132722700D01*
X147986393Y-132720545D01*
X147986620Y-132718432D01*
X147986966Y-132716366D01*
X147987440Y-132714354D01*
X147988050Y-132712401D01*
X147988806Y-132710513D01*
X147989717Y-132708696D01*
X147990790Y-132706957D01*
X147992036Y-132705301D01*
X147993464Y-132703734D01*
X148196010Y-132294109D01*
X148391333Y-131880874D01*
X148767917Y-131047371D01*
X149138419Y-130210829D01*
X149326141Y-129793793D01*
X149518043Y-129378848D01*
X149524474Y-129360597D01*
X149531475Y-129342323D01*
X149546427Y-129305609D01*
X149561378Y-129268514D01*
X149568379Y-129249765D01*
X149574810Y-129230850D01*
X149580480Y-129211744D01*
X149585200Y-129192425D01*
X149588779Y-129172868D01*
X149591028Y-129153050D01*
X149591756Y-129132947D01*
X149591491Y-129122780D01*
X149590774Y-129112534D01*
X149589582Y-129102205D01*
X149587891Y-129091789D01*
X149585678Y-129081284D01*
X149582918Y-129070688D01*
X149612224Y-129036499D01*
X149639463Y-129000932D01*
X149664848Y-128964131D01*
X149688595Y-128926236D01*
X149710916Y-128887391D01*
X149732025Y-128847739D01*
X149752137Y-128807421D01*
X149771464Y-128766580D01*
X149845210Y-128600843D01*
X149882938Y-128518545D01*
X149902764Y-128478038D01*
X149923517Y-128438148D01*
X150017979Y-128254956D01*
X150107501Y-128070434D01*
X150193221Y-127884771D01*
X150276280Y-127698158D01*
X150438977Y-127322841D01*
X150604714Y-126946004D01*
X151348759Y-125291671D01*
X152080639Y-123637337D01*
X153410593Y-120653050D01*
X153419534Y-120637658D01*
X153428142Y-120621910D01*
X153444552Y-120589440D01*
X153460201Y-120555829D01*
X153475469Y-120521269D01*
X153506387Y-120450056D01*
X153522797Y-120413785D01*
X153540346Y-120377323D01*
X153546618Y-120352457D01*
X153550110Y-120339870D01*
X153554030Y-120327401D01*
X153558520Y-120315217D01*
X153563723Y-120303485D01*
X153566636Y-120297840D01*
X153569781Y-120292370D01*
X153573175Y-120287096D01*
X153576837Y-120282039D01*
X153580784Y-120277220D01*
X153585034Y-120272659D01*
X153589604Y-120268377D01*
X153594513Y-120264395D01*
X153599778Y-120260734D01*
X153605418Y-120257414D01*
X153611450Y-120254457D01*
X153617891Y-120251882D01*
X153624760Y-120249712D01*
X153632075Y-120247966D01*
X153639852Y-120246666D01*
X153648111Y-120245832D01*
X153656869Y-120245485D01*
X153666144Y-120245646D01*
G37*
D11*
X127044147Y-134992301D02*
X127925409Y-134111038D01*
X127925409Y-134992301D02*
X127044147Y-134111038D01*
X123512398Y-78546647D02*
X124393661Y-79427909D01*
X123512398Y-79427909D02*
X124393661Y-78546647D01*
X177044147Y-126992301D02*
X177925409Y-126111038D01*
X179255249Y-76074621D02*
X180136512Y-75193359D01*
X180136512Y-76074621D02*
X179255249Y-75193359D01*
X182430078Y-130757749D02*
X183311340Y-131639012D01*
X182430078Y-131639012D02*
X183311340Y-130757749D01*
X131512398Y-128546647D02*
X132393661Y-129427909D01*
X174430078Y-80257749D02*
X175311340Y-81139012D01*
D12*
X174060913Y-76600952D02*
X174644630Y-77184668D01*
X174644630Y-77184668D02*
X174722459Y-77340326D01*
X174722459Y-77340326D02*
X174722459Y-77495984D01*
X174722459Y-77495984D02*
X174644630Y-77651642D01*
X174644630Y-77651642D02*
X174566801Y-77729471D01*
X175267261Y-77029011D02*
X174450057Y-76211808D01*
X174450057Y-76211808D02*
X174761373Y-75900492D01*
X174761373Y-75900492D02*
X174878116Y-75861578D01*
X174878116Y-75861578D02*
X174955945Y-75861578D01*
X174955945Y-75861578D02*
X175072689Y-75900492D01*
X175072689Y-75900492D02*
X175189432Y-76017235D01*
X175189432Y-76017235D02*
X175228346Y-76133979D01*
X175228346Y-76133979D02*
X175228346Y-76211808D01*
X175228346Y-76211808D02*
X175189432Y-76328551D01*
X175189432Y-76328551D02*
X174878116Y-76639867D01*
X176512523Y-75783749D02*
X176045550Y-76250722D01*
X176279036Y-76017235D02*
X175461833Y-75200032D01*
X175461833Y-75200032D02*
X175500747Y-75394604D01*
X175500747Y-75394604D02*
X175500747Y-75550262D01*
X175500747Y-75550262D02*
X175461833Y-75667005D01*
X132941286Y-133406247D02*
X132357569Y-132822531D01*
X132357569Y-132822531D02*
X132279740Y-132666873D01*
X132279740Y-132666873D02*
X132279740Y-132511215D01*
X132279740Y-132511215D02*
X132357569Y-132355557D01*
X132357569Y-132355557D02*
X132435398Y-132277728D01*
X131734938Y-132978188D02*
X132552142Y-133795391D01*
X132552142Y-133795391D02*
X132240826Y-134106707D01*
X132240826Y-134106707D02*
X132124083Y-134145621D01*
X132124083Y-134145621D02*
X132046254Y-134145621D01*
X132046254Y-134145621D02*
X131929510Y-134106707D01*
X131929510Y-134106707D02*
X131812767Y-133989964D01*
X131812767Y-133989964D02*
X131773853Y-133873220D01*
X131773853Y-133873220D02*
X131773853Y-133795391D01*
X131773853Y-133795391D02*
X131812767Y-133678648D01*
X131812767Y-133678648D02*
X132124083Y-133367332D01*
X131812767Y-134534766D02*
X131306879Y-135040654D01*
X131306879Y-135040654D02*
X131267965Y-134456937D01*
X131267965Y-134456937D02*
X131151222Y-134573680D01*
X131151222Y-134573680D02*
X131034478Y-134612595D01*
X131034478Y-134612595D02*
X130956649Y-134612595D01*
X130956649Y-134612595D02*
X130839906Y-134573680D01*
X130839906Y-134573680D02*
X130645334Y-134379108D01*
X130645334Y-134379108D02*
X130606419Y-134262365D01*
X130606419Y-134262365D02*
X130606419Y-134184536D01*
X130606419Y-134184536D02*
X130645334Y-134067792D01*
X130645334Y-134067792D02*
X130878821Y-133834306D01*
X130878821Y-133834306D02*
X130995564Y-133795391D01*
X130995564Y-133795391D02*
X131073393Y-133795391D01*
X127763765Y-75480476D02*
X128347482Y-76064192D01*
X128347482Y-76064192D02*
X128425311Y-76219850D01*
X128425311Y-76219850D02*
X128425311Y-76375508D01*
X128425311Y-76375508D02*
X128347482Y-76531166D01*
X128347482Y-76531166D02*
X128269653Y-76608995D01*
X128970113Y-75908535D02*
X128152909Y-75091332D01*
X128152909Y-75091332D02*
X128464225Y-74780016D01*
X128464225Y-74780016D02*
X128580968Y-74741102D01*
X128580968Y-74741102D02*
X128658797Y-74741102D01*
X128658797Y-74741102D02*
X128775541Y-74780016D01*
X128775541Y-74780016D02*
X128892284Y-74896759D01*
X128892284Y-74896759D02*
X128931198Y-75013503D01*
X128931198Y-75013503D02*
X128931198Y-75091332D01*
X128931198Y-75091332D02*
X128892284Y-75208075D01*
X128892284Y-75208075D02*
X128580968Y-75519391D01*
X129592744Y-74196299D02*
X130137546Y-74741102D01*
X129086856Y-74079556D02*
X129476000Y-74857845D01*
X129476000Y-74857845D02*
X129981888Y-74351957D01*
X177903747Y-133563415D02*
X177320031Y-134147132D01*
X177320031Y-134147132D02*
X177164373Y-134224961D01*
X177164373Y-134224961D02*
X177008715Y-134224961D01*
X177008715Y-134224961D02*
X176853057Y-134147132D01*
X176853057Y-134147132D02*
X176775228Y-134069303D01*
X177475688Y-134769763D02*
X178292891Y-133952559D01*
X178292891Y-133952559D02*
X178604207Y-134263875D01*
X178604207Y-134263875D02*
X178643121Y-134380618D01*
X178643121Y-134380618D02*
X178643121Y-134458447D01*
X178643121Y-134458447D02*
X178604207Y-134575191D01*
X178604207Y-134575191D02*
X178487464Y-134691934D01*
X178487464Y-134691934D02*
X178370720Y-134730848D01*
X178370720Y-134730848D02*
X178292891Y-134730848D01*
X178292891Y-134730848D02*
X178176148Y-134691934D01*
X178176148Y-134691934D02*
X177864832Y-134380618D01*
X178993351Y-134808677D02*
X179071180Y-134808677D01*
X179071180Y-134808677D02*
X179187924Y-134847592D01*
X179187924Y-134847592D02*
X179382496Y-135042164D01*
X179382496Y-135042164D02*
X179421410Y-135158907D01*
X179421410Y-135158907D02*
X179421410Y-135236736D01*
X179421410Y-135236736D02*
X179382496Y-135353479D01*
X179382496Y-135353479D02*
X179304667Y-135431308D01*
X179304667Y-135431308D02*
X179149009Y-135509137D01*
X179149009Y-135509137D02*
X178215062Y-135509137D01*
X178215062Y-135509137D02*
X178720950Y-136015025D01*
D13*
%TO.C,JP1*%
X174459985Y-78656562D02*
X174459985Y-79554587D01*
X174459985Y-78656562D02*
X177154062Y-75962485D01*
X174459985Y-79554587D02*
X175358010Y-80452613D01*
X175358010Y-80452613D02*
X176256036Y-80452613D01*
X176256036Y-80452613D02*
X176256036Y-81350638D01*
X176256036Y-81350638D02*
X177154062Y-82248664D01*
X177154062Y-75962485D02*
X178052087Y-75962485D01*
X177154062Y-82248664D02*
X178052087Y-82248664D01*
X178052087Y-75962485D02*
X178950113Y-76860510D01*
X178052087Y-82248664D02*
X178052087Y-83146690D01*
X178052087Y-83146690D02*
X178950113Y-84044715D01*
X178950113Y-76860510D02*
X178950113Y-77758536D01*
X178950113Y-77758536D02*
X176256036Y-80452613D01*
X178950113Y-77758536D02*
X179848138Y-77758536D01*
X178950113Y-84044715D02*
X179848138Y-84044715D01*
X179848138Y-77758536D02*
X180746164Y-78656562D01*
X180746164Y-78656562D02*
X180746164Y-79554587D01*
X180746164Y-79554587D02*
X178052087Y-82248664D01*
X180746164Y-79554587D02*
X181644190Y-79554587D01*
X181644190Y-79554587D02*
X182542215Y-80452613D01*
X182542215Y-80452613D02*
X182542215Y-81350638D01*
X182542215Y-81350638D02*
X179848138Y-84044715D01*
%TO.C,JP3*%
X124459985Y-128656562D02*
X127154062Y-125962485D01*
X124459985Y-129554587D02*
X124459985Y-128656562D01*
X125358010Y-130452613D02*
X124459985Y-129554587D01*
X126256036Y-130452613D02*
X125358010Y-130452613D01*
X126256036Y-130452613D02*
X128950113Y-127758536D01*
X126256036Y-131350638D02*
X126256036Y-130452613D01*
X127154062Y-132248664D02*
X126256036Y-131350638D01*
X128052087Y-125962485D02*
X127154062Y-125962485D01*
X128052087Y-132248664D02*
X127154062Y-132248664D01*
X128052087Y-132248664D02*
X130746164Y-129554587D01*
X128052087Y-133146690D02*
X128052087Y-132248664D01*
X128950113Y-126860510D02*
X128052087Y-125962485D01*
X128950113Y-127758536D02*
X128950113Y-126860510D01*
X128950113Y-134044715D02*
X128052087Y-133146690D01*
X129848138Y-127758536D02*
X128950113Y-127758536D01*
X129848138Y-134044715D02*
X128950113Y-134044715D01*
X130746164Y-128656562D02*
X129848138Y-127758536D01*
X130746164Y-129554587D02*
X130746164Y-128656562D01*
X131644190Y-129554587D02*
X130746164Y-129554587D01*
X132542215Y-130452613D02*
X131644190Y-129554587D01*
X132542215Y-131350638D02*
X129848138Y-134044715D01*
X132542215Y-131350638D02*
X132542215Y-130452613D01*
%TO.C,JP4*%
X132542215Y-79554587D02*
X132542215Y-78656562D01*
X131644190Y-80452613D02*
X132542215Y-79554587D01*
X130746164Y-81350638D02*
X130746164Y-80452613D01*
X130746164Y-80452613D02*
X131644190Y-80452613D01*
X129848138Y-82248664D02*
X130746164Y-81350638D01*
X129848138Y-75962485D02*
X132542215Y-78656562D01*
X128950113Y-83146690D02*
X128950113Y-82248664D01*
X128950113Y-82248664D02*
X129848138Y-82248664D01*
X128950113Y-75962485D02*
X129848138Y-75962485D01*
X128052087Y-84044715D02*
X128950113Y-83146690D01*
X128052087Y-77758536D02*
X130746164Y-80452613D01*
X128052087Y-77758536D02*
X128052087Y-76860510D01*
X128052087Y-76860510D02*
X128950113Y-75962485D01*
X127154062Y-84044715D02*
X128052087Y-84044715D01*
X127154062Y-84044715D02*
X124459985Y-81350638D01*
X127154062Y-77758536D02*
X128052087Y-77758536D01*
X126256036Y-79554587D02*
X128950113Y-82248664D01*
X126256036Y-79554587D02*
X126256036Y-78656562D01*
X126256036Y-78656562D02*
X127154062Y-77758536D01*
X125358010Y-79554587D02*
X126256036Y-79554587D01*
X124459985Y-81350638D02*
X124459985Y-80452613D01*
X124459985Y-80452613D02*
X125358010Y-79554587D01*
%TO.C,JP2*%
X174459985Y-130452613D02*
X174459985Y-131350638D01*
X175358010Y-129554587D02*
X174459985Y-130452613D01*
X176256036Y-128656562D02*
X176256036Y-129554587D01*
X176256036Y-129554587D02*
X175358010Y-129554587D01*
X177154062Y-127758536D02*
X176256036Y-128656562D01*
X177154062Y-134044715D02*
X174459985Y-131350638D01*
X178052087Y-126860510D02*
X178052087Y-127758536D01*
X178052087Y-127758536D02*
X177154062Y-127758536D01*
X178052087Y-134044715D02*
X177154062Y-134044715D01*
X178950113Y-125962485D02*
X178052087Y-126860510D01*
X178950113Y-132248664D02*
X176256036Y-129554587D01*
X178950113Y-132248664D02*
X178950113Y-133146690D01*
X178950113Y-133146690D02*
X178052087Y-134044715D01*
X179848138Y-125962485D02*
X178950113Y-125962485D01*
X179848138Y-125962485D02*
X182542215Y-128656562D01*
X179848138Y-132248664D02*
X178950113Y-132248664D01*
X180746164Y-130452613D02*
X178052087Y-127758536D01*
X180746164Y-130452613D02*
X180746164Y-131350638D01*
X180746164Y-131350638D02*
X179848138Y-132248664D01*
X181644190Y-130452613D02*
X180746164Y-130452613D01*
X182542215Y-128656562D02*
X182542215Y-129554587D01*
X182542215Y-129554587D02*
X181644190Y-130452613D01*
%TD*%
M02*
