%TF.GenerationSoftware,KiCad,Pcbnew,8.0.8*%
%TF.CreationDate,2025-04-07T01:45:18-03:00*%
%TF.ProjectId,Sao_SlotMachine_v2,53616f5f-536c-46f7-944d-616368696e65,rev?*%
%TF.SameCoordinates,Original*%
%TF.FileFunction,Legend,Top*%
%TF.FilePolarity,Positive*%
%FSLAX46Y46*%
G04 Gerber Fmt 4.6, Leading zero omitted, Abs format (unit mm)*
G04 Created by KiCad (PCBNEW 8.0.8) date 2025-04-07 01:45:18*
%MOMM*%
%LPD*%
G01*
G04 APERTURE LIST*
%ADD10C,0.100000*%
%ADD11C,1.473228*%
%ADD12C,0.000000*%
%ADD13C,0.150000*%
%ADD14C,0.050000*%
G04 APERTURE END LIST*
D10*
X121238939Y-50460420D02*
X122069736Y-50519839D01*
X122896765Y-50618723D01*
X123718152Y-50756846D01*
X124532037Y-50933896D01*
X125336575Y-51149471D01*
X126129945Y-51403084D01*
X126910348Y-51694159D01*
X127676018Y-52022038D01*
X128425220Y-52385978D01*
X129156256Y-52785154D01*
X129867470Y-53218661D01*
X130557251Y-53685519D01*
X131145468Y-54129442D01*
X130870358Y-53917512D01*
X133489505Y-53883502D01*
X133543687Y-54137301D01*
X133712228Y-54032734D01*
X133952885Y-53933051D01*
X134206174Y-53872241D01*
X134465856Y-53851804D01*
X134725538Y-53872241D01*
X134978827Y-53933051D01*
X135219484Y-54032734D01*
X135441584Y-54168837D01*
X135639659Y-54338009D01*
X135808831Y-54536084D01*
X135944934Y-54758184D01*
X136044617Y-54998841D01*
X136105427Y-55252130D01*
X136125864Y-55511812D01*
X136105427Y-55771494D01*
X136044617Y-56024783D01*
X135944934Y-56265440D01*
X135808831Y-56487540D01*
X135639659Y-56685615D01*
X135441584Y-56854787D01*
X135219484Y-56990890D01*
X134994037Y-57084273D01*
X135002814Y-57084273D01*
X135000102Y-60918349D01*
X135002814Y-60904711D01*
X135000102Y-65839177D01*
X131172374Y-65836304D01*
X131172374Y-72205805D01*
X132519793Y-72205805D01*
X132525013Y-85285564D01*
X108386002Y-85285564D01*
X108386002Y-72205376D01*
X109698872Y-72205805D01*
X109698872Y-54326657D01*
X109698338Y-54174915D01*
X110255259Y-53685519D01*
X110945040Y-53218661D01*
X111656254Y-52785154D01*
X112387290Y-52385978D01*
X113136492Y-52022038D01*
X113902162Y-51694159D01*
X114682565Y-51403084D01*
X115475935Y-51149471D01*
X116280473Y-50933896D01*
X117094358Y-50756846D01*
X117915745Y-50618723D01*
X118742774Y-50519839D01*
X119573571Y-50460420D01*
X120406255Y-50440598D01*
X121238939Y-50460420D01*
X131172350Y-61099131D02*
X134008024Y-61081745D01*
X134008024Y-61081745D02*
X134001707Y-57096971D01*
X131145468Y-54175055D02*
X131172350Y-61099131D01*
X134003816Y-57089815D02*
G75*
G02*
X133531518Y-54171366I463284J1572415D01*
G01*
D11*
X135203749Y-55517388D02*
G75*
G02*
X133730521Y-55517388I-736614J0D01*
G01*
X133730521Y-55517388D02*
G75*
G02*
X135203749Y-55517388I736614J0D01*
G01*
D12*
G36*
X128864662Y-63318535D02*
G01*
X128862189Y-63318535D01*
X128862189Y-67747512D01*
X112105870Y-67753309D01*
X112104614Y-66644510D01*
X123752703Y-66644510D01*
X127778331Y-66642793D01*
X127778331Y-63318535D01*
X127777812Y-63318535D01*
X127777812Y-59992005D01*
X123759764Y-59992005D01*
X123755887Y-63318535D01*
X123752703Y-66644510D01*
X112104614Y-66644510D01*
X112100838Y-63310449D01*
X112100838Y-59992005D01*
X113253557Y-59992005D01*
X113253557Y-63310449D01*
X113259280Y-66636997D01*
X117275928Y-66636997D01*
X117271605Y-63310467D01*
X117271605Y-59992005D01*
X118457258Y-59992005D01*
X118457258Y-63310467D01*
X118458318Y-63310467D01*
X118458318Y-66636997D01*
X122480761Y-66636997D01*
X122480761Y-63318535D01*
X122475306Y-59992005D01*
X118457258Y-59992005D01*
X117271605Y-59992005D01*
X113253557Y-59992005D01*
X112100838Y-59992005D01*
X112100838Y-58872221D01*
X128864662Y-58872221D01*
X128864662Y-63318535D01*
G37*
D13*
X116289160Y-53322200D02*
X116432017Y-53369819D01*
X116432017Y-53369819D02*
X116670112Y-53369819D01*
X116670112Y-53369819D02*
X116765350Y-53322200D01*
X116765350Y-53322200D02*
X116812969Y-53274580D01*
X116812969Y-53274580D02*
X116860588Y-53179342D01*
X116860588Y-53179342D02*
X116860588Y-53084104D01*
X116860588Y-53084104D02*
X116812969Y-52988866D01*
X116812969Y-52988866D02*
X116765350Y-52941247D01*
X116765350Y-52941247D02*
X116670112Y-52893628D01*
X116670112Y-52893628D02*
X116479636Y-52846009D01*
X116479636Y-52846009D02*
X116384398Y-52798390D01*
X116384398Y-52798390D02*
X116336779Y-52750771D01*
X116336779Y-52750771D02*
X116289160Y-52655533D01*
X116289160Y-52655533D02*
X116289160Y-52560295D01*
X116289160Y-52560295D02*
X116336779Y-52465057D01*
X116336779Y-52465057D02*
X116384398Y-52417438D01*
X116384398Y-52417438D02*
X116479636Y-52369819D01*
X116479636Y-52369819D02*
X116717731Y-52369819D01*
X116717731Y-52369819D02*
X116860588Y-52417438D01*
X116574874Y-52226961D02*
X116574874Y-53512676D01*
X118336779Y-52369819D02*
X118336779Y-53084104D01*
X118336779Y-53084104D02*
X118289160Y-53226961D01*
X118289160Y-53226961D02*
X118193922Y-53322200D01*
X118193922Y-53322200D02*
X118051065Y-53369819D01*
X118051065Y-53369819D02*
X117955827Y-53369819D01*
X119241541Y-53369819D02*
X119241541Y-52846009D01*
X119241541Y-52846009D02*
X119193922Y-52750771D01*
X119193922Y-52750771D02*
X119098684Y-52703152D01*
X119098684Y-52703152D02*
X118908208Y-52703152D01*
X118908208Y-52703152D02*
X118812970Y-52750771D01*
X119241541Y-53322200D02*
X119146303Y-53369819D01*
X119146303Y-53369819D02*
X118908208Y-53369819D01*
X118908208Y-53369819D02*
X118812970Y-53322200D01*
X118812970Y-53322200D02*
X118765351Y-53226961D01*
X118765351Y-53226961D02*
X118765351Y-53131723D01*
X118765351Y-53131723D02*
X118812970Y-53036485D01*
X118812970Y-53036485D02*
X118908208Y-52988866D01*
X118908208Y-52988866D02*
X119146303Y-52988866D01*
X119146303Y-52988866D02*
X119241541Y-52941247D01*
X120146303Y-53322200D02*
X120051065Y-53369819D01*
X120051065Y-53369819D02*
X119860589Y-53369819D01*
X119860589Y-53369819D02*
X119765351Y-53322200D01*
X119765351Y-53322200D02*
X119717732Y-53274580D01*
X119717732Y-53274580D02*
X119670113Y-53179342D01*
X119670113Y-53179342D02*
X119670113Y-52893628D01*
X119670113Y-52893628D02*
X119717732Y-52798390D01*
X119717732Y-52798390D02*
X119765351Y-52750771D01*
X119765351Y-52750771D02*
X119860589Y-52703152D01*
X119860589Y-52703152D02*
X120051065Y-52703152D01*
X120051065Y-52703152D02*
X120146303Y-52750771D01*
X120574875Y-53369819D02*
X120574875Y-52369819D01*
X120670113Y-52988866D02*
X120955827Y-53369819D01*
X120955827Y-52703152D02*
X120574875Y-53084104D01*
X121384399Y-52703152D02*
X121384399Y-53703152D01*
X121384399Y-52750771D02*
X121479637Y-52703152D01*
X121479637Y-52703152D02*
X121670113Y-52703152D01*
X121670113Y-52703152D02*
X121765351Y-52750771D01*
X121765351Y-52750771D02*
X121812970Y-52798390D01*
X121812970Y-52798390D02*
X121860589Y-52893628D01*
X121860589Y-52893628D02*
X121860589Y-53179342D01*
X121860589Y-53179342D02*
X121812970Y-53274580D01*
X121812970Y-53274580D02*
X121765351Y-53322200D01*
X121765351Y-53322200D02*
X121670113Y-53369819D01*
X121670113Y-53369819D02*
X121479637Y-53369819D01*
X121479637Y-53369819D02*
X121384399Y-53322200D01*
X122432018Y-53369819D02*
X122336780Y-53322200D01*
X122336780Y-53322200D02*
X122289161Y-53274580D01*
X122289161Y-53274580D02*
X122241542Y-53179342D01*
X122241542Y-53179342D02*
X122241542Y-52893628D01*
X122241542Y-52893628D02*
X122289161Y-52798390D01*
X122289161Y-52798390D02*
X122336780Y-52750771D01*
X122336780Y-52750771D02*
X122432018Y-52703152D01*
X122432018Y-52703152D02*
X122574875Y-52703152D01*
X122574875Y-52703152D02*
X122670113Y-52750771D01*
X122670113Y-52750771D02*
X122717732Y-52798390D01*
X122717732Y-52798390D02*
X122765351Y-52893628D01*
X122765351Y-52893628D02*
X122765351Y-53179342D01*
X122765351Y-53179342D02*
X122717732Y-53274580D01*
X122717732Y-53274580D02*
X122670113Y-53322200D01*
X122670113Y-53322200D02*
X122574875Y-53369819D01*
X122574875Y-53369819D02*
X122432018Y-53369819D01*
X123051066Y-52703152D02*
X123432018Y-52703152D01*
X123193923Y-52369819D02*
X123193923Y-53226961D01*
X123193923Y-53226961D02*
X123241542Y-53322200D01*
X123241542Y-53322200D02*
X123336780Y-53369819D01*
X123336780Y-53369819D02*
X123432018Y-53369819D01*
X124479638Y-53322200D02*
X124622495Y-53369819D01*
X124622495Y-53369819D02*
X124860590Y-53369819D01*
X124860590Y-53369819D02*
X124955828Y-53322200D01*
X124955828Y-53322200D02*
X125003447Y-53274580D01*
X125003447Y-53274580D02*
X125051066Y-53179342D01*
X125051066Y-53179342D02*
X125051066Y-53084104D01*
X125051066Y-53084104D02*
X125003447Y-52988866D01*
X125003447Y-52988866D02*
X124955828Y-52941247D01*
X124955828Y-52941247D02*
X124860590Y-52893628D01*
X124860590Y-52893628D02*
X124670114Y-52846009D01*
X124670114Y-52846009D02*
X124574876Y-52798390D01*
X124574876Y-52798390D02*
X124527257Y-52750771D01*
X124527257Y-52750771D02*
X124479638Y-52655533D01*
X124479638Y-52655533D02*
X124479638Y-52560295D01*
X124479638Y-52560295D02*
X124527257Y-52465057D01*
X124527257Y-52465057D02*
X124574876Y-52417438D01*
X124574876Y-52417438D02*
X124670114Y-52369819D01*
X124670114Y-52369819D02*
X124908209Y-52369819D01*
X124908209Y-52369819D02*
X125051066Y-52417438D01*
X124765352Y-52226961D02*
X124765352Y-53512676D01*
G36*
X115774424Y-68788328D02*
G01*
X115788962Y-68837499D01*
X115808060Y-68882917D01*
X115829378Y-68920952D01*
X115861742Y-68964374D01*
X115898396Y-69004796D01*
X115933236Y-69039280D01*
X115961514Y-69065543D01*
X115999845Y-69101335D01*
X116035466Y-69137518D01*
X116067714Y-69175661D01*
X116082170Y-69197679D01*
X116101221Y-69244024D01*
X116107571Y-69291224D01*
X116100315Y-69341177D01*
X116076273Y-69386858D01*
X116063607Y-69401133D01*
X116021446Y-69431186D01*
X115971898Y-69444410D01*
X115956385Y-69445097D01*
X115905338Y-69436793D01*
X115861918Y-69413923D01*
X115859176Y-69411880D01*
X115823005Y-69376757D01*
X115792767Y-69333679D01*
X115781995Y-69314427D01*
X115784378Y-69368001D01*
X115791648Y-69419779D01*
X115805265Y-69467312D01*
X115808374Y-69474894D01*
X115834488Y-69518965D01*
X115870760Y-69554732D01*
X115890928Y-69568439D01*
X115938681Y-69589986D01*
X115986504Y-69601960D01*
X116035785Y-69608086D01*
X116041625Y-69608495D01*
X116046510Y-69633897D01*
X115501605Y-69633897D01*
X115507222Y-69608495D01*
X115559755Y-69604966D01*
X115613153Y-69592288D01*
X115659467Y-69570390D01*
X115698699Y-69539272D01*
X115703105Y-69534734D01*
X115733498Y-69493213D01*
X115754823Y-69442654D01*
X115766045Y-69391003D01*
X115770138Y-69341223D01*
X115770272Y-69314427D01*
X115744947Y-69358768D01*
X115712860Y-69396495D01*
X115693579Y-69412368D01*
X115648131Y-69435860D01*
X115597423Y-69444969D01*
X115590265Y-69445097D01*
X115539515Y-69436542D01*
X115495403Y-69410876D01*
X115484019Y-69400400D01*
X115453799Y-69357878D01*
X115440502Y-69308531D01*
X115439811Y-69293178D01*
X115446222Y-69242667D01*
X115462526Y-69202564D01*
X115491182Y-69160180D01*
X115526925Y-69121207D01*
X115562909Y-69089235D01*
X115602709Y-69055470D01*
X115641085Y-69020116D01*
X115665247Y-68994957D01*
X115696467Y-68957276D01*
X115725102Y-68916464D01*
X115738276Y-68893352D01*
X115757653Y-68848015D01*
X115771865Y-68799502D01*
X115774424Y-68788328D01*
G37*
G36*
X118895603Y-69650505D02*
G01*
X118880405Y-69600803D01*
X118861676Y-69553056D01*
X118839418Y-69507265D01*
X118834542Y-69498342D01*
X118806569Y-69452023D01*
X118776718Y-69407422D01*
X118745494Y-69363221D01*
X118715499Y-69322176D01*
X118681891Y-69277302D01*
X118648610Y-69233062D01*
X118618045Y-69191918D01*
X118589030Y-69151747D01*
X118579553Y-69137839D01*
X118553825Y-69094502D01*
X118533879Y-69049668D01*
X118522051Y-69001553D01*
X118519713Y-68968335D01*
X118525716Y-68918749D01*
X118545958Y-68871437D01*
X118570516Y-68840596D01*
X118612018Y-68809191D01*
X118660321Y-68792281D01*
X118696301Y-68789060D01*
X118745850Y-68795381D01*
X118794570Y-68816693D01*
X118827459Y-68842550D01*
X118858972Y-68881386D01*
X118883410Y-68928756D01*
X118895603Y-68961496D01*
X118913274Y-68912485D01*
X118937620Y-68869025D01*
X118959351Y-68843282D01*
X119000721Y-68811995D01*
X119046248Y-68793694D01*
X119091242Y-68788328D01*
X119143735Y-68795541D01*
X119189839Y-68817179D01*
X119217027Y-68839619D01*
X119248431Y-68880686D01*
X119265341Y-68927317D01*
X119268562Y-68961496D01*
X119263564Y-69012550D01*
X119250077Y-69061179D01*
X119238276Y-69090212D01*
X119213861Y-69136093D01*
X119186430Y-69178637D01*
X119156667Y-69220121D01*
X119126877Y-69258841D01*
X119121528Y-69265578D01*
X119087832Y-69308830D01*
X119057118Y-69349589D01*
X119024197Y-69395210D01*
X118995569Y-69437242D01*
X118967596Y-69481743D01*
X118957397Y-69499319D01*
X118933941Y-69545043D01*
X118914253Y-69592150D01*
X118898335Y-69640641D01*
X118895603Y-69650505D01*
G37*
G36*
X121997732Y-68788328D02*
G01*
X122025885Y-68834371D01*
X122056703Y-68881887D01*
X122085239Y-68923787D01*
X122115733Y-68966769D01*
X122148185Y-69010833D01*
X122179423Y-69052171D01*
X122214342Y-69097462D01*
X122246462Y-69138049D01*
X122280397Y-69179452D01*
X122314515Y-69218928D01*
X122280818Y-69257074D01*
X122247531Y-69297696D01*
X122214069Y-69340143D01*
X122182707Y-69380894D01*
X122148185Y-69426534D01*
X122114494Y-69472436D01*
X122083396Y-69516534D01*
X122054891Y-69558829D01*
X122024913Y-69605894D01*
X121998464Y-69650505D01*
X121973254Y-69606481D01*
X121947662Y-69567218D01*
X121918154Y-69524369D01*
X121889605Y-69484096D01*
X121858508Y-69441228D01*
X121824864Y-69395766D01*
X121809665Y-69375488D01*
X121776813Y-69333740D01*
X121742550Y-69291204D01*
X121709460Y-69250386D01*
X121683879Y-69218928D01*
X121716132Y-69181188D01*
X121752194Y-69136996D01*
X121786137Y-69093982D01*
X121816561Y-69054517D01*
X121848929Y-69011760D01*
X121862421Y-68993736D01*
X121891885Y-68953399D01*
X121923871Y-68907402D01*
X121953287Y-68862551D01*
X121980131Y-68818845D01*
X121997732Y-68788328D01*
G37*
G36*
X125441311Y-69633897D02*
G01*
X124858792Y-69633897D01*
X124864410Y-69610449D01*
X124916311Y-69598512D01*
X124963315Y-69585155D01*
X125009925Y-69565999D01*
X125014863Y-69563066D01*
X125053629Y-69532131D01*
X125086762Y-69491717D01*
X125105722Y-69459507D01*
X125125885Y-69411289D01*
X125137678Y-69361339D01*
X125141137Y-69314427D01*
X125140404Y-69282920D01*
X125115462Y-69327216D01*
X125084350Y-69367869D01*
X125045994Y-69402174D01*
X125038555Y-69407239D01*
X124993149Y-69431053D01*
X124943183Y-69444448D01*
X124915945Y-69446318D01*
X124863893Y-69439767D01*
X124817556Y-69420112D01*
X124780390Y-69390875D01*
X124748825Y-69349588D01*
X124730362Y-69302299D01*
X124724947Y-69254099D01*
X124730950Y-69202192D01*
X124748959Y-69156287D01*
X124775750Y-69119765D01*
X124815775Y-69086426D01*
X124863477Y-69067673D01*
X124891032Y-69065055D01*
X124939698Y-69073848D01*
X124985894Y-69091983D01*
X125003140Y-69100226D01*
X124978170Y-69055789D01*
X124965526Y-69027686D01*
X124957011Y-68978670D01*
X124956978Y-68975174D01*
X124963385Y-68924129D01*
X124982606Y-68878800D01*
X125011200Y-68842550D01*
X125051791Y-68811679D01*
X125098674Y-68793623D01*
X125146755Y-68788328D01*
X125199305Y-68794735D01*
X125245794Y-68813956D01*
X125282798Y-68842550D01*
X125314364Y-68882280D01*
X125333855Y-68931219D01*
X125338241Y-68971754D01*
X125330421Y-69022414D01*
X125309321Y-69071037D01*
X125290858Y-69100226D01*
X125337020Y-69078671D01*
X125360223Y-69069207D01*
X125402233Y-69063834D01*
X125451165Y-69071424D01*
X125495014Y-69094196D01*
X125521423Y-69117811D01*
X125550208Y-69157812D01*
X125567044Y-69203932D01*
X125571981Y-69251168D01*
X125566567Y-69300164D01*
X125548104Y-69348055D01*
X125516538Y-69389654D01*
X125475934Y-69421498D01*
X125430019Y-69440123D01*
X125383670Y-69445585D01*
X125334262Y-69439016D01*
X125294766Y-69424825D01*
X125252084Y-69400278D01*
X125215387Y-69368649D01*
X125184552Y-69329021D01*
X125157765Y-69286656D01*
X125155547Y-69282920D01*
X125158631Y-69334653D01*
X125166260Y-69386029D01*
X125179903Y-69434639D01*
X125188764Y-69455599D01*
X125216379Y-69500204D01*
X125253061Y-69538764D01*
X125282554Y-69561112D01*
X125328488Y-69582805D01*
X125379073Y-69597956D01*
X125429089Y-69609114D01*
X125435938Y-69610449D01*
X125441311Y-69633897D01*
G37*
G36*
X115774424Y-57286109D02*
G01*
X115788962Y-57335280D01*
X115808060Y-57380698D01*
X115829378Y-57418733D01*
X115861742Y-57462155D01*
X115898396Y-57502577D01*
X115933236Y-57537061D01*
X115961514Y-57563324D01*
X115999845Y-57599116D01*
X116035466Y-57635299D01*
X116067714Y-57673442D01*
X116082170Y-57695460D01*
X116101221Y-57741805D01*
X116107571Y-57789005D01*
X116100315Y-57838958D01*
X116076273Y-57884639D01*
X116063607Y-57898914D01*
X116021446Y-57928967D01*
X115971898Y-57942191D01*
X115956385Y-57942878D01*
X115905338Y-57934574D01*
X115861918Y-57911704D01*
X115859176Y-57909661D01*
X115823005Y-57874538D01*
X115792767Y-57831460D01*
X115781995Y-57812208D01*
X115784378Y-57865782D01*
X115791648Y-57917560D01*
X115805265Y-57965093D01*
X115808374Y-57972675D01*
X115834488Y-58016746D01*
X115870760Y-58052513D01*
X115890928Y-58066220D01*
X115938681Y-58087767D01*
X115986504Y-58099741D01*
X116035785Y-58105867D01*
X116041625Y-58106276D01*
X116046510Y-58131678D01*
X115501605Y-58131678D01*
X115507222Y-58106276D01*
X115559755Y-58102747D01*
X115613153Y-58090069D01*
X115659467Y-58068171D01*
X115698699Y-58037053D01*
X115703105Y-58032515D01*
X115733498Y-57990994D01*
X115754823Y-57940435D01*
X115766045Y-57888784D01*
X115770138Y-57839004D01*
X115770272Y-57812208D01*
X115744947Y-57856549D01*
X115712860Y-57894276D01*
X115693579Y-57910149D01*
X115648131Y-57933641D01*
X115597423Y-57942750D01*
X115590265Y-57942878D01*
X115539515Y-57934323D01*
X115495403Y-57908657D01*
X115484019Y-57898181D01*
X115453799Y-57855659D01*
X115440502Y-57806312D01*
X115439811Y-57790959D01*
X115446222Y-57740448D01*
X115462526Y-57700345D01*
X115491182Y-57657961D01*
X115526925Y-57618988D01*
X115562909Y-57587016D01*
X115602709Y-57553251D01*
X115641085Y-57517897D01*
X115665247Y-57492738D01*
X115696467Y-57455057D01*
X115725102Y-57414245D01*
X115738276Y-57391133D01*
X115757653Y-57345796D01*
X115771865Y-57297283D01*
X115774424Y-57286109D01*
G37*
G36*
X118895603Y-58148286D02*
G01*
X118880405Y-58098584D01*
X118861676Y-58050837D01*
X118839418Y-58005046D01*
X118834542Y-57996123D01*
X118806569Y-57949804D01*
X118776718Y-57905203D01*
X118745494Y-57861002D01*
X118715499Y-57819957D01*
X118681891Y-57775083D01*
X118648610Y-57730843D01*
X118618045Y-57689699D01*
X118589030Y-57649528D01*
X118579553Y-57635620D01*
X118553825Y-57592283D01*
X118533879Y-57547449D01*
X118522051Y-57499334D01*
X118519713Y-57466116D01*
X118525716Y-57416530D01*
X118545958Y-57369218D01*
X118570516Y-57338377D01*
X118612018Y-57306972D01*
X118660321Y-57290062D01*
X118696301Y-57286841D01*
X118745850Y-57293162D01*
X118794570Y-57314474D01*
X118827459Y-57340331D01*
X118858972Y-57379167D01*
X118883410Y-57426537D01*
X118895603Y-57459277D01*
X118913274Y-57410266D01*
X118937620Y-57366806D01*
X118959351Y-57341063D01*
X119000721Y-57309776D01*
X119046248Y-57291475D01*
X119091242Y-57286109D01*
X119143735Y-57293322D01*
X119189839Y-57314960D01*
X119217027Y-57337400D01*
X119248431Y-57378467D01*
X119265341Y-57425098D01*
X119268562Y-57459277D01*
X119263564Y-57510331D01*
X119250077Y-57558960D01*
X119238276Y-57587993D01*
X119213861Y-57633874D01*
X119186430Y-57676418D01*
X119156667Y-57717902D01*
X119126877Y-57756622D01*
X119121528Y-57763359D01*
X119087832Y-57806611D01*
X119057118Y-57847370D01*
X119024197Y-57892991D01*
X118995569Y-57935023D01*
X118967596Y-57979524D01*
X118957397Y-57997100D01*
X118933941Y-58042824D01*
X118914253Y-58089931D01*
X118898335Y-58138422D01*
X118895603Y-58148286D01*
G37*
G36*
X121997732Y-57286109D02*
G01*
X122025885Y-57332152D01*
X122056703Y-57379668D01*
X122085239Y-57421568D01*
X122115733Y-57464550D01*
X122148185Y-57508614D01*
X122179423Y-57549952D01*
X122214342Y-57595243D01*
X122246462Y-57635830D01*
X122280397Y-57677233D01*
X122314515Y-57716709D01*
X122280818Y-57754855D01*
X122247531Y-57795477D01*
X122214069Y-57837924D01*
X122182707Y-57878675D01*
X122148185Y-57924315D01*
X122114494Y-57970217D01*
X122083396Y-58014315D01*
X122054891Y-58056610D01*
X122024913Y-58103675D01*
X121998464Y-58148286D01*
X121973254Y-58104262D01*
X121947662Y-58064999D01*
X121918154Y-58022150D01*
X121889605Y-57981877D01*
X121858508Y-57939009D01*
X121824864Y-57893547D01*
X121809665Y-57873269D01*
X121776813Y-57831521D01*
X121742550Y-57788985D01*
X121709460Y-57748167D01*
X121683879Y-57716709D01*
X121716132Y-57678969D01*
X121752194Y-57634777D01*
X121786137Y-57591763D01*
X121816561Y-57552298D01*
X121848929Y-57509541D01*
X121862421Y-57491517D01*
X121891885Y-57451180D01*
X121923871Y-57405183D01*
X121953287Y-57360332D01*
X121980131Y-57316626D01*
X121997732Y-57286109D01*
G37*
G36*
X125441311Y-58131678D02*
G01*
X124858792Y-58131678D01*
X124864410Y-58108230D01*
X124916311Y-58096293D01*
X124963315Y-58082936D01*
X125009925Y-58063780D01*
X125014863Y-58060847D01*
X125053629Y-58029912D01*
X125086762Y-57989498D01*
X125105722Y-57957288D01*
X125125885Y-57909070D01*
X125137678Y-57859120D01*
X125141137Y-57812208D01*
X125140404Y-57780701D01*
X125115462Y-57824997D01*
X125084350Y-57865650D01*
X125045994Y-57899955D01*
X125038555Y-57905020D01*
X124993149Y-57928834D01*
X124943183Y-57942229D01*
X124915945Y-57944099D01*
X124863893Y-57937548D01*
X124817556Y-57917893D01*
X124780390Y-57888656D01*
X124748825Y-57847369D01*
X124730362Y-57800080D01*
X124724947Y-57751880D01*
X124730950Y-57699973D01*
X124748959Y-57654068D01*
X124775750Y-57617546D01*
X124815775Y-57584207D01*
X124863477Y-57565454D01*
X124891032Y-57562836D01*
X124939698Y-57571629D01*
X124985894Y-57589764D01*
X125003140Y-57598007D01*
X124978170Y-57553570D01*
X124965526Y-57525467D01*
X124957011Y-57476451D01*
X124956978Y-57472955D01*
X124963385Y-57421910D01*
X124982606Y-57376581D01*
X125011200Y-57340331D01*
X125051791Y-57309460D01*
X125098674Y-57291404D01*
X125146755Y-57286109D01*
X125199305Y-57292516D01*
X125245794Y-57311737D01*
X125282798Y-57340331D01*
X125314364Y-57380061D01*
X125333855Y-57429000D01*
X125338241Y-57469535D01*
X125330421Y-57520195D01*
X125309321Y-57568818D01*
X125290858Y-57598007D01*
X125337020Y-57576452D01*
X125360223Y-57566988D01*
X125402233Y-57561615D01*
X125451165Y-57569205D01*
X125495014Y-57591977D01*
X125521423Y-57615592D01*
X125550208Y-57655593D01*
X125567044Y-57701713D01*
X125571981Y-57748949D01*
X125566567Y-57797945D01*
X125548104Y-57845836D01*
X125516538Y-57887435D01*
X125475934Y-57919279D01*
X125430019Y-57937904D01*
X125383670Y-57943366D01*
X125334262Y-57936797D01*
X125294766Y-57922606D01*
X125252084Y-57898059D01*
X125215387Y-57866430D01*
X125184552Y-57826802D01*
X125157765Y-57784437D01*
X125155547Y-57780701D01*
X125158631Y-57832434D01*
X125166260Y-57883810D01*
X125179903Y-57932420D01*
X125188764Y-57953380D01*
X125216379Y-57997985D01*
X125253061Y-58036545D01*
X125282554Y-58058893D01*
X125328488Y-58080586D01*
X125379073Y-58095737D01*
X125429089Y-58106895D01*
X125435938Y-58108230D01*
X125441311Y-58131678D01*
G37*
%LPC*%
D14*
X108697270Y-72540866D02*
X132185896Y-72540866D01*
X132185896Y-75054399D01*
X108697270Y-75054399D01*
X108697270Y-72540866D01*
G36*
X108697270Y-72540866D02*
G01*
X132185896Y-72540866D01*
X132185896Y-75054399D01*
X108697270Y-75054399D01*
X108697270Y-72540866D01*
G37*
X134829942Y-61240720D02*
X134835737Y-61240720D01*
X134835737Y-65566469D01*
X131147644Y-65566469D01*
X131147644Y-61240720D01*
X134164569Y-61240720D01*
X134164569Y-57196047D01*
X134829942Y-57196047D01*
X134829942Y-61240720D01*
G36*
X134829942Y-61240720D02*
G01*
X134835737Y-61240720D01*
X134835737Y-65566469D01*
X131147644Y-65566469D01*
X131147644Y-61240720D01*
X134164569Y-61240720D01*
X134164569Y-57196047D01*
X134829942Y-57196047D01*
X134829942Y-61240720D01*
G37*
X111275663Y-75826646D02*
X116281755Y-75826646D01*
X116281755Y-80536325D01*
X111275663Y-80536325D01*
X111275663Y-75826646D01*
G36*
X111275663Y-75826646D02*
G01*
X116281755Y-75826646D01*
X116281755Y-80536325D01*
X111275663Y-80536325D01*
X111275663Y-75826646D01*
G37*
X130869884Y-54750324D02*
X130889844Y-54750324D01*
X130889844Y-72184165D01*
X110024399Y-72184165D01*
X110024399Y-72138243D01*
X110004439Y-72138243D01*
X110004439Y-70294309D01*
X111755540Y-70294309D01*
X129130904Y-70300146D01*
X129138742Y-56594257D01*
X111763379Y-56588421D01*
X111755540Y-70294309D01*
X110004439Y-70294309D01*
X110004439Y-54704402D01*
X130869884Y-54704402D01*
X130869884Y-54750324D01*
G36*
X130869884Y-54750324D02*
G01*
X130889844Y-54750324D01*
X130889844Y-72184165D01*
X110024399Y-72184165D01*
X110024399Y-72138243D01*
X110004439Y-72138243D01*
X110004439Y-70294309D01*
X111755540Y-70294309D01*
X129130904Y-70300146D01*
X129138742Y-56594257D01*
X111763379Y-56588421D01*
X111755540Y-70294309D01*
X110004439Y-70294309D01*
X110004439Y-54704402D01*
X130869884Y-54704402D01*
X130869884Y-54750324D01*
G37*
X108686645Y-82473718D02*
X132175271Y-82473718D01*
X132175271Y-84987251D01*
X108686645Y-84987251D01*
X108686645Y-82473718D01*
G36*
X108686645Y-82473718D02*
G01*
X132175271Y-82473718D01*
X132175271Y-84987251D01*
X108686645Y-84987251D01*
X108686645Y-82473718D01*
G37*
X123593286Y-78099148D02*
X129653292Y-78099148D01*
X129653292Y-80536325D01*
X123593286Y-80536325D01*
X123593286Y-78099148D01*
G36*
X123593286Y-78099148D02*
G01*
X129653292Y-78099148D01*
X129653292Y-80536325D01*
X123593286Y-80536325D01*
X123593286Y-78099148D01*
G37*
X113278838Y-60017933D02*
X117236865Y-60017933D01*
X117236865Y-66608547D01*
X113278838Y-66608547D01*
X113278838Y-60017933D01*
G36*
X113278838Y-60017933D02*
G01*
X117236865Y-60017933D01*
X117236865Y-66608547D01*
X113278838Y-66608547D01*
X113278838Y-60017933D01*
G37*
G36*
X123761190Y-59992509D02*
G01*
X127773598Y-59992509D01*
X127773598Y-66634636D01*
X123761190Y-66634636D01*
X123761190Y-59992509D01*
G37*
G36*
X118454793Y-59997727D02*
G01*
X122477637Y-59997727D01*
X122477637Y-66624201D01*
X118454793Y-66624201D01*
X118454793Y-59997727D01*
G37*
%LPD*%
M02*
