%TF.GenerationSoftware,KiCad,Pcbnew,8.0.8*%
%TF.CreationDate,2025-04-07T01:45:18-03:00*%
%TF.ProjectId,Sao_SlotMachine_v2,53616f5f-536c-46f7-944d-616368696e65,rev?*%
%TF.SameCoordinates,Original*%
%TF.FileFunction,Soldermask,Top*%
%TF.FilePolarity,Negative*%
%FSLAX46Y46*%
G04 Gerber Fmt 4.6, Leading zero omitted, Abs format (unit mm)*
G04 Created by KiCad (PCBNEW 8.0.8) date 2025-04-07 01:45:18*
%MOMM*%
%LPD*%
G01*
G04 APERTURE LIST*
%ADD10C,0.050000*%
G04 APERTURE END LIST*
D10*
X108697270Y-72540866D02*
X132185896Y-72540866D01*
X132185896Y-75054399D01*
X108697270Y-75054399D01*
X108697270Y-72540866D01*
G36*
X108697270Y-72540866D02*
G01*
X132185896Y-72540866D01*
X132185896Y-75054399D01*
X108697270Y-75054399D01*
X108697270Y-72540866D01*
G37*
X134829942Y-61240720D02*
X134835737Y-61240720D01*
X134835737Y-65566469D01*
X131147644Y-65566469D01*
X131147644Y-61240720D01*
X134164569Y-61240720D01*
X134164569Y-57196047D01*
X134829942Y-57196047D01*
X134829942Y-61240720D01*
G36*
X134829942Y-61240720D02*
G01*
X134835737Y-61240720D01*
X134835737Y-65566469D01*
X131147644Y-65566469D01*
X131147644Y-61240720D01*
X134164569Y-61240720D01*
X134164569Y-57196047D01*
X134829942Y-57196047D01*
X134829942Y-61240720D01*
G37*
X111275663Y-75826646D02*
X116281755Y-75826646D01*
X116281755Y-80536325D01*
X111275663Y-80536325D01*
X111275663Y-75826646D01*
G36*
X111275663Y-75826646D02*
G01*
X116281755Y-75826646D01*
X116281755Y-80536325D01*
X111275663Y-80536325D01*
X111275663Y-75826646D01*
G37*
X130869884Y-54750324D02*
X130889844Y-54750324D01*
X130889844Y-72184165D01*
X110024399Y-72184165D01*
X110024399Y-72138243D01*
X110004439Y-72138243D01*
X110004439Y-70294309D01*
X111755540Y-70294309D01*
X129130904Y-70300146D01*
X129138742Y-56594257D01*
X111763379Y-56588421D01*
X111755540Y-70294309D01*
X110004439Y-70294309D01*
X110004439Y-54704402D01*
X130869884Y-54704402D01*
X130869884Y-54750324D01*
G36*
X130869884Y-54750324D02*
G01*
X130889844Y-54750324D01*
X130889844Y-72184165D01*
X110024399Y-72184165D01*
X110024399Y-72138243D01*
X110004439Y-72138243D01*
X110004439Y-70294309D01*
X111755540Y-70294309D01*
X129130904Y-70300146D01*
X129138742Y-56594257D01*
X111763379Y-56588421D01*
X111755540Y-70294309D01*
X110004439Y-70294309D01*
X110004439Y-54704402D01*
X130869884Y-54704402D01*
X130869884Y-54750324D01*
G37*
X108686645Y-82473718D02*
X132175271Y-82473718D01*
X132175271Y-84987251D01*
X108686645Y-84987251D01*
X108686645Y-82473718D01*
G36*
X108686645Y-82473718D02*
G01*
X132175271Y-82473718D01*
X132175271Y-84987251D01*
X108686645Y-84987251D01*
X108686645Y-82473718D01*
G37*
X123593286Y-78099148D02*
X129653292Y-78099148D01*
X129653292Y-80536325D01*
X123593286Y-80536325D01*
X123593286Y-78099148D01*
G36*
X123593286Y-78099148D02*
G01*
X129653292Y-78099148D01*
X129653292Y-80536325D01*
X123593286Y-80536325D01*
X123593286Y-78099148D01*
G37*
X113278838Y-60017933D02*
X117236865Y-60017933D01*
X117236865Y-66608547D01*
X113278838Y-66608547D01*
X113278838Y-60017933D01*
G36*
X113278838Y-60017933D02*
G01*
X117236865Y-60017933D01*
X117236865Y-66608547D01*
X113278838Y-66608547D01*
X113278838Y-60017933D01*
G37*
G36*
X123761190Y-59992509D02*
G01*
X127773598Y-59992509D01*
X127773598Y-66634636D01*
X123761190Y-66634636D01*
X123761190Y-59992509D01*
G37*
G36*
X118454793Y-59997727D02*
G01*
X122477637Y-59997727D01*
X122477637Y-66624201D01*
X118454793Y-66624201D01*
X118454793Y-59997727D01*
G37*
M02*
