%TF.GenerationSoftware,KiCad,Pcbnew,8.0.8*%
%TF.CreationDate,2025-04-07T01:45:18-03:00*%
%TF.ProjectId,Sao_SlotMachine_v2,53616f5f-536c-46f7-944d-616368696e65,rev?*%
%TF.SameCoordinates,Original*%
%TF.FileFunction,Profile,NP*%
%FSLAX46Y46*%
G04 Gerber Fmt 4.6, Leading zero omitted, Abs format (unit mm)*
G04 Created by KiCad (PCBNEW 8.0.8) date 2025-04-07 01:45:18*
%MOMM*%
%LPD*%
G01*
G04 APERTURE LIST*
%TA.AperFunction,Profile*%
%ADD10C,0.050000*%
%TD*%
%TA.AperFunction,Profile*%
%ADD11C,0.100000*%
%TD*%
%TA.AperFunction,Profile*%
%ADD12C,0.000000*%
%TD*%
G04 APERTURE END LIST*
D10*
X112329577Y-76632083D02*
X112829577Y-76632083D01*
X112829577Y-79632083D01*
X112329577Y-79632083D01*
X112329577Y-76632083D01*
D11*
X121236124Y-50460927D02*
X122066921Y-50520346D01*
X122893950Y-50619230D01*
X123715337Y-50757353D01*
X124529222Y-50934403D01*
X125333760Y-51149978D01*
X126127130Y-51403591D01*
X126907533Y-51694666D01*
X127673203Y-52022545D01*
X128422405Y-52386485D01*
X129153441Y-52785661D01*
X129864655Y-53219168D01*
X130554436Y-53686026D01*
X131169954Y-54167781D01*
X133487313Y-54169344D01*
X133709413Y-54033241D01*
X133950070Y-53933558D01*
X134203359Y-53872748D01*
X134463041Y-53852311D01*
X134722723Y-53872748D01*
X134976012Y-53933558D01*
X135216669Y-54033241D01*
X135438769Y-54169344D01*
X135636844Y-54338516D01*
X135806016Y-54536591D01*
X135942119Y-54758691D01*
X136041802Y-54999348D01*
X136102612Y-55252637D01*
X136123049Y-55512319D01*
X136102612Y-55772001D01*
X136041802Y-56025290D01*
X135942119Y-56265947D01*
X135806016Y-56488047D01*
X135636844Y-56686122D01*
X135438769Y-56855294D01*
X135216669Y-56991397D01*
X134991222Y-57084780D01*
X134999999Y-57084780D01*
X134997287Y-60918856D01*
X134999999Y-60905218D01*
X134997287Y-65839684D01*
X131169559Y-65836811D01*
X131169559Y-72206312D01*
X132516978Y-72206312D01*
X132522198Y-85286071D01*
X108383187Y-85286071D01*
X108383187Y-72205883D01*
X109696057Y-72206312D01*
X109696057Y-54327164D01*
X109695523Y-54175422D01*
X110252444Y-53686026D01*
X110942225Y-53219168D01*
X111653439Y-52785661D01*
X112384475Y-52386485D01*
X113133677Y-52022545D01*
X113899347Y-51694666D01*
X114679750Y-51403591D01*
X115473120Y-51149978D01*
X116277658Y-50934403D01*
X117091543Y-50757353D01*
X117912930Y-50619230D01*
X118739959Y-50520346D01*
X119570756Y-50460927D01*
X120403440Y-50441105D01*
X121236124Y-50460927D01*
D12*
%TA.AperFunction,Profile*%
G36*
X126748882Y-61569833D02*
G01*
X126750353Y-61569658D01*
X126753812Y-61570156D01*
X126794727Y-61572838D01*
X126820666Y-61579788D01*
X126847247Y-61583618D01*
X126867747Y-61592403D01*
X126889286Y-61598175D01*
X126912539Y-61611600D01*
X126937226Y-61622180D01*
X126954752Y-61635971D01*
X126974066Y-61647122D01*
X126993056Y-61666112D01*
X127014158Y-61682717D01*
X127027516Y-61700572D01*
X127043288Y-61716344D01*
X127056714Y-61739599D01*
X127072802Y-61761103D01*
X127081085Y-61781812D01*
X127092235Y-61801124D01*
X127099184Y-61827059D01*
X127109159Y-61851996D01*
X127111800Y-61874142D01*
X127117572Y-61895683D01*
X127117572Y-61922538D01*
X127120752Y-61949202D01*
X127117572Y-61971273D01*
X127117572Y-61993577D01*
X127110621Y-62019517D01*
X127106792Y-62046096D01*
X127093139Y-62084761D01*
X127092235Y-62088136D01*
X127091495Y-62089417D01*
X127090460Y-62092349D01*
X125804745Y-65092350D01*
X125782516Y-65136075D01*
X125721979Y-65213008D01*
X125643593Y-65271652D01*
X125552700Y-65308009D01*
X125455494Y-65319602D01*
X125358599Y-65305642D01*
X125268621Y-65267080D01*
X125191688Y-65206543D01*
X125133044Y-65128157D01*
X125096687Y-65037264D01*
X125085094Y-64940058D01*
X125099054Y-64843163D01*
X125115387Y-64796910D01*
X126177078Y-62319630D01*
X124745780Y-62319630D01*
X124696833Y-62316422D01*
X124602274Y-62291085D01*
X124517494Y-62242138D01*
X124448272Y-62172916D01*
X124399325Y-62088136D01*
X124373988Y-61993577D01*
X124373988Y-61895683D01*
X124399325Y-61801124D01*
X124448272Y-61716344D01*
X124517494Y-61647122D01*
X124602274Y-61598175D01*
X124696833Y-61572838D01*
X124745780Y-61569630D01*
X126745780Y-61569630D01*
X126748882Y-61569833D01*
G37*
%TD.AperFunction*%
D10*
X114791951Y-76644986D02*
X115291951Y-76644986D01*
X115291951Y-79644986D01*
X114791951Y-79644986D01*
X114791951Y-76644986D01*
D12*
%TA.AperFunction,Profile*%
G36*
X116071804Y-61569833D02*
G01*
X116073275Y-61569658D01*
X116076734Y-61570156D01*
X116117649Y-61572838D01*
X116143588Y-61579788D01*
X116170169Y-61583618D01*
X116190669Y-61592403D01*
X116212208Y-61598175D01*
X116235461Y-61611600D01*
X116260148Y-61622180D01*
X116277674Y-61635971D01*
X116296988Y-61647122D01*
X116315978Y-61666112D01*
X116337080Y-61682717D01*
X116350438Y-61700572D01*
X116366210Y-61716344D01*
X116379636Y-61739599D01*
X116395724Y-61761103D01*
X116404007Y-61781812D01*
X116415157Y-61801124D01*
X116422106Y-61827059D01*
X116432081Y-61851996D01*
X116434722Y-61874142D01*
X116440494Y-61895683D01*
X116440494Y-61922538D01*
X116443674Y-61949202D01*
X116440494Y-61971273D01*
X116440494Y-61993577D01*
X116433543Y-62019517D01*
X116429714Y-62046096D01*
X116416061Y-62084761D01*
X116415157Y-62088136D01*
X116414417Y-62089417D01*
X116413382Y-62092349D01*
X115127667Y-65092350D01*
X115105438Y-65136075D01*
X115044901Y-65213008D01*
X114966515Y-65271652D01*
X114875622Y-65308009D01*
X114778416Y-65319602D01*
X114681521Y-65305642D01*
X114591543Y-65267080D01*
X114514610Y-65206543D01*
X114455966Y-65128157D01*
X114419609Y-65037264D01*
X114408016Y-64940058D01*
X114421976Y-64843163D01*
X114438309Y-64796910D01*
X115500000Y-62319630D01*
X114068702Y-62319630D01*
X114019755Y-62316422D01*
X113925196Y-62291085D01*
X113840416Y-62242138D01*
X113771194Y-62172916D01*
X113722247Y-62088136D01*
X113696910Y-61993577D01*
X113696910Y-61895683D01*
X113722247Y-61801124D01*
X113771194Y-61716344D01*
X113840416Y-61647122D01*
X113925196Y-61598175D01*
X114019755Y-61572838D01*
X114068702Y-61569630D01*
X116068702Y-61569630D01*
X116071804Y-61569833D01*
G37*
%TD.AperFunction*%
%TA.AperFunction,Profile*%
G36*
X121446376Y-61569833D02*
G01*
X121447847Y-61569658D01*
X121451306Y-61570156D01*
X121492221Y-61572838D01*
X121518160Y-61579788D01*
X121544741Y-61583618D01*
X121565241Y-61592403D01*
X121586780Y-61598175D01*
X121610033Y-61611600D01*
X121634720Y-61622180D01*
X121652246Y-61635971D01*
X121671560Y-61647122D01*
X121690550Y-61666112D01*
X121711652Y-61682717D01*
X121725010Y-61700572D01*
X121740782Y-61716344D01*
X121754208Y-61739599D01*
X121770296Y-61761103D01*
X121778579Y-61781812D01*
X121789729Y-61801124D01*
X121796678Y-61827059D01*
X121806653Y-61851996D01*
X121809294Y-61874142D01*
X121815066Y-61895683D01*
X121815066Y-61922538D01*
X121818246Y-61949202D01*
X121815066Y-61971273D01*
X121815066Y-61993577D01*
X121808115Y-62019517D01*
X121804286Y-62046096D01*
X121790633Y-62084761D01*
X121789729Y-62088136D01*
X121788989Y-62089417D01*
X121787954Y-62092349D01*
X120502239Y-65092350D01*
X120480010Y-65136075D01*
X120419473Y-65213008D01*
X120341087Y-65271652D01*
X120250194Y-65308009D01*
X120152988Y-65319602D01*
X120056093Y-65305642D01*
X119966115Y-65267080D01*
X119889182Y-65206543D01*
X119830538Y-65128157D01*
X119794181Y-65037264D01*
X119782588Y-64940058D01*
X119796548Y-64843163D01*
X119812881Y-64796910D01*
X120874572Y-62319630D01*
X119443274Y-62319630D01*
X119394327Y-62316422D01*
X119299768Y-62291085D01*
X119214988Y-62242138D01*
X119145766Y-62172916D01*
X119096819Y-62088136D01*
X119071482Y-61993577D01*
X119071482Y-61895683D01*
X119096819Y-61801124D01*
X119145766Y-61716344D01*
X119214988Y-61647122D01*
X119299768Y-61598175D01*
X119394327Y-61572838D01*
X119443274Y-61569630D01*
X121443274Y-61569630D01*
X121446376Y-61569833D01*
G37*
%TD.AperFunction*%
M02*
