%TF.GenerationSoftware,KiCad,Pcbnew,8.0.8*%
%TF.CreationDate,2025-04-07T01:45:18-03:00*%
%TF.ProjectId,Sao_SlotMachine_v2,53616f5f-536c-46f7-944d-616368696e65,rev?*%
%TF.SameCoordinates,Original*%
%TF.FileFunction,Legend,Bot*%
%TF.FilePolarity,Positive*%
%FSLAX46Y46*%
G04 Gerber Fmt 4.6, Leading zero omitted, Abs format (unit mm)*
G04 Created by KiCad (PCBNEW 8.0.8) date 2025-04-07 01:45:18*
%MOMM*%
%LPD*%
G01*
G04 APERTURE LIST*
G04 Aperture macros list*
%AMRoundRect*
0 Rectangle with rounded corners*
0 $1 Rounding radius*
0 $2 $3 $4 $5 $6 $7 $8 $9 X,Y pos of 4 corners*
0 Add a 4 corners polygon primitive as box body*
4,1,4,$2,$3,$4,$5,$6,$7,$8,$9,$2,$3,0*
0 Add four circle primitives for the rounded corners*
1,1,$1+$1,$2,$3*
1,1,$1+$1,$4,$5*
1,1,$1+$1,$6,$7*
1,1,$1+$1,$8,$9*
0 Add four rect primitives between the rounded corners*
20,1,$1+$1,$2,$3,$4,$5,0*
20,1,$1+$1,$4,$5,$6,$7,0*
20,1,$1+$1,$6,$7,$8,$9,0*
20,1,$1+$1,$8,$9,$2,$3,0*%
G04 Aperture macros list end*
%ADD10C,0.100000*%
%ADD11C,0.300000*%
%ADD12C,0.150000*%
%ADD13C,0.000000*%
%ADD14C,0.120000*%
%ADD15C,0.152400*%
%ADD16RoundRect,0.250000X0.450000X-0.350000X0.450000X0.350000X-0.450000X0.350000X-0.450000X-0.350000X0*%
%ADD17R,1.041400X3.200400*%
%ADD18RoundRect,0.250001X-0.669939X-0.394602X0.181526X-0.756027X0.669939X0.394602X-0.181526X0.756027X0*%
G04 APERTURE END LIST*
D10*
X126700000Y-75750000D02*
X131700000Y-75750000D01*
X131700000Y-80750000D01*
X126700000Y-80750000D01*
X126700000Y-75750000D01*
G36*
X126700000Y-75750000D02*
G01*
X131700000Y-75750000D01*
X131700000Y-80750000D01*
X126700000Y-80750000D01*
X126700000Y-75750000D01*
G37*
D11*
X121338003Y-58226590D02*
X121266575Y-58155162D01*
X121266575Y-58155162D02*
X121123718Y-58083733D01*
X121123718Y-58083733D02*
X120766575Y-58083733D01*
X120766575Y-58083733D02*
X120623718Y-58155162D01*
X120623718Y-58155162D02*
X120552289Y-58226590D01*
X120552289Y-58226590D02*
X120480860Y-58369447D01*
X120480860Y-58369447D02*
X120480860Y-58512305D01*
X120480860Y-58512305D02*
X120552289Y-58726590D01*
X120552289Y-58726590D02*
X121409432Y-59583733D01*
X121409432Y-59583733D02*
X120480860Y-59583733D01*
X119552289Y-58083733D02*
X119409432Y-58083733D01*
X119409432Y-58083733D02*
X119266575Y-58155162D01*
X119266575Y-58155162D02*
X119195147Y-58226590D01*
X119195147Y-58226590D02*
X119123718Y-58369447D01*
X119123718Y-58369447D02*
X119052289Y-58655162D01*
X119052289Y-58655162D02*
X119052289Y-59012305D01*
X119052289Y-59012305D02*
X119123718Y-59298019D01*
X119123718Y-59298019D02*
X119195147Y-59440876D01*
X119195147Y-59440876D02*
X119266575Y-59512305D01*
X119266575Y-59512305D02*
X119409432Y-59583733D01*
X119409432Y-59583733D02*
X119552289Y-59583733D01*
X119552289Y-59583733D02*
X119695147Y-59512305D01*
X119695147Y-59512305D02*
X119766575Y-59440876D01*
X119766575Y-59440876D02*
X119838004Y-59298019D01*
X119838004Y-59298019D02*
X119909432Y-59012305D01*
X119909432Y-59012305D02*
X119909432Y-58655162D01*
X119909432Y-58655162D02*
X119838004Y-58369447D01*
X119838004Y-58369447D02*
X119766575Y-58226590D01*
X119766575Y-58226590D02*
X119695147Y-58155162D01*
X119695147Y-58155162D02*
X119552289Y-58083733D01*
X118480861Y-58226590D02*
X118409433Y-58155162D01*
X118409433Y-58155162D02*
X118266576Y-58083733D01*
X118266576Y-58083733D02*
X117909433Y-58083733D01*
X117909433Y-58083733D02*
X117766576Y-58155162D01*
X117766576Y-58155162D02*
X117695147Y-58226590D01*
X117695147Y-58226590D02*
X117623718Y-58369447D01*
X117623718Y-58369447D02*
X117623718Y-58512305D01*
X117623718Y-58512305D02*
X117695147Y-58726590D01*
X117695147Y-58726590D02*
X118552290Y-59583733D01*
X118552290Y-59583733D02*
X117623718Y-59583733D01*
X116266576Y-58083733D02*
X116980862Y-58083733D01*
X116980862Y-58083733D02*
X117052290Y-58798019D01*
X117052290Y-58798019D02*
X116980862Y-58726590D01*
X116980862Y-58726590D02*
X116838005Y-58655162D01*
X116838005Y-58655162D02*
X116480862Y-58655162D01*
X116480862Y-58655162D02*
X116338005Y-58726590D01*
X116338005Y-58726590D02*
X116266576Y-58798019D01*
X116266576Y-58798019D02*
X116195147Y-58940876D01*
X116195147Y-58940876D02*
X116195147Y-59298019D01*
X116195147Y-59298019D02*
X116266576Y-59440876D01*
X116266576Y-59440876D02*
X116338005Y-59512305D01*
X116338005Y-59512305D02*
X116480862Y-59583733D01*
X116480862Y-59583733D02*
X116838005Y-59583733D01*
X116838005Y-59583733D02*
X116980862Y-59512305D01*
X116980862Y-59512305D02*
X117052290Y-59440876D01*
D12*
X121104819Y-69333333D02*
X120628628Y-69000000D01*
X121104819Y-68761905D02*
X120104819Y-68761905D01*
X120104819Y-68761905D02*
X120104819Y-69142857D01*
X120104819Y-69142857D02*
X120152438Y-69238095D01*
X120152438Y-69238095D02*
X120200057Y-69285714D01*
X120200057Y-69285714D02*
X120295295Y-69333333D01*
X120295295Y-69333333D02*
X120438152Y-69333333D01*
X120438152Y-69333333D02*
X120533390Y-69285714D01*
X120533390Y-69285714D02*
X120581009Y-69238095D01*
X120581009Y-69238095D02*
X120628628Y-69142857D01*
X120628628Y-69142857D02*
X120628628Y-68761905D01*
X120104819Y-69666667D02*
X120104819Y-70285714D01*
X120104819Y-70285714D02*
X120485771Y-69952381D01*
X120485771Y-69952381D02*
X120485771Y-70095238D01*
X120485771Y-70095238D02*
X120533390Y-70190476D01*
X120533390Y-70190476D02*
X120581009Y-70238095D01*
X120581009Y-70238095D02*
X120676247Y-70285714D01*
X120676247Y-70285714D02*
X120914342Y-70285714D01*
X120914342Y-70285714D02*
X121009580Y-70238095D01*
X121009580Y-70238095D02*
X121057200Y-70190476D01*
X121057200Y-70190476D02*
X121104819Y-70095238D01*
X121104819Y-70095238D02*
X121104819Y-69809524D01*
X121104819Y-69809524D02*
X121057200Y-69714286D01*
X121057200Y-69714286D02*
X121009580Y-69666667D01*
X127604819Y-69333333D02*
X127128628Y-69000000D01*
X127604819Y-68761905D02*
X126604819Y-68761905D01*
X126604819Y-68761905D02*
X126604819Y-69142857D01*
X126604819Y-69142857D02*
X126652438Y-69238095D01*
X126652438Y-69238095D02*
X126700057Y-69285714D01*
X126700057Y-69285714D02*
X126795295Y-69333333D01*
X126795295Y-69333333D02*
X126938152Y-69333333D01*
X126938152Y-69333333D02*
X127033390Y-69285714D01*
X127033390Y-69285714D02*
X127081009Y-69238095D01*
X127081009Y-69238095D02*
X127128628Y-69142857D01*
X127128628Y-69142857D02*
X127128628Y-68761905D01*
X127604819Y-70285714D02*
X127604819Y-69714286D01*
X127604819Y-70000000D02*
X126604819Y-70000000D01*
X126604819Y-70000000D02*
X126747676Y-69904762D01*
X126747676Y-69904762D02*
X126842914Y-69809524D01*
X126842914Y-69809524D02*
X126890533Y-69714286D01*
X124104819Y-69333333D02*
X123628628Y-69000000D01*
X124104819Y-68761905D02*
X123104819Y-68761905D01*
X123104819Y-68761905D02*
X123104819Y-69142857D01*
X123104819Y-69142857D02*
X123152438Y-69238095D01*
X123152438Y-69238095D02*
X123200057Y-69285714D01*
X123200057Y-69285714D02*
X123295295Y-69333333D01*
X123295295Y-69333333D02*
X123438152Y-69333333D01*
X123438152Y-69333333D02*
X123533390Y-69285714D01*
X123533390Y-69285714D02*
X123581009Y-69238095D01*
X123581009Y-69238095D02*
X123628628Y-69142857D01*
X123628628Y-69142857D02*
X123628628Y-68761905D01*
X123200057Y-69714286D02*
X123152438Y-69761905D01*
X123152438Y-69761905D02*
X123104819Y-69857143D01*
X123104819Y-69857143D02*
X123104819Y-70095238D01*
X123104819Y-70095238D02*
X123152438Y-70190476D01*
X123152438Y-70190476D02*
X123200057Y-70238095D01*
X123200057Y-70238095D02*
X123295295Y-70285714D01*
X123295295Y-70285714D02*
X123390533Y-70285714D01*
X123390533Y-70285714D02*
X123533390Y-70238095D01*
X123533390Y-70238095D02*
X124104819Y-69666667D01*
X124104819Y-69666667D02*
X124104819Y-70285714D01*
X125119646Y-75283616D02*
X125691074Y-75283616D01*
X125405360Y-75283616D02*
X125405360Y-74283616D01*
X125405360Y-74283616D02*
X125500598Y-74426473D01*
X125500598Y-74426473D02*
X125595836Y-74521711D01*
X125595836Y-74521711D02*
X125691074Y-74569330D01*
X125691074Y-81128854D02*
X125643455Y-81081235D01*
X125643455Y-81081235D02*
X125548217Y-81033616D01*
X125548217Y-81033616D02*
X125310122Y-81033616D01*
X125310122Y-81033616D02*
X125214884Y-81081235D01*
X125214884Y-81081235D02*
X125167265Y-81128854D01*
X125167265Y-81128854D02*
X125119646Y-81224092D01*
X125119646Y-81224092D02*
X125119646Y-81319330D01*
X125119646Y-81319330D02*
X125167265Y-81462187D01*
X125167265Y-81462187D02*
X125738693Y-82033616D01*
X125738693Y-82033616D02*
X125119646Y-82033616D01*
X116143455Y-81652663D02*
X115381551Y-81652663D01*
X116143455Y-74902663D02*
X115381551Y-74902663D01*
X115762503Y-75283616D02*
X115762503Y-74521711D01*
X120310576Y-66498225D02*
X120701307Y-65577720D01*
X120701307Y-65577720D02*
X120482140Y-65484689D01*
X120482140Y-65484689D02*
X120332033Y-65472704D01*
X120332033Y-65472704D02*
X120207153Y-65523159D01*
X120207153Y-65523159D02*
X120126107Y-65592220D01*
X120126107Y-65592220D02*
X120007849Y-65748948D01*
X120007849Y-65748948D02*
X119952030Y-65880448D01*
X119952030Y-65880448D02*
X119921438Y-66074389D01*
X119921438Y-66074389D02*
X119928059Y-66180662D01*
X119928059Y-66180662D02*
X119978514Y-66305542D01*
X119978514Y-66305542D02*
X120091409Y-66405194D01*
X120091409Y-66405194D02*
X120310576Y-66498225D01*
X119787424Y-65293263D02*
X119762196Y-65230823D01*
X119762196Y-65230823D02*
X119693135Y-65149777D01*
X119693135Y-65149777D02*
X119473968Y-65056746D01*
X119473968Y-65056746D02*
X119367694Y-65063367D01*
X119367694Y-65063367D02*
X119305254Y-65088594D01*
X119305254Y-65088594D02*
X119224208Y-65157655D01*
X119224208Y-65157655D02*
X119186996Y-65245322D01*
X119186996Y-65245322D02*
X119175011Y-65395429D01*
X119175011Y-65395429D02*
X119477739Y-66144707D01*
X119477739Y-66144707D02*
X118907902Y-65902825D01*
X114940576Y-66498225D02*
X115331307Y-65577720D01*
X115331307Y-65577720D02*
X115112140Y-65484689D01*
X115112140Y-65484689D02*
X114962033Y-65472704D01*
X114962033Y-65472704D02*
X114837153Y-65523159D01*
X114837153Y-65523159D02*
X114756107Y-65592220D01*
X114756107Y-65592220D02*
X114637849Y-65748948D01*
X114637849Y-65748948D02*
X114582030Y-65880448D01*
X114582030Y-65880448D02*
X114551438Y-66074389D01*
X114551438Y-66074389D02*
X114558059Y-66180662D01*
X114558059Y-66180662D02*
X114608514Y-66305542D01*
X114608514Y-66305542D02*
X114721409Y-66405194D01*
X114721409Y-66405194D02*
X114940576Y-66498225D01*
X114498470Y-65224202D02*
X113928633Y-64982321D01*
X113928633Y-64982321D02*
X114086618Y-65463233D01*
X114086618Y-65463233D02*
X113955118Y-65407414D01*
X113955118Y-65407414D02*
X113848844Y-65414035D01*
X113848844Y-65414035D02*
X113786405Y-65439262D01*
X113786405Y-65439262D02*
X113705358Y-65508323D01*
X113705358Y-65508323D02*
X113612327Y-65727491D01*
X113612327Y-65727491D02*
X113618948Y-65833765D01*
X113618948Y-65833765D02*
X113644176Y-65896204D01*
X113644176Y-65896204D02*
X113713237Y-65977250D01*
X113713237Y-65977250D02*
X113976238Y-66088888D01*
X113976238Y-66088888D02*
X114082511Y-66082267D01*
X114082511Y-66082267D02*
X114144951Y-66057039D01*
X125626457Y-66498225D02*
X126017188Y-65577720D01*
X126017188Y-65577720D02*
X125798021Y-65484689D01*
X125798021Y-65484689D02*
X125647914Y-65472704D01*
X125647914Y-65472704D02*
X125523034Y-65523159D01*
X125523034Y-65523159D02*
X125441988Y-65592220D01*
X125441988Y-65592220D02*
X125323730Y-65748948D01*
X125323730Y-65748948D02*
X125267911Y-65880448D01*
X125267911Y-65880448D02*
X125237319Y-66074389D01*
X125237319Y-66074389D02*
X125243940Y-66180662D01*
X125243940Y-66180662D02*
X125294395Y-66305542D01*
X125294395Y-66305542D02*
X125407290Y-66405194D01*
X125407290Y-66405194D02*
X125626457Y-66498225D01*
X124223783Y-65902825D02*
X124749786Y-66126100D01*
X124486785Y-66014463D02*
X124877516Y-65093958D01*
X124877516Y-65093958D02*
X124909364Y-65262671D01*
X124909364Y-65262671D02*
X124959819Y-65387551D01*
X124959819Y-65387551D02*
X125028880Y-65468597D01*
D13*
%TO.C,REF\u002A\u002A*%
G36*
X127405392Y-53139939D02*
G01*
X127405731Y-53139973D01*
X127406085Y-53140030D01*
X127406452Y-53140110D01*
X127406834Y-53140214D01*
X127407230Y-53140341D01*
X127407640Y-53140491D01*
X127408063Y-53140665D01*
X127408501Y-53140862D01*
X127408953Y-53141082D01*
X128495861Y-53684536D01*
X128496273Y-53684766D01*
X128496666Y-53685022D01*
X128497039Y-53685304D01*
X128497389Y-53685610D01*
X128497718Y-53685938D01*
X128498022Y-53686287D01*
X128498302Y-53686656D01*
X128498557Y-53687043D01*
X128498786Y-53687447D01*
X128498987Y-53687866D01*
X128499160Y-53688299D01*
X128499303Y-53688744D01*
X128499417Y-53689201D01*
X128499499Y-53689667D01*
X128499549Y-53690141D01*
X128499566Y-53690622D01*
X128499566Y-57253104D01*
X128499562Y-57253274D01*
X128499549Y-57253442D01*
X128499528Y-57253607D01*
X128499500Y-57253770D01*
X128499463Y-57253930D01*
X128499419Y-57254087D01*
X128499368Y-57254241D01*
X128499310Y-57254391D01*
X128499244Y-57254537D01*
X128499172Y-57254680D01*
X128499093Y-57254818D01*
X128499008Y-57254952D01*
X128498917Y-57255082D01*
X128498819Y-57255207D01*
X128498716Y-57255327D01*
X128498607Y-57255442D01*
X128498493Y-57255552D01*
X128498373Y-57255656D01*
X128498249Y-57255754D01*
X128498119Y-57255846D01*
X128497985Y-57255932D01*
X128497847Y-57256012D01*
X128497704Y-57256085D01*
X128497557Y-57256151D01*
X128497407Y-57256210D01*
X128497252Y-57256262D01*
X128497094Y-57256307D01*
X128496933Y-57256344D01*
X128496769Y-57256373D01*
X128496602Y-57256394D01*
X128496432Y-57256407D01*
X128496259Y-57256411D01*
X127408822Y-57256411D01*
X127408394Y-57256404D01*
X127407980Y-57256384D01*
X127407579Y-57256351D01*
X127407191Y-57256304D01*
X127406816Y-57256243D01*
X127406455Y-57256170D01*
X127406107Y-57256082D01*
X127405772Y-57255982D01*
X127405451Y-57255868D01*
X127405143Y-57255740D01*
X127404849Y-57255599D01*
X127404568Y-57255445D01*
X127404301Y-57255277D01*
X127404047Y-57255096D01*
X127403806Y-57254901D01*
X127403579Y-57254693D01*
X127403366Y-57254471D01*
X127403166Y-57254236D01*
X127402980Y-57253988D01*
X127402808Y-57253726D01*
X127402649Y-57253450D01*
X127402504Y-57253161D01*
X127402372Y-57252859D01*
X127402255Y-57252543D01*
X127402151Y-57252214D01*
X127402061Y-57251871D01*
X127401984Y-57251515D01*
X127401922Y-57251145D01*
X127401873Y-57250762D01*
X127401838Y-57250365D01*
X127401817Y-57249955D01*
X127401810Y-57249532D01*
X127402471Y-55096220D01*
X127400858Y-55028839D01*
X127395666Y-54962195D01*
X127386741Y-54896682D01*
X127373928Y-54832698D01*
X127366015Y-54801402D01*
X127357071Y-54770636D01*
X127347077Y-54740450D01*
X127336015Y-54710893D01*
X127323864Y-54682014D01*
X127310605Y-54653864D01*
X127296218Y-54626491D01*
X127280685Y-54599945D01*
X127263986Y-54574275D01*
X127246102Y-54549531D01*
X127227012Y-54525762D01*
X127206699Y-54503018D01*
X127185141Y-54481348D01*
X127162321Y-54460801D01*
X127138218Y-54441427D01*
X127112813Y-54423276D01*
X127086087Y-54406396D01*
X127058020Y-54390838D01*
X127028593Y-54376650D01*
X126997787Y-54363883D01*
X126965582Y-54352585D01*
X126931959Y-54342806D01*
X126896898Y-54334596D01*
X126860380Y-54328003D01*
X126828443Y-54323590D01*
X126796867Y-54320272D01*
X126765652Y-54318049D01*
X126734797Y-54316922D01*
X126704303Y-54316891D01*
X126674168Y-54317955D01*
X126644394Y-54320116D01*
X126614979Y-54323373D01*
X126567079Y-54331024D01*
X126521342Y-54341241D01*
X126477769Y-54354026D01*
X126436358Y-54369378D01*
X126416464Y-54378017D01*
X126397111Y-54387297D01*
X126378299Y-54397220D01*
X126360027Y-54407784D01*
X126342297Y-54418990D01*
X126325107Y-54430837D01*
X126308458Y-54443327D01*
X126292349Y-54456458D01*
X126276782Y-54470231D01*
X126261755Y-54484646D01*
X126247270Y-54499703D01*
X126233325Y-54515401D01*
X126219921Y-54531742D01*
X126207057Y-54548724D01*
X126194735Y-54566348D01*
X126182953Y-54584614D01*
X126161012Y-54623072D01*
X126141235Y-54664097D01*
X126123620Y-54707689D01*
X126108169Y-54753849D01*
X126096847Y-54793339D01*
X126087031Y-54832304D01*
X126078720Y-54870745D01*
X126071915Y-54908661D01*
X126066615Y-54946052D01*
X126062821Y-54982919D01*
X126060533Y-55019261D01*
X126059750Y-55055078D01*
X126058826Y-57249135D01*
X126058818Y-57249583D01*
X126058797Y-57250017D01*
X126058761Y-57250436D01*
X126058711Y-57250842D01*
X126058647Y-57251233D01*
X126058569Y-57251609D01*
X126058476Y-57251972D01*
X126058370Y-57252320D01*
X126058248Y-57252654D01*
X126058113Y-57252974D01*
X126057964Y-57253280D01*
X126057800Y-57253571D01*
X126057622Y-57253848D01*
X126057430Y-57254111D01*
X126057224Y-57254359D01*
X126057003Y-57254594D01*
X126056768Y-57254814D01*
X126056519Y-57255020D01*
X126056256Y-57255212D01*
X126055979Y-57255389D01*
X126055688Y-57255552D01*
X126055382Y-57255701D01*
X126055062Y-57255836D01*
X126054729Y-57255957D01*
X126054381Y-57256063D01*
X126054018Y-57256156D01*
X126053642Y-57256234D01*
X126053252Y-57256298D01*
X126052847Y-57256347D01*
X126052428Y-57256383D01*
X126051996Y-57256404D01*
X126051549Y-57256411D01*
X124964641Y-57256411D01*
X124964428Y-57256408D01*
X124964222Y-57256397D01*
X124964023Y-57256380D01*
X124963830Y-57256355D01*
X124963643Y-57256324D01*
X124963463Y-57256285D01*
X124963290Y-57256240D01*
X124963123Y-57256188D01*
X124962962Y-57256128D01*
X124962808Y-57256062D01*
X124962661Y-57255989D01*
X124962520Y-57255909D01*
X124962386Y-57255821D01*
X124962258Y-57255727D01*
X124962136Y-57255626D01*
X124962022Y-57255518D01*
X124961913Y-57255403D01*
X124961811Y-57255281D01*
X124961716Y-57255152D01*
X124961627Y-57255016D01*
X124961545Y-57254873D01*
X124961469Y-57254723D01*
X124961400Y-57254566D01*
X124961337Y-57254402D01*
X124961281Y-57254231D01*
X124961231Y-57254053D01*
X124961187Y-57253868D01*
X124961151Y-57253676D01*
X124961120Y-57253477D01*
X124961097Y-57253271D01*
X124961069Y-57252839D01*
X124961466Y-54716279D01*
X124962558Y-54656599D01*
X124965705Y-54596621D01*
X124970907Y-54536346D01*
X124978164Y-54475773D01*
X124987477Y-54414902D01*
X124998844Y-54353734D01*
X125012266Y-54292268D01*
X125027744Y-54230504D01*
X125037105Y-54196941D01*
X125047071Y-54164119D01*
X125057642Y-54132037D01*
X125068817Y-54100694D01*
X125080596Y-54070092D01*
X125092979Y-54040229D01*
X125105965Y-54011106D01*
X125119555Y-53982722D01*
X125155815Y-53914422D01*
X125195043Y-53849818D01*
X125237240Y-53788910D01*
X125282405Y-53731698D01*
X125330538Y-53678182D01*
X125381639Y-53628362D01*
X125435709Y-53582238D01*
X125492747Y-53539809D01*
X125552754Y-53501077D01*
X125615729Y-53466040D01*
X125681672Y-53434699D01*
X125750583Y-53407054D01*
X125822464Y-53383106D01*
X125897312Y-53362852D01*
X125975129Y-53346295D01*
X126055914Y-53333434D01*
X126125085Y-53325625D01*
X126193798Y-53320785D01*
X126261987Y-53318959D01*
X126329589Y-53320195D01*
X126396537Y-53324540D01*
X126462769Y-53332041D01*
X126528218Y-53342746D01*
X126592820Y-53356701D01*
X126656511Y-53373953D01*
X126719225Y-53394551D01*
X126780899Y-53418539D01*
X126841467Y-53445967D01*
X126900864Y-53476880D01*
X126959026Y-53511326D01*
X127015888Y-53549353D01*
X127071386Y-53591006D01*
X127114557Y-53626452D01*
X127156785Y-53663535D01*
X127198068Y-53702255D01*
X127238401Y-53742612D01*
X127277782Y-53784607D01*
X127316205Y-53828238D01*
X127353668Y-53873507D01*
X127390168Y-53920412D01*
X127391560Y-53922164D01*
X127392860Y-53923651D01*
X127393475Y-53924295D01*
X127394067Y-53924872D01*
X127394637Y-53925383D01*
X127395183Y-53925827D01*
X127395706Y-53926205D01*
X127396207Y-53926517D01*
X127396685Y-53926762D01*
X127397140Y-53926941D01*
X127397572Y-53927053D01*
X127397982Y-53927099D01*
X127398369Y-53927079D01*
X127398734Y-53926992D01*
X127399076Y-53926839D01*
X127399396Y-53926619D01*
X127399693Y-53926333D01*
X127399968Y-53925981D01*
X127400221Y-53925562D01*
X127400452Y-53925077D01*
X127400660Y-53924526D01*
X127400846Y-53923908D01*
X127401010Y-53923224D01*
X127401152Y-53922473D01*
X127401273Y-53921656D01*
X127401371Y-53920773D01*
X127401501Y-53918807D01*
X127401545Y-53916576D01*
X127401545Y-53145580D01*
X127401552Y-53145079D01*
X127401574Y-53144602D01*
X127401611Y-53144148D01*
X127401662Y-53143717D01*
X127401728Y-53143309D01*
X127401809Y-53142924D01*
X127401904Y-53142563D01*
X127402014Y-53142224D01*
X127402139Y-53141909D01*
X127402277Y-53141617D01*
X127402431Y-53141349D01*
X127402599Y-53141104D01*
X127402781Y-53140881D01*
X127402977Y-53140683D01*
X127403188Y-53140507D01*
X127403414Y-53140354D01*
X127403654Y-53140225D01*
X127403908Y-53140119D01*
X127404176Y-53140037D01*
X127404459Y-53139978D01*
X127404755Y-53139941D01*
X127405066Y-53139929D01*
X127405392Y-53139939D01*
G37*
G36*
X116921086Y-52082905D02*
G01*
X116978137Y-52085483D01*
X117035872Y-52090157D01*
X117125184Y-52101308D01*
X117212003Y-52116983D01*
X117296189Y-52137235D01*
X117377600Y-52162113D01*
X117456098Y-52191670D01*
X117494210Y-52208219D01*
X117531542Y-52225956D01*
X117568075Y-52244888D01*
X117603792Y-52265021D01*
X117638675Y-52286363D01*
X117672708Y-52308918D01*
X117705872Y-52332694D01*
X117738149Y-52357696D01*
X117769524Y-52383932D01*
X117799977Y-52411407D01*
X117829491Y-52440129D01*
X117858050Y-52470103D01*
X117885634Y-52501335D01*
X117912228Y-52533832D01*
X117937813Y-52567601D01*
X117962372Y-52602648D01*
X117985887Y-52638979D01*
X118008341Y-52676600D01*
X118029716Y-52715518D01*
X118049995Y-52755740D01*
X118069160Y-52797271D01*
X118087194Y-52840118D01*
X118096633Y-52864973D01*
X118105175Y-52890323D01*
X118112820Y-52916170D01*
X118119569Y-52942512D01*
X118125421Y-52969351D01*
X118130377Y-52996686D01*
X118134435Y-53024517D01*
X118137597Y-53052844D01*
X118139728Y-53077287D01*
X118141496Y-53101205D01*
X118142902Y-53124598D01*
X118143944Y-53147467D01*
X118144623Y-53169810D01*
X118144938Y-53191628D01*
X118144889Y-53212920D01*
X118144476Y-53233686D01*
X118136076Y-53471993D01*
X118134580Y-53532705D01*
X118133835Y-53593348D01*
X118134095Y-53653659D01*
X118135613Y-53713376D01*
X118135916Y-53720214D01*
X118136297Y-53727035D01*
X118136758Y-53733841D01*
X118137298Y-53740629D01*
X118137916Y-53747401D01*
X118138613Y-53754157D01*
X118139389Y-53760895D01*
X118140243Y-53767615D01*
X118140374Y-53768449D01*
X118140538Y-53769265D01*
X118140736Y-53770062D01*
X118140967Y-53770840D01*
X118141231Y-53771600D01*
X118141529Y-53772341D01*
X118141860Y-53773063D01*
X118142224Y-53773767D01*
X118142622Y-53774452D01*
X118143052Y-53775119D01*
X118143516Y-53775767D01*
X118144012Y-53776396D01*
X118144542Y-53777007D01*
X118145105Y-53777599D01*
X118145700Y-53778173D01*
X118146329Y-53778728D01*
X118191378Y-53817731D01*
X118235017Y-53857745D01*
X118277246Y-53898771D01*
X118318064Y-53940809D01*
X118357471Y-53983859D01*
X118395468Y-54027921D01*
X118432054Y-54072994D01*
X118467230Y-54119080D01*
X118500995Y-54166177D01*
X118533350Y-54214286D01*
X118564293Y-54263407D01*
X118593827Y-54313540D01*
X118621949Y-54364685D01*
X118648661Y-54416842D01*
X118673962Y-54470010D01*
X118697853Y-54524191D01*
X118698157Y-54524880D01*
X118698460Y-54525523D01*
X118698761Y-54526121D01*
X118699061Y-54526675D01*
X118699359Y-54527183D01*
X118699656Y-54527647D01*
X118699952Y-54528066D01*
X118700246Y-54528440D01*
X118700538Y-54528769D01*
X118700829Y-54529053D01*
X118701119Y-54529292D01*
X118701407Y-54529486D01*
X118701693Y-54529636D01*
X118701978Y-54529740D01*
X118702262Y-54529799D01*
X118702544Y-54529814D01*
X118702824Y-54529783D01*
X118703103Y-54529708D01*
X118703381Y-54529587D01*
X118703657Y-54529422D01*
X118703931Y-54529211D01*
X118704204Y-54528956D01*
X118704475Y-54528656D01*
X118704745Y-54528310D01*
X118705013Y-54527920D01*
X118705280Y-54527484D01*
X118705545Y-54527004D01*
X118705809Y-54526479D01*
X118706071Y-54525908D01*
X118706332Y-54525293D01*
X118706591Y-54524632D01*
X118706848Y-54523927D01*
X118720058Y-54487600D01*
X118733934Y-54451511D01*
X118748473Y-54415684D01*
X118763668Y-54380144D01*
X118779514Y-54344915D01*
X118796006Y-54310021D01*
X118813138Y-54275487D01*
X118830905Y-54241335D01*
X118849301Y-54207592D01*
X118868321Y-54174280D01*
X118887960Y-54141425D01*
X118908213Y-54109050D01*
X118929072Y-54077180D01*
X118950535Y-54045838D01*
X118972594Y-54015050D01*
X118995244Y-53984839D01*
X119067572Y-53896718D01*
X119144069Y-53815256D01*
X119224524Y-53740357D01*
X119308726Y-53671931D01*
X119396462Y-53609885D01*
X119487521Y-53554125D01*
X119581691Y-53504560D01*
X119678762Y-53461096D01*
X119778521Y-53423641D01*
X119880756Y-53392102D01*
X119985256Y-53366387D01*
X120091810Y-53346403D01*
X120200205Y-53332057D01*
X120310230Y-53323257D01*
X120421674Y-53319911D01*
X120534325Y-53321925D01*
X120635736Y-53328797D01*
X120736046Y-53340977D01*
X120835061Y-53358389D01*
X120932589Y-53380956D01*
X121028436Y-53408599D01*
X121122410Y-53441243D01*
X121214317Y-53478810D01*
X121303965Y-53521222D01*
X121391160Y-53568403D01*
X121475709Y-53620276D01*
X121557420Y-53676763D01*
X121636099Y-53737788D01*
X121711554Y-53803272D01*
X121783591Y-53873140D01*
X121852018Y-53947314D01*
X121916640Y-54025716D01*
X121959776Y-54083143D01*
X122000679Y-54141717D01*
X122039349Y-54201440D01*
X122075787Y-54262311D01*
X122109993Y-54324330D01*
X122141966Y-54387498D01*
X122171707Y-54451814D01*
X122199216Y-54517278D01*
X122224492Y-54583890D01*
X122247535Y-54651650D01*
X122268346Y-54720559D01*
X122286925Y-54790617D01*
X122303271Y-54861822D01*
X122317385Y-54934177D01*
X122329267Y-55007679D01*
X122338916Y-55082330D01*
X122342078Y-55112517D01*
X122344698Y-55143151D01*
X122346775Y-55174231D01*
X122348308Y-55205758D01*
X122348341Y-55206387D01*
X122348390Y-55206984D01*
X122348454Y-55207550D01*
X122348534Y-55208083D01*
X122348629Y-55208585D01*
X122348741Y-55209056D01*
X122348868Y-55209494D01*
X122349011Y-55209900D01*
X122349169Y-55210275D01*
X122349344Y-55210618D01*
X122349534Y-55210929D01*
X122349740Y-55211209D01*
X122349962Y-55211457D01*
X122350199Y-55211672D01*
X122350452Y-55211857D01*
X122350721Y-55212009D01*
X122351006Y-55212129D01*
X122351307Y-55212218D01*
X122351623Y-55212275D01*
X122351955Y-55212300D01*
X122352303Y-55212294D01*
X122352667Y-55212255D01*
X122353046Y-55212185D01*
X122353441Y-55212083D01*
X122353852Y-55211950D01*
X122354279Y-55211784D01*
X122354722Y-55211587D01*
X122355180Y-55211358D01*
X122355655Y-55211097D01*
X122356145Y-55210804D01*
X122356651Y-55210480D01*
X122357172Y-55210124D01*
X122394001Y-55184695D01*
X122431537Y-55160133D01*
X122469743Y-55136413D01*
X122508582Y-55113510D01*
X122548017Y-55091397D01*
X122588011Y-55070049D01*
X122669529Y-55029546D01*
X122752839Y-54991796D01*
X122837645Y-54956595D01*
X122923651Y-54923738D01*
X123010560Y-54893021D01*
X123256621Y-54808817D01*
X123492631Y-54727391D01*
X123532816Y-54713093D01*
X123572078Y-54698306D01*
X123610419Y-54683030D01*
X123647839Y-54667266D01*
X123684337Y-54651015D01*
X123719914Y-54634275D01*
X123754569Y-54617048D01*
X123788303Y-54599333D01*
X123809458Y-54587456D01*
X123830105Y-54574871D01*
X123850084Y-54561542D01*
X123869237Y-54547433D01*
X123887405Y-54532509D01*
X123904431Y-54516733D01*
X123920155Y-54500071D01*
X123934419Y-54482486D01*
X123940954Y-54473337D01*
X123947065Y-54463944D01*
X123952731Y-54454302D01*
X123957933Y-54444407D01*
X123962652Y-54434255D01*
X123966867Y-54423841D01*
X123970558Y-54413161D01*
X123973706Y-54402210D01*
X123976290Y-54390984D01*
X123978292Y-54379479D01*
X123979691Y-54367689D01*
X123980467Y-54355611D01*
X123980601Y-54343239D01*
X123980073Y-54330571D01*
X123978863Y-54317600D01*
X123976951Y-54304323D01*
X123974419Y-54291390D01*
X123971275Y-54278858D01*
X123967541Y-54266722D01*
X123963235Y-54254980D01*
X123958377Y-54243628D01*
X123952987Y-54232663D01*
X123947086Y-54222081D01*
X123940693Y-54211878D01*
X123933827Y-54202051D01*
X123926509Y-54192597D01*
X123918758Y-54183512D01*
X123910594Y-54174793D01*
X123893109Y-54158439D01*
X123874210Y-54143506D01*
X123854057Y-54129966D01*
X123832809Y-54117793D01*
X123810623Y-54106957D01*
X123787660Y-54097433D01*
X123764078Y-54089191D01*
X123740034Y-54082205D01*
X123715689Y-54076446D01*
X123691201Y-54071886D01*
X123652460Y-54066600D01*
X123613282Y-54063135D01*
X123573739Y-54061400D01*
X123533906Y-54061307D01*
X123493856Y-54062766D01*
X123453662Y-54065686D01*
X123413398Y-54069980D01*
X123373138Y-54075557D01*
X123332956Y-54082328D01*
X123292925Y-54090203D01*
X123253119Y-54099092D01*
X123213611Y-54108907D01*
X123135786Y-54130954D01*
X123060037Y-54155627D01*
X122982310Y-54183695D01*
X122904973Y-54213925D01*
X122828025Y-54246318D01*
X122751465Y-54280872D01*
X122675295Y-54317589D01*
X122599513Y-54356469D01*
X122524119Y-54397511D01*
X122449114Y-54440715D01*
X122448580Y-54441016D01*
X122448052Y-54441289D01*
X122447532Y-54441536D01*
X122447020Y-54441756D01*
X122446514Y-54441949D01*
X122446016Y-54442115D01*
X122445525Y-54442255D01*
X122445042Y-54442367D01*
X122444565Y-54442453D01*
X122444096Y-54442512D01*
X122443635Y-54442544D01*
X122443180Y-54442549D01*
X122442733Y-54442527D01*
X122442293Y-54442479D01*
X122441861Y-54442403D01*
X122441435Y-54442301D01*
X122441017Y-54442172D01*
X122440607Y-54442016D01*
X122440203Y-54441833D01*
X122439807Y-54441624D01*
X122439418Y-54441387D01*
X122439037Y-54441124D01*
X122438662Y-54440834D01*
X122438295Y-54440516D01*
X122437936Y-54440172D01*
X122437583Y-54439802D01*
X122437238Y-54439404D01*
X122436900Y-54438979D01*
X122436569Y-54438527D01*
X122436246Y-54438049D01*
X122435930Y-54437544D01*
X122435622Y-54437011D01*
X121996545Y-53641806D01*
X121996386Y-53641497D01*
X121996243Y-53641184D01*
X121996117Y-53640868D01*
X121996007Y-53640548D01*
X121995913Y-53640225D01*
X121995834Y-53639900D01*
X121995772Y-53639574D01*
X121995725Y-53639246D01*
X121995693Y-53638918D01*
X121995677Y-53638590D01*
X121995676Y-53638262D01*
X121995690Y-53637935D01*
X121995720Y-53637610D01*
X121995763Y-53637287D01*
X121995822Y-53636966D01*
X121995895Y-53636648D01*
X121995983Y-53636334D01*
X121996084Y-53636024D01*
X121996200Y-53635719D01*
X121996330Y-53635419D01*
X121996473Y-53635124D01*
X121996631Y-53634836D01*
X121996802Y-53634555D01*
X121996986Y-53634281D01*
X121997183Y-53634015D01*
X121997394Y-53633757D01*
X121997618Y-53633507D01*
X121997854Y-53633268D01*
X121998104Y-53633038D01*
X121998365Y-53632819D01*
X121998640Y-53632610D01*
X121998926Y-53632413D01*
X122090275Y-53574750D01*
X122183932Y-53520395D01*
X122279735Y-53469449D01*
X122377522Y-53422016D01*
X122477130Y-53378196D01*
X122578395Y-53338092D01*
X122681157Y-53301805D01*
X122785251Y-53269438D01*
X122890516Y-53241092D01*
X122996789Y-53216870D01*
X123103907Y-53196873D01*
X123211708Y-53181204D01*
X123320029Y-53169963D01*
X123428707Y-53163254D01*
X123537581Y-53161177D01*
X123646487Y-53163836D01*
X123743007Y-53170769D01*
X123839248Y-53182634D01*
X123934778Y-53199504D01*
X124029161Y-53221449D01*
X124121964Y-53248542D01*
X124212754Y-53280852D01*
X124301097Y-53318453D01*
X124344215Y-53339259D01*
X124386559Y-53361414D01*
X124428074Y-53384927D01*
X124468707Y-53409807D01*
X124508402Y-53436063D01*
X124547106Y-53463704D01*
X124584765Y-53492739D01*
X124621324Y-53523176D01*
X124656728Y-53555025D01*
X124690925Y-53588294D01*
X124723860Y-53622993D01*
X124755478Y-53659129D01*
X124785725Y-53696713D01*
X124814547Y-53735754D01*
X124841890Y-53776259D01*
X124867700Y-53818238D01*
X124891922Y-53861700D01*
X124914503Y-53906654D01*
X124914826Y-53907381D01*
X124915104Y-53908108D01*
X124915335Y-53908835D01*
X124915519Y-53909563D01*
X124915657Y-53910291D01*
X124915748Y-53911019D01*
X124915793Y-53911746D01*
X124915792Y-53912475D01*
X124915744Y-53913203D01*
X124915649Y-53913931D01*
X124915508Y-53914658D01*
X124915320Y-53915386D01*
X124915086Y-53916114D01*
X124914806Y-53916841D01*
X124914479Y-53917568D01*
X124914105Y-53918295D01*
X124892022Y-53960549D01*
X124871312Y-54003580D01*
X124851970Y-54047325D01*
X124833994Y-54091726D01*
X124817379Y-54136720D01*
X124802121Y-54182247D01*
X124788217Y-54228246D01*
X124775662Y-54274656D01*
X124764453Y-54321417D01*
X124754585Y-54368467D01*
X124746056Y-54415746D01*
X124738860Y-54463192D01*
X124732995Y-54510746D01*
X124728455Y-54558346D01*
X124725239Y-54605931D01*
X124723340Y-54653440D01*
X124720146Y-54804796D01*
X124718639Y-54954599D01*
X124718822Y-55102849D01*
X124720695Y-55249547D01*
X124720699Y-55250743D01*
X124720648Y-55251917D01*
X124720540Y-55253067D01*
X124720378Y-55254195D01*
X124720159Y-55255300D01*
X124719884Y-55256382D01*
X124719554Y-55257441D01*
X124719169Y-55258478D01*
X124718727Y-55259492D01*
X124718230Y-55260483D01*
X124717677Y-55261451D01*
X124717069Y-55262396D01*
X124716405Y-55263319D01*
X124715686Y-55264219D01*
X124714910Y-55265096D01*
X124714080Y-55265951D01*
X124703149Y-55276719D01*
X124691987Y-55287325D01*
X124680593Y-55297770D01*
X124668967Y-55308052D01*
X124657110Y-55318174D01*
X124645022Y-55328135D01*
X124632704Y-55337935D01*
X124620154Y-55347575D01*
X124581268Y-55375999D01*
X124541541Y-55403206D01*
X124501024Y-55429238D01*
X124459766Y-55454138D01*
X124417821Y-55477947D01*
X124375238Y-55500707D01*
X124332069Y-55522461D01*
X124288366Y-55543251D01*
X124244179Y-55563118D01*
X124199559Y-55582104D01*
X124109226Y-55617605D01*
X124017778Y-55650088D01*
X123925622Y-55679891D01*
X123714246Y-55744382D01*
X123505331Y-55806362D01*
X123467640Y-55817676D01*
X123430309Y-55829462D01*
X123393339Y-55841720D01*
X123356730Y-55854450D01*
X123320480Y-55867651D01*
X123284591Y-55881323D01*
X123249062Y-55895466D01*
X123213892Y-55910079D01*
X123196847Y-55917524D01*
X123180063Y-55925284D01*
X123163570Y-55933371D01*
X123147400Y-55941800D01*
X123131582Y-55950584D01*
X123116150Y-55959736D01*
X123101133Y-55969271D01*
X123086562Y-55979201D01*
X123072469Y-55989541D01*
X123058884Y-56000303D01*
X123045839Y-56011502D01*
X123033364Y-56023151D01*
X123021491Y-56035263D01*
X123010250Y-56047853D01*
X122999673Y-56060933D01*
X122989790Y-56074518D01*
X122987269Y-56078260D01*
X122984867Y-56081981D01*
X122982581Y-56085680D01*
X122980414Y-56089358D01*
X122978365Y-56093014D01*
X122976433Y-56096649D01*
X122974619Y-56100262D01*
X122972923Y-56103853D01*
X122971345Y-56107423D01*
X122969885Y-56110971D01*
X122968542Y-56114497D01*
X122967318Y-56118001D01*
X122966211Y-56121484D01*
X122965222Y-56124944D01*
X122964350Y-56128383D01*
X122963597Y-56131799D01*
X122959966Y-56152619D01*
X122957535Y-56172789D01*
X122956271Y-56192314D01*
X122956142Y-56211199D01*
X122957115Y-56229448D01*
X122959157Y-56247065D01*
X122962236Y-56264056D01*
X122966319Y-56280425D01*
X122971374Y-56296177D01*
X122977367Y-56311315D01*
X122984266Y-56325846D01*
X122992039Y-56339773D01*
X123000653Y-56353101D01*
X123010076Y-56365834D01*
X123020274Y-56377978D01*
X123031215Y-56389537D01*
X123042866Y-56400515D01*
X123055195Y-56410917D01*
X123068170Y-56420747D01*
X123081757Y-56430011D01*
X123095923Y-56438713D01*
X123110637Y-56446857D01*
X123141577Y-56461491D01*
X123174314Y-56473950D01*
X123208588Y-56484270D01*
X123244137Y-56492490D01*
X123280701Y-56498644D01*
X123334799Y-56504840D01*
X123389742Y-56508613D01*
X123445527Y-56509965D01*
X123502156Y-56508894D01*
X123559629Y-56505401D01*
X123617945Y-56499485D01*
X123677104Y-56491148D01*
X123737107Y-56480388D01*
X123803097Y-56466165D01*
X123868410Y-56449791D01*
X123933047Y-56431346D01*
X123997008Y-56410908D01*
X124060292Y-56388556D01*
X124122899Y-56364370D01*
X124184829Y-56338427D01*
X124246082Y-56310807D01*
X124306658Y-56281588D01*
X124366555Y-56250851D01*
X124425775Y-56218672D01*
X124484317Y-56185132D01*
X124542180Y-56150309D01*
X124599365Y-56114282D01*
X124655871Y-56077129D01*
X124711699Y-56038931D01*
X124712170Y-56038614D01*
X124712626Y-56038326D01*
X124713068Y-56038066D01*
X124713495Y-56037834D01*
X124713906Y-56037631D01*
X124714303Y-56037456D01*
X124714685Y-56037310D01*
X124715052Y-56037192D01*
X124715404Y-56037103D01*
X124715741Y-56037042D01*
X124716063Y-56037009D01*
X124716371Y-56037005D01*
X124716663Y-56037030D01*
X124716941Y-56037083D01*
X124717203Y-56037164D01*
X124717450Y-56037274D01*
X124717683Y-56037412D01*
X124717901Y-56037579D01*
X124718103Y-56037774D01*
X124718291Y-56037998D01*
X124718463Y-56038250D01*
X124718621Y-56038530D01*
X124718764Y-56038839D01*
X124718892Y-56039176D01*
X124719004Y-56039542D01*
X124719102Y-56039937D01*
X124719185Y-56040359D01*
X124719252Y-56040810D01*
X124719305Y-56041290D01*
X124719342Y-56041798D01*
X124719365Y-56042334D01*
X124719372Y-56042899D01*
X124719372Y-57108641D01*
X124719339Y-57109779D01*
X124719298Y-57110333D01*
X124719240Y-57110877D01*
X124719165Y-57111410D01*
X124719074Y-57111934D01*
X124718966Y-57112447D01*
X124718842Y-57112950D01*
X124718701Y-57113443D01*
X124718544Y-57113926D01*
X124718370Y-57114399D01*
X124718179Y-57114862D01*
X124717972Y-57115314D01*
X124717749Y-57115757D01*
X124717509Y-57116189D01*
X124717252Y-57116612D01*
X124716979Y-57117024D01*
X124716689Y-57117426D01*
X124716383Y-57117819D01*
X124716061Y-57118201D01*
X124715722Y-57118573D01*
X124715366Y-57118935D01*
X124714994Y-57119287D01*
X124714606Y-57119628D01*
X124714201Y-57119960D01*
X124713779Y-57120282D01*
X124713341Y-57120594D01*
X124712887Y-57120896D01*
X124712416Y-57121187D01*
X124711929Y-57121469D01*
X124710905Y-57122002D01*
X124624750Y-57161554D01*
X124538299Y-57198191D01*
X124451554Y-57231912D01*
X124364512Y-57262717D01*
X124277176Y-57290607D01*
X124189544Y-57315581D01*
X124101617Y-57337640D01*
X124013394Y-57356784D01*
X123924876Y-57373012D01*
X123836062Y-57386324D01*
X123746953Y-57396721D01*
X123657548Y-57404203D01*
X123567848Y-57408769D01*
X123477851Y-57410420D01*
X123387559Y-57409155D01*
X123296972Y-57404974D01*
X123190276Y-57395906D01*
X123084662Y-57381927D01*
X122980595Y-57362856D01*
X122878539Y-57338514D01*
X122778961Y-57308722D01*
X122730245Y-57291725D01*
X122682323Y-57273299D01*
X122635253Y-57253419D01*
X122589092Y-57232065D01*
X122543899Y-57209213D01*
X122499733Y-57184841D01*
X122456650Y-57158927D01*
X122414709Y-57131447D01*
X122373969Y-57102380D01*
X122334487Y-57071703D01*
X122296321Y-57039393D01*
X122259530Y-57005429D01*
X122224172Y-56969787D01*
X122190304Y-56932445D01*
X122157986Y-56893381D01*
X122127275Y-56852572D01*
X122098228Y-56809996D01*
X122070905Y-56765630D01*
X122045364Y-56719451D01*
X122021662Y-56671438D01*
X121999857Y-56621568D01*
X121980009Y-56569817D01*
X121979833Y-56569344D01*
X121979652Y-56568898D01*
X121979467Y-56568479D01*
X121979277Y-56568089D01*
X121979082Y-56567725D01*
X121978883Y-56567390D01*
X121978679Y-56567082D01*
X121978470Y-56566801D01*
X121978257Y-56566549D01*
X121978039Y-56566323D01*
X121977817Y-56566126D01*
X121977590Y-56565956D01*
X121977358Y-56565814D01*
X121977122Y-56565699D01*
X121976881Y-56565612D01*
X121976635Y-56565553D01*
X121976384Y-56565521D01*
X121976129Y-56565517D01*
X121975870Y-56565540D01*
X121975605Y-56565591D01*
X121975336Y-56565670D01*
X121975063Y-56565777D01*
X121974785Y-56565911D01*
X121974502Y-56566073D01*
X121974214Y-56566262D01*
X121973922Y-56566479D01*
X121973625Y-56566724D01*
X121973324Y-56566996D01*
X121973017Y-56567296D01*
X121972707Y-56567624D01*
X121972391Y-56567979D01*
X121972071Y-56568362D01*
X121934219Y-56614755D01*
X121902419Y-56653126D01*
X121888789Y-56669305D01*
X121876672Y-56683479D01*
X121866068Y-56695648D01*
X121856977Y-56705813D01*
X121789344Y-56776271D01*
X121718745Y-56842588D01*
X121645319Y-56904765D01*
X121569204Y-56962804D01*
X121490537Y-57016706D01*
X121409458Y-57066473D01*
X121326104Y-57112105D01*
X121240614Y-57153604D01*
X121153125Y-57190972D01*
X121063776Y-57224209D01*
X120972705Y-57253318D01*
X120880051Y-57278299D01*
X120785950Y-57299154D01*
X120690543Y-57315885D01*
X120593966Y-57328492D01*
X120496358Y-57336977D01*
X120403963Y-57341387D01*
X120312386Y-57342444D01*
X120221629Y-57340147D01*
X120131691Y-57334498D01*
X120042571Y-57325495D01*
X119954272Y-57313140D01*
X119866791Y-57297432D01*
X119780131Y-57278372D01*
X119704851Y-57258609D01*
X119630895Y-57235861D01*
X119558305Y-57210169D01*
X119487125Y-57181573D01*
X119417398Y-57150115D01*
X119349166Y-57115835D01*
X119282473Y-57078774D01*
X119217362Y-57038973D01*
X119153875Y-56996473D01*
X119092056Y-56951315D01*
X119031948Y-56903540D01*
X118973594Y-56853188D01*
X118917036Y-56800301D01*
X118862318Y-56744919D01*
X118809483Y-56687083D01*
X118758574Y-56626835D01*
X118758246Y-56626423D01*
X118757941Y-56626013D01*
X118757659Y-56625605D01*
X118757400Y-56625199D01*
X118757164Y-56624795D01*
X118756951Y-56624393D01*
X118756761Y-56623993D01*
X118756594Y-56623596D01*
X118756451Y-56623200D01*
X118756330Y-56622806D01*
X118756233Y-56622414D01*
X118756158Y-56622025D01*
X118756107Y-56621637D01*
X118756078Y-56621252D01*
X118756073Y-56620868D01*
X118756091Y-56620487D01*
X118756131Y-56620107D01*
X118756195Y-56619730D01*
X118756282Y-56619355D01*
X118756391Y-56618981D01*
X118756524Y-56618610D01*
X118756680Y-56618241D01*
X118756858Y-56617874D01*
X118757060Y-56617509D01*
X118757285Y-56617146D01*
X118757532Y-56616785D01*
X118757803Y-56616427D01*
X118758096Y-56616070D01*
X118758413Y-56615715D01*
X118758752Y-56615363D01*
X118759115Y-56615012D01*
X118759500Y-56614664D01*
X119376641Y-56068300D01*
X119377029Y-56067963D01*
X119377417Y-56067649D01*
X119377805Y-56067357D01*
X119378194Y-56067086D01*
X119378582Y-56066838D01*
X119378970Y-56066611D01*
X119379358Y-56066406D01*
X119379747Y-56066224D01*
X119380135Y-56066063D01*
X119380523Y-56065924D01*
X119380911Y-56065807D01*
X119381300Y-56065713D01*
X119381688Y-56065640D01*
X119382077Y-56065589D01*
X119382465Y-56065560D01*
X119382854Y-56065553D01*
X119383242Y-56065568D01*
X119383631Y-56065605D01*
X119384019Y-56065664D01*
X119384408Y-56065745D01*
X119384797Y-56065848D01*
X119385185Y-56065973D01*
X119385574Y-56066120D01*
X119385963Y-56066289D01*
X119386352Y-56066480D01*
X119386741Y-56066692D01*
X119387130Y-56066927D01*
X119387519Y-56067184D01*
X119387908Y-56067463D01*
X119388298Y-56067764D01*
X119388687Y-56068087D01*
X119389076Y-56068432D01*
X119427181Y-56102727D01*
X119465819Y-56136000D01*
X119505036Y-56168155D01*
X119544875Y-56199101D01*
X119585380Y-56228744D01*
X119626597Y-56256990D01*
X119668568Y-56283747D01*
X119711339Y-56308922D01*
X119754953Y-56332420D01*
X119799454Y-56354149D01*
X119844888Y-56374017D01*
X119891297Y-56391928D01*
X119938726Y-56407791D01*
X119987220Y-56421512D01*
X120036822Y-56432998D01*
X120087576Y-56442156D01*
X120118943Y-56446710D01*
X120150041Y-56450616D01*
X120180868Y-56453871D01*
X120211426Y-56456478D01*
X120241714Y-56458436D01*
X120271733Y-56459744D01*
X120301481Y-56460404D01*
X120330960Y-56460414D01*
X120360169Y-56459775D01*
X120389108Y-56458487D01*
X120417778Y-56456550D01*
X120446178Y-56453964D01*
X120474308Y-56450728D01*
X120502168Y-56446844D01*
X120529758Y-56442311D01*
X120557079Y-56437129D01*
X120592669Y-56429248D01*
X120627381Y-56420250D01*
X120661215Y-56410154D01*
X120694170Y-56398975D01*
X120726246Y-56386731D01*
X120757442Y-56373439D01*
X120787758Y-56359116D01*
X120817194Y-56343778D01*
X120845748Y-56327444D01*
X120873422Y-56310130D01*
X120926122Y-56272630D01*
X120975292Y-56231414D01*
X121020927Y-56186618D01*
X121063025Y-56138379D01*
X121101581Y-56086834D01*
X121136593Y-56032117D01*
X121168056Y-55974366D01*
X121195968Y-55913717D01*
X121220324Y-55850306D01*
X121241122Y-55784269D01*
X121258357Y-55715743D01*
X121258448Y-55715303D01*
X121258521Y-55714877D01*
X121258577Y-55714466D01*
X121258615Y-55714068D01*
X121258636Y-55713684D01*
X121258640Y-55713315D01*
X121258627Y-55712959D01*
X121258596Y-55712617D01*
X121258547Y-55712289D01*
X121258482Y-55711975D01*
X121258399Y-55711675D01*
X121258299Y-55711389D01*
X121258182Y-55711117D01*
X121258047Y-55710859D01*
X121257895Y-55710615D01*
X121257726Y-55710384D01*
X121257539Y-55710168D01*
X121257335Y-55709966D01*
X121257114Y-55709778D01*
X121256876Y-55709603D01*
X121256620Y-55709443D01*
X121256347Y-55709296D01*
X121256057Y-55709164D01*
X121255749Y-55709045D01*
X121255424Y-55708940D01*
X121255082Y-55708850D01*
X121254723Y-55708773D01*
X121254347Y-55708710D01*
X121253953Y-55708661D01*
X121253542Y-55708626D01*
X121253114Y-55708605D01*
X121252669Y-55708598D01*
X118833451Y-55708598D01*
X118833067Y-55708604D01*
X118832693Y-55708622D01*
X118832329Y-55708652D01*
X118831975Y-55708693D01*
X118831631Y-55708747D01*
X118831297Y-55708812D01*
X118830974Y-55708889D01*
X118830660Y-55708978D01*
X118830357Y-55709079D01*
X118830064Y-55709192D01*
X118829781Y-55709317D01*
X118829508Y-55709453D01*
X118829246Y-55709602D01*
X118828993Y-55709762D01*
X118828751Y-55709934D01*
X118828518Y-55710118D01*
X118828296Y-55710314D01*
X118828084Y-55710522D01*
X118827882Y-55710742D01*
X118827690Y-55710974D01*
X118827508Y-55711217D01*
X118827337Y-55711473D01*
X118827175Y-55711740D01*
X118827024Y-55712020D01*
X118826882Y-55712311D01*
X118826751Y-55712614D01*
X118826630Y-55712929D01*
X118826519Y-55713257D01*
X118826418Y-55713595D01*
X118826327Y-55713946D01*
X118826246Y-55714309D01*
X118826175Y-55714684D01*
X118813560Y-55779108D01*
X118799132Y-55842537D01*
X118782889Y-55904970D01*
X118764833Y-55966409D01*
X118744963Y-56026852D01*
X118723279Y-56086301D01*
X118699781Y-56144754D01*
X118674470Y-56202212D01*
X118647344Y-56258674D01*
X118618405Y-56314142D01*
X118587652Y-56368614D01*
X118555085Y-56422090D01*
X118520704Y-56474571D01*
X118484509Y-56526057D01*
X118446501Y-56576547D01*
X118406678Y-56626041D01*
X118344342Y-56697756D01*
X118279704Y-56765722D01*
X118212764Y-56829941D01*
X118143523Y-56890412D01*
X118071980Y-56947136D01*
X117998136Y-57000112D01*
X117921990Y-57049340D01*
X117843542Y-57094820D01*
X117762793Y-57136553D01*
X117679743Y-57174538D01*
X117594391Y-57208775D01*
X117506737Y-57239265D01*
X117416782Y-57266007D01*
X117324525Y-57289002D01*
X117229966Y-57308248D01*
X117133106Y-57323747D01*
X117062249Y-57332251D01*
X116989974Y-57338315D01*
X116916280Y-57341941D01*
X116841169Y-57343127D01*
X116764639Y-57341874D01*
X116686693Y-57338182D01*
X116607329Y-57332052D01*
X116526549Y-57323483D01*
X116460196Y-57314450D01*
X116394882Y-57303422D01*
X116330607Y-57290401D01*
X116267373Y-57275387D01*
X116205178Y-57258378D01*
X116144023Y-57239376D01*
X116083907Y-57218381D01*
X116024832Y-57195391D01*
X115966796Y-57170409D01*
X115909799Y-57143432D01*
X115853843Y-57114462D01*
X115798927Y-57083498D01*
X115745050Y-57050540D01*
X115692213Y-57015588D01*
X115640417Y-56978643D01*
X115589660Y-56939705D01*
X115549421Y-56906993D01*
X115509538Y-56873154D01*
X115470011Y-56838185D01*
X115430840Y-56802088D01*
X115392025Y-56764863D01*
X115353566Y-56726508D01*
X115315463Y-56687026D01*
X115277716Y-56646414D01*
X115277059Y-56645679D01*
X115276446Y-56644945D01*
X115275875Y-56644211D01*
X115275348Y-56643478D01*
X115274864Y-56642746D01*
X115274423Y-56642014D01*
X115274025Y-56641283D01*
X115273670Y-56640553D01*
X115273359Y-56639824D01*
X115273091Y-56639095D01*
X115272866Y-56638367D01*
X115272684Y-56637640D01*
X115272545Y-56636914D01*
X115272450Y-56636188D01*
X115272397Y-56635464D01*
X115272388Y-56634739D01*
X115272422Y-56634016D01*
X115272499Y-56633294D01*
X115272619Y-56632572D01*
X115272783Y-56631851D01*
X115272990Y-56631131D01*
X115273240Y-56630412D01*
X115273533Y-56629693D01*
X115273869Y-56628975D01*
X115274248Y-56628258D01*
X115274671Y-56627542D01*
X115275137Y-56626827D01*
X115275645Y-56626113D01*
X115276198Y-56625399D01*
X115276793Y-56624686D01*
X115277431Y-56623974D01*
X115278113Y-56623263D01*
X115905440Y-55989718D01*
X115905810Y-55989362D01*
X115906194Y-55989029D01*
X115906591Y-55988719D01*
X115906999Y-55988430D01*
X115907418Y-55988165D01*
X115907847Y-55987922D01*
X115908285Y-55987702D01*
X115908731Y-55987504D01*
X115909184Y-55987329D01*
X115909644Y-55987177D01*
X115910109Y-55987048D01*
X115910579Y-55986941D01*
X115911053Y-55986856D01*
X115911529Y-55986795D01*
X115912008Y-55986756D01*
X115912488Y-55986740D01*
X115912968Y-55986747D01*
X115913447Y-55986776D01*
X115913925Y-55986829D01*
X115914400Y-55986904D01*
X115914872Y-55987002D01*
X115915340Y-55987122D01*
X115915803Y-55987266D01*
X115916260Y-55987432D01*
X115916710Y-55987621D01*
X115917152Y-55987833D01*
X115917586Y-55988068D01*
X115918010Y-55988326D01*
X115918424Y-55988606D01*
X115918827Y-55988910D01*
X115919218Y-55989237D01*
X115919595Y-55989586D01*
X115943207Y-56012355D01*
X115967608Y-56035021D01*
X115992798Y-56057583D01*
X116018778Y-56080042D01*
X116045547Y-56102398D01*
X116073108Y-56124649D01*
X116101459Y-56146797D01*
X116130600Y-56168841D01*
X116173040Y-56199173D01*
X116215994Y-56227328D01*
X116259462Y-56253306D01*
X116303444Y-56277107D01*
X116347940Y-56298731D01*
X116392950Y-56318179D01*
X116438473Y-56335450D01*
X116484510Y-56350544D01*
X116531061Y-56363462D01*
X116578126Y-56374203D01*
X116625705Y-56382767D01*
X116673797Y-56389155D01*
X116722403Y-56393367D01*
X116771522Y-56395402D01*
X116821155Y-56395261D01*
X116871302Y-56392944D01*
X116921731Y-56388240D01*
X116971509Y-56381041D01*
X117020551Y-56371373D01*
X117068770Y-56359263D01*
X117116079Y-56344736D01*
X117162393Y-56327817D01*
X117207625Y-56308534D01*
X117251690Y-56286912D01*
X117294500Y-56262977D01*
X117335969Y-56236754D01*
X117376013Y-56208271D01*
X117414543Y-56177552D01*
X117451474Y-56144624D01*
X117486720Y-56109513D01*
X117520194Y-56072245D01*
X117551810Y-56032846D01*
X117583138Y-55989238D01*
X117611959Y-55944434D01*
X117638308Y-55898501D01*
X117662222Y-55851509D01*
X117683734Y-55803525D01*
X117702882Y-55754618D01*
X117719700Y-55704857D01*
X117734223Y-55654309D01*
X117746488Y-55603044D01*
X117756530Y-55551129D01*
X117764383Y-55498634D01*
X117770085Y-55445625D01*
X117773669Y-55392173D01*
X117775172Y-55338345D01*
X117774629Y-55284210D01*
X117772076Y-55229835D01*
X117767908Y-55181440D01*
X117761776Y-55133513D01*
X117753711Y-55086124D01*
X117743746Y-55039345D01*
X117738402Y-55018529D01*
X119630623Y-55018529D01*
X119630624Y-55018642D01*
X119630630Y-55018755D01*
X119630643Y-55018866D01*
X119630661Y-55018977D01*
X119630685Y-55019086D01*
X119630715Y-55019194D01*
X119630751Y-55019299D01*
X119630792Y-55019403D01*
X119630839Y-55019504D01*
X119630892Y-55019603D01*
X119630950Y-55019699D01*
X119631014Y-55019792D01*
X119631082Y-55019882D01*
X119631157Y-55019968D01*
X119631233Y-55020052D01*
X119631314Y-55020131D01*
X119631399Y-55020205D01*
X119631487Y-55020275D01*
X119631579Y-55020338D01*
X119631674Y-55020397D01*
X119631772Y-55020450D01*
X119631873Y-55020498D01*
X119631976Y-55020541D01*
X119632082Y-55020578D01*
X119632191Y-55020609D01*
X119632301Y-55020635D01*
X119632413Y-55020656D01*
X119632526Y-55020670D01*
X119632641Y-55020679D01*
X119632757Y-55020682D01*
X121269337Y-55020682D01*
X121269637Y-55020677D01*
X121269926Y-55020663D01*
X121270203Y-55020639D01*
X121270470Y-55020606D01*
X121270725Y-55020563D01*
X121270970Y-55020510D01*
X121271203Y-55020448D01*
X121271426Y-55020377D01*
X121271637Y-55020295D01*
X121271837Y-55020205D01*
X121272027Y-55020105D01*
X121272205Y-55019995D01*
X121272372Y-55019875D01*
X121272528Y-55019746D01*
X121272673Y-55019608D01*
X121272807Y-55019460D01*
X121272930Y-55019302D01*
X121273042Y-55019135D01*
X121273142Y-55018958D01*
X121273232Y-55018772D01*
X121273310Y-55018576D01*
X121273378Y-55018370D01*
X121273434Y-55018155D01*
X121273479Y-55017931D01*
X121273513Y-55017696D01*
X121273535Y-55017452D01*
X121273547Y-55017199D01*
X121273548Y-55016936D01*
X121273537Y-55016663D01*
X121273515Y-55016381D01*
X121273482Y-55016089D01*
X121273438Y-55015787D01*
X121266227Y-54974311D01*
X121257630Y-54932939D01*
X121247632Y-54891760D01*
X121236219Y-54850861D01*
X121223375Y-54810331D01*
X121209084Y-54770258D01*
X121193333Y-54730731D01*
X121176105Y-54691838D01*
X121157386Y-54653667D01*
X121137160Y-54616308D01*
X121115413Y-54579847D01*
X121092129Y-54544374D01*
X121067293Y-54509977D01*
X121040890Y-54476744D01*
X121012905Y-54444764D01*
X120983323Y-54414125D01*
X120944730Y-54378833D01*
X120903941Y-54346728D01*
X120861150Y-54317812D01*
X120816553Y-54292088D01*
X120770343Y-54269558D01*
X120722716Y-54250225D01*
X120673865Y-54234092D01*
X120623986Y-54221161D01*
X120573273Y-54211434D01*
X120521920Y-54204914D01*
X120470122Y-54201603D01*
X120418074Y-54201505D01*
X120365970Y-54204621D01*
X120314005Y-54210954D01*
X120262373Y-54220507D01*
X120211269Y-54233282D01*
X120178416Y-54243414D01*
X120146576Y-54254904D01*
X120115743Y-54267710D01*
X120085911Y-54281788D01*
X120057074Y-54297097D01*
X120029224Y-54313591D01*
X120002355Y-54331230D01*
X119976462Y-54349969D01*
X119951536Y-54369767D01*
X119927573Y-54390579D01*
X119882505Y-54435077D01*
X119841208Y-54483119D01*
X119803629Y-54534361D01*
X119769716Y-54588461D01*
X119739418Y-54645075D01*
X119712683Y-54703858D01*
X119689459Y-54764468D01*
X119669694Y-54826561D01*
X119653338Y-54889793D01*
X119640337Y-54953821D01*
X119630641Y-55018301D01*
X119630629Y-55018415D01*
X119630623Y-55018529D01*
X117738402Y-55018529D01*
X117731912Y-54993248D01*
X117718241Y-54947903D01*
X117702764Y-54903381D01*
X117685513Y-54859755D01*
X117666521Y-54817096D01*
X117645818Y-54775474D01*
X117623437Y-54734961D01*
X117599409Y-54695628D01*
X117573767Y-54657547D01*
X117546541Y-54620789D01*
X117517763Y-54585425D01*
X117487466Y-54551526D01*
X117455682Y-54519164D01*
X117422441Y-54488410D01*
X117387775Y-54459336D01*
X117351717Y-54432012D01*
X117314299Y-54406510D01*
X117275551Y-54382901D01*
X117235505Y-54361256D01*
X117194194Y-54341648D01*
X117151650Y-54324146D01*
X117107903Y-54308823D01*
X117062986Y-54295749D01*
X117016930Y-54284996D01*
X116969767Y-54276635D01*
X116921530Y-54270738D01*
X116872249Y-54267376D01*
X116821957Y-54266620D01*
X116774887Y-54268100D01*
X116728502Y-54271450D01*
X116682802Y-54276670D01*
X116637786Y-54283760D01*
X116593455Y-54292719D01*
X116549808Y-54303547D01*
X116506846Y-54316246D01*
X116464567Y-54330814D01*
X116422973Y-54347252D01*
X116382064Y-54365559D01*
X116341838Y-54385736D01*
X116302297Y-54407783D01*
X116263440Y-54431699D01*
X116225267Y-54457485D01*
X116187778Y-54485141D01*
X116150973Y-54514666D01*
X116126577Y-54535375D01*
X116102542Y-54556356D01*
X116078867Y-54577609D01*
X116055553Y-54599135D01*
X116032599Y-54620933D01*
X116010005Y-54643005D01*
X115987771Y-54665350D01*
X115965897Y-54687969D01*
X115965666Y-54688198D01*
X115965425Y-54688413D01*
X115965174Y-54688616D01*
X115964914Y-54688804D01*
X115964645Y-54688979D01*
X115964369Y-54689139D01*
X115964085Y-54689285D01*
X115963794Y-54689415D01*
X115963497Y-54689531D01*
X115963194Y-54689632D01*
X115962887Y-54689717D01*
X115962575Y-54689786D01*
X115962259Y-54689839D01*
X115961939Y-54689876D01*
X115961618Y-54689896D01*
X115961293Y-54689900D01*
X115960970Y-54689886D01*
X115960649Y-54689856D01*
X115960331Y-54689809D01*
X115960017Y-54689747D01*
X115959708Y-54689668D01*
X115959404Y-54689574D01*
X115959105Y-54689464D01*
X115958813Y-54689339D01*
X115958528Y-54689200D01*
X115958250Y-54689046D01*
X115957979Y-54688878D01*
X115957718Y-54688696D01*
X115957466Y-54688501D01*
X115957223Y-54688292D01*
X115956991Y-54688071D01*
X115956769Y-54687836D01*
X115294253Y-53975181D01*
X115293940Y-53974842D01*
X115293647Y-53974503D01*
X115293374Y-53974164D01*
X115293122Y-53973824D01*
X115292888Y-53973484D01*
X115292675Y-53973144D01*
X115292482Y-53972803D01*
X115292308Y-53972462D01*
X115292155Y-53972121D01*
X115292021Y-53971780D01*
X115291907Y-53971438D01*
X115291813Y-53971096D01*
X115291739Y-53970754D01*
X115291685Y-53970411D01*
X115291651Y-53970069D01*
X115291636Y-53969726D01*
X115291642Y-53969382D01*
X115291668Y-53969039D01*
X115291713Y-53968695D01*
X115291778Y-53968350D01*
X115291864Y-53968006D01*
X115291969Y-53967661D01*
X115292094Y-53967316D01*
X115292240Y-53966971D01*
X115292405Y-53966626D01*
X115292590Y-53966280D01*
X115292795Y-53965934D01*
X115293020Y-53965588D01*
X115293265Y-53965241D01*
X115293530Y-53964895D01*
X115293815Y-53964548D01*
X115294120Y-53964201D01*
X115332598Y-53922331D01*
X115371635Y-53881921D01*
X115411229Y-53842971D01*
X115451382Y-53805480D01*
X115492093Y-53769450D01*
X115533361Y-53734879D01*
X115575188Y-53701768D01*
X115617573Y-53670116D01*
X115618232Y-53669610D01*
X115618853Y-53669083D01*
X115619437Y-53668535D01*
X115619985Y-53667966D01*
X115620494Y-53667377D01*
X115620967Y-53666767D01*
X115621403Y-53666136D01*
X115621802Y-53665484D01*
X115622163Y-53664813D01*
X115622488Y-53664120D01*
X115622775Y-53663407D01*
X115623026Y-53662673D01*
X115623240Y-53661919D01*
X115623416Y-53661144D01*
X115623556Y-53660349D01*
X115623659Y-53659533D01*
X115624180Y-53653762D01*
X115624552Y-53647957D01*
X115624775Y-53642119D01*
X115624849Y-53636248D01*
X115624775Y-53630344D01*
X115624552Y-53624408D01*
X115624180Y-53618439D01*
X115623659Y-53612437D01*
X115615950Y-53529310D01*
X115609234Y-53448859D01*
X115603513Y-53371086D01*
X115601341Y-53336564D01*
X116197654Y-53336564D01*
X116197672Y-53379207D01*
X116197713Y-53380269D01*
X116197786Y-53381288D01*
X116197891Y-53382265D01*
X116198028Y-53383199D01*
X116198196Y-53384092D01*
X116198397Y-53384942D01*
X116198630Y-53385749D01*
X116198895Y-53386514D01*
X116199192Y-53387237D01*
X116199521Y-53387918D01*
X116199882Y-53388556D01*
X116200276Y-53389152D01*
X116200701Y-53389705D01*
X116201158Y-53390216D01*
X116201647Y-53390685D01*
X116202169Y-53391112D01*
X116202722Y-53391496D01*
X116203307Y-53391837D01*
X116203925Y-53392137D01*
X116204574Y-53392394D01*
X116205256Y-53392608D01*
X116205970Y-53392780D01*
X116206715Y-53392910D01*
X116207493Y-53392998D01*
X116208303Y-53393043D01*
X116209145Y-53393046D01*
X116210019Y-53393006D01*
X116210925Y-53392924D01*
X116211863Y-53392799D01*
X116212833Y-53392632D01*
X116213836Y-53392423D01*
X116214870Y-53392172D01*
X116296474Y-53372980D01*
X116379628Y-53356748D01*
X116464333Y-53343477D01*
X116550588Y-53333166D01*
X116638395Y-53325816D01*
X116727752Y-53321426D01*
X116818661Y-53319997D01*
X116911121Y-53321528D01*
X116996989Y-53325892D01*
X117081753Y-53333498D01*
X117165413Y-53344346D01*
X117247969Y-53358436D01*
X117329421Y-53375766D01*
X117369734Y-53385647D01*
X117409770Y-53396338D01*
X117449530Y-53407839D01*
X117489015Y-53420151D01*
X117528223Y-53433273D01*
X117567156Y-53447205D01*
X117567596Y-53447360D01*
X117568023Y-53447495D01*
X117568438Y-53447610D01*
X117568840Y-53447706D01*
X117569229Y-53447782D01*
X117569606Y-53447837D01*
X117569970Y-53447873D01*
X117570321Y-53447889D01*
X117570660Y-53447886D01*
X117570986Y-53447862D01*
X117571299Y-53447818D01*
X117571600Y-53447755D01*
X117571888Y-53447672D01*
X117572163Y-53447568D01*
X117572426Y-53447445D01*
X117572676Y-53447303D01*
X117572913Y-53447140D01*
X117573138Y-53446957D01*
X117573350Y-53446755D01*
X117573549Y-53446532D01*
X117573736Y-53446290D01*
X117573911Y-53446027D01*
X117574072Y-53445745D01*
X117574221Y-53445443D01*
X117574358Y-53445121D01*
X117574482Y-53444779D01*
X117574593Y-53444418D01*
X117574692Y-53444036D01*
X117574778Y-53443634D01*
X117574852Y-53443213D01*
X117574913Y-53442772D01*
X117574961Y-53442310D01*
X117577195Y-53408407D01*
X117578099Y-53374930D01*
X117577686Y-53341907D01*
X117575968Y-53309367D01*
X117572956Y-53277340D01*
X117568663Y-53245855D01*
X117563100Y-53214939D01*
X117556279Y-53184623D01*
X117548212Y-53154934D01*
X117538911Y-53125902D01*
X117528387Y-53097555D01*
X117516653Y-53069924D01*
X117503720Y-53043035D01*
X117489601Y-53016919D01*
X117474307Y-52991604D01*
X117457850Y-52967118D01*
X117440242Y-52943492D01*
X117421494Y-52920754D01*
X117401619Y-52898932D01*
X117380629Y-52878055D01*
X117358535Y-52858153D01*
X117335350Y-52839254D01*
X117311084Y-52821387D01*
X117285751Y-52804582D01*
X117259361Y-52788866D01*
X117231927Y-52774269D01*
X117203461Y-52760819D01*
X117173974Y-52748546D01*
X117143478Y-52737478D01*
X117111986Y-52727645D01*
X117079509Y-52719074D01*
X117046059Y-52711796D01*
X117007101Y-52705197D01*
X116967750Y-52700534D01*
X116928126Y-52697810D01*
X116888351Y-52697031D01*
X116848544Y-52698199D01*
X116808827Y-52701320D01*
X116769321Y-52706396D01*
X116730146Y-52713433D01*
X116691425Y-52722434D01*
X116653277Y-52733403D01*
X116615823Y-52746344D01*
X116579185Y-52761262D01*
X116543483Y-52778161D01*
X116508839Y-52797044D01*
X116475373Y-52817916D01*
X116443206Y-52840780D01*
X116412495Y-52865440D01*
X116383833Y-52891299D01*
X116357220Y-52918357D01*
X116332656Y-52946614D01*
X116310140Y-52976070D01*
X116289673Y-53006724D01*
X116271255Y-53038578D01*
X116254885Y-53071631D01*
X116240564Y-53105882D01*
X116228291Y-53141332D01*
X116218067Y-53177981D01*
X116209891Y-53215829D01*
X116203764Y-53254875D01*
X116199685Y-53295120D01*
X116197654Y-53336564D01*
X115601341Y-53336564D01*
X115598788Y-53295996D01*
X115597818Y-53273694D01*
X115597424Y-53251303D01*
X115597606Y-53228823D01*
X115598364Y-53206255D01*
X115599697Y-53183597D01*
X115601606Y-53160850D01*
X115604091Y-53138015D01*
X115607152Y-53115090D01*
X115610789Y-53092076D01*
X115615001Y-53068974D01*
X115619789Y-53045782D01*
X115625153Y-53022502D01*
X115631092Y-52999132D01*
X115637608Y-52975673D01*
X115644699Y-52952126D01*
X115652366Y-52928489D01*
X115671240Y-52875955D01*
X115692113Y-52824911D01*
X115714985Y-52775359D01*
X115739857Y-52727299D01*
X115766727Y-52680729D01*
X115795597Y-52635651D01*
X115826465Y-52592065D01*
X115859333Y-52549970D01*
X115894200Y-52509366D01*
X115931065Y-52470254D01*
X115969929Y-52432633D01*
X116010792Y-52396503D01*
X116053654Y-52361865D01*
X116098515Y-52328718D01*
X116145375Y-52297063D01*
X116194233Y-52266899D01*
X116241704Y-52240133D01*
X116289858Y-52215463D01*
X116338698Y-52192889D01*
X116388221Y-52172411D01*
X116438428Y-52154028D01*
X116489319Y-52137742D01*
X116540895Y-52123551D01*
X116593155Y-52111456D01*
X116646099Y-52101457D01*
X116699728Y-52093555D01*
X116754041Y-52087748D01*
X116809038Y-52084037D01*
X116864720Y-52082423D01*
X116921086Y-52082905D01*
G37*
D14*
%TO.C,R3*%
X118265000Y-69272936D02*
X118265000Y-69727064D01*
X119735000Y-69272936D02*
X119735000Y-69727064D01*
%TO.C,R1*%
X124765000Y-69272936D02*
X124765000Y-69727064D01*
X126235000Y-69272936D02*
X126235000Y-69727064D01*
%TO.C,R2*%
X121265000Y-69272936D02*
X121265000Y-69727064D01*
X122735000Y-69272936D02*
X122735000Y-69727064D01*
D15*
%TO.C,J1*%
X116523000Y-75371100D02*
X116523000Y-80628900D01*
X116523000Y-80628900D02*
X117066560Y-80628900D01*
X117066560Y-75371100D02*
X116523000Y-75371100D01*
X118773440Y-80628900D02*
X119606560Y-80628900D01*
X119606560Y-75371100D02*
X118773440Y-75371100D01*
X121313440Y-80628900D02*
X122146560Y-80628900D01*
X122146560Y-75371100D02*
X121313440Y-75371100D01*
X123853440Y-80628900D02*
X124397000Y-80628900D01*
X124397000Y-75371100D02*
X123853440Y-75371100D01*
X124397000Y-80628900D02*
X124397000Y-75371100D01*
D14*
%TO.C,D2*%
X117812078Y-64199422D02*
X121549328Y-65785789D01*
X118699038Y-62109875D02*
X117812078Y-64199422D01*
X122436288Y-63696244D02*
X118699038Y-62109875D01*
%TO.C,D3*%
X112442078Y-64199422D02*
X116179328Y-65785789D01*
X113329038Y-62109875D02*
X112442078Y-64199422D01*
X117066288Y-63696244D02*
X113329038Y-62109875D01*
%TO.C,D1*%
X123127959Y-64199422D02*
X126865208Y-65785790D01*
X124014919Y-62109875D02*
X123127959Y-64199422D01*
X127752169Y-63696244D02*
X124014919Y-62109875D01*
%TD*%
%LPC*%
D16*
%TO.C,R3*%
X119000000Y-70500000D03*
X119000000Y-68500000D03*
%TD*%
%TO.C,R1*%
X125500000Y-70500000D03*
X125500000Y-68500000D03*
%TD*%
%TO.C,R2*%
X122000000Y-70500000D03*
X122000000Y-68500000D03*
%TD*%
D17*
%TO.C,J1*%
X123000000Y-75475001D03*
X123000000Y-80524999D03*
X120460000Y-75475001D03*
X120460000Y-80524999D03*
X117920000Y-75475001D03*
X117920000Y-80524999D03*
%TD*%
D18*
%TO.C,D2*%
X119150749Y-63534634D03*
X121889251Y-64697060D03*
%TD*%
%TO.C,D3*%
X113780749Y-63534634D03*
X116519251Y-64697060D03*
%TD*%
%TO.C,D1*%
X124466630Y-63534635D03*
X127205132Y-64697059D03*
%TD*%
%LPD*%
M02*
