%TF.GenerationSoftware,KiCad,Pcbnew,8.0.8*%
%TF.CreationDate,2025-04-07T01:45:18-03:00*%
%TF.ProjectId,Sao_SlotMachine_v2,53616f5f-536c-46f7-944d-616368696e65,rev?*%
%TF.SameCoordinates,Original*%
%TF.FileFunction,Copper,L1,Top*%
%TF.FilePolarity,Positive*%
%FSLAX46Y46*%
G04 Gerber Fmt 4.6, Leading zero omitted, Abs format (unit mm)*
G04 Created by KiCad (PCBNEW 8.0.8) date 2025-04-07 01:45:18*
%MOMM*%
%LPD*%
G01*
G04 APERTURE LIST*
%TA.AperFunction,ViaPad*%
%ADD10C,0.600000*%
%TD*%
G04 APERTURE END LIST*
D10*
%TO.N,*%
X123653027Y-69227659D03*
X127871793Y-69227659D03*
X123600000Y-57700000D03*
X120500000Y-57700000D03*
X127818766Y-57700000D03*
X113372611Y-57700000D03*
X117300000Y-57700000D03*
X120553027Y-69227659D03*
%TO.N,GND*%
X113425638Y-69227659D03*
%TO.N,+3.3V*%
X117353027Y-69227659D03*
%TD*%
%TA.AperFunction,NonConductor*%
G36*
X132118310Y-82493403D02*
G01*
X132164065Y-82546207D01*
X132175271Y-82597718D01*
X132175271Y-84863251D01*
X132155586Y-84930290D01*
X132102782Y-84976045D01*
X132051271Y-84987251D01*
X108810645Y-84987251D01*
X108743606Y-84967566D01*
X108697851Y-84914762D01*
X108686645Y-84863251D01*
X108686645Y-82597718D01*
X108706330Y-82530679D01*
X108759134Y-82484924D01*
X108810645Y-82473718D01*
X132051271Y-82473718D01*
X132118310Y-82493403D01*
G37*
%TD.AperFunction*%
%TA.AperFunction,NonConductor*%
G36*
X130831619Y-54724026D02*
G01*
X130877374Y-54776830D01*
X130888580Y-54828341D01*
X130888580Y-72060104D01*
X130868895Y-72127143D01*
X130816091Y-72172898D01*
X130764580Y-72184104D01*
X110127175Y-72184104D01*
X110060136Y-72164419D01*
X110014381Y-72111615D01*
X110003175Y-72060104D01*
X110003175Y-70294247D01*
X111754276Y-70294247D01*
X111754276Y-70294248D01*
X129129640Y-70300085D01*
X129137478Y-56594196D01*
X129137477Y-56594195D01*
X111762115Y-56588360D01*
X111762114Y-56588360D01*
X111754276Y-70294247D01*
X110003175Y-70294247D01*
X110003175Y-54828341D01*
X110022860Y-54761302D01*
X110075664Y-54715547D01*
X110127175Y-54704341D01*
X130764580Y-54704341D01*
X130831619Y-54724026D01*
G37*
%TD.AperFunction*%
%TA.AperFunction,NonConductor*%
G36*
X134742372Y-57213358D02*
G01*
X134788127Y-57266162D01*
X134799333Y-57317761D01*
X134796809Y-60886877D01*
X134794428Y-60910970D01*
X134792858Y-60918861D01*
X134792859Y-60918867D01*
X134794381Y-60926518D01*
X134796764Y-60950792D01*
X134796758Y-60958598D01*
X134797090Y-60960269D01*
X134799455Y-60984438D01*
X134797006Y-65440163D01*
X134777285Y-65507192D01*
X134724455Y-65552918D01*
X134673006Y-65564095D01*
X131272446Y-65564095D01*
X131205407Y-65544410D01*
X131159652Y-65491606D01*
X131148446Y-65440095D01*
X131148446Y-61362346D01*
X131168131Y-61295307D01*
X131220935Y-61249552D01*
X131272446Y-61238346D01*
X134165371Y-61238346D01*
X134165371Y-57317673D01*
X134185056Y-57250634D01*
X134237860Y-57204879D01*
X134289371Y-57193673D01*
X134675333Y-57193673D01*
X134742372Y-57213358D01*
G37*
%TD.AperFunction*%
%TA.AperFunction,NonConductor*%
G36*
X132128935Y-72560551D02*
G01*
X132174690Y-72613355D01*
X132185896Y-72664866D01*
X132185896Y-74930399D01*
X132166211Y-74997438D01*
X132113407Y-75043193D01*
X132061896Y-75054399D01*
X108821270Y-75054399D01*
X108754231Y-75034714D01*
X108708476Y-74981910D01*
X108697270Y-74930399D01*
X108697270Y-72664866D01*
X108716955Y-72597827D01*
X108769759Y-72552072D01*
X108821270Y-72540866D01*
X132061896Y-72540866D01*
X132128935Y-72560551D01*
G37*
%TD.AperFunction*%
M02*
