%TF.GenerationSoftware,KiCad,Pcbnew,8.0.8*%
%TF.CreationDate,2025-05-05T01:26:33-03:00*%
%TF.ProjectId,Sao_Bandaid,53616f5f-4261-46e6-9461-69642e6b6963,rev?*%
%TF.SameCoordinates,Original*%
%TF.FileFunction,Legend,Bot*%
%TF.FilePolarity,Positive*%
%FSLAX46Y46*%
G04 Gerber Fmt 4.6, Leading zero omitted, Abs format (unit mm)*
G04 Created by KiCad (PCBNEW 8.0.8) date 2025-05-05 01:26:33*
%MOMM*%
%LPD*%
G01*
G04 APERTURE LIST*
G04 Aperture macros list*
%AMRoundRect*
0 Rectangle with rounded corners*
0 $1 Rounding radius*
0 $2 $3 $4 $5 $6 $7 $8 $9 X,Y pos of 4 corners*
0 Add a 4 corners polygon primitive as box body*
4,1,4,$2,$3,$4,$5,$6,$7,$8,$9,$2,$3,0*
0 Add four circle primitives for the rounded corners*
1,1,$1+$1,$2,$3*
1,1,$1+$1,$4,$5*
1,1,$1+$1,$6,$7*
1,1,$1+$1,$8,$9*
0 Add four rect primitives between the rounded corners*
20,1,$1+$1,$2,$3,$4,$5,0*
20,1,$1+$1,$4,$5,$6,$7,0*
20,1,$1+$1,$6,$7,$8,$9,0*
20,1,$1+$1,$8,$9,$2,$3,0*%
%AMRotRect*
0 Rectangle, with rotation*
0 The origin of the aperture is its center*
0 $1 length*
0 $2 width*
0 $3 Rotation angle, in degrees counterclockwise*
0 Add horizontal line*
21,1,$1,$2,0,0,$3*%
G04 Aperture macros list end*
%ADD10C,0.100000*%
%ADD11C,0.300000*%
%ADD12C,0.150000*%
%ADD13C,0.000000*%
%ADD14C,0.152400*%
%ADD15C,0.120000*%
%ADD16RotRect,1.041400X3.200400X200.000000*%
%ADD17RoundRect,0.288462X-0.461538X-0.811538X0.461538X-0.811538X0.461538X0.811538X-0.461538X0.811538X0*%
%ADD18RoundRect,0.288462X0.811538X-0.461538X0.811538X0.461538X-0.811538X0.461538X-0.811538X-0.461538X0*%
G04 APERTURE END LIST*
D10*
X127500000Y-93500000D02*
X132500000Y-93500000D01*
X132500000Y-98500000D01*
X127500000Y-98500000D01*
X127500000Y-93500000D01*
G36*
X127500000Y-93500000D02*
G01*
X132500000Y-93500000D01*
X132500000Y-98500000D01*
X127500000Y-98500000D01*
X127500000Y-93500000D01*
G37*
D11*
X161452026Y-96228274D02*
X161380598Y-96156846D01*
X161380598Y-96156846D02*
X161237741Y-96085417D01*
X161237741Y-96085417D02*
X160880598Y-96085417D01*
X160880598Y-96085417D02*
X160737741Y-96156846D01*
X160737741Y-96156846D02*
X160666312Y-96228274D01*
X160666312Y-96228274D02*
X160594883Y-96371131D01*
X160594883Y-96371131D02*
X160594883Y-96513989D01*
X160594883Y-96513989D02*
X160666312Y-96728274D01*
X160666312Y-96728274D02*
X161523455Y-97585417D01*
X161523455Y-97585417D02*
X160594883Y-97585417D01*
X159666312Y-96085417D02*
X159523455Y-96085417D01*
X159523455Y-96085417D02*
X159380598Y-96156846D01*
X159380598Y-96156846D02*
X159309170Y-96228274D01*
X159309170Y-96228274D02*
X159237741Y-96371131D01*
X159237741Y-96371131D02*
X159166312Y-96656846D01*
X159166312Y-96656846D02*
X159166312Y-97013989D01*
X159166312Y-97013989D02*
X159237741Y-97299703D01*
X159237741Y-97299703D02*
X159309170Y-97442560D01*
X159309170Y-97442560D02*
X159380598Y-97513989D01*
X159380598Y-97513989D02*
X159523455Y-97585417D01*
X159523455Y-97585417D02*
X159666312Y-97585417D01*
X159666312Y-97585417D02*
X159809170Y-97513989D01*
X159809170Y-97513989D02*
X159880598Y-97442560D01*
X159880598Y-97442560D02*
X159952027Y-97299703D01*
X159952027Y-97299703D02*
X160023455Y-97013989D01*
X160023455Y-97013989D02*
X160023455Y-96656846D01*
X160023455Y-96656846D02*
X159952027Y-96371131D01*
X159952027Y-96371131D02*
X159880598Y-96228274D01*
X159880598Y-96228274D02*
X159809170Y-96156846D01*
X159809170Y-96156846D02*
X159666312Y-96085417D01*
X158594884Y-96228274D02*
X158523456Y-96156846D01*
X158523456Y-96156846D02*
X158380599Y-96085417D01*
X158380599Y-96085417D02*
X158023456Y-96085417D01*
X158023456Y-96085417D02*
X157880599Y-96156846D01*
X157880599Y-96156846D02*
X157809170Y-96228274D01*
X157809170Y-96228274D02*
X157737741Y-96371131D01*
X157737741Y-96371131D02*
X157737741Y-96513989D01*
X157737741Y-96513989D02*
X157809170Y-96728274D01*
X157809170Y-96728274D02*
X158666313Y-97585417D01*
X158666313Y-97585417D02*
X157737741Y-97585417D01*
X156380599Y-96085417D02*
X157094885Y-96085417D01*
X157094885Y-96085417D02*
X157166313Y-96799703D01*
X157166313Y-96799703D02*
X157094885Y-96728274D01*
X157094885Y-96728274D02*
X156952028Y-96656846D01*
X156952028Y-96656846D02*
X156594885Y-96656846D01*
X156594885Y-96656846D02*
X156452028Y-96728274D01*
X156452028Y-96728274D02*
X156380599Y-96799703D01*
X156380599Y-96799703D02*
X156309170Y-96942560D01*
X156309170Y-96942560D02*
X156309170Y-97299703D01*
X156309170Y-97299703D02*
X156380599Y-97442560D01*
X156380599Y-97442560D02*
X156452028Y-97513989D01*
X156452028Y-97513989D02*
X156594885Y-97585417D01*
X156594885Y-97585417D02*
X156952028Y-97585417D01*
X156952028Y-97585417D02*
X157094885Y-97513989D01*
X157094885Y-97513989D02*
X157166313Y-97442560D01*
D12*
X154675773Y-97064536D02*
X154614740Y-97036075D01*
X154614740Y-97036075D02*
X154508958Y-97023901D01*
X154508958Y-97023901D02*
X154285222Y-97105335D01*
X154285222Y-97105335D02*
X154212014Y-97182655D01*
X154212014Y-97182655D02*
X154183554Y-97243689D01*
X154183554Y-97243689D02*
X154171380Y-97349471D01*
X154171380Y-97349471D02*
X154203953Y-97438965D01*
X154203953Y-97438965D02*
X154297560Y-97556920D01*
X154297560Y-97556920D02*
X155029968Y-97898447D01*
X155029968Y-97898447D02*
X154448253Y-98110174D01*
X145883100Y-100822234D02*
X145167143Y-101082820D01*
X152139617Y-91767249D02*
X152676584Y-91571809D01*
X152408101Y-91669529D02*
X152066081Y-90729836D01*
X152066081Y-90729836D02*
X152204435Y-90831505D01*
X152204435Y-90831505D02*
X152326503Y-90888426D01*
X152326503Y-90888426D02*
X152432284Y-90900600D01*
X143574464Y-94479309D02*
X142858507Y-94739895D01*
X143346779Y-94967580D02*
X143086192Y-94251624D01*
X162666666Y-100204819D02*
X162999999Y-99728628D01*
X163238094Y-100204819D02*
X163238094Y-99204819D01*
X163238094Y-99204819D02*
X162857142Y-99204819D01*
X162857142Y-99204819D02*
X162761904Y-99252438D01*
X162761904Y-99252438D02*
X162714285Y-99300057D01*
X162714285Y-99300057D02*
X162666666Y-99395295D01*
X162666666Y-99395295D02*
X162666666Y-99538152D01*
X162666666Y-99538152D02*
X162714285Y-99633390D01*
X162714285Y-99633390D02*
X162761904Y-99681009D01*
X162761904Y-99681009D02*
X162857142Y-99728628D01*
X162857142Y-99728628D02*
X163238094Y-99728628D01*
X161714285Y-100204819D02*
X162285713Y-100204819D01*
X161999999Y-100204819D02*
X161999999Y-99204819D01*
X161999999Y-99204819D02*
X162095237Y-99347676D01*
X162095237Y-99347676D02*
X162190475Y-99442914D01*
X162190475Y-99442914D02*
X162285713Y-99490533D01*
X159785713Y-101204819D02*
X159166666Y-101204819D01*
X159166666Y-101204819D02*
X159499999Y-101585771D01*
X159499999Y-101585771D02*
X159357142Y-101585771D01*
X159357142Y-101585771D02*
X159261904Y-101633390D01*
X159261904Y-101633390D02*
X159214285Y-101681009D01*
X159214285Y-101681009D02*
X159166666Y-101776247D01*
X159166666Y-101776247D02*
X159166666Y-102014342D01*
X159166666Y-102014342D02*
X159214285Y-102109580D01*
X159214285Y-102109580D02*
X159261904Y-102157200D01*
X159261904Y-102157200D02*
X159357142Y-102204819D01*
X159357142Y-102204819D02*
X159642856Y-102204819D01*
X159642856Y-102204819D02*
X159738094Y-102157200D01*
X159738094Y-102157200D02*
X159785713Y-102109580D01*
X158833332Y-101204819D02*
X158214285Y-101204819D01*
X158214285Y-101204819D02*
X158547618Y-101585771D01*
X158547618Y-101585771D02*
X158404761Y-101585771D01*
X158404761Y-101585771D02*
X158309523Y-101633390D01*
X158309523Y-101633390D02*
X158261904Y-101681009D01*
X158261904Y-101681009D02*
X158214285Y-101776247D01*
X158214285Y-101776247D02*
X158214285Y-102014342D01*
X158214285Y-102014342D02*
X158261904Y-102109580D01*
X158261904Y-102109580D02*
X158309523Y-102157200D01*
X158309523Y-102157200D02*
X158404761Y-102204819D01*
X158404761Y-102204819D02*
X158690475Y-102204819D01*
X158690475Y-102204819D02*
X158785713Y-102157200D01*
X158785713Y-102157200D02*
X158833332Y-102109580D01*
X157595237Y-101204819D02*
X157499999Y-101204819D01*
X157499999Y-101204819D02*
X157404761Y-101252438D01*
X157404761Y-101252438D02*
X157357142Y-101300057D01*
X157357142Y-101300057D02*
X157309523Y-101395295D01*
X157309523Y-101395295D02*
X157261904Y-101585771D01*
X157261904Y-101585771D02*
X157261904Y-101823866D01*
X157261904Y-101823866D02*
X157309523Y-102014342D01*
X157309523Y-102014342D02*
X157357142Y-102109580D01*
X157357142Y-102109580D02*
X157404761Y-102157200D01*
X157404761Y-102157200D02*
X157499999Y-102204819D01*
X157499999Y-102204819D02*
X157595237Y-102204819D01*
X157595237Y-102204819D02*
X157690475Y-102157200D01*
X157690475Y-102157200D02*
X157738094Y-102109580D01*
X157738094Y-102109580D02*
X157785713Y-102014342D01*
X157785713Y-102014342D02*
X157833332Y-101823866D01*
X157833332Y-101823866D02*
X157833332Y-101585771D01*
X157833332Y-101585771D02*
X157785713Y-101395295D01*
X157785713Y-101395295D02*
X157738094Y-101300057D01*
X157738094Y-101300057D02*
X157690475Y-101252438D01*
X157690475Y-101252438D02*
X157595237Y-101204819D01*
X141204819Y-98583333D02*
X140728628Y-98250000D01*
X141204819Y-98011905D02*
X140204819Y-98011905D01*
X140204819Y-98011905D02*
X140204819Y-98392857D01*
X140204819Y-98392857D02*
X140252438Y-98488095D01*
X140252438Y-98488095D02*
X140300057Y-98535714D01*
X140300057Y-98535714D02*
X140395295Y-98583333D01*
X140395295Y-98583333D02*
X140538152Y-98583333D01*
X140538152Y-98583333D02*
X140633390Y-98535714D01*
X140633390Y-98535714D02*
X140681009Y-98488095D01*
X140681009Y-98488095D02*
X140728628Y-98392857D01*
X140728628Y-98392857D02*
X140728628Y-98011905D01*
X140300057Y-98964286D02*
X140252438Y-99011905D01*
X140252438Y-99011905D02*
X140204819Y-99107143D01*
X140204819Y-99107143D02*
X140204819Y-99345238D01*
X140204819Y-99345238D02*
X140252438Y-99440476D01*
X140252438Y-99440476D02*
X140300057Y-99488095D01*
X140300057Y-99488095D02*
X140395295Y-99535714D01*
X140395295Y-99535714D02*
X140490533Y-99535714D01*
X140490533Y-99535714D02*
X140633390Y-99488095D01*
X140633390Y-99488095D02*
X141204819Y-98916667D01*
X141204819Y-98916667D02*
X141204819Y-99535714D01*
X139384819Y-95035714D02*
X139384819Y-94464286D01*
X139384819Y-94750000D02*
X138384819Y-94750000D01*
X138384819Y-94750000D02*
X138527676Y-94654762D01*
X138527676Y-94654762D02*
X138622914Y-94559524D01*
X138622914Y-94559524D02*
X138670533Y-94464286D01*
X139384819Y-95464286D02*
X138384819Y-95464286D01*
X139384819Y-96035714D02*
X138813390Y-95607143D01*
X138384819Y-96035714D02*
X138956247Y-95464286D01*
X136704819Y-98833333D02*
X136228628Y-98500000D01*
X136704819Y-98261905D02*
X135704819Y-98261905D01*
X135704819Y-98261905D02*
X135704819Y-98642857D01*
X135704819Y-98642857D02*
X135752438Y-98738095D01*
X135752438Y-98738095D02*
X135800057Y-98785714D01*
X135800057Y-98785714D02*
X135895295Y-98833333D01*
X135895295Y-98833333D02*
X136038152Y-98833333D01*
X136038152Y-98833333D02*
X136133390Y-98785714D01*
X136133390Y-98785714D02*
X136181009Y-98738095D01*
X136181009Y-98738095D02*
X136228628Y-98642857D01*
X136228628Y-98642857D02*
X136228628Y-98261905D01*
X135704819Y-99166667D02*
X135704819Y-99785714D01*
X135704819Y-99785714D02*
X136085771Y-99452381D01*
X136085771Y-99452381D02*
X136085771Y-99595238D01*
X136085771Y-99595238D02*
X136133390Y-99690476D01*
X136133390Y-99690476D02*
X136181009Y-99738095D01*
X136181009Y-99738095D02*
X136276247Y-99785714D01*
X136276247Y-99785714D02*
X136514342Y-99785714D01*
X136514342Y-99785714D02*
X136609580Y-99738095D01*
X136609580Y-99738095D02*
X136657200Y-99690476D01*
X136657200Y-99690476D02*
X136704819Y-99595238D01*
X136704819Y-99595238D02*
X136704819Y-99309524D01*
X136704819Y-99309524D02*
X136657200Y-99214286D01*
X136657200Y-99214286D02*
X136609580Y-99166667D01*
X134884819Y-95035714D02*
X134884819Y-94464286D01*
X134884819Y-94750000D02*
X133884819Y-94750000D01*
X133884819Y-94750000D02*
X134027676Y-94654762D01*
X134027676Y-94654762D02*
X134122914Y-94559524D01*
X134122914Y-94559524D02*
X134170533Y-94464286D01*
X134884819Y-95464286D02*
X133884819Y-95464286D01*
X134884819Y-96035714D02*
X134313390Y-95607143D01*
X133884819Y-96035714D02*
X134456247Y-95464286D01*
D13*
%TO.C,REF\u002A\u002A*%
G36*
X167519415Y-91141623D02*
G01*
X167519754Y-91141657D01*
X167520108Y-91141714D01*
X167520475Y-91141794D01*
X167520857Y-91141898D01*
X167521253Y-91142025D01*
X167521663Y-91142175D01*
X167522086Y-91142349D01*
X167522524Y-91142546D01*
X167522976Y-91142766D01*
X168609884Y-91686220D01*
X168610296Y-91686450D01*
X168610689Y-91686706D01*
X168611062Y-91686988D01*
X168611412Y-91687294D01*
X168611741Y-91687622D01*
X168612045Y-91687971D01*
X168612325Y-91688340D01*
X168612580Y-91688727D01*
X168612809Y-91689131D01*
X168613010Y-91689550D01*
X168613183Y-91689983D01*
X168613326Y-91690428D01*
X168613440Y-91690885D01*
X168613522Y-91691351D01*
X168613572Y-91691825D01*
X168613589Y-91692306D01*
X168613589Y-95254788D01*
X168613585Y-95254958D01*
X168613572Y-95255126D01*
X168613551Y-95255291D01*
X168613523Y-95255454D01*
X168613486Y-95255614D01*
X168613442Y-95255771D01*
X168613391Y-95255925D01*
X168613333Y-95256075D01*
X168613267Y-95256221D01*
X168613195Y-95256364D01*
X168613116Y-95256502D01*
X168613031Y-95256636D01*
X168612940Y-95256766D01*
X168612842Y-95256891D01*
X168612739Y-95257011D01*
X168612630Y-95257126D01*
X168612516Y-95257236D01*
X168612396Y-95257340D01*
X168612272Y-95257438D01*
X168612142Y-95257530D01*
X168612008Y-95257616D01*
X168611870Y-95257696D01*
X168611727Y-95257769D01*
X168611580Y-95257835D01*
X168611430Y-95257894D01*
X168611275Y-95257946D01*
X168611117Y-95257991D01*
X168610956Y-95258028D01*
X168610792Y-95258057D01*
X168610625Y-95258078D01*
X168610455Y-95258091D01*
X168610282Y-95258095D01*
X167522845Y-95258095D01*
X167522417Y-95258088D01*
X167522003Y-95258068D01*
X167521602Y-95258035D01*
X167521214Y-95257988D01*
X167520839Y-95257927D01*
X167520478Y-95257854D01*
X167520130Y-95257766D01*
X167519795Y-95257666D01*
X167519474Y-95257552D01*
X167519166Y-95257424D01*
X167518872Y-95257283D01*
X167518591Y-95257129D01*
X167518324Y-95256961D01*
X167518070Y-95256780D01*
X167517829Y-95256585D01*
X167517602Y-95256377D01*
X167517389Y-95256155D01*
X167517189Y-95255920D01*
X167517003Y-95255672D01*
X167516831Y-95255410D01*
X167516672Y-95255134D01*
X167516527Y-95254845D01*
X167516395Y-95254543D01*
X167516278Y-95254227D01*
X167516174Y-95253898D01*
X167516084Y-95253555D01*
X167516007Y-95253199D01*
X167515945Y-95252829D01*
X167515896Y-95252446D01*
X167515861Y-95252049D01*
X167515840Y-95251639D01*
X167515833Y-95251216D01*
X167516494Y-93097904D01*
X167514881Y-93030523D01*
X167509689Y-92963879D01*
X167500764Y-92898366D01*
X167487951Y-92834382D01*
X167480038Y-92803086D01*
X167471094Y-92772320D01*
X167461100Y-92742134D01*
X167450038Y-92712577D01*
X167437887Y-92683698D01*
X167424628Y-92655548D01*
X167410241Y-92628175D01*
X167394708Y-92601629D01*
X167378009Y-92575959D01*
X167360125Y-92551215D01*
X167341035Y-92527446D01*
X167320722Y-92504702D01*
X167299164Y-92483032D01*
X167276344Y-92462485D01*
X167252241Y-92443111D01*
X167226836Y-92424960D01*
X167200110Y-92408080D01*
X167172043Y-92392522D01*
X167142616Y-92378334D01*
X167111810Y-92365567D01*
X167079605Y-92354269D01*
X167045982Y-92344490D01*
X167010921Y-92336280D01*
X166974403Y-92329687D01*
X166942466Y-92325274D01*
X166910890Y-92321956D01*
X166879675Y-92319733D01*
X166848820Y-92318606D01*
X166818326Y-92318575D01*
X166788191Y-92319639D01*
X166758417Y-92321800D01*
X166729002Y-92325057D01*
X166681102Y-92332708D01*
X166635365Y-92342925D01*
X166591792Y-92355710D01*
X166550381Y-92371062D01*
X166530487Y-92379701D01*
X166511134Y-92388981D01*
X166492322Y-92398904D01*
X166474050Y-92409468D01*
X166456320Y-92420674D01*
X166439130Y-92432521D01*
X166422481Y-92445011D01*
X166406372Y-92458142D01*
X166390805Y-92471915D01*
X166375778Y-92486330D01*
X166361293Y-92501387D01*
X166347348Y-92517085D01*
X166333944Y-92533426D01*
X166321080Y-92550408D01*
X166308758Y-92568032D01*
X166296976Y-92586298D01*
X166275035Y-92624756D01*
X166255258Y-92665781D01*
X166237643Y-92709373D01*
X166222192Y-92755533D01*
X166210870Y-92795023D01*
X166201054Y-92833988D01*
X166192743Y-92872429D01*
X166185938Y-92910345D01*
X166180638Y-92947736D01*
X166176844Y-92984603D01*
X166174556Y-93020945D01*
X166173773Y-93056762D01*
X166172849Y-95250819D01*
X166172841Y-95251267D01*
X166172820Y-95251701D01*
X166172784Y-95252120D01*
X166172734Y-95252526D01*
X166172670Y-95252917D01*
X166172592Y-95253293D01*
X166172499Y-95253656D01*
X166172393Y-95254004D01*
X166172271Y-95254338D01*
X166172136Y-95254658D01*
X166171987Y-95254964D01*
X166171823Y-95255255D01*
X166171645Y-95255532D01*
X166171453Y-95255795D01*
X166171247Y-95256043D01*
X166171026Y-95256278D01*
X166170791Y-95256498D01*
X166170542Y-95256704D01*
X166170279Y-95256896D01*
X166170002Y-95257073D01*
X166169711Y-95257236D01*
X166169405Y-95257385D01*
X166169085Y-95257520D01*
X166168752Y-95257641D01*
X166168404Y-95257747D01*
X166168041Y-95257840D01*
X166167665Y-95257918D01*
X166167275Y-95257982D01*
X166166870Y-95258031D01*
X166166451Y-95258067D01*
X166166019Y-95258088D01*
X166165572Y-95258095D01*
X165078664Y-95258095D01*
X165078451Y-95258092D01*
X165078245Y-95258081D01*
X165078046Y-95258064D01*
X165077853Y-95258039D01*
X165077666Y-95258008D01*
X165077486Y-95257969D01*
X165077313Y-95257924D01*
X165077146Y-95257872D01*
X165076985Y-95257812D01*
X165076831Y-95257746D01*
X165076684Y-95257673D01*
X165076543Y-95257593D01*
X165076409Y-95257505D01*
X165076281Y-95257411D01*
X165076159Y-95257310D01*
X165076045Y-95257202D01*
X165075936Y-95257087D01*
X165075834Y-95256965D01*
X165075739Y-95256836D01*
X165075650Y-95256700D01*
X165075568Y-95256557D01*
X165075492Y-95256407D01*
X165075423Y-95256250D01*
X165075360Y-95256086D01*
X165075304Y-95255915D01*
X165075254Y-95255737D01*
X165075210Y-95255552D01*
X165075174Y-95255360D01*
X165075143Y-95255161D01*
X165075120Y-95254955D01*
X165075092Y-95254523D01*
X165075489Y-92717963D01*
X165076581Y-92658283D01*
X165079728Y-92598305D01*
X165084930Y-92538030D01*
X165092187Y-92477457D01*
X165101500Y-92416586D01*
X165112867Y-92355418D01*
X165126289Y-92293952D01*
X165141767Y-92232188D01*
X165151128Y-92198625D01*
X165161094Y-92165803D01*
X165171665Y-92133721D01*
X165182840Y-92102378D01*
X165194619Y-92071776D01*
X165207002Y-92041913D01*
X165219988Y-92012790D01*
X165233578Y-91984406D01*
X165269838Y-91916106D01*
X165309066Y-91851502D01*
X165351263Y-91790594D01*
X165396428Y-91733382D01*
X165444561Y-91679866D01*
X165495662Y-91630046D01*
X165549732Y-91583922D01*
X165606770Y-91541493D01*
X165666777Y-91502761D01*
X165729752Y-91467724D01*
X165795695Y-91436383D01*
X165864606Y-91408738D01*
X165936487Y-91384790D01*
X166011335Y-91364536D01*
X166089152Y-91347979D01*
X166169937Y-91335118D01*
X166239108Y-91327309D01*
X166307821Y-91322469D01*
X166376010Y-91320643D01*
X166443612Y-91321879D01*
X166510560Y-91326224D01*
X166576792Y-91333725D01*
X166642241Y-91344430D01*
X166706843Y-91358385D01*
X166770534Y-91375637D01*
X166833248Y-91396235D01*
X166894922Y-91420223D01*
X166955490Y-91447651D01*
X167014887Y-91478564D01*
X167073049Y-91513010D01*
X167129911Y-91551037D01*
X167185409Y-91592690D01*
X167228580Y-91628136D01*
X167270808Y-91665219D01*
X167312091Y-91703939D01*
X167352424Y-91744296D01*
X167391805Y-91786291D01*
X167430228Y-91829922D01*
X167467691Y-91875191D01*
X167504191Y-91922096D01*
X167505583Y-91923848D01*
X167506883Y-91925335D01*
X167507498Y-91925979D01*
X167508090Y-91926556D01*
X167508660Y-91927067D01*
X167509206Y-91927511D01*
X167509729Y-91927889D01*
X167510230Y-91928201D01*
X167510708Y-91928446D01*
X167511163Y-91928625D01*
X167511595Y-91928737D01*
X167512005Y-91928783D01*
X167512392Y-91928763D01*
X167512757Y-91928676D01*
X167513099Y-91928523D01*
X167513419Y-91928303D01*
X167513716Y-91928017D01*
X167513991Y-91927665D01*
X167514244Y-91927246D01*
X167514475Y-91926761D01*
X167514683Y-91926210D01*
X167514869Y-91925592D01*
X167515033Y-91924908D01*
X167515175Y-91924157D01*
X167515296Y-91923340D01*
X167515394Y-91922457D01*
X167515524Y-91920491D01*
X167515568Y-91918260D01*
X167515568Y-91147264D01*
X167515575Y-91146763D01*
X167515597Y-91146286D01*
X167515634Y-91145832D01*
X167515685Y-91145401D01*
X167515751Y-91144993D01*
X167515832Y-91144608D01*
X167515927Y-91144247D01*
X167516037Y-91143908D01*
X167516162Y-91143593D01*
X167516300Y-91143301D01*
X167516454Y-91143033D01*
X167516622Y-91142788D01*
X167516804Y-91142565D01*
X167517000Y-91142367D01*
X167517211Y-91142191D01*
X167517437Y-91142038D01*
X167517677Y-91141909D01*
X167517931Y-91141803D01*
X167518199Y-91141721D01*
X167518482Y-91141662D01*
X167518778Y-91141625D01*
X167519089Y-91141613D01*
X167519415Y-91141623D01*
G37*
G36*
X157035109Y-90084589D02*
G01*
X157092160Y-90087167D01*
X157149895Y-90091841D01*
X157239207Y-90102992D01*
X157326026Y-90118667D01*
X157410212Y-90138919D01*
X157491623Y-90163797D01*
X157570121Y-90193354D01*
X157608233Y-90209903D01*
X157645565Y-90227640D01*
X157682098Y-90246572D01*
X157717815Y-90266705D01*
X157752698Y-90288047D01*
X157786731Y-90310602D01*
X157819895Y-90334378D01*
X157852172Y-90359380D01*
X157883547Y-90385616D01*
X157914000Y-90413091D01*
X157943514Y-90441813D01*
X157972073Y-90471787D01*
X157999657Y-90503019D01*
X158026251Y-90535516D01*
X158051836Y-90569285D01*
X158076395Y-90604332D01*
X158099910Y-90640663D01*
X158122364Y-90678284D01*
X158143739Y-90717202D01*
X158164018Y-90757424D01*
X158183183Y-90798955D01*
X158201217Y-90841802D01*
X158210656Y-90866657D01*
X158219198Y-90892007D01*
X158226843Y-90917854D01*
X158233592Y-90944196D01*
X158239444Y-90971035D01*
X158244400Y-90998370D01*
X158248458Y-91026201D01*
X158251620Y-91054528D01*
X158253751Y-91078971D01*
X158255519Y-91102889D01*
X158256925Y-91126282D01*
X158257967Y-91149151D01*
X158258646Y-91171494D01*
X158258961Y-91193312D01*
X158258912Y-91214604D01*
X158258499Y-91235370D01*
X158250099Y-91473677D01*
X158248603Y-91534389D01*
X158247858Y-91595032D01*
X158248118Y-91655343D01*
X158249636Y-91715060D01*
X158249939Y-91721898D01*
X158250320Y-91728719D01*
X158250781Y-91735525D01*
X158251321Y-91742313D01*
X158251939Y-91749085D01*
X158252636Y-91755841D01*
X158253412Y-91762579D01*
X158254266Y-91769299D01*
X158254397Y-91770133D01*
X158254561Y-91770949D01*
X158254759Y-91771746D01*
X158254990Y-91772524D01*
X158255254Y-91773284D01*
X158255552Y-91774025D01*
X158255883Y-91774747D01*
X158256247Y-91775451D01*
X158256645Y-91776136D01*
X158257075Y-91776803D01*
X158257539Y-91777451D01*
X158258035Y-91778080D01*
X158258565Y-91778691D01*
X158259128Y-91779283D01*
X158259723Y-91779857D01*
X158260352Y-91780412D01*
X158305401Y-91819415D01*
X158349040Y-91859429D01*
X158391269Y-91900455D01*
X158432087Y-91942493D01*
X158471494Y-91985543D01*
X158509491Y-92029605D01*
X158546077Y-92074678D01*
X158581253Y-92120764D01*
X158615018Y-92167861D01*
X158647373Y-92215970D01*
X158678316Y-92265091D01*
X158707850Y-92315224D01*
X158735972Y-92366369D01*
X158762684Y-92418526D01*
X158787985Y-92471694D01*
X158811876Y-92525875D01*
X158812180Y-92526564D01*
X158812483Y-92527207D01*
X158812784Y-92527805D01*
X158813084Y-92528359D01*
X158813382Y-92528867D01*
X158813679Y-92529331D01*
X158813975Y-92529750D01*
X158814269Y-92530124D01*
X158814561Y-92530453D01*
X158814852Y-92530737D01*
X158815142Y-92530976D01*
X158815430Y-92531170D01*
X158815716Y-92531320D01*
X158816001Y-92531424D01*
X158816285Y-92531483D01*
X158816567Y-92531498D01*
X158816847Y-92531467D01*
X158817126Y-92531392D01*
X158817404Y-92531271D01*
X158817680Y-92531106D01*
X158817954Y-92530895D01*
X158818227Y-92530640D01*
X158818498Y-92530340D01*
X158818768Y-92529994D01*
X158819036Y-92529604D01*
X158819303Y-92529168D01*
X158819568Y-92528688D01*
X158819832Y-92528163D01*
X158820094Y-92527592D01*
X158820355Y-92526977D01*
X158820614Y-92526316D01*
X158820871Y-92525611D01*
X158834081Y-92489284D01*
X158847957Y-92453195D01*
X158862496Y-92417368D01*
X158877691Y-92381828D01*
X158893537Y-92346599D01*
X158910029Y-92311705D01*
X158927161Y-92277171D01*
X158944928Y-92243019D01*
X158963324Y-92209276D01*
X158982344Y-92175964D01*
X159001983Y-92143109D01*
X159022236Y-92110734D01*
X159043095Y-92078864D01*
X159064558Y-92047522D01*
X159086617Y-92016734D01*
X159109267Y-91986523D01*
X159181595Y-91898402D01*
X159258092Y-91816940D01*
X159338547Y-91742041D01*
X159422749Y-91673615D01*
X159510485Y-91611569D01*
X159601544Y-91555809D01*
X159695714Y-91506244D01*
X159792785Y-91462780D01*
X159892544Y-91425325D01*
X159994779Y-91393786D01*
X160099279Y-91368071D01*
X160205833Y-91348087D01*
X160314228Y-91333741D01*
X160424253Y-91324941D01*
X160535697Y-91321595D01*
X160648348Y-91323609D01*
X160749759Y-91330481D01*
X160850069Y-91342661D01*
X160949084Y-91360073D01*
X161046612Y-91382640D01*
X161142459Y-91410283D01*
X161236433Y-91442927D01*
X161328340Y-91480494D01*
X161417988Y-91522906D01*
X161505183Y-91570087D01*
X161589732Y-91621960D01*
X161671443Y-91678447D01*
X161750122Y-91739472D01*
X161825577Y-91804956D01*
X161897614Y-91874824D01*
X161966041Y-91948998D01*
X162030663Y-92027400D01*
X162073799Y-92084827D01*
X162114702Y-92143401D01*
X162153372Y-92203124D01*
X162189810Y-92263995D01*
X162224016Y-92326014D01*
X162255989Y-92389182D01*
X162285730Y-92453498D01*
X162313239Y-92518962D01*
X162338515Y-92585574D01*
X162361558Y-92653334D01*
X162382369Y-92722243D01*
X162400948Y-92792301D01*
X162417294Y-92863506D01*
X162431408Y-92935861D01*
X162443290Y-93009363D01*
X162452939Y-93084014D01*
X162456101Y-93114201D01*
X162458721Y-93144835D01*
X162460798Y-93175915D01*
X162462331Y-93207442D01*
X162462364Y-93208071D01*
X162462413Y-93208668D01*
X162462477Y-93209234D01*
X162462557Y-93209767D01*
X162462652Y-93210269D01*
X162462764Y-93210740D01*
X162462891Y-93211178D01*
X162463034Y-93211584D01*
X162463192Y-93211959D01*
X162463367Y-93212302D01*
X162463557Y-93212613D01*
X162463763Y-93212893D01*
X162463985Y-93213141D01*
X162464222Y-93213356D01*
X162464475Y-93213541D01*
X162464744Y-93213693D01*
X162465029Y-93213813D01*
X162465330Y-93213902D01*
X162465646Y-93213959D01*
X162465978Y-93213984D01*
X162466326Y-93213978D01*
X162466690Y-93213939D01*
X162467069Y-93213869D01*
X162467464Y-93213767D01*
X162467875Y-93213634D01*
X162468302Y-93213468D01*
X162468745Y-93213271D01*
X162469203Y-93213042D01*
X162469678Y-93212781D01*
X162470168Y-93212488D01*
X162470674Y-93212164D01*
X162471195Y-93211808D01*
X162508024Y-93186379D01*
X162545560Y-93161817D01*
X162583766Y-93138097D01*
X162622605Y-93115194D01*
X162662040Y-93093081D01*
X162702034Y-93071733D01*
X162783552Y-93031230D01*
X162866862Y-92993480D01*
X162951668Y-92958279D01*
X163037674Y-92925422D01*
X163124583Y-92894705D01*
X163370644Y-92810501D01*
X163606654Y-92729075D01*
X163646839Y-92714777D01*
X163686101Y-92699990D01*
X163724442Y-92684714D01*
X163761862Y-92668950D01*
X163798360Y-92652699D01*
X163833937Y-92635959D01*
X163868592Y-92618732D01*
X163902326Y-92601017D01*
X163923481Y-92589140D01*
X163944128Y-92576555D01*
X163964107Y-92563226D01*
X163983260Y-92549117D01*
X164001428Y-92534193D01*
X164018454Y-92518417D01*
X164034178Y-92501755D01*
X164048442Y-92484170D01*
X164054977Y-92475021D01*
X164061088Y-92465628D01*
X164066754Y-92455986D01*
X164071956Y-92446091D01*
X164076675Y-92435939D01*
X164080890Y-92425525D01*
X164084581Y-92414845D01*
X164087729Y-92403894D01*
X164090313Y-92392668D01*
X164092315Y-92381163D01*
X164093714Y-92369373D01*
X164094490Y-92357295D01*
X164094624Y-92344923D01*
X164094096Y-92332255D01*
X164092886Y-92319284D01*
X164090974Y-92306007D01*
X164088442Y-92293074D01*
X164085298Y-92280542D01*
X164081564Y-92268406D01*
X164077258Y-92256664D01*
X164072400Y-92245312D01*
X164067010Y-92234347D01*
X164061109Y-92223765D01*
X164054716Y-92213562D01*
X164047850Y-92203735D01*
X164040532Y-92194281D01*
X164032781Y-92185196D01*
X164024617Y-92176477D01*
X164007132Y-92160123D01*
X163988233Y-92145190D01*
X163968080Y-92131650D01*
X163946832Y-92119477D01*
X163924646Y-92108641D01*
X163901683Y-92099117D01*
X163878101Y-92090875D01*
X163854057Y-92083889D01*
X163829712Y-92078130D01*
X163805224Y-92073570D01*
X163766483Y-92068284D01*
X163727305Y-92064819D01*
X163687762Y-92063084D01*
X163647929Y-92062991D01*
X163607879Y-92064450D01*
X163567685Y-92067370D01*
X163527421Y-92071664D01*
X163487161Y-92077241D01*
X163446979Y-92084012D01*
X163406948Y-92091887D01*
X163367142Y-92100776D01*
X163327634Y-92110591D01*
X163249809Y-92132638D01*
X163174060Y-92157311D01*
X163096333Y-92185379D01*
X163018996Y-92215609D01*
X162942048Y-92248002D01*
X162865488Y-92282556D01*
X162789318Y-92319273D01*
X162713536Y-92358153D01*
X162638142Y-92399195D01*
X162563137Y-92442399D01*
X162562603Y-92442700D01*
X162562075Y-92442973D01*
X162561555Y-92443220D01*
X162561043Y-92443440D01*
X162560537Y-92443633D01*
X162560039Y-92443799D01*
X162559548Y-92443939D01*
X162559065Y-92444051D01*
X162558588Y-92444137D01*
X162558119Y-92444196D01*
X162557658Y-92444228D01*
X162557203Y-92444233D01*
X162556756Y-92444211D01*
X162556316Y-92444163D01*
X162555884Y-92444087D01*
X162555458Y-92443985D01*
X162555040Y-92443856D01*
X162554630Y-92443700D01*
X162554226Y-92443517D01*
X162553830Y-92443308D01*
X162553441Y-92443071D01*
X162553060Y-92442808D01*
X162552685Y-92442518D01*
X162552318Y-92442200D01*
X162551959Y-92441856D01*
X162551606Y-92441486D01*
X162551261Y-92441088D01*
X162550923Y-92440663D01*
X162550592Y-92440211D01*
X162550269Y-92439733D01*
X162549953Y-92439228D01*
X162549645Y-92438695D01*
X162110568Y-91643490D01*
X162110409Y-91643181D01*
X162110266Y-91642868D01*
X162110140Y-91642552D01*
X162110030Y-91642232D01*
X162109936Y-91641909D01*
X162109857Y-91641584D01*
X162109795Y-91641258D01*
X162109748Y-91640930D01*
X162109716Y-91640602D01*
X162109700Y-91640274D01*
X162109699Y-91639946D01*
X162109713Y-91639619D01*
X162109743Y-91639294D01*
X162109786Y-91638971D01*
X162109845Y-91638650D01*
X162109918Y-91638332D01*
X162110006Y-91638018D01*
X162110107Y-91637708D01*
X162110223Y-91637403D01*
X162110353Y-91637103D01*
X162110496Y-91636808D01*
X162110654Y-91636520D01*
X162110825Y-91636239D01*
X162111009Y-91635965D01*
X162111206Y-91635699D01*
X162111417Y-91635441D01*
X162111641Y-91635191D01*
X162111877Y-91634952D01*
X162112127Y-91634722D01*
X162112388Y-91634503D01*
X162112663Y-91634294D01*
X162112949Y-91634097D01*
X162204298Y-91576434D01*
X162297955Y-91522079D01*
X162393758Y-91471133D01*
X162491545Y-91423700D01*
X162591153Y-91379880D01*
X162692418Y-91339776D01*
X162795180Y-91303489D01*
X162899274Y-91271122D01*
X163004539Y-91242776D01*
X163110812Y-91218554D01*
X163217930Y-91198557D01*
X163325731Y-91182888D01*
X163434052Y-91171647D01*
X163542730Y-91164938D01*
X163651604Y-91162861D01*
X163760510Y-91165520D01*
X163857030Y-91172453D01*
X163953271Y-91184318D01*
X164048801Y-91201188D01*
X164143184Y-91223133D01*
X164235987Y-91250226D01*
X164326777Y-91282536D01*
X164415120Y-91320137D01*
X164458238Y-91340943D01*
X164500582Y-91363098D01*
X164542097Y-91386611D01*
X164582730Y-91411491D01*
X164622425Y-91437747D01*
X164661129Y-91465388D01*
X164698788Y-91494423D01*
X164735347Y-91524860D01*
X164770751Y-91556709D01*
X164804948Y-91589978D01*
X164837883Y-91624677D01*
X164869501Y-91660813D01*
X164899748Y-91698397D01*
X164928570Y-91737438D01*
X164955913Y-91777943D01*
X164981723Y-91819922D01*
X165005945Y-91863384D01*
X165028526Y-91908338D01*
X165028849Y-91909065D01*
X165029127Y-91909792D01*
X165029358Y-91910519D01*
X165029542Y-91911247D01*
X165029680Y-91911975D01*
X165029771Y-91912703D01*
X165029816Y-91913430D01*
X165029815Y-91914159D01*
X165029767Y-91914887D01*
X165029672Y-91915615D01*
X165029531Y-91916342D01*
X165029343Y-91917070D01*
X165029109Y-91917798D01*
X165028829Y-91918525D01*
X165028502Y-91919252D01*
X165028128Y-91919979D01*
X165006045Y-91962233D01*
X164985335Y-92005264D01*
X164965993Y-92049009D01*
X164948017Y-92093410D01*
X164931402Y-92138404D01*
X164916144Y-92183931D01*
X164902240Y-92229930D01*
X164889685Y-92276340D01*
X164878476Y-92323101D01*
X164868608Y-92370151D01*
X164860079Y-92417430D01*
X164852883Y-92464876D01*
X164847018Y-92512430D01*
X164842478Y-92560030D01*
X164839262Y-92607615D01*
X164837363Y-92655124D01*
X164834169Y-92806480D01*
X164832662Y-92956283D01*
X164832845Y-93104533D01*
X164834718Y-93251231D01*
X164834722Y-93252427D01*
X164834671Y-93253601D01*
X164834563Y-93254751D01*
X164834401Y-93255879D01*
X164834182Y-93256984D01*
X164833907Y-93258066D01*
X164833577Y-93259125D01*
X164833192Y-93260162D01*
X164832750Y-93261176D01*
X164832253Y-93262167D01*
X164831700Y-93263135D01*
X164831092Y-93264080D01*
X164830428Y-93265003D01*
X164829709Y-93265903D01*
X164828933Y-93266780D01*
X164828103Y-93267635D01*
X164817172Y-93278403D01*
X164806010Y-93289009D01*
X164794616Y-93299454D01*
X164782990Y-93309736D01*
X164771133Y-93319858D01*
X164759045Y-93329819D01*
X164746727Y-93339619D01*
X164734177Y-93349259D01*
X164695291Y-93377683D01*
X164655564Y-93404890D01*
X164615047Y-93430922D01*
X164573789Y-93455822D01*
X164531844Y-93479631D01*
X164489261Y-93502391D01*
X164446092Y-93524145D01*
X164402389Y-93544935D01*
X164358202Y-93564802D01*
X164313582Y-93583788D01*
X164223249Y-93619289D01*
X164131801Y-93651772D01*
X164039645Y-93681575D01*
X163828269Y-93746066D01*
X163619354Y-93808046D01*
X163581663Y-93819360D01*
X163544332Y-93831146D01*
X163507362Y-93843404D01*
X163470753Y-93856134D01*
X163434503Y-93869335D01*
X163398614Y-93883007D01*
X163363085Y-93897150D01*
X163327915Y-93911763D01*
X163310870Y-93919208D01*
X163294086Y-93926968D01*
X163277593Y-93935055D01*
X163261423Y-93943484D01*
X163245605Y-93952268D01*
X163230173Y-93961420D01*
X163215156Y-93970955D01*
X163200585Y-93980885D01*
X163186492Y-93991225D01*
X163172907Y-94001987D01*
X163159862Y-94013186D01*
X163147387Y-94024835D01*
X163135514Y-94036947D01*
X163124273Y-94049537D01*
X163113696Y-94062617D01*
X163103813Y-94076202D01*
X163101292Y-94079944D01*
X163098890Y-94083665D01*
X163096604Y-94087364D01*
X163094437Y-94091042D01*
X163092388Y-94094698D01*
X163090456Y-94098333D01*
X163088642Y-94101946D01*
X163086946Y-94105537D01*
X163085368Y-94109107D01*
X163083908Y-94112655D01*
X163082565Y-94116181D01*
X163081341Y-94119685D01*
X163080234Y-94123168D01*
X163079245Y-94126628D01*
X163078373Y-94130067D01*
X163077620Y-94133483D01*
X163073989Y-94154303D01*
X163071558Y-94174473D01*
X163070294Y-94193998D01*
X163070165Y-94212883D01*
X163071138Y-94231132D01*
X163073180Y-94248749D01*
X163076259Y-94265740D01*
X163080342Y-94282109D01*
X163085397Y-94297861D01*
X163091390Y-94312999D01*
X163098289Y-94327530D01*
X163106062Y-94341457D01*
X163114676Y-94354785D01*
X163124099Y-94367518D01*
X163134297Y-94379662D01*
X163145238Y-94391221D01*
X163156889Y-94402199D01*
X163169218Y-94412601D01*
X163182193Y-94422431D01*
X163195780Y-94431695D01*
X163209946Y-94440397D01*
X163224660Y-94448541D01*
X163255600Y-94463175D01*
X163288337Y-94475634D01*
X163322611Y-94485954D01*
X163358160Y-94494174D01*
X163394724Y-94500328D01*
X163448822Y-94506524D01*
X163503765Y-94510297D01*
X163559550Y-94511649D01*
X163616179Y-94510578D01*
X163673652Y-94507085D01*
X163731968Y-94501169D01*
X163791127Y-94492832D01*
X163851130Y-94482072D01*
X163917120Y-94467849D01*
X163982433Y-94451475D01*
X164047070Y-94433030D01*
X164111031Y-94412592D01*
X164174315Y-94390240D01*
X164236922Y-94366054D01*
X164298852Y-94340111D01*
X164360105Y-94312491D01*
X164420681Y-94283272D01*
X164480578Y-94252535D01*
X164539798Y-94220356D01*
X164598340Y-94186816D01*
X164656203Y-94151993D01*
X164713388Y-94115966D01*
X164769894Y-94078813D01*
X164825722Y-94040615D01*
X164826193Y-94040298D01*
X164826649Y-94040010D01*
X164827091Y-94039750D01*
X164827518Y-94039518D01*
X164827929Y-94039315D01*
X164828326Y-94039140D01*
X164828708Y-94038994D01*
X164829075Y-94038876D01*
X164829427Y-94038787D01*
X164829764Y-94038726D01*
X164830086Y-94038693D01*
X164830394Y-94038689D01*
X164830686Y-94038714D01*
X164830964Y-94038767D01*
X164831226Y-94038848D01*
X164831473Y-94038958D01*
X164831706Y-94039096D01*
X164831924Y-94039263D01*
X164832126Y-94039458D01*
X164832314Y-94039682D01*
X164832486Y-94039934D01*
X164832644Y-94040214D01*
X164832787Y-94040523D01*
X164832915Y-94040860D01*
X164833027Y-94041226D01*
X164833125Y-94041621D01*
X164833208Y-94042043D01*
X164833275Y-94042494D01*
X164833328Y-94042974D01*
X164833365Y-94043482D01*
X164833388Y-94044018D01*
X164833395Y-94044583D01*
X164833395Y-95110325D01*
X164833362Y-95111463D01*
X164833321Y-95112017D01*
X164833263Y-95112561D01*
X164833188Y-95113094D01*
X164833097Y-95113618D01*
X164832989Y-95114131D01*
X164832865Y-95114634D01*
X164832724Y-95115127D01*
X164832567Y-95115610D01*
X164832393Y-95116083D01*
X164832202Y-95116546D01*
X164831995Y-95116998D01*
X164831772Y-95117441D01*
X164831532Y-95117873D01*
X164831275Y-95118296D01*
X164831002Y-95118708D01*
X164830712Y-95119110D01*
X164830406Y-95119503D01*
X164830084Y-95119885D01*
X164829745Y-95120257D01*
X164829389Y-95120619D01*
X164829017Y-95120971D01*
X164828629Y-95121312D01*
X164828224Y-95121644D01*
X164827802Y-95121966D01*
X164827364Y-95122278D01*
X164826910Y-95122580D01*
X164826439Y-95122871D01*
X164825952Y-95123153D01*
X164824928Y-95123686D01*
X164738773Y-95163238D01*
X164652322Y-95199875D01*
X164565577Y-95233596D01*
X164478535Y-95264401D01*
X164391199Y-95292291D01*
X164303567Y-95317265D01*
X164215640Y-95339324D01*
X164127417Y-95358468D01*
X164038899Y-95374696D01*
X163950085Y-95388008D01*
X163860976Y-95398405D01*
X163771571Y-95405887D01*
X163681871Y-95410453D01*
X163591874Y-95412104D01*
X163501582Y-95410839D01*
X163410995Y-95406658D01*
X163304299Y-95397590D01*
X163198685Y-95383611D01*
X163094618Y-95364540D01*
X162992562Y-95340198D01*
X162892984Y-95310406D01*
X162844268Y-95293409D01*
X162796346Y-95274983D01*
X162749276Y-95255103D01*
X162703115Y-95233749D01*
X162657922Y-95210897D01*
X162613756Y-95186525D01*
X162570673Y-95160611D01*
X162528732Y-95133131D01*
X162487992Y-95104064D01*
X162448510Y-95073387D01*
X162410344Y-95041077D01*
X162373553Y-95007113D01*
X162338195Y-94971471D01*
X162304327Y-94934129D01*
X162272009Y-94895065D01*
X162241298Y-94854256D01*
X162212251Y-94811680D01*
X162184928Y-94767314D01*
X162159387Y-94721135D01*
X162135685Y-94673122D01*
X162113880Y-94623252D01*
X162094032Y-94571501D01*
X162093856Y-94571028D01*
X162093675Y-94570582D01*
X162093490Y-94570163D01*
X162093300Y-94569773D01*
X162093105Y-94569409D01*
X162092906Y-94569074D01*
X162092702Y-94568766D01*
X162092493Y-94568485D01*
X162092280Y-94568233D01*
X162092062Y-94568007D01*
X162091840Y-94567810D01*
X162091613Y-94567640D01*
X162091381Y-94567498D01*
X162091145Y-94567383D01*
X162090904Y-94567296D01*
X162090658Y-94567237D01*
X162090407Y-94567205D01*
X162090152Y-94567201D01*
X162089893Y-94567224D01*
X162089628Y-94567275D01*
X162089359Y-94567354D01*
X162089086Y-94567461D01*
X162088808Y-94567595D01*
X162088525Y-94567757D01*
X162088237Y-94567946D01*
X162087945Y-94568163D01*
X162087648Y-94568408D01*
X162087347Y-94568680D01*
X162087040Y-94568980D01*
X162086730Y-94569308D01*
X162086414Y-94569663D01*
X162086094Y-94570046D01*
X162048242Y-94616439D01*
X162016442Y-94654810D01*
X162002812Y-94670989D01*
X161990695Y-94685163D01*
X161980091Y-94697332D01*
X161971000Y-94707497D01*
X161903367Y-94777955D01*
X161832768Y-94844272D01*
X161759342Y-94906449D01*
X161683227Y-94964488D01*
X161604560Y-95018390D01*
X161523481Y-95068157D01*
X161440127Y-95113789D01*
X161354637Y-95155288D01*
X161267148Y-95192656D01*
X161177799Y-95225893D01*
X161086728Y-95255002D01*
X160994074Y-95279983D01*
X160899973Y-95300838D01*
X160804566Y-95317569D01*
X160707989Y-95330176D01*
X160610381Y-95338661D01*
X160517986Y-95343071D01*
X160426409Y-95344128D01*
X160335652Y-95341831D01*
X160245714Y-95336182D01*
X160156594Y-95327179D01*
X160068295Y-95314824D01*
X159980814Y-95299116D01*
X159894154Y-95280056D01*
X159818874Y-95260293D01*
X159744918Y-95237545D01*
X159672328Y-95211853D01*
X159601148Y-95183257D01*
X159531421Y-95151799D01*
X159463189Y-95117519D01*
X159396496Y-95080458D01*
X159331385Y-95040657D01*
X159267898Y-94998157D01*
X159206079Y-94952999D01*
X159145971Y-94905224D01*
X159087617Y-94854872D01*
X159031059Y-94801985D01*
X158976341Y-94746603D01*
X158923506Y-94688767D01*
X158872597Y-94628519D01*
X158872269Y-94628107D01*
X158871964Y-94627697D01*
X158871682Y-94627289D01*
X158871423Y-94626883D01*
X158871187Y-94626479D01*
X158870974Y-94626077D01*
X158870784Y-94625677D01*
X158870617Y-94625280D01*
X158870474Y-94624884D01*
X158870353Y-94624490D01*
X158870256Y-94624098D01*
X158870181Y-94623709D01*
X158870130Y-94623321D01*
X158870101Y-94622936D01*
X158870096Y-94622552D01*
X158870114Y-94622171D01*
X158870154Y-94621791D01*
X158870218Y-94621414D01*
X158870305Y-94621039D01*
X158870414Y-94620665D01*
X158870547Y-94620294D01*
X158870703Y-94619925D01*
X158870881Y-94619558D01*
X158871083Y-94619193D01*
X158871308Y-94618830D01*
X158871555Y-94618469D01*
X158871826Y-94618111D01*
X158872119Y-94617754D01*
X158872436Y-94617399D01*
X158872775Y-94617047D01*
X158873138Y-94616696D01*
X158873523Y-94616348D01*
X159490664Y-94069984D01*
X159491052Y-94069647D01*
X159491440Y-94069333D01*
X159491828Y-94069041D01*
X159492217Y-94068770D01*
X159492605Y-94068522D01*
X159492993Y-94068295D01*
X159493381Y-94068090D01*
X159493770Y-94067908D01*
X159494158Y-94067747D01*
X159494546Y-94067608D01*
X159494934Y-94067491D01*
X159495323Y-94067397D01*
X159495711Y-94067324D01*
X159496100Y-94067273D01*
X159496488Y-94067244D01*
X159496877Y-94067237D01*
X159497265Y-94067252D01*
X159497654Y-94067289D01*
X159498042Y-94067348D01*
X159498431Y-94067429D01*
X159498820Y-94067532D01*
X159499208Y-94067657D01*
X159499597Y-94067804D01*
X159499986Y-94067973D01*
X159500375Y-94068164D01*
X159500764Y-94068376D01*
X159501153Y-94068611D01*
X159501542Y-94068868D01*
X159501931Y-94069147D01*
X159502321Y-94069448D01*
X159502710Y-94069771D01*
X159503099Y-94070116D01*
X159541204Y-94104411D01*
X159579842Y-94137684D01*
X159619059Y-94169839D01*
X159658898Y-94200785D01*
X159699403Y-94230428D01*
X159740620Y-94258674D01*
X159782591Y-94285431D01*
X159825362Y-94310606D01*
X159868976Y-94334104D01*
X159913477Y-94355833D01*
X159958911Y-94375701D01*
X160005320Y-94393612D01*
X160052749Y-94409475D01*
X160101243Y-94423196D01*
X160150845Y-94434682D01*
X160201599Y-94443840D01*
X160232966Y-94448394D01*
X160264064Y-94452300D01*
X160294891Y-94455555D01*
X160325449Y-94458162D01*
X160355737Y-94460120D01*
X160385756Y-94461428D01*
X160415504Y-94462088D01*
X160444983Y-94462098D01*
X160474192Y-94461459D01*
X160503131Y-94460171D01*
X160531801Y-94458234D01*
X160560201Y-94455648D01*
X160588331Y-94452412D01*
X160616191Y-94448528D01*
X160643781Y-94443995D01*
X160671102Y-94438813D01*
X160706692Y-94430932D01*
X160741404Y-94421934D01*
X160775238Y-94411838D01*
X160808193Y-94400659D01*
X160840269Y-94388415D01*
X160871465Y-94375123D01*
X160901781Y-94360800D01*
X160931217Y-94345462D01*
X160959771Y-94329128D01*
X160987445Y-94311814D01*
X161040145Y-94274314D01*
X161089315Y-94233098D01*
X161134950Y-94188302D01*
X161177048Y-94140063D01*
X161215604Y-94088518D01*
X161250616Y-94033801D01*
X161282079Y-93976050D01*
X161309991Y-93915401D01*
X161334347Y-93851990D01*
X161355145Y-93785953D01*
X161372380Y-93717427D01*
X161372471Y-93716987D01*
X161372544Y-93716561D01*
X161372600Y-93716150D01*
X161372638Y-93715752D01*
X161372659Y-93715368D01*
X161372663Y-93714999D01*
X161372650Y-93714643D01*
X161372619Y-93714301D01*
X161372570Y-93713973D01*
X161372505Y-93713659D01*
X161372422Y-93713359D01*
X161372322Y-93713073D01*
X161372205Y-93712801D01*
X161372070Y-93712543D01*
X161371918Y-93712299D01*
X161371749Y-93712068D01*
X161371562Y-93711852D01*
X161371358Y-93711650D01*
X161371137Y-93711462D01*
X161370899Y-93711287D01*
X161370643Y-93711127D01*
X161370370Y-93710980D01*
X161370080Y-93710848D01*
X161369772Y-93710729D01*
X161369447Y-93710624D01*
X161369105Y-93710534D01*
X161368746Y-93710457D01*
X161368370Y-93710394D01*
X161367976Y-93710345D01*
X161367565Y-93710310D01*
X161367137Y-93710289D01*
X161366692Y-93710282D01*
X158947474Y-93710282D01*
X158947090Y-93710288D01*
X158946716Y-93710306D01*
X158946352Y-93710336D01*
X158945998Y-93710377D01*
X158945654Y-93710431D01*
X158945320Y-93710496D01*
X158944997Y-93710573D01*
X158944683Y-93710662D01*
X158944380Y-93710763D01*
X158944087Y-93710876D01*
X158943804Y-93711001D01*
X158943531Y-93711137D01*
X158943269Y-93711286D01*
X158943016Y-93711446D01*
X158942774Y-93711618D01*
X158942541Y-93711802D01*
X158942319Y-93711998D01*
X158942107Y-93712206D01*
X158941905Y-93712426D01*
X158941713Y-93712658D01*
X158941531Y-93712901D01*
X158941360Y-93713157D01*
X158941198Y-93713424D01*
X158941047Y-93713704D01*
X158940905Y-93713995D01*
X158940774Y-93714298D01*
X158940653Y-93714613D01*
X158940542Y-93714941D01*
X158940441Y-93715279D01*
X158940350Y-93715630D01*
X158940269Y-93715993D01*
X158940198Y-93716368D01*
X158927583Y-93780792D01*
X158913155Y-93844221D01*
X158896912Y-93906654D01*
X158878856Y-93968093D01*
X158858986Y-94028536D01*
X158837302Y-94087985D01*
X158813804Y-94146438D01*
X158788493Y-94203896D01*
X158761367Y-94260358D01*
X158732428Y-94315826D01*
X158701675Y-94370298D01*
X158669108Y-94423774D01*
X158634727Y-94476255D01*
X158598532Y-94527741D01*
X158560524Y-94578231D01*
X158520701Y-94627725D01*
X158458365Y-94699440D01*
X158393727Y-94767406D01*
X158326787Y-94831625D01*
X158257546Y-94892096D01*
X158186003Y-94948820D01*
X158112159Y-95001796D01*
X158036013Y-95051024D01*
X157957565Y-95096504D01*
X157876816Y-95138237D01*
X157793766Y-95176222D01*
X157708414Y-95210459D01*
X157620760Y-95240949D01*
X157530805Y-95267691D01*
X157438548Y-95290686D01*
X157343989Y-95309932D01*
X157247129Y-95325431D01*
X157176272Y-95333935D01*
X157103997Y-95339999D01*
X157030303Y-95343625D01*
X156955192Y-95344811D01*
X156878662Y-95343558D01*
X156800716Y-95339866D01*
X156721352Y-95333736D01*
X156640572Y-95325167D01*
X156574219Y-95316134D01*
X156508905Y-95305106D01*
X156444630Y-95292085D01*
X156381396Y-95277071D01*
X156319201Y-95260062D01*
X156258046Y-95241060D01*
X156197930Y-95220065D01*
X156138855Y-95197075D01*
X156080819Y-95172093D01*
X156023822Y-95145116D01*
X155967866Y-95116146D01*
X155912950Y-95085182D01*
X155859073Y-95052224D01*
X155806236Y-95017272D01*
X155754440Y-94980327D01*
X155703683Y-94941389D01*
X155663444Y-94908677D01*
X155623561Y-94874838D01*
X155584034Y-94839869D01*
X155544863Y-94803772D01*
X155506048Y-94766547D01*
X155467589Y-94728192D01*
X155429486Y-94688710D01*
X155391739Y-94648098D01*
X155391082Y-94647363D01*
X155390469Y-94646629D01*
X155389898Y-94645895D01*
X155389371Y-94645162D01*
X155388887Y-94644430D01*
X155388446Y-94643698D01*
X155388048Y-94642967D01*
X155387693Y-94642237D01*
X155387382Y-94641508D01*
X155387114Y-94640779D01*
X155386889Y-94640051D01*
X155386707Y-94639324D01*
X155386568Y-94638598D01*
X155386473Y-94637872D01*
X155386420Y-94637148D01*
X155386411Y-94636423D01*
X155386445Y-94635700D01*
X155386522Y-94634978D01*
X155386642Y-94634256D01*
X155386806Y-94633535D01*
X155387013Y-94632815D01*
X155387263Y-94632096D01*
X155387556Y-94631377D01*
X155387892Y-94630659D01*
X155388271Y-94629942D01*
X155388694Y-94629226D01*
X155389160Y-94628511D01*
X155389668Y-94627797D01*
X155390221Y-94627083D01*
X155390816Y-94626370D01*
X155391454Y-94625658D01*
X155392136Y-94624947D01*
X156019463Y-93991402D01*
X156019833Y-93991046D01*
X156020217Y-93990713D01*
X156020614Y-93990403D01*
X156021022Y-93990114D01*
X156021441Y-93989849D01*
X156021870Y-93989606D01*
X156022308Y-93989386D01*
X156022754Y-93989188D01*
X156023207Y-93989013D01*
X156023667Y-93988861D01*
X156024132Y-93988732D01*
X156024602Y-93988625D01*
X156025076Y-93988540D01*
X156025552Y-93988479D01*
X156026031Y-93988440D01*
X156026511Y-93988424D01*
X156026991Y-93988431D01*
X156027470Y-93988460D01*
X156027948Y-93988513D01*
X156028423Y-93988588D01*
X156028895Y-93988686D01*
X156029363Y-93988806D01*
X156029826Y-93988950D01*
X156030283Y-93989116D01*
X156030733Y-93989305D01*
X156031175Y-93989517D01*
X156031609Y-93989752D01*
X156032033Y-93990010D01*
X156032447Y-93990290D01*
X156032850Y-93990594D01*
X156033241Y-93990921D01*
X156033618Y-93991270D01*
X156057230Y-94014039D01*
X156081631Y-94036705D01*
X156106821Y-94059267D01*
X156132801Y-94081726D01*
X156159570Y-94104082D01*
X156187131Y-94126333D01*
X156215482Y-94148481D01*
X156244623Y-94170525D01*
X156287063Y-94200857D01*
X156330017Y-94229012D01*
X156373485Y-94254990D01*
X156417467Y-94278791D01*
X156461963Y-94300415D01*
X156506973Y-94319863D01*
X156552496Y-94337134D01*
X156598533Y-94352228D01*
X156645084Y-94365146D01*
X156692149Y-94375887D01*
X156739728Y-94384451D01*
X156787820Y-94390839D01*
X156836426Y-94395051D01*
X156885545Y-94397086D01*
X156935178Y-94396945D01*
X156985325Y-94394628D01*
X157035754Y-94389924D01*
X157085532Y-94382725D01*
X157134574Y-94373057D01*
X157182793Y-94360947D01*
X157230102Y-94346420D01*
X157276416Y-94329501D01*
X157321648Y-94310218D01*
X157365713Y-94288596D01*
X157408523Y-94264661D01*
X157449992Y-94238438D01*
X157490036Y-94209955D01*
X157528566Y-94179236D01*
X157565497Y-94146308D01*
X157600743Y-94111197D01*
X157634217Y-94073929D01*
X157665833Y-94034530D01*
X157697161Y-93990922D01*
X157725982Y-93946118D01*
X157752331Y-93900185D01*
X157776245Y-93853193D01*
X157797757Y-93805209D01*
X157816905Y-93756302D01*
X157833723Y-93706541D01*
X157848246Y-93655993D01*
X157860511Y-93604728D01*
X157870553Y-93552813D01*
X157878406Y-93500318D01*
X157884108Y-93447309D01*
X157887692Y-93393857D01*
X157889195Y-93340029D01*
X157888652Y-93285894D01*
X157886099Y-93231519D01*
X157881931Y-93183124D01*
X157875799Y-93135197D01*
X157867734Y-93087808D01*
X157857769Y-93041029D01*
X157852425Y-93020213D01*
X159744646Y-93020213D01*
X159744647Y-93020326D01*
X159744653Y-93020439D01*
X159744666Y-93020550D01*
X159744684Y-93020661D01*
X159744708Y-93020770D01*
X159744738Y-93020878D01*
X159744774Y-93020983D01*
X159744815Y-93021087D01*
X159744862Y-93021188D01*
X159744915Y-93021287D01*
X159744973Y-93021383D01*
X159745037Y-93021476D01*
X159745105Y-93021566D01*
X159745180Y-93021652D01*
X159745256Y-93021736D01*
X159745337Y-93021815D01*
X159745422Y-93021889D01*
X159745510Y-93021959D01*
X159745602Y-93022022D01*
X159745697Y-93022081D01*
X159745795Y-93022134D01*
X159745896Y-93022182D01*
X159745999Y-93022225D01*
X159746105Y-93022262D01*
X159746214Y-93022293D01*
X159746324Y-93022319D01*
X159746436Y-93022340D01*
X159746549Y-93022354D01*
X159746664Y-93022363D01*
X159746780Y-93022366D01*
X161383360Y-93022366D01*
X161383660Y-93022361D01*
X161383949Y-93022347D01*
X161384226Y-93022323D01*
X161384493Y-93022290D01*
X161384748Y-93022247D01*
X161384993Y-93022194D01*
X161385226Y-93022132D01*
X161385449Y-93022061D01*
X161385660Y-93021979D01*
X161385860Y-93021889D01*
X161386050Y-93021789D01*
X161386228Y-93021679D01*
X161386395Y-93021559D01*
X161386551Y-93021430D01*
X161386696Y-93021292D01*
X161386830Y-93021144D01*
X161386953Y-93020986D01*
X161387065Y-93020819D01*
X161387165Y-93020642D01*
X161387255Y-93020456D01*
X161387333Y-93020260D01*
X161387401Y-93020054D01*
X161387457Y-93019839D01*
X161387502Y-93019615D01*
X161387536Y-93019380D01*
X161387558Y-93019136D01*
X161387570Y-93018883D01*
X161387571Y-93018620D01*
X161387560Y-93018347D01*
X161387538Y-93018065D01*
X161387505Y-93017773D01*
X161387461Y-93017471D01*
X161380250Y-92975995D01*
X161371653Y-92934623D01*
X161361655Y-92893444D01*
X161350242Y-92852545D01*
X161337398Y-92812015D01*
X161323107Y-92771942D01*
X161307356Y-92732415D01*
X161290128Y-92693522D01*
X161271409Y-92655351D01*
X161251183Y-92617992D01*
X161229436Y-92581531D01*
X161206152Y-92546058D01*
X161181316Y-92511661D01*
X161154913Y-92478428D01*
X161126928Y-92446448D01*
X161097346Y-92415809D01*
X161058753Y-92380517D01*
X161017964Y-92348412D01*
X160975173Y-92319496D01*
X160930576Y-92293772D01*
X160884366Y-92271242D01*
X160836739Y-92251909D01*
X160787888Y-92235776D01*
X160738009Y-92222845D01*
X160687296Y-92213118D01*
X160635943Y-92206598D01*
X160584145Y-92203287D01*
X160532097Y-92203189D01*
X160479993Y-92206305D01*
X160428028Y-92212638D01*
X160376396Y-92222191D01*
X160325292Y-92234966D01*
X160292439Y-92245098D01*
X160260599Y-92256588D01*
X160229766Y-92269394D01*
X160199934Y-92283472D01*
X160171097Y-92298781D01*
X160143247Y-92315275D01*
X160116378Y-92332914D01*
X160090485Y-92351653D01*
X160065559Y-92371451D01*
X160041596Y-92392263D01*
X159996528Y-92436761D01*
X159955231Y-92484803D01*
X159917652Y-92536045D01*
X159883739Y-92590145D01*
X159853441Y-92646759D01*
X159826706Y-92705542D01*
X159803482Y-92766152D01*
X159783717Y-92828245D01*
X159767361Y-92891477D01*
X159754360Y-92955505D01*
X159744664Y-93019985D01*
X159744652Y-93020099D01*
X159744646Y-93020213D01*
X157852425Y-93020213D01*
X157845935Y-92994932D01*
X157832264Y-92949587D01*
X157816787Y-92905065D01*
X157799536Y-92861439D01*
X157780544Y-92818780D01*
X157759841Y-92777158D01*
X157737460Y-92736645D01*
X157713432Y-92697312D01*
X157687790Y-92659231D01*
X157660564Y-92622473D01*
X157631786Y-92587109D01*
X157601489Y-92553210D01*
X157569705Y-92520848D01*
X157536464Y-92490094D01*
X157501798Y-92461020D01*
X157465740Y-92433696D01*
X157428322Y-92408194D01*
X157389574Y-92384585D01*
X157349528Y-92362940D01*
X157308217Y-92343332D01*
X157265673Y-92325830D01*
X157221926Y-92310507D01*
X157177009Y-92297433D01*
X157130953Y-92286680D01*
X157083790Y-92278319D01*
X157035553Y-92272422D01*
X156986272Y-92269060D01*
X156935980Y-92268304D01*
X156888910Y-92269784D01*
X156842525Y-92273134D01*
X156796825Y-92278354D01*
X156751809Y-92285444D01*
X156707478Y-92294403D01*
X156663831Y-92305231D01*
X156620869Y-92317930D01*
X156578590Y-92332498D01*
X156536996Y-92348936D01*
X156496087Y-92367243D01*
X156455861Y-92387420D01*
X156416320Y-92409467D01*
X156377463Y-92433383D01*
X156339290Y-92459169D01*
X156301801Y-92486825D01*
X156264996Y-92516350D01*
X156240600Y-92537059D01*
X156216565Y-92558040D01*
X156192890Y-92579293D01*
X156169576Y-92600819D01*
X156146622Y-92622617D01*
X156124028Y-92644689D01*
X156101794Y-92667034D01*
X156079920Y-92689653D01*
X156079689Y-92689882D01*
X156079448Y-92690097D01*
X156079197Y-92690300D01*
X156078937Y-92690488D01*
X156078668Y-92690663D01*
X156078392Y-92690823D01*
X156078108Y-92690969D01*
X156077817Y-92691099D01*
X156077520Y-92691215D01*
X156077217Y-92691316D01*
X156076910Y-92691401D01*
X156076598Y-92691470D01*
X156076282Y-92691523D01*
X156075962Y-92691560D01*
X156075641Y-92691580D01*
X156075316Y-92691584D01*
X156074993Y-92691570D01*
X156074672Y-92691540D01*
X156074354Y-92691493D01*
X156074040Y-92691431D01*
X156073731Y-92691352D01*
X156073427Y-92691258D01*
X156073128Y-92691148D01*
X156072836Y-92691023D01*
X156072551Y-92690884D01*
X156072273Y-92690730D01*
X156072002Y-92690562D01*
X156071741Y-92690380D01*
X156071489Y-92690185D01*
X156071246Y-92689976D01*
X156071014Y-92689755D01*
X156070792Y-92689520D01*
X155408276Y-91976865D01*
X155407963Y-91976526D01*
X155407670Y-91976187D01*
X155407397Y-91975848D01*
X155407145Y-91975508D01*
X155406911Y-91975168D01*
X155406698Y-91974828D01*
X155406505Y-91974487D01*
X155406331Y-91974146D01*
X155406178Y-91973805D01*
X155406044Y-91973464D01*
X155405930Y-91973122D01*
X155405836Y-91972780D01*
X155405762Y-91972438D01*
X155405708Y-91972095D01*
X155405674Y-91971753D01*
X155405659Y-91971410D01*
X155405665Y-91971066D01*
X155405691Y-91970723D01*
X155405736Y-91970379D01*
X155405801Y-91970034D01*
X155405887Y-91969690D01*
X155405992Y-91969345D01*
X155406117Y-91969000D01*
X155406263Y-91968655D01*
X155406428Y-91968310D01*
X155406613Y-91967964D01*
X155406818Y-91967618D01*
X155407043Y-91967272D01*
X155407288Y-91966925D01*
X155407553Y-91966579D01*
X155407838Y-91966232D01*
X155408143Y-91965885D01*
X155446621Y-91924015D01*
X155485658Y-91883605D01*
X155525252Y-91844655D01*
X155565405Y-91807164D01*
X155606116Y-91771134D01*
X155647384Y-91736563D01*
X155689211Y-91703452D01*
X155731596Y-91671800D01*
X155732255Y-91671294D01*
X155732876Y-91670767D01*
X155733460Y-91670219D01*
X155734008Y-91669650D01*
X155734517Y-91669061D01*
X155734990Y-91668451D01*
X155735426Y-91667820D01*
X155735825Y-91667168D01*
X155736186Y-91666497D01*
X155736511Y-91665804D01*
X155736798Y-91665091D01*
X155737049Y-91664357D01*
X155737263Y-91663603D01*
X155737439Y-91662828D01*
X155737579Y-91662033D01*
X155737682Y-91661217D01*
X155738203Y-91655446D01*
X155738575Y-91649641D01*
X155738798Y-91643803D01*
X155738872Y-91637932D01*
X155738798Y-91632028D01*
X155738575Y-91626092D01*
X155738203Y-91620123D01*
X155737682Y-91614121D01*
X155729973Y-91530994D01*
X155723257Y-91450543D01*
X155717536Y-91372770D01*
X155715364Y-91338248D01*
X156311677Y-91338248D01*
X156311695Y-91380891D01*
X156311736Y-91381953D01*
X156311809Y-91382972D01*
X156311914Y-91383949D01*
X156312051Y-91384883D01*
X156312219Y-91385776D01*
X156312420Y-91386626D01*
X156312653Y-91387433D01*
X156312918Y-91388198D01*
X156313215Y-91388921D01*
X156313544Y-91389602D01*
X156313905Y-91390240D01*
X156314299Y-91390836D01*
X156314724Y-91391389D01*
X156315181Y-91391900D01*
X156315670Y-91392369D01*
X156316192Y-91392796D01*
X156316745Y-91393180D01*
X156317330Y-91393521D01*
X156317948Y-91393821D01*
X156318597Y-91394078D01*
X156319279Y-91394292D01*
X156319993Y-91394464D01*
X156320738Y-91394594D01*
X156321516Y-91394682D01*
X156322326Y-91394727D01*
X156323168Y-91394730D01*
X156324042Y-91394690D01*
X156324948Y-91394608D01*
X156325886Y-91394483D01*
X156326856Y-91394316D01*
X156327859Y-91394107D01*
X156328893Y-91393856D01*
X156410497Y-91374664D01*
X156493651Y-91358432D01*
X156578356Y-91345161D01*
X156664611Y-91334850D01*
X156752418Y-91327500D01*
X156841775Y-91323110D01*
X156932684Y-91321681D01*
X157025144Y-91323212D01*
X157111012Y-91327576D01*
X157195776Y-91335182D01*
X157279436Y-91346030D01*
X157361992Y-91360120D01*
X157443444Y-91377450D01*
X157483757Y-91387331D01*
X157523793Y-91398022D01*
X157563553Y-91409523D01*
X157603038Y-91421835D01*
X157642246Y-91434957D01*
X157681179Y-91448889D01*
X157681619Y-91449044D01*
X157682046Y-91449179D01*
X157682461Y-91449294D01*
X157682863Y-91449390D01*
X157683252Y-91449466D01*
X157683629Y-91449521D01*
X157683993Y-91449557D01*
X157684344Y-91449573D01*
X157684683Y-91449570D01*
X157685009Y-91449546D01*
X157685322Y-91449502D01*
X157685623Y-91449439D01*
X157685911Y-91449356D01*
X157686186Y-91449252D01*
X157686449Y-91449129D01*
X157686699Y-91448987D01*
X157686936Y-91448824D01*
X157687161Y-91448641D01*
X157687373Y-91448439D01*
X157687572Y-91448216D01*
X157687759Y-91447974D01*
X157687934Y-91447711D01*
X157688095Y-91447429D01*
X157688244Y-91447127D01*
X157688381Y-91446805D01*
X157688505Y-91446463D01*
X157688616Y-91446102D01*
X157688715Y-91445720D01*
X157688801Y-91445318D01*
X157688875Y-91444897D01*
X157688936Y-91444456D01*
X157688984Y-91443994D01*
X157691218Y-91410091D01*
X157692122Y-91376614D01*
X157691709Y-91343591D01*
X157689991Y-91311051D01*
X157686979Y-91279024D01*
X157682686Y-91247539D01*
X157677123Y-91216623D01*
X157670302Y-91186307D01*
X157662235Y-91156618D01*
X157652934Y-91127586D01*
X157642410Y-91099239D01*
X157630676Y-91071608D01*
X157617743Y-91044719D01*
X157603624Y-91018603D01*
X157588330Y-90993288D01*
X157571873Y-90968802D01*
X157554265Y-90945176D01*
X157535517Y-90922438D01*
X157515642Y-90900616D01*
X157494652Y-90879739D01*
X157472558Y-90859837D01*
X157449373Y-90840938D01*
X157425107Y-90823071D01*
X157399774Y-90806266D01*
X157373384Y-90790550D01*
X157345950Y-90775953D01*
X157317484Y-90762503D01*
X157287997Y-90750230D01*
X157257501Y-90739162D01*
X157226009Y-90729329D01*
X157193532Y-90720758D01*
X157160082Y-90713480D01*
X157121124Y-90706881D01*
X157081773Y-90702218D01*
X157042149Y-90699494D01*
X157002374Y-90698715D01*
X156962567Y-90699883D01*
X156922850Y-90703004D01*
X156883344Y-90708080D01*
X156844169Y-90715117D01*
X156805448Y-90724118D01*
X156767300Y-90735087D01*
X156729846Y-90748028D01*
X156693208Y-90762946D01*
X156657506Y-90779845D01*
X156622862Y-90798728D01*
X156589396Y-90819600D01*
X156557229Y-90842464D01*
X156526518Y-90867124D01*
X156497856Y-90892983D01*
X156471243Y-90920041D01*
X156446679Y-90948298D01*
X156424163Y-90977754D01*
X156403696Y-91008408D01*
X156385278Y-91040262D01*
X156368908Y-91073315D01*
X156354587Y-91107566D01*
X156342314Y-91143016D01*
X156332090Y-91179665D01*
X156323914Y-91217513D01*
X156317787Y-91256559D01*
X156313708Y-91296804D01*
X156311677Y-91338248D01*
X155715364Y-91338248D01*
X155712811Y-91297680D01*
X155711841Y-91275378D01*
X155711447Y-91252987D01*
X155711629Y-91230507D01*
X155712387Y-91207939D01*
X155713720Y-91185281D01*
X155715629Y-91162534D01*
X155718114Y-91139699D01*
X155721175Y-91116774D01*
X155724812Y-91093760D01*
X155729024Y-91070658D01*
X155733812Y-91047466D01*
X155739176Y-91024186D01*
X155745115Y-91000816D01*
X155751631Y-90977357D01*
X155758722Y-90953810D01*
X155766389Y-90930173D01*
X155785263Y-90877639D01*
X155806136Y-90826595D01*
X155829008Y-90777043D01*
X155853880Y-90728983D01*
X155880750Y-90682413D01*
X155909620Y-90637335D01*
X155940488Y-90593749D01*
X155973356Y-90551654D01*
X156008223Y-90511050D01*
X156045088Y-90471938D01*
X156083952Y-90434317D01*
X156124815Y-90398187D01*
X156167677Y-90363549D01*
X156212538Y-90330402D01*
X156259398Y-90298747D01*
X156308256Y-90268583D01*
X156355727Y-90241817D01*
X156403881Y-90217147D01*
X156452721Y-90194573D01*
X156502244Y-90174095D01*
X156552451Y-90155712D01*
X156603342Y-90139426D01*
X156654918Y-90125235D01*
X156707178Y-90113140D01*
X156760122Y-90103141D01*
X156813751Y-90095239D01*
X156868064Y-90089432D01*
X156923061Y-90085721D01*
X156978743Y-90084107D01*
X157035109Y-90084589D01*
G37*
D14*
%TO.C,J1*%
X144401293Y-94851176D02*
X146199567Y-99791892D01*
X146199567Y-99791892D02*
X146710346Y-99605984D01*
X144912073Y-94665268D02*
X144401293Y-94851176D01*
X148314289Y-99022196D02*
X149097165Y-98737253D01*
X147298892Y-93796537D02*
X146516015Y-94081481D01*
X150701108Y-98153465D02*
X151483985Y-97868521D01*
X149685711Y-92927806D02*
X148902835Y-93212749D01*
X153087927Y-97284734D02*
X153598707Y-97098826D01*
X151800433Y-92158110D02*
X151289654Y-92344018D01*
X153598707Y-97098826D02*
X151800433Y-92158110D01*
D15*
%TO.C,R1*%
X159227064Y-98840000D02*
X157772936Y-98840000D01*
X159227064Y-100660000D02*
X157772936Y-100660000D01*
%TO.C,R2*%
X139840000Y-94522936D02*
X139840000Y-95977064D01*
X141660000Y-94522936D02*
X141660000Y-95977064D01*
%TO.C,R3*%
X135340000Y-94522936D02*
X135340000Y-95977064D01*
X137160000Y-94522936D02*
X137160000Y-95977064D01*
%TD*%
%LPC*%
D16*
%TO.C,J1*%
X150523219Y-92733547D03*
X152250420Y-97478993D03*
X148136399Y-93602278D03*
X149863601Y-98347724D03*
X145749580Y-94471009D03*
X147476781Y-99216455D03*
%TD*%
D17*
%TO.C,R1*%
X156850000Y-99750000D03*
X160150000Y-99750000D03*
%TD*%
D18*
%TO.C,R2*%
X140750000Y-96900000D03*
X140750000Y-93600000D03*
%TD*%
%TO.C,R3*%
X136250000Y-96900000D03*
X136250000Y-93600000D03*
%TD*%
%LPD*%
M02*
