%TF.GenerationSoftware,KiCad,Pcbnew,8.0.8*%
%TF.CreationDate,2025-05-05T01:26:33-03:00*%
%TF.ProjectId,Sao_Bandaid,53616f5f-4261-46e6-9461-69642e6b6963,rev?*%
%TF.SameCoordinates,Original*%
%TF.FileFunction,Soldermask,Top*%
%TF.FilePolarity,Negative*%
%FSLAX46Y46*%
G04 Gerber Fmt 4.6, Leading zero omitted, Abs format (unit mm)*
G04 Created by KiCad (PCBNEW 8.0.8) date 2025-05-05 01:26:33*
%MOMM*%
%LPD*%
G01*
G04 APERTURE LIST*
G04 Aperture macros list*
%AMRoundRect*
0 Rectangle with rounded corners*
0 $1 Rounding radius*
0 $2 $3 $4 $5 $6 $7 $8 $9 X,Y pos of 4 corners*
0 Add a 4 corners polygon primitive as box body*
4,1,4,$2,$3,$4,$5,$6,$7,$8,$9,$2,$3,0*
0 Add four circle primitives for the rounded corners*
1,1,$1+$1,$2,$3*
1,1,$1+$1,$4,$5*
1,1,$1+$1,$6,$7*
1,1,$1+$1,$8,$9*
0 Add four rect primitives between the rounded corners*
20,1,$1+$1,$2,$3,$4,$5,0*
20,1,$1+$1,$4,$5,$6,$7,0*
20,1,$1+$1,$6,$7,$8,$9,0*
20,1,$1+$1,$8,$9,$2,$3,0*%
G04 Aperture macros list end*
%ADD10C,0.000000*%
%ADD11C,1.500000*%
%ADD12C,0.500000*%
%ADD13C,1.350000*%
%ADD14RoundRect,0.285088X-0.527412X-0.764912X0.527412X-0.764912X0.527412X0.764912X-0.527412X0.764912X0*%
G04 APERTURE END LIST*
D10*
G36*
X166078024Y-87878116D02*
G01*
X166081704Y-87878067D01*
X166081704Y-87878068D01*
X166084501Y-87878370D01*
X166086973Y-87878468D01*
X166090376Y-87879007D01*
X166632531Y-87937713D01*
X167178028Y-88034672D01*
X167715670Y-88168496D01*
X168242969Y-88338564D01*
X168757485Y-88544091D01*
X169256837Y-88784124D01*
X169738713Y-89057554D01*
X170200883Y-89363113D01*
X170641208Y-89699389D01*
X171057651Y-90064825D01*
X171448284Y-90457730D01*
X171811299Y-90876284D01*
X172145016Y-91318552D01*
X172447890Y-91782487D01*
X172718520Y-92265940D01*
X172955654Y-92766675D01*
X173158194Y-93282374D01*
X173325202Y-93810651D01*
X173455905Y-94349060D01*
X173549699Y-94895110D01*
X173606150Y-95446274D01*
X173624996Y-96000000D01*
X173606150Y-96553726D01*
X173549699Y-97104890D01*
X173455905Y-97650940D01*
X173325202Y-98189349D01*
X173158194Y-98717626D01*
X172955654Y-99233325D01*
X172718520Y-99734060D01*
X172447890Y-100217513D01*
X172145016Y-100681448D01*
X171811299Y-101123716D01*
X171448284Y-101542270D01*
X171057651Y-101935175D01*
X170641208Y-102300611D01*
X170200883Y-102636887D01*
X169738713Y-102942446D01*
X169256837Y-103215876D01*
X168757485Y-103455909D01*
X168242969Y-103661436D01*
X167715670Y-103831504D01*
X167178028Y-103965328D01*
X166632531Y-104062287D01*
X166090376Y-104120992D01*
X166086973Y-104121532D01*
X166084501Y-104121629D01*
X166081704Y-104121932D01*
X166081704Y-104121933D01*
X166078024Y-104121883D01*
X165998707Y-104125000D01*
X132498707Y-104125000D01*
X132498700Y-104124999D01*
X131944238Y-104106059D01*
X131392353Y-104049324D01*
X130845627Y-103955060D01*
X130306608Y-103823705D01*
X129777809Y-103655872D01*
X129261697Y-103452344D01*
X128760677Y-103214070D01*
X128277085Y-102942160D01*
X127813176Y-102637883D01*
X127371114Y-102302657D01*
X126952959Y-101938045D01*
X126560660Y-101545747D01*
X126196048Y-101127592D01*
X125860821Y-100685530D01*
X125556544Y-100221622D01*
X125284634Y-99738031D01*
X125046359Y-99237011D01*
X124842831Y-98720899D01*
X124674997Y-98192100D01*
X124543642Y-97653081D01*
X124449377Y-97106355D01*
X124392641Y-96554470D01*
X124373700Y-96000000D01*
X126618931Y-96000000D01*
X126637997Y-96473125D01*
X126695073Y-96943182D01*
X126789787Y-97407122D01*
X126921525Y-97861936D01*
X127089434Y-98304675D01*
X127292424Y-98732467D01*
X127529179Y-99142537D01*
X127798163Y-99532228D01*
X128097632Y-99899010D01*
X128425643Y-100240506D01*
X128780070Y-100554500D01*
X129158613Y-100838957D01*
X129558819Y-101092031D01*
X129978091Y-101312082D01*
X130413709Y-101497681D01*
X130862850Y-101647626D01*
X131322600Y-101760944D01*
X131789978Y-101836900D01*
X132261951Y-101875001D01*
X132498706Y-101875000D01*
X165957028Y-101875000D01*
X166153651Y-101860419D01*
X166625136Y-101786864D01*
X167089134Y-101675441D01*
X167542607Y-101526878D01*
X167982589Y-101342148D01*
X168406199Y-101122459D01*
X168810667Y-100869250D01*
X169193344Y-100584176D01*
X169551728Y-100269105D01*
X169883472Y-99926096D01*
X170186406Y-99557396D01*
X170458548Y-99165417D01*
X170698116Y-98752723D01*
X170903543Y-98322016D01*
X171073485Y-97876114D01*
X171206829Y-97417934D01*
X171302703Y-96950476D01*
X171360479Y-96476798D01*
X171379780Y-96000000D01*
X171360479Y-95523202D01*
X171302703Y-95049524D01*
X171206829Y-94582066D01*
X171073485Y-94123886D01*
X170903543Y-93677984D01*
X170698116Y-93247277D01*
X170458548Y-92834583D01*
X170186406Y-92442604D01*
X169883472Y-92073904D01*
X169551728Y-91730895D01*
X169193344Y-91415824D01*
X168810667Y-91130750D01*
X168406199Y-90877541D01*
X167982589Y-90657852D01*
X167542607Y-90473122D01*
X167089134Y-90324559D01*
X166625136Y-90213136D01*
X166153651Y-90139581D01*
X165957028Y-90125000D01*
X132498707Y-90125000D01*
X132498706Y-90124999D01*
X132498706Y-90125000D01*
X132261951Y-90124999D01*
X131789978Y-90163100D01*
X131322600Y-90239056D01*
X130862850Y-90352374D01*
X130413709Y-90502319D01*
X129978091Y-90687918D01*
X129558819Y-90907969D01*
X129158613Y-91161043D01*
X128780070Y-91445500D01*
X128425643Y-91759494D01*
X128097632Y-92100990D01*
X127798163Y-92467772D01*
X127529179Y-92857463D01*
X127292424Y-93267533D01*
X127089434Y-93695325D01*
X126921525Y-94138064D01*
X126789787Y-94592878D01*
X126695073Y-95056818D01*
X126637997Y-95526875D01*
X126618931Y-96000000D01*
X124373700Y-96000000D01*
X124392641Y-95445530D01*
X124449377Y-94893645D01*
X124543642Y-94346919D01*
X124674997Y-93807900D01*
X124842831Y-93279101D01*
X125046359Y-92762989D01*
X125284634Y-92261969D01*
X125556544Y-91778378D01*
X125860821Y-91314470D01*
X126196048Y-90872408D01*
X126560660Y-90454253D01*
X126952959Y-90061955D01*
X127371114Y-89697343D01*
X127813176Y-89362117D01*
X128277085Y-89057840D01*
X128760677Y-88785930D01*
X129261697Y-88547656D01*
X129777809Y-88344128D01*
X130306608Y-88176295D01*
X130845627Y-88044940D01*
X131392353Y-87950676D01*
X131944238Y-87893941D01*
X132498700Y-87875000D01*
X165998707Y-87875000D01*
X166078024Y-87878116D01*
G37*
D11*
X166000000Y-89000000D02*
X132500000Y-89000000D01*
D12*
X144000000Y-92250000D02*
X144000000Y-99750000D01*
X153000000Y-91250000D02*
X145000000Y-91250000D01*
D11*
X166000000Y-103000000D02*
X132500000Y-103000000D01*
D12*
X154000000Y-92250000D02*
X154000000Y-99750000D01*
X153000000Y-91250000D02*
G75*
G02*
X154000000Y-92250000I0J-1000000D01*
G01*
X154000000Y-99750000D02*
G75*
G02*
X153000000Y-100750000I-1000000J0D01*
G01*
X145000000Y-100750000D02*
G75*
G02*
X144000000Y-99750000I0J1000000D01*
G01*
X144000000Y-92250000D02*
G75*
G02*
X145000000Y-91250000I1000000J0D01*
G01*
D11*
X166000000Y-89000000D02*
G75*
G02*
X166000000Y-103000000I-517830J-7000000D01*
G01*
D12*
X145000000Y-100750000D02*
X153000000Y-100750000D01*
D11*
X132500000Y-103000000D02*
G75*
G02*
X132500000Y-89000000I0J7000000D01*
G01*
D13*
%TO.C,REF\u002A\u002A*%
X133750000Y-96500000D03*
%TD*%
%TO.C,REF\u002A\u002A*%
X161500000Y-94500000D03*
%TD*%
%TO.C,REF\u002A\u002A*%
X161500000Y-98500000D03*
%TD*%
%TO.C,REF\u002A\u002A*%
X167250000Y-92250000D03*
%TD*%
%TO.C,REF\u002A\u002A*%
X141250000Y-96500000D03*
%TD*%
%TO.C,REF\u002A\u002A*%
X131750000Y-94750000D03*
%TD*%
%TO.C,REF\u002A\u002A*%
X159750000Y-96500000D03*
%TD*%
D14*
%TO.C,D1*%
X147412500Y-95975000D03*
X150587500Y-95975000D03*
%TD*%
D13*
%TO.C,REF\u002A\u002A*%
X163500000Y-96500000D03*
%TD*%
%TO.C,REF\u002A\u002A*%
X167250000Y-96500000D03*
%TD*%
%TO.C,REF\u002A\u002A*%
X137500000Y-96500000D03*
%TD*%
%TO.C,REF\u002A\u002A*%
X159750000Y-92500000D03*
%TD*%
%TO.C,REF\u002A\u002A*%
X137500000Y-92250000D03*
%TD*%
%TO.C,REF\u002A\u002A*%
X133750000Y-92250000D03*
%TD*%
%TO.C,REF\u002A\u002A*%
X135500000Y-94750000D03*
%TD*%
%TO.C,REF\u002A\u002A*%
X131750000Y-98500000D03*
%TD*%
%TO.C,REF\u002A\u002A*%
X139500000Y-94750000D03*
%TD*%
%TO.C,REF\u002A\u002A*%
X157750000Y-98500000D03*
%TD*%
%TO.C,REF\u002A\u002A*%
X163500000Y-92500000D03*
%TD*%
%TO.C,REF\u002A\u002A*%
X137500000Y-100500000D03*
%TD*%
%TO.C,REF\u002A\u002A*%
X135750000Y-98500000D03*
%TD*%
%TO.C,REF\u002A\u002A*%
X139500000Y-98500000D03*
%TD*%
%TO.C,REF\u002A\u002A*%
X165250000Y-94500000D03*
%TD*%
%TO.C,REF\u002A\u002A*%
X163500000Y-100500000D03*
%TD*%
%TO.C,REF\u002A\u002A*%
X165500000Y-98500000D03*
%TD*%
%TO.C,REF\u002A\u002A*%
X141250000Y-92250000D03*
%TD*%
%TO.C,REF\u002A\u002A*%
X157750000Y-94500000D03*
%TD*%
M02*
