%TF.GenerationSoftware,KiCad,Pcbnew,8.0.8*%
%TF.CreationDate,2025-05-05T01:26:33-03:00*%
%TF.ProjectId,Sao_Bandaid,53616f5f-4261-46e6-9461-69642e6b6963,rev?*%
%TF.SameCoordinates,Original*%
%TF.FileFunction,Copper,L1,Top*%
%TF.FilePolarity,Positive*%
%FSLAX46Y46*%
G04 Gerber Fmt 4.6, Leading zero omitted, Abs format (unit mm)*
G04 Created by KiCad (PCBNEW 8.0.8) date 2025-05-05 01:26:33*
%MOMM*%
%LPD*%
G01*
G04 APERTURE LIST*
G04 Aperture macros list*
%AMRoundRect*
0 Rectangle with rounded corners*
0 $1 Rounding radius*
0 $2 $3 $4 $5 $6 $7 $8 $9 X,Y pos of 4 corners*
0 Add a 4 corners polygon primitive as box body*
4,1,4,$2,$3,$4,$5,$6,$7,$8,$9,$2,$3,0*
0 Add four circle primitives for the rounded corners*
1,1,$1+$1,$2,$3*
1,1,$1+$1,$4,$5*
1,1,$1+$1,$6,$7*
1,1,$1+$1,$8,$9*
0 Add four rect primitives between the rounded corners*
20,1,$1+$1,$2,$3,$4,$5,0*
20,1,$1+$1,$4,$5,$6,$7,0*
20,1,$1+$1,$6,$7,$8,$9,0*
20,1,$1+$1,$8,$9,$2,$3,0*%
G04 Aperture macros list end*
%TA.AperFunction,NonConductor*%
%ADD10C,0.500000*%
%TD*%
%TA.AperFunction,SMDPad,CuDef*%
%ADD11C,1.350000*%
%TD*%
%TA.AperFunction,SMDPad,CuDef*%
%ADD12RoundRect,0.285088X-0.527412X-0.764912X0.527412X-0.764912X0.527412X0.764912X-0.527412X0.764912X0*%
%TD*%
%TA.AperFunction,ViaPad*%
%ADD13C,0.600000*%
%TD*%
%TA.AperFunction,Conductor*%
%ADD14C,0.500000*%
%TD*%
G04 APERTURE END LIST*
D10*
X154000000Y-92250000D02*
X154000000Y-99750000D01*
X145000000Y-100750000D02*
G75*
G02*
X144000000Y-99750000I0J1000000D01*
G01*
X145000000Y-100750000D02*
X153000000Y-100750000D01*
X144000000Y-92250000D02*
G75*
G02*
X145000000Y-91250000I1000000J0D01*
G01*
X144000000Y-92250000D02*
X144000000Y-99750000D01*
X153000000Y-91250000D02*
X145000000Y-91250000D01*
X154000000Y-99750000D02*
G75*
G02*
X153000000Y-100750000I-1000000J0D01*
G01*
X153000000Y-91250000D02*
G75*
G02*
X154000000Y-92250000I0J-1000000D01*
G01*
D11*
%TO.P,REF\u002A\u002A,1*%
%TO.N,N/C*%
X133750000Y-96500000D03*
%TD*%
%TO.P,REF\u002A\u002A,1*%
%TO.N,N/C*%
X161500000Y-94500000D03*
%TD*%
%TO.P,REF\u002A\u002A,1*%
%TO.N,N/C*%
X161500000Y-98500000D03*
%TD*%
%TO.P,REF\u002A\u002A,1*%
%TO.N,N/C*%
X167250000Y-92250000D03*
%TD*%
%TO.P,REF\u002A\u002A,1*%
%TO.N,N/C*%
X141250000Y-96500000D03*
%TD*%
%TO.P,REF\u002A\u002A,1*%
%TO.N,N/C*%
X131750000Y-94750000D03*
%TD*%
%TO.P,REF\u002A\u002A,1*%
%TO.N,N/C*%
X159750000Y-96500000D03*
%TD*%
D12*
%TO.P,D1,1,K*%
%TO.N,GND*%
X147412500Y-95975000D03*
%TO.P,D1,2,A*%
%TO.N,Net-(D1-A)*%
X150587500Y-95975000D03*
%TD*%
D11*
%TO.P,REF\u002A\u002A,1*%
%TO.N,N/C*%
X163500000Y-96500000D03*
%TD*%
%TO.P,REF\u002A\u002A,1*%
%TO.N,N/C*%
X167250000Y-96500000D03*
%TD*%
%TO.P,REF\u002A\u002A,1*%
%TO.N,N/C*%
X137500000Y-96500000D03*
%TD*%
%TO.P,REF\u002A\u002A,1*%
%TO.N,N/C*%
X159750000Y-92500000D03*
%TD*%
%TO.P,REF\u002A\u002A,1*%
%TO.N,N/C*%
X137500000Y-92250000D03*
%TD*%
%TO.P,REF\u002A\u002A,1*%
%TO.N,N/C*%
X133750000Y-92250000D03*
%TD*%
%TO.P,REF\u002A\u002A,1*%
%TO.N,N/C*%
X135500000Y-94750000D03*
%TD*%
%TO.P,REF\u002A\u002A,1*%
%TO.N,N/C*%
X131750000Y-98500000D03*
%TD*%
%TO.P,REF\u002A\u002A,1*%
%TO.N,N/C*%
X139500000Y-94750000D03*
%TD*%
%TO.P,REF\u002A\u002A,1*%
%TO.N,N/C*%
X157750000Y-98500000D03*
%TD*%
%TO.P,REF\u002A\u002A,1*%
%TO.N,N/C*%
X163500000Y-92500000D03*
%TD*%
%TO.P,REF\u002A\u002A,1*%
%TO.N,N/C*%
X137500000Y-100500000D03*
%TD*%
%TO.P,REF\u002A\u002A,1*%
%TO.N,N/C*%
X135750000Y-98500000D03*
%TD*%
%TO.P,REF\u002A\u002A,1*%
%TO.N,N/C*%
X139500000Y-98500000D03*
%TD*%
%TO.P,REF\u002A\u002A,1*%
%TO.N,N/C*%
X165250000Y-94500000D03*
%TD*%
%TO.P,REF\u002A\u002A,1*%
%TO.N,N/C*%
X163500000Y-100500000D03*
%TD*%
%TO.P,REF\u002A\u002A,1*%
%TO.N,N/C*%
X165500000Y-98500000D03*
%TD*%
%TO.P,REF\u002A\u002A,1*%
%TO.N,N/C*%
X141250000Y-92250000D03*
%TD*%
%TO.P,REF\u002A\u002A,1*%
%TO.N,N/C*%
X157750000Y-94500000D03*
%TD*%
D13*
%TO.N,*%
X153000000Y-92250000D03*
X145000000Y-92250000D03*
%TO.N,GND*%
X145000000Y-99750000D03*
%TO.N,Net-(D1-A)*%
X153000000Y-99750000D03*
%TD*%
D14*
%TO.N,GND*%
X147412500Y-95975000D02*
X147412500Y-97337500D01*
X147412500Y-97337500D02*
X145000000Y-99750000D01*
%TO.N,Net-(D1-A)*%
X150612500Y-97362500D02*
X153000000Y-99750000D01*
X150612500Y-96000000D02*
X150612500Y-97362500D01*
X150612500Y-96000000D02*
X150587500Y-95975000D01*
%TD*%
%TA.AperFunction,NonConductor*%
G36*
X165982091Y-89501280D02*
G01*
X166455510Y-89554634D01*
X166464879Y-89556056D01*
X166946932Y-89648260D01*
X166956187Y-89650401D01*
X167429738Y-89779300D01*
X167438813Y-89782149D01*
X167587044Y-89835005D01*
X167901090Y-89946988D01*
X167909897Y-89950515D01*
X168281132Y-90115983D01*
X168358164Y-90150318D01*
X168366701Y-90154523D01*
X168798328Y-90388118D01*
X168806512Y-90392962D01*
X169217225Y-90657857D01*
X169218934Y-90658959D01*
X169226724Y-90664417D01*
X169257660Y-90687915D01*
X169617545Y-90961270D01*
X169624897Y-90967313D01*
X169991793Y-91293258D01*
X169998660Y-91299847D01*
X170339481Y-91652972D01*
X170345822Y-91660068D01*
X170658552Y-92038285D01*
X170664331Y-92045847D01*
X170947140Y-92446942D01*
X170952321Y-92454924D01*
X171203536Y-92876525D01*
X171208090Y-92884882D01*
X171426227Y-93324498D01*
X171430127Y-93333179D01*
X171613907Y-93788232D01*
X171617130Y-93797186D01*
X171765475Y-94265009D01*
X171768001Y-94274184D01*
X171880029Y-94751994D01*
X171881844Y-94761336D01*
X171956897Y-95246322D01*
X171957991Y-95255776D01*
X171995630Y-95745108D01*
X171995995Y-95754618D01*
X171995995Y-96245381D01*
X171995630Y-96254891D01*
X171957991Y-96744223D01*
X171956897Y-96753677D01*
X171881844Y-97238663D01*
X171880029Y-97248005D01*
X171768001Y-97725815D01*
X171765475Y-97734990D01*
X171617130Y-98202813D01*
X171613907Y-98211767D01*
X171430127Y-98666820D01*
X171426227Y-98675501D01*
X171208090Y-99115117D01*
X171203536Y-99123474D01*
X170952321Y-99545075D01*
X170947140Y-99553057D01*
X170664331Y-99954152D01*
X170658552Y-99961714D01*
X170345822Y-100339931D01*
X170339481Y-100347027D01*
X169998660Y-100700152D01*
X169991793Y-100706741D01*
X169624897Y-101032686D01*
X169617545Y-101038729D01*
X169226728Y-101335579D01*
X169218934Y-101341040D01*
X168806518Y-101607033D01*
X168798328Y-101611881D01*
X168366701Y-101845476D01*
X168358164Y-101849681D01*
X167909915Y-102049477D01*
X167901080Y-102053015D01*
X167438813Y-102217850D01*
X167429734Y-102220700D01*
X166956199Y-102349595D01*
X166946927Y-102351740D01*
X166464899Y-102443940D01*
X166455490Y-102445368D01*
X165982091Y-102498720D01*
X165968204Y-102499500D01*
X132502376Y-102499500D01*
X132497626Y-102499409D01*
X132007219Y-102480611D01*
X131997748Y-102479884D01*
X131512578Y-102423874D01*
X131503190Y-102422424D01*
X131023723Y-102329436D01*
X131014474Y-102327271D01*
X130543549Y-102197859D01*
X130534493Y-102194993D01*
X130074846Y-102029907D01*
X130066036Y-102026356D01*
X129620391Y-101826577D01*
X129611878Y-101822363D01*
X129182801Y-101589039D01*
X129174636Y-101584184D01*
X128764708Y-101318717D01*
X128756938Y-101313252D01*
X128368524Y-101017177D01*
X128361196Y-101011134D01*
X127996588Y-100686196D01*
X127989743Y-100679609D01*
X127669665Y-100347027D01*
X127651065Y-100327701D01*
X127644750Y-100320614D01*
X127615575Y-100285237D01*
X127334009Y-99943818D01*
X127328258Y-99936272D01*
X127047279Y-99536804D01*
X127042115Y-99528831D01*
X126812463Y-99142540D01*
X126792530Y-99109012D01*
X126788009Y-99100697D01*
X126571284Y-98662986D01*
X126567407Y-98654336D01*
X126505204Y-98500000D01*
X126384830Y-98201333D01*
X126381626Y-98192411D01*
X126344007Y-98073541D01*
X126234266Y-97726773D01*
X126231751Y-97717620D01*
X126120469Y-97242071D01*
X126118662Y-97232756D01*
X126075061Y-96950476D01*
X126044105Y-96750061D01*
X126043019Y-96740655D01*
X126005633Y-96253690D01*
X126005269Y-96244198D01*
X126005269Y-95999989D01*
X126618931Y-95999989D01*
X126618931Y-96000010D01*
X126637995Y-96473108D01*
X126637997Y-96473124D01*
X126695073Y-96943187D01*
X126789788Y-97407128D01*
X126921526Y-97861942D01*
X127046858Y-98192411D01*
X127089434Y-98304675D01*
X127259463Y-98663003D01*
X127292427Y-98732473D01*
X127529180Y-99142540D01*
X127529184Y-99142546D01*
X127618558Y-99272025D01*
X127798163Y-99532228D01*
X128097632Y-99899010D01*
X128123662Y-99926110D01*
X128425645Y-100240508D01*
X128425650Y-100240513D01*
X128780065Y-100554497D01*
X128922568Y-100661580D01*
X129158613Y-100838957D01*
X129158622Y-100838963D01*
X129158629Y-100838968D01*
X129336480Y-100951432D01*
X129558819Y-101092031D01*
X129978091Y-101312082D01*
X130413709Y-101497681D01*
X130862850Y-101647626D01*
X131322600Y-101760944D01*
X131322614Y-101760946D01*
X131322621Y-101760948D01*
X131770953Y-101833808D01*
X131789978Y-101836900D01*
X132261951Y-101875001D01*
X132498706Y-101875000D01*
X165957028Y-101875000D01*
X166153651Y-101860419D01*
X166625136Y-101786864D01*
X167089134Y-101675441D01*
X167542607Y-101526878D01*
X167982589Y-101342148D01*
X168406199Y-101122459D01*
X168810667Y-100869250D01*
X169193344Y-100584176D01*
X169551728Y-100269105D01*
X169883472Y-99926096D01*
X170186406Y-99557396D01*
X170458548Y-99165417D01*
X170698116Y-98752723D01*
X170903543Y-98322016D01*
X171073485Y-97876114D01*
X171206829Y-97417934D01*
X171302703Y-96950476D01*
X171360479Y-96476798D01*
X171379780Y-96000000D01*
X171360479Y-95523202D01*
X171302703Y-95049524D01*
X171206829Y-94582066D01*
X171073485Y-94123886D01*
X170903543Y-93677984D01*
X170698116Y-93247277D01*
X170458548Y-92834583D01*
X170186406Y-92442604D01*
X169883472Y-92073904D01*
X169551728Y-91730895D01*
X169551724Y-91730891D01*
X169551715Y-91730883D01*
X169193343Y-91415823D01*
X168994108Y-91267404D01*
X168810667Y-91130750D01*
X168406199Y-90877541D01*
X168406197Y-90877540D01*
X168406194Y-90877538D01*
X167982599Y-90657857D01*
X167982597Y-90657856D01*
X167982595Y-90657855D01*
X167982589Y-90657852D01*
X167542607Y-90473122D01*
X167542608Y-90473122D01*
X167542605Y-90473121D01*
X167089137Y-90324560D01*
X167089134Y-90324559D01*
X166625143Y-90213137D01*
X166625138Y-90213136D01*
X166153664Y-90139583D01*
X166153662Y-90139582D01*
X166153651Y-90139581D01*
X166153645Y-90139580D01*
X166153633Y-90139579D01*
X165957040Y-90125000D01*
X165957028Y-90125000D01*
X132550070Y-90125000D01*
X132519364Y-90115983D01*
X132474039Y-90124999D01*
X132261941Y-90124999D01*
X131789972Y-90163100D01*
X131322621Y-90239051D01*
X131322609Y-90239054D01*
X131322602Y-90239055D01*
X131322600Y-90239056D01*
X131189418Y-90271882D01*
X130862860Y-90352371D01*
X130862853Y-90352373D01*
X130413719Y-90502315D01*
X130413711Y-90502318D01*
X130413709Y-90502319D01*
X130252524Y-90570993D01*
X129978097Y-90687915D01*
X129978092Y-90687917D01*
X129978091Y-90687918D01*
X129558819Y-90907969D01*
X129558816Y-90907971D01*
X129158629Y-91161031D01*
X129158616Y-91161041D01*
X128780065Y-91445502D01*
X128425650Y-91759486D01*
X128425645Y-91759491D01*
X128097636Y-92100985D01*
X128097630Y-92100991D01*
X127798166Y-92467768D01*
X127529184Y-92857453D01*
X127529180Y-92857459D01*
X127292427Y-93267526D01*
X127089434Y-93695325D01*
X126921526Y-94138057D01*
X126789788Y-94592871D01*
X126695073Y-95056812D01*
X126637997Y-95526875D01*
X126637995Y-95526891D01*
X126618931Y-95999989D01*
X126005269Y-95999989D01*
X126005269Y-95755801D01*
X126005633Y-95746309D01*
X126005725Y-95745108D01*
X126043020Y-95259341D01*
X126044104Y-95249941D01*
X126118664Y-94767228D01*
X126120467Y-94757933D01*
X126231754Y-94282367D01*
X126234264Y-94273233D01*
X126381631Y-93807571D01*
X126384827Y-93798674D01*
X126567413Y-93345649D01*
X126571280Y-93337022D01*
X126788014Y-92899291D01*
X126792524Y-92890998D01*
X127042120Y-92471159D01*
X127047279Y-92463195D01*
X127197237Y-92250000D01*
X127328264Y-92063717D01*
X127333999Y-92056193D01*
X127644766Y-91679366D01*
X127651053Y-91672311D01*
X127989750Y-91320382D01*
X127996579Y-91313810D01*
X128361213Y-90988850D01*
X128368506Y-90982836D01*
X128756952Y-90686736D01*
X128764693Y-90681292D01*
X129174656Y-90415802D01*
X129182780Y-90410972D01*
X129611895Y-90177627D01*
X129620373Y-90173430D01*
X130066049Y-89973637D01*
X130074833Y-89970097D01*
X130534513Y-89804999D01*
X130543528Y-89802146D01*
X131014496Y-89672722D01*
X131023702Y-89670567D01*
X131503213Y-89577571D01*
X131512555Y-89576128D01*
X131997771Y-89520113D01*
X132007197Y-89519389D01*
X132479651Y-89501280D01*
X132497627Y-89500591D01*
X132502376Y-89500500D01*
X132565892Y-89500500D01*
X165968204Y-89500500D01*
X165982091Y-89501280D01*
G37*
%TD.AperFunction*%
M02*
