%TF.GenerationSoftware,KiCad,Pcbnew,8.0.8*%
%TF.CreationDate,2025-05-05T01:26:33-03:00*%
%TF.ProjectId,Sao_Bandaid,53616f5f-4261-46e6-9461-69642e6b6963,rev?*%
%TF.SameCoordinates,Original*%
%TF.FileFunction,Copper,L2,Bot*%
%TF.FilePolarity,Positive*%
%FSLAX46Y46*%
G04 Gerber Fmt 4.6, Leading zero omitted, Abs format (unit mm)*
G04 Created by KiCad (PCBNEW 8.0.8) date 2025-05-05 01:26:33*
%MOMM*%
%LPD*%
G01*
G04 APERTURE LIST*
G04 Aperture macros list*
%AMRoundRect*
0 Rectangle with rounded corners*
0 $1 Rounding radius*
0 $2 $3 $4 $5 $6 $7 $8 $9 X,Y pos of 4 corners*
0 Add a 4 corners polygon primitive as box body*
4,1,4,$2,$3,$4,$5,$6,$7,$8,$9,$2,$3,0*
0 Add four circle primitives for the rounded corners*
1,1,$1+$1,$2,$3*
1,1,$1+$1,$4,$5*
1,1,$1+$1,$6,$7*
1,1,$1+$1,$8,$9*
0 Add four rect primitives between the rounded corners*
20,1,$1+$1,$2,$3,$4,$5,0*
20,1,$1+$1,$4,$5,$6,$7,0*
20,1,$1+$1,$6,$7,$8,$9,0*
20,1,$1+$1,$8,$9,$2,$3,0*%
%AMRotRect*
0 Rectangle, with rotation*
0 The origin of the aperture is its center*
0 $1 length*
0 $2 width*
0 $3 Rotation angle, in degrees counterclockwise*
0 Add horizontal line*
21,1,$1,$2,0,0,$3*%
G04 Aperture macros list end*
%TA.AperFunction,SMDPad,CuDef*%
%ADD10RotRect,1.041400X3.200400X200.000000*%
%TD*%
%TA.AperFunction,SMDPad,CuDef*%
%ADD11RoundRect,0.288462X-0.461538X-0.811538X0.461538X-0.811538X0.461538X0.811538X-0.461538X0.811538X0*%
%TD*%
%TA.AperFunction,SMDPad,CuDef*%
%ADD12RoundRect,0.288462X0.811538X-0.461538X0.811538X0.461538X-0.811538X0.461538X-0.811538X-0.461538X0*%
%TD*%
%TA.AperFunction,ViaPad*%
%ADD13C,0.600000*%
%TD*%
%TA.AperFunction,Conductor*%
%ADD14C,0.500000*%
%TD*%
G04 APERTURE END LIST*
D10*
%TO.P,J1,1,GPIO1*%
%TO.N,unconnected-(J1-GPIO1-Pad1)*%
X150523219Y-92733547D03*
%TO.P,J1,2,GPIO2*%
%TO.N,unconnected-(J1-GPIO2-Pad2)*%
X152250420Y-97478993D03*
%TO.P,J1,3,SDA*%
%TO.N,Net-(J1-SDA)*%
X148136399Y-93602278D03*
%TO.P,J1,4,SCL*%
%TO.N,Net-(J1-SCL)*%
X149863601Y-98347724D03*
%TO.P,J1,5,3V3*%
%TO.N,+3V3*%
X145749580Y-94471009D03*
%TO.P,J1,6,GND*%
%TO.N,GND*%
X147476781Y-99216455D03*
%TD*%
D11*
%TO.P,R1,1*%
%TO.N,+3V3*%
X156850000Y-99750000D03*
%TO.P,R1,2*%
%TO.N,Net-(D1-A)*%
X160150000Y-99750000D03*
%TD*%
D12*
%TO.P,R2,1*%
%TO.N,Net-(J1-SCL)*%
X140750000Y-96900000D03*
%TO.P,R2,2*%
%TO.N,+3V3*%
X140750000Y-93600000D03*
%TD*%
%TO.P,R3,1*%
%TO.N,Net-(J1-SDA)*%
X136250000Y-96900000D03*
%TO.P,R3,2*%
%TO.N,+3V3*%
X136250000Y-93600000D03*
%TD*%
D13*
%TO.N,*%
X153000000Y-92250000D03*
X145000000Y-92250000D03*
%TO.N,GND*%
X145000000Y-99750000D03*
%TO.N,Net-(D1-A)*%
X153000000Y-99750000D03*
%TD*%
D14*
%TO.N,Net-(J1-SCL)*%
X149863601Y-98347724D02*
X149863601Y-99870148D01*
X148233749Y-101500000D02*
X142250000Y-101500000D01*
X149863601Y-99870148D02*
X148233749Y-101500000D01*
X142250000Y-101500000D02*
X140750000Y-100000000D01*
X140750000Y-100000000D02*
X140750000Y-96900000D01*
%TO.N,Net-(J1-SDA)*%
X148136399Y-93602278D02*
X145784121Y-91250000D01*
X145784121Y-91250000D02*
X135000000Y-91250000D01*
X135000000Y-91250000D02*
X133500000Y-92750000D01*
X133500000Y-92750000D02*
X133500000Y-95750000D01*
X133500000Y-95750000D02*
X134650000Y-96900000D01*
X134650000Y-96900000D02*
X136250000Y-96900000D01*
%TO.N,+3V3*%
X145749580Y-94471009D02*
X141621009Y-94471009D01*
X141621009Y-94471009D02*
X140750000Y-93600000D01*
X145749580Y-94471009D02*
X147028571Y-95750000D01*
X147028571Y-95750000D02*
X150500000Y-95750000D01*
X150500000Y-95750000D02*
X151250000Y-95000000D01*
X151250000Y-95000000D02*
X155000000Y-95000000D01*
X155000000Y-95000000D02*
X156850000Y-96850000D01*
X156850000Y-96850000D02*
X156850000Y-99750000D01*
%TO.N,GND*%
X145000000Y-99750000D02*
X146943236Y-99750000D01*
X146943236Y-99750000D02*
X147476781Y-99216455D01*
%TO.N,Net-(D1-A)*%
X153000000Y-99750000D02*
X154750000Y-101500000D01*
X154750000Y-101500000D02*
X158400000Y-101500000D01*
X158400000Y-101500000D02*
X160150000Y-99750000D01*
%TO.N,+3V3*%
X140899998Y-93450002D02*
X140750000Y-93600000D01*
X140750000Y-93600000D02*
X136250000Y-93600000D01*
%TD*%
M02*
