%TF.GenerationSoftware,KiCad,Pcbnew,8.0.8*%
%TF.CreationDate,2025-04-07T01:24:50-03:00*%
%TF.ProjectId,Sao_Bomb,53616f5f-426f-46d6-922e-6b696361645f,rev?*%
%TF.SameCoordinates,Original*%
%TF.FileFunction,Legend,Top*%
%TF.FilePolarity,Positive*%
%FSLAX46Y46*%
G04 Gerber Fmt 4.6, Leading zero omitted, Abs format (unit mm)*
G04 Created by KiCad (PCBNEW 8.0.8) date 2025-04-07 01:24:50*
%MOMM*%
%LPD*%
G01*
G04 APERTURE LIST*
G04 Aperture macros list*
%AMRoundRect*
0 Rectangle with rounded corners*
0 $1 Rounding radius*
0 $2 $3 $4 $5 $6 $7 $8 $9 X,Y pos of 4 corners*
0 Add a 4 corners polygon primitive as box body*
4,1,4,$2,$3,$4,$5,$6,$7,$8,$9,$2,$3,0*
0 Add four circle primitives for the rounded corners*
1,1,$1+$1,$2,$3*
1,1,$1+$1,$4,$5*
1,1,$1+$1,$6,$7*
1,1,$1+$1,$8,$9*
0 Add four rect primitives between the rounded corners*
20,1,$1+$1,$2,$3,$4,$5,0*
20,1,$1+$1,$4,$5,$6,$7,0*
20,1,$1+$1,$6,$7,$8,$9,0*
20,1,$1+$1,$8,$9,$2,$3,0*%
G04 Aperture macros list end*
%ADD10C,0.100000*%
%ADD11C,2.000000*%
%ADD12C,0.150000*%
%ADD13C,0.120000*%
%ADD14C,8.535281*%
%ADD15R,1.000000X1.000000*%
%ADD16RoundRect,0.288462X0.719064X-0.595448X0.879354X0.313604X-0.719064X0.595448X-0.879354X-0.313604X0*%
%ADD17RoundRect,0.288462X0.848676X-0.389052X0.768224X0.530512X-0.848676X0.389052X-0.768224X-0.530512X0*%
%ADD18RoundRect,0.288462X-0.879354X0.313604X-0.719064X-0.595448X0.879354X-0.313604X0.719064X0.595448X0*%
%ADD19RoundRect,0.285088X0.527412X0.764912X-0.527412X0.764912X-0.527412X-0.764912X0.527412X-0.764912X0*%
%ADD20RoundRect,0.288462X-0.719064X0.595448X-0.879354X-0.313604X0.719064X-0.595448X0.879354X0.313604X0*%
%ADD21RoundRect,0.285088X-0.527412X-0.764912X0.527412X-0.764912X0.527412X0.764912X-0.527412X0.764912X0*%
G04 APERTURE END LIST*
D10*
X172000000Y-86000000D02*
X151310170Y-86009025D01*
X162500000Y-77500000D02*
X163000000Y-79000000D01*
X164353846Y-83000000D01*
X165000000Y-86000000D01*
X165353846Y-91000000D01*
X165353846Y-100000000D01*
X165000000Y-104000000D01*
X164353846Y-107500000D01*
X163000000Y-113500000D01*
X162000000Y-115000000D01*
X156500000Y-115000000D01*
X155500000Y-114500000D01*
X154853846Y-113000000D01*
X156853846Y-113000000D01*
X158000000Y-109000000D01*
X158500000Y-106500000D01*
X159500000Y-98500000D01*
X159500000Y-93500000D01*
X159000000Y-87500000D01*
X158500000Y-83500000D01*
X157000000Y-79000000D01*
X155000000Y-79000000D01*
X155500000Y-77500000D01*
X156500000Y-77000000D01*
X162000000Y-77000000D01*
X162500000Y-77500000D01*
G36*
X162500000Y-77500000D02*
G01*
X163000000Y-79000000D01*
X164353846Y-83000000D01*
X165000000Y-86000000D01*
X165353846Y-91000000D01*
X165353846Y-100000000D01*
X165000000Y-104000000D01*
X164353846Y-107500000D01*
X163000000Y-113500000D01*
X162000000Y-115000000D01*
X156500000Y-115000000D01*
X155500000Y-114500000D01*
X154853846Y-113000000D01*
X156853846Y-113000000D01*
X158000000Y-109000000D01*
X158500000Y-106500000D01*
X159500000Y-98500000D01*
X159500000Y-93500000D01*
X159000000Y-87500000D01*
X158500000Y-83500000D01*
X157000000Y-79000000D01*
X155000000Y-79000000D01*
X155500000Y-77500000D01*
X156500000Y-77000000D01*
X162000000Y-77000000D01*
X162500000Y-77500000D01*
G37*
X126000000Y-86000000D02*
X146797133Y-85990090D01*
X143500000Y-77500000D02*
X144000000Y-78000000D01*
X144000000Y-79000000D01*
X142000000Y-79000000D01*
X140500000Y-83500000D01*
X139500000Y-87500000D01*
X138500000Y-93500000D01*
X138500000Y-98500000D01*
X139500000Y-107000000D01*
X141000000Y-111000000D01*
X142500000Y-113000000D01*
X143500000Y-113000000D01*
X143500000Y-113500000D01*
X143000000Y-114500000D01*
X142500000Y-115000000D01*
X136000000Y-115000000D01*
X135500000Y-114500000D01*
X135000000Y-113500000D01*
X134000000Y-111000000D01*
X133000000Y-105500000D01*
X132500000Y-99000000D01*
X132500000Y-93000000D01*
X133000000Y-88000000D01*
X134000000Y-83000000D01*
X135000000Y-79000000D01*
X135500000Y-77500000D01*
X137000000Y-77000000D01*
X142000000Y-77000000D01*
X143500000Y-77500000D01*
G36*
X143500000Y-77500000D02*
G01*
X144000000Y-78000000D01*
X144000000Y-79000000D01*
X142000000Y-79000000D01*
X140500000Y-83500000D01*
X139500000Y-87500000D01*
X138500000Y-93500000D01*
X138500000Y-98500000D01*
X139500000Y-107000000D01*
X141000000Y-111000000D01*
X142500000Y-113000000D01*
X143500000Y-113000000D01*
X143500000Y-113500000D01*
X143000000Y-114500000D01*
X142500000Y-115000000D01*
X136000000Y-115000000D01*
X135500000Y-114500000D01*
X135000000Y-113500000D01*
X134000000Y-111000000D01*
X133000000Y-105500000D01*
X132500000Y-99000000D01*
X132500000Y-93000000D01*
X133000000Y-88000000D01*
X134000000Y-83000000D01*
X135000000Y-79000000D01*
X135500000Y-77500000D01*
X137000000Y-77000000D01*
X142000000Y-77000000D01*
X143500000Y-77500000D01*
G37*
X125000000Y-96000000D02*
X138740858Y-96000000D01*
X172000000Y-105500000D02*
X152879372Y-105497850D01*
D11*
X158300538Y-96000000D02*
G75*
G02*
X139699462Y-96000000I-9300538J0D01*
G01*
X139699462Y-96000000D02*
G75*
G02*
X158300538Y-96000000I9300538J0D01*
G01*
D10*
X173500000Y-96000000D02*
X159259142Y-96000000D01*
X145119893Y-105500655D02*
X127000000Y-105500000D01*
X159259142Y-96000000D02*
G75*
G02*
X138740858Y-96000000I-10259142J0D01*
G01*
X138740858Y-96000000D02*
G75*
G02*
X159259142Y-96000000I10259142J0D01*
G01*
D12*
X128976190Y-84759580D02*
X128928571Y-84807200D01*
X128928571Y-84807200D02*
X128785714Y-84854819D01*
X128785714Y-84854819D02*
X128690476Y-84854819D01*
X128690476Y-84854819D02*
X128547619Y-84807200D01*
X128547619Y-84807200D02*
X128452381Y-84711961D01*
X128452381Y-84711961D02*
X128404762Y-84616723D01*
X128404762Y-84616723D02*
X128357143Y-84426247D01*
X128357143Y-84426247D02*
X128357143Y-84283390D01*
X128357143Y-84283390D02*
X128404762Y-84092914D01*
X128404762Y-84092914D02*
X128452381Y-83997676D01*
X128452381Y-83997676D02*
X128547619Y-83902438D01*
X128547619Y-83902438D02*
X128690476Y-83854819D01*
X128690476Y-83854819D02*
X128785714Y-83854819D01*
X128785714Y-83854819D02*
X128928571Y-83902438D01*
X128928571Y-83902438D02*
X128976190Y-83950057D01*
X129547619Y-84854819D02*
X129452381Y-84807200D01*
X129452381Y-84807200D02*
X129404762Y-84759580D01*
X129404762Y-84759580D02*
X129357143Y-84664342D01*
X129357143Y-84664342D02*
X129357143Y-84378628D01*
X129357143Y-84378628D02*
X129404762Y-84283390D01*
X129404762Y-84283390D02*
X129452381Y-84235771D01*
X129452381Y-84235771D02*
X129547619Y-84188152D01*
X129547619Y-84188152D02*
X129690476Y-84188152D01*
X129690476Y-84188152D02*
X129785714Y-84235771D01*
X129785714Y-84235771D02*
X129833333Y-84283390D01*
X129833333Y-84283390D02*
X129880952Y-84378628D01*
X129880952Y-84378628D02*
X129880952Y-84664342D01*
X129880952Y-84664342D02*
X129833333Y-84759580D01*
X129833333Y-84759580D02*
X129785714Y-84807200D01*
X129785714Y-84807200D02*
X129690476Y-84854819D01*
X129690476Y-84854819D02*
X129547619Y-84854819D01*
X130309524Y-84188152D02*
X130309524Y-84854819D01*
X130309524Y-84283390D02*
X130357143Y-84235771D01*
X130357143Y-84235771D02*
X130452381Y-84188152D01*
X130452381Y-84188152D02*
X130595238Y-84188152D01*
X130595238Y-84188152D02*
X130690476Y-84235771D01*
X130690476Y-84235771D02*
X130738095Y-84331009D01*
X130738095Y-84331009D02*
X130738095Y-84854819D01*
X131214286Y-84188152D02*
X131214286Y-84854819D01*
X131214286Y-84283390D02*
X131261905Y-84235771D01*
X131261905Y-84235771D02*
X131357143Y-84188152D01*
X131357143Y-84188152D02*
X131500000Y-84188152D01*
X131500000Y-84188152D02*
X131595238Y-84235771D01*
X131595238Y-84235771D02*
X131642857Y-84331009D01*
X131642857Y-84331009D02*
X131642857Y-84854819D01*
X132642857Y-84854819D02*
X132071429Y-84854819D01*
X132357143Y-84854819D02*
X132357143Y-83854819D01*
X132357143Y-83854819D02*
X132261905Y-83997676D01*
X132261905Y-83997676D02*
X132166667Y-84092914D01*
X132166667Y-84092914D02*
X132071429Y-84140533D01*
X166876190Y-84859580D02*
X166828571Y-84907200D01*
X166828571Y-84907200D02*
X166685714Y-84954819D01*
X166685714Y-84954819D02*
X166590476Y-84954819D01*
X166590476Y-84954819D02*
X166447619Y-84907200D01*
X166447619Y-84907200D02*
X166352381Y-84811961D01*
X166352381Y-84811961D02*
X166304762Y-84716723D01*
X166304762Y-84716723D02*
X166257143Y-84526247D01*
X166257143Y-84526247D02*
X166257143Y-84383390D01*
X166257143Y-84383390D02*
X166304762Y-84192914D01*
X166304762Y-84192914D02*
X166352381Y-84097676D01*
X166352381Y-84097676D02*
X166447619Y-84002438D01*
X166447619Y-84002438D02*
X166590476Y-83954819D01*
X166590476Y-83954819D02*
X166685714Y-83954819D01*
X166685714Y-83954819D02*
X166828571Y-84002438D01*
X166828571Y-84002438D02*
X166876190Y-84050057D01*
X167447619Y-84954819D02*
X167352381Y-84907200D01*
X167352381Y-84907200D02*
X167304762Y-84859580D01*
X167304762Y-84859580D02*
X167257143Y-84764342D01*
X167257143Y-84764342D02*
X167257143Y-84478628D01*
X167257143Y-84478628D02*
X167304762Y-84383390D01*
X167304762Y-84383390D02*
X167352381Y-84335771D01*
X167352381Y-84335771D02*
X167447619Y-84288152D01*
X167447619Y-84288152D02*
X167590476Y-84288152D01*
X167590476Y-84288152D02*
X167685714Y-84335771D01*
X167685714Y-84335771D02*
X167733333Y-84383390D01*
X167733333Y-84383390D02*
X167780952Y-84478628D01*
X167780952Y-84478628D02*
X167780952Y-84764342D01*
X167780952Y-84764342D02*
X167733333Y-84859580D01*
X167733333Y-84859580D02*
X167685714Y-84907200D01*
X167685714Y-84907200D02*
X167590476Y-84954819D01*
X167590476Y-84954819D02*
X167447619Y-84954819D01*
X168209524Y-84288152D02*
X168209524Y-84954819D01*
X168209524Y-84383390D02*
X168257143Y-84335771D01*
X168257143Y-84335771D02*
X168352381Y-84288152D01*
X168352381Y-84288152D02*
X168495238Y-84288152D01*
X168495238Y-84288152D02*
X168590476Y-84335771D01*
X168590476Y-84335771D02*
X168638095Y-84431009D01*
X168638095Y-84431009D02*
X168638095Y-84954819D01*
X169114286Y-84288152D02*
X169114286Y-84954819D01*
X169114286Y-84383390D02*
X169161905Y-84335771D01*
X169161905Y-84335771D02*
X169257143Y-84288152D01*
X169257143Y-84288152D02*
X169400000Y-84288152D01*
X169400000Y-84288152D02*
X169495238Y-84335771D01*
X169495238Y-84335771D02*
X169542857Y-84431009D01*
X169542857Y-84431009D02*
X169542857Y-84954819D01*
X169971429Y-84050057D02*
X170019048Y-84002438D01*
X170019048Y-84002438D02*
X170114286Y-83954819D01*
X170114286Y-83954819D02*
X170352381Y-83954819D01*
X170352381Y-83954819D02*
X170447619Y-84002438D01*
X170447619Y-84002438D02*
X170495238Y-84050057D01*
X170495238Y-84050057D02*
X170542857Y-84145295D01*
X170542857Y-84145295D02*
X170542857Y-84240533D01*
X170542857Y-84240533D02*
X170495238Y-84383390D01*
X170495238Y-84383390D02*
X169923810Y-84954819D01*
X169923810Y-84954819D02*
X170542857Y-84954819D01*
X161126618Y-102427072D02*
X160599779Y-102672652D01*
X161027390Y-102989819D02*
X160042582Y-102816171D01*
X160042582Y-102816171D02*
X160108734Y-102441006D01*
X160108734Y-102441006D02*
X160172167Y-102355484D01*
X160172167Y-102355484D02*
X160227332Y-102316858D01*
X160227332Y-102316858D02*
X160329392Y-102286500D01*
X160329392Y-102286500D02*
X160470079Y-102311307D01*
X160470079Y-102311307D02*
X160555601Y-102374740D01*
X160555601Y-102374740D02*
X160594228Y-102429905D01*
X160594228Y-102429905D02*
X160624586Y-102531965D01*
X160624586Y-102531965D02*
X160558434Y-102907130D01*
X160618920Y-101467186D02*
X161275459Y-101582951D01*
X160202411Y-101635512D02*
X160864500Y-101994025D01*
X160864500Y-101994025D02*
X160971996Y-101384382D01*
X133719311Y-102532231D02*
X134164638Y-102158663D01*
X133669508Y-101962977D02*
X134665703Y-101875821D01*
X134665703Y-101875821D02*
X134698905Y-102255324D01*
X134698905Y-102255324D02*
X134659768Y-102354349D01*
X134659768Y-102354349D02*
X134616480Y-102405938D01*
X134616480Y-102405938D02*
X134525755Y-102461676D01*
X134525755Y-102461676D02*
X134383441Y-102474127D01*
X134383441Y-102474127D02*
X134284415Y-102434989D01*
X134284415Y-102434989D02*
X134232827Y-102391702D01*
X134232827Y-102391702D02*
X134177089Y-102300977D01*
X134177089Y-102300977D02*
X134143886Y-101921474D01*
X134653832Y-102832878D02*
X134705421Y-102876166D01*
X134705421Y-102876166D02*
X134761159Y-102966891D01*
X134761159Y-102966891D02*
X134781910Y-103204080D01*
X134781910Y-103204080D02*
X134742773Y-103303106D01*
X134742773Y-103303106D02*
X134699485Y-103354694D01*
X134699485Y-103354694D02*
X134608760Y-103410433D01*
X134608760Y-103410433D02*
X134513884Y-103418733D01*
X134513884Y-103418733D02*
X134367421Y-103383746D01*
X134367421Y-103383746D02*
X133748363Y-102864296D01*
X133748363Y-102864296D02*
X133802317Y-103480987D01*
X153809524Y-108954819D02*
X154428571Y-108954819D01*
X154428571Y-108954819D02*
X154095238Y-109335771D01*
X154095238Y-109335771D02*
X154238095Y-109335771D01*
X154238095Y-109335771D02*
X154333333Y-109383390D01*
X154333333Y-109383390D02*
X154380952Y-109431009D01*
X154380952Y-109431009D02*
X154428571Y-109526247D01*
X154428571Y-109526247D02*
X154428571Y-109764342D01*
X154428571Y-109764342D02*
X154380952Y-109859580D01*
X154380952Y-109859580D02*
X154333333Y-109907200D01*
X154333333Y-109907200D02*
X154238095Y-109954819D01*
X154238095Y-109954819D02*
X153952381Y-109954819D01*
X153952381Y-109954819D02*
X153857143Y-109907200D01*
X153857143Y-109907200D02*
X153809524Y-109859580D01*
X154761905Y-109288152D02*
X155000000Y-109954819D01*
X155000000Y-109954819D02*
X155238095Y-109288152D01*
X155523810Y-108954819D02*
X156142857Y-108954819D01*
X156142857Y-108954819D02*
X155809524Y-109335771D01*
X155809524Y-109335771D02*
X155952381Y-109335771D01*
X155952381Y-109335771D02*
X156047619Y-109383390D01*
X156047619Y-109383390D02*
X156095238Y-109431009D01*
X156095238Y-109431009D02*
X156142857Y-109526247D01*
X156142857Y-109526247D02*
X156142857Y-109764342D01*
X156142857Y-109764342D02*
X156095238Y-109859580D01*
X156095238Y-109859580D02*
X156047619Y-109907200D01*
X156047619Y-109907200D02*
X155952381Y-109954819D01*
X155952381Y-109954819D02*
X155666667Y-109954819D01*
X155666667Y-109954819D02*
X155571429Y-109907200D01*
X155571429Y-109907200D02*
X155523810Y-109859580D01*
X141709524Y-82354819D02*
X142328571Y-82354819D01*
X142328571Y-82354819D02*
X141995238Y-82735771D01*
X141995238Y-82735771D02*
X142138095Y-82735771D01*
X142138095Y-82735771D02*
X142233333Y-82783390D01*
X142233333Y-82783390D02*
X142280952Y-82831009D01*
X142280952Y-82831009D02*
X142328571Y-82926247D01*
X142328571Y-82926247D02*
X142328571Y-83164342D01*
X142328571Y-83164342D02*
X142280952Y-83259580D01*
X142280952Y-83259580D02*
X142233333Y-83307200D01*
X142233333Y-83307200D02*
X142138095Y-83354819D01*
X142138095Y-83354819D02*
X141852381Y-83354819D01*
X141852381Y-83354819D02*
X141757143Y-83307200D01*
X141757143Y-83307200D02*
X141709524Y-83259580D01*
X142661905Y-82688152D02*
X142900000Y-83354819D01*
X142900000Y-83354819D02*
X143138095Y-82688152D01*
X143423810Y-82354819D02*
X144042857Y-82354819D01*
X144042857Y-82354819D02*
X143709524Y-82735771D01*
X143709524Y-82735771D02*
X143852381Y-82735771D01*
X143852381Y-82735771D02*
X143947619Y-82783390D01*
X143947619Y-82783390D02*
X143995238Y-82831009D01*
X143995238Y-82831009D02*
X144042857Y-82926247D01*
X144042857Y-82926247D02*
X144042857Y-83164342D01*
X144042857Y-83164342D02*
X143995238Y-83259580D01*
X143995238Y-83259580D02*
X143947619Y-83307200D01*
X143947619Y-83307200D02*
X143852381Y-83354819D01*
X143852381Y-83354819D02*
X143566667Y-83354819D01*
X143566667Y-83354819D02*
X143471429Y-83307200D01*
X143471429Y-83307200D02*
X143423810Y-83259580D01*
X166476190Y-111759580D02*
X166428571Y-111807200D01*
X166428571Y-111807200D02*
X166285714Y-111854819D01*
X166285714Y-111854819D02*
X166190476Y-111854819D01*
X166190476Y-111854819D02*
X166047619Y-111807200D01*
X166047619Y-111807200D02*
X165952381Y-111711961D01*
X165952381Y-111711961D02*
X165904762Y-111616723D01*
X165904762Y-111616723D02*
X165857143Y-111426247D01*
X165857143Y-111426247D02*
X165857143Y-111283390D01*
X165857143Y-111283390D02*
X165904762Y-111092914D01*
X165904762Y-111092914D02*
X165952381Y-110997676D01*
X165952381Y-110997676D02*
X166047619Y-110902438D01*
X166047619Y-110902438D02*
X166190476Y-110854819D01*
X166190476Y-110854819D02*
X166285714Y-110854819D01*
X166285714Y-110854819D02*
X166428571Y-110902438D01*
X166428571Y-110902438D02*
X166476190Y-110950057D01*
X167047619Y-111854819D02*
X166952381Y-111807200D01*
X166952381Y-111807200D02*
X166904762Y-111759580D01*
X166904762Y-111759580D02*
X166857143Y-111664342D01*
X166857143Y-111664342D02*
X166857143Y-111378628D01*
X166857143Y-111378628D02*
X166904762Y-111283390D01*
X166904762Y-111283390D02*
X166952381Y-111235771D01*
X166952381Y-111235771D02*
X167047619Y-111188152D01*
X167047619Y-111188152D02*
X167190476Y-111188152D01*
X167190476Y-111188152D02*
X167285714Y-111235771D01*
X167285714Y-111235771D02*
X167333333Y-111283390D01*
X167333333Y-111283390D02*
X167380952Y-111378628D01*
X167380952Y-111378628D02*
X167380952Y-111664342D01*
X167380952Y-111664342D02*
X167333333Y-111759580D01*
X167333333Y-111759580D02*
X167285714Y-111807200D01*
X167285714Y-111807200D02*
X167190476Y-111854819D01*
X167190476Y-111854819D02*
X167047619Y-111854819D01*
X167809524Y-111188152D02*
X167809524Y-111854819D01*
X167809524Y-111283390D02*
X167857143Y-111235771D01*
X167857143Y-111235771D02*
X167952381Y-111188152D01*
X167952381Y-111188152D02*
X168095238Y-111188152D01*
X168095238Y-111188152D02*
X168190476Y-111235771D01*
X168190476Y-111235771D02*
X168238095Y-111331009D01*
X168238095Y-111331009D02*
X168238095Y-111854819D01*
X168714286Y-111188152D02*
X168714286Y-111854819D01*
X168714286Y-111283390D02*
X168761905Y-111235771D01*
X168761905Y-111235771D02*
X168857143Y-111188152D01*
X168857143Y-111188152D02*
X169000000Y-111188152D01*
X169000000Y-111188152D02*
X169095238Y-111235771D01*
X169095238Y-111235771D02*
X169142857Y-111331009D01*
X169142857Y-111331009D02*
X169142857Y-111854819D01*
X170047619Y-111188152D02*
X170047619Y-111854819D01*
X169809524Y-110807200D02*
X169571429Y-111521485D01*
X169571429Y-111521485D02*
X170190476Y-111521485D01*
X163315499Y-87598804D02*
X163726572Y-87187845D01*
X163216271Y-87036057D02*
X164201079Y-86862408D01*
X164201079Y-86862408D02*
X164267231Y-87237573D01*
X164267231Y-87237573D02*
X164236873Y-87339633D01*
X164236873Y-87339633D02*
X164198246Y-87394798D01*
X164198246Y-87394798D02*
X164112724Y-87458232D01*
X164112724Y-87458232D02*
X163972037Y-87483038D01*
X163972037Y-87483038D02*
X163869977Y-87452681D01*
X163869977Y-87452681D02*
X163814813Y-87414054D01*
X163814813Y-87414054D02*
X163751379Y-87328532D01*
X163751379Y-87328532D02*
X163685227Y-86953367D01*
X164358189Y-87753425D02*
X164465686Y-88363068D01*
X164465686Y-88363068D02*
X164032638Y-88100950D01*
X164032638Y-88100950D02*
X164057445Y-88241637D01*
X164057445Y-88241637D02*
X164027087Y-88343697D01*
X164027087Y-88343697D02*
X163988461Y-88398862D01*
X163988461Y-88398862D02*
X163902939Y-88462295D01*
X163902939Y-88462295D02*
X163668461Y-88503640D01*
X163668461Y-88503640D02*
X163566400Y-88473282D01*
X163566400Y-88473282D02*
X163511236Y-88434656D01*
X163511236Y-88434656D02*
X163447802Y-88349134D01*
X163447802Y-88349134D02*
X163398189Y-88067760D01*
X163398189Y-88067760D02*
X163428546Y-87965700D01*
X163428546Y-87965700D02*
X163467173Y-87910535D01*
X153209524Y-82454819D02*
X153828571Y-82454819D01*
X153828571Y-82454819D02*
X153495238Y-82835771D01*
X153495238Y-82835771D02*
X153638095Y-82835771D01*
X153638095Y-82835771D02*
X153733333Y-82883390D01*
X153733333Y-82883390D02*
X153780952Y-82931009D01*
X153780952Y-82931009D02*
X153828571Y-83026247D01*
X153828571Y-83026247D02*
X153828571Y-83264342D01*
X153828571Y-83264342D02*
X153780952Y-83359580D01*
X153780952Y-83359580D02*
X153733333Y-83407200D01*
X153733333Y-83407200D02*
X153638095Y-83454819D01*
X153638095Y-83454819D02*
X153352381Y-83454819D01*
X153352381Y-83454819D02*
X153257143Y-83407200D01*
X153257143Y-83407200D02*
X153209524Y-83359580D01*
X154161905Y-82788152D02*
X154400000Y-83454819D01*
X154400000Y-83454819D02*
X154638095Y-82788152D01*
X154923810Y-82454819D02*
X155542857Y-82454819D01*
X155542857Y-82454819D02*
X155209524Y-82835771D01*
X155209524Y-82835771D02*
X155352381Y-82835771D01*
X155352381Y-82835771D02*
X155447619Y-82883390D01*
X155447619Y-82883390D02*
X155495238Y-82931009D01*
X155495238Y-82931009D02*
X155542857Y-83026247D01*
X155542857Y-83026247D02*
X155542857Y-83264342D01*
X155542857Y-83264342D02*
X155495238Y-83359580D01*
X155495238Y-83359580D02*
X155447619Y-83407200D01*
X155447619Y-83407200D02*
X155352381Y-83454819D01*
X155352381Y-83454819D02*
X155066667Y-83454819D01*
X155066667Y-83454819D02*
X154971429Y-83407200D01*
X154971429Y-83407200D02*
X154923810Y-83359580D01*
X142309524Y-108954819D02*
X142928571Y-108954819D01*
X142928571Y-108954819D02*
X142595238Y-109335771D01*
X142595238Y-109335771D02*
X142738095Y-109335771D01*
X142738095Y-109335771D02*
X142833333Y-109383390D01*
X142833333Y-109383390D02*
X142880952Y-109431009D01*
X142880952Y-109431009D02*
X142928571Y-109526247D01*
X142928571Y-109526247D02*
X142928571Y-109764342D01*
X142928571Y-109764342D02*
X142880952Y-109859580D01*
X142880952Y-109859580D02*
X142833333Y-109907200D01*
X142833333Y-109907200D02*
X142738095Y-109954819D01*
X142738095Y-109954819D02*
X142452381Y-109954819D01*
X142452381Y-109954819D02*
X142357143Y-109907200D01*
X142357143Y-109907200D02*
X142309524Y-109859580D01*
X143261905Y-109288152D02*
X143500000Y-109954819D01*
X143500000Y-109954819D02*
X143738095Y-109288152D01*
X144023810Y-108954819D02*
X144642857Y-108954819D01*
X144642857Y-108954819D02*
X144309524Y-109335771D01*
X144309524Y-109335771D02*
X144452381Y-109335771D01*
X144452381Y-109335771D02*
X144547619Y-109383390D01*
X144547619Y-109383390D02*
X144595238Y-109431009D01*
X144595238Y-109431009D02*
X144642857Y-109526247D01*
X144642857Y-109526247D02*
X144642857Y-109764342D01*
X144642857Y-109764342D02*
X144595238Y-109859580D01*
X144595238Y-109859580D02*
X144547619Y-109907200D01*
X144547619Y-109907200D02*
X144452381Y-109954819D01*
X144452381Y-109954819D02*
X144166667Y-109954819D01*
X144166667Y-109954819D02*
X144071429Y-109907200D01*
X144071429Y-109907200D02*
X144023810Y-109859580D01*
D10*
X173866115Y-89858533D02*
X173104211Y-89858533D01*
X167106115Y-92238533D02*
X166344211Y-92238533D01*
X166725163Y-91857580D02*
X166725163Y-92619485D01*
X167106115Y-102238533D02*
X166344211Y-102238533D01*
X166725163Y-101857580D02*
X166725163Y-102619485D01*
X173866115Y-99858533D02*
X173104211Y-99858533D01*
D12*
X138711318Y-89059152D02*
X138184479Y-89304732D01*
X138612090Y-89621899D02*
X137627282Y-89448251D01*
X137627282Y-89448251D02*
X137693434Y-89073086D01*
X137693434Y-89073086D02*
X137756867Y-88987564D01*
X137756867Y-88987564D02*
X137812032Y-88948938D01*
X137812032Y-88948938D02*
X137914092Y-88918580D01*
X137914092Y-88918580D02*
X138054779Y-88943387D01*
X138054779Y-88943387D02*
X138140301Y-89006820D01*
X138140301Y-89006820D02*
X138178928Y-89061985D01*
X138178928Y-89061985D02*
X138209286Y-89164045D01*
X138209286Y-89164045D02*
X138143134Y-89539210D01*
X138876697Y-88121240D02*
X138777469Y-88683987D01*
X138827083Y-88402614D02*
X137842275Y-88228965D01*
X137842275Y-88228965D02*
X137966424Y-88347564D01*
X137966424Y-88347564D02*
X138043677Y-88457893D01*
X138043677Y-88457893D02*
X138074035Y-88559953D01*
X128976190Y-111759580D02*
X128928571Y-111807200D01*
X128928571Y-111807200D02*
X128785714Y-111854819D01*
X128785714Y-111854819D02*
X128690476Y-111854819D01*
X128690476Y-111854819D02*
X128547619Y-111807200D01*
X128547619Y-111807200D02*
X128452381Y-111711961D01*
X128452381Y-111711961D02*
X128404762Y-111616723D01*
X128404762Y-111616723D02*
X128357143Y-111426247D01*
X128357143Y-111426247D02*
X128357143Y-111283390D01*
X128357143Y-111283390D02*
X128404762Y-111092914D01*
X128404762Y-111092914D02*
X128452381Y-110997676D01*
X128452381Y-110997676D02*
X128547619Y-110902438D01*
X128547619Y-110902438D02*
X128690476Y-110854819D01*
X128690476Y-110854819D02*
X128785714Y-110854819D01*
X128785714Y-110854819D02*
X128928571Y-110902438D01*
X128928571Y-110902438D02*
X128976190Y-110950057D01*
X129547619Y-111854819D02*
X129452381Y-111807200D01*
X129452381Y-111807200D02*
X129404762Y-111759580D01*
X129404762Y-111759580D02*
X129357143Y-111664342D01*
X129357143Y-111664342D02*
X129357143Y-111378628D01*
X129357143Y-111378628D02*
X129404762Y-111283390D01*
X129404762Y-111283390D02*
X129452381Y-111235771D01*
X129452381Y-111235771D02*
X129547619Y-111188152D01*
X129547619Y-111188152D02*
X129690476Y-111188152D01*
X129690476Y-111188152D02*
X129785714Y-111235771D01*
X129785714Y-111235771D02*
X129833333Y-111283390D01*
X129833333Y-111283390D02*
X129880952Y-111378628D01*
X129880952Y-111378628D02*
X129880952Y-111664342D01*
X129880952Y-111664342D02*
X129833333Y-111759580D01*
X129833333Y-111759580D02*
X129785714Y-111807200D01*
X129785714Y-111807200D02*
X129690476Y-111854819D01*
X129690476Y-111854819D02*
X129547619Y-111854819D01*
X130309524Y-111188152D02*
X130309524Y-111854819D01*
X130309524Y-111283390D02*
X130357143Y-111235771D01*
X130357143Y-111235771D02*
X130452381Y-111188152D01*
X130452381Y-111188152D02*
X130595238Y-111188152D01*
X130595238Y-111188152D02*
X130690476Y-111235771D01*
X130690476Y-111235771D02*
X130738095Y-111331009D01*
X130738095Y-111331009D02*
X130738095Y-111854819D01*
X131214286Y-111188152D02*
X131214286Y-111854819D01*
X131214286Y-111283390D02*
X131261905Y-111235771D01*
X131261905Y-111235771D02*
X131357143Y-111188152D01*
X131357143Y-111188152D02*
X131500000Y-111188152D01*
X131500000Y-111188152D02*
X131595238Y-111235771D01*
X131595238Y-111235771D02*
X131642857Y-111331009D01*
X131642857Y-111331009D02*
X131642857Y-111854819D01*
X132023810Y-110854819D02*
X132642857Y-110854819D01*
X132642857Y-110854819D02*
X132309524Y-111235771D01*
X132309524Y-111235771D02*
X132452381Y-111235771D01*
X132452381Y-111235771D02*
X132547619Y-111283390D01*
X132547619Y-111283390D02*
X132595238Y-111331009D01*
X132595238Y-111331009D02*
X132642857Y-111426247D01*
X132642857Y-111426247D02*
X132642857Y-111664342D01*
X132642857Y-111664342D02*
X132595238Y-111759580D01*
X132595238Y-111759580D02*
X132547619Y-111807200D01*
X132547619Y-111807200D02*
X132452381Y-111854819D01*
X132452381Y-111854819D02*
X132166667Y-111854819D01*
X132166667Y-111854819D02*
X132071429Y-111807200D01*
X132071429Y-111807200D02*
X132023810Y-111759580D01*
D10*
X124133884Y-92141466D02*
X124895789Y-92141466D01*
X130893884Y-89761466D02*
X131655789Y-89761466D01*
X131274836Y-90142419D02*
X131274836Y-89380514D01*
X130893884Y-99761466D02*
X131655789Y-99761466D01*
X131274836Y-100142419D02*
X131274836Y-99380514D01*
X124133884Y-102141466D02*
X124895789Y-102141466D01*
D13*
%TO.C,J3*%
X129170000Y-81925000D02*
X129170000Y-81805000D01*
X129170000Y-83260000D02*
X129170000Y-82500000D01*
X129740000Y-81805000D02*
X129170000Y-81805000D01*
X130500000Y-83260000D02*
X129170000Y-83260000D01*
X131830000Y-81805000D02*
X131260000Y-81805000D01*
X131830000Y-81925000D02*
X131830000Y-81805000D01*
%TO.C,J7*%
X167170000Y-83075000D02*
X167170000Y-83195000D01*
X167170000Y-83195000D02*
X167740000Y-83195000D01*
X168500000Y-81740000D02*
X169830000Y-81740000D01*
X169260000Y-83195000D02*
X169830000Y-83195000D01*
X169830000Y-81740000D02*
X169830000Y-82500000D01*
X169830000Y-83075000D02*
X169830000Y-83195000D01*
%TO.C,R4*%
X161477572Y-103057998D02*
X161730078Y-101625962D01*
X163269922Y-103374038D02*
X163522428Y-101942002D01*
%TO.C,R2*%
X135156831Y-103303609D02*
X135030095Y-101855014D01*
X136969905Y-103144986D02*
X136843169Y-101696391D01*
%TO.C,J8*%
X153670000Y-106925000D02*
X153670000Y-106805000D01*
X153670000Y-108260000D02*
X153670000Y-107500000D01*
X154240000Y-106805000D02*
X153670000Y-106805000D01*
X155000000Y-108260000D02*
X153670000Y-108260000D01*
X156330000Y-106805000D02*
X155760000Y-106805000D01*
X156330000Y-106925000D02*
X156330000Y-106805000D01*
%TO.C,J2*%
X141670000Y-85575000D02*
X141670000Y-85695000D01*
X141670000Y-85695000D02*
X142240000Y-85695000D01*
X143000000Y-84240000D02*
X144330000Y-84240000D01*
X143760000Y-85695000D02*
X144330000Y-85695000D01*
X144330000Y-84240000D02*
X144330000Y-85000000D01*
X144330000Y-85575000D02*
X144330000Y-85695000D01*
%TO.C,J9*%
X166670000Y-110075000D02*
X166670000Y-110195000D01*
X166670000Y-110195000D02*
X167240000Y-110195000D01*
X168000000Y-108740000D02*
X169330000Y-108740000D01*
X168760000Y-110195000D02*
X169330000Y-110195000D01*
X169330000Y-108740000D02*
X169330000Y-109500000D01*
X169330000Y-110075000D02*
X169330000Y-110195000D01*
%TO.C,R3*%
X160977572Y-87442002D02*
X161230078Y-88874038D01*
X162769922Y-87125962D02*
X163022428Y-88557998D01*
%TO.C,J4*%
X153170000Y-85575000D02*
X153170000Y-85695000D01*
X153170000Y-85695000D02*
X153740000Y-85695000D01*
X154500000Y-84240000D02*
X155830000Y-84240000D01*
X155260000Y-85695000D02*
X155830000Y-85695000D01*
X155830000Y-84240000D02*
X155830000Y-85000000D01*
X155830000Y-85575000D02*
X155830000Y-85695000D01*
%TO.C,J6*%
X142170000Y-106925000D02*
X142170000Y-106805000D01*
X142170000Y-108260000D02*
X142170000Y-107500000D01*
X142740000Y-106805000D02*
X142170000Y-106805000D01*
X143500000Y-108260000D02*
X142170000Y-108260000D01*
X144830000Y-106805000D02*
X144260000Y-106805000D01*
X144830000Y-106925000D02*
X144830000Y-106805000D01*
%TO.C,D3*%
X168400000Y-92135000D02*
X172460000Y-92135000D01*
X172460000Y-89865000D02*
X168400000Y-89865000D01*
X172460000Y-92135000D02*
X172460000Y-89865000D01*
%TO.C,D4*%
X168400000Y-102135000D02*
X172460000Y-102135000D01*
X172460000Y-99865000D02*
X168400000Y-99865000D01*
X172460000Y-102135000D02*
X172460000Y-99865000D01*
%TO.C,R1*%
X135730078Y-87625962D02*
X135477572Y-89057998D01*
X137522428Y-87942002D02*
X137269922Y-89374038D01*
%TO.C,J5*%
X129170000Y-110075000D02*
X129170000Y-110195000D01*
X129170000Y-110195000D02*
X129740000Y-110195000D01*
X130500000Y-108740000D02*
X131830000Y-108740000D01*
X131260000Y-110195000D02*
X131830000Y-110195000D01*
X131830000Y-108740000D02*
X131830000Y-109500000D01*
X131830000Y-110075000D02*
X131830000Y-110195000D01*
%TO.C,D1*%
X125540000Y-89865000D02*
X125540000Y-92135000D01*
X125540000Y-92135000D02*
X129600000Y-92135000D01*
X129600000Y-89865000D02*
X125540000Y-89865000D01*
%TO.C,D2*%
X125540000Y-99865000D02*
X125540000Y-102135000D01*
X125540000Y-102135000D02*
X129600000Y-102135000D01*
X129600000Y-99865000D02*
X125540000Y-99865000D01*
%TD*%
%LPC*%
D14*
X153267640Y-96000000D02*
G75*
G02*
X144732360Y-96000000I-4267640J0D01*
G01*
X144732360Y-96000000D02*
G75*
G02*
X153267640Y-96000000I4267640J0D01*
G01*
D15*
%TO.C,J3*%
X130500000Y-82500000D03*
%TD*%
%TO.C,J7*%
X168500000Y-82500000D03*
%TD*%
D16*
%TO.C,R4*%
X162213481Y-104124933D03*
X162786519Y-100875067D03*
%TD*%
D17*
%TO.C,R2*%
X136143807Y-104143721D03*
X135856193Y-100856279D03*
%TD*%
D15*
%TO.C,J8*%
X155000000Y-107500000D03*
%TD*%
%TO.C,J2*%
X143000000Y-85000000D03*
%TD*%
%TO.C,J9*%
X168000000Y-109500000D03*
%TD*%
D18*
%TO.C,R3*%
X161713481Y-86375067D03*
X162286519Y-89624933D03*
%TD*%
D15*
%TO.C,J4*%
X154500000Y-85000000D03*
%TD*%
%TO.C,J6*%
X143500000Y-107500000D03*
%TD*%
D19*
%TO.C,D3*%
X171587500Y-91025000D03*
X168412500Y-91025000D03*
%TD*%
%TO.C,D4*%
X171587500Y-101025000D03*
X168412500Y-101025000D03*
%TD*%
D20*
%TO.C,R1*%
X136786519Y-86875067D03*
X136213481Y-90124933D03*
%TD*%
D15*
%TO.C,J5*%
X130500000Y-109500000D03*
%TD*%
D21*
%TO.C,D1*%
X126412500Y-90975000D03*
X129587500Y-90975000D03*
%TD*%
%TO.C,D2*%
X126412500Y-100975000D03*
X129587500Y-100975000D03*
%TD*%
%LPD*%
M02*
