%TF.GenerationSoftware,KiCad,Pcbnew,8.0.8*%
%TF.CreationDate,2025-04-07T01:24:50-03:00*%
%TF.ProjectId,Sao_Bomb,53616f5f-426f-46d6-922e-6b696361645f,rev?*%
%TF.SameCoordinates,Original*%
%TF.FileFunction,Profile,NP*%
%FSLAX46Y46*%
G04 Gerber Fmt 4.6, Leading zero omitted, Abs format (unit mm)*
G04 Created by KiCad (PCBNEW 8.0.8) date 2025-04-07 01:24:50*
%MOMM*%
%LPD*%
G01*
G04 APERTURE LIST*
%TA.AperFunction,Profile*%
%ADD10C,0.050000*%
%TD*%
G04 APERTURE END LIST*
D10*
X143500000Y-77500000D02*
X144000000Y-78000000D01*
X144000000Y-79000000D01*
X155000000Y-79000000D01*
X155500000Y-77500000D01*
X156500000Y-77000000D01*
X162000000Y-77000000D01*
X162500000Y-77500000D01*
X163000000Y-79000000D01*
X171000000Y-79000000D01*
X172000000Y-80000000D01*
X172500000Y-82500000D01*
X172500000Y-85000000D01*
X172000000Y-86000000D01*
X174000000Y-86000000D01*
X175500000Y-87500000D01*
X176000000Y-89500000D01*
X176000000Y-93000000D01*
X175500000Y-94500000D01*
X175000000Y-95500000D01*
X173500000Y-96000000D01*
X175000000Y-97000000D01*
X176000000Y-98500000D01*
X176000000Y-102500000D01*
X175500000Y-104500000D01*
X174500000Y-105500000D01*
X172000000Y-105500000D01*
X172500000Y-108000000D01*
X172500000Y-111000000D01*
X172000000Y-112500000D01*
X171000000Y-113500000D01*
X163000000Y-113500000D01*
X162000000Y-115000000D01*
X156500000Y-115000000D01*
X155500000Y-114500000D01*
X155000000Y-113500000D01*
X143500000Y-113500000D01*
X143000000Y-114500000D01*
X142500000Y-115000000D01*
X136000000Y-115000000D01*
X135500000Y-114500000D01*
X135000000Y-113500000D01*
X128500000Y-113500000D01*
X127000000Y-112500000D01*
X126500000Y-111000000D01*
X126500000Y-107500000D01*
X127000000Y-105500000D01*
X125500000Y-105500000D01*
X123500000Y-104500000D01*
X123000000Y-102500000D01*
X123000000Y-99500000D01*
X123500000Y-97500000D01*
X125000000Y-96000000D01*
X123500000Y-95000000D01*
X123000000Y-93500000D01*
X123000000Y-89000000D01*
X123500000Y-87500000D01*
X124500000Y-86500000D01*
X126000000Y-86000000D01*
X126000000Y-82500000D01*
X127000000Y-80000000D01*
X128500000Y-79000000D01*
X135000000Y-79000000D01*
X135500000Y-77500000D01*
X137000000Y-77000000D01*
X142000000Y-77000000D01*
X143500000Y-77500000D01*
M02*
