%TF.GenerationSoftware,KiCad,Pcbnew,8.0.8*%
%TF.CreationDate,2025-04-07T01:24:50-03:00*%
%TF.ProjectId,Sao_Bomb,53616f5f-426f-46d6-922e-6b696361645f,rev?*%
%TF.SameCoordinates,Original*%
%TF.FileFunction,Copper,L1,Top*%
%TF.FilePolarity,Positive*%
%FSLAX46Y46*%
G04 Gerber Fmt 4.6, Leading zero omitted, Abs format (unit mm)*
G04 Created by KiCad (PCBNEW 8.0.8) date 2025-04-07 01:24:50*
%MOMM*%
%LPD*%
G01*
G04 APERTURE LIST*
G04 Aperture macros list*
%AMRoundRect*
0 Rectangle with rounded corners*
0 $1 Rounding radius*
0 $2 $3 $4 $5 $6 $7 $8 $9 X,Y pos of 4 corners*
0 Add a 4 corners polygon primitive as box body*
4,1,4,$2,$3,$4,$5,$6,$7,$8,$9,$2,$3,0*
0 Add four circle primitives for the rounded corners*
1,1,$1+$1,$2,$3*
1,1,$1+$1,$4,$5*
1,1,$1+$1,$6,$7*
1,1,$1+$1,$8,$9*
0 Add four rect primitives between the rounded corners*
20,1,$1+$1,$2,$3,$4,$5,0*
20,1,$1+$1,$4,$5,$6,$7,0*
20,1,$1+$1,$6,$7,$8,$9,0*
20,1,$1+$1,$8,$9,$2,$3,0*%
G04 Aperture macros list end*
%TA.AperFunction,NonConductor*%
%ADD10C,0.100000*%
%TD*%
%TA.AperFunction,NonConductor*%
%ADD11C,1.168034*%
%TD*%
%TA.AperFunction,ComponentPad*%
%ADD12R,1.000000X1.000000*%
%TD*%
%TA.AperFunction,SMDPad,CuDef*%
%ADD13RoundRect,0.288462X0.719064X-0.595448X0.879354X0.313604X-0.719064X0.595448X-0.879354X-0.313604X0*%
%TD*%
%TA.AperFunction,SMDPad,CuDef*%
%ADD14RoundRect,0.288462X0.848676X-0.389052X0.768224X0.530512X-0.848676X0.389052X-0.768224X-0.530512X0*%
%TD*%
%TA.AperFunction,SMDPad,CuDef*%
%ADD15RoundRect,0.288462X-0.879354X0.313604X-0.719064X-0.595448X0.879354X-0.313604X0.719064X0.595448X0*%
%TD*%
%TA.AperFunction,SMDPad,CuDef*%
%ADD16RoundRect,0.285088X0.527412X0.764912X-0.527412X0.764912X-0.527412X-0.764912X0.527412X-0.764912X0*%
%TD*%
%TA.AperFunction,SMDPad,CuDef*%
%ADD17RoundRect,0.288462X-0.719064X0.595448X-0.879354X-0.313604X0.719064X-0.595448X0.879354X0.313604X0*%
%TD*%
%TA.AperFunction,SMDPad,CuDef*%
%ADD18RoundRect,0.285088X-0.527412X-0.764912X0.527412X-0.764912X0.527412X0.764912X-0.527412X0.764912X0*%
%TD*%
%TA.AperFunction,ViaPad*%
%ADD19C,0.600000*%
%TD*%
%TA.AperFunction,Conductor*%
%ADD20C,0.200000*%
%TD*%
G04 APERTURE END LIST*
D10*
X148739853Y-87990851D02*
X149239853Y-87990851D01*
X149239853Y-94872818D01*
X148739853Y-94872818D01*
X148739853Y-87990851D01*
%TA.AperFunction,NonConductor*%
G36*
X148739853Y-87990851D02*
G01*
X149239853Y-87990851D01*
X149239853Y-94872818D01*
X148739853Y-94872818D01*
X148739853Y-87990851D01*
G37*
%TD.AperFunction*%
D11*
X149584017Y-96000000D02*
G75*
G02*
X148415983Y-96000000I-584017J0D01*
G01*
X148415983Y-96000000D02*
G75*
G02*
X149584017Y-96000000I584017J0D01*
G01*
D10*
X150120307Y-95762801D02*
X154002274Y-95762801D01*
X154002274Y-96262801D01*
X150120307Y-96262801D01*
X150120307Y-95762801D01*
%TA.AperFunction,NonConductor*%
G36*
X150120307Y-95762801D02*
G01*
X154002274Y-95762801D01*
X154002274Y-96262801D01*
X150120307Y-96262801D01*
X150120307Y-95762801D01*
G37*
%TD.AperFunction*%
D12*
%TO.P,J3,1,Pin_1*%
%TO.N,Net-(J3-Pin_1)*%
X130500000Y-82500000D03*
%TD*%
%TO.P,J7,1,Pin_1*%
%TO.N,Net-(J7-Pin_1)*%
X168500000Y-82500000D03*
%TD*%
D13*
%TO.P,R4,1*%
%TO.N,Net-(J9-Pin_1)*%
X162213481Y-104124933D03*
%TO.P,R4,2*%
%TO.N,Net-(D4-A)*%
X162786519Y-100875067D03*
%TD*%
D14*
%TO.P,R2,1*%
%TO.N,Net-(J5-Pin_1)*%
X136143807Y-104143721D03*
%TO.P,R2,2*%
%TO.N,Net-(D2-A)*%
X135856193Y-100856279D03*
%TD*%
D12*
%TO.P,J8,1,Pin_1*%
%TO.N,+3V3*%
X155000000Y-107500000D03*
%TD*%
%TO.P,J2,1,Pin_1*%
%TO.N,+3V3*%
X143000000Y-85000000D03*
%TD*%
%TO.P,J9,1,Pin_1*%
%TO.N,Net-(J9-Pin_1)*%
X168000000Y-109500000D03*
%TD*%
D15*
%TO.P,R3,1*%
%TO.N,Net-(J7-Pin_1)*%
X161713481Y-86375067D03*
%TO.P,R3,2*%
%TO.N,Net-(D3-A)*%
X162286519Y-89624933D03*
%TD*%
D12*
%TO.P,J4,1,Pin_1*%
%TO.N,+3V3*%
X154500000Y-85000000D03*
%TD*%
%TO.P,J6,1,Pin_1*%
%TO.N,+3V3*%
X143500000Y-107500000D03*
%TD*%
D16*
%TO.P,D3,1,K*%
%TO.N,GND*%
X171587500Y-91025000D03*
%TO.P,D3,2,A*%
%TO.N,Net-(D3-A)*%
X168412500Y-91025000D03*
%TD*%
%TO.P,D4,1,K*%
%TO.N,GND*%
X171587500Y-101025000D03*
%TO.P,D4,2,A*%
%TO.N,Net-(D4-A)*%
X168412500Y-101025000D03*
%TD*%
D17*
%TO.P,R1,1*%
%TO.N,Net-(J3-Pin_1)*%
X136786519Y-86875067D03*
%TO.P,R1,2*%
%TO.N,Net-(D1-A)*%
X136213481Y-90124933D03*
%TD*%
D12*
%TO.P,J5,1,Pin_1*%
%TO.N,Net-(J5-Pin_1)*%
X130500000Y-109500000D03*
%TD*%
D18*
%TO.P,D1,1,K*%
%TO.N,GND*%
X126412500Y-90975000D03*
%TO.P,D1,2,A*%
%TO.N,Net-(D1-A)*%
X129587500Y-90975000D03*
%TD*%
%TO.P,D2,1,K*%
%TO.N,GND*%
X126412500Y-100975000D03*
%TO.P,D2,2,A*%
%TO.N,Net-(D2-A)*%
X129587500Y-100975000D03*
%TD*%
D19*
%TO.N,GND*%
X158500000Y-96000000D03*
X139500000Y-96000000D03*
%TD*%
D20*
%TO.N,Net-(D1-A)*%
X135257298Y-91000000D02*
X136230846Y-90026452D01*
X129487500Y-91000000D02*
X135257298Y-91000000D01*
%TO.N,GND*%
X158500000Y-96000000D02*
X171487500Y-96000000D01*
X139500000Y-96000000D02*
X126512500Y-96000000D01*
X171487500Y-96000000D02*
X171487500Y-101000000D01*
X171487500Y-91000000D02*
X171487500Y-96000000D01*
X126512500Y-101000000D02*
X126512500Y-96000000D01*
X126512500Y-96000000D02*
X126512500Y-91000000D01*
%TO.N,Net-(D2-A)*%
X135820808Y-101000000D02*
X135864909Y-100955899D01*
X129487500Y-101000000D02*
X135820808Y-101000000D01*
%TO.N,Net-(D3-A)*%
X167038952Y-89526452D02*
X168512500Y-91000000D01*
X162269154Y-89526452D02*
X167038952Y-89526452D01*
%TO.N,Net-(D4-A)*%
X162795607Y-101000000D02*
X162769155Y-100973548D01*
X168512500Y-101000000D02*
X162795607Y-101000000D01*
%TO.N,Net-(J3-Pin_1)*%
X136769154Y-86973548D02*
X134973548Y-86973548D01*
X134973548Y-86973548D02*
X130500000Y-82500000D01*
%TO.N,Net-(J5-Pin_1)*%
X130679192Y-109500000D02*
X130500000Y-109500000D01*
X136135091Y-104044101D02*
X130679192Y-109500000D01*
%TO.N,Net-(J7-Pin_1)*%
X164526452Y-86473548D02*
X168500000Y-82500000D01*
X161730846Y-86473548D02*
X164526452Y-86473548D01*
%TO.N,Net-(J9-Pin_1)*%
X162230845Y-104026452D02*
X162526452Y-104026452D01*
X162526452Y-104026452D02*
X168000000Y-109500000D01*
%TD*%
M02*
