G04 EAGLE Gerber RS-274X export*
G75*
%MOMM*%
%FSLAX34Y34*%
%LPD*%
%INBottom Copper*%
%IPPOS*%
%AMOC8*
5,1,8,0,0,1.08239X$1,22.5*%
G01*
%ADD10P,1.429621X8X112.500000*%
%ADD11P,1.429621X8X97.500000*%
%ADD12P,1.429621X8X127.500000*%
%ADD13P,1.429621X8X292.500000*%
%ADD14C,1.524000*%
%ADD15P,1.649562X8X202.500000*%
%ADD16C,0.609600*%

G36*
X248252Y8894D02*
X248252Y8894D01*
X248278Y8892D01*
X248426Y8914D01*
X248574Y8931D01*
X248597Y8939D01*
X248622Y8943D01*
X248761Y8998D01*
X248902Y9048D01*
X248923Y9062D01*
X248946Y9071D01*
X249069Y9156D01*
X249194Y9237D01*
X249212Y9255D01*
X249233Y9270D01*
X249333Y9380D01*
X249437Y9488D01*
X249450Y9509D01*
X249467Y9528D01*
X249539Y9659D01*
X249616Y9787D01*
X249623Y9811D01*
X249635Y9833D01*
X249676Y9977D01*
X249722Y10119D01*
X249724Y10144D01*
X249731Y10168D01*
X249751Y10412D01*
X249934Y149958D01*
X249930Y149989D01*
X249933Y150021D01*
X249903Y150264D01*
X249736Y151082D01*
X249909Y151971D01*
X249911Y151994D01*
X249917Y152016D01*
X249937Y152259D01*
X249938Y153164D01*
X250259Y153936D01*
X250267Y153966D01*
X250282Y153995D01*
X250347Y154230D01*
X250507Y155050D01*
X251006Y155805D01*
X251016Y155826D01*
X251030Y155843D01*
X251100Y155979D01*
X251124Y156019D01*
X251130Y156036D01*
X251142Y156061D01*
X251490Y156897D01*
X252081Y157487D01*
X252101Y157512D01*
X252125Y157532D01*
X252276Y157725D01*
X327536Y271491D01*
X327538Y271495D01*
X327541Y271498D01*
X327658Y271713D01*
X328081Y272667D01*
X328586Y273148D01*
X328618Y273186D01*
X328656Y273218D01*
X328807Y273411D01*
X329191Y273992D01*
X330056Y274575D01*
X330059Y274578D01*
X330064Y274581D01*
X330254Y274734D01*
X331010Y275454D01*
X331660Y275704D01*
X331704Y275727D01*
X331751Y275743D01*
X331964Y275863D01*
X332541Y276253D01*
X333564Y276461D01*
X333568Y276463D01*
X333573Y276463D01*
X333808Y276532D01*
X334781Y276908D01*
X335478Y276890D01*
X335527Y276895D01*
X335577Y276891D01*
X335820Y276921D01*
X336502Y277060D01*
X337527Y276861D01*
X337531Y276860D01*
X337536Y276859D01*
X337779Y276833D01*
X338822Y276808D01*
X339459Y276525D01*
X339507Y276510D01*
X339551Y276488D01*
X339786Y276422D01*
X340470Y276289D01*
X341341Y275714D01*
X341345Y275712D01*
X341348Y275708D01*
X341563Y275592D01*
X367130Y264252D01*
X367154Y264244D01*
X367176Y264232D01*
X367320Y264192D01*
X367463Y264148D01*
X367488Y264146D01*
X367512Y264139D01*
X367661Y264133D01*
X367810Y264122D01*
X367835Y264126D01*
X367860Y264125D01*
X368007Y264153D01*
X368155Y264176D01*
X368178Y264185D01*
X368202Y264190D01*
X368429Y264282D01*
X424227Y292180D01*
X424309Y292234D01*
X424396Y292279D01*
X424455Y292329D01*
X424519Y292371D01*
X424587Y292442D01*
X424661Y292506D01*
X424726Y292587D01*
X424759Y292623D01*
X424777Y292652D01*
X424813Y292698D01*
X446529Y325273D01*
X446598Y325406D01*
X446671Y325538D01*
X446677Y325561D01*
X446688Y325583D01*
X446725Y325729D01*
X446766Y325874D01*
X446768Y325903D01*
X446773Y325921D01*
X446773Y325968D01*
X446785Y326118D01*
X446785Y377267D01*
X446767Y377429D01*
X446750Y377591D01*
X446747Y377602D01*
X446745Y377613D01*
X446690Y377766D01*
X446638Y377921D01*
X446632Y377930D01*
X446628Y377941D01*
X446540Y378078D01*
X446453Y378216D01*
X446445Y378224D01*
X446439Y378234D01*
X446322Y378347D01*
X446206Y378462D01*
X446196Y378468D01*
X446188Y378476D01*
X446048Y378560D01*
X445910Y378646D01*
X445897Y378650D01*
X445889Y378655D01*
X445858Y378665D01*
X445680Y378731D01*
X424500Y384783D01*
X424364Y384805D01*
X424230Y384834D01*
X424193Y384834D01*
X424156Y384840D01*
X424019Y384831D01*
X423882Y384828D01*
X423846Y384819D01*
X423809Y384817D01*
X423677Y384777D01*
X423544Y384743D01*
X423510Y384726D01*
X423475Y384716D01*
X423356Y384647D01*
X423234Y384584D01*
X423205Y384560D01*
X423173Y384541D01*
X423073Y384447D01*
X422968Y384358D01*
X422946Y384328D01*
X422919Y384303D01*
X422843Y384188D01*
X422761Y384078D01*
X422746Y384044D01*
X422726Y384013D01*
X422678Y383884D01*
X422623Y383758D01*
X422617Y383721D01*
X422604Y383686D01*
X422586Y383550D01*
X422561Y383415D01*
X422563Y383378D01*
X422559Y383341D01*
X422572Y383204D01*
X422579Y383066D01*
X422590Y383031D01*
X422593Y382994D01*
X422638Y382864D01*
X422676Y382732D01*
X422694Y382699D01*
X422706Y382664D01*
X422779Y382547D01*
X422846Y382427D01*
X422876Y382393D01*
X422891Y382369D01*
X422926Y382333D01*
X423005Y382241D01*
X427229Y378017D01*
X427229Y371283D01*
X422467Y366521D01*
X415733Y366521D01*
X412623Y369631D01*
X412524Y369710D01*
X412430Y369794D01*
X412388Y369818D01*
X412350Y369848D01*
X412236Y369902D01*
X412125Y369963D01*
X412079Y369976D01*
X412035Y369997D01*
X411912Y370023D01*
X411790Y370058D01*
X411729Y370063D01*
X411694Y370070D01*
X411646Y370069D01*
X411546Y370077D01*
X373004Y370077D01*
X372878Y370063D01*
X372752Y370056D01*
X372706Y370043D01*
X372658Y370037D01*
X372539Y369995D01*
X372417Y369960D01*
X372375Y369936D01*
X372330Y369920D01*
X372223Y369851D01*
X372113Y369790D01*
X372067Y369750D01*
X372037Y369731D01*
X372003Y369696D01*
X371927Y369631D01*
X276292Y273996D01*
X276291Y273995D01*
X276290Y273994D01*
X276180Y273855D01*
X276076Y273723D01*
X276075Y273722D01*
X276074Y273721D01*
X275997Y273557D01*
X275927Y273408D01*
X275926Y273407D01*
X275926Y273406D01*
X275888Y273227D01*
X275853Y273068D01*
X275853Y273066D01*
X275853Y273065D01*
X275857Y272877D01*
X275859Y272719D01*
X275860Y272718D01*
X275860Y272716D01*
X275898Y272566D01*
X274128Y265963D01*
X268296Y262596D01*
X261792Y264339D01*
X258425Y270171D01*
X260168Y276675D01*
X266000Y280042D01*
X267835Y279550D01*
X267985Y279528D01*
X268133Y279501D01*
X268157Y279503D01*
X268180Y279499D01*
X268330Y279512D01*
X268481Y279519D01*
X268504Y279526D01*
X268527Y279528D01*
X268671Y279574D01*
X268816Y279616D01*
X268837Y279627D01*
X268859Y279635D01*
X268989Y279712D01*
X269120Y279786D01*
X269142Y279804D01*
X269158Y279814D01*
X269192Y279847D01*
X269307Y279945D01*
X367889Y378527D01*
X369569Y379223D01*
X411546Y379223D01*
X411672Y379237D01*
X411798Y379244D01*
X411844Y379257D01*
X411892Y379263D01*
X412011Y379305D01*
X412133Y379340D01*
X412175Y379364D01*
X412220Y379380D01*
X412327Y379449D01*
X412437Y379510D01*
X412483Y379550D01*
X412513Y379569D01*
X412547Y379604D01*
X412623Y379669D01*
X415733Y382779D01*
X420639Y382779D01*
X420775Y382794D01*
X420912Y382803D01*
X420948Y382814D01*
X420985Y382819D01*
X421114Y382865D01*
X421245Y382905D01*
X421278Y382923D01*
X421313Y382936D01*
X421428Y383010D01*
X421547Y383079D01*
X421574Y383105D01*
X421606Y383125D01*
X421701Y383224D01*
X421801Y383318D01*
X421822Y383349D01*
X421848Y383376D01*
X421919Y383494D01*
X421995Y383608D01*
X422008Y383643D01*
X422027Y383675D01*
X422069Y383805D01*
X422117Y383934D01*
X422122Y383971D01*
X422133Y384007D01*
X422144Y384143D01*
X422162Y384280D01*
X422158Y384317D01*
X422161Y384354D01*
X422141Y384490D01*
X422127Y384626D01*
X422115Y384662D01*
X422109Y384699D01*
X422059Y384826D01*
X422014Y384956D01*
X421995Y384988D01*
X421981Y385023D01*
X421903Y385135D01*
X421830Y385252D01*
X421803Y385278D01*
X421782Y385309D01*
X421680Y385401D01*
X421583Y385498D01*
X421551Y385517D01*
X421523Y385542D01*
X421403Y385609D01*
X421286Y385681D01*
X421243Y385697D01*
X421218Y385711D01*
X421170Y385724D01*
X421057Y385767D01*
X411278Y388561D01*
X411190Y388575D01*
X411103Y388600D01*
X410983Y388609D01*
X410934Y388617D01*
X410906Y388616D01*
X410860Y388619D01*
X410475Y388619D01*
X409226Y389137D01*
X409178Y389150D01*
X409061Y389194D01*
X407761Y389565D01*
X407460Y389805D01*
X407384Y389852D01*
X407314Y389908D01*
X407207Y389962D01*
X407164Y389989D01*
X407137Y389998D01*
X407096Y390019D01*
X406740Y390166D01*
X405784Y391122D01*
X405745Y391153D01*
X405654Y391238D01*
X404595Y392079D01*
X404409Y392415D01*
X404356Y392488D01*
X404313Y392566D01*
X404235Y392657D01*
X404206Y392698D01*
X404184Y392717D01*
X404154Y392752D01*
X389683Y407223D01*
X389584Y407302D01*
X389491Y407386D01*
X389448Y407410D01*
X389410Y407440D01*
X389296Y407494D01*
X389186Y407555D01*
X389139Y407568D01*
X389095Y407589D01*
X388972Y407615D01*
X388850Y407650D01*
X388789Y407655D01*
X388755Y407662D01*
X388707Y407661D01*
X388606Y407669D01*
X287335Y407669D01*
X287221Y407656D01*
X287105Y407652D01*
X287031Y407634D01*
X286989Y407629D01*
X286948Y407615D01*
X286867Y407596D01*
X200389Y379677D01*
X200343Y379657D01*
X200218Y379610D01*
X199023Y379058D01*
X198602Y379042D01*
X198518Y379028D01*
X198433Y379025D01*
X198346Y379005D01*
X198310Y379001D01*
X198287Y378992D01*
X198258Y378988D01*
X198234Y378978D01*
X198195Y378969D01*
X197794Y378840D01*
X196483Y378945D01*
X196433Y378944D01*
X196299Y378949D01*
X194984Y378896D01*
X194589Y379042D01*
X194506Y379062D01*
X194426Y379092D01*
X194298Y379112D01*
X194250Y379124D01*
X194225Y379124D01*
X194185Y379131D01*
X193765Y379165D01*
X192594Y379764D01*
X192547Y379782D01*
X192426Y379838D01*
X101681Y413230D01*
X101640Y413240D01*
X101602Y413257D01*
X101471Y413281D01*
X101342Y413312D01*
X101300Y413312D01*
X101259Y413320D01*
X101126Y413314D01*
X100994Y413315D01*
X100953Y413306D01*
X100911Y413304D01*
X100673Y413245D01*
X32950Y390671D01*
X32836Y390618D01*
X32718Y390572D01*
X32678Y390544D01*
X32635Y390524D01*
X32535Y390446D01*
X32431Y390374D01*
X32398Y390338D01*
X32360Y390309D01*
X32281Y390210D01*
X32196Y390117D01*
X32165Y390065D01*
X32142Y390037D01*
X32122Y389993D01*
X32070Y389907D01*
X10650Y347067D01*
X10637Y347032D01*
X10618Y346999D01*
X10577Y346869D01*
X10531Y346740D01*
X10526Y346702D01*
X10515Y346666D01*
X10505Y346530D01*
X10489Y346394D01*
X10493Y346356D01*
X10490Y346318D01*
X10521Y346076D01*
X21937Y291235D01*
X21982Y291098D01*
X22022Y290959D01*
X22037Y290933D01*
X22046Y290904D01*
X22122Y290781D01*
X22192Y290655D01*
X22216Y290627D01*
X22228Y290607D01*
X22263Y290572D01*
X22351Y290469D01*
X43944Y268875D01*
X44040Y268799D01*
X44131Y268717D01*
X44187Y268682D01*
X44217Y268659D01*
X44259Y268639D01*
X44340Y268590D01*
X50119Y265701D01*
X50175Y265680D01*
X50228Y265651D01*
X50338Y265621D01*
X50446Y265581D01*
X50506Y265574D01*
X50564Y265558D01*
X50678Y265554D01*
X50792Y265540D01*
X50852Y265546D01*
X50912Y265544D01*
X51025Y265565D01*
X51139Y265578D01*
X51195Y265598D01*
X51254Y265609D01*
X51443Y265685D01*
X51467Y265694D01*
X51473Y265697D01*
X51481Y265701D01*
X82277Y281099D01*
X86164Y283042D01*
X90196Y283328D01*
X94031Y282050D01*
X97084Y279402D01*
X107459Y258653D01*
X107471Y258634D01*
X107479Y258613D01*
X107566Y258489D01*
X107649Y258361D01*
X107665Y258345D01*
X107678Y258327D01*
X107791Y258225D01*
X107901Y258120D01*
X107920Y258109D01*
X107937Y258094D01*
X108070Y258020D01*
X108201Y257943D01*
X108222Y257936D01*
X108242Y257925D01*
X108389Y257884D01*
X108533Y257838D01*
X108556Y257836D01*
X108577Y257830D01*
X108821Y257811D01*
X114229Y257811D01*
X114237Y257812D01*
X114248Y257811D01*
X116261Y257835D01*
X118122Y257065D01*
X118129Y257063D01*
X118139Y257058D01*
X120010Y256309D01*
X121434Y254885D01*
X121440Y254881D01*
X121447Y254872D01*
X122889Y253465D01*
X123660Y251604D01*
X123664Y251597D01*
X123667Y251587D01*
X141913Y209014D01*
X141978Y208900D01*
X142037Y208781D01*
X142070Y208739D01*
X142086Y208712D01*
X142120Y208675D01*
X142187Y208588D01*
X142221Y208551D01*
X142791Y206971D01*
X142806Y206941D01*
X142824Y206888D01*
X143485Y205345D01*
X143486Y205295D01*
X143503Y205164D01*
X143512Y205032D01*
X143526Y204981D01*
X143530Y204949D01*
X143547Y204903D01*
X143576Y204796D01*
X161611Y154834D01*
X161623Y154810D01*
X161637Y154769D01*
X162310Y153142D01*
X162323Y153034D01*
X162333Y152893D01*
X162344Y152854D01*
X162347Y152828D01*
X162363Y152781D01*
X162390Y152685D01*
X162308Y150930D01*
X162310Y150903D01*
X162307Y150860D01*
X162307Y10414D01*
X162310Y10388D01*
X162308Y10362D01*
X162330Y10215D01*
X162347Y10068D01*
X162355Y10043D01*
X162359Y10017D01*
X162414Y9879D01*
X162464Y9740D01*
X162478Y9718D01*
X162488Y9693D01*
X162573Y9572D01*
X162653Y9447D01*
X162672Y9429D01*
X162687Y9407D01*
X162797Y9308D01*
X162904Y9205D01*
X162926Y9191D01*
X162946Y9174D01*
X163076Y9102D01*
X163203Y9026D01*
X163228Y9018D01*
X163251Y9005D01*
X163394Y8965D01*
X163535Y8920D01*
X163561Y8918D01*
X163586Y8910D01*
X163830Y8891D01*
X248227Y8891D01*
X248252Y8894D01*
G37*
%LPC*%
G36*
X206183Y277621D02*
X206183Y277621D01*
X201421Y282383D01*
X201421Y289117D01*
X204531Y292227D01*
X204610Y292326D01*
X204694Y292420D01*
X204718Y292462D01*
X204748Y292500D01*
X204802Y292614D01*
X204863Y292725D01*
X204876Y292771D01*
X204897Y292815D01*
X204923Y292938D01*
X204958Y293060D01*
X204963Y293121D01*
X204970Y293156D01*
X204969Y293204D01*
X204977Y293304D01*
X204977Y337460D01*
X205673Y339140D01*
X257760Y391227D01*
X259440Y391923D01*
X284546Y391923D01*
X284672Y391937D01*
X284798Y391944D01*
X284844Y391957D01*
X284892Y391963D01*
X285011Y392005D01*
X285133Y392040D01*
X285175Y392064D01*
X285220Y392080D01*
X285327Y392149D01*
X285437Y392210D01*
X285483Y392250D01*
X285513Y392269D01*
X285547Y392304D01*
X285623Y392369D01*
X288733Y395479D01*
X295467Y395479D01*
X300229Y390717D01*
X300229Y383983D01*
X295467Y379221D01*
X288733Y379221D01*
X285623Y382331D01*
X285524Y382410D01*
X285430Y382494D01*
X285388Y382518D01*
X285350Y382548D01*
X285236Y382602D01*
X285125Y382663D01*
X285079Y382676D01*
X285035Y382697D01*
X284912Y382723D01*
X284790Y382758D01*
X284729Y382763D01*
X284694Y382770D01*
X284646Y382769D01*
X284546Y382777D01*
X262875Y382777D01*
X262749Y382763D01*
X262623Y382756D01*
X262577Y382743D01*
X262529Y382737D01*
X262410Y382695D01*
X262288Y382660D01*
X262246Y382636D01*
X262201Y382620D01*
X262094Y382551D01*
X261984Y382490D01*
X261938Y382450D01*
X261908Y382431D01*
X261874Y382396D01*
X261798Y382331D01*
X214569Y335102D01*
X214490Y335003D01*
X214406Y334909D01*
X214382Y334867D01*
X214352Y334829D01*
X214298Y334715D01*
X214237Y334604D01*
X214224Y334558D01*
X214203Y334514D01*
X214177Y334391D01*
X214142Y334269D01*
X214137Y334208D01*
X214130Y334173D01*
X214131Y334125D01*
X214123Y334025D01*
X214123Y293304D01*
X214137Y293178D01*
X214144Y293052D01*
X214157Y293006D01*
X214163Y292958D01*
X214205Y292839D01*
X214240Y292717D01*
X214264Y292675D01*
X214280Y292630D01*
X214349Y292523D01*
X214410Y292413D01*
X214450Y292367D01*
X214469Y292337D01*
X214504Y292303D01*
X214569Y292227D01*
X217679Y289117D01*
X217679Y282383D01*
X212917Y277621D01*
X206183Y277621D01*
G37*
%LPD*%
%LPC*%
G36*
X144972Y265963D02*
X144972Y265963D01*
X143229Y272467D01*
X146644Y278383D01*
X146715Y278432D01*
X146861Y278533D01*
X146862Y278534D01*
X146863Y278535D01*
X146977Y278662D01*
X147095Y278792D01*
X147095Y278793D01*
X147096Y278794D01*
X147180Y278945D01*
X147264Y279096D01*
X147264Y279098D01*
X147265Y279099D01*
X147313Y279269D01*
X147359Y279431D01*
X147359Y279433D01*
X147360Y279434D01*
X147379Y279678D01*
X147379Y347173D01*
X147365Y347299D01*
X147358Y347425D01*
X147345Y347471D01*
X147339Y347519D01*
X147297Y347638D01*
X147262Y347760D01*
X147238Y347802D01*
X147222Y347847D01*
X147153Y347954D01*
X147092Y348064D01*
X147052Y348110D01*
X147033Y348140D01*
X146998Y348174D01*
X146933Y348250D01*
X112852Y382331D01*
X112753Y382410D01*
X112659Y382494D01*
X112617Y382518D01*
X112579Y382548D01*
X112465Y382602D01*
X112354Y382663D01*
X112308Y382676D01*
X112264Y382697D01*
X112141Y382723D01*
X112019Y382758D01*
X111958Y382763D01*
X111923Y382770D01*
X111875Y382769D01*
X111775Y382777D01*
X102804Y382777D01*
X102678Y382763D01*
X102552Y382756D01*
X102506Y382743D01*
X102458Y382737D01*
X102339Y382695D01*
X102217Y382660D01*
X102175Y382636D01*
X102130Y382620D01*
X102023Y382551D01*
X101913Y382490D01*
X101867Y382450D01*
X101837Y382431D01*
X101803Y382396D01*
X101727Y382331D01*
X98617Y379221D01*
X91883Y379221D01*
X87121Y383983D01*
X87121Y390717D01*
X91883Y395479D01*
X98617Y395479D01*
X101727Y392369D01*
X101826Y392290D01*
X101920Y392206D01*
X101962Y392182D01*
X102000Y392152D01*
X102114Y392098D01*
X102225Y392037D01*
X102271Y392024D01*
X102315Y392003D01*
X102438Y391977D01*
X102560Y391942D01*
X102621Y391937D01*
X102656Y391930D01*
X102704Y391931D01*
X102804Y391923D01*
X115210Y391923D01*
X116890Y391227D01*
X155829Y352288D01*
X156525Y350608D01*
X156525Y278945D01*
X156542Y278795D01*
X156555Y278644D01*
X156562Y278622D01*
X156565Y278598D01*
X156616Y278456D01*
X156662Y278313D01*
X156674Y278293D01*
X156682Y278270D01*
X156764Y278143D01*
X156842Y278014D01*
X156858Y277997D01*
X156871Y277978D01*
X156980Y277872D01*
X157085Y277764D01*
X157108Y277748D01*
X157122Y277735D01*
X157162Y277711D01*
X157286Y277625D01*
X158932Y276675D01*
X160675Y270171D01*
X157308Y264339D01*
X150804Y262596D01*
X144972Y265963D01*
G37*
%LPD*%
%LPC*%
G36*
X199412Y117855D02*
X199412Y117855D01*
X194055Y123212D01*
X194055Y130788D01*
X199412Y136145D01*
X206988Y136145D01*
X212345Y130788D01*
X212345Y123212D01*
X206988Y117855D01*
X199412Y117855D01*
G37*
%LPD*%
%LPC*%
G36*
X174012Y117855D02*
X174012Y117855D01*
X168655Y123212D01*
X168655Y130788D01*
X174012Y136145D01*
X181588Y136145D01*
X186945Y130788D01*
X186945Y123212D01*
X181588Y117855D01*
X174012Y117855D01*
G37*
%LPD*%
%LPC*%
G36*
X224812Y92455D02*
X224812Y92455D01*
X219455Y97812D01*
X219455Y105388D01*
X224812Y110745D01*
X232388Y110745D01*
X237745Y105388D01*
X237745Y97812D01*
X232388Y92455D01*
X224812Y92455D01*
G37*
%LPD*%
%LPC*%
G36*
X199412Y92455D02*
X199412Y92455D01*
X194055Y97812D01*
X194055Y105388D01*
X199412Y110745D01*
X206988Y110745D01*
X212345Y105388D01*
X212345Y97812D01*
X206988Y92455D01*
X199412Y92455D01*
G37*
%LPD*%
%LPC*%
G36*
X226781Y117855D02*
X226781Y117855D01*
X223420Y119248D01*
X220848Y121820D01*
X219455Y125181D01*
X219455Y128819D01*
X220848Y132180D01*
X223420Y134752D01*
X226781Y136145D01*
X230419Y136145D01*
X233780Y134752D01*
X236352Y132180D01*
X237745Y128819D01*
X237745Y125181D01*
X236352Y121820D01*
X233780Y119248D01*
X230419Y117855D01*
X226781Y117855D01*
G37*
%LPD*%
%LPC*%
G36*
X206183Y176021D02*
X206183Y176021D01*
X201421Y180783D01*
X201421Y187517D01*
X206183Y192279D01*
X212917Y192279D01*
X217679Y187517D01*
X217679Y180783D01*
X212917Y176021D01*
X206183Y176021D01*
G37*
%LPD*%
%LPC*%
G36*
X171268Y167825D02*
X171268Y167825D01*
X169525Y174329D01*
X172892Y180161D01*
X179396Y181904D01*
X185228Y178537D01*
X186971Y172033D01*
X183604Y166201D01*
X177100Y164458D01*
X171268Y167825D01*
G37*
%LPD*%
%LPC*%
G36*
X235496Y166201D02*
X235496Y166201D01*
X232129Y172033D01*
X233872Y178537D01*
X239704Y181904D01*
X246208Y180161D01*
X249575Y174329D01*
X247832Y167825D01*
X242000Y164458D01*
X235496Y166201D01*
G37*
%LPD*%
%LPC*%
G36*
X180339Y104139D02*
X180339Y104139D01*
X180339Y111761D01*
X182009Y111761D01*
X187961Y105809D01*
X187961Y104139D01*
X180339Y104139D01*
G37*
%LPD*%
%LPC*%
G36*
X167639Y104139D02*
X167639Y104139D01*
X167639Y105809D01*
X173591Y111761D01*
X175261Y111761D01*
X175261Y104139D01*
X167639Y104139D01*
G37*
%LPD*%
%LPC*%
G36*
X180339Y91439D02*
X180339Y91439D01*
X180339Y99061D01*
X187961Y99061D01*
X187961Y97391D01*
X182009Y91439D01*
X180339Y91439D01*
G37*
%LPD*%
%LPC*%
G36*
X173591Y91439D02*
X173591Y91439D01*
X167639Y97391D01*
X167639Y99061D01*
X175261Y99061D01*
X175261Y91439D01*
X173591Y91439D01*
G37*
%LPD*%
%LPC*%
G36*
X97281Y363981D02*
X97281Y363981D01*
X97281Y371095D01*
X99038Y371095D01*
X104395Y365738D01*
X104395Y363981D01*
X97281Y363981D01*
G37*
%LPD*%
%LPC*%
G36*
X294131Y363981D02*
X294131Y363981D01*
X294131Y371095D01*
X295888Y371095D01*
X301245Y365738D01*
X301245Y363981D01*
X294131Y363981D01*
G37*
%LPD*%
%LPC*%
G36*
X421131Y351281D02*
X421131Y351281D01*
X421131Y358395D01*
X422888Y358395D01*
X428245Y353038D01*
X428245Y351281D01*
X421131Y351281D01*
G37*
%LPD*%
%LPC*%
G36*
X294131Y359919D02*
X294131Y359919D01*
X301245Y359919D01*
X301245Y358162D01*
X295888Y352805D01*
X294131Y352805D01*
X294131Y359919D01*
G37*
%LPD*%
%LPC*%
G36*
X97281Y359919D02*
X97281Y359919D01*
X104395Y359919D01*
X104395Y358162D01*
X99038Y352805D01*
X97281Y352805D01*
X97281Y359919D01*
G37*
%LPD*%
%LPC*%
G36*
X421131Y347219D02*
X421131Y347219D01*
X428245Y347219D01*
X428245Y345462D01*
X422888Y340105D01*
X421131Y340105D01*
X421131Y347219D01*
G37*
%LPD*%
%LPC*%
G36*
X86105Y363981D02*
X86105Y363981D01*
X86105Y365738D01*
X91462Y371095D01*
X93219Y371095D01*
X93219Y363981D01*
X86105Y363981D01*
G37*
%LPD*%
%LPC*%
G36*
X282955Y363981D02*
X282955Y363981D01*
X282955Y365738D01*
X288312Y371095D01*
X290069Y371095D01*
X290069Y363981D01*
X282955Y363981D01*
G37*
%LPD*%
%LPC*%
G36*
X409955Y351281D02*
X409955Y351281D01*
X409955Y353038D01*
X415312Y358395D01*
X417069Y358395D01*
X417069Y351281D01*
X409955Y351281D01*
G37*
%LPD*%
%LPC*%
G36*
X288312Y352805D02*
X288312Y352805D01*
X282955Y358162D01*
X282955Y359919D01*
X290069Y359919D01*
X290069Y352805D01*
X288312Y352805D01*
G37*
%LPD*%
%LPC*%
G36*
X91462Y352805D02*
X91462Y352805D01*
X86105Y358162D01*
X86105Y359919D01*
X93219Y359919D01*
X93219Y352805D01*
X91462Y352805D01*
G37*
%LPD*%
%LPC*%
G36*
X415312Y340105D02*
X415312Y340105D01*
X409955Y345462D01*
X409955Y347219D01*
X417069Y347219D01*
X417069Y340105D01*
X415312Y340105D01*
G37*
%LPD*%
D10*
X209550Y184150D03*
X209550Y285750D03*
D11*
X240852Y173181D03*
X267148Y271319D03*
D12*
X178248Y173181D03*
X151952Y271319D03*
D13*
X292100Y387350D03*
X292100Y361950D03*
X419100Y374650D03*
X419100Y349250D03*
X95250Y387350D03*
X95250Y361950D03*
D14*
X228600Y127000D03*
D15*
X203200Y127000D03*
X177800Y127000D03*
X228600Y101600D03*
X203200Y101600D03*
X177800Y101600D03*
D16*
X209550Y285750D02*
X209550Y336550D01*
X260350Y387350D01*
X292100Y387350D01*
X370479Y374650D02*
X419100Y374650D01*
X370479Y374650D02*
X267148Y271319D01*
X151952Y271319D02*
X151952Y349698D01*
X114300Y387350D01*
X95250Y387350D01*
M02*
