G04 EAGLE Gerber RS-274X export*
G75*
%MOMM*%
%FSLAX34Y34*%
%LPD*%
%INSilkscreen Top*%
%IPPOS*%
%AMOC8*
5,1,8,0,0,1.08239X$1,22.5*%
G01*
%ADD10R,1.320800X0.101600*%
%ADD11R,7.315200X0.101600*%
%ADD12R,10.363200X0.101600*%
%ADD13R,10.261600X0.101600*%
%ADD14R,9.855200X0.101600*%
%ADD15R,0.304800X0.101600*%
%ADD16R,0.406400X0.101600*%
%ADD17R,1.524000X0.101600*%
%ADD18R,7.721600X0.101600*%
%ADD19R,7.620000X0.101600*%
%ADD20R,1.422400X0.101600*%
%ADD21R,1.016000X0.101600*%
%ADD22R,7.518400X0.101600*%
%ADD23R,0.812800X0.101600*%
%ADD24R,3.962400X0.101600*%
%ADD25R,3.454400X0.101600*%
%ADD26R,0.711200X0.101600*%
%ADD27R,4.064000X0.101600*%
%ADD28R,0.609600X0.101600*%
%ADD29R,4.572000X0.101600*%
%ADD30R,3.352800X0.101600*%
%ADD31R,4.470400X0.101600*%
%ADD32R,0.508000X0.101600*%
%ADD33R,1.828800X0.101600*%
%ADD34R,3.860800X0.101600*%
%ADD35R,1.219200X0.101600*%
%ADD36R,3.759200X0.101600*%
%ADD37R,1.117600X0.101600*%
%ADD38R,0.914400X0.101600*%
%ADD39R,2.844800X0.101600*%
%ADD40R,2.641600X0.101600*%
%ADD41R,0.203200X0.101600*%
%ADD42R,0.101600X0.101600*%
%ADD43R,1.727200X0.101600*%
%ADD44R,1.930400X0.101600*%
%ADD45R,2.438400X0.101600*%
%ADD46R,3.048000X0.101600*%
%ADD47R,2.743200X0.101600*%
%ADD48R,2.032000X0.101600*%
%ADD49R,1.625600X0.101600*%
%ADD50R,4.673600X0.101600*%
%ADD51R,5.080000X0.101600*%
%ADD52R,5.181600X0.101600*%
%ADD53R,6.807200X0.101600*%
%ADD54R,3.556000X0.101600*%
%ADD55R,2.336800X0.101600*%
%ADD56R,2.946400X0.101600*%
%ADD57R,7.010400X0.101600*%
%ADD58R,10.769600X0.101600*%
%ADD59R,9.042400X0.101600*%
%ADD60R,4.368800X0.101600*%
%ADD61C,0.254000*%
%ADD62C,0.152400*%


D10*
X160528Y2032D03*
D11*
X190500Y3048D03*
D12*
X205740Y4064D03*
X205740Y5080D03*
D13*
X206248Y6096D03*
X206248Y7112D03*
X206248Y8128D03*
X206248Y9144D03*
X206248Y10160D03*
X206248Y11176D03*
X206248Y12192D03*
X206248Y13208D03*
D14*
X204216Y14224D03*
D15*
X256032Y14224D03*
D14*
X204216Y15240D03*
D15*
X256032Y15240D03*
D14*
X204216Y16256D03*
D15*
X256032Y16256D03*
D16*
X156972Y17272D03*
D17*
X167640Y17272D03*
D18*
X214884Y17272D03*
D15*
X256032Y17272D03*
D16*
X156972Y18288D03*
D17*
X167640Y18288D03*
D19*
X215392Y18288D03*
D15*
X256032Y18288D03*
D16*
X156972Y19304D03*
D20*
X168148Y19304D03*
D19*
X215392Y19304D03*
D15*
X256032Y19304D03*
D16*
X156972Y20320D03*
D21*
X166116Y20320D03*
D15*
X173736Y20320D03*
D22*
X215900Y20320D03*
D15*
X256032Y20320D03*
D16*
X156972Y21336D03*
D23*
X166116Y21336D03*
D15*
X173736Y21336D03*
D24*
X198120Y21336D03*
D25*
X236220Y21336D03*
D15*
X256032Y21336D03*
D16*
X156972Y22352D03*
D26*
X166624Y22352D03*
D15*
X173736Y22352D03*
D27*
X197612Y22352D03*
D25*
X236220Y22352D03*
D15*
X256032Y22352D03*
D16*
X156972Y23368D03*
D28*
X166116Y23368D03*
D29*
X195072Y23368D03*
D30*
X236728Y23368D03*
D15*
X256032Y23368D03*
D16*
X156972Y24384D03*
D28*
X166116Y24384D03*
D31*
X194564Y24384D03*
D30*
X236728Y24384D03*
D15*
X256032Y24384D03*
D16*
X156972Y25400D03*
D32*
X165608Y25400D03*
D31*
X194564Y25400D03*
D20*
X227076Y25400D03*
D33*
X244348Y25400D03*
D15*
X256032Y25400D03*
X157480Y26416D03*
D32*
X165608Y26416D03*
D31*
X194564Y26416D03*
D10*
X226568Y26416D03*
D33*
X244348Y26416D03*
D15*
X256032Y26416D03*
X157480Y27432D03*
D16*
X165100Y27432D03*
D15*
X173736Y27432D03*
D34*
X197612Y27432D03*
D35*
X226060Y27432D03*
D15*
X236728Y27432D03*
D20*
X246380Y27432D03*
D15*
X256032Y27432D03*
X157480Y28448D03*
X164592Y28448D03*
X173736Y28448D03*
D36*
X197104Y28448D03*
D35*
X226060Y28448D03*
D15*
X236728Y28448D03*
D35*
X247396Y28448D03*
D15*
X256032Y28448D03*
X157480Y29464D03*
X164592Y29464D03*
X173736Y29464D03*
D36*
X197104Y29464D03*
D37*
X225552Y29464D03*
D15*
X236728Y29464D03*
D37*
X247904Y29464D03*
D15*
X256032Y29464D03*
X157480Y30480D03*
X164592Y30480D03*
X173736Y30480D03*
D36*
X197104Y30480D03*
D21*
X225044Y30480D03*
D15*
X236728Y30480D03*
D38*
X248920Y30480D03*
D15*
X256032Y30480D03*
X157480Y31496D03*
X164592Y31496D03*
X173736Y31496D03*
D23*
X182372Y31496D03*
D39*
X201676Y31496D03*
D38*
X224536Y31496D03*
D15*
X236728Y31496D03*
D38*
X248920Y31496D03*
D15*
X256032Y31496D03*
X157480Y32512D03*
X164592Y32512D03*
X173736Y32512D03*
D28*
X181356Y32512D03*
D40*
X201676Y32512D03*
D23*
X224028Y32512D03*
D15*
X236728Y32512D03*
D10*
X250952Y32512D03*
D15*
X157480Y33528D03*
X164592Y33528D03*
D16*
X174244Y33528D03*
D26*
X180848Y33528D03*
D40*
X201676Y33528D03*
D26*
X223520Y33528D03*
D15*
X236728Y33528D03*
D10*
X250952Y33528D03*
D15*
X157480Y34544D03*
X164592Y34544D03*
D16*
X174244Y34544D03*
X182372Y34544D03*
D21*
X193548Y34544D03*
D20*
X207772Y34544D03*
D28*
X223012Y34544D03*
D15*
X236728Y34544D03*
D16*
X246380Y34544D03*
D15*
X250952Y34544D03*
D16*
X255524Y34544D03*
D15*
X157480Y35560D03*
X164592Y35560D03*
D16*
X174244Y35560D03*
X182372Y35560D03*
D21*
X193548Y35560D03*
D35*
X207772Y35560D03*
D28*
X223012Y35560D03*
D15*
X236728Y35560D03*
D16*
X246380Y35560D03*
D15*
X250952Y35560D03*
D16*
X255524Y35560D03*
D15*
X157480Y36576D03*
X164592Y36576D03*
D16*
X174244Y36576D03*
X182372Y36576D03*
D38*
X193040Y36576D03*
D37*
X208280Y36576D03*
D16*
X221996Y36576D03*
D15*
X236728Y36576D03*
D16*
X246380Y36576D03*
D15*
X250952Y36576D03*
D16*
X255524Y36576D03*
D15*
X157480Y37592D03*
X164592Y37592D03*
D16*
X174244Y37592D03*
X182372Y37592D03*
D23*
X192532Y37592D03*
D21*
X208788Y37592D03*
D16*
X221996Y37592D03*
D15*
X236728Y37592D03*
D16*
X246380Y37592D03*
D15*
X250952Y37592D03*
D16*
X255524Y37592D03*
D15*
X157480Y38608D03*
X164592Y38608D03*
D16*
X174244Y38608D03*
D15*
X182880Y38608D03*
D23*
X192532Y38608D03*
D38*
X209296Y38608D03*
D16*
X221996Y38608D03*
D15*
X236728Y38608D03*
D16*
X246380Y38608D03*
D15*
X250952Y38608D03*
D16*
X255524Y38608D03*
D15*
X157480Y39624D03*
X164592Y39624D03*
D16*
X174244Y39624D03*
D15*
X182880Y39624D03*
D26*
X192024Y39624D03*
D23*
X208788Y39624D03*
D16*
X221996Y39624D03*
D15*
X236728Y39624D03*
D16*
X246380Y39624D03*
D15*
X250952Y39624D03*
D16*
X255524Y39624D03*
D15*
X157480Y40640D03*
X164592Y40640D03*
D16*
X174244Y40640D03*
D15*
X182880Y40640D03*
D28*
X191516Y40640D03*
D23*
X208788Y40640D03*
D16*
X221996Y40640D03*
D15*
X236728Y40640D03*
D16*
X246380Y40640D03*
D15*
X250952Y40640D03*
D16*
X255524Y40640D03*
D15*
X157480Y41656D03*
X164592Y41656D03*
D16*
X174244Y41656D03*
D15*
X182880Y41656D03*
D28*
X191516Y41656D03*
D23*
X208788Y41656D03*
D16*
X221996Y41656D03*
D15*
X236728Y41656D03*
D16*
X246380Y41656D03*
D15*
X250952Y41656D03*
D16*
X255524Y41656D03*
D15*
X157480Y42672D03*
X164592Y42672D03*
D16*
X174244Y42672D03*
D15*
X182880Y42672D03*
D16*
X190500Y42672D03*
D15*
X206248Y42672D03*
D16*
X210820Y42672D03*
X221996Y42672D03*
D15*
X236728Y42672D03*
D16*
X246380Y42672D03*
D15*
X250952Y42672D03*
X255016Y42672D03*
X157480Y43688D03*
X164592Y43688D03*
D16*
X174244Y43688D03*
D15*
X182880Y43688D03*
D16*
X190500Y43688D03*
D15*
X206248Y43688D03*
D41*
X210820Y43688D03*
D16*
X221996Y43688D03*
D15*
X236728Y43688D03*
D16*
X246380Y43688D03*
D15*
X250952Y43688D03*
X255016Y43688D03*
X157480Y44704D03*
D16*
X165100Y44704D03*
X174244Y44704D03*
D15*
X182880Y44704D03*
X191008Y44704D03*
X206248Y44704D03*
D42*
X211328Y44704D03*
D15*
X222504Y44704D03*
X236728Y44704D03*
D16*
X246380Y44704D03*
D15*
X250952Y44704D03*
X255016Y44704D03*
X157480Y45720D03*
D16*
X165100Y45720D03*
X174244Y45720D03*
D15*
X182880Y45720D03*
X191008Y45720D03*
X206248Y45720D03*
X222504Y45720D03*
X236728Y45720D03*
D16*
X246380Y45720D03*
D15*
X250952Y45720D03*
X255016Y45720D03*
X157480Y46736D03*
D16*
X165100Y46736D03*
X174244Y46736D03*
D15*
X182880Y46736D03*
X191008Y46736D03*
X206248Y46736D03*
X222504Y46736D03*
X236728Y46736D03*
X245872Y46736D03*
X250952Y46736D03*
X255016Y46736D03*
X157480Y47752D03*
D16*
X165100Y47752D03*
X174244Y47752D03*
D15*
X182880Y47752D03*
X191008Y47752D03*
X206248Y47752D03*
X222504Y47752D03*
X236728Y47752D03*
X245872Y47752D03*
X250952Y47752D03*
X255016Y47752D03*
X157480Y48768D03*
D16*
X165100Y48768D03*
X174244Y48768D03*
D15*
X182880Y48768D03*
X191008Y48768D03*
X206248Y48768D03*
X222504Y48768D03*
X236728Y48768D03*
X245872Y48768D03*
X250952Y48768D03*
X255016Y48768D03*
X157480Y49784D03*
D16*
X165100Y49784D03*
D15*
X174752Y49784D03*
X182880Y49784D03*
X191008Y49784D03*
X206248Y49784D03*
X222504Y49784D03*
X236728Y49784D03*
X245872Y49784D03*
X250952Y49784D03*
X255016Y49784D03*
X157480Y50800D03*
D16*
X165100Y50800D03*
D15*
X174752Y50800D03*
X182880Y50800D03*
X191008Y50800D03*
X206248Y50800D03*
X222504Y50800D03*
X236728Y50800D03*
X245872Y50800D03*
X250952Y50800D03*
X255016Y50800D03*
X157480Y51816D03*
D16*
X165100Y51816D03*
D15*
X174752Y51816D03*
X182880Y51816D03*
X191008Y51816D03*
X206248Y51816D03*
X222504Y51816D03*
X236728Y51816D03*
X245872Y51816D03*
X250952Y51816D03*
X255016Y51816D03*
X157480Y52832D03*
D16*
X165100Y52832D03*
D15*
X174752Y52832D03*
X182880Y52832D03*
X191008Y52832D03*
X206248Y52832D03*
X222504Y52832D03*
X236728Y52832D03*
X245872Y52832D03*
X250952Y52832D03*
X255016Y52832D03*
X157480Y53848D03*
D16*
X165100Y53848D03*
D15*
X174752Y53848D03*
X182880Y53848D03*
X191008Y53848D03*
X206248Y53848D03*
X222504Y53848D03*
X236728Y53848D03*
X245872Y53848D03*
X250952Y53848D03*
X255016Y53848D03*
X157480Y54864D03*
D16*
X165100Y54864D03*
D15*
X174752Y54864D03*
X182880Y54864D03*
X191008Y54864D03*
X206248Y54864D03*
X222504Y54864D03*
X236728Y54864D03*
X245872Y54864D03*
X250952Y54864D03*
X255016Y54864D03*
X157480Y55880D03*
D16*
X165100Y55880D03*
D15*
X174752Y55880D03*
X182880Y55880D03*
X191008Y55880D03*
X206248Y55880D03*
X222504Y55880D03*
X236728Y55880D03*
X245872Y55880D03*
X250952Y55880D03*
X255016Y55880D03*
X157480Y56896D03*
X165608Y56896D03*
X174752Y56896D03*
X182880Y56896D03*
X191008Y56896D03*
X206248Y56896D03*
X222504Y56896D03*
X236728Y56896D03*
X245872Y56896D03*
X250952Y56896D03*
X255016Y56896D03*
X157480Y57912D03*
X165608Y57912D03*
X174752Y57912D03*
X182880Y57912D03*
X191008Y57912D03*
X206248Y57912D03*
X222504Y57912D03*
X236728Y57912D03*
X245872Y57912D03*
X250952Y57912D03*
X255016Y57912D03*
X157480Y58928D03*
X165608Y58928D03*
X174752Y58928D03*
X182880Y58928D03*
X191008Y58928D03*
X206248Y58928D03*
X222504Y58928D03*
X236728Y58928D03*
X245872Y58928D03*
X250952Y58928D03*
X255016Y58928D03*
X157480Y59944D03*
X165608Y59944D03*
X174752Y59944D03*
X182880Y59944D03*
X191008Y59944D03*
X206248Y59944D03*
X222504Y59944D03*
X236728Y59944D03*
X245872Y59944D03*
X250952Y59944D03*
X255016Y59944D03*
X157480Y60960D03*
X165608Y60960D03*
X174752Y60960D03*
X182880Y60960D03*
X191008Y60960D03*
X206248Y60960D03*
X222504Y60960D03*
D16*
X236220Y60960D03*
D15*
X245872Y60960D03*
X250952Y60960D03*
X255016Y60960D03*
D16*
X157988Y61976D03*
D15*
X165608Y61976D03*
X174752Y61976D03*
X182880Y61976D03*
X191008Y61976D03*
X206248Y61976D03*
X222504Y61976D03*
D16*
X236220Y61976D03*
D15*
X245872Y61976D03*
X250952Y61976D03*
X255016Y61976D03*
D16*
X157988Y62992D03*
D15*
X165608Y62992D03*
X174752Y62992D03*
X182880Y62992D03*
X191008Y62992D03*
X206248Y62992D03*
X222504Y62992D03*
D16*
X236220Y62992D03*
D15*
X245872Y62992D03*
X250952Y62992D03*
X255016Y62992D03*
D16*
X157988Y64008D03*
D15*
X165608Y64008D03*
X174752Y64008D03*
X182880Y64008D03*
X191008Y64008D03*
X206248Y64008D03*
X222504Y64008D03*
D16*
X236220Y64008D03*
D15*
X245872Y64008D03*
X250952Y64008D03*
X255016Y64008D03*
D16*
X157988Y65024D03*
D15*
X165608Y65024D03*
X174752Y65024D03*
X182880Y65024D03*
X191008Y65024D03*
X206248Y65024D03*
X222504Y65024D03*
D16*
X236220Y65024D03*
D15*
X245872Y65024D03*
X250952Y65024D03*
X255016Y65024D03*
D16*
X157988Y66040D03*
D15*
X165608Y66040D03*
X174752Y66040D03*
X182880Y66040D03*
X191008Y66040D03*
X206248Y66040D03*
X222504Y66040D03*
D16*
X236220Y66040D03*
D15*
X245872Y66040D03*
X250952Y66040D03*
X255016Y66040D03*
D16*
X157988Y67056D03*
D15*
X165608Y67056D03*
X174752Y67056D03*
X182880Y67056D03*
X191008Y67056D03*
X206248Y67056D03*
X222504Y67056D03*
D16*
X236220Y67056D03*
D15*
X245872Y67056D03*
X250952Y67056D03*
X255016Y67056D03*
D16*
X157988Y68072D03*
D15*
X165608Y68072D03*
X174752Y68072D03*
X182880Y68072D03*
X191008Y68072D03*
X206248Y68072D03*
X222504Y68072D03*
D16*
X236220Y68072D03*
D15*
X245872Y68072D03*
X250952Y68072D03*
X255016Y68072D03*
D16*
X157988Y69088D03*
D15*
X165608Y69088D03*
X174752Y69088D03*
X182880Y69088D03*
X191008Y69088D03*
X206248Y69088D03*
X222504Y69088D03*
D16*
X236220Y69088D03*
D15*
X245872Y69088D03*
X250952Y69088D03*
X255016Y69088D03*
D16*
X157988Y70104D03*
D15*
X165608Y70104D03*
X174752Y70104D03*
X182880Y70104D03*
X191008Y70104D03*
X206248Y70104D03*
X222504Y70104D03*
D16*
X236220Y70104D03*
D15*
X245872Y70104D03*
X250952Y70104D03*
X255016Y70104D03*
D16*
X157988Y71120D03*
D15*
X165608Y71120D03*
X174752Y71120D03*
X182880Y71120D03*
X191008Y71120D03*
X206248Y71120D03*
X222504Y71120D03*
D16*
X236220Y71120D03*
D15*
X245872Y71120D03*
X250952Y71120D03*
X255016Y71120D03*
D16*
X157988Y72136D03*
D15*
X165608Y72136D03*
X174752Y72136D03*
X182880Y72136D03*
X191008Y72136D03*
X206248Y72136D03*
X222504Y72136D03*
D16*
X236220Y72136D03*
D15*
X245872Y72136D03*
X250952Y72136D03*
X255016Y72136D03*
X158496Y73152D03*
X165608Y73152D03*
X174752Y73152D03*
X182880Y73152D03*
X191008Y73152D03*
X206248Y73152D03*
X222504Y73152D03*
D16*
X236220Y73152D03*
D15*
X245872Y73152D03*
X250952Y73152D03*
X255016Y73152D03*
X158496Y74168D03*
X165608Y74168D03*
X174752Y74168D03*
X182880Y74168D03*
X191008Y74168D03*
X206248Y74168D03*
X222504Y74168D03*
D16*
X236220Y74168D03*
D15*
X245872Y74168D03*
D16*
X250444Y74168D03*
D15*
X255016Y74168D03*
X158496Y75184D03*
X165608Y75184D03*
X174752Y75184D03*
X182880Y75184D03*
X191008Y75184D03*
X206248Y75184D03*
X222504Y75184D03*
D16*
X236220Y75184D03*
D15*
X245872Y75184D03*
D16*
X250444Y75184D03*
D15*
X255016Y75184D03*
X158496Y76200D03*
X165608Y76200D03*
X174752Y76200D03*
X182880Y76200D03*
X191008Y76200D03*
X206248Y76200D03*
X222504Y76200D03*
D16*
X236220Y76200D03*
D15*
X245872Y76200D03*
D23*
X252476Y76200D03*
D15*
X158496Y77216D03*
X165608Y77216D03*
X174752Y77216D03*
X182880Y77216D03*
X191008Y77216D03*
X206248Y77216D03*
X222504Y77216D03*
D16*
X236220Y77216D03*
D15*
X245872Y77216D03*
D23*
X252476Y77216D03*
D15*
X158496Y78232D03*
X165608Y78232D03*
X174752Y78232D03*
D16*
X183388Y78232D03*
D15*
X191008Y78232D03*
X206248Y78232D03*
X222504Y78232D03*
D16*
X236220Y78232D03*
D15*
X245872Y78232D03*
D23*
X252476Y78232D03*
D15*
X158496Y79248D03*
X165608Y79248D03*
X174752Y79248D03*
D16*
X183388Y79248D03*
D15*
X191008Y79248D03*
X206248Y79248D03*
X222504Y79248D03*
D16*
X236220Y79248D03*
D15*
X245872Y79248D03*
D23*
X252476Y79248D03*
D15*
X158496Y80264D03*
X165608Y80264D03*
X174752Y80264D03*
D16*
X183388Y80264D03*
D15*
X191008Y80264D03*
X206248Y80264D03*
X222504Y80264D03*
D16*
X236220Y80264D03*
D15*
X245872Y80264D03*
D23*
X252476Y80264D03*
D15*
X158496Y81280D03*
X165608Y81280D03*
X174752Y81280D03*
D16*
X183388Y81280D03*
X191516Y81280D03*
D15*
X206248Y81280D03*
X222504Y81280D03*
D16*
X236220Y81280D03*
D15*
X245872Y81280D03*
D23*
X252476Y81280D03*
D15*
X158496Y82296D03*
X165608Y82296D03*
X174752Y82296D03*
D16*
X183388Y82296D03*
X191516Y82296D03*
D15*
X206248Y82296D03*
X222504Y82296D03*
D16*
X236220Y82296D03*
D15*
X245872Y82296D03*
D23*
X252476Y82296D03*
D15*
X158496Y83312D03*
X165608Y83312D03*
X174752Y83312D03*
D16*
X183388Y83312D03*
X191516Y83312D03*
D15*
X206248Y83312D03*
X222504Y83312D03*
D16*
X236220Y83312D03*
D15*
X245872Y83312D03*
D23*
X252476Y83312D03*
D15*
X158496Y84328D03*
X165608Y84328D03*
X174752Y84328D03*
D16*
X183388Y84328D03*
X191516Y84328D03*
D15*
X206248Y84328D03*
D16*
X223012Y84328D03*
X236220Y84328D03*
D15*
X245872Y84328D03*
D23*
X252476Y84328D03*
D15*
X158496Y85344D03*
X165608Y85344D03*
X174752Y85344D03*
D16*
X183388Y85344D03*
X191516Y85344D03*
D15*
X206248Y85344D03*
D16*
X223012Y85344D03*
X236220Y85344D03*
D15*
X245872Y85344D03*
D23*
X252476Y85344D03*
D15*
X158496Y86360D03*
X165608Y86360D03*
X174752Y86360D03*
D16*
X183388Y86360D03*
X191516Y86360D03*
D15*
X206248Y86360D03*
D16*
X223012Y86360D03*
X236220Y86360D03*
D15*
X245872Y86360D03*
X249936Y86360D03*
X254000Y86360D03*
X158496Y87376D03*
X165608Y87376D03*
X174752Y87376D03*
D16*
X183388Y87376D03*
X191516Y87376D03*
X206756Y87376D03*
X223012Y87376D03*
X236220Y87376D03*
D15*
X245872Y87376D03*
X249936Y87376D03*
X254000Y87376D03*
X158496Y88392D03*
X165608Y88392D03*
X174752Y88392D03*
D16*
X183388Y88392D03*
X191516Y88392D03*
X206756Y88392D03*
X223012Y88392D03*
X236220Y88392D03*
D15*
X245872Y88392D03*
X249936Y88392D03*
X254000Y88392D03*
X158496Y89408D03*
X165608Y89408D03*
X174752Y89408D03*
D16*
X183388Y89408D03*
X191516Y89408D03*
X206756Y89408D03*
X223012Y89408D03*
X236220Y89408D03*
D15*
X245872Y89408D03*
X249936Y89408D03*
X254000Y89408D03*
X158496Y90424D03*
X165608Y90424D03*
X174752Y90424D03*
X183896Y90424D03*
D16*
X191516Y90424D03*
X206756Y90424D03*
X223012Y90424D03*
X236220Y90424D03*
D15*
X245872Y90424D03*
X249936Y90424D03*
X254000Y90424D03*
X158496Y91440D03*
X165608Y91440D03*
X174752Y91440D03*
X183896Y91440D03*
D16*
X191516Y91440D03*
X206756Y91440D03*
X223012Y91440D03*
X236220Y91440D03*
D15*
X245872Y91440D03*
X249936Y91440D03*
X254000Y91440D03*
X158496Y92456D03*
X165608Y92456D03*
X174752Y92456D03*
X183896Y92456D03*
X192024Y92456D03*
D16*
X206756Y92456D03*
X223012Y92456D03*
X236220Y92456D03*
D15*
X245872Y92456D03*
X249936Y92456D03*
X254000Y92456D03*
X158496Y93472D03*
X165608Y93472D03*
X174752Y93472D03*
X183896Y93472D03*
X192024Y93472D03*
D16*
X206756Y93472D03*
X223012Y93472D03*
X236220Y93472D03*
D15*
X245872Y93472D03*
X249936Y93472D03*
X254000Y93472D03*
X158496Y94488D03*
D16*
X166116Y94488D03*
D15*
X174752Y94488D03*
X183896Y94488D03*
X192024Y94488D03*
D16*
X206756Y94488D03*
X223012Y94488D03*
X236220Y94488D03*
D15*
X245872Y94488D03*
X249936Y94488D03*
X254000Y94488D03*
X158496Y95504D03*
D16*
X166116Y95504D03*
D15*
X174752Y95504D03*
X183896Y95504D03*
X192024Y95504D03*
D16*
X206756Y95504D03*
X223012Y95504D03*
X236220Y95504D03*
D15*
X245872Y95504D03*
X249936Y95504D03*
X254000Y95504D03*
X158496Y96520D03*
D16*
X166116Y96520D03*
D15*
X174752Y96520D03*
X183896Y96520D03*
X192024Y96520D03*
D16*
X206756Y96520D03*
X223012Y96520D03*
X236220Y96520D03*
D15*
X245872Y96520D03*
X249936Y96520D03*
X254000Y96520D03*
X158496Y97536D03*
D16*
X166116Y97536D03*
D15*
X174752Y97536D03*
X183896Y97536D03*
X192024Y97536D03*
D16*
X206756Y97536D03*
D15*
X223520Y97536D03*
D16*
X236220Y97536D03*
D15*
X245872Y97536D03*
X249936Y97536D03*
X254000Y97536D03*
X158496Y98552D03*
D16*
X166116Y98552D03*
X175260Y98552D03*
D15*
X183896Y98552D03*
X192024Y98552D03*
D16*
X206756Y98552D03*
D15*
X223520Y98552D03*
D16*
X236220Y98552D03*
D15*
X245872Y98552D03*
X249936Y98552D03*
X254000Y98552D03*
X158496Y99568D03*
D16*
X166116Y99568D03*
X175260Y99568D03*
D15*
X183896Y99568D03*
X192024Y99568D03*
D16*
X206756Y99568D03*
D15*
X223520Y99568D03*
D16*
X236220Y99568D03*
D15*
X245872Y99568D03*
X249936Y99568D03*
X254000Y99568D03*
X158496Y100584D03*
D16*
X166116Y100584D03*
X175260Y100584D03*
D15*
X183896Y100584D03*
X192024Y100584D03*
D16*
X206756Y100584D03*
D15*
X223520Y100584D03*
D16*
X236220Y100584D03*
D15*
X245872Y100584D03*
X249936Y100584D03*
X254000Y100584D03*
X158496Y101600D03*
D16*
X166116Y101600D03*
X175260Y101600D03*
D15*
X183896Y101600D03*
X192024Y101600D03*
D16*
X206756Y101600D03*
D15*
X223520Y101600D03*
D16*
X236220Y101600D03*
D15*
X245872Y101600D03*
X249936Y101600D03*
X254000Y101600D03*
X158496Y102616D03*
D16*
X166116Y102616D03*
X175260Y102616D03*
D15*
X183896Y102616D03*
X192024Y102616D03*
D16*
X206756Y102616D03*
D15*
X223520Y102616D03*
D16*
X236220Y102616D03*
D15*
X245872Y102616D03*
X249936Y102616D03*
X254000Y102616D03*
X158496Y103632D03*
D16*
X166116Y103632D03*
X175260Y103632D03*
D15*
X183896Y103632D03*
X192024Y103632D03*
D16*
X206756Y103632D03*
D15*
X223520Y103632D03*
D16*
X236220Y103632D03*
D15*
X245872Y103632D03*
X249936Y103632D03*
X254000Y103632D03*
X158496Y104648D03*
D16*
X166116Y104648D03*
X175260Y104648D03*
D15*
X183896Y104648D03*
X192024Y104648D03*
X207264Y104648D03*
X223520Y104648D03*
D16*
X236220Y104648D03*
D15*
X245872Y104648D03*
X249936Y104648D03*
X254000Y104648D03*
X158496Y105664D03*
X166624Y105664D03*
D16*
X175260Y105664D03*
D15*
X183896Y105664D03*
X192024Y105664D03*
X207264Y105664D03*
X223520Y105664D03*
D16*
X236220Y105664D03*
D15*
X245872Y105664D03*
X249936Y105664D03*
X254000Y105664D03*
X158496Y106680D03*
X166624Y106680D03*
D16*
X175260Y106680D03*
D15*
X183896Y106680D03*
X192024Y106680D03*
X207264Y106680D03*
X223520Y106680D03*
D16*
X236220Y106680D03*
D15*
X245872Y106680D03*
X249936Y106680D03*
X254000Y106680D03*
X158496Y107696D03*
X166624Y107696D03*
D16*
X175260Y107696D03*
D15*
X183896Y107696D03*
X192024Y107696D03*
X207264Y107696D03*
X223520Y107696D03*
D16*
X236220Y107696D03*
X245364Y107696D03*
D15*
X249936Y107696D03*
X254000Y107696D03*
D16*
X159004Y108712D03*
D15*
X166624Y108712D03*
D16*
X175260Y108712D03*
D15*
X183896Y108712D03*
X192024Y108712D03*
X207264Y108712D03*
X223520Y108712D03*
D16*
X236220Y108712D03*
X245364Y108712D03*
D15*
X249936Y108712D03*
X254000Y108712D03*
D16*
X159004Y109728D03*
D15*
X166624Y109728D03*
D16*
X175260Y109728D03*
D15*
X183896Y109728D03*
X192024Y109728D03*
X207264Y109728D03*
X223520Y109728D03*
D16*
X236220Y109728D03*
X245364Y109728D03*
D15*
X249936Y109728D03*
X254000Y109728D03*
D16*
X159004Y110744D03*
D15*
X166624Y110744D03*
D16*
X175260Y110744D03*
D15*
X183896Y110744D03*
X192024Y110744D03*
X207264Y110744D03*
X223520Y110744D03*
X235712Y110744D03*
D16*
X245364Y110744D03*
D15*
X249936Y110744D03*
X254000Y110744D03*
D16*
X159004Y111760D03*
D15*
X166624Y111760D03*
D16*
X175260Y111760D03*
D15*
X183896Y111760D03*
X192024Y111760D03*
X207264Y111760D03*
X223520Y111760D03*
X235712Y111760D03*
D16*
X245364Y111760D03*
D15*
X249936Y111760D03*
X254000Y111760D03*
D16*
X159004Y112776D03*
D15*
X166624Y112776D03*
D16*
X175260Y112776D03*
D15*
X183896Y112776D03*
X192024Y112776D03*
X207264Y112776D03*
X223520Y112776D03*
X235712Y112776D03*
D16*
X245364Y112776D03*
D15*
X249936Y112776D03*
X254000Y112776D03*
D16*
X159004Y113792D03*
D15*
X166624Y113792D03*
X175768Y113792D03*
X183896Y113792D03*
X192024Y113792D03*
X207264Y113792D03*
X223520Y113792D03*
X235712Y113792D03*
D16*
X245364Y113792D03*
D15*
X249936Y113792D03*
X254000Y113792D03*
D16*
X159004Y114808D03*
D15*
X166624Y114808D03*
X175768Y114808D03*
X183896Y114808D03*
X192024Y114808D03*
X207264Y114808D03*
X223520Y114808D03*
X235712Y114808D03*
D16*
X245364Y114808D03*
D15*
X249936Y114808D03*
X254000Y114808D03*
D16*
X159004Y115824D03*
D15*
X166624Y115824D03*
X175768Y115824D03*
X183896Y115824D03*
X192024Y115824D03*
X207264Y115824D03*
X223520Y115824D03*
X235712Y115824D03*
D16*
X245364Y115824D03*
D15*
X249936Y115824D03*
X254000Y115824D03*
D16*
X159004Y116840D03*
D15*
X166624Y116840D03*
X175768Y116840D03*
X183896Y116840D03*
X192024Y116840D03*
X207264Y116840D03*
X223520Y116840D03*
X235712Y116840D03*
D16*
X245364Y116840D03*
D15*
X249936Y116840D03*
X254000Y116840D03*
D16*
X159004Y117856D03*
D15*
X166624Y117856D03*
X175768Y117856D03*
X183896Y117856D03*
X192024Y117856D03*
X207264Y117856D03*
X223520Y117856D03*
X235712Y117856D03*
D16*
X245364Y117856D03*
D15*
X249936Y117856D03*
X254000Y117856D03*
D16*
X159004Y118872D03*
D15*
X166624Y118872D03*
X175768Y118872D03*
X183896Y118872D03*
X192024Y118872D03*
X207264Y118872D03*
X223520Y118872D03*
X235712Y118872D03*
D16*
X245364Y118872D03*
D26*
X251968Y118872D03*
D16*
X159004Y119888D03*
D15*
X166624Y119888D03*
X175768Y119888D03*
X183896Y119888D03*
X192024Y119888D03*
X207264Y119888D03*
X223520Y119888D03*
X235712Y119888D03*
D16*
X245364Y119888D03*
D26*
X251968Y119888D03*
D15*
X159512Y120904D03*
X166624Y120904D03*
X175768Y120904D03*
X183896Y120904D03*
X192024Y120904D03*
X207264Y120904D03*
X223520Y120904D03*
X235712Y120904D03*
D16*
X245364Y120904D03*
D26*
X251968Y120904D03*
D15*
X159512Y121920D03*
X166624Y121920D03*
X175768Y121920D03*
X183896Y121920D03*
X192024Y121920D03*
X207264Y121920D03*
X223520Y121920D03*
X235712Y121920D03*
D16*
X245364Y121920D03*
D26*
X251968Y121920D03*
D15*
X159512Y122936D03*
X166624Y122936D03*
X175768Y122936D03*
X183896Y122936D03*
X192024Y122936D03*
X207264Y122936D03*
X223520Y122936D03*
X235712Y122936D03*
D16*
X245364Y122936D03*
D26*
X251968Y122936D03*
D15*
X159512Y123952D03*
X166624Y123952D03*
X175768Y123952D03*
X183896Y123952D03*
X192024Y123952D03*
X207264Y123952D03*
X223520Y123952D03*
X235712Y123952D03*
D16*
X245364Y123952D03*
D26*
X251968Y123952D03*
D15*
X159512Y124968D03*
X166624Y124968D03*
X175768Y124968D03*
X183896Y124968D03*
X192024Y124968D03*
X207264Y124968D03*
X223520Y124968D03*
X235712Y124968D03*
D16*
X245364Y124968D03*
D26*
X251968Y124968D03*
D15*
X159512Y125984D03*
X166624Y125984D03*
X175768Y125984D03*
X183896Y125984D03*
X192024Y125984D03*
X207264Y125984D03*
X223520Y125984D03*
X235712Y125984D03*
D35*
X249428Y125984D03*
D15*
X159512Y127000D03*
X166624Y127000D03*
X175768Y127000D03*
X183896Y127000D03*
X192024Y127000D03*
X207264Y127000D03*
X223520Y127000D03*
X235712Y127000D03*
X244856Y127000D03*
D23*
X251460Y127000D03*
D15*
X159512Y128016D03*
X166624Y128016D03*
X175768Y128016D03*
X183896Y128016D03*
X192024Y128016D03*
X207264Y128016D03*
X223520Y128016D03*
X235712Y128016D03*
X244856Y128016D03*
D23*
X251460Y128016D03*
D15*
X159512Y129032D03*
X166624Y129032D03*
X175768Y129032D03*
X183896Y129032D03*
D16*
X192532Y129032D03*
D15*
X207264Y129032D03*
X223520Y129032D03*
X235712Y129032D03*
X244856Y129032D03*
D23*
X251460Y129032D03*
D15*
X159512Y130048D03*
X166624Y130048D03*
X175768Y130048D03*
D16*
X184404Y130048D03*
X192532Y130048D03*
D15*
X207264Y130048D03*
X223520Y130048D03*
X235712Y130048D03*
X244856Y130048D03*
D26*
X250952Y130048D03*
D15*
X159512Y131064D03*
X166624Y131064D03*
X175768Y131064D03*
D16*
X184404Y131064D03*
X192532Y131064D03*
D15*
X207264Y131064D03*
X223520Y131064D03*
X235712Y131064D03*
X244856Y131064D03*
D26*
X250952Y131064D03*
D15*
X159512Y132080D03*
X166624Y132080D03*
X175768Y132080D03*
D16*
X184404Y132080D03*
X192532Y132080D03*
D15*
X207264Y132080D03*
X223520Y132080D03*
X235712Y132080D03*
X244856Y132080D03*
D26*
X250952Y132080D03*
D15*
X159512Y133096D03*
X166624Y133096D03*
X175768Y133096D03*
D16*
X184404Y133096D03*
X192532Y133096D03*
D15*
X207264Y133096D03*
X223520Y133096D03*
X235712Y133096D03*
X244856Y133096D03*
D26*
X250952Y133096D03*
D15*
X159512Y134112D03*
X166624Y134112D03*
X175768Y134112D03*
D16*
X184404Y134112D03*
X192532Y134112D03*
D15*
X207264Y134112D03*
X223520Y134112D03*
X235712Y134112D03*
X244856Y134112D03*
D26*
X250952Y134112D03*
D15*
X159512Y135128D03*
X166624Y135128D03*
X175768Y135128D03*
D16*
X184404Y135128D03*
X192532Y135128D03*
D15*
X207264Y135128D03*
X223520Y135128D03*
X235712Y135128D03*
X244856Y135128D03*
D26*
X250952Y135128D03*
D15*
X159512Y136144D03*
X166624Y136144D03*
X175768Y136144D03*
D16*
X184404Y136144D03*
X192532Y136144D03*
D15*
X207264Y136144D03*
X223520Y136144D03*
X235712Y136144D03*
X244856Y136144D03*
D26*
X250952Y136144D03*
D15*
X159512Y137160D03*
X166624Y137160D03*
X175768Y137160D03*
D16*
X184404Y137160D03*
X192532Y137160D03*
D15*
X207264Y137160D03*
D16*
X224028Y137160D03*
D15*
X235712Y137160D03*
X244856Y137160D03*
D26*
X250952Y137160D03*
D15*
X159512Y138176D03*
X166624Y138176D03*
X175768Y138176D03*
D16*
X184404Y138176D03*
X192532Y138176D03*
D15*
X207264Y138176D03*
D16*
X224028Y138176D03*
D15*
X235712Y138176D03*
X244856Y138176D03*
X248920Y138176D03*
X252984Y138176D03*
X159512Y139192D03*
X166624Y139192D03*
X175768Y139192D03*
D16*
X184404Y139192D03*
X192532Y139192D03*
D15*
X207264Y139192D03*
D16*
X224028Y139192D03*
D15*
X235712Y139192D03*
X244856Y139192D03*
X248920Y139192D03*
X252984Y139192D03*
X159512Y140208D03*
X166624Y140208D03*
X175768Y140208D03*
D16*
X184404Y140208D03*
D15*
X193040Y140208D03*
X207264Y140208D03*
D16*
X224028Y140208D03*
D15*
X235712Y140208D03*
X244856Y140208D03*
X248920Y140208D03*
X252984Y140208D03*
X159512Y141224D03*
X166624Y141224D03*
X175768Y141224D03*
D16*
X184404Y141224D03*
D15*
X193040Y141224D03*
X207264Y141224D03*
D16*
X224028Y141224D03*
D15*
X235712Y141224D03*
X244856Y141224D03*
X248920Y141224D03*
X252984Y141224D03*
X159512Y142240D03*
X166624Y142240D03*
X175768Y142240D03*
X184912Y142240D03*
X193040Y142240D03*
X207264Y142240D03*
D16*
X224028Y142240D03*
D15*
X235712Y142240D03*
X244856Y142240D03*
X248920Y142240D03*
X252984Y142240D03*
X159512Y143256D03*
D16*
X167132Y143256D03*
D15*
X175768Y143256D03*
X184912Y143256D03*
X193040Y143256D03*
X207264Y143256D03*
D16*
X224028Y143256D03*
D15*
X235712Y143256D03*
X244856Y143256D03*
X248920Y143256D03*
X252984Y143256D03*
X159512Y144272D03*
D16*
X167132Y144272D03*
D15*
X175768Y144272D03*
X184912Y144272D03*
X193040Y144272D03*
X207264Y144272D03*
D16*
X224028Y144272D03*
D15*
X235712Y144272D03*
X244856Y144272D03*
X248920Y144272D03*
X252984Y144272D03*
X159512Y145288D03*
D16*
X167132Y145288D03*
D15*
X175768Y145288D03*
X184912Y145288D03*
X193040Y145288D03*
X207264Y145288D03*
D16*
X224028Y145288D03*
D15*
X235712Y145288D03*
X244856Y145288D03*
X248920Y145288D03*
X252984Y145288D03*
X159512Y146304D03*
D16*
X167132Y146304D03*
D15*
X175768Y146304D03*
X184912Y146304D03*
X193040Y146304D03*
X207264Y146304D03*
D16*
X224028Y146304D03*
D15*
X235712Y146304D03*
X244856Y146304D03*
X248920Y146304D03*
X252984Y146304D03*
X159512Y147320D03*
D16*
X167132Y147320D03*
D15*
X175768Y147320D03*
X184912Y147320D03*
X193040Y147320D03*
X207264Y147320D03*
D16*
X224028Y147320D03*
X236220Y147320D03*
D15*
X244856Y147320D03*
D26*
X250952Y147320D03*
D15*
X159512Y148336D03*
D16*
X167132Y148336D03*
X175260Y148336D03*
D15*
X184912Y148336D03*
X193040Y148336D03*
X207264Y148336D03*
D16*
X224028Y148336D03*
X236220Y148336D03*
X245364Y148336D03*
D26*
X251968Y148336D03*
D15*
X159512Y149352D03*
X166624Y149352D03*
X174752Y149352D03*
X184912Y149352D03*
X193040Y149352D03*
X207264Y149352D03*
X224536Y149352D03*
X236728Y149352D03*
X245872Y149352D03*
D26*
X251968Y149352D03*
D15*
X159512Y150368D03*
X166624Y150368D03*
X174752Y150368D03*
D16*
X184404Y150368D03*
D15*
X193040Y150368D03*
X207264Y150368D03*
X224536Y150368D03*
X236728Y150368D03*
X245872Y150368D03*
D26*
X252984Y150368D03*
D16*
X159004Y151384D03*
X166116Y151384D03*
D15*
X174752Y151384D03*
X183896Y151384D03*
X193040Y151384D03*
X207264Y151384D03*
X224536Y151384D03*
X236728Y151384D03*
X245872Y151384D03*
D23*
X253492Y151384D03*
D15*
X158496Y152400D03*
X165608Y152400D03*
X174752Y152400D03*
X183896Y152400D03*
D16*
X192532Y152400D03*
D15*
X207264Y152400D03*
X224536Y152400D03*
X236728Y152400D03*
X246888Y152400D03*
D23*
X253492Y152400D03*
D16*
X157988Y153416D03*
D15*
X165608Y153416D03*
D16*
X174244Y153416D03*
D15*
X183896Y153416D03*
X192024Y153416D03*
X207264Y153416D03*
X224536Y153416D03*
X236728Y153416D03*
X246888Y153416D03*
X251968Y153416D03*
D16*
X256540Y153416D03*
D15*
X157480Y154432D03*
D16*
X165100Y154432D03*
D15*
X173736Y154432D03*
X183896Y154432D03*
X192024Y154432D03*
X207264Y154432D03*
X224536Y154432D03*
X236728Y154432D03*
X246888Y154432D03*
D16*
X252476Y154432D03*
D15*
X257048Y154432D03*
X157480Y155448D03*
X164592Y155448D03*
X173736Y155448D03*
D16*
X183388Y155448D03*
D15*
X192024Y155448D03*
X207264Y155448D03*
X224536Y155448D03*
D16*
X237236Y155448D03*
X247396Y155448D03*
D15*
X252984Y155448D03*
D16*
X257556Y155448D03*
X156972Y156464D03*
D15*
X164592Y156464D03*
X173736Y156464D03*
X182880Y156464D03*
X192024Y156464D03*
X207264Y156464D03*
X224536Y156464D03*
D16*
X237236Y156464D03*
D15*
X247904Y156464D03*
D16*
X253492Y156464D03*
X258572Y156464D03*
D15*
X156464Y157480D03*
D16*
X164084Y157480D03*
X173228Y157480D03*
D15*
X182880Y157480D03*
X192024Y157480D03*
X207264Y157480D03*
X224536Y157480D03*
X237744Y157480D03*
X247904Y157480D03*
X254000Y157480D03*
X259080Y157480D03*
D16*
X155956Y158496D03*
D15*
X163576Y158496D03*
X172720Y158496D03*
X182880Y158496D03*
D16*
X191516Y158496D03*
D15*
X207264Y158496D03*
X224536Y158496D03*
X237744Y158496D03*
X247904Y158496D03*
D16*
X254508Y158496D03*
X259588Y158496D03*
D15*
X155448Y159512D03*
X163576Y159512D03*
X172720Y159512D03*
X182880Y159512D03*
D16*
X191516Y159512D03*
D15*
X207264Y159512D03*
X224536Y159512D03*
X237744Y159512D03*
D16*
X248412Y159512D03*
D15*
X255016Y159512D03*
D16*
X260604Y159512D03*
X154940Y160528D03*
X163068Y160528D03*
D15*
X172720Y160528D03*
D16*
X182372Y160528D03*
D15*
X191008Y160528D03*
X207264Y160528D03*
X224536Y160528D03*
X237744Y160528D03*
X248920Y160528D03*
D16*
X255524Y160528D03*
D15*
X261112Y160528D03*
X154432Y161544D03*
X162560Y161544D03*
D16*
X172212Y161544D03*
D15*
X181864Y161544D03*
X191008Y161544D03*
X207264Y161544D03*
X224536Y161544D03*
X237744Y161544D03*
X248920Y161544D03*
X256032Y161544D03*
D16*
X261620Y161544D03*
D15*
X154432Y162560D03*
X162560Y162560D03*
X171704Y162560D03*
X181864Y162560D03*
X191008Y162560D03*
X207264Y162560D03*
X224536Y162560D03*
X237744Y162560D03*
X248920Y162560D03*
X256032Y162560D03*
D16*
X262636Y162560D03*
X153924Y163576D03*
X162052Y163576D03*
D15*
X171704Y163576D03*
X181864Y163576D03*
X191008Y163576D03*
X207264Y163576D03*
X224536Y163576D03*
D16*
X238252Y163576D03*
D15*
X249936Y163576D03*
D16*
X256540Y163576D03*
D15*
X263144Y163576D03*
X153416Y164592D03*
X161544Y164592D03*
X171704Y164592D03*
X181864Y164592D03*
X191008Y164592D03*
X207264Y164592D03*
X224536Y164592D03*
D16*
X238252Y164592D03*
D15*
X249936Y164592D03*
X257048Y164592D03*
D16*
X263652Y164592D03*
X152908Y165608D03*
D15*
X161544Y165608D03*
X171704Y165608D03*
D16*
X181356Y165608D03*
X190500Y165608D03*
D15*
X207264Y165608D03*
X224536Y165608D03*
X238760Y165608D03*
X249936Y165608D03*
D16*
X257556Y165608D03*
X264668Y165608D03*
D15*
X152400Y166624D03*
D16*
X161036Y166624D03*
X171196Y166624D03*
D15*
X180848Y166624D03*
X189992Y166624D03*
D16*
X206756Y166624D03*
D15*
X224536Y166624D03*
X238760Y166624D03*
D16*
X250444Y166624D03*
D15*
X258064Y166624D03*
X265176Y166624D03*
X152400Y167640D03*
X160528Y167640D03*
X170688Y167640D03*
X180848Y167640D03*
X189992Y167640D03*
D16*
X206756Y167640D03*
D15*
X224536Y167640D03*
X238760Y167640D03*
X250952Y167640D03*
D16*
X258572Y167640D03*
X265684Y167640D03*
D15*
X151384Y168656D03*
X160528Y168656D03*
X170688Y168656D03*
X180848Y168656D03*
X189992Y168656D03*
D16*
X206756Y168656D03*
D15*
X224536Y168656D03*
X238760Y168656D03*
X250952Y168656D03*
X259080Y168656D03*
D16*
X266700Y168656D03*
D15*
X151384Y169672D03*
D16*
X160020Y169672D03*
D15*
X170688Y169672D03*
D16*
X180340Y169672D03*
D15*
X189992Y169672D03*
D16*
X206756Y169672D03*
D15*
X224536Y169672D03*
X238760Y169672D03*
X250952Y169672D03*
D16*
X259588Y169672D03*
X266700Y169672D03*
X150876Y170688D03*
D15*
X159512Y170688D03*
D16*
X170180Y170688D03*
D15*
X179832Y170688D03*
X189992Y170688D03*
D16*
X206756Y170688D03*
D15*
X224536Y170688D03*
X238760Y170688D03*
D16*
X251460Y170688D03*
D15*
X260096Y170688D03*
D16*
X267716Y170688D03*
D15*
X150368Y171704D03*
X159512Y171704D03*
X169672Y171704D03*
X179832Y171704D03*
X189992Y171704D03*
X206248Y171704D03*
X224536Y171704D03*
D16*
X239268Y171704D03*
D15*
X251968Y171704D03*
X260096Y171704D03*
D16*
X268732Y171704D03*
X149860Y172720D03*
X159004Y172720D03*
D15*
X169672Y172720D03*
X179832Y172720D03*
D16*
X189484Y172720D03*
D15*
X206248Y172720D03*
X224536Y172720D03*
D16*
X239268Y172720D03*
D15*
X251968Y172720D03*
D16*
X260604Y172720D03*
X268732Y172720D03*
D15*
X149352Y173736D03*
X158496Y173736D03*
X169672Y173736D03*
X179832Y173736D03*
X188976Y173736D03*
X206248Y173736D03*
X224536Y173736D03*
X239776Y173736D03*
X251968Y173736D03*
X261112Y173736D03*
D16*
X269748Y173736D03*
D15*
X149352Y174752D03*
X158496Y174752D03*
X169672Y174752D03*
D16*
X179324Y174752D03*
D15*
X188976Y174752D03*
X206248Y174752D03*
X224536Y174752D03*
X239776Y174752D03*
D16*
X252476Y174752D03*
X261620Y174752D03*
X270764Y174752D03*
X148844Y175768D03*
X157988Y175768D03*
X169164Y175768D03*
D15*
X178816Y175768D03*
X188976Y175768D03*
X206248Y175768D03*
X224536Y175768D03*
X239776Y175768D03*
X252984Y175768D03*
X262128Y175768D03*
D16*
X270764Y175768D03*
D15*
X148336Y176784D03*
X157480Y176784D03*
X168656Y176784D03*
X178816Y176784D03*
X188976Y176784D03*
X206248Y176784D03*
X224536Y176784D03*
X239776Y176784D03*
X252984Y176784D03*
D16*
X262636Y176784D03*
X271780Y176784D03*
X147828Y177800D03*
D15*
X157480Y177800D03*
X168656Y177800D03*
X178816Y177800D03*
X188976Y177800D03*
X206248Y177800D03*
X224536Y177800D03*
X239776Y177800D03*
D16*
X253492Y177800D03*
D15*
X263144Y177800D03*
X272288Y177800D03*
X147320Y178816D03*
D16*
X156972Y178816D03*
D15*
X168656Y178816D03*
X178816Y178816D03*
D16*
X188468Y178816D03*
D15*
X206248Y178816D03*
X224536Y178816D03*
X239776Y178816D03*
X254000Y178816D03*
D16*
X263652Y178816D03*
X272796Y178816D03*
X146812Y179832D03*
D15*
X156464Y179832D03*
D16*
X168148Y179832D03*
X178308Y179832D03*
X188468Y179832D03*
D15*
X206248Y179832D03*
X224536Y179832D03*
D16*
X240284Y179832D03*
D15*
X254000Y179832D03*
X264160Y179832D03*
D16*
X273812Y179832D03*
D15*
X146304Y180848D03*
X156464Y180848D03*
X167640Y180848D03*
X177800Y180848D03*
X187960Y180848D03*
X206248Y180848D03*
X224536Y180848D03*
D16*
X240284Y180848D03*
D15*
X254000Y180848D03*
X264160Y180848D03*
X274320Y180848D03*
X146304Y181864D03*
D16*
X155956Y181864D03*
D15*
X167640Y181864D03*
X177800Y181864D03*
X187960Y181864D03*
X206248Y181864D03*
X224536Y181864D03*
X240792Y181864D03*
D16*
X254508Y181864D03*
X264668Y181864D03*
X274828Y181864D03*
X145796Y182880D03*
D15*
X155448Y182880D03*
X167640Y182880D03*
X177800Y182880D03*
X187960Y182880D03*
X206248Y182880D03*
X224536Y182880D03*
X240792Y182880D03*
X255016Y182880D03*
X265176Y182880D03*
D16*
X275844Y182880D03*
D15*
X145288Y183896D03*
X155448Y183896D03*
D16*
X167132Y183896D03*
X177292Y183896D03*
D15*
X187960Y183896D03*
X206248Y183896D03*
X224536Y183896D03*
X240792Y183896D03*
X255016Y183896D03*
D16*
X265684Y183896D03*
D15*
X276352Y183896D03*
D16*
X144780Y184912D03*
X154940Y184912D03*
D15*
X166624Y184912D03*
X176784Y184912D03*
X187960Y184912D03*
X206248Y184912D03*
X224536Y184912D03*
X240792Y184912D03*
X255016Y184912D03*
X266192Y184912D03*
D16*
X276860Y184912D03*
D15*
X144272Y185928D03*
X154432Y185928D03*
X166624Y185928D03*
X176784Y185928D03*
D16*
X187452Y185928D03*
D15*
X206248Y185928D03*
X224536Y185928D03*
X240792Y185928D03*
D16*
X255524Y185928D03*
X266700Y185928D03*
X277876Y185928D03*
D15*
X144272Y186944D03*
X154432Y186944D03*
X166624Y186944D03*
X176784Y186944D03*
D16*
X187452Y186944D03*
D15*
X206248Y186944D03*
X224536Y186944D03*
X240792Y186944D03*
X256032Y186944D03*
X267208Y186944D03*
X278384Y186944D03*
X143256Y187960D03*
D16*
X153924Y187960D03*
D15*
X166624Y187960D03*
X176784Y187960D03*
X186944Y187960D03*
D16*
X205740Y187960D03*
D15*
X224536Y187960D03*
D16*
X241300Y187960D03*
D15*
X256032Y187960D03*
D16*
X267716Y187960D03*
X278892Y187960D03*
D15*
X143256Y188976D03*
X153416Y188976D03*
D16*
X166116Y188976D03*
X176276Y188976D03*
D15*
X186944Y188976D03*
D16*
X205740Y188976D03*
D15*
X224536Y188976D03*
D16*
X241300Y188976D03*
D15*
X256032Y188976D03*
X268224Y188976D03*
D16*
X279908Y188976D03*
X142748Y189992D03*
D15*
X153416Y189992D03*
X165608Y189992D03*
X175768Y189992D03*
X186944Y189992D03*
D16*
X205740Y189992D03*
D15*
X224536Y189992D03*
X241808Y189992D03*
X257048Y189992D03*
X268224Y189992D03*
X280416Y189992D03*
X142240Y191008D03*
D16*
X152908Y191008D03*
D15*
X165608Y191008D03*
X175768Y191008D03*
X186944Y191008D03*
D16*
X205740Y191008D03*
D15*
X224536Y191008D03*
X241808Y191008D03*
X257048Y191008D03*
D16*
X268732Y191008D03*
X280924Y191008D03*
X141732Y192024D03*
D15*
X152400Y192024D03*
X165608Y192024D03*
X175768Y192024D03*
X186944Y192024D03*
D16*
X205740Y192024D03*
D15*
X224536Y192024D03*
X241808Y192024D03*
X257048Y192024D03*
X269240Y192024D03*
D16*
X281940Y192024D03*
D15*
X141224Y193040D03*
X152400Y193040D03*
D16*
X165100Y193040D03*
D15*
X175768Y193040D03*
D16*
X186436Y193040D03*
D15*
X205232Y193040D03*
X224536Y193040D03*
X241808Y193040D03*
D16*
X257556Y193040D03*
X269748Y193040D03*
X281940Y193040D03*
D15*
X141224Y194056D03*
D16*
X151892Y194056D03*
D15*
X164592Y194056D03*
D16*
X175260Y194056D03*
D15*
X185928Y194056D03*
X205232Y194056D03*
X224536Y194056D03*
X241808Y194056D03*
X258064Y194056D03*
X270256Y194056D03*
D16*
X282956Y194056D03*
X140716Y195072D03*
D15*
X151384Y195072D03*
X164592Y195072D03*
X174752Y195072D03*
X185928Y195072D03*
X205232Y195072D03*
X224536Y195072D03*
X241808Y195072D03*
X258064Y195072D03*
D16*
X270764Y195072D03*
X283972Y195072D03*
D15*
X140208Y196088D03*
X151384Y196088D03*
X164592Y196088D03*
X174752Y196088D03*
X185928Y196088D03*
X205232Y196088D03*
X224536Y196088D03*
D16*
X242316Y196088D03*
D15*
X258064Y196088D03*
X271272Y196088D03*
D16*
X283972Y196088D03*
X139700Y197104D03*
X150876Y197104D03*
D15*
X164592Y197104D03*
X174752Y197104D03*
X185928Y197104D03*
X205232Y197104D03*
X224536Y197104D03*
D16*
X242316Y197104D03*
X258572Y197104D03*
X271780Y197104D03*
X284988Y197104D03*
D15*
X139192Y198120D03*
X150368Y198120D03*
D16*
X164084Y198120D03*
X174244Y198120D03*
D15*
X185928Y198120D03*
X205232Y198120D03*
X224536Y198120D03*
X242824Y198120D03*
X259080Y198120D03*
X272288Y198120D03*
D16*
X286004Y198120D03*
X138684Y199136D03*
D15*
X150368Y199136D03*
X163576Y199136D03*
X173736Y199136D03*
X185928Y199136D03*
X205232Y199136D03*
X224536Y199136D03*
X242824Y199136D03*
X259080Y199136D03*
X272288Y199136D03*
D16*
X286004Y199136D03*
D15*
X138176Y200152D03*
D16*
X149860Y200152D03*
D15*
X163576Y200152D03*
X173736Y200152D03*
D16*
X185420Y200152D03*
D15*
X205232Y200152D03*
X224536Y200152D03*
X242824Y200152D03*
X259080Y200152D03*
D16*
X272796Y200152D03*
X287020Y200152D03*
D15*
X138176Y201168D03*
X149352Y201168D03*
X163576Y201168D03*
X173736Y201168D03*
X184912Y201168D03*
X205232Y201168D03*
X224536Y201168D03*
X242824Y201168D03*
X260096Y201168D03*
X273304Y201168D03*
D16*
X288036Y201168D03*
X137668Y202184D03*
D15*
X149352Y202184D03*
D16*
X163068Y202184D03*
D15*
X173736Y202184D03*
X184912Y202184D03*
X205232Y202184D03*
X224536Y202184D03*
X242824Y202184D03*
X260096Y202184D03*
D16*
X273812Y202184D03*
X288036Y202184D03*
D15*
X137160Y203200D03*
D16*
X148844Y203200D03*
D15*
X162560Y203200D03*
D16*
X173228Y203200D03*
D15*
X184912Y203200D03*
X205232Y203200D03*
X224536Y203200D03*
X242824Y203200D03*
X260096Y203200D03*
X274320Y203200D03*
D16*
X289052Y203200D03*
X136652Y204216D03*
D15*
X148336Y204216D03*
X162560Y204216D03*
X172720Y204216D03*
X184912Y204216D03*
X205232Y204216D03*
X224536Y204216D03*
D16*
X243332Y204216D03*
X260604Y204216D03*
X274828Y204216D03*
D15*
X289560Y204216D03*
X136144Y205232D03*
X148336Y205232D03*
X162560Y205232D03*
X172720Y205232D03*
X184912Y205232D03*
X205232Y205232D03*
X224536Y205232D03*
D16*
X243332Y205232D03*
D15*
X261112Y205232D03*
X275336Y205232D03*
D16*
X290068Y205232D03*
D15*
X136144Y206248D03*
D16*
X147828Y206248D03*
D15*
X162560Y206248D03*
X172720Y206248D03*
D16*
X184404Y206248D03*
D15*
X205232Y206248D03*
X224536Y206248D03*
X243840Y206248D03*
X261112Y206248D03*
D16*
X275844Y206248D03*
X291084Y206248D03*
X135636Y207264D03*
D15*
X147320Y207264D03*
X161544Y207264D03*
X172720Y207264D03*
D16*
X184404Y207264D03*
D15*
X205232Y207264D03*
X224536Y207264D03*
X243840Y207264D03*
X261112Y207264D03*
X276352Y207264D03*
X291592Y207264D03*
X135128Y208280D03*
X147320Y208280D03*
X161544Y208280D03*
D16*
X172212Y208280D03*
D15*
X183896Y208280D03*
D16*
X204724Y208280D03*
D15*
X224536Y208280D03*
X243840Y208280D03*
D16*
X261620Y208280D03*
D15*
X276352Y208280D03*
D16*
X292100Y208280D03*
X134620Y209296D03*
X146812Y209296D03*
D15*
X161544Y209296D03*
X171704Y209296D03*
X183896Y209296D03*
D16*
X204724Y209296D03*
D15*
X224536Y209296D03*
X243840Y209296D03*
X262128Y209296D03*
D16*
X276860Y209296D03*
X293116Y209296D03*
D15*
X134112Y210312D03*
X146304Y210312D03*
X161544Y210312D03*
X171704Y210312D03*
X183896Y210312D03*
D16*
X204724Y210312D03*
D15*
X224536Y210312D03*
X243840Y210312D03*
X262128Y210312D03*
X277368Y210312D03*
X293624Y210312D03*
D16*
X133604Y211328D03*
D15*
X146304Y211328D03*
D16*
X161036Y211328D03*
D15*
X171704Y211328D03*
X183896Y211328D03*
D16*
X204724Y211328D03*
D15*
X224536Y211328D03*
X243840Y211328D03*
X262128Y211328D03*
D16*
X277876Y211328D03*
X294132Y211328D03*
D15*
X133096Y212344D03*
D16*
X145796Y212344D03*
D15*
X160528Y212344D03*
D16*
X171196Y212344D03*
D15*
X183896Y212344D03*
D16*
X204724Y212344D03*
D15*
X224536Y212344D03*
D16*
X244348Y212344D03*
X262636Y212344D03*
D15*
X278384Y212344D03*
D16*
X295148Y212344D03*
D15*
X133096Y213360D03*
X145288Y213360D03*
X160528Y213360D03*
X170688Y213360D03*
D16*
X183388Y213360D03*
D15*
X204216Y213360D03*
X224536Y213360D03*
D16*
X244348Y213360D03*
D15*
X263144Y213360D03*
D16*
X278892Y213360D03*
D15*
X295656Y213360D03*
D16*
X132588Y214376D03*
D15*
X145288Y214376D03*
X160528Y214376D03*
X170688Y214376D03*
X182880Y214376D03*
X204216Y214376D03*
X224536Y214376D03*
X244856Y214376D03*
X263144Y214376D03*
X279400Y214376D03*
D16*
X296164Y214376D03*
D15*
X132080Y215392D03*
D16*
X144780Y215392D03*
X160020Y215392D03*
D15*
X170688Y215392D03*
X182880Y215392D03*
X204216Y215392D03*
X224536Y215392D03*
X244856Y215392D03*
D16*
X263652Y215392D03*
X279908Y215392D03*
X297180Y215392D03*
X131572Y216408D03*
D15*
X144272Y216408D03*
X159512Y216408D03*
X170688Y216408D03*
X182880Y216408D03*
X204216Y216408D03*
X224536Y216408D03*
X244856Y216408D03*
X264160Y216408D03*
X280416Y216408D03*
X297688Y216408D03*
X131064Y217424D03*
X144272Y217424D03*
X159512Y217424D03*
D16*
X170180Y217424D03*
D15*
X182880Y217424D03*
X204216Y217424D03*
X224536Y217424D03*
X244856Y217424D03*
X264160Y217424D03*
D16*
X280924Y217424D03*
X298196Y217424D03*
X130556Y218440D03*
X143764Y218440D03*
D15*
X159512Y218440D03*
X169672Y218440D03*
X182880Y218440D03*
X204216Y218440D03*
X224536Y218440D03*
X244856Y218440D03*
X264160Y218440D03*
X281432Y218440D03*
D16*
X299212Y218440D03*
D15*
X130048Y219456D03*
X143256Y219456D03*
X159512Y219456D03*
X169672Y219456D03*
X182880Y219456D03*
X204216Y219456D03*
X224536Y219456D03*
X244856Y219456D03*
D16*
X264668Y219456D03*
D15*
X281432Y219456D03*
D16*
X299212Y219456D03*
D15*
X130048Y220472D03*
X143256Y220472D03*
D16*
X159004Y220472D03*
D15*
X169672Y220472D03*
D16*
X182372Y220472D03*
D15*
X204216Y220472D03*
X224536Y220472D03*
D16*
X245364Y220472D03*
D15*
X265176Y220472D03*
D16*
X281940Y220472D03*
X300228Y220472D03*
X129540Y221488D03*
X142748Y221488D03*
D15*
X158496Y221488D03*
D16*
X169164Y221488D03*
D15*
X181864Y221488D03*
X204216Y221488D03*
X224536Y221488D03*
D16*
X245364Y221488D03*
D15*
X265176Y221488D03*
X282448Y221488D03*
D16*
X301244Y221488D03*
D15*
X129032Y222504D03*
X142240Y222504D03*
X158496Y222504D03*
X168656Y222504D03*
X181864Y222504D03*
X204216Y222504D03*
X224536Y222504D03*
X245872Y222504D03*
X265176Y222504D03*
D16*
X282956Y222504D03*
X301244Y222504D03*
X128524Y223520D03*
D15*
X142240Y223520D03*
X158496Y223520D03*
X168656Y223520D03*
X181864Y223520D03*
X204216Y223520D03*
X224536Y223520D03*
X245872Y223520D03*
D16*
X265684Y223520D03*
D15*
X283464Y223520D03*
D16*
X302260Y223520D03*
D15*
X128016Y224536D03*
D16*
X141732Y224536D03*
X157988Y224536D03*
D15*
X168656Y224536D03*
X181864Y224536D03*
X204216Y224536D03*
X224536Y224536D03*
X245872Y224536D03*
X266192Y224536D03*
D16*
X283972Y224536D03*
X303276Y224536D03*
D15*
X128016Y225552D03*
X141224Y225552D03*
X157480Y225552D03*
X168656Y225552D03*
X181864Y225552D03*
X204216Y225552D03*
X224536Y225552D03*
X245872Y225552D03*
X266192Y225552D03*
X284480Y225552D03*
D16*
X303276Y225552D03*
X127508Y226568D03*
D15*
X141224Y226568D03*
X157480Y226568D03*
D16*
X168148Y226568D03*
X181356Y226568D03*
D15*
X204216Y226568D03*
X224536Y226568D03*
X245872Y226568D03*
X266192Y226568D03*
D16*
X284988Y226568D03*
X304292Y226568D03*
D15*
X127000Y227584D03*
D16*
X140716Y227584D03*
D15*
X157480Y227584D03*
X167640Y227584D03*
D16*
X181356Y227584D03*
D15*
X204216Y227584D03*
X224536Y227584D03*
X245872Y227584D03*
X267208Y227584D03*
X285496Y227584D03*
X304800Y227584D03*
D16*
X126492Y228600D03*
D15*
X140208Y228600D03*
X157480Y228600D03*
X167640Y228600D03*
X180848Y228600D03*
D16*
X203708Y228600D03*
D15*
X224536Y228600D03*
D16*
X246380Y228600D03*
D15*
X267208Y228600D03*
X285496Y228600D03*
D16*
X305308Y228600D03*
D15*
X125984Y229616D03*
X140208Y229616D03*
X156464Y229616D03*
X167640Y229616D03*
X180848Y229616D03*
D16*
X203708Y229616D03*
D15*
X224536Y229616D03*
D16*
X246380Y229616D03*
D15*
X267208Y229616D03*
D16*
X286004Y229616D03*
X306324Y229616D03*
X125476Y230632D03*
X139700Y230632D03*
D15*
X156464Y230632D03*
X167640Y230632D03*
X180848Y230632D03*
D16*
X203708Y230632D03*
D15*
X224536Y230632D03*
X246888Y230632D03*
D16*
X267716Y230632D03*
D15*
X286512Y230632D03*
X306832Y230632D03*
X124968Y231648D03*
X139192Y231648D03*
X156464Y231648D03*
D16*
X167132Y231648D03*
D15*
X180848Y231648D03*
D16*
X203708Y231648D03*
D15*
X224536Y231648D03*
X246888Y231648D03*
X268224Y231648D03*
D16*
X287020Y231648D03*
X307340Y231648D03*
D15*
X124968Y232664D03*
X139192Y232664D03*
X156464Y232664D03*
X166624Y232664D03*
X180848Y232664D03*
X203200Y232664D03*
X224536Y232664D03*
X246888Y232664D03*
X268224Y232664D03*
X287528Y232664D03*
D16*
X308356Y232664D03*
X124460Y233680D03*
X138684Y233680D03*
X155956Y233680D03*
D15*
X166624Y233680D03*
D16*
X180340Y233680D03*
D15*
X203200Y233680D03*
X224536Y233680D03*
X246888Y233680D03*
X268224Y233680D03*
D16*
X288036Y233680D03*
D15*
X308864Y233680D03*
X123952Y234696D03*
X138176Y234696D03*
X155448Y234696D03*
X166624Y234696D03*
X179832Y234696D03*
X203200Y234696D03*
X224536Y234696D03*
X246888Y234696D03*
D16*
X268732Y234696D03*
D15*
X288544Y234696D03*
D16*
X309372Y234696D03*
X123444Y235712D03*
D15*
X138176Y235712D03*
X155448Y235712D03*
D16*
X166116Y235712D03*
D15*
X179832Y235712D03*
X203200Y235712D03*
X224536Y235712D03*
X246888Y235712D03*
X269240Y235712D03*
D16*
X289052Y235712D03*
X310388Y235712D03*
D15*
X122936Y236728D03*
D16*
X137668Y236728D03*
D15*
X155448Y236728D03*
X165608Y236728D03*
X179832Y236728D03*
X203200Y236728D03*
X224536Y236728D03*
D16*
X247396Y236728D03*
D15*
X269240Y236728D03*
X289560Y236728D03*
X310896Y236728D03*
D16*
X122428Y237744D03*
D15*
X137160Y237744D03*
D16*
X154940Y237744D03*
D15*
X165608Y237744D03*
X179832Y237744D03*
X203200Y237744D03*
X224536Y237744D03*
D16*
X247396Y237744D03*
D15*
X269240Y237744D03*
X289560Y237744D03*
D16*
X311404Y237744D03*
D15*
X121920Y238760D03*
X137160Y238760D03*
X154432Y238760D03*
X165608Y238760D03*
X179832Y238760D03*
X203200Y238760D03*
X224536Y238760D03*
X247904Y238760D03*
X270256Y238760D03*
D16*
X290068Y238760D03*
X312420Y238760D03*
D15*
X121920Y239776D03*
D16*
X136652Y239776D03*
D15*
X154432Y239776D03*
X165608Y239776D03*
X179832Y239776D03*
X203200Y239776D03*
X224536Y239776D03*
X247904Y239776D03*
X270256Y239776D03*
X290576Y239776D03*
X312928Y239776D03*
D16*
X121412Y240792D03*
D15*
X136144Y240792D03*
X154432Y240792D03*
D16*
X165100Y240792D03*
X179324Y240792D03*
D15*
X203200Y240792D03*
X224536Y240792D03*
X247904Y240792D03*
X270256Y240792D03*
D16*
X291084Y240792D03*
X313436Y240792D03*
D15*
X120904Y241808D03*
X136144Y241808D03*
X154432Y241808D03*
X164592Y241808D03*
X178816Y241808D03*
X203200Y241808D03*
X224536Y241808D03*
X247904Y241808D03*
D16*
X270764Y241808D03*
D15*
X291592Y241808D03*
D16*
X314452Y241808D03*
X120396Y242824D03*
X135636Y242824D03*
X153924Y242824D03*
D15*
X164592Y242824D03*
X178816Y242824D03*
X203200Y242824D03*
X224536Y242824D03*
X247904Y242824D03*
X271272Y242824D03*
D16*
X292100Y242824D03*
X314452Y242824D03*
D15*
X119888Y243840D03*
X135128Y243840D03*
X153416Y243840D03*
X164592Y243840D03*
X178816Y243840D03*
X203200Y243840D03*
X224536Y243840D03*
X247904Y243840D03*
X271272Y243840D03*
X292608Y243840D03*
D16*
X315468Y243840D03*
D15*
X119888Y244856D03*
X135128Y244856D03*
X153416Y244856D03*
X164592Y244856D03*
X178816Y244856D03*
X203200Y244856D03*
X224536Y244856D03*
D16*
X248412Y244856D03*
D15*
X271272Y244856D03*
D16*
X293116Y244856D03*
X316484Y244856D03*
X119380Y245872D03*
X134620Y245872D03*
D15*
X153416Y245872D03*
D16*
X164084Y245872D03*
D15*
X178816Y245872D03*
X203200Y245872D03*
X224536Y245872D03*
D16*
X248412Y245872D03*
X271780Y245872D03*
D15*
X293624Y245872D03*
D16*
X316484Y245872D03*
D15*
X118872Y246888D03*
X134112Y246888D03*
D16*
X152908Y246888D03*
D15*
X163576Y246888D03*
D16*
X178308Y246888D03*
X202692Y246888D03*
D15*
X224536Y246888D03*
X248920Y246888D03*
X272288Y246888D03*
X293624Y246888D03*
D16*
X317500Y246888D03*
X118364Y247904D03*
D15*
X134112Y247904D03*
X152400Y247904D03*
X163576Y247904D03*
D16*
X178308Y247904D03*
X202692Y247904D03*
D15*
X224536Y247904D03*
X248920Y247904D03*
X272288Y247904D03*
D16*
X294132Y247904D03*
X318516Y247904D03*
D15*
X117856Y248920D03*
D16*
X133604Y248920D03*
D15*
X152400Y248920D03*
X163576Y248920D03*
X177800Y248920D03*
D16*
X202692Y248920D03*
D15*
X224536Y248920D03*
X248920Y248920D03*
X272288Y248920D03*
X294640Y248920D03*
D16*
X318516Y248920D03*
X117348Y249936D03*
D15*
X133096Y249936D03*
X152400Y249936D03*
D16*
X163068Y249936D03*
D15*
X177800Y249936D03*
D16*
X202692Y249936D03*
D15*
X224536Y249936D03*
X248920Y249936D03*
D16*
X272796Y249936D03*
X295148Y249936D03*
X319532Y249936D03*
D15*
X102616Y250952D03*
X116840Y250952D03*
X133096Y250952D03*
X152400Y250952D03*
X162560Y250952D03*
X177800Y250952D03*
X202184Y250952D03*
X224536Y250952D03*
X248920Y250952D03*
X273304Y250952D03*
X295656Y250952D03*
X320040Y250952D03*
D26*
X103632Y251968D03*
D15*
X116840Y251968D03*
D16*
X132588Y251968D03*
D15*
X151384Y251968D03*
X162560Y251968D03*
X177800Y251968D03*
X202184Y251968D03*
X224536Y251968D03*
X248920Y251968D03*
X273304Y251968D03*
D16*
X296164Y251968D03*
X320548Y251968D03*
D21*
X105156Y252984D03*
D16*
X116332Y252984D03*
D15*
X132080Y252984D03*
X151384Y252984D03*
X162560Y252984D03*
X177800Y252984D03*
X202184Y252984D03*
X224536Y252984D03*
D16*
X249428Y252984D03*
X273812Y252984D03*
D15*
X296672Y252984D03*
D16*
X321564Y252984D03*
D35*
X106172Y254000D03*
D15*
X115824Y254000D03*
X132080Y254000D03*
X151384Y254000D03*
X162560Y254000D03*
D16*
X177292Y254000D03*
D15*
X202184Y254000D03*
X224536Y254000D03*
D16*
X249428Y254000D03*
D15*
X274320Y254000D03*
D16*
X297180Y254000D03*
D15*
X322072Y254000D03*
D33*
X108204Y255016D03*
D16*
X131572Y255016D03*
D15*
X151384Y255016D03*
D16*
X162052Y255016D03*
D15*
X176784Y255016D03*
X202184Y255016D03*
X224536Y255016D03*
X249936Y255016D03*
X274320Y255016D03*
X297688Y255016D03*
D16*
X322580Y255016D03*
D15*
X100584Y256032D03*
D20*
X111252Y256032D03*
D15*
X131064Y256032D03*
D16*
X150876Y256032D03*
D15*
X161544Y256032D03*
X176784Y256032D03*
X202184Y256032D03*
X224536Y256032D03*
X249936Y256032D03*
X274320Y256032D03*
X297688Y256032D03*
D16*
X323596Y256032D03*
D15*
X100584Y257048D03*
D16*
X107188Y257048D03*
D38*
X116840Y257048D03*
D15*
X131064Y257048D03*
X150368Y257048D03*
X161544Y257048D03*
X176784Y257048D03*
X202184Y257048D03*
X224536Y257048D03*
X249936Y257048D03*
D16*
X274828Y257048D03*
X298196Y257048D03*
D15*
X324104Y257048D03*
D16*
X100076Y258064D03*
X108204Y258064D03*
D37*
X117856Y258064D03*
D16*
X130556Y258064D03*
D15*
X150368Y258064D03*
X161544Y258064D03*
X176784Y258064D03*
X202184Y258064D03*
X224536Y258064D03*
X249936Y258064D03*
X275336Y258064D03*
X298704Y258064D03*
D16*
X324612Y258064D03*
D15*
X99568Y259080D03*
D23*
X111252Y259080D03*
D38*
X121920Y259080D03*
D15*
X130048Y259080D03*
X150368Y259080D03*
D16*
X161036Y259080D03*
D15*
X176784Y259080D03*
X202184Y259080D03*
X224536Y259080D03*
X249936Y259080D03*
X275336Y259080D03*
D16*
X299212Y259080D03*
X325628Y259080D03*
X50292Y260096D03*
D15*
X99568Y260096D03*
D26*
X111760Y260096D03*
D37*
X125984Y260096D03*
D16*
X149860Y260096D03*
D15*
X160528Y260096D03*
X176784Y260096D03*
X202184Y260096D03*
X224536Y260096D03*
X249936Y260096D03*
X275336Y260096D03*
X299720Y260096D03*
X326136Y260096D03*
D26*
X50800Y261112D03*
D16*
X99060Y261112D03*
D32*
X111760Y261112D03*
D38*
X128016Y261112D03*
D15*
X149352Y261112D03*
X160528Y261112D03*
D16*
X176276Y261112D03*
D15*
X202184Y261112D03*
X224536Y261112D03*
X249936Y261112D03*
D16*
X275844Y261112D03*
X300228Y261112D03*
X326644Y261112D03*
D28*
X365252Y261112D03*
D37*
X50800Y262128D03*
D15*
X98552Y262128D03*
D16*
X112268Y262128D03*
D38*
X130048Y262128D03*
D15*
X149352Y262128D03*
X160528Y262128D03*
X175768Y262128D03*
X202184Y262128D03*
X224536Y262128D03*
D16*
X250444Y262128D03*
D15*
X276352Y262128D03*
X300736Y262128D03*
D16*
X327660Y262128D03*
D35*
X364236Y262128D03*
D32*
X46736Y263144D03*
D26*
X54864Y263144D03*
D15*
X98552Y263144D03*
D32*
X112776Y263144D03*
D21*
X132588Y263144D03*
D15*
X149352Y263144D03*
X160528Y263144D03*
X175768Y263144D03*
X202184Y263144D03*
X224536Y263144D03*
X250952Y263144D03*
X276352Y263144D03*
D16*
X301244Y263144D03*
D15*
X328168Y263144D03*
D43*
X363728Y263144D03*
D32*
X45720Y264160D03*
D26*
X56896Y264160D03*
D16*
X98044Y264160D03*
D28*
X113284Y264160D03*
D16*
X128524Y264160D03*
D38*
X136144Y264160D03*
D15*
X149352Y264160D03*
D16*
X160020Y264160D03*
D15*
X175768Y264160D03*
X202184Y264160D03*
X224536Y264160D03*
X250952Y264160D03*
X276352Y264160D03*
X301752Y264160D03*
D16*
X328676Y264160D03*
D35*
X357124Y264160D03*
D23*
X371348Y264160D03*
D32*
X44704Y265176D03*
D26*
X58928Y265176D03*
D15*
X97536Y265176D03*
D23*
X113284Y265176D03*
D15*
X128016Y265176D03*
D38*
X139192Y265176D03*
D16*
X148844Y265176D03*
D15*
X159512Y265176D03*
X175768Y265176D03*
D16*
X201676Y265176D03*
D15*
X224536Y265176D03*
X250952Y265176D03*
X277368Y265176D03*
X301752Y265176D03*
D16*
X329692Y265176D03*
D35*
X353060Y265176D03*
D23*
X373380Y265176D03*
D32*
X42672Y266192D03*
D26*
X60960Y266192D03*
D15*
X97536Y266192D03*
X110744Y266192D03*
D16*
X116332Y266192D03*
D15*
X128016Y266192D03*
D38*
X141224Y266192D03*
D15*
X148336Y266192D03*
X159512Y266192D03*
X175768Y266192D03*
D16*
X201676Y266192D03*
D15*
X224536Y266192D03*
X250952Y266192D03*
X277368Y266192D03*
D16*
X302260Y266192D03*
X329692Y266192D03*
D10*
X349504Y266192D03*
D38*
X375920Y266192D03*
D32*
X41656Y267208D03*
D23*
X63500Y267208D03*
D15*
X96520Y267208D03*
D16*
X110236Y267208D03*
X117348Y267208D03*
X127508Y267208D03*
D21*
X144780Y267208D03*
D15*
X159512Y267208D03*
X175768Y267208D03*
D16*
X201676Y267208D03*
D15*
X224536Y267208D03*
X250952Y267208D03*
X277368Y267208D03*
X302768Y267208D03*
D16*
X330708Y267208D03*
D35*
X345948Y267208D03*
D23*
X378460Y267208D03*
D32*
X40640Y268224D03*
D23*
X65532Y268224D03*
D15*
X96520Y268224D03*
X109728Y268224D03*
D16*
X118364Y268224D03*
D15*
X127000Y268224D03*
D26*
X146304Y268224D03*
D15*
X159512Y268224D03*
D16*
X175260Y268224D03*
X201676Y268224D03*
X225044Y268224D03*
D15*
X250952Y268224D03*
D16*
X277876Y268224D03*
X303276Y268224D03*
X331724Y268224D03*
D35*
X341884Y268224D03*
D23*
X380492Y268224D03*
D32*
X39624Y269240D03*
D23*
X67564Y269240D03*
D15*
X96520Y269240D03*
D16*
X109220Y269240D03*
X119380Y269240D03*
D15*
X127000Y269240D03*
D32*
X147320Y269240D03*
D16*
X159004Y269240D03*
D15*
X174752Y269240D03*
X201168Y269240D03*
D16*
X225044Y269240D03*
D15*
X250952Y269240D03*
X278384Y269240D03*
X303784Y269240D03*
D20*
X336804Y269240D03*
D23*
X383540Y269240D03*
D32*
X37592Y270256D03*
D23*
X69596Y270256D03*
D15*
X95504Y270256D03*
X108712Y270256D03*
D16*
X120396Y270256D03*
X126492Y270256D03*
D15*
X147320Y270256D03*
X158496Y270256D03*
X174752Y270256D03*
X201168Y270256D03*
D16*
X225044Y270256D03*
X251460Y270256D03*
D15*
X278384Y270256D03*
D16*
X304292Y270256D03*
D21*
X335788Y270256D03*
D23*
X385572Y270256D03*
D32*
X36576Y271272D03*
D26*
X72136Y271272D03*
D15*
X95504Y271272D03*
X108712Y271272D03*
D16*
X121412Y271272D03*
D15*
X125984Y271272D03*
X147320Y271272D03*
X158496Y271272D03*
X174752Y271272D03*
X201168Y271272D03*
D16*
X225044Y271272D03*
D15*
X251968Y271272D03*
X278384Y271272D03*
X304800Y271272D03*
D20*
X337820Y271272D03*
D23*
X387604Y271272D03*
D32*
X35560Y272288D03*
D26*
X74168Y272288D03*
D16*
X94996Y272288D03*
X108204Y272288D03*
D26*
X123952Y272288D03*
D15*
X147320Y272288D03*
X158496Y272288D03*
X174752Y272288D03*
X201168Y272288D03*
D16*
X225044Y272288D03*
D15*
X251968Y272288D03*
D16*
X278892Y272288D03*
X305308Y272288D03*
D44*
X340360Y272288D03*
D23*
X390652Y272288D03*
D32*
X34544Y273304D03*
D26*
X76200Y273304D03*
D15*
X94488Y273304D03*
X107696Y273304D03*
D28*
X124460Y273304D03*
D15*
X147320Y273304D03*
D16*
X157988Y273304D03*
D15*
X174752Y273304D03*
X201168Y273304D03*
D16*
X225044Y273304D03*
D15*
X251968Y273304D03*
X279400Y273304D03*
X305816Y273304D03*
D45*
X343916Y273304D03*
D23*
X392684Y273304D03*
D32*
X33528Y274320D03*
D26*
X78232Y274320D03*
D15*
X94488Y274320D03*
D16*
X107188Y274320D03*
D32*
X123952Y274320D03*
D16*
X146812Y274320D03*
D15*
X157480Y274320D03*
D16*
X174244Y274320D03*
D15*
X201168Y274320D03*
D16*
X225044Y274320D03*
D15*
X251968Y274320D03*
X279400Y274320D03*
D16*
X306324Y274320D03*
D46*
X346964Y274320D03*
D23*
X394716Y274320D03*
D32*
X31496Y275336D03*
D26*
X80264Y275336D03*
D16*
X93980Y275336D03*
D15*
X106680Y275336D03*
D32*
X124968Y275336D03*
D15*
X146304Y275336D03*
X157480Y275336D03*
D16*
X174244Y275336D03*
D15*
X201168Y275336D03*
D16*
X225044Y275336D03*
D15*
X251968Y275336D03*
X279400Y275336D03*
D16*
X306324Y275336D03*
D10*
X339344Y275336D03*
D44*
X358648Y275336D03*
D23*
X397764Y275336D03*
D32*
X30480Y276352D03*
D23*
X82804Y276352D03*
D15*
X93472Y276352D03*
D16*
X106172Y276352D03*
D28*
X125476Y276352D03*
D15*
X146304Y276352D03*
X157480Y276352D03*
X173736Y276352D03*
X201168Y276352D03*
D16*
X225044Y276352D03*
D15*
X251968Y276352D03*
X280416Y276352D03*
X306832Y276352D03*
D28*
X335788Y276352D03*
D23*
X343916Y276352D03*
D44*
X364744Y276352D03*
D23*
X399796Y276352D03*
D32*
X29464Y277368D03*
D23*
X84836Y277368D03*
D15*
X93472Y277368D03*
X105664Y277368D03*
D26*
X125984Y277368D03*
D15*
X146304Y277368D03*
X157480Y277368D03*
X173736Y277368D03*
X201168Y277368D03*
D16*
X225044Y277368D03*
D15*
X251968Y277368D03*
X280416Y277368D03*
D16*
X307340Y277368D03*
D28*
X335788Y277368D03*
D23*
X345948Y277368D03*
D44*
X370840Y277368D03*
D38*
X402336Y277368D03*
D32*
X28448Y278384D03*
D35*
X88900Y278384D03*
D15*
X105664Y278384D03*
D23*
X126492Y278384D03*
D16*
X145796Y278384D03*
X156972Y278384D03*
D15*
X173736Y278384D03*
X201168Y278384D03*
D16*
X225044Y278384D03*
X252476Y278384D03*
D15*
X280416Y278384D03*
X307848Y278384D03*
D28*
X336804Y278384D03*
D23*
X347980Y278384D03*
D44*
X376936Y278384D03*
D23*
X404876Y278384D03*
D32*
X26416Y279400D03*
D38*
X89408Y279400D03*
D16*
X105156Y279400D03*
X123444Y279400D03*
D32*
X129032Y279400D03*
D15*
X145288Y279400D03*
X156464Y279400D03*
D16*
X173228Y279400D03*
D15*
X201168Y279400D03*
D16*
X225044Y279400D03*
D15*
X252984Y279400D03*
X281432Y279400D03*
D16*
X308356Y279400D03*
D26*
X337312Y279400D03*
X350520Y279400D03*
D33*
X382524Y279400D03*
D23*
X406908Y279400D03*
D32*
X25400Y280416D03*
D38*
X92456Y280416D03*
D15*
X104648Y280416D03*
X122936Y280416D03*
D32*
X130048Y280416D03*
D15*
X145288Y280416D03*
X156464Y280416D03*
D16*
X173228Y280416D03*
X200660Y280416D03*
X225044Y280416D03*
D15*
X252984Y280416D03*
X281432Y280416D03*
X308864Y280416D03*
D26*
X338328Y280416D03*
X352552Y280416D03*
D44*
X388112Y280416D03*
D23*
X409956Y280416D03*
D32*
X24384Y281432D03*
D37*
X95504Y281432D03*
D16*
X104140Y281432D03*
D15*
X122936Y281432D03*
D32*
X131064Y281432D03*
D15*
X145288Y281432D03*
X156464Y281432D03*
D16*
X173228Y281432D03*
X200660Y281432D03*
X225044Y281432D03*
D15*
X252984Y281432D03*
D16*
X281940Y281432D03*
D15*
X308864Y281432D03*
D26*
X338328Y281432D03*
X354584Y281432D03*
D44*
X394208Y281432D03*
D23*
X411988Y281432D03*
D32*
X23368Y282448D03*
D20*
X99060Y282448D03*
D16*
X122428Y282448D03*
D32*
X132080Y282448D03*
D16*
X144780Y282448D03*
D15*
X156464Y282448D03*
D28*
X173228Y282448D03*
D16*
X200660Y282448D03*
X225044Y282448D03*
D15*
X252984Y282448D03*
X282448Y282448D03*
D16*
X309372Y282448D03*
D23*
X338836Y282448D03*
D26*
X356616Y282448D03*
D47*
X404368Y282448D03*
D32*
X22352Y283464D03*
D10*
X102616Y283464D03*
D15*
X121920Y283464D03*
D32*
X133096Y283464D03*
D15*
X144272Y283464D03*
D16*
X155956Y283464D03*
D28*
X173228Y283464D03*
D15*
X200152Y283464D03*
D16*
X225044Y283464D03*
X253492Y283464D03*
D15*
X282448Y283464D03*
X309880Y283464D03*
X337312Y283464D03*
D16*
X341884Y283464D03*
D26*
X358648Y283464D03*
D45*
X408940Y283464D03*
D20*
X24892Y284480D03*
D10*
X106680Y284480D03*
D15*
X121920Y284480D03*
D32*
X134112Y284480D03*
D15*
X144272Y284480D03*
D16*
X154940Y284480D03*
D26*
X172720Y284480D03*
D15*
X200152Y284480D03*
X225552Y284480D03*
X254000Y284480D03*
D16*
X282956Y284480D03*
X310388Y284480D03*
D15*
X337312Y284480D03*
D32*
X342392Y284480D03*
D26*
X360680Y284480D03*
D48*
X413004Y284480D03*
D46*
X33020Y285496D03*
D49*
X109220Y285496D03*
D16*
X121412Y285496D03*
D32*
X135128Y285496D03*
D15*
X144272Y285496D03*
X154432Y285496D03*
D26*
X172720Y285496D03*
D16*
X200660Y285496D03*
D15*
X225552Y285496D03*
X254000Y285496D03*
X283464Y285496D03*
X310896Y285496D03*
D16*
X337820Y285496D03*
X342900Y285496D03*
D23*
X363220Y285496D03*
D49*
X417068Y285496D03*
D50*
X41148Y286512D03*
D16*
X102108Y286512D03*
D20*
X115316Y286512D03*
D16*
X135636Y286512D03*
D15*
X144272Y286512D03*
D16*
X153924Y286512D03*
D15*
X170688Y286512D03*
X174752Y286512D03*
D16*
X200660Y286512D03*
D15*
X225552Y286512D03*
D16*
X254508Y286512D03*
D15*
X283464Y286512D03*
X310896Y286512D03*
X338328Y286512D03*
D16*
X343916Y286512D03*
D23*
X365252Y286512D03*
D37*
X420624Y286512D03*
D32*
X20320Y287528D03*
D51*
X54356Y287528D03*
D15*
X101600Y287528D03*
D10*
X119888Y287528D03*
D16*
X136652Y287528D03*
X143764Y287528D03*
X152908Y287528D03*
X170180Y287528D03*
D15*
X174752Y287528D03*
X201168Y287528D03*
X225552Y287528D03*
X255016Y287528D03*
D16*
X283972Y287528D03*
X311404Y287528D03*
X338836Y287528D03*
D32*
X344424Y287528D03*
D23*
X367284Y287528D03*
D28*
X423164Y287528D03*
D26*
X20320Y288544D03*
D52*
X70104Y288544D03*
D16*
X101092Y288544D03*
D10*
X123952Y288544D03*
D16*
X137668Y288544D03*
D15*
X143256Y288544D03*
X152400Y288544D03*
X169672Y288544D03*
X174752Y288544D03*
X201168Y288544D03*
D16*
X226060Y288544D03*
D15*
X255016Y288544D03*
X284480Y288544D03*
X311912Y288544D03*
X339344Y288544D03*
D32*
X345440Y288544D03*
D23*
X369316Y288544D03*
D16*
X425196Y288544D03*
D26*
X20320Y289560D03*
D52*
X86360Y289560D03*
D49*
X126492Y289560D03*
D16*
X138684Y289560D03*
D15*
X143256Y289560D03*
D16*
X151892Y289560D03*
X169164Y289560D03*
X175260Y289560D03*
D15*
X201168Y289560D03*
X226568Y289560D03*
D16*
X255524Y289560D03*
D15*
X284480Y289560D03*
D16*
X312420Y289560D03*
D15*
X339344Y289560D03*
D16*
X345948Y289560D03*
D26*
X371856Y289560D03*
D15*
X425704Y289560D03*
X18288Y290576D03*
D16*
X22860Y290576D03*
D53*
X110744Y290576D03*
D16*
X150876Y290576D03*
D15*
X168656Y290576D03*
X175768Y290576D03*
X201168Y290576D03*
X226568Y290576D03*
X256032Y290576D03*
D16*
X284988Y290576D03*
D15*
X312928Y290576D03*
D16*
X339852Y290576D03*
D32*
X346456Y290576D03*
D26*
X373888Y290576D03*
D16*
X426212Y290576D03*
D15*
X18288Y291592D03*
X23368Y291592D03*
D52*
X118872Y291592D03*
D15*
X150368Y291592D03*
X168656Y291592D03*
X175768Y291592D03*
X201168Y291592D03*
X226568Y291592D03*
X256032Y291592D03*
X285496Y291592D03*
X312928Y291592D03*
X340360Y291592D03*
D32*
X347472Y291592D03*
D26*
X375920Y291592D03*
D16*
X427228Y291592D03*
X17780Y292608D03*
X23876Y292608D03*
D15*
X99568Y292608D03*
D54*
X125984Y292608D03*
D16*
X149860Y292608D03*
X168148Y292608D03*
D15*
X175768Y292608D03*
X201168Y292608D03*
X226568Y292608D03*
X257048Y292608D03*
X285496Y292608D03*
D16*
X313436Y292608D03*
X340868Y292608D03*
D28*
X347980Y292608D03*
D26*
X377952Y292608D03*
D15*
X427736Y292608D03*
X17272Y293624D03*
D16*
X24892Y293624D03*
X99060Y293624D03*
D15*
X118872Y293624D03*
D44*
X134112Y293624D03*
D16*
X148844Y293624D03*
D15*
X167640Y293624D03*
X175768Y293624D03*
X201168Y293624D03*
D16*
X227076Y293624D03*
D15*
X257048Y293624D03*
D16*
X286004Y293624D03*
D15*
X313944Y293624D03*
X341376Y293624D03*
D32*
X348488Y293624D03*
D26*
X379984Y293624D03*
D16*
X428244Y293624D03*
D15*
X17272Y294640D03*
X25400Y294640D03*
X98552Y294640D03*
D16*
X118364Y294640D03*
D35*
X137668Y294640D03*
D16*
X148844Y294640D03*
X167132Y294640D03*
D15*
X175768Y294640D03*
X201168Y294640D03*
X227584Y294640D03*
D16*
X257556Y294640D03*
D15*
X286512Y294640D03*
D16*
X314452Y294640D03*
D15*
X341376Y294640D03*
D32*
X349504Y294640D03*
D26*
X382016Y294640D03*
D16*
X429260Y294640D03*
D15*
X17272Y295656D03*
D16*
X25908Y295656D03*
X98044Y295656D03*
D15*
X117856Y295656D03*
D17*
X136144Y295656D03*
D16*
X147828Y295656D03*
D15*
X166624Y295656D03*
X175768Y295656D03*
D16*
X201676Y295656D03*
D15*
X227584Y295656D03*
X258064Y295656D03*
X286512Y295656D03*
X314960Y295656D03*
D16*
X341884Y295656D03*
D28*
X350012Y295656D03*
D23*
X384556Y295656D03*
D16*
X429260Y295656D03*
D15*
X16256Y296672D03*
D16*
X26924Y296672D03*
D15*
X97536Y296672D03*
X117856Y296672D03*
D33*
X134620Y296672D03*
D16*
X146812Y296672D03*
D15*
X166624Y296672D03*
D16*
X176276Y296672D03*
X201676Y296672D03*
D15*
X227584Y296672D03*
X258064Y296672D03*
D16*
X287020Y296672D03*
D15*
X314960Y296672D03*
X342392Y296672D03*
D28*
X351028Y296672D03*
D23*
X386588Y296672D03*
D16*
X430276Y296672D03*
D15*
X16256Y297688D03*
D16*
X26924Y297688D03*
D15*
X97536Y297688D03*
D16*
X117348Y297688D03*
D49*
X130556Y297688D03*
D15*
X141224Y297688D03*
D16*
X146812Y297688D03*
X166116Y297688D03*
D15*
X176784Y297688D03*
D16*
X201676Y297688D03*
D15*
X227584Y297688D03*
D16*
X258572Y297688D03*
D15*
X287528Y297688D03*
D16*
X315468Y297688D03*
X342900Y297688D03*
D32*
X351536Y297688D03*
D23*
X388620Y297688D03*
D16*
X431292Y297688D03*
D15*
X16256Y298704D03*
D16*
X27940Y298704D03*
X97028Y298704D03*
D20*
X122428Y298704D03*
D28*
X133604Y298704D03*
D15*
X141224Y298704D03*
D16*
X145796Y298704D03*
D15*
X165608Y298704D03*
X176784Y298704D03*
X202184Y298704D03*
D16*
X228092Y298704D03*
D15*
X259080Y298704D03*
X287528Y298704D03*
X315976Y298704D03*
X343408Y298704D03*
D28*
X352044Y298704D03*
D23*
X390652Y298704D03*
D16*
X431292Y298704D03*
D15*
X16256Y299720D03*
X28448Y299720D03*
X96520Y299720D03*
D35*
X120396Y299720D03*
D32*
X132080Y299720D03*
D26*
X143256Y299720D03*
D16*
X165100Y299720D03*
D15*
X176784Y299720D03*
X202184Y299720D03*
X228600Y299720D03*
X259080Y299720D03*
D16*
X288036Y299720D03*
X316484Y299720D03*
D15*
X343408Y299720D03*
D28*
X353060Y299720D03*
D26*
X393192Y299720D03*
D16*
X432308Y299720D03*
D15*
X15240Y300736D03*
D16*
X28956Y300736D03*
D41*
X97028Y300736D03*
D21*
X117348Y300736D03*
D28*
X130556Y300736D03*
D23*
X142748Y300736D03*
D15*
X164592Y300736D03*
X176784Y300736D03*
X202184Y300736D03*
X228600Y300736D03*
D16*
X259588Y300736D03*
D15*
X288544Y300736D03*
X316992Y300736D03*
D16*
X343916Y300736D03*
D28*
X354076Y300736D03*
D26*
X395224Y300736D03*
D15*
X432816Y300736D03*
X15240Y301752D03*
D16*
X29972Y301752D03*
D37*
X113792Y301752D03*
D28*
X128524Y301752D03*
D26*
X142240Y301752D03*
D15*
X164592Y301752D03*
X176784Y301752D03*
X202184Y301752D03*
X228600Y301752D03*
X260096Y301752D03*
X288544Y301752D03*
X316992Y301752D03*
X344424Y301752D03*
D28*
X354076Y301752D03*
D26*
X397256Y301752D03*
D16*
X433324Y301752D03*
D15*
X15240Y302768D03*
X30480Y302768D03*
D35*
X111252Y302768D03*
D28*
X127508Y302768D03*
X141732Y302768D03*
D16*
X164084Y302768D03*
D15*
X176784Y302768D03*
X202184Y302768D03*
X228600Y302768D03*
X260096Y302768D03*
D16*
X289052Y302768D03*
X317500Y302768D03*
X344932Y302768D03*
D28*
X355092Y302768D03*
D26*
X399288Y302768D03*
D16*
X434340Y302768D03*
X14732Y303784D03*
X30988Y303784D03*
D21*
X107188Y303784D03*
D16*
X115316Y303784D03*
D28*
X125476Y303784D03*
X141732Y303784D03*
D15*
X163576Y303784D03*
D16*
X177292Y303784D03*
D15*
X202184Y303784D03*
D16*
X229108Y303784D03*
D15*
X261112Y303784D03*
X289560Y303784D03*
X318008Y303784D03*
X345440Y303784D03*
D28*
X356108Y303784D03*
D26*
X401320Y303784D03*
D15*
X434848Y303784D03*
X14224Y304800D03*
X31496Y304800D03*
D37*
X103632Y304800D03*
D15*
X114808Y304800D03*
D28*
X124460Y304800D03*
X140716Y304800D03*
D15*
X163576Y304800D03*
X177800Y304800D03*
X202184Y304800D03*
X229616Y304800D03*
X261112Y304800D03*
X289560Y304800D03*
D16*
X318516Y304800D03*
D15*
X345440Y304800D03*
D26*
X356616Y304800D03*
X403352Y304800D03*
D16*
X435356Y304800D03*
D15*
X14224Y305816D03*
D16*
X32004Y305816D03*
D37*
X100584Y305816D03*
D15*
X114808Y305816D03*
D28*
X122428Y305816D03*
D32*
X140208Y305816D03*
D15*
X162560Y305816D03*
X177800Y305816D03*
X202184Y305816D03*
X229616Y305816D03*
D16*
X261620Y305816D03*
X290068Y305816D03*
D15*
X319024Y305816D03*
D16*
X345948Y305816D03*
D28*
X357124Y305816D03*
D23*
X405892Y305816D03*
D16*
X436372Y305816D03*
D15*
X14224Y306832D03*
D16*
X33020Y306832D03*
D37*
X97536Y306832D03*
D16*
X114300Y306832D03*
D32*
X120904Y306832D03*
X140208Y306832D03*
D15*
X162560Y306832D03*
X177800Y306832D03*
D16*
X202692Y306832D03*
D15*
X229616Y306832D03*
X262128Y306832D03*
X290576Y306832D03*
X319024Y306832D03*
X346456Y306832D03*
D28*
X358140Y306832D03*
D23*
X407924Y306832D03*
D15*
X436880Y306832D03*
D16*
X13716Y307848D03*
D15*
X33528Y307848D03*
D21*
X93980Y307848D03*
D15*
X113792Y307848D03*
D28*
X119380Y307848D03*
D16*
X139700Y307848D03*
X162052Y307848D03*
D15*
X177800Y307848D03*
D16*
X202692Y307848D03*
D15*
X229616Y307848D03*
X262128Y307848D03*
X290576Y307848D03*
D16*
X319532Y307848D03*
D15*
X346456Y307848D03*
D26*
X358648Y307848D03*
D23*
X409956Y307848D03*
D16*
X437388Y307848D03*
D15*
X13208Y308864D03*
D16*
X34036Y308864D03*
D37*
X90424Y308864D03*
D23*
X116332Y308864D03*
D15*
X139192Y308864D03*
X161544Y308864D03*
X177800Y308864D03*
X203200Y308864D03*
D16*
X230124Y308864D03*
X262636Y308864D03*
D15*
X291592Y308864D03*
X320040Y308864D03*
X347472Y308864D03*
D41*
X357124Y308864D03*
D16*
X361188Y308864D03*
D23*
X411988Y308864D03*
D16*
X438404Y308864D03*
D15*
X13208Y309880D03*
D16*
X35052Y309880D03*
D37*
X87376Y309880D03*
D23*
X115316Y309880D03*
D16*
X138684Y309880D03*
D15*
X161544Y309880D03*
X177800Y309880D03*
X203200Y309880D03*
X230632Y309880D03*
X263144Y309880D03*
X291592Y309880D03*
D16*
X320548Y309880D03*
D15*
X347472Y309880D03*
D16*
X361188Y309880D03*
D26*
X414528Y309880D03*
D16*
X438404Y309880D03*
D15*
X13208Y310896D03*
D16*
X35052Y310896D03*
D21*
X83820Y310896D03*
D28*
X114300Y310896D03*
D16*
X137668Y310896D03*
D15*
X160528Y310896D03*
D16*
X178308Y310896D03*
D15*
X203200Y310896D03*
X230632Y310896D03*
X263144Y310896D03*
X291592Y310896D03*
X321056Y310896D03*
D16*
X347980Y310896D03*
X362204Y310896D03*
D26*
X416560Y310896D03*
D16*
X439420Y310896D03*
X12700Y311912D03*
X36068Y311912D03*
D37*
X80264Y311912D03*
D28*
X113284Y311912D03*
D16*
X137668Y311912D03*
D15*
X160528Y311912D03*
X178816Y311912D03*
X203200Y311912D03*
X230632Y311912D03*
D16*
X263652Y311912D03*
D15*
X292608Y311912D03*
X321056Y311912D03*
X348488Y311912D03*
D16*
X363220Y311912D03*
D26*
X418592Y311912D03*
D15*
X439928Y311912D03*
X12192Y312928D03*
X36576Y312928D03*
D37*
X77216Y312928D03*
D28*
X111252Y312928D03*
D32*
X137160Y312928D03*
D16*
X160020Y312928D03*
D15*
X178816Y312928D03*
X203200Y312928D03*
X230632Y312928D03*
X264160Y312928D03*
X292608Y312928D03*
D16*
X321564Y312928D03*
D15*
X348488Y312928D03*
D16*
X364236Y312928D03*
D26*
X420624Y312928D03*
D16*
X440436Y312928D03*
D15*
X12192Y313944D03*
D16*
X37084Y313944D03*
D21*
X73660Y313944D03*
D28*
X110236Y313944D03*
X136652Y313944D03*
D15*
X159512Y313944D03*
X178816Y313944D03*
X203200Y313944D03*
X230632Y313944D03*
X264160Y313944D03*
X292608Y313944D03*
X322072Y313944D03*
D16*
X348996Y313944D03*
D15*
X364744Y313944D03*
D26*
X422656Y313944D03*
D16*
X441452Y313944D03*
D15*
X12192Y314960D03*
D16*
X38100Y314960D03*
D21*
X70612Y314960D03*
D23*
X109220Y314960D03*
D32*
X136144Y314960D03*
D15*
X159512Y314960D03*
X178816Y314960D03*
X203200Y314960D03*
D16*
X231140Y314960D03*
X264668Y314960D03*
D15*
X293624Y314960D03*
D16*
X322580Y314960D03*
D15*
X349504Y314960D03*
D16*
X365252Y314960D03*
D26*
X424688Y314960D03*
D15*
X441960Y314960D03*
D16*
X11684Y315976D03*
D15*
X38608Y315976D03*
D37*
X67056Y315976D03*
D21*
X108204Y315976D03*
D28*
X135636Y315976D03*
D15*
X158496Y315976D03*
X178816Y315976D03*
X203200Y315976D03*
X231648Y315976D03*
X265176Y315976D03*
X293624Y315976D03*
X323088Y315976D03*
D16*
X350012Y315976D03*
X366268Y315976D03*
D23*
X427228Y315976D03*
D16*
X442468Y315976D03*
D15*
X11176Y316992D03*
D16*
X39116Y316992D03*
D37*
X64008Y316992D03*
D28*
X105156Y316992D03*
D15*
X110744Y316992D03*
D26*
X135128Y316992D03*
D15*
X158496Y316992D03*
X178816Y316992D03*
D16*
X203708Y316992D03*
D15*
X231648Y316992D03*
X265176Y316992D03*
D16*
X294132Y316992D03*
D15*
X323088Y316992D03*
X350520Y316992D03*
D16*
X367284Y316992D03*
D23*
X429260Y316992D03*
D16*
X443484Y316992D03*
D15*
X11176Y318008D03*
D16*
X40132Y318008D03*
D21*
X60452Y318008D03*
D28*
X103124Y318008D03*
D15*
X110744Y318008D03*
D26*
X135128Y318008D03*
D16*
X157988Y318008D03*
X179324Y318008D03*
X203708Y318008D03*
D15*
X231648Y318008D03*
X266192Y318008D03*
D32*
X294640Y318008D03*
D16*
X323596Y318008D03*
D15*
X350520Y318008D03*
X367792Y318008D03*
D23*
X431292Y318008D03*
D15*
X443992Y318008D03*
X11176Y319024D03*
D16*
X40132Y319024D03*
D37*
X56896Y319024D03*
D28*
X102108Y319024D03*
D16*
X110236Y319024D03*
D23*
X134620Y319024D03*
D15*
X157480Y319024D03*
X179832Y319024D03*
X204216Y319024D03*
X231648Y319024D03*
X266192Y319024D03*
D23*
X294132Y319024D03*
D15*
X324104Y319024D03*
D16*
X351028Y319024D03*
X368300Y319024D03*
D23*
X433324Y319024D03*
D16*
X444500Y319024D03*
X10668Y320040D03*
X41148Y320040D03*
D37*
X53848Y320040D03*
D28*
X100076Y320040D03*
D15*
X109728Y320040D03*
D16*
X131572Y320040D03*
D15*
X136144Y320040D03*
X157480Y320040D03*
X179832Y320040D03*
X204216Y320040D03*
D16*
X232156Y320040D03*
X266700Y320040D03*
D21*
X294132Y320040D03*
D16*
X324612Y320040D03*
D15*
X351536Y320040D03*
D16*
X369316Y320040D03*
D26*
X435864Y320040D03*
D16*
X445516Y320040D03*
D15*
X10160Y321056D03*
X41656Y321056D03*
D21*
X50292Y321056D03*
D32*
X98552Y321056D03*
D15*
X109728Y321056D03*
X131064Y321056D03*
X136144Y321056D03*
D16*
X156972Y321056D03*
D15*
X179832Y321056D03*
X204216Y321056D03*
X232664Y321056D03*
X267208Y321056D03*
D32*
X290576Y321056D03*
X298704Y321056D03*
D15*
X325120Y321056D03*
D16*
X352044Y321056D03*
X370332Y321056D03*
D26*
X437896Y321056D03*
D16*
X445516Y321056D03*
D15*
X10160Y322072D03*
D35*
X46228Y322072D03*
D28*
X97028Y322072D03*
D16*
X109220Y322072D03*
X130556Y322072D03*
D15*
X136144Y322072D03*
X156464Y322072D03*
X179832Y322072D03*
X204216Y322072D03*
X232664Y322072D03*
X267208Y322072D03*
D32*
X289560Y322072D03*
X299720Y322072D03*
D15*
X325120Y322072D03*
X352552Y322072D03*
X370840Y322072D03*
D26*
X439928Y322072D03*
D16*
X446532Y322072D03*
D15*
X10160Y323088D03*
D23*
X45212Y323088D03*
D28*
X94996Y323088D03*
D15*
X108712Y323088D03*
D16*
X129540Y323088D03*
X135636Y323088D03*
X155956Y323088D03*
D15*
X179832Y323088D03*
X204216Y323088D03*
X232664Y323088D03*
D16*
X267716Y323088D03*
D32*
X288544Y323088D03*
X300736Y323088D03*
D16*
X325628Y323088D03*
D15*
X352552Y323088D03*
D16*
X371348Y323088D03*
D37*
X443992Y323088D03*
D16*
X9652Y324104D03*
X43180Y324104D03*
D28*
X93980Y324104D03*
D15*
X108712Y324104D03*
X129032Y324104D03*
X135128Y324104D03*
X155448Y324104D03*
X179832Y324104D03*
X204216Y324104D03*
X232664Y324104D03*
X268224Y324104D03*
D32*
X287528Y324104D03*
X301752Y324104D03*
D15*
X326136Y324104D03*
D16*
X353060Y324104D03*
X372364Y324104D03*
D38*
X445008Y324104D03*
D15*
X9144Y325120D03*
D16*
X42164Y325120D03*
D28*
X92964Y325120D03*
D16*
X108204Y325120D03*
X128524Y325120D03*
D15*
X135128Y325120D03*
X155448Y325120D03*
D16*
X180340Y325120D03*
D15*
X204216Y325120D03*
D16*
X233172Y325120D03*
D15*
X268224Y325120D03*
D32*
X286512Y325120D03*
D16*
X303276Y325120D03*
X326644Y325120D03*
D15*
X353568Y325120D03*
D16*
X373380Y325120D03*
D23*
X446532Y325120D03*
D15*
X9144Y326136D03*
D16*
X41148Y326136D03*
D38*
X93472Y326136D03*
D15*
X107696Y326136D03*
D16*
X127508Y326136D03*
D15*
X135128Y326136D03*
D16*
X154940Y326136D03*
D26*
X180848Y326136D03*
D15*
X204216Y326136D03*
X233680Y326136D03*
D16*
X268732Y326136D03*
D32*
X285496Y326136D03*
X304800Y326136D03*
D15*
X327152Y326136D03*
D16*
X354076Y326136D03*
X374396Y326136D03*
D26*
X447040Y326136D03*
D15*
X9144Y327152D03*
D16*
X41148Y327152D03*
D32*
X90424Y327152D03*
X96520Y327152D03*
D15*
X107696Y327152D03*
D16*
X127508Y327152D03*
X134620Y327152D03*
D15*
X154432Y327152D03*
D21*
X181356Y327152D03*
D16*
X204724Y327152D03*
D15*
X233680Y327152D03*
X269240Y327152D03*
D32*
X284480Y327152D03*
X305816Y327152D03*
D15*
X327152Y327152D03*
X354584Y327152D03*
D16*
X374396Y327152D03*
D37*
X445008Y327152D03*
D15*
X8128Y328168D03*
D16*
X40132Y328168D03*
D32*
X89408Y328168D03*
X97536Y328168D03*
D16*
X107188Y328168D03*
X126492Y328168D03*
D15*
X134112Y328168D03*
D16*
X153924Y328168D03*
D32*
X177800Y328168D03*
D28*
X184404Y328168D03*
D16*
X204724Y328168D03*
D15*
X233680Y328168D03*
X269240Y328168D03*
D16*
X282956Y328168D03*
D32*
X306832Y328168D03*
D16*
X327660Y328168D03*
D15*
X354584Y328168D03*
D16*
X375412Y328168D03*
D49*
X442468Y328168D03*
D15*
X8128Y329184D03*
X39624Y329184D03*
D32*
X88392Y329184D03*
X98552Y329184D03*
D15*
X106680Y329184D03*
D16*
X125476Y329184D03*
D15*
X134112Y329184D03*
X153416Y329184D03*
D32*
X176784Y329184D03*
D28*
X186436Y329184D03*
D15*
X205232Y329184D03*
X233680Y329184D03*
X270256Y329184D03*
D16*
X281940Y329184D03*
D32*
X307848Y329184D03*
D15*
X328168Y329184D03*
D16*
X355092Y329184D03*
X376428Y329184D03*
D17*
X437896Y329184D03*
D15*
X449072Y329184D03*
X8128Y330200D03*
D16*
X39116Y330200D03*
D32*
X87376Y330200D03*
X99568Y330200D03*
D15*
X106680Y330200D03*
D16*
X125476Y330200D03*
D15*
X134112Y330200D03*
X153416Y330200D03*
D32*
X175768Y330200D03*
D28*
X187452Y330200D03*
D15*
X205232Y330200D03*
D16*
X234188Y330200D03*
D15*
X270256Y330200D03*
D16*
X280924Y330200D03*
D32*
X309880Y330200D03*
D16*
X328676Y330200D03*
D15*
X355600Y330200D03*
D16*
X377444Y330200D03*
D17*
X432816Y330200D03*
D15*
X449072Y330200D03*
D16*
X7620Y331216D03*
D15*
X38608Y331216D03*
D32*
X86360Y331216D03*
X100584Y331216D03*
D16*
X106172Y331216D03*
X124460Y331216D03*
X133604Y331216D03*
X152908Y331216D03*
X174244Y331216D03*
D28*
X189484Y331216D03*
D15*
X205232Y331216D03*
X234696Y331216D03*
D16*
X270764Y331216D03*
X279908Y331216D03*
D32*
X310896Y331216D03*
D15*
X329184Y331216D03*
D16*
X356108Y331216D03*
X377444Y331216D03*
D17*
X427736Y331216D03*
D15*
X449072Y331216D03*
X7112Y332232D03*
D16*
X38100Y332232D03*
D32*
X85344Y332232D03*
D26*
X103632Y332232D03*
D16*
X123444Y332232D03*
D15*
X133096Y332232D03*
X152400Y332232D03*
D16*
X173228Y332232D03*
D28*
X191516Y332232D03*
D15*
X205232Y332232D03*
X234696Y332232D03*
X271272Y332232D03*
D16*
X278892Y332232D03*
D32*
X311912Y332232D03*
D15*
X329184Y332232D03*
D16*
X357124Y332232D03*
X378460Y332232D03*
D49*
X423164Y332232D03*
D15*
X449072Y332232D03*
X7112Y333248D03*
D16*
X37084Y333248D03*
D32*
X84328Y333248D03*
D28*
X104140Y333248D03*
D16*
X123444Y333248D03*
D15*
X133096Y333248D03*
D16*
X151892Y333248D03*
X172212Y333248D03*
D28*
X192532Y333248D03*
D15*
X205232Y333248D03*
X234696Y333248D03*
X271272Y333248D03*
D16*
X277876Y333248D03*
D32*
X312928Y333248D03*
D16*
X329692Y333248D03*
D38*
X359664Y333248D03*
D16*
X379476Y333248D03*
D43*
X417576Y333248D03*
D15*
X449072Y333248D03*
X7112Y334264D03*
D16*
X37084Y334264D03*
D32*
X83312Y334264D03*
X104648Y334264D03*
D16*
X122428Y334264D03*
X132588Y334264D03*
D15*
X151384Y334264D03*
D16*
X171196Y334264D03*
D28*
X194564Y334264D03*
D15*
X205232Y334264D03*
X234696Y334264D03*
D16*
X271780Y334264D03*
X276860Y334264D03*
X314452Y334264D03*
D15*
X330200Y334264D03*
D17*
X361696Y334264D03*
D16*
X380492Y334264D03*
D44*
X411480Y334264D03*
D15*
X449072Y334264D03*
D16*
X6604Y335280D03*
X36068Y335280D03*
D32*
X82296Y335280D03*
X105664Y335280D03*
D16*
X121412Y335280D03*
D15*
X132080Y335280D03*
X151384Y335280D03*
D16*
X170180Y335280D03*
D28*
X195580Y335280D03*
D15*
X205232Y335280D03*
D16*
X235204Y335280D03*
D26*
X274320Y335280D03*
D32*
X315976Y335280D03*
D16*
X330708Y335280D03*
X355092Y335280D03*
D49*
X366268Y335280D03*
D16*
X380492Y335280D03*
D48*
X405892Y335280D03*
D15*
X449072Y335280D03*
X6096Y336296D03*
X35560Y336296D03*
D32*
X81280Y336296D03*
X106680Y336296D03*
D16*
X121412Y336296D03*
D15*
X132080Y336296D03*
D16*
X150876Y336296D03*
X169164Y336296D03*
D28*
X197612Y336296D03*
D15*
X205232Y336296D03*
X235712Y336296D03*
D28*
X273812Y336296D03*
D32*
X316992Y336296D03*
D15*
X331216Y336296D03*
D16*
X354076Y336296D03*
D48*
X373380Y336296D03*
X399796Y336296D03*
D15*
X449072Y336296D03*
X6096Y337312D03*
D16*
X35052Y337312D03*
D32*
X80264Y337312D03*
X107696Y337312D03*
D16*
X120396Y337312D03*
X131572Y337312D03*
D15*
X150368Y337312D03*
D16*
X168148Y337312D03*
D28*
X198628Y337312D03*
D16*
X205740Y337312D03*
D15*
X235712Y337312D03*
D32*
X273304Y337312D03*
X318008Y337312D03*
D15*
X331216Y337312D03*
D16*
X353060Y337312D03*
D54*
X386080Y337312D03*
D15*
X449072Y337312D03*
X6096Y338328D03*
X34544Y338328D03*
D32*
X79248Y338328D03*
X108712Y338328D03*
D15*
X119888Y338328D03*
X131064Y338328D03*
D16*
X149860Y338328D03*
X167132Y338328D03*
D21*
X202692Y338328D03*
D15*
X235712Y338328D03*
D32*
X272288Y338328D03*
X319024Y338328D03*
D16*
X331724Y338328D03*
X352044Y338328D03*
D55*
X385064Y338328D03*
D15*
X449072Y338328D03*
D16*
X5588Y339344D03*
X34036Y339344D03*
D32*
X78232Y339344D03*
X109728Y339344D03*
D16*
X119380Y339344D03*
D15*
X131064Y339344D03*
X149352Y339344D03*
D16*
X166116Y339344D03*
D23*
X203708Y339344D03*
D15*
X235712Y339344D03*
D32*
X271272Y339344D03*
X321056Y339344D03*
D15*
X332232Y339344D03*
D16*
X351028Y339344D03*
D10*
X384048Y339344D03*
D15*
X449072Y339344D03*
X5080Y340360D03*
D16*
X33020Y340360D03*
D32*
X77216Y340360D03*
X110744Y340360D03*
D16*
X118364Y340360D03*
D15*
X131064Y340360D03*
X149352Y340360D03*
D16*
X165100Y340360D03*
D26*
X204216Y340360D03*
D16*
X236220Y340360D03*
D32*
X270256Y340360D03*
X322072Y340360D03*
D16*
X332740Y340360D03*
X350012Y340360D03*
D41*
X383540Y340360D03*
D15*
X449072Y340360D03*
X5080Y341376D03*
D16*
X33020Y341376D03*
D32*
X76200Y341376D03*
X111760Y341376D03*
D16*
X117348Y341376D03*
D15*
X130048Y341376D03*
D16*
X148844Y341376D03*
X164084Y341376D03*
D28*
X205740Y341376D03*
D15*
X236728Y341376D03*
D32*
X268224Y341376D03*
X323088Y341376D03*
D15*
X333248Y341376D03*
D16*
X348996Y341376D03*
D15*
X449072Y341376D03*
X5080Y342392D03*
D16*
X32004Y342392D03*
D32*
X75184Y342392D03*
D23*
X115316Y342392D03*
D15*
X130048Y342392D03*
X148336Y342392D03*
D16*
X163068Y342392D03*
D28*
X206756Y342392D03*
D15*
X236728Y342392D03*
D32*
X267208Y342392D03*
X324104Y342392D03*
D15*
X333248Y342392D03*
D16*
X347980Y342392D03*
D15*
X449072Y342392D03*
D16*
X4572Y343408D03*
D15*
X31496Y343408D03*
D32*
X74168Y343408D03*
D28*
X115316Y343408D03*
D15*
X130048Y343408D03*
D16*
X147828Y343408D03*
X162052Y343408D03*
D28*
X208788Y343408D03*
D15*
X236728Y343408D03*
D32*
X266192Y343408D03*
X325120Y343408D03*
D16*
X333756Y343408D03*
X346964Y343408D03*
D15*
X449072Y343408D03*
X4064Y344424D03*
D16*
X30988Y344424D03*
D32*
X73152Y344424D03*
X115824Y344424D03*
D16*
X129540Y344424D03*
D15*
X147320Y344424D03*
D16*
X161036Y344424D03*
D28*
X210820Y344424D03*
D15*
X236728Y344424D03*
D28*
X264668Y344424D03*
D32*
X327152Y344424D03*
D15*
X334264Y344424D03*
D16*
X345948Y344424D03*
D15*
X449072Y344424D03*
X4064Y345440D03*
D32*
X31496Y345440D03*
X72136Y345440D03*
X116840Y345440D03*
D15*
X129032Y345440D03*
X147320Y345440D03*
D16*
X160020Y345440D03*
D28*
X211836Y345440D03*
D16*
X237236Y345440D03*
D32*
X263144Y345440D03*
X328168Y345440D03*
D16*
X334772Y345440D03*
D32*
X345440Y345440D03*
D15*
X449072Y345440D03*
X4064Y346456D03*
D43*
X36576Y346456D03*
D32*
X71120Y346456D03*
X117856Y346456D03*
D15*
X129032Y346456D03*
D16*
X146812Y346456D03*
X159004Y346456D03*
D28*
X213868Y346456D03*
D15*
X237744Y346456D03*
D32*
X262128Y346456D03*
X329184Y346456D03*
D15*
X335280Y346456D03*
D32*
X344424Y346456D03*
D15*
X449072Y346456D03*
D16*
X3556Y347472D03*
D56*
X41656Y347472D03*
D32*
X70104Y347472D03*
X118872Y347472D03*
D16*
X128524Y347472D03*
D15*
X146304Y347472D03*
D16*
X157988Y347472D03*
D28*
X214884Y347472D03*
D15*
X237744Y347472D03*
D32*
X261112Y347472D03*
X330200Y347472D03*
D15*
X335280Y347472D03*
D32*
X343408Y347472D03*
D15*
X449072Y347472D03*
X3048Y348488D03*
D27*
X51308Y348488D03*
D32*
X119888Y348488D03*
D15*
X128016Y348488D03*
D16*
X145796Y348488D03*
X156972Y348488D03*
D28*
X216916Y348488D03*
D15*
X237744Y348488D03*
D32*
X259080Y348488D03*
D23*
X333756Y348488D03*
D32*
X342392Y348488D03*
D15*
X449072Y348488D03*
X3048Y349504D03*
D39*
X56388Y349504D03*
D32*
X120904Y349504D03*
D15*
X128016Y349504D03*
X145288Y349504D03*
D16*
X155956Y349504D03*
D28*
X218948Y349504D03*
D15*
X237744Y349504D03*
D32*
X258064Y349504D03*
D26*
X334264Y349504D03*
D32*
X341376Y349504D03*
D15*
X449072Y349504D03*
X3048Y350520D03*
D17*
X61976Y350520D03*
D32*
X121920Y350520D03*
D15*
X128016Y350520D03*
X145288Y350520D03*
D32*
X154432Y350520D03*
D28*
X219964Y350520D03*
D15*
X237744Y350520D03*
D32*
X257048Y350520D03*
D37*
X337312Y350520D03*
D15*
X449072Y350520D03*
D16*
X3556Y351536D03*
D15*
X67056Y351536D03*
D26*
X124968Y351536D03*
D16*
X144780Y351536D03*
D32*
X153416Y351536D03*
D28*
X221996Y351536D03*
D16*
X238252Y351536D03*
D32*
X256032Y351536D03*
D38*
X337312Y351536D03*
D15*
X449072Y351536D03*
X4064Y352552D03*
D28*
X125476Y352552D03*
D15*
X144272Y352552D03*
D32*
X152400Y352552D03*
D28*
X223012Y352552D03*
D15*
X238760Y352552D03*
D32*
X254000Y352552D03*
D26*
X337312Y352552D03*
D15*
X449072Y352552D03*
D16*
X4572Y353568D03*
D32*
X125984Y353568D03*
D16*
X143764Y353568D03*
D32*
X151384Y353568D03*
D28*
X225044Y353568D03*
D15*
X238760Y353568D03*
D32*
X252984Y353568D03*
D16*
X337820Y353568D03*
D15*
X449072Y353568D03*
X5080Y354584D03*
D32*
X127000Y354584D03*
D15*
X143256Y354584D03*
D32*
X150368Y354584D03*
D28*
X226060Y354584D03*
D15*
X238760Y354584D03*
D32*
X251968Y354584D03*
D41*
X337820Y354584D03*
D15*
X449072Y354584D03*
D16*
X5588Y355600D03*
D32*
X128016Y355600D03*
D15*
X143256Y355600D03*
D32*
X149352Y355600D03*
D28*
X228092Y355600D03*
D15*
X238760Y355600D03*
D32*
X250952Y355600D03*
D15*
X449072Y355600D03*
X6096Y356616D03*
D32*
X129032Y356616D03*
D16*
X142748Y356616D03*
D32*
X148336Y356616D03*
D28*
X230124Y356616D03*
D16*
X239268Y356616D03*
D32*
X248920Y356616D03*
D15*
X449072Y356616D03*
D16*
X6604Y357632D03*
D32*
X130048Y357632D03*
D15*
X142240Y357632D03*
D32*
X147320Y357632D03*
D28*
X231140Y357632D03*
D15*
X239776Y357632D03*
D32*
X247904Y357632D03*
D15*
X449072Y357632D03*
X7112Y358648D03*
D32*
X131064Y358648D03*
D38*
X144272Y358648D03*
D28*
X233172Y358648D03*
D15*
X239776Y358648D03*
D32*
X246888Y358648D03*
D15*
X449072Y358648D03*
D16*
X7620Y359664D03*
D32*
X132080Y359664D03*
D23*
X143764Y359664D03*
D28*
X234188Y359664D03*
D15*
X239776Y359664D03*
D32*
X245872Y359664D03*
D15*
X449072Y359664D03*
X8128Y360680D03*
D16*
X133604Y360680D03*
D26*
X143256Y360680D03*
D10*
X239776Y360680D03*
D15*
X449072Y360680D03*
D16*
X8636Y361696D03*
X134620Y361696D03*
D26*
X142240Y361696D03*
D21*
X240284Y361696D03*
D15*
X449072Y361696D03*
D16*
X9652Y362712D03*
D37*
X139192Y362712D03*
D23*
X240284Y362712D03*
D15*
X449072Y362712D03*
D16*
X9652Y363728D03*
D38*
X139192Y363728D03*
D32*
X240792Y363728D03*
D15*
X449072Y363728D03*
D16*
X10668Y364744D03*
D26*
X139192Y364744D03*
D41*
X240284Y364744D03*
D15*
X449072Y364744D03*
D16*
X10668Y365760D03*
D32*
X139192Y365760D03*
D15*
X449072Y365760D03*
D16*
X11684Y366776D03*
D15*
X139192Y366776D03*
X449072Y366776D03*
X12192Y367792D03*
X449072Y367792D03*
D16*
X12700Y368808D03*
D15*
X449072Y368808D03*
X13208Y369824D03*
X449072Y369824D03*
D16*
X13716Y370840D03*
D15*
X449072Y370840D03*
X14224Y371856D03*
X449072Y371856D03*
D16*
X14732Y372872D03*
D15*
X449072Y372872D03*
X15240Y373888D03*
X449072Y373888D03*
D16*
X15748Y374904D03*
D15*
X449072Y374904D03*
X16256Y375920D03*
X449072Y375920D03*
D16*
X16764Y376936D03*
D15*
X449072Y376936D03*
X17272Y377952D03*
X449072Y377952D03*
D16*
X17780Y378968D03*
D15*
X449072Y378968D03*
X18288Y379984D03*
X449072Y379984D03*
D16*
X18796Y381000D03*
D15*
X449072Y381000D03*
X19304Y382016D03*
X449072Y382016D03*
D16*
X19812Y383032D03*
D15*
X449072Y383032D03*
X20320Y384048D03*
D16*
X198628Y384048D03*
D15*
X449072Y384048D03*
D16*
X20828Y385064D03*
D21*
X198628Y385064D03*
D28*
X447548Y385064D03*
D15*
X21336Y386080D03*
D49*
X198628Y386080D03*
D37*
X445008Y386080D03*
D16*
X21844Y387096D03*
D38*
X192024Y387096D03*
D21*
X204724Y387096D03*
D49*
X442468Y387096D03*
D15*
X22352Y388112D03*
D21*
X188468Y388112D03*
X207772Y388112D03*
D49*
X437388Y388112D03*
D16*
X22860Y389128D03*
D21*
X185420Y389128D03*
D37*
X211328Y389128D03*
D49*
X432308Y389128D03*
D16*
X23876Y390144D03*
D21*
X182372Y390144D03*
X214884Y390144D03*
D49*
X427228Y390144D03*
D16*
X23876Y391160D03*
D21*
X179324Y391160D03*
X217932Y391160D03*
D49*
X422148Y391160D03*
D16*
X24892Y392176D03*
D21*
X176276Y392176D03*
X220980Y392176D03*
D17*
X417576Y392176D03*
D16*
X24892Y393192D03*
D21*
X173228Y393192D03*
X224028Y393192D03*
D37*
X414528Y393192D03*
D16*
X25908Y394208D03*
D21*
X170180Y394208D03*
D37*
X227584Y394208D03*
D26*
X411480Y394208D03*
X27432Y395224D03*
D21*
X167132Y395224D03*
D37*
X230632Y395224D03*
D32*
X408432Y395224D03*
D38*
X29464Y396240D03*
D21*
X164084Y396240D03*
X234188Y396240D03*
D32*
X407416Y396240D03*
D37*
X32512Y397256D03*
D21*
X161036Y397256D03*
X237236Y397256D03*
D32*
X406400Y397256D03*
D37*
X35560Y398272D03*
D21*
X157988Y398272D03*
X240284Y398272D03*
D32*
X405384Y398272D03*
D37*
X38608Y399288D03*
D21*
X154940Y399288D03*
X243332Y399288D03*
D32*
X404368Y399288D03*
D37*
X42672Y400304D03*
D21*
X151892Y400304D03*
D37*
X246888Y400304D03*
D32*
X403352Y400304D03*
D37*
X45720Y401320D03*
D38*
X148336Y401320D03*
D21*
X250444Y401320D03*
D32*
X402336Y401320D03*
D37*
X49784Y402336D03*
D21*
X144780Y402336D03*
X253492Y402336D03*
D32*
X401320Y402336D03*
D37*
X52832Y403352D03*
D21*
X141732Y403352D03*
X256540Y403352D03*
D32*
X400304Y403352D03*
D37*
X56896Y404368D03*
D21*
X138684Y404368D03*
X259588Y404368D03*
D16*
X398780Y404368D03*
D37*
X59944Y405384D03*
D21*
X135636Y405384D03*
D37*
X263144Y405384D03*
D16*
X397764Y405384D03*
D37*
X62992Y406400D03*
D21*
X132588Y406400D03*
D37*
X266192Y406400D03*
D16*
X396748Y406400D03*
D37*
X67056Y407416D03*
D21*
X129540Y407416D03*
X269748Y407416D03*
D16*
X395732Y407416D03*
D37*
X70104Y408432D03*
D21*
X126492Y408432D03*
X272796Y408432D03*
D16*
X394716Y408432D03*
D37*
X74168Y409448D03*
D21*
X123444Y409448D03*
X275844Y409448D03*
D16*
X393700Y409448D03*
D37*
X77216Y410464D03*
D21*
X120396Y410464D03*
X278892Y410464D03*
D16*
X392684Y410464D03*
D37*
X81280Y411480D03*
D21*
X117348Y411480D03*
D37*
X282448Y411480D03*
D40*
X380492Y411480D03*
D37*
X84328Y412496D03*
D21*
X114300Y412496D03*
X286004Y412496D03*
D57*
X357632Y412496D03*
D37*
X87376Y413512D03*
D21*
X111252Y413512D03*
D58*
X337820Y413512D03*
D37*
X91440Y414528D03*
D21*
X108204Y414528D03*
D59*
X332232Y414528D03*
D48*
X99060Y415544D03*
D60*
X311912Y415544D03*
D10*
X99568Y416560D03*
D26*
X99568Y417576D03*
D61*
X279400Y358902D02*
X304800Y358902D01*
D62*
X301856Y386358D02*
X301573Y386588D01*
X301284Y386812D01*
X300990Y387028D01*
X300691Y387238D01*
X300387Y387440D01*
X300078Y387635D01*
X299765Y387822D01*
X299447Y388002D01*
X299125Y388174D01*
X298800Y388338D01*
X298470Y388495D01*
X298136Y388644D01*
X297799Y388784D01*
X297459Y388917D01*
X297116Y389041D01*
X296770Y389157D01*
X296421Y389265D01*
X296070Y389364D01*
X295716Y389455D01*
X295360Y389537D01*
X295003Y389611D01*
X294644Y389676D01*
X294283Y389733D01*
X293921Y389781D01*
X293558Y389820D01*
X293194Y389851D01*
X292830Y389873D01*
X292465Y389886D01*
X292100Y389890D01*
X291731Y389886D01*
X291362Y389872D01*
X290993Y389850D01*
X290625Y389819D01*
X290258Y389778D01*
X289893Y389729D01*
X289528Y389672D01*
X289165Y389605D01*
X288804Y389529D01*
X288444Y389445D01*
X288087Y389352D01*
X287732Y389251D01*
X287380Y389141D01*
X287030Y389022D01*
X286684Y388895D01*
X286340Y388760D01*
X286000Y388616D01*
X285664Y388465D01*
X285331Y388305D01*
X285002Y388137D01*
X284678Y387961D01*
X284358Y387777D01*
X284042Y387586D01*
X283731Y387387D01*
X283425Y387181D01*
X283124Y386967D01*
X282828Y386746D01*
X282538Y386518D01*
X282253Y386283D01*
X281975Y386041D01*
X292100Y359410D02*
X292472Y359415D01*
X292845Y359428D01*
X293216Y359451D01*
X293587Y359483D01*
X293957Y359524D01*
X294327Y359574D01*
X294694Y359632D01*
X295060Y359700D01*
X295425Y359777D01*
X295787Y359863D01*
X296147Y359957D01*
X296505Y360061D01*
X296860Y360173D01*
X297213Y360293D01*
X297562Y360422D01*
X297908Y360560D01*
X298250Y360706D01*
X298589Y360861D01*
X298924Y361023D01*
X299255Y361194D01*
X299582Y361373D01*
X299904Y361560D01*
X300221Y361754D01*
X300534Y361957D01*
X300842Y362166D01*
X301144Y362384D01*
X301441Y362608D01*
X301732Y362840D01*
X302018Y363079D01*
X292100Y359410D02*
X291735Y359414D01*
X291370Y359427D01*
X291006Y359449D01*
X290642Y359480D01*
X290279Y359519D01*
X289917Y359567D01*
X289556Y359624D01*
X289197Y359689D01*
X288840Y359763D01*
X288484Y359845D01*
X288130Y359936D01*
X287779Y360035D01*
X287430Y360143D01*
X287084Y360259D01*
X286741Y360383D01*
X286401Y360516D01*
X286064Y360656D01*
X285730Y360805D01*
X285400Y360962D01*
X285075Y361126D01*
X284753Y361298D01*
X284435Y361478D01*
X284122Y361665D01*
X283813Y361860D01*
X283509Y362062D01*
X283210Y362272D01*
X282916Y362488D01*
X282627Y362712D01*
X282344Y362942D01*
X300958Y362249D02*
X301258Y362468D01*
X301552Y362695D01*
X301840Y362929D01*
X302123Y363170D01*
X302400Y363417D01*
X302671Y363672D01*
X302935Y363933D01*
X303193Y364200D01*
X303444Y364473D01*
X303689Y364753D01*
X303927Y365038D01*
X304157Y365329D01*
X304381Y365626D01*
X304597Y365928D01*
X304806Y366235D01*
X305007Y366547D01*
X305201Y366864D01*
X305387Y367186D01*
X305565Y367512D01*
X305735Y367842D01*
X305897Y368176D01*
X306050Y368514D01*
X306196Y368856D01*
X306333Y369201D01*
X306461Y369550D01*
X306581Y369901D01*
X306693Y370256D01*
X306795Y370613D01*
X306890Y370972D01*
X306975Y371333D01*
X307051Y371697D01*
X307119Y372062D01*
X307177Y372429D01*
X307227Y372797D01*
X307268Y373166D01*
X307299Y373536D01*
X307322Y373907D01*
X307335Y374278D01*
X307340Y374650D01*
X307335Y375022D01*
X307322Y375393D01*
X307299Y375765D01*
X307267Y376135D01*
X307227Y376505D01*
X307177Y376873D01*
X307118Y377241D01*
X307051Y377606D01*
X306974Y377970D01*
X306888Y378332D01*
X306794Y378692D01*
X306691Y379049D01*
X306580Y379404D01*
X306459Y379756D01*
X306330Y380105D01*
X306193Y380450D01*
X306047Y380792D01*
X305893Y381131D01*
X305731Y381466D01*
X305561Y381796D01*
X305382Y382122D01*
X305196Y382444D01*
X305002Y382762D01*
X304800Y383074D01*
X304591Y383381D01*
X304374Y383683D01*
X304150Y383980D01*
X303919Y384272D01*
X303681Y384557D01*
X303435Y384837D01*
X303183Y385110D01*
X302925Y385378D01*
X302660Y385638D01*
X302389Y385893D01*
X302111Y386141D01*
X301828Y386381D01*
X301539Y386615D01*
X301244Y386842D01*
X276860Y374650D02*
X276864Y374285D01*
X276877Y373920D01*
X276899Y373556D01*
X276930Y373193D01*
X276969Y372830D01*
X277017Y372468D01*
X277074Y372108D01*
X277139Y371749D01*
X277212Y371391D01*
X277295Y371036D01*
X277385Y370683D01*
X277485Y370331D01*
X277592Y369983D01*
X277708Y369637D01*
X277832Y369294D01*
X277965Y368954D01*
X278105Y368617D01*
X278253Y368284D01*
X278410Y367954D01*
X278574Y367628D01*
X278746Y367306D01*
X278926Y366989D01*
X279113Y366676D01*
X279307Y366367D01*
X279509Y366063D01*
X279719Y365764D01*
X279935Y365470D01*
X280158Y365182D01*
X280388Y364899D01*
X280625Y364621D01*
X280868Y364349D01*
X281118Y364083D01*
X281374Y363823D01*
X281637Y363570D01*
X281905Y363322D01*
X282179Y363082D01*
X282459Y362847D01*
X282744Y362620D01*
X276860Y374650D02*
X276864Y375015D01*
X276877Y375380D01*
X276899Y375744D01*
X276930Y376107D01*
X276969Y376470D01*
X277017Y376832D01*
X277074Y377192D01*
X277139Y377551D01*
X277212Y377909D01*
X277295Y378264D01*
X277385Y378617D01*
X277485Y378969D01*
X277592Y379317D01*
X277708Y379663D01*
X277832Y380006D01*
X277965Y380346D01*
X278105Y380683D01*
X278253Y381016D01*
X278410Y381346D01*
X278574Y381672D01*
X278746Y381994D01*
X278926Y382311D01*
X279113Y382624D01*
X279307Y382933D01*
X279509Y383237D01*
X279719Y383536D01*
X279935Y383830D01*
X280158Y384118D01*
X280388Y384401D01*
X280625Y384679D01*
X280868Y384951D01*
X281118Y385217D01*
X281374Y385477D01*
X281637Y385730D01*
X281905Y385978D01*
X282179Y386218D01*
X282459Y386453D01*
X282744Y386680D01*
X292100Y381000D02*
X292258Y380998D01*
X292417Y380992D01*
X292575Y380982D01*
X292732Y380968D01*
X292890Y380951D01*
X293046Y380929D01*
X293203Y380904D01*
X293358Y380874D01*
X293513Y380841D01*
X293667Y380804D01*
X293820Y380763D01*
X293972Y380718D01*
X294122Y380669D01*
X294272Y380617D01*
X294420Y380561D01*
X294567Y380501D01*
X294712Y380438D01*
X294855Y380371D01*
X294997Y380301D01*
X295137Y380227D01*
X295275Y380149D01*
X295411Y380068D01*
X295545Y379984D01*
X295677Y379897D01*
X295807Y379806D01*
X295934Y379712D01*
X296059Y379615D01*
X296182Y379514D01*
X296302Y379411D01*
X296419Y379305D01*
X296534Y379196D01*
X296646Y379084D01*
X296755Y378969D01*
X296861Y378852D01*
X296964Y378732D01*
X297065Y378609D01*
X297162Y378484D01*
X297256Y378357D01*
X297347Y378227D01*
X297434Y378095D01*
X297518Y377961D01*
X297599Y377825D01*
X297677Y377687D01*
X297751Y377547D01*
X297821Y377405D01*
X297888Y377262D01*
X297951Y377117D01*
X298011Y376970D01*
X298067Y376822D01*
X298119Y376672D01*
X298168Y376522D01*
X298213Y376370D01*
X298254Y376217D01*
X298291Y376063D01*
X298324Y375908D01*
X298354Y375753D01*
X298379Y375596D01*
X298401Y375440D01*
X298418Y375282D01*
X298432Y375125D01*
X298442Y374967D01*
X298448Y374808D01*
X298450Y374650D01*
X302260Y374650D02*
X302257Y374896D01*
X302248Y375141D01*
X302233Y375386D01*
X302213Y375631D01*
X302186Y375875D01*
X302153Y376118D01*
X302115Y376361D01*
X302071Y376602D01*
X302021Y376842D01*
X301965Y377081D01*
X301903Y377319D01*
X301836Y377555D01*
X301763Y377790D01*
X301684Y378022D01*
X301600Y378253D01*
X301510Y378481D01*
X301415Y378708D01*
X301314Y378931D01*
X301208Y379153D01*
X301096Y379372D01*
X300980Y379588D01*
X300858Y379801D01*
X300731Y380011D01*
X300599Y380218D01*
X300462Y380422D01*
X300320Y380622D01*
X300173Y380819D01*
X300021Y381012D01*
X299865Y381202D01*
X299705Y381387D01*
X299540Y381569D01*
X299370Y381747D01*
X299197Y381920D01*
X299019Y382090D01*
X298837Y382255D01*
X298652Y382415D01*
X298462Y382571D01*
X298269Y382723D01*
X298072Y382870D01*
X297872Y383012D01*
X297668Y383149D01*
X297461Y383281D01*
X297251Y383408D01*
X297038Y383530D01*
X296822Y383646D01*
X296603Y383758D01*
X296381Y383864D01*
X296158Y383965D01*
X295931Y384060D01*
X295703Y384150D01*
X295472Y384234D01*
X295240Y384313D01*
X295005Y384386D01*
X294769Y384453D01*
X294531Y384515D01*
X294292Y384571D01*
X294052Y384621D01*
X293811Y384665D01*
X293568Y384703D01*
X293325Y384736D01*
X293081Y384763D01*
X292836Y384783D01*
X292591Y384798D01*
X292346Y384807D01*
X292100Y384810D01*
X285750Y374650D02*
X285752Y374492D01*
X285758Y374333D01*
X285768Y374175D01*
X285782Y374018D01*
X285799Y373860D01*
X285821Y373704D01*
X285846Y373547D01*
X285876Y373392D01*
X285909Y373237D01*
X285946Y373083D01*
X285987Y372930D01*
X286032Y372778D01*
X286081Y372628D01*
X286133Y372478D01*
X286189Y372330D01*
X286249Y372183D01*
X286312Y372038D01*
X286379Y371895D01*
X286449Y371753D01*
X286523Y371613D01*
X286601Y371475D01*
X286682Y371339D01*
X286766Y371205D01*
X286853Y371073D01*
X286944Y370943D01*
X287038Y370816D01*
X287135Y370691D01*
X287236Y370568D01*
X287339Y370448D01*
X287445Y370331D01*
X287554Y370216D01*
X287666Y370104D01*
X287781Y369995D01*
X287898Y369889D01*
X288018Y369786D01*
X288141Y369685D01*
X288266Y369588D01*
X288393Y369494D01*
X288523Y369403D01*
X288655Y369316D01*
X288789Y369232D01*
X288925Y369151D01*
X289063Y369073D01*
X289203Y368999D01*
X289345Y368929D01*
X289488Y368862D01*
X289633Y368799D01*
X289780Y368739D01*
X289928Y368683D01*
X290078Y368631D01*
X290228Y368582D01*
X290380Y368537D01*
X290533Y368496D01*
X290687Y368459D01*
X290842Y368426D01*
X290997Y368396D01*
X291154Y368371D01*
X291310Y368349D01*
X291468Y368332D01*
X291625Y368318D01*
X291783Y368308D01*
X291942Y368302D01*
X292100Y368300D01*
X292100Y364490D02*
X291854Y364493D01*
X291609Y364502D01*
X291364Y364517D01*
X291119Y364537D01*
X290875Y364564D01*
X290632Y364597D01*
X290389Y364635D01*
X290148Y364679D01*
X289908Y364729D01*
X289669Y364785D01*
X289431Y364847D01*
X289195Y364914D01*
X288960Y364987D01*
X288728Y365066D01*
X288497Y365150D01*
X288269Y365240D01*
X288042Y365335D01*
X287819Y365436D01*
X287597Y365542D01*
X287378Y365654D01*
X287162Y365770D01*
X286949Y365892D01*
X286739Y366019D01*
X286532Y366151D01*
X286328Y366288D01*
X286128Y366430D01*
X285931Y366577D01*
X285738Y366729D01*
X285548Y366885D01*
X285363Y367045D01*
X285181Y367210D01*
X285003Y367380D01*
X284830Y367553D01*
X284660Y367731D01*
X284495Y367913D01*
X284335Y368098D01*
X284179Y368288D01*
X284027Y368481D01*
X283880Y368678D01*
X283738Y368878D01*
X283601Y369082D01*
X283469Y369289D01*
X283342Y369499D01*
X283220Y369712D01*
X283104Y369928D01*
X282992Y370147D01*
X282886Y370369D01*
X282785Y370592D01*
X282690Y370819D01*
X282600Y371047D01*
X282516Y371278D01*
X282437Y371510D01*
X282364Y371745D01*
X282297Y371981D01*
X282235Y372219D01*
X282179Y372458D01*
X282129Y372698D01*
X282085Y372939D01*
X282047Y373182D01*
X282014Y373425D01*
X281987Y373669D01*
X281967Y373914D01*
X281952Y374159D01*
X281943Y374404D01*
X281940Y374650D01*
D61*
X305109Y359040D02*
X305485Y359361D01*
X305853Y359691D01*
X306213Y360031D01*
X306564Y360378D01*
X306907Y360734D01*
X307242Y361099D01*
X307567Y361471D01*
X307883Y361852D01*
X308190Y362239D01*
X308487Y362635D01*
X308774Y363037D01*
X309052Y363446D01*
X309320Y363862D01*
X309577Y364284D01*
X309824Y364712D01*
X310061Y365146D01*
X310287Y365586D01*
X310502Y366031D01*
X310706Y366482D01*
X310899Y366937D01*
X311081Y367397D01*
X311252Y367861D01*
X311412Y368329D01*
X311560Y368800D01*
X311696Y369276D01*
X311821Y369754D01*
X311935Y370235D01*
X312036Y370719D01*
X312126Y371206D01*
X312204Y371694D01*
X312270Y372184D01*
X312324Y372675D01*
X312366Y373168D01*
X312396Y373662D01*
X312414Y374156D01*
X312420Y374650D01*
X312414Y375138D01*
X312397Y375625D01*
X312367Y376112D01*
X312326Y376599D01*
X312274Y377084D01*
X312209Y377568D01*
X312133Y378050D01*
X312046Y378530D01*
X311947Y379008D01*
X311837Y379483D01*
X311715Y379956D01*
X311582Y380425D01*
X311437Y380892D01*
X311282Y381354D01*
X311115Y381813D01*
X310938Y382268D01*
X310749Y382718D01*
X310550Y383163D01*
X310340Y383604D01*
X310120Y384040D01*
X309889Y384470D01*
X309648Y384894D01*
X309397Y385312D01*
X309136Y385725D01*
X308865Y386131D01*
X308585Y386530D01*
X308295Y386923D01*
X307995Y387308D01*
X307686Y387686D01*
X307369Y388057D01*
X307042Y388419D01*
X306707Y388774D01*
X306364Y389121D01*
X306012Y389459D01*
X305653Y389789D01*
X305285Y390110D01*
X304910Y390423D01*
X304527Y390726D01*
X304138Y391020D01*
X303741Y391304D01*
X303338Y391579D01*
X302928Y391844D01*
X302512Y392099D01*
X302090Y392344D01*
X301662Y392579D01*
X271780Y374650D02*
X271786Y374160D01*
X271804Y373670D01*
X271833Y373181D01*
X271875Y372692D01*
X271928Y372205D01*
X271992Y371719D01*
X272069Y371235D01*
X272157Y370753D01*
X272257Y370273D01*
X272368Y369795D01*
X272491Y369321D01*
X272626Y368849D01*
X272771Y368381D01*
X272928Y367917D01*
X273096Y367456D01*
X273275Y367000D01*
X273465Y366548D01*
X273666Y366101D01*
X273878Y365659D01*
X274100Y365222D01*
X274332Y364790D01*
X274575Y364364D01*
X274829Y363945D01*
X275092Y363531D01*
X275365Y363124D01*
X275648Y362724D01*
X275941Y362330D01*
X276242Y361944D01*
X276554Y361565D01*
X276874Y361194D01*
X277203Y360831D01*
X277540Y360475D01*
X277887Y360128D01*
X278241Y359790D01*
X278604Y359460D01*
X278974Y359138D01*
X271780Y374650D02*
X271786Y375147D01*
X271804Y375644D01*
X271835Y376140D01*
X271877Y376635D01*
X271932Y377129D01*
X271998Y377622D01*
X272077Y378112D01*
X272168Y378601D01*
X272270Y379087D01*
X272385Y379571D01*
X272511Y380051D01*
X272649Y380529D01*
X272798Y381003D01*
X272959Y381473D01*
X273132Y381939D01*
X273316Y382401D01*
X273511Y382858D01*
X273717Y383310D01*
X273934Y383757D01*
X274163Y384198D01*
X274401Y384634D01*
X274651Y385064D01*
X274911Y385487D01*
X275181Y385905D01*
X275461Y386315D01*
X275751Y386718D01*
X276051Y387115D01*
X276361Y387503D01*
X276680Y387884D01*
X277008Y388257D01*
X277345Y388622D01*
X277691Y388979D01*
X278046Y389327D01*
X278409Y389666D01*
X278780Y389997D01*
X279160Y390318D01*
X279547Y390630D01*
X279941Y390932D01*
X280343Y391224D01*
X280752Y391507D01*
X281167Y391779D01*
X281590Y392042D01*
X282018Y392293D01*
X292100Y394970D02*
X292578Y394964D01*
X293056Y394948D01*
X293533Y394919D01*
X294009Y394880D01*
X294484Y394830D01*
X294958Y394768D01*
X295431Y394695D01*
X295901Y394611D01*
X296370Y394516D01*
X296836Y394410D01*
X297299Y394294D01*
X297760Y394166D01*
X298217Y394027D01*
X298671Y393878D01*
X299122Y393718D01*
X299568Y393548D01*
X300011Y393367D01*
X300449Y393176D01*
X300882Y392974D01*
X301311Y392763D01*
X301734Y392541D01*
X292100Y394970D02*
X291612Y394964D01*
X291125Y394947D01*
X290639Y394917D01*
X290153Y394877D01*
X289669Y394824D01*
X289186Y394760D01*
X288704Y394684D01*
X288225Y394597D01*
X287747Y394499D01*
X287273Y394388D01*
X286801Y394267D01*
X286332Y394134D01*
X285866Y393990D01*
X285404Y393835D01*
X284946Y393669D01*
X284492Y393492D01*
X284042Y393304D01*
X283597Y393106D01*
X283157Y392897D01*
X282722Y392677D01*
X282292Y392447D01*
X281868Y392206D01*
X281450Y391956D01*
X406400Y346202D02*
X431800Y346202D01*
D62*
X428856Y373658D02*
X428573Y373888D01*
X428284Y374112D01*
X427990Y374328D01*
X427691Y374538D01*
X427387Y374740D01*
X427078Y374935D01*
X426765Y375122D01*
X426447Y375302D01*
X426125Y375474D01*
X425800Y375638D01*
X425470Y375795D01*
X425136Y375944D01*
X424799Y376084D01*
X424459Y376217D01*
X424116Y376341D01*
X423770Y376457D01*
X423421Y376565D01*
X423070Y376664D01*
X422716Y376755D01*
X422360Y376837D01*
X422003Y376911D01*
X421644Y376976D01*
X421283Y377033D01*
X420921Y377081D01*
X420558Y377120D01*
X420194Y377151D01*
X419830Y377173D01*
X419465Y377186D01*
X419100Y377190D01*
X418731Y377186D01*
X418362Y377172D01*
X417993Y377150D01*
X417625Y377119D01*
X417258Y377078D01*
X416893Y377029D01*
X416528Y376972D01*
X416165Y376905D01*
X415804Y376829D01*
X415444Y376745D01*
X415087Y376652D01*
X414732Y376551D01*
X414380Y376441D01*
X414030Y376322D01*
X413684Y376195D01*
X413340Y376060D01*
X413000Y375916D01*
X412664Y375765D01*
X412331Y375605D01*
X412002Y375437D01*
X411678Y375261D01*
X411358Y375077D01*
X411042Y374886D01*
X410731Y374687D01*
X410425Y374481D01*
X410124Y374267D01*
X409828Y374046D01*
X409538Y373818D01*
X409253Y373583D01*
X408975Y373341D01*
X419100Y346710D02*
X419472Y346715D01*
X419845Y346728D01*
X420216Y346751D01*
X420587Y346783D01*
X420957Y346824D01*
X421327Y346874D01*
X421694Y346932D01*
X422060Y347000D01*
X422425Y347077D01*
X422787Y347163D01*
X423147Y347257D01*
X423505Y347361D01*
X423860Y347473D01*
X424213Y347593D01*
X424562Y347722D01*
X424908Y347860D01*
X425250Y348006D01*
X425589Y348161D01*
X425924Y348323D01*
X426255Y348494D01*
X426582Y348673D01*
X426904Y348860D01*
X427221Y349054D01*
X427534Y349257D01*
X427842Y349466D01*
X428144Y349684D01*
X428441Y349908D01*
X428732Y350140D01*
X429018Y350379D01*
X419100Y346710D02*
X418735Y346714D01*
X418370Y346727D01*
X418006Y346749D01*
X417642Y346780D01*
X417279Y346819D01*
X416917Y346867D01*
X416556Y346924D01*
X416197Y346989D01*
X415840Y347063D01*
X415484Y347145D01*
X415130Y347236D01*
X414779Y347335D01*
X414430Y347443D01*
X414084Y347559D01*
X413741Y347683D01*
X413401Y347816D01*
X413064Y347956D01*
X412730Y348105D01*
X412400Y348262D01*
X412075Y348426D01*
X411753Y348598D01*
X411435Y348778D01*
X411122Y348965D01*
X410813Y349160D01*
X410509Y349362D01*
X410210Y349572D01*
X409916Y349788D01*
X409627Y350012D01*
X409344Y350242D01*
X427958Y349549D02*
X428258Y349768D01*
X428552Y349995D01*
X428840Y350229D01*
X429123Y350470D01*
X429400Y350717D01*
X429671Y350972D01*
X429935Y351233D01*
X430193Y351500D01*
X430444Y351773D01*
X430689Y352053D01*
X430927Y352338D01*
X431157Y352629D01*
X431381Y352926D01*
X431597Y353228D01*
X431806Y353535D01*
X432007Y353847D01*
X432201Y354164D01*
X432387Y354486D01*
X432565Y354812D01*
X432735Y355142D01*
X432897Y355476D01*
X433050Y355814D01*
X433196Y356156D01*
X433333Y356501D01*
X433461Y356850D01*
X433581Y357201D01*
X433693Y357556D01*
X433795Y357913D01*
X433890Y358272D01*
X433975Y358633D01*
X434051Y358997D01*
X434119Y359362D01*
X434177Y359729D01*
X434227Y360097D01*
X434268Y360466D01*
X434299Y360836D01*
X434322Y361207D01*
X434335Y361578D01*
X434340Y361950D01*
X434335Y362322D01*
X434322Y362693D01*
X434299Y363065D01*
X434267Y363435D01*
X434227Y363805D01*
X434177Y364173D01*
X434118Y364541D01*
X434051Y364906D01*
X433974Y365270D01*
X433888Y365632D01*
X433794Y365992D01*
X433691Y366349D01*
X433580Y366704D01*
X433459Y367056D01*
X433330Y367405D01*
X433193Y367750D01*
X433047Y368092D01*
X432893Y368431D01*
X432731Y368766D01*
X432561Y369096D01*
X432382Y369422D01*
X432196Y369744D01*
X432002Y370062D01*
X431800Y370374D01*
X431591Y370681D01*
X431374Y370983D01*
X431150Y371280D01*
X430919Y371572D01*
X430681Y371857D01*
X430435Y372137D01*
X430183Y372410D01*
X429925Y372678D01*
X429660Y372938D01*
X429389Y373193D01*
X429111Y373441D01*
X428828Y373681D01*
X428539Y373915D01*
X428244Y374142D01*
X403860Y361950D02*
X403864Y361585D01*
X403877Y361220D01*
X403899Y360856D01*
X403930Y360493D01*
X403969Y360130D01*
X404017Y359768D01*
X404074Y359408D01*
X404139Y359049D01*
X404212Y358691D01*
X404295Y358336D01*
X404385Y357983D01*
X404485Y357631D01*
X404592Y357283D01*
X404708Y356937D01*
X404832Y356594D01*
X404965Y356254D01*
X405105Y355917D01*
X405253Y355584D01*
X405410Y355254D01*
X405574Y354928D01*
X405746Y354606D01*
X405926Y354289D01*
X406113Y353976D01*
X406307Y353667D01*
X406509Y353363D01*
X406719Y353064D01*
X406935Y352770D01*
X407158Y352482D01*
X407388Y352199D01*
X407625Y351921D01*
X407868Y351649D01*
X408118Y351383D01*
X408374Y351123D01*
X408637Y350870D01*
X408905Y350622D01*
X409179Y350382D01*
X409459Y350147D01*
X409744Y349920D01*
X403860Y361950D02*
X403864Y362315D01*
X403877Y362680D01*
X403899Y363044D01*
X403930Y363407D01*
X403969Y363770D01*
X404017Y364132D01*
X404074Y364492D01*
X404139Y364851D01*
X404212Y365209D01*
X404295Y365564D01*
X404385Y365917D01*
X404485Y366269D01*
X404592Y366617D01*
X404708Y366963D01*
X404832Y367306D01*
X404965Y367646D01*
X405105Y367983D01*
X405253Y368316D01*
X405410Y368646D01*
X405574Y368972D01*
X405746Y369294D01*
X405926Y369611D01*
X406113Y369924D01*
X406307Y370233D01*
X406509Y370537D01*
X406719Y370836D01*
X406935Y371130D01*
X407158Y371418D01*
X407388Y371701D01*
X407625Y371979D01*
X407868Y372251D01*
X408118Y372517D01*
X408374Y372777D01*
X408637Y373030D01*
X408905Y373278D01*
X409179Y373518D01*
X409459Y373753D01*
X409744Y373980D01*
X419100Y368300D02*
X419258Y368298D01*
X419417Y368292D01*
X419575Y368282D01*
X419732Y368268D01*
X419890Y368251D01*
X420046Y368229D01*
X420203Y368204D01*
X420358Y368174D01*
X420513Y368141D01*
X420667Y368104D01*
X420820Y368063D01*
X420972Y368018D01*
X421122Y367969D01*
X421272Y367917D01*
X421420Y367861D01*
X421567Y367801D01*
X421712Y367738D01*
X421855Y367671D01*
X421997Y367601D01*
X422137Y367527D01*
X422275Y367449D01*
X422411Y367368D01*
X422545Y367284D01*
X422677Y367197D01*
X422807Y367106D01*
X422934Y367012D01*
X423059Y366915D01*
X423182Y366814D01*
X423302Y366711D01*
X423419Y366605D01*
X423534Y366496D01*
X423646Y366384D01*
X423755Y366269D01*
X423861Y366152D01*
X423964Y366032D01*
X424065Y365909D01*
X424162Y365784D01*
X424256Y365657D01*
X424347Y365527D01*
X424434Y365395D01*
X424518Y365261D01*
X424599Y365125D01*
X424677Y364987D01*
X424751Y364847D01*
X424821Y364705D01*
X424888Y364562D01*
X424951Y364417D01*
X425011Y364270D01*
X425067Y364122D01*
X425119Y363972D01*
X425168Y363822D01*
X425213Y363670D01*
X425254Y363517D01*
X425291Y363363D01*
X425324Y363208D01*
X425354Y363053D01*
X425379Y362896D01*
X425401Y362740D01*
X425418Y362582D01*
X425432Y362425D01*
X425442Y362267D01*
X425448Y362108D01*
X425450Y361950D01*
X429260Y361950D02*
X429257Y362196D01*
X429248Y362441D01*
X429233Y362686D01*
X429213Y362931D01*
X429186Y363175D01*
X429153Y363418D01*
X429115Y363661D01*
X429071Y363902D01*
X429021Y364142D01*
X428965Y364381D01*
X428903Y364619D01*
X428836Y364855D01*
X428763Y365090D01*
X428684Y365322D01*
X428600Y365553D01*
X428510Y365781D01*
X428415Y366008D01*
X428314Y366231D01*
X428208Y366453D01*
X428096Y366672D01*
X427980Y366888D01*
X427858Y367101D01*
X427731Y367311D01*
X427599Y367518D01*
X427462Y367722D01*
X427320Y367922D01*
X427173Y368119D01*
X427021Y368312D01*
X426865Y368502D01*
X426705Y368687D01*
X426540Y368869D01*
X426370Y369047D01*
X426197Y369220D01*
X426019Y369390D01*
X425837Y369555D01*
X425652Y369715D01*
X425462Y369871D01*
X425269Y370023D01*
X425072Y370170D01*
X424872Y370312D01*
X424668Y370449D01*
X424461Y370581D01*
X424251Y370708D01*
X424038Y370830D01*
X423822Y370946D01*
X423603Y371058D01*
X423381Y371164D01*
X423158Y371265D01*
X422931Y371360D01*
X422703Y371450D01*
X422472Y371534D01*
X422240Y371613D01*
X422005Y371686D01*
X421769Y371753D01*
X421531Y371815D01*
X421292Y371871D01*
X421052Y371921D01*
X420811Y371965D01*
X420568Y372003D01*
X420325Y372036D01*
X420081Y372063D01*
X419836Y372083D01*
X419591Y372098D01*
X419346Y372107D01*
X419100Y372110D01*
X412750Y361950D02*
X412752Y361792D01*
X412758Y361633D01*
X412768Y361475D01*
X412782Y361318D01*
X412799Y361160D01*
X412821Y361004D01*
X412846Y360847D01*
X412876Y360692D01*
X412909Y360537D01*
X412946Y360383D01*
X412987Y360230D01*
X413032Y360078D01*
X413081Y359928D01*
X413133Y359778D01*
X413189Y359630D01*
X413249Y359483D01*
X413312Y359338D01*
X413379Y359195D01*
X413449Y359053D01*
X413523Y358913D01*
X413601Y358775D01*
X413682Y358639D01*
X413766Y358505D01*
X413853Y358373D01*
X413944Y358243D01*
X414038Y358116D01*
X414135Y357991D01*
X414236Y357868D01*
X414339Y357748D01*
X414445Y357631D01*
X414554Y357516D01*
X414666Y357404D01*
X414781Y357295D01*
X414898Y357189D01*
X415018Y357086D01*
X415141Y356985D01*
X415266Y356888D01*
X415393Y356794D01*
X415523Y356703D01*
X415655Y356616D01*
X415789Y356532D01*
X415925Y356451D01*
X416063Y356373D01*
X416203Y356299D01*
X416345Y356229D01*
X416488Y356162D01*
X416633Y356099D01*
X416780Y356039D01*
X416928Y355983D01*
X417078Y355931D01*
X417228Y355882D01*
X417380Y355837D01*
X417533Y355796D01*
X417687Y355759D01*
X417842Y355726D01*
X417997Y355696D01*
X418154Y355671D01*
X418310Y355649D01*
X418468Y355632D01*
X418625Y355618D01*
X418783Y355608D01*
X418942Y355602D01*
X419100Y355600D01*
X419100Y351790D02*
X418854Y351793D01*
X418609Y351802D01*
X418364Y351817D01*
X418119Y351837D01*
X417875Y351864D01*
X417632Y351897D01*
X417389Y351935D01*
X417148Y351979D01*
X416908Y352029D01*
X416669Y352085D01*
X416431Y352147D01*
X416195Y352214D01*
X415960Y352287D01*
X415728Y352366D01*
X415497Y352450D01*
X415269Y352540D01*
X415042Y352635D01*
X414819Y352736D01*
X414597Y352842D01*
X414378Y352954D01*
X414162Y353070D01*
X413949Y353192D01*
X413739Y353319D01*
X413532Y353451D01*
X413328Y353588D01*
X413128Y353730D01*
X412931Y353877D01*
X412738Y354029D01*
X412548Y354185D01*
X412363Y354345D01*
X412181Y354510D01*
X412003Y354680D01*
X411830Y354853D01*
X411660Y355031D01*
X411495Y355213D01*
X411335Y355398D01*
X411179Y355588D01*
X411027Y355781D01*
X410880Y355978D01*
X410738Y356178D01*
X410601Y356382D01*
X410469Y356589D01*
X410342Y356799D01*
X410220Y357012D01*
X410104Y357228D01*
X409992Y357447D01*
X409886Y357669D01*
X409785Y357892D01*
X409690Y358119D01*
X409600Y358347D01*
X409516Y358578D01*
X409437Y358810D01*
X409364Y359045D01*
X409297Y359281D01*
X409235Y359519D01*
X409179Y359758D01*
X409129Y359998D01*
X409085Y360239D01*
X409047Y360482D01*
X409014Y360725D01*
X408987Y360969D01*
X408967Y361214D01*
X408952Y361459D01*
X408943Y361704D01*
X408940Y361950D01*
D61*
X432109Y346340D02*
X432485Y346661D01*
X432853Y346991D01*
X433213Y347331D01*
X433564Y347678D01*
X433907Y348034D01*
X434242Y348399D01*
X434567Y348771D01*
X434883Y349152D01*
X435190Y349539D01*
X435487Y349935D01*
X435774Y350337D01*
X436052Y350746D01*
X436320Y351162D01*
X436577Y351584D01*
X436824Y352012D01*
X437061Y352446D01*
X437287Y352886D01*
X437502Y353331D01*
X437706Y353782D01*
X437899Y354237D01*
X438081Y354697D01*
X438252Y355161D01*
X438412Y355629D01*
X438560Y356100D01*
X438696Y356576D01*
X438821Y357054D01*
X438935Y357535D01*
X439036Y358019D01*
X439126Y358506D01*
X439204Y358994D01*
X439270Y359484D01*
X439324Y359975D01*
X439366Y360468D01*
X439396Y360962D01*
X439414Y361456D01*
X439420Y361950D01*
X439414Y362438D01*
X439397Y362925D01*
X439367Y363412D01*
X439326Y363899D01*
X439274Y364384D01*
X439209Y364868D01*
X439133Y365350D01*
X439046Y365830D01*
X438947Y366308D01*
X438837Y366783D01*
X438715Y367256D01*
X438582Y367725D01*
X438437Y368192D01*
X438282Y368654D01*
X438115Y369113D01*
X437938Y369568D01*
X437749Y370018D01*
X437550Y370463D01*
X437340Y370904D01*
X437120Y371340D01*
X436889Y371770D01*
X436648Y372194D01*
X436397Y372612D01*
X436136Y373025D01*
X435865Y373431D01*
X435585Y373830D01*
X435295Y374223D01*
X434995Y374608D01*
X434686Y374986D01*
X434369Y375357D01*
X434042Y375719D01*
X433707Y376074D01*
X433364Y376421D01*
X433012Y376759D01*
X432653Y377089D01*
X432285Y377410D01*
X431910Y377723D01*
X431527Y378026D01*
X431138Y378320D01*
X430741Y378604D01*
X430338Y378879D01*
X429928Y379144D01*
X429512Y379399D01*
X429090Y379644D01*
X428662Y379879D01*
X398780Y361950D02*
X398786Y361460D01*
X398804Y360970D01*
X398833Y360481D01*
X398875Y359992D01*
X398928Y359505D01*
X398992Y359019D01*
X399069Y358535D01*
X399157Y358053D01*
X399257Y357573D01*
X399368Y357095D01*
X399491Y356621D01*
X399626Y356149D01*
X399771Y355681D01*
X399928Y355217D01*
X400096Y354756D01*
X400275Y354300D01*
X400465Y353848D01*
X400666Y353401D01*
X400878Y352959D01*
X401100Y352522D01*
X401332Y352090D01*
X401575Y351664D01*
X401829Y351245D01*
X402092Y350831D01*
X402365Y350424D01*
X402648Y350024D01*
X402941Y349630D01*
X403242Y349244D01*
X403554Y348865D01*
X403874Y348494D01*
X404203Y348131D01*
X404540Y347775D01*
X404887Y347428D01*
X405241Y347090D01*
X405604Y346760D01*
X405974Y346438D01*
X398780Y361950D02*
X398786Y362447D01*
X398804Y362944D01*
X398835Y363440D01*
X398877Y363935D01*
X398932Y364429D01*
X398998Y364922D01*
X399077Y365412D01*
X399168Y365901D01*
X399270Y366387D01*
X399385Y366871D01*
X399511Y367351D01*
X399649Y367829D01*
X399798Y368303D01*
X399959Y368773D01*
X400132Y369239D01*
X400316Y369701D01*
X400511Y370158D01*
X400717Y370610D01*
X400934Y371057D01*
X401163Y371498D01*
X401401Y371934D01*
X401651Y372364D01*
X401911Y372787D01*
X402181Y373205D01*
X402461Y373615D01*
X402751Y374018D01*
X403051Y374415D01*
X403361Y374803D01*
X403680Y375184D01*
X404008Y375557D01*
X404345Y375922D01*
X404691Y376279D01*
X405046Y376627D01*
X405409Y376966D01*
X405780Y377297D01*
X406160Y377618D01*
X406547Y377930D01*
X406941Y378232D01*
X407343Y378524D01*
X407752Y378807D01*
X408167Y379079D01*
X408590Y379342D01*
X409018Y379593D01*
X419100Y382270D02*
X419578Y382264D01*
X420056Y382248D01*
X420533Y382219D01*
X421009Y382180D01*
X421484Y382130D01*
X421958Y382068D01*
X422431Y381995D01*
X422901Y381911D01*
X423370Y381816D01*
X423836Y381710D01*
X424299Y381594D01*
X424760Y381466D01*
X425217Y381327D01*
X425671Y381178D01*
X426122Y381018D01*
X426568Y380848D01*
X427011Y380667D01*
X427449Y380476D01*
X427882Y380274D01*
X428311Y380063D01*
X428734Y379841D01*
X419100Y382270D02*
X418612Y382264D01*
X418125Y382247D01*
X417639Y382217D01*
X417153Y382177D01*
X416669Y382124D01*
X416186Y382060D01*
X415704Y381984D01*
X415225Y381897D01*
X414747Y381799D01*
X414273Y381688D01*
X413801Y381567D01*
X413332Y381434D01*
X412866Y381290D01*
X412404Y381135D01*
X411946Y380969D01*
X411492Y380792D01*
X411042Y380604D01*
X410597Y380406D01*
X410157Y380197D01*
X409722Y379977D01*
X409292Y379747D01*
X408868Y379506D01*
X408450Y379256D01*
X107950Y358902D02*
X82550Y358902D01*
D62*
X95250Y389890D02*
X95615Y389886D01*
X95980Y389873D01*
X96344Y389851D01*
X96708Y389820D01*
X97071Y389781D01*
X97433Y389733D01*
X97794Y389676D01*
X98153Y389611D01*
X98510Y389537D01*
X98866Y389455D01*
X99220Y389364D01*
X99571Y389265D01*
X99920Y389157D01*
X100266Y389041D01*
X100609Y388917D01*
X100949Y388784D01*
X101286Y388644D01*
X101620Y388495D01*
X101950Y388338D01*
X102275Y388174D01*
X102597Y388002D01*
X102915Y387822D01*
X103228Y387635D01*
X103537Y387440D01*
X103841Y387238D01*
X104140Y387028D01*
X104434Y386812D01*
X104723Y386588D01*
X105006Y386358D01*
X95250Y389890D02*
X94881Y389886D01*
X94512Y389872D01*
X94143Y389850D01*
X93775Y389819D01*
X93408Y389778D01*
X93043Y389729D01*
X92678Y389672D01*
X92315Y389605D01*
X91954Y389529D01*
X91594Y389445D01*
X91237Y389352D01*
X90882Y389251D01*
X90530Y389141D01*
X90180Y389022D01*
X89834Y388895D01*
X89490Y388760D01*
X89150Y388616D01*
X88814Y388465D01*
X88481Y388305D01*
X88152Y388137D01*
X87828Y387961D01*
X87508Y387777D01*
X87192Y387586D01*
X86881Y387387D01*
X86575Y387181D01*
X86274Y386967D01*
X85978Y386746D01*
X85688Y386518D01*
X85403Y386283D01*
X85125Y386041D01*
X95250Y359410D02*
X95622Y359415D01*
X95995Y359428D01*
X96366Y359451D01*
X96737Y359483D01*
X97107Y359524D01*
X97477Y359574D01*
X97844Y359632D01*
X98210Y359700D01*
X98575Y359777D01*
X98937Y359863D01*
X99297Y359957D01*
X99655Y360061D01*
X100010Y360173D01*
X100363Y360293D01*
X100712Y360422D01*
X101058Y360560D01*
X101400Y360706D01*
X101739Y360861D01*
X102074Y361023D01*
X102405Y361194D01*
X102732Y361373D01*
X103054Y361560D01*
X103371Y361754D01*
X103684Y361957D01*
X103992Y362166D01*
X104294Y362384D01*
X104591Y362608D01*
X104882Y362840D01*
X105168Y363079D01*
X95250Y359410D02*
X94885Y359414D01*
X94520Y359427D01*
X94156Y359449D01*
X93792Y359480D01*
X93429Y359519D01*
X93067Y359567D01*
X92706Y359624D01*
X92347Y359689D01*
X91990Y359763D01*
X91634Y359845D01*
X91280Y359936D01*
X90929Y360035D01*
X90580Y360143D01*
X90234Y360259D01*
X89891Y360383D01*
X89551Y360516D01*
X89214Y360656D01*
X88880Y360805D01*
X88550Y360962D01*
X88225Y361126D01*
X87903Y361298D01*
X87585Y361478D01*
X87272Y361665D01*
X86963Y361860D01*
X86659Y362062D01*
X86360Y362272D01*
X86066Y362488D01*
X85777Y362712D01*
X85494Y362942D01*
X104108Y362249D02*
X104408Y362468D01*
X104702Y362695D01*
X104990Y362929D01*
X105273Y363170D01*
X105550Y363417D01*
X105821Y363672D01*
X106085Y363933D01*
X106343Y364200D01*
X106594Y364473D01*
X106839Y364753D01*
X107077Y365038D01*
X107307Y365329D01*
X107531Y365626D01*
X107747Y365928D01*
X107956Y366235D01*
X108157Y366547D01*
X108351Y366864D01*
X108537Y367186D01*
X108715Y367512D01*
X108885Y367842D01*
X109047Y368176D01*
X109200Y368514D01*
X109346Y368856D01*
X109483Y369201D01*
X109611Y369550D01*
X109731Y369901D01*
X109843Y370256D01*
X109945Y370613D01*
X110040Y370972D01*
X110125Y371333D01*
X110201Y371697D01*
X110269Y372062D01*
X110327Y372429D01*
X110377Y372797D01*
X110418Y373166D01*
X110449Y373536D01*
X110472Y373907D01*
X110485Y374278D01*
X110490Y374650D01*
X110485Y375022D01*
X110472Y375393D01*
X110449Y375765D01*
X110417Y376135D01*
X110377Y376505D01*
X110327Y376873D01*
X110268Y377241D01*
X110201Y377606D01*
X110124Y377970D01*
X110038Y378332D01*
X109944Y378692D01*
X109841Y379049D01*
X109730Y379404D01*
X109609Y379756D01*
X109480Y380105D01*
X109343Y380450D01*
X109197Y380792D01*
X109043Y381131D01*
X108881Y381466D01*
X108711Y381796D01*
X108532Y382122D01*
X108346Y382444D01*
X108152Y382762D01*
X107950Y383074D01*
X107741Y383381D01*
X107524Y383683D01*
X107300Y383980D01*
X107069Y384272D01*
X106831Y384557D01*
X106585Y384837D01*
X106333Y385110D01*
X106075Y385378D01*
X105810Y385638D01*
X105539Y385893D01*
X105261Y386141D01*
X104978Y386381D01*
X104689Y386615D01*
X104394Y386842D01*
X80010Y374650D02*
X80014Y374285D01*
X80027Y373920D01*
X80049Y373556D01*
X80080Y373193D01*
X80119Y372830D01*
X80167Y372468D01*
X80224Y372108D01*
X80289Y371749D01*
X80362Y371391D01*
X80445Y371036D01*
X80535Y370683D01*
X80635Y370331D01*
X80742Y369983D01*
X80858Y369637D01*
X80982Y369294D01*
X81115Y368954D01*
X81255Y368617D01*
X81403Y368284D01*
X81560Y367954D01*
X81724Y367628D01*
X81896Y367306D01*
X82076Y366989D01*
X82263Y366676D01*
X82457Y366367D01*
X82659Y366063D01*
X82869Y365764D01*
X83085Y365470D01*
X83308Y365182D01*
X83538Y364899D01*
X83775Y364621D01*
X84018Y364349D01*
X84268Y364083D01*
X84524Y363823D01*
X84787Y363570D01*
X85055Y363322D01*
X85329Y363082D01*
X85609Y362847D01*
X85894Y362620D01*
X80010Y374650D02*
X80014Y375015D01*
X80027Y375380D01*
X80049Y375744D01*
X80080Y376107D01*
X80119Y376470D01*
X80167Y376832D01*
X80224Y377192D01*
X80289Y377551D01*
X80362Y377909D01*
X80445Y378264D01*
X80535Y378617D01*
X80635Y378969D01*
X80742Y379317D01*
X80858Y379663D01*
X80982Y380006D01*
X81115Y380346D01*
X81255Y380683D01*
X81403Y381016D01*
X81560Y381346D01*
X81724Y381672D01*
X81896Y381994D01*
X82076Y382311D01*
X82263Y382624D01*
X82457Y382933D01*
X82659Y383237D01*
X82869Y383536D01*
X83085Y383830D01*
X83308Y384118D01*
X83538Y384401D01*
X83775Y384679D01*
X84018Y384951D01*
X84268Y385217D01*
X84524Y385477D01*
X84787Y385730D01*
X85055Y385978D01*
X85329Y386218D01*
X85609Y386453D01*
X85894Y386680D01*
X95250Y381000D02*
X95408Y380998D01*
X95567Y380992D01*
X95725Y380982D01*
X95882Y380968D01*
X96040Y380951D01*
X96196Y380929D01*
X96353Y380904D01*
X96508Y380874D01*
X96663Y380841D01*
X96817Y380804D01*
X96970Y380763D01*
X97122Y380718D01*
X97272Y380669D01*
X97422Y380617D01*
X97570Y380561D01*
X97717Y380501D01*
X97862Y380438D01*
X98005Y380371D01*
X98147Y380301D01*
X98287Y380227D01*
X98425Y380149D01*
X98561Y380068D01*
X98695Y379984D01*
X98827Y379897D01*
X98957Y379806D01*
X99084Y379712D01*
X99209Y379615D01*
X99332Y379514D01*
X99452Y379411D01*
X99569Y379305D01*
X99684Y379196D01*
X99796Y379084D01*
X99905Y378969D01*
X100011Y378852D01*
X100114Y378732D01*
X100215Y378609D01*
X100312Y378484D01*
X100406Y378357D01*
X100497Y378227D01*
X100584Y378095D01*
X100668Y377961D01*
X100749Y377825D01*
X100827Y377687D01*
X100901Y377547D01*
X100971Y377405D01*
X101038Y377262D01*
X101101Y377117D01*
X101161Y376970D01*
X101217Y376822D01*
X101269Y376672D01*
X101318Y376522D01*
X101363Y376370D01*
X101404Y376217D01*
X101441Y376063D01*
X101474Y375908D01*
X101504Y375753D01*
X101529Y375596D01*
X101551Y375440D01*
X101568Y375282D01*
X101582Y375125D01*
X101592Y374967D01*
X101598Y374808D01*
X101600Y374650D01*
X105410Y374650D02*
X105407Y374896D01*
X105398Y375141D01*
X105383Y375386D01*
X105363Y375631D01*
X105336Y375875D01*
X105303Y376118D01*
X105265Y376361D01*
X105221Y376602D01*
X105171Y376842D01*
X105115Y377081D01*
X105053Y377319D01*
X104986Y377555D01*
X104913Y377790D01*
X104834Y378022D01*
X104750Y378253D01*
X104660Y378481D01*
X104565Y378708D01*
X104464Y378931D01*
X104358Y379153D01*
X104246Y379372D01*
X104130Y379588D01*
X104008Y379801D01*
X103881Y380011D01*
X103749Y380218D01*
X103612Y380422D01*
X103470Y380622D01*
X103323Y380819D01*
X103171Y381012D01*
X103015Y381202D01*
X102855Y381387D01*
X102690Y381569D01*
X102520Y381747D01*
X102347Y381920D01*
X102169Y382090D01*
X101987Y382255D01*
X101802Y382415D01*
X101612Y382571D01*
X101419Y382723D01*
X101222Y382870D01*
X101022Y383012D01*
X100818Y383149D01*
X100611Y383281D01*
X100401Y383408D01*
X100188Y383530D01*
X99972Y383646D01*
X99753Y383758D01*
X99531Y383864D01*
X99308Y383965D01*
X99081Y384060D01*
X98853Y384150D01*
X98622Y384234D01*
X98390Y384313D01*
X98155Y384386D01*
X97919Y384453D01*
X97681Y384515D01*
X97442Y384571D01*
X97202Y384621D01*
X96961Y384665D01*
X96718Y384703D01*
X96475Y384736D01*
X96231Y384763D01*
X95986Y384783D01*
X95741Y384798D01*
X95496Y384807D01*
X95250Y384810D01*
X88900Y374650D02*
X88902Y374492D01*
X88908Y374333D01*
X88918Y374175D01*
X88932Y374018D01*
X88949Y373860D01*
X88971Y373704D01*
X88996Y373547D01*
X89026Y373392D01*
X89059Y373237D01*
X89096Y373083D01*
X89137Y372930D01*
X89182Y372778D01*
X89231Y372628D01*
X89283Y372478D01*
X89339Y372330D01*
X89399Y372183D01*
X89462Y372038D01*
X89529Y371895D01*
X89599Y371753D01*
X89673Y371613D01*
X89751Y371475D01*
X89832Y371339D01*
X89916Y371205D01*
X90003Y371073D01*
X90094Y370943D01*
X90188Y370816D01*
X90285Y370691D01*
X90386Y370568D01*
X90489Y370448D01*
X90595Y370331D01*
X90704Y370216D01*
X90816Y370104D01*
X90931Y369995D01*
X91048Y369889D01*
X91168Y369786D01*
X91291Y369685D01*
X91416Y369588D01*
X91543Y369494D01*
X91673Y369403D01*
X91805Y369316D01*
X91939Y369232D01*
X92075Y369151D01*
X92213Y369073D01*
X92353Y368999D01*
X92495Y368929D01*
X92638Y368862D01*
X92783Y368799D01*
X92930Y368739D01*
X93078Y368683D01*
X93228Y368631D01*
X93378Y368582D01*
X93530Y368537D01*
X93683Y368496D01*
X93837Y368459D01*
X93992Y368426D01*
X94147Y368396D01*
X94304Y368371D01*
X94460Y368349D01*
X94618Y368332D01*
X94775Y368318D01*
X94933Y368308D01*
X95092Y368302D01*
X95250Y368300D01*
X95250Y364490D02*
X95004Y364493D01*
X94759Y364502D01*
X94514Y364517D01*
X94269Y364537D01*
X94025Y364564D01*
X93782Y364597D01*
X93539Y364635D01*
X93298Y364679D01*
X93058Y364729D01*
X92819Y364785D01*
X92581Y364847D01*
X92345Y364914D01*
X92110Y364987D01*
X91878Y365066D01*
X91647Y365150D01*
X91419Y365240D01*
X91192Y365335D01*
X90969Y365436D01*
X90747Y365542D01*
X90528Y365654D01*
X90312Y365770D01*
X90099Y365892D01*
X89889Y366019D01*
X89682Y366151D01*
X89478Y366288D01*
X89278Y366430D01*
X89081Y366577D01*
X88888Y366729D01*
X88698Y366885D01*
X88513Y367045D01*
X88331Y367210D01*
X88153Y367380D01*
X87980Y367553D01*
X87810Y367731D01*
X87645Y367913D01*
X87485Y368098D01*
X87329Y368288D01*
X87177Y368481D01*
X87030Y368678D01*
X86888Y368878D01*
X86751Y369082D01*
X86619Y369289D01*
X86492Y369499D01*
X86370Y369712D01*
X86254Y369928D01*
X86142Y370147D01*
X86036Y370369D01*
X85935Y370592D01*
X85840Y370819D01*
X85750Y371047D01*
X85666Y371278D01*
X85587Y371510D01*
X85514Y371745D01*
X85447Y371981D01*
X85385Y372219D01*
X85329Y372458D01*
X85279Y372698D01*
X85235Y372939D01*
X85197Y373182D01*
X85164Y373425D01*
X85137Y373669D01*
X85117Y373914D01*
X85102Y374159D01*
X85093Y374404D01*
X85090Y374650D01*
D61*
X108259Y359040D02*
X108635Y359361D01*
X109003Y359691D01*
X109363Y360031D01*
X109714Y360378D01*
X110057Y360734D01*
X110392Y361099D01*
X110717Y361471D01*
X111033Y361852D01*
X111340Y362239D01*
X111637Y362635D01*
X111924Y363037D01*
X112202Y363446D01*
X112470Y363862D01*
X112727Y364284D01*
X112974Y364712D01*
X113211Y365146D01*
X113437Y365586D01*
X113652Y366031D01*
X113856Y366482D01*
X114049Y366937D01*
X114231Y367397D01*
X114402Y367861D01*
X114562Y368329D01*
X114710Y368800D01*
X114846Y369276D01*
X114971Y369754D01*
X115085Y370235D01*
X115186Y370719D01*
X115276Y371206D01*
X115354Y371694D01*
X115420Y372184D01*
X115474Y372675D01*
X115516Y373168D01*
X115546Y373662D01*
X115564Y374156D01*
X115570Y374650D01*
X115564Y375138D01*
X115547Y375625D01*
X115517Y376112D01*
X115476Y376599D01*
X115424Y377084D01*
X115359Y377568D01*
X115283Y378050D01*
X115196Y378530D01*
X115097Y379008D01*
X114987Y379483D01*
X114865Y379956D01*
X114732Y380425D01*
X114587Y380892D01*
X114432Y381354D01*
X114265Y381813D01*
X114088Y382268D01*
X113899Y382718D01*
X113700Y383163D01*
X113490Y383604D01*
X113270Y384040D01*
X113039Y384470D01*
X112798Y384894D01*
X112547Y385312D01*
X112286Y385725D01*
X112015Y386131D01*
X111735Y386530D01*
X111445Y386923D01*
X111145Y387308D01*
X110836Y387686D01*
X110519Y388057D01*
X110192Y388419D01*
X109857Y388774D01*
X109514Y389121D01*
X109162Y389459D01*
X108803Y389789D01*
X108435Y390110D01*
X108060Y390423D01*
X107677Y390726D01*
X107288Y391020D01*
X106891Y391304D01*
X106488Y391579D01*
X106078Y391844D01*
X105662Y392099D01*
X105240Y392344D01*
X104812Y392579D01*
X74930Y374650D02*
X74936Y374160D01*
X74954Y373670D01*
X74983Y373181D01*
X75025Y372692D01*
X75078Y372205D01*
X75142Y371719D01*
X75219Y371235D01*
X75307Y370753D01*
X75407Y370273D01*
X75518Y369795D01*
X75641Y369321D01*
X75776Y368849D01*
X75921Y368381D01*
X76078Y367917D01*
X76246Y367456D01*
X76425Y367000D01*
X76615Y366548D01*
X76816Y366101D01*
X77028Y365659D01*
X77250Y365222D01*
X77482Y364790D01*
X77725Y364364D01*
X77979Y363945D01*
X78242Y363531D01*
X78515Y363124D01*
X78798Y362724D01*
X79091Y362330D01*
X79392Y361944D01*
X79704Y361565D01*
X80024Y361194D01*
X80353Y360831D01*
X80690Y360475D01*
X81037Y360128D01*
X81391Y359790D01*
X81754Y359460D01*
X82124Y359138D01*
X74930Y374650D02*
X74936Y375147D01*
X74954Y375644D01*
X74985Y376140D01*
X75027Y376635D01*
X75082Y377129D01*
X75148Y377622D01*
X75227Y378112D01*
X75318Y378601D01*
X75420Y379087D01*
X75535Y379571D01*
X75661Y380051D01*
X75799Y380529D01*
X75948Y381003D01*
X76109Y381473D01*
X76282Y381939D01*
X76466Y382401D01*
X76661Y382858D01*
X76867Y383310D01*
X77084Y383757D01*
X77313Y384198D01*
X77551Y384634D01*
X77801Y385064D01*
X78061Y385487D01*
X78331Y385905D01*
X78611Y386315D01*
X78901Y386718D01*
X79201Y387115D01*
X79511Y387503D01*
X79830Y387884D01*
X80158Y388257D01*
X80495Y388622D01*
X80841Y388979D01*
X81196Y389327D01*
X81559Y389666D01*
X81930Y389997D01*
X82310Y390318D01*
X82697Y390630D01*
X83091Y390932D01*
X83493Y391224D01*
X83902Y391507D01*
X84317Y391779D01*
X84740Y392042D01*
X85168Y392293D01*
X95250Y394970D02*
X95728Y394964D01*
X96206Y394948D01*
X96683Y394919D01*
X97159Y394880D01*
X97634Y394830D01*
X98108Y394768D01*
X98581Y394695D01*
X99051Y394611D01*
X99520Y394516D01*
X99986Y394410D01*
X100449Y394294D01*
X100910Y394166D01*
X101367Y394027D01*
X101821Y393878D01*
X102272Y393718D01*
X102718Y393548D01*
X103161Y393367D01*
X103599Y393176D01*
X104032Y392974D01*
X104461Y392763D01*
X104884Y392541D01*
X95250Y394970D02*
X94762Y394964D01*
X94275Y394947D01*
X93789Y394917D01*
X93303Y394877D01*
X92819Y394824D01*
X92336Y394760D01*
X91854Y394684D01*
X91375Y394597D01*
X90897Y394499D01*
X90423Y394388D01*
X89951Y394267D01*
X89482Y394134D01*
X89016Y393990D01*
X88554Y393835D01*
X88096Y393669D01*
X87642Y393492D01*
X87192Y393304D01*
X86747Y393106D01*
X86307Y392897D01*
X85872Y392677D01*
X85442Y392447D01*
X85018Y392206D01*
X84600Y391956D01*
M02*
