G04 EAGLE Gerber RS-274X export*
G75*
%MOMM*%
%FSLAX34Y34*%
%LPD*%
%INSilkscreen Bottom*%
%IPPOS*%
%AMOC8*
5,1,8,0,0,1.08239X$1,22.5*%
G01*
%ADD10C,0.152400*%
%ADD11C,0.609600*%
%ADD12R,0.609600X0.863600*%
%ADD13R,0.863600X0.609600*%
%ADD14C,0.127000*%
%ADD15R,0.508000X0.508000*%
%ADD16C,0.076200*%


D10*
X367845Y267677D02*
X373926Y284384D01*
X358563Y271055D01*
X364644Y287763D01*
X355972Y285663D02*
X353269Y278238D01*
X355972Y285663D02*
X356018Y285795D01*
X356060Y285928D01*
X356099Y286062D01*
X356133Y286198D01*
X356164Y286334D01*
X356191Y286471D01*
X356214Y286609D01*
X356233Y286748D01*
X356248Y286887D01*
X356259Y287026D01*
X356266Y287166D01*
X356270Y287305D01*
X356269Y287445D01*
X356265Y287585D01*
X356256Y287724D01*
X356243Y287864D01*
X356227Y288002D01*
X356207Y288141D01*
X356182Y288278D01*
X356154Y288415D01*
X356122Y288551D01*
X356086Y288686D01*
X356047Y288821D01*
X356003Y288953D01*
X355956Y289085D01*
X355905Y289215D01*
X355851Y289344D01*
X355792Y289471D01*
X355731Y289596D01*
X355665Y289720D01*
X355597Y289842D01*
X355524Y289961D01*
X355449Y290079D01*
X355370Y290194D01*
X355288Y290308D01*
X355203Y290418D01*
X355114Y290527D01*
X355023Y290633D01*
X354929Y290736D01*
X354832Y290836D01*
X354732Y290934D01*
X354629Y291029D01*
X354524Y291120D01*
X354416Y291209D01*
X354305Y291295D01*
X354192Y291378D01*
X354077Y291457D01*
X353960Y291533D01*
X353841Y291606D01*
X353719Y291675D01*
X353596Y291741D01*
X353471Y291803D01*
X353344Y291862D01*
X353216Y291917D01*
X353086Y291969D01*
X352954Y292017D01*
X352822Y292061D01*
X352688Y292101D01*
X352553Y292137D01*
X352417Y292170D01*
X352280Y292199D01*
X352143Y292224D01*
X352005Y292245D01*
X351866Y292262D01*
X351727Y292275D01*
X351587Y292284D01*
X351447Y292290D01*
X351308Y292291D01*
X351168Y292288D01*
X351028Y292282D01*
X350889Y292271D01*
X350750Y292257D01*
X350611Y292238D01*
X350473Y292216D01*
X350336Y292190D01*
X350200Y292160D01*
X350064Y292126D01*
X349929Y292088D01*
X349796Y292046D01*
X349664Y292001D01*
X349533Y291952D01*
X349403Y291899D01*
X349275Y291843D01*
X349149Y291783D01*
X349025Y291719D01*
X348902Y291652D01*
X348781Y291582D01*
X348663Y291508D01*
X348546Y291431D01*
X348432Y291350D01*
X348320Y291267D01*
X348210Y291180D01*
X348103Y291090D01*
X347999Y290997D01*
X347897Y290902D01*
X347798Y290803D01*
X347701Y290702D01*
X347608Y290598D01*
X347518Y290491D01*
X347430Y290382D01*
X347346Y290270D01*
X347265Y290156D01*
X347188Y290040D01*
X347113Y289922D01*
X347042Y289801D01*
X346975Y289679D01*
X346910Y289555D01*
X346850Y289429D01*
X346793Y289301D01*
X346740Y289172D01*
X346690Y289041D01*
X346690Y289042D02*
X343987Y281616D01*
X343941Y281484D01*
X343899Y281351D01*
X343860Y281217D01*
X343826Y281081D01*
X343795Y280945D01*
X343768Y280808D01*
X343745Y280670D01*
X343726Y280531D01*
X343711Y280392D01*
X343700Y280253D01*
X343693Y280113D01*
X343689Y279974D01*
X343690Y279834D01*
X343694Y279694D01*
X343703Y279555D01*
X343716Y279415D01*
X343732Y279277D01*
X343752Y279138D01*
X343777Y279001D01*
X343805Y278864D01*
X343837Y278728D01*
X343873Y278593D01*
X343912Y278458D01*
X343956Y278326D01*
X344003Y278194D01*
X344054Y278064D01*
X344108Y277935D01*
X344167Y277808D01*
X344228Y277683D01*
X344294Y277559D01*
X344362Y277437D01*
X344435Y277318D01*
X344510Y277200D01*
X344589Y277085D01*
X344671Y276971D01*
X344756Y276861D01*
X344845Y276752D01*
X344936Y276646D01*
X345030Y276543D01*
X345127Y276443D01*
X345227Y276345D01*
X345330Y276250D01*
X345435Y276159D01*
X345543Y276070D01*
X345654Y275984D01*
X345767Y275901D01*
X345882Y275822D01*
X345999Y275746D01*
X346118Y275673D01*
X346240Y275604D01*
X346363Y275538D01*
X346488Y275476D01*
X346615Y275417D01*
X346743Y275362D01*
X346873Y275310D01*
X347005Y275262D01*
X347137Y275218D01*
X347271Y275178D01*
X347406Y275142D01*
X347542Y275109D01*
X347679Y275080D01*
X347816Y275055D01*
X347954Y275034D01*
X348093Y275017D01*
X348232Y275004D01*
X348372Y274995D01*
X348512Y274989D01*
X348651Y274988D01*
X348791Y274991D01*
X348931Y274997D01*
X349070Y275008D01*
X349209Y275022D01*
X349348Y275041D01*
X349486Y275063D01*
X349623Y275089D01*
X349759Y275119D01*
X349895Y275153D01*
X350030Y275191D01*
X350163Y275233D01*
X350295Y275278D01*
X350426Y275327D01*
X350556Y275380D01*
X350684Y275436D01*
X350810Y275496D01*
X350934Y275560D01*
X351057Y275627D01*
X351178Y275697D01*
X351296Y275771D01*
X351413Y275848D01*
X351527Y275929D01*
X351639Y276012D01*
X351749Y276099D01*
X351856Y276189D01*
X351960Y276282D01*
X352062Y276377D01*
X352161Y276476D01*
X352258Y276577D01*
X352351Y276681D01*
X352441Y276788D01*
X352529Y276897D01*
X352613Y277009D01*
X352694Y277123D01*
X352771Y277239D01*
X352846Y277357D01*
X352917Y277478D01*
X352984Y277600D01*
X353049Y277724D01*
X353109Y277850D01*
X353166Y277978D01*
X353219Y278107D01*
X353269Y278238D01*
X335235Y279546D02*
X341316Y296253D01*
X336675Y297943D01*
X336674Y297943D02*
X336542Y297989D01*
X336409Y298031D01*
X336275Y298070D01*
X336139Y298104D01*
X336003Y298135D01*
X335866Y298162D01*
X335728Y298185D01*
X335589Y298204D01*
X335450Y298219D01*
X335311Y298230D01*
X335171Y298237D01*
X335032Y298241D01*
X334892Y298240D01*
X334752Y298236D01*
X334613Y298227D01*
X334473Y298214D01*
X334335Y298198D01*
X334196Y298178D01*
X334059Y298153D01*
X333922Y298125D01*
X333786Y298093D01*
X333651Y298057D01*
X333516Y298018D01*
X333384Y297974D01*
X333252Y297927D01*
X333122Y297876D01*
X332993Y297822D01*
X332866Y297763D01*
X332741Y297702D01*
X332617Y297636D01*
X332495Y297568D01*
X332376Y297495D01*
X332258Y297420D01*
X332143Y297341D01*
X332029Y297259D01*
X331919Y297174D01*
X331810Y297085D01*
X331704Y296994D01*
X331601Y296900D01*
X331501Y296803D01*
X331403Y296703D01*
X331308Y296600D01*
X331217Y296495D01*
X331128Y296387D01*
X331042Y296276D01*
X330959Y296163D01*
X330880Y296048D01*
X330804Y295931D01*
X330731Y295812D01*
X330662Y295690D01*
X330596Y295567D01*
X330534Y295442D01*
X330475Y295315D01*
X330420Y295187D01*
X330368Y295057D01*
X330320Y294925D01*
X330276Y294793D01*
X330236Y294659D01*
X330200Y294524D01*
X330167Y294388D01*
X330138Y294251D01*
X330113Y294114D01*
X330092Y293976D01*
X330075Y293837D01*
X330062Y293698D01*
X330053Y293558D01*
X330047Y293418D01*
X330046Y293279D01*
X330049Y293139D01*
X330055Y292999D01*
X330066Y292860D01*
X330080Y292721D01*
X330099Y292582D01*
X330121Y292444D01*
X330147Y292307D01*
X330177Y292171D01*
X330211Y292035D01*
X330249Y291900D01*
X330291Y291767D01*
X330336Y291635D01*
X330385Y291504D01*
X330438Y291374D01*
X330494Y291246D01*
X330554Y291120D01*
X330618Y290996D01*
X330685Y290873D01*
X330755Y290752D01*
X330829Y290634D01*
X330906Y290517D01*
X330987Y290403D01*
X331070Y290291D01*
X331157Y290181D01*
X331247Y290074D01*
X331340Y289970D01*
X331435Y289868D01*
X331534Y289769D01*
X331635Y289672D01*
X331739Y289579D01*
X331846Y289489D01*
X331955Y289401D01*
X332067Y289317D01*
X332181Y289236D01*
X332297Y289159D01*
X332415Y289084D01*
X332536Y289013D01*
X332658Y288946D01*
X332782Y288881D01*
X332908Y288821D01*
X333036Y288764D01*
X333165Y288711D01*
X333296Y288661D01*
X337937Y286971D01*
X332368Y288998D02*
X325952Y282924D01*
X315983Y286553D02*
X322064Y303260D01*
X326705Y301571D02*
X317423Y304950D01*
X311490Y307109D02*
X305408Y290401D01*
X308787Y299684D02*
X299505Y303062D01*
X302207Y310488D02*
X296126Y293780D01*
X284099Y298157D02*
X283983Y298202D01*
X283868Y298249D01*
X283755Y298301D01*
X283644Y298356D01*
X283535Y298414D01*
X283427Y298476D01*
X283321Y298541D01*
X283218Y298610D01*
X283117Y298682D01*
X283018Y298757D01*
X282921Y298835D01*
X282827Y298915D01*
X282735Y298999D01*
X282646Y299086D01*
X282560Y299175D01*
X282477Y299268D01*
X282397Y299362D01*
X282320Y299459D01*
X282245Y299559D01*
X282174Y299661D01*
X282107Y299765D01*
X282042Y299871D01*
X281981Y299979D01*
X281923Y300089D01*
X281869Y300200D01*
X281818Y300314D01*
X281771Y300428D01*
X281728Y300545D01*
X281688Y300662D01*
X281652Y300781D01*
X281620Y300901D01*
X281591Y301022D01*
X281566Y301143D01*
X281546Y301266D01*
X281528Y301388D01*
X281515Y301512D01*
X281506Y301636D01*
X281501Y301760D01*
X281499Y301884D01*
X281501Y302008D01*
X281508Y302132D01*
X281518Y302256D01*
X281532Y302379D01*
X281550Y302502D01*
X281572Y302624D01*
X281597Y302745D01*
X281627Y302866D01*
X281660Y302986D01*
X281697Y303104D01*
X281737Y303221D01*
X284099Y298157D02*
X284288Y298091D01*
X284478Y298030D01*
X284669Y297973D01*
X284862Y297920D01*
X285056Y297873D01*
X285251Y297830D01*
X285447Y297791D01*
X285644Y297758D01*
X285841Y297729D01*
X286039Y297704D01*
X286238Y297685D01*
X286437Y297670D01*
X286637Y297660D01*
X286836Y297655D01*
X287036Y297654D01*
X287236Y297659D01*
X287435Y297668D01*
X287634Y297682D01*
X287833Y297700D01*
X288032Y297724D01*
X288229Y297752D01*
X288426Y297785D01*
X288622Y297822D01*
X288818Y297865D01*
X289012Y297912D01*
X289205Y297963D01*
X289396Y298019D01*
X289587Y298080D01*
X289775Y298145D01*
X289963Y298215D01*
X290148Y298289D01*
X290332Y298368D01*
X290513Y298451D01*
X293934Y309295D02*
X293974Y309412D01*
X294011Y309530D01*
X294044Y309650D01*
X294074Y309771D01*
X294099Y309892D01*
X294121Y310014D01*
X294139Y310137D01*
X294153Y310260D01*
X294163Y310384D01*
X294170Y310508D01*
X294172Y310632D01*
X294170Y310756D01*
X294165Y310880D01*
X294156Y311004D01*
X294143Y311128D01*
X294125Y311250D01*
X294105Y311373D01*
X294080Y311494D01*
X294051Y311615D01*
X294019Y311735D01*
X293983Y311854D01*
X293943Y311971D01*
X293900Y312088D01*
X293852Y312202D01*
X293802Y312316D01*
X293748Y312427D01*
X293690Y312537D01*
X293629Y312645D01*
X293564Y312751D01*
X293497Y312855D01*
X293425Y312957D01*
X293351Y313057D01*
X293274Y313154D01*
X293194Y313249D01*
X293111Y313341D01*
X293024Y313430D01*
X292936Y313517D01*
X292844Y313601D01*
X292750Y313682D01*
X292653Y313759D01*
X292554Y313834D01*
X292453Y313906D01*
X292350Y313975D01*
X292244Y314040D01*
X292136Y314102D01*
X292027Y314160D01*
X291916Y314215D01*
X291803Y314267D01*
X291688Y314314D01*
X291572Y314359D01*
X291573Y314359D02*
X291406Y314418D01*
X291238Y314472D01*
X291069Y314522D01*
X290899Y314569D01*
X290727Y314611D01*
X290555Y314649D01*
X290382Y314683D01*
X290208Y314713D01*
X290033Y314739D01*
X289858Y314761D01*
X289682Y314778D01*
X289506Y314791D01*
X289330Y314800D01*
X289153Y314805D01*
X288976Y314806D01*
X288800Y314802D01*
X288624Y314794D01*
X288447Y314782D01*
X288272Y314766D01*
X288096Y314746D01*
X287921Y314721D01*
X287747Y314692D01*
X287574Y314660D01*
X287401Y314623D01*
X287229Y314582D01*
X287059Y314536D01*
X286889Y314487D01*
X290895Y306721D02*
X291015Y306746D01*
X291134Y306773D01*
X291253Y306805D01*
X291370Y306840D01*
X291487Y306879D01*
X291602Y306921D01*
X291715Y306966D01*
X291828Y307016D01*
X291938Y307068D01*
X292047Y307124D01*
X292155Y307183D01*
X292260Y307246D01*
X292364Y307311D01*
X292465Y307380D01*
X292564Y307452D01*
X292661Y307527D01*
X292756Y307604D01*
X292848Y307685D01*
X292938Y307768D01*
X293025Y307854D01*
X293110Y307943D01*
X293192Y308034D01*
X293271Y308128D01*
X293347Y308224D01*
X293420Y308323D01*
X293490Y308423D01*
X293557Y308526D01*
X293621Y308630D01*
X293681Y308737D01*
X293739Y308845D01*
X293793Y308955D01*
X293843Y309067D01*
X293890Y309180D01*
X293934Y309294D01*
X284776Y305795D02*
X284656Y305770D01*
X284537Y305743D01*
X284418Y305711D01*
X284301Y305676D01*
X284184Y305637D01*
X284069Y305595D01*
X283956Y305550D01*
X283843Y305500D01*
X283733Y305448D01*
X283624Y305392D01*
X283516Y305333D01*
X283411Y305270D01*
X283307Y305205D01*
X283206Y305136D01*
X283107Y305064D01*
X283010Y304989D01*
X282915Y304912D01*
X282823Y304831D01*
X282733Y304748D01*
X282646Y304662D01*
X282561Y304573D01*
X282479Y304482D01*
X282400Y304388D01*
X282324Y304292D01*
X282251Y304193D01*
X282181Y304093D01*
X282114Y303990D01*
X282050Y303886D01*
X281990Y303779D01*
X281932Y303671D01*
X281878Y303561D01*
X281828Y303449D01*
X281781Y303336D01*
X281737Y303222D01*
X284776Y305795D02*
X290895Y306721D01*
X273901Y301869D02*
X266475Y304572D01*
X273901Y301869D02*
X279982Y318577D01*
X272556Y321280D01*
X271710Y313178D02*
X277279Y311151D01*
X257132Y307973D02*
X253419Y309324D01*
X257132Y307972D02*
X257249Y307932D01*
X257367Y307895D01*
X257487Y307862D01*
X257608Y307832D01*
X257729Y307807D01*
X257851Y307785D01*
X257974Y307767D01*
X258097Y307753D01*
X258221Y307743D01*
X258345Y307736D01*
X258469Y307734D01*
X258593Y307736D01*
X258717Y307741D01*
X258841Y307750D01*
X258965Y307763D01*
X259087Y307781D01*
X259210Y307801D01*
X259331Y307826D01*
X259452Y307855D01*
X259572Y307887D01*
X259691Y307923D01*
X259808Y307963D01*
X259925Y308006D01*
X260039Y308053D01*
X260153Y308104D01*
X260264Y308158D01*
X260374Y308216D01*
X260482Y308277D01*
X260588Y308342D01*
X260692Y308409D01*
X260794Y308480D01*
X260894Y308555D01*
X260991Y308632D01*
X261085Y308712D01*
X261178Y308795D01*
X261267Y308881D01*
X261354Y308970D01*
X261438Y309062D01*
X261518Y309156D01*
X261596Y309253D01*
X261671Y309352D01*
X261743Y309453D01*
X261812Y309556D01*
X261877Y309662D01*
X261939Y309770D01*
X261997Y309879D01*
X262052Y309990D01*
X262104Y310103D01*
X262151Y310218D01*
X262196Y310334D01*
X265575Y319616D01*
X265615Y319733D01*
X265652Y319851D01*
X265685Y319971D01*
X265715Y320092D01*
X265740Y320213D01*
X265762Y320335D01*
X265780Y320458D01*
X265794Y320581D01*
X265804Y320705D01*
X265811Y320829D01*
X265813Y320953D01*
X265811Y321077D01*
X265806Y321201D01*
X265797Y321325D01*
X265784Y321448D01*
X265766Y321571D01*
X265746Y321694D01*
X265721Y321815D01*
X265692Y321936D01*
X265660Y322056D01*
X265624Y322175D01*
X265584Y322292D01*
X265541Y322409D01*
X265494Y322523D01*
X265443Y322637D01*
X265389Y322748D01*
X265331Y322858D01*
X265270Y322966D01*
X265205Y323072D01*
X265138Y323176D01*
X265067Y323278D01*
X264992Y323378D01*
X264915Y323475D01*
X264835Y323569D01*
X264752Y323662D01*
X264666Y323751D01*
X264577Y323838D01*
X264485Y323922D01*
X264391Y324002D01*
X264294Y324080D01*
X264195Y324155D01*
X264094Y324227D01*
X263991Y324296D01*
X263885Y324361D01*
X263777Y324423D01*
X263668Y324481D01*
X263557Y324536D01*
X263444Y324588D01*
X263329Y324635D01*
X263213Y324680D01*
X259500Y326032D01*
X240275Y333029D02*
X240151Y333072D01*
X240025Y333112D01*
X239898Y333147D01*
X239771Y333179D01*
X239642Y333208D01*
X239512Y333232D01*
X239382Y333253D01*
X239252Y333269D01*
X239121Y333282D01*
X238989Y333291D01*
X238857Y333296D01*
X238726Y333297D01*
X238594Y333294D01*
X238462Y333287D01*
X238331Y333277D01*
X238200Y333262D01*
X238070Y333244D01*
X237940Y333222D01*
X237811Y333196D01*
X237683Y333166D01*
X237555Y333132D01*
X237429Y333095D01*
X237304Y333053D01*
X237180Y333009D01*
X237057Y332960D01*
X236936Y332908D01*
X236817Y332852D01*
X236699Y332793D01*
X236583Y332730D01*
X236469Y332664D01*
X236357Y332595D01*
X236248Y332522D01*
X236140Y332446D01*
X236035Y332367D01*
X235932Y332285D01*
X235831Y332200D01*
X235733Y332112D01*
X235638Y332021D01*
X235545Y331927D01*
X235456Y331831D01*
X235369Y331732D01*
X235285Y331630D01*
X235204Y331526D01*
X235127Y331420D01*
X235052Y331311D01*
X234981Y331200D01*
X234913Y331087D01*
X234848Y330972D01*
X234787Y330856D01*
X234730Y330737D01*
X234675Y330617D01*
X234625Y330495D01*
X234578Y330372D01*
X240275Y333030D02*
X240415Y332977D01*
X240554Y332920D01*
X240691Y332860D01*
X240826Y332796D01*
X240960Y332728D01*
X241091Y332658D01*
X241221Y332583D01*
X241349Y332506D01*
X241475Y332425D01*
X241599Y332341D01*
X241720Y332253D01*
X241839Y332162D01*
X241956Y332069D01*
X242070Y331972D01*
X242182Y331872D01*
X242291Y331770D01*
X242397Y331664D01*
X242500Y331556D01*
X242601Y331446D01*
X242698Y331332D01*
X242793Y331216D01*
X242885Y331098D01*
X242973Y330977D01*
X243058Y330854D01*
X243140Y330729D01*
X243219Y330602D01*
X243294Y330473D01*
X243366Y330341D01*
X243434Y330208D01*
X243499Y330073D01*
X243561Y329937D01*
X243619Y329799D01*
X243673Y329659D01*
X243723Y329519D01*
X243770Y329376D01*
X243813Y329233D01*
X243852Y329089D01*
X243888Y328943D01*
X243919Y328797D01*
X243947Y328650D01*
X243971Y328502D01*
X243991Y328354D01*
X244007Y328205D01*
X244019Y328056D01*
X244028Y327907D01*
X244032Y327757D01*
X244033Y327608D01*
X244029Y327458D01*
X234788Y326616D02*
X234730Y326736D01*
X234676Y326858D01*
X234625Y326982D01*
X234578Y327106D01*
X234534Y327232D01*
X234494Y327359D01*
X234457Y327487D01*
X234424Y327616D01*
X234394Y327746D01*
X234368Y327877D01*
X234346Y328009D01*
X234328Y328141D01*
X234313Y328273D01*
X234302Y328406D01*
X234294Y328539D01*
X234290Y328672D01*
X234290Y328806D01*
X234294Y328939D01*
X234302Y329072D01*
X234313Y329205D01*
X234328Y329338D01*
X234346Y329470D01*
X234368Y329601D01*
X234394Y329732D01*
X234424Y329862D01*
X234457Y329991D01*
X234494Y330119D01*
X234534Y330246D01*
X234578Y330372D01*
X234788Y326617D02*
X239299Y314463D01*
X230017Y317841D01*
X226599Y328546D02*
X226715Y328876D01*
X226823Y329209D01*
X226923Y329544D01*
X227014Y329882D01*
X227098Y330221D01*
X227174Y330563D01*
X227241Y330906D01*
X227300Y331251D01*
X227351Y331597D01*
X227394Y331944D01*
X227428Y332292D01*
X227454Y332641D01*
X227472Y332990D01*
X227481Y333340D01*
X227482Y333689D01*
X227475Y334039D01*
X227459Y334389D01*
X227435Y334738D01*
X227403Y335086D01*
X227404Y335206D01*
X227400Y335325D01*
X227393Y335444D01*
X227381Y335563D01*
X227366Y335681D01*
X227347Y335799D01*
X227324Y335916D01*
X227297Y336032D01*
X227267Y336148D01*
X227232Y336262D01*
X227194Y336375D01*
X227153Y336487D01*
X227107Y336597D01*
X227059Y336706D01*
X227006Y336813D01*
X226950Y336919D01*
X226891Y337022D01*
X226828Y337124D01*
X226763Y337223D01*
X226693Y337320D01*
X226621Y337415D01*
X226546Y337508D01*
X226468Y337598D01*
X226386Y337685D01*
X226302Y337770D01*
X226216Y337852D01*
X226126Y337931D01*
X226034Y338007D01*
X225940Y338080D01*
X225844Y338150D01*
X225745Y338217D01*
X225644Y338281D01*
X225541Y338341D01*
X225436Y338398D01*
X225329Y338451D01*
X225221Y338501D01*
X225111Y338547D01*
X224999Y338590D01*
X224886Y338629D01*
X224772Y338664D01*
X224657Y338695D01*
X224541Y338723D01*
X224424Y338747D01*
X224307Y338767D01*
X224189Y338783D01*
X224070Y338796D01*
X223951Y338804D01*
X223832Y338809D01*
X223712Y338810D01*
X223593Y338807D01*
X223474Y338800D01*
X223355Y338789D01*
X223237Y338774D01*
X223119Y338755D01*
X223002Y338733D01*
X222885Y338707D01*
X222770Y338676D01*
X222656Y338643D01*
X222542Y338605D01*
X222430Y338564D01*
X222320Y338519D01*
X222211Y338471D01*
X222103Y338419D01*
X221998Y338363D01*
X221894Y338304D01*
X221792Y338242D01*
X221692Y338176D01*
X221595Y338108D01*
X221500Y338036D01*
X221407Y337961D01*
X221316Y337883D01*
X221229Y337802D01*
X221144Y337718D01*
X221061Y337632D01*
X220982Y337543D01*
X220905Y337451D01*
X220906Y337451D02*
X220657Y337205D01*
X220415Y336953D01*
X220178Y336695D01*
X219947Y336432D01*
X219723Y336164D01*
X219506Y335890D01*
X219295Y335611D01*
X219091Y335327D01*
X218893Y335038D01*
X218703Y334745D01*
X218519Y334447D01*
X218343Y334145D01*
X218174Y333838D01*
X218012Y333528D01*
X217858Y333214D01*
X217712Y332897D01*
X217573Y332576D01*
X217441Y332252D01*
X217318Y331924D01*
X226600Y328546D02*
X226477Y328219D01*
X226345Y327895D01*
X226206Y327574D01*
X226060Y327256D01*
X225906Y326942D01*
X225744Y326632D01*
X225575Y326326D01*
X225399Y326024D01*
X225215Y325726D01*
X225025Y325432D01*
X224827Y325144D01*
X224623Y324860D01*
X224412Y324581D01*
X224194Y324307D01*
X223970Y324038D01*
X223740Y323775D01*
X223503Y323518D01*
X223261Y323266D01*
X223012Y323020D01*
X223011Y323020D02*
X222935Y322928D01*
X222856Y322839D01*
X222773Y322753D01*
X222688Y322669D01*
X222601Y322588D01*
X222510Y322510D01*
X222417Y322435D01*
X222322Y322363D01*
X222225Y322295D01*
X222125Y322229D01*
X222023Y322167D01*
X221919Y322108D01*
X221814Y322052D01*
X221706Y322000D01*
X221597Y321952D01*
X221487Y321907D01*
X221375Y321866D01*
X221261Y321828D01*
X221147Y321795D01*
X221032Y321764D01*
X220915Y321738D01*
X220798Y321716D01*
X220680Y321697D01*
X220562Y321682D01*
X220443Y321671D01*
X220324Y321664D01*
X220205Y321661D01*
X220085Y321662D01*
X219966Y321667D01*
X219847Y321675D01*
X219728Y321688D01*
X219610Y321704D01*
X219493Y321724D01*
X219376Y321748D01*
X219260Y321776D01*
X219145Y321807D01*
X219031Y321842D01*
X218918Y321881D01*
X216514Y325384D02*
X216482Y325733D01*
X216458Y326082D01*
X216442Y326431D01*
X216435Y326781D01*
X216436Y327131D01*
X216445Y327480D01*
X216463Y327830D01*
X216489Y328178D01*
X216523Y328526D01*
X216566Y328874D01*
X216617Y329220D01*
X216676Y329564D01*
X216743Y329908D01*
X216819Y330249D01*
X216903Y330589D01*
X216994Y330926D01*
X217094Y331261D01*
X217202Y331594D01*
X217318Y331924D01*
X216514Y325385D02*
X216513Y325265D01*
X216517Y325146D01*
X216524Y325027D01*
X216536Y324908D01*
X216551Y324790D01*
X216570Y324672D01*
X216593Y324555D01*
X216620Y324439D01*
X216650Y324323D01*
X216685Y324209D01*
X216723Y324096D01*
X216764Y323984D01*
X216810Y323874D01*
X216858Y323765D01*
X216911Y323658D01*
X216967Y323552D01*
X217026Y323449D01*
X217089Y323347D01*
X217154Y323248D01*
X217224Y323151D01*
X217296Y323056D01*
X217371Y322963D01*
X217449Y322873D01*
X217531Y322786D01*
X217615Y322701D01*
X217701Y322619D01*
X217791Y322540D01*
X217883Y322464D01*
X217977Y322391D01*
X218073Y322321D01*
X218172Y322254D01*
X218273Y322190D01*
X218376Y322130D01*
X218481Y322073D01*
X218588Y322020D01*
X218696Y321970D01*
X218806Y321924D01*
X218918Y321881D01*
X223982Y324243D02*
X219935Y336227D01*
X208795Y344487D02*
X208671Y344530D01*
X208545Y344570D01*
X208418Y344605D01*
X208291Y344637D01*
X208162Y344666D01*
X208032Y344690D01*
X207902Y344711D01*
X207772Y344727D01*
X207641Y344740D01*
X207509Y344749D01*
X207377Y344754D01*
X207246Y344755D01*
X207114Y344752D01*
X206982Y344745D01*
X206851Y344735D01*
X206720Y344720D01*
X206590Y344702D01*
X206460Y344680D01*
X206331Y344654D01*
X206203Y344624D01*
X206075Y344590D01*
X205949Y344553D01*
X205824Y344511D01*
X205700Y344467D01*
X205577Y344418D01*
X205456Y344366D01*
X205337Y344310D01*
X205219Y344251D01*
X205103Y344188D01*
X204989Y344122D01*
X204877Y344053D01*
X204768Y343980D01*
X204660Y343904D01*
X204555Y343825D01*
X204452Y343743D01*
X204351Y343658D01*
X204253Y343570D01*
X204158Y343479D01*
X204065Y343385D01*
X203976Y343289D01*
X203889Y343190D01*
X203805Y343088D01*
X203724Y342984D01*
X203647Y342878D01*
X203572Y342769D01*
X203501Y342658D01*
X203433Y342545D01*
X203368Y342430D01*
X203307Y342314D01*
X203250Y342195D01*
X203195Y342075D01*
X203145Y341953D01*
X203098Y341830D01*
X208795Y344488D02*
X208935Y344435D01*
X209074Y344378D01*
X209211Y344318D01*
X209346Y344254D01*
X209480Y344186D01*
X209611Y344116D01*
X209741Y344041D01*
X209869Y343964D01*
X209995Y343883D01*
X210119Y343799D01*
X210240Y343711D01*
X210359Y343620D01*
X210476Y343527D01*
X210590Y343430D01*
X210702Y343330D01*
X210811Y343228D01*
X210917Y343122D01*
X211020Y343014D01*
X211121Y342904D01*
X211218Y342790D01*
X211313Y342674D01*
X211405Y342556D01*
X211493Y342435D01*
X211578Y342312D01*
X211660Y342187D01*
X211739Y342060D01*
X211814Y341931D01*
X211886Y341799D01*
X211954Y341666D01*
X212019Y341531D01*
X212081Y341395D01*
X212139Y341257D01*
X212193Y341117D01*
X212243Y340977D01*
X212290Y340834D01*
X212333Y340691D01*
X212372Y340547D01*
X212408Y340401D01*
X212439Y340255D01*
X212467Y340108D01*
X212491Y339960D01*
X212511Y339812D01*
X212527Y339663D01*
X212539Y339514D01*
X212548Y339365D01*
X212552Y339215D01*
X212553Y339066D01*
X212549Y338916D01*
X203307Y338074D02*
X203249Y338194D01*
X203195Y338316D01*
X203144Y338440D01*
X203097Y338564D01*
X203053Y338690D01*
X203013Y338817D01*
X202976Y338945D01*
X202943Y339074D01*
X202913Y339204D01*
X202887Y339335D01*
X202865Y339467D01*
X202847Y339599D01*
X202832Y339731D01*
X202821Y339864D01*
X202813Y339997D01*
X202809Y340130D01*
X202809Y340264D01*
X202813Y340397D01*
X202821Y340530D01*
X202832Y340663D01*
X202847Y340796D01*
X202865Y340928D01*
X202887Y341059D01*
X202913Y341190D01*
X202943Y341320D01*
X202976Y341449D01*
X203013Y341577D01*
X203053Y341704D01*
X203097Y341830D01*
X203308Y338075D02*
X207819Y325921D01*
X198537Y329299D01*
X187358Y347559D02*
X187405Y347682D01*
X187455Y347804D01*
X187510Y347924D01*
X187567Y348043D01*
X187628Y348159D01*
X187693Y348274D01*
X187761Y348387D01*
X187832Y348498D01*
X187907Y348607D01*
X187984Y348713D01*
X188065Y348817D01*
X188149Y348919D01*
X188236Y349018D01*
X188325Y349114D01*
X188418Y349208D01*
X188513Y349299D01*
X188611Y349387D01*
X188712Y349472D01*
X188815Y349554D01*
X188920Y349633D01*
X189028Y349709D01*
X189137Y349782D01*
X189249Y349851D01*
X189363Y349917D01*
X189479Y349980D01*
X189597Y350039D01*
X189716Y350095D01*
X189837Y350147D01*
X189960Y350196D01*
X190084Y350240D01*
X190209Y350282D01*
X190335Y350319D01*
X190463Y350353D01*
X190591Y350383D01*
X190720Y350409D01*
X190850Y350431D01*
X190980Y350449D01*
X191111Y350464D01*
X191242Y350474D01*
X191374Y350481D01*
X191506Y350484D01*
X191637Y350483D01*
X191769Y350478D01*
X191901Y350469D01*
X192032Y350456D01*
X192162Y350440D01*
X192292Y350419D01*
X192422Y350395D01*
X192551Y350366D01*
X192678Y350334D01*
X192805Y350299D01*
X192931Y350259D01*
X193055Y350216D01*
X193055Y350217D02*
X193195Y350164D01*
X193334Y350107D01*
X193471Y350047D01*
X193606Y349983D01*
X193740Y349915D01*
X193871Y349845D01*
X194001Y349770D01*
X194129Y349693D01*
X194255Y349612D01*
X194379Y349528D01*
X194500Y349440D01*
X194619Y349349D01*
X194736Y349256D01*
X194850Y349159D01*
X194962Y349059D01*
X195071Y348957D01*
X195177Y348851D01*
X195280Y348743D01*
X195381Y348633D01*
X195478Y348519D01*
X195573Y348403D01*
X195665Y348285D01*
X195753Y348164D01*
X195838Y348041D01*
X195920Y347916D01*
X195999Y347789D01*
X196074Y347660D01*
X196146Y347528D01*
X196214Y347395D01*
X196279Y347260D01*
X196341Y347124D01*
X196399Y346986D01*
X196453Y346846D01*
X196503Y346706D01*
X196550Y346563D01*
X196593Y346420D01*
X196632Y346276D01*
X196668Y346130D01*
X196699Y345984D01*
X196727Y345837D01*
X196751Y345689D01*
X196771Y345541D01*
X196787Y345392D01*
X196799Y345243D01*
X196808Y345094D01*
X196812Y344944D01*
X196813Y344795D01*
X196809Y344645D01*
X187567Y343803D02*
X187509Y343923D01*
X187455Y344045D01*
X187404Y344169D01*
X187357Y344293D01*
X187313Y344419D01*
X187273Y344546D01*
X187236Y344674D01*
X187203Y344803D01*
X187173Y344933D01*
X187147Y345064D01*
X187125Y345196D01*
X187107Y345328D01*
X187092Y345460D01*
X187081Y345593D01*
X187073Y345726D01*
X187069Y345859D01*
X187069Y345993D01*
X187073Y346126D01*
X187081Y346259D01*
X187092Y346392D01*
X187107Y346525D01*
X187125Y346657D01*
X187147Y346788D01*
X187173Y346919D01*
X187203Y347049D01*
X187236Y347178D01*
X187273Y347306D01*
X187313Y347433D01*
X187357Y347559D01*
X187567Y343804D02*
X192079Y331650D01*
X182797Y335028D01*
D11*
X209550Y285750D02*
X209550Y275590D01*
X209550Y194310D02*
X209550Y184150D01*
D10*
X218440Y203200D02*
X218540Y203202D01*
X218639Y203208D01*
X218739Y203218D01*
X218837Y203231D01*
X218936Y203249D01*
X219033Y203270D01*
X219129Y203295D01*
X219225Y203324D01*
X219319Y203357D01*
X219412Y203393D01*
X219503Y203433D01*
X219593Y203477D01*
X219681Y203524D01*
X219767Y203574D01*
X219851Y203628D01*
X219933Y203685D01*
X220012Y203745D01*
X220090Y203809D01*
X220164Y203875D01*
X220236Y203944D01*
X220305Y204016D01*
X220371Y204090D01*
X220435Y204168D01*
X220495Y204247D01*
X220552Y204329D01*
X220606Y204413D01*
X220656Y204499D01*
X220703Y204587D01*
X220747Y204677D01*
X220787Y204768D01*
X220823Y204861D01*
X220856Y204955D01*
X220885Y205051D01*
X220910Y205147D01*
X220931Y205244D01*
X220949Y205343D01*
X220962Y205441D01*
X220972Y205541D01*
X220978Y205640D01*
X220980Y205740D01*
X200660Y203200D02*
X200560Y203202D01*
X200461Y203208D01*
X200361Y203218D01*
X200263Y203231D01*
X200164Y203249D01*
X200067Y203270D01*
X199971Y203295D01*
X199875Y203324D01*
X199781Y203357D01*
X199688Y203393D01*
X199597Y203433D01*
X199507Y203477D01*
X199419Y203524D01*
X199333Y203574D01*
X199249Y203628D01*
X199167Y203685D01*
X199088Y203745D01*
X199010Y203809D01*
X198936Y203875D01*
X198864Y203944D01*
X198795Y204016D01*
X198729Y204090D01*
X198665Y204168D01*
X198605Y204247D01*
X198548Y204329D01*
X198494Y204413D01*
X198444Y204499D01*
X198397Y204587D01*
X198353Y204677D01*
X198313Y204768D01*
X198277Y204861D01*
X198244Y204955D01*
X198215Y205051D01*
X198190Y205147D01*
X198169Y205244D01*
X198151Y205343D01*
X198138Y205441D01*
X198128Y205541D01*
X198122Y205640D01*
X198120Y205740D01*
X198120Y264160D02*
X198122Y264260D01*
X198128Y264359D01*
X198138Y264459D01*
X198151Y264557D01*
X198169Y264656D01*
X198190Y264753D01*
X198215Y264849D01*
X198244Y264945D01*
X198277Y265039D01*
X198313Y265132D01*
X198353Y265223D01*
X198397Y265313D01*
X198444Y265401D01*
X198494Y265487D01*
X198548Y265571D01*
X198605Y265653D01*
X198665Y265732D01*
X198729Y265810D01*
X198795Y265884D01*
X198864Y265956D01*
X198936Y266025D01*
X199010Y266091D01*
X199088Y266155D01*
X199167Y266215D01*
X199249Y266272D01*
X199333Y266326D01*
X199419Y266376D01*
X199507Y266423D01*
X199597Y266467D01*
X199688Y266507D01*
X199781Y266543D01*
X199875Y266576D01*
X199971Y266605D01*
X200067Y266630D01*
X200164Y266651D01*
X200263Y266669D01*
X200361Y266682D01*
X200461Y266692D01*
X200560Y266698D01*
X200660Y266700D01*
X218440Y266700D02*
X218540Y266698D01*
X218639Y266692D01*
X218739Y266682D01*
X218837Y266669D01*
X218936Y266651D01*
X219033Y266630D01*
X219129Y266605D01*
X219225Y266576D01*
X219319Y266543D01*
X219412Y266507D01*
X219503Y266467D01*
X219593Y266423D01*
X219681Y266376D01*
X219767Y266326D01*
X219851Y266272D01*
X219933Y266215D01*
X220012Y266155D01*
X220090Y266091D01*
X220164Y266025D01*
X220236Y265956D01*
X220305Y265884D01*
X220371Y265810D01*
X220435Y265732D01*
X220495Y265653D01*
X220552Y265571D01*
X220606Y265487D01*
X220656Y265401D01*
X220703Y265313D01*
X220747Y265223D01*
X220787Y265132D01*
X220823Y265039D01*
X220856Y264945D01*
X220885Y264849D01*
X220910Y264753D01*
X220931Y264656D01*
X220949Y264557D01*
X220962Y264459D01*
X220972Y264359D01*
X220978Y264260D01*
X220980Y264160D01*
X218440Y203200D02*
X200660Y203200D01*
X220980Y205740D02*
X220980Y209550D01*
X219710Y210820D01*
X198120Y209550D02*
X198120Y205740D01*
X198120Y209550D02*
X199390Y210820D01*
X219710Y259080D02*
X220980Y260350D01*
X219710Y259080D02*
X219710Y210820D01*
X199390Y259080D02*
X198120Y260350D01*
X199390Y259080D02*
X199390Y210820D01*
X220980Y260350D02*
X220980Y264160D01*
X198120Y264160D02*
X198120Y260350D01*
X200660Y266700D02*
X218440Y266700D01*
D12*
X209550Y271018D03*
X209550Y198882D03*
D11*
X264518Y261505D02*
X267148Y271319D01*
X243482Y182995D02*
X240852Y173181D01*
D10*
X254370Y189281D02*
X254466Y189257D01*
X254564Y189237D01*
X254663Y189220D01*
X254762Y189208D01*
X254861Y189199D01*
X254961Y189195D01*
X255060Y189194D01*
X255160Y189197D01*
X255259Y189205D01*
X255359Y189216D01*
X255457Y189231D01*
X255555Y189250D01*
X255652Y189272D01*
X255748Y189299D01*
X255843Y189329D01*
X255937Y189363D01*
X256030Y189400D01*
X256121Y189441D01*
X256210Y189486D01*
X256297Y189534D01*
X256382Y189586D01*
X256466Y189641D01*
X256547Y189699D01*
X256625Y189760D01*
X256702Y189824D01*
X256775Y189892D01*
X256846Y189962D01*
X256915Y190034D01*
X256980Y190110D01*
X257042Y190188D01*
X257101Y190268D01*
X257157Y190351D01*
X257210Y190435D01*
X257259Y190522D01*
X257305Y190611D01*
X257347Y190701D01*
X257386Y190793D01*
X257421Y190886D01*
X257453Y190981D01*
X257480Y191077D01*
X237196Y193883D02*
X237100Y193910D01*
X237005Y193942D01*
X236912Y193977D01*
X236820Y194016D01*
X236730Y194058D01*
X236641Y194104D01*
X236554Y194153D01*
X236470Y194206D01*
X236387Y194262D01*
X236307Y194321D01*
X236229Y194383D01*
X236153Y194448D01*
X236081Y194517D01*
X236011Y194588D01*
X235943Y194661D01*
X235879Y194738D01*
X235818Y194816D01*
X235760Y194897D01*
X235705Y194981D01*
X235653Y195066D01*
X235605Y195153D01*
X235560Y195242D01*
X235519Y195333D01*
X235482Y195426D01*
X235448Y195520D01*
X235418Y195615D01*
X235391Y195711D01*
X235369Y195808D01*
X235350Y195906D01*
X235335Y196004D01*
X235324Y196104D01*
X235316Y196203D01*
X235313Y196303D01*
X235314Y196402D01*
X235318Y196502D01*
X235327Y196601D01*
X235339Y196700D01*
X235356Y196799D01*
X235376Y196897D01*
X235400Y196993D01*
X250520Y253423D02*
X250547Y253519D01*
X250579Y253614D01*
X250614Y253707D01*
X250653Y253799D01*
X250695Y253889D01*
X250741Y253978D01*
X250790Y254065D01*
X250843Y254149D01*
X250899Y254232D01*
X250958Y254312D01*
X251020Y254390D01*
X251085Y254466D01*
X251154Y254538D01*
X251225Y254608D01*
X251298Y254676D01*
X251375Y254740D01*
X251453Y254801D01*
X251534Y254859D01*
X251618Y254914D01*
X251703Y254966D01*
X251790Y255014D01*
X251879Y255059D01*
X251970Y255100D01*
X252063Y255137D01*
X252157Y255171D01*
X252252Y255201D01*
X252348Y255228D01*
X252445Y255250D01*
X252543Y255269D01*
X252641Y255284D01*
X252741Y255295D01*
X252840Y255303D01*
X252940Y255306D01*
X253039Y255305D01*
X253139Y255301D01*
X253238Y255292D01*
X253337Y255280D01*
X253436Y255263D01*
X253534Y255243D01*
X253630Y255219D01*
X270804Y250617D02*
X270900Y250590D01*
X270995Y250558D01*
X271088Y250523D01*
X271180Y250484D01*
X271270Y250442D01*
X271359Y250396D01*
X271446Y250347D01*
X271530Y250294D01*
X271613Y250238D01*
X271693Y250179D01*
X271771Y250117D01*
X271847Y250052D01*
X271919Y249983D01*
X271989Y249912D01*
X272057Y249839D01*
X272121Y249762D01*
X272182Y249684D01*
X272240Y249603D01*
X272295Y249519D01*
X272347Y249434D01*
X272395Y249347D01*
X272440Y249258D01*
X272481Y249167D01*
X272518Y249074D01*
X272552Y248980D01*
X272582Y248885D01*
X272609Y248789D01*
X272631Y248692D01*
X272650Y248594D01*
X272665Y248496D01*
X272676Y248396D01*
X272684Y248297D01*
X272687Y248197D01*
X272686Y248098D01*
X272682Y247998D01*
X272673Y247899D01*
X272661Y247800D01*
X272644Y247701D01*
X272624Y247603D01*
X272600Y247507D01*
X254370Y189281D02*
X237195Y193883D01*
X257480Y191077D02*
X258467Y194757D01*
X257569Y196313D01*
X236385Y200674D02*
X235399Y196994D01*
X236385Y200674D02*
X237941Y201572D01*
X270059Y242928D02*
X271615Y243826D01*
X270059Y242928D02*
X257569Y196313D01*
X250432Y248187D02*
X249534Y249743D01*
X250432Y248187D02*
X237941Y201572D01*
X271615Y243826D02*
X272601Y247506D01*
X250520Y253423D02*
X249534Y249743D01*
X253630Y255219D02*
X270805Y250617D01*
D13*
G36*
X267396Y260470D02*
X265161Y252130D01*
X259274Y253708D01*
X261509Y262048D01*
X267396Y260470D01*
G37*
G36*
X248726Y190792D02*
X246491Y182452D01*
X240604Y184030D01*
X242839Y192370D01*
X248726Y190792D01*
G37*
D11*
X154582Y261505D02*
X151952Y271319D01*
X175618Y182995D02*
X178248Y173181D01*
D10*
X181904Y193883D02*
X182000Y193910D01*
X182095Y193942D01*
X182188Y193977D01*
X182280Y194016D01*
X182370Y194058D01*
X182459Y194104D01*
X182546Y194153D01*
X182630Y194206D01*
X182713Y194262D01*
X182793Y194321D01*
X182871Y194383D01*
X182947Y194448D01*
X183019Y194517D01*
X183089Y194588D01*
X183157Y194661D01*
X183221Y194738D01*
X183282Y194816D01*
X183340Y194897D01*
X183395Y194981D01*
X183447Y195066D01*
X183495Y195153D01*
X183540Y195242D01*
X183581Y195333D01*
X183618Y195426D01*
X183652Y195520D01*
X183682Y195615D01*
X183709Y195711D01*
X183731Y195808D01*
X183750Y195906D01*
X183765Y196004D01*
X183776Y196104D01*
X183784Y196203D01*
X183787Y196303D01*
X183786Y196402D01*
X183782Y196502D01*
X183773Y196601D01*
X183761Y196700D01*
X183744Y196799D01*
X183724Y196897D01*
X183700Y196993D01*
X164730Y189281D02*
X164634Y189257D01*
X164536Y189237D01*
X164437Y189220D01*
X164338Y189208D01*
X164239Y189199D01*
X164139Y189195D01*
X164040Y189194D01*
X163940Y189197D01*
X163841Y189205D01*
X163741Y189216D01*
X163643Y189231D01*
X163545Y189250D01*
X163448Y189272D01*
X163352Y189299D01*
X163257Y189329D01*
X163163Y189363D01*
X163070Y189400D01*
X162979Y189441D01*
X162890Y189486D01*
X162803Y189534D01*
X162718Y189586D01*
X162634Y189641D01*
X162553Y189699D01*
X162475Y189760D01*
X162398Y189824D01*
X162325Y189892D01*
X162254Y189962D01*
X162185Y190034D01*
X162120Y190110D01*
X162058Y190188D01*
X161999Y190268D01*
X161943Y190351D01*
X161890Y190435D01*
X161841Y190522D01*
X161795Y190611D01*
X161753Y190701D01*
X161714Y190793D01*
X161679Y190886D01*
X161647Y190981D01*
X161620Y191077D01*
X146500Y247507D02*
X146476Y247603D01*
X146456Y247701D01*
X146439Y247800D01*
X146427Y247899D01*
X146418Y247998D01*
X146414Y248098D01*
X146413Y248197D01*
X146416Y248297D01*
X146424Y248396D01*
X146435Y248496D01*
X146450Y248594D01*
X146469Y248692D01*
X146491Y248789D01*
X146518Y248885D01*
X146548Y248980D01*
X146582Y249074D01*
X146619Y249167D01*
X146660Y249258D01*
X146705Y249347D01*
X146753Y249434D01*
X146805Y249519D01*
X146860Y249603D01*
X146918Y249684D01*
X146979Y249762D01*
X147043Y249839D01*
X147111Y249912D01*
X147181Y249983D01*
X147253Y250052D01*
X147329Y250117D01*
X147407Y250179D01*
X147487Y250238D01*
X147570Y250294D01*
X147654Y250347D01*
X147741Y250396D01*
X147830Y250442D01*
X147920Y250484D01*
X148012Y250523D01*
X148105Y250558D01*
X148200Y250590D01*
X148296Y250617D01*
X165470Y255219D02*
X165566Y255243D01*
X165664Y255263D01*
X165763Y255280D01*
X165862Y255292D01*
X165961Y255301D01*
X166061Y255305D01*
X166160Y255306D01*
X166260Y255303D01*
X166359Y255295D01*
X166459Y255284D01*
X166557Y255269D01*
X166655Y255250D01*
X166752Y255228D01*
X166848Y255201D01*
X166943Y255171D01*
X167037Y255137D01*
X167130Y255100D01*
X167221Y255059D01*
X167310Y255014D01*
X167397Y254966D01*
X167482Y254914D01*
X167566Y254859D01*
X167647Y254801D01*
X167725Y254740D01*
X167802Y254676D01*
X167875Y254608D01*
X167946Y254538D01*
X168015Y254466D01*
X168080Y254390D01*
X168142Y254312D01*
X168201Y254232D01*
X168257Y254149D01*
X168310Y254065D01*
X168359Y253978D01*
X168405Y253889D01*
X168447Y253799D01*
X168486Y253707D01*
X168521Y253614D01*
X168553Y253519D01*
X168580Y253423D01*
X181905Y193883D02*
X164730Y189281D01*
X183701Y196994D02*
X182715Y200674D01*
X181159Y201572D01*
X160634Y194757D02*
X161620Y191077D01*
X160634Y194757D02*
X161532Y196313D01*
X168669Y248187D02*
X169567Y249743D01*
X168669Y248187D02*
X181159Y201572D01*
X149041Y242928D02*
X147485Y243826D01*
X149041Y242928D02*
X161532Y196313D01*
X169567Y249743D02*
X168580Y253423D01*
X146499Y247506D02*
X147485Y243826D01*
X148295Y250617D02*
X165470Y255219D01*
D13*
G36*
X157591Y262048D02*
X159826Y253708D01*
X153939Y252130D01*
X151704Y260470D01*
X157591Y262048D01*
G37*
G36*
X176261Y192370D02*
X178496Y184030D01*
X172609Y182452D01*
X170374Y190792D01*
X176261Y192370D01*
G37*
D10*
X222250Y139700D02*
X234950Y139700D01*
X222250Y139700D02*
X215900Y133350D01*
X209550Y139700D01*
X196850Y139700D01*
X190500Y133350D01*
X234950Y139700D02*
X241300Y133350D01*
X190500Y133350D02*
X184150Y139700D01*
X171450Y139700D01*
X165100Y133350D01*
X165100Y95250D01*
X215900Y95250D02*
X222250Y88900D01*
X196850Y88900D02*
X190500Y95250D01*
X196850Y88900D02*
X209550Y88900D01*
X215900Y95250D01*
X241300Y95250D02*
X241300Y133350D01*
X241300Y95250D02*
X234950Y88900D01*
X222250Y88900D01*
X171450Y88900D02*
X165100Y95250D01*
X171450Y88900D02*
X184150Y88900D01*
X190500Y95250D01*
D14*
X157480Y125095D02*
X157480Y132715D01*
X153670Y128905D02*
X161290Y128905D01*
D15*
X203200Y101600D03*
X228600Y101600D03*
X177800Y101600D03*
X228600Y127000D03*
X203200Y127000D03*
X177800Y127000D03*
D14*
X161925Y99695D02*
X161925Y94615D01*
D16*
X251008Y136779D02*
X253619Y134691D01*
X251008Y136779D02*
X251008Y127381D01*
X248398Y127381D02*
X253619Y127381D01*
X250747Y98680D02*
X250652Y98678D01*
X250558Y98672D01*
X250464Y98663D01*
X250370Y98650D01*
X250277Y98633D01*
X250185Y98612D01*
X250093Y98587D01*
X250003Y98559D01*
X249914Y98527D01*
X249826Y98492D01*
X249740Y98453D01*
X249655Y98411D01*
X249572Y98365D01*
X249491Y98316D01*
X249412Y98264D01*
X249335Y98209D01*
X249261Y98150D01*
X249189Y98089D01*
X249119Y98025D01*
X249052Y97958D01*
X248988Y97888D01*
X248927Y97816D01*
X248868Y97742D01*
X248813Y97665D01*
X248761Y97586D01*
X248712Y97505D01*
X248666Y97422D01*
X248624Y97337D01*
X248585Y97251D01*
X248550Y97163D01*
X248518Y97074D01*
X248490Y96984D01*
X248465Y96892D01*
X248444Y96800D01*
X248427Y96707D01*
X248414Y96613D01*
X248405Y96519D01*
X248399Y96425D01*
X248397Y96330D01*
X250747Y98679D02*
X250855Y98677D01*
X250964Y98671D01*
X251072Y98661D01*
X251179Y98648D01*
X251286Y98630D01*
X251393Y98609D01*
X251498Y98584D01*
X251603Y98555D01*
X251706Y98523D01*
X251808Y98486D01*
X251909Y98446D01*
X252008Y98403D01*
X252106Y98356D01*
X252202Y98305D01*
X252296Y98251D01*
X252388Y98194D01*
X252478Y98133D01*
X252566Y98069D01*
X252651Y98003D01*
X252734Y97933D01*
X252814Y97860D01*
X252892Y97784D01*
X252967Y97706D01*
X253039Y97625D01*
X253108Y97541D01*
X253174Y97455D01*
X253237Y97367D01*
X253296Y97276D01*
X253353Y97184D01*
X253406Y97089D01*
X253455Y96992D01*
X253501Y96894D01*
X253544Y96795D01*
X253583Y96693D01*
X253618Y96591D01*
X249181Y94502D02*
X249112Y94571D01*
X249046Y94642D01*
X248982Y94715D01*
X248921Y94791D01*
X248863Y94870D01*
X248809Y94950D01*
X248757Y95033D01*
X248709Y95117D01*
X248663Y95203D01*
X248622Y95291D01*
X248583Y95381D01*
X248548Y95472D01*
X248517Y95564D01*
X248489Y95657D01*
X248465Y95751D01*
X248445Y95846D01*
X248428Y95942D01*
X248415Y96039D01*
X248406Y96136D01*
X248400Y96233D01*
X248398Y96330D01*
X249181Y94502D02*
X253619Y89281D01*
X248398Y89281D01*
M02*
