  0
SECTION
  2
HEADER
  9
$ACADVER
  1
AC1032
  9
$ACADMAINTVER
 90
      228
  9
$DWGCODEPAGE
  3
ANSI_1252
  9
$REQUIREDVERSIONS
160
                 0
  9
$INSBASE
 10
0.0
 20
0.0
 30
0.0
  9
$EXTMIN
 10
1.000000000000000E+20
 20
1.000000000000000E+20
 30
1.000000000000000E+20
  9
$EXTMAX
 10
-1.000000000000000E+20
 20
-1.000000000000000E+20
 30
-1.000000000000000E+20
  9
$LIMMIN
 10
0.0
 20
0.0
  9
$LIMMAX
 10
12.0
 20
9.0
  9
$ORTHOMODE
 70
     0
  9
$REGENMODE
 70
     1
  9
$FILLMODE
 70
     1
  9
$QTEXTMODE
 70
     0
  9
$MIRRTEXT
 70
     0
  9
$LTSCALE
 40
1.0
  9
$ATTMODE
 70
     1
  9
$TEXTSIZE
 40
0.2
  9
$TRACEWID
 40
0.05
  9
$TEXTSTYLE
  7
Standard
  9
$CLAYER
  8
0
  9
$CELTYPE
  6
ByLayer
  9
$CECOLOR
 62
   256
  9
$CELTSCALE
 40
1.0
  9
$DISPSILH
 70
     0
  9
$DIMSCALE
 40
1.0
  9
$DIMASZ
 40
0.18
  9
$DIMEXO
 40
0.0625
  9
$DIMDLI
 40
0.38
  9
$DIMRND
 40
0.0
  9
$DIMDLE
 40
0.0
  9
$DIMEXE
 40
0.18
  9
$DIMTP
 40
0.0
  9
$DIMTM
 40
0.0
  9
$DIMTXT
 40
0.18
  9
$DIMCEN
 40
0.09
  9
$DIMTSZ
 40
0.0
  9
$DIMTOL
 70
     0
  9
$DIMLIM
 70
     0
  9
$DIMTIH
 70
     1
  9
$DIMTOH
 70
     1
  9
$DIMSE1
 70
     0
  9
$DIMSE2
 70
     0
  9
$DIMTAD
 70
     0
  9
$DIMZIN
 70
     0
  9
$DIMBLK
  1

  9
$DIMASO
 70
     1
  9
$DIMSHO
 70
     1
  9
$DIMPOST
  1

  9
$DIMAPOST
  1

  9
$DIMALT
 70
     0
  9
$DIMALTD
 70
     2
  9
$DIMALTF
 40
25.4
  9
$DIMLFAC
 40
1.0
  9
$DIMTOFL
 70
     0
  9
$DIMTVP
 40
0.0
  9
$DIMTIX
 70
     0
  9
$DIMSOXD
 70
     0
  9
$DIMSAH
 70
     0
  9
$DIMBLK1
  1

  9
$DIMBLK2
  1

  9
$DIMSTYLE
  2
Standard
  9
$DIMCLRD
 70
     0
  9
$DIMCLRE
 70
     0
  9
$DIMCLRT
 70
     0
  9
$DIMTFAC
 40
1.0
  9
$DIMGAP
 40
0.09
  9
$DIMJUST
 70
     0
  9
$DIMSD1
 70
     0
  9
$DIMSD2
 70
     0
  9
$DIMTOLJ
 70
     1
  9
$DIMTZIN
 70
     0
  9
$DIMALTZ
 70
     0
  9
$DIMALTTZ
 70
     0
  9
$DIMUPT
 70
     0
  9
$DIMDEC
 70
     4
  9
$DIMTDEC
 70
     4
  9
$DIMALTU
 70
     2
  9
$DIMALTTD
 70
     2
  9
$DIMTXSTY
  7
Standard
  9
$DIMAUNIT
 70
     0
  9
$DIMADEC
 70
     0
  9
$DIMALTRND
 40
0.0
  9
$DIMAZIN
 70
     0
  9
$DIMDSEP
 70
    46
  9
$DIMATFIT
 70
     3
  9
$DIMFRAC
 70
     0
  9
$DIMLDRBLK
  1

  9
$DIMLUNIT
 70
     2
  9
$DIMLWD
 70
    -2
  9
$DIMLWE
 70
    -2
  9
$DIMTMOVE
 70
     0
  9
$DIMFXL
 40
1.0
  9
$DIMFXLON
 70
     0
  9
$DIMJOGANG
 40
0.7853981633974483
  9
$DIMTFILL
 70
     0
  9
$DIMTFILLCLR
 70
     0
  9
$DIMARCSYM
 70
     0
  9
$DIMLTYPE
  6

  9
$DIMLTEX1
  6

  9
$DIMLTEX2
  6

  9
$DIMTXTDIRECTION
 70
     0
  9
$LUNITS
 70
     2
  9
$LUPREC
 70
     4
  9
$SKETCHINC
 40
0.1
  9
$FILLETRAD
 40
0.0
  9
$AUNITS
 70
     0
  9
$AUPREC
 70
     0
  9
$MENU
  1
.
  9
$ELEVATION
 40
0.0
  9
$PELEVATION
 40
0.0
  9
$THICKNESS
 40
0.0
  9
$LIMCHECK
 70
     0
  9
$CHAMFERA
 40
0.0
  9
$CHAMFERB
 40
0.0
  9
$CHAMFERC
 40
0.0
  9
$CHAMFERD
 40
0.0
  9
$SKPOLY
 70
     0
  9
$TDCREATE
 40
2459992.666736111
  9
$TDUCREATE
 40
2459992.875069445
  9
$TDUPDATE
 40
2459992.666736111
  9
$TDUUPDATE
 40
2459992.875069445
  9
$TDINDWG
 40
0.0000000000
  9
$TDUSRTIMER
 40
0.0000000000
  9
$USRTIMER
 70
     1
  9
$ANGBASE
 50
0.0
  9
$ANGDIR
 70
     0
  9
$PDMODE
 70
     0
  9
$PDSIZE
 40
0.0
  9
$PLINEWID
 40
0.0
  9
$SPLFRAME
 70
     0
  9
$SPLINETYPE
 70
     6
  9
$SPLINESEGS
 70
     8
  9
$HANDSEED
  5
BA
  9
$SURFTAB1
 70
     6
  9
$SURFTAB2
 70
     6
  9
$SURFTYPE
 70
     6
  9
$SURFU
 70
     6
  9
$SURFV
 70
     6
  9
$UCSBASE
  2

  9
$UCSNAME
  2

  9
$UCSORG
 10
0.0
 20
0.0
 30
0.0
  9
$UCSXDIR
 10
1.0
 20
0.0
 30
0.0
  9
$UCSYDIR
 10
0.0
 20
1.0
 30
0.0
  9
$UCSORTHOREF
  2

  9
$UCSORTHOVIEW
 70
     0
  9
$UCSORGTOP
 10
0.0
 20
0.0
 30
0.0
  9
$UCSORGBOTTOM
 10
0.0
 20
0.0
 30
0.0
  9
$UCSORGLEFT
 10
0.0
 20
0.0
 30
0.0
  9
$UCSORGRIGHT
 10
0.0
 20
0.0
 30
0.0
  9
$UCSORGFRONT
 10
0.0
 20
0.0
 30
0.0
  9
$UCSORGBACK
 10
0.0
 20
0.0
 30
0.0
  9
$PUCSBASE
  2

  9
$PUCSNAME
  2

  9
$PUCSORG
 10
0.0
 20
0.0
 30
0.0
  9
$PUCSXDIR
 10
1.0
 20
0.0
 30
0.0
  9
$PUCSYDIR
 10
0.0
 20
1.0
 30
0.0
  9
$PUCSORTHOREF
  2

  9
$PUCSORTHOVIEW
 70
     0
  9
$PUCSORGTOP
 10
0.0
 20
0.0
 30
0.0
  9
$PUCSORGBOTTOM
 10
0.0
 20
0.0
 30
0.0
  9
$PUCSORGLEFT
 10
0.0
 20
0.0
 30
0.0
  9
$PUCSORGRIGHT
 10
0.0
 20
0.0
 30
0.0
  9
$PUCSORGFRONT
 10
0.0
 20
0.0
 30
0.0
  9
$PUCSORGBACK
 10
0.0
 20
0.0
 30
0.0
  9
$USERI1
 70
     0
  9
$USERI2
 70
     0
  9
$USERI3
 70
     0
  9
$USERI4
 70
     0
  9
$USERI5
 70
     0
  9
$USERR1
 40
0.0
  9
$USERR2
 40
0.0
  9
$USERR3
 40
0.0
  9
$USERR4
 40
0.0
  9
$USERR5
 40
0.0
  9
$WORLDVIEW
 70
     1
  9
$SHADEDGE
 70
     3
  9
$SHADEDIF
 70
    70
  9
$TILEMODE
 70
     1
  9
$MAXACTVP
 70
    64
  9
$PINSBASE
 10
0.0
 20
0.0
 30
0.0
  9
$PLIMCHECK
 70
     0
  9
$PEXTMIN
 10
1.000000000000000E+20
 20
1.000000000000000E+20
 30
1.000000000000000E+20
  9
$PEXTMAX
 10
-1.000000000000000E+20
 20
-1.000000000000000E+20
 30
-1.000000000000000E+20
  9
$PLIMMIN
 10
0.0
 20
0.0
  9
$PLIMMAX
 10
12.0
 20
9.0
  9
$UNITMODE
 70
     0
  9
$VISRETAIN
 70
     1
  9
$PLINEGEN
 70
     0
  9
$PSLTSCALE
 70
     1
  9
$TREEDEPTH
 70
  3020
  9
$CMLSTYLE
  2
Standard
  9
$CMLJUST
 70
     0
  9
$CMLSCALE
 40
1.0
  9
$PROXYGRAPHICS
 70
     1
  9
$MEASUREMENT
 70
     0
  9
$CELWEIGHT
370
    -1
  9
$ENDCAPS
280
     0
  9
$JOINSTYLE
280
     0
  9
$LWDISPLAY
290
     1
  9
$INSUNITS
 70
     0
  9
$HYPERLINKBASE
  1

  9
$STYLESHEET
  1

  9
$XEDIT
290
     1
  9
$CEPSNTYPE
380
     0
  9
$PSTYLEMODE
290
     1
  9
$FINGERPRINTGUID
  2
{3C4875A9-97F6-6E46-8E71-77CB8288CC98}
  9
$VERSIONGUID
  2
{43B868D2-9414-E54F-A0D5-91E740E45EF8}
  9
$EXTNAMES
290
     1
  9
$PSVPSCALE
 40
0.0
  9
$OLESTARTUP
290
     0
  9
$SORTENTS
280
   127
  9
$INDEXCTL
280
     0
  9
$HIDETEXT
280
     1
  9
$XCLIPFRAME
280
     2
  9
$HALOGAP
280
     0
  9
$OBSCOLOR
 70
   257
  9
$OBSLTYPE
280
     0
  9
$INTERSECTIONDISPLAY
280
     0
  9
$INTERSECTIONCOLOR
 70
   257
  9
$DIMASSOC
280
     2
  9
$PROJECTNAME
  1

  9
$CAMERADISPLAY
290
     0
  9
$LENSLENGTH
 40
50.0
  9
$CAMERAHEIGHT
 40
0.0
  9
$STEPSPERSEC
 40
2.0
  9
$STEPSIZE
 40
6.0
  9
$3DDWFPREC
 40
2.0
  9
$PSOLWIDTH
 40
0.25
  9
$PSOLHEIGHT
 40
4.0
  9
$LOFTANG1
 40
1.570796326794896
  9
$LOFTANG2
 40
1.570796326794896
  9
$LOFTMAG1
 40
0.0
  9
$LOFTMAG2
 40
0.0
  9
$LOFTPARAM
 70
     7
  9
$LOFTNORMALS
280
     1
  9
$LATITUDE
 40
37.795
  9
$LONGITUDE
 40
-122.394
  9
$NORTHDIRECTION
 40
0.0
  9
$TIMEZONE
 70
 -8000
  9
$LIGHTGLYPHDISPLAY
280
     1
  9
$TILEMODELIGHTSYNCH
280
     1
  9
$CMATERIAL
347
11
  9
$SOLIDHIST
280
     0
  9
$SHOWHIST
280
     1
  9
$DWFFRAME
280
     2
  9
$DGNFRAME
280
     0
  9
$REALWORLDSCALE
290
     1
  9
$INTERFERECOLOR
 62
     1
  9
$INTERFEREOBJVS
345
33
  9
$INTERFEREVPVS
346
30
  9
$CSHADOW
280
     0
  9
$SHADOWPLANELOCATION
 40
0.0
  0
ENDSEC
  0
SECTION
  2
CLASSES
  0
CLASS
  1
ACDBDICTIONARYWDFLT
  2
AcDbDictionaryWithDefault
  3
ObjectDBX Classes
 90
        0
 91
        1
280
     0
281
     0
  0
CLASS
  1
MATERIAL
  2
AcDbMaterial
  3
ObjectDBX Classes
 90
     1153
 91
        3
280
     0
281
     0
  0
CLASS
  1
VISUALSTYLE
  2
AcDbVisualStyle
  3
ObjectDBX Classes
 90
     4095
 91
       24
280
     0
281
     0
  0
CLASS
  1
SCALE
  2
AcDbScale
  3
ObjectDBX Classes
 90
     1153
 91
       17
280
     0
281
     0
  0
CLASS
  1
TABLESTYLE
  2
AcDbTableStyle
  3
ObjectDBX Classes
 90
     4095
 91
        1
280
     0
281
     0
  0
CLASS
  1
MLEADERSTYLE
  2
AcDbMLeaderStyle
  3
ACDB_MLEADERSTYLE_CLASS
 90
     4095
 91
        1
280
     0
281
     0
  0
CLASS
  1
ACDBSECTIONVIEWSTYLE
  2
AcDbSectionViewStyle
  3
ObjectDBX Classes
 90
     1025
 91
        1
280
     0
281
     0
  0
CLASS
  1
ACDBDETAILVIEWSTYLE
  2
AcDbDetailViewStyle
  3
ObjectDBX Classes
 90
     1025
 91
        1
280
     0
281
     0
  0
CLASS
  1
DICTIONARYVAR
  2
AcDbDictionaryVar
  3
ObjectDBX Classes
 90
        0
 91
        5
280
     0
281
     0
  0
CLASS
  1
CELLSTYLEMAP
  2
AcDbCellStyleMap
  3
ObjectDBX Classes
 90
     1152
 91
        1
280
     0
281
     0
  0
ENDSEC
  0
SECTION
  2
TABLES
  0
TABLE
  2
VPORT
  5
8
330
0
100
AcDbSymbolTable
 70
     1
  0
VPORT
  5
57
330
8
100
AcDbSymbolTableRecord
100
AcDbViewportTableRecord
  2
*Active
 70
     0
 10
0.0
 20
0.0
 11
1.0
 21
1.0
 12
0.0
 22
0.0
 13
0.0
 23
0.0
 14
1.0
 24
1.0
 15
0.0
 25
0.0
 16
0.0
 26
0.0
 36
1.0
 17
960.0
 27
540.0000000000009
 37
0.0
 40
1101.600000000002
 41
1.777777777777774
 42
50.0
 43
0.0
 44
0.0
 50
0.0
 51
0.0
 71
     0
 72
   100
 73
     1
 74
     1
 75
     0
 76
     0
 77
     0
 78
     0
281
     0
 65
     1
110
0.0
120
0.0
130
0.0
111
1.0
121
0.0
131
0.0
112
0.0
122
1.0
132
0.0
 79
     0
146
0.0
 60
     3
 61
     5
292
     1
282
     1
141
0.0
142
0.0
 63
   250
421
  3355443
  0
ENDTAB
  0
TABLE
  2
LTYPE
  5
5
330
0
100
AcDbSymbolTable
 70
     1
  0
LTYPE
  5
5B
330
5
100
AcDbSymbolTableRecord
100
AcDbLinetypeTableRecord
  2
ByBlock
 70
     0
  3

 72
    65
 73
     0
 40
0.0
  0
LTYPE
  5
5C
330
5
100
AcDbSymbolTableRecord
100
AcDbLinetypeTableRecord
  2
ByLayer
 70
     0
  3

 72
    65
 73
     0
 40
0.0
  0
LTYPE
  5
5D
330
5
100
AcDbSymbolTableRecord
100
AcDbLinetypeTableRecord
  2
Continuous
 70
     0
  3
Solid line
 72
    65
 73
     0
 40
0.0
  0
ENDTAB
  0
TABLE
  2
LAYER
  5
2
330
0
100
AcDbSymbolTable
 70
     2
  0
LAYER
  5
54
330
2
100
AcDbSymbolTableRecord
100
AcDbLayerTableRecord
  2
0
 70
     0
 62
     7
  6
Continuous
370
    -3
390
F
347
21
348
0
  0
LAYER
  5
78
330
2
100
AcDbSymbolTableRecord
100
AcDbLayerTableRecord
  2
badge-all
 70
     0
 62
     7
  6
Continuous
370
     0
390
F
347
21
348
0
  0
ENDTAB
  0
TABLE
  2
STYLE
  5
3
330
0
100
AcDbSymbolTable
 70
     2
  0
STYLE
  5
55
330
3
100
AcDbSymbolTableRecord
100
AcDbTextStyleTableRecord
  2
Standard
 70
     0
 40
0.0
 41
1.0
 50
0.0
 71
     0
 42
0.2
  3
txt
  4

  0
STYLE
  5
5A
330
3
100
AcDbSymbolTableRecord
100
AcDbTextStyleTableRecord
  2
Annotative
 70
     0
 40
0.0
 41
1.0
 50
0.0
 71
     0
 42
0.2
  3
txt
  4

1001
AcadAnnotative
1000
AnnotativeData
1002
{
1070
     1
1070
     1
1002
}
  0
ENDTAB
  0
TABLE
  2
VIEW
  5
6
330
0
100
AcDbSymbolTable
 70
     0
  0
ENDTAB
  0
TABLE
  2
UCS
  5
7
330
0
100
AcDbSymbolTable
 70
     0
  0
ENDTAB
  0
TABLE
  2
APPID
  5
9
330
0
100
AcDbSymbolTable
 70
     2
  0
APPID
  5
56
330
9
100
AcDbSymbolTableRecord
100
AcDbRegAppTableRecord
  2
ACAD
 70
     0
  0
APPID
  5
5E
330
9
100
AcDbSymbolTableRecord
100
AcDbRegAppTableRecord
  2
AcadAnnotative
 70
     0
  0
ENDTAB
  0
TABLE
  2
DIMSTYLE
  5
A
330
0
100
AcDbSymbolTable
 70
     2
100
AcDbDimStyleTable
 71
     0
  0
DIMSTYLE
105
58
330
A
100
AcDbSymbolTableRecord
100
AcDbDimStyleTableRecord
  2
Standard
 70
     0
340
55
  0
DIMSTYLE
105
59
330
A
100
AcDbSymbolTableRecord
100
AcDbDimStyleTableRecord
  2
Annotative
 70
     0
340
55
1001
AcadAnnotative
1000
AnnotativeData
1002
{
1070
     1
1070
     1
1002
}
  0
ENDTAB
  0
TABLE
  2
BLOCK_RECORD
  5
1
330
0
100
AcDbSymbolTable
 70
     1
  0
BLOCK_RECORD
  5
70
330
1
100
AcDbSymbolTableRecord
100
AcDbBlockTableRecord
  2
*Model_Space
340
73
 70
     0
280
     1
281
     0
  0
BLOCK_RECORD
  5
6C
330
1
100
AcDbSymbolTableRecord
100
AcDbBlockTableRecord
  2
*Paper_Space
340
6F
 70
     0
280
     1
281
     0
  0
BLOCK_RECORD
  5
74
330
1
100
AcDbSymbolTableRecord
100
AcDbBlockTableRecord
  2
*Paper_Space0
340
77
 70
     0
280
     1
281
     0
  0
ENDTAB
  0
ENDSEC
  0
SECTION
  2
BLOCKS
  0
BLOCK
  5
71
330
70
100
AcDbEntity
  8
0
100
AcDbBlockBegin
  2
*Model_Space
 70
     0
 10
0.0
 20
0.0
 30
0.0
  3
*Model_Space
  1

  0
ENDBLK
  5
72
330
70
100
AcDbEntity
  8
0
100
AcDbBlockEnd
  0
BLOCK
  5
6D
330
6C
100
AcDbEntity
 67
     1
  8
0
100
AcDbBlockBegin
  2
*Paper_Space
 70
     0
 10
0.0
 20
0.0
 30
0.0
  3
*Paper_Space
  1

  0
ENDBLK
  5
6E
330
6C
100
AcDbEntity
 67
     1
  8
0
100
AcDbBlockEnd
  0
BLOCK
  5
75
330
74
100
AcDbEntity
 67
     1
  8
0
100
AcDbBlockBegin
  2
*Paper_Space0
 70
     0
 10
0.0
 20
0.0
 30
0.0
  3
*Paper_Space0
  1

  0
ENDBLK
  5
76
330
74
100
AcDbEntity
 67
     1
  8
0
100
AcDbBlockEnd
  0
ENDSEC
  0
SECTION
  2
ENTITIES
  0
LWPOLYLINE
  5
79
330
70
100
AcDbEntity
  8
badge-all
 62
    18
420
        0
370
     0
100
AcDbPolyline
 90
        9
 70
     1
 43
0.0
 10
853.7704918032758
 20
1080.0
 10
1066.229508196718
 20
1080.0
 10
1083.934426229509
 20
1062.295081967214
 10
1048.524590163932
 20
920.6557377049184
 10
1101.639344262297
 20
177.0491803278673
 10
959.999999999999
 20
0.0
 10
818.3606557377025
 20
177.0491803278673
 10
871.4754098360636
 20
920.6557377049184
 10
836.0655737704892
 20
1062.295081967214
  0
LINE
  5
7A
330
70
100
AcDbEntity
  8
badge-all
 62
    18
420
        0
370
     0
100
AcDbLine
 10
1030.958993663313
 20
1080.0
 30
0.0
 11
1030.958993663313
 21
1080.0
 31
0.0
  0
LWPOLYLINE
  5
7B
330
70
100
AcDbEntity
  8
badge-all
100
AcDbPolyline
 90
        1
 70
     0
 43
0.0
 10
1030.958993663313
 20
1080.000000000002
  0
HATCH
  5
7C
330
70
100
AcDbEntity
  8
badge-all
 62
   251
420
  5658457
440
 33554687
100
AcDbHatch
 10
0.0
 20
0.0
 30
0.0
210
0.0
220
0.0
230
1.0
  2
SOLID
 70
     1
 71
     1
 91
        1
 92
        3
 72
     0
 73
     1
 93
        1
 10
1030.958993663313
 20
1080.000000000002
 97
        0
 75
     2
 76
     1
 98
        1
 10
0.0
 20
0.0
450
        0
451
        0
460
0.0
461
0.0
452
        0
462
0.0
453
        0
470

  0
LWPOLYLINE
  5
7D
330
70
100
AcDbEntity
  8
badge-all
 62
    18
420
        0
370
     0
100
AcDbPolyline
 90
        6
 70
     1
 43
0.0
 10
1073.529285023665
 20
569.4836712714022
 10
961.3600830988126
 20
427.8248829950371
 10
846.8769752095759
 20
572.405777482536
 10
841.3131596891089
 20
496.430510773458
 10
961.3600830988126
 20
344.8276526728714
 10
1078.967385056328
 20
493.3497655944611
  0
LWPOLYLINE
  5
7E
330
70
100
AcDbEntity
  8
badge-all
100
AcDbPolyline
 90
        6
 70
     1
 43
0.0
 10
1073.529285023665
 20
569.4836712714004
 10
961.3600830988126
 20
427.8248829950334
 10
846.8769752095768
 20
572.405777482536
 10
841.3131596891089
 20
496.4305107734563
 10
961.3600830988126
 20
344.8276526728714
 10
1078.967385056328
 20
493.3497655944592
  0
HATCH
  5
7F
330
70
100
AcDbEntity
  8
badge-all
 62
   251
420
  5658457
440
 33554687
100
AcDbHatch
 10
0.0
 20
0.0
 30
0.0
210
0.0
220
0.0
230
1.0
  2
SOLID
 70
     1
 71
     1
 91
        1
 92
        1
 93
        6
 72
     1
 10
1073.529285023665
 20
569.4836712714004
 11
961.3600830988126
 21
427.8248829950334
 72
     1
 10
961.3600830988126
 20
427.8248829950334
 11
846.8769752095768
 21
572.405777482536
 72
     1
 10
846.8769752095768
 20
572.405777482536
 11
841.3131596891089
 21
496.4305107734563
 72
     1
 10
841.3131596891089
 20
496.4305107734563
 11
961.3600830988126
 21
344.8276526728714
 72
     1
 10
961.3600830988126
 20
344.8276526728714
 11
1078.967385056328
 21
493.3497655944592
 72
     1
 10
1078.967385056328
 20
493.3497655944592
 11
1073.529285023665
 21
569.4836712714004
 97
        1
330
7E
 75
     2
 76
     1
 98
        1
 10
0.0
 20
0.0
450
        0
451
        0
460
0.0
461
0.0
452
        0
462
0.0
453
        0
470

  0
LWPOLYLINE
  5
80
330
70
100
AcDbEntity
  8
badge-all
 62
    18
420
        0
370
     0
100
AcDbPolyline
 90
        6
 70
     1
 43
0.0
 10
1082.980344679708
 20
437.1684150704241
 10
961.3600830988126
 20
283.5738127310633
 10
837.2074080579887
 20
440.3663712065645
 10
831.6435925375216
 20
364.3907676843919
 10
961.3600830988126
 20
200.5765824089012
 10
1088.418528915646
 20
361.0341725803846
  0
LWPOLYLINE
  5
81
330
70
100
AcDbEntity
  8
badge-all
100
AcDbPolyline
 90
        6
 70
     1
 43
0.0
 10
1082.98034467971
 20
437.1684150704258
 10
961.3600830988126
 20
283.5738127310633
 10
837.2074080579878
 20
440.3663712065645
 10
831.6435925375207
 20
364.3907676843883
 10
961.3600830988126
 20
200.5765824089012
 10
1088.418528915645
 20
361.0341725803865
  0
HATCH
  5
82
330
70
100
AcDbEntity
  8
badge-all
 62
   251
420
  5658457
440
 33554687
100
AcDbHatch
 10
0.0
 20
0.0
 30
0.0
210
0.0
220
0.0
230
1.0
  2
SOLID
 70
     1
 71
     1
 91
        1
 92
        1
 93
        6
 72
     1
 10
1082.98034467971
 20
437.1684150704258
 11
961.3600830988126
 21
283.5738127310633
 72
     1
 10
961.3600830988126
 20
283.5738127310633
 11
837.2074080579878
 21
440.3663712065645
 72
     1
 10
837.2074080579878
 20
440.3663712065645
 11
831.6435925375207
 21
364.3907676843883
 72
     1
 10
831.6435925375207
 20
364.3907676843883
 11
961.3600830988126
 21
200.5765824089012
 72
     1
 10
961.3600830988126
 20
200.5765824089012
 11
1088.418528915645
 21
361.0341725803865
 72
     1
 10
1088.418528915645
 20
361.0341725803865
 11
1082.98034467971
 21
437.1684150704258
 97
        1
330
81
 75
     2
 76
     1
 98
        1
 10
0.0
 20
0.0
450
        0
451
        0
460
0.0
461
0.0
452
        0
462
0.0
453
        0
470

  0
LWPOLYLINE
  5
83
330
70
100
AcDbEntity
  8
badge-all
 62
    18
420
        0
370
     0
100
AcDbPolyline
 90
        6
 70
     1
 43
0.0
 10
1092.431741148848
 20
304.8498749417631
 10
961.3600830988126
 20
139.3191217263211
 10
827.5376724998523
 20
308.3237652061925
 10
821.9737727761112
 20
232.3477406676484
 10
961.3600830988126
 20
56.32189140415357
 10
1097.869925384786
 20
228.7152114353558
  0
LWPOLYLINE
  5
84
330
70
100
AcDbEntity
  8
badge-all
100
AcDbPolyline
 90
        6
 70
     1
 43
0.0
 10
1092.43174114885
 20
304.8498749417631
 10
961.3600830988126
 20
139.3191217263211
 10
827.537672499854
 20
308.3237652061907
 10
821.9737727761103
 20
232.3477406676502
 10
961.3600830988126
 20
56.32189140415175
 10
1097.869925384784
 20
228.7152114353539
  0
HATCH
  5
85
330
70
100
AcDbEntity
  8
badge-all
 62
   251
420
  5658457
440
 33554687
100
AcDbHatch
 10
0.0
 20
0.0
 30
0.0
210
0.0
220
0.0
230
1.0
  2
SOLID
 70
     1
 71
     1
 91
        1
 92
        1
 93
        6
 72
     1
 10
1092.43174114885
 20
304.8498749417631
 11
961.3600830988126
 21
139.3191217263211
 72
     1
 10
961.3600830988126
 20
139.3191217263211
 11
827.537672499854
 21
308.3237652061907
 72
     1
 10
827.537672499854
 20
308.3237652061907
 11
821.9737727761103
 21
232.3477406676502
 72
     1
 10
821.9737727761103
 20
232.3477406676502
 11
961.3600830988126
 21
56.32189140415175
 72
     1
 10
961.3600830988126
 20
56.32189140415175
 11
1097.869925384784
 21
228.7152114353539
 72
     1
 10
1097.869925384784
 20
228.7152114353539
 11
1092.43174114885
 21
304.8498749417631
 97
        1
330
84
 75
     2
 76
     1
 98
        1
 10
0.0
 20
0.0
450
        0
451
        0
460
0.0
461
0.0
452
        0
462
0.0
453
        0
470

  0
LWPOLYLINE
  5
86
330
70
100
AcDbEntity
  8
badge-all
 62
    18
420
        0
370
     0
100
AcDbPolyline
 90
        3
 70
     1
 43
0.0
 10
1003.651852848825
 20
542.428433106872
 10
987.6385903184127
 20
554.5845125972018
 10
992.6314061965731
 20
564.9597549474983
  0
LWPOLYLINE
  5
87
330
70
100
AcDbEntity
  8
badge-all
 62
    18
420
        0
370
     0
100
AcDbPolyline
 90
        4
 70
     1
 43
0.0
 10
983.4412516627853
 20
557.7705427355331
 10
963.6394935623375
 20
572.8024139578237
 10
981.9838561872529
 20
586.7278826765122
 10
989.7424875258911
 20
570.8656562607884
  0
LWPOLYLINE
  5
88
330
70
100
AcDbEntity
  8
badge-all
 62
    18
420
        0
370
     0
100
AcDbPolyline
 90
        4
 70
     1
 43
0.0
 10
959.36919354964
 20
507.7470610093987
 10
937.5821386066581
 20
553.0221779313223
 10
959.36919354964
 20
569.5608996075788
 10
981.1561721732124
 20
553.0221779313223
  0
LWPOLYLINE
  5
89
330
70
100
AcDbEntity
  8
badge-all
 62
    18
420
        0
370
     0
100
AcDbPolyline
 90
        4
 70
     1
 43
0.0
 10
928.9958232539794
 20
570.8656562607884
 10
936.7544545926175
 20
586.7278826765122
 10
955.0988172175321
 20
572.8024139578237
 10
935.2970591170842
 20
557.7705427355331
  0
LWPOLYLINE
  5
8A
330
70
100
AcDbEntity
  8
badge-all
 62
    18
420
        0
370
     0
100
AcDbPolyline
 90
        3
 70
     1
 43
0.0
 10
915.0865342504557
 20
542.428433106872
 10
926.1069045832973
 20
564.9597549474983
 10
931.099720461456
 20
554.5845125972018
  0
LWPOLYLINE
  5
8B
330
70
100
AcDbEntity
  8
badge-all
 62
    18
420
        0
370
     0
100
AcDbPolyline
 90
        3
 70
     1
 43
0.0
 10
912.5041906544092
 20
605.1364299262149
 10
932.5624582957699
 20
589.909944205463
 10
926.1449116500553
 20
576.7897215939355
  0
SPLINE
  5
8C
330
70
100
AcDbEntity
  8
badge-all
 62
    18
420
        0
370
     0
100
AcDbSpline
210
0.0
220
0.0
230
1.0
 70
     9
 71
     3
 72
    23
 73
    19
 74
     0
 42
0.0000000001
 43
0.0000000001
 40
0.0
 40
0.0
 40
0.0
 40
0.0
 40
1.0
 40
1.0
 40
1.0
 40
2.0
 40
2.0
 40
2.0
 40
3.0
 40
3.0
 40
3.0
 40
4.0
 40
4.0
 40
4.0
 40
5.0
 40
5.0
 40
5.0
 40
6.0
 40
6.0
 40
6.0
 40
6.0
 10
946.4160341291444
 20
606.4811016314624
 30
0.0
 10
950.5427773294478
 20
605.0358409423043
 30
0.0
 10
954.9171770189687
 20
604.2717309977597
 30
0.0
 10
959.3694225078744
 20
604.2717309977597
 30
0.0
 10
963.8215153579567
 20
604.2717309977597
 30
0.0
 10
968.1956860892441
 20
605.0358409423043
 30
0.0
 10
972.3222766507243
 20
606.4809489926402
 30
0.0
 10
972.3222766507243
 20
606.4809489926402
 30
0.0
 10
979.6715306678944
 20
591.455793878531
 30
0.0
 10
979.6715306678944
 20
591.455793878531
 30
0.0
 10
979.6715306678944
 20
591.455793878531
 30
0.0
 10
959.36919354964
 20
576.0440046274807
 30
0.0
 10
959.36919354964
 20
576.0440046274807
 30
0.0
 10
959.36919354964
 20
576.0440046274807
 30
0.0
 10
939.0667801119752
 20
591.455793878531
 30
0.0
 10
939.0667801119752
 20
591.455793878531
 30
0.0
 10
939.0667801119752
 20
591.455793878531
 30
0.0
 10
946.4160341291444
 20
606.4811016314624
 30
0.0
 10
946.4160341291444
 20
606.4811016314624
 30
0.0
  0
SPLINE
  5
8D
330
70
100
AcDbEntity
  8
badge-all
 62
    18
420
        0
370
     0
100
AcDbSpline
210
0.0
220
0.0
230
1.0
 70
     9
 71
     3
 72
    29
 73
    25
 74
     0
 42
0.0000000001
 43
0.0000000001
 40
0.0
 40
0.0
 40
0.0
 40
0.0
 40
1.0
 40
1.0
 40
1.0
 40
2.0
 40
2.0
 40
2.0
 40
3.0
 40
3.0
 40
3.0
 40
4.0
 40
4.0
 40
4.0
 40
5.0
 40
5.0
 40
5.0
 40
6.0
 40
6.0
 40
6.0
 40
7.0
 40
7.0
 40
7.0
 40
8.0
 40
8.0
 40
8.0
 40
8.0
 10
938.5436105484659
 20
620.2192061957503
 30
0.0
 10
942.6984392920758
 20
623.9093260448007
 30
0.0
 10
947.7401759127905
 20
626.4188609226002
 30
0.0
 10
953.1321423113213
 20
627.5223632885781
 30
0.0
 10
951.6714651011097
 20
625.9816270160581
 30
0.0
 10
950.7737198676222
 20
623.901999381329
 30
0.0
 10
950.7737198676222
 20
621.61134857474
 30
0.0
 10
950.7737198676222
 20
616.8642048811079
 30
0.0
 10
954.6221261754199
 20
613.0157985733094
 30
0.0
 10
959.3692698690519
 20
613.0157985733094
 30
0.0
 10
964.1164898820933
 20
613.0157985733094
 30
0.0
 10
967.9648198704818
 20
616.8642048811079
 30
0.0
 10
967.9648198704818
 20
621.61134857474
 30
0.0
 10
967.9648198704818
 20
623.901999381329
 30
0.0
 10
967.0671509564053
 20
625.9816270160581
 30
0.0
 10
965.606473746193
 20
627.5223632885781
 30
0.0
 10
970.9981348670808
 20
626.4188609226002
 30
0.0
 10
976.0397951683826
 20
623.9093260448007
 30
0.0
 10
980.1947002314046
 20
620.2192061957503
 30
0.0
 10
974.4686074508081
 20
615.1348833436086
 30
0.0
 10
967.0617322782128
 20
612.2773319509151
 30
0.0
 10
959.3694225078744
 20
612.2773319509151
 30
0.0
 10
951.6771890569462
 20
612.2773319509151
 30
0.0
 10
944.2703138843498
 20
615.1348833436086
 30
0.0
 10
938.5436105484659
 20
620.2192061957503
 30
0.0
  0
LWPOLYLINE
  5
8E
330
70
100
AcDbEntity
  8
badge-all
 62
    18
420
        0
370
     0
100
AcDbPolyline
 90
        3
 70
     1
 43
0.0
 10
1006.23412012546
 20
605.1364299262149
 10
992.5933991298151
 20
576.7897215939355
 10
986.1758524840988
 20
589.909944205463
  0
SPLINE
  5
8F
330
70
100
AcDbEntity
  8
badge-all
 62
    18
420
        0
370
     0
100
AcDbSpline
210
0.0
220
0.0
230
1.0
 70
    11
 71
     3
 72
    65
 73
    61
 74
     0
 42
0.0000000001
 43
0.0000000001
 40
0.0
 40
0.0
 40
0.0
 40
0.0
 40
1.0
 40
1.0
 40
1.0
 40
2.0
 40
2.0
 40
2.0
 40
3.0
 40
3.0
 40
3.0
 40
4.0
 40
4.0
 40
4.0
 40
5.0
 40
5.0
 40
5.0
 40
6.0
 40
6.0
 40
6.0
 40
7.0
 40
7.0
 40
7.0
 40
8.0
 40
8.0
 40
8.0
 40
9.0
 40
9.0
 40
9.0
 40
10.0
 40
10.0
 40
10.0
 40
11.0
 40
11.0
 40
11.0
 40
12.0
 40
12.0
 40
12.0
 40
13.0
 40
13.0
 40
13.0
 40
14.0
 40
14.0
 40
14.0
 40
15.0
 40
15.0
 40
15.0
 40
16.0
 40
16.0
 40
16.0
 40
17.0
 40
17.0
 40
17.0
 40
18.0
 40
18.0
 40
18.0
 40
19.0
 40
19.0
 40
19.0
 40
20.0
 40
20.0
 40
20.0
 40
20.0
 10
1020.17874501635
 20
622.2049609547512
 30
0.0
 10
1020.17874501635
 20
622.2049609547512
 30
0.0
 10
983.8635269647403
 20
594.6378554074827
 30
0.0
 10
983.8635269647403
 20
594.6378554074827
 30
0.0
 10
983.8635269647403
 20
594.6378554074827
 30
0.0
 10
977.0801050619192
 20
608.5062372066222
 30
0.0
 10
977.0801050619192
 20
608.5062372066222
 30
0.0
 10
981.483582447092
 20
610.7315585972574
 30
0.0
 10
985.4858486877928
 20
613.7856324736913
 30
0.0
 10
988.8381025036323
 20
617.5623748544094
 30
0.0
 10
988.8381025036323
 20
617.5623748544094
 30
0.0
 10
991.1965249473324
 20
620.2192061957503
 30
0.0
 10
991.1965249473324
 20
620.2192061957503
 30
0.0
 10
991.1965249473324
 20
620.2192061957503
 30
0.0
 10
988.8381025036323
 20
622.8759612176791
 30
0.0
 10
988.8381025036323
 20
622.8759612176791
 30
0.0
 10
981.3419336199768
 20
631.3232989226344
 30
0.0
 10
970.6006633737525
 20
636.1679025043194
 30
0.0
 10
959.3694225078744
 20
636.1679025043194
 30
0.0
 10
948.137571086705
 20
636.1679025043194
 30
0.0
 10
937.3963008404807
 20
631.3232989226344
 30
0.0
 10
929.900131956826
 20
622.8759612176791
 30
0.0
 10
929.900131956826
 20
622.8759612176791
 30
0.0
 10
927.5417095131251
 20
620.2192061957503
 30
0.0
 10
927.5417095131251
 20
620.2192061957503
 30
0.0
 10
927.5417095131251
 20
620.2192061957503
 30
0.0
 10
929.900131956826
 20
617.5623748544094
 30
0.0
 10
929.900131956826
 20
617.5623748544094
 30
0.0
 10
933.2524620920777
 20
613.7856324736913
 30
0.0
 10
937.2547283327767
 20
610.7315585972574
 30
0.0
 10
941.6582057179503
 20
608.5062372066222
 30
0.0
 10
941.6582057179503
 20
608.5062372066222
 30
0.0
 10
934.8747838151293
 20
594.6378554074827
 30
0.0
 10
934.8747838151293
 20
594.6378554074827
 30
0.0
 10
934.8747838151293
 20
594.6378554074827
 30
0.0
 10
898.5595657635194
 20
622.2049609547512
 30
0.0
 10
898.5595657635194
 20
622.2049609547512
 30
0.0
 10
898.5595657635194
 20
622.2049609547512
 30
0.0
 10
923.2562982570199
 20
570.8838202806455
 30
0.0
 10
923.2562982570199
 20
570.8838202806455
 30
0.0
 10
923.2562982570199
 20
570.8838202806455
 30
0.0
 10
900.8991373126628
 20
525.1756670197937
 30
0.0
 10
900.8991373126628
 20
525.1756670197937
 30
0.0
 10
900.8991373126628
 20
525.1756670197937
 30
0.0
 10
933.3847999510316
 20
549.8357661959362
 30
0.0
 10
933.3847999510316
 20
549.8357661959362
 30
0.0
 10
933.3847999510316
 20
549.8357661959362
 30
0.0
 10
959.36919354964
 20
495.838485369466
 30
0.0
 10
959.36919354964
 20
495.838485369466
 30
0.0
 10
959.36919354964
 20
495.838485369466
 30
0.0
 10
985.3535108288379
 20
549.8357661959362
 30
0.0
 10
985.3535108288379
 20
549.8357661959362
 30
0.0
 10
985.3535108288379
 20
549.8357661959362
 30
0.0
 10
1017.839173467206
 20
525.1756670197937
 30
0.0
 10
1017.839173467206
 20
525.1756670197937
 30
0.0
 10
1017.839173467206
 20
525.1756670197937
 30
0.0
 10
995.4820125228506
 20
570.8838202806455
 30
0.0
 10
995.4820125228506
 20
570.8838202806455
 30
0.0
 10
995.4820125228506
 20
570.8838202806455
 30
0.0
 10
1020.17874501635
 20
622.2049609547512
 30
0.0
 10
1020.17874501635
 20
622.2049609547512
 30
0.0
  0
SPLINE
  5
90
330
70
100
AcDbEntity
  8
badge-all
100
AcDbSpline
210
0.0
220
0.0
230
1.0
 70
    11
 71
     3
 72
    65
 73
    61
 74
     0
 42
0.0000000001
 43
0.0000000001
 40
0.0
 40
0.0
 40
0.0
 40
0.0
 40
1.0
 40
1.0
 40
1.0
 40
2.0
 40
2.0
 40
2.0
 40
3.0
 40
3.0
 40
3.0
 40
4.0
 40
4.0
 40
4.0
 40
5.0
 40
5.0
 40
5.0
 40
6.0
 40
6.0
 40
6.0
 40
7.0
 40
7.0
 40
7.0
 40
8.0
 40
8.0
 40
8.0
 40
9.0
 40
9.0
 40
9.0
 40
10.0
 40
10.0
 40
10.0
 40
11.0
 40
11.0
 40
11.0
 40
12.0
 40
12.0
 40
12.0
 40
13.0
 40
13.0
 40
13.0
 40
14.0
 40
14.0
 40
14.0
 40
15.0
 40
15.0
 40
15.0
 40
16.0
 40
16.0
 40
16.0
 40
17.0
 40
17.0
 40
17.0
 40
18.0
 40
18.0
 40
18.0
 40
19.0
 40
19.0
 40
19.0
 40
20.0
 40
20.0
 40
20.0
 40
20.0
 10
1020.17874501635
 20
622.2049609547503
 30
0.0
 10
1020.17874501635
 20
622.2049609547503
 30
0.0
 10
983.8635269647403
 20
594.6378554074844
 30
0.0
 10
983.8635269647403
 20
594.6378554074844
 30
0.0
 10
983.8635269647403
 20
594.6378554074844
 30
0.0
 10
977.0801050619192
 20
608.506237206624
 30
0.0
 10
977.0801050619192
 20
608.506237206624
 30
0.0
 10
981.4835824470938
 20
610.7315585972546
 30
0.0
 10
985.4858486877928
 20
613.7856324736949
 30
0.0
 10
988.8381025036341
 20
617.5623748544121
 30
0.0
 10
988.8381025036341
 20
617.5623748544121
 30
0.0
 10
991.1965249473324
 20
620.2192061957475
 30
0.0
 10
991.1965249473324
 20
620.2192061957475
 30
0.0
 10
991.1965249473324
 20
620.2192061957475
 30
0.0
 10
988.8381025036341
 20
622.8759612176773
 30
0.0
 10
988.8381025036341
 20
622.8759612176773
 30
0.0
 10
981.3419336199785
 20
631.3232989226317
 30
0.0
 10
970.6006633737525
 20
636.1679025043168
 30
0.0
 10
959.3694225078744
 20
636.1679025043168
 30
0.0
 10
948.1375710867068
 20
636.1679025043168
 30
0.0
 10
937.3963008404807
 20
631.3232989226317
 30
0.0
 10
929.900131956826
 20
622.8759612176773
 30
0.0
 10
929.900131956826
 20
622.8759612176773
 30
0.0
 10
927.541709513126
 20
620.2192061957475
 30
0.0
 10
927.541709513126
 20
620.2192061957475
 30
0.0
 10
927.541709513126
 20
620.2192061957475
 30
0.0
 10
929.900131956826
 20
617.5623748544121
 30
0.0
 10
929.900131956826
 20
617.5623748544121
 30
0.0
 10
933.2524620920786
 20
613.7856324736949
 30
0.0
 10
937.2547283327776
 20
610.7315585972546
 30
0.0
 10
941.6582057179512
 20
608.506237206624
 30
0.0
 10
941.6582057179512
 20
608.506237206624
 30
0.0
 10
934.8747838151284
 20
594.6378554074844
 30
0.0
 10
934.8747838151284
 20
594.6378554074844
 30
0.0
 10
934.8747838151284
 20
594.6378554074844
 30
0.0
 10
898.5595657635203
 20
622.2049609547503
 30
0.0
 10
898.5595657635203
 20
622.2049609547503
 30
0.0
 10
898.5595657635203
 20
622.2049609547503
 30
0.0
 10
923.2562982570208
 20
570.8838202806464
 30
0.0
 10
923.2562982570208
 20
570.8838202806464
 30
0.0
 10
923.2562982570208
 20
570.8838202806464
 30
0.0
 10
900.899137312661
 20
525.1756670197919
 30
0.0
 10
900.899137312661
 20
525.1756670197919
 30
0.0
 10
900.899137312661
 20
525.1756670197919
 30
0.0
 10
933.3847999510336
 20
549.8357661959344
 30
0.0
 10
933.3847999510336
 20
549.8357661959344
 30
0.0
 10
933.3847999510336
 20
549.8357661959344
 30
0.0
 10
959.36919354964
 20
495.8384853694642
 30
0.0
 10
959.36919354964
 20
495.8384853694642
 30
0.0
 10
959.36919354964
 20
495.8384853694642
 30
0.0
 10
985.3535108288379
 20
549.8357661959344
 30
0.0
 10
985.3535108288379
 20
549.8357661959344
 30
0.0
 10
985.3535108288379
 20
549.8357661959344
 30
0.0
 10
1017.839173467206
 20
525.1756670197919
 30
0.0
 10
1017.839173467206
 20
525.1756670197919
 30
0.0
 10
1017.839173467206
 20
525.1756670197919
 30
0.0
 10
995.4820125228506
 20
570.8838202806464
 30
0.0
 10
995.4820125228506
 20
570.8838202806464
 30
0.0
 10
995.4820125228506
 20
570.8838202806464
 30
0.0
 10
1020.17874501635
 20
622.2049609547503
 30
0.0
 10
1020.17874501635
 20
622.2049609547503
 30
0.0
  0
SPLINE
  5
91
330
70
100
AcDbEntity
  8
badge-all
100
AcDbSpline
210
0.0
220
0.0
230
1.0
 70
    11
 71
     3
 72
    14
 73
    10
 74
     0
 42
0.0000000001
 43
0.0000000001
 40
0.0
 40
0.0
 40
0.0
 40
0.0
 40
1.0
 40
1.0
 40
1.0
 40
2.0
 40
2.0
 40
2.0
 40
3.0
 40
3.0
 40
3.0
 40
3.0
 10
1006.234120125458
 20
605.1364299262168
 30
0.0
 10
1006.234120125458
 20
605.1364299262168
 30
0.0
 10
992.5933991298151
 20
576.789721593932
 30
0.0
 10
992.5933991298151
 20
576.789721593932
 30
0.0
 10
992.5933991298151
 20
576.789721593932
 30
0.0
 10
986.1758524841006
 20
589.9099442054612
 30
0.0
 10
986.1758524841006
 20
589.9099442054612
 30
0.0
 10
986.1758524841006
 20
589.9099442054612
 30
0.0
 10
1006.234120125458
 20
605.1364299262168
 30
0.0
 10
1006.234120125458
 20
605.1364299262168
 30
0.0
  0
SPLINE
  5
92
330
70
100
AcDbEntity
  8
badge-all
100
AcDbSpline
210
0.0
220
0.0
230
1.0
 70
     9
 71
     3
 72
    29
 73
    25
 74
     0
 42
0.0000000001
 43
0.0000000001
 40
0.0
 40
0.0
 40
0.0
 40
0.0
 40
1.0
 40
1.0
 40
1.0
 40
2.0
 40
2.0
 40
2.0
 40
3.0
 40
3.0
 40
3.0
 40
4.0
 40
4.0
 40
4.0
 40
5.0
 40
5.0
 40
5.0
 40
6.0
 40
6.0
 40
6.0
 40
7.0
 40
7.0
 40
7.0
 40
8.0
 40
8.0
 40
8.0
 40
8.0
 10
938.5436105484659
 20
620.2192061957475
 30
0.0
 10
942.6984392920749
 20
623.909326044798
 30
0.0
 10
947.7401759127914
 20
626.4188609226021
 30
0.0
 10
953.1321423113205
 20
627.5223632885763
 30
0.0
 10
951.6714651011097
 20
625.9816270160563
 30
0.0
 10
950.7737198676213
 20
623.901999381329
 30
0.0
 10
950.7737198676213
 20
621.611348574741
 30
0.0
 10
950.7737198676213
 20
616.8642048811062
 30
0.0
 10
954.622126175419
 20
613.0157985733112
 30
0.0
 10
959.369269869051
 20
613.0157985733112
 30
0.0
 10
964.1164898820953
 20
613.0157985733112
 30
0.0
 10
967.9648198704798
 20
616.8642048811062
 30
0.0
 10
967.9648198704798
 20
621.611348574741
 30
0.0
 10
967.9648198704798
 20
623.901999381329
 30
0.0
 10
967.0671509564071
 20
625.9816270160563
 30
0.0
 10
965.606473746193
 20
627.5223632885763
 30
0.0
 10
970.998134867079
 20
626.4188609226021
 30
0.0
 10
976.0397951683808
 20
623.909326044798
 30
0.0
 10
980.1947002314046
 20
620.2192061957475
 30
0.0
 10
974.4686074508081
 20
615.1348833436059
 30
0.0
 10
967.0617322782128
 20
612.2773319509124
 30
0.0
 10
959.3694225078744
 20
612.2773319509124
 30
0.0
 10
951.677189056947
 20
612.2773319509124
 30
0.0
 10
944.2703138843508
 20
615.1348833436059
 30
0.0
 10
938.5436105484659
 20
620.2192061957475
 30
0.0
  0
SPLINE
  5
93
330
70
100
AcDbEntity
  8
badge-all
100
AcDbSpline
210
0.0
220
0.0
230
1.0
 70
     9
 71
     3
 72
    23
 73
    19
 74
     0
 42
0.0000000001
 43
0.0000000001
 40
0.0
 40
0.0
 40
0.0
 40
0.0
 40
1.0
 40
1.0
 40
1.0
 40
2.0
 40
2.0
 40
2.0
 40
3.0
 40
3.0
 40
3.0
 40
4.0
 40
4.0
 40
4.0
 40
5.0
 40
5.0
 40
5.0
 40
6.0
 40
6.0
 40
6.0
 40
6.0
 10
946.4160341291435
 20
606.4811016314588
 30
0.0
 10
950.5427773294487
 20
605.0358409423033
 30
0.0
 10
954.9171770189696
 20
604.2717309977606
 30
0.0
 10
959.3694225078744
 20
604.2717309977606
 30
0.0
 10
963.8215153579549
 20
604.2717309977606
 30
0.0
 10
968.195686089246
 20
605.0358409423033
 30
0.0
 10
972.3222766507243
 20
606.4809489926428
 30
0.0
 10
972.3222766507243
 20
606.4809489926428
 30
0.0
 10
979.6715306678962
 20
591.455793878531
 30
0.0
 10
979.6715306678962
 20
591.455793878531
 30
0.0
 10
979.6715306678962
 20
591.455793878531
 30
0.0
 10
959.36919354964
 20
576.0440046274825
 30
0.0
 10
959.36919354964
 20
576.0440046274825
 30
0.0
 10
959.36919354964
 20
576.0440046274825
 30
0.0
 10
939.0667801119752
 20
591.455793878531
 30
0.0
 10
939.0667801119752
 20
591.455793878531
 30
0.0
 10
939.0667801119752
 20
591.455793878531
 30
0.0
 10
946.4160341291435
 20
606.4811016314588
 30
0.0
 10
946.4160341291435
 20
606.4811016314588
 30
0.0
  0
SPLINE
  5
94
330
70
100
AcDbEntity
  8
badge-all
100
AcDbSpline
210
0.0
220
0.0
230
1.0
 70
    11
 71
     3
 72
    14
 73
    10
 74
     0
 42
0.0000000001
 43
0.0000000001
 40
0.0
 40
0.0
 40
0.0
 40
0.0
 40
1.0
 40
1.0
 40
1.0
 40
2.0
 40
2.0
 40
2.0
 40
3.0
 40
3.0
 40
3.0
 40
3.0
 10
912.5041906544083
 20
605.1364299262168
 30
0.0
 10
912.5041906544083
 20
605.1364299262168
 30
0.0
 10
932.5624582957708
 20
589.9099442054612
 30
0.0
 10
932.5624582957708
 20
589.9099442054612
 30
0.0
 10
932.5624582957708
 20
589.9099442054612
 30
0.0
 10
926.1449116500553
 20
576.789721593932
 30
0.0
 10
926.1449116500553
 20
576.789721593932
 30
0.0
 10
926.1449116500553
 20
576.789721593932
 30
0.0
 10
912.5041906544083
 20
605.1364299262168
 30
0.0
 10
912.5041906544083
 20
605.1364299262168
 30
0.0
  0
SPLINE
  5
95
330
70
100
AcDbEntity
  8
badge-all
100
AcDbSpline
210
0.0
220
0.0
230
1.0
 70
    11
 71
     3
 72
    14
 73
    10
 74
     0
 42
0.0000000001
 43
0.0000000001
 40
0.0
 40
0.0
 40
0.0
 40
0.0
 40
1.0
 40
1.0
 40
1.0
 40
2.0
 40
2.0
 40
2.0
 40
3.0
 40
3.0
 40
3.0
 40
3.0
 10
915.0865342504548
 20
542.428433106872
 30
0.0
 10
915.0865342504548
 20
542.428433106872
 30
0.0
 10
926.1069045832964
 20
564.9597549474956
 30
0.0
 10
926.1069045832964
 20
564.9597549474956
 30
0.0
 10
926.1069045832964
 20
564.9597549474956
 30
0.0
 10
931.0997204614569
 20
554.5845125972037
 30
0.0
 10
931.0997204614569
 20
554.5845125972037
 30
0.0
 10
931.0997204614569
 20
554.5845125972037
 30
0.0
 10
915.0865342504548
 20
542.428433106872
 30
0.0
 10
915.0865342504548
 20
542.428433106872
 30
0.0
  0
SPLINE
  5
96
330
70
100
AcDbEntity
  8
badge-all
100
AcDbSpline
210
0.0
220
0.0
230
1.0
 70
    11
 71
     3
 72
    17
 73
    13
 74
     0
 42
0.0000000001
 43
0.0000000001
 40
0.0
 40
0.0
 40
0.0
 40
0.0
 40
1.0
 40
1.0
 40
1.0
 40
2.0
 40
2.0
 40
2.0
 40
3.0
 40
3.0
 40
3.0
 40
4.0
 40
4.0
 40
4.0
 40
4.0
 10
928.9958232539802
 20
570.8656562607884
 30
0.0
 10
928.9958232539802
 20
570.8656562607884
 30
0.0
 10
936.7544545926175
 20
586.7278826765141
 30
0.0
 10
936.7544545926175
 20
586.7278826765141
 30
0.0
 10
936.7544545926175
 20
586.7278826765141
 30
0.0
 10
955.0988172175312
 20
572.8024139578228
 30
0.0
 10
955.0988172175312
 20
572.8024139578228
 30
0.0
 10
955.0988172175312
 20
572.8024139578228
 30
0.0
 10
935.2970591170842
 20
557.7705427355349
 30
0.0
 10
935.2970591170842
 20
557.7705427355349
 30
0.0
 10
935.2970591170842
 20
557.7705427355349
 30
0.0
 10
928.9958232539802
 20
570.8656562607884
 30
0.0
 10
928.9958232539802
 20
570.8656562607884
 30
0.0
  0
SPLINE
  5
97
330
70
100
AcDbEntity
  8
badge-all
100
AcDbSpline
210
0.0
220
0.0
230
1.0
 70
    11
 71
     3
 72
    17
 73
    13
 74
     0
 42
0.0000000001
 43
0.0000000001
 40
0.0
 40
0.0
 40
0.0
 40
0.0
 40
1.0
 40
1.0
 40
1.0
 40
2.0
 40
2.0
 40
2.0
 40
3.0
 40
3.0
 40
3.0
 40
4.0
 40
4.0
 40
4.0
 40
4.0
 10
959.36919354964
 20
507.7470610094024
 30
0.0
 10
959.36919354964
 20
507.7470610094024
 30
0.0
 10
937.5821386066572
 20
553.0221779313223
 30
0.0
 10
937.5821386066572
 20
553.0221779313223
 30
0.0
 10
937.5821386066572
 20
553.0221779313223
 30
0.0
 10
959.36919354964
 20
569.5608996075816
 30
0.0
 10
959.36919354964
 20
569.5608996075816
 30
0.0
 10
959.36919354964
 20
569.5608996075816
 30
0.0
 10
981.1561721732104
 20
553.0221779313223
 30
0.0
 10
981.1561721732104
 20
553.0221779313223
 30
0.0
 10
981.1561721732104
 20
553.0221779313223
 30
0.0
 10
959.36919354964
 20
507.7470610094024
 30
0.0
 10
959.36919354964
 20
507.7470610094024
 30
0.0
  0
SPLINE
  5
98
330
70
100
AcDbEntity
  8
badge-all
100
AcDbSpline
210
0.0
220
0.0
230
1.0
 70
    11
 71
     3
 72
    17
 73
    13
 74
     0
 42
0.0000000001
 43
0.0000000001
 40
0.0
 40
0.0
 40
0.0
 40
0.0
 40
1.0
 40
1.0
 40
1.0
 40
2.0
 40
2.0
 40
2.0
 40
3.0
 40
3.0
 40
3.0
 40
4.0
 40
4.0
 40
4.0
 40
4.0
 10
983.4412516627871
 20
557.7705427355349
 30
0.0
 10
983.4412516627871
 20
557.7705427355349
 30
0.0
 10
963.6394935623393
 20
572.8024139578228
 30
0.0
 10
963.6394935623393
 20
572.8024139578228
 30
0.0
 10
963.6394935623393
 20
572.8024139578228
 30
0.0
 10
981.9838561872529
 20
586.7278826765141
 30
0.0
 10
981.9838561872529
 20
586.7278826765141
 30
0.0
 10
981.9838561872529
 20
586.7278826765141
 30
0.0
 10
989.7424875258911
 20
570.8656562607884
 30
0.0
 10
989.7424875258911
 20
570.8656562607884
 30
0.0
 10
989.7424875258911
 20
570.8656562607884
 30
0.0
 10
983.4412516627871
 20
557.7705427355349
 30
0.0
 10
983.4412516627871
 20
557.7705427355349
 30
0.0
  0
SPLINE
  5
99
330
70
100
AcDbEntity
  8
badge-all
100
AcDbSpline
210
0.0
220
0.0
230
1.0
 70
    11
 71
     3
 72
    14
 73
    10
 74
     0
 42
0.0000000001
 43
0.0000000001
 40
0.0
 40
0.0
 40
0.0
 40
0.0
 40
1.0
 40
1.0
 40
1.0
 40
2.0
 40
2.0
 40
2.0
 40
3.0
 40
3.0
 40
3.0
 40
3.0
 10
1003.651852848823
 20
542.428433106872
 30
0.0
 10
1003.651852848823
 20
542.428433106872
 30
0.0
 10
987.6385903184145
 20
554.5845125972037
 30
0.0
 10
987.6385903184145
 20
554.5845125972037
 30
0.0
 10
987.6385903184145
 20
554.5845125972037
 30
0.0
 10
992.6314061965713
 20
564.9597549474956
 30
0.0
 10
992.6314061965713
 20
564.9597549474956
 30
0.0
 10
992.6314061965713
 20
564.9597549474956
 30
0.0
 10
1003.651852848823
 20
542.428433106872
 30
0.0
 10
1003.651852848823
 20
542.428433106872
 30
0.0
  0
HATCH
  5
9A
330
70
100
AcDbEntity
  8
badge-all
 62
   252
420
  9672088
440
 33554687
100
AcDbHatch
 10
0.0
 20
0.0
 30
0.0
210
0.0
220
0.0
230
1.0
  2
SOLID
 70
     1
 71
     1
 91
       10
 92
        1
 93
        1
 72
     4
 94
        3
 73
     0
 74
     0
 95
       65
 96
       61
 40
0.0
 40
0.0
 40
0.0
 40
0.0
 40
1.0
 40
1.0
 40
1.0
 40
2.0
 40
2.0
 40
2.0
 40
3.0
 40
3.0
 40
3.0
 40
4.0
 40
4.0
 40
4.0
 40
5.0
 40
5.0
 40
5.0
 40
6.0
 40
6.0
 40
6.0
 40
7.0
 40
7.0
 40
7.0
 40
8.0
 40
8.0
 40
8.0
 40
9.0
 40
9.0
 40
9.0
 40
10.0
 40
10.0
 40
10.0
 40
11.0
 40
11.0
 40
11.0
 40
12.0
 40
12.0
 40
12.0
 40
13.0
 40
13.0
 40
13.0
 40
14.0
 40
14.0
 40
14.0
 40
15.0
 40
15.0
 40
15.0
 40
16.0
 40
16.0
 40
16.0
 40
17.0
 40
17.0
 40
17.0
 40
18.0
 40
18.0
 40
18.0
 40
19.0
 40
19.0
 40
19.0
 40
20.0
 40
20.0
 40
20.0
 40
20.0
 10
1020.17874501635
 20
622.2049609547503
 10
1020.17874501635
 20
622.2049609547503
 10
983.8635269647403
 20
594.6378554074844
 10
983.8635269647403
 20
594.6378554074844
 10
983.8635269647403
 20
594.6378554074844
 10
977.0801050619192
 20
608.506237206624
 10
977.0801050619192
 20
608.506237206624
 10
981.4835824470938
 20
610.7315585972546
 10
985.4858486877928
 20
613.7856324736949
 10
988.8381025036341
 20
617.5623748544121
 10
988.8381025036341
 20
617.5623748544121
 10
991.1965249473324
 20
620.2192061957475
 10
991.1965249473324
 20
620.2192061957475
 10
991.1965249473324
 20
620.2192061957475
 10
988.8381025036341
 20
622.8759612176773
 10
988.8381025036341
 20
622.8759612176773
 10
981.3419336199785
 20
631.3232989226317
 10
970.6006633737525
 20
636.1679025043168
 10
959.3694225078744
 20
636.1679025043168
 10
948.1375710867068
 20
636.1679025043168
 10
937.3963008404807
 20
631.3232989226317
 10
929.900131956826
 20
622.8759612176773
 10
929.900131956826
 20
622.8759612176773
 10
927.541709513126
 20
620.2192061957475
 10
927.541709513126
 20
620.2192061957475
 10
927.541709513126
 20
620.2192061957475
 10
929.900131956826
 20
617.5623748544121
 10
929.900131956826
 20
617.5623748544121
 10
933.2524620920786
 20
613.7856324736949
 10
937.2547283327776
 20
610.7315585972546
 10
941.6582057179512
 20
608.506237206624
 10
941.6582057179512
 20
608.506237206624
 10
934.8747838151284
 20
594.6378554074844
 10
934.8747838151284
 20
594.6378554074844
 10
934.8747838151284
 20
594.6378554074844
 10
898.5595657635203
 20
622.2049609547503
 10
898.5595657635203
 20
622.2049609547503
 10
898.5595657635203
 20
622.2049609547503
 10
923.2562982570208
 20
570.8838202806464
 10
923.2562982570208
 20
570.8838202806464
 10
923.2562982570208
 20
570.8838202806464
 10
900.899137312661
 20
525.1756670197919
 10
900.899137312661
 20
525.1756670197919
 10
900.899137312661
 20
525.1756670197919
 10
933.3847999510336
 20
549.8357661959344
 10
933.3847999510336
 20
549.8357661959344
 10
933.3847999510336
 20
549.8357661959344
 10
959.36919354964
 20
495.8384853694642
 10
959.36919354964
 20
495.8384853694642
 10
959.36919354964
 20
495.8384853694642
 10
985.3535108288379
 20
549.8357661959344
 10
985.3535108288379
 20
549.8357661959344
 10
985.3535108288379
 20
549.8357661959344
 10
1017.839173467206
 20
525.1756670197919
 10
1017.839173467206
 20
525.1756670197919
 10
1017.839173467206
 20
525.1756670197919
 10
995.4820125228506
 20
570.8838202806464
 10
995.4820125228506
 20
570.8838202806464
 10
995.4820125228506
 20
570.8838202806464
 10
1020.17874501635
 20
622.2049609547503
 10
1020.17874501635
 20
622.2049609547503
 97
        0
 97
        1
330
90
 92
        1
 93
        2
 72
     4
 94
        3
 73
     0
 74
     0
 95
       14
 96
       10
 40
0.0
 40
0.0
 40
0.0
 40
0.0
 40
1.0
 40
1.0
 40
1.0
 40
2.0
 40
2.0
 40
2.0
 40
3.0
 40
3.0
 40
3.0
 40
3.0
 10
1006.234120125458
 20
605.1364299262168
 10
1006.234120125458
 20
605.1364299262168
 10
992.5933991298151
 20
576.789721593932
 10
992.5933991298151
 20
576.789721593932
 10
992.5933991298151
 20
576.789721593932
 10
986.1758524841006
 20
589.9099442054612
 10
986.1758524841006
 20
589.9099442054612
 10
986.1758524841006
 20
589.9099442054612
 10
1006.234120125458
 20
605.1364299262168
 10
1006.234120125458
 20
605.1364299262168
 97
        0
 72
     1
 10
1006.234120125458
 20
605.1364299262168
 11
1006.234120125458
 21
605.1364299262168
 97
        0
 92
        1
 93
        2
 72
     4
 94
        3
 73
     0
 74
     0
 95
       29
 96
       25
 40
0.0
 40
0.0
 40
0.0
 40
0.0
 40
1.0
 40
1.0
 40
1.0
 40
2.0
 40
2.0
 40
2.0
 40
3.0
 40
3.0
 40
3.0
 40
4.0
 40
4.0
 40
4.0
 40
5.0
 40
5.0
 40
5.0
 40
6.0
 40
6.0
 40
6.0
 40
7.0
 40
7.0
 40
7.0
 40
8.0
 40
8.0
 40
8.0
 40
8.0
 10
938.5436105484659
 20
620.2192061957475
 10
942.6984392920749
 20
623.909326044798
 10
947.7401759127914
 20
626.4188609226021
 10
953.1321423113205
 20
627.5223632885763
 10
951.6714651011097
 20
625.9816270160563
 10
950.7737198676213
 20
623.901999381329
 10
950.7737198676213
 20
621.611348574741
 10
950.7737198676213
 20
616.8642048811062
 10
954.622126175419
 20
613.0157985733112
 10
959.369269869051
 20
613.0157985733112
 10
964.1164898820953
 20
613.0157985733112
 10
967.9648198704798
 20
616.8642048811062
 10
967.9648198704798
 20
621.611348574741
 10
967.9648198704798
 20
623.901999381329
 10
967.0671509564071
 20
625.9816270160563
 10
965.606473746193
 20
627.5223632885763
 10
970.998134867079
 20
626.4188609226021
 10
976.0397951683808
 20
623.909326044798
 10
980.1947002314046
 20
620.2192061957475
 10
974.4686074508081
 20
615.1348833436059
 10
967.0617322782128
 20
612.2773319509124
 10
959.3694225078744
 20
612.2773319509124
 10
951.677189056947
 20
612.2773319509124
 10
944.2703138843508
 20
615.1348833436059
 10
938.5436105484659
 20
620.2192061957475
 97
        0
 72
     1
 10
938.5436105484659
 20
620.2192061957474
 11
938.5436105484659
 21
620.2192061957475
 97
        0
 92
        1
 93
        2
 72
     4
 94
        3
 73
     0
 74
     0
 95
       23
 96
       19
 40
0.0
 40
0.0
 40
0.0
 40
0.0
 40
1.0
 40
1.0
 40
1.0
 40
2.0
 40
2.0
 40
2.0
 40
3.0
 40
3.0
 40
3.0
 40
4.0
 40
4.0
 40
4.0
 40
5.0
 40
5.0
 40
5.0
 40
6.0
 40
6.0
 40
6.0
 40
6.0
 10
946.4160341291435
 20
606.4811016314588
 10
950.5427773294487
 20
605.0358409423033
 10
954.9171770189696
 20
604.2717309977606
 10
959.3694225078744
 20
604.2717309977606
 10
963.8215153579549
 20
604.2717309977606
 10
968.195686089246
 20
605.0358409423033
 10
972.3222766507243
 20
606.4809489926428
 10
972.3222766507243
 20
606.4809489926428
 10
979.6715306678962
 20
591.455793878531
 10
979.6715306678962
 20
591.455793878531
 10
979.6715306678962
 20
591.455793878531
 10
959.36919354964
 20
576.0440046274825
 10
959.36919354964
 20
576.0440046274825
 10
959.36919354964
 20
576.0440046274825
 10
939.0667801119752
 20
591.455793878531
 10
939.0667801119752
 20
591.455793878531
 10
939.0667801119752
 20
591.455793878531
 10
946.4160341291435
 20
606.4811016314588
 10
946.4160341291435
 20
606.4811016314588
 97
        0
 72
     1
 10
946.4160341291435
 20
606.4811016314588
 11
946.4160341291435
 21
606.4811016314588
 97
        0
 92
        1
 93
        2
 72
     4
 94
        3
 73
     0
 74
     0
 95
       14
 96
       10
 40
0.0
 40
0.0
 40
0.0
 40
0.0
 40
1.0
 40
1.0
 40
1.0
 40
2.0
 40
2.0
 40
2.0
 40
3.0
 40
3.0
 40
3.0
 40
3.0
 10
912.5041906544083
 20
605.1364299262168
 10
912.5041906544083
 20
605.1364299262168
 10
932.5624582957708
 20
589.9099442054612
 10
932.5624582957708
 20
589.9099442054612
 10
932.5624582957708
 20
589.9099442054612
 10
926.1449116500553
 20
576.789721593932
 10
926.1449116500553
 20
576.789721593932
 10
926.1449116500553
 20
576.789721593932
 10
912.5041906544083
 20
605.1364299262168
 10
912.5041906544083
 20
605.1364299262168
 97
        0
 72
     1
 10
912.5041906544083
 20
605.1364299262168
 11
912.5041906544083
 21
605.1364299262168
 97
        0
 92
        1
 93
        2
 72
     4
 94
        3
 73
     0
 74
     0
 95
       14
 96
       10
 40
0.0
 40
0.0
 40
0.0
 40
0.0
 40
1.0
 40
1.0
 40
1.0
 40
2.0
 40
2.0
 40
2.0
 40
3.0
 40
3.0
 40
3.0
 40
3.0
 10
915.0865342504548
 20
542.428433106872
 10
915.0865342504548
 20
542.428433106872
 10
926.1069045832964
 20
564.9597549474956
 10
926.1069045832964
 20
564.9597549474956
 10
926.1069045832964
 20
564.9597549474956
 10
931.0997204614569
 20
554.5845125972037
 10
931.0997204614569
 20
554.5845125972037
 10
931.0997204614569
 20
554.5845125972037
 10
915.0865342504548
 20
542.428433106872
 10
915.0865342504548
 20
542.428433106872
 97
        0
 72
     1
 10
915.0865342504548
 20
542.428433106872
 11
915.0865342504548
 21
542.428433106872
 97
        0
 92
        1
 93
        2
 72
     4
 94
        3
 73
     0
 74
     0
 95
       17
 96
       13
 40
0.0
 40
0.0
 40
0.0
 40
0.0
 40
1.0
 40
1.0
 40
1.0
 40
2.0
 40
2.0
 40
2.0
 40
3.0
 40
3.0
 40
3.0
 40
4.0
 40
4.0
 40
4.0
 40
4.0
 10
928.9958232539802
 20
570.8656562607884
 10
928.9958232539802
 20
570.8656562607884
 10
936.7544545926175
 20
586.7278826765141
 10
936.7544545926175
 20
586.7278826765141
 10
936.7544545926175
 20
586.7278826765141
 10
955.0988172175312
 20
572.8024139578228
 10
955.0988172175312
 20
572.8024139578228
 10
955.0988172175312
 20
572.8024139578228
 10
935.2970591170842
 20
557.7705427355349
 10
935.2970591170842
 20
557.7705427355349
 10
935.2970591170842
 20
557.7705427355349
 10
928.9958232539802
 20
570.8656562607884
 10
928.9958232539802
 20
570.8656562607884
 97
        0
 72
     1
 10
928.9958232539802
 20
570.8656562607884
 11
928.9958232539802
 21
570.8656562607884
 97
        0
 92
        1
 93
        2
 72
     4
 94
        3
 73
     0
 74
     0
 95
       17
 96
       13
 40
0.0
 40
0.0
 40
0.0
 40
0.0
 40
1.0
 40
1.0
 40
1.0
 40
2.0
 40
2.0
 40
2.0
 40
3.0
 40
3.0
 40
3.0
 40
4.0
 40
4.0
 40
4.0
 40
4.0
 10
959.36919354964
 20
507.7470610094024
 10
959.36919354964
 20
507.7470610094024
 10
937.5821386066572
 20
553.0221779313223
 10
937.5821386066572
 20
553.0221779313223
 10
937.5821386066572
 20
553.0221779313223
 10
959.36919354964
 20
569.5608996075816
 10
959.36919354964
 20
569.5608996075816
 10
959.36919354964
 20
569.5608996075816
 10
981.1561721732104
 20
553.0221779313223
 10
981.1561721732104
 20
553.0221779313223
 10
981.1561721732104
 20
553.0221779313223
 10
959.36919354964
 20
507.7470610094024
 10
959.36919354964
 20
507.7470610094024
 97
        0
 72
     1
 10
959.36919354964
 20
507.7470610094024
 11
959.36919354964
 21
507.7470610094024
 97
        0
 92
        1
 93
        2
 72
     4
 94
        3
 73
     0
 74
     0
 95
       17
 96
       13
 40
0.0
 40
0.0
 40
0.0
 40
0.0
 40
1.0
 40
1.0
 40
1.0
 40
2.0
 40
2.0
 40
2.0
 40
3.0
 40
3.0
 40
3.0
 40
4.0
 40
4.0
 40
4.0
 40
4.0
 10
983.4412516627871
 20
557.7705427355349
 10
983.4412516627871
 20
557.7705427355349
 10
963.6394935623393
 20
572.8024139578228
 10
963.6394935623393
 20
572.8024139578228
 10
963.6394935623393
 20
572.8024139578228
 10
981.9838561872529
 20
586.7278826765141
 10
981.9838561872529
 20
586.7278826765141
 10
981.9838561872529
 20
586.7278826765141
 10
989.7424875258911
 20
570.8656562607884
 10
989.7424875258911
 20
570.8656562607884
 10
989.7424875258911
 20
570.8656562607884
 10
983.4412516627871
 20
557.7705427355349
 10
983.4412516627871
 20
557.7705427355349
 97
        0
 72
     1
 10
983.4412516627871
 20
557.7705427355349
 11
983.4412516627871
 21
557.7705427355349
 97
        0
 92
        1
 93
        2
 72
     4
 94
        3
 73
     0
 74
     0
 95
       14
 96
       10
 40
0.0
 40
0.0
 40
0.0
 40
0.0
 40
1.0
 40
1.0
 40
1.0
 40
2.0
 40
2.0
 40
2.0
 40
3.0
 40
3.0
 40
3.0
 40
3.0
 10
1003.651852848823
 20
542.428433106872
 10
1003.651852848823
 20
542.428433106872
 10
987.6385903184145
 20
554.5845125972037
 10
987.6385903184145
 20
554.5845125972037
 10
987.6385903184145
 20
554.5845125972037
 10
992.6314061965713
 20
564.9597549474956
 10
992.6314061965713
 20
564.9597549474956
 10
992.6314061965713
 20
564.9597549474956
 10
1003.651852848823
 20
542.428433106872
 10
1003.651852848823
 20
542.428433106872
 97
        0
 72
     1
 10
1003.651852848823
 20
542.428433106872
 11
1003.651852848823
 21
542.428433106872
 97
        0
 75
     2
 76
     1
 98
        1
 10
0.0
 20
0.0
450
        0
451
        0
460
0.0
461
0.0
452
        0
462
0.0
453
        0
470

  0
SPLINE
  5
9B
330
70
100
AcDbEntity
  8
badge-all
 62
    18
420
        0
370
     0
100
AcDbSpline
210
0.0
220
0.0
230
1.0
 70
     9
 71
     3
 72
    35
 73
    31
 74
     0
 42
0.0000000001
 43
0.0000000001
 40
0.0
 40
0.0
 40
0.0
 40
0.0
 40
1.0
 40
1.0
 40
1.0
 40
2.0
 40
2.0
 40
2.0
 40
3.0
 40
3.0
 40
3.0
 40
4.0
 40
4.0
 40
4.0
 40
5.0
 40
5.0
 40
5.0
 40
6.0
 40
6.0
 40
6.0
 40
7.0
 40
7.0
 40
7.0
 40
8.0
 40
8.0
 40
8.0
 40
9.0
 40
9.0
 40
9.0
 40
10.0
 40
10.0
 40
10.0
 40
10.0
 10
958.9647006704863
 20
552.6137164427882
 30
0.0
 10
958.7814577642884
 20
552.3534672507294
 30
0.0
 10
958.5572313342973
 20
552.1437415088585
 30
0.0
 10
958.2923266581573
 20
551.9846918559988
 30
0.0
 10
958.0270403849608
 20
551.8256422031391
 30
0.0
 10
957.7285551679096
 20
551.7147500987221
 30
0.0
 10
957.3960314934812
 20
551.6521681815702
 30
0.0
 10
957.0632025414079
 20
551.5893573061839
 30
0.0
 10
956.7186204000154
 20
551.5627981510997
 30
0.0
 10
956.3622850693036
 20
551.5724907163176
 30
0.0
 10
956.3622850693036
 20
551.5724907163176
 30
0.0
 10
956.3622850693036
 20
550.0253436132598
 30
0.0
 10
956.3622850693036
 20
550.0253436132598
 30
0.0
 10
956.3622850693036
 20
550.0253436132598
 30
0.0
 10
958.9069268762377
 20
550.0253436132598
 30
0.0
 10
958.9069268762377
 20
550.0253436132598
 30
0.0
 10
958.9069268762377
 20
550.0253436132598
 30
0.0
 10
958.9069268762377
 20
543.4611873787043
 30
0.0
 10
958.9069268762377
 20
543.4611873787043
 30
0.0
 10
958.9069268762377
 20
543.4611873787043
 30
0.0
 10
960.9599953558827
 20
543.4611873787043
 30
0.0
 10
960.9599953558827
 20
543.4611873787043
 30
0.0
 10
960.9599953558827
 20
543.4611873787043
 30
0.0
 10
960.9599953558827
 20
553.5822860898342
 30
0.0
 10
960.9599953558827
 20
553.5822860898342
 30
0.0
 10
960.9599953558827
 20
553.5822860898342
 30
0.0
 10
959.3261494017452
 20
553.5822860898342
 30
0.0
 10
959.3261494017452
 20
553.5822860898342
 30
0.0
 10
959.2682992880854
 20
553.1966441052373
 30
0.0
 10
959.1476382990395
 20
552.873965634848
 30
0.0
 10
958.9647006704863
 20
552.6137164427882
 30
0.0
  0
SPLINE
  5
9C
330
70
100
AcDbEntity
  8
badge-all
100
AcDbSpline
210
0.0
220
0.0
230
1.0
 70
     9
 71
     3
 72
    35
 73
    31
 74
     0
 42
0.0000000001
 43
0.0000000001
 40
0.0
 40
0.0
 40
0.0
 40
0.0
 40
1.0
 40
1.0
 40
1.0
 40
2.0
 40
2.0
 40
2.0
 40
3.0
 40
3.0
 40
3.0
 40
4.0
 40
4.0
 40
4.0
 40
5.0
 40
5.0
 40
5.0
 40
6.0
 40
6.0
 40
6.0
 40
7.0
 40
7.0
 40
7.0
 40
8.0
 40
8.0
 40
8.0
 40
9.0
 40
9.0
 40
9.0
 40
10.0
 40
10.0
 40
10.0
 40
10.0
 10
958.9647006704872
 20
552.61371644279
 30
0.0
 10
958.7814577642875
 20
552.3534672507266
 30
0.0
 10
958.5572313342982
 20
552.1437415088603
 30
0.0
 10
958.2923266581573
 20
551.9846918560024
 30
0.0
 10
958.0270403849626
 20
551.8256422031372
 30
0.0
 10
957.7285551679088
 20
551.7147500987212
 30
0.0
 10
957.3960314934803
 20
551.6521681815693
 30
0.0
 10
957.0632025414079
 20
551.5893573061839
 30
0.0
 10
956.7186204000154
 20
551.5627981511033
 30
0.0
 10
956.3622850693054
 20
551.5724907163202
 30
0.0
 10
956.3622850693054
 20
551.5724907163202
 30
0.0
 10
956.3622850693054
 20
550.0253436132634
 30
0.0
 10
956.3622850693054
 20
550.0253436132634
 30
0.0
 10
956.3622850693054
 20
550.0253436132634
 30
0.0
 10
958.906926876236
 20
550.0253436132634
 30
0.0
 10
958.906926876236
 20
550.0253436132634
 30
0.0
 10
958.906926876236
 20
550.0253436132634
 30
0.0
 10
958.906926876236
 20
543.4611873787071
 30
0.0
 10
958.906926876236
 20
543.4611873787071
 30
0.0
 10
958.906926876236
 20
543.4611873787071
 30
0.0
 10
960.9599953558827
 20
543.4611873787071
 30
0.0
 10
960.9599953558827
 20
543.4611873787071
 30
0.0
 10
960.9599953558827
 20
543.4611873787071
 30
0.0
 10
960.9599953558827
 20
553.5822860898333
 30
0.0
 10
960.9599953558827
 20
553.5822860898333
 30
0.0
 10
960.9599953558827
 20
553.5822860898333
 30
0.0
 10
959.3261494017461
 20
553.5822860898333
 30
0.0
 10
959.3261494017461
 20
553.5822860898333
 30
0.0
 10
959.2682992880863
 20
553.196644105239
 30
0.0
 10
959.1476382990386
 20
552.873965634847
 30
0.0
 10
958.9647006704872
 20
552.61371644279
 30
0.0
  0
HATCH
  5
9D
330
70
100
AcDbEntity
  8
badge-all
 62
   252
420
  9672088
440
 33554687
100
AcDbHatch
 10
0.0
 20
0.0
 30
0.0
210
0.0
220
0.0
230
1.0
  2
SOLID
 70
     1
 71
     1
 91
        1
 92
        1
 93
        1
 72
     4
 94
        3
 73
     0
 74
     0
 95
       35
 96
       31
 40
0.0
 40
0.0
 40
0.0
 40
0.0
 40
1.0
 40
1.0
 40
1.0
 40
2.0
 40
2.0
 40
2.0
 40
3.0
 40
3.0
 40
3.0
 40
4.0
 40
4.0
 40
4.0
 40
5.0
 40
5.0
 40
5.0
 40
6.0
 40
6.0
 40
6.0
 40
7.0
 40
7.0
 40
7.0
 40
8.0
 40
8.0
 40
8.0
 40
9.0
 40
9.0
 40
9.0
 40
10.0
 40
10.0
 40
10.0
 40
10.0
 10
958.9647006704872
 20
552.61371644279
 10
958.7814577642875
 20
552.3534672507266
 10
958.5572313342982
 20
552.1437415088603
 10
958.2923266581573
 20
551.9846918560024
 10
958.0270403849626
 20
551.8256422031372
 10
957.7285551679088
 20
551.7147500987212
 10
957.3960314934803
 20
551.6521681815693
 10
957.0632025414079
 20
551.5893573061839
 10
956.7186204000154
 20
551.5627981511033
 10
956.3622850693054
 20
551.5724907163202
 10
956.3622850693054
 20
551.5724907163202
 10
956.3622850693054
 20
550.0253436132634
 10
956.3622850693054
 20
550.0253436132634
 10
956.3622850693054
 20
550.0253436132634
 10
958.906926876236
 20
550.0253436132634
 10
958.906926876236
 20
550.0253436132634
 10
958.906926876236
 20
550.0253436132634
 10
958.906926876236
 20
543.4611873787071
 10
958.906926876236
 20
543.4611873787071
 10
958.906926876236
 20
543.4611873787071
 10
960.9599953558827
 20
543.4611873787071
 10
960.9599953558827
 20
543.4611873787071
 10
960.9599953558827
 20
543.4611873787071
 10
960.9599953558827
 20
553.5822860898333
 10
960.9599953558827
 20
553.5822860898333
 10
960.9599953558827
 20
553.5822860898333
 10
959.3261494017461
 20
553.5822860898333
 10
959.3261494017461
 20
553.5822860898333
 10
959.2682992880863
 20
553.196644105239
 10
959.1476382990386
 20
552.873965634847
 10
958.9647006704872
 20
552.61371644279
 97
        0
 97
        1
330
9C
 75
     2
 76
     1
 98
        1
 10
0.0
 20
0.0
450
        0
451
        0
460
0.0
461
0.0
452
        0
462
0.0
453
        0
470

  0
SPLINE
  5
9E
330
70
100
AcDbEntity
  8
badge-all
 62
    18
420
        0
370
     0
100
AcDbSpline
210
0.0
220
0.0
230
1.0
 70
     9
 71
     3
 72
    41
 73
    37
 74
     0
 42
0.0000000001
 43
0.0000000001
 40
0.0
 40
0.0
 40
0.0
 40
0.0
 40
1.0
 40
1.0
 40
1.0
 40
2.0
 40
2.0
 40
2.0
 40
3.0
 40
3.0
 40
3.0
 40
4.0
 40
4.0
 40
4.0
 40
5.0
 40
5.0
 40
5.0
 40
6.0
 40
6.0
 40
6.0
 40
7.0
 40
7.0
 40
7.0
 40
8.0
 40
8.0
 40
8.0
 40
9.0
 40
9.0
 40
9.0
 40
10.0
 40
10.0
 40
10.0
 40
11.0
 40
11.0
 40
11.0
 40
12.0
 40
12.0
 40
12.0
 40
12.0
 10
961.0901199519121
 20
539.6521618870647
 30
0.0
 10
961.2491696047728
 20
539.7775546796019
 30
0.0
 10
961.4176065452047
 20
539.8810438011369
 30
0.0
 10
961.5961176479103
 20
539.9630871681347
 30
0.0
 10
961.7742471535603
 20
540.0448252574888
 30
0.0
 10
961.9598559615042
 20
540.0858087812821
 30
0.0
 10
962.1528677523311
 20
540.0858087812821
 30
0.0
 10
962.5092030830419
 20
540.0858087812821
 30
0.0
 10
962.7912796266937
 20
539.9654530698808
 30
0.0
 10
962.9987157862288
 20
539.7244363694353
 30
0.0
 10
963.2057703487079
 20
539.4833433495769
 30
0.0
 10
963.3093357896541
 20
539.194245420098
 30
0.0
 10
963.3093357896541
 20
538.8570662615893
 30
0.0
 10
963.3093357896541
 20
538.519505506023
 30
0.0
 10
963.213173331591
 20
538.2350630606252
 30
0.0
 10
963.0202378601753
 20
538.0038152448069
 30
0.0
 10
962.8272260693503
 20
537.7724911095774
 30
0.0
 10
962.5525525085814
 20
537.656790882258
 30
0.0
 10
962.1962171778704
 20
537.656790882258
 30
0.0
 10
961.9938180994704
 20
537.656790882258
 30
0.0
 10
961.8031722103896
 20
537.6904477425796
 30
0.0
 10
961.6250427047399
 20
537.7579904214581
 30
0.0
 10
961.4465316020341
 20
537.82522782269
 30
0.0
 10
961.2753471628002
 20
537.9146741725707
 30
0.0
 10
961.1116420258586
 20
538.0256425963998
 30
0.0
 10
960.9475552918629
 20
538.136229423173
 30
0.0
 10
960.7936190395504
 20
538.2616222157103
 30
0.0
 10
960.6490700748127
 20
538.4015156963687
 30
0.0
 10
960.5044447906621
 20
538.5410275799695
 30
0.0
 10
960.3693594329071
 20
538.6835922400186
 30
0.0
 10
960.2442719180144
 20
538.8281412047581
 30
0.0
 10
960.3598958259226
 20
538.9531524002395
 30
0.0
 10
960.490020421952
 20
539.0906799791537
 30
0.0
 10
960.6345693866915
 20
539.2399607473834
 30
0.0
 10
960.779118351431
 20
539.3895467932598
 30
0.0
 10
960.9311466184626
 20
539.5267690945274
 30
0.0
 10
961.0901199519121
 20
539.6521618870647
 30
0.0
  0
SPLINE
  5
9F
330
70
100
AcDbEntity
  8
badge-all
 62
    18
420
        0
370
     0
100
AcDbSpline
210
0.0
220
0.0
230
1.0
 70
     9
 71
     3
 72
    41
 73
    37
 74
     0
 42
0.0000000001
 43
0.0000000001
 40
0.0
 40
0.0
 40
0.0
 40
0.0
 40
1.0
 40
1.0
 40
1.0
 40
2.0
 40
2.0
 40
2.0
 40
3.0
 40
3.0
 40
3.0
 40
4.0
 40
4.0
 40
4.0
 40
5.0
 40
5.0
 40
5.0
 40
6.0
 40
6.0
 40
6.0
 40
7.0
 40
7.0
 40
7.0
 40
8.0
 40
8.0
 40
8.0
 40
9.0
 40
9.0
 40
9.0
 40
10.0
 40
10.0
 40
10.0
 40
11.0
 40
11.0
 40
11.0
 40
12.0
 40
12.0
 40
12.0
 40
12.0
 10
958.1188526365876
 20
538.4159400650769
 30
0.0
 10
957.9743036718491
 20
538.2761229038297
 30
0.0
 10
957.8199858224806
 20
538.1507301112924
 30
0.0
 10
957.655899088485
 20
538.040066965108
 30
0.0
 10
957.4918886738997
 20
537.9291748606919
 30
0.0
 10
957.3184146523308
 20
537.8376678867097
 30
0.0
 10
957.1354770237777
 20
537.765393404341
 30
0.0
 10
956.9522341175789
 20
537.6931189219703
 30
0.0
 10
956.7690675307931
 20
537.656790882258
 30
0.0
 10
956.5861299022399
 20
537.656790882258
 30
0.0
 10
956.2294892938835
 20
537.656790882258
 30
0.0
 10
955.9497023325667
 20
537.7674540284424
 30
0.0
 10
955.7473795735786
 20
537.9893145566875
 30
0.0
 10
955.5449804951795
 20
538.2111750849325
 30
0.0
 10
955.4437809559804
 20
538.4956175303286
 30
0.0
 10
955.4437809559804
 20
538.8425655734681
 30
0.0
 10
955.4437809559804
 20
539.1605885597764
 30
0.0
 10
955.5426145934333
 20
539.4473969069204
 30
0.0
 10
955.7402818683412
 20
539.702914295487
 30
0.0
 10
955.9376438656036
 20
539.9580500869997
 30
0.0
 10
956.2052197211341
 20
540.0858087812821
 30
0.0
 10
956.5427804767004
 20
540.0858087812821
 30
0.0
 10
956.7256417858425
 20
540.0858087812821
 30
0.0
 10
956.9088846920394
 20
540.0448252574888
 30
0.0
 10
957.0921275982373
 20
539.9630871681347
 30
0.0
 10
957.2749889073802
 20
539.8810438011369
 30
0.0
 10
957.4512104277509
 20
539.7775546796019
 30
0.0
 10
957.6199526458276
 20
539.6521618870647
 30
0.0
 10
957.7883895862605
 20
539.5267690945274
 30
0.0
 10
957.950110418511
 20
539.3895467932598
 30
0.0
 10
958.1044282678785
 20
539.2399607473834
 30
0.0
 10
958.2583645201903
 20
539.0906799791537
 30
0.0
 10
958.3935261973564
 20
538.9531524002395
 30
0.0
 10
958.5091501052657
 20
538.8281412047581
 30
0.0
 10
958.3935261973564
 20
538.6929795275919
 30
0.0
 10
958.2634016013271
 20
538.5554519486795
 30
0.0
 10
958.1188526365876
 20
538.4159400650769
 30
0.0
  0
SPLINE
  5
A0
330
70
100
AcDbEntity
  8
badge-all
 62
    18
420
        0
370
     0
100
AcDbSpline
210
0.0
220
0.0
230
1.0
 70
     9
 71
     3
 72
   101
 73
    97
 74
     0
 42
0.0000000001
 43
0.0000000001
 40
0.0
 40
0.0
 40
0.0
 40
0.0
 40
1.0
 40
1.0
 40
1.0
 40
2.0
 40
2.0
 40
2.0
 40
3.0
 40
3.0
 40
3.0
 40
4.0
 40
4.0
 40
4.0
 40
5.0
 40
5.0
 40
5.0
 40
6.0
 40
6.0
 40
6.0
 40
7.0
 40
7.0
 40
7.0
 40
8.0
 40
8.0
 40
8.0
 40
9.0
 40
9.0
 40
9.0
 40
10.0
 40
10.0
 40
10.0
 40
11.0
 40
11.0
 40
11.0
 40
12.0
 40
12.0
 40
12.0
 40
13.0
 40
13.0
 40
13.0
 40
14.0
 40
14.0
 40
14.0
 40
15.0
 40
15.0
 40
15.0
 40
16.0
 40
16.0
 40
16.0
 40
17.0
 40
17.0
 40
17.0
 40
18.0
 40
18.0
 40
18.0
 40
19.0
 40
19.0
 40
19.0
 40
20.0
 40
20.0
 40
20.0
 40
21.0
 40
21.0
 40
21.0
 40
22.0
 40
22.0
 40
22.0
 40
23.0
 40
23.0
 40
23.0
 40
24.0
 40
24.0
 40
24.0
 40
25.0
 40
25.0
 40
25.0
 40
26.0
 40
26.0
 40
26.0
 40
27.0
 40
27.0
 40
27.0
 40
28.0
 40
28.0
 40
28.0
 40
29.0
 40
29.0
 40
29.0
 40
30.0
 40
30.0
 40
30.0
 40
31.0
 40
31.0
 40
31.0
 40
32.0
 40
32.0
 40
32.0
 40
32.0
 10
959.9477710056525
 20
540.4475627901856
 30
0.0
 10
959.7500274113336
 20
540.2353948271584
 30
0.0
 10
959.5597631193095
 20
540.0185713800492
 30
0.0
 10
959.3765202131116
 20
539.7967108518042
 30
0.0
 10
959.183584741697
 20
540.0280349870335
 30
0.0
 10
958.9885886461798
 20
540.2472243358879
 30
0.0
 10
958.7909213712729
 20
540.4546604954239
 30
0.0
 10
958.5932540963659
 20
540.661715057904
 30
0.0
 10
958.3810861333377
 20
540.8449579641019
 30
0.0
 10
958.1547990792451
 20
541.0039312975505
 30
0.0
 10
957.928206747507
 20
541.1632862280548
 30
0.0
 10
957.6824582435692
 20
541.2907396446935
 30
0.0
 10
957.4175535674285
 20
541.3872073804014
 30
0.0
 10
957.1522672942329
 20
541.4833698384645
 30
0.0
 10
956.8608034630088
 20
541.5317563451408
 30
0.0
 10
956.5427804767004
 20
541.5317563451408
 30
0.0
 10
956.1571384921025
 20
541.5317563451408
 30
0.0
 10
955.8098851713202
 20
541.4618477645172
 30
0.0
 10
955.501631069641
 20
541.3223358809146
 30
0.0
 10
955.192995370905
 20
541.1825187196673
 30
0.0
 10
954.9327461788452
 20
540.9945440099781
 30
0.0
 10
954.7209598128738
 20
540.7581827936119
 30
0.0
 10
954.5087918498456
 20
540.5218978966567
 30
0.0
 10
954.3470710175952
 20
540.2424925323957
 30
0.0
 10
954.2364841908229
 20
539.9197377425953
 30
0.0
 10
954.125592086406
 20
539.5966776751501
 30
0.0
 10
954.0701078744914
 20
539.2473637302664
 30
0.0
 10
954.0701078744914
 20
538.8714906302976
 30
0.0
 10
954.0701078744914
 20
538.4956175303286
 30
0.0
 10
954.1278816687409
 20
538.1436324060541
 30
0.0
 10
954.2435818960603
 20
537.8158405351168
 30
0.0
 10
954.359511081615
 20
537.4880486641814
 30
0.0
 10
954.527948022047
 20
537.2059721205296
 30
0.0
 10
954.7498848697031
 20
536.9699925012191
 30
0.0
 10
954.9714401203045
 20
536.7336312848529
 30
0.0
 10
955.2363447964443
 20
536.545732894574
 30
0.0
 10
955.5449804951795
 20
536.4062210109714
 30
0.0
 10
955.8532345968597
 20
536.266327530313
 30
0.0
 10
956.2052197211341
 20
536.1964189496903
 30
0.0
 10
956.6006305903602
 20
536.1964189496903
 30
0.0
 10
956.9186535766684
 20
536.1964189496903
 30
0.0
 10
957.2053856044004
 20
536.2421342769757
 30
0.0
 10
957.4609029929678
 20
536.3339465286026
 30
0.0
 10
957.7161151038907
 20
536.4253771831736
 30
0.0
 10
957.952476320257
 20
536.545732894574
 30
0.0
 10
958.1692997673654
 20
536.6953189404503
 30
0.0
 10
958.3861232144736
 20
536.8445997086819
 30
0.0
 10
958.5908881946197
 20
537.0180737302507
 30
0.0
 10
958.7838236660346
 20
537.2157410051586
 30
0.0
 10
958.9764538598046
 20
537.4134082800646
 30
0.0
 10
959.1741974541237
 20
537.6181732602108
 30
0.0
 10
959.3765202131116
 20
537.830341223238
 30
0.0
 10
959.5597631193095
 20
537.6181732602108
 30
0.0
 10
959.7527749101354
 20
537.4134082800646
 30
0.0
 10
959.9551739885354
 20
537.2157410051586
 30
0.0
 10
960.1574967475244
 20
537.0180737302507
 30
0.0
 10
960.371649015242
 20
536.8445997086819
 30
0.0
 10
960.5982413469792
 20
536.6953189404503
 30
0.0
 10
960.8249099981277
 20
536.545732894574
 30
0.0
 10
961.0682926003191
 20
536.4253771831736
 30
0.0
 10
961.3284654729687
 20
536.3339465286026
 30
0.0
 10
961.5890199426722
 20
536.2421342769757
 30
0.0
 10
961.8684253069332
 20
536.1964189496903
 30
0.0
 10
962.1672921210393
 20
536.1964189496903
 30
0.0
 10
962.5525525085814
 20
536.1964189496903
 30
0.0
 10
962.9021717311097
 20
536.266327530313
 30
0.0
 10
963.215539233337
 20
536.4062210109714
 30
0.0
 10
963.5285251385084
 20
536.545732894574
 30
0.0
 10
963.7914455099599
 20
536.7386683659897
 30
0.0
 10
964.0036134729871
 20
536.9844168699292
 30
0.0
 10
964.2153998389586
 20
537.2301653738668
 30
0.0
 10
964.3794102535448
 20
537.5169737210107
 30
0.0
 10
964.4951104808642
 20
537.844765591948
 30
0.0
 10
964.6107343887743
 20
538.1725574628854
 30
0.0
 10
964.6685845024331
 20
538.5245425871598
 30
0.0
 10
964.6685845024331
 20
538.9004156871287
 30
0.0
 10
964.6685845024331
 20
539.2762887870958
 30
0.0
 10
964.6107343887743
 20
539.6232368302353
 30
0.0
 10
964.4951104808642
 20
539.9412598165436
 30
0.0
 10
964.3794102535448
 20
540.2596643999068
 30
0.0
 10
964.2153998389586
 20
540.5363222653668
 30
0.0
 10
964.0036134729871
 20
540.7726834817322
 30
0.0
 10
963.7914455099599
 20
541.0090446980984
 30
0.0
 10
963.5311963178992
 20
541.1942719089865
 30
0.0
 10
963.2226369385753
 20
541.3294335861528
 30
0.0
 10
962.9140012398401
 20
541.4642136662632
 30
0.0
 10
962.5670531967026
 20
541.5317563451408
 30
0.0
 10
962.1817164897493
 20
541.5317563451408
 30
0.0
 10
961.8731571104254
 20
541.5317563451408
 30
0.0
 10
961.5863487632815
 20
541.4833698384645
 30
0.0
 10
961.3214440871415
 20
541.3872073804014
 30
0.0
 10
961.0561578139458
 20
541.2907396446935
 30
0.0
 10
960.8104093100065
 20
541.1632862280548
 30
0.0
 10
960.5838169782691
 20
541.0039312975505
 30
0.0
 10
960.3572246465319
 20
540.8449579641019
 30
0.0
 10
960.1450566835046
 20
540.6593491561579
 30
0.0
 10
959.9477710056525
 20
540.4475627901856
 30
0.0
  0
SPLINE
  5
A1
330
70
100
AcDbEntity
  8
badge-all
100
AcDbSpline
210
0.0
220
0.0
230
1.0
 70
     9
 71
     3
 72
   101
 73
    97
 74
     0
 42
0.0000000001
 43
0.0000000001
 40
0.0
 40
0.0
 40
0.0
 40
0.0
 40
1.0
 40
1.0
 40
1.0
 40
2.0
 40
2.0
 40
2.0
 40
3.0
 40
3.0
 40
3.0
 40
4.0
 40
4.0
 40
4.0
 40
5.0
 40
5.0
 40
5.0
 40
6.0
 40
6.0
 40
6.0
 40
7.0
 40
7.0
 40
7.0
 40
8.0
 40
8.0
 40
8.0
 40
9.0
 40
9.0
 40
9.0
 40
10.0
 40
10.0
 40
10.0
 40
11.0
 40
11.0
 40
11.0
 40
12.0
 40
12.0
 40
12.0
 40
13.0
 40
13.0
 40
13.0
 40
14.0
 40
14.0
 40
14.0
 40
15.0
 40
15.0
 40
15.0
 40
16.0
 40
16.0
 40
16.0
 40
17.0
 40
17.0
 40
17.0
 40
18.0
 40
18.0
 40
18.0
 40
19.0
 40
19.0
 40
19.0
 40
20.0
 40
20.0
 40
20.0
 40
21.0
 40
21.0
 40
21.0
 40
22.0
 40
22.0
 40
22.0
 40
23.0
 40
23.0
 40
23.0
 40
24.0
 40
24.0
 40
24.0
 40
25.0
 40
25.0
 40
25.0
 40
26.0
 40
26.0
 40
26.0
 40
27.0
 40
27.0
 40
27.0
 40
28.0
 40
28.0
 40
28.0
 40
29.0
 40
29.0
 40
29.0
 40
30.0
 40
30.0
 40
30.0
 40
31.0
 40
31.0
 40
31.0
 40
32.0
 40
32.0
 40
32.0
 40
32.0
 10
959.9477710056545
 20
540.4475627901829
 30
0.0
 10
959.7500274113336
 20
540.2353948271565
 30
0.0
 10
959.5597631193113
 20
540.0185713800501
 30
0.0
 10
959.3765202131116
 20
539.7967108518059
 30
0.0
 10
959.183584741697
 20
540.0280349870335
 30
0.0
 10
958.9885886461798
 20
540.2472243358888
 30
0.0
 10
958.7909213712737
 20
540.4546604954239
 30
0.0
 10
958.593254096365
 20
540.6617150579013
 30
0.0
 10
958.3810861333386
 20
540.8449579641037
 30
0.0
 10
958.154799079246
 20
541.0039312975514
 30
0.0
 10
957.928206747507
 20
541.1632862280558
 30
0.0
 10
957.6824582435701
 20
541.2907396446953
 30
0.0
 10
957.4175535674294
 20
541.3872073804022
 30
0.0
 10
957.152267294232
 20
541.4833698384637
 30
0.0
 10
956.860803463007
 20
541.5317563451408
 30
0.0
 10
956.5427804766986
 20
541.5317563451408
 30
0.0
 10
956.1571384921016
 20
541.5317563451408
 30
0.0
 10
955.8098851713202
 20
541.4618477645144
 30
0.0
 10
955.501631069641
 20
541.3223358809136
 30
0.0
 10
955.1929953709041
 20
541.1825187196673
 30
0.0
 10
954.9327461788443
 20
540.994544009979
 30
0.0
 10
954.7209598128747
 20
540.7581827936146
 30
0.0
 10
954.5087918498456
 20
540.521897896655
 30
0.0
 10
954.3470710175952
 20
540.2424925323976
 30
0.0
 10
954.236484190822
 20
539.9197377425934
 30
0.0
 10
954.1255920864051
 20
539.5966776751501
 30
0.0
 10
954.0701078744914
 20
539.2473637302664
 30
0.0
 10
954.0701078744914
 20
538.8714906302957
 30
0.0
 10
954.0701078744914
 20
538.4956175303305
 30
0.0
 10
954.12788166874
 20
538.1436324060523
 30
0.0
 10
954.2435818960621
 20
537.8158405351168
 30
0.0
 10
954.3595110816159
 20
537.4880486641832
 30
0.0
 10
954.5279480220461
 20
537.2059721205296
 30
0.0
 10
954.7498848697051
 20
536.9699925012155
 30
0.0
 10
954.9714401203027
 20
536.733631284851
 30
0.0
 10
955.2363447964435
 20
536.545732894574
 30
0.0
 10
955.5449804951804
 20
536.406221010975
 30
0.0
 10
955.8532345968597
 20
536.2663275303112
 30
0.0
 10
956.2052197211359
 20
536.1964189496903
 30
0.0
 10
956.6006305903583
 20
536.1964189496903
 30
0.0
 10
956.9186535766675
 20
536.1964189496903
 30
0.0
 10
957.2053856044004
 20
536.2421342769794
 30
0.0
 10
957.4609029929687
 20
536.3339465286062
 30
0.0
 10
957.7161151038918
 20
536.4253771831754
 30
0.0
 10
957.9524763202561
 20
536.545732894574
 30
0.0
 10
958.1692997673663
 20
536.6953189404503
 30
0.0
 10
958.3861232144727
 20
536.8445997086783
 30
0.0
 10
958.5908881946188
 20
537.0180737302526
 30
0.0
 10
958.7838236660337
 20
537.2157410051586
 30
0.0
 10
958.9764538598046
 20
537.4134082800646
 30
0.0
 10
959.174197454122
 20
537.6181732602108
 30
0.0
 10
959.3765202131116
 20
537.830341223238
 30
0.0
 10
959.5597631193113
 20
537.6181732602108
 30
0.0
 10
959.7527749101372
 20
537.4134082800646
 30
0.0
 10
959.9551739885345
 20
537.2157410051586
 30
0.0
 10
960.1574967475244
 20
537.0180737302526
 30
0.0
 10
960.371649015242
 20
536.8445997086783
 30
0.0
 10
960.5982413469773
 20
536.6953189404503
 30
0.0
 10
960.8249099981277
 20
536.545732894574
 30
0.0
 10
961.0682926003173
 20
536.4253771831754
 30
0.0
 10
961.3284654729667
 20
536.3339465286062
 30
0.0
 10
961.589019942674
 20
536.2421342769794
 30
0.0
 10
961.868425306935
 20
536.1964189496903
 30
0.0
 10
962.1672921210393
 20
536.1964189496903
 30
0.0
 10
962.5525525085814
 20
536.1964189496903
 30
0.0
 10
962.9021717311079
 20
536.2663275303112
 30
0.0
 10
963.215539233337
 20
536.406221010975
 30
0.0
 10
963.5285251385084
 20
536.545732894574
 30
0.0
 10
963.7914455099599
 20
536.7386683659897
 30
0.0
 10
964.0036134729871
 20
536.9844168699255
 30
0.0
 10
964.2153998389586
 20
537.2301653738686
 30
0.0
 10
964.379410253543
 20
537.5169737210126
 30
0.0
 10
964.495110480866
 20
537.8447655919463
 30
0.0
 10
964.6107343887743
 20
538.1725574628871
 30
0.0
 10
964.6685845024331
 20
538.5245425871598
 30
0.0
 10
964.6685845024331
 20
538.9004156871251
 30
0.0
 10
964.6685845024331
 20
539.2762887870958
 30
0.0
 10
964.6107343887743
 20
539.6232368302317
 30
0.0
 10
964.495110480866
 20
539.9412598165436
 30
0.0
 10
964.379410253543
 20
540.2596643999059
 30
0.0
 10
964.2153998389586
 20
540.536322265364
 30
0.0
 10
964.0036134729871
 20
540.7726834817349
 30
0.0
 10
963.7914455099599
 20
541.0090446981002
 30
0.0
 10
963.5311963178992
 20
541.1942719089884
 30
0.0
 10
963.2226369385753
 20
541.3294335861547
 30
0.0
 10
962.9140012398401
 20
541.4642136662632
 30
0.0
 10
962.5670531967026
 20
541.5317563451408
 30
0.0
 10
962.1817164897475
 20
541.5317563451408
 30
0.0
 10
961.8731571104254
 20
541.5317563451408
 30
0.0
 10
961.5863487632815
 20
541.4833698384637
 30
0.0
 10
961.3214440871415
 20
541.3872073804022
 30
0.0
 10
961.0561578139458
 20
541.2907396446953
 30
0.0
 10
960.8104093100065
 20
541.1632862280558
 30
0.0
 10
960.5838169782673
 20
541.0039312975514
 30
0.0
 10
960.3572246465319
 20
540.8449579641037
 30
0.0
 10
960.1450566835028
 20
540.6593491561588
 30
0.0
 10
959.9477710056545
 20
540.4475627901829
 30
0.0
  0
SPLINE
  5
A2
330
70
100
AcDbEntity
  8
badge-all
100
AcDbSpline
210
0.0
220
0.0
230
1.0
 70
     9
 71
     3
 72
    41
 73
    37
 74
     0
 42
0.0000000001
 43
0.0000000001
 40
0.0
 40
0.0
 40
0.0
 40
0.0
 40
1.0
 40
1.0
 40
1.0
 40
2.0
 40
2.0
 40
2.0
 40
3.0
 40
3.0
 40
3.0
 40
4.0
 40
4.0
 40
4.0
 40
5.0
 40
5.0
 40
5.0
 40
6.0
 40
6.0
 40
6.0
 40
7.0
 40
7.0
 40
7.0
 40
8.0
 40
8.0
 40
8.0
 40
9.0
 40
9.0
 40
9.0
 40
10.0
 40
10.0
 40
10.0
 40
11.0
 40
11.0
 40
11.0
 40
12.0
 40
12.0
 40
12.0
 40
12.0
 10
958.1188526365867
 20
538.4159400650751
 30
0.0
 10
957.9743036718483
 20
538.2761229038297
 30
0.0
 10
957.8199858224817
 20
538.1507301112924
 30
0.0
 10
957.655899088486
 20
538.0400669651098
 30
0.0
 10
957.4918886738988
 20
537.9291748606938
 30
0.0
 10
957.3184146523308
 20
537.8376678867134
 30
0.0
 10
957.1354770237768
 20
537.7653934043373
 30
0.0
 10
956.9522341175806
 20
537.6931189219686
 30
0.0
 10
956.7690675307922
 20
537.656790882258
 30
0.0
 10
956.5861299022381
 20
537.656790882258
 30
0.0
 10
956.2294892938826
 20
537.656790882258
 30
0.0
 10
955.9497023325667
 20
537.7674540284406
 30
0.0
 10
955.7473795735777
 20
537.9893145566838
 30
0.0
 10
955.5449804951804
 20
538.2111750849344
 30
0.0
 10
955.4437809559813
 20
538.4956175303305
 30
0.0
 10
955.4437809559813
 20
538.8425655734663
 30
0.0
 10
955.4437809559813
 20
539.1605885597782
 30
0.0
 10
955.5426145934344
 20
539.4473969069222
 30
0.0
 10
955.7402818683403
 20
539.702914295487
 30
0.0
 10
955.9376438656036
 20
539.9580500870015
 30
0.0
 10
956.2052197211359
 20
540.0858087812812
 30
0.0
 10
956.5427804766986
 20
540.0858087812812
 30
0.0
 10
956.7256417858416
 20
540.0858087812812
 30
0.0
 10
956.9088846920413
 20
540.0448252574915
 30
0.0
 10
957.0921275982382
 20
539.9630871681329
 30
0.0
 10
957.2749889073802
 20
539.881043801135
 30
0.0
 10
957.4512104277509
 20
539.7775546796055
 30
0.0
 10
957.6199526458276
 20
539.6521618870683
 30
0.0
 10
957.7883895862605
 20
539.5267690945257
 30
0.0
 10
957.950110418511
 20
539.3895467932615
 30
0.0
 10
958.1044282678776
 20
539.2399607473871
 30
0.0
 10
958.2583645201903
 20
539.0906799791519
 30
0.0
 10
958.3935261973556
 20
538.9531524002432
 30
0.0
 10
958.5091501052666
 20
538.8281412047563
 30
0.0
 10
958.3935261973556
 20
538.69297952759
 30
0.0
 10
958.2634016013271
 20
538.5554519486813
 30
0.0
 10
958.1188526365867
 20
538.4159400650751
 30
0.0
  0
SPLINE
  5
A3
330
70
100
AcDbEntity
  8
badge-all
100
AcDbSpline
210
0.0
220
0.0
230
1.0
 70
     9
 71
     3
 72
    41
 73
    37
 74
     0
 42
0.0000000001
 43
0.0000000001
 40
0.0
 40
0.0
 40
0.0
 40
0.0
 40
1.0
 40
1.0
 40
1.0
 40
2.0
 40
2.0
 40
2.0
 40
3.0
 40
3.0
 40
3.0
 40
4.0
 40
4.0
 40
4.0
 40
5.0
 40
5.0
 40
5.0
 40
6.0
 40
6.0
 40
6.0
 40
7.0
 40
7.0
 40
7.0
 40
8.0
 40
8.0
 40
8.0
 40
9.0
 40
9.0
 40
9.0
 40
10.0
 40
10.0
 40
10.0
 40
11.0
 40
11.0
 40
11.0
 40
12.0
 40
12.0
 40
12.0
 40
12.0
 10
961.0901199519103
 20
539.6521618870683
 30
0.0
 10
961.2491696047728
 20
539.7775546796055
 30
0.0
 10
961.4176065452047
 20
539.881043801135
 30
0.0
 10
961.5961176479103
 20
539.9630871681329
 30
0.0
 10
961.7742471535621
 20
540.0448252574915
 30
0.0
 10
961.9598559615042
 20
540.0858087812812
 30
0.0
 10
962.1528677523292
 20
540.0858087812812
 30
0.0
 10
962.5092030830437
 20
540.0858087812812
 30
0.0
 10
962.7912796266919
 20
539.9654530698826
 30
0.0
 10
962.9987157862306
 20
539.7244363694372
 30
0.0
 10
963.2057703487079
 20
539.483343349575
 30
0.0
 10
963.3093357896559
 20
539.194245420098
 30
0.0
 10
963.3093357896559
 20
538.8570662615856
 30
0.0
 10
963.3093357896559
 20
538.519505506023
 30
0.0
 10
963.213173331591
 20
538.235063060627
 30
0.0
 10
963.020237860177
 20
538.003815244805
 30
0.0
 10
962.8272260693483
 20
537.7724911095774
 30
0.0
 10
962.5525525085814
 20
537.656790882258
 30
0.0
 10
962.1962171778687
 20
537.656790882258
 30
0.0
 10
961.9938180994722
 20
537.656790882258
 30
0.0
 10
961.8031722103914
 20
537.6904477425796
 30
0.0
 10
961.6250427047399
 20
537.7579904214581
 30
0.0
 10
961.4465316020359
 20
537.8252278226882
 30
0.0
 10
961.2753471627984
 20
537.9146741725726
 30
0.0
 10
961.1116420258603
 20
538.0256425964017
 30
0.0
 10
960.9475552918611
 20
538.1362294231712
 30
0.0
 10
960.7936190395522
 20
538.2616222157085
 30
0.0
 10
960.6490700748109
 20
538.401515696365
 30
0.0
 10
960.5044447906621
 20
538.5410275799731
 30
0.0
 10
960.3693594329071
 20
538.6835922400186
 30
0.0
 10
960.2442719180126
 20
538.8281412047563
 30
0.0
 10
960.3598958259244
 20
538.9531524002432
 30
0.0
 10
960.490020421952
 20
539.0906799791519
 30
0.0
 10
960.6345693866897
 20
539.2399607473871
 30
0.0
 10
960.779118351431
 20
539.3895467932615
 30
0.0
 10
960.9311466184644
 20
539.5267690945257
 30
0.0
 10
961.0901199519103
 20
539.6521618870683
 30
0.0
  0
HATCH
  5
A4
330
70
100
AcDbEntity
  8
badge-all
 62
   252
420
  9672088
440
 33554687
100
AcDbHatch
 10
0.0
 20
0.0
 30
0.0
210
0.0
220
0.0
230
1.0
  2
SOLID
 70
     1
 71
     1
 91
        3
 92
        1
 93
        1
 72
     4
 94
        3
 73
     0
 74
     0
 95
      101
 96
       97
 40
0.0
 40
0.0
 40
0.0
 40
0.0
 40
1.0
 40
1.0
 40
1.0
 40
2.0
 40
2.0
 40
2.0
 40
3.0
 40
3.0
 40
3.0
 40
4.0
 40
4.0
 40
4.0
 40
5.0
 40
5.0
 40
5.0
 40
6.0
 40
6.0
 40
6.0
 40
7.0
 40
7.0
 40
7.0
 40
8.0
 40
8.0
 40
8.0
 40
9.0
 40
9.0
 40
9.0
 40
10.0
 40
10.0
 40
10.0
 40
11.0
 40
11.0
 40
11.0
 40
12.0
 40
12.0
 40
12.0
 40
13.0
 40
13.0
 40
13.0
 40
14.0
 40
14.0
 40
14.0
 40
15.0
 40
15.0
 40
15.0
 40
16.0
 40
16.0
 40
16.0
 40
17.0
 40
17.0
 40
17.0
 40
18.0
 40
18.0
 40
18.0
 40
19.0
 40
19.0
 40
19.0
 40
20.0
 40
20.0
 40
20.0
 40
21.0
 40
21.0
 40
21.0
 40
22.0
 40
22.0
 40
22.0
 40
23.0
 40
23.0
 40
23.0
 40
24.0
 40
24.0
 40
24.0
 40
25.0
 40
25.0
 40
25.0
 40
26.0
 40
26.0
 40
26.0
 40
27.0
 40
27.0
 40
27.0
 40
28.0
 40
28.0
 40
28.0
 40
29.0
 40
29.0
 40
29.0
 40
30.0
 40
30.0
 40
30.0
 40
31.0
 40
31.0
 40
31.0
 40
32.0
 40
32.0
 40
32.0
 40
32.0
 10
959.9477710056545
 20
540.4475627901829
 10
959.7500274113336
 20
540.2353948271565
 10
959.5597631193113
 20
540.0185713800501
 10
959.3765202131116
 20
539.7967108518059
 10
959.183584741697
 20
540.0280349870335
 10
958.9885886461798
 20
540.2472243358888
 10
958.7909213712737
 20
540.4546604954239
 10
958.593254096365
 20
540.6617150579013
 10
958.3810861333386
 20
540.8449579641037
 10
958.154799079246
 20
541.0039312975514
 10
957.928206747507
 20
541.1632862280558
 10
957.6824582435701
 20
541.2907396446953
 10
957.4175535674294
 20
541.3872073804022
 10
957.152267294232
 20
541.4833698384637
 10
956.860803463007
 20
541.5317563451408
 10
956.5427804766986
 20
541.5317563451408
 10
956.1571384921016
 20
541.5317563451408
 10
955.8098851713202
 20
541.4618477645144
 10
955.501631069641
 20
541.3223358809136
 10
955.1929953709041
 20
541.1825187196673
 10
954.9327461788443
 20
540.994544009979
 10
954.7209598128747
 20
540.7581827936146
 10
954.5087918498456
 20
540.521897896655
 10
954.3470710175952
 20
540.2424925323976
 10
954.236484190822
 20
539.9197377425934
 10
954.1255920864051
 20
539.5966776751501
 10
954.0701078744914
 20
539.2473637302664
 10
954.0701078744914
 20
538.8714906302957
 10
954.0701078744914
 20
538.4956175303305
 10
954.12788166874
 20
538.1436324060523
 10
954.2435818960621
 20
537.8158405351168
 10
954.3595110816159
 20
537.4880486641832
 10
954.5279480220461
 20
537.2059721205296
 10
954.7498848697051
 20
536.9699925012155
 10
954.9714401203027
 20
536.733631284851
 10
955.2363447964435
 20
536.545732894574
 10
955.5449804951804
 20
536.406221010975
 10
955.8532345968597
 20
536.2663275303112
 10
956.2052197211359
 20
536.1964189496903
 10
956.6006305903583
 20
536.1964189496903
 10
956.9186535766675
 20
536.1964189496903
 10
957.2053856044004
 20
536.2421342769794
 10
957.4609029929687
 20
536.3339465286062
 10
957.7161151038918
 20
536.4253771831754
 10
957.9524763202561
 20
536.545732894574
 10
958.1692997673663
 20
536.6953189404503
 10
958.3861232144727
 20
536.8445997086783
 10
958.5908881946188
 20
537.0180737302526
 10
958.7838236660337
 20
537.2157410051586
 10
958.9764538598046
 20
537.4134082800646
 10
959.174197454122
 20
537.6181732602108
 10
959.3765202131116
 20
537.830341223238
 10
959.5597631193113
 20
537.6181732602108
 10
959.7527749101372
 20
537.4134082800646
 10
959.9551739885345
 20
537.2157410051586
 10
960.1574967475244
 20
537.0180737302526
 10
960.371649015242
 20
536.8445997086783
 10
960.5982413469773
 20
536.6953189404503
 10
960.8249099981277
 20
536.545732894574
 10
961.0682926003173
 20
536.4253771831754
 10
961.3284654729667
 20
536.3339465286062
 10
961.589019942674
 20
536.2421342769794
 10
961.868425306935
 20
536.1964189496903
 10
962.1672921210393
 20
536.1964189496903
 10
962.5525525085814
 20
536.1964189496903
 10
962.9021717311079
 20
536.2663275303112
 10
963.215539233337
 20
536.406221010975
 10
963.5285251385084
 20
536.545732894574
 10
963.7914455099599
 20
536.7386683659897
 10
964.0036134729871
 20
536.9844168699255
 10
964.2153998389586
 20
537.2301653738686
 10
964.379410253543
 20
537.5169737210126
 10
964.495110480866
 20
537.8447655919463
 10
964.6107343887743
 20
538.1725574628871
 10
964.6685845024331
 20
538.5245425871598
 10
964.6685845024331
 20
538.9004156871251
 10
964.6685845024331
 20
539.2762887870958
 10
964.6107343887743
 20
539.6232368302317
 10
964.495110480866
 20
539.9412598165436
 10
964.379410253543
 20
540.2596643999059
 10
964.2153998389586
 20
540.536322265364
 10
964.0036134729871
 20
540.7726834817349
 10
963.7914455099599
 20
541.0090446981002
 10
963.5311963178992
 20
541.1942719089884
 10
963.2226369385753
 20
541.3294335861547
 10
962.9140012398401
 20
541.4642136662632
 10
962.5670531967026
 20
541.5317563451408
 10
962.1817164897475
 20
541.5317563451408
 10
961.8731571104254
 20
541.5317563451408
 10
961.5863487632815
 20
541.4833698384637
 10
961.3214440871415
 20
541.3872073804022
 10
961.0561578139458
 20
541.2907396446953
 10
960.8104093100065
 20
541.1632862280558
 10
960.5838169782673
 20
541.0039312975514
 10
960.3572246465319
 20
540.8449579641037
 10
960.1450566835028
 20
540.6593491561588
 10
959.9477710056545
 20
540.4475627901829
 97
        0
 97
        1
330
A1
 92
        1
 93
        2
 72
     4
 94
        3
 73
     0
 74
     0
 95
       41
 96
       37
 40
0.0
 40
0.0
 40
0.0
 40
0.0
 40
1.0
 40
1.0
 40
1.0
 40
2.0
 40
2.0
 40
2.0
 40
3.0
 40
3.0
 40
3.0
 40
4.0
 40
4.0
 40
4.0
 40
5.0
 40
5.0
 40
5.0
 40
6.0
 40
6.0
 40
6.0
 40
7.0
 40
7.0
 40
7.0
 40
8.0
 40
8.0
 40
8.0
 40
9.0
 40
9.0
 40
9.0
 40
10.0
 40
10.0
 40
10.0
 40
11.0
 40
11.0
 40
11.0
 40
12.0
 40
12.0
 40
12.0
 40
12.0
 10
958.1188526365867
 20
538.4159400650751
 10
957.9743036718483
 20
538.2761229038297
 10
957.8199858224817
 20
538.1507301112924
 10
957.655899088486
 20
538.0400669651098
 10
957.4918886738988
 20
537.9291748606938
 10
957.3184146523308
 20
537.8376678867134
 10
957.1354770237768
 20
537.7653934043373
 10
956.9522341175806
 20
537.6931189219686
 10
956.7690675307922
 20
537.656790882258
 10
956.5861299022381
 20
537.656790882258
 10
956.2294892938826
 20
537.656790882258
 10
955.9497023325667
 20
537.7674540284406
 10
955.7473795735777
 20
537.9893145566838
 10
955.5449804951804
 20
538.2111750849344
 10
955.4437809559813
 20
538.4956175303305
 10
955.4437809559813
 20
538.8425655734663
 10
955.4437809559813
 20
539.1605885597782
 10
955.5426145934344
 20
539.4473969069222
 10
955.7402818683403
 20
539.702914295487
 10
955.9376438656036
 20
539.9580500870015
 10
956.2052197211359
 20
540.0858087812812
 10
956.5427804766986
 20
540.0858087812812
 10
956.7256417858416
 20
540.0858087812812
 10
956.9088846920413
 20
540.0448252574915
 10
957.0921275982382
 20
539.9630871681329
 10
957.2749889073802
 20
539.881043801135
 10
957.4512104277509
 20
539.7775546796055
 10
957.6199526458276
 20
539.6521618870683
 10
957.7883895862605
 20
539.5267690945257
 10
957.950110418511
 20
539.3895467932615
 10
958.1044282678776
 20
539.2399607473871
 10
958.2583645201903
 20
539.0906799791519
 10
958.3935261973556
 20
538.9531524002432
 10
958.5091501052666
 20
538.8281412047563
 10
958.3935261973556
 20
538.69297952759
 10
958.2634016013271
 20
538.5554519486813
 10
958.1188526365867
 20
538.4159400650751
 97
        0
 72
     1
 10
958.1188526365867
 20
538.4159400650751
 11
958.1188526365867
 21
538.4159400650751
 97
        0
 92
        1
 93
        2
 72
     4
 94
        3
 73
     0
 74
     0
 95
       41
 96
       37
 40
0.0
 40
0.0
 40
0.0
 40
0.0
 40
1.0
 40
1.0
 40
1.0
 40
2.0
 40
2.0
 40
2.0
 40
3.0
 40
3.0
 40
3.0
 40
4.0
 40
4.0
 40
4.0
 40
5.0
 40
5.0
 40
5.0
 40
6.0
 40
6.0
 40
6.0
 40
7.0
 40
7.0
 40
7.0
 40
8.0
 40
8.0
 40
8.0
 40
9.0
 40
9.0
 40
9.0
 40
10.0
 40
10.0
 40
10.0
 40
11.0
 40
11.0
 40
11.0
 40
12.0
 40
12.0
 40
12.0
 40
12.0
 10
961.0901199519103
 20
539.6521618870683
 10
961.2491696047728
 20
539.7775546796055
 10
961.4176065452047
 20
539.881043801135
 10
961.5961176479103
 20
539.9630871681329
 10
961.7742471535621
 20
540.0448252574915
 10
961.9598559615042
 20
540.0858087812812
 10
962.1528677523292
 20
540.0858087812812
 10
962.5092030830437
 20
540.0858087812812
 10
962.7912796266919
 20
539.9654530698826
 10
962.9987157862306
 20
539.7244363694372
 10
963.2057703487079
 20
539.483343349575
 10
963.3093357896559
 20
539.194245420098
 10
963.3093357896559
 20
538.8570662615856
 10
963.3093357896559
 20
538.519505506023
 10
963.213173331591
 20
538.235063060627
 10
963.020237860177
 20
538.003815244805
 10
962.8272260693483
 20
537.7724911095774
 10
962.5525525085814
 20
537.656790882258
 10
962.1962171778687
 20
537.656790882258
 10
961.9938180994722
 20
537.656790882258
 10
961.8031722103914
 20
537.6904477425796
 10
961.6250427047399
 20
537.7579904214581
 10
961.4465316020359
 20
537.8252278226882
 10
961.2753471627984
 20
537.9146741725726
 10
961.1116420258603
 20
538.0256425964017
 10
960.9475552918611
 20
538.1362294231712
 10
960.7936190395522
 20
538.2616222157085
 10
960.6490700748109
 20
538.401515696365
 10
960.5044447906621
 20
538.5410275799731
 10
960.3693594329071
 20
538.6835922400186
 10
960.2442719180126
 20
538.8281412047563
 10
960.3598958259244
 20
538.9531524002432
 10
960.490020421952
 20
539.0906799791519
 10
960.6345693866897
 20
539.2399607473871
 10
960.779118351431
 20
539.3895467932615
 10
960.9311466184644
 20
539.5267690945257
 10
961.0901199519103
 20
539.6521618870683
 97
        0
 72
     1
 10
961.0901199519103
 20
539.6521618870682
 11
961.0901199519103
 21
539.6521618870683
 97
        0
 75
     2
 76
     1
 98
        1
 10
0.0
 20
0.0
450
        0
451
        0
460
0.0
461
0.0
452
        0
462
0.0
453
        0
470

  0
LWPOLYLINE
  5
A5
330
70
100
AcDbEntity
  8
badge-all
 62
    18
420
        0
370
     0
100
AcDbPolyline
 90
        6
 70
     1
 43
0.0
 10
959.3692698690519
 20
651.5237496269892
 10
975.5699728732743
 20
651.5237496269892
 10
967.4696595308686
 20
657.7021112381244
 10
959.3692698690519
 20
663.8803965298493
 10
951.2689565266455
 20
657.7021112381244
 10
943.1685668648288
 20
651.5237496269892
  0
LWPOLYLINE
  5
A6
330
70
100
AcDbEntity
  8
badge-all
100
AcDbPolyline
 90
        6
 70
     1
 43
0.0
 10
959.369269869051
 20
651.5237496269856
 10
975.5699728732743
 20
651.5237496269856
 10
967.4696595308668
 20
657.7021112381252
 10
959.369269869051
 20
663.8803965298466
 10
951.2689565266464
 20
657.7021112381252
 10
943.1685668648269
 20
651.5237496269856
  0
HATCH
  5
A7
330
70
100
AcDbEntity
  8
badge-all
 62
   252
420
  9672088
440
 33554687
100
AcDbHatch
 10
0.0
 20
0.0
 30
0.0
210
0.0
220
0.0
230
1.0
  2
SOLID
 70
     1
 71
     1
 91
        1
 92
        1
 93
        6
 72
     1
 10
959.369269869051
 20
651.5237496269856
 11
975.5699728732743
 21
651.5237496269856
 72
     1
 10
975.5699728732743
 20
651.5237496269856
 11
967.4696595308668
 21
657.7021112381252
 72
     1
 10
967.4696595308668
 20
657.7021112381252
 11
959.369269869051
 21
663.8803965298466
 72
     1
 10
959.369269869051
 20
663.8803965298466
 11
951.2689565266464
 21
657.7021112381252
 72
     1
 10
951.2689565266464
 20
657.7021112381252
 11
943.1685668648269
 21
651.5237496269856
 72
     1
 10
943.1685668648269
 20
651.5237496269856
 11
959.369269869051
 21
651.5237496269856
 97
        1
330
A6
 75
     2
 76
     1
 98
        1
 10
0.0
 20
0.0
450
        0
451
        0
460
0.0
461
0.0
452
        0
462
0.0
453
        0
470

  0
LWPOLYLINE
  5
A8
330
70
100
AcDbEntity
  8
badge-all
 62
    18
420
        0
370
     0
100
AcDbPolyline
 90
        4
 70
     1
 43
0.0
 10
976.270203470678
 20
667.021169257363
 10
974.4032780348552
 20
668.8745861574098
 10
968.8999616154397
 20
663.3308967694893
 10
970.7669633706718
 20
661.4776325082648
  0
LWPOLYLINE
  5
A9
330
70
100
AcDbEntity
  8
badge-all
100
AcDbPolyline
 90
        4
 70
     1
 43
0.0
 10
976.270203470678
 20
667.0211692573648
 10
974.4032780348534
 20
668.874586157407
 10
968.8999616154397
 20
663.3308967694911
 10
970.7669633706718
 20
661.4776325082657
  0
HATCH
  5
AA
330
70
100
AcDbEntity
  8
badge-all
 62
   252
420
  9672088
440
 33554687
100
AcDbHatch
 10
0.0
 20
0.0
 30
0.0
210
0.0
220
0.0
230
1.0
  2
SOLID
 70
     1
 71
     1
 91
        1
 92
        1
 93
        4
 72
     1
 10
976.270203470678
 20
667.0211692573648
 11
974.4032780348534
 21
668.874586157407
 72
     1
 10
974.4032780348534
 20
668.874586157407
 11
968.8999616154397
 21
663.3308967694911
 72
     1
 10
968.8999616154397
 20
663.3308967694911
 11
970.7669633706718
 21
661.4776325082657
 72
     1
 10
970.7669633706718
 20
661.4776325082657
 11
976.270203470678
 21
667.0211692573648
 97
        1
330
A9
 75
     2
 76
     1
 98
        1
 10
0.0
 20
0.0
450
        0
451
        0
460
0.0
461
0.0
452
        0
462
0.0
453
        0
470

  0
LWPOLYLINE
  5
AB
330
70
100
AcDbEntity
  8
badge-all
 62
    18
420
        0
370
     0
100
AcDbPolyline
 90
        4
 70
     1
 43
0.0
 10
960.6348746643361
 20
668.9902100653189
 10
960.6083155092511
 20
676.8035624217591
 10
957.9774327677069
 20
676.7945567312417
 10
958.003991922791
 20
668.9812043748015
  0
LWPOLYLINE
  5
AC
330
70
100
AcDbEntity
  8
badge-all
100
AcDbPolyline
 90
        4
 70
     1
 43
0.0
 10
960.6348746643361
 20
668.9902100653216
 10
960.6083155092528
 20
676.8035624217618
 10
957.9774327677059
 20
676.7945567312408
 10
958.0039919227901
 20
668.9812043748006
  0
HATCH
  5
AD
330
70
100
AcDbEntity
  8
badge-all
 62
   252
420
  9672088
440
 33554687
100
AcDbHatch
 10
0.0
 20
0.0
 30
0.0
210
0.0
220
0.0
230
1.0
  2
SOLID
 70
     1
 71
     1
 91
        1
 92
        1
 93
        4
 72
     1
 10
960.6348746643361
 20
668.9902100653216
 11
960.6083155092528
 21
676.8035624217618
 72
     1
 10
960.6083155092528
 20
676.8035624217618
 11
957.9774327677059
 21
676.7945567312408
 72
     1
 10
957.9774327677059
 20
676.7945567312408
 11
958.0039919227901
 21
668.9812043748006
 72
     1
 10
958.0039919227901
 20
668.9812043748006
 11
960.6348746643361
 21
668.9902100653216
 97
        1
330
AC
 75
     2
 76
     1
 98
        1
 10
0.0
 20
0.0
450
        0
451
        0
460
0.0
461
0.0
452
        0
462
0.0
453
        0
470

  0
LWPOLYLINE
  5
AE
330
70
100
AcDbEntity
  8
badge-all
 62
    18
420
        0
370
     0
100
AcDbPolyline
 90
        4
 70
     1
 43
0.0
 10
949.8382728450197
 20
663.3308967694893
 10
944.3354143420711
 20
668.8743571991762
 10
942.4684889062474
 20
667.0210929379518
 10
947.9712710897866
 20
661.4776325082648
  0
LWPOLYLINE
  5
AF
330
70
100
AcDbEntity
  8
badge-all
100
AcDbPolyline
 90
        4
 70
     1
 43
0.0
 10
949.8382728450197
 20
663.3308967694911
 10
944.3354143420711
 20
668.874357199179
 10
942.4684889062474
 20
667.0210929379536
 10
947.9712710897874
 20
661.4776325082657
  0
HATCH
  5
B0
330
70
100
AcDbEntity
  8
badge-all
 62
   252
420
  9672088
440
 33554687
100
AcDbHatch
 10
0.0
 20
0.0
 30
0.0
210
0.0
220
0.0
230
1.0
  2
SOLID
 70
     1
 71
     1
 91
        1
 92
        1
 93
        4
 72
     1
 10
949.8382728450197
 20
663.3308967694911
 11
944.3354143420711
 21
668.874357199179
 72
     1
 10
944.3354143420711
 20
668.874357199179
 11
942.4684889062474
 21
667.0210929379536
 72
     1
 10
942.4684889062474
 20
667.0210929379536
 11
947.9712710897874
 21
661.4776325082657
 72
     1
 10
947.9712710897874
 20
661.4776325082657
 11
949.8382728450197
 21
663.3308967694911
 97
        1
330
AF
 75
     2
 76
     1
 98
        1
 10
0.0
 20
0.0
450
        0
451
        0
460
0.0
461
0.0
452
        0
462
0.0
453
        0
470

  0
ENDSEC
  0
SECTION
  2
OBJECTS
  0
DICTIONARY
  5
C
330
0
100
AcDbDictionary
281
     1
  3
ACAD_COLOR
350
63
  3
ACAD_DETAILVIEWSTYLE
350
6A
  3
ACAD_GROUP
350
D
  3
ACAD_LAYOUT
350
62
  3
ACAD_MATERIAL
350
10
  3
ACAD_MLEADERSTYLE
350
66
  3
ACAD_MLINESTYLE
350
5F
  3
ACAD_PLOTSETTINGS
350
61
  3
ACAD_PLOTSTYLENAME
350
E
  3
ACAD_SCALELIST
350
42
  3
ACAD_SECTIONVIEWSTYLE
350
68
  3
ACAD_TABLESTYLE
350
64
  3
ACAD_VISUALSTYLE
350
29
  3
ACDB_RECOMPOSE_DATA
350
B9
  3
AcDbVariableDictionary
350
B1
  0
DICTIONARY
  5
63
102
{ACAD_REACTORS
330
C
102
}
330
C
100
AcDbDictionary
281
     1
  0
DICTIONARY
  5
6A
102
{ACAD_REACTORS
330
C
102
}
330
C
100
AcDbDictionary
281
     1
  3
Imperial24
350
6B
  0
DICTIONARY
  5
D
102
{ACAD_REACTORS
330
C
102
}
330
C
100
AcDbDictionary
281
     1
  0
DICTIONARY
  5
62
102
{ACAD_REACTORS
330
C
102
}
330
C
100
AcDbDictionary
281
     1
  3
Layout1
350
6F
  3
Layout2
350
77
  3
Model
350
73
  0
DICTIONARY
  5
10
102
{ACAD_REACTORS
330
C
102
}
330
C
100
AcDbDictionary
281
     1
  3
ByBlock
350
19
  3
ByLayer
350
11
  3
Global
350
21
  0
DICTIONARY
  5
66
102
{ACAD_REACTORS
330
C
102
}
330
C
100
AcDbDictionary
281
     1
  3
Standard
350
67
  0
DICTIONARY
  5
5F
102
{ACAD_REACTORS
330
C
102
}
330
C
100
AcDbDictionary
281
     1
  3
Standard
350
60
  0
DICTIONARY
  5
61
102
{ACAD_REACTORS
330
C
102
}
330
C
100
AcDbDictionary
281
     1
  0
ACDBDICTIONARYWDFLT
  5
E
102
{ACAD_REACTORS
330
C
102
}
330
C
100
AcDbDictionary
281
     1
  3
Normal
350
F
100
AcDbDictionaryWithDefault
340
F
  0
DICTIONARY
  5
42
102
{ACAD_REACTORS
330
C
102
}
330
C
100
AcDbDictionary
281
     1
  3
A0
350
43
  3
A1
350
44
  3
A2
350
45
  3
A3
350
46
  3
A4
350
47
  3
A5
350
48
  3
A6
350
49
  3
A7
350
4A
  3
A8
350
4B
  3
A9
350
4C
  3
B0
350
4D
  3
B1
350
4E
  3
B2
350
4F
  3
B3
350
50
  3
B4
350
51
  3
B5
350
52
  3
B6
350
53
  0
DICTIONARY
  5
68
102
{ACAD_REACTORS
330
C
102
}
330
C
100
AcDbDictionary
281
     1
  3
Imperial24
350
69
  0
DICTIONARY
  5
64
102
{ACAD_REACTORS
330
C
102
}
330
C
100
AcDbDictionary
281
     1
  3
Standard
350
65
  0
DICTIONARY
  5
29
102
{ACAD_REACTORS
330
C
102
}
330
C
100
AcDbDictionary
281
     1
  3
2dWireframe
350
2F
  3
Basic
350
2E
  3
Brighten
350
35
  3
ColorChange
350
39
  3
Conceptual
350
32
  3
Dim
350
34
  3
EdgeColorOff
350
41
  3
Facepattern
350
38
  3
Flat
350
2A
  3
FlatWithEdges
350
2B
  3
Gouraud
350
2C
  3
GouraudWithEdges
350
2D
  3
Hidden
350
31
  3
JitterOff
350
3F
  3
Linepattern
350
37
  3
OverhangOff
350
40
  3
Realistic
350
33
  3
Shaded
350
3E
  3
Shaded with edges
350
3D
  3
Shades of Gray
350
3A
  3
Sketchy
350
3B
  3
Thicken
350
36
  3
Wireframe
350
30
  3
X-Ray
350
3C
  0
XRECORD
  5
B9
102
{ACAD_REACTORS
330
C
102
}
330
C
100
AcDbXrecord
280
     1
 90
        1
330
65
  0
DICTIONARY
  5
B1
102
{ACAD_REACTORS
330
C
102
}
330
C
100
AcDbDictionary
281
     1
  3
CANNOSCALE
350
B6
  3
CMLEADERSTYLE
350
B3
  3
CTABLESTYLE
350
B2
  3
CVIEWDETAILSTYLE
350
B4
  3
CVIEWSECTIONSTYLE
350
B5
  0
ACDBDETAILVIEWSTYLE
  5
6B
102
{ACAD_REACTORS
330
6A
102
}
330
6A
100
AcDbModelDocViewStyle
 70
     0
  3
Imperial24
290
     1
300
Imperial24
 90
        0
100
AcDbDetailViewStyle
 70
     0
 71
     0
 90
        3
 71
     1
340
55
 62
   256
 40
0.24
340
0
 62
   256
 40
0.24
300

 40
0.36
280
     3
 71
     2
340
5D
 90
       25
 62
   256
 71
     3
340
55
 62
   256
 40
0.24
 90
        1
 40
0.75
 90
        1
300
%<\AcVar ViewType \f "%tc1">% %<\AcVar ViewDetailId>%\PSCALE %<\AcVar ViewScale \f "%sn">%
 71
     4
340
5D
 90
       25
 62
   256
340
5D
 90
       25
 62
   256
280
     0
  0
LAYOUT
  5
6F
102
{ACAD_REACTORS
330
62
102
}
330
62
100
AcDbPlotSettings
  1

  2

  4

  6

 40
0.0
 41
0.0
 42
0.0
 43
0.0
 44
0.0
 45
0.0
 46
0.0
 47
0.0
 48
0.0
 49
0.0
140
0.0
141
0.0
142
1.0
143
1.0
 70
   688
 72
     0
 73
     0
 74
     5
  7

 75
    16
147
1.0
 76
     0
 77
     2
 78
   300
148
0.0
149
0.0
100
AcDbLayout
  1
Layout1
 70
     1
 71
     1
 10
0.0
 20
0.0
 11
12.0
 21
9.0
 12
0.0
 22
0.0
 32
0.0
 14
0.0
 24
0.0
 34
0.0
 15
0.0
 25
0.0
 35
0.0
146
0.0
 13
0.0
 23
0.0
 33
0.0
 16
1.0
 26
0.0
 36
0.0
 17
0.0
 27
1.0
 37
0.0
 76
     0
330
6C
  0
LAYOUT
  5
77
102
{ACAD_REACTORS
330
62
102
}
330
62
100
AcDbPlotSettings
  1

  2

  4

  6

 40
0.0
 41
0.0
 42
0.0
 43
0.0
 44
0.0
 45
0.0
 46
0.0
 47
0.0
 48
0.0
 49
0.0
140
0.0
141
0.0
142
1.0
143
1.0
 70
   688
 72
     0
 73
     0
 74
     5
  7

 75
    16
147
1.0
 76
     0
 77
     2
 78
   300
148
0.0
149
0.0
100
AcDbLayout
  1
Layout2
 70
     1
 71
     2
 10
0.0
 20
0.0
 11
12.0
 21
9.0
 12
0.0
 22
0.0
 32
0.0
 14
0.0
 24
0.0
 34
0.0
 15
0.0
 25
0.0
 35
0.0
146
0.0
 13
0.0
 23
0.0
 33
0.0
 16
1.0
 26
0.0
 36
0.0
 17
0.0
 27
1.0
 37
0.0
 76
     0
330
74
  0
LAYOUT
  5
73
102
{ACAD_REACTORS
330
62
102
}
330
62
100
AcDbPlotSettings
  1

  2

  4

  6

 40
0.0
 41
0.0
 42
0.0
 43
0.0
 44
0.0
 45
0.0
 46
0.0
 47
0.0
 48
0.0
 49
0.0
140
0.0
141
0.0
142
1.0
143
1.0
 70
  1712
 72
     0
 73
     0
 74
     0
  7

 75
     0
147
1.0
 76
     0
 77
     2
 78
   300
148
0.0
149
0.0
100
AcDbLayout
  1
Model
 70
     1
 71
     0
 10
0.0
 20
0.0
 11
12.0
 21
9.0
 12
0.0
 22
0.0
 32
0.0
 14
0.0
 24
0.0
 34
0.0
 15
0.0
 25
0.0
 35
0.0
146
0.0
 13
0.0
 23
0.0
 33
0.0
 16
1.0
 26
0.0
 36
0.0
 17
0.0
 27
1.0
 37
0.0
 76
     0
330
70
  0
MATERIAL
  5
19
102
{ACAD_XDICTIONARY
360
1A
102
}
102
{ACAD_REACTORS
330
10
102
}
330
10
100
AcDbMaterial
  1
ByBlock
 72
     0
 43
0.0208333333333333
 43
0.0
 43
0.0
 43
0.0
 43
0.0
 43
0.0208333333333333
 43
0.0
 43
0.0
 43
0.0
 43
0.0
 43
1.0
 43
0.0
 43
0.0
 43
0.0
 43
0.0
 43
1.0
 77
     0
 47
0.0208333333333333
 47
0.0
 47
0.0
 47
0.0
 47
0.0
 47
0.0208333333333333
 47
0.0
 47
0.0
 47
0.0
 47
0.0
 47
1.0
 47
0.0
 47
0.0
 47
0.0
 47
0.0
 47
1.0
171
     0
 49
0.0208333333333333
 49
0.0
 49
0.0
 49
0.0
 49
0.0
 49
0.0208333333333333
 49
0.0
 49
0.0
 49
0.0
 49
0.0
 49
1.0
 49
0.0
 49
0.0
 49
0.0
 49
0.0
 49
1.0
175
     0
142
0.0208333333333333
142
0.0
142
0.0
142
0.0
142
0.0
142
0.0208333333333333
142
0.0
142
0.0
142
0.0
142
0.0
142
1.0
142
0.0
142
0.0
142
0.0
142
0.0
142
1.0
179
     0
144
0.0208333333333333
144
0.0
144
0.0
144
0.0
144
0.0
144
0.0208333333333333
144
0.0
144
0.0
144
0.0
144
0.0
144
1.0
144
0.0
144
0.0
144
0.0
144
0.0
144
1.0
147
0.0208333333333333
147
0.0
147
0.0
147
0.0
147
0.0
147
0.0208333333333333
147
0.0
147
0.0
147
0.0
147
0.0
147
1.0
147
0.0
147
0.0
147
0.0
147
0.0
147
1.0
  0
MATERIAL
  5
11
102
{ACAD_XDICTIONARY
360
12
102
}
102
{ACAD_REACTORS
330
10
102
}
330
10
100
AcDbMaterial
  1
ByLayer
 72
     0
 43
0.0208333333333333
 43
0.0
 43
0.0
 43
0.0
 43
0.0
 43
0.0208333333333333
 43
0.0
 43
0.0
 43
0.0
 43
0.0
 43
1.0
 43
0.0
 43
0.0
 43
0.0
 43
0.0
 43
1.0
 77
     0
 47
0.0208333333333333
 47
0.0
 47
0.0
 47
0.0
 47
0.0
 47
0.0208333333333333
 47
0.0
 47
0.0
 47
0.0
 47
0.0
 47
1.0
 47
0.0
 47
0.0
 47
0.0
 47
0.0
 47
1.0
171
     0
 49
0.0208333333333333
 49
0.0
 49
0.0
 49
0.0
 49
0.0
 49
0.0208333333333333
 49
0.0
 49
0.0
 49
0.0
 49
0.0
 49
1.0
 49
0.0
 49
0.0
 49
0.0
 49
0.0
 49
1.0
175
     0
142
0.0208333333333333
142
0.0
142
0.0
142
0.0
142
0.0
142
0.0208333333333333
142
0.0
142
0.0
142
0.0
142
0.0
142
1.0
142
0.0
142
0.0
142
0.0
142
0.0
142
1.0
179
     0
144
0.0208333333333333
144
0.0
144
0.0
144
0.0
144
0.0
144
0.0208333333333333
144
0.0
144
0.0
144
0.0
144
0.0
144
1.0
144
0.0
144
0.0
144
0.0
144
0.0
144
1.0
147
0.0208333333333333
147
0.0
147
0.0
147
0.0
147
0.0
147
0.0208333333333333
147
0.0
147
0.0
147
0.0
147
0.0
147
1.0
147
0.0
147
0.0
147
0.0
147
0.0
147
1.0
  0
MATERIAL
  5
21
102
{ACAD_XDICTIONARY
360
22
102
}
102
{ACAD_REACTORS
330
10
102
}
330
10
100
AcDbMaterial
  1
Global
 72
     0
 43
0.0208333333333333
 43
0.0
 43
0.0
 43
0.0
 43
0.0
 43
0.0208333333333333
 43
0.0
 43
0.0
 43
0.0
 43
0.0
 43
1.0
 43
0.0
 43
0.0
 43
0.0
 43
0.0
 43
1.0
 77
     0
 47
0.0208333333333333
 47
0.0
 47
0.0
 47
0.0
 47
0.0
 47
0.0208333333333333
 47
0.0
 47
0.0
 47
0.0
 47
0.0
 47
1.0
 47
0.0
 47
0.0
 47
0.0
 47
0.0
 47
1.0
171
     0
 49
0.0208333333333333
 49
0.0
 49
0.0
 49
0.0
 49
0.0
 49
0.0208333333333333
 49
0.0
 49
0.0
 49
0.0
 49
0.0
 49
1.0
 49
0.0
 49
0.0
 49
0.0
 49
0.0
 49
1.0
175
     0
142
0.0208333333333333
142
0.0
142
0.0
142
0.0
142
0.0
142
0.0208333333333333
142
0.0
142
0.0
142
0.0
142
0.0
142
1.0
142
0.0
142
0.0
142
0.0
142
0.0
142
1.0
179
     0
144
0.0208333333333333
144
0.0
144
0.0
144
0.0
144
0.0
144
0.0208333333333333
144
0.0
144
0.0
144
0.0
144
0.0
144
1.0
144
0.0
144
0.0
144
0.0
144
0.0
144
1.0
147
0.0208333333333333
147
0.0
147
0.0
147
0.0
147
0.0
147
0.0208333333333333
147
0.0
147
0.0
147
0.0
147
0.0
147
1.0
147
0.0
147
0.0
147
0.0
147
0.0
147
1.0
  0
MLEADERSTYLE
  5
67
102
{ACAD_REACTORS
330
66
102
}
330
66
100
AcDbMLeaderStyle
179
     2
170
     2
171
     1
172
     0
 90
        2
 40
0.0
 41
0.0
173
     1
 91
-1056964608
340
5B
 92
       -2
290
     1
 42
0.09
291
     1
 43
0.36
  3
Standard
 44
0.18
300

342
55
174
     1
178
     6
175
     1
176
     0
 93
-1056964608
 45
0.18
292
     0
297
     0
 46
0.18
 94
-1056964608
 47
1.0
 49
1.0
140
1.0
293
     1
141
0.0
294
     1
177
     0
142
1.0
295
     1
296
     0
143
0.125
271
     0
272
     9
273
     9
298
     1
  0
MLINESTYLE
  5
60
102
{ACAD_REACTORS
330
5F
102
}
330
5F
100
AcDbMlineStyle
  2
STANDARD
 70
     0
  3

 62
   256
 51
90.0
 52
90.0
 71
     2
 49
0.5
 62
   256
  6
BYLAYER
 49
-0.5
 62
   256
  6
BYLAYER
  0
ACDBPLACEHOLDER
  5
F
102
{ACAD_REACTORS
330
E
102
}
330
E
  0
SCALE
  5
43
102
{ACAD_REACTORS
330
42
102
}
330
42
100
AcDbScale
 70
     0
300
1:1
140
1.0
141
1.0
290
     1
  0
SCALE
  5
44
102
{ACAD_REACTORS
330
42
102
}
330
42
100
AcDbScale
 70
     0
300
1/128" = 1'-0"
140
0.0078125
141
12.0
290
     0
  0
SCALE
  5
45
102
{ACAD_REACTORS
330
42
102
}
330
42
100
AcDbScale
 70
     0
300
1/64" = 1'-0"
140
0.015625
141
12.0
290
     0
  0
SCALE
  5
46
102
{ACAD_REACTORS
330
42
102
}
330
42
100
AcDbScale
 70
     0
300
1/32" = 1'-0"
140
0.03125
141
12.0
290
     0
  0
SCALE
  5
47
102
{ACAD_REACTORS
330
42
102
}
330
42
100
AcDbScale
 70
     0
300
1/16" = 1'-0"
140
0.0625
141
12.0
290
     0
  0
SCALE
  5
48
102
{ACAD_REACTORS
330
42
102
}
330
42
100
AcDbScale
 70
     0
300
3/32" = 1'-0"
140
0.09375
141
12.0
290
     0
  0
SCALE
  5
49
102
{ACAD_REACTORS
330
42
102
}
330
42
100
AcDbScale
 70
     0
300
1/8" = 1'-0"
140
0.125
141
12.0
290
     0
  0
SCALE
  5
4A
102
{ACAD_REACTORS
330
42
102
}
330
42
100
AcDbScale
 70
     0
300
3/16" = 1'-0"
140
0.1875
141
12.0
290
     0
  0
SCALE
  5
4B
102
{ACAD_REACTORS
330
42
102
}
330
42
100
AcDbScale
 70
     0
300
1/4" = 1'-0"
140
0.25
141
12.0
290
     0
  0
SCALE
  5
4C
102
{ACAD_REACTORS
330
42
102
}
330
42
100
AcDbScale
 70
     0
300
3/8" = 1'-0"
140
0.375
141
12.0
290
     0
  0
SCALE
  5
4D
102
{ACAD_REACTORS
330
42
102
}
330
42
100
AcDbScale
 70
     0
300
1/2" = 1'-0"
140
0.5
141
12.0
290
     0
  0
SCALE
  5
4E
102
{ACAD_REACTORS
330
42
102
}
330
42
100
AcDbScale
 70
     0
300
3/4" = 1'-0"
140
0.75
141
12.0
290
     0
  0
SCALE
  5
4F
102
{ACAD_REACTORS
330
42
102
}
330
42
100
AcDbScale
 70
     0
300
1" = 1'-0"
140
1.0
141
12.0
290
     0
  0
SCALE
  5
50
102
{ACAD_REACTORS
330
42
102
}
330
42
100
AcDbScale
 70
     0
300
1-1/2" = 1'-0"
140
1.5
141
12.0
290
     0
  0
SCALE
  5
51
102
{ACAD_REACTORS
330
42
102
}
330
42
100
AcDbScale
 70
     0
300
3" = 1'-0"
140
3.0
141
12.0
290
     0
  0
SCALE
  5
52
102
{ACAD_REACTORS
330
42
102
}
330
42
100
AcDbScale
 70
     0
300
6" = 1'-0"
140
6.0
141
12.0
290
     0
  0
SCALE
  5
53
102
{ACAD_REACTORS
330
42
102
}
330
42
100
AcDbScale
 70
     0
300
1'-0" = 1'-0"
140
12.0
141
12.0
290
     0
  0
ACDBSECTIONVIEWSTYLE
  5
69
102
{ACAD_REACTORS
330
68
102
}
330
68
100
AcDbModelDocViewStyle
 70
     0
  3
Imperial24
290
     1
300
Imperial24
 90
        0
100
AcDbSectionViewStyle
 70
     0
 71
     0
 90
       78
 71
     1
340
55
 62
   256
 40
0.24
340
0
340
0
 62
   256
 40
0.24
300
I, O, Q, S, X, Z
 40
0.48
 90
        3
 40
0.18
 90
        1
 71
     2
340
5D
 90
       25
 62
   256
340
5D
 90
       50
 62
   256
 40
0.24
 40
0.0
 40
0.24
 71
     3
340
55
 62
   256
 40
0.24
 90
        1
 40
0.75
 90
        1
300
%<\AcVar ViewType \f "%tc1">% %<\AcVar ViewSectionStartId>%-%<\AcVar ViewSectionEndId>%\PSCALE %<\AcVar ViewScale \f "%sn">%
 71
     4
 62
   256
 62
   257
300
ANSI31
 40
1.0
 90
        0
290
     0
290
     0
 90
        6
 40
0.0
 40
1.570796326794896
 40
0.2617993877991494
 40
1.308996938995747
 40
-0.2617993877991494
 40
1.832595714594046
  0
TABLESTYLE
  5
65
102
{ACAD_XDICTIONARY
360
B7
102
}
102
{ACAD_REACTORS
330
64
102
}
330
64
100
AcDbTableStyle
280
     0
  3
Standard
 70
     0
 71
     0
 40
0.06
 41
0.06
280
     0
281
     0
  7
Standard
140
0.18
170
     2
 62
     0
 63
     7
283
     0
 90
      512
 91
        0
  1

274
    -2
284
     1
 64
     0
275
    -2
285
     1
 65
     0
276
    -2
286
     1
 66
     0
277
    -2
287
     1
 67
     0
278
    -2
288
     1
 68
     0
279
    -2
289
     1
 69
     0
  7
Standard
140
0.25
170
     5
 62
     0
 63
     7
283
     0
 90
      512
 91
        0
  1

274
    -2
284
     1
 64
     0
275
    -2
285
     1
 65
     0
276
    -2
286
     1
 66
     0
277
    -2
287
     1
 67
     0
278
    -2
288
     1
 68
     0
279
    -2
289
     1
 69
     0
  7
Standard
140
0.18
170
     5
 62
     0
 63
     7
283
     0
 90
      512
 91
        0
  1

274
    -2
284
     1
 64
     0
275
    -2
285
     1
 65
     0
276
    -2
286
     1
 66
     0
277
    -2
287
     1
 67
     0
278
    -2
288
     1
 68
     0
279
    -2
289
     1
 69
     0
  0
VISUALSTYLE
  5
2F
102
{ACAD_REACTORS
330
29
102
}
330
29
100
AcDbVisualStyle
  2
2dWireframe
 70
     4
177
     3
291
     0
 70
    58
 90
        0
176
     1
 90
        2
176
     1
 90
        0
176
     1
 90
        0
176
     1
 40
0.6
176
     1
 40
30.0
176
     1
 62
     7
420
 16777215
176
     1
 90
        1
176
     1
 90
        4
176
     1
 62
     7
176
     1
 62
   257
176
     1
 90
        1
176
     1
 90
        1
176
     1
 40
1.0
176
     1
 90
        0
176
     1
 62
   257
176
     1
 40
1.0
176
     1
 90
        1
176
     1
 90
        6
176
     1
 90
        2
176
     1
 62
     7
176
     1
 90
        5
176
     1
 90
        0
176
     1
 90
        0
176
     1
290
     0
176
     1
 90
        1
176
     1
 40
0.0
176
     1
 90
        0
176
     1
290
     1
176
     1
290
     1
176
     1
290
     0
176
     1
290
     0
176
     1
290
     0
176
     1
290
     0
176
     1
290
     0
176
     1
290
     0
176
     1
290
     0
176
     1
 90
       50
176
     1
 40
0.0
176
     1
 40
1.0
176
     1
 90
        0
176
     1
 62
    18
420
        0
176
     1
 90
       50
176
     1
 90
        3
176
     1
 62
     5
420
      255
176
     1
290
     0
176
     1
 90
       50
176
     1
 90
       50
176
     1
 90
       50
176
     1
290
     0
176
     1
 90
       50
176
     1
 62
   256
176
     0
 40
1.0
176
     0
 90
        2
176
     1
  1
strokes_ogs.tif
176
     1
290
     0
176
     1
 40
1.0
176
     1
 40
1.0
176
     1
  0
VISUALSTYLE
  5
2E
102
{ACAD_REACTORS
330
29
102
}
330
29
100
AcDbVisualStyle
  2
Basic
 70
     7
177
     3
291
     1
 70
    58
 90
        1
176
     1
 90
        0
176
     1
 90
        1
176
     1
 90
        0
176
     1
 40
0.6
176
     1
 40
30.0
176
     1
 62
     7
420
 16777215
176
     1
 90
        0
176
     1
 90
        4
176
     1
 62
     7
176
     1
 62
   257
176
     1
 90
        1
176
     1
 90
        1
176
     1
 40
1.0
176
     1
 90
        8
176
     1
 62
     7
176
     1
 40
1.0
176
     1
 90
        1
176
     1
 90
        6
176
     1
 90
        2
176
     1
 62
     7
176
     1
 90
        5
176
     1
 90
        0
176
     1
 90
        0
176
     1
290
     0
176
     1
 90
        1
176
     1
 40
0.0
176
     1
 90
        0
176
     1
290
     0
176
     1
290
     1
176
     1
290
     1
176
     1
290
     0
176
     1
290
     0
176
     1
290
     0
176
     1
290
     0
176
     1
290
     0
176
     1
290
     0
176
     1
 90
       50
176
     1
 40
0.0
176
     1
 40
1.0
176
     1
 90
        0
176
     1
 62
    18
420
        0
176
     1
 90
       50
176
     1
 90
        3
176
     1
 62
     5
420
      255
176
     1
290
     0
176
     1
 90
       50
176
     1
 90
       50
176
     1
 90
       50
176
     1
290
     0
176
     1
 90
       50
176
     1
 62
   256
176
     0
 40
1.0
176
     0
 90
        2
176
     1
  1
strokes_ogs.tif
176
     1
290
     0
176
     1
 40
1.0
176
     1
 40
1.0
176
     1
  0
VISUALSTYLE
  5
35
102
{ACAD_REACTORS
330
29
102
}
330
29
100
AcDbVisualStyle
  2
Brighten
 70
    12
177
     3
291
     1
 70
    58
 90
        2
176
     1
 90
        2
176
     1
 90
        0
176
     1
 90
        0
176
     1
 40
0.6
176
     1
 40
30.0
176
     1
 62
     7
420
 16777215
176
     1
 90
        1
176
     1
 90
        4
176
     1
 62
     7
176
     1
 62
   257
176
     1
 90
        1
176
     1
 90
        1
176
     1
 40
1.0
176
     1
 90
        8
176
     1
 62
     7
176
     1
 40
1.0
176
     1
 90
        1
176
     1
 90
        6
176
     1
 90
        2
176
     1
 62
     7
176
     1
 90
        5
176
     1
 90
        0
176
     1
 90
        0
176
     1
290
     0
176
     1
 90
        1
176
     1
 40
50.0
176
     1
 90
        0
176
     1
290
     0
176
     1
290
     1
176
     1
290
     1
176
     1
290
     0
176
     1
290
     0
176
     1
290
     0
176
     1
290
     0
176
     1
290
     0
176
     1
290
     0
176
     1
 90
       50
176
     1
 40
0.0
176
     1
 40
1.0
176
     1
 90
        0
176
     1
 62
    18
420
        0
176
     1
 90
       50
176
     1
 90
        3
176
     1
 62
     5
420
      255
176
     1
290
     0
176
     1
 90
       50
176
     1
 90
       50
176
     1
 90
       50
176
     1
290
     0
176
     1
 90
       50
176
     1
 62
   256
176
     0
 40
1.0
176
     0
 90
        2
176
     1
  1
strokes_ogs.tif
176
     1
290
     0
176
     1
 40
1.0
176
     1
 40
1.0
176
     1
  0
VISUALSTYLE
  5
39
102
{ACAD_REACTORS
330
29
102
}
330
29
100
AcDbVisualStyle
  2
ColorChange
 70
    16
177
     3
291
     1
 70
    58
 90
        2
176
     1
 90
        2
176
     1
 90
        3
176
     1
 90
        0
176
     1
 40
0.6
176
     1
 40
30.0
176
     1
 62
     8
420
  8421504
176
     1
 90
        1
176
     1
 90
        4
176
     1
 62
     7
176
     1
 62
   257
176
     1
 90
        1
176
     1
 90
        1
176
     1
 40
1.0
176
     1
 90
        8
176
     1
 62
     8
420
  8421504
176
     1
 40
1.0
176
     1
 90
        1
176
     1
 90
        6
176
     1
 90
        2
176
     1
 62
     7
176
     1
 90
        5
176
     1
 90
        0
176
     1
 90
        0
176
     1
290
     0
176
     1
 90
        1
176
     1
 40
0.0
176
     1
 90
        0
176
     1
290
     0
176
     1
290
     1
176
     1
290
     1
176
     1
290
     0
176
     1
290
     0
176
     1
290
     0
176
     1
290
     0
176
     1
290
     0
176
     1
290
     0
176
     1
 90
       50
176
     1
 40
0.0
176
     1
 40
1.0
176
     1
 90
        0
176
     1
 62
    18
420
        0
176
     1
 90
       50
176
     1
 90
        3
176
     1
 62
     5
420
      255
176
     1
290
     0
176
     1
 90
       50
176
     1
 90
       50
176
     1
 90
       50
176
     1
290
     0
176
     1
 90
       50
176
     1
 62
   256
176
     0
 40
1.0
176
     0
 90
        2
176
     1
  1
strokes_ogs.tif
176
     1
290
     0
176
     1
 40
1.0
176
     1
 40
1.0
176
     1
  0
VISUALSTYLE
  5
32
102
{ACAD_REACTORS
330
29
102
}
330
29
100
AcDbVisualStyle
  2
Conceptual
 70
     9
177
     3
291
     0
 70
    58
 90
        3
176
     1
 90
        2
176
     1
 90
        0
176
     1
 90
        0
176
     1
 40
0.6
176
     1
 40
30.0
176
     1
 62
     7
420
 16777215
176
     1
 90
        2
176
     1
 90
        2
176
     1
 62
     7
176
     1
 62
   257
176
     1
 90
        1
176
     1
 90
        1
176
     1
 40
179.0
176
     1
 90
        8
176
     1
 62
     7
176
     1
 40
1.0
176
     1
 90
        1
176
     1
 90
        6
176
     1
 90
        2
176
     1
 62
     7
176
     1
 90
        3
176
     1
 90
        0
176
     1
 90
        0
176
     1
290
     0
176
     1
 90
        1
176
     1
 40
0.0
176
     1
 90
        0
176
     1
290
     0
176
     1
290
     1
176
     1
290
     1
176
     1
290
     0
176
     1
290
     0
176
     1
290
     0
176
     1
290
     0
176
     1
290
     0
176
     1
290
     0
176
     1
 90
       50
176
     1
 40
0.0
176
     1
 40
1.0
176
     1
 90
        0
176
     1
 62
    18
420
        0
176
     1
 90
       50
176
     1
 90
        3
176
     1
 62
     5
420
      255
176
     1
290
     0
176
     1
 90
       50
176
     1
 90
       50
176
     1
 90
       50
176
     1
290
     0
176
     1
 90
       50
176
     1
 62
   256
176
     0
 40
1.0
176
     0
 90
        2
176
     1
  1
strokes_ogs.tif
176
     1
290
     0
176
     1
 40
1.0
176
     1
 40
1.0
176
     1
  0
VISUALSTYLE
  5
34
102
{ACAD_REACTORS
330
29
102
}
330
29
100
AcDbVisualStyle
  2
Dim
 70
    11
177
     3
291
     1
 70
    58
 90
        2
176
     1
 90
        2
176
     1
 90
        0
176
     1
 90
        0
176
     1
 40
0.6
176
     1
 40
30.0
176
     1
 62
     7
420
 16777215
176
     1
 90
        1
176
     1
 90
        4
176
     1
 62
     7
176
     1
 62
   257
176
     1
 90
        1
176
     1
 90
        1
176
     1
 40
1.0
176
     1
 90
        8
176
     1
 62
     7
176
     1
 40
1.0
176
     1
 90
        1
176
     1
 90
        6
176
     1
 90
        2
176
     1
 62
     7
176
     1
 90
        5
176
     1
 90
        0
176
     1
 90
        0
176
     1
290
     0
176
     1
 90
        1
176
     1
 40
-50.0
176
     1
 90
        0
176
     1
290
     0
176
     1
290
     1
176
     1
290
     1
176
     1
290
     0
176
     1
290
     0
176
     1
290
     0
176
     1
290
     0
176
     1
290
     0
176
     1
290
     0
176
     1
 90
       50
176
     1
 40
0.0
176
     1
 40
1.0
176
     1
 90
        0
176
     1
 62
    18
420
        0
176
     1
 90
       50
176
     1
 90
        3
176
     1
 62
     5
420
      255
176
     1
290
     0
176
     1
 90
       50
176
     1
 90
       50
176
     1
 90
       50
176
     1
290
     0
176
     1
 90
       50
176
     1
 62
   256
176
     0
 40
1.0
176
     0
 90
        2
176
     1
  1
strokes_ogs.tif
176
     1
290
     0
176
     1
 40
1.0
176
     1
 40
1.0
176
     1
  0
VISUALSTYLE
  5
41
102
{ACAD_REACTORS
330
29
102
}
330
29
100
AcDbVisualStyle
  2
EdgeColorOff
 70
    22
177
     3
291
     1
 70
    58
 90
        2
176
     0
 90
        2
176
     0
 90
        0
176
     0
 90
        0
176
     0
 40
0.6
176
     0
 40
30.0
176
     0
 62
     7
420
 16777215
176
     0
 90
        1
176
     0
 90
        4
176
     0
 62
     7
176
     0
 62
   257
176
     0
 90
        1
176
     0
 90
        1
176
     0
 40
1.0
176
     0
 90
        8
176
     2
 62
     7
176
     0
 40
1.0
176
     0
 90
        1
176
     0
 90
        6
176
     0
 90
        2
176
     0
 62
     7
176
     0
 90
        5
176
     0
 90
        0
176
     0
 90
        0
176
     0
290
     0
176
     0
 90
        1
176
     0
 40
0.0
176
     0
 90
        0
176
     0
290
     0
176
     0
290
     1
176
     0
290
     1
176
     0
290
     0
176
     0
290
     0
176
     0
290
     0
176
     0
290
     0
176
     0
290
     0
176
     0
290
     0
176
     0
 90
       50
176
     0
 40
0.0
176
     0
 40
1.0
176
     0
 90
        0
176
     0
 62
    18
420
        0
176
     0
 90
       50
176
     0
 90
        3
176
     0
 62
     5
420
      255
176
     0
290
     0
176
     0
 90
       50
176
     0
 90
       50
176
     0
 90
       50
176
     0
290
     0
176
     0
 90
       50
176
     0
 62
   256
176
     0
 40
1.0
176
     0
 90
        2
176
     0
  1
strokes_ogs.tif
176
     0
290
     0
176
     0
 40
1.0
176
     0
 40
1.0
176
     0
  0
VISUALSTYLE
  5
38
102
{ACAD_REACTORS
330
29
102
}
330
29
100
AcDbVisualStyle
  2
Facepattern
 70
    15
177
     3
291
     1
 70
    58
 90
        2
176
     1
 90
        2
176
     1
 90
        0
176
     1
 90
        0
176
     1
 40
0.6
176
     1
 40
30.0
176
     1
 62
     7
420
 16777215
176
     1
 90
        1
176
     1
 90
        4
176
     1
 62
     7
176
     1
 62
   257
176
     1
 90
        1
176
     1
 90
        1
176
     1
 40
1.0
176
     1
 90
        8
176
     1
 62
     7
176
     1
 40
1.0
176
     1
 90
        1
176
     1
 90
        6
176
     1
 90
        2
176
     1
 62
     7
176
     1
 90
        5
176
     1
 90
        0
176
     1
 90
        0
176
     1
290
     0
176
     1
 90
        1
176
     1
 40
0.0
176
     1
 90
        0
176
     1
290
     0
176
     1
290
     1
176
     1
290
     1
176
     1
290
     0
176
     1
290
     0
176
     1
290
     0
176
     1
290
     0
176
     1
290
     0
176
     1
290
     0
176
     1
 90
       50
176
     1
 40
0.0
176
     1
 40
1.0
176
     1
 90
        0
176
     1
 62
    18
420
        0
176
     1
 90
       50
176
     1
 90
        3
176
     1
 62
     5
420
      255
176
     1
290
     0
176
     1
 90
       50
176
     1
 90
       50
176
     1
 90
       50
176
     1
290
     0
176
     1
 90
       50
176
     1
 62
   256
176
     0
 40
1.0
176
     0
 90
        2
176
     1
  1
strokes_ogs.tif
176
     1
290
     0
176
     1
 40
1.0
176
     1
 40
1.0
176
     1
  0
VISUALSTYLE
  5
2A
102
{ACAD_REACTORS
330
29
102
}
330
29
100
AcDbVisualStyle
  2
Flat
 70
     0
177
     3
291
     1
 70
    58
 90
        2
176
     1
 90
        1
176
     1
 90
        1
176
     1
 90
        2
176
     1
 40
0.6
176
     1
 40
30.0
176
     1
 62
     7
420
 16777215
176
     1
 90
        0
176
     1
 90
        0
176
     1
 62
     7
176
     1
 62
   257
176
     1
 90
        1
176
     1
 90
        1
176
     1
 40
1.0
176
     1
 90
        8
176
     1
 62
     7
176
     1
 40
1.0
176
     1
 90
        1
176
     1
 90
        6
176
     1
 90
        2
176
     1
 62
     7
176
     1
 90
        5
176
     1
 90
        0
176
     1
 90
        0
176
     1
290
     0
176
     1
 90
       13
176
     1
 40
0.0
176
     1
 90
        0
176
     1
290
     0
176
     1
290
     1
176
     1
290
     1
176
     1
290
     0
176
     1
290
     0
176
     1
290
     0
176
     1
290
     0
176
     1
290
     0
176
     1
290
     0
176
     1
 90
       50
176
     1
 40
0.0
176
     1
 40
1.0
176
     1
 90
        0
176
     1
 62
    18
420
        0
176
     1
 90
       50
176
     1
 90
        3
176
     1
 62
     5
420
      255
176
     1
290
     0
176
     1
 90
       50
176
     1
 90
       50
176
     1
 90
       50
176
     1
290
     0
176
     1
 90
       50
176
     1
 62
   256
176
     0
 40
1.0
176
     0
 90
        2
176
     1
  1
strokes_ogs.tif
176
     1
290
     0
176
     1
 40
1.0
176
     1
 40
1.0
176
     1
  0
VISUALSTYLE
  5
2B
102
{ACAD_REACTORS
330
29
102
}
330
29
100
AcDbVisualStyle
  2
FlatWithEdges
 70
     1
177
     3
291
     1
 70
    58
 90
        2
176
     1
 90
        1
176
     1
 90
        1
176
     1
 90
        2
176
     1
 40
0.6
176
     1
 40
30.0
176
     1
 62
     7
420
 16777215
176
     1
 90
        1
176
     1
 90
        0
176
     1
 62
     7
176
     1
 62
   257
176
     1
 90
        1
176
     1
 90
        1
176
     1
 40
1.0
176
     1
 90
        0
176
     1
 62
   257
176
     1
 40
1.0
176
     1
 90
        1
176
     1
 90
        6
176
     1
 90
        2
176
     1
 62
     7
176
     1
 90
        5
176
     1
 90
        0
176
     1
 90
        0
176
     1
290
     0
176
     1
 90
       13
176
     1
 40
0.0
176
     1
 90
        0
176
     1
290
     0
176
     1
290
     1
176
     1
290
     1
176
     1
290
     0
176
     1
290
     0
176
     1
290
     0
176
     1
290
     0
176
     1
290
     0
176
     1
290
     0
176
     1
 90
       50
176
     1
 40
0.0
176
     1
 40
1.0
176
     1
 90
        0
176
     1
 62
    18
420
        0
176
     1
 90
       50
176
     1
 90
        3
176
     1
 62
     5
420
      255
176
     1
290
     0
176
     1
 90
       50
176
     1
 90
       50
176
     1
 90
       50
176
     1
290
     0
176
     1
 90
       50
176
     1
 62
   256
176
     0
 40
1.0
176
     0
 90
        2
176
     1
  1
strokes_ogs.tif
176
     1
290
     0
176
     1
 40
1.0
176
     1
 40
1.0
176
     1
  0
VISUALSTYLE
  5
2C
102
{ACAD_REACTORS
330
29
102
}
330
29
100
AcDbVisualStyle
  2
Gouraud
 70
     2
177
     3
291
     1
 70
    58
 90
        2
176
     1
 90
        2
176
     1
 90
        1
176
     1
 90
        2
176
     1
 40
0.6
176
     1
 40
30.0
176
     1
 62
     7
420
 16777215
176
     1
 90
        0
176
     1
 90
        0
176
     1
 62
     7
176
     1
 62
   257
176
     1
 90
        1
176
     1
 90
        1
176
     1
 40
1.0
176
     1
 90
        0
176
     1
 62
     7
176
     1
 40
1.0
176
     1
 90
        1
176
     1
 90
        6
176
     1
 90
        2
176
     1
 62
     7
176
     1
 90
        5
176
     1
 90
        0
176
     1
 90
        0
176
     1
290
     0
176
     1
 90
       13
176
     1
 40
0.0
176
     1
 90
        0
176
     1
290
     0
176
     1
290
     1
176
     1
290
     1
176
     1
290
     0
176
     1
290
     0
176
     1
290
     0
176
     1
290
     0
176
     1
290
     0
176
     1
290
     0
176
     1
 90
       50
176
     1
 40
0.0
176
     1
 40
1.0
176
     1
 90
        0
176
     1
 62
    18
420
        0
176
     1
 90
       50
176
     1
 90
        3
176
     1
 62
     5
420
      255
176
     1
290
     0
176
     1
 90
       50
176
     1
 90
       50
176
     1
 90
       50
176
     1
290
     0
176
     1
 90
       50
176
     1
 62
   256
176
     0
 40
1.0
176
     0
 90
        2
176
     1
  1
strokes_ogs.tif
176
     1
290
     0
176
     1
 40
1.0
176
     1
 40
1.0
176
     1
  0
VISUALSTYLE
  5
2D
102
{ACAD_REACTORS
330
29
102
}
330
29
100
AcDbVisualStyle
  2
GouraudWithEdges
 70
     3
177
     3
291
     1
 70
    58
 90
        2
176
     1
 90
        2
176
     1
 90
        1
176
     1
 90
        2
176
     1
 40
0.6
176
     1
 40
30.0
176
     1
 62
     7
420
 16777215
176
     1
 90
        1
176
     1
 90
        0
176
     1
 62
     7
176
     1
 62
   257
176
     1
 90
        1
176
     1
 90
        1
176
     1
 40
1.0
176
     1
 90
        0
176
     1
 62
   257
176
     1
 40
1.0
176
     1
 90
        1
176
     1
 90
        6
176
     1
 90
        2
176
     1
 62
     7
176
     1
 90
        5
176
     1
 90
        0
176
     1
 90
        0
176
     1
290
     0
176
     1
 90
       13
176
     1
 40
0.0
176
     1
 90
        0
176
     1
290
     0
176
     1
290
     1
176
     1
290
     1
176
     1
290
     0
176
     1
290
     0
176
     1
290
     0
176
     1
290
     0
176
     1
290
     0
176
     1
290
     0
176
     1
 90
       50
176
     1
 40
0.0
176
     1
 40
1.0
176
     1
 90
        0
176
     1
 62
    18
420
        0
176
     1
 90
       50
176
     1
 90
        3
176
     1
 62
     5
420
      255
176
     1
290
     0
176
     1
 90
       50
176
     1
 90
       50
176
     1
 90
       50
176
     1
290
     0
176
     1
 90
       50
176
     1
 62
   256
176
     0
 40
1.0
176
     0
 90
        2
176
     1
  1
strokes_ogs.tif
176
     1
290
     0
176
     1
 40
1.0
176
     1
 40
1.0
176
     1
  0
VISUALSTYLE
  5
31
102
{ACAD_REACTORS
330
29
102
}
330
29
100
AcDbVisualStyle
  2
Hidden
 70
     6
177
     3
291
     0
 70
    58
 90
        1
176
     1
 90
        2
176
     1
 90
        2
176
     1
 90
        0
176
     1
 40
0.6
176
     1
 40
30.0
176
     1
 62
     7
420
 16777215
176
     1
 90
        2
176
     1
 90
        2
176
     1
 62
     7
176
     1
 62
   257
176
     1
 90
        2
176
     1
 90
        1
176
     1
 40
40.0
176
     1
 90
        0
176
     1
 62
   257
176
     1
 40
1.0
176
     1
 90
        1
176
     1
 90
        6
176
     1
 90
        2
176
     1
 62
     7
176
     1
 90
        3
176
     1
 90
        0
176
     1
 90
        0
176
     1
290
     0
176
     1
 90
        1
176
     1
 40
0.0
176
     1
 90
        0
176
     1
290
     0
176
     1
290
     1
176
     1
290
     1
176
     1
290
     0
176
     1
290
     0
176
     1
290
     0
176
     1
290
     0
176
     1
290
     0
176
     1
290
     0
176
     1
 90
       50
176
     1
 40
0.0
176
     1
 40
1.0
176
     1
 90
        0
176
     1
 62
    18
420
        0
176
     1
 90
       50
176
     1
 90
        3
176
     1
 62
     5
420
      255
176
     1
290
     0
176
     1
 90
       50
176
     1
 90
       50
176
     1
 90
       50
176
     1
290
     0
176
     1
 90
       50
176
     1
 62
   256
176
     0
 40
1.0
176
     0
 90
        2
176
     1
  1
strokes_ogs.tif
176
     1
290
     0
176
     1
 40
1.0
176
     1
 40
1.0
176
     1
  0
VISUALSTYLE
  5
3F
102
{ACAD_REACTORS
330
29
102
}
330
29
100
AcDbVisualStyle
  2
JitterOff
 70
    20
177
     3
291
     1
 70
    58
 90
        2
176
     0
 90
        2
176
     0
 90
        0
176
     0
 90
        0
176
     0
 40
0.6
176
     0
 40
30.0
176
     0
 62
     7
420
 16777215
176
     0
 90
        1
176
     0
 90
        4
176
     0
 62
     7
176
     0
 62
   257
176
     0
 90
        1
176
     0
 90
        1
176
     0
 40
1.0
176
     0
 90
       10
176
     2
 62
     7
176
     0
 40
1.0
176
     0
 90
        1
176
     0
 90
        6
176
     0
 90
        2
176
     0
 62
     7
176
     0
 90
        5
176
     0
 90
        0
176
     0
 90
        0
176
     0
290
     0
176
     0
 90
        1
176
     0
 40
0.0
176
     0
 90
        0
176
     0
290
     0
176
     0
290
     1
176
     0
290
     1
176
     0
290
     0
176
     0
290
     0
176
     0
290
     0
176
     0
290
     0
176
     0
290
     0
176
     0
290
     0
176
     0
 90
       50
176
     0
 40
0.0
176
     0
 40
1.0
176
     0
 90
        0
176
     0
 62
    18
420
        0
176
     0
 90
       50
176
     0
 90
        3
176
     0
 62
     5
420
      255
176
     0
290
     0
176
     0
 90
       50
176
     0
 90
       50
176
     0
 90
       50
176
     0
290
     0
176
     0
 90
       50
176
     0
 62
   256
176
     0
 40
1.0
176
     0
 90
        2
176
     0
  1
strokes_ogs.tif
176
     0
290
     0
176
     0
 40
1.0
176
     0
 40
1.0
176
     0
  0
VISUALSTYLE
  5
37
102
{ACAD_REACTORS
330
29
102
}
330
29
100
AcDbVisualStyle
  2
Linepattern
 70
    14
177
     3
291
     1
 70
    58
 90
        2
176
     1
 90
        2
176
     1
 90
        0
176
     1
 90
        0
176
     1
 40
0.6
176
     1
 40
30.0
176
     1
 62
     7
420
 16777215
176
     1
 90
        1
176
     1
 90
        4
176
     1
 62
     7
176
     1
 62
   257
176
     1
 90
        7
176
     1
 90
        7
176
     1
 40
1.0
176
     1
 90
        8
176
     1
 62
     7
176
     1
 40
1.0
176
     1
 90
        1
176
     1
 90
        6
176
     1
 90
        2
176
     1
 62
     7
176
     1
 90
        5
176
     1
 90
        0
176
     1
 90
        0
176
     1
290
     0
176
     1
 90
        1
176
     1
 40
0.0
176
     1
 90
        0
176
     1
290
     0
176
     1
290
     1
176
     1
290
     1
176
     1
290
     0
176
     1
290
     0
176
     1
290
     0
176
     1
290
     0
176
     1
290
     0
176
     1
290
     0
176
     1
 90
       50
176
     1
 40
0.0
176
     1
 40
1.0
176
     1
 90
        0
176
     1
 62
    18
420
        0
176
     1
 90
       50
176
     1
 90
        3
176
     1
 62
     5
420
      255
176
     1
290
     0
176
     1
 90
       50
176
     1
 90
       50
176
     1
 90
       50
176
     1
290
     0
176
     1
 90
       50
176
     1
 62
   256
176
     0
 40
1.0
176
     0
 90
        2
176
     1
  1
strokes_ogs.tif
176
     1
290
     0
176
     1
 40
1.0
176
     1
 40
1.0
176
     1
  0
VISUALSTYLE
  5
40
102
{ACAD_REACTORS
330
29
102
}
330
29
100
AcDbVisualStyle
  2
OverhangOff
 70
    21
177
     3
291
     1
 70
    58
 90
        2
176
     0
 90
        2
176
     0
 90
        0
176
     0
 90
        0
176
     0
 40
0.6
176
     0
 40
30.0
176
     0
 62
     7
420
 16777215
176
     0
 90
        1
176
     0
 90
        4
176
     0
 62
     7
176
     0
 62
   257
176
     0
 90
        1
176
     0
 90
        1
176
     0
 40
1.0
176
     0
 90
        9
176
     2
 62
     7
176
     0
 40
1.0
176
     0
 90
        1
176
     0
 90
        6
176
     0
 90
        2
176
     0
 62
     7
176
     0
 90
        5
176
     0
 90
        0
176
     0
 90
        0
176
     0
290
     0
176
     0
 90
        1
176
     0
 40
0.0
176
     0
 90
        0
176
     0
290
     0
176
     0
290
     1
176
     0
290
     1
176
     0
290
     0
176
     0
290
     0
176
     0
290
     0
176
     0
290
     0
176
     0
290
     0
176
     0
290
     0
176
     0
 90
       50
176
     0
 40
0.0
176
     0
 40
1.0
176
     0
 90
        0
176
     0
 62
    18
420
        0
176
     0
 90
       50
176
     0
 90
        3
176
     0
 62
     5
420
      255
176
     0
290
     0
176
     0
 90
       50
176
     0
 90
       50
176
     0
 90
       50
176
     0
290
     0
176
     0
 90
       50
176
     0
 62
   256
176
     0
 40
1.0
176
     0
 90
        2
176
     0
  1
strokes_ogs.tif
176
     0
290
     0
176
     0
 40
1.0
176
     0
 40
1.0
176
     0
  0
VISUALSTYLE
  5
33
102
{ACAD_REACTORS
330
29
102
}
330
29
100
AcDbVisualStyle
  2
Realistic
 70
     8
177
     3
291
     0
 70
    58
 90
        2
176
     1
 90
        3
176
     1
 90
        0
176
     1
 90
        2
176
     1
 40
0.6
176
     1
 40
30.0
176
     1
 62
     7
420
 16777215
176
     1
 90
        0
176
     1
 90
        0
176
     1
 62
     7
176
     1
 62
   257
176
     1
 90
        1
176
     1
 90
        1
176
     1
 40
1.0
176
     1
 90
        8
176
     1
 62
   257
176
     1
 40
1.0
176
     1
 90
        1
176
     1
 90
        6
176
     1
 90
        2
176
     1
 62
     7
176
     1
 90
        3
176
     1
 90
        0
176
     1
 90
        0
176
     1
290
     0
176
     1
 90
       13
176
     1
 40
0.0
176
     1
 90
        0
176
     1
290
     0
176
     1
290
     1
176
     1
290
     1
176
     1
290
     0
176
     1
290
     0
176
     1
290
     0
176
     1
290
     0
176
     1
290
     0
176
     1
290
     0
176
     1
 90
       50
176
     1
 40
0.0
176
     1
 40
1.0
176
     1
 90
        0
176
     1
 62
    18
420
        0
176
     1
 90
       50
176
     1
 90
        3
176
     1
 62
     5
420
      255
176
     1
290
     0
176
     1
 90
       50
176
     1
 90
       50
176
     1
 90
       50
176
     1
290
     0
176
     1
 90
       50
176
     1
 62
   256
176
     0
 40
1.0
176
     0
 90
        2
176
     1
  1
strokes_ogs.tif
176
     1
290
     0
176
     1
 40
1.0
176
     1
 40
1.0
176
     1
  0
VISUALSTYLE
  5
3E
102
{ACAD_REACTORS
330
29
102
}
330
29
100
AcDbVisualStyle
  2
Shaded
 70
    27
177
     3
291
     0
 70
    58
 90
        2
176
     1
 90
        2
176
     1
 90
        1
176
     1
 90
        2
176
     1
 40
0.6
176
     1
 40
30.0
176
     1
 62
     7
420
 16777215
176
     1
 90
        0
176
     1
 90
        4
176
     1
 62
     7
176
     1
 62
   257
176
     1
 90
        1
176
     1
 90
        1
176
     1
 40
1.0
176
     1
 90
        8
176
     1
 62
   257
176
     1
 40
1.0
176
     1
 90
        1
176
     1
 90
        6
176
     1
 90
        2
176
     1
 62
     8
420
  7895160
176
     1
 90
        3
176
     1
 90
        0
176
     1
 90
        0
176
     1
290
     0
176
     1
 90
        5
176
     1
 40
0.0
176
     1
 90
        0
176
     1
290
     0
176
     1
290
     1
176
     1
290
     1
176
     1
290
     0
176
     1
290
     0
176
     1
290
     0
176
     1
290
     0
176
     1
290
     0
176
     1
290
     0
176
     1
 90
       50
176
     1
 40
0.0
176
     1
 40
1.0
176
     1
 90
        0
176
     1
 62
    18
420
        0
176
     1
 90
       50
176
     1
 90
        3
176
     1
 62
     5
420
      255
176
     1
290
     0
176
     1
 90
       50
176
     1
 90
       50
176
     1
 90
       50
176
     1
290
     0
176
     1
 90
       50
176
     1
 62
   256
176
     0
 40
1.0
176
     0
 90
        2
176
     1
  1
strokes_ogs.tif
176
     1
290
     0
176
     1
 40
1.0
176
     1
 40
1.0
176
     1
  0
VISUALSTYLE
  5
3D
102
{ACAD_REACTORS
330
29
102
}
330
29
100
AcDbVisualStyle
  2
Shaded with edges
 70
    26
177
     3
291
     0
 70
    58
 90
        2
176
     1
 90
        2
176
     1
 90
        1
176
     1
 90
        2
176
     1
 40
0.6
176
     1
 40
30.0
176
     1
 62
     7
420
 16777215
176
     1
 90
        1
176
     1
 90
        2
176
     1
 62
     7
176
     1
 62
   257
176
     1
 90
        2
176
     1
 90
        1
176
     1
 40
1.0
176
     1
 90
        8
176
     1
 62
   257
176
     1
 40
1.0
176
     1
 90
        1
176
     1
 90
        6
176
     1
 90
        2
176
     1
 62
     7
176
     1
 90
        3
176
     1
 90
        0
176
     1
 90
        0
176
     1
290
     0
176
     1
 90
        5
176
     1
 40
0.0
176
     1
 90
        0
176
     1
290
     0
176
     1
290
     1
176
     1
290
     1
176
     1
290
     0
176
     1
290
     0
176
     1
290
     0
176
     1
290
     0
176
     1
290
     0
176
     1
290
     0
176
     1
 90
       50
176
     1
 40
0.0
176
     1
 40
1.0
176
     1
 90
        0
176
     1
 62
    18
420
        0
176
     1
 90
       50
176
     1
 90
        3
176
     1
 62
     5
420
      255
176
     1
290
     0
176
     1
 90
       50
176
     1
 90
       50
176
     1
 90
       50
176
     1
290
     0
176
     1
 90
       50
176
     1
 62
   256
176
     0
 40
1.0
176
     0
 90
        2
176
     1
  1
strokes_ogs.tif
176
     1
290
     0
176
     1
 40
1.0
176
     1
 40
1.0
176
     1
  0
VISUALSTYLE
  5
3A
102
{ACAD_REACTORS
330
29
102
}
330
29
100
AcDbVisualStyle
  2
Shades of Gray
 70
    23
177
     3
291
     0
 70
    58
 90
        2
176
     1
 90
        2
176
     1
 90
        3
176
     1
 90
        0
176
     1
 40
0.6
176
     1
 40
30.0
176
     1
 62
     7
420
 16777215
176
     1
 90
        2
176
     1
 90
        2
176
     1
 62
     7
176
     1
 62
     7
176
     1
 90
        1
176
     1
 90
        1
176
     1
 40
40.0
176
     1
 90
        8
176
     1
 62
     7
176
     1
 40
1.0
176
     1
 90
        1
176
     1
 90
        6
176
     1
 90
        2
176
     1
 62
     7
176
     1
 90
        3
176
     1
 90
        0
176
     1
 90
        0
176
     1
290
     0
176
     1
 90
        1
176
     1
 40
0.0
176
     1
 90
        0
176
     1
290
     0
176
     1
290
     1
176
     1
290
     1
176
     1
290
     0
176
     1
290
     0
176
     1
290
     0
176
     1
290
     0
176
     1
290
     0
176
     1
290
     0
176
     1
 90
       50
176
     1
 40
0.0
176
     1
 40
1.0
176
     1
 90
        0
176
     1
 62
    18
420
        0
176
     1
 90
       50
176
     1
 90
        3
176
     1
 62
     5
420
      255
176
     1
290
     0
176
     1
 90
       50
176
     1
 90
       50
176
     1
 90
       50
176
     1
290
     0
176
     1
 90
       50
176
     1
 62
   256
176
     0
 40
1.0
176
     0
 90
        2
176
     1
  1
strokes_ogs.tif
176
     1
290
     0
176
     1
 40
1.0
176
     1
 40
1.0
176
     1
  0
VISUALSTYLE
  5
3B
102
{ACAD_REACTORS
330
29
102
}
330
29
100
AcDbVisualStyle
  2
Sketchy
 70
    24
177
     3
291
     0
 70
    58
 90
        1
176
     1
 90
        2
176
     1
 90
        2
176
     1
 90
        0
176
     1
 40
0.6
176
     1
 40
30.0
176
     1
 62
     7
420
 16777215
176
     1
 90
        2
176
     1
 90
        2
176
     1
 62
     7
176
     1
 62
     7
176
     1
 90
        1
176
     1
 90
        1
176
     1
 40
40.0
176
     1
 90
       11
176
     1
 62
     7
176
     1
 40
1.0
176
     1
 90
        1
176
     1
 90
        6
176
     1
 90
        2
176
     1
 62
     7
176
     1
 90
        6
176
     1
 90
        0
176
     1
 90
        0
176
     1
290
     0
176
     1
 90
        1
176
     1
 40
0.0
176
     1
 90
        0
176
     1
290
     0
176
     1
290
     1
176
     1
290
     1
176
     1
290
     0
176
     1
290
     0
176
     1
290
     0
176
     1
290
     0
176
     1
290
     0
176
     1
290
     0
176
     1
 90
       50
176
     1
 40
0.0
176
     1
 40
1.0
176
     1
 90
        0
176
     1
 62
    18
420
        0
176
     1
 90
       50
176
     1
 90
        3
176
     1
 62
     5
420
      255
176
     1
290
     0
176
     1
 90
       50
176
     1
 90
       50
176
     1
 90
       50
176
     1
290
     0
176
     1
 90
       50
176
     1
 62
   256
176
     0
 40
1.0
176
     0
 90
        2
176
     1
  1
strokes_ogs.tif
176
     1
290
     0
176
     1
 40
1.0
176
     1
 40
1.0
176
     1
  0
VISUALSTYLE
  5
36
102
{ACAD_REACTORS
330
29
102
}
330
29
100
AcDbVisualStyle
  2
Thicken
 70
    13
177
     3
291
     1
 70
    58
 90
        2
176
     1
 90
        2
176
     1
 90
        0
176
     1
 90
        0
176
     1
 40
0.6
176
     1
 40
30.0
176
     1
 62
     7
420
 16777215
176
     1
 90
        1
176
     1
 90
        4
176
     1
 62
     7
176
     1
 62
   257
176
     1
 90
        1
176
     1
 90
        1
176
     1
 40
1.0
176
     1
 90
       12
176
     1
 62
     7
176
     1
 40
1.0
176
     1
 90
        1
176
     1
 90
        6
176
     1
 90
        2
176
     1
 62
     7
176
     1
 90
        5
176
     1
 90
        0
176
     1
 90
        0
176
     1
290
     0
176
     1
 90
        1
176
     1
 40
0.0
176
     1
 90
        0
176
     1
290
     0
176
     1
290
     1
176
     1
290
     1
176
     1
290
     0
176
     1
290
     0
176
     1
290
     0
176
     1
290
     0
176
     1
290
     0
176
     1
290
     0
176
     1
 90
       50
176
     1
 40
0.0
176
     1
 40
1.0
176
     1
 90
        0
176
     1
 62
    18
420
        0
176
     1
 90
       50
176
     1
 90
        3
176
     1
 62
     5
420
      255
176
     1
290
     0
176
     1
 90
       50
176
     1
 90
       50
176
     1
 90
       50
176
     1
290
     0
176
     1
 90
       50
176
     1
 62
   256
176
     0
 40
1.0
176
     0
 90
        2
176
     1
  1
strokes_ogs.tif
176
     1
290
     0
176
     1
 40
1.0
176
     1
 40
1.0
176
     1
  0
VISUALSTYLE
  5
30
102
{ACAD_REACTORS
330
29
102
}
330
29
100
AcDbVisualStyle
  2
Wireframe
 70
     5
177
     3
291
     0
 70
    58
 90
        0
176
     1
 90
        2
176
     1
 90
        0
176
     1
 90
        0
176
     1
 40
0.6
176
     1
 40
30.0
176
     1
 62
     7
420
 16777215
176
     1
 90
        1
176
     1
 90
        4
176
     1
 62
     7
176
     1
 62
   257
176
     1
 90
        1
176
     1
 90
        1
176
     1
 40
1.0
176
     1
 90
        0
176
     1
 62
   257
176
     1
 40
1.0
176
     1
 90
        1
176
     1
 90
        6
176
     1
 90
        2
176
     1
 62
     7
176
     1
 90
        3
176
     1
 90
        0
176
     1
 90
        0
176
     1
290
     0
176
     1
 90
        1
176
     1
 40
0.0
176
     1
 90
        0
176
     1
290
     0
176
     1
290
     1
176
     1
290
     1
176
     1
290
     0
176
     1
290
     0
176
     1
290
     0
176
     1
290
     0
176
     1
290
     0
176
     1
290
     0
176
     1
 90
       50
176
     1
 40
0.0
176
     1
 40
1.0
176
     1
 90
        0
176
     1
 62
    18
420
        0
176
     1
 90
       50
176
     1
 90
        3
176
     1
 62
     5
420
      255
176
     1
290
     0
176
     1
 90
       50
176
     1
 90
       50
176
     1
 90
       50
176
     1
290
     0
176
     1
 90
       50
176
     1
 62
   256
176
     0
 40
1.0
176
     0
 90
        2
176
     1
  1
strokes_ogs.tif
176
     1
290
     0
176
     1
 40
1.0
176
     1
 40
1.0
176
     1
  0
VISUALSTYLE
  5
3C
102
{ACAD_REACTORS
330
29
102
}
330
29
100
AcDbVisualStyle
  2
X-Ray
 70
    25
177
     3
291
     0
 70
    58
 90
        2
176
     1
 90
        2
176
     1
 90
        1
176
     1
 90
        1
176
     1
 40
0.5
176
     1
 40
30.0
176
     1
 62
     7
420
 16777215
176
     1
 90
        1
176
     1
 90
        0
176
     1
 62
     7
176
     1
 62
   257
176
     1
 90
        1
176
     1
 90
        1
176
     1
 40
1.0
176
     1
 90
        8
176
     1
 62
     7
176
     1
 40
1.0
176
     1
 90
        1
176
     1
 90
        6
176
     1
 90
        2
176
     1
 62
     7
176
     1
 90
        3
176
     1
 90
        0
176
     1
 90
        0
176
     1
290
     0
176
     1
 90
       13
176
     1
 40
0.0
176
     1
 90
        0
176
     1
290
     0
176
     1
290
     1
176
     1
290
     1
176
     1
290
     0
176
     1
290
     0
176
     1
290
     0
176
     1
290
     0
176
     1
290
     0
176
     1
290
     0
176
     1
 90
       50
176
     1
 40
0.0
176
     1
 40
1.0
176
     1
 90
        0
176
     1
 62
    18
420
        0
176
     1
 90
       50
176
     1
 90
        3
176
     1
 62
     5
420
      255
176
     1
290
     0
176
     1
 90
       50
176
     1
 90
       50
176
     1
 90
       50
176
     1
290
     0
176
     1
 90
       50
176
     1
 62
   256
176
     0
 40
1.0
176
     0
 90
        2
176
     1
  1
strokes_ogs.tif
176
     1
290
     0
176
     1
 40
1.0
176
     1
 40
1.0
176
     1
  0
DICTIONARYVAR
  5
B6
102
{ACAD_REACTORS
330
B1
102
}
330
B1
100
DictionaryVariables
280
     0
  1
1:1
  0
DICTIONARYVAR
  5
B3
102
{ACAD_REACTORS
330
B1
102
}
330
B1
100
DictionaryVariables
280
     0
  1
STANDARD
  0
DICTIONARYVAR
  5
B2
102
{ACAD_REACTORS
330
B1
102
}
330
B1
100
DictionaryVariables
280
     0
  1
STANDARD
  0
DICTIONARYVAR
  5
B4
102
{ACAD_REACTORS
330
B1
102
}
330
B1
100
DictionaryVariables
280
     0
  1
Imperial24
  0
DICTIONARYVAR
  5
B5
102
{ACAD_REACTORS
330
B1
102
}
330
B1
100
DictionaryVariables
280
     0
  1
Imperial24
  0
DICTIONARY
  5
1A
330
19
100
AcDbDictionary
280
     1
281
     1
  3
BUMPTILE
360
1C
  3
DIFFUSETILE
360
1B
  3
OPACITYTILE
360
1F
  3
REFLECTIONTILE
360
1E
  3
REFRACTIONTILE
360
20
  3
SPECULARTILE
360
1D
  0
DICTIONARY
  5
12
330
11
100
AcDbDictionary
280
     1
281
     1
  3
BUMPTILE
360
14
  3
DIFFUSETILE
360
13
  3
OPACITYTILE
360
17
  3
REFLECTIONTILE
360
16
  3
REFRACTIONTILE
360
18
  3
SPECULARTILE
360
15
  0
DICTIONARY
  5
22
330
21
100
AcDbDictionary
280
     1
281
     1
  3
BUMPTILE
360
24
  3
DIFFUSETILE
360
23
  3
OPACITYTILE
360
27
  3
REFLECTIONTILE
360
26
  3
REFRACTIONTILE
360
28
  3
SPECULARTILE
360
25
  0
DICTIONARY
  5
B7
330
65
100
AcDbDictionary
280
     1
281
     1
  3
ACAD_ROUNDTRIP_2008_TABLESTYLE_CELLSTYLEMAP
360
B8
  0
XRECORD
  5
1C
102
{ACAD_REACTORS
330
1A
102
}
330
1A
100
AcDbXrecord
280
     1
270
     1
271
     1
  0
XRECORD
  5
1B
102
{ACAD_REACTORS
330
1A
102
}
330
1A
100
AcDbXrecord
280
     1
270
     1
271
     1
  0
XRECORD
  5
1F
102
{ACAD_REACTORS
330
1A
102
}
330
1A
100
AcDbXrecord
280
     1
270
     1
271
     1
  0
XRECORD
  5
1E
102
{ACAD_REACTORS
330
1A
102
}
330
1A
100
AcDbXrecord
280
     1
270
     1
271
     1
  0
XRECORD
  5
20
102
{ACAD_REACTORS
330
1A
102
}
330
1A
100
AcDbXrecord
280
     1
270
     1
271
     1
  0
XRECORD
  5
1D
102
{ACAD_REACTORS
330
1A
102
}
330
1A
100
AcDbXrecord
280
     1
270
     1
271
     1
  0
XRECORD
  5
14
102
{ACAD_REACTORS
330
12
102
}
330
12
100
AcDbXrecord
280
     1
270
     1
271
     1
  0
XRECORD
  5
13
102
{ACAD_REACTORS
330
12
102
}
330
12
100
AcDbXrecord
280
     1
270
     1
271
     1
  0
XRECORD
  5
17
102
{ACAD_REACTORS
330
12
102
}
330
12
100
AcDbXrecord
280
     1
270
     1
271
     1
  0
XRECORD
  5
16
102
{ACAD_REACTORS
330
12
102
}
330
12
100
AcDbXrecord
280
     1
270
     1
271
     1
  0
XRECORD
  5
18
102
{ACAD_REACTORS
330
12
102
}
330
12
100
AcDbXrecord
280
     1
270
     1
271
     1
  0
XRECORD
  5
15
102
{ACAD_REACTORS
330
12
102
}
330
12
100
AcDbXrecord
280
     1
270
     1
271
     1
  0
XRECORD
  5
24
102
{ACAD_REACTORS
330
22
102
}
330
22
100
AcDbXrecord
280
     1
270
     1
271
     1
  0
XRECORD
  5
23
102
{ACAD_REACTORS
330
22
102
}
330
22
100
AcDbXrecord
280
     1
270
     1
271
     1
  0
XRECORD
  5
27
102
{ACAD_REACTORS
330
22
102
}
330
22
100
AcDbXrecord
280
     1
270
     1
271
     1
  0
XRECORD
  5
26
102
{ACAD_REACTORS
330
22
102
}
330
22
100
AcDbXrecord
280
     1
270
     1
271
     1
  0
XRECORD
  5
28
102
{ACAD_REACTORS
330
22
102
}
330
22
100
AcDbXrecord
280
     1
270
     1
271
     1
  0
XRECORD
  5
25
102
{ACAD_REACTORS
330
22
102
}
330
22
100
AcDbXrecord
280
     1
270
     1
271
     1
  0
CELLSTYLEMAP
  5
B8
102
{ACAD_REACTORS
330
B7
102
}
330
B7
100
AcDbCellStyleMap
 90
        3
300
CELLSTYLE
  1
TABLEFORMAT_BEGIN
 90
        5
170
     1
 91
        0
 92
    32768
 62
   257
 93
        1
300
CONTENTFORMAT
  1
CONTENTFORMAT_BEGIN
 90
        0
 91
        0
 92
      512
 93
        0
300

 40
0.0
140
1.0
 94
        5
 62
     0
340
55
144
0.25
309
CONTENTFORMAT_END
171
     0
 94
        0
309
TABLEFORMAT_END
  1
CELLSTYLE_BEGIN
 90
        1
 91
        1
300
_TITLE
309
CELLSTYLE_END
300
CELLSTYLE
  1
TABLEFORMAT_BEGIN
 90
        5
170
     1
 91
        0
 92
        0
 62
   257
 93
        1
300
CONTENTFORMAT
  1
CONTENTFORMAT_BEGIN
 90
        0
 91
        0
 92
      512
 93
        0
300

 40
0.0
140
1.0
 94
        5
 62
     0
340
55
144
0.18
309
CONTENTFORMAT_END
171
     0
 94
        0
309
TABLEFORMAT_END
  1
CELLSTYLE_BEGIN
 90
        2
 91
        1
300
_HEADER
309
CELLSTYLE_END
300
CELLSTYLE
  1
TABLEFORMAT_BEGIN
 90
        5
170
     1
 91
        0
 92
        0
 62
   257
 93
        1
300
CONTENTFORMAT
  1
CONTENTFORMAT_BEGIN
 90
        0
 91
        0
 92
      512
 93
        0
300

 40
0.0
140
1.0
 94
        2
 62
     0
340
55
144
0.18
309
CONTENTFORMAT_END
171
     0
 94
        0
309
TABLEFORMAT_END
  1
CELLSTYLE_BEGIN
 90
        3
 91
        2
300
_DATA
309
CELLSTYLE_END
  0
ENDSEC
  0
EOF
