G04 EAGLE Gerber RS-274X export*
G75*
%MOMM*%
%FSLAX34Y34*%
%LPD*%
%IN*%
%IPPOS*%
%AMOC8*
5,1,8,0,0,1.08239X$1,22.5*%
G01*
%ADD10C,0.254000*%


D10*
X-66040Y187960D02*
X-55880Y175260D01*
X-58420Y165100D01*
X-45720Y152400D01*
X-43180Y137160D01*
X-25400Y129540D01*
X5080Y129540D01*
X7620Y104140D01*
X0Y44450D01*
X19050Y19050D01*
X31750Y6350D01*
X63500Y6350D01*
X86360Y20320D01*
X88900Y33020D01*
X93980Y50800D01*
X96520Y73660D01*
X96520Y96520D01*
X104140Y109220D01*
X106680Y124460D01*
X111760Y129540D01*
X137160Y129540D01*
X152400Y139700D01*
X157480Y147320D01*
X175260Y170180D01*
X175260Y195580D01*
X180340Y203200D01*
X182880Y218440D01*
X175260Y238760D01*
X175260Y261620D01*
X160020Y269240D01*
X162560Y279400D01*
X162560Y287020D01*
X149860Y294640D01*
X149860Y302260D01*
X142240Y312420D01*
X137160Y327660D01*
X127000Y330200D01*
X124460Y340360D01*
X109220Y350520D01*
X86360Y370840D01*
X66040Y378460D01*
X33020Y378460D01*
X5080Y365760D01*
X-5080Y350520D01*
X-25400Y330200D01*
X-27940Y314960D01*
X-38100Y304800D01*
X-38100Y292100D01*
X-53340Y266700D01*
X-53340Y246380D01*
X-58420Y238760D01*
X-58420Y233680D01*
X-53340Y228600D01*
X-63500Y215900D01*
X-63500Y200660D01*
X-66040Y187960D01*
M02*
