G04 EAGLE Gerber RS-274X export*
G75*
%MOMM*%
%FSLAX34Y34*%
%LPD*%
%INSilkscreen Top*%
%IPPOS*%
%AMOC8*
5,1,8,0,0,1.08239X$1,22.5*%
G01*
%ADD10R,0.457200X0.152400*%
%ADD11R,2.133600X0.152400*%
%ADD12R,3.200400X0.152400*%
%ADD13R,4.114800X0.152400*%
%ADD14R,4.724400X0.152400*%
%ADD15R,5.029200X0.152400*%
%ADD16R,5.334000X0.152400*%
%ADD17R,5.791200X0.152400*%
%ADD18R,6.096000X0.152400*%
%ADD19R,6.400800X0.152400*%
%ADD20R,6.553200X0.152400*%
%ADD21R,1.066800X0.152400*%
%ADD22R,5.486400X0.152400*%
%ADD23R,0.914400X0.152400*%
%ADD24R,5.638800X0.152400*%
%ADD25R,5.943600X0.152400*%
%ADD26R,6.705600X0.152400*%
%ADD27R,7.010400X0.152400*%
%ADD28R,7.162800X0.152400*%
%ADD29R,7.315200X0.152400*%
%ADD30R,0.762000X0.152400*%
%ADD31R,7.467600X0.152400*%
%ADD32R,7.620000X0.152400*%
%ADD33R,7.772400X0.152400*%
%ADD34R,7.924800X0.152400*%
%ADD35R,8.686800X0.152400*%
%ADD36R,8.534400X0.152400*%
%ADD37R,8.382000X0.152400*%
%ADD38R,1.219200X0.152400*%
%ADD39R,9.296400X0.152400*%
%ADD40R,9.601200X0.152400*%
%ADD41R,9.906000X0.152400*%
%ADD42R,0.152400X0.152400*%
%ADD43R,2.590800X0.152400*%
%ADD44R,4.876800X0.152400*%
%ADD45R,3.352800X0.152400*%
%ADD46R,1.981200X0.152400*%
%ADD47R,1.676400X0.152400*%
%ADD48R,6.248400X0.152400*%
%ADD49R,1.524000X0.152400*%
%ADD50R,2.438400X0.152400*%
%ADD51R,1.371600X0.152400*%
%ADD52R,0.304800X0.152400*%
%ADD53R,0.609600X0.152400*%
%ADD54R,5.181600X0.152400*%
%ADD55R,1.828800X0.152400*%
%ADD56R,2.286000X0.152400*%
%ADD57R,2.743200X0.152400*%
%ADD58R,3.657600X0.152400*%
%ADD59R,2.895600X0.152400*%
%ADD60R,3.048000X0.152400*%
%ADD61R,3.505200X0.152400*%
%ADD62R,3.810000X0.152400*%
%ADD63R,4.572000X0.152400*%
%ADD64R,4.419600X0.152400*%
%ADD65R,4.267200X0.152400*%
%ADD66C,0.101600*%
%ADD67R,0.500000X0.125000*%
%ADD68R,0.225000X0.325000*%
%ADD69R,0.125000X0.225000*%
%ADD70R,0.425000X0.125000*%
%ADD71R,0.500000X0.350000*%
%ADD72R,0.600000X0.125000*%
%ADD73R,1.700000X0.300000*%
%ADD74R,1.700000X0.700000*%
%ADD75R,0.325000X0.425000*%
%ADD76R,0.350000X0.350000*%
%ADD77C,0.050800*%


D10*
X36576Y7620D03*
D11*
X41910Y9144D03*
D12*
X45720Y10668D03*
D13*
X47244Y12192D03*
D14*
X48768Y13716D03*
D15*
X50292Y15240D03*
D16*
X50292Y16764D03*
D17*
X51054Y18288D03*
D18*
X51054Y19812D03*
D19*
X51054Y21336D03*
D20*
X50292Y22860D03*
D21*
X22860Y24384D03*
D22*
X57150Y24384D03*
D23*
X20574Y25908D03*
D24*
X57912Y25908D03*
D23*
X19050Y27432D03*
D25*
X56388Y27432D03*
D23*
X17526Y28956D03*
D18*
X55626Y28956D03*
D23*
X16002Y30480D03*
D19*
X55626Y30480D03*
D23*
X16002Y32004D03*
D20*
X54864Y32004D03*
D23*
X14478Y33528D03*
D26*
X54102Y33528D03*
D23*
X12954Y35052D03*
D26*
X54102Y35052D03*
D21*
X12192Y36576D03*
D27*
X54102Y36576D03*
D23*
X11430Y38100D03*
D27*
X54102Y38100D03*
D23*
X11430Y39624D03*
D28*
X53340Y39624D03*
D23*
X9906Y41148D03*
D27*
X54102Y41148D03*
D23*
X9906Y42672D03*
D28*
X54864Y42672D03*
D23*
X9906Y44196D03*
D28*
X54864Y44196D03*
D23*
X8382Y45720D03*
D28*
X54864Y45720D03*
D23*
X8382Y47244D03*
D28*
X54864Y47244D03*
D23*
X8382Y48768D03*
D28*
X54864Y48768D03*
D23*
X8382Y50292D03*
D28*
X54864Y50292D03*
D23*
X8382Y51816D03*
D29*
X55626Y51816D03*
D30*
X7620Y53340D03*
D31*
X54864Y53340D03*
D30*
X7620Y54864D03*
D32*
X54102Y54864D03*
D30*
X7620Y56388D03*
D33*
X53340Y56388D03*
D30*
X7620Y57912D03*
D33*
X53340Y57912D03*
D30*
X7620Y59436D03*
D33*
X53340Y59436D03*
D30*
X7620Y60960D03*
D34*
X54102Y60960D03*
D30*
X7620Y62484D03*
D34*
X54102Y62484D03*
D30*
X7620Y64008D03*
D34*
X54102Y64008D03*
D30*
X7620Y65532D03*
D34*
X54102Y65532D03*
D23*
X8382Y67056D03*
D34*
X54102Y67056D03*
D23*
X8382Y68580D03*
D34*
X54102Y68580D03*
D23*
X8382Y70104D03*
D34*
X54102Y70104D03*
D30*
X9144Y71628D03*
D34*
X54102Y71628D03*
D30*
X9144Y73152D03*
D33*
X54864Y73152D03*
D30*
X9144Y74676D03*
D33*
X54864Y74676D03*
D23*
X9906Y76200D03*
D34*
X55626Y76200D03*
D23*
X9906Y77724D03*
D34*
X55626Y77724D03*
D30*
X10668Y79248D03*
D33*
X56388Y79248D03*
D23*
X11430Y80772D03*
D33*
X56388Y80772D03*
D23*
X11430Y82296D03*
D33*
X56388Y82296D03*
D23*
X11430Y83820D03*
D32*
X57150Y83820D03*
D23*
X12954Y85344D03*
D31*
X57912Y85344D03*
D21*
X13716Y86868D03*
D31*
X57912Y86868D03*
D21*
X13716Y88392D03*
D29*
X58674Y88392D03*
D35*
X51816Y89916D03*
D36*
X52578Y91440D03*
X52578Y92964D03*
X52578Y94488D03*
X52578Y96012D03*
D37*
X53340Y97536D03*
D36*
X54102Y99060D03*
X54102Y100584D03*
X54102Y102108D03*
D35*
X54864Y103632D03*
D36*
X55626Y105156D03*
D21*
X18288Y106680D03*
D29*
X63246Y106680D03*
D21*
X18288Y108204D03*
D29*
X63246Y108204D03*
D21*
X18288Y109728D03*
D29*
X63246Y109728D03*
D21*
X18288Y111252D03*
D32*
X63246Y111252D03*
D38*
X17526Y112776D03*
D32*
X63246Y112776D03*
D38*
X17526Y114300D03*
D33*
X64008Y114300D03*
D38*
X17526Y115824D03*
D33*
X64008Y115824D03*
D38*
X17526Y117348D03*
D33*
X64008Y117348D03*
D21*
X16764Y118872D03*
D33*
X64008Y118872D03*
D39*
X57912Y120396D03*
X57912Y121920D03*
X57912Y123444D03*
D40*
X57912Y124968D03*
X57912Y126492D03*
X57912Y128016D03*
D41*
X57912Y129540D03*
D42*
X-10668Y131064D03*
D22*
X34290Y131064D03*
D13*
X88392Y131064D03*
D38*
X124206Y131064D03*
D43*
X-12192Y132588D03*
D22*
X31242Y132588D03*
D17*
X107442Y132588D03*
D44*
X-6858Y134112D03*
D45*
X40386Y134112D03*
D18*
X108966Y134112D03*
D46*
X-24384Y135636D03*
D11*
X3810Y135636D03*
D23*
X28194Y135636D03*
D47*
X45720Y135636D03*
D48*
X111252Y135636D03*
D47*
X-28956Y137160D03*
D38*
X5334Y137160D03*
D23*
X28194Y137160D03*
D49*
X44958Y137160D03*
D50*
X93726Y137160D03*
D38*
X113538Y137160D03*
D47*
X137160Y137160D03*
D49*
X-31242Y138684D03*
D23*
X5334Y138684D03*
X26670Y138684D03*
D21*
X44196Y138684D03*
D30*
X70104Y138684D03*
D49*
X92202Y138684D03*
D23*
X115062Y138684D03*
D49*
X139446Y138684D03*
D51*
X-33528Y140208D03*
D30*
X4572Y140208D03*
D23*
X26670Y140208D03*
D10*
X44196Y140208D03*
D23*
X69342Y140208D03*
X92202Y140208D03*
X116586Y140208D03*
D49*
X142494Y140208D03*
D38*
X-35814Y141732D03*
D23*
X2286Y141732D03*
D21*
X25908Y141732D03*
X68580Y141732D03*
D23*
X118110Y141732D03*
D49*
X144018Y141732D03*
D38*
X-37338Y143256D03*
D21*
X0Y143256D03*
D38*
X25146Y143256D03*
D21*
X68580Y143256D03*
D23*
X119634Y143256D03*
D10*
X129540Y143256D03*
D51*
X146304Y143256D03*
D21*
X-38100Y144780D03*
D51*
X-3048Y144780D03*
X24384Y144780D03*
X68580Y144780D03*
D52*
X98298Y144780D03*
D30*
X120396Y144780D03*
X131064Y144780D03*
D38*
X147066Y144780D03*
D23*
X-38862Y146304D03*
D47*
X-4572Y146304D03*
X22860Y146304D03*
X70104Y146304D03*
D53*
X98298Y146304D03*
D30*
X121920Y146304D03*
D23*
X131826Y146304D03*
D38*
X148590Y146304D03*
D23*
X-38862Y147828D03*
D46*
X-7620Y147828D03*
D11*
X20574Y147828D03*
X70866Y147828D03*
D53*
X98298Y147828D03*
D23*
X122682Y147828D03*
D30*
X132588Y147828D03*
D38*
X148590Y147828D03*
D30*
X-39624Y149352D03*
D54*
X3810Y149352D03*
D23*
X64770Y149352D03*
D21*
X79248Y149352D03*
D53*
X98298Y149352D03*
D38*
X122682Y149352D03*
D10*
X134112Y149352D03*
D38*
X150114Y149352D03*
D30*
X-39624Y150876D03*
D24*
X1524Y150876D03*
D23*
X63246Y150876D03*
D30*
X82296Y150876D03*
D53*
X98298Y150876D03*
D49*
X122682Y150876D03*
D21*
X152400Y150876D03*
D23*
X-38862Y152400D03*
D14*
X-4572Y152400D03*
D30*
X24384Y152400D03*
D23*
X61722Y152400D03*
D53*
X98298Y152400D03*
D47*
X121920Y152400D03*
D52*
X142494Y152400D03*
D21*
X153924Y152400D03*
X-39624Y153924D03*
D51*
X-22860Y153924D03*
D30*
X-6096Y153924D03*
D55*
X8382Y153924D03*
D23*
X23622Y153924D03*
D21*
X60960Y153924D03*
D53*
X98298Y153924D03*
X116586Y153924D03*
D30*
X126492Y153924D03*
D10*
X143256Y153924D03*
D21*
X155448Y153924D03*
D38*
X-40386Y155448D03*
D21*
X-24384Y155448D03*
D53*
X-5334Y155448D03*
D49*
X8382Y155448D03*
D30*
X22860Y155448D03*
D21*
X59436Y155448D03*
D30*
X99060Y155448D03*
D53*
X116586Y155448D03*
D23*
X127254Y155448D03*
D53*
X142494Y155448D03*
D21*
X156972Y155448D03*
D49*
X-40386Y156972D03*
D23*
X-25146Y156972D03*
D53*
X-5334Y156972D03*
D49*
X8382Y156972D03*
D23*
X22098Y156972D03*
D51*
X59436Y156972D03*
D53*
X99822Y156972D03*
D30*
X115824Y156972D03*
D21*
X128016Y156972D03*
D53*
X142494Y156972D03*
D21*
X158496Y156972D03*
D46*
X-41148Y158496D03*
D30*
X-25908Y158496D03*
D52*
X-5334Y158496D03*
D38*
X8382Y158496D03*
D23*
X22098Y158496D03*
D47*
X59436Y158496D03*
D53*
X99822Y158496D03*
D30*
X115824Y158496D03*
D21*
X129540Y158496D03*
D30*
X143256Y158496D03*
D21*
X160020Y158496D03*
X-47244Y160020D03*
D30*
X-35052Y160020D03*
D53*
X-25146Y160020D03*
D21*
X7620Y160020D03*
X21336Y160020D03*
D46*
X59436Y160020D03*
D53*
X99822Y160020D03*
X116586Y160020D03*
D38*
X130302Y160020D03*
D23*
X142494Y160020D03*
D21*
X161544Y160020D03*
D23*
X-48006Y161544D03*
D53*
X-34290Y161544D03*
D30*
X-24384Y161544D03*
D23*
X8382Y161544D03*
D38*
X22098Y161544D03*
D50*
X58674Y161544D03*
D30*
X100584Y161544D03*
D53*
X116586Y161544D03*
D11*
X136398Y161544D03*
D23*
X162306Y161544D03*
X-49530Y163068D03*
D53*
X-34290Y163068D03*
X-23622Y163068D03*
D30*
X7620Y163068D03*
D51*
X22860Y163068D03*
D21*
X48768Y163068D03*
X67056Y163068D03*
D53*
X101346Y163068D03*
X116586Y163068D03*
D51*
X140208Y163068D03*
D21*
X163068Y163068D03*
X-50292Y164592D03*
D53*
X-34290Y164592D03*
X-22098Y164592D03*
X6858Y164592D03*
D47*
X24384Y164592D03*
D30*
X47244Y164592D03*
D23*
X67818Y164592D03*
D30*
X102108Y164592D03*
D53*
X116586Y164592D03*
D47*
X140208Y164592D03*
D21*
X163068Y164592D03*
D23*
X-51054Y166116D03*
D30*
X-35052Y166116D03*
X-21336Y166116D03*
D53*
X-11430Y166116D03*
D55*
X25146Y166116D03*
D10*
X45720Y166116D03*
D23*
X69342Y166116D03*
D30*
X102108Y166116D03*
D52*
X116586Y166116D03*
D47*
X140208Y166116D03*
D51*
X163068Y166116D03*
D23*
X-51054Y167640D03*
D53*
X-35814Y167640D03*
D47*
X-15240Y167640D03*
D55*
X25146Y167640D03*
D52*
X44958Y167640D03*
D30*
X70104Y167640D03*
D23*
X102870Y167640D03*
D49*
X140970Y167640D03*
D47*
X163068Y167640D03*
D23*
X-51054Y169164D03*
D30*
X-36576Y169164D03*
D47*
X-15240Y169164D03*
D55*
X25146Y169164D03*
D23*
X70866Y169164D03*
D21*
X103632Y169164D03*
D51*
X141732Y169164D03*
D55*
X162306Y169164D03*
D23*
X-51054Y170688D03*
X-37338Y170688D03*
D55*
X-14478Y170688D03*
D30*
X1524Y170688D03*
D21*
X21336Y170688D03*
D52*
X29718Y170688D03*
D23*
X70866Y170688D03*
D49*
X104394Y170688D03*
D51*
X141732Y170688D03*
D55*
X163830Y170688D03*
D23*
X-49530Y172212D03*
X-38862Y172212D03*
D30*
X-19812Y172212D03*
D55*
X-3810Y172212D03*
D30*
X19812Y172212D03*
D23*
X70866Y172212D03*
D55*
X104394Y172212D03*
D47*
X141732Y172212D03*
D55*
X165354Y172212D03*
D46*
X-44196Y173736D03*
D23*
X-20574Y173736D03*
D47*
X-4572Y173736D03*
D30*
X19812Y173736D03*
D23*
X70866Y173736D03*
X98298Y173736D03*
D21*
X111252Y173736D03*
D47*
X141732Y173736D03*
X166116Y173736D03*
D55*
X-43434Y175260D03*
D23*
X-20574Y175260D03*
D47*
X-4572Y175260D03*
D30*
X19812Y175260D03*
D23*
X70866Y175260D03*
X96774Y175260D03*
D21*
X112776Y175260D03*
D23*
X136398Y175260D03*
D53*
X147066Y175260D03*
D49*
X166878Y175260D03*
D46*
X-42672Y176784D03*
D23*
X-20574Y176784D03*
D51*
X-4572Y176784D03*
D30*
X19812Y176784D03*
D23*
X69342Y176784D03*
X95250Y176784D03*
D21*
X112776Y176784D03*
D30*
X135636Y176784D03*
X147828Y176784D03*
D38*
X168402Y176784D03*
D56*
X-44196Y178308D03*
D23*
X-20574Y178308D03*
D38*
X-5334Y178308D03*
D30*
X19812Y178308D03*
D21*
X68580Y178308D03*
D23*
X93726Y178308D03*
X113538Y178308D03*
X134874Y178308D03*
D30*
X147828Y178308D03*
D21*
X169164Y178308D03*
D56*
X-45720Y179832D03*
D23*
X-20574Y179832D03*
D21*
X-6096Y179832D03*
D30*
X19812Y179832D03*
D38*
X67818Y179832D03*
D23*
X92202Y179832D03*
X113538Y179832D03*
D30*
X134112Y179832D03*
X149352Y179832D03*
D21*
X169164Y179832D03*
X-53340Y181356D03*
D30*
X-39624Y181356D03*
D23*
X-20574Y181356D03*
D21*
X-6096Y181356D03*
D30*
X19812Y181356D03*
D47*
X64008Y181356D03*
D23*
X92202Y181356D03*
X113538Y181356D03*
D30*
X134112Y181356D03*
X150876Y181356D03*
D23*
X169926Y181356D03*
D21*
X-54864Y182880D03*
D23*
X-20574Y182880D03*
X-6858Y182880D03*
X19050Y182880D03*
D55*
X60198Y182880D03*
D23*
X90678Y182880D03*
X113538Y182880D03*
D53*
X133350Y182880D03*
D30*
X152400Y182880D03*
D23*
X169926Y182880D03*
X-55626Y184404D03*
X-20574Y184404D03*
X-6858Y184404D03*
X19050Y184404D03*
D47*
X57912Y184404D03*
D23*
X90678Y184404D03*
D30*
X112776Y184404D03*
D53*
X133350Y184404D03*
D23*
X154686Y184404D03*
X169926Y184404D03*
X-57150Y185928D03*
X-20574Y185928D03*
X-6858Y185928D03*
X19050Y185928D03*
D30*
X53340Y185928D03*
X89916Y185928D03*
D23*
X112014Y185928D03*
D30*
X132588Y185928D03*
X156972Y185928D03*
D23*
X169926Y185928D03*
X-58674Y187452D03*
D52*
X-35814Y187452D03*
D23*
X-20574Y187452D03*
X-6858Y187452D03*
X17526Y187452D03*
D30*
X51816Y187452D03*
D23*
X89154Y187452D03*
D30*
X111252Y187452D03*
D53*
X131826Y187452D03*
D30*
X158496Y187452D03*
D23*
X169926Y187452D03*
X-58674Y188976D03*
D10*
X-35052Y188976D03*
D30*
X-21336Y188976D03*
D21*
X-6096Y188976D03*
D23*
X17526Y188976D03*
D21*
X50292Y188976D03*
D30*
X88392Y188976D03*
D23*
X110490Y188976D03*
D53*
X131826Y188976D03*
D30*
X160020Y188976D03*
D23*
X169926Y188976D03*
X-58674Y190500D03*
D53*
X-35814Y190500D03*
D30*
X-21336Y190500D03*
D21*
X-6096Y190500D03*
D23*
X17526Y190500D03*
D21*
X48768Y190500D03*
D30*
X88392Y190500D03*
X109728Y190500D03*
D53*
X131826Y190500D03*
D55*
X165354Y190500D03*
D23*
X-58674Y192024D03*
X-35814Y192024D03*
D53*
X-22098Y192024D03*
D23*
X-5334Y192024D03*
X16002Y192024D03*
D38*
X48006Y192024D03*
D53*
X87630Y192024D03*
D23*
X108966Y192024D03*
D30*
X132588Y192024D03*
D55*
X165354Y192024D03*
D23*
X-58674Y193548D03*
X-35814Y193548D03*
D53*
X-22098Y193548D03*
D10*
X-6096Y193548D03*
D30*
X15240Y193548D03*
D38*
X48006Y193548D03*
D53*
X87630Y193548D03*
D23*
X108966Y193548D03*
D30*
X132588Y193548D03*
D12*
X158496Y193548D03*
D21*
X-57912Y195072D03*
D23*
X-34290Y195072D03*
D53*
X-22098Y195072D03*
D30*
X13716Y195072D03*
D51*
X47244Y195072D03*
D30*
X86868Y195072D03*
D23*
X108966Y195072D03*
D53*
X133350Y195072D03*
D12*
X158496Y195072D03*
D38*
X-55626Y196596D03*
D23*
X-34290Y196596D03*
D53*
X-22098Y196596D03*
D23*
X12954Y196596D03*
D51*
X47244Y196596D03*
D30*
X86868Y196596D03*
D23*
X108966Y196596D03*
D30*
X134112Y196596D03*
D12*
X158496Y196596D03*
D51*
X-54864Y198120D03*
D30*
X-33528Y198120D03*
D53*
X-22098Y198120D03*
D52*
X-2286Y198120D03*
D30*
X12192Y198120D03*
D49*
X46482Y198120D03*
D23*
X87630Y198120D03*
X108966Y198120D03*
D53*
X134874Y198120D03*
D47*
X152400Y198120D03*
D38*
X168402Y198120D03*
D51*
X-54864Y199644D03*
D30*
X-33528Y199644D03*
D10*
X-22860Y199644D03*
D30*
X-1524Y199644D03*
D21*
X10668Y199644D03*
D49*
X46482Y199644D03*
D21*
X86868Y199644D03*
X109728Y199644D03*
D10*
X135636Y199644D03*
D21*
X153924Y199644D03*
X169164Y199644D03*
D38*
X-54102Y201168D03*
D30*
X-33528Y201168D03*
D53*
X-22098Y201168D03*
D11*
X6858Y201168D03*
D49*
X46482Y201168D03*
D38*
X86106Y201168D03*
X108966Y201168D03*
D52*
X142494Y201168D03*
D23*
X153162Y201168D03*
D21*
X170688Y201168D03*
D38*
X-55626Y202692D03*
D30*
X-33528Y202692D03*
D53*
X-22098Y202692D03*
D11*
X8382Y202692D03*
D47*
X45720Y202692D03*
D49*
X84582Y202692D03*
D51*
X109728Y202692D03*
D10*
X141732Y202692D03*
D30*
X152400Y202692D03*
D21*
X170688Y202692D03*
D38*
X-57150Y204216D03*
D23*
X-34290Y204216D03*
D53*
X-22098Y204216D03*
D50*
X9906Y204216D03*
D49*
X44958Y204216D03*
D47*
X83820Y204216D03*
D49*
X108966Y204216D03*
D53*
X140970Y204216D03*
D30*
X152400Y204216D03*
D38*
X171450Y204216D03*
D23*
X-58674Y205740D03*
X-34290Y205740D03*
D53*
X-22098Y205740D03*
D50*
X11430Y205740D03*
D51*
X41148Y205740D03*
D46*
X82296Y205740D03*
D47*
X109728Y205740D03*
D30*
X140208Y205740D03*
D53*
X151638Y205740D03*
D55*
X169926Y205740D03*
D30*
X-59436Y207264D03*
X-35052Y207264D03*
D53*
X-22098Y207264D03*
D23*
X5334Y207264D03*
D57*
X29718Y207264D03*
D10*
X57912Y207264D03*
D56*
X82296Y207264D03*
D55*
X108966Y207264D03*
D30*
X140208Y207264D03*
D53*
X151638Y207264D03*
D46*
X169164Y207264D03*
D53*
X-60198Y208788D03*
D23*
X-35814Y208788D03*
D53*
X-22098Y208788D03*
D23*
X5334Y208788D03*
D50*
X29718Y208788D03*
D23*
X58674Y208788D03*
D15*
X94488Y208788D03*
D30*
X140208Y208788D03*
D53*
X151638Y208788D03*
D11*
X168402Y208788D03*
D53*
X-60198Y210312D03*
D23*
X-35814Y210312D03*
D53*
X-22098Y210312D03*
D23*
X5334Y210312D03*
D11*
X29718Y210312D03*
D21*
X59436Y210312D03*
D15*
X94488Y210312D03*
D23*
X139446Y210312D03*
D53*
X151638Y210312D03*
D56*
X169164Y210312D03*
D30*
X-59436Y211836D03*
D23*
X-37338Y211836D03*
D30*
X-21336Y211836D03*
D23*
X5334Y211836D03*
D55*
X29718Y211836D03*
D23*
X60198Y211836D03*
D58*
X86106Y211836D03*
D23*
X115062Y211836D03*
D30*
X140208Y211836D03*
X152400Y211836D03*
D11*
X169926Y211836D03*
D30*
X-57912Y213360D03*
D23*
X-37338Y213360D03*
D30*
X-21336Y213360D03*
D23*
X5334Y213360D03*
D47*
X30480Y213360D03*
D10*
X60960Y213360D03*
D30*
X73152Y213360D03*
D56*
X91440Y213360D03*
D30*
X115824Y213360D03*
D23*
X140970Y213360D03*
D53*
X153162Y213360D03*
D11*
X169926Y213360D03*
D30*
X-57912Y214884D03*
D21*
X-38100Y214884D03*
D23*
X-20574Y214884D03*
X5334Y214884D03*
D51*
X30480Y214884D03*
D30*
X73152Y214884D03*
D46*
X91440Y214884D03*
D30*
X115824Y214884D03*
D23*
X140970Y214884D03*
D30*
X153924Y214884D03*
D46*
X170688Y214884D03*
D30*
X-56388Y216408D03*
D21*
X-38100Y216408D03*
X-19812Y216408D03*
D23*
X5334Y216408D03*
D51*
X30480Y216408D03*
D10*
X73152Y216408D03*
D55*
X92202Y216408D03*
D30*
X114300Y216408D03*
D21*
X141732Y216408D03*
D30*
X153924Y216408D03*
D46*
X170688Y216408D03*
D30*
X-54864Y217932D03*
D21*
X-38100Y217932D03*
D51*
X-18288Y217932D03*
D21*
X6096Y217932D03*
D38*
X31242Y217932D03*
D47*
X91440Y217932D03*
D53*
X113538Y217932D03*
D46*
X147828Y217932D03*
X170688Y217932D03*
D23*
X-54102Y219456D03*
X-37338Y219456D03*
D53*
X-22098Y219456D03*
D30*
X-13716Y219456D03*
D21*
X6096Y219456D03*
D38*
X31242Y219456D03*
D47*
X91440Y219456D03*
D30*
X112776Y219456D03*
D55*
X147066Y219456D03*
D46*
X170688Y219456D03*
D23*
X-52578Y220980D03*
X-37338Y220980D03*
D53*
X-23622Y220980D03*
D30*
X-13716Y220980D03*
D21*
X4572Y220980D03*
D38*
X31242Y220980D03*
D49*
X90678Y220980D03*
D53*
X112014Y220980D03*
D55*
X147066Y220980D03*
X169926Y220980D03*
D23*
X-51054Y222504D03*
X-37338Y222504D03*
D53*
X-23622Y222504D03*
X-14478Y222504D03*
D21*
X4572Y222504D03*
D38*
X32766Y222504D03*
D55*
X89154Y222504D03*
D53*
X112014Y222504D03*
D55*
X145542Y222504D03*
X169926Y222504D03*
D23*
X-49530Y224028D03*
X-37338Y224028D03*
D10*
X-24384Y224028D03*
X-13716Y224028D03*
D21*
X4572Y224028D03*
D38*
X32766Y224028D03*
D46*
X88392Y224028D03*
D53*
X112014Y224028D03*
D47*
X144780Y224028D03*
D55*
X169926Y224028D03*
D23*
X-48006Y225552D03*
X-37338Y225552D03*
D10*
X-24384Y225552D03*
X-13716Y225552D03*
D38*
X3810Y225552D03*
X32766Y225552D03*
D11*
X87630Y225552D03*
D53*
X112014Y225552D03*
D30*
X138684Y225552D03*
D23*
X148590Y225552D03*
D46*
X169164Y225552D03*
D47*
X-42672Y227076D03*
D52*
X-25146Y227076D03*
X-12954Y227076D03*
D21*
X3048Y227076D03*
D49*
X32766Y227076D03*
D56*
X86868Y227076D03*
D30*
X112776Y227076D03*
D53*
X137922Y227076D03*
D30*
X147828Y227076D03*
D55*
X168402Y227076D03*
D47*
X-42672Y228600D03*
D10*
X-25908Y228600D03*
D42*
X-12192Y228600D03*
D21*
X3048Y228600D03*
D49*
X32766Y228600D03*
D56*
X86868Y228600D03*
D30*
X112776Y228600D03*
X137160Y228600D03*
X147828Y228600D03*
D55*
X168402Y228600D03*
X-43434Y230124D03*
D52*
X-26670Y230124D03*
D21*
X1524Y230124D03*
D47*
X32004Y230124D03*
D50*
X86106Y230124D03*
D23*
X112014Y230124D03*
D53*
X136398Y230124D03*
D30*
X147828Y230124D03*
D47*
X167640Y230124D03*
D11*
X-44958Y231648D03*
D52*
X-26670Y231648D03*
D21*
X1524Y231648D03*
D47*
X32004Y231648D03*
D21*
X77724Y231648D03*
D23*
X93726Y231648D03*
X112014Y231648D03*
D30*
X135636Y231648D03*
X147828Y231648D03*
D47*
X167640Y231648D03*
D23*
X-51054Y233172D03*
D46*
X-35052Y233172D03*
D21*
X0Y233172D03*
D55*
X31242Y233172D03*
D23*
X76962Y233172D03*
D21*
X94488Y233172D03*
D23*
X110490Y233172D03*
D30*
X135636Y233172D03*
D53*
X148590Y233172D03*
D55*
X166878Y233172D03*
D23*
X-52578Y234696D03*
D47*
X-35052Y234696D03*
D23*
X-762Y234696D03*
D49*
X31242Y234696D03*
D23*
X75438Y234696D03*
X95250Y234696D03*
X108966Y234696D03*
X134874Y234696D03*
D53*
X148590Y234696D03*
D47*
X166116Y234696D03*
D23*
X-52578Y236220D03*
D47*
X-35052Y236220D03*
D21*
X-1524Y236220D03*
D49*
X31242Y236220D03*
D23*
X73914Y236220D03*
D56*
X102108Y236220D03*
D30*
X134112Y236220D03*
D53*
X148590Y236220D03*
D55*
X165354Y236220D03*
D23*
X-51054Y237744D03*
D49*
X-34290Y237744D03*
D23*
X-2286Y237744D03*
D38*
X31242Y237744D03*
D23*
X72390Y237744D03*
D11*
X101346Y237744D03*
D30*
X134112Y237744D03*
D53*
X148590Y237744D03*
D55*
X165354Y237744D03*
D21*
X-48768Y239268D03*
D51*
X-33528Y239268D03*
D23*
X-3810Y239268D03*
D21*
X32004Y239268D03*
D23*
X72390Y239268D03*
D46*
X100584Y239268D03*
D30*
X134112Y239268D03*
X149352Y239268D03*
D47*
X164592Y239268D03*
D23*
X-48006Y240792D03*
D51*
X-33528Y240792D03*
D21*
X-6096Y240792D03*
D23*
X32766Y240792D03*
D30*
X73152Y240792D03*
D47*
X100584Y240792D03*
D30*
X134112Y240792D03*
X149352Y240792D03*
D55*
X163830Y240792D03*
D23*
X-48006Y242316D03*
D51*
X-33528Y242316D03*
D49*
X-8382Y242316D03*
D23*
X32766Y242316D03*
D10*
X73152Y242316D03*
D47*
X100584Y242316D03*
D30*
X134112Y242316D03*
X149352Y242316D03*
D55*
X163830Y242316D03*
D23*
X-48006Y243840D03*
D51*
X-33528Y243840D03*
D49*
X-9906Y243840D03*
D23*
X32766Y243840D03*
D10*
X73152Y243840D03*
D49*
X101346Y243840D03*
D30*
X134112Y243840D03*
X149352Y243840D03*
D47*
X164592Y243840D03*
D23*
X-48006Y245364D03*
D38*
X-32766Y245364D03*
D47*
X-10668Y245364D03*
D30*
X32004Y245364D03*
D52*
X73914Y245364D03*
D49*
X101346Y245364D03*
D30*
X134112Y245364D03*
X149352Y245364D03*
D47*
X164592Y245364D03*
D21*
X-47244Y246888D03*
D38*
X-32766Y246888D03*
D55*
X-11430Y246888D03*
D30*
X32004Y246888D03*
D52*
X73914Y246888D03*
D51*
X102108Y246888D03*
D30*
X134112Y246888D03*
X149352Y246888D03*
D49*
X165354Y246888D03*
D21*
X-47244Y248412D03*
D23*
X-32766Y248412D03*
D46*
X-10668Y248412D03*
D23*
X32766Y248412D03*
D10*
X74676Y248412D03*
D51*
X102108Y248412D03*
D30*
X134112Y248412D03*
X149352Y248412D03*
D51*
X166116Y248412D03*
D21*
X-45720Y249936D03*
D23*
X-32766Y249936D03*
D56*
X-10668Y249936D03*
D23*
X32766Y249936D03*
D10*
X74676Y249936D03*
D51*
X102108Y249936D03*
D53*
X133350Y249936D03*
D30*
X149352Y249936D03*
D38*
X166878Y249936D03*
D21*
X-45720Y251460D03*
D30*
X-32004Y251460D03*
D50*
X-9906Y251460D03*
D23*
X32766Y251460D03*
D10*
X74676Y251460D03*
D51*
X102108Y251460D03*
D53*
X133350Y251460D03*
D23*
X148590Y251460D03*
D51*
X167640Y251460D03*
D38*
X-44958Y252984D03*
D23*
X-31242Y252984D03*
D43*
X-9144Y252984D03*
D30*
X32004Y252984D03*
D10*
X74676Y252984D03*
D49*
X101346Y252984D03*
D21*
X120396Y252984D03*
D53*
X133350Y252984D03*
D21*
X149352Y252984D03*
D51*
X167640Y252984D03*
X-44196Y254508D03*
D30*
X-30480Y254508D03*
D23*
X-17526Y254508D03*
D51*
X-1524Y254508D03*
D30*
X32004Y254508D03*
D10*
X74676Y254508D03*
D47*
X100584Y254508D03*
D56*
X124968Y254508D03*
D51*
X149352Y254508D03*
D49*
X166878Y254508D03*
X-43434Y256032D03*
D30*
X-30480Y256032D03*
X-18288Y256032D03*
D38*
X-762Y256032D03*
D30*
X32004Y256032D03*
D10*
X74676Y256032D03*
D30*
X83820Y256032D03*
D47*
X100584Y256032D03*
D56*
X124968Y256032D03*
D51*
X149352Y256032D03*
D47*
X166116Y256032D03*
D50*
X-38862Y257556D03*
D53*
X-17526Y257556D03*
D38*
X762Y257556D03*
D30*
X32004Y257556D03*
D10*
X74676Y257556D03*
D59*
X94488Y257556D03*
D11*
X125730Y257556D03*
D12*
X158496Y257556D03*
D50*
X-38862Y259080D03*
D30*
X-18288Y259080D03*
D38*
X2286Y259080D03*
D23*
X31242Y259080D03*
D53*
X75438Y259080D03*
D57*
X93726Y259080D03*
D11*
X127254Y259080D03*
D45*
X157734Y259080D03*
D30*
X-47244Y260604D03*
D38*
X-32766Y260604D03*
D30*
X-18288Y260604D03*
D38*
X3810Y260604D03*
D23*
X31242Y260604D03*
D53*
X75438Y260604D03*
D43*
X94488Y260604D03*
D55*
X128778Y260604D03*
D12*
X156972Y260604D03*
D30*
X-47244Y262128D03*
X-30480Y262128D03*
X-18288Y262128D03*
D38*
X5334Y262128D03*
D23*
X31242Y262128D03*
D12*
X88392Y262128D03*
D23*
X133350Y262128D03*
D59*
X156972Y262128D03*
D30*
X-47244Y263652D03*
X-30480Y263652D03*
X-18288Y263652D03*
D21*
X6096Y263652D03*
D23*
X31242Y263652D03*
D51*
X79248Y263652D03*
D42*
X89916Y263652D03*
D30*
X99060Y263652D03*
D23*
X133350Y263652D03*
D43*
X155448Y263652D03*
D30*
X-47244Y265176D03*
D53*
X-31242Y265176D03*
D30*
X-18288Y265176D03*
D21*
X7620Y265176D03*
D23*
X31242Y265176D03*
D21*
X77724Y265176D03*
D30*
X99060Y265176D03*
D21*
X132588Y265176D03*
D46*
X153924Y265176D03*
D53*
X-46482Y266700D03*
X-31242Y266700D03*
X-19050Y266700D03*
D21*
X7620Y266700D03*
D23*
X31242Y266700D03*
D21*
X77724Y266700D03*
D30*
X99060Y266700D03*
D38*
X131826Y266700D03*
D51*
X152400Y266700D03*
D30*
X-45720Y268224D03*
D53*
X-31242Y268224D03*
X-19050Y268224D03*
D23*
X8382Y268224D03*
X31242Y268224D03*
X76962Y268224D03*
D30*
X99060Y268224D03*
D51*
X131064Y268224D03*
D21*
X152400Y268224D03*
D30*
X-45720Y269748D03*
X-32004Y269748D03*
D53*
X-19050Y269748D03*
D23*
X8382Y269748D03*
X31242Y269748D03*
D30*
X76200Y269748D03*
X99060Y269748D03*
D52*
X113538Y269748D03*
D47*
X131064Y269748D03*
D21*
X152400Y269748D03*
D30*
X-44196Y271272D03*
X-32004Y271272D03*
X-19812Y271272D03*
D21*
X9144Y271272D03*
D38*
X31242Y271272D03*
D23*
X75438Y271272D03*
D30*
X99060Y271272D03*
D59*
X124968Y271272D03*
D23*
X151638Y271272D03*
D53*
X-43434Y272796D03*
D30*
X-32004Y272796D03*
D21*
X-18288Y272796D03*
D23*
X8382Y272796D03*
D38*
X31242Y272796D03*
D30*
X74676Y272796D03*
D23*
X99822Y272796D03*
D55*
X119634Y272796D03*
D53*
X136398Y272796D03*
D23*
X151638Y272796D03*
D30*
X-42672Y274320D03*
X-33528Y274320D03*
D51*
X-16764Y274320D03*
D21*
X7620Y274320D03*
D38*
X31242Y274320D03*
D30*
X74676Y274320D03*
D23*
X99822Y274320D03*
D47*
X118872Y274320D03*
D30*
X137160Y274320D03*
D38*
X151638Y274320D03*
D49*
X-37338Y275844D03*
X-16002Y275844D03*
D23*
X6858Y275844D03*
D51*
X32004Y275844D03*
D30*
X73152Y275844D03*
D23*
X101346Y275844D03*
D49*
X118110Y275844D03*
D30*
X137160Y275844D03*
D38*
X151638Y275844D03*
D51*
X-36576Y277368D03*
D49*
X-16002Y277368D03*
D23*
X5334Y277368D03*
D51*
X32004Y277368D03*
D30*
X73152Y277368D03*
D21*
X102108Y277368D03*
D38*
X116586Y277368D03*
D21*
X137160Y277368D03*
D51*
X152400Y277368D03*
X-36576Y278892D03*
D47*
X-15240Y278892D03*
D21*
X3048Y278892D03*
D49*
X31242Y278892D03*
D30*
X73152Y278892D03*
D38*
X102870Y278892D03*
D23*
X115062Y278892D03*
D51*
X137160Y278892D03*
D38*
X153162Y278892D03*
X-35814Y280416D03*
D60*
X-8382Y280416D03*
D47*
X32004Y280416D03*
D23*
X72390Y280416D03*
D11*
X108966Y280416D03*
D60*
X145542Y280416D03*
D21*
X-35052Y281940D03*
D60*
X-8382Y281940D03*
D47*
X32004Y281940D03*
D23*
X72390Y281940D03*
D46*
X108204Y281940D03*
D45*
X145542Y281940D03*
D21*
X-35052Y283464D03*
D49*
X-17526Y283464D03*
X762Y283464D03*
D55*
X31242Y283464D03*
D30*
X71628Y283464D03*
D47*
X108204Y283464D03*
D12*
X146304Y283464D03*
D23*
X-34290Y284988D03*
D51*
X-18288Y284988D03*
D21*
X3048Y284988D03*
D46*
X32004Y284988D03*
D30*
X71628Y284988D03*
D49*
X107442Y284988D03*
D57*
X148590Y284988D03*
D23*
X-32766Y286512D03*
D38*
X-17526Y286512D03*
D21*
X4572Y286512D03*
D23*
X26670Y286512D03*
X37338Y286512D03*
D53*
X70866Y286512D03*
D38*
X107442Y286512D03*
D46*
X150876Y286512D03*
D23*
X-32766Y288036D03*
D38*
X-17526Y288036D03*
D23*
X5334Y288036D03*
X26670Y288036D03*
D30*
X38100Y288036D03*
D53*
X70866Y288036D03*
D21*
X106680Y288036D03*
D47*
X149352Y288036D03*
D23*
X-32766Y289560D03*
D38*
X-17526Y289560D03*
D23*
X5334Y289560D03*
X26670Y289560D03*
D30*
X39624Y289560D03*
X70104Y289560D03*
D21*
X106680Y289560D03*
D47*
X147828Y289560D03*
D30*
X-32004Y291084D03*
D21*
X-18288Y291084D03*
D23*
X5334Y291084D03*
X26670Y291084D03*
X40386Y291084D03*
D53*
X69342Y291084D03*
D38*
X107442Y291084D03*
D47*
X146304Y291084D03*
D30*
X-32004Y292608D03*
D21*
X-18288Y292608D03*
D23*
X5334Y292608D03*
D30*
X25908Y292608D03*
D21*
X41148Y292608D03*
D30*
X68580Y292608D03*
D38*
X107442Y292608D03*
D49*
X144018Y292608D03*
D23*
X-31242Y294132D03*
X-17526Y294132D03*
D30*
X4572Y294132D03*
X25908Y294132D03*
D23*
X41910Y294132D03*
X67818Y294132D03*
D51*
X108204Y294132D03*
X141732Y294132D03*
D23*
X-31242Y295656D03*
X-17526Y295656D03*
X3810Y295656D03*
D30*
X25908Y295656D03*
D53*
X41910Y295656D03*
D50*
X60198Y295656D03*
D38*
X107442Y295656D03*
D49*
X140970Y295656D03*
D23*
X-31242Y297180D03*
X-17526Y297180D03*
D30*
X3048Y297180D03*
D23*
X25146Y297180D03*
D50*
X60198Y297180D03*
D38*
X105918Y297180D03*
D47*
X140208Y297180D03*
D23*
X-31242Y298704D03*
X-17526Y298704D03*
D30*
X3048Y298704D03*
D23*
X25146Y298704D03*
D11*
X60198Y298704D03*
D56*
X99060Y298704D03*
D11*
X137922Y298704D03*
D21*
X-30480Y300228D03*
D23*
X-16002Y300228D03*
D30*
X3048Y300228D03*
D21*
X24384Y300228D03*
D46*
X60960Y300228D03*
D55*
X95250Y300228D03*
D56*
X137160Y300228D03*
D21*
X-30480Y301752D03*
D23*
X-16002Y301752D03*
D30*
X3048Y301752D03*
D38*
X23622Y301752D03*
D51*
X64008Y301752D03*
D47*
X94488Y301752D03*
D56*
X135636Y301752D03*
D21*
X-30480Y303276D03*
D23*
X-16002Y303276D03*
D30*
X3048Y303276D03*
D49*
X23622Y303276D03*
D38*
X64770Y303276D03*
D55*
X92202Y303276D03*
D56*
X135636Y303276D03*
D21*
X-28956Y304800D03*
X-15240Y304800D03*
D30*
X3048Y304800D03*
D55*
X23622Y304800D03*
D10*
X62484Y304800D03*
X68580Y304800D03*
D46*
X91440Y304800D03*
D56*
X134112Y304800D03*
D21*
X-27432Y306324D03*
X-15240Y306324D03*
D61*
X16764Y306324D03*
D10*
X62484Y306324D03*
X68580Y306324D03*
D47*
X91440Y306324D03*
D11*
X133350Y306324D03*
X-20574Y307848D03*
D58*
X17526Y307848D03*
D52*
X61722Y307848D03*
D42*
X68580Y307848D03*
D23*
X95250Y307848D03*
D56*
X132588Y307848D03*
D46*
X-19812Y309372D03*
D55*
X9906Y309372D03*
D23*
X31242Y309372D03*
D10*
X60960Y309372D03*
D30*
X94488Y309372D03*
D11*
X131826Y309372D03*
D46*
X-18288Y310896D03*
D51*
X9144Y310896D03*
D30*
X32004Y310896D03*
D10*
X60960Y310896D03*
D30*
X94488Y310896D03*
D11*
X130302Y310896D03*
D46*
X-16764Y312420D03*
D23*
X8382Y312420D03*
D42*
X19812Y312420D03*
D10*
X32004Y312420D03*
X60960Y312420D03*
D30*
X92964Y312420D03*
D11*
X128778Y312420D03*
X-16002Y313944D03*
D23*
X8382Y313944D03*
D53*
X17526Y313944D03*
D52*
X32766Y313944D03*
D53*
X60198Y313944D03*
D30*
X92964Y313944D03*
D50*
X127254Y313944D03*
D21*
X-21336Y315468D03*
X-9144Y315468D03*
D49*
X12954Y315468D03*
D53*
X32766Y315468D03*
D23*
X60198Y315468D03*
D53*
X92202Y315468D03*
D50*
X125730Y315468D03*
D30*
X-22860Y316992D03*
D21*
X-7620Y316992D03*
D38*
X12954Y316992D03*
D53*
X32766Y316992D03*
D23*
X60198Y316992D03*
D50*
X125730Y316992D03*
D53*
X-23622Y318516D03*
D23*
X-6858Y318516D03*
D30*
X13716Y318516D03*
D47*
X28956Y318516D03*
D21*
X59436Y318516D03*
D52*
X104394Y318516D03*
D50*
X125730Y318516D03*
D10*
X-22860Y320040D03*
D53*
X-6858Y320040D03*
D59*
X25908Y320040D03*
D38*
X58674Y320040D03*
D21*
X103632Y320040D03*
D56*
X126492Y320040D03*
D53*
X-22098Y321564D03*
D10*
X-6096Y321564D03*
D59*
X27432Y321564D03*
D49*
X58674Y321564D03*
D52*
X89154Y321564D03*
D38*
X102870Y321564D03*
D11*
X127254Y321564D03*
D53*
X-22098Y323088D03*
D10*
X-6096Y323088D03*
D11*
X22098Y323088D03*
D12*
X50292Y323088D03*
D30*
X89916Y323088D03*
D51*
X102108Y323088D03*
D11*
X125730Y323088D03*
D53*
X-22098Y324612D03*
D13*
X10668Y324612D03*
D47*
X45720Y324612D03*
D30*
X64008Y324612D03*
D56*
X97536Y324612D03*
X124968Y324612D03*
D53*
X-20574Y326136D03*
D13*
X10668Y326136D03*
D51*
X44196Y326136D03*
D30*
X65532Y326136D03*
D56*
X97536Y326136D03*
D50*
X122682Y326136D03*
D23*
X-19050Y327660D03*
D59*
X1524Y327660D03*
D23*
X25146Y327660D03*
D38*
X41910Y327660D03*
X64770Y327660D03*
D14*
X108204Y327660D03*
D46*
X-12192Y329184D03*
D10*
X13716Y329184D03*
D30*
X24384Y329184D03*
D23*
X38862Y329184D03*
D55*
X64770Y329184D03*
D23*
X87630Y329184D03*
D45*
X110490Y329184D03*
D49*
X-12954Y330708D03*
D10*
X13716Y330708D03*
X24384Y330708D03*
D30*
X38100Y330708D03*
D62*
X71628Y330708D03*
D12*
X109728Y330708D03*
D49*
X-12954Y332232D03*
D53*
X14478Y332232D03*
D52*
X37338Y332232D03*
D13*
X70104Y332232D03*
D60*
X108966Y332232D03*
D49*
X-11430Y333756D03*
D23*
X52578Y333756D03*
D56*
X77724Y333756D03*
D30*
X96012Y333756D03*
D55*
X115062Y333756D03*
D49*
X-9906Y335280D03*
D42*
X9144Y335280D03*
D30*
X51816Y335280D03*
D11*
X78486Y335280D03*
D30*
X94488Y335280D03*
D49*
X116586Y335280D03*
X-8382Y336804D03*
D53*
X8382Y336804D03*
D30*
X50292Y336804D03*
D55*
X78486Y336804D03*
D30*
X92964Y336804D03*
D49*
X116586Y336804D03*
D43*
X-1524Y338328D03*
D10*
X24384Y338328D03*
D30*
X48768Y338328D03*
D47*
X77724Y338328D03*
D53*
X92202Y338328D03*
D49*
X115062Y338328D03*
D43*
X0Y339852D03*
D38*
X23622Y339852D03*
D30*
X47244Y339852D03*
D38*
X78486Y339852D03*
D53*
X90678Y339852D03*
D49*
X113538Y339852D03*
D56*
X1524Y341376D03*
D51*
X24384Y341376D03*
D30*
X45720Y341376D03*
D21*
X79248Y341376D03*
D10*
X89916Y341376D03*
D49*
X112014Y341376D03*
D46*
X1524Y342900D03*
D38*
X26670Y342900D03*
D23*
X44958Y342900D03*
D30*
X80772Y342900D03*
D10*
X89916Y342900D03*
D49*
X110490Y342900D03*
D47*
X1524Y344424D03*
D21*
X28956Y344424D03*
X44196Y344424D03*
D30*
X80772Y344424D03*
D10*
X88392Y344424D03*
D51*
X108204Y344424D03*
D49*
X2286Y345948D03*
D21*
X28956Y345948D03*
D51*
X44196Y345948D03*
D38*
X83058Y345948D03*
X105918Y345948D03*
D49*
X3810Y347472D03*
D60*
X38862Y347472D03*
D51*
X82296Y347472D03*
D38*
X104394Y347472D03*
D49*
X5334Y348996D03*
D60*
X40386Y348996D03*
D49*
X81534Y348996D03*
D38*
X101346Y348996D03*
D49*
X5334Y350520D03*
D12*
X41148Y350520D03*
D47*
X80772Y350520D03*
D21*
X99060Y350520D03*
D51*
X6096Y352044D03*
D47*
X33528Y352044D03*
D21*
X51816Y352044D03*
D46*
X80772Y352044D03*
D21*
X97536Y352044D03*
D38*
X5334Y353568D03*
D11*
X29718Y353568D03*
D30*
X51816Y353568D03*
D12*
X85344Y353568D03*
D21*
X6096Y355092D03*
D11*
X28194Y355092D03*
D30*
X50292Y355092D03*
D38*
X73914Y355092D03*
D47*
X91440Y355092D03*
D51*
X7620Y356616D03*
D46*
X27432Y356616D03*
D30*
X48768Y356616D03*
D38*
X72390Y356616D03*
D49*
X90678Y356616D03*
D61*
X19812Y358140D03*
D23*
X46482Y358140D03*
D38*
X70866Y358140D03*
D51*
X89916Y358140D03*
D45*
X20574Y359664D03*
D38*
X44958Y359664D03*
D21*
X68580Y359664D03*
D38*
X89154Y359664D03*
D63*
X28194Y361188D03*
D38*
X67818Y361188D03*
D21*
X86868Y361188D03*
D64*
X28956Y362712D03*
D21*
X67056Y362712D03*
X85344Y362712D03*
D65*
X29718Y364236D03*
D21*
X65532Y364236D03*
D51*
X82296Y364236D03*
D49*
X19050Y365760D03*
D55*
X41910Y365760D03*
D57*
X73914Y365760D03*
D49*
X20574Y367284D03*
D13*
X65532Y367284D03*
D51*
X22860Y368808D03*
D62*
X65532Y368808D03*
D49*
X26670Y370332D03*
D61*
X64008Y370332D03*
D22*
X49530Y371856D03*
D64*
X48768Y373380D03*
D45*
X49530Y374904D03*
D21*
X50292Y376428D03*
D66*
X48768Y284254D02*
X56219Y284254D01*
X52493Y280529D02*
X52493Y287980D01*
X53566Y226399D02*
X53566Y218948D01*
X57340Y238000D02*
X57330Y238125D01*
X57316Y238250D01*
X57298Y238375D01*
X57276Y238499D01*
X57250Y238622D01*
X57221Y238744D01*
X57187Y238865D01*
X57150Y238986D01*
X57109Y239104D01*
X57065Y239222D01*
X57016Y239338D01*
X56965Y239453D01*
X56909Y239566D01*
X56850Y239677D01*
X56788Y239786D01*
X56722Y239893D01*
X56653Y239998D01*
X56580Y240101D01*
X56505Y240202D01*
X56426Y240300D01*
X56344Y240395D01*
X56259Y240488D01*
X56172Y240578D01*
X56081Y240666D01*
X55988Y240750D01*
X55893Y240832D01*
X55794Y240911D01*
X55694Y240986D01*
X55591Y241058D01*
X55486Y241127D01*
X55378Y241193D01*
X55269Y241255D01*
X55158Y241314D01*
X55045Y241369D01*
X54930Y241421D01*
X54814Y241469D01*
X54696Y241514D01*
X54577Y241554D01*
X54457Y241591D01*
X54336Y241624D01*
X54213Y241654D01*
X54090Y241679D01*
X53966Y241701D01*
X53842Y241718D01*
X53717Y241732D01*
X53591Y241742D01*
X53466Y241748D01*
X53340Y241750D01*
X53214Y241748D01*
X53089Y241742D01*
X52963Y241732D01*
X52838Y241718D01*
X52714Y241701D01*
X52590Y241679D01*
X52467Y241654D01*
X52344Y241624D01*
X52223Y241591D01*
X52103Y241554D01*
X51984Y241514D01*
X51866Y241469D01*
X51750Y241421D01*
X51635Y241369D01*
X51522Y241314D01*
X51411Y241255D01*
X51302Y241193D01*
X51194Y241127D01*
X51089Y241058D01*
X50986Y240986D01*
X50886Y240911D01*
X50787Y240832D01*
X50692Y240750D01*
X50599Y240666D01*
X50508Y240578D01*
X50421Y240488D01*
X50336Y240395D01*
X50254Y240300D01*
X50175Y240202D01*
X50100Y240101D01*
X50027Y239998D01*
X49958Y239893D01*
X49892Y239786D01*
X49830Y239677D01*
X49771Y239566D01*
X49715Y239453D01*
X49664Y239338D01*
X49615Y239222D01*
X49571Y239104D01*
X49530Y238986D01*
X49493Y238865D01*
X49459Y238744D01*
X49430Y238622D01*
X49404Y238499D01*
X49382Y238375D01*
X49364Y238250D01*
X49350Y238125D01*
X49340Y238000D01*
X61340Y244500D02*
X61340Y263500D01*
X45340Y263500D02*
X45340Y244500D01*
X57840Y239750D02*
X57842Y239813D01*
X57848Y239875D01*
X57858Y239937D01*
X57871Y239999D01*
X57889Y240059D01*
X57910Y240118D01*
X57935Y240176D01*
X57964Y240232D01*
X57996Y240286D01*
X58031Y240338D01*
X58069Y240387D01*
X58111Y240435D01*
X58155Y240479D01*
X58203Y240521D01*
X58252Y240559D01*
X58304Y240594D01*
X58358Y240626D01*
X58414Y240655D01*
X58472Y240680D01*
X58531Y240701D01*
X58591Y240719D01*
X58653Y240732D01*
X58715Y240742D01*
X58777Y240748D01*
X58840Y240750D01*
X58903Y240748D01*
X58965Y240742D01*
X59027Y240732D01*
X59089Y240719D01*
X59149Y240701D01*
X59208Y240680D01*
X59266Y240655D01*
X59322Y240626D01*
X59376Y240594D01*
X59428Y240559D01*
X59477Y240521D01*
X59525Y240479D01*
X59569Y240435D01*
X59611Y240387D01*
X59649Y240338D01*
X59684Y240286D01*
X59716Y240232D01*
X59745Y240176D01*
X59770Y240118D01*
X59791Y240059D01*
X59809Y239999D01*
X59822Y239937D01*
X59832Y239875D01*
X59838Y239813D01*
X59840Y239750D01*
X59838Y239687D01*
X59832Y239625D01*
X59822Y239563D01*
X59809Y239501D01*
X59791Y239441D01*
X59770Y239382D01*
X59745Y239324D01*
X59716Y239268D01*
X59684Y239214D01*
X59649Y239162D01*
X59611Y239113D01*
X59569Y239065D01*
X59525Y239021D01*
X59477Y238979D01*
X59428Y238941D01*
X59376Y238906D01*
X59322Y238874D01*
X59266Y238845D01*
X59208Y238820D01*
X59149Y238799D01*
X59089Y238781D01*
X59027Y238768D01*
X58965Y238758D01*
X58903Y238752D01*
X58840Y238750D01*
X58777Y238752D01*
X58715Y238758D01*
X58653Y238768D01*
X58591Y238781D01*
X58531Y238799D01*
X58472Y238820D01*
X58414Y238845D01*
X58358Y238874D01*
X58304Y238906D01*
X58252Y238941D01*
X58203Y238979D01*
X58155Y239021D01*
X58111Y239065D01*
X58069Y239113D01*
X58031Y239162D01*
X57996Y239214D01*
X57964Y239268D01*
X57935Y239324D01*
X57910Y239382D01*
X57889Y239441D01*
X57871Y239501D01*
X57858Y239563D01*
X57848Y239625D01*
X57842Y239687D01*
X57840Y239750D01*
D67*
X59340Y238125D03*
D68*
X60715Y240125D03*
D69*
X57215Y240625D03*
D70*
X57715Y241125D03*
D71*
X47340Y239250D03*
D72*
X47840Y241125D03*
D73*
X53340Y243000D03*
D74*
X53340Y267000D03*
D75*
X60215Y248375D03*
X46465Y248375D03*
D76*
X53340Y252250D03*
D77*
X63754Y249154D02*
X70358Y249154D01*
X70358Y252090D01*
X70358Y254702D02*
X70358Y257637D01*
X70358Y254702D02*
X63754Y254702D01*
X63754Y257637D01*
X66689Y256903D02*
X66689Y254702D01*
X63754Y260237D02*
X70358Y260237D01*
X63754Y260237D02*
X63754Y262072D01*
X63756Y262157D01*
X63762Y262241D01*
X63772Y262325D01*
X63785Y262409D01*
X63803Y262492D01*
X63824Y262574D01*
X63849Y262655D01*
X63878Y262735D01*
X63910Y262813D01*
X63946Y262889D01*
X63986Y262964D01*
X64029Y263037D01*
X64075Y263108D01*
X64124Y263177D01*
X64177Y263244D01*
X64233Y263308D01*
X64291Y263369D01*
X64352Y263427D01*
X64416Y263483D01*
X64483Y263536D01*
X64552Y263585D01*
X64623Y263631D01*
X64696Y263674D01*
X64771Y263714D01*
X64847Y263750D01*
X64926Y263782D01*
X65005Y263811D01*
X65086Y263836D01*
X65168Y263857D01*
X65251Y263875D01*
X65335Y263888D01*
X65419Y263898D01*
X65503Y263904D01*
X65588Y263906D01*
X68524Y263906D01*
X68609Y263904D01*
X68693Y263898D01*
X68777Y263888D01*
X68861Y263875D01*
X68944Y263857D01*
X69026Y263836D01*
X69107Y263811D01*
X69187Y263782D01*
X69265Y263750D01*
X69341Y263714D01*
X69416Y263674D01*
X69489Y263631D01*
X69560Y263585D01*
X69629Y263536D01*
X69696Y263483D01*
X69760Y263427D01*
X69821Y263369D01*
X69879Y263308D01*
X69935Y263244D01*
X69988Y263177D01*
X70037Y263108D01*
X70083Y263037D01*
X70126Y262964D01*
X70166Y262889D01*
X70202Y262813D01*
X70234Y262735D01*
X70263Y262655D01*
X70288Y262574D01*
X70309Y262492D01*
X70327Y262409D01*
X70340Y262325D01*
X70350Y262241D01*
X70356Y262157D01*
X70358Y262072D01*
X70358Y260237D01*
M02*
