G04 EAGLE Gerber RS-274X export*
G75*
%MOMM*%
%FSLAX34Y34*%
%LPD*%
%INSilkscreen Bottom*%
%IPPOS*%
%AMOC8*
5,1,8,0,0,1.08239X$1,22.5*%
G01*
%ADD10C,0.127000*%
%ADD11C,0.152400*%
%ADD12R,1.752600X0.736600*%
%ADD13C,0.101600*%
%ADD14C,0.076200*%


D10*
X149860Y216798D02*
X160457Y227395D01*
X143973Y222685D01*
X154570Y233282D01*
X146935Y235029D02*
X142225Y230320D01*
X146936Y235029D02*
X147025Y235121D01*
X147111Y235216D01*
X147195Y235313D01*
X147275Y235413D01*
X147352Y235516D01*
X147426Y235620D01*
X147497Y235727D01*
X147565Y235836D01*
X147629Y235947D01*
X147690Y236060D01*
X147747Y236175D01*
X147800Y236291D01*
X147850Y236410D01*
X147897Y236529D01*
X147939Y236650D01*
X147978Y236772D01*
X148013Y236896D01*
X148044Y237020D01*
X148072Y237145D01*
X148095Y237271D01*
X148115Y237398D01*
X148131Y237525D01*
X148143Y237653D01*
X148151Y237781D01*
X148155Y237909D01*
X148155Y238037D01*
X148151Y238165D01*
X148143Y238293D01*
X148131Y238421D01*
X148115Y238548D01*
X148095Y238675D01*
X148072Y238801D01*
X148044Y238926D01*
X148013Y239050D01*
X147978Y239174D01*
X147939Y239296D01*
X147897Y239417D01*
X147850Y239536D01*
X147800Y239655D01*
X147747Y239771D01*
X147690Y239886D01*
X147629Y239999D01*
X147565Y240110D01*
X147497Y240219D01*
X147426Y240326D01*
X147352Y240430D01*
X147275Y240533D01*
X147195Y240633D01*
X147111Y240730D01*
X147025Y240825D01*
X146936Y240917D01*
X146844Y241006D01*
X146749Y241092D01*
X146652Y241176D01*
X146552Y241256D01*
X146449Y241333D01*
X146345Y241407D01*
X146238Y241478D01*
X146129Y241546D01*
X146018Y241610D01*
X145905Y241671D01*
X145790Y241728D01*
X145674Y241781D01*
X145555Y241831D01*
X145436Y241878D01*
X145315Y241920D01*
X145193Y241959D01*
X145069Y241994D01*
X144945Y242025D01*
X144820Y242053D01*
X144694Y242076D01*
X144567Y242096D01*
X144440Y242112D01*
X144312Y242124D01*
X144184Y242132D01*
X144056Y242136D01*
X143928Y242136D01*
X143800Y242132D01*
X143672Y242124D01*
X143544Y242112D01*
X143417Y242096D01*
X143290Y242076D01*
X143164Y242053D01*
X143039Y242025D01*
X142915Y241994D01*
X142791Y241959D01*
X142669Y241920D01*
X142548Y241878D01*
X142429Y241831D01*
X142310Y241781D01*
X142194Y241728D01*
X142079Y241671D01*
X141966Y241610D01*
X141855Y241546D01*
X141746Y241478D01*
X141639Y241407D01*
X141535Y241333D01*
X141432Y241256D01*
X141332Y241176D01*
X141235Y241092D01*
X141140Y241006D01*
X141048Y240917D01*
X141048Y240916D02*
X136338Y236207D01*
X136249Y236115D01*
X136163Y236020D01*
X136079Y235923D01*
X135999Y235823D01*
X135922Y235720D01*
X135848Y235616D01*
X135777Y235509D01*
X135709Y235400D01*
X135645Y235289D01*
X135584Y235176D01*
X135527Y235061D01*
X135474Y234945D01*
X135424Y234826D01*
X135377Y234707D01*
X135335Y234586D01*
X135296Y234464D01*
X135261Y234340D01*
X135230Y234216D01*
X135202Y234091D01*
X135179Y233965D01*
X135159Y233838D01*
X135143Y233711D01*
X135131Y233583D01*
X135123Y233455D01*
X135119Y233327D01*
X135119Y233199D01*
X135123Y233071D01*
X135131Y232943D01*
X135143Y232815D01*
X135159Y232688D01*
X135179Y232561D01*
X135202Y232435D01*
X135230Y232310D01*
X135261Y232186D01*
X135296Y232062D01*
X135335Y231940D01*
X135377Y231819D01*
X135424Y231700D01*
X135474Y231581D01*
X135527Y231465D01*
X135584Y231350D01*
X135645Y231237D01*
X135709Y231126D01*
X135777Y231017D01*
X135848Y230910D01*
X135922Y230806D01*
X135999Y230703D01*
X136079Y230603D01*
X136163Y230506D01*
X136249Y230411D01*
X136338Y230319D01*
X136430Y230230D01*
X136525Y230144D01*
X136622Y230060D01*
X136722Y229980D01*
X136825Y229903D01*
X136929Y229829D01*
X137036Y229758D01*
X137145Y229690D01*
X137256Y229626D01*
X137369Y229565D01*
X137484Y229508D01*
X137600Y229455D01*
X137719Y229405D01*
X137838Y229358D01*
X137959Y229316D01*
X138081Y229277D01*
X138205Y229242D01*
X138329Y229211D01*
X138454Y229183D01*
X138580Y229160D01*
X138707Y229140D01*
X138834Y229124D01*
X138962Y229112D01*
X139090Y229104D01*
X139218Y229100D01*
X139346Y229100D01*
X139474Y229104D01*
X139602Y229112D01*
X139730Y229124D01*
X139857Y229140D01*
X139984Y229160D01*
X140110Y229183D01*
X140235Y229211D01*
X140359Y229242D01*
X140483Y229277D01*
X140605Y229316D01*
X140726Y229358D01*
X140845Y229405D01*
X140964Y229455D01*
X141080Y229508D01*
X141195Y229565D01*
X141308Y229626D01*
X141419Y229690D01*
X141528Y229758D01*
X141635Y229829D01*
X141739Y229903D01*
X141842Y229980D01*
X141942Y230060D01*
X142039Y230144D01*
X142134Y230230D01*
X142226Y230319D01*
X128642Y238016D02*
X139239Y248612D01*
X136296Y251556D01*
X136204Y251645D01*
X136109Y251731D01*
X136012Y251815D01*
X135912Y251895D01*
X135809Y251972D01*
X135705Y252046D01*
X135598Y252117D01*
X135489Y252185D01*
X135378Y252249D01*
X135265Y252310D01*
X135150Y252367D01*
X135034Y252420D01*
X134915Y252470D01*
X134796Y252517D01*
X134675Y252559D01*
X134553Y252598D01*
X134429Y252633D01*
X134305Y252664D01*
X134180Y252692D01*
X134054Y252715D01*
X133927Y252735D01*
X133800Y252751D01*
X133672Y252763D01*
X133544Y252771D01*
X133416Y252775D01*
X133288Y252775D01*
X133160Y252771D01*
X133032Y252763D01*
X132904Y252751D01*
X132777Y252735D01*
X132650Y252715D01*
X132524Y252692D01*
X132399Y252664D01*
X132275Y252633D01*
X132151Y252598D01*
X132029Y252559D01*
X131908Y252517D01*
X131789Y252470D01*
X131670Y252420D01*
X131554Y252367D01*
X131439Y252310D01*
X131326Y252249D01*
X131215Y252185D01*
X131106Y252117D01*
X130999Y252046D01*
X130895Y251972D01*
X130792Y251895D01*
X130692Y251815D01*
X130595Y251731D01*
X130500Y251645D01*
X130408Y251556D01*
X130319Y251464D01*
X130233Y251369D01*
X130149Y251272D01*
X130069Y251172D01*
X129992Y251069D01*
X129918Y250965D01*
X129847Y250858D01*
X129779Y250749D01*
X129715Y250638D01*
X129654Y250525D01*
X129597Y250410D01*
X129544Y250294D01*
X129494Y250175D01*
X129447Y250056D01*
X129405Y249935D01*
X129366Y249813D01*
X129331Y249689D01*
X129300Y249565D01*
X129272Y249440D01*
X129249Y249314D01*
X129229Y249187D01*
X129213Y249060D01*
X129201Y248932D01*
X129193Y248804D01*
X129189Y248676D01*
X129189Y248548D01*
X129193Y248420D01*
X129201Y248292D01*
X129213Y248164D01*
X129229Y248037D01*
X129249Y247910D01*
X129272Y247784D01*
X129300Y247659D01*
X129331Y247535D01*
X129366Y247411D01*
X129405Y247289D01*
X129447Y247168D01*
X129494Y247049D01*
X129544Y246930D01*
X129597Y246814D01*
X129654Y246699D01*
X129715Y246586D01*
X129779Y246475D01*
X129847Y246366D01*
X129918Y246259D01*
X129992Y246155D01*
X130069Y246052D01*
X130149Y245952D01*
X130233Y245855D01*
X130319Y245760D01*
X130408Y245668D01*
X130408Y245669D02*
X133352Y242725D01*
X129820Y246258D02*
X122755Y243903D01*
X116206Y250452D02*
X126803Y261049D01*
X129746Y258105D02*
X123859Y263992D01*
X119850Y268001D02*
X109254Y257404D01*
X115141Y263291D02*
X109254Y269178D01*
X113963Y273888D02*
X103367Y263291D01*
X95484Y271173D02*
X95405Y271255D01*
X95329Y271339D01*
X95256Y271426D01*
X95186Y271516D01*
X95119Y271608D01*
X95055Y271702D01*
X94994Y271798D01*
X94936Y271896D01*
X94882Y271996D01*
X94832Y272098D01*
X94785Y272201D01*
X94741Y272306D01*
X94701Y272413D01*
X94665Y272521D01*
X94632Y272630D01*
X94604Y272740D01*
X94579Y272850D01*
X94557Y272962D01*
X94540Y273075D01*
X94526Y273187D01*
X94517Y273301D01*
X94511Y273414D01*
X94509Y273528D01*
X94511Y273642D01*
X94517Y273755D01*
X94526Y273869D01*
X94540Y273981D01*
X94557Y274094D01*
X94579Y274206D01*
X94604Y274316D01*
X94632Y274426D01*
X94665Y274535D01*
X94701Y274643D01*
X94741Y274750D01*
X94785Y274855D01*
X94832Y274958D01*
X94882Y275060D01*
X94936Y275160D01*
X94994Y275258D01*
X95055Y275354D01*
X95119Y275448D01*
X95186Y275540D01*
X95256Y275630D01*
X95329Y275717D01*
X95405Y275801D01*
X95484Y275883D01*
X95484Y271174D02*
X95604Y271056D01*
X95728Y270941D01*
X95854Y270830D01*
X95982Y270721D01*
X96113Y270615D01*
X96247Y270513D01*
X96383Y270414D01*
X96521Y270318D01*
X96662Y270226D01*
X96805Y270136D01*
X96950Y270051D01*
X97096Y269968D01*
X97245Y269890D01*
X97396Y269815D01*
X97548Y269743D01*
X97702Y269675D01*
X97858Y269611D01*
X98015Y269551D01*
X98174Y269494D01*
X98334Y269442D01*
X98495Y269393D01*
X98657Y269348D01*
X98820Y269307D01*
X98984Y269269D01*
X99149Y269236D01*
X99315Y269207D01*
X99481Y269181D01*
X99648Y269160D01*
X99816Y269142D01*
X99984Y269129D01*
X100152Y269120D01*
X100320Y269114D01*
X100488Y269113D01*
X106964Y276177D02*
X107043Y276259D01*
X107119Y276344D01*
X107192Y276430D01*
X107262Y276520D01*
X107330Y276612D01*
X107393Y276706D01*
X107454Y276802D01*
X107512Y276900D01*
X107566Y277000D01*
X107616Y277102D01*
X107663Y277205D01*
X107707Y277310D01*
X107747Y277417D01*
X107783Y277525D01*
X107816Y277634D01*
X107844Y277744D01*
X107869Y277854D01*
X107891Y277966D01*
X107908Y278079D01*
X107922Y278191D01*
X107931Y278305D01*
X107937Y278418D01*
X107939Y278532D01*
X107937Y278646D01*
X107931Y278759D01*
X107922Y278873D01*
X107908Y278985D01*
X107891Y279098D01*
X107869Y279210D01*
X107844Y279320D01*
X107816Y279430D01*
X107783Y279539D01*
X107747Y279647D01*
X107707Y279754D01*
X107663Y279859D01*
X107616Y279962D01*
X107566Y280064D01*
X107512Y280164D01*
X107454Y280262D01*
X107393Y280358D01*
X107330Y280452D01*
X107262Y280544D01*
X107192Y280634D01*
X107119Y280720D01*
X107043Y280805D01*
X106964Y280887D01*
X106854Y280995D01*
X106740Y281100D01*
X106624Y281203D01*
X106506Y281302D01*
X106385Y281398D01*
X106262Y281492D01*
X106137Y281582D01*
X106009Y281669D01*
X105880Y281753D01*
X105748Y281834D01*
X105614Y281912D01*
X105479Y281986D01*
X105341Y282057D01*
X105202Y282124D01*
X105062Y282188D01*
X104919Y282249D01*
X104776Y282305D01*
X104631Y282359D01*
X104484Y282408D01*
X104337Y282455D01*
X104188Y282497D01*
X104039Y282536D01*
X103888Y282571D01*
X103737Y282602D01*
X103585Y282630D01*
X103432Y282653D01*
X103727Y275295D02*
X103837Y275268D01*
X103948Y275245D01*
X104060Y275226D01*
X104172Y275211D01*
X104284Y275199D01*
X104397Y275192D01*
X104511Y275188D01*
X104624Y275187D01*
X104737Y275191D01*
X104850Y275198D01*
X104963Y275210D01*
X105075Y275224D01*
X105187Y275243D01*
X105298Y275266D01*
X105408Y275292D01*
X105517Y275322D01*
X105626Y275355D01*
X105733Y275392D01*
X105838Y275433D01*
X105943Y275477D01*
X106045Y275524D01*
X106147Y275575D01*
X106246Y275630D01*
X106343Y275687D01*
X106439Y275748D01*
X106532Y275812D01*
X106624Y275880D01*
X106712Y275950D01*
X106799Y276023D01*
X106883Y276099D01*
X106964Y276178D01*
X98722Y276766D02*
X98612Y276793D01*
X98501Y276816D01*
X98390Y276835D01*
X98277Y276850D01*
X98165Y276862D01*
X98052Y276869D01*
X97938Y276873D01*
X97825Y276874D01*
X97712Y276870D01*
X97599Y276863D01*
X97486Y276851D01*
X97374Y276837D01*
X97262Y276818D01*
X97151Y276795D01*
X97041Y276769D01*
X96932Y276739D01*
X96823Y276706D01*
X96716Y276669D01*
X96611Y276628D01*
X96506Y276584D01*
X96404Y276537D01*
X96302Y276486D01*
X96203Y276431D01*
X96106Y276374D01*
X96010Y276313D01*
X95917Y276249D01*
X95825Y276181D01*
X95736Y276111D01*
X95650Y276038D01*
X95566Y275962D01*
X95485Y275883D01*
X98722Y276766D02*
X103726Y275294D01*
X88760Y277898D02*
X84051Y282607D01*
X88760Y277898D02*
X99357Y288494D01*
X94648Y293204D01*
X91115Y287317D02*
X94648Y283785D01*
X77921Y288737D02*
X75567Y291091D01*
X77921Y288736D02*
X78003Y288657D01*
X78088Y288581D01*
X78174Y288508D01*
X78264Y288438D01*
X78356Y288370D01*
X78450Y288307D01*
X78546Y288246D01*
X78644Y288188D01*
X78744Y288134D01*
X78846Y288084D01*
X78949Y288037D01*
X79054Y287993D01*
X79161Y287953D01*
X79269Y287917D01*
X79378Y287884D01*
X79488Y287856D01*
X79598Y287831D01*
X79710Y287809D01*
X79823Y287792D01*
X79935Y287778D01*
X80049Y287769D01*
X80162Y287763D01*
X80276Y287761D01*
X80390Y287763D01*
X80503Y287769D01*
X80617Y287778D01*
X80729Y287792D01*
X80842Y287809D01*
X80954Y287831D01*
X81064Y287856D01*
X81174Y287884D01*
X81283Y287917D01*
X81391Y287953D01*
X81498Y287993D01*
X81603Y288037D01*
X81706Y288084D01*
X81808Y288134D01*
X81908Y288188D01*
X82006Y288246D01*
X82102Y288307D01*
X82196Y288371D01*
X82288Y288438D01*
X82378Y288508D01*
X82465Y288581D01*
X82549Y288657D01*
X82631Y288736D01*
X82631Y288737D02*
X88518Y294624D01*
X88597Y294706D01*
X88673Y294790D01*
X88746Y294877D01*
X88816Y294967D01*
X88883Y295059D01*
X88947Y295153D01*
X89008Y295249D01*
X89066Y295347D01*
X89120Y295447D01*
X89170Y295549D01*
X89217Y295652D01*
X89261Y295757D01*
X89301Y295864D01*
X89337Y295972D01*
X89370Y296081D01*
X89398Y296191D01*
X89423Y296301D01*
X89445Y296413D01*
X89462Y296526D01*
X89476Y296638D01*
X89485Y296752D01*
X89491Y296865D01*
X89493Y296979D01*
X89491Y297093D01*
X89485Y297206D01*
X89476Y297320D01*
X89462Y297432D01*
X89445Y297545D01*
X89423Y297656D01*
X89398Y297767D01*
X89370Y297877D01*
X89337Y297986D01*
X89301Y298094D01*
X89261Y298201D01*
X89217Y298306D01*
X89170Y298409D01*
X89120Y298511D01*
X89066Y298611D01*
X89008Y298709D01*
X88947Y298805D01*
X88884Y298899D01*
X88816Y298991D01*
X88746Y299081D01*
X88673Y299167D01*
X88597Y299252D01*
X88518Y299334D01*
X88518Y299333D02*
X86163Y301688D01*
X73617Y314234D02*
X73531Y314317D01*
X73442Y314398D01*
X73350Y314476D01*
X73256Y314551D01*
X73160Y314623D01*
X73062Y314691D01*
X72961Y314757D01*
X72858Y314819D01*
X72754Y314878D01*
X72647Y314934D01*
X72539Y314986D01*
X72429Y315034D01*
X72318Y315079D01*
X72205Y315121D01*
X72091Y315159D01*
X71976Y315193D01*
X71860Y315223D01*
X71743Y315250D01*
X71625Y315273D01*
X71507Y315292D01*
X71387Y315307D01*
X71268Y315319D01*
X71148Y315327D01*
X71028Y315331D01*
X70908Y315331D01*
X70788Y315327D01*
X70668Y315319D01*
X70549Y315307D01*
X70429Y315292D01*
X70311Y315273D01*
X70193Y315250D01*
X70076Y315223D01*
X69960Y315193D01*
X69845Y315159D01*
X69731Y315121D01*
X69618Y315079D01*
X69507Y315034D01*
X69397Y314986D01*
X69289Y314934D01*
X69182Y314878D01*
X69078Y314819D01*
X68975Y314757D01*
X68874Y314691D01*
X68776Y314623D01*
X68680Y314551D01*
X68586Y314476D01*
X68494Y314398D01*
X68405Y314317D01*
X68319Y314234D01*
X73617Y314234D02*
X73713Y314136D01*
X73806Y314034D01*
X73896Y313930D01*
X73983Y313824D01*
X74067Y313715D01*
X74148Y313604D01*
X74226Y313490D01*
X74300Y313374D01*
X74371Y313256D01*
X74439Y313137D01*
X74503Y313015D01*
X74564Y312892D01*
X74621Y312766D01*
X74674Y312640D01*
X74724Y312511D01*
X74770Y312382D01*
X74813Y312251D01*
X74851Y312119D01*
X74886Y311986D01*
X74917Y311852D01*
X74945Y311717D01*
X74968Y311582D01*
X74988Y311445D01*
X75003Y311309D01*
X75015Y311172D01*
X75023Y311034D01*
X75027Y310897D01*
X75026Y310759D01*
X75022Y310622D01*
X75015Y310485D01*
X75003Y310347D01*
X74987Y310211D01*
X74967Y310075D01*
X74944Y309939D01*
X74916Y309804D01*
X74885Y309670D01*
X74850Y309537D01*
X74811Y309405D01*
X74768Y309275D01*
X74722Y309145D01*
X74672Y309017D01*
X74618Y308890D01*
X74561Y308765D01*
X74500Y308642D01*
X67142Y311291D02*
X67141Y311416D01*
X67144Y311542D01*
X67151Y311667D01*
X67161Y311792D01*
X67176Y311916D01*
X67194Y312040D01*
X67216Y312163D01*
X67242Y312286D01*
X67272Y312408D01*
X67306Y312528D01*
X67343Y312648D01*
X67384Y312766D01*
X67429Y312884D01*
X67477Y312999D01*
X67529Y313113D01*
X67585Y313226D01*
X67643Y313336D01*
X67706Y313445D01*
X67772Y313552D01*
X67841Y313656D01*
X67913Y313759D01*
X67988Y313859D01*
X68067Y313957D01*
X68148Y314052D01*
X68232Y314144D01*
X68320Y314234D01*
X67142Y311290D02*
X66259Y300399D01*
X60372Y306286D01*
X61321Y315934D02*
X61527Y316145D01*
X61728Y316361D01*
X61923Y316582D01*
X62114Y316807D01*
X62299Y317036D01*
X62478Y317270D01*
X62652Y317508D01*
X62820Y317751D01*
X62982Y317997D01*
X63138Y318247D01*
X63288Y318501D01*
X63433Y318758D01*
X63571Y319018D01*
X63702Y319282D01*
X63828Y319549D01*
X63947Y319819D01*
X64059Y320091D01*
X64165Y320366D01*
X64264Y320644D01*
X64310Y320743D01*
X64352Y320844D01*
X64392Y320945D01*
X64427Y321049D01*
X64459Y321153D01*
X64487Y321259D01*
X64511Y321365D01*
X64532Y321472D01*
X64549Y321580D01*
X64561Y321688D01*
X64570Y321797D01*
X64576Y321906D01*
X64577Y322015D01*
X64574Y322125D01*
X64568Y322234D01*
X64558Y322342D01*
X64544Y322450D01*
X64526Y322558D01*
X64504Y322665D01*
X64478Y322771D01*
X64449Y322876D01*
X64416Y322980D01*
X64379Y323083D01*
X64339Y323185D01*
X64295Y323285D01*
X64248Y323383D01*
X64197Y323480D01*
X64143Y323574D01*
X64085Y323667D01*
X64025Y323758D01*
X63961Y323846D01*
X63894Y323932D01*
X63824Y324016D01*
X63751Y324097D01*
X63675Y324176D01*
X63676Y324177D02*
X63597Y324252D01*
X63516Y324325D01*
X63432Y324396D01*
X63346Y324463D01*
X63257Y324527D01*
X63167Y324587D01*
X63074Y324645D01*
X62979Y324699D01*
X62882Y324750D01*
X62784Y324797D01*
X62684Y324841D01*
X62583Y324881D01*
X62480Y324918D01*
X62376Y324951D01*
X62270Y324980D01*
X62164Y325006D01*
X62057Y325028D01*
X61950Y325046D01*
X61841Y325060D01*
X61733Y325070D01*
X61624Y325076D01*
X61514Y325079D01*
X61405Y325078D01*
X61296Y325072D01*
X61187Y325063D01*
X61079Y325051D01*
X60971Y325034D01*
X60864Y325013D01*
X60757Y324989D01*
X60652Y324961D01*
X60547Y324929D01*
X60444Y324894D01*
X60342Y324854D01*
X60242Y324812D01*
X60143Y324765D01*
X59865Y324665D01*
X59590Y324559D01*
X59318Y324447D01*
X59048Y324328D01*
X58781Y324202D01*
X58517Y324071D01*
X58257Y323933D01*
X58000Y323789D01*
X57746Y323638D01*
X57496Y323482D01*
X57250Y323320D01*
X57008Y323152D01*
X56769Y322978D01*
X56535Y322799D01*
X56306Y322614D01*
X56081Y322424D01*
X55860Y322228D01*
X55644Y322027D01*
X55433Y321821D01*
X61320Y315934D02*
X61109Y315728D01*
X60893Y315527D01*
X60672Y315332D01*
X60447Y315141D01*
X60218Y314956D01*
X59984Y314777D01*
X59746Y314603D01*
X59503Y314435D01*
X59257Y314273D01*
X59007Y314117D01*
X58753Y313967D01*
X58496Y313822D01*
X58236Y313685D01*
X57972Y313553D01*
X57705Y313427D01*
X57435Y313308D01*
X57163Y313196D01*
X56888Y313090D01*
X56610Y312991D01*
X56511Y312945D01*
X56410Y312903D01*
X56309Y312863D01*
X56205Y312828D01*
X56101Y312796D01*
X55995Y312768D01*
X55889Y312744D01*
X55782Y312723D01*
X55674Y312706D01*
X55566Y312694D01*
X55457Y312685D01*
X55348Y312679D01*
X55239Y312678D01*
X55129Y312681D01*
X55020Y312687D01*
X54912Y312697D01*
X54804Y312711D01*
X54696Y312729D01*
X54589Y312751D01*
X54483Y312777D01*
X54378Y312806D01*
X54274Y312839D01*
X54171Y312876D01*
X54069Y312916D01*
X53969Y312960D01*
X53871Y313007D01*
X53774Y313058D01*
X53680Y313112D01*
X53587Y313170D01*
X53496Y313230D01*
X53408Y313294D01*
X53322Y313361D01*
X53238Y313431D01*
X53157Y313504D01*
X53078Y313580D01*
X52490Y317112D02*
X52589Y317390D01*
X52695Y317665D01*
X52807Y317937D01*
X52926Y318207D01*
X53052Y318474D01*
X53183Y318738D01*
X53321Y318998D01*
X53466Y319255D01*
X53616Y319509D01*
X53772Y319759D01*
X53934Y320005D01*
X54102Y320248D01*
X54276Y320486D01*
X54455Y320720D01*
X54640Y320949D01*
X54831Y321174D01*
X55026Y321395D01*
X55227Y321611D01*
X55433Y321822D01*
X52489Y317112D02*
X52443Y317013D01*
X52401Y316912D01*
X52361Y316811D01*
X52326Y316707D01*
X52294Y316603D01*
X52266Y316497D01*
X52242Y316391D01*
X52221Y316284D01*
X52204Y316176D01*
X52192Y316068D01*
X52183Y315959D01*
X52177Y315850D01*
X52176Y315741D01*
X52179Y315631D01*
X52185Y315522D01*
X52195Y315414D01*
X52209Y315306D01*
X52227Y315198D01*
X52249Y315091D01*
X52275Y314985D01*
X52304Y314880D01*
X52337Y314776D01*
X52374Y314673D01*
X52414Y314571D01*
X52458Y314471D01*
X52505Y314373D01*
X52556Y314276D01*
X52610Y314182D01*
X52668Y314089D01*
X52728Y313998D01*
X52792Y313910D01*
X52859Y313824D01*
X52929Y313740D01*
X53002Y313659D01*
X53078Y313580D01*
X57788Y313580D02*
X58965Y324177D01*
X53143Y334708D02*
X53057Y334791D01*
X52968Y334872D01*
X52876Y334950D01*
X52782Y335025D01*
X52686Y335097D01*
X52588Y335165D01*
X52487Y335231D01*
X52384Y335293D01*
X52280Y335352D01*
X52173Y335408D01*
X52065Y335460D01*
X51955Y335508D01*
X51844Y335553D01*
X51731Y335595D01*
X51617Y335633D01*
X51502Y335667D01*
X51386Y335697D01*
X51269Y335724D01*
X51151Y335747D01*
X51033Y335766D01*
X50913Y335781D01*
X50794Y335793D01*
X50674Y335801D01*
X50554Y335805D01*
X50434Y335805D01*
X50314Y335801D01*
X50194Y335793D01*
X50075Y335781D01*
X49955Y335766D01*
X49837Y335747D01*
X49719Y335724D01*
X49602Y335697D01*
X49486Y335667D01*
X49371Y335633D01*
X49257Y335595D01*
X49144Y335553D01*
X49033Y335508D01*
X48923Y335460D01*
X48815Y335408D01*
X48708Y335352D01*
X48604Y335293D01*
X48501Y335231D01*
X48400Y335165D01*
X48302Y335097D01*
X48206Y335025D01*
X48112Y334950D01*
X48020Y334872D01*
X47931Y334791D01*
X47845Y334708D01*
X53143Y334707D02*
X53239Y334609D01*
X53332Y334507D01*
X53422Y334403D01*
X53509Y334297D01*
X53593Y334188D01*
X53674Y334077D01*
X53752Y333963D01*
X53826Y333847D01*
X53897Y333729D01*
X53965Y333610D01*
X54029Y333488D01*
X54090Y333365D01*
X54147Y333239D01*
X54200Y333113D01*
X54250Y332984D01*
X54296Y332855D01*
X54339Y332724D01*
X54377Y332592D01*
X54412Y332459D01*
X54443Y332325D01*
X54471Y332190D01*
X54494Y332055D01*
X54514Y331918D01*
X54529Y331782D01*
X54541Y331645D01*
X54549Y331507D01*
X54553Y331370D01*
X54552Y331232D01*
X54548Y331095D01*
X54541Y330958D01*
X54529Y330820D01*
X54513Y330684D01*
X54493Y330548D01*
X54470Y330412D01*
X54442Y330277D01*
X54411Y330143D01*
X54376Y330010D01*
X54337Y329878D01*
X54294Y329748D01*
X54248Y329618D01*
X54198Y329490D01*
X54144Y329363D01*
X54087Y329238D01*
X54026Y329115D01*
X46668Y331764D02*
X46667Y331889D01*
X46670Y332015D01*
X46677Y332140D01*
X46687Y332265D01*
X46702Y332389D01*
X46720Y332513D01*
X46742Y332636D01*
X46768Y332759D01*
X46798Y332881D01*
X46832Y333001D01*
X46869Y333121D01*
X46910Y333239D01*
X46955Y333357D01*
X47003Y333472D01*
X47055Y333586D01*
X47111Y333699D01*
X47169Y333809D01*
X47232Y333918D01*
X47298Y334025D01*
X47367Y334129D01*
X47439Y334232D01*
X47514Y334332D01*
X47593Y334430D01*
X47674Y334525D01*
X47758Y334617D01*
X47846Y334707D01*
X46668Y331764D02*
X45785Y320873D01*
X39898Y326760D01*
X37609Y344945D02*
X37695Y345028D01*
X37784Y345109D01*
X37876Y345187D01*
X37970Y345262D01*
X38066Y345334D01*
X38164Y345402D01*
X38265Y345468D01*
X38368Y345530D01*
X38472Y345589D01*
X38579Y345645D01*
X38687Y345697D01*
X38797Y345745D01*
X38908Y345790D01*
X39021Y345832D01*
X39135Y345870D01*
X39250Y345904D01*
X39366Y345934D01*
X39483Y345961D01*
X39601Y345984D01*
X39719Y346003D01*
X39839Y346018D01*
X39958Y346030D01*
X40078Y346038D01*
X40198Y346042D01*
X40318Y346042D01*
X40438Y346038D01*
X40558Y346030D01*
X40677Y346018D01*
X40797Y346003D01*
X40915Y345984D01*
X41033Y345961D01*
X41150Y345934D01*
X41266Y345904D01*
X41381Y345870D01*
X41495Y345832D01*
X41608Y345790D01*
X41719Y345745D01*
X41829Y345697D01*
X41937Y345645D01*
X42044Y345589D01*
X42148Y345530D01*
X42251Y345468D01*
X42352Y345402D01*
X42450Y345334D01*
X42546Y345262D01*
X42640Y345187D01*
X42732Y345109D01*
X42821Y345028D01*
X42907Y344945D01*
X42906Y344944D02*
X43002Y344846D01*
X43095Y344744D01*
X43185Y344640D01*
X43272Y344534D01*
X43356Y344425D01*
X43437Y344314D01*
X43515Y344200D01*
X43589Y344084D01*
X43660Y343966D01*
X43728Y343847D01*
X43792Y343725D01*
X43853Y343602D01*
X43910Y343476D01*
X43963Y343350D01*
X44013Y343221D01*
X44059Y343092D01*
X44102Y342961D01*
X44140Y342829D01*
X44175Y342696D01*
X44206Y342562D01*
X44234Y342427D01*
X44257Y342292D01*
X44277Y342155D01*
X44292Y342019D01*
X44304Y341882D01*
X44312Y341744D01*
X44316Y341607D01*
X44315Y341469D01*
X44311Y341332D01*
X44304Y341195D01*
X44292Y341057D01*
X44276Y340921D01*
X44256Y340785D01*
X44233Y340649D01*
X44205Y340514D01*
X44174Y340380D01*
X44139Y340247D01*
X44100Y340115D01*
X44057Y339985D01*
X44011Y339855D01*
X43961Y339727D01*
X43907Y339600D01*
X43850Y339475D01*
X43789Y339352D01*
X36431Y342001D02*
X36430Y342126D01*
X36433Y342252D01*
X36440Y342377D01*
X36450Y342502D01*
X36465Y342626D01*
X36483Y342750D01*
X36505Y342873D01*
X36531Y342996D01*
X36561Y343118D01*
X36595Y343238D01*
X36632Y343358D01*
X36673Y343476D01*
X36718Y343594D01*
X36766Y343709D01*
X36818Y343823D01*
X36874Y343936D01*
X36932Y344046D01*
X36995Y344155D01*
X37061Y344262D01*
X37130Y344366D01*
X37202Y344469D01*
X37277Y344569D01*
X37356Y344667D01*
X37437Y344762D01*
X37521Y344854D01*
X37609Y344944D01*
X36431Y342001D02*
X35548Y331110D01*
X29661Y336997D01*
D11*
X30988Y261112D02*
X30988Y241935D01*
X14732Y241935D02*
X14732Y261112D01*
D12*
X22860Y264668D03*
X22860Y238252D03*
D13*
X36068Y245805D02*
X47752Y245805D01*
X47752Y249050D01*
X47750Y249163D01*
X47744Y249276D01*
X47734Y249389D01*
X47720Y249502D01*
X47703Y249614D01*
X47681Y249725D01*
X47656Y249835D01*
X47626Y249945D01*
X47593Y250053D01*
X47556Y250160D01*
X47516Y250266D01*
X47471Y250370D01*
X47423Y250473D01*
X47372Y250574D01*
X47317Y250673D01*
X47259Y250770D01*
X47197Y250865D01*
X47132Y250958D01*
X47064Y251048D01*
X46993Y251136D01*
X46918Y251222D01*
X46841Y251305D01*
X46761Y251385D01*
X46678Y251462D01*
X46592Y251537D01*
X46504Y251608D01*
X46414Y251676D01*
X46321Y251741D01*
X46226Y251803D01*
X46129Y251861D01*
X46030Y251916D01*
X45929Y251967D01*
X45826Y252015D01*
X45722Y252060D01*
X45616Y252100D01*
X45509Y252137D01*
X45401Y252170D01*
X45291Y252200D01*
X45181Y252225D01*
X45070Y252247D01*
X44958Y252264D01*
X44845Y252278D01*
X44732Y252288D01*
X44619Y252294D01*
X44506Y252296D01*
X44393Y252294D01*
X44280Y252288D01*
X44167Y252278D01*
X44054Y252264D01*
X43942Y252247D01*
X43831Y252225D01*
X43721Y252200D01*
X43611Y252170D01*
X43503Y252137D01*
X43396Y252100D01*
X43290Y252060D01*
X43186Y252015D01*
X43083Y251967D01*
X42982Y251916D01*
X42883Y251861D01*
X42786Y251803D01*
X42691Y251741D01*
X42598Y251676D01*
X42508Y251608D01*
X42420Y251537D01*
X42334Y251462D01*
X42251Y251385D01*
X42171Y251305D01*
X42094Y251222D01*
X42019Y251136D01*
X41948Y251048D01*
X41880Y250958D01*
X41815Y250865D01*
X41753Y250770D01*
X41695Y250673D01*
X41640Y250574D01*
X41589Y250473D01*
X41541Y250370D01*
X41496Y250266D01*
X41456Y250160D01*
X41419Y250053D01*
X41386Y249945D01*
X41356Y249835D01*
X41331Y249725D01*
X41309Y249614D01*
X41292Y249502D01*
X41278Y249389D01*
X41268Y249276D01*
X41262Y249163D01*
X41260Y249050D01*
X41261Y249050D02*
X41261Y245805D01*
X41261Y249699D02*
X36068Y252296D01*
X45156Y257161D02*
X47752Y260406D01*
X36068Y260406D01*
X36068Y257161D02*
X36068Y263652D01*
D11*
X69850Y194335D02*
X76200Y181635D01*
X69850Y194335D02*
X82550Y194335D01*
X76200Y181635D01*
X83464Y107315D02*
X92710Y107315D01*
X8890Y107315D02*
X8890Y159385D01*
X18136Y159385D01*
X92710Y159385D02*
X92710Y107315D01*
X18136Y107315D02*
X8890Y107315D01*
X32664Y159385D02*
X43536Y159385D01*
X43536Y107315D02*
X32664Y107315D01*
X58064Y159385D02*
X68936Y159385D01*
X68936Y107315D02*
X58064Y107315D01*
X83464Y159385D02*
X92710Y159385D01*
D14*
X14859Y169362D02*
X6900Y169362D01*
X10880Y173341D02*
X10880Y165382D01*
X9553Y101417D02*
X14859Y101417D01*
X89108Y176657D02*
X92424Y174004D01*
X89108Y176657D02*
X89108Y164719D01*
X92424Y164719D02*
X85792Y164719D01*
X88776Y104522D02*
X88669Y104520D01*
X88563Y104514D01*
X88457Y104505D01*
X88351Y104492D01*
X88246Y104475D01*
X88141Y104454D01*
X88038Y104429D01*
X87935Y104401D01*
X87833Y104369D01*
X87733Y104334D01*
X87634Y104295D01*
X87536Y104252D01*
X87440Y104206D01*
X87345Y104157D01*
X87253Y104104D01*
X87162Y104048D01*
X87074Y103989D01*
X86987Y103927D01*
X86903Y103861D01*
X86821Y103793D01*
X86742Y103722D01*
X86665Y103648D01*
X86591Y103571D01*
X86520Y103492D01*
X86452Y103410D01*
X86386Y103326D01*
X86324Y103239D01*
X86265Y103151D01*
X86209Y103060D01*
X86156Y102968D01*
X86107Y102873D01*
X86061Y102777D01*
X86018Y102679D01*
X85979Y102580D01*
X85944Y102480D01*
X85912Y102378D01*
X85884Y102275D01*
X85859Y102172D01*
X85838Y102067D01*
X85821Y101962D01*
X85808Y101856D01*
X85799Y101750D01*
X85793Y101644D01*
X85791Y101537D01*
X88776Y104521D02*
X88897Y104519D01*
X89017Y104513D01*
X89137Y104504D01*
X89257Y104491D01*
X89376Y104474D01*
X89495Y104453D01*
X89613Y104429D01*
X89730Y104400D01*
X89846Y104369D01*
X89962Y104333D01*
X90076Y104294D01*
X90188Y104251D01*
X90300Y104205D01*
X90410Y104156D01*
X90518Y104102D01*
X90624Y104046D01*
X90729Y103986D01*
X90832Y103923D01*
X90932Y103857D01*
X91031Y103788D01*
X91127Y103715D01*
X91221Y103640D01*
X91313Y103562D01*
X91402Y103480D01*
X91489Y103396D01*
X91573Y103310D01*
X91654Y103221D01*
X91732Y103129D01*
X91807Y103035D01*
X91879Y102938D01*
X91949Y102840D01*
X92015Y102739D01*
X92078Y102636D01*
X92137Y102531D01*
X92194Y102425D01*
X92247Y102316D01*
X92296Y102207D01*
X92342Y102095D01*
X92385Y101982D01*
X92423Y101868D01*
X86786Y99215D02*
X86706Y99295D01*
X86628Y99377D01*
X86554Y99461D01*
X86482Y99549D01*
X86414Y99639D01*
X86348Y99731D01*
X86286Y99825D01*
X86228Y99921D01*
X86173Y100020D01*
X86121Y100120D01*
X86073Y100222D01*
X86028Y100326D01*
X85988Y100431D01*
X85951Y100538D01*
X85917Y100646D01*
X85888Y100755D01*
X85862Y100865D01*
X85841Y100976D01*
X85823Y101087D01*
X85809Y101199D01*
X85799Y101311D01*
X85793Y101424D01*
X85791Y101537D01*
X86787Y99215D02*
X92424Y92583D01*
X85792Y92583D01*
D11*
X76200Y181635D02*
X69850Y194335D01*
X82550Y194335D01*
X76200Y181635D01*
X91440Y108585D02*
X10160Y108585D01*
X10160Y158115D01*
X91440Y158115D01*
X91440Y108585D01*
M02*
