G04 EAGLE Gerber RS-274X export*
G75*
%MOMM*%
%FSLAX34Y34*%
%LPD*%
%INBottom Copper*%
%IPPOS*%
%AMOC8*
5,1,8,0,0,1.08239X$1,22.5*%
G01*
%ADD10R,1.524000X0.762000*%
%ADD11C,1.219200*%
%ADD12C,1.524000*%
%ADD13C,1.524000*%
%ADD14P,1.319650X8X202.500000*%
%ADD15P,1.319650X8X22.500000*%
%ADD16P,1.649562X8X22.500000*%
%ADD17P,1.649562X8X157.500000*%
%ADD18C,0.525000*%
%ADD19C,0.304800*%
%ADD20C,0.406400*%
%ADD21C,0.304800*%

G36*
X836543Y2035D02*
X836543Y2035D01*
X836570Y2033D01*
X836744Y2055D01*
X836917Y2073D01*
X836943Y2080D01*
X836969Y2084D01*
X837135Y2139D01*
X837302Y2191D01*
X837326Y2204D01*
X837351Y2212D01*
X837503Y2299D01*
X837656Y2383D01*
X837677Y2400D01*
X837700Y2413D01*
X837953Y2628D01*
X886372Y51047D01*
X886389Y51068D01*
X886410Y51085D01*
X886517Y51223D01*
X886627Y51359D01*
X886640Y51382D01*
X886656Y51403D01*
X886734Y51560D01*
X886816Y51714D01*
X886824Y51740D01*
X886836Y51764D01*
X886881Y51933D01*
X886931Y52100D01*
X886933Y52127D01*
X886940Y52153D01*
X886967Y52483D01*
X886967Y229442D01*
X962572Y305047D01*
X962589Y305068D01*
X962610Y305085D01*
X962717Y305223D01*
X962827Y305359D01*
X962840Y305382D01*
X962856Y305403D01*
X962934Y305560D01*
X963016Y305714D01*
X963024Y305740D01*
X963036Y305764D01*
X963081Y305933D01*
X963131Y306100D01*
X963133Y306127D01*
X963140Y306153D01*
X963167Y306483D01*
X963167Y455517D01*
X963165Y455543D01*
X963167Y455570D01*
X963145Y455744D01*
X963127Y455917D01*
X963120Y455943D01*
X963116Y455969D01*
X963061Y456135D01*
X963009Y456302D01*
X962996Y456326D01*
X962988Y456351D01*
X962901Y456503D01*
X962817Y456656D01*
X962800Y456677D01*
X962787Y456700D01*
X962572Y456953D01*
X886967Y532558D01*
X886967Y734917D01*
X886965Y734943D01*
X886967Y734970D01*
X886945Y735144D01*
X886927Y735317D01*
X886920Y735343D01*
X886916Y735369D01*
X886861Y735535D01*
X886809Y735702D01*
X886796Y735726D01*
X886788Y735751D01*
X886701Y735903D01*
X886617Y736056D01*
X886600Y736077D01*
X886587Y736100D01*
X886372Y736353D01*
X837953Y784772D01*
X837932Y784789D01*
X837915Y784810D01*
X837777Y784917D01*
X837641Y785027D01*
X837618Y785040D01*
X837597Y785056D01*
X837440Y785134D01*
X837286Y785216D01*
X837260Y785224D01*
X837236Y785236D01*
X837067Y785281D01*
X836900Y785331D01*
X836873Y785333D01*
X836847Y785340D01*
X836517Y785367D01*
X52483Y785367D01*
X52457Y785365D01*
X52430Y785367D01*
X52256Y785345D01*
X52083Y785327D01*
X52057Y785320D01*
X52031Y785316D01*
X51865Y785261D01*
X51698Y785209D01*
X51674Y785196D01*
X51649Y785188D01*
X51497Y785101D01*
X51344Y785017D01*
X51323Y785000D01*
X51300Y784987D01*
X51047Y784772D01*
X2628Y736353D01*
X2611Y736332D01*
X2590Y736315D01*
X2483Y736177D01*
X2373Y736041D01*
X2360Y736018D01*
X2344Y735997D01*
X2266Y735840D01*
X2184Y735686D01*
X2176Y735660D01*
X2164Y735636D01*
X2119Y735467D01*
X2069Y735300D01*
X2067Y735273D01*
X2060Y735247D01*
X2033Y734917D01*
X2033Y535083D01*
X2035Y535057D01*
X2033Y535030D01*
X2055Y534856D01*
X2073Y534683D01*
X2080Y534657D01*
X2084Y534631D01*
X2139Y534465D01*
X2191Y534298D01*
X2204Y534274D01*
X2212Y534249D01*
X2299Y534097D01*
X2383Y533944D01*
X2400Y533923D01*
X2413Y533900D01*
X2628Y533647D01*
X78233Y458042D01*
X78233Y303958D01*
X2628Y228353D01*
X2611Y228332D01*
X2590Y228315D01*
X2483Y228177D01*
X2373Y228041D01*
X2360Y228018D01*
X2344Y227997D01*
X2266Y227840D01*
X2184Y227686D01*
X2176Y227660D01*
X2164Y227636D01*
X2119Y227467D01*
X2069Y227300D01*
X2067Y227273D01*
X2060Y227247D01*
X2033Y226917D01*
X2033Y52483D01*
X2035Y52457D01*
X2033Y52430D01*
X2055Y52256D01*
X2073Y52083D01*
X2080Y52057D01*
X2084Y52031D01*
X2139Y51865D01*
X2191Y51698D01*
X2204Y51674D01*
X2212Y51649D01*
X2299Y51497D01*
X2383Y51344D01*
X2400Y51323D01*
X2413Y51300D01*
X2628Y51047D01*
X3881Y49794D01*
X3888Y49788D01*
X3894Y49781D01*
X4043Y49661D01*
X4192Y49539D01*
X4200Y49534D01*
X4207Y49529D01*
X4379Y49440D01*
X4548Y49350D01*
X4557Y49348D01*
X4565Y49343D01*
X4750Y49290D01*
X4934Y49235D01*
X4943Y49234D01*
X4952Y49232D01*
X5143Y49216D01*
X5335Y49199D01*
X5344Y49200D01*
X5353Y49199D01*
X5542Y49221D01*
X5735Y49242D01*
X5744Y49245D01*
X5753Y49246D01*
X5935Y49305D01*
X6119Y49364D01*
X6127Y49368D01*
X6135Y49371D01*
X6304Y49466D01*
X6471Y49559D01*
X6478Y49564D01*
X6486Y49569D01*
X6632Y49695D01*
X6778Y49819D01*
X6784Y49826D01*
X6791Y49832D01*
X6908Y49983D01*
X7028Y50135D01*
X7032Y50143D01*
X7038Y50150D01*
X7123Y50322D01*
X7210Y50494D01*
X7213Y50503D01*
X7217Y50511D01*
X7267Y50697D01*
X7318Y50882D01*
X7319Y50891D01*
X7321Y50899D01*
X7349Y51230D01*
X7349Y57639D01*
X8529Y58819D01*
X15354Y51994D01*
X15368Y51983D01*
X15380Y51969D01*
X15524Y51855D01*
X15666Y51739D01*
X15682Y51731D01*
X15696Y51720D01*
X15769Y51682D01*
X15838Y51557D01*
X15849Y51544D01*
X15858Y51528D01*
X16073Y51275D01*
X22898Y44450D01*
X21718Y43270D01*
X15309Y43270D01*
X15300Y43269D01*
X15291Y43269D01*
X15098Y43249D01*
X14908Y43230D01*
X14900Y43227D01*
X14891Y43226D01*
X14706Y43168D01*
X14523Y43112D01*
X14516Y43107D01*
X14507Y43105D01*
X14339Y43011D01*
X14169Y42920D01*
X14163Y42914D01*
X14155Y42910D01*
X14008Y42785D01*
X13860Y42662D01*
X13855Y42655D01*
X13848Y42649D01*
X13728Y42498D01*
X13608Y42348D01*
X13604Y42340D01*
X13598Y42333D01*
X13510Y42161D01*
X13422Y41991D01*
X13420Y41982D01*
X13416Y41974D01*
X13364Y41788D01*
X13311Y41604D01*
X13310Y41595D01*
X13308Y41587D01*
X13294Y41394D01*
X13278Y41203D01*
X13279Y41194D01*
X13278Y41185D01*
X13303Y40992D01*
X13325Y40803D01*
X13328Y40794D01*
X13329Y40786D01*
X13390Y40603D01*
X13450Y40420D01*
X13454Y40412D01*
X13457Y40404D01*
X13554Y40236D01*
X13648Y40069D01*
X13654Y40063D01*
X13658Y40055D01*
X13873Y39802D01*
X22349Y31325D01*
X22356Y31320D01*
X22362Y31313D01*
X22512Y31192D01*
X22661Y31070D01*
X22669Y31066D01*
X22676Y31060D01*
X22847Y30972D01*
X23017Y30882D01*
X23025Y30879D01*
X23033Y30875D01*
X23218Y30822D01*
X23403Y30767D01*
X23411Y30766D01*
X23420Y30763D01*
X23611Y30748D01*
X23804Y30730D01*
X23812Y30731D01*
X23821Y30731D01*
X24010Y30753D01*
X24204Y30774D01*
X24212Y30776D01*
X24221Y30778D01*
X24403Y30837D01*
X24588Y30895D01*
X24595Y30900D01*
X24604Y30902D01*
X24772Y30997D01*
X24940Y31090D01*
X24947Y31096D01*
X24955Y31100D01*
X25100Y31226D01*
X25247Y31351D01*
X25253Y31358D01*
X25259Y31363D01*
X25377Y31515D01*
X25497Y31667D01*
X25501Y31675D01*
X25506Y31682D01*
X25592Y31854D01*
X25679Y32025D01*
X25681Y32034D01*
X25685Y32042D01*
X25735Y32229D01*
X25787Y32413D01*
X25788Y32422D01*
X25790Y32431D01*
X25817Y32762D01*
X25817Y39468D01*
X31471Y45122D01*
X39468Y45122D01*
X45122Y39468D01*
X45122Y31471D01*
X39468Y25817D01*
X32762Y25817D01*
X32753Y25816D01*
X32744Y25817D01*
X32550Y25796D01*
X32361Y25777D01*
X32352Y25775D01*
X32344Y25774D01*
X32159Y25715D01*
X31976Y25659D01*
X31968Y25655D01*
X31960Y25652D01*
X31791Y25559D01*
X31622Y25467D01*
X31615Y25462D01*
X31607Y25457D01*
X31460Y25332D01*
X31313Y25209D01*
X31307Y25203D01*
X31300Y25197D01*
X31181Y25045D01*
X31060Y24896D01*
X31056Y24888D01*
X31051Y24881D01*
X30963Y24708D01*
X30875Y24538D01*
X30872Y24530D01*
X30868Y24522D01*
X30816Y24335D01*
X30763Y24151D01*
X30763Y24143D01*
X30760Y24134D01*
X30746Y23941D01*
X30731Y23750D01*
X30732Y23741D01*
X30731Y23732D01*
X30755Y23540D01*
X30778Y23350D01*
X30780Y23342D01*
X30781Y23333D01*
X30843Y23151D01*
X30902Y22968D01*
X30907Y22960D01*
X30910Y22951D01*
X31006Y22784D01*
X31100Y22617D01*
X31106Y22610D01*
X31111Y22602D01*
X31325Y22349D01*
X40310Y13365D01*
X40317Y13359D01*
X40323Y13352D01*
X40472Y13232D01*
X40621Y13110D01*
X40629Y13105D01*
X40636Y13100D01*
X40808Y13011D01*
X40977Y12921D01*
X40986Y12918D01*
X40994Y12914D01*
X41179Y12861D01*
X41363Y12806D01*
X41372Y12805D01*
X41381Y12803D01*
X41572Y12787D01*
X41764Y12770D01*
X41773Y12771D01*
X41782Y12770D01*
X41971Y12792D01*
X42164Y12813D01*
X42173Y12816D01*
X42182Y12817D01*
X42364Y12876D01*
X42548Y12935D01*
X42556Y12939D01*
X42564Y12942D01*
X42733Y13037D01*
X42901Y13130D01*
X42907Y13135D01*
X42915Y13140D01*
X43060Y13265D01*
X43208Y13390D01*
X43213Y13397D01*
X43220Y13403D01*
X43337Y13554D01*
X43457Y13706D01*
X43461Y13714D01*
X43467Y13721D01*
X43552Y13893D01*
X43639Y14065D01*
X43642Y14073D01*
X43646Y14082D01*
X43696Y14268D01*
X43747Y14453D01*
X43748Y14462D01*
X43750Y14470D01*
X43778Y14801D01*
X43778Y21508D01*
X49432Y27162D01*
X57429Y27162D01*
X63083Y21508D01*
X63083Y13511D01*
X57429Y7857D01*
X50722Y7857D01*
X50713Y7856D01*
X50704Y7856D01*
X50511Y7835D01*
X50321Y7817D01*
X50313Y7814D01*
X50304Y7813D01*
X50119Y7755D01*
X49937Y7698D01*
X49929Y7694D01*
X49920Y7692D01*
X49752Y7598D01*
X49582Y7507D01*
X49576Y7501D01*
X49568Y7497D01*
X49421Y7372D01*
X49273Y7249D01*
X49268Y7242D01*
X49261Y7236D01*
X49141Y7085D01*
X49021Y6935D01*
X49017Y6927D01*
X49011Y6920D01*
X48923Y6748D01*
X48835Y6578D01*
X48833Y6569D01*
X48829Y6561D01*
X48777Y6375D01*
X48724Y6191D01*
X48723Y6182D01*
X48721Y6173D01*
X48707Y5981D01*
X48691Y5790D01*
X48692Y5781D01*
X48691Y5772D01*
X48716Y5580D01*
X48738Y5390D01*
X48741Y5381D01*
X48742Y5373D01*
X48803Y5190D01*
X48863Y5007D01*
X48867Y4999D01*
X48870Y4991D01*
X48966Y4824D01*
X49061Y4656D01*
X49067Y4650D01*
X49071Y4642D01*
X49286Y4389D01*
X51047Y2628D01*
X51068Y2611D01*
X51085Y2590D01*
X51223Y2483D01*
X51359Y2373D01*
X51382Y2360D01*
X51403Y2344D01*
X51560Y2266D01*
X51714Y2184D01*
X51740Y2176D01*
X51764Y2164D01*
X51933Y2119D01*
X52100Y2069D01*
X52127Y2067D01*
X52153Y2060D01*
X52483Y2033D01*
X836517Y2033D01*
X836543Y2035D01*
G37*
%LPC*%
G36*
X278474Y8042D02*
X278474Y8042D01*
X276762Y8751D01*
X275451Y10062D01*
X274742Y11774D01*
X274742Y12361D01*
X274740Y12379D01*
X274742Y12397D01*
X274721Y12579D01*
X274702Y12762D01*
X274697Y12779D01*
X274695Y12796D01*
X274638Y12971D01*
X274584Y13147D01*
X274576Y13162D01*
X274570Y13179D01*
X274480Y13339D01*
X274392Y13501D01*
X274381Y13514D01*
X274372Y13530D01*
X274252Y13669D01*
X274135Y13810D01*
X274121Y13821D01*
X274109Y13835D01*
X273964Y13947D01*
X273821Y14062D01*
X273805Y14070D01*
X273791Y14081D01*
X273626Y14163D01*
X273464Y14248D01*
X273447Y14253D01*
X273431Y14261D01*
X273252Y14308D01*
X273077Y14359D01*
X273059Y14361D01*
X273042Y14365D01*
X272711Y14392D01*
X272124Y14392D01*
X270412Y15101D01*
X269101Y16412D01*
X268392Y18124D01*
X268392Y18711D01*
X268390Y18729D01*
X268392Y18747D01*
X268371Y18929D01*
X268352Y19112D01*
X268347Y19129D01*
X268345Y19146D01*
X268288Y19321D01*
X268234Y19497D01*
X268226Y19512D01*
X268220Y19529D01*
X268130Y19689D01*
X268042Y19851D01*
X268031Y19864D01*
X268022Y19880D01*
X267902Y20019D01*
X267785Y20160D01*
X267771Y20171D01*
X267759Y20185D01*
X267614Y20297D01*
X267471Y20412D01*
X267455Y20420D01*
X267441Y20431D01*
X267276Y20513D01*
X267114Y20598D01*
X267097Y20603D01*
X267081Y20611D01*
X266902Y20658D01*
X266727Y20709D01*
X266709Y20711D01*
X266692Y20715D01*
X266361Y20742D01*
X265774Y20742D01*
X264062Y21451D01*
X262751Y22762D01*
X262042Y24474D01*
X262042Y26326D01*
X262751Y28038D01*
X264062Y29349D01*
X265774Y30058D01*
X267626Y30058D01*
X269429Y29311D01*
X269447Y29297D01*
X269471Y29284D01*
X269492Y29268D01*
X269649Y29190D01*
X269803Y29108D01*
X269828Y29100D01*
X269852Y29088D01*
X270022Y29043D01*
X270188Y28993D01*
X270215Y28991D01*
X270241Y28984D01*
X270572Y28957D01*
X283435Y28957D01*
X283462Y28959D01*
X283489Y28957D01*
X283663Y28979D01*
X283836Y28997D01*
X283861Y29004D01*
X283888Y29008D01*
X284054Y29063D01*
X284221Y29115D01*
X284244Y29128D01*
X284270Y29136D01*
X284421Y29223D01*
X284575Y29307D01*
X284595Y29324D01*
X284619Y29337D01*
X284872Y29552D01*
X376848Y121528D01*
X376865Y121549D01*
X376886Y121567D01*
X376993Y121704D01*
X377103Y121840D01*
X377116Y121863D01*
X377132Y121885D01*
X377210Y122042D01*
X377292Y122196D01*
X377300Y122221D01*
X377312Y122245D01*
X377357Y122415D01*
X377407Y122581D01*
X377409Y122608D01*
X377416Y122634D01*
X377443Y122965D01*
X377443Y166573D01*
X387996Y177126D01*
X388001Y177133D01*
X388008Y177138D01*
X388127Y177286D01*
X388251Y177437D01*
X388255Y177445D01*
X388261Y177452D01*
X388348Y177621D01*
X388439Y177793D01*
X388442Y177802D01*
X388446Y177809D01*
X388499Y177994D01*
X388554Y178179D01*
X388555Y178188D01*
X388557Y178196D01*
X388573Y178388D01*
X388591Y178580D01*
X388590Y178589D01*
X388590Y178598D01*
X388568Y178787D01*
X388547Y178980D01*
X388544Y178989D01*
X388543Y178997D01*
X388484Y179179D01*
X388426Y179364D01*
X388421Y179372D01*
X388419Y179380D01*
X388324Y179549D01*
X388231Y179716D01*
X388225Y179723D01*
X388221Y179731D01*
X388095Y179877D01*
X387970Y180023D01*
X387963Y180029D01*
X387958Y180036D01*
X387807Y180153D01*
X387654Y180273D01*
X387646Y180277D01*
X387639Y180282D01*
X387468Y180367D01*
X387296Y180455D01*
X387287Y180458D01*
X387279Y180462D01*
X387092Y180512D01*
X386908Y180563D01*
X386899Y180564D01*
X386890Y180566D01*
X386559Y180593D01*
X328727Y180593D01*
X320178Y189142D01*
X320157Y189159D01*
X320139Y189180D01*
X320002Y189287D01*
X319866Y189397D01*
X319843Y189410D01*
X319821Y189426D01*
X319664Y189504D01*
X319510Y189586D01*
X319485Y189594D01*
X319461Y189606D01*
X319291Y189651D01*
X319125Y189701D01*
X319098Y189703D01*
X319072Y189710D01*
X318741Y189737D01*
X281432Y189737D01*
X281414Y189735D01*
X281396Y189737D01*
X281214Y189716D01*
X281031Y189697D01*
X281014Y189692D01*
X280997Y189690D01*
X280822Y189633D01*
X280646Y189579D01*
X280631Y189571D01*
X280614Y189565D01*
X280454Y189475D01*
X280292Y189387D01*
X280279Y189376D01*
X280263Y189367D01*
X280124Y189247D01*
X279983Y189130D01*
X279972Y189116D01*
X279958Y189104D01*
X279846Y188959D01*
X279731Y188816D01*
X279723Y188800D01*
X279712Y188786D01*
X279630Y188621D01*
X279545Y188459D01*
X279540Y188442D01*
X279532Y188426D01*
X279485Y188247D01*
X279434Y188072D01*
X279432Y188054D01*
X279428Y188037D01*
X279401Y187706D01*
X279401Y186181D01*
X269240Y186181D01*
X259079Y186181D01*
X259079Y187706D01*
X259077Y187724D01*
X259079Y187742D01*
X259058Y187924D01*
X259039Y188107D01*
X259034Y188124D01*
X259032Y188141D01*
X258975Y188316D01*
X258921Y188492D01*
X258913Y188507D01*
X258907Y188524D01*
X258817Y188684D01*
X258730Y188846D01*
X258718Y188859D01*
X258709Y188875D01*
X258589Y189014D01*
X258472Y189155D01*
X258458Y189166D01*
X258446Y189180D01*
X258301Y189292D01*
X258158Y189407D01*
X258142Y189415D01*
X258128Y189426D01*
X257964Y189508D01*
X257801Y189593D01*
X257784Y189598D01*
X257768Y189606D01*
X257590Y189653D01*
X257414Y189704D01*
X257396Y189706D01*
X257379Y189710D01*
X257048Y189737D01*
X225044Y189737D01*
X225026Y189735D01*
X225008Y189737D01*
X224826Y189716D01*
X224643Y189697D01*
X224626Y189692D01*
X224609Y189690D01*
X224434Y189633D01*
X224258Y189579D01*
X224243Y189571D01*
X224226Y189565D01*
X224066Y189475D01*
X223904Y189387D01*
X223891Y189376D01*
X223875Y189367D01*
X223736Y189247D01*
X223595Y189130D01*
X223584Y189116D01*
X223570Y189104D01*
X223458Y188959D01*
X223343Y188816D01*
X223335Y188800D01*
X223324Y188786D01*
X223242Y188621D01*
X223157Y188459D01*
X223152Y188442D01*
X223144Y188426D01*
X223097Y188247D01*
X223046Y188072D01*
X223044Y188054D01*
X223040Y188037D01*
X223013Y187706D01*
X223013Y179498D01*
X221822Y178307D01*
X204898Y178307D01*
X203707Y179498D01*
X203707Y181073D01*
X203706Y181082D01*
X203707Y181091D01*
X203686Y181285D01*
X203667Y181474D01*
X203665Y181482D01*
X203664Y181491D01*
X203605Y181676D01*
X203549Y181859D01*
X203545Y181867D01*
X203542Y181875D01*
X203450Y182042D01*
X203357Y182213D01*
X203352Y182220D01*
X203347Y182228D01*
X203223Y182375D01*
X203100Y182522D01*
X203093Y182528D01*
X203087Y182535D01*
X202935Y182654D01*
X202786Y182775D01*
X202778Y182779D01*
X202771Y182784D01*
X202598Y182872D01*
X202429Y182960D01*
X202420Y182963D01*
X202412Y182967D01*
X202226Y183019D01*
X202042Y183071D01*
X202033Y183072D01*
X202024Y183075D01*
X201831Y183089D01*
X201640Y183104D01*
X201632Y183103D01*
X201623Y183104D01*
X201430Y183080D01*
X201241Y183057D01*
X201232Y183055D01*
X201223Y183054D01*
X201041Y182992D01*
X200858Y182933D01*
X200850Y182928D01*
X200842Y182925D01*
X200675Y182829D01*
X200507Y182735D01*
X200500Y182729D01*
X200493Y182724D01*
X200240Y182510D01*
X176703Y158973D01*
X176686Y158952D01*
X176665Y158934D01*
X176558Y158797D01*
X176448Y158661D01*
X176435Y158638D01*
X176419Y158616D01*
X176341Y158459D01*
X176259Y158305D01*
X176251Y158280D01*
X176239Y158256D01*
X176194Y158086D01*
X176144Y157920D01*
X176143Y157909D01*
X175399Y156112D01*
X174088Y154801D01*
X172822Y154277D01*
X172814Y154272D01*
X172805Y154270D01*
X172637Y154177D01*
X172467Y154086D01*
X172460Y154081D01*
X172452Y154076D01*
X172304Y153952D01*
X172156Y153830D01*
X172151Y153823D01*
X172144Y153817D01*
X172024Y153667D01*
X171903Y153517D01*
X171898Y153509D01*
X171893Y153502D01*
X171806Y153334D01*
X171716Y153161D01*
X171713Y153152D01*
X171709Y153144D01*
X171657Y152961D01*
X171602Y152774D01*
X171602Y152765D01*
X171599Y152757D01*
X171584Y152566D01*
X171568Y152373D01*
X171569Y152364D01*
X171568Y152356D01*
X171591Y152165D01*
X171613Y151973D01*
X171616Y151965D01*
X171617Y151956D01*
X171677Y151774D01*
X171736Y151590D01*
X171741Y151582D01*
X171743Y151574D01*
X171838Y151408D01*
X171933Y151238D01*
X171938Y151232D01*
X171943Y151224D01*
X172070Y151078D01*
X172194Y150933D01*
X172201Y150927D01*
X172207Y150920D01*
X172359Y150804D01*
X172511Y150684D01*
X172519Y150680D01*
X172526Y150675D01*
X172822Y150523D01*
X174088Y149999D01*
X175399Y148688D01*
X176108Y146976D01*
X176108Y145124D01*
X175399Y143412D01*
X174088Y142101D01*
X172376Y141392D01*
X170524Y141392D01*
X168812Y142101D01*
X167501Y143412D01*
X166755Y145214D01*
X166752Y145237D01*
X166745Y145262D01*
X166741Y145289D01*
X166686Y145455D01*
X166634Y145622D01*
X166621Y145645D01*
X166613Y145671D01*
X166526Y145822D01*
X166442Y145976D01*
X166425Y145996D01*
X166412Y146020D01*
X166197Y146273D01*
X161543Y150927D01*
X161543Y166573D01*
X183859Y188889D01*
X183868Y188899D01*
X183878Y188908D01*
X183995Y189055D01*
X184114Y189201D01*
X184120Y189212D01*
X184129Y189223D01*
X184215Y189390D01*
X184303Y189556D01*
X184307Y189569D01*
X184313Y189581D01*
X184364Y189761D01*
X184418Y189942D01*
X184419Y189956D01*
X184422Y189968D01*
X184437Y190154D01*
X184454Y190343D01*
X184452Y190357D01*
X184454Y190370D01*
X184431Y190554D01*
X184411Y190743D01*
X184406Y190756D01*
X184405Y190769D01*
X184346Y190947D01*
X184289Y191127D01*
X184283Y191139D01*
X184278Y191152D01*
X184185Y191316D01*
X184094Y191480D01*
X184086Y191490D01*
X184079Y191501D01*
X183955Y191644D01*
X183834Y191787D01*
X183823Y191795D01*
X183814Y191805D01*
X183666Y191919D01*
X183518Y192036D01*
X183506Y192042D01*
X183495Y192050D01*
X183200Y192202D01*
X181512Y192901D01*
X180201Y194212D01*
X179502Y195900D01*
X179496Y195912D01*
X179492Y195925D01*
X179401Y196089D01*
X179312Y196255D01*
X179303Y196265D01*
X179297Y196277D01*
X179176Y196420D01*
X179055Y196565D01*
X179045Y196574D01*
X179036Y196584D01*
X178889Y196701D01*
X178743Y196819D01*
X178731Y196825D01*
X178720Y196834D01*
X178552Y196919D01*
X178386Y197006D01*
X178373Y197010D01*
X178361Y197016D01*
X178180Y197067D01*
X178000Y197119D01*
X177987Y197120D01*
X177974Y197124D01*
X177785Y197138D01*
X177599Y197154D01*
X177586Y197152D01*
X177572Y197153D01*
X177384Y197130D01*
X177199Y197109D01*
X177186Y197105D01*
X177173Y197103D01*
X176994Y197043D01*
X176815Y196986D01*
X176804Y196979D01*
X176791Y196975D01*
X176628Y196881D01*
X176464Y196789D01*
X176454Y196780D01*
X176442Y196774D01*
X176189Y196559D01*
X144953Y165323D01*
X144936Y165302D01*
X144915Y165285D01*
X144808Y165147D01*
X144698Y165011D01*
X144685Y164988D01*
X144669Y164966D01*
X144591Y164809D01*
X144509Y164655D01*
X144501Y164630D01*
X144489Y164606D01*
X144444Y164436D01*
X144394Y164270D01*
X144393Y164259D01*
X143649Y162462D01*
X142338Y161151D01*
X140626Y160442D01*
X138774Y160442D01*
X137062Y161151D01*
X135751Y162462D01*
X135042Y164174D01*
X135042Y166026D01*
X135751Y167738D01*
X137062Y169049D01*
X138864Y169795D01*
X138887Y169798D01*
X138913Y169805D01*
X138939Y169809D01*
X139105Y169864D01*
X139272Y169916D01*
X139296Y169929D01*
X139321Y169937D01*
X139472Y170024D01*
X139626Y170108D01*
X139646Y170125D01*
X139670Y170138D01*
X139923Y170353D01*
X182538Y212968D01*
X185217Y215647D01*
X201676Y215647D01*
X201694Y215649D01*
X201712Y215647D01*
X201894Y215668D01*
X202077Y215687D01*
X202094Y215692D01*
X202111Y215694D01*
X202286Y215751D01*
X202462Y215805D01*
X202477Y215813D01*
X202494Y215819D01*
X202654Y215909D01*
X202816Y215997D01*
X202829Y216008D01*
X202845Y216017D01*
X202984Y216137D01*
X203125Y216254D01*
X203136Y216268D01*
X203150Y216280D01*
X203262Y216425D01*
X203377Y216568D01*
X203385Y216584D01*
X203396Y216598D01*
X203478Y216763D01*
X203563Y216925D01*
X203568Y216942D01*
X203576Y216958D01*
X203623Y217137D01*
X203674Y217312D01*
X203676Y217330D01*
X203680Y217347D01*
X203707Y217678D01*
X203707Y226902D01*
X204898Y228093D01*
X221822Y228093D01*
X223414Y226501D01*
X223431Y226487D01*
X223446Y226470D01*
X223587Y226359D01*
X223726Y226246D01*
X223745Y226235D01*
X223763Y226221D01*
X223924Y226140D01*
X224081Y226057D01*
X224103Y226051D01*
X224123Y226041D01*
X224296Y225993D01*
X224467Y225942D01*
X224489Y225940D01*
X224511Y225934D01*
X224690Y225922D01*
X224868Y225906D01*
X224890Y225908D01*
X224913Y225907D01*
X225090Y225930D01*
X225268Y225949D01*
X225290Y225956D01*
X225312Y225959D01*
X225628Y226060D01*
X227674Y226908D01*
X229526Y226908D01*
X231329Y226161D01*
X231347Y226147D01*
X231371Y226134D01*
X231392Y226118D01*
X231549Y226040D01*
X231703Y225958D01*
X231728Y225950D01*
X231752Y225938D01*
X231922Y225893D01*
X232088Y225843D01*
X232115Y225841D01*
X232141Y225834D01*
X232472Y225807D01*
X257651Y225807D01*
X257677Y225809D01*
X257704Y225807D01*
X257878Y225829D01*
X258051Y225847D01*
X258077Y225854D01*
X258103Y225858D01*
X258269Y225913D01*
X258436Y225965D01*
X258460Y225978D01*
X258485Y225986D01*
X258637Y226073D01*
X258790Y226157D01*
X258811Y226174D01*
X258834Y226187D01*
X259087Y226402D01*
X260778Y228093D01*
X277702Y228093D01*
X279393Y226402D01*
X279414Y226385D01*
X279431Y226364D01*
X279569Y226257D01*
X279705Y226147D01*
X279728Y226134D01*
X279749Y226118D01*
X279906Y226040D01*
X280060Y225958D01*
X280086Y225950D01*
X280110Y225938D01*
X280279Y225893D01*
X280446Y225843D01*
X280473Y225841D01*
X280499Y225834D01*
X280829Y225807D01*
X319978Y225807D01*
X320005Y225809D01*
X320032Y225807D01*
X320206Y225829D01*
X320379Y225847D01*
X320404Y225854D01*
X320431Y225858D01*
X320597Y225913D01*
X320764Y225965D01*
X320787Y225978D01*
X320813Y225986D01*
X320964Y226073D01*
X321118Y226157D01*
X321126Y226163D01*
X322924Y226908D01*
X324776Y226908D01*
X326488Y226199D01*
X327799Y224888D01*
X328508Y223176D01*
X328508Y221324D01*
X327799Y219612D01*
X327301Y219114D01*
X327296Y219107D01*
X327289Y219102D01*
X327169Y218953D01*
X327046Y218803D01*
X327042Y218795D01*
X327036Y218788D01*
X326949Y218619D01*
X326858Y218447D01*
X326855Y218438D01*
X326851Y218431D01*
X326798Y218247D01*
X326743Y218061D01*
X326742Y218052D01*
X326740Y218044D01*
X326724Y217853D01*
X326706Y217660D01*
X326707Y217651D01*
X326707Y217642D01*
X326729Y217453D01*
X326750Y217260D01*
X326753Y217251D01*
X326754Y217243D01*
X326813Y217060D01*
X326871Y216876D01*
X326876Y216868D01*
X326878Y216860D01*
X326973Y216691D01*
X327066Y216524D01*
X327072Y216517D01*
X327076Y216509D01*
X327202Y216364D01*
X327327Y216217D01*
X327334Y216211D01*
X327339Y216204D01*
X327491Y216087D01*
X327643Y215967D01*
X327651Y215963D01*
X327658Y215958D01*
X327831Y215871D01*
X328001Y215785D01*
X328010Y215782D01*
X328018Y215778D01*
X328206Y215728D01*
X328389Y215677D01*
X328398Y215676D01*
X328407Y215674D01*
X328738Y215647D01*
X341833Y215647D01*
X347639Y209841D01*
X347649Y209832D01*
X347658Y209822D01*
X347805Y209705D01*
X347951Y209586D01*
X347962Y209580D01*
X347973Y209571D01*
X348141Y209485D01*
X348306Y209397D01*
X348319Y209393D01*
X348331Y209387D01*
X348512Y209336D01*
X348692Y209282D01*
X348706Y209281D01*
X348718Y209278D01*
X348904Y209263D01*
X349093Y209246D01*
X349107Y209248D01*
X349120Y209247D01*
X349304Y209269D01*
X349493Y209289D01*
X349506Y209294D01*
X349519Y209295D01*
X349697Y209354D01*
X349877Y209411D01*
X349889Y209417D01*
X349902Y209422D01*
X350066Y209515D01*
X350230Y209606D01*
X350240Y209614D01*
X350251Y209621D01*
X350393Y209745D01*
X350537Y209866D01*
X350545Y209877D01*
X350555Y209886D01*
X350669Y210034D01*
X350786Y210182D01*
X350792Y210194D01*
X350800Y210205D01*
X350952Y210500D01*
X351651Y212188D01*
X352962Y213499D01*
X354674Y214208D01*
X356526Y214208D01*
X358329Y213461D01*
X358347Y213447D01*
X358371Y213434D01*
X358392Y213418D01*
X358549Y213340D01*
X358703Y213258D01*
X358728Y213250D01*
X358752Y213238D01*
X358922Y213193D01*
X359088Y213143D01*
X359115Y213141D01*
X359141Y213134D01*
X359472Y213107D01*
X412411Y213107D01*
X412429Y213109D01*
X412447Y213107D01*
X412629Y213128D01*
X412812Y213147D01*
X412829Y213152D01*
X412846Y213154D01*
X413021Y213211D01*
X413197Y213265D01*
X413212Y213273D01*
X413229Y213279D01*
X413389Y213369D01*
X413551Y213457D01*
X413564Y213468D01*
X413580Y213477D01*
X413719Y213597D01*
X413860Y213714D01*
X413871Y213728D01*
X413885Y213740D01*
X413997Y213885D01*
X414112Y214028D01*
X414120Y214044D01*
X414131Y214058D01*
X414213Y214223D01*
X414298Y214385D01*
X414303Y214402D01*
X414311Y214418D01*
X414358Y214597D01*
X414409Y214772D01*
X414411Y214790D01*
X414415Y214807D01*
X414442Y215138D01*
X414442Y216826D01*
X415151Y218538D01*
X416462Y219849D01*
X418174Y220558D01*
X418761Y220558D01*
X418779Y220560D01*
X418797Y220558D01*
X418979Y220579D01*
X419162Y220598D01*
X419179Y220603D01*
X419196Y220605D01*
X419371Y220662D01*
X419547Y220716D01*
X419562Y220724D01*
X419579Y220730D01*
X419739Y220820D01*
X419901Y220908D01*
X419914Y220919D01*
X419930Y220928D01*
X420069Y221048D01*
X420210Y221165D01*
X420221Y221179D01*
X420235Y221191D01*
X420347Y221336D01*
X420462Y221479D01*
X420470Y221495D01*
X420481Y221509D01*
X420563Y221674D01*
X420648Y221836D01*
X420653Y221853D01*
X420661Y221869D01*
X420708Y222048D01*
X420759Y222223D01*
X420761Y222241D01*
X420765Y222258D01*
X420792Y222589D01*
X420792Y223176D01*
X421501Y224888D01*
X422812Y226199D01*
X424524Y226908D01*
X426376Y226908D01*
X428179Y226161D01*
X428197Y226147D01*
X428221Y226134D01*
X428242Y226118D01*
X428399Y226040D01*
X428553Y225958D01*
X428578Y225950D01*
X428602Y225938D01*
X428772Y225893D01*
X428938Y225843D01*
X428965Y225841D01*
X428991Y225834D01*
X429322Y225807D01*
X566623Y225807D01*
X623178Y169252D01*
X623199Y169235D01*
X623217Y169214D01*
X623354Y169107D01*
X623490Y168997D01*
X623513Y168984D01*
X623535Y168968D01*
X623692Y168890D01*
X623846Y168808D01*
X623871Y168800D01*
X623895Y168788D01*
X624065Y168743D01*
X624231Y168693D01*
X624258Y168691D01*
X624284Y168684D01*
X624615Y168657D01*
X669228Y168657D01*
X669255Y168659D01*
X669282Y168657D01*
X669456Y168679D01*
X669629Y168697D01*
X669654Y168704D01*
X669681Y168708D01*
X669847Y168763D01*
X670014Y168815D01*
X670037Y168828D01*
X670063Y168836D01*
X670214Y168923D01*
X670368Y169007D01*
X670376Y169013D01*
X672174Y169758D01*
X674026Y169758D01*
X675738Y169049D01*
X677049Y167738D01*
X677758Y166026D01*
X677758Y164174D01*
X677049Y162462D01*
X675738Y161151D01*
X674026Y160442D01*
X672174Y160442D01*
X670371Y161189D01*
X670353Y161203D01*
X670329Y161216D01*
X670308Y161232D01*
X670151Y161310D01*
X669997Y161392D01*
X669972Y161400D01*
X669948Y161412D01*
X669778Y161457D01*
X669612Y161507D01*
X669585Y161509D01*
X669559Y161516D01*
X669228Y161543D01*
X654389Y161543D01*
X654371Y161541D01*
X654353Y161543D01*
X654171Y161522D01*
X653988Y161503D01*
X653971Y161498D01*
X653954Y161496D01*
X653779Y161439D01*
X653603Y161385D01*
X653588Y161377D01*
X653571Y161371D01*
X653411Y161281D01*
X653249Y161193D01*
X653236Y161182D01*
X653220Y161173D01*
X653081Y161053D01*
X652940Y160936D01*
X652929Y160922D01*
X652915Y160910D01*
X652803Y160765D01*
X652688Y160622D01*
X652680Y160606D01*
X652669Y160592D01*
X652587Y160427D01*
X652502Y160265D01*
X652497Y160248D01*
X652489Y160232D01*
X652442Y160053D01*
X652391Y159878D01*
X652389Y159860D01*
X652385Y159843D01*
X652358Y159512D01*
X652358Y157824D01*
X651649Y156112D01*
X650338Y154801D01*
X648626Y154092D01*
X646774Y154092D01*
X644971Y154839D01*
X644953Y154853D01*
X644929Y154866D01*
X644908Y154882D01*
X644751Y154960D01*
X644597Y155042D01*
X644572Y155050D01*
X644548Y155062D01*
X644378Y155107D01*
X644212Y155157D01*
X644185Y155159D01*
X644159Y155166D01*
X643828Y155193D01*
X628989Y155193D01*
X628971Y155191D01*
X628953Y155193D01*
X628771Y155172D01*
X628588Y155153D01*
X628571Y155148D01*
X628554Y155146D01*
X628379Y155089D01*
X628203Y155035D01*
X628188Y155027D01*
X628171Y155021D01*
X628011Y154931D01*
X627849Y154843D01*
X627836Y154832D01*
X627820Y154823D01*
X627681Y154703D01*
X627540Y154586D01*
X627529Y154572D01*
X627515Y154560D01*
X627403Y154415D01*
X627288Y154272D01*
X627280Y154256D01*
X627269Y154242D01*
X627186Y154076D01*
X627102Y153915D01*
X627097Y153898D01*
X627089Y153882D01*
X627042Y153703D01*
X626991Y153528D01*
X626989Y153510D01*
X626985Y153493D01*
X626958Y153162D01*
X626958Y151638D01*
X626960Y151620D01*
X626958Y151602D01*
X626979Y151420D01*
X626998Y151237D01*
X627003Y151220D01*
X627005Y151203D01*
X627062Y151028D01*
X627116Y150852D01*
X627124Y150837D01*
X627130Y150820D01*
X627220Y150660D01*
X627308Y150498D01*
X627319Y150485D01*
X627328Y150469D01*
X627448Y150330D01*
X627565Y150189D01*
X627579Y150178D01*
X627591Y150164D01*
X627736Y150052D01*
X627879Y149937D01*
X627895Y149929D01*
X627909Y149918D01*
X628074Y149836D01*
X628236Y149751D01*
X628253Y149746D01*
X628269Y149738D01*
X628448Y149691D01*
X628623Y149640D01*
X628641Y149638D01*
X628658Y149634D01*
X628989Y149607D01*
X823185Y149607D01*
X823212Y149609D01*
X823239Y149607D01*
X823413Y149629D01*
X823586Y149647D01*
X823611Y149654D01*
X823638Y149658D01*
X823804Y149713D01*
X823971Y149765D01*
X823994Y149778D01*
X824020Y149786D01*
X824171Y149873D01*
X824325Y149957D01*
X824345Y149974D01*
X824369Y149987D01*
X824622Y150202D01*
X840398Y165978D01*
X840415Y165999D01*
X840436Y166017D01*
X840543Y166154D01*
X840653Y166290D01*
X840666Y166313D01*
X840682Y166335D01*
X840760Y166492D01*
X840842Y166646D01*
X840850Y166671D01*
X840862Y166695D01*
X840907Y166865D01*
X840957Y167031D01*
X840959Y167058D01*
X840966Y167084D01*
X840993Y167415D01*
X840993Y310811D01*
X840993Y310816D01*
X840993Y310818D01*
X840992Y310830D01*
X840993Y310847D01*
X840972Y311029D01*
X840953Y311212D01*
X840948Y311229D01*
X840946Y311246D01*
X840889Y311421D01*
X840835Y311597D01*
X840827Y311612D01*
X840821Y311629D01*
X840731Y311789D01*
X840643Y311951D01*
X840632Y311964D01*
X840623Y311980D01*
X840503Y312119D01*
X840386Y312260D01*
X840372Y312271D01*
X840360Y312285D01*
X840215Y312397D01*
X840072Y312512D01*
X840056Y312520D01*
X840042Y312531D01*
X839877Y312613D01*
X839715Y312698D01*
X839698Y312703D01*
X839682Y312711D01*
X839503Y312758D01*
X839328Y312809D01*
X839310Y312811D01*
X839293Y312815D01*
X838962Y312842D01*
X837274Y312842D01*
X835562Y313551D01*
X834251Y314862D01*
X833542Y316574D01*
X833542Y318426D01*
X834289Y320229D01*
X834303Y320247D01*
X834316Y320271D01*
X834332Y320292D01*
X834410Y320449D01*
X834492Y320603D01*
X834500Y320628D01*
X834512Y320652D01*
X834557Y320822D01*
X834607Y320988D01*
X834609Y321015D01*
X834616Y321041D01*
X834643Y321372D01*
X834643Y518385D01*
X834641Y518412D01*
X834643Y518439D01*
X834621Y518613D01*
X834603Y518786D01*
X834596Y518811D01*
X834592Y518838D01*
X834537Y519004D01*
X834485Y519171D01*
X834472Y519194D01*
X834464Y519220D01*
X834377Y519371D01*
X834293Y519525D01*
X834276Y519545D01*
X834263Y519569D01*
X834048Y519822D01*
X830972Y522898D01*
X830951Y522915D01*
X830933Y522936D01*
X830796Y523043D01*
X830660Y523153D01*
X830637Y523166D01*
X830615Y523182D01*
X830458Y523260D01*
X830304Y523342D01*
X830279Y523350D01*
X830255Y523362D01*
X830085Y523407D01*
X829919Y523457D01*
X829892Y523459D01*
X829866Y523466D01*
X829535Y523493D01*
X753172Y523493D01*
X753145Y523491D01*
X753118Y523493D01*
X752944Y523471D01*
X752771Y523453D01*
X752746Y523446D01*
X752719Y523442D01*
X752553Y523387D01*
X752386Y523335D01*
X752363Y523322D01*
X752337Y523314D01*
X752186Y523227D01*
X752032Y523143D01*
X752024Y523137D01*
X750226Y522392D01*
X748374Y522392D01*
X746662Y523101D01*
X745351Y524412D01*
X744642Y526124D01*
X744642Y527812D01*
X744640Y527830D01*
X744642Y527848D01*
X744621Y528030D01*
X744602Y528213D01*
X744597Y528230D01*
X744595Y528247D01*
X744538Y528422D01*
X744484Y528598D01*
X744476Y528613D01*
X744470Y528630D01*
X744380Y528790D01*
X744292Y528952D01*
X744281Y528965D01*
X744272Y528981D01*
X744152Y529120D01*
X744035Y529261D01*
X744021Y529272D01*
X744009Y529286D01*
X743864Y529398D01*
X743721Y529513D01*
X743705Y529521D01*
X743691Y529532D01*
X743526Y529614D01*
X743364Y529699D01*
X743347Y529704D01*
X743331Y529712D01*
X743152Y529759D01*
X742977Y529810D01*
X742959Y529812D01*
X742942Y529816D01*
X742611Y529843D01*
X484915Y529843D01*
X484888Y529841D01*
X484861Y529843D01*
X484687Y529821D01*
X484514Y529803D01*
X484489Y529796D01*
X484462Y529792D01*
X484296Y529737D01*
X484129Y529685D01*
X484106Y529672D01*
X484080Y529664D01*
X483929Y529577D01*
X483775Y529493D01*
X483755Y529476D01*
X483731Y529463D01*
X483478Y529248D01*
X480402Y526172D01*
X480385Y526151D01*
X480364Y526133D01*
X480257Y525996D01*
X480147Y525860D01*
X480134Y525837D01*
X480118Y525815D01*
X480040Y525658D01*
X479958Y525504D01*
X479950Y525479D01*
X479938Y525455D01*
X479893Y525285D01*
X479843Y525119D01*
X479841Y525092D01*
X479834Y525066D01*
X479807Y524735D01*
X479807Y461072D01*
X479807Y461065D01*
X479807Y461060D01*
X479809Y461042D01*
X479807Y461018D01*
X479829Y460844D01*
X479847Y460671D01*
X479854Y460646D01*
X479858Y460619D01*
X479913Y460453D01*
X479965Y460286D01*
X479978Y460263D01*
X479986Y460237D01*
X480074Y460085D01*
X480157Y459932D01*
X480163Y459924D01*
X480908Y458126D01*
X480908Y456274D01*
X480199Y454562D01*
X478888Y453251D01*
X477176Y452542D01*
X475324Y452542D01*
X473612Y453251D01*
X472301Y454562D01*
X471592Y456274D01*
X471592Y458126D01*
X472339Y459929D01*
X472353Y459947D01*
X472366Y459971D01*
X472382Y459992D01*
X472460Y460149D01*
X472542Y460303D01*
X472550Y460328D01*
X472562Y460352D01*
X472607Y460522D01*
X472657Y460688D01*
X472659Y460715D01*
X472666Y460741D01*
X472693Y461072D01*
X472693Y481809D01*
X472692Y481818D01*
X472693Y481827D01*
X472672Y482019D01*
X472653Y482210D01*
X472651Y482219D01*
X472650Y482227D01*
X472592Y482410D01*
X472535Y482595D01*
X472531Y482603D01*
X472528Y482611D01*
X472435Y482780D01*
X472343Y482949D01*
X472338Y482956D01*
X472333Y482964D01*
X472208Y483111D01*
X472086Y483258D01*
X472079Y483264D01*
X472073Y483271D01*
X471921Y483391D01*
X471772Y483511D01*
X471764Y483515D01*
X471757Y483520D01*
X471585Y483608D01*
X471415Y483696D01*
X471406Y483699D01*
X471398Y483703D01*
X471212Y483754D01*
X471028Y483807D01*
X471019Y483808D01*
X471010Y483811D01*
X470818Y483825D01*
X470626Y483840D01*
X470618Y483839D01*
X470609Y483840D01*
X470416Y483816D01*
X470227Y483793D01*
X470218Y483791D01*
X470209Y483790D01*
X470026Y483728D01*
X469844Y483669D01*
X469836Y483664D01*
X469828Y483661D01*
X469662Y483566D01*
X469493Y483471D01*
X469486Y483465D01*
X469479Y483460D01*
X469226Y483246D01*
X467702Y481722D01*
X465023Y479043D01*
X440465Y479043D01*
X440438Y479041D01*
X440411Y479043D01*
X440237Y479021D01*
X440064Y479003D01*
X440039Y478996D01*
X440012Y478992D01*
X439846Y478937D01*
X439679Y478885D01*
X439656Y478872D01*
X439630Y478864D01*
X439479Y478777D01*
X439325Y478693D01*
X439305Y478676D01*
X439281Y478663D01*
X439028Y478448D01*
X435952Y475372D01*
X435935Y475351D01*
X435914Y475333D01*
X435807Y475196D01*
X435697Y475060D01*
X435684Y475037D01*
X435668Y475015D01*
X435590Y474858D01*
X435508Y474704D01*
X435500Y474679D01*
X435488Y474655D01*
X435443Y474485D01*
X435393Y474319D01*
X435391Y474292D01*
X435384Y474266D01*
X435357Y473935D01*
X435357Y251522D01*
X435359Y251495D01*
X435357Y251468D01*
X435379Y251295D01*
X435397Y251121D01*
X435405Y251095D01*
X435408Y251069D01*
X435463Y250903D01*
X435515Y250736D01*
X435528Y250712D01*
X435536Y250687D01*
X435623Y250535D01*
X435707Y250382D01*
X435713Y250374D01*
X436458Y248576D01*
X436458Y246724D01*
X435749Y245012D01*
X434438Y243701D01*
X432726Y242992D01*
X432139Y242992D01*
X432121Y242990D01*
X432103Y242992D01*
X431921Y242971D01*
X431738Y242952D01*
X431721Y242947D01*
X431704Y242945D01*
X431529Y242888D01*
X431353Y242834D01*
X431338Y242826D01*
X431321Y242820D01*
X431161Y242730D01*
X430999Y242642D01*
X430986Y242631D01*
X430970Y242622D01*
X430831Y242502D01*
X430690Y242385D01*
X430679Y242371D01*
X430665Y242359D01*
X430553Y242214D01*
X430438Y242071D01*
X430430Y242055D01*
X430419Y242041D01*
X430337Y241876D01*
X430252Y241714D01*
X430247Y241697D01*
X430239Y241681D01*
X430192Y241502D01*
X430141Y241327D01*
X430139Y241309D01*
X430135Y241292D01*
X430108Y240961D01*
X430108Y240374D01*
X429399Y238662D01*
X428088Y237351D01*
X426376Y236642D01*
X424524Y236642D01*
X422812Y237351D01*
X421501Y238662D01*
X420792Y240374D01*
X420792Y242226D01*
X421539Y244029D01*
X421553Y244047D01*
X421566Y244071D01*
X421582Y244092D01*
X421660Y244249D01*
X421742Y244403D01*
X421750Y244428D01*
X421762Y244452D01*
X421807Y244622D01*
X421857Y244788D01*
X421859Y244815D01*
X421866Y244841D01*
X421893Y245172D01*
X421893Y448535D01*
X421891Y448562D01*
X421893Y448589D01*
X421871Y448762D01*
X421853Y448936D01*
X421846Y448961D01*
X421842Y448988D01*
X421787Y449154D01*
X421735Y449321D01*
X421722Y449344D01*
X421714Y449370D01*
X421627Y449521D01*
X421543Y449675D01*
X421526Y449695D01*
X421513Y449719D01*
X421298Y449972D01*
X419323Y451947D01*
X419302Y451964D01*
X419284Y451985D01*
X419147Y452092D01*
X419011Y452202D01*
X418988Y452215D01*
X418966Y452231D01*
X418809Y452309D01*
X418655Y452391D01*
X418630Y452399D01*
X418606Y452411D01*
X418436Y452456D01*
X418270Y452506D01*
X418259Y452507D01*
X416371Y453289D01*
X416353Y453303D01*
X416329Y453316D01*
X416308Y453332D01*
X416151Y453410D01*
X415997Y453492D01*
X415972Y453500D01*
X415948Y453512D01*
X415778Y453557D01*
X415612Y453607D01*
X415585Y453609D01*
X415559Y453616D01*
X415228Y453643D01*
X183052Y453643D01*
X183030Y453641D01*
X183008Y453643D01*
X182830Y453621D01*
X182651Y453603D01*
X182630Y453597D01*
X182608Y453594D01*
X182438Y453538D01*
X182266Y453485D01*
X182247Y453475D01*
X182226Y453468D01*
X182070Y453379D01*
X181912Y453293D01*
X181895Y453279D01*
X181876Y453268D01*
X181741Y453150D01*
X181603Y453036D01*
X181589Y453018D01*
X181572Y453004D01*
X181463Y452861D01*
X181351Y452722D01*
X181341Y452702D01*
X181327Y452684D01*
X181175Y452389D01*
X180903Y451732D01*
X178188Y449017D01*
X174640Y447547D01*
X155560Y447547D01*
X152012Y449017D01*
X149297Y451732D01*
X147827Y455280D01*
X147827Y459120D01*
X149297Y462668D01*
X152012Y465383D01*
X155560Y466853D01*
X174640Y466853D01*
X178188Y465383D01*
X180903Y462668D01*
X181175Y462011D01*
X181186Y461991D01*
X181193Y461970D01*
X181281Y461814D01*
X181366Y461656D01*
X181380Y461639D01*
X181391Y461619D01*
X181508Y461483D01*
X181622Y461345D01*
X181639Y461331D01*
X181654Y461314D01*
X181795Y461205D01*
X181935Y461092D01*
X181954Y461081D01*
X181972Y461068D01*
X182132Y460988D01*
X182291Y460905D01*
X182312Y460898D01*
X182333Y460888D01*
X182506Y460842D01*
X182678Y460792D01*
X182700Y460790D01*
X182721Y460784D01*
X183052Y460757D01*
X415228Y460757D01*
X415255Y460759D01*
X415282Y460757D01*
X415456Y460779D01*
X415629Y460797D01*
X415654Y460804D01*
X415681Y460808D01*
X415847Y460863D01*
X416014Y460915D01*
X416037Y460928D01*
X416063Y460936D01*
X416214Y461023D01*
X416368Y461107D01*
X416376Y461113D01*
X418174Y461858D01*
X420026Y461858D01*
X421738Y461149D01*
X423049Y459838D01*
X423795Y458036D01*
X423798Y458013D01*
X423805Y457987D01*
X423809Y457961D01*
X423864Y457796D01*
X423916Y457628D01*
X423929Y457605D01*
X423937Y457579D01*
X424024Y457428D01*
X424108Y457274D01*
X424125Y457254D01*
X424138Y457230D01*
X424353Y456977D01*
X424776Y456554D01*
X424783Y456549D01*
X424788Y456542D01*
X424938Y456422D01*
X425087Y456299D01*
X425095Y456295D01*
X425102Y456289D01*
X425271Y456202D01*
X425443Y456111D01*
X425452Y456108D01*
X425459Y456104D01*
X425643Y456051D01*
X425829Y455996D01*
X425838Y455995D01*
X425846Y455993D01*
X426038Y455977D01*
X426230Y455959D01*
X426239Y455960D01*
X426248Y455960D01*
X426438Y455982D01*
X426630Y456003D01*
X426639Y456006D01*
X426647Y456007D01*
X426831Y456067D01*
X427014Y456124D01*
X427022Y456129D01*
X427030Y456131D01*
X427199Y456227D01*
X427366Y456319D01*
X427373Y456325D01*
X427381Y456329D01*
X427526Y456455D01*
X427673Y456580D01*
X427679Y456587D01*
X427686Y456592D01*
X427803Y456743D01*
X427923Y456895D01*
X427927Y456904D01*
X427932Y456911D01*
X428018Y457083D01*
X428105Y457254D01*
X428108Y457263D01*
X428112Y457271D01*
X428162Y457459D01*
X428213Y457642D01*
X428214Y457651D01*
X428216Y457660D01*
X428243Y457991D01*
X428243Y473935D01*
X428241Y473962D01*
X428243Y473989D01*
X428221Y474162D01*
X428203Y474336D01*
X428196Y474361D01*
X428192Y474388D01*
X428137Y474554D01*
X428085Y474721D01*
X428072Y474744D01*
X428064Y474770D01*
X427977Y474921D01*
X427893Y475075D01*
X427876Y475095D01*
X427863Y475119D01*
X427648Y475372D01*
X424572Y478448D01*
X424551Y478465D01*
X424533Y478486D01*
X424396Y478593D01*
X424260Y478703D01*
X424237Y478716D01*
X424215Y478732D01*
X424058Y478810D01*
X423904Y478892D01*
X423879Y478900D01*
X423855Y478912D01*
X423685Y478957D01*
X423519Y479007D01*
X423492Y479009D01*
X423466Y479016D01*
X423135Y479043D01*
X183052Y479043D01*
X183030Y479041D01*
X183008Y479043D01*
X182830Y479021D01*
X182651Y479003D01*
X182630Y478997D01*
X182608Y478994D01*
X182438Y478938D01*
X182266Y478885D01*
X182247Y478875D01*
X182226Y478868D01*
X182070Y478779D01*
X181912Y478693D01*
X181895Y478679D01*
X181876Y478668D01*
X181741Y478550D01*
X181603Y478436D01*
X181589Y478418D01*
X181572Y478404D01*
X181463Y478261D01*
X181351Y478122D01*
X181341Y478102D01*
X181327Y478084D01*
X181175Y477789D01*
X180903Y477132D01*
X178188Y474417D01*
X174640Y472947D01*
X155560Y472947D01*
X152012Y474417D01*
X149297Y477132D01*
X147827Y480680D01*
X147827Y484520D01*
X149297Y488068D01*
X152012Y490783D01*
X155560Y492253D01*
X174640Y492253D01*
X178188Y490783D01*
X180903Y488068D01*
X181175Y487411D01*
X181186Y487391D01*
X181193Y487370D01*
X181281Y487214D01*
X181366Y487056D01*
X181380Y487039D01*
X181391Y487019D01*
X181508Y486883D01*
X181622Y486745D01*
X181639Y486731D01*
X181654Y486714D01*
X181795Y486605D01*
X181935Y486492D01*
X181954Y486481D01*
X181972Y486468D01*
X182132Y486388D01*
X182291Y486305D01*
X182312Y486298D01*
X182333Y486288D01*
X182506Y486242D01*
X182678Y486192D01*
X182700Y486190D01*
X182721Y486184D01*
X183052Y486157D01*
X426923Y486157D01*
X430364Y482716D01*
X430378Y482705D01*
X430389Y482691D01*
X430533Y482578D01*
X430675Y482461D01*
X430691Y482453D01*
X430705Y482442D01*
X430869Y482358D01*
X431031Y482273D01*
X431048Y482268D01*
X431064Y482259D01*
X431241Y482210D01*
X431417Y482158D01*
X431435Y482156D01*
X431452Y482151D01*
X431635Y482138D01*
X431818Y482121D01*
X431836Y482123D01*
X431853Y482122D01*
X432035Y482145D01*
X432218Y482165D01*
X432235Y482170D01*
X432253Y482172D01*
X432427Y482231D01*
X432602Y482286D01*
X432618Y482295D01*
X432634Y482301D01*
X432794Y482393D01*
X432954Y482481D01*
X432968Y482493D01*
X432983Y482502D01*
X433236Y482716D01*
X436677Y486157D01*
X461235Y486157D01*
X461262Y486159D01*
X461289Y486157D01*
X461463Y486179D01*
X461636Y486197D01*
X461661Y486204D01*
X461688Y486208D01*
X461854Y486263D01*
X462021Y486315D01*
X462044Y486328D01*
X462070Y486336D01*
X462221Y486423D01*
X462375Y486507D01*
X462395Y486524D01*
X462419Y486537D01*
X462672Y486752D01*
X465748Y489828D01*
X465765Y489849D01*
X465786Y489867D01*
X465893Y490004D01*
X466003Y490140D01*
X466016Y490163D01*
X466032Y490185D01*
X466110Y490342D01*
X466192Y490496D01*
X466200Y490521D01*
X466212Y490545D01*
X466257Y490715D01*
X466307Y490881D01*
X466309Y490908D01*
X466316Y490934D01*
X466343Y491265D01*
X466343Y534873D01*
X469021Y537551D01*
X469022Y537552D01*
X472098Y540628D01*
X474777Y543307D01*
X816835Y543307D01*
X816862Y543309D01*
X816889Y543307D01*
X817063Y543329D01*
X817236Y543347D01*
X817261Y543354D01*
X817288Y543358D01*
X817454Y543413D01*
X817621Y543465D01*
X817644Y543478D01*
X817670Y543486D01*
X817821Y543573D01*
X817975Y543657D01*
X817995Y543674D01*
X818019Y543687D01*
X818272Y543902D01*
X821348Y546978D01*
X821365Y546999D01*
X821386Y547017D01*
X821493Y547154D01*
X821603Y547290D01*
X821616Y547313D01*
X821632Y547335D01*
X821710Y547492D01*
X821792Y547646D01*
X821800Y547671D01*
X821812Y547695D01*
X821857Y547865D01*
X821907Y548031D01*
X821909Y548058D01*
X821916Y548084D01*
X821943Y548415D01*
X821943Y555247D01*
X821938Y555298D01*
X821941Y555349D01*
X821918Y555498D01*
X821903Y555648D01*
X821888Y555697D01*
X821881Y555747D01*
X821829Y555889D01*
X821785Y556033D01*
X821761Y556078D01*
X821743Y556126D01*
X821665Y556254D01*
X821593Y556387D01*
X821561Y556426D01*
X821534Y556470D01*
X821432Y556580D01*
X821336Y556696D01*
X821296Y556728D01*
X821261Y556766D01*
X821139Y556854D01*
X821022Y556948D01*
X820977Y556972D01*
X820935Y557002D01*
X820798Y557064D01*
X820665Y557134D01*
X820616Y557148D01*
X820569Y557169D01*
X820422Y557204D01*
X820278Y557245D01*
X820227Y557249D01*
X820177Y557261D01*
X820026Y557266D01*
X819876Y557278D01*
X819826Y557272D01*
X819775Y557274D01*
X819626Y557249D01*
X819477Y557231D01*
X819428Y557215D01*
X819378Y557207D01*
X819237Y557153D01*
X819094Y557106D01*
X819049Y557081D01*
X819001Y557063D01*
X818804Y556943D01*
X818743Y556908D01*
X818733Y556899D01*
X818718Y556890D01*
X818125Y556460D01*
X816700Y555734D01*
X815339Y555291D01*
X815339Y564642D01*
X815337Y564660D01*
X815339Y564677D01*
X815318Y564860D01*
X815299Y565042D01*
X815294Y565059D01*
X815292Y565077D01*
X815267Y565155D01*
X815306Y565292D01*
X815308Y565310D01*
X815312Y565327D01*
X815339Y565658D01*
X815339Y575009D01*
X816700Y574566D01*
X818125Y573840D01*
X818718Y573410D01*
X818762Y573384D01*
X818802Y573352D01*
X818935Y573283D01*
X819066Y573206D01*
X819114Y573190D01*
X819159Y573166D01*
X819304Y573125D01*
X819446Y573076D01*
X819497Y573069D01*
X819546Y573055D01*
X819697Y573043D01*
X819846Y573023D01*
X819897Y573026D01*
X819948Y573022D01*
X820097Y573039D01*
X820247Y573049D01*
X820297Y573063D01*
X820347Y573069D01*
X820490Y573115D01*
X820636Y573155D01*
X820682Y573178D01*
X820730Y573194D01*
X820861Y573268D01*
X820996Y573335D01*
X821036Y573366D01*
X821081Y573392D01*
X821195Y573490D01*
X821313Y573583D01*
X821347Y573621D01*
X821386Y573655D01*
X821478Y573774D01*
X821576Y573888D01*
X821601Y573932D01*
X821632Y573973D01*
X821699Y574107D01*
X821773Y574239D01*
X821789Y574287D01*
X821812Y574333D01*
X821851Y574479D01*
X821897Y574622D01*
X821903Y574673D01*
X821916Y574722D01*
X821935Y574953D01*
X821943Y575022D01*
X821942Y575036D01*
X821943Y575053D01*
X821943Y579323D01*
X824622Y582002D01*
X827952Y585332D01*
X827969Y585353D01*
X827990Y585370D01*
X828097Y585508D01*
X828207Y585644D01*
X828220Y585667D01*
X828236Y585689D01*
X828314Y585845D01*
X828396Y585999D01*
X828404Y586025D01*
X828416Y586049D01*
X828461Y586218D01*
X828511Y586385D01*
X828513Y586412D01*
X828520Y586438D01*
X828547Y586769D01*
X828547Y594548D01*
X834202Y600203D01*
X842198Y600203D01*
X847853Y594548D01*
X847853Y586552D01*
X842198Y580897D01*
X834419Y580897D01*
X834392Y580895D01*
X834365Y580897D01*
X834191Y580875D01*
X834018Y580857D01*
X833992Y580850D01*
X833966Y580846D01*
X833800Y580790D01*
X833633Y580739D01*
X833609Y580726D01*
X833584Y580718D01*
X833433Y580631D01*
X833279Y580547D01*
X833259Y580530D01*
X833235Y580517D01*
X832982Y580302D01*
X829652Y576972D01*
X829635Y576951D01*
X829614Y576933D01*
X829508Y576796D01*
X829397Y576660D01*
X829384Y576636D01*
X829368Y576615D01*
X829290Y576459D01*
X829208Y576304D01*
X829200Y576279D01*
X829188Y576255D01*
X829143Y576086D01*
X829093Y575919D01*
X829091Y575892D01*
X829084Y575866D01*
X829057Y575535D01*
X829057Y574562D01*
X829058Y574553D01*
X829057Y574544D01*
X829078Y574352D01*
X829097Y574161D01*
X829099Y574152D01*
X829100Y574144D01*
X829158Y573961D01*
X829215Y573776D01*
X829219Y573768D01*
X829222Y573760D01*
X829315Y573591D01*
X829407Y573422D01*
X829412Y573415D01*
X829417Y573407D01*
X829542Y573260D01*
X829664Y573113D01*
X829671Y573107D01*
X829677Y573100D01*
X829829Y572980D01*
X829978Y572860D01*
X829986Y572856D01*
X829993Y572851D01*
X830165Y572763D01*
X830335Y572675D01*
X830344Y572672D01*
X830352Y572668D01*
X830538Y572617D01*
X830722Y572564D01*
X830731Y572563D01*
X830740Y572560D01*
X830932Y572546D01*
X831124Y572531D01*
X831132Y572532D01*
X831141Y572531D01*
X831334Y572555D01*
X831523Y572578D01*
X831532Y572580D01*
X831541Y572581D01*
X831724Y572643D01*
X831906Y572702D01*
X831914Y572707D01*
X831922Y572710D01*
X832088Y572805D01*
X832257Y572900D01*
X832264Y572906D01*
X832271Y572911D01*
X832524Y573125D01*
X834202Y574803D01*
X842198Y574803D01*
X847853Y569148D01*
X847853Y561152D01*
X842352Y555651D01*
X842335Y555630D01*
X842314Y555612D01*
X842207Y555475D01*
X842097Y555339D01*
X842084Y555316D01*
X842068Y555294D01*
X841990Y555138D01*
X841908Y554983D01*
X841900Y554958D01*
X841888Y554934D01*
X841843Y554765D01*
X841793Y554598D01*
X841791Y554571D01*
X841784Y554545D01*
X841757Y554214D01*
X841757Y553241D01*
X841758Y553232D01*
X841757Y553223D01*
X841778Y553029D01*
X841797Y552840D01*
X841799Y552832D01*
X841800Y552823D01*
X841858Y552639D01*
X841915Y552455D01*
X841919Y552447D01*
X841922Y552439D01*
X842014Y552271D01*
X842107Y552101D01*
X842112Y552094D01*
X842117Y552086D01*
X842241Y551939D01*
X842364Y551792D01*
X842371Y551786D01*
X842377Y551779D01*
X842529Y551660D01*
X842678Y551539D01*
X842686Y551535D01*
X842693Y551530D01*
X842866Y551442D01*
X843035Y551354D01*
X843044Y551351D01*
X843052Y551347D01*
X843238Y551295D01*
X843422Y551243D01*
X843431Y551242D01*
X843440Y551239D01*
X843633Y551225D01*
X843824Y551210D01*
X843832Y551211D01*
X843841Y551210D01*
X844034Y551234D01*
X844223Y551257D01*
X844232Y551259D01*
X844241Y551260D01*
X844424Y551322D01*
X844606Y551381D01*
X844614Y551386D01*
X844622Y551389D01*
X844789Y551485D01*
X844957Y551579D01*
X844964Y551585D01*
X844971Y551590D01*
X845224Y551804D01*
X853352Y559932D01*
X853369Y559953D01*
X853390Y559971D01*
X853497Y560108D01*
X853607Y560244D01*
X853620Y560267D01*
X853636Y560289D01*
X853714Y560446D01*
X853796Y560600D01*
X853804Y560625D01*
X853816Y560649D01*
X853861Y560819D01*
X853911Y560985D01*
X853913Y561012D01*
X853920Y561038D01*
X853947Y561369D01*
X853947Y569148D01*
X859602Y574803D01*
X867598Y574803D01*
X869276Y573125D01*
X869283Y573120D01*
X869288Y573113D01*
X869438Y572992D01*
X869587Y572870D01*
X869595Y572866D01*
X869602Y572860D01*
X869772Y572772D01*
X869943Y572682D01*
X869952Y572679D01*
X869959Y572675D01*
X870144Y572622D01*
X870329Y572567D01*
X870338Y572566D01*
X870346Y572564D01*
X870537Y572548D01*
X870730Y572530D01*
X870739Y572531D01*
X870748Y572531D01*
X870937Y572553D01*
X871130Y572574D01*
X871139Y572577D01*
X871147Y572578D01*
X871329Y572637D01*
X871514Y572695D01*
X871522Y572700D01*
X871530Y572702D01*
X871699Y572797D01*
X871866Y572890D01*
X871873Y572896D01*
X871881Y572900D01*
X872026Y573026D01*
X872173Y573151D01*
X872179Y573158D01*
X872186Y573163D01*
X872303Y573315D01*
X872423Y573467D01*
X872427Y573475D01*
X872432Y573482D01*
X872518Y573654D01*
X872605Y573826D01*
X872608Y573834D01*
X872612Y573842D01*
X872661Y574027D01*
X872713Y574213D01*
X872714Y574222D01*
X872716Y574231D01*
X872743Y574562D01*
X872743Y575535D01*
X872741Y575562D01*
X872743Y575589D01*
X872721Y575763D01*
X872703Y575936D01*
X872696Y575961D01*
X872692Y575988D01*
X872637Y576154D01*
X872585Y576321D01*
X872572Y576344D01*
X872564Y576370D01*
X872477Y576521D01*
X872393Y576675D01*
X872376Y576695D01*
X872363Y576719D01*
X872148Y576972D01*
X868818Y580302D01*
X868797Y580319D01*
X868779Y580340D01*
X868642Y580447D01*
X868506Y580557D01*
X868483Y580570D01*
X868461Y580586D01*
X868304Y580664D01*
X868150Y580746D01*
X868125Y580754D01*
X868101Y580766D01*
X867931Y580811D01*
X867765Y580861D01*
X867738Y580863D01*
X867712Y580870D01*
X867381Y580897D01*
X859602Y580897D01*
X853947Y586552D01*
X853947Y594548D01*
X859602Y600203D01*
X867598Y600203D01*
X873253Y594548D01*
X873253Y586769D01*
X873255Y586742D01*
X873253Y586715D01*
X873275Y586541D01*
X873293Y586368D01*
X873300Y586343D01*
X873304Y586316D01*
X873359Y586150D01*
X873411Y585983D01*
X873424Y585960D01*
X873432Y585934D01*
X873519Y585783D01*
X873603Y585629D01*
X873620Y585609D01*
X873633Y585585D01*
X873848Y585332D01*
X879857Y579323D01*
X879857Y550977D01*
X855052Y526172D01*
X855035Y526151D01*
X855014Y526133D01*
X854907Y525996D01*
X854797Y525860D01*
X854784Y525837D01*
X854768Y525815D01*
X854690Y525658D01*
X854608Y525504D01*
X854600Y525479D01*
X854588Y525455D01*
X854543Y525285D01*
X854493Y525119D01*
X854491Y525092D01*
X854484Y525066D01*
X854457Y524735D01*
X854457Y501989D01*
X854459Y501971D01*
X854457Y501953D01*
X854478Y501771D01*
X854497Y501588D01*
X854502Y501571D01*
X854504Y501554D01*
X854561Y501379D01*
X854615Y501203D01*
X854623Y501188D01*
X854629Y501171D01*
X854719Y501011D01*
X854807Y500849D01*
X854818Y500836D01*
X854827Y500820D01*
X854947Y500681D01*
X855064Y500540D01*
X855078Y500529D01*
X855090Y500515D01*
X855235Y500403D01*
X855378Y500288D01*
X855394Y500280D01*
X855408Y500269D01*
X855573Y500187D01*
X855735Y500102D01*
X855752Y500097D01*
X855768Y500089D01*
X855947Y500042D01*
X856122Y499991D01*
X856140Y499989D01*
X856157Y499985D01*
X856488Y499958D01*
X858176Y499958D01*
X859888Y499249D01*
X861199Y497938D01*
X861908Y496226D01*
X861908Y494374D01*
X861161Y492571D01*
X861147Y492553D01*
X861134Y492529D01*
X861118Y492508D01*
X861040Y492351D01*
X860958Y492197D01*
X860950Y492172D01*
X860938Y492148D01*
X860893Y491978D01*
X860843Y491812D01*
X860841Y491785D01*
X860834Y491759D01*
X860807Y491428D01*
X860807Y254791D01*
X860808Y254782D01*
X860807Y254773D01*
X860828Y254579D01*
X860847Y254390D01*
X860849Y254382D01*
X860850Y254373D01*
X860909Y254188D01*
X860965Y254005D01*
X860969Y253997D01*
X860972Y253989D01*
X861065Y253820D01*
X861157Y253651D01*
X861162Y253644D01*
X861167Y253636D01*
X861291Y253489D01*
X861414Y253342D01*
X861421Y253336D01*
X861427Y253329D01*
X861579Y253210D01*
X861728Y253089D01*
X861736Y253085D01*
X861743Y253080D01*
X861916Y252992D01*
X862085Y252904D01*
X862094Y252901D01*
X862102Y252897D01*
X862288Y252845D01*
X862472Y252793D01*
X862481Y252792D01*
X862490Y252789D01*
X862683Y252775D01*
X862874Y252760D01*
X862882Y252761D01*
X862891Y252760D01*
X863084Y252784D01*
X863273Y252807D01*
X863282Y252809D01*
X863291Y252810D01*
X863473Y252872D01*
X863656Y252931D01*
X863664Y252936D01*
X863672Y252939D01*
X863839Y253035D01*
X864007Y253129D01*
X864014Y253135D01*
X864021Y253140D01*
X864274Y253354D01*
X935648Y324728D01*
X935665Y324749D01*
X935686Y324767D01*
X935793Y324904D01*
X935903Y325040D01*
X935916Y325063D01*
X935932Y325085D01*
X936010Y325242D01*
X936092Y325396D01*
X936100Y325421D01*
X936112Y325445D01*
X936157Y325615D01*
X936207Y325781D01*
X936209Y325808D01*
X936216Y325834D01*
X936243Y326165D01*
X936243Y372335D01*
X936241Y372362D01*
X936243Y372389D01*
X936221Y372563D01*
X936203Y372736D01*
X936196Y372761D01*
X936192Y372788D01*
X936137Y372954D01*
X936085Y373121D01*
X936072Y373144D01*
X936064Y373170D01*
X935977Y373321D01*
X935893Y373475D01*
X935876Y373495D01*
X935863Y373519D01*
X935648Y373772D01*
X932572Y376848D01*
X932551Y376865D01*
X932533Y376886D01*
X932396Y376993D01*
X932260Y377103D01*
X932237Y377116D01*
X932215Y377132D01*
X932058Y377210D01*
X931904Y377292D01*
X931879Y377300D01*
X931855Y377312D01*
X931685Y377357D01*
X931519Y377407D01*
X931492Y377409D01*
X931466Y377416D01*
X931135Y377443D01*
X903778Y377443D01*
X903756Y377441D01*
X903734Y377443D01*
X903557Y377421D01*
X903378Y377403D01*
X903357Y377397D01*
X903334Y377394D01*
X903165Y377338D01*
X902993Y377285D01*
X902973Y377275D01*
X902952Y377268D01*
X902797Y377179D01*
X902639Y377093D01*
X902622Y377079D01*
X902602Y377068D01*
X902467Y376950D01*
X902330Y376836D01*
X902316Y376818D01*
X902299Y376804D01*
X902190Y376662D01*
X902077Y376522D01*
X902067Y376502D01*
X902053Y376484D01*
X902029Y376438D01*
X899701Y374109D01*
X898457Y373593D01*
X898456Y373593D01*
X896713Y372871D01*
X881287Y372871D01*
X878299Y374109D01*
X876013Y376395D01*
X874775Y379383D01*
X874775Y382617D01*
X876013Y385605D01*
X878299Y387891D01*
X881287Y389129D01*
X896713Y389129D01*
X899701Y387891D01*
X902041Y385551D01*
X902092Y385456D01*
X902106Y385439D01*
X902117Y385419D01*
X902234Y385284D01*
X902348Y385145D01*
X902366Y385131D01*
X902380Y385114D01*
X902522Y385005D01*
X902661Y384892D01*
X902681Y384881D01*
X902698Y384868D01*
X902859Y384788D01*
X903018Y384705D01*
X903039Y384698D01*
X903059Y384688D01*
X903233Y384642D01*
X903404Y384592D01*
X903426Y384590D01*
X903448Y384584D01*
X903778Y384557D01*
X934923Y384557D01*
X937602Y381878D01*
X939126Y380354D01*
X939133Y380349D01*
X939138Y380342D01*
X939289Y380221D01*
X939437Y380099D01*
X939445Y380095D01*
X939452Y380089D01*
X939622Y380001D01*
X939793Y379911D01*
X939802Y379908D01*
X939809Y379904D01*
X939994Y379851D01*
X940179Y379796D01*
X940188Y379795D01*
X940196Y379793D01*
X940387Y379777D01*
X940580Y379759D01*
X940589Y379760D01*
X940598Y379760D01*
X940787Y379782D01*
X940980Y379803D01*
X940989Y379806D01*
X940997Y379807D01*
X941179Y379866D01*
X941364Y379924D01*
X941372Y379929D01*
X941380Y379931D01*
X941547Y380026D01*
X941716Y380119D01*
X941723Y380125D01*
X941731Y380129D01*
X941876Y380254D01*
X942023Y380380D01*
X942029Y380387D01*
X942036Y380392D01*
X942152Y380543D01*
X942273Y380696D01*
X942277Y380704D01*
X942282Y380711D01*
X942367Y380881D01*
X942455Y381054D01*
X942458Y381063D01*
X942462Y381071D01*
X942511Y381257D01*
X942563Y381442D01*
X942564Y381451D01*
X942566Y381460D01*
X942593Y381791D01*
X942593Y397735D01*
X942591Y397762D01*
X942593Y397789D01*
X942571Y397963D01*
X942553Y398136D01*
X942546Y398161D01*
X942542Y398188D01*
X942487Y398354D01*
X942435Y398521D01*
X942422Y398544D01*
X942414Y398570D01*
X942327Y398721D01*
X942243Y398875D01*
X942226Y398895D01*
X942213Y398919D01*
X941998Y399172D01*
X938922Y402248D01*
X938901Y402265D01*
X938883Y402286D01*
X938746Y402393D01*
X938610Y402503D01*
X938587Y402516D01*
X938565Y402532D01*
X938408Y402610D01*
X938254Y402692D01*
X938229Y402700D01*
X938205Y402712D01*
X938035Y402757D01*
X937869Y402807D01*
X937842Y402809D01*
X937816Y402816D01*
X937485Y402843D01*
X903778Y402843D01*
X903756Y402841D01*
X903734Y402843D01*
X903557Y402821D01*
X903378Y402803D01*
X903357Y402797D01*
X903334Y402794D01*
X903165Y402738D01*
X902993Y402685D01*
X902973Y402675D01*
X902952Y402668D01*
X902797Y402579D01*
X902639Y402493D01*
X902622Y402479D01*
X902602Y402468D01*
X902467Y402350D01*
X902330Y402236D01*
X902316Y402218D01*
X902299Y402204D01*
X902190Y402062D01*
X902077Y401922D01*
X902067Y401902D01*
X902053Y401884D01*
X902029Y401838D01*
X899701Y399509D01*
X896713Y398271D01*
X881287Y398271D01*
X878299Y399509D01*
X876013Y401795D01*
X874775Y404783D01*
X874775Y408017D01*
X876013Y411005D01*
X878299Y413291D01*
X881287Y414529D01*
X896713Y414529D01*
X899701Y413291D01*
X902041Y410951D01*
X902092Y410856D01*
X902106Y410839D01*
X902117Y410819D01*
X902234Y410684D01*
X902348Y410545D01*
X902366Y410531D01*
X902380Y410514D01*
X902522Y410405D01*
X902661Y410292D01*
X902681Y410281D01*
X902698Y410268D01*
X902859Y410188D01*
X903018Y410105D01*
X903039Y410098D01*
X903059Y410088D01*
X903233Y410042D01*
X903404Y409992D01*
X903426Y409990D01*
X903448Y409984D01*
X903778Y409957D01*
X941273Y409957D01*
X943952Y407278D01*
X945476Y405754D01*
X945483Y405749D01*
X945488Y405742D01*
X945639Y405621D01*
X945787Y405499D01*
X945795Y405495D01*
X945802Y405489D01*
X945972Y405401D01*
X946143Y405311D01*
X946152Y405308D01*
X946159Y405304D01*
X946344Y405251D01*
X946529Y405196D01*
X946538Y405195D01*
X946546Y405193D01*
X946737Y405177D01*
X946930Y405159D01*
X946939Y405160D01*
X946948Y405160D01*
X947137Y405182D01*
X947330Y405203D01*
X947339Y405206D01*
X947347Y405207D01*
X947529Y405266D01*
X947714Y405324D01*
X947722Y405329D01*
X947730Y405331D01*
X947897Y405426D01*
X948066Y405519D01*
X948073Y405525D01*
X948081Y405529D01*
X948226Y405654D01*
X948373Y405780D01*
X948379Y405787D01*
X948386Y405792D01*
X948502Y405943D01*
X948623Y406096D01*
X948627Y406104D01*
X948632Y406111D01*
X948717Y406281D01*
X948805Y406454D01*
X948808Y406463D01*
X948812Y406471D01*
X948861Y406657D01*
X948913Y406842D01*
X948914Y406851D01*
X948916Y406860D01*
X948943Y407191D01*
X948943Y423135D01*
X948941Y423162D01*
X948943Y423189D01*
X948921Y423363D01*
X948903Y423536D01*
X948896Y423562D01*
X948892Y423588D01*
X948837Y423754D01*
X948785Y423921D01*
X948772Y423945D01*
X948764Y423970D01*
X948677Y424121D01*
X948593Y424275D01*
X948576Y424295D01*
X948563Y424319D01*
X948348Y424572D01*
X945272Y427648D01*
X945251Y427665D01*
X945234Y427686D01*
X945096Y427793D01*
X944960Y427903D01*
X944937Y427916D01*
X944915Y427932D01*
X944758Y428010D01*
X944604Y428092D01*
X944579Y428100D01*
X944555Y428112D01*
X944385Y428157D01*
X944219Y428207D01*
X944192Y428209D01*
X944166Y428216D01*
X943835Y428243D01*
X903778Y428243D01*
X903756Y428241D01*
X903734Y428243D01*
X903557Y428221D01*
X903378Y428203D01*
X903357Y428197D01*
X903334Y428194D01*
X903165Y428138D01*
X902993Y428085D01*
X902973Y428075D01*
X902952Y428068D01*
X902797Y427979D01*
X902639Y427893D01*
X902622Y427879D01*
X902602Y427868D01*
X902467Y427750D01*
X902330Y427636D01*
X902316Y427618D01*
X902299Y427604D01*
X902190Y427462D01*
X902077Y427322D01*
X902067Y427302D01*
X902053Y427284D01*
X902029Y427238D01*
X899701Y424909D01*
X896713Y423671D01*
X881287Y423671D01*
X878299Y424909D01*
X876013Y427195D01*
X874775Y430183D01*
X874775Y433417D01*
X876013Y436405D01*
X878299Y438691D01*
X881287Y439929D01*
X896713Y439929D01*
X899701Y438691D01*
X902041Y436351D01*
X902092Y436256D01*
X902106Y436239D01*
X902117Y436219D01*
X902234Y436084D01*
X902348Y435945D01*
X902366Y435931D01*
X902380Y435914D01*
X902522Y435805D01*
X902661Y435692D01*
X902681Y435681D01*
X902698Y435668D01*
X902859Y435588D01*
X903018Y435505D01*
X903039Y435498D01*
X903059Y435488D01*
X903233Y435442D01*
X903404Y435392D01*
X903426Y435390D01*
X903448Y435384D01*
X903778Y435357D01*
X947623Y435357D01*
X950301Y432679D01*
X950302Y432678D01*
X953378Y429602D01*
X956057Y426923D01*
X956057Y309677D01*
X880452Y234072D01*
X880435Y234051D01*
X880414Y234033D01*
X880307Y233896D01*
X880197Y233760D01*
X880184Y233737D01*
X880168Y233715D01*
X880090Y233558D01*
X880008Y233404D01*
X880000Y233379D01*
X879988Y233355D01*
X879943Y233185D01*
X879893Y233019D01*
X879891Y232992D01*
X879884Y232966D01*
X879857Y232635D01*
X879857Y131877D01*
X877178Y129198D01*
X861402Y113422D01*
X858723Y110743D01*
X606312Y110743D01*
X606303Y110742D01*
X606294Y110743D01*
X606103Y110723D01*
X605911Y110703D01*
X605902Y110701D01*
X605894Y110700D01*
X605710Y110642D01*
X605526Y110585D01*
X605518Y110581D01*
X605510Y110578D01*
X605341Y110485D01*
X605172Y110393D01*
X605165Y110388D01*
X605157Y110383D01*
X605010Y110258D01*
X604863Y110136D01*
X604857Y110129D01*
X604850Y110123D01*
X604731Y109972D01*
X604610Y109822D01*
X604606Y109814D01*
X604601Y109807D01*
X604513Y109634D01*
X604425Y109465D01*
X604423Y109456D01*
X604418Y109448D01*
X604367Y109262D01*
X604314Y109078D01*
X604313Y109069D01*
X604310Y109060D01*
X604296Y108868D01*
X604281Y108676D01*
X604282Y108668D01*
X604281Y108659D01*
X604305Y108467D01*
X604328Y108277D01*
X604330Y108268D01*
X604331Y108259D01*
X604392Y108079D01*
X604452Y107894D01*
X604457Y107886D01*
X604460Y107878D01*
X604554Y107713D01*
X604650Y107543D01*
X604656Y107536D01*
X604661Y107529D01*
X604875Y107276D01*
X605083Y107068D01*
X606553Y103520D01*
X606553Y99680D01*
X605083Y96132D01*
X602368Y93417D01*
X598820Y91947D01*
X594980Y91947D01*
X591432Y93417D01*
X588717Y96132D01*
X587247Y99680D01*
X587247Y103520D01*
X588717Y107068D01*
X588925Y107276D01*
X588930Y107283D01*
X588937Y107288D01*
X589059Y107439D01*
X589180Y107587D01*
X589184Y107595D01*
X589190Y107602D01*
X589278Y107772D01*
X589368Y107943D01*
X589371Y107952D01*
X589375Y107959D01*
X589428Y108143D01*
X589483Y108329D01*
X589484Y108338D01*
X589486Y108346D01*
X589502Y108537D01*
X589520Y108730D01*
X589519Y108739D01*
X589519Y108748D01*
X589497Y108936D01*
X589476Y109130D01*
X589473Y109139D01*
X589472Y109147D01*
X589413Y109329D01*
X589355Y109514D01*
X589350Y109522D01*
X589348Y109530D01*
X589253Y109699D01*
X589160Y109866D01*
X589154Y109873D01*
X589150Y109881D01*
X589024Y110026D01*
X588899Y110173D01*
X588892Y110179D01*
X588887Y110186D01*
X588736Y110303D01*
X588583Y110423D01*
X588575Y110427D01*
X588568Y110432D01*
X588396Y110518D01*
X588225Y110605D01*
X588216Y110608D01*
X588208Y110612D01*
X588020Y110662D01*
X587837Y110713D01*
X587828Y110714D01*
X587819Y110716D01*
X587488Y110743D01*
X512877Y110743D01*
X501873Y121747D01*
X501852Y121764D01*
X501834Y121785D01*
X501697Y121892D01*
X501561Y122002D01*
X501538Y122015D01*
X501516Y122031D01*
X501359Y122109D01*
X501205Y122191D01*
X501180Y122199D01*
X501156Y122211D01*
X500986Y122256D01*
X500820Y122306D01*
X500809Y122307D01*
X499012Y123051D01*
X497701Y124362D01*
X496992Y126074D01*
X496992Y127926D01*
X497701Y129638D01*
X499012Y130949D01*
X500724Y131658D01*
X501311Y131658D01*
X501329Y131660D01*
X501347Y131658D01*
X501529Y131679D01*
X501712Y131698D01*
X501729Y131703D01*
X501746Y131705D01*
X501921Y131762D01*
X502097Y131816D01*
X502112Y131824D01*
X502129Y131830D01*
X502289Y131920D01*
X502451Y132008D01*
X502464Y132019D01*
X502480Y132028D01*
X502619Y132148D01*
X502760Y132265D01*
X502771Y132279D01*
X502785Y132291D01*
X502897Y132436D01*
X503012Y132579D01*
X503020Y132595D01*
X503031Y132609D01*
X503113Y132774D01*
X503198Y132936D01*
X503203Y132953D01*
X503211Y132969D01*
X503258Y133148D01*
X503309Y133323D01*
X503311Y133341D01*
X503315Y133358D01*
X503342Y133689D01*
X503342Y134276D01*
X504051Y135988D01*
X505362Y137299D01*
X507074Y138008D01*
X507661Y138008D01*
X507679Y138010D01*
X507697Y138008D01*
X507879Y138029D01*
X508062Y138048D01*
X508079Y138053D01*
X508096Y138055D01*
X508271Y138112D01*
X508447Y138166D01*
X508462Y138174D01*
X508479Y138180D01*
X508639Y138270D01*
X508801Y138358D01*
X508814Y138369D01*
X508830Y138378D01*
X508969Y138498D01*
X509110Y138615D01*
X509121Y138629D01*
X509135Y138641D01*
X509247Y138786D01*
X509362Y138929D01*
X509370Y138945D01*
X509381Y138959D01*
X509463Y139124D01*
X509548Y139286D01*
X509553Y139303D01*
X509561Y139319D01*
X509608Y139498D01*
X509659Y139673D01*
X509661Y139691D01*
X509665Y139708D01*
X509692Y140039D01*
X509692Y140626D01*
X510401Y142338D01*
X511712Y143649D01*
X513424Y144358D01*
X514011Y144358D01*
X514029Y144360D01*
X514047Y144358D01*
X514229Y144379D01*
X514412Y144398D01*
X514429Y144403D01*
X514446Y144405D01*
X514621Y144462D01*
X514797Y144516D01*
X514812Y144524D01*
X514829Y144530D01*
X514989Y144620D01*
X515151Y144708D01*
X515164Y144719D01*
X515180Y144728D01*
X515319Y144848D01*
X515460Y144965D01*
X515471Y144979D01*
X515485Y144991D01*
X515597Y145136D01*
X515712Y145279D01*
X515720Y145295D01*
X515731Y145309D01*
X515813Y145474D01*
X515898Y145636D01*
X515903Y145653D01*
X515911Y145669D01*
X515958Y145848D01*
X516009Y146023D01*
X516011Y146041D01*
X516015Y146058D01*
X516042Y146389D01*
X516042Y146976D01*
X516751Y148688D01*
X518062Y149999D01*
X519774Y150708D01*
X521626Y150708D01*
X523338Y149999D01*
X524649Y148688D01*
X525173Y147422D01*
X525178Y147414D01*
X525180Y147405D01*
X525273Y147236D01*
X525364Y147067D01*
X525369Y147060D01*
X525373Y147052D01*
X525498Y146904D01*
X525620Y146756D01*
X525627Y146751D01*
X525633Y146744D01*
X525784Y146623D01*
X525933Y146503D01*
X525940Y146498D01*
X525947Y146493D01*
X526119Y146405D01*
X526289Y146316D01*
X526298Y146313D01*
X526306Y146309D01*
X526490Y146257D01*
X526676Y146202D01*
X526684Y146202D01*
X526693Y146199D01*
X526884Y146184D01*
X527077Y146168D01*
X527085Y146169D01*
X527094Y146168D01*
X527285Y146191D01*
X527477Y146213D01*
X527485Y146216D01*
X527494Y146217D01*
X527677Y146277D01*
X527860Y146336D01*
X527868Y146340D01*
X527876Y146343D01*
X528044Y146439D01*
X528212Y146533D01*
X528218Y146538D01*
X528226Y146543D01*
X528370Y146669D01*
X528517Y146794D01*
X528523Y146801D01*
X528530Y146807D01*
X528646Y146959D01*
X528766Y147111D01*
X528770Y147119D01*
X528775Y147126D01*
X528927Y147422D01*
X529451Y148688D01*
X530762Y149999D01*
X532474Y150708D01*
X533061Y150708D01*
X533079Y150710D01*
X533097Y150708D01*
X533279Y150729D01*
X533462Y150748D01*
X533479Y150753D01*
X533496Y150755D01*
X533671Y150812D01*
X533847Y150866D01*
X533862Y150874D01*
X533879Y150880D01*
X534039Y150970D01*
X534201Y151058D01*
X534214Y151069D01*
X534230Y151078D01*
X534369Y151198D01*
X534510Y151315D01*
X534521Y151329D01*
X534535Y151341D01*
X534647Y151486D01*
X534762Y151629D01*
X534770Y151645D01*
X534781Y151659D01*
X534863Y151824D01*
X534948Y151986D01*
X534953Y152003D01*
X534961Y152019D01*
X535008Y152198D01*
X535059Y152373D01*
X535061Y152391D01*
X535065Y152408D01*
X535092Y152739D01*
X535092Y153326D01*
X535801Y155038D01*
X537112Y156349D01*
X538824Y157058D01*
X540676Y157058D01*
X542388Y156349D01*
X543699Y155038D01*
X544445Y153236D01*
X544448Y153213D01*
X544455Y153188D01*
X544459Y153161D01*
X544514Y152995D01*
X544566Y152828D01*
X544579Y152805D01*
X544587Y152779D01*
X544674Y152628D01*
X544758Y152474D01*
X544775Y152454D01*
X544788Y152430D01*
X545003Y152177D01*
X546978Y150202D01*
X546999Y150185D01*
X547017Y150164D01*
X547154Y150057D01*
X547290Y149947D01*
X547313Y149934D01*
X547335Y149918D01*
X547492Y149840D01*
X547646Y149758D01*
X547671Y149750D01*
X547695Y149738D01*
X547865Y149693D01*
X548031Y149643D01*
X548058Y149641D01*
X548084Y149634D01*
X548415Y149607D01*
X602459Y149607D01*
X602468Y149608D01*
X602477Y149607D01*
X602671Y149628D01*
X602860Y149647D01*
X602868Y149649D01*
X602877Y149650D01*
X603062Y149709D01*
X603245Y149765D01*
X603253Y149769D01*
X603261Y149772D01*
X603430Y149865D01*
X603599Y149957D01*
X603606Y149962D01*
X603614Y149967D01*
X603761Y150091D01*
X603908Y150214D01*
X603914Y150221D01*
X603921Y150227D01*
X604040Y150379D01*
X604161Y150528D01*
X604165Y150536D01*
X604170Y150543D01*
X604258Y150716D01*
X604346Y150885D01*
X604349Y150894D01*
X604353Y150902D01*
X604405Y151088D01*
X604457Y151272D01*
X604458Y151281D01*
X604461Y151290D01*
X604475Y151483D01*
X604490Y151674D01*
X604489Y151682D01*
X604490Y151691D01*
X604466Y151884D01*
X604443Y152073D01*
X604441Y152082D01*
X604440Y152091D01*
X604378Y152273D01*
X604319Y152456D01*
X604314Y152464D01*
X604311Y152472D01*
X604215Y152639D01*
X604121Y152807D01*
X604115Y152814D01*
X604110Y152821D01*
X603896Y153074D01*
X551572Y205398D01*
X551551Y205415D01*
X551533Y205436D01*
X551396Y205543D01*
X551260Y205653D01*
X551237Y205666D01*
X551215Y205682D01*
X551058Y205760D01*
X550904Y205842D01*
X550879Y205850D01*
X550855Y205862D01*
X550685Y205907D01*
X550519Y205957D01*
X550492Y205959D01*
X550466Y205966D01*
X550135Y205993D01*
X482939Y205993D01*
X482921Y205991D01*
X482903Y205993D01*
X482721Y205972D01*
X482538Y205953D01*
X482521Y205948D01*
X482504Y205946D01*
X482329Y205889D01*
X482153Y205835D01*
X482138Y205827D01*
X482121Y205821D01*
X481961Y205731D01*
X481799Y205643D01*
X481786Y205632D01*
X481770Y205623D01*
X481631Y205503D01*
X481490Y205386D01*
X481479Y205372D01*
X481465Y205360D01*
X481353Y205215D01*
X481238Y205072D01*
X481230Y205056D01*
X481219Y205042D01*
X481137Y204877D01*
X481052Y204715D01*
X481047Y204698D01*
X481039Y204682D01*
X480992Y204503D01*
X480941Y204328D01*
X480939Y204310D01*
X480935Y204293D01*
X480908Y203962D01*
X480908Y203539D01*
X480910Y203521D01*
X480908Y203503D01*
X480929Y203321D01*
X480948Y203138D01*
X480953Y203121D01*
X480955Y203104D01*
X481012Y202929D01*
X481066Y202753D01*
X481074Y202738D01*
X481080Y202721D01*
X481170Y202561D01*
X481258Y202399D01*
X481269Y202386D01*
X481278Y202370D01*
X481398Y202231D01*
X481515Y202090D01*
X481529Y202079D01*
X481541Y202065D01*
X481686Y201953D01*
X481829Y201838D01*
X481845Y201830D01*
X481859Y201819D01*
X482024Y201737D01*
X482186Y201652D01*
X482203Y201647D01*
X482219Y201639D01*
X482398Y201592D01*
X482573Y201541D01*
X482591Y201539D01*
X482608Y201535D01*
X482939Y201508D01*
X483526Y201508D01*
X485238Y200799D01*
X486549Y199488D01*
X487248Y197800D01*
X487254Y197788D01*
X487258Y197775D01*
X487350Y197610D01*
X487438Y197445D01*
X487447Y197435D01*
X487453Y197423D01*
X487575Y197280D01*
X487695Y197135D01*
X487705Y197126D01*
X487714Y197116D01*
X487861Y196999D01*
X488007Y196881D01*
X488019Y196875D01*
X488030Y196866D01*
X488198Y196781D01*
X488364Y196694D01*
X488377Y196690D01*
X488389Y196684D01*
X488570Y196633D01*
X488750Y196581D01*
X488763Y196580D01*
X488776Y196576D01*
X488965Y196562D01*
X489151Y196546D01*
X489164Y196548D01*
X489178Y196547D01*
X489366Y196570D01*
X489551Y196591D01*
X489564Y196595D01*
X489574Y196597D01*
X501588Y196597D01*
X501615Y196599D01*
X501642Y196597D01*
X501816Y196619D01*
X501989Y196637D01*
X502014Y196644D01*
X502041Y196648D01*
X502207Y196703D01*
X502374Y196755D01*
X502397Y196768D01*
X502423Y196776D01*
X502574Y196863D01*
X502728Y196947D01*
X502736Y196953D01*
X504534Y197698D01*
X506386Y197698D01*
X508098Y196989D01*
X509409Y195678D01*
X510118Y193966D01*
X510118Y192114D01*
X509409Y190402D01*
X508098Y189091D01*
X506386Y188382D01*
X504529Y188382D01*
X504511Y188380D01*
X504493Y188382D01*
X504311Y188361D01*
X504128Y188342D01*
X504111Y188337D01*
X504094Y188335D01*
X503919Y188278D01*
X503743Y188224D01*
X503728Y188216D01*
X503711Y188210D01*
X503551Y188120D01*
X503389Y188032D01*
X503376Y188021D01*
X503360Y188012D01*
X503221Y187892D01*
X503080Y187775D01*
X503069Y187761D01*
X503055Y187749D01*
X502943Y187604D01*
X502828Y187461D01*
X502820Y187445D01*
X502809Y187431D01*
X502727Y187266D01*
X502642Y187104D01*
X502637Y187087D01*
X502629Y187071D01*
X502582Y186892D01*
X502531Y186717D01*
X502529Y186699D01*
X502525Y186682D01*
X502498Y186351D01*
X502498Y184494D01*
X501789Y182782D01*
X500478Y181471D01*
X498766Y180762D01*
X498267Y180762D01*
X498263Y180762D01*
X498258Y180762D01*
X498064Y180742D01*
X497867Y180722D01*
X497862Y180721D01*
X497858Y180721D01*
X497670Y180662D01*
X497482Y180604D01*
X497478Y180602D01*
X497473Y180601D01*
X497299Y180505D01*
X497128Y180412D01*
X497124Y180410D01*
X497120Y180407D01*
X496967Y180279D01*
X496818Y180155D01*
X496816Y180151D01*
X496812Y180148D01*
X496689Y179993D01*
X496566Y179841D01*
X496564Y179837D01*
X496561Y179833D01*
X496469Y179655D01*
X496381Y179484D01*
X496379Y179479D01*
X496377Y179475D01*
X496323Y179282D01*
X496269Y179097D01*
X496269Y179092D01*
X496268Y179088D01*
X496252Y178891D01*
X496236Y178695D01*
X496237Y178691D01*
X496236Y178687D01*
X496260Y178493D01*
X496283Y178296D01*
X496285Y178291D01*
X496285Y178287D01*
X496348Y178098D01*
X496408Y177913D01*
X496410Y177909D01*
X496412Y177905D01*
X496508Y177736D01*
X496606Y177562D01*
X496609Y177559D01*
X496611Y177555D01*
X496740Y177406D01*
X496869Y177258D01*
X496873Y177255D01*
X496876Y177251D01*
X497035Y177129D01*
X497187Y177011D01*
X497191Y177009D01*
X497195Y177006D01*
X497490Y176854D01*
X497938Y176669D01*
X499249Y175358D01*
X499958Y173646D01*
X499958Y171794D01*
X499249Y170082D01*
X497938Y168771D01*
X496136Y168025D01*
X496113Y168022D01*
X496088Y168015D01*
X496061Y168011D01*
X495895Y167956D01*
X495728Y167904D01*
X495705Y167891D01*
X495679Y167883D01*
X495528Y167796D01*
X495374Y167712D01*
X495354Y167695D01*
X495330Y167682D01*
X495077Y167467D01*
X489153Y161543D01*
X408715Y161543D01*
X408688Y161541D01*
X408661Y161543D01*
X408487Y161521D01*
X408314Y161503D01*
X408288Y161496D01*
X408262Y161492D01*
X408096Y161436D01*
X407929Y161385D01*
X407905Y161372D01*
X407880Y161364D01*
X407729Y161277D01*
X407575Y161193D01*
X407555Y161176D01*
X407531Y161163D01*
X407278Y160948D01*
X397852Y151522D01*
X397835Y151501D01*
X397814Y151483D01*
X397707Y151346D01*
X397597Y151210D01*
X397584Y151187D01*
X397568Y151165D01*
X397490Y151008D01*
X397408Y150854D01*
X397400Y150829D01*
X397388Y150805D01*
X397343Y150635D01*
X397293Y150469D01*
X397291Y150442D01*
X397284Y150416D01*
X397257Y150085D01*
X397257Y106477D01*
X299923Y9143D01*
X283272Y9143D01*
X283245Y9141D01*
X283218Y9143D01*
X283045Y9121D01*
X282871Y9103D01*
X282845Y9095D01*
X282819Y9092D01*
X282653Y9037D01*
X282486Y8985D01*
X282462Y8972D01*
X282437Y8964D01*
X282285Y8877D01*
X282132Y8793D01*
X282124Y8787D01*
X280326Y8042D01*
X278474Y8042D01*
G37*
%LPD*%
%LPC*%
G36*
X81624Y173142D02*
X81624Y173142D01*
X79912Y173851D01*
X78601Y175162D01*
X77892Y176874D01*
X77892Y178726D01*
X78639Y180529D01*
X78653Y180547D01*
X78666Y180571D01*
X78682Y180592D01*
X78760Y180749D01*
X78842Y180903D01*
X78850Y180928D01*
X78862Y180952D01*
X78907Y181122D01*
X78957Y181288D01*
X78959Y181315D01*
X78966Y181341D01*
X78993Y181672D01*
X78993Y280873D01*
X116498Y318378D01*
X116515Y318399D01*
X116536Y318417D01*
X116643Y318554D01*
X116753Y318690D01*
X116766Y318713D01*
X116782Y318735D01*
X116860Y318892D01*
X116942Y319046D01*
X116950Y319071D01*
X116962Y319095D01*
X117007Y319265D01*
X117057Y319431D01*
X117059Y319458D01*
X117066Y319484D01*
X117093Y319815D01*
X117093Y323198D01*
X117092Y323206D01*
X117093Y323215D01*
X117073Y323406D01*
X117053Y323598D01*
X117051Y323607D01*
X117050Y323616D01*
X116992Y323798D01*
X116935Y323983D01*
X116931Y323991D01*
X116928Y324000D01*
X116835Y324168D01*
X116743Y324337D01*
X116738Y324344D01*
X116733Y324352D01*
X116608Y324500D01*
X116486Y324646D01*
X116479Y324652D01*
X116473Y324659D01*
X116321Y324779D01*
X116172Y324899D01*
X116164Y324903D01*
X116157Y324908D01*
X115985Y324996D01*
X115815Y325084D01*
X115806Y325087D01*
X115798Y325091D01*
X115612Y325143D01*
X115428Y325196D01*
X115419Y325196D01*
X115410Y325199D01*
X115218Y325213D01*
X115026Y325229D01*
X115018Y325228D01*
X115009Y325228D01*
X114816Y325204D01*
X114627Y325182D01*
X114618Y325179D01*
X114609Y325178D01*
X114426Y325116D01*
X114244Y325057D01*
X114236Y325052D01*
X114228Y325050D01*
X114062Y324954D01*
X113893Y324859D01*
X113886Y324853D01*
X113879Y324849D01*
X113626Y324634D01*
X112301Y323309D01*
X109313Y322071D01*
X93887Y322071D01*
X90899Y323309D01*
X88613Y325595D01*
X87375Y328583D01*
X87375Y331817D01*
X88613Y334805D01*
X90899Y337091D01*
X91517Y337347D01*
X93887Y338329D01*
X109313Y338329D01*
X112301Y337091D01*
X113626Y335766D01*
X113633Y335760D01*
X113638Y335754D01*
X113789Y335632D01*
X113937Y335511D01*
X113945Y335507D01*
X113952Y335501D01*
X114122Y335413D01*
X114293Y335322D01*
X114302Y335320D01*
X114309Y335316D01*
X114494Y335263D01*
X114679Y335208D01*
X114688Y335207D01*
X114696Y335204D01*
X114887Y335189D01*
X115080Y335171D01*
X115089Y335172D01*
X115098Y335171D01*
X115287Y335194D01*
X115480Y335215D01*
X115489Y335217D01*
X115497Y335218D01*
X115679Y335278D01*
X115864Y335336D01*
X115872Y335340D01*
X115880Y335343D01*
X116047Y335437D01*
X116216Y335531D01*
X116223Y335537D01*
X116231Y335541D01*
X116376Y335666D01*
X116523Y335791D01*
X116529Y335798D01*
X116536Y335804D01*
X116652Y335955D01*
X116773Y336107D01*
X116777Y336115D01*
X116782Y336122D01*
X116868Y336294D01*
X116955Y336466D01*
X116958Y336475D01*
X116962Y336483D01*
X117012Y336669D01*
X117063Y336854D01*
X117064Y336863D01*
X117066Y336872D01*
X117093Y337202D01*
X117093Y347879D01*
X117092Y347888D01*
X117093Y347897D01*
X117072Y348088D01*
X117053Y348280D01*
X117051Y348288D01*
X117050Y348297D01*
X116991Y348482D01*
X116935Y348665D01*
X116931Y348673D01*
X116928Y348681D01*
X116835Y348851D01*
X116743Y349019D01*
X116738Y349026D01*
X116733Y349034D01*
X116608Y349181D01*
X116486Y349328D01*
X116479Y349334D01*
X116473Y349341D01*
X116322Y349460D01*
X116172Y349580D01*
X116164Y349585D01*
X116157Y349590D01*
X115984Y349678D01*
X115815Y349766D01*
X115806Y349768D01*
X115798Y349772D01*
X115612Y349824D01*
X115428Y349877D01*
X115419Y349878D01*
X115410Y349880D01*
X115218Y349894D01*
X115026Y349910D01*
X115018Y349909D01*
X115009Y349910D01*
X114817Y349886D01*
X114627Y349863D01*
X114618Y349860D01*
X114609Y349859D01*
X114428Y349798D01*
X114244Y349738D01*
X114236Y349734D01*
X114228Y349731D01*
X114062Y349636D01*
X113893Y349541D01*
X113886Y349535D01*
X113879Y349530D01*
X113626Y349315D01*
X113322Y349012D01*
X112223Y348213D01*
X111011Y347596D01*
X109719Y347176D01*
X108376Y346963D01*
X103631Y346963D01*
X103631Y355600D01*
X103631Y364237D01*
X108376Y364237D01*
X109719Y364024D01*
X111011Y363604D01*
X112223Y362987D01*
X113322Y362188D01*
X113626Y361885D01*
X113633Y361879D01*
X113638Y361872D01*
X113788Y361752D01*
X113937Y361629D01*
X113945Y361625D01*
X113952Y361620D01*
X114122Y361531D01*
X114293Y361441D01*
X114301Y361438D01*
X114309Y361434D01*
X114495Y361381D01*
X114679Y361326D01*
X114688Y361325D01*
X114696Y361323D01*
X114888Y361307D01*
X115080Y361290D01*
X115089Y361291D01*
X115098Y361290D01*
X115288Y361312D01*
X115480Y361333D01*
X115489Y361336D01*
X115497Y361337D01*
X115681Y361397D01*
X115864Y361454D01*
X115872Y361459D01*
X115880Y361462D01*
X116049Y361557D01*
X116216Y361649D01*
X116223Y361655D01*
X116231Y361659D01*
X116376Y361785D01*
X116523Y361910D01*
X116529Y361917D01*
X116536Y361923D01*
X116653Y362074D01*
X116773Y362226D01*
X116777Y362234D01*
X116782Y362241D01*
X116868Y362412D01*
X116955Y362585D01*
X116958Y362593D01*
X116962Y362601D01*
X117012Y362789D01*
X117063Y362972D01*
X117064Y362981D01*
X117066Y362990D01*
X117093Y363321D01*
X117093Y372335D01*
X117091Y372362D01*
X117093Y372389D01*
X117071Y372562D01*
X117053Y372736D01*
X117046Y372762D01*
X117042Y372788D01*
X116987Y372954D01*
X116935Y373121D01*
X116922Y373144D01*
X116914Y373170D01*
X116827Y373321D01*
X116743Y373475D01*
X116726Y373495D01*
X116713Y373519D01*
X116498Y373772D01*
X115667Y374603D01*
X115653Y374614D01*
X115642Y374628D01*
X115498Y374742D01*
X115356Y374858D01*
X115340Y374866D01*
X115326Y374877D01*
X115163Y374960D01*
X115000Y375047D01*
X114983Y375052D01*
X114967Y375060D01*
X114791Y375109D01*
X114614Y375161D01*
X114596Y375163D01*
X114579Y375168D01*
X114396Y375181D01*
X114213Y375198D01*
X114195Y375196D01*
X114178Y375197D01*
X113996Y375174D01*
X113813Y375154D01*
X113796Y375149D01*
X113778Y375147D01*
X113604Y375088D01*
X113429Y375033D01*
X113413Y375024D01*
X113396Y375018D01*
X113237Y374926D01*
X113077Y374838D01*
X113063Y374826D01*
X113048Y374817D01*
X112795Y374603D01*
X112301Y374109D01*
X111057Y373593D01*
X111056Y373593D01*
X109313Y372871D01*
X93887Y372871D01*
X90899Y374109D01*
X88613Y376395D01*
X87375Y379383D01*
X87375Y382617D01*
X88613Y385605D01*
X90899Y387891D01*
X93887Y389129D01*
X109313Y389129D01*
X112301Y387891D01*
X114641Y385551D01*
X114692Y385456D01*
X114706Y385439D01*
X114717Y385419D01*
X114834Y385283D01*
X114948Y385146D01*
X114966Y385131D01*
X114980Y385114D01*
X115122Y385005D01*
X115261Y384892D01*
X115281Y384881D01*
X115298Y384868D01*
X115459Y384788D01*
X115617Y384705D01*
X115629Y384701D01*
X118452Y381878D01*
X119976Y380354D01*
X119983Y380349D01*
X119988Y380342D01*
X120139Y380221D01*
X120287Y380099D01*
X120295Y380095D01*
X120302Y380089D01*
X120472Y380001D01*
X120643Y379911D01*
X120652Y379908D01*
X120659Y379904D01*
X120844Y379851D01*
X121029Y379796D01*
X121038Y379795D01*
X121046Y379793D01*
X121237Y379777D01*
X121430Y379759D01*
X121439Y379760D01*
X121448Y379760D01*
X121637Y379782D01*
X121830Y379803D01*
X121839Y379806D01*
X121847Y379807D01*
X122029Y379866D01*
X122214Y379924D01*
X122222Y379929D01*
X122230Y379931D01*
X122397Y380026D01*
X122566Y380119D01*
X122573Y380125D01*
X122581Y380129D01*
X122726Y380254D01*
X122873Y380380D01*
X122879Y380387D01*
X122886Y380392D01*
X123002Y380543D01*
X123123Y380696D01*
X123127Y380704D01*
X123132Y380711D01*
X123217Y380881D01*
X123305Y381054D01*
X123308Y381063D01*
X123312Y381071D01*
X123361Y381257D01*
X123413Y381442D01*
X123414Y381451D01*
X123416Y381460D01*
X123443Y381791D01*
X123443Y397735D01*
X123441Y397762D01*
X123443Y397789D01*
X123421Y397963D01*
X123403Y398136D01*
X123396Y398161D01*
X123392Y398188D01*
X123337Y398354D01*
X123285Y398521D01*
X123272Y398544D01*
X123264Y398570D01*
X123177Y398721D01*
X123093Y398875D01*
X123076Y398895D01*
X123063Y398919D01*
X122848Y399172D01*
X119772Y402248D01*
X119751Y402265D01*
X119733Y402286D01*
X119596Y402393D01*
X119460Y402503D01*
X119437Y402516D01*
X119415Y402532D01*
X119258Y402610D01*
X119104Y402692D01*
X119079Y402700D01*
X119055Y402712D01*
X118885Y402757D01*
X118719Y402807D01*
X118692Y402809D01*
X118666Y402816D01*
X118335Y402843D01*
X116378Y402843D01*
X116356Y402841D01*
X116334Y402843D01*
X116157Y402821D01*
X115978Y402803D01*
X115957Y402797D01*
X115934Y402794D01*
X115765Y402738D01*
X115593Y402685D01*
X115573Y402675D01*
X115552Y402668D01*
X115397Y402579D01*
X115239Y402493D01*
X115222Y402479D01*
X115202Y402468D01*
X115067Y402350D01*
X114930Y402236D01*
X114916Y402218D01*
X114899Y402204D01*
X114790Y402062D01*
X114677Y401922D01*
X114667Y401902D01*
X114653Y401884D01*
X114629Y401838D01*
X112301Y399509D01*
X109313Y398271D01*
X93887Y398271D01*
X90899Y399509D01*
X88613Y401795D01*
X87375Y404783D01*
X87375Y408017D01*
X88613Y411005D01*
X90899Y413291D01*
X93887Y414529D01*
X109313Y414529D01*
X112301Y413291D01*
X114641Y410951D01*
X114692Y410856D01*
X114706Y410839D01*
X114717Y410819D01*
X114834Y410684D01*
X114948Y410545D01*
X114966Y410531D01*
X114980Y410514D01*
X115122Y410405D01*
X115261Y410292D01*
X115281Y410281D01*
X115298Y410268D01*
X115459Y410188D01*
X115618Y410105D01*
X115639Y410098D01*
X115659Y410088D01*
X115833Y410042D01*
X116004Y409992D01*
X116026Y409990D01*
X116048Y409984D01*
X116378Y409957D01*
X122123Y409957D01*
X126326Y405754D01*
X126333Y405749D01*
X126338Y405742D01*
X126488Y405621D01*
X126637Y405499D01*
X126645Y405495D01*
X126652Y405489D01*
X126822Y405401D01*
X126993Y405311D01*
X127002Y405308D01*
X127009Y405304D01*
X127194Y405251D01*
X127379Y405196D01*
X127388Y405195D01*
X127396Y405193D01*
X127588Y405177D01*
X127780Y405159D01*
X127789Y405160D01*
X127798Y405160D01*
X127987Y405182D01*
X128180Y405203D01*
X128189Y405206D01*
X128197Y405207D01*
X128379Y405266D01*
X128564Y405324D01*
X128572Y405329D01*
X128580Y405331D01*
X128749Y405426D01*
X128916Y405519D01*
X128923Y405525D01*
X128931Y405529D01*
X129077Y405655D01*
X129223Y405780D01*
X129229Y405787D01*
X129236Y405792D01*
X129353Y405944D01*
X129473Y406096D01*
X129477Y406104D01*
X129482Y406111D01*
X129568Y406283D01*
X129655Y406454D01*
X129658Y406463D01*
X129662Y406471D01*
X129712Y406657D01*
X129763Y406842D01*
X129764Y406851D01*
X129766Y406860D01*
X129793Y407191D01*
X129793Y423135D01*
X129791Y423162D01*
X129793Y423189D01*
X129771Y423362D01*
X129753Y423536D01*
X129746Y423561D01*
X129742Y423588D01*
X129687Y423754D01*
X129635Y423921D01*
X129622Y423944D01*
X129614Y423970D01*
X129527Y424121D01*
X129443Y424275D01*
X129426Y424295D01*
X129413Y424319D01*
X129198Y424572D01*
X126122Y427648D01*
X126101Y427665D01*
X126083Y427686D01*
X125946Y427793D01*
X125810Y427903D01*
X125787Y427916D01*
X125765Y427932D01*
X125608Y428010D01*
X125454Y428092D01*
X125429Y428100D01*
X125405Y428112D01*
X125235Y428157D01*
X125069Y428207D01*
X125042Y428209D01*
X125016Y428216D01*
X124685Y428243D01*
X116378Y428243D01*
X116356Y428241D01*
X116334Y428243D01*
X116157Y428221D01*
X115978Y428203D01*
X115957Y428197D01*
X115934Y428194D01*
X115765Y428138D01*
X115593Y428085D01*
X115573Y428075D01*
X115552Y428068D01*
X115397Y427979D01*
X115239Y427893D01*
X115222Y427879D01*
X115202Y427868D01*
X115067Y427750D01*
X114930Y427636D01*
X114916Y427618D01*
X114899Y427604D01*
X114790Y427462D01*
X114677Y427322D01*
X114667Y427302D01*
X114653Y427284D01*
X114629Y427238D01*
X112301Y424909D01*
X109313Y423671D01*
X93887Y423671D01*
X90899Y424909D01*
X88613Y427195D01*
X87375Y430183D01*
X87375Y433417D01*
X88613Y436405D01*
X90899Y438691D01*
X93887Y439929D01*
X109313Y439929D01*
X112301Y438691D01*
X114641Y436351D01*
X114692Y436256D01*
X114706Y436239D01*
X114717Y436219D01*
X114834Y436084D01*
X114948Y435945D01*
X114966Y435931D01*
X114980Y435914D01*
X115122Y435805D01*
X115261Y435692D01*
X115281Y435681D01*
X115298Y435668D01*
X115459Y435588D01*
X115618Y435505D01*
X115639Y435498D01*
X115659Y435488D01*
X115833Y435442D01*
X116004Y435392D01*
X116026Y435390D01*
X116048Y435384D01*
X116378Y435357D01*
X128473Y435357D01*
X136907Y426923D01*
X136907Y303327D01*
X99402Y265822D01*
X99385Y265801D01*
X99364Y265783D01*
X99257Y265646D01*
X99147Y265510D01*
X99134Y265487D01*
X99118Y265465D01*
X99040Y265308D01*
X98958Y265154D01*
X98950Y265129D01*
X98938Y265105D01*
X98893Y264935D01*
X98843Y264769D01*
X98841Y264742D01*
X98834Y264716D01*
X98807Y264385D01*
X98807Y194372D01*
X98809Y194345D01*
X98807Y194318D01*
X98829Y194144D01*
X98847Y193971D01*
X98854Y193946D01*
X98858Y193919D01*
X98913Y193753D01*
X98965Y193586D01*
X98978Y193563D01*
X98986Y193537D01*
X99073Y193386D01*
X99157Y193232D01*
X99163Y193224D01*
X99908Y191426D01*
X99908Y189574D01*
X99199Y187862D01*
X97888Y186551D01*
X96176Y185842D01*
X95589Y185842D01*
X95571Y185840D01*
X95553Y185842D01*
X95371Y185821D01*
X95188Y185802D01*
X95171Y185797D01*
X95154Y185795D01*
X94979Y185738D01*
X94803Y185684D01*
X94788Y185676D01*
X94771Y185670D01*
X94611Y185580D01*
X94449Y185492D01*
X94436Y185481D01*
X94420Y185472D01*
X94281Y185352D01*
X94140Y185235D01*
X94129Y185221D01*
X94115Y185209D01*
X94003Y185064D01*
X93888Y184921D01*
X93880Y184905D01*
X93869Y184891D01*
X93787Y184726D01*
X93702Y184564D01*
X93697Y184547D01*
X93689Y184531D01*
X93642Y184352D01*
X93591Y184177D01*
X93589Y184159D01*
X93585Y184142D01*
X93558Y183811D01*
X93558Y183224D01*
X92849Y181512D01*
X91538Y180201D01*
X89826Y179492D01*
X89239Y179492D01*
X89221Y179490D01*
X89203Y179492D01*
X89021Y179471D01*
X88838Y179452D01*
X88821Y179447D01*
X88804Y179445D01*
X88629Y179388D01*
X88453Y179334D01*
X88438Y179326D01*
X88421Y179320D01*
X88261Y179230D01*
X88099Y179142D01*
X88086Y179131D01*
X88070Y179122D01*
X87931Y179002D01*
X87790Y178885D01*
X87779Y178871D01*
X87765Y178859D01*
X87653Y178714D01*
X87538Y178571D01*
X87530Y178555D01*
X87519Y178541D01*
X87437Y178376D01*
X87352Y178214D01*
X87347Y178197D01*
X87339Y178181D01*
X87292Y178002D01*
X87241Y177827D01*
X87239Y177809D01*
X87235Y177792D01*
X87208Y177461D01*
X87208Y176874D01*
X86499Y175162D01*
X85188Y173851D01*
X83476Y173142D01*
X81624Y173142D01*
G37*
%LPD*%
%LPC*%
G36*
X310224Y103292D02*
X310224Y103292D01*
X309165Y103731D01*
X309135Y103740D01*
X309107Y103754D01*
X308943Y103798D01*
X308780Y103847D01*
X308749Y103850D01*
X308719Y103858D01*
X308388Y103885D01*
X132541Y103885D01*
X131048Y104504D01*
X117204Y118348D01*
X116585Y119841D01*
X116585Y270288D01*
X116582Y270319D01*
X116584Y270350D01*
X116562Y270520D01*
X116545Y270688D01*
X116536Y270718D01*
X116532Y270749D01*
X116431Y271065D01*
X115992Y272124D01*
X115992Y273976D01*
X116701Y275688D01*
X118012Y276999D01*
X119724Y277708D01*
X121576Y277708D01*
X123288Y276999D01*
X124599Y275688D01*
X125308Y273976D01*
X125308Y272124D01*
X124869Y271065D01*
X124860Y271035D01*
X124846Y271007D01*
X124802Y270843D01*
X124753Y270680D01*
X124750Y270649D01*
X124742Y270619D01*
X124715Y270288D01*
X124715Y123175D01*
X124717Y123148D01*
X124715Y123122D01*
X124737Y122948D01*
X124755Y122774D01*
X124762Y122749D01*
X124766Y122722D01*
X124821Y122557D01*
X124873Y122390D01*
X124886Y122366D01*
X124894Y122341D01*
X124981Y122189D01*
X125065Y122035D01*
X125082Y122015D01*
X125095Y121992D01*
X125310Y121739D01*
X134439Y112610D01*
X134459Y112593D01*
X134477Y112572D01*
X134615Y112465D01*
X134750Y112355D01*
X134774Y112342D01*
X134795Y112326D01*
X134952Y112248D01*
X135106Y112166D01*
X135131Y112158D01*
X135156Y112146D01*
X135325Y112101D01*
X135492Y112051D01*
X135518Y112049D01*
X135544Y112042D01*
X135875Y112015D01*
X308388Y112015D01*
X308419Y112018D01*
X308450Y112016D01*
X308620Y112038D01*
X308788Y112055D01*
X308818Y112064D01*
X308849Y112068D01*
X309165Y112169D01*
X310224Y112608D01*
X312076Y112608D01*
X313788Y111899D01*
X315099Y110588D01*
X315808Y108876D01*
X315808Y107024D01*
X315099Y105312D01*
X313788Y104001D01*
X312076Y103292D01*
X310224Y103292D01*
G37*
%LPD*%
%LPC*%
G36*
X809241Y709567D02*
X809241Y709567D01*
X802366Y711409D01*
X796201Y714968D01*
X791168Y720001D01*
X787609Y726166D01*
X785767Y733041D01*
X785767Y740159D01*
X787609Y747034D01*
X791168Y753199D01*
X796201Y758232D01*
X802366Y761791D01*
X809241Y763633D01*
X816359Y763633D01*
X823234Y761791D01*
X829399Y758232D01*
X834432Y753199D01*
X837991Y747034D01*
X839833Y740159D01*
X839833Y733041D01*
X837991Y726166D01*
X834432Y720001D01*
X829399Y714968D01*
X823234Y711409D01*
X816359Y709567D01*
X809241Y709567D01*
G37*
%LPD*%
%LPC*%
G36*
X72641Y709567D02*
X72641Y709567D01*
X65766Y711409D01*
X59601Y714968D01*
X54568Y720001D01*
X51009Y726166D01*
X49167Y733041D01*
X49167Y740159D01*
X51009Y747034D01*
X54568Y753199D01*
X59601Y758232D01*
X65766Y761791D01*
X72641Y763633D01*
X79759Y763633D01*
X86634Y761791D01*
X92799Y758232D01*
X97832Y753199D01*
X101391Y747034D01*
X103233Y740159D01*
X103233Y733041D01*
X101391Y726166D01*
X97832Y720001D01*
X92799Y714968D01*
X86634Y711409D01*
X79759Y709567D01*
X72641Y709567D01*
G37*
%LPD*%
%LPC*%
G36*
X358363Y321057D02*
X358363Y321057D01*
X351735Y323803D01*
X346663Y328875D01*
X343917Y335503D01*
X343917Y342677D01*
X346663Y349305D01*
X351735Y354377D01*
X358363Y357123D01*
X365537Y357123D01*
X372165Y354377D01*
X377237Y349305D01*
X379983Y342677D01*
X379983Y335503D01*
X377237Y328875D01*
X372165Y323803D01*
X365537Y321057D01*
X358363Y321057D01*
G37*
%LPD*%
%LPC*%
G36*
X593313Y321057D02*
X593313Y321057D01*
X586685Y323803D01*
X581613Y328875D01*
X578867Y335503D01*
X578867Y342677D01*
X581613Y349305D01*
X586685Y354377D01*
X593313Y357123D01*
X600487Y357123D01*
X607115Y354377D01*
X612187Y349305D01*
X614933Y342677D01*
X614933Y335503D01*
X612187Y328875D01*
X607115Y323803D01*
X600487Y321057D01*
X593313Y321057D01*
G37*
%LPD*%
%LPC*%
G36*
X155560Y422147D02*
X155560Y422147D01*
X152012Y423617D01*
X149297Y426332D01*
X147827Y429880D01*
X147827Y433720D01*
X149297Y437268D01*
X152012Y439983D01*
X155560Y441453D01*
X174640Y441453D01*
X178188Y439983D01*
X180903Y437268D01*
X182373Y433720D01*
X182373Y429880D01*
X180903Y426332D01*
X178188Y423617D01*
X174640Y422147D01*
X155560Y422147D01*
G37*
%LPD*%
%LPC*%
G36*
X881287Y322071D02*
X881287Y322071D01*
X878299Y323309D01*
X876013Y325595D01*
X874775Y328583D01*
X874775Y331817D01*
X876013Y334805D01*
X878299Y337091D01*
X878917Y337347D01*
X881287Y338329D01*
X896713Y338329D01*
X899701Y337091D01*
X901987Y334805D01*
X903225Y331817D01*
X903225Y328583D01*
X901987Y325595D01*
X899701Y323309D01*
X896713Y322071D01*
X881287Y322071D01*
G37*
%LPD*%
%LPC*%
G36*
X808802Y580897D02*
X808802Y580897D01*
X803147Y586552D01*
X803147Y594548D01*
X808802Y600203D01*
X816798Y600203D01*
X822453Y594548D01*
X822453Y586552D01*
X816798Y580897D01*
X808802Y580897D01*
G37*
%LPD*%
%LPC*%
G36*
X49432Y43778D02*
X49432Y43778D01*
X43778Y49432D01*
X43778Y57429D01*
X49432Y63083D01*
X57429Y63083D01*
X63083Y57429D01*
X63083Y49432D01*
X57429Y43778D01*
X49432Y43778D01*
G37*
%LPD*%
%LPC*%
G36*
X31471Y61738D02*
X31471Y61738D01*
X25817Y67392D01*
X25817Y75389D01*
X31471Y81043D01*
X39468Y81043D01*
X45122Y75389D01*
X45122Y67392D01*
X39468Y61738D01*
X31471Y61738D01*
G37*
%LPD*%
%LPC*%
G36*
X468974Y65192D02*
X468974Y65192D01*
X467262Y65901D01*
X465951Y67212D01*
X465242Y68924D01*
X465242Y70776D01*
X465951Y72488D01*
X467262Y73799D01*
X468974Y74508D01*
X470826Y74508D01*
X472629Y73761D01*
X472647Y73747D01*
X472671Y73734D01*
X472692Y73718D01*
X472849Y73640D01*
X473003Y73558D01*
X473028Y73550D01*
X473052Y73538D01*
X473222Y73493D01*
X473388Y73443D01*
X473415Y73441D01*
X473441Y73434D01*
X473772Y73407D01*
X497778Y73407D01*
X497805Y73409D01*
X497832Y73407D01*
X498006Y73429D01*
X498179Y73447D01*
X498204Y73454D01*
X498231Y73458D01*
X498397Y73513D01*
X498564Y73565D01*
X498587Y73578D01*
X498613Y73586D01*
X498764Y73673D01*
X498918Y73757D01*
X498926Y73763D01*
X500724Y74508D01*
X502576Y74508D01*
X504288Y73799D01*
X505599Y72488D01*
X506308Y70776D01*
X506308Y68924D01*
X505599Y67212D01*
X504288Y65901D01*
X502576Y65192D01*
X500724Y65192D01*
X498921Y65939D01*
X498903Y65953D01*
X498879Y65966D01*
X498858Y65982D01*
X498701Y66060D01*
X498547Y66142D01*
X498522Y66150D01*
X498498Y66162D01*
X498328Y66207D01*
X498162Y66257D01*
X498135Y66259D01*
X498109Y66266D01*
X497778Y66293D01*
X473772Y66293D01*
X473745Y66291D01*
X473718Y66293D01*
X473544Y66271D01*
X473371Y66253D01*
X473346Y66246D01*
X473319Y66242D01*
X473153Y66187D01*
X472986Y66135D01*
X472963Y66122D01*
X472937Y66114D01*
X472786Y66027D01*
X472632Y65943D01*
X472624Y65937D01*
X470826Y65192D01*
X468974Y65192D01*
G37*
%LPD*%
%LPC*%
G36*
X69471Y25817D02*
X69471Y25817D01*
X65923Y27287D01*
X63208Y30002D01*
X61738Y33550D01*
X61738Y37390D01*
X63208Y40938D01*
X65923Y43653D01*
X69471Y45122D01*
X73311Y45122D01*
X76859Y43653D01*
X79574Y40938D01*
X81043Y37390D01*
X81043Y33550D01*
X79574Y30002D01*
X76859Y27287D01*
X73311Y25817D01*
X69471Y25817D01*
G37*
%LPD*%
%LPC*%
G36*
X364933Y741171D02*
X364933Y741171D01*
X360171Y745933D01*
X360171Y752667D01*
X364933Y757429D01*
X371667Y757429D01*
X376429Y752667D01*
X376429Y745933D01*
X371667Y741171D01*
X364933Y741171D01*
G37*
%LPD*%
%LPC*%
G36*
X491933Y741171D02*
X491933Y741171D01*
X487171Y745933D01*
X487171Y752667D01*
X491933Y757429D01*
X498667Y757429D01*
X503429Y752667D01*
X503429Y745933D01*
X498667Y741171D01*
X491933Y741171D01*
G37*
%LPD*%
%LPC*%
G36*
X428433Y690371D02*
X428433Y690371D01*
X423671Y695133D01*
X423671Y701867D01*
X428433Y706629D01*
X435167Y706629D01*
X439929Y701867D01*
X439929Y695133D01*
X435167Y690371D01*
X428433Y690371D01*
G37*
%LPD*%
%LPC*%
G36*
X326833Y690371D02*
X326833Y690371D01*
X322071Y695133D01*
X322071Y701867D01*
X326833Y706629D01*
X333567Y706629D01*
X338329Y701867D01*
X338329Y695133D01*
X333567Y690371D01*
X326833Y690371D01*
G37*
%LPD*%
%LPC*%
G36*
X555433Y690371D02*
X555433Y690371D01*
X550671Y695133D01*
X550671Y701867D01*
X555433Y706629D01*
X562167Y706629D01*
X566929Y701867D01*
X566929Y695133D01*
X562167Y690371D01*
X555433Y690371D01*
G37*
%LPD*%
%LPC*%
G36*
X453833Y690371D02*
X453833Y690371D01*
X449071Y695133D01*
X449071Y701867D01*
X453833Y706629D01*
X460567Y706629D01*
X465329Y701867D01*
X465329Y695133D01*
X460567Y690371D01*
X453833Y690371D01*
G37*
%LPD*%
%LPC*%
G36*
X388337Y12517D02*
X388337Y12517D01*
X385936Y13512D01*
X384098Y15350D01*
X383103Y17751D01*
X383103Y20349D01*
X384098Y22750D01*
X385936Y24588D01*
X388337Y25583D01*
X390935Y25583D01*
X393336Y24588D01*
X395174Y22750D01*
X396169Y20349D01*
X396169Y17751D01*
X395174Y15350D01*
X393336Y13512D01*
X390935Y12517D01*
X388337Y12517D01*
G37*
%LPD*%
%LPC*%
G36*
X358365Y12517D02*
X358365Y12517D01*
X355964Y13512D01*
X354126Y15350D01*
X353131Y17751D01*
X353131Y20349D01*
X354126Y22750D01*
X355964Y24588D01*
X358365Y25583D01*
X360963Y25583D01*
X363364Y24588D01*
X365202Y22750D01*
X366197Y20349D01*
X366197Y17751D01*
X365202Y15350D01*
X363364Y13512D01*
X360963Y12517D01*
X358365Y12517D01*
G37*
%LPD*%
%LPC*%
G36*
X167639Y408939D02*
X167639Y408939D01*
X167639Y416561D01*
X173520Y416561D01*
X175099Y416311D01*
X176620Y415816D01*
X178045Y415090D01*
X179339Y414150D01*
X180470Y413019D01*
X181410Y411725D01*
X182136Y410300D01*
X182579Y408939D01*
X167639Y408939D01*
G37*
%LPD*%
%LPC*%
G36*
X147621Y408939D02*
X147621Y408939D01*
X148064Y410300D01*
X148790Y411725D01*
X149730Y413019D01*
X150861Y414150D01*
X152155Y415090D01*
X153580Y415816D01*
X155101Y416311D01*
X156680Y416561D01*
X162561Y416561D01*
X162561Y408939D01*
X147621Y408939D01*
G37*
%LPD*%
%LPC*%
G36*
X167639Y396239D02*
X167639Y396239D01*
X167639Y403861D01*
X182579Y403861D01*
X182136Y402500D01*
X181410Y401075D01*
X180470Y399781D01*
X179339Y398650D01*
X178045Y397710D01*
X176620Y396984D01*
X175099Y396489D01*
X173520Y396239D01*
X167639Y396239D01*
G37*
%LPD*%
%LPC*%
G36*
X156680Y396239D02*
X156680Y396239D01*
X155101Y396489D01*
X153580Y396984D01*
X152155Y397710D01*
X150861Y398650D01*
X149730Y399781D01*
X148790Y401075D01*
X148064Y402500D01*
X147621Y403861D01*
X162561Y403861D01*
X162561Y396239D01*
X156680Y396239D01*
G37*
%LPD*%
%LPC*%
G36*
X891031Y357631D02*
X891031Y357631D01*
X891031Y364237D01*
X895776Y364237D01*
X897119Y364024D01*
X898411Y363604D01*
X899623Y362987D01*
X900722Y362188D01*
X901684Y361226D01*
X902483Y360127D01*
X903100Y358915D01*
X903517Y357631D01*
X891031Y357631D01*
G37*
%LPD*%
%LPC*%
G36*
X87083Y357631D02*
X87083Y357631D01*
X87500Y358915D01*
X88117Y360127D01*
X88916Y361226D01*
X89878Y362188D01*
X90977Y362987D01*
X92189Y363604D01*
X93481Y364024D01*
X94824Y364237D01*
X99569Y364237D01*
X99569Y357631D01*
X87083Y357631D01*
G37*
%LPD*%
%LPC*%
G36*
X874483Y357631D02*
X874483Y357631D01*
X874900Y358915D01*
X875517Y360127D01*
X876316Y361226D01*
X877278Y362188D01*
X878377Y362987D01*
X879589Y363604D01*
X880881Y364024D01*
X882224Y364237D01*
X886969Y364237D01*
X886969Y357631D01*
X874483Y357631D01*
G37*
%LPD*%
%LPC*%
G36*
X891031Y346963D02*
X891031Y346963D01*
X891031Y353569D01*
X903517Y353569D01*
X903100Y352285D01*
X902483Y351073D01*
X901684Y349974D01*
X900722Y349012D01*
X899623Y348213D01*
X898411Y347596D01*
X897119Y347176D01*
X895776Y346963D01*
X891031Y346963D01*
G37*
%LPD*%
%LPC*%
G36*
X882224Y346963D02*
X882224Y346963D01*
X880881Y347176D01*
X879589Y347596D01*
X878377Y348213D01*
X877278Y349012D01*
X876316Y349974D01*
X875517Y351073D01*
X874900Y352285D01*
X874483Y353569D01*
X886969Y353569D01*
X886969Y346963D01*
X882224Y346963D01*
G37*
%LPD*%
%LPC*%
G36*
X94824Y346963D02*
X94824Y346963D01*
X93481Y347176D01*
X92189Y347596D01*
X90977Y348213D01*
X89878Y349012D01*
X88916Y349974D01*
X88117Y351073D01*
X87500Y352285D01*
X87083Y353569D01*
X99569Y353569D01*
X99569Y346963D01*
X94824Y346963D01*
G37*
%LPD*%
%LPC*%
G36*
X12120Y62410D02*
X12120Y62410D01*
X13301Y63591D01*
X21718Y63591D01*
X22898Y62410D01*
X17509Y57021D01*
X12120Y62410D01*
G37*
%LPD*%
%LPC*%
G36*
X21100Y53430D02*
X21100Y53430D01*
X26489Y58819D01*
X27670Y57639D01*
X27670Y49222D01*
X26489Y48041D01*
X21100Y53430D01*
G37*
%LPD*%
%LPC*%
G36*
X472439Y104139D02*
X472439Y104139D01*
X472439Y111459D01*
X473800Y111016D01*
X475225Y110290D01*
X476519Y109350D01*
X477650Y108219D01*
X478590Y106925D01*
X479316Y105500D01*
X479759Y104139D01*
X472439Y104139D01*
G37*
%LPD*%
%LPC*%
G36*
X802941Y567689D02*
X802941Y567689D01*
X803384Y569050D01*
X804110Y570475D01*
X805050Y571769D01*
X806181Y572900D01*
X807475Y573840D01*
X808900Y574566D01*
X810261Y575009D01*
X810261Y567689D01*
X802941Y567689D01*
G37*
%LPD*%
%LPC*%
G36*
X460041Y104139D02*
X460041Y104139D01*
X460484Y105500D01*
X461210Y106925D01*
X462150Y108219D01*
X463281Y109350D01*
X464575Y110290D01*
X466000Y111016D01*
X467361Y111459D01*
X467361Y104139D01*
X460041Y104139D01*
G37*
%LPD*%
%LPC*%
G36*
X472439Y99061D02*
X472439Y99061D01*
X479759Y99061D01*
X479316Y97700D01*
X478590Y96275D01*
X477650Y94981D01*
X476519Y93850D01*
X475225Y92910D01*
X473800Y92184D01*
X472439Y91741D01*
X472439Y99061D01*
G37*
%LPD*%
%LPC*%
G36*
X808900Y555734D02*
X808900Y555734D01*
X807475Y556460D01*
X806181Y557400D01*
X805050Y558531D01*
X804110Y559825D01*
X803384Y561250D01*
X802941Y562611D01*
X810261Y562611D01*
X810261Y555291D01*
X808900Y555734D01*
G37*
%LPD*%
%LPC*%
G36*
X466000Y92184D02*
X466000Y92184D01*
X464575Y92910D01*
X463281Y93850D01*
X462150Y94981D01*
X461210Y96275D01*
X460484Y97700D01*
X460041Y99061D01*
X467361Y99061D01*
X467361Y91741D01*
X466000Y92184D01*
G37*
%LPD*%
%LPC*%
G36*
X271271Y177799D02*
X271271Y177799D01*
X271271Y182119D01*
X279401Y182119D01*
X279401Y180005D01*
X279228Y179359D01*
X278893Y178780D01*
X278420Y178307D01*
X277841Y177972D01*
X277195Y177799D01*
X271271Y177799D01*
G37*
%LPD*%
%LPC*%
G36*
X261285Y177799D02*
X261285Y177799D01*
X260639Y177972D01*
X260060Y178307D01*
X259587Y178780D01*
X259252Y179359D01*
X259079Y180005D01*
X259079Y182119D01*
X267209Y182119D01*
X267209Y177799D01*
X261285Y177799D01*
G37*
%LPD*%
%LPC*%
G36*
X395731Y751331D02*
X395731Y751331D01*
X395731Y757937D01*
X397277Y757937D01*
X402337Y752877D01*
X402337Y751331D01*
X395731Y751331D01*
G37*
%LPD*%
%LPC*%
G36*
X522731Y751331D02*
X522731Y751331D01*
X522731Y757937D01*
X524277Y757937D01*
X529337Y752877D01*
X529337Y751331D01*
X522731Y751331D01*
G37*
%LPD*%
%LPC*%
G36*
X385063Y751331D02*
X385063Y751331D01*
X385063Y752877D01*
X390123Y757937D01*
X391669Y757937D01*
X391669Y751331D01*
X385063Y751331D01*
G37*
%LPD*%
%LPC*%
G36*
X512063Y751331D02*
X512063Y751331D01*
X512063Y752877D01*
X517123Y757937D01*
X518669Y757937D01*
X518669Y751331D01*
X512063Y751331D01*
G37*
%LPD*%
%LPC*%
G36*
X522731Y740663D02*
X522731Y740663D01*
X522731Y747269D01*
X529337Y747269D01*
X529337Y745723D01*
X524277Y740663D01*
X522731Y740663D01*
G37*
%LPD*%
%LPC*%
G36*
X395731Y740663D02*
X395731Y740663D01*
X395731Y747269D01*
X402337Y747269D01*
X402337Y745723D01*
X397277Y740663D01*
X395731Y740663D01*
G37*
%LPD*%
%LPC*%
G36*
X390123Y740663D02*
X390123Y740663D01*
X385063Y745723D01*
X385063Y747269D01*
X391669Y747269D01*
X391669Y740663D01*
X390123Y740663D01*
G37*
%LPD*%
%LPC*%
G36*
X517123Y740663D02*
X517123Y740663D01*
X512063Y745723D01*
X512063Y747269D01*
X518669Y747269D01*
X518669Y740663D01*
X517123Y740663D01*
G37*
%LPD*%
D10*
X213360Y184150D03*
X269240Y184150D03*
X213360Y222250D03*
X269240Y222250D03*
D11*
X882904Y431800D02*
X895096Y431800D01*
X895096Y406400D02*
X882904Y406400D01*
X882904Y381000D02*
X895096Y381000D01*
X895096Y355600D02*
X882904Y355600D01*
X882904Y330200D02*
X895096Y330200D01*
X107696Y330200D02*
X95504Y330200D01*
X95504Y355600D02*
X107696Y355600D01*
X107696Y381000D02*
X95504Y381000D01*
X95504Y406400D02*
X107696Y406400D01*
X107696Y431800D02*
X95504Y431800D01*
D12*
X596900Y101600D03*
X469900Y101600D03*
D13*
X172720Y482600D02*
X157480Y482600D01*
X157480Y457200D02*
X172720Y457200D01*
X172720Y431800D02*
X157480Y431800D01*
X157480Y406400D02*
X172720Y406400D01*
D14*
X431800Y698500D03*
X330200Y698500D03*
X558800Y698500D03*
X457200Y698500D03*
D15*
X368300Y749300D03*
X393700Y749300D03*
X495300Y749300D03*
X520700Y749300D03*
D12*
X812800Y565150D03*
D16*
X838200Y565150D03*
X863600Y565150D03*
X812800Y590550D03*
X838200Y590550D03*
X863600Y590550D03*
D12*
X71391Y35470D03*
D17*
X53430Y53430D03*
X35470Y71391D03*
X53430Y17509D03*
X35470Y35470D03*
X17509Y53430D03*
D18*
X429260Y149860D03*
X419100Y114300D03*
X407670Y152400D03*
X424180Y10160D03*
X325120Y27940D03*
X641350Y749300D03*
X311150Y749300D03*
X711200Y749300D03*
X228600Y749300D03*
X292100Y69850D03*
X323850Y152400D03*
X692150Y57150D03*
X654050Y57150D03*
X692150Y171450D03*
X184150Y234950D03*
X107950Y158750D03*
X260350Y158750D03*
X184150Y82550D03*
X133350Y273050D03*
X234950Y273050D03*
X336550Y273050D03*
X438150Y273050D03*
X539750Y273050D03*
X641350Y273050D03*
X742950Y273050D03*
X812800Y273050D03*
X755650Y584200D03*
X654050Y584200D03*
X450850Y584200D03*
X349250Y584200D03*
X247650Y584200D03*
X146050Y584200D03*
X44450Y584200D03*
X323850Y88900D03*
X590550Y234950D03*
X590550Y209550D03*
X514350Y234950D03*
X266700Y101600D03*
X552450Y584200D03*
X368300Y127000D03*
X520700Y101600D03*
D19*
X323850Y222250D02*
X269240Y222250D01*
D18*
X323850Y222250D03*
X228600Y222250D03*
D19*
X269240Y222250D01*
D18*
X266700Y25400D03*
D19*
X285750Y25400D02*
X381000Y120650D01*
X381000Y165100D01*
X393700Y177800D01*
X285750Y25400D02*
X266700Y25400D01*
X476250Y177800D02*
X491490Y193040D01*
X476250Y177800D02*
X393700Y177800D01*
X491490Y193040D02*
X505460Y193040D01*
D18*
X505460Y193040D03*
X647700Y158750D03*
D19*
X615950Y158750D01*
X558800Y215900D01*
X419100Y215900D01*
D18*
X419100Y215900D03*
X520700Y146050D03*
D19*
X533400Y133350D01*
X838200Y133350D01*
X857250Y152400D01*
D18*
X857250Y495300D03*
D19*
X857250Y152400D01*
D18*
X95250Y190500D03*
D19*
X95250Y266700D01*
X133350Y304800D01*
X133350Y425450D01*
X127000Y431800D01*
X101600Y431800D01*
X101600Y406400D02*
X120650Y406400D01*
X127000Y400050D01*
X127000Y311150D01*
X88900Y273050D01*
X88900Y184150D01*
D18*
X88900Y184150D03*
X82550Y177800D03*
D19*
X82550Y279400D01*
X120650Y317500D01*
X120650Y374650D01*
X114300Y381000D01*
X101600Y381000D01*
D18*
X501650Y127000D03*
D19*
X514350Y114300D01*
X857250Y114300D01*
X876300Y234950D02*
X952500Y311150D01*
X952500Y425450D01*
X946150Y431800D01*
X889000Y431800D01*
X876300Y133350D02*
X857250Y114300D01*
X876300Y133350D02*
X876300Y234950D01*
D18*
X508000Y133350D03*
D19*
X520700Y120650D01*
X850900Y120650D01*
X946150Y317500D02*
X946150Y400050D01*
X939800Y406400D01*
X889000Y406400D01*
X869950Y139700D02*
X850900Y120650D01*
X869950Y139700D02*
X869950Y241300D01*
X946150Y317500D01*
D18*
X622300Y152400D03*
D19*
X552450Y209550D02*
X355600Y209550D01*
D18*
X355600Y209550D03*
D19*
X609600Y152400D02*
X622300Y152400D01*
X609600Y152400D02*
X552450Y209550D01*
D18*
X673100Y165100D03*
D19*
X622300Y165100D01*
X565150Y222250D01*
X425450Y222250D01*
D18*
X425450Y222250D03*
X311150Y107950D03*
D20*
X133350Y107950D01*
X120650Y120650D01*
X120650Y273050D01*
D18*
X120650Y273050D03*
D19*
X330200Y184150D02*
X469900Y184150D01*
D18*
X469900Y184150D03*
D19*
X330200Y184150D02*
X321056Y193294D01*
D18*
X171450Y158750D03*
D19*
X205994Y193294D01*
X321056Y193294D01*
X342900Y196850D02*
X469900Y196850D01*
X476250Y203200D01*
D18*
X476250Y203200D03*
D19*
X342900Y196850D02*
X334010Y205740D01*
X193040Y205740D01*
X184150Y196850D01*
D18*
X184150Y196850D03*
D19*
X476250Y190500D02*
X482600Y196850D01*
D18*
X482600Y196850D03*
D19*
X336550Y190500D02*
X327660Y199390D01*
X336550Y190500D02*
X476250Y190500D01*
X327660Y199390D02*
X199390Y199390D01*
D18*
X171450Y146050D03*
D19*
X165100Y152400D02*
X165100Y165100D01*
X165100Y152400D02*
X171450Y146050D01*
X165100Y165100D02*
X199390Y199390D01*
D18*
X501650Y69850D03*
D19*
X469900Y69850D01*
D18*
X469900Y69850D03*
X749300Y527050D03*
D19*
X838200Y520700D02*
X838200Y317500D01*
X838200Y520700D02*
X831850Y527050D01*
X749300Y527050D01*
D18*
X838200Y317500D03*
X514350Y139700D03*
D19*
X527050Y127000D01*
X844550Y127000D01*
X863600Y247650D02*
X939800Y323850D01*
X939800Y374650D01*
X933450Y381000D01*
X889000Y381000D01*
X863600Y146050D02*
X844550Y127000D01*
X863600Y146050D02*
X863600Y247650D01*
D18*
X463550Y203200D03*
D19*
X349250Y203200D01*
X340360Y212090D01*
X186690Y212090D01*
D18*
X139700Y165100D03*
D19*
X186690Y212090D01*
D18*
X431800Y247650D03*
D19*
X431800Y476250D01*
X469900Y533400D02*
X476250Y539750D01*
X819150Y539750D01*
X825500Y546100D01*
X825500Y577850D02*
X838200Y590550D01*
X825500Y577850D02*
X825500Y546100D01*
X469900Y488950D02*
X463550Y482600D01*
X469900Y488950D02*
X469900Y533400D01*
X463550Y482600D02*
X438150Y482600D01*
X431800Y476250D01*
X425450Y482600D01*
X165100Y482600D01*
D18*
X425450Y241300D03*
D19*
X425450Y450850D01*
X422275Y454025D01*
X419100Y457200D01*
X165100Y457200D01*
X838200Y539750D02*
X838200Y565150D01*
X838200Y539750D02*
X831850Y533400D01*
X482600Y533400D02*
X476250Y527050D01*
X482600Y533400D02*
X831850Y533400D01*
X476250Y527050D02*
X476250Y482600D01*
D21*
X422275Y454025D03*
D18*
X419100Y457200D03*
D19*
X476250Y457200D02*
X476250Y482600D01*
D18*
X476250Y457200D03*
X533400Y146050D03*
D19*
X539750Y139700D01*
X831850Y139700D01*
X850900Y158750D01*
X850900Y527050D01*
X876300Y552450D01*
X876300Y577850D01*
X863600Y590550D01*
D18*
X279400Y12700D03*
D19*
X298450Y12700D01*
X393700Y107950D01*
X393700Y152400D01*
X406400Y165100D01*
D18*
X495300Y172720D03*
D19*
X487680Y165100D01*
X406400Y165100D01*
D18*
X539750Y152400D03*
D19*
X546100Y146050D01*
X825500Y146050D02*
X844550Y165100D01*
X844550Y546100D01*
X825500Y146050D02*
X546100Y146050D01*
X844550Y546100D02*
X863600Y565150D01*
D18*
X273050Y19050D03*
D19*
X292100Y19050D01*
X387350Y114300D01*
X387350Y158750D01*
X400050Y171450D01*
X481330Y171450D01*
D18*
X497840Y185420D03*
D19*
X495300Y185420D01*
X481330Y171450D01*
M02*
