G04 EAGLE Gerber RS-274X export*
G75*
%MOMM*%
%FSLAX34Y34*%
%LPD*%
%IN*%
%IPPOS*%
%AMOC8*
5,1,8,0,0,1.08239X$1,22.5*%
G01*
%ADD10C,0.254000*%


D10*
X0Y50800D02*
X50800Y0D01*
X838200Y0D01*
X889000Y50800D01*
X889000Y228600D01*
X965200Y304800D01*
X965200Y457200D01*
X889000Y533400D01*
X889000Y736600D01*
X838200Y787400D01*
X50800Y787400D01*
X0Y736600D01*
X0Y533400D01*
X76200Y457200D01*
X76200Y304800D01*
X0Y228600D01*
X0Y50800D01*
X101200Y735899D02*
X101121Y734498D01*
X100964Y733104D01*
X100729Y731721D01*
X100417Y730353D01*
X100029Y729005D01*
X99565Y727681D01*
X99029Y726385D01*
X98420Y725121D01*
X97741Y723893D01*
X96995Y722705D01*
X96183Y721561D01*
X95308Y720464D01*
X94374Y719418D01*
X93382Y718426D01*
X92336Y717492D01*
X91239Y716617D01*
X90095Y715805D01*
X88907Y715059D01*
X87679Y714380D01*
X86415Y713771D01*
X85119Y713235D01*
X83795Y712771D01*
X82447Y712383D01*
X81079Y712071D01*
X79696Y711836D01*
X78302Y711679D01*
X76901Y711600D01*
X75499Y711600D01*
X74098Y711679D01*
X72704Y711836D01*
X71321Y712071D01*
X69953Y712383D01*
X68605Y712771D01*
X67281Y713235D01*
X65985Y713771D01*
X64721Y714380D01*
X63493Y715059D01*
X62305Y715805D01*
X61161Y716617D01*
X60064Y717492D01*
X59018Y718426D01*
X58026Y719418D01*
X57092Y720464D01*
X56217Y721561D01*
X55405Y722705D01*
X54659Y723893D01*
X53980Y725121D01*
X53371Y726385D01*
X52835Y727681D01*
X52371Y729005D01*
X51983Y730353D01*
X51671Y731721D01*
X51436Y733104D01*
X51279Y734498D01*
X51200Y735899D01*
X51200Y737301D01*
X51279Y738702D01*
X51436Y740096D01*
X51671Y741479D01*
X51983Y742847D01*
X52371Y744195D01*
X52835Y745519D01*
X53371Y746815D01*
X53980Y748079D01*
X54659Y749307D01*
X55405Y750495D01*
X56217Y751639D01*
X57092Y752736D01*
X58026Y753782D01*
X59018Y754774D01*
X60064Y755708D01*
X61161Y756583D01*
X62305Y757395D01*
X63493Y758141D01*
X64721Y758820D01*
X65985Y759429D01*
X67281Y759965D01*
X68605Y760429D01*
X69953Y760817D01*
X71321Y761129D01*
X72704Y761364D01*
X74098Y761521D01*
X75499Y761600D01*
X76901Y761600D01*
X78302Y761521D01*
X79696Y761364D01*
X81079Y761129D01*
X82447Y760817D01*
X83795Y760429D01*
X85119Y759965D01*
X86415Y759429D01*
X87679Y758820D01*
X88907Y758141D01*
X90095Y757395D01*
X91239Y756583D01*
X92336Y755708D01*
X93382Y754774D01*
X94374Y753782D01*
X95308Y752736D01*
X96183Y751639D01*
X96995Y750495D01*
X97741Y749307D01*
X98420Y748079D01*
X99029Y746815D01*
X99565Y745519D01*
X100029Y744195D01*
X100417Y742847D01*
X100729Y741479D01*
X100964Y740096D01*
X101121Y738702D01*
X101200Y737301D01*
X101200Y735899D01*
X837800Y735899D02*
X837721Y734498D01*
X837564Y733104D01*
X837329Y731721D01*
X837017Y730353D01*
X836629Y729005D01*
X836165Y727681D01*
X835629Y726385D01*
X835020Y725121D01*
X834341Y723893D01*
X833595Y722705D01*
X832783Y721561D01*
X831908Y720464D01*
X830974Y719418D01*
X829982Y718426D01*
X828936Y717492D01*
X827839Y716617D01*
X826695Y715805D01*
X825507Y715059D01*
X824279Y714380D01*
X823015Y713771D01*
X821719Y713235D01*
X820395Y712771D01*
X819047Y712383D01*
X817679Y712071D01*
X816296Y711836D01*
X814902Y711679D01*
X813501Y711600D01*
X812099Y711600D01*
X810698Y711679D01*
X809304Y711836D01*
X807921Y712071D01*
X806553Y712383D01*
X805205Y712771D01*
X803881Y713235D01*
X802585Y713771D01*
X801321Y714380D01*
X800093Y715059D01*
X798905Y715805D01*
X797761Y716617D01*
X796664Y717492D01*
X795618Y718426D01*
X794626Y719418D01*
X793692Y720464D01*
X792817Y721561D01*
X792005Y722705D01*
X791259Y723893D01*
X790580Y725121D01*
X789971Y726385D01*
X789435Y727681D01*
X788971Y729005D01*
X788583Y730353D01*
X788271Y731721D01*
X788036Y733104D01*
X787879Y734498D01*
X787800Y735899D01*
X787800Y737301D01*
X787879Y738702D01*
X788036Y740096D01*
X788271Y741479D01*
X788583Y742847D01*
X788971Y744195D01*
X789435Y745519D01*
X789971Y746815D01*
X790580Y748079D01*
X791259Y749307D01*
X792005Y750495D01*
X792817Y751639D01*
X793692Y752736D01*
X794626Y753782D01*
X795618Y754774D01*
X796664Y755708D01*
X797761Y756583D01*
X798905Y757395D01*
X800093Y758141D01*
X801321Y758820D01*
X802585Y759429D01*
X803881Y759965D01*
X805205Y760429D01*
X806553Y760817D01*
X807921Y761129D01*
X809304Y761364D01*
X810698Y761521D01*
X812099Y761600D01*
X813501Y761600D01*
X814902Y761521D01*
X816296Y761364D01*
X817679Y761129D01*
X819047Y760817D01*
X820395Y760429D01*
X821719Y759965D01*
X823015Y759429D01*
X824279Y758820D01*
X825507Y758141D01*
X826695Y757395D01*
X827839Y756583D01*
X828936Y755708D01*
X829982Y754774D01*
X830974Y753782D01*
X831908Y752736D01*
X832783Y751639D01*
X833595Y750495D01*
X834341Y749307D01*
X835020Y748079D01*
X835629Y746815D01*
X836165Y745519D01*
X836629Y744195D01*
X837017Y742847D01*
X837329Y741479D01*
X837564Y740096D01*
X837721Y738702D01*
X837800Y737301D01*
X837800Y735899D01*
X359959Y23550D02*
X360544Y23473D01*
X361114Y23320D01*
X361659Y23095D01*
X362169Y22800D01*
X362637Y22441D01*
X363055Y22023D01*
X363414Y21555D01*
X363709Y21045D01*
X363934Y20500D01*
X364087Y19930D01*
X364164Y19345D01*
X364164Y18755D01*
X364087Y18170D01*
X363934Y17600D01*
X363709Y17055D01*
X363414Y16545D01*
X363055Y16077D01*
X362637Y15659D01*
X362169Y15300D01*
X361659Y15005D01*
X361114Y14780D01*
X360544Y14627D01*
X359959Y14550D01*
X359369Y14550D01*
X358784Y14627D01*
X358214Y14780D01*
X357669Y15005D01*
X357159Y15300D01*
X356691Y15659D01*
X356273Y16077D01*
X355914Y16545D01*
X355619Y17055D01*
X355394Y17600D01*
X355241Y18170D01*
X355164Y18755D01*
X355164Y19345D01*
X355241Y19930D01*
X355394Y20500D01*
X355619Y21045D01*
X355914Y21555D01*
X356273Y22023D01*
X356691Y22441D01*
X357159Y22800D01*
X357669Y23095D01*
X358214Y23320D01*
X358784Y23473D01*
X359369Y23550D01*
X359959Y23550D01*
X389931Y23550D02*
X390516Y23473D01*
X391086Y23320D01*
X391631Y23095D01*
X392141Y22800D01*
X392609Y22441D01*
X393027Y22023D01*
X393386Y21555D01*
X393681Y21045D01*
X393906Y20500D01*
X394059Y19930D01*
X394136Y19345D01*
X394136Y18755D01*
X394059Y18170D01*
X393906Y17600D01*
X393681Y17055D01*
X393386Y16545D01*
X393027Y16077D01*
X392609Y15659D01*
X392141Y15300D01*
X391631Y15005D01*
X391086Y14780D01*
X390516Y14627D01*
X389931Y14550D01*
X389341Y14550D01*
X388756Y14627D01*
X388186Y14780D01*
X387641Y15005D01*
X387131Y15300D01*
X386663Y15659D01*
X386245Y16077D01*
X385886Y16545D01*
X385591Y17055D01*
X385366Y17600D01*
X385213Y18170D01*
X385136Y18755D01*
X385136Y19345D01*
X385213Y19930D01*
X385366Y20500D01*
X385591Y21045D01*
X385886Y21555D01*
X386245Y22023D01*
X386663Y22441D01*
X387131Y22800D01*
X387641Y23095D01*
X388186Y23320D01*
X388756Y23473D01*
X389341Y23550D01*
X389931Y23550D01*
X580900Y338566D02*
X580969Y337521D01*
X581105Y336482D01*
X581310Y335455D01*
X581581Y334443D01*
X581917Y333451D01*
X582318Y332483D01*
X582782Y331544D01*
X583306Y330636D01*
X583888Y329765D01*
X584525Y328934D01*
X585216Y328147D01*
X585957Y327406D01*
X586744Y326715D01*
X587575Y326078D01*
X588446Y325496D01*
X589354Y324972D01*
X590293Y324508D01*
X591261Y324107D01*
X592253Y323771D01*
X593265Y323500D01*
X594292Y323295D01*
X595331Y323159D01*
X596376Y323090D01*
X597424Y323090D01*
X598469Y323159D01*
X599508Y323295D01*
X600535Y323500D01*
X601547Y323771D01*
X602539Y324107D01*
X603507Y324508D01*
X604446Y324972D01*
X605354Y325496D01*
X606225Y326078D01*
X607056Y326715D01*
X607843Y327406D01*
X608584Y328147D01*
X609275Y328934D01*
X609913Y329765D01*
X610495Y330636D01*
X611018Y331544D01*
X611482Y332483D01*
X611883Y333451D01*
X612219Y334443D01*
X612490Y335455D01*
X612695Y336482D01*
X612832Y337521D01*
X612900Y338566D01*
X612900Y339614D01*
X612832Y340659D01*
X612695Y341698D01*
X612490Y342725D01*
X612219Y343737D01*
X611883Y344729D01*
X611482Y345697D01*
X611018Y346636D01*
X610495Y347544D01*
X609913Y348415D01*
X609275Y349246D01*
X608584Y350033D01*
X607843Y350774D01*
X607056Y351465D01*
X606225Y352103D01*
X605354Y352685D01*
X604446Y353208D01*
X603507Y353672D01*
X602539Y354073D01*
X601547Y354409D01*
X600535Y354680D01*
X599508Y354885D01*
X598469Y355022D01*
X597424Y355090D01*
X596376Y355090D01*
X595331Y355022D01*
X594292Y354885D01*
X593265Y354680D01*
X592253Y354409D01*
X591261Y354073D01*
X590293Y353672D01*
X589354Y353208D01*
X588446Y352685D01*
X587575Y352103D01*
X586744Y351465D01*
X585957Y350774D01*
X585216Y350033D01*
X584525Y349246D01*
X583888Y348415D01*
X583306Y347544D01*
X582782Y346636D01*
X582318Y345697D01*
X581917Y344729D01*
X581581Y343737D01*
X581310Y342725D01*
X581105Y341698D01*
X580969Y340659D01*
X580900Y339614D01*
X580900Y338566D01*
X345950Y338566D02*
X346019Y337521D01*
X346155Y336482D01*
X346360Y335455D01*
X346631Y334443D01*
X346967Y333451D01*
X347368Y332483D01*
X347832Y331544D01*
X348356Y330636D01*
X348938Y329765D01*
X349575Y328934D01*
X350266Y328147D01*
X351007Y327406D01*
X351794Y326715D01*
X352625Y326078D01*
X353496Y325496D01*
X354404Y324972D01*
X355343Y324508D01*
X356311Y324107D01*
X357303Y323771D01*
X358315Y323500D01*
X359342Y323295D01*
X360381Y323159D01*
X361426Y323090D01*
X362474Y323090D01*
X363519Y323159D01*
X364558Y323295D01*
X365585Y323500D01*
X366597Y323771D01*
X367589Y324107D01*
X368557Y324508D01*
X369496Y324972D01*
X370404Y325496D01*
X371275Y326078D01*
X372106Y326715D01*
X372893Y327406D01*
X373634Y328147D01*
X374325Y328934D01*
X374963Y329765D01*
X375545Y330636D01*
X376068Y331544D01*
X376532Y332483D01*
X376933Y333451D01*
X377269Y334443D01*
X377540Y335455D01*
X377745Y336482D01*
X377882Y337521D01*
X377950Y338566D01*
X377950Y339614D01*
X377882Y340659D01*
X377745Y341698D01*
X377540Y342725D01*
X377269Y343737D01*
X376933Y344729D01*
X376532Y345697D01*
X376068Y346636D01*
X375545Y347544D01*
X374963Y348415D01*
X374325Y349246D01*
X373634Y350033D01*
X372893Y350774D01*
X372106Y351465D01*
X371275Y352103D01*
X370404Y352685D01*
X369496Y353208D01*
X368557Y353672D01*
X367589Y354073D01*
X366597Y354409D01*
X365585Y354680D01*
X364558Y354885D01*
X363519Y355022D01*
X362474Y355090D01*
X361426Y355090D01*
X360381Y355022D01*
X359342Y354885D01*
X358315Y354680D01*
X357303Y354409D01*
X356311Y354073D01*
X355343Y353672D01*
X354404Y353208D01*
X353496Y352685D01*
X352625Y352103D01*
X351794Y351465D01*
X351007Y350774D01*
X350266Y350033D01*
X349575Y349246D01*
X348938Y348415D01*
X348356Y347544D01*
X347832Y346636D01*
X347368Y345697D01*
X346967Y344729D01*
X346631Y343737D01*
X346360Y342725D01*
X346155Y341698D01*
X346019Y340659D01*
X345950Y339614D01*
X345950Y338566D01*
M02*
