G04 EAGLE Gerber RS-274X export*
G75*
%MOMM*%
%FSLAX34Y34*%
%LPD*%
%INSoldermask Bottom*%
%IPPOS*%
%AMOC8*
5,1,8,0,0,1.08239X$1,22.5*%
G01*
%ADD10C,5.000000*%
%ADD11R,1.524000X0.762000*%
%ADD12C,1.219200*%
%ADD13C,0.900000*%
%ADD14C,1.524000*%
%ADD15C,3.200000*%
%ADD16C,1.524000*%
%ADD17P,1.319650X8X202.500000*%
%ADD18P,1.319650X8X22.500000*%
%ADD19P,1.649562X8X22.500000*%
%ADD20P,1.649562X8X157.500000*%


D10*
X76200Y736600D03*
X812800Y736600D03*
D11*
X213360Y184150D03*
X269240Y184150D03*
X213360Y222250D03*
X269240Y222250D03*
D12*
X882904Y431800D02*
X895096Y431800D01*
X895096Y406400D02*
X882904Y406400D01*
X882904Y381000D02*
X895096Y381000D01*
X895096Y355600D02*
X882904Y355600D01*
X882904Y330200D02*
X895096Y330200D01*
X107696Y330200D02*
X95504Y330200D01*
X95504Y355600D02*
X107696Y355600D01*
X107696Y381000D02*
X95504Y381000D01*
X95504Y406400D02*
X107696Y406400D01*
X107696Y431800D02*
X95504Y431800D01*
D13*
X359664Y19050D03*
X389636Y19050D03*
D14*
X596900Y101600D03*
X469900Y101600D03*
D15*
X596900Y339090D03*
X361950Y339090D03*
D16*
X172720Y482600D02*
X157480Y482600D01*
X157480Y457200D02*
X172720Y457200D01*
X172720Y431800D02*
X157480Y431800D01*
X157480Y406400D02*
X172720Y406400D01*
D17*
X431800Y698500D03*
X330200Y698500D03*
X558800Y698500D03*
X457200Y698500D03*
D18*
X368300Y749300D03*
X393700Y749300D03*
X495300Y749300D03*
X520700Y749300D03*
D14*
X812800Y565150D03*
D19*
X838200Y565150D03*
X863600Y565150D03*
X812800Y590550D03*
X838200Y590550D03*
X863600Y590550D03*
D14*
X71391Y35470D03*
D20*
X53430Y53430D03*
X35470Y71391D03*
X53430Y17509D03*
X35470Y35470D03*
X17509Y53430D03*
M02*
