999
dxfrw 0.6.3
  0
SECTION
  2
HEADER
  9
$ACADVER
  1
AC1021
  9
$DWGCODEPAGE
  3
ANSI_1252
  9
$INSBASE
 10
0
 20
0
 30
0
  9
$EXTMIN
 10
104.5202093155383
 20
-574.2000000000447
 30
0
  9
$EXTMAX
 10
228.0000000000001
 20
-491.6228355337691
 30
0
  9
$LIMMIN
 10
0
 20
0
  9
$LIMMAX
 10
12
 20
9
  9
$ORTHOMODE
 70
    0
  9
$REGENMODE
 70
    1
  9
$FILLMODE
 70
    1
  9
$QTEXTMODE
 70
    0
  9
$MIRRTEXT
 70
    0
  9
$LTSCALE
 40
1
  9
$ATTMODE
 70
    1
  9
$TEXTSIZE
 40
0.2
  9
$TRACEWID
 40
0.05
  9
$TEXTSTYLE
  7
Standard
  9
$CLAYER
  8
0
  9
$CELTYPE
  6
ByLayer
  9
$CECOLOR
 62
  256
  9
$CELTSCALE
 40
1
  9
$DISPSILH
 70
    0
  9
$DIMSCALE
 40
1
  9
$DIMASZ
 40
0.18
  9
$DIMEXO
 40
0.0625
  9
$DIMDLI
 40
0.38
  9
$DIMRND
 40
0
  9
$DIMDLE
 40
0
  9
$DIMEXE
 40
0.18
  9
$DIMTP
 40
0
  9
$DIMTM
 40
0
  9
$DIMTXT
 40
0.18
  9
$DIMCEN
 40
0.09
  9
$DIMTSZ
 40
0
  9
$DIMTOL
 70
    0
  9
$DIMLIM
 70
    0
  9
$DIMTIH
 70
    1
  9
$DIMTOH
 70
    1
  9
$DIMSE1
 70
    0
  9
$DIMSE2
 70
    0
  9
$DIMTAD
 70
    0
  9
$DIMZIN
 70
    0
  9
$DIMBLK
  1

  9
$DIMASO
 70
    1
  9
$DIMSHO
 70
    1
  9
$DIMPOST
  1

  9
$DIMAPOST
  1

  9
$DIMALT
 70
    0
  9
$DIMALTD
 70
    2
  9
$DIMALTF
 40
25.4
  9
$DIMLFAC
 40
1
  9
$DIMTOFL
 70
    0
  9
$DIMTVP
 40
0
  9
$DIMTIX
 70
    0
  9
$DIMSOXD
 70
    0
  9
$DIMSAH
 70
    0
  9
$DIMBLK1
  1

  9
$DIMBLK2
  1

  9
$DIMSTYLE
  2
Standard
  9
$DIMCLRD
 70
    0
  9
$DIMCLRE
 70
    0
  9
$DIMCLRT
 70
    0
  9
$DIMTFAC
 40
1
  9
$DIMGAP
 40
0.09
  9
$DIMJUST
 70
    0
  9
$DIMSD1
 70
    0
  9
$DIMSD2
 70
    0
  9
$DIMTOLJ
 70
    1
  9
$DIMTZIN
 70
    0
  9
$DIMALTZ
 70
    0
  9
$DIMALTTZ
 70
    0
  9
$DIMUPT
 70
    0
  9
$DIMDEC
 70
    4
  9
$DIMTDEC
 70
    4
  9
$DIMALTU
 70
    2
  9
$DIMALTTD
 70
    2
  9
$DIMTXSTY
  7
Standard
  9
$DIMAUNIT
 70
    0
  9
$DIMADEC
 70
    0
  9
$DIMALTRND
 40
0
  9
$DIMAZIN
 70
    0
  9
$DIMDSEP
 70
   46
  9
$DIMATFIT
 70
    3
  9
$DIMFRAC
 70
    0
  9
$DIMLDRBLK
  1

  9
$DIMLUNIT
 70
    2
  9
$DIMLWD
 70
   -2
  9
$DIMLWE
 70
   -2
  9
$DIMTMOVE
 70
    0
  9
$DIMFXL
 40
1
  9
$DIMFXLON
 70
    0
  9
$DIMJOGANG
 40
0.7854
  9
$DIMTFILL
 70
    0
  9
$DIMTFILLCLR
 70
    0
  9
$DIMARCSYM
 70
    0
  9
$DIMLTYPE
  6

  9
$DIMLTEX1
  6

  9
$DIMLTEX2
  6

  9
$LUNITS
 70
    2
  9
$LUPREC
 70
    4
  9
$SKETCHINC
 40
0.1
  9
$FILLETRAD
 40
0
  9
$AUNITS
 70
    0
  9
$AUPREC
 70
    0
  9
$MENU
  1
.
  9
$ELEVATION
 40
0
  9
$PELEVATION
 40
0
  9
$THICKNESS
 40
0
  9
$LIMCHECK
 70
    0
  9
$CHAMFERA
 40
0
  9
$CHAMFERB
 40
0
  9
$CHAMFERC
 40
0
  9
$CHAMFERD
 40
0
  9
$SKPOLY
 70
    0
  9
$USRTIMER
 70
    1
  9
$ANGBASE
 50
0
  9
$ANGDIR
 70
    0
  9
$PDMODE
 70
    0
  9
$PDSIZE
 40
0
  9
$PLINEWID
 40
0
  9
$SPLFRAME
 70
    0
  9
$SPLINETYPE
 70
    6
  9
$SPLINESEGS
 70
    8
  9
$HANDSEED
  5
20000
  9
$SURFTAB1
 70
    6
  9
$SURFTAB2
 70
    6
  9
$SURFTYPE
 70
    6
  9
$SURFU
 70
    6
  9
$SURFV
 70
    6
  9
$UCSBASE
  2

  9
$UCSNAME
  2

  9
$UCSORG
 10
0
 20
0
 30
0
  9
$UCSXDIR
 10
1
 20
0
 30
0
  9
$UCSYDIR
 10
0
 20
1
 30
0
  9
$UCSORTHOREF
  2

  9
$UCSORTHOVIEW
 70
    0
  9
$UCSORGTOP
 10
0
 20
0
 30
0
  9
$UCSORGBOTTOM
 10
0
 20
0
 30
0
  9
$UCSORGLEFT
 10
0
 20
0
 30
0
  9
$UCSORGRIGHT
 10
0
 20
0
 30
0
  9
$UCSORGFRONT
 10
0
 20
0
 30
0
  9
$UCSORGBACK
 10
0
 20
0
 30
0
  9
$PUCSBASE
  2

  9
$PUCSNAME
  2

  9
$PUCSORG
 10
0
 20
0
 30
0
  9
$PUCSXDIR
 10
1
 20
0
 30
0
  9
$PUCSYDIR
 10
0
 20
1
 30
0
  9
$PUCSORTHOREF
  2

  9
$PUCSORTHOVIEW
 70
    0
  9
$PUCSORGTOP
 10
0
 20
0
 30
0
  9
$PUCSORGBOTTOM
 10
0
 20
0
 30
0
  9
$PUCSORGLEFT
 10
0
 20
0
 30
0
  9
$PUCSORGRIGHT
 10
0
 20
0
 30
0
  9
$PUCSORGFRONT
 10
0
 20
0
 30
0
  9
$PUCSORGBACK
 10
0
 20
0
 30
0
  9
$USERI1
 70
    0
  9
$USERI2
 70
    0
  9
$USERI3
 70
    0
  9
$USERI4
 70
    0
  9
$USERI5
 70
    0
  9
$USERR1
 40
0
  9
$USERR2
 40
0
  9
$USERR3
 40
0
  9
$USERR4
 40
0
  9
$USERR5
 40
0
  9
$WORLDVIEW
 70
    1
  9
$SHADEDGE
 70
    3
  9
$SHADEDIF
 70
   70
  9
$TILEMODE
 70
    1
  9
$MAXACTVP
 70
   64
  9
$PINSBASE
 10
0
 20
0
 30
0
  9
$PLIMCHECK
 70
    0
  9
$PEXTMIN
 10
1e+20
 20
1e+20
 30
1e+20
  9
$PEXTMAX
 10
-1e+20
 20
-1e+20
 30
-1e+20
  9
$GRIDMODE
 70
    1
  9
$SNAPSTYLE
 70
    0
  9
$PLIMMIN
 10
0
 20
0
  9
$PLIMMAX
 10
12
 20
9
  9
$UNITMODE
 70
    0
  9
$VISRETAIN
 70
    1
  9
$PLINEGEN
 70
    0
  9
$PSLTSCALE
 70
    1
  9
$TREEDEPTH
 70
 3020
  9
$CMLSTYLE
  2
Standard
  9
$CMLJUST
 70
    0
  9
$CMLSCALE
 40
1
  9
$PROXYGRAPHICS
 70
    1
  9
$MEASUREMENT
 70
    1
  9
$CELWEIGHT
370
   -1
  9
$ENDCAPS
280
    0
  9
$JOINSTYLE
280
    0
  9
$LWDISPLAY
290
    1
  9
$INSUNITS
 70
    0
  9
$HYPERLINKBASE
  1

  9
$STYLESHEET
  1

  9
$XEDIT
290
    1
  9
$CEPSNTYPE
380
    0
  9
$PSTYLEMODE
290
    1
  9
$EXTNAMES
290
    1
  9
$PSVPSCALE
 40
0
  9
$OLESTARTUP
290
    0
  9
$SORTENTS
280
  127
  9
$INDEXCTL
280
    0
  9
$HIDETEXT
280
    1
  9
$XCLIPFRAME
290
    0
  9
$HALOGAP
280
    0
  9
$OBSCOLOR
 70
  257
  9
$OBSLTYPE
280
    0
  9
$INTERSECTIONDISPLAY
280
    0
  9
$INTERSECTIONCOLOR
 70
  257
  9
$DIMASSOC
280
    1
  9
$PROJECTNAME
  1

  9
$CAMERADISPLAY
290
    0
  9
$LENSLENGTH
 40
50
  9
$CAMERAHEIGHT
 40
0
  9
$STEPSPERSEC
 40
2
  9
$STEPSIZE
 40
50
  9
$3DDWFPREC
 40
2
  9
$PSOLWIDTH
 40
5
  9
$PSOLHEIGHT
 40
80
  9
$LOFTANG1
 40
1.570796326794897
  9
$LOFTANG2
 40
1.570796326794897
  9
$LOFTMAG1
 40
0
  9
$LOFTMAG2
 40
0
  9
$LOFTPARAM
 70
    7
  9
$LOFTNORMALS
280
    1
  9
$LATITUDE
 40
1
  9
$LONGITUDE
 40
1
  9
$NORTHDIRECTION
 40
0
  9
$TIMEZONE
 70
-8000
  9
$LIGHTGLYPHDISPLAY
280
    1
  9
$TILEMODELIGHTSYNCH
280
    1
  9
$SOLIDHIST
280
    1
  9
$SHOWHIST
280
    1
  9
$DWFFRAME
280
    2
  9
$DGNFRAME
280
    0
  9
$REALWORLDSCALE
290
    1
  9
$INTERFERECOLOR
 62
    1
  9
$CSHADOW
280
    0
  9
$SHADOWPLANELOCATION
 40
0
  0
ENDSEC
  0
SECTION
  2
CLASSES
  0
ENDSEC
  0
SECTION
  2
TABLES
  0
TABLE
  2
VPORT
  5
8
330
0
100
AcDbSymbolTable
 70
    1
  0
VPORT
  5
31
330
2
100
AcDbSymbolTableRecord
100
AcDbViewportTableRecord
  2
*ACTIVE
 70
    0
 10
0
 20
0
 11
1
 21
1
 12
174.6141377574407
 22
-220.1140452546591
 13
0
 23
0
 14
10
 24
10
 15
10
 25
10
 16
0
 26
0
 36
1
 17
0
 27
0
 37
0
 40
196.7706144517384
 41
1.572386058981233
 42
50
 43
0
 44
0
 50
0
 51
0
 71
    0
 72
  100
 73
    1
 74
    3
 75
    0
 76
    1
 77
    0
 78
    0
281
    0
 65
    1
110
0
120
0
130
0
111
1
121
0
131
0
112
0
122
1
132
0
 79
    0
146
0
348
10020
 60
    7
 61
    5
292
1
282
    1
141
0
142
0
 63
  250
421
3358443
  0
ENDTAB
  0
TABLE
  2
LTYPE
  5
5
330
0
100
AcDbSymbolTable
 70
    4
  0
LTYPE
  5
14
330
5
100
AcDbSymbolTableRecord
100
AcDbLinetypeTableRecord
  2
ByBlock
 70
    0
  3

 72
   65
 73
    0
 40
0
  0
LTYPE
  5
15
330
5
100
AcDbSymbolTableRecord
100
AcDbLinetypeTableRecord
  2
ByLayer
 70
    0
  3

 72
   65
 73
    0
 40
0
  0
LTYPE
  5
16
330
5
100
AcDbSymbolTableRecord
100
AcDbLinetypeTableRecord
  2
Continuous
 70
    0
  3
Solid line
 72
   65
 73
    0
 40
0
  0
LTYPE
  5
32
330
5
100
AcDbSymbolTableRecord
100
AcDbLinetypeTableRecord
  2
DOT
 70
    0
  3
Dot . . . . . . . . . . . . . . . . . . . . . .
 72
   65
 73
    2
 40
6.35
 49
0
 74
    0
 49
-6.35
 74
    0
  0
LTYPE
  5
33
330
5
100
AcDbSymbolTableRecord
100
AcDbLinetypeTableRecord
  2
DOTTINY
 70
    0
  3
Dot (.15x) .....................................
 72
   65
 73
    2
 40
0.9525
 49
0
 74
    0
 49
-0.9525
 74
    0
  0
LTYPE
  5
34
330
5
100
AcDbSymbolTableRecord
100
AcDbLinetypeTableRecord
  2
DOT2
 70
    0
  3
Dot (.5x) .....................................
 72
   65
 73
    2
 40
3.175
 49
0
 74
    0
 49
-3.175
 74
    0
  0
LTYPE
  5
35
330
5
100
AcDbSymbolTableRecord
100
AcDbLinetypeTableRecord
  2
DOTX2
 70
    0
  3
Dot (2x) .  .  .  .  .  .  .  .  .  .  .  .  .
 72
   65
 73
    2
 40
12.7
 49
0
 74
    0
 49
-12.7
 74
    0
  0
LTYPE
  5
36
330
5
100
AcDbSymbolTableRecord
100
AcDbLinetypeTableRecord
  2
DASHED
 70
    0
  3
Dashed _ _ _ _ _ _ _ _ _ _ _ _ _ _ _ _ _
 72
   65
 73
    2
 40
19.05
 49
12.7
 74
    0
 49
-6.35
 74
    0
  0
LTYPE
  5
37
330
5
100
AcDbSymbolTableRecord
100
AcDbLinetypeTableRecord
  2
DASHEDTINY
 70
    0
  3
Dashed (.15x) _ _ _ _ _ _ _ _ _ _ _ _ _ _ _ _ _
 72
   65
 73
    2
 40
2.8575
 49
1.905
 74
    0
 49
-0.9525
 74
    0
  0
LTYPE
  5
38
330
5
100
AcDbSymbolTableRecord
100
AcDbLinetypeTableRecord
  2
DASHED2
 70
    0
  3
Dashed (.5x) _ _ _ _ _ _ _ _ _ _ _ _ _ _ _ _ _
 72
   65
 73
    2
 40
9.524999999999999
 49
6.35
 74
    0
 49
-3.175
 74
    0
  0
LTYPE
  5
39
330
5
100
AcDbSymbolTableRecord
100
AcDbLinetypeTableRecord
  2
DASHEDX2
 70
    0
  3
Dashed (2x) ____  ____  ____  ____  ____  ___
 72
   65
 73
    2
 40
38.09999999999999
 49
25.4
 74
    0
 49
-12.7
 74
    0
  0
LTYPE
  5
3A
330
5
100
AcDbSymbolTableRecord
100
AcDbLinetypeTableRecord
  2
DASHDOT
 70
    0
  3
Dash dot __ . __ . __ . __ . __ . __ . __ . __
 72
   65
 73
    4
 40
25.4
 49
12.7
 74
    0
 49
-6.35
 74
    0
 49
0
 74
    0
 49
-6.35
 74
    0
  0
LTYPE
  5
3B
330
5
100
AcDbSymbolTableRecord
100
AcDbLinetypeTableRecord
  2
DASHDOTTINY
 70
    0
  3
Dash dot (.15x) _._._._._._._._._._._._._._._.
 72
   65
 73
    4
 40
3.81
 49
1.905
 74
    0
 49
-0.9525
 74
    0
 49
0
 74
    0
 49
-0.9525
 74
    0
  0
LTYPE
  5
3C
330
5
100
AcDbSymbolTableRecord
100
AcDbLinetypeTableRecord
  2
DASHDOT2
 70
    0
  3
Dash dot (.5x) _._._._._._._._._._._._._._._.
 72
   65
 73
    4
 40
12.7
 49
6.35
 74
    0
 49
-3.175
 74
    0
 49
0
 74
    0
 49
-3.175
 74
    0
  0
LTYPE
  5
3D
330
5
100
AcDbSymbolTableRecord
100
AcDbLinetypeTableRecord
  2
DASHDOTX2
 70
    0
  3
Dash dot (2x) ____  .  ____  .  ____  .  ___
 72
   65
 73
    4
 40
50.8
 49
25.4
 74
    0
 49
-12.7
 74
    0
 49
0
 74
    0
 49
-12.7
 74
    0
  0
LTYPE
  5
3E
330
5
100
AcDbSymbolTableRecord
100
AcDbLinetypeTableRecord
  2
DIVIDE
 70
    0
  3
Divide ____ . . ____ . . ____ . . ____ . . ____
 72
   65
 73
    6
 40
31.75
 49
12.7
 74
    0
 49
-6.35
 74
    0
 49
0
 74
    0
 49
-6.35
 74
    0
 49
0
 74
    0
 49
-6.35
 74
    0
  0
LTYPE
  5
3F
330
5
100
AcDbSymbolTableRecord
100
AcDbLinetypeTableRecord
  2
DIVIDETINY
 70
    0
  3
Divide (.15x) __..__..__..__..__..__..__..__.._
 72
   65
 73
    6
 40
4.7625
 49
1.905
 74
    0
 49
-0.9525
 74
    0
 49
0
 74
    0
 49
-0.9525
 74
    0
 49
0
 74
    0
 49
-0.9525
 74
    0
  0
LTYPE
  5
40
330
5
100
AcDbSymbolTableRecord
100
AcDbLinetypeTableRecord
  2
DIVIDE2
 70
    0
  3
Divide (.5x) __..__..__..__..__..__..__..__.._
 72
   65
 73
    6
 40
15.875
 49
6.35
 74
    0
 49
-3.175
 74
    0
 49
0
 74
    0
 49
-3.175
 74
    0
 49
0
 74
    0
 49
-3.175
 74
    0
  0
LTYPE
  5
41
330
5
100
AcDbSymbolTableRecord
100
AcDbLinetypeTableRecord
  2
DIVIDEX2
 70
    0
  3
Divide (2x) ________  .  .  ________  .  .  _
 72
   65
 73
    6
 40
63.5
 49
25.4
 74
    0
 49
-12.7
 74
    0
 49
0
 74
    0
 49
-12.7
 74
    0
 49
0
 74
    0
 49
-12.7
 74
    0
  0
LTYPE
  5
42
330
5
100
AcDbSymbolTableRecord
100
AcDbLinetypeTableRecord
  2
BORDER
 70
    0
  3
Border __ __ . __ __ . __ __ . __ __ . __ __ .
 72
   65
 73
    6
 40
44.45
 49
12.7
 74
    0
 49
-6.35
 74
    0
 49
12.7
 74
    0
 49
-6.35
 74
    0
 49
0
 74
    0
 49
-6.35
 74
    0
  0
LTYPE
  5
43
330
5
100
AcDbSymbolTableRecord
100
AcDbLinetypeTableRecord
  2
BORDERTINY
 70
    0
  3
Border (.15x) __.__.__.__.__.__.__.__.__.__.__.
 72
   65
 73
    6
 40
6.6675
 49
1.905
 74
    0
 49
-0.9525
 74
    0
 49
1.905
 74
    0
 49
-0.9525
 74
    0
 49
0
 74
    0
 49
-0.9525
 74
    0
  0
LTYPE
  5
44
330
5
100
AcDbSymbolTableRecord
100
AcDbLinetypeTableRecord
  2
BORDER2
 70
    0
  3
Border (.5x) __.__.__.__.__.__.__.__.__.__.__.
 72
   65
 73
    6
 40
22.225
 49
6.35
 74
    0
 49
-3.175
 74
    0
 49
6.35
 74
    0
 49
-3.175
 74
    0
 49
0
 74
    0
 49
-3.175
 74
    0
  0
LTYPE
  5
45
330
5
100
AcDbSymbolTableRecord
100
AcDbLinetypeTableRecord
  2
BORDERX2
 70
    0
  3
Border (2x) ____  ____  .  ____  ____  .  ___
 72
   65
 73
    6
 40
88.89999999999999
 49
25.4
 74
    0
 49
-12.7
 74
    0
 49
25.4
 74
    0
 49
-12.7
 74
    0
 49
0
 74
    0
 49
-12.7
 74
    0
  0
LTYPE
  5
46
330
5
100
AcDbSymbolTableRecord
100
AcDbLinetypeTableRecord
  2
CENTER
 70
    0
  3
Center ____ _ ____ _ ____ _ ____ _ ____ _ ____
 72
   65
 73
    4
 40
50.8
 49
31.75
 74
    0
 49
-6.35
 74
    0
 49
6.35
 74
    0
 49
-6.35
 74
    0
  0
LTYPE
  5
47
330
5
100
AcDbSymbolTableRecord
100
AcDbLinetypeTableRecord
  2
CENTERTINY
 70
    0
  3
Center (.15x) ___ _ ___ _ ___ _ ___ _ ___ _ ___
 72
   65
 73
    4
 40
7.619999999999999
 49
4.7625
 74
    0
 49
-0.9525
 74
    0
 49
0.9525
 74
    0
 49
-0.9525
 74
    0
  0
LTYPE
  5
48
330
5
100
AcDbSymbolTableRecord
100
AcDbLinetypeTableRecord
  2
CENTER2
 70
    0
  3
Center (.5x) ___ _ ___ _ ___ _ ___ _ ___ _ ___
 72
   65
 73
    4
 40
28.575
 49
19.05
 74
    0
 49
-3.175
 74
    0
 49
3.175
 74
    0
 49
-3.175
 74
    0
  0
LTYPE
  5
49
330
5
100
AcDbSymbolTableRecord
100
AcDbLinetypeTableRecord
  2
CENTERX2
 70
    0
  3
Center (2x) ________  __  ________  __  _____
 72
   65
 73
    4
 40
101.6
 49
63.5
 74
    0
 49
-12.7
 74
    0
 49
12.7
 74
    0
 49
-12.7
 74
    0
  0
ENDTAB
  0
TABLE
  2
LAYER
  5
2
330
0
100
AcDbSymbolTable
 70
    1
  0
LAYER
  5
10
330
2
100
AcDbSymbolTableRecord
100
AcDbLayerTableRecord
  2
0
 70
    1
 62
    7
  6
CONTINUOUS
370
   -3
390
F
  0
LAYER
  5
4A
330
2
100
AcDbSymbolTableRecord
100
AcDbLayerTableRecord
  2
crest
 70
    0
 62
    7
  6
CONTINUOUS
370
    0
390
F
  0
LAYER
  5
4B
330
2
100
AcDbSymbolTableRecord
100
AcDbLayerTableRecord
  2
registre
 70
    0
 62
    1
  6
CONTINUOUS
370
    0
390
F
  0
ENDTAB
  0
TABLE
  2
STYLE
  5
3
330
0
100
AcDbSymbolTable
 70
    3
  0
STYLE
  5
4C
330
2
100
AcDbSymbolTableRecord
100
AcDbTextStyleTableRecord
  2
Standard
 70
    0
 40
0
 41
1
 50
0
 71
    0
 42
1
  3
txt
  4

  0
ENDTAB
  0
TABLE
  2
VIEW
  5
6
330
0
100
AcDbSymbolTable
 70
    0
  0
ENDTAB
  0
TABLE
  2
UCS
  5
7
330
0
100
AcDbSymbolTable
 70
    0
  0
ENDTAB
  0
TABLE
  2
APPID
  5
9
330
0
100
AcDbSymbolTable
 70
    1
  0
APPID
  5
12
330
9
100
AcDbSymbolTableRecord
100
AcDbRegAppTableRecord
  2
ACAD
 70
    0
  0
APPID
  5
4D
330
9
100
AcDbSymbolTableRecord
100
AcDbRegAppTableRecord
  2
LibreCad
 70
    0
  0
ENDTAB
  0
TABLE
  2
DIMSTYLE
  5
A
330
0
100
AcDbSymbolTable
 70
    1
100
AcDbDimStyleTable
 71
    1
  0
DIMSTYLE
105
4E
330
A
100
AcDbSymbolTableRecord
100
AcDbDimStyleTableRecord
  2
Standard
 70
    0
 40
1
 41
0.18
 42
0.0625
 43
0.38
 44
0.18
 45
0
 46
0
 47
0
 48
0
 49
1
140
0.18
141
0.09
142
0
143
25.4
144
1
145
0
146
1
147
0.09
148
0
 71
    0
 72
    0
 73
    1
 74
    1
 75
    0
 76
    0
 77
    0
 78
    0
 79
    0
170
    0
171
    2
172
    0
173
    0
174
    0
175
    0
176
    0
177
    0
178
    0
179
    0
271
    4
272
    4
273
    2
274
    2
275
    0
276
    0
277
    2
278
   46
279
    0
280
    0
281
    0
282
    0
283
    1
284
    0
285
    0
286
    0
288
    0
289
    3
340
Standard
341

371
   -2
372
   -2
  0
ENDTAB
  0
TABLE
  2
BLOCK_RECORD
  5
1
330
0
100
AcDbSymbolTable
 70
    2
  0
BLOCK_RECORD
  5
1F
330
1
100
AcDbSymbolTableRecord
100
AcDbBlockTableRecord
  2
*Model_Space
 70
    0
280
    1
281
    0
  0
BLOCK_RECORD
  5
1E
330
1
100
AcDbSymbolTableRecord
100
AcDbBlockTableRecord
  2
*Paper_Space
 70
    0
280
    1
281
    0
  0
BLOCK_RECORD
  5
4F
330
1
100
AcDbSymbolTableRecord
100
AcDbBlockTableRecord
  2
Block_0
 70
    0
280
    1
281
    0
  0
BLOCK_RECORD
  5
52
330
1
100
AcDbSymbolTableRecord
100
AcDbBlockTableRecord
  2
Block_1
 70
    0
280
    1
281
    0
  0
BLOCK_RECORD
  5
55
330
1
100
AcDbSymbolTableRecord
100
AcDbBlockTableRecord
  2
Block_2
 70
    0
280
    1
281
    0
  0
BLOCK_RECORD
  5
58
330
1
100
AcDbSymbolTableRecord
100
AcDbBlockTableRecord
  2
Block_3
 70
    0
280
    1
281
    0
  0
BLOCK_RECORD
  5
5B
330
1
100
AcDbSymbolTableRecord
100
AcDbBlockTableRecord
  2
Block_4
 70
    0
280
    1
281
    0
  0
BLOCK_RECORD
  5
5E
330
1
100
AcDbSymbolTableRecord
100
AcDbBlockTableRecord
  2
Block_5
 70
    0
280
    1
281
    0
  0
BLOCK_RECORD
  5
61
330
1
100
AcDbSymbolTableRecord
100
AcDbBlockTableRecord
  2
Block_6
 70
    0
280
    1
281
    0
  0
BLOCK_RECORD
  5
64
330
1
100
AcDbSymbolTableRecord
100
AcDbBlockTableRecord
  2
Block_7
 70
    0
280
    1
281
    0
  0
BLOCK_RECORD
  5
67
330
1
100
AcDbSymbolTableRecord
100
AcDbBlockTableRecord
  2
nsec2023
 70
    0
280
    1
281
    0
  0
BLOCK_RECORD
  5
6A
330
1
100
AcDbSymbolTableRecord
100
AcDbBlockTableRecord
  2
Block_0-0
 70
    0
280
    1
281
    0
  0
BLOCK_RECORD
  5
6D
330
1
100
AcDbSymbolTableRecord
100
AcDbBlockTableRecord
  2
nsec2023-0
 70
    0
280
    1
281
    0
  0
BLOCK_RECORD
  5
70
330
1
100
AcDbSymbolTableRecord
100
AcDbBlockTableRecord
  2
Block_0-1
 70
    0
280
    1
281
    0
  0
BLOCK_RECORD
  5
73
330
1
100
AcDbSymbolTableRecord
100
AcDbBlockTableRecord
  2
crest
 70
    0
280
    1
281
    0
  0
BLOCK_RECORD
  5
76
330
1
100
AcDbSymbolTableRecord
100
AcDbBlockTableRecord
  2
Block_0-2
 70
    0
280
    1
281
    0
  0
BLOCK_RECORD
  5
79
330
1
100
AcDbSymbolTableRecord
100
AcDbBlockTableRecord
  2
Block_1-0
 70
    0
280
    1
281
    0
  0
BLOCK_RECORD
  5
7C
330
1
100
AcDbSymbolTableRecord
100
AcDbBlockTableRecord
  2
OLEDnote
 70
    0
280
    1
281
    0
  0
BLOCK_RECORD
  5
7F
330
1
100
AcDbSymbolTableRecord
100
AcDbBlockTableRecord
  2
hexagram-01
 70
    0
280
    1
281
    0
  0
BLOCK_RECORD
  5
82
330
1
100
AcDbSymbolTableRecord
100
AcDbBlockTableRecord
  2
hexagram-2
 70
    0
280
    1
281
    0
  0
BLOCK_RECORD
  5
85
330
1
100
AcDbSymbolTableRecord
100
AcDbBlockTableRecord
  2
hexagram-3
 70
    0
280
    1
281
    0
  0
ENDTAB
  0
ENDSEC
  0
SECTION
  2
BLOCKS
  0
BLOCK
  5
20
330
1F
100
AcDbEntity
  8
0
100
AcDbBlockBegin
  2
*Model_Space
 70
    0
 10
0
 20
0
 30
0
  3
*Model_Space
  1

  0
ENDBLK
  5
21
330
1F
100
AcDbEntity
  8
0
100
AcDbBlockEnd
  0
BLOCK
  5
1C
330
1B
100
AcDbEntity
  8
0
100
AcDbBlockBegin
  2
*Paper_Space
 70
    0
 10
0
 20
0
 30
0
  3
*Paper_Space
  1

  0
ENDBLK
  5
1D
330
1F
100
AcDbEntity
  8
0
100
AcDbBlockEnd
  0
BLOCK
  5
50
330
4F
100
AcDbEntity
  8
0
100
AcDbBlockBegin
  2
Block_0
 70
    0
 10
0
 20
0
  3
Block_0
  1

  0
ENDBLK
  5
51
330
4F
100
AcDbEntity
  8
0
100
AcDbBlockEnd
  0
BLOCK
  5
53
330
52
100
AcDbEntity
  8
0
100
AcDbBlockBegin
  2
Block_1
 70
    0
 10
0
 20
0
  3
Block_1
  1

  0
ENDBLK
  5
54
330
52
100
AcDbEntity
  8
0
100
AcDbBlockEnd
  0
BLOCK
  5
56
330
55
100
AcDbEntity
  8
0
100
AcDbBlockBegin
  2
Block_2
 70
    0
 10
0
 20
0
  3
Block_2
  1

  0
ENDBLK
  5
57
330
55
100
AcDbEntity
  8
0
100
AcDbBlockEnd
  0
BLOCK
  5
59
330
58
100
AcDbEntity
  8
0
100
AcDbBlockBegin
  2
Block_3
 70
    0
 10
0
 20
0
  3
Block_3
  1

  0
ENDBLK
  5
5A
330
58
100
AcDbEntity
  8
0
100
AcDbBlockEnd
  0
BLOCK
  5
5C
330
5B
100
AcDbEntity
  8
0
100
AcDbBlockBegin
  2
Block_4
 70
    0
 10
0
 20
0
  3
Block_4
  1

  0
ENDBLK
  5
5D
330
5B
100
AcDbEntity
  8
0
100
AcDbBlockEnd
  0
BLOCK
  5
5F
330
5E
100
AcDbEntity
  8
0
100
AcDbBlockBegin
  2
Block_5
 70
    0
 10
0
 20
0
  3
Block_5
  1

  0
ENDBLK
  5
60
330
5E
100
AcDbEntity
  8
0
100
AcDbBlockEnd
  0
BLOCK
  5
62
330
61
100
AcDbEntity
  8
0
100
AcDbBlockBegin
  2
Block_6
 70
    0
 10
0
 20
0
  3
Block_6
  1

  0
ENDBLK
  5
63
330
61
100
AcDbEntity
  8
0
100
AcDbBlockEnd
  0
BLOCK
  5
65
330
64
100
AcDbEntity
  8
0
100
AcDbBlockBegin
  2
Block_7
 70
    0
 10
0
 20
0
  3
Block_7
  1

  0
ENDBLK
  5
66
330
64
100
AcDbEntity
  8
0
100
AcDbBlockEnd
  0
BLOCK
  5
68
330
67
100
AcDbEntity
  8
0
100
AcDbBlockBegin
  2
nsec2023
 70
    0
 10
0
 20
0
  3
nsec2023
  1

  0
ENDBLK
  5
69
330
67
100
AcDbEntity
  8
0
100
AcDbBlockEnd
  0
BLOCK
  5
6B
330
6A
100
AcDbEntity
  8
0
100
AcDbBlockBegin
  2
Block_0-0
 70
    0
 10
0
 20
0
  3
Block_0-0
  1

  0
ENDBLK
  5
6C
330
6A
100
AcDbEntity
  8
0
100
AcDbBlockEnd
  0
BLOCK
  5
6E
330
6D
100
AcDbEntity
  8
0
100
AcDbBlockBegin
  2
nsec2023-0
 70
    0
 10
0
 20
0
  3
nsec2023-0
  1

  0
ENDBLK
  5
6F
330
6D
100
AcDbEntity
  8
0
100
AcDbBlockEnd
  0
BLOCK
  5
71
330
70
100
AcDbEntity
  8
0
100
AcDbBlockBegin
  2
Block_0-1
 70
    0
 10
0
 20
0
  3
Block_0-1
  1

  0
ENDBLK
  5
72
330
70
100
AcDbEntity
  8
0
100
AcDbBlockEnd
  0
BLOCK
  5
74
330
73
100
AcDbEntity
  8
0
100
AcDbBlockBegin
  2
crest
 70
    0
 10
0
 20
0
  3
crest
  1

  0
ENDBLK
  5
75
330
73
100
AcDbEntity
  8
0
100
AcDbBlockEnd
  0
BLOCK
  5
77
330
76
100
AcDbEntity
  8
0
100
AcDbBlockBegin
  2
Block_0-2
 70
    0
 10
0
 20
0
  3
Block_0-2
  1

  0
ENDBLK
  5
78
330
76
100
AcDbEntity
  8
0
100
AcDbBlockEnd
  0
BLOCK
  5
7A
330
79
100
AcDbEntity
  8
0
100
AcDbBlockBegin
  2
Block_1-0
 70
    0
 10
0
 20
0
  3
Block_1-0
  1

  0
ENDBLK
  5
7B
330
79
100
AcDbEntity
  8
0
100
AcDbBlockEnd
  0
BLOCK
  5
7D
330
7C
100
AcDbEntity
  8
0
100
AcDbBlockBegin
  2
OLEDnote
 70
    0
 10
0
 20
0
  3
OLEDnote
  1

  0
ENDBLK
  5
7E
330
7C
100
AcDbEntity
  8
0
100
AcDbBlockEnd
  0
BLOCK
  5
80
330
7F
100
AcDbEntity
  8
0
100
AcDbBlockBegin
  2
hexagram-01
 70
    0
 10
0
 20
0
  3
hexagram-01
  1

  0
LINE
  5
88
100
AcDbEntity
  8
0
  6
ByLayer
 62
  256
370
   -1
100
AcDbLine
 10
0
 20
6.999999999999999
 11
4.999999999999999
 21
-1.660254037844386
  0
LINE
  5
89
100
AcDbEntity
  8
0
  6
ByLayer
 62
  256
370
   -1
100
AcDbLine
 10
4.999999999999999
 20
-1.660254037844386
 11
10
 21
6.999999999999999
  0
LINE
  5
8A
100
AcDbEntity
  8
0
  6
ByLayer
 62
  256
370
   -1
100
AcDbLine
 10
0
 20
6.999999999999999
 11
10
 21
0
  0
LINE
  5
8B
100
AcDbEntity
  8
0
  6
ByLayer
 62
  256
370
   -1
100
AcDbLine
 10
10
 20
6.999999999999999
 11
0
 21
0
  0
LINE
  5
8C
100
AcDbEntity
  8
0
  6
ByLayer
 62
  256
370
   -1
100
AcDbLine
 10
0
 20
0
 11
5
 21
11
  0
LINE
  5
8D
100
AcDbEntity
  8
0
  6
ByLayer
 62
  256
370
   -1
100
AcDbLine
 10
5
 20
11
 11
10
 21
0
  0
LINE
  5
8E
100
AcDbEntity
  8
0
  6
ByLayer
 62
  256
370
   -1
100
AcDbLine
 10
-0.2731099432387814
 20
0.1241408832903552
 11
4.726890056761219
 21
11.12414088329036
  0
LINE
  5
8F
100
AcDbEntity
  8
0
  6
ByLayer
 62
  256
370
   -1
100
AcDbLine
 10
4.726890056761219
 20
10.87585911670964
 11
9.726890056761219
 21
-0.1241408832903552
  0
LINE
  5
90
100
AcDbEntity
  8
0
  6
ByLayer
 62
  256
370
   -1
100
AcDbLine
 10
-0.1720387033089985
 20
6.754230423844287
 11
9.827961296691001
 21
-0.2457695761557121
  0
LINE
  5
91
100
AcDbEntity
  8
0
  6
ByLayer
 62
  256
370
   -1
100
AcDbLine
 10
-0.2598076211353316
 20
6.849999999999999
 11
4.740192378864667
 21
-1.810254037844386
  0
LINE
  5
92
100
AcDbEntity
  8
0
  6
ByLayer
 62
  256
370
   -1
100
AcDbLine
 10
4.740192378864667
 20
-1.510254037844386
 11
9.773457537348628
 21
7.207616944616051
  0
LINE
  5
93
100
AcDbEntity
  8
0
  6
ByLayer
 62
  256
370
   -1
100
AcDbLine
 10
9.773457537348628
 20
7.207616944616051
 11
-0.1720387033089985
 21
0.2457695761557121
  0
ENDBLK
  5
81
330
7F
100
AcDbEntity
  8
0
100
AcDbBlockEnd
  0
BLOCK
  5
83
330
82
100
AcDbEntity
  8
0
100
AcDbBlockBegin
  2
hexagram-2
 70
    0
 10
0
 20
0
  3
hexagram-2
  1

  0
LINE
  5
94
100
AcDbEntity
  8
0
  6
ByLayer
 62
  256
370
   -1
100
AcDbLine
 10
0
 20
6.999999999999999
 11
4.999999999999999
 21
-1.660254037844386
  0
LINE
  5
95
100
AcDbEntity
  8
0
  6
ByLayer
 62
  256
370
   -1
100
AcDbLine
 10
4.999999999999999
 20
-1.660254037844386
 11
10
 21
6.999999999999999
  0
LINE
  5
96
100
AcDbEntity
  8
0
  6
ByLayer
 62
  256
370
   -1
100
AcDbLine
 10
0
 20
6.999999999999999
 11
10
 21
0
  0
LINE
  5
97
100
AcDbEntity
  8
0
  6
ByLayer
 62
  256
370
   -1
100
AcDbLine
 10
10
 20
6.999999999999999
 11
0
 21
0
  0
LINE
  5
98
100
AcDbEntity
  8
0
  6
ByLayer
 62
  256
370
   -1
100
AcDbLine
 10
0
 20
0
 11
5
 21
11
  0
LINE
  5
99
100
AcDbEntity
  8
0
  6
ByLayer
 62
  256
370
   -1
100
AcDbLine
 10
5
 20
11
 11
10
 21
0
  0
LINE
  5
9A
100
AcDbEntity
  8
0
  6
ByLayer
 62
  256
370
   -1
100
AcDbLine
 10
-0.2731099432387814
 20
0.1241408832903552
 11
4.726890056761219
 21
11.12414088329036
  0
LINE
  5
9B
100
AcDbEntity
  8
0
  6
ByLayer
 62
  256
370
   -1
100
AcDbLine
 10
4.726890056761219
 20
10.87585911670964
 11
9.726890056761219
 21
-0.1241408832903552
  0
LINE
  5
9C
100
AcDbEntity
  8
0
  6
ByLayer
 62
  256
370
   -1
100
AcDbLine
 10
-0.1720387033089985
 20
6.754230423844287
 11
9.827961296691001
 21
-0.2457695761557121
  0
LINE
  5
9D
100
AcDbEntity
  8
0
  6
ByLayer
 62
  256
370
   -1
100
AcDbLine
 10
-0.2598076211353316
 20
6.849999999999999
 11
4.740192378864667
 21
-1.810254037844386
  0
LINE
  5
9E
100
AcDbEntity
  8
0
  6
ByLayer
 62
  256
370
   -1
100
AcDbLine
 10
4.740192378864667
 20
-1.510254037844386
 11
9.773457537348628
 21
7.207616944616051
  0
LINE
  5
9F
100
AcDbEntity
  8
0
  6
ByLayer
 62
  256
370
   -1
100
AcDbLine
 10
9.773457537348628
 20
7.207616944616051
 11
-0.1720387033089985
 21
0.2457695761557121
  0
ENDBLK
  5
84
330
82
100
AcDbEntity
  8
0
100
AcDbBlockEnd
  0
BLOCK
  5
86
330
85
100
AcDbEntity
  8
0
100
AcDbBlockBegin
  2
hexagram-3
 70
    0
 10
0
 20
0
  3
hexagram-3
  1

  0
LINE
  5
A0
100
AcDbEntity
  8
0
  6
ByLayer
 62
  256
370
   -1
100
AcDbLine
 10
0
 20
6.999999999999999
 11
4.999999999999999
 21
-1.660254037844386
  0
LINE
  5
A1
100
AcDbEntity
  8
0
  6
ByLayer
 62
  256
370
   -1
100
AcDbLine
 10
4.999999999999999
 20
-1.660254037844386
 11
10
 21
6.999999999999999
  0
LINE
  5
A2
100
AcDbEntity
  8
0
  6
ByLayer
 62
  256
370
   -1
100
AcDbLine
 10
0
 20
6.999999999999999
 11
10
 21
0
  0
LINE
  5
A3
100
AcDbEntity
  8
0
  6
ByLayer
 62
  256
370
   -1
100
AcDbLine
 10
10
 20
6.999999999999999
 11
0
 21
0
  0
LINE
  5
A4
100
AcDbEntity
  8
0
  6
ByLayer
 62
  256
370
   -1
100
AcDbLine
 10
0
 20
0
 11
5
 21
11
  0
LINE
  5
A5
100
AcDbEntity
  8
0
  6
ByLayer
 62
  256
370
   -1
100
AcDbLine
 10
5
 20
11
 11
10
 21
0
  0
LINE
  5
A6
100
AcDbEntity
  8
0
  6
ByLayer
 62
  256
370
   -1
100
AcDbLine
 10
-0.2731099432387814
 20
0.1241408832903552
 11
4.726890056761219
 21
11.12414088329036
  0
LINE
  5
A7
100
AcDbEntity
  8
0
  6
ByLayer
 62
  256
370
   -1
100
AcDbLine
 10
4.726890056761219
 20
10.87585911670964
 11
9.726890056761219
 21
-0.1241408832903552
  0
LINE
  5
A8
100
AcDbEntity
  8
0
  6
ByLayer
 62
  256
370
   -1
100
AcDbLine
 10
-0.1720387033089985
 20
6.754230423844287
 11
9.827961296691001
 21
-0.2457695761557121
  0
LINE
  5
A9
100
AcDbEntity
  8
0
  6
ByLayer
 62
  256
370
   -1
100
AcDbLine
 10
-0.2598076211353316
 20
6.849999999999999
 11
4.740192378864667
 21
-1.810254037844386
  0
LINE
  5
AA
100
AcDbEntity
  8
0
  6
ByLayer
 62
  256
370
   -1
100
AcDbLine
 10
4.740192378864667
 20
-1.510254037844386
 11
9.773457537348628
 21
7.207616944616051
  0
LINE
  5
AB
100
AcDbEntity
  8
0
  6
ByLayer
 62
  256
370
   -1
100
AcDbLine
 10
9.773457537348628
 20
7.207616944616051
 11
-0.1720387033089985
 21
0.2457695761557121
  0
ENDBLK
  5
87
330
85
100
AcDbEntity
  8
0
100
AcDbBlockEnd
  0
ENDSEC
  0
SECTION
  2
ENTITIES
  0
CIRCLE
  5
AC
100
AcDbEntity
  8
registre
  6
ByLayer
 62
  256
370
   -1
100
AcDbCircle
 10
111.0328855376055
 20
-523.5125931943348
 40
0
  0
CIRCLE
  5
AD
100
AcDbEntity
  8
registre
  6
ByLayer
 62
  256
370
   -1
100
AcDbCircle
 10
111.0328855376055
 20
-523.5125931943348
 40
6.512676222067245
  0
LINE
  5
AE
100
AcDbEntity
  8
registre
  6
ByLayer
 62
  256
370
   -1
100
AcDbLine
 10
111.0328855376055
 20
-523.5125931943348
 11
111.0328855376055
 21
-516.9999169722676
  0
LINE
  5
AF
100
AcDbEntity
  8
registre
  6
ByLayer
 62
  256
370
   -1
100
AcDbLine
 10
111.0328855376055
 20
-523.5125931943348
 11
104.5202093155383
 21
-523.5125931943348
  0
LINE
  5
B0
100
AcDbEntity
  8
registre
  6
ByLayer
 62
  256
370
   -1
100
AcDbLine
 10
111.0328855376055
 20
-523.5125931943348
 11
117.5455617596727
 21
-523.5125931943348
  0
LINE
  5
B1
100
AcDbEntity
  8
registre
  6
ByLayer
 62
  256
370
   -1
100
AcDbLine
 10
111.0328855376055
 20
-523.5125931943348
 11
111.0328855376055
 21
-530.0252694164021
  0
INSERT
  5
B2
100
AcDbEntity
  8
0
  6
ByLayer
 62
  256
370
   -1
100
AcDbBlockReference
  2
hexagram-01
 10
280
 20
-540
 30
0
 41
1
 42
1
 43
0
 50
0
 70
    1
 71
    1
 44
0
 45
0
  0
INSERT
  5
B3
100
AcDbEntity
  8
0
  6
ByLayer
 62
  256
370
   -1
100
AcDbBlockReference
  2
hexagram-2
 10
280
 20
-540
 30
0
 41
1
 42
1
 43
0
 50
0
 70
    1
 71
    1
 44
0
 45
0
  0
LINE
  5
B4
100
AcDbEntity
  8
crest
  6
ByLayer
 62
  256
370
   -1
100
AcDbLine
 10
202.3728821100889
 20
-550.0610174771066
 11
214.6463756045869
 21
-558.6524629232553
  0
LINE
  5
B5
100
AcDbEntity
  8
crest
  6
ByLayer
 62
  256
370
   -1
100
AcDbLine
 10
202.9375238940912
 20
-549.0830292191384
 11
211.9184270373677
 21
-555.369661419432
  0
LINE
  5
B6
100
AcDbEntity
  8
crest
  6
ByLayer
 62
  256
370
   -1
100
AcDbLine
 10
194.3313648805689
 20
-563.9893338885761
 11
202.3728821100891
 21
-550.0610174771066
  0
LINE
  5
B7
100
AcDbEntity
  8
crest
  6
ByLayer
 62
  256
370
   -1
100
AcDbLine
 10
194.3313648805686
 20
-561.7393338885759
 11
201.4477369638617
 21
-549.4134158747478
  0
LINE
  5
B8
100
AcDbEntity
  8
crest
  6
ByLayer
 62
  256
370
   -1
100
AcDbLine
 10
187.024243972723
 20
-549.0830292191383
 11
194.3313648805686
 21
-561.7393338885759
  0
LINE
  5
B9
100
AcDbEntity
  8
crest
  6
ByLayer
 62
  256
370
   -1
100
AcDbLine
 10
186.0990988264961
 20
-549.7306308214974
 11
194.3313648805689
 21
-563.9893338885761
  0
LINE
  5
BA
100
AcDbEntity
  8
crest
  6
ByLayer
 62
  256
370
   -1
100
AcDbLine
 10
186.099098826496
 20
-549.7306308214974
 11
174.4184270373676
 21
-557.9071010738871
  0
LINE
  5
BB
100
AcDbEntity
  8
crest
  6
ByLayer
 62
  256
370
   -1
100
AcDbLine
 10
185.5344570424937
 20
-548.752642563529
 11
177.146375604587
 21
-554.6242995700636
  0
LINE
  5
BC
100
AcDbEntity
  8
crest
  6
ByLayer
 62
  256
370
   -1
100
AcDbLine
 10
177.146375604587
 20
-554.6242995700636
 11
182.334569052074
 21
-543.2102739855925
  0
LINE
  5
BD
100
AcDbEntity
  8
crest
  6
ByLayer
 62
  256
370
   -1
100
AcDbLine
 10
182.9067895319491
 20
-541.9513889298674
 11
186.4596021887209
 21
-548.1050409611699
  0
LINE
  5
BE
100
AcDbEntity
  8
crest
  6
ByLayer
 62
  256
370
   -1
100
AcDbLine
 10
174.0507587074989
 20
-528.8622935885237
 11
181.6431524155377
 21
-542.0127052419132
  0
LINE
  5
BF
100
AcDbEntity
  8
crest
  6
ByLayer
 62
  256
370
   -1
100
AcDbLine
 10
174.4184270373676
 20
-557.9071010738871
 11
181.6431524155377
 21
-542.0127052419132
  0
LINE
  5
C0
100
AcDbEntity
  8
crest
  6
ByLayer
 62
  256
370
   -1
100
AcDbLine
 10
182.3345690520739
 20
-543.2102739855924
 11
185.5344570424937
 21
-548.752642563529
  0
LINE
  5
C1
100
AcDbEntity
  8
crest
  6
ByLayer
 62
  256
370
   -1
100
AcDbLine
 10
193.9999999999999
 20
-544.2000000000446
 11
201.4477369638617
 21
-549.4134158747477
  0
LINE
  5
C2
100
AcDbEntity
  8
crest
  6
ByLayer
 62
  256
370
   -1
100
AcDbLine
 10
194.9808839334073
 20
-543.5133812466595
 11
202.012378747864
 21
-548.4354276167794
  0
LINE
  5
C3
100
AcDbEntity
  8
crest
  6
ByLayer
 62
  256
370
   -1
100
AcDbLine
 10
193.0191160665927
 20
-543.5133812466598
 11
186.4596021887211
 21
-548.1050409611698
  0
LINE
  5
C4
100
AcDbEntity
  8
crest
  6
ByLayer
 62
  256
370
   -1
100
AcDbLine
 10
193.9999999999999
 20
-544.2000000000446
 11
187.024243972723
 21
-549.0830292191384
  0
LINE
  5
C5
100
AcDbEntity
  8
crest
  6
ByLayer
 62
  256
370
   -1
100
AcDbLine
 10
202.9375238940912
 20
-549.0830292191384
 11
206.363561698329
 21
-543.1489576735469
  0
LINE
  5
C6
100
AcDbEntity
  8
crest
  6
ByLayer
 62
  256
370
   -1
100
AcDbLine
 10
206.3635616983291
 20
-543.148957673547
 11
211.9184270373677
 21
-555.369661419432
  0
LINE
  5
C7
100
AcDbEntity
  8
crest
  6
ByLayer
 62
  256
370
   -1
100
AcDbLine
 10
207.0549783348653
 20
-541.9513889298677
 11
214.6463756045869
 21
-558.6524629232553
  0
LINE
  5
C8
100
AcDbEntity
  8
crest
  6
ByLayer
 62
  256
370
   -1
100
AcDbLine
 10
207.0549783348653
 20
-541.9513889298677
 11
215.0614749243725
 21
-528.0837300462139
  0
LINE
  5
C9
100
AcDbEntity
  8
crest
  6
ByLayer
 62
  256
370
   -1
100
AcDbLine
 10
202.012378747864
 20
-548.4354276167794
 11
205.7913412184539
 21
-541.8900726178216
  0
LINE
  5
CA
100
AcDbEntity
  8
crest
  6
ByLayer
 62
  256
370
   -1
100
AcDbLine
 10
203.7416820906281
 20
-537.3808225366048
 11
205.7913412184539
 21
-541.8900726178216
  0
LINE
  5
CB
100
AcDbEntity
  8
crest
  6
ByLayer
 62
  256
370
   -1
100
AcDbLine
 10
203.26815191588
 20
-536.3390561521588
 11
194.0000000000003
 21
-542.8267624932745
  0
LINE
  5
CC
100
AcDbEntity
  8
crest
  6
ByLayer
 62
  256
370
   -1
100
AcDbLine
 10
203.7416820906281
 20
-537.3808225366048
 11
194.9808839334073
 21
-543.5133812466595
  0
LINE
  5
CD
100
AcDbEntity
  8
crest
  6
ByLayer
 62
  256
370
   -1
100
AcDbLine
 10
215.0614749243725
 20
-528.0837300462139
 11
204.2056296207278
 21
-535.6828217587652
  0
LINE
  5
CE
100
AcDbEntity
  8
crest
  6
ByLayer
 62
  256
370
   -1
100
AcDbLine
 10
204.679159795476
 20
-536.7245881432111
 11
206.4827578549902
 21
-540.6925038741424
  0
LINE
  5
CF
100
AcDbEntity
  8
crest
  6
ByLayer
 62
  256
370
   -1
100
AcDbLine
 10
206.4827578549902
 20
-540.6925038741424
 11
211.5507587074988
 21
-531.9144689047953
  0
LINE
  5
D0
100
AcDbEntity
  8
crest
  6
ByLayer
 62
  256
370
   -1
100
AcDbLine
 10
211.5507587074988
 20
-531.9144689047953
 11
204.6791597954761
 21
-536.7245881432111
  0
LINE
  5
D1
100
AcDbEntity
  8
crest
  6
ByLayer
 62
  256
370
   -1
100
AcDbLine
 10
184.8090778965899
 20
-537.7663545276575
 11
193.0191160665927
 21
-543.5133812466597
  0
LINE
  5
D2
100
AcDbEntity
  8
crest
  6
ByLayer
 62
  256
370
   -1
100
AcDbLine
 10
185.2826080713382
 20
-536.7245881432113
 11
194.0000000000001
 21
-542.8267624932746
  0
LINE
  5
D3
100
AcDbEntity
  8
crest
  6
ByLayer
 62
  256
370
   -1
100
AcDbLine
 10
182.9067895319491
 20
-541.9513889298673
 11
184.80907789659
 21
-537.7663545276577
  0
LINE
  5
D4
100
AcDbEntity
  8
crest
  6
ByLayer
 62
  256
370
   -1
100
AcDbLine
 10
182.2153728954127
 20
-540.7538201861879
 11
183.8716001917418
 21
-537.1101201342639
  0
LINE
  5
D5
100
AcDbEntity
  8
crest
  6
ByLayer
 62
  256
370
   -1
100
AcDbLine
 10
174.0507587074989
 20
-528.8622935885237
 11
184.34513036649
 21
-536.0683537498177
  0
LINE
  5
D6
100
AcDbEntity
  8
crest
  6
ByLayer
 62
  256
370
   -1
100
AcDbLine
 10
177.5614749243728
 20
-532.6930324471055
 11
183.8716001917418
 21
-537.1101201342639
  0
LINE
  5
D7
100
AcDbEntity
  8
crest
  6
ByLayer
 62
  256
370
   -1
100
AcDbLine
 10
177.5614749243729
 20
-532.6930324471056
 11
182.2153728954127
 21
-540.753820186188
  0
LINE
  5
D8
100
AcDbEntity
  8
crest
  6
ByLayer
 62
  256
370
   -1
100
AcDbLine
 10
190.9621861818938
 20
-521.5108309559296
 11
194.3630009006663
 21
-514.0290385746299
  0
LINE
  5
D9
100
AcDbEntity
  8
crest
  6
ByLayer
 62
  256
370
   -1
100
AcDbLine
 10
194.3630009006663
 20
-514.0290385746299
 11
197.8510668036724
 21
-521.7027835612431
  0
LINE
  5
DA
100
AcDbEntity
  8
crest
  6
ByLayer
 62
  256
370
   -1
100
AcDbLine
 10
200.9398340176261
 20
-528.4980714319412
 11
204.2056296207278
 21
-535.6828217587652
  0
LINE
  5
DB
100
AcDbEntity
  8
crest
  6
ByLayer
 62
  256
370
   -1
100
AcDbLine
 10
199.9235150999586
 20
-528.9808551571319
 11
203.2681519158799
 21
-536.3390561521587
  0
LINE
  5
DC
100
AcDbEntity
  8
crest
  6
ByLayer
 62
  256
370
   -1
100
AcDbLine
 10
185.2826080713382
 20
-536.7245881432113
 11
188.6898621552333
 21
-529.2286291586421
  0
LINE
  5
DD
100
AcDbEntity
  8
crest
  6
ByLayer
 62
  256
370
   -1
100
AcDbLine
 10
184.3451303664901
 20
-536.0683537498178
 11
187.6530109304292
 21
-528.7910165091516
  0
LINE
  5
DE
100
AcDbEntity
  8
crest
  6
ByLayer
 62
  256
370
   -1
100
AcDbLine
 10
192.295052760023
 20
-521.2972098281048
 11
194.3630009006664
 21
-516.7477239186892
  0
LINE
  5
DF
100
AcDbEntity
  8
crest
  6
ByLayer
 62
  256
370
   -1
100
AcDbLine
 10
194.3630009006664
 20
-516.7477239186892
 11
196.4806455098857
 21
-521.4065420589715
  0
ARC
  5
E0
100
AcDbEntity
  8
crest
  6
ByLayer
 62
  256
370
   -1
100
AcDbCircle
 10
193.9999999999999
 20
-515.2000000000445
 40
14
100
AcDbArc
 50
228.5903778907292
 51
311.4096221092708
  0
ARC
  5
E1
100
AcDbEntity
  8
crest
  6
ByLayer
 62
  256
370
   -1
100
AcDbCircle
 10
193.9999999999999
 20
-536.2000000000445
 40
14
100
AcDbArc
 50
48.59037789072921
 51
131.4096221092708
  0
ARC
  5
E2
100
AcDbEntity
  8
crest
  6
ByLayer
 62
  256
370
   -1
100
AcDbCircle
 10
193.9999999999999
 20
-536.2000000000445
 40
15
100
AcDbArc
 50
101.6844144920965
 51
135.5729959991943
  0
ARC
  5
E3
100
AcDbEntity
  8
crest
  6
ByLayer
 62
  256
370
   -1
100
AcDbCircle
 10
193.9999999999999
 20
-515.2000000000445
 40
15
100
AcDbArc
 50
224.4270040008057
 51
244.9674795034884
  0
ARC
  5
E4
100
AcDbEntity
  8
crest
  6
ByLayer
 62
  256
370
   -1
100
AcDbCircle
 10
193.9999999999999
 20
-515.2000000000445
 40
15
100
AcDbArc
 50
249.2672678762289
 51
293.2598002446787
  0
ARC
  5
E5
100
AcDbEntity
  8
crest
  6
ByLayer
 62
  256
370
   -1
100
AcDbCircle
 10
193.9999999999999
 20
-515.2000000000445
 40
15
100
AcDbArc
 50
297.5586017962783
 51
315.5729959991943
  0
ARC
  5
E6
100
AcDbEntity
  8
crest
  6
ByLayer
 62
  256
370
   -1
100
AcDbCircle
 10
193.9999999999999
 20
-536.2000000000445
 40
15
100
AcDbArc
 50
44.42700400080567
 51
75.12341837834624
  0
ARC
  5
E7
100
AcDbEntity
  8
crest
  6
ByLayer
 62
  256
370
   -1
100
AcDbCircle
 10
193.9999999999999
 20
-536.2000000000445
 40
15
100
AcDbArc
 50
80.48090089714628
 51
96.52652355984664
  0
ARC
  5
E8
100
AcDbEntity
  8
crest
  6
ByLayer
 62
  256
370
   -1
100
AcDbCircle
 10
193.9999999999999
 20
-536.2000000000445
 40
13.5
100
AcDbArc
 50
72.6450784403615
 51
107.3549215596385
  0
ARC
  5
E9
100
AcDbEntity
  8
crest
  6
ByLayer
 62
  256
370
   -1
100
AcDbCircle
 10
193.9999999999999
 20
-524.2000000000445
 40
4.123105625617661
100
AcDbArc
 50
167.599427582594
 51
372.400572417406
  0
LINE
  5
EA
100
AcDbEntity
  8
crest
  6
ByLayer
 62
  256
370
   -1
100
AcDbLine
 10
174.9999999999999
 20
-499.2000000000445
 11
172.9999999999999
 21
-501.2000000000445
  0
LINE
  5
EB
100
AcDbEntity
  8
crest
  6
ByLayer
 62
  256
370
   -1
100
AcDbLine
 10
212.9999999999999
 20
-499.2000000000445
 11
214.9999999999999
 21
-501.2000000000445
  0
LINE
  5
EC
100
AcDbEntity
  8
crest
  6
ByLayer
 62
  256
370
   -1
100
AcDbLine
 10
193.2928932188134
 20
-491.6228355337691
 11
196.1213203435596
 21
-491.6228355337691
  0
LINE
  5
ED
100
AcDbEntity
  8
crest
  6
ByLayer
 62
  256
370
   -1
100
AcDbLine
 10
172.9999999999999
 20
-501.2000000000445
 11
187.7941674976499
 21
-513.8807149980302
  0
LINE
  5
EE
100
AcDbEntity
  8
crest
  6
ByLayer
 62
  256
370
   -1
100
AcDbLine
 10
188.5494710756519
 20
-513.4626011323097
 11
174.9999999999999
 21
-499.2000000000445
  0
LINE
  5
EF
100
AcDbEntity
  8
crest
  6
ByLayer
 62
  256
370
   -1
100
AcDbLine
 10
193.8194809898323
 20
-512.1597586035066
 11
193.2928932188134
 21
-491.6228355337691
  0
LINE
  5
F0
100
AcDbEntity
  8
crest
  6
ByLayer
 62
  256
370
   -1
100
AcDbLine
 10
196.1213203435596
 20
-491.6228355337691
 11
194.5407267544985
 21
-512.1705521915632
  0
LINE
  5
F1
100
AcDbEntity
  8
crest
  6
ByLayer
 62
  256
370
   -1
100
AcDbLine
 10
199.450528924348
 20
-513.4626011323097
 11
212.9999999999999
 21
-499.2000000000445
  0
LINE
  5
F2
100
AcDbEntity
  8
crest
  6
ByLayer
 62
  256
370
   -1
100
AcDbLine
 10
214.9999999999999
 20
-501.2000000000445
 11
200.2058325023479
 21
-513.880714998032
  0
ARC
  5
F3
100
AcDbEntity
  8
crest
  6
ByLayer
 62
  256
370
   -1
100
AcDbCircle
 10
193.9999999999999
 20
-524.2000000000445
 40
12.0415945787923
100
AcDbArc
 50
116.9133052031706
 51
121.0219446744497
  0
ARC
  5
F4
100
AcDbEntity
  8
crest
  6
ByLayer
 62
  256
370
   -1
100
AcDbCircle
 10
193.9999999999999
 20
-524.2000000000445
 40
12.0415945787923
100
AcDbArc
 50
87.4262725566692
 51
90.85896969767842
  0
ARC
  5
F5
100
AcDbEntity
  8
crest
  6
ByLayer
 62
  256
370
   -1
100
AcDbCircle
 10
193.9999999999999
 20
-524.2000000000445
 40
12.0415945787923
100
AcDbArc
 50
58.9780553255567
 51
63.08669479682299
  0
LINE
  5
F6
100
AcDbEntity
  8
crest
  6
ByLayer
 62
  256
370
   -1
100
AcDbLine
 10
180.5383101515078
 20
-508.9784864809502
 11
182.2417325003296
 21
-510.4385627799404
  0
LINE
  5
F7
100
AcDbEntity
  8
crest
  6
ByLayer
 62
  256
370
   -1
100
AcDbLine
 10
185.9154853782526
 20
-509.2380778482964
 11
184.3559319469898
 21
-507.5964426574934
  0
LINE
  5
F8
100
AcDbEntity
  8
crest
  6
ByLayer
 62
  256
370
   -1
100
AcDbLine
 10
192.7182784821595
 20
-508.2256792105309
 11
192.6670082574218
 21
-506.2261404457594
  0
LINE
  5
F9
100
AcDbEntity
  8
crest
  6
ByLayer
 62
  256
370
   -1
100
AcDbLine
 10
195.9984325104803
 20
-506.2587821742054
 11
195.8450132215544
 21
-508.2532329302418
  0
ARC
  5
FA
100
AcDbEntity
  8
crest
  6
ByLayer
 62
  256
370
   -1
100
AcDbCircle
 10
194
 20
-540.2000000000446
 40
34.00000000000011
100
AcDbArc
 50
92.24689353662873
 51
106.4781133426934
  0
ARC
  5
FB
100
AcDbEntity
  8
crest
  6
ByLayer
 62
  256
370
   -1
100
AcDbCircle
 10
194
 20
-540.2000000000446
 40
32.00000000000011
100
AcDbArc
 50
92.29552761396928
 51
104.6338530191985
  0
ARC
  5
FC
100
AcDbEntity
  8
crest
  6
ByLayer
 62
  256
370
   -1
100
AcDbCircle
 10
194
 20
-540.2000000000446
 40
32.00000000000011
100
AcDbArc
 50
75.36614698080149
 51
86.69468350597883
  0
ARC
  5
FD
100
AcDbEntity
  8
crest
  6
ByLayer
 62
  256
370
   -1
100
AcDbCircle
 10
194
 20
-540.2000000000446
 40
34.00000000000011
100
AcDbArc
 50
73.52188665730532
 51
86.63035938119806
  0
LINE
  5
FE
100
AcDbEntity
  8
crest
  6
ByLayer
 62
  256
370
   -1
100
AcDbLine
 10
207.4616898484917
 20
-508.9784864809504
 11
205.7582674996701
 21
-510.4385627799405
  0
LINE
  5
FF
100
AcDbEntity
  8
crest
  6
ByLayer
 62
  256
370
   -1
100
AcDbLine
 10
202.0845146217472
 20
-509.2380778482965
 11
203.6440680530113
 21
-507.5964426574922
  0
ARC
  5
100
100
AcDbEntity
  8
crest
  6
ByLayer
 62
  256
370
   -1
100
AcDbCircle
 10
194
 20
-540.2000000000446
 40
34.00000000000011
100
AcDbArc
 50
113.3241165904237
 51
66.67588340957496
  0
ARC
  5
101
100
AcDbEntity
  8
crest
  6
ByLayer
 62
  256
370
   -1
100
AcDbCircle
 10
194
 20
-540.2000000000446
 40
32.00000000000011
100
AcDbArc
 50
111.558182800657
 51
68.44181719934139
  0
LINE
  5
102
100
AcDbEntity
  8
crest
  6
ByLayer
 62
  256
370
   -1
100
AcDbLine
 10
193.7499999999999
 20
-553.0385621722784
 11
194.6249999999999
 21
-554.0307189139276
  0
LINE
  5
103
100
AcDbEntity
  8
crest
  6
ByLayer
 62
  256
370
   -1
100
AcDbLine
 10
193.3749999999999
 20
-553.3692810861614
 11
194.2499999999999
 21
-554.3614378278106
  0
ARC
  5
104
100
AcDbEntity
  8
crest
  6
ByLayer
 62
  256
370
   -1
100
AcDbCircle
 10
194.9999999999999
 20
-553.7000000000445
 40
0.5
100
AcDbArc
 50
221.4112451156552
 51
138.5903778907303
  0
ARC
  5
105
100
AcDbEntity
  8
crest
  6
ByLayer
 62
  256
370
   -1
100
AcDbCircle
 10
192.9999999999999
 20
-553.7000000000445
 40
0.5
100
AcDbArc
 50
41.41013982093825
 51
318.5903778907302
  0
ARC
  5
106
100
AcDbEntity
  8
crest
  6
ByLayer
 62
  256
370
   -1
100
AcDbCircle
 10
192.9999999999999
 20
-553.7000000000445
 40
1
100
AcDbArc
 50
41.40925625351418
 51
318.5908800263261
  0
ARC
  5
107
100
AcDbEntity
  8
crest
  6
ByLayer
 62
  256
370
   -1
100
AcDbCircle
 10
194.9999999999999
 20
-553.7000000000445
 40
1
100
AcDbArc
 50
221.408852823857
 51
138.5907437464858
  0
LINE
  5
108
100
AcDbEntity
  8
crest
  6
ByLayer
 62
  256
370
   -1
100
AcDbLine
 10
193.3749999999999
 20
-553.3692810861614
 11
194.2499999999999
 21
-554.3614378278106
  0
LINE
  5
109
100
AcDbEntity
  8
crest
  6
ByLayer
 62
  256
370
   -1
100
AcDbLine
 10
193.4666666666666
 20
-553.9267786838501
 11
193.3749999999999
 21
-554.0307189139276
  0
LINE
  5
10A
100
AcDbEntity
  8
crest
  6
ByLayer
 62
  256
370
   -1
100
AcDbLine
 10
193.7499999999999
 20
-554.3614378278106
 11
193.7999999999998
 21
-554.3047431568593
  0
LINE
  5
10B
100
AcDbEntity
  8
crest
  6
ByLayer
 62
  256
370
   -1
100
AcDbLine
 10
193.4666666666666
 20
-553.9267786838501
 11
193.7999999999998
 21
-554.3047431568593
  0
LINE
  5
10C
100
AcDbEntity
  8
crest
  6
ByLayer
 62
  256
370
   -1
100
AcDbLine
 10
194.2
 20
-553.0952568432297
 11
194.5333333333334
 21
-553.473221316239
  0
LINE
  5
10D
100
AcDbEntity
  8
crest
  6
ByLayer
 62
  256
370
   -1
100
AcDbLine
 10
194.2499999999999
 20
-553.0385621722784
 11
194.2
 21
-553.0952568432297
  0
LINE
  5
10E
100
AcDbEntity
  8
crest
  6
ByLayer
 62
  256
370
   -1
100
AcDbLine
 10
194.5333333333334
 20
-553.4732213162389
 11
194.6249999999999
 21
-553.3692810861614
  0
LINE
  5
10F
100
AcDbEntity
  8
crest
  6
ByLayer
 62
  256
370
   -1
100
AcDbLine
 10
193.5999999999999
 20
-549.0000000000446
 11
192.9999999999999
 21
-549.0000000000446
  0
LINE
  5
110
100
AcDbEntity
  8
crest
  6
ByLayer
 62
  256
370
   -1
100
AcDbLine
 10
192.9999999999999
 20
-549.0000000000446
 11
192.9999999999999
 21
-548.4000000000445
  0
LINE
  5
111
100
AcDbEntity
  8
crest
  6
ByLayer
 62
  256
370
   -1
100
AcDbLine
 10
194.3999999999999
 20
-547.7000000000445
 11
193.5999999999999
 21
-547.7000000000445
  0
ARC
  5
112
100
AcDbEntity
  8
crest
  6
ByLayer
 62
  256
370
   -1
100
AcDbCircle
 10
192.5367469879517
 20
-547.3957831325747
 40
1.105918111834094
100
AcDbArc
 50
294.7642416181186
 51
344.0331690912662
  0
LINE
  5
113
100
AcDbEntity
  8
crest
  6
ByLayer
 62
  256
370
   -1
100
AcDbLine
 10
193.5999999999999
 20
-549.0000000000446
 11
193.5999999999999
 21
-551.2000000000445
  0
LINE
  5
114
100
AcDbEntity
  8
crest
  6
ByLayer
 62
  256
370
   -1
100
AcDbLine
 10
194.3999999999999
 20
-551.2000000000445
 11
194.3999999999999
 21
-547.7000000000445
  0
LINE
  5
115
100
AcDbEntity
  8
crest
  6
ByLayer
 62
  256
370
   -1
100
AcDbLine
 10
192.9999999999999
 20
-551.9000000000445
 11
194.9999999999999
 21
-551.9000000000445
  0
LINE
  5
116
100
AcDbEntity
  8
crest
  6
ByLayer
 62
  256
370
   -1
100
AcDbLine
 10
194.9999999999999
 20
-551.9000000000445
 11
194.9999999999999
 21
-551.2000000000445
  0
LINE
  5
117
100
AcDbEntity
  8
crest
  6
ByLayer
 62
  256
370
   -1
100
AcDbLine
 10
192.9999999999999
 20
-551.2000000000445
 11
192.9999999999999
 21
-551.9000000000445
  0
LINE
  5
118
100
AcDbEntity
  8
crest
  6
ByLayer
 62
  256
370
   -1
100
AcDbLine
 10
194.9999999999999
 20
-551.2000000000445
 11
194.3999999999999
 21
-551.2000000000445
  0
LINE
  5
119
100
AcDbEntity
  8
crest
  6
ByLayer
 62
  256
370
   -1
100
AcDbLine
 10
193.5999999999999
 20
-551.2000000000445
 11
192.9999999999999
 21
-551.2000000000445
  0
ENDSEC
  0
SECTION
  2
OBJECTS
  0
DICTIONARY
  5
C
330
0
100
AcDbDictionary
281
    1
  3
ACAD_GROUP
350
D
  0
DICTIONARY
  5
D
330
C
100
AcDbDictionary
281
    1
  0
PLOTSETTINGS
  5
11A
100
AcDbPlotSettings
  6
1x1
 40
0
 41
0
 42
0
 43
0
  0
ENDSEC
  0
EOF
