999
dxfrw 0.6.3
  0
SECTION
  2
HEADER
  9
$ACADVER
  1
AC1021
  9
$DWGCODEPAGE
  3
ANSI_1252
  9
$INSBASE
 10
0
 20
0
 30
0
  9
$EXTMIN
 10
104.5202093155383
 20
-668.1554503371935
 30
0
  9
$EXTMAX
 10
721.7471712518927
 20
-169.9411646229064
 30
0
  9
$LIMMIN
 10
0
 20
0
  9
$LIMMAX
 10
12
 20
9
  9
$ORTHOMODE
 70
    0
  9
$REGENMODE
 70
    1
  9
$FILLMODE
 70
    1
  9
$QTEXTMODE
 70
    0
  9
$MIRRTEXT
 70
    0
  9
$LTSCALE
 40
1
  9
$ATTMODE
 70
    1
  9
$TEXTSIZE
 40
0.2
  9
$TRACEWID
 40
0.05
  9
$TEXTSTYLE
  7
Standard
  9
$CLAYER
  8
0
  9
$CELTYPE
  6
ByLayer
  9
$CECOLOR
 62
  256
  9
$CELTSCALE
 40
1
  9
$DISPSILH
 70
    0
  9
$DIMSCALE
 40
1
  9
$DIMASZ
 40
0.18
  9
$DIMEXO
 40
0.0625
  9
$DIMDLI
 40
0.38
  9
$DIMRND
 40
0
  9
$DIMDLE
 40
0
  9
$DIMEXE
 40
0.18
  9
$DIMTP
 40
0
  9
$DIMTM
 40
0
  9
$DIMTXT
 40
0.18
  9
$DIMCEN
 40
0.09
  9
$DIMTSZ
 40
0
  9
$DIMTOL
 70
    0
  9
$DIMLIM
 70
    0
  9
$DIMTIH
 70
    1
  9
$DIMTOH
 70
    1
  9
$DIMSE1
 70
    0
  9
$DIMSE2
 70
    0
  9
$DIMTAD
 70
    0
  9
$DIMZIN
 70
    0
  9
$DIMBLK
  1

  9
$DIMASO
 70
    1
  9
$DIMSHO
 70
    1
  9
$DIMPOST
  1

  9
$DIMAPOST
  1

  9
$DIMALT
 70
    0
  9
$DIMALTD
 70
    2
  9
$DIMALTF
 40
25.4
  9
$DIMLFAC
 40
1
  9
$DIMTOFL
 70
    0
  9
$DIMTVP
 40
0
  9
$DIMTIX
 70
    0
  9
$DIMSOXD
 70
    0
  9
$DIMSAH
 70
    0
  9
$DIMBLK1
  1

  9
$DIMBLK2
  1

  9
$DIMSTYLE
  2
Standard
  9
$DIMCLRD
 70
    0
  9
$DIMCLRE
 70
    0
  9
$DIMCLRT
 70
    0
  9
$DIMTFAC
 40
1
  9
$DIMGAP
 40
0.09
  9
$DIMJUST
 70
    0
  9
$DIMSD1
 70
    0
  9
$DIMSD2
 70
    0
  9
$DIMTOLJ
 70
    1
  9
$DIMTZIN
 70
    0
  9
$DIMALTZ
 70
    0
  9
$DIMALTTZ
 70
    0
  9
$DIMUPT
 70
    0
  9
$DIMDEC
 70
    4
  9
$DIMTDEC
 70
    4
  9
$DIMALTU
 70
    2
  9
$DIMALTTD
 70
    2
  9
$DIMTXSTY
  7
Standard
  9
$DIMAUNIT
 70
    0
  9
$DIMADEC
 70
    0
  9
$DIMALTRND
 40
0
  9
$DIMAZIN
 70
    0
  9
$DIMDSEP
 70
   46
  9
$DIMATFIT
 70
    3
  9
$DIMFRAC
 70
    0
  9
$DIMLDRBLK
  1

  9
$DIMLUNIT
 70
    2
  9
$DIMLWD
 70
   -2
  9
$DIMLWE
 70
   -2
  9
$DIMTMOVE
 70
    0
  9
$DIMFXL
 40
1
  9
$DIMFXLON
 70
    0
  9
$DIMJOGANG
 40
0.7854
  9
$DIMTFILL
 70
    0
  9
$DIMTFILLCLR
 70
    0
  9
$DIMARCSYM
 70
    0
  9
$DIMLTYPE
  6

  9
$DIMLTEX1
  6

  9
$DIMLTEX2
  6

  9
$LUNITS
 70
    2
  9
$LUPREC
 70
    4
  9
$SKETCHINC
 40
0.1
  9
$FILLETRAD
 40
0
  9
$AUNITS
 70
    0
  9
$AUPREC
 70
    0
  9
$MENU
  1
.
  9
$ELEVATION
 40
0
  9
$PELEVATION
 40
0
  9
$THICKNESS
 40
0
  9
$LIMCHECK
 70
    0
  9
$CHAMFERA
 40
0
  9
$CHAMFERB
 40
0
  9
$CHAMFERC
 40
0
  9
$CHAMFERD
 40
0
  9
$SKPOLY
 70
    0
  9
$USRTIMER
 70
    1
  9
$ANGBASE
 50
0
  9
$ANGDIR
 70
    0
  9
$PDMODE
 70
    0
  9
$PDSIZE
 40
0
  9
$PLINEWID
 40
0
  9
$SPLFRAME
 70
    0
  9
$SPLINETYPE
 70
    6
  9
$SPLINESEGS
 70
    8
  9
$HANDSEED
  5
20000
  9
$SURFTAB1
 70
    6
  9
$SURFTAB2
 70
    6
  9
$SURFTYPE
 70
    6
  9
$SURFU
 70
    6
  9
$SURFV
 70
    6
  9
$UCSBASE
  2

  9
$UCSNAME
  2

  9
$UCSORG
 10
0
 20
0
 30
0
  9
$UCSXDIR
 10
1
 20
0
 30
0
  9
$UCSYDIR
 10
0
 20
1
 30
0
  9
$UCSORTHOREF
  2

  9
$UCSORTHOVIEW
 70
    0
  9
$UCSORGTOP
 10
0
 20
0
 30
0
  9
$UCSORGBOTTOM
 10
0
 20
0
 30
0
  9
$UCSORGLEFT
 10
0
 20
0
 30
0
  9
$UCSORGRIGHT
 10
0
 20
0
 30
0
  9
$UCSORGFRONT
 10
0
 20
0
 30
0
  9
$UCSORGBACK
 10
0
 20
0
 30
0
  9
$PUCSBASE
  2

  9
$PUCSNAME
  2

  9
$PUCSORG
 10
0
 20
0
 30
0
  9
$PUCSXDIR
 10
1
 20
0
 30
0
  9
$PUCSYDIR
 10
0
 20
1
 30
0
  9
$PUCSORTHOREF
  2

  9
$PUCSORTHOVIEW
 70
    0
  9
$PUCSORGTOP
 10
0
 20
0
 30
0
  9
$PUCSORGBOTTOM
 10
0
 20
0
 30
0
  9
$PUCSORGLEFT
 10
0
 20
0
 30
0
  9
$PUCSORGRIGHT
 10
0
 20
0
 30
0
  9
$PUCSORGFRONT
 10
0
 20
0
 30
0
  9
$PUCSORGBACK
 10
0
 20
0
 30
0
  9
$USERI1
 70
    0
  9
$USERI2
 70
    0
  9
$USERI3
 70
    0
  9
$USERI4
 70
    0
  9
$USERI5
 70
    0
  9
$USERR1
 40
0
  9
$USERR2
 40
0
  9
$USERR3
 40
0
  9
$USERR4
 40
0
  9
$USERR5
 40
0
  9
$WORLDVIEW
 70
    1
  9
$SHADEDGE
 70
    3
  9
$SHADEDIF
 70
   70
  9
$TILEMODE
 70
    1
  9
$MAXACTVP
 70
   64
  9
$PINSBASE
 10
0
 20
0
 30
0
  9
$PLIMCHECK
 70
    0
  9
$PEXTMIN
 10
1e+20
 20
1e+20
 30
1e+20
  9
$PEXTMAX
 10
-1e+20
 20
-1e+20
 30
-1e+20
  9
$GRIDMODE
 70
    1
  9
$SNAPSTYLE
 70
    0
  9
$PLIMMIN
 10
0
 20
0
  9
$PLIMMAX
 10
12
 20
9
  9
$UNITMODE
 70
    0
  9
$VISRETAIN
 70
    1
  9
$PLINEGEN
 70
    0
  9
$PSLTSCALE
 70
    1
  9
$TREEDEPTH
 70
 3020
  9
$CMLSTYLE
  2
Standard
  9
$CMLJUST
 70
    0
  9
$CMLSCALE
 40
1
  9
$PROXYGRAPHICS
 70
    1
  9
$MEASUREMENT
 70
    1
  9
$CELWEIGHT
370
   -1
  9
$ENDCAPS
280
    0
  9
$JOINSTYLE
280
    0
  9
$LWDISPLAY
290
    1
  9
$INSUNITS
 70
    0
  9
$HYPERLINKBASE
  1

  9
$STYLESHEET
  1

  9
$XEDIT
290
    1
  9
$CEPSNTYPE
380
    0
  9
$PSTYLEMODE
290
    1
  9
$EXTNAMES
290
    1
  9
$PSVPSCALE
 40
0
  9
$OLESTARTUP
290
    0
  9
$SORTENTS
280
  127
  9
$INDEXCTL
280
    0
  9
$HIDETEXT
280
    1
  9
$XCLIPFRAME
290
    0
  9
$HALOGAP
280
    0
  9
$OBSCOLOR
 70
  257
  9
$OBSLTYPE
280
    0
  9
$INTERSECTIONDISPLAY
280
    0
  9
$INTERSECTIONCOLOR
 70
  257
  9
$DIMASSOC
280
    1
  9
$PROJECTNAME
  1

  9
$CAMERADISPLAY
290
    0
  9
$LENSLENGTH
 40
50
  9
$CAMERAHEIGHT
 40
0
  9
$STEPSPERSEC
 40
2
  9
$STEPSIZE
 40
50
  9
$3DDWFPREC
 40
2
  9
$PSOLWIDTH
 40
5
  9
$PSOLHEIGHT
 40
80
  9
$LOFTANG1
 40
1.570796326794897
  9
$LOFTANG2
 40
1.570796326794897
  9
$LOFTMAG1
 40
0
  9
$LOFTMAG2
 40
0
  9
$LOFTPARAM
 70
    7
  9
$LOFTNORMALS
280
    1
  9
$LATITUDE
 40
1
  9
$LONGITUDE
 40
1
  9
$NORTHDIRECTION
 40
0
  9
$TIMEZONE
 70
-8000
  9
$LIGHTGLYPHDISPLAY
280
    1
  9
$TILEMODELIGHTSYNCH
280
    1
  9
$SOLIDHIST
280
    1
  9
$SHOWHIST
280
    1
  9
$DWFFRAME
280
    2
  9
$DGNFRAME
280
    0
  9
$REALWORLDSCALE
290
    1
  9
$INTERFERECOLOR
 62
    1
  9
$CSHADOW
280
    0
  9
$SHADOWPLANELOCATION
 40
0
  0
ENDSEC
  0
SECTION
  2
CLASSES
  0
ENDSEC
  0
SECTION
  2
TABLES
  0
TABLE
  2
VPORT
  5
8
330
0
100
AcDbSymbolTable
 70
    1
  0
VPORT
  5
31
330
2
100
AcDbSymbolTableRecord
100
AcDbViewportTableRecord
  2
*ACTIVE
 70
    0
 10
0
 20
0
 11
1
 21
1
 12
668.5243191005028
 22
81.97381531827594
 13
0
 23
0
 14
10
 24
10
 15
10
 25
10
 16
0
 26
0
 36
1
 17
0
 27
0
 37
0
 40
1187.426528688036
 41
1.572386058981233
 42
50
 43
0
 44
0
 50
0
 51
0
 71
    0
 72
  100
 73
    1
 74
    3
 75
    0
 76
    1
 77
    0
 78
    0
281
    0
 65
    1
110
0
120
0
130
0
111
1
121
0
131
0
112
0
122
1
132
0
 79
    0
146
0
348
10020
 60
    7
 61
    5
292
1
282
    1
141
0
142
0
 63
  250
421
3358443
  0
ENDTAB
  0
TABLE
  2
LTYPE
  5
5
330
0
100
AcDbSymbolTable
 70
    4
  0
LTYPE
  5
14
330
5
100
AcDbSymbolTableRecord
100
AcDbLinetypeTableRecord
  2
ByBlock
 70
    0
  3

 72
   65
 73
    0
 40
0
  0
LTYPE
  5
15
330
5
100
AcDbSymbolTableRecord
100
AcDbLinetypeTableRecord
  2
ByLayer
 70
    0
  3

 72
   65
 73
    0
 40
0
  0
LTYPE
  5
16
330
5
100
AcDbSymbolTableRecord
100
AcDbLinetypeTableRecord
  2
Continuous
 70
    0
  3
Solid line
 72
   65
 73
    0
 40
0
  0
LTYPE
  5
32
330
5
100
AcDbSymbolTableRecord
100
AcDbLinetypeTableRecord
  2
DOT
 70
    0
  3
Dot . . . . . . . . . . . . . . . . . . . . . .
 72
   65
 73
    2
 40
6.35
 49
0
 74
    0
 49
-6.35
 74
    0
  0
LTYPE
  5
33
330
5
100
AcDbSymbolTableRecord
100
AcDbLinetypeTableRecord
  2
DOTTINY
 70
    0
  3
Dot (.15x) .....................................
 72
   65
 73
    2
 40
0.9525
 49
0
 74
    0
 49
-0.9525
 74
    0
  0
LTYPE
  5
34
330
5
100
AcDbSymbolTableRecord
100
AcDbLinetypeTableRecord
  2
DOT2
 70
    0
  3
Dot (.5x) .....................................
 72
   65
 73
    2
 40
3.175
 49
0
 74
    0
 49
-3.175
 74
    0
  0
LTYPE
  5
35
330
5
100
AcDbSymbolTableRecord
100
AcDbLinetypeTableRecord
  2
DOTX2
 70
    0
  3
Dot (2x) .  .  .  .  .  .  .  .  .  .  .  .  .
 72
   65
 73
    2
 40
12.7
 49
0
 74
    0
 49
-12.7
 74
    0
  0
LTYPE
  5
36
330
5
100
AcDbSymbolTableRecord
100
AcDbLinetypeTableRecord
  2
DASHED
 70
    0
  3
Dashed _ _ _ _ _ _ _ _ _ _ _ _ _ _ _ _ _
 72
   65
 73
    2
 40
19.05
 49
12.7
 74
    0
 49
-6.35
 74
    0
  0
LTYPE
  5
37
330
5
100
AcDbSymbolTableRecord
100
AcDbLinetypeTableRecord
  2
DASHEDTINY
 70
    0
  3
Dashed (.15x) _ _ _ _ _ _ _ _ _ _ _ _ _ _ _ _ _
 72
   65
 73
    2
 40
2.8575
 49
1.905
 74
    0
 49
-0.9525
 74
    0
  0
LTYPE
  5
38
330
5
100
AcDbSymbolTableRecord
100
AcDbLinetypeTableRecord
  2
DASHED2
 70
    0
  3
Dashed (.5x) _ _ _ _ _ _ _ _ _ _ _ _ _ _ _ _ _
 72
   65
 73
    2
 40
9.524999999999999
 49
6.35
 74
    0
 49
-3.175
 74
    0
  0
LTYPE
  5
39
330
5
100
AcDbSymbolTableRecord
100
AcDbLinetypeTableRecord
  2
DASHEDX2
 70
    0
  3
Dashed (2x) ____  ____  ____  ____  ____  ___
 72
   65
 73
    2
 40
38.09999999999999
 49
25.4
 74
    0
 49
-12.7
 74
    0
  0
LTYPE
  5
3A
330
5
100
AcDbSymbolTableRecord
100
AcDbLinetypeTableRecord
  2
DASHDOT
 70
    0
  3
Dash dot __ . __ . __ . __ . __ . __ . __ . __
 72
   65
 73
    4
 40
25.4
 49
12.7
 74
    0
 49
-6.35
 74
    0
 49
0
 74
    0
 49
-6.35
 74
    0
  0
LTYPE
  5
3B
330
5
100
AcDbSymbolTableRecord
100
AcDbLinetypeTableRecord
  2
DASHDOTTINY
 70
    0
  3
Dash dot (.15x) _._._._._._._._._._._._._._._.
 72
   65
 73
    4
 40
3.81
 49
1.905
 74
    0
 49
-0.9525
 74
    0
 49
0
 74
    0
 49
-0.9525
 74
    0
  0
LTYPE
  5
3C
330
5
100
AcDbSymbolTableRecord
100
AcDbLinetypeTableRecord
  2
DASHDOT2
 70
    0
  3
Dash dot (.5x) _._._._._._._._._._._._._._._.
 72
   65
 73
    4
 40
12.7
 49
6.35
 74
    0
 49
-3.175
 74
    0
 49
0
 74
    0
 49
-3.175
 74
    0
  0
LTYPE
  5
3D
330
5
100
AcDbSymbolTableRecord
100
AcDbLinetypeTableRecord
  2
DASHDOTX2
 70
    0
  3
Dash dot (2x) ____  .  ____  .  ____  .  ___
 72
   65
 73
    4
 40
50.8
 49
25.4
 74
    0
 49
-12.7
 74
    0
 49
0
 74
    0
 49
-12.7
 74
    0
  0
LTYPE
  5
3E
330
5
100
AcDbSymbolTableRecord
100
AcDbLinetypeTableRecord
  2
DIVIDE
 70
    0
  3
Divide ____ . . ____ . . ____ . . ____ . . ____
 72
   65
 73
    6
 40
31.75
 49
12.7
 74
    0
 49
-6.35
 74
    0
 49
0
 74
    0
 49
-6.35
 74
    0
 49
0
 74
    0
 49
-6.35
 74
    0
  0
LTYPE
  5
3F
330
5
100
AcDbSymbolTableRecord
100
AcDbLinetypeTableRecord
  2
DIVIDETINY
 70
    0
  3
Divide (.15x) __..__..__..__..__..__..__..__.._
 72
   65
 73
    6
 40
4.7625
 49
1.905
 74
    0
 49
-0.9525
 74
    0
 49
0
 74
    0
 49
-0.9525
 74
    0
 49
0
 74
    0
 49
-0.9525
 74
    0
  0
LTYPE
  5
40
330
5
100
AcDbSymbolTableRecord
100
AcDbLinetypeTableRecord
  2
DIVIDE2
 70
    0
  3
Divide (.5x) __..__..__..__..__..__..__..__.._
 72
   65
 73
    6
 40
15.875
 49
6.35
 74
    0
 49
-3.175
 74
    0
 49
0
 74
    0
 49
-3.175
 74
    0
 49
0
 74
    0
 49
-3.175
 74
    0
  0
LTYPE
  5
41
330
5
100
AcDbSymbolTableRecord
100
AcDbLinetypeTableRecord
  2
DIVIDEX2
 70
    0
  3
Divide (2x) ________  .  .  ________  .  .  _
 72
   65
 73
    6
 40
63.5
 49
25.4
 74
    0
 49
-12.7
 74
    0
 49
0
 74
    0
 49
-12.7
 74
    0
 49
0
 74
    0
 49
-12.7
 74
    0
  0
LTYPE
  5
42
330
5
100
AcDbSymbolTableRecord
100
AcDbLinetypeTableRecord
  2
BORDER
 70
    0
  3
Border __ __ . __ __ . __ __ . __ __ . __ __ .
 72
   65
 73
    6
 40
44.45
 49
12.7
 74
    0
 49
-6.35
 74
    0
 49
12.7
 74
    0
 49
-6.35
 74
    0
 49
0
 74
    0
 49
-6.35
 74
    0
  0
LTYPE
  5
43
330
5
100
AcDbSymbolTableRecord
100
AcDbLinetypeTableRecord
  2
BORDERTINY
 70
    0
  3
Border (.15x) __.__.__.__.__.__.__.__.__.__.__.
 72
   65
 73
    6
 40
6.6675
 49
1.905
 74
    0
 49
-0.9525
 74
    0
 49
1.905
 74
    0
 49
-0.9525
 74
    0
 49
0
 74
    0
 49
-0.9525
 74
    0
  0
LTYPE
  5
44
330
5
100
AcDbSymbolTableRecord
100
AcDbLinetypeTableRecord
  2
BORDER2
 70
    0
  3
Border (.5x) __.__.__.__.__.__.__.__.__.__.__.
 72
   65
 73
    6
 40
22.225
 49
6.35
 74
    0
 49
-3.175
 74
    0
 49
6.35
 74
    0
 49
-3.175
 74
    0
 49
0
 74
    0
 49
-3.175
 74
    0
  0
LTYPE
  5
45
330
5
100
AcDbSymbolTableRecord
100
AcDbLinetypeTableRecord
  2
BORDERX2
 70
    0
  3
Border (2x) ____  ____  .  ____  ____  .  ___
 72
   65
 73
    6
 40
88.89999999999999
 49
25.4
 74
    0
 49
-12.7
 74
    0
 49
25.4
 74
    0
 49
-12.7
 74
    0
 49
0
 74
    0
 49
-12.7
 74
    0
  0
LTYPE
  5
46
330
5
100
AcDbSymbolTableRecord
100
AcDbLinetypeTableRecord
  2
CENTER
 70
    0
  3
Center ____ _ ____ _ ____ _ ____ _ ____ _ ____
 72
   65
 73
    4
 40
50.8
 49
31.75
 74
    0
 49
-6.35
 74
    0
 49
6.35
 74
    0
 49
-6.35
 74
    0
  0
LTYPE
  5
47
330
5
100
AcDbSymbolTableRecord
100
AcDbLinetypeTableRecord
  2
CENTERTINY
 70
    0
  3
Center (.15x) ___ _ ___ _ ___ _ ___ _ ___ _ ___
 72
   65
 73
    4
 40
7.619999999999999
 49
4.7625
 74
    0
 49
-0.9525
 74
    0
 49
0.9525
 74
    0
 49
-0.9525
 74
    0
  0
LTYPE
  5
48
330
5
100
AcDbSymbolTableRecord
100
AcDbLinetypeTableRecord
  2
CENTER2
 70
    0
  3
Center (.5x) ___ _ ___ _ ___ _ ___ _ ___ _ ___
 72
   65
 73
    4
 40
28.575
 49
19.05
 74
    0
 49
-3.175
 74
    0
 49
3.175
 74
    0
 49
-3.175
 74
    0
  0
LTYPE
  5
49
330
5
100
AcDbSymbolTableRecord
100
AcDbLinetypeTableRecord
  2
CENTERX2
 70
    0
  3
Center (2x) ________  __  ________  __  _____
 72
   65
 73
    4
 40
101.6
 49
63.5
 74
    0
 49
-12.7
 74
    0
 49
12.7
 74
    0
 49
-12.7
 74
    0
  0
ENDTAB
  0
TABLE
  2
LAYER
  5
2
330
0
100
AcDbSymbolTable
 70
    1
  0
LAYER
  5
10
330
2
100
AcDbSymbolTableRecord
100
AcDbLayerTableRecord
  2
0
 70
    1
 62
    7
  6
CONTINUOUS
370
   -3
390
F
  0
LAYER
  5
4A
330
2
100
AcDbSymbolTableRecord
100
AcDbLayerTableRecord
  2
outline
 70
    0
 62
    7
  6
CONTINUOUS
370
    0
390
F
  0
LAYER
  5
4B
330
2
100
AcDbSymbolTableRecord
100
AcDbLayerTableRecord
  2
registre
 70
    0
 62
    1
  6
CONTINUOUS
370
    0
390
F
  0
ENDTAB
  0
TABLE
  2
STYLE
  5
3
330
0
100
AcDbSymbolTable
 70
    3
  0
STYLE
  5
4C
330
2
100
AcDbSymbolTableRecord
100
AcDbTextStyleTableRecord
  2
Standard
 70
    0
 40
0
 41
1
 50
0
 71
    0
 42
1
  3
txt
  4

  0
ENDTAB
  0
TABLE
  2
VIEW
  5
6
330
0
100
AcDbSymbolTable
 70
    0
  0
ENDTAB
  0
TABLE
  2
UCS
  5
7
330
0
100
AcDbSymbolTable
 70
    0
  0
ENDTAB
  0
TABLE
  2
APPID
  5
9
330
0
100
AcDbSymbolTable
 70
    1
  0
APPID
  5
12
330
9
100
AcDbSymbolTableRecord
100
AcDbRegAppTableRecord
  2
ACAD
 70
    0
  0
APPID
  5
4D
330
9
100
AcDbSymbolTableRecord
100
AcDbRegAppTableRecord
  2
LibreCad
 70
    0
  0
ENDTAB
  0
TABLE
  2
DIMSTYLE
  5
A
330
0
100
AcDbSymbolTable
 70
    1
100
AcDbDimStyleTable
 71
    1
  0
DIMSTYLE
105
4E
330
A
100
AcDbSymbolTableRecord
100
AcDbDimStyleTableRecord
  2
Standard
 70
    0
 40
1
 41
0.18
 42
0.0625
 43
0.38
 44
0.18
 45
0
 46
0
 47
0
 48
0
 49
1
140
0.18
141
0.09
142
0
143
25.4
144
1
145
0
146
1
147
0.09
148
0
 71
    0
 72
    0
 73
    1
 74
    1
 75
    0
 76
    0
 77
    0
 78
    0
 79
    0
170
    0
171
    2
172
    0
173
    0
174
    0
175
    0
176
    0
177
    0
178
    0
179
    0
271
    4
272
    4
273
    2
274
    2
275
    0
276
    0
277
    2
278
   46
279
    0
280
    0
281
    0
282
    0
283
    1
284
    0
285
    0
286
    0
288
    0
289
    3
340
Standard
341

371
   -2
372
   -2
  0
ENDTAB
  0
TABLE
  2
BLOCK_RECORD
  5
1
330
0
100
AcDbSymbolTable
 70
    2
  0
BLOCK_RECORD
  5
1F
330
1
100
AcDbSymbolTableRecord
100
AcDbBlockTableRecord
  2
*Model_Space
 70
    0
280
    1
281
    0
  0
BLOCK_RECORD
  5
1E
330
1
100
AcDbSymbolTableRecord
100
AcDbBlockTableRecord
  2
*Paper_Space
 70
    0
280
    1
281
    0
  0
BLOCK_RECORD
  5
4F
330
1
100
AcDbSymbolTableRecord
100
AcDbBlockTableRecord
  2
Block_0
 70
    0
280
    1
281
    0
  0
BLOCK_RECORD
  5
52
330
1
100
AcDbSymbolTableRecord
100
AcDbBlockTableRecord
  2
Block_1
 70
    0
280
    1
281
    0
  0
BLOCK_RECORD
  5
55
330
1
100
AcDbSymbolTableRecord
100
AcDbBlockTableRecord
  2
Block_2
 70
    0
280
    1
281
    0
  0
BLOCK_RECORD
  5
58
330
1
100
AcDbSymbolTableRecord
100
AcDbBlockTableRecord
  2
Block_3
 70
    0
280
    1
281
    0
  0
BLOCK_RECORD
  5
5B
330
1
100
AcDbSymbolTableRecord
100
AcDbBlockTableRecord
  2
Block_4
 70
    0
280
    1
281
    0
  0
BLOCK_RECORD
  5
5E
330
1
100
AcDbSymbolTableRecord
100
AcDbBlockTableRecord
  2
Block_5
 70
    0
280
    1
281
    0
  0
BLOCK_RECORD
  5
61
330
1
100
AcDbSymbolTableRecord
100
AcDbBlockTableRecord
  2
Block_6
 70
    0
280
    1
281
    0
  0
BLOCK_RECORD
  5
64
330
1
100
AcDbSymbolTableRecord
100
AcDbBlockTableRecord
  2
Block_7
 70
    0
280
    1
281
    0
  0
BLOCK_RECORD
  5
67
330
1
100
AcDbSymbolTableRecord
100
AcDbBlockTableRecord
  2
nsec2023
 70
    0
280
    1
281
    0
  0
BLOCK_RECORD
  5
6A
330
1
100
AcDbSymbolTableRecord
100
AcDbBlockTableRecord
  2
Block_0-0
 70
    0
280
    1
281
    0
  0
BLOCK_RECORD
  5
6D
330
1
100
AcDbSymbolTableRecord
100
AcDbBlockTableRecord
  2
nsec2023-0
 70
    0
280
    1
281
    0
  0
BLOCK_RECORD
  5
70
330
1
100
AcDbSymbolTableRecord
100
AcDbBlockTableRecord
  2
Block_0-1
 70
    0
280
    1
281
    0
  0
BLOCK_RECORD
  5
73
330
1
100
AcDbSymbolTableRecord
100
AcDbBlockTableRecord
  2
crest
 70
    0
280
    1
281
    0
  0
BLOCK_RECORD
  5
76
330
1
100
AcDbSymbolTableRecord
100
AcDbBlockTableRecord
  2
Block_0-2
 70
    0
280
    1
281
    0
  0
BLOCK_RECORD
  5
79
330
1
100
AcDbSymbolTableRecord
100
AcDbBlockTableRecord
  2
Block_1-0
 70
    0
280
    1
281
    0
  0
BLOCK_RECORD
  5
7C
330
1
100
AcDbSymbolTableRecord
100
AcDbBlockTableRecord
  2
OLEDnote
 70
    0
280
    1
281
    0
  0
ENDTAB
  0
ENDSEC
  0
SECTION
  2
BLOCKS
  0
BLOCK
  5
20
330
1F
100
AcDbEntity
  8
0
100
AcDbBlockBegin
  2
*Model_Space
 70
    0
 10
0
 20
0
 30
0
  3
*Model_Space
  1

  0
ENDBLK
  5
21
330
1F
100
AcDbEntity
  8
0
100
AcDbBlockEnd
  0
BLOCK
  5
1C
330
1B
100
AcDbEntity
  8
0
100
AcDbBlockBegin
  2
*Paper_Space
 70
    0
 10
0
 20
0
 30
0
  3
*Paper_Space
  1

  0
ENDBLK
  5
1D
330
1F
100
AcDbEntity
  8
0
100
AcDbBlockEnd
  0
BLOCK
  5
50
330
4F
100
AcDbEntity
  8
0
100
AcDbBlockBegin
  2
Block_0
 70
    0
 10
0
 20
0
  3
Block_0
  1

  0
ENDBLK
  5
51
330
4F
100
AcDbEntity
  8
0
100
AcDbBlockEnd
  0
BLOCK
  5
53
330
52
100
AcDbEntity
  8
0
100
AcDbBlockBegin
  2
Block_1
 70
    0
 10
0
 20
0
  3
Block_1
  1

  0
ENDBLK
  5
54
330
52
100
AcDbEntity
  8
0
100
AcDbBlockEnd
  0
BLOCK
  5
56
330
55
100
AcDbEntity
  8
0
100
AcDbBlockBegin
  2
Block_2
 70
    0
 10
0
 20
0
  3
Block_2
  1

  0
ENDBLK
  5
57
330
55
100
AcDbEntity
  8
0
100
AcDbBlockEnd
  0
BLOCK
  5
59
330
58
100
AcDbEntity
  8
0
100
AcDbBlockBegin
  2
Block_3
 70
    0
 10
0
 20
0
  3
Block_3
  1

  0
ENDBLK
  5
5A
330
58
100
AcDbEntity
  8
0
100
AcDbBlockEnd
  0
BLOCK
  5
5C
330
5B
100
AcDbEntity
  8
0
100
AcDbBlockBegin
  2
Block_4
 70
    0
 10
0
 20
0
  3
Block_4
  1

  0
ENDBLK
  5
5D
330
5B
100
AcDbEntity
  8
0
100
AcDbBlockEnd
  0
BLOCK
  5
5F
330
5E
100
AcDbEntity
  8
0
100
AcDbBlockBegin
  2
Block_5
 70
    0
 10
0
 20
0
  3
Block_5
  1

  0
SPLINE
  5
7F
100
AcDbEntity
  8
outline
  6
ByLayer
 62
  133
370
   25
100
AcDbSpline
210
0
220
0
230
0
 70
   11
 71
    3
 72
   41
 73
   37
 74
    0
 42
1e-07
 43
1e-07
 40
0
 40
0
 40
0
 40
0
 40
1
 40
1
 40
1
 40
2
 40
2
 40
2
 40
3
 40
3
 40
3
 40
4
 40
4
 40
4
 40
5
 40
5
 40
5
 40
6
 40
6
 40
6
 40
7
 40
7
 40
7
 40
8
 40
8
 40
8
 40
9
 40
9
 40
9
 40
10
 40
10
 40
10
 40
11
 40
11
 40
11
 40
12
 40
12
 40
12
 40
12
 10
232.4936491046447
 20
-587.298720035411
 30
0
 10
232.4936491046447
 20
-587.298720035411
 30
0
 10
252.2364652379983
 20
-591.8980192194667
 30
0
 10
252.2364652379983
 20
-591.8980192194667
 30
0
 10
252.2364652379983
 20
-591.8980192194667
 30
0
 10
252.2876432327375
 20
-591.8468412247238
 30
0
 10
252.2876432327375
 20
-591.8468412247238
 30
0
 10
252.2876432327375
 20
-591.8468412247238
 30
0
 10
240.1165855740337
 20
-579.6757835660173
 30
0
 10
240.1165855740337
 20
-579.6757835660173
 30
0
 10
240.1165855740337
 20
-579.6757835660173
 30
0
 10
243.8515452913343
 20
-575.9408238487158
 30
0
 10
243.8515452913343
 20
-575.9408238487158
 30
0
 10
243.8515452913343
 20
-575.9408238487158
 30
0
 10
261.9933690033085
 20
-594.0826475606844
 30
0
 10
261.9933690033085
 20
-594.0826475606844
 30
0
 10
261.9933690033085
 20
-594.0826475606844
 30
0
 10
258.0040701606222
 20
-598.0719464033828
 30
0
 10
258.0040701606222
 20
-598.0719464033828
 30
0
 10
258.0040701606222
 20
-598.0719464033828
 30
0
 10
238.3124320220058
 20
-593.4731641687612
 30
0
 10
238.3124320220058
 20
-593.4731641687612
 30
0
 10
238.3124320220058
 20
-593.4731641687612
 30
0
 10
238.2617709767073
 20
-593.523825214057
 30
0
 10
238.2617709767073
 20
-593.523825214057
 30
0
 10
238.2617709767073
 20
-593.523825214057
 30
0
 10
250.4069811633226
 20
-605.6690354006696
 30
0
 10
250.4069811633226
 20
-605.6690354006696
 30
0
 10
250.4069811633226
 20
-605.6690354006696
 30
0
 10
246.6715044965749
 20
-609.4045120674162
 30
0
 10
246.6715044965749
 20
-609.4045120674162
 30
0
 10
246.6715044965749
 20
-609.4045120674162
 30
0
 10
228.5296807846052
 20
-591.2626883554476
 30
0
 10
228.5296807846052
 20
-591.2626883554476
 30
0
 10
228.5296807846052
 20
-591.2626883554476
 30
0
 10
232.4936491046447
 20
-587.298720035411
 30
0
 10
232.4936491046447
 20
-587.298720035411
 30
0
  0
SPLINE
  5
80
100
AcDbEntity
  8
outline
  6
ByLayer
 62
  133
370
   25
100
AcDbSpline
210
0
220
0
230
0
 70
   11
 71
    3
 72
   53
 73
   49
 74
    0
 42
1e-07
 43
1e-07
 40
0
 40
0
 40
0
 40
0
 40
1
 40
1
 40
1
 40
2
 40
2
 40
2
 40
3
 40
3
 40
3
 40
4
 40
4
 40
4
 40
5
 40
5
 40
5
 40
6
 40
6
 40
6
 40
7
 40
7
 40
7
 40
8
 40
8
 40
8
 40
9
 40
9
 40
9
 40
10
 40
10
 40
10
 40
11
 40
11
 40
11
 40
12
 40
12
 40
12
 40
13
 40
13
 40
13
 40
14
 40
14
 40
14
 40
15
 40
15
 40
15
 40
16
 40
16
 40
16
 40
16
 10
263.4537511765102
 20
-582.5851750246983
 30
0
 10
264.0559972762576
 20
-582.9837430443549
 30
0
 10
264.677887454789
 20
-583.2592770968658
 30
0
 10
265.3220064593242
 20
-583.4112602327587
 30
0
 10
265.9656085144197
 20
-583.5637603181038
 30
0
 10
266.6092105695143
 20
-583.5549721775951
 30
0
 10
267.25229567516
 20
-583.3854127606683
 30
0
 10
267.8969316291368
 20
-583.2163702931829
 30
0
 10
268.5229574032064
 20
-582.8260734645992
 30
0
 10
269.1324407951397
 20
-582.2165900726631
 30
0
 10
269.7424411365082
 20
-581.6065897312873
 30
0
 10
270.1368735606375
 20
-580.976428361695
 30
0
 10
270.3141872191836
 20
-580.3235212166419
 30
0
 10
270.4925347766184
 20
-579.6716479704827
 30
0
 10
270.5054585126691
 20
-579.0239103198581
 30
0
 10
270.3529584273201
 20
-578.3803082647592
 30
0
 10
270.2004583419803
 20
-577.7367062096727
 30
0
 10
269.9254412389227
 20
-577.1142990816952
 30
0
 10
269.5268732192598
 20
-576.5120529819505
 30
0
 10
269.1288221490413
 20
-575.9113577305288
 30
0
 10
268.6671862974763
 20
-575.3473658894781
 30
0
 10
268.1419656645658
 20
-574.8221452565704
 30
0
 10
267.6177789305366
 20
-574.2979585225384
 30
0
 10
267.0496514939559
 20
-573.8321870754407
 30
0
 10
266.4396511525847
 20
-573.4248309152754
 30
0
 10
265.8301677606514
 20
-573.0190256034221
 30
0
 10
265.2077606326766
 20
-572.7440085003709
 30
0
 10
264.5724297686547
 20
-572.599779606091
 30
0
 10
263.9370989046356
 20
-572.4555507118184
 30
0
 10
263.2893612540047
 20
-572.4684744478654
 30
0
 10
262.6281829178934
 20
-572.6375169153453
 30
0
 10
261.9680384806652
 20
-572.8075932817136
 30
0
 10
261.3327076166342
 20
-573.196856211416
 30
0
 10
260.7227072752658
 20
-573.8068565527919
 30
0
 10
260.1132238833297
 20
-574.4163399447224
 30
0
 10
259.7280965491582
 20
-575.0475352132089
 30
0
 10
259.5662913738661
 20
-575.6994084593734
 30
0
 10
259.4060370468942
 20
-576.3517986549723
 30
0
 10
259.3972489063836
 20
-576.9954007100714
 30
0
 10
259.5414778006598
 20
-577.6307315740905
 30
0
 10
259.6851897454881
 20
-578.266579387562
 30
0
 10
259.9607237979953
 20
-578.8884695660926
 30
0
 10
260.3665291098314
 20
-579.4979529580232
 30
0
 10
260.773885270005
 20
-580.1079532993934
 30
0
 10
261.2396567171036
 20
-580.6760807359769
 30
0
 10
261.7638434511382
 20
-581.2002674700034
 30
0
 10
262.2890640840414
 20
-581.7254881029166
 30
0
 10
262.8530559250876
 20
-582.1871239544761
 30
0
 10
263.4537511765102
 20
-582.5851750246983
 30
0
  0
SPLINE
  5
81
100
AcDbEntity
  8
outline
  6
ByLayer
 62
  133
370
   25
100
AcDbSpline
210
0
220
0
230
0
 70
   11
 71
    3
 72
   53
 73
   49
 74
    0
 42
1e-07
 43
1e-07
 40
0
 40
0
 40
0
 40
0
 40
1
 40
1
 40
1
 40
2
 40
2
 40
2
 40
3
 40
3
 40
3
 40
4
 40
4
 40
4
 40
5
 40
5
 40
5
 40
6
 40
6
 40
6
 40
7
 40
7
 40
7
 40
8
 40
8
 40
8
 40
9
 40
9
 40
9
 40
10
 40
10
 40
10
 40
11
 40
11
 40
11
 40
12
 40
12
 40
12
 40
13
 40
13
 40
13
 40
14
 40
14
 40
14
 40
15
 40
15
 40
15
 40
16
 40
16
 40
16
 40
16
 10
255.7811875607076
 20
-581.4675303314343
 30
0
 10
255.2466618378394
 20
-580.2899195029275
 30
0
 10
254.9757803303128
 20
-579.1050713822223
 30
0
 10
254.9675091392428
 20
-577.9098842726871
 30
0
 10
254.9592379481728
 20
-576.7167649609145
 30
0
 10
255.2047889330488
 20
-575.5386371829663
 30
0
 10
255.704162093868
 20
-574.3775687365869
 30
0
 10
256.2040522041334
 20
-573.2180511385358
 30
0
 10
256.9701712769347
 20
-572.1210844229518
 30
0
 10
258.0035532111824
 20
-571.0877024887103
 30
0
 10
259.0369351454219
 20
-570.0543205544691
 30
0
 10
260.1385544059803
 20
-569.2835489366862
 30
0
 10
261.3068601445484
 20
-568.7748706859129
 30
0
 10
262.4761997819887
 20
-568.2672263340264
 30
0
 10
263.657946206039
 20
-568.0180567030511
 30
0
 10
264.8515824672486
 20
-568.0258109446841
 30
0
 10
266.0462526273432
 20
-568.0345990851965
 30
0
 10
267.2311007480448
 20
-568.3054805927148
 30
0
 10
268.4092285259967
 20
-568.8394893661425
 30
0
 10
269.585805455632
 20
-569.372981190123
 30
0
 10
270.7003484522374
 20
-570.164947735022
 30
0
 10
271.7497558191799
 20
-571.2143551019616
 30
0
 10
272.8001970849991
 20
-572.2647963677773
 30
0
 10
273.5880280343645
 20
-573.3752037688555
 30
0
 10
274.1132486672777
 20
-574.5435095074153
 30
0
 10
274.6379523507476
 20
-575.712332195415
 30
0
 10
274.9057321616165
 20
-576.8940786194725
 30
0
 10
274.9134864032458
 20
-578.0877148806793
 30
0
 10
274.9222745437601
 20
-579.2823850407748
 30
0
 10
274.6689693172584
 20
-580.4599958692943
 30
0
 10
274.1520198754169
 20
-581.6200304167796
 30
0
 10
273.6350704335764
 20
-582.7800649642776
 30
0
 10
272.8591293213703
 20
-583.8765147304219
 30
0
 10
271.8257473871272
 20
-584.9098966646561
 30
0
 10
270.7923654528859
 20
-585.943278598892
 30
0
 10
269.7005682317231
 20
-586.7145671661218
 30
0
 10
268.5493218247393
 20
-587.2227284674555
 30
0
 10
267.3975584683112
 20
-587.7314067182288
 30
0
 10
266.2235662858957
 20
-587.9810932986384
 30
0
 10
265.0294130752427
 20
-587.9717882086842
 30
0
 10
263.8352598645888
 20
-587.9645509164983
 30
0
 10
262.653513440544
 20
-587.6967711056204
 30
0
 10
261.4852077019805
 20
-587.171550472718
 30
0
 10
260.3163850139736
 20
-586.6468467892391
 30
0
 10
259.2064945623461
 20
-585.8584988904331
 30
0
 10
258.1560532965268
 20
-584.8080576246174
 30
0
 10
257.1066459295844
 20
-583.7586502576778
 30
0
 10
256.3141624352393
 20
-582.6446242105085
 30
0
 10
255.7811875607076
 20
-581.4675303314343
 30
0
  0
SPLINE
  5
82
100
AcDbEntity
  8
outline
  6
ByLayer
 62
  133
370
   25
100
AcDbSpline
210
0
220
0
230
0
 70
   11
 71
    3
 72
   59
 73
   55
 74
    0
 42
1e-07
 43
1e-07
 40
0
 40
0
 40
0
 40
0
 40
1
 40
1
 40
1
 40
2
 40
2
 40
2
 40
3
 40
3
 40
3
 40
4
 40
4
 40
4
 40
5
 40
5
 40
5
 40
6
 40
6
 40
6
 40
7
 40
7
 40
7
 40
8
 40
8
 40
8
 40
9
 40
9
 40
9
 40
10
 40
10
 40
10
 40
11
 40
11
 40
11
 40
12
 40
12
 40
12
 40
13
 40
13
 40
13
 40
14
 40
14
 40
14
 40
15
 40
15
 40
15
 40
16
 40
16
 40
16
 40
17
 40
17
 40
17
 40
18
 40
18
 40
18
 40
18
 10
270.9371112966028
 20
-558.865466835261
 30
0
 10
270.9371112966028
 20
-558.865466835261
 30
0
 10
273.3771126620932
 20
-561.3054682007458
 30
0
 10
273.3771126620932
 20
-561.3054682007458
 30
0
 10
273.3771126620932
 20
-561.3054682007458
 30
0
 10
273.4277737073981
 20
-561.2548071554447
 30
0
 10
273.4277737073981
 20
-561.2548071554447
 30
0
 10
273.1894600147098
 20
-560.6784085277941
 30
0
 10
273.0421294237785
 20
-560.0730607313963
 30
0
 10
272.9826802379666
 20
-559.4377298673771
 30
0
 10
272.9232310521547
 20
-558.8023990033525
 30
0
 10
272.956832765878
 20
-558.1753393304007
 30
0
 10
273.084519278008
 20
-557.5575847474028
 30
0
 10
273.2106549418186
 20
-556.9393132149598
 30
0
 10
273.418985566881
 20
-556.3505078007018
 30
0
 10
273.7069264059883
 20
-555.7916854540744
 30
0
 10
273.9948672450937
 20
-555.2328631074397
 30
0
 10
274.3670708432173
 20
-554.7241848566719
 30
0
 10
274.8245710992524
 20
-554.2666846006396
 30
0
 10
275.0618508930547
 20
-554.0294048068371
 30
0
 10
275.3663341143001
 20
-553.8097012940489
 30
0
 10
275.739571611306
 20
-553.6060232139607
 30
0
 10
275.739571611306
 20
-553.6060232139607
 30
0
 10
279.0935395899742
 20
-556.9599911926324
 30
0
 10
279.0935395899742
 20
-556.9599911926324
 30
0
 10
278.8898615098887
 20
-557.0954319463981
 30
0
 10
278.6577512105068
 20
-557.2696439082919
 30
0
 10
278.3946239446068
 20
-557.4810762300075
 30
0
 10
278.1314966787086
 20
-557.6925085517213
 30
0
 10
277.8905982388096
 20
-557.9085934184095
 30
0
 10
277.6703777765906
 20
-558.1288138806375
 30
0
 10
277.0097163899118
 20
-558.7894752673055
 30
0
 10
276.5615212238354
 20
-559.4589247944914
 30
0
 10
276.3242414300348
 20
-560.1366455127517
 30
0
 10
276.0869616362234
 20
-560.8143662309994
 30
0
 10
276.0187243098999
 20
-561.4822649098568
 30
0
 10
276.1205633499439
 20
-562.1434432459718
 30
0
 10
276.2224023899926
 20
-562.804621582085
 30
0
 10
276.467953374864
 20
-563.4482236371769
 30
0
 10
276.8572163045692
 20
-564.0742494112473
 30
0
 10
277.246996183715
 20
-564.7018260336408
 30
0
 10
277.7380981534643
 20
-565.3107924761352
 30
0
 10
278.3315561127047
 20
-565.9042504353674
 30
0
 10
278.3315561127047
 20
-565.9042504353674
 30
0
 10
284.251661120662
 20
-571.824355443332
 30
0
 10
284.251661120662
 20
-571.824355443332
 30
0
 10
284.251661120662
 20
-571.824355443332
 30
0
 10
280.643354016609
 20
-575.4326625473877
 30
0
 10
280.643354016609
 20
-575.4326625473877
 30
0
 10
280.643354016609
 20
-575.4326625473877
 30
0
 10
267.5066348005466
 20
-562.2959433313171
 30
0
 10
267.5066348005466
 20
-562.2959433313171
 30
0
 10
267.5066348005466
 20
-562.2959433313171
 30
0
 10
270.9371112966028
 20
-558.865466835261
 30
0
 10
270.9371112966028
 20
-558.865466835261
 30
0
  0
SPLINE
  5
83
100
AcDbEntity
  8
outline
  6
ByLayer
 62
  133
370
   25
100
AcDbSpline
210
0
220
0
230
0
 70
   11
 71
    3
 72
   71
 73
   67
 74
    0
 42
1e-07
 43
1e-07
 40
0
 40
0
 40
0
 40
0
 40
1
 40
1
 40
1
 40
2
 40
2
 40
2
 40
3
 40
3
 40
3
 40
4
 40
4
 40
4
 40
5
 40
5
 40
5
 40
6
 40
6
 40
6
 40
7
 40
7
 40
7
 40
8
 40
8
 40
8
 40
9
 40
9
 40
9
 40
10
 40
10
 40
10
 40
11
 40
11
 40
11
 40
12
 40
12
 40
12
 40
13
 40
13
 40
13
 40
14
 40
14
 40
14
 40
15
 40
15
 40
15
 40
16
 40
16
 40
16
 40
17
 40
17
 40
17
 40
18
 40
18
 40
18
 40
19
 40
19
 40
19
 40
20
 40
20
 40
20
 40
21
 40
21
 40
21
 40
22
 40
22
 40
22
 40
22
 10
284.6068053872114
 20
-545.1957727446496
 30
0
 10
284.6068053872114
 20
-545.1957727446496
 30
0
 10
287.0209592806077
 20
-547.6099266380515
 30
0
 10
287.0209592806077
 20
-547.6099266380515
 30
0
 10
287.0209592806077
 20
-547.6099266380515
 30
0
 10
284.3788306833567
 20
-550.2520552353017
 30
0
 10
284.3788306833567
 20
-550.2520552353017
 30
0
 10
284.3788306833567
 20
-550.2520552353017
 30
0
 10
290.8830885606003
 20
-556.7563131125443
 30
0
 10
290.8830885606003
 20
-556.7563131125443
 30
0
 10
291.4930889019743
 20
-557.3663134539219
 30
0
 10
292.0007332538644
 20
-557.6713136246071
 30
0
 10
292.4075724645872
 20
-557.6718305740487
 30
0
 10
292.8149286247608
 20
-557.6718305740487
 30
0
 10
293.3225729766436
 20
-557.3668304033617
 30
0
 10
293.9325733180212
 20
-556.756830061986
 30
0
 10
294.1357344486659
 20
-556.5536689313448
 30
0
 10
294.3218362477292
 20
-556.3510247501436
 30
0
 10
294.4908787152117
 20
-556.1468297206138
 30
0
 10
294.6604381321358
 20
-555.9441855394197
 30
0
 10
294.8134551669191
 20
-555.7415413582185
 30
0
 10
294.948895920681
 20
-555.5378632781303
 30
0
 10
294.948895920681
 20
-555.5378632781303
 30
0
 10
297.7435246032746
 20
-558.3324919607203
 30
0
 10
297.7435246032746
 20
-558.3324919607203
 30
0
 10
297.4897024273287
 20
-558.6876362272668
 30
0
 10
297.1847022566517
 20
-559.0608737242765
 30
0
 10
296.8285240912119
 20
-559.4501366539788
 30
0
 10
296.4723459257893
 20
-559.8393995836868
 30
0
 10
296.1177186086898
 20
-560.2126370807018
 30
0
 10
295.7620573927016
 20
-560.5682982966881
 30
0
 10
295.2027180966297
 20
-561.1276375927572
 30
0
 10
294.6351076094907
 20
-561.6187395625092
 30
0
 10
294.0592259312725
 20
-562.0416042059333
 30
0
 10
293.4838612025096
 20
-562.4660196976837
 30
0
 10
292.8945388388029
 20
-562.7575791828822
 30
0
 10
292.2933266379487
 20
-562.9183504592947
 30
0
 10
291.6921144370826
 20
-563.0791217357073
 30
0
 10
291.0774615507362
 20
-563.0672318985416
 30
0
 10
290.4514357766693
 20
-562.8806131500405
 30
0
 10
289.8248930531554
 20
-562.6945113509792
 30
0
 10
289.1812909980636
 20
-562.2711297581099
 30
0
 10
288.5206296113866
 20
-561.6104683714365
 30
0
 10
288.5206296113866
 20
-561.6104683714365
 30
0
 10
280.7705235793046
 20
-553.8603623393574
 30
0
 10
280.7705235793046
 20
-553.8603623393574
 30
0
 10
280.7705235793046
 20
-553.8603623393574
 30
0
 10
278.5853782886507
 20
-556.0455076300168
 30
0
 10
278.5853782886507
 20
-556.0455076300168
 30
0
 10
278.5853782886507
 20
-556.0455076300168
 30
0
 10
276.1712243952425
 20
-553.6313537366149
 30
0
 10
276.1712243952425
 20
-553.6313537366149
 30
0
 10
276.1712243952425
 20
-553.6313537366149
 30
0
 10
278.3563696859055
 20
-551.4462084459554
 30
0
 10
278.3563696859055
 20
-551.4462084459554
 30
0
 10
278.3563696859055
 20
-551.4462084459554
 30
0
 10
274.4182488379601
 20
-547.5080875980129
 30
0
 10
274.4182488379601
 20
-547.5080875980129
 30
0
 10
274.4182488379601
 20
-547.5080875980129
 30
0
 10
278.0265559420104
 20
-543.8997804939572
 30
0
 10
278.0265559420104
 20
-543.8997804939572
 30
0
 10
278.0265559420104
 20
-543.8997804939572
 30
0
 10
281.9646767899576
 20
-547.8379013419052
 30
0
 10
281.9646767899576
 20
-547.8379013419052
 30
0
 10
281.9646767899576
 20
-547.8379013419052
 30
0
 10
284.6068053872114
 20
-545.1957727446496
 30
0
 10
284.6068053872114
 20
-545.1957727446496
 30
0
  0
SPLINE
  5
84
100
AcDbEntity
  8
outline
  6
ByLayer
 62
  133
370
   25
100
AcDbSpline
210
0
220
0
230
0
 70
   11
 71
    3
 72
   62
 73
   58
 74
    0
 42
1e-07
 43
1e-07
 40
0
 40
0
 40
0
 40
0
 40
1
 40
1
 40
1
 40
2
 40
2
 40
2
 40
3
 40
3
 40
3
 40
4
 40
4
 40
4
 40
5
 40
5
 40
5
 40
6
 40
6
 40
6
 40
7
 40
7
 40
7
 40
8
 40
8
 40
8
 40
9
 40
9
 40
9
 40
10
 40
10
 40
10
 40
11
 40
11
 40
11
 40
12
 40
12
 40
12
 40
13
 40
13
 40
13
 40
14
 40
14
 40
14
 40
15
 40
15
 40
15
 40
16
 40
16
 40
16
 40
17
 40
17
 40
17
 40
18
 40
18
 40
18
 40
19
 40
19
 40
19
 40
19
 10
284.9376530299887
 20
-534.8547161100614
 30
0
 10
284.9376530299887
 20
-534.8547161100614
 30
0
 10
291.7727585500061
 20
-541.6898216300905
 30
0
 10
291.7727585500061
 20
-541.6898216300905
 30
0
 10
291.7727585500061
 20
-541.6898216300905
 30
0
 10
291.8487501179588
 20
-541.6138300621351
 30
0
 10
291.8487501179588
 20
-541.6138300621351
 30
0
 10
291.5432329978348
 20
-540.393312429951
 30
0
 10
291.573216065457
 20
-539.2549897590142
 30
0
 10
291.9376654219614
 20
-538.1957603526862
 30
0
 10
292.3015978290095
 20
-537.1370478957905
 30
0
 10
292.8221659169494
 20
-536.2690897829434
 30
0
 10
293.4998866351998
 20
-535.5913690646884
 30
0
 10
294.4655481925611
 20
-534.6257075073299
 30
0
 10
295.3883029462468
 20
-533.9655630700926
 30
0
 10
296.269701744589
 20
-533.6093849046647
 30
0
 10
297.1505835934813
 20
-533.2537236886783
 30
0
 10
298.001482374757
 20
-533.1306897215254
 30
0
 10
298.8234319872827
 20
-533.2413169020765
 30
0
 10
299.6453815998066
 20
-533.3519440826294
 30
0
 10
300.4616447684739
 20
-533.6688340904802
 30
0
 10
301.2748062404953
 20
-534.1935377739464
 30
0
 10
302.0884846619519
 20
-534.7197923057429
 30
0
 10
302.9011291845263
 20
-535.3876909846003
 30
0
 10
303.714807605983
 20
-536.2013694060551
 30
0
 10
303.714807605983
 20
-536.2013694060551
 30
0
 10
311.7947273819591
 20
-544.2812891820394
 30
0
 10
311.7947273819591
 20
-544.2812891820394
 30
0
 10
311.7947273819591
 20
-544.2812891820394
 30
0
 10
308.1864202779089
 20
-547.8895962860879
 30
0
 10
308.1864202779089
 20
-547.8895962860879
 30
0
 10
308.1864202779089
 20
-547.8895962860879
 30
0
 10
300.7671618886034
 20
-540.4703378967824
 30
0
 10
300.7671618886034
 20
-540.4703378967824
 30
0
 10
299.6826019596265
 20
-539.3857779678
 30
0
 10
298.7045336156553
 20
-538.7468284576825
 30
0
 10
297.8324399072708
 20
-538.5519385181068
 30
0
 10
296.9598292494429
 20
-538.3575655279801
 30
0
 10
296.0923880860327
 20
-538.6915148674051
 30
0
 10
295.2285655687246
 20
-539.5553373847251
 30
0
 10
294.2458446797791
 20
-540.5380582736706
 30
0
 10
293.8255647835613
 20
-541.541457140278
 30
0
 10
293.9708275767161
 20
-542.566567883452
 30
0
 10
294.1140225721101
 20
-543.5916786266207
 30
0
 10
294.855845021154
 20
-544.7729081012258
 30
0
 10
296.1937101766307
 20
-546.1107732567125
 30
0
 10
296.1937101766307
 20
-546.1107732567125
 30
0
 10
303.0794767419639
 20
-552.9965398220374
 30
0
 10
303.0794767419639
 20
-552.9965398220374
 30
0
 10
303.0794767419639
 20
-552.9965398220374
 30
0
 10
299.4711696379054
 20
-556.6048469260858
 30
0
 10
299.4711696379054
 20
-556.6048469260858
 30
0
 10
299.4711696379054
 20
-556.6048469260858
 30
0
 10
281.329345925933
 20
-538.4630232141171
 30
0
 10
281.329345925933
 20
-538.4630232141171
 30
0
 10
281.329345925933
 20
-538.4630232141171
 30
0
 10
284.9376530299887
 20
-534.8547161100614
 30
0
 10
284.9376530299887
 20
-534.8547161100614
 30
0
  0
SPLINE
  5
85
100
AcDbEntity
  8
outline
  6
ByLayer
 62
  133
370
   25
100
AcDbSpline
210
0
220
0
230
0
 70
   11
 71
    3
 72
  155
 73
  151
 74
    0
 42
1e-07
 43
1e-07
 40
0
 40
0
 40
0
 40
0
 40
1
 40
1
 40
1
 40
2
 40
2
 40
2
 40
3
 40
3
 40
3
 40
4
 40
4
 40
4
 40
5
 40
5
 40
5
 40
6
 40
6
 40
6
 40
7
 40
7
 40
7
 40
8
 40
8
 40
8
 40
9
 40
9
 40
9
 40
10
 40
10
 40
10
 40
11
 40
11
 40
11
 40
12
 40
12
 40
12
 40
13
 40
13
 40
13
 40
14
 40
14
 40
14
 40
15
 40
15
 40
15
 40
16
 40
16
 40
16
 40
17
 40
17
 40
17
 40
18
 40
18
 40
18
 40
19
 40
19
 40
19
 40
20
 40
20
 40
20
 40
21
 40
21
 40
21
 40
22
 40
22
 40
22
 40
23
 40
23
 40
23
 40
24
 40
24
 40
24
 40
25
 40
25
 40
25
 40
26
 40
26
 40
26
 40
27
 40
27
 40
27
 40
28
 40
28
 40
28
 40
29
 40
29
 40
29
 40
30
 40
30
 40
30
 40
31
 40
31
 40
31
 40
32
 40
32
 40
32
 40
33
 40
33
 40
33
 40
34
 40
34
 40
34
 40
35
 40
35
 40
35
 40
36
 40
36
 40
36
 40
37
 40
37
 40
37
 40
38
 40
38
 40
38
 40
39
 40
39
 40
39
 40
40
 40
40
 40
40
 40
41
 40
41
 40
41
 40
42
 40
42
 40
42
 40
43
 40
43
 40
43
 40
44
 40
44
 40
44
 40
45
 40
45
 40
45
 40
46
 40
46
 40
46
 40
47
 40
47
 40
47
 40
48
 40
48
 40
48
 40
49
 40
49
 40
49
 40
50
 40
50
 40
50
 40
50
 10
313.4975588433899
 20
-533.6352323767605
 30
0
 10
314.1401269995967
 20
-533.8383935074016
 30
0
 10
314.7754578636159
 20
-533.8895715021426
 30
0
 10
315.4025175365714
 20
-533.7877324621059
 30
0
 10
316.0295772095251
 20
-533.6858934220617
 30
0
 10
316.6514673880629
 20
-533.4527492237921
 30
0
 10
317.2702558699384
 20
-533.0882998672841
 30
0
 10
317.8885274023833
 20
-532.724367460236
 30
0
 10
318.460790434503
 20
-532.280307889694
 30
0
 10
318.9860110674126
 20
-531.7550872567843
 30
0
 10
319.3416722833972
 20
-531.3994260407979
 30
0
 10
319.6926809544111
 20
-530.9884512345343
 30
0
 10
320.0405879287664
 20
-530.5226797874365
 30
0
 10
320.3869440548006
 20
-530.0563913908917
 30
0
 10
320.6542069162333
 20
-529.5616707750578
 30
0
 10
320.8403087152965
 20
-529.036450142139
 30
0
 10
321.0269274638031
 20
-528.5107125597896
 30
0
 10
321.0905122451459
 20
-527.9818732807834
 30
0
 10
321.0310630593376
 20
-527.4478645073613
 30
0
 10
320.9710969240805
 20
-526.9143726833863
 30
0
 10
320.713656102047
 20
-526.4191351181016
 30
0
 10
320.255638896575
 20
-525.961117912635
 30
0
 10
319.7645369268212
 20
-525.4700159428775
 30
0
 10
319.2098501757318
 20
-525.2286005535352
 30
0
 10
318.591578643287
 20
-525.2368717446134
 30
0
 10
317.9727901614024
 20
-525.2456598851203
 30
0
 10
317.3090270780813
 20
-525.4028125154418
 30
0
 10
316.5971876966651
 20
-525.7072957366854
 30
0
 10
315.8853483152507
 20
-526.0117789579307
 30
0
 10
315.1311190796023
 20
-526.4103469775927
 30
0
 10
314.3355338886031
 20
-526.9019658967736
 30
0
 10
313.5389147987335
 20
-527.3925509170858
 30
0
 10
312.7185160345289
 20
-527.8758986452121
 30
0
 10
311.8707189499146
 20
-528.3494243339355
 30
0
 10
311.024472713616
 20
-528.8586195341504
 30
0
 10
310.1559976513236
 20
-529.3114672451956
 30
0
 10
309.2663276619151
 20
-529.7090013659762
 30
0
 10
308.3771746219481
 20
-530.1080863350797
 30
0
 10
307.4844029358865
 20
-530.3660441065512
 30
0
 10
306.5859448059691
 20
-530.4849424781768
 30
0
 10
305.6880036254934
 20
-530.6033239003609
 30
0
 10
304.7905793944555
 20
-530.5268153829765
 30
0
 10
303.89212126453
 20
-530.2548999765585
 30
0
 10
302.994180084057
 20
-529.9845354184818
 30
0
 10
302.1303575667371
 20
-529.4339842629142
 30
0
 10
301.3001367631459
 20
-528.6037634593195
 30
0
 10
300.3685938689432
 20
-527.672220565124
 30
0
 10
299.7591104770145
 20
-526.6646861029712
 30
0
 10
299.4706526884647
 20
-525.5801261739942
 30
0
 10
299.1832287988009
 20
-524.4966001438916
 30
0
 10
299.1325677534996
 20
-523.4037690238364
 30
0
 10
299.3181526031249
 20
-522.3021497632726
 30
0
 10
299.5047713516296
 20
-521.2015644015955
 30
0
 10
299.8950681802189
 20
-520.1350977030743
 30
0
 10
300.4869752911309
 20
-519.100681869957
 30
0
 10
301.0809501998001
 20
-518.0683338345988
 30
0
 10
301.7834844912704
 20
-517.1445451820273
 30
0
 10
302.5966459632818
 20
-516.3313837100104
 30
0
 10
303.5452481890597
 20
-515.3827814842371
 30
0
 10
304.5610538422788
 20
-514.5778912032856
 30
0
 10
305.6456137712558
 20
-513.9172298166141
 30
0
 10
306.7296567508019
 20
-513.2570853793821
 30
0
 10
307.8478183935058
 20
-512.825432595444
 30
0
 10
308.9990648004841
 20
-512.6212375659161
 30
0
 10
310.1508281569022
 20
-512.4185933847147
 30
0
 10
311.2948372717019
 20
-512.4863137615974
 30
0
 10
312.4300582459837
 20
-512.825432595444
 30
0
 10
313.5642453213841
 20
-513.1635175304109
 30
0
 10
314.6575933908789
 20
-513.8588145296798
 30
0
 10
315.707000757815
 20
-514.9082218966196
 30
0
 10
315.707000757815
 20
-514.9082218966196
 30
0
 10
311.8448714778224
 20
-518.7703511766176
 30
0
 10
311.8448714778224
 20
-518.7703511766176
 30
0
 10
311.2689897996042
 20
-518.2627068247328
 30
0
 10
310.7060318574477
 20
-517.9282405358535
 30
0
 10
310.1559976513236
 20
-517.7669523099994
 30
0
 10
309.6054464957597
 20
-517.6061810335922
 30
0
 10
309.0667851773669
 20
-517.5844691570383
 30
0
 10
308.5425984433441
 20
-517.7033675286565
 30
0
 10
308.0168608609893
 20
-517.8217489508406
 30
0
 10
307.504563964123
 20
-518.0466219580376
 30
0
 10
307.0046738538585
 20
-518.376952651377
 30
0
 10
306.5047837435959
 20
-518.707283344711
 30
0
 10
306.0095461783194
 20
-519.1177412015276
 30
0
 10
305.518444208561
 20
-519.6088431712795
 30
0
 10
305.196384706298
 20
-519.9309026735518
 30
0
 10
304.9084438671962
 20
-520.2870808389742
 30
0
 10
304.6551386406909
 20
-520.6768607181275
 30
0
 10
304.4002825658599
 20
-521.0661236478354
 30
0
 10
304.2271045028474
 20
-521.4770984540937
 30
0
 10
304.1340536033167
 20
-521.9092681874772
 30
0
 10
304.041002703786
 20
-522.3414379208552
 30
0
 10
304.0358332093647
 20
-522.7684381598173
 30
0
 10
304.1211298672688
 20
-523.1918197526865
 30
0
 10
304.2059095757322
 20
-523.6157182949974
 30
0
 10
304.4426724200985
 20
-524.0220405562795
 30
0
 10
304.8324522992443
 20
-524.411820435429
 30
0
 10
305.1881135152271
 20
-524.7674816514154
 30
0
 10
305.5442916806533
 20
-524.9882190630796
 30
0
 10
305.8994359472054
 20
-525.0714479232192
 30
0
 10
306.2561310620767
 20
-525.1572615305649
 30
0
 10
306.7255211552656
 20
-525.0931597997806
 30
0
 10
307.3096740245455
 20
-524.8812105286197
 30
0
 10
307.8943438432653
 20
-524.6708121057927
 30
0
 10
308.6315137473339
 20
-524.3058457998522
 30
0
 10
309.5206667873026
 20
-523.7888963580099
 30
0
 10
310.4093028778298
 20
-523.2724638656109
 30
0
 10
311.5662357286674
 20
-522.5911245012647
 30
0
 10
312.9888805926148
 20
-521.7433274166433
 30
0
 10
313.3957198033477
 20
-521.4729628585591
 30
0
 10
313.9876269142478
 20
-521.1250558842039
 30
0
 10
314.7671866725486
 20
-520.7011573418949
 30
0
 10
315.545712531959
 20
-520.2782926984709
 30
0
 10
316.4276282797382
 20
-519.9650213367077
 30
0
 10
317.4103491686801
 20
-519.7618602060647
 30
0
 10
318.3930700576238
 20
-519.5586990754236
 30
0
 10
319.4264519918615
 20
-519.5674872159324
 30
0
 10
320.5099780219589
 20
-519.7866737792792
 30
0
 10
321.5940210015014
 20
-520.007411190947
 30
0
 10
322.6444622673243
 20
-520.6256827233919
 30
0
 10
323.6607848699805
 20
-521.6420053260462
 30
0
 10
324.4910056735808
 20
-522.4722261296447
 30
0
 10
325.0999721160697
 20
-523.4037690238364
 30
0
 10
325.4897519952156
 20
-524.4366340086362
 30
0
 10
325.8790149249198
 20
-525.4700159428775
 30
0
 10
326.0149726281234
 20
-526.5623301134929
 30
0
 10
325.8965912059484
 20
-527.7146104193525
 30
0
 10
325.7782097837607
 20
-528.8668907252176
 30
0
 10
325.3930824495928
 20
-530.0563913908917
 30
0
 10
324.7401753045451
 20
-531.2841463152653
 30
0
 10
324.0883020583897
 20
-532.5129351385222
 30
0
 10
323.1433184786965
 20
-533.74534260787
 30
0
 10
321.9072923632575
 20
-534.9813687233127
 30
0
 10
320.907512142734
 20
-535.9811489438325
 30
0
 10
319.8151979721278
 20
-536.8273951801311
 30
0
 10
318.6298329019846
 20
-537.5226921794055
 30
0
 10
317.4444678318432
 20
-538.2179891786872
 30
0
 10
316.2286027446371
 20
-538.6625656986653
 30
0
 10
314.9837884886838
 20
-538.8569386887938
 30
0
 10
313.7384572832798
 20
-539.0518286283731
 30
0
 10
312.4977786228574
 20
-538.9546421333034
 30
0
 10
311.2607186085352
 20
-538.5643453047086
 30
0
 10
310.0246924930925
 20
-538.1750823750062
 30
0
 10
308.8558698050984
 20
-537.4125819483015
 30
0
 10
307.7542505445235
 20
-536.276844024569
 30
0
 10
307.7542505445235
 20
-536.276844024569
 30
0
 10
311.6163798245216
 20
-532.414714744571
 30
0
 10
311.6163798245216
 20
-532.414714744571
 30
0
 10
312.2263801658955
 20
-533.0247150859467
 30
0
 10
312.8529228894095
 20
-533.4320712461176
 30
0
 10
313.4975588433899
 20
-533.6352323767605
 30
0
  0
SPLINE
  5
86
100
AcDbEntity
  8
outline
  6
ByLayer
 62
  133
370
   25
100
AcDbSpline
210
0
220
0
230
0
 70
   11
 71
    3
 72
   26
 73
   22
 74
    0
 42
1e-07
 43
1e-07
 40
0
 40
0
 40
0
 40
0
 40
1
 40
1
 40
1
 40
2
 40
2
 40
2
 40
3
 40
3
 40
3
 40
4
 40
4
 40
4
 40
5
 40
5
 40
5
 40
6
 40
6
 40
6
 40
7
 40
7
 40
7
 40
7
 10
328.9073047552265
 20
-507.0449039367777
 30
0
 10
328.0010923836817
 20
-507.0019971331076
 30
0
 10
327.1072867987387
 20
-507.4222770293126
 30
0
 10
326.2269218992824
 20
-508.3026419287744
 30
0
 10
325.6510402210715
 20
-508.8785236069834
 30
0
 10
325.2695315329966
 20
-509.4544052851979
 30
0
 10
325.0829127844881
 20
-510.0297700139671
 30
0
 10
324.8973279348665
 20
-510.6061686416124
 30
0
 10
324.8332262040822
 20
-511.1520672522056
 30
0
 10
324.892675389885
 20
-511.6695336434932
 30
0
 10
324.9526415251458
 20
-512.1864830853264
 30
0
 10
325.0963534699768
 20
-512.6527714818657
 30
0
 10
325.3248451232685
 20
-513.0673649342225
 30
0
 10
325.553336776562
 20
-513.4819583865792
 30
0
 10
325.7854470759521
 20
-513.8246958665241
 30
0
 10
326.0232438191997
 20
-514.0955773740424
 30
0
 10
326.0232438191997
 20
-514.0955773740424
 30
0
 10
331.8926877818612
 20
-508.2261334113828
 30
0
 10
331.8926877818612
 20
-508.2261334113828
 30
0
 10
330.8081278528844
 20
-507.4806923162468
 30
0
 10
329.8140340762166
 20
-507.0872937910062
 30
0
 10
328.9073047552265
 20
-507.0449039367777
 30
0
  0
SPLINE
  5
87
100
AcDbEntity
  8
outline
  6
ByLayer
 62
  133
370
   25
100
AcDbSpline
210
0
220
0
230
0
 70
   11
 71
    3
 72
   65
 73
   61
 74
    0
 42
1e-07
 43
1e-07
 40
0
 40
0
 40
0
 40
0
 40
1
 40
1
 40
1
 40
2
 40
2
 40
2
 40
3
 40
3
 40
3
 40
4
 40
4
 40
4
 40
5
 40
5
 40
5
 40
6
 40
6
 40
6
 40
7
 40
7
 40
7
 40
8
 40
8
 40
8
 40
9
 40
9
 40
9
 40
10
 40
10
 40
10
 40
11
 40
11
 40
11
 40
12
 40
12
 40
12
 40
13
 40
13
 40
13
 40
14
 40
14
 40
14
 40
15
 40
15
 40
15
 40
16
 40
16
 40
16
 40
17
 40
17
 40
17
 40
18
 40
18
 40
18
 40
19
 40
19
 40
19
 40
20
 40
20
 40
20
 40
20
 10
331.7407046459557
 20
-518.0347321208773
 30
0
 10
332.8082052433619
 20
-518.0176727892976
 30
0
 10
333.8488244697874
 20
-517.5002063980101
 30
0
 10
334.8651470724472
 20
-516.4838837953557
 30
0
 10
335.5935288360033
 20
-515.7555020317996
 30
0
 10
336.0391392548718
 20
-514.9480270036438
 30
0
 10
336.1999105312825
 20
-514.0573231153576
 30
0
 10
336.3606818076951
 20
-513.1686870248249
 30
0
 10
336.2970970263541
 20
-512.4609832389433
 30
0
 10
336.0091561872432
 20
-511.9362795554771
 30
0
 10
336.0091561872432
 20
-511.9362795554771
 30
0
 10
339.1852935579154
 20
-508.7601421847994
 30
0
 10
339.1852935579154
 20
-508.7601421847994
 30
0
 10
340.2527941553162
 20
-510.8439653848672
 30
0
 10
340.5996672307956
 20
-512.7489240780541
 30
0
 10
340.2264297337824
 20
-514.4765691126831
 30
0
 10
339.8542261356579
 20
-516.2052480461989
 30
0
 10
338.922166292019
 20
-517.8134777597679
 30
0
 10
337.431801051187
 20
-519.3038430005872
 30
0
 10
336.3979021675059
 20
-520.3377418842809
 30
0
 10
335.3019693507995
 20
-521.1048948559728
 30
0
 10
334.1414178538635
 20
-521.6037510673503
 30
0
 10
332.9813833063818
 20
-522.1041581270511
 30
0
 10
331.8079080734005
 20
-522.3367853758809
 30
0
 10
330.6220260538193
 20
-522.3026667127124
 30
0
 10
329.4361440342364
 20
-522.2685480495564
 30
0
 10
328.2637027001347
 20
-521.9852597554273
 30
0
 10
327.1036681526402
 20
-521.4517679314521
 30
0
 10
325.9431166557097
 20
-520.9187930569115
 30
0
 10
324.853904181753
 20
-520.1428519447071
 30
0
 10
323.837581579086
 20
-519.1265293420474
 30
0
 10
322.8553776395947
 20
-518.1443254025489
 30
0
 10
322.1021823028313
 20
-517.0695875129604
 30
0
 10
321.5764447204765
 20
-515.8997309260667
 30
0
 10
321.0512240875687
 20
-514.731425187514
 30
0
 10
320.7767239339501
 20
-513.5419245218344
 30
0
 10
320.750876461856
 20
-512.3291611312779
 30
0
 10
320.7250289897656
 20
-511.1184655384786
 30
0
 10
320.9452494519919
 20
-509.9243123278301
 30
0
 10
321.4115378485312
 20
-508.7467014993217
 30
0
 10
321.8773092956326
 20
-507.5696076202439
 30
0
 10
322.6098266547178
 20
-506.4814290451741
 30
0
 10
323.6096068752449
 20
-505.4816488246469
 30
0
 10
324.7272515684981
 20
-504.3640041313901
 30
0
 10
325.9172691836211
 20
-503.6061562496415
 30
0
 10
327.1796597205957
 20
-503.208105179432
 30
0
 10
328.4415333081251
 20
-502.8105710586569
 30
0
 10
329.7039238451052
 20
-502.7082150691712
 30
0
 10
330.9652804832003
 20
-502.9025880593053
 30
0
 10
332.2276710201713
 20
-503.0979949483207
 30
0
 10
333.4430191579377
 20
-503.5430884177404
 30
0
 10
334.6118418459428
 20
-504.2373515181388
 30
0
 10
335.7806645339461
 20
-504.9316146185264
 30
0
 10
336.8388600413964
 20
-505.8212846079422
 30
0
 10
337.7879792166114
 20
-506.9048106380323
 30
0
 10
337.7879792166114
 20
-506.9048106380323
 30
0
 10
328.3102281498996
 20
-516.3825617047587
 30
0
 10
328.3102281498996
 20
-516.3825617047587
 30
0
 10
329.5291949337643
 20
-517.5002063980155
 30
0
 10
330.6732040485567
 20
-518.0517914524589
 30
0
 10
331.7407046459557
 20
-518.0347321208773
 30
0
  0
SPLINE
  5
88
100
AcDbEntity
  8
outline
  6
ByLayer
 62
  133
370
   25
100
AcDbSpline
210
0
220
0
230
0
 70
   11
 71
    3
 72
   86
 73
   82
 74
    0
 42
1e-07
 43
1e-07
 40
0
 40
0
 40
0
 40
0
 40
1
 40
1
 40
1
 40
2
 40
2
 40
2
 40
3
 40
3
 40
3
 40
4
 40
4
 40
4
 40
5
 40
5
 40
5
 40
6
 40
6
 40
6
 40
7
 40
7
 40
7
 40
8
 40
8
 40
8
 40
9
 40
9
 40
9
 40
10
 40
10
 40
10
 40
11
 40
11
 40
11
 40
12
 40
12
 40
12
 40
13
 40
13
 40
13
 40
14
 40
14
 40
14
 40
15
 40
15
 40
15
 40
16
 40
16
 40
16
 40
17
 40
17
 40
17
 40
18
 40
18
 40
18
 40
19
 40
19
 40
19
 40
20
 40
20
 40
20
 40
21
 40
21
 40
21
 40
22
 40
22
 40
22
 40
23
 40
23
 40
23
 40
24
 40
24
 40
24
 40
25
 40
25
 40
25
 40
26
 40
26
 40
26
 40
27
 40
27
 40
27
 40
27
 10
341.1166166726325
 20
-493.412947155426
 30
0
 10
340.5402180449801
 20
-493.9893457830767
 30
0
 10
340.1886924245264
 20
-494.603481719987
 30
0
 10
340.0620398112806
 20
-495.2553549661461
 30
0
 10
339.9348702485822
 20
-495.9077451617504
 30
0
 10
339.9555482262531
 20
-496.5632370540024
 30
0
 10
340.1256245926234
 20
-497.2244153901228
 30
0
 10
340.2941501106616
 20
-497.8850767767889
 30
0
 10
340.5789892531193
 20
-498.5162720452808
 30
0
 10
340.9765233738927
 20
-499.1174842461441
 30
0
 10
341.374574444113
 20
-499.7181794975658
 30
0
 10
341.8196679135308
 20
-500.2656289564765
 30
0
 10
342.3107698832864
 20
-500.756730926223
 30
0
 10
342.7842955720134
 20
-501.230256614941
 30
0
 10
343.3183043454319
 20
-501.6619093988829
 30
0
 10
343.9107284057846
 20
-502.0516892780269
 30
0
 10
344.5047033144601
 20
-502.4419861066217
 30
0
 10
345.1141867063871
 20
-502.7216557546544
 30
0
 10
345.7412463793426
 20
-502.8906982221396
 30
0
 10
346.3677891028565
 20
-503.060257639061
 30
0
 10
347.0026030174377
 20
-503.0768000212065
 30
0
 10
347.6467220219711
 20
-502.9413592674354
 30
0
 10
348.2903240770647
 20
-502.8064354631242
 30
0
 10
348.891019328481
 20
-502.4580115393218
 30
0
 10
349.4498416751103
 20
-501.8991891926871
 30
0
 10
350.3136641924302
 20
-501.0353666753726
 30
0
 10
350.7375627347355
 20
-500.1296712532639
 30
0
 10
350.7210203525956
 20
-499.1805520780526
 30
0
 10
350.7039610210213
 20
-498.2319498522683
 30
0
 10
350.3477828555933
 20
-497.2916188175513
 30
0
 10
349.6535197551984
 20
-496.3605928728029
 30
0
 10
349.6535197551984
 20
-496.3605928728029
 30
0
 10
353.1346572965595
 20
-492.8794553314437
 30
0
 10
353.1346572965595
 20
-492.8794553314437
 30
0
 10
354.6425988184073
 20
-494.8619564408982
 30
0
 10
355.2949890140153
 20
-496.8687541741346
 30
0
 10
355.0907939844837
 20
-498.9008824300144
 30
0
 10
354.8876328538354
 20
-500.9340445847701
 30
0
 10
353.9131831559698
 20
-502.8224608958171
 30
0
 10
352.1684787897539
 20
-504.5671652620367
 30
0
 10
351.1862748502553
 20
-505.5493692015297
 30
0
 10
350.1198081517414
 20
-506.2870560550345
 30
0
 10
348.9675278458726
 20
-506.7776410753395
 30
0
 10
347.8157644894527
 20
-507.2697769439801
 30
0
 10
346.6557299419619
 20
-507.507573687224
 30
0
 10
345.486907253955
 20
-507.4894804567612
 30
0
 10
344.3180845659554
 20
-507.4734550240555
 30
0
 10
343.1621856140009
 20
-507.2149803031388
 30
0
 10
342.0186934486446
 20
-506.7145732434364
 30
0
 10
340.8746843338467
 20
-506.2146831331774
 30
0
 10
339.8123532308655
 20
-505.4738945830213
 30
0
 10
338.8291153924856
 20
-504.4906567446414
 30
0
 10
337.8127927898276
 20
-503.4743341419762
 30
0
 10
337.0166906493905
 20
-502.3825369208061
 30
0
 10
336.4408089711815
 20
-501.2131972833667
 30
0
 10
335.8654442424086
 20
-500.045408494243
 30
0
 10
335.5470033862348
 20
-498.8543569802405
 30
0
 10
335.48807114987
 20
-497.643661387452
 30
0
 10
335.4291389134942
 20
-496.4329657946582
 30
0
 10
335.6359186902355
 20
-495.2336430895956
 30
0
 10
336.110478277842
 20
-494.0477610700035
 30
0
 10
336.5845209160125
 20
-492.862395999864
 30
0
 10
337.355809483237
 20
-491.7354462166513
 30
0
 10
338.4227931312016
 20
-490.668462568683
 30
0
 10
339.2018359400536
 20
-489.8894197598329
 30
0
 10
340.0527347213283
 20
-489.2411651597667
 30
0
 10
340.9765233738927
 20
-488.7247326673604
 30
0
 10
341.8997950770263
 20
-488.2088171244068
 30
0
 10
342.8525328983305
 20
-487.8743508355401
 30
0
 10
343.8347368378363
 20
-487.7213338007477
 30
0
 10
344.8179746762126
 20
-487.5693506648494
 30
0
 10
345.7955260707404
 20
-487.6236303562381
 30
0
 10
346.769458819168
 20
-487.8862406727058
 30
0
 10
347.7433915675956
 20
-488.1488509891514
 30
0
 10
348.6801039562106
 20
-488.6782072176047
 30
0
 10
349.577528187252
 20
-489.4743093580363
 30
0
 10
349.577528187252
 20
-489.4743093580363
 30
0
 10
346.0457296005898
 20
-493.006107944695
 30
0
 10
346.0457296005898
 20
-493.006107944695
 30
0
 10
344.3005082849304
 20
-491.7364801155327
 30
0
 10
342.6576429587622
 20
-491.8719208692983
 30
0
 10
341.1166166726325
 20
-493.412947155426
 30
0
  0
SPLINE
  5
89
100
AcDbEntity
  8
outline
  6
ByLayer
 62
  133
370
   25
100
AcDbSpline
210
0
220
0
230
0
 70
   11
 71
    3
 72
  101
 73
   97
 74
    0
 42
1e-07
 43
1e-07
 40
0
 40
0
 40
0
 40
0
 40
1
 40
1
 40
1
 40
2
 40
2
 40
2
 40
3
 40
3
 40
3
 40
4
 40
4
 40
4
 40
5
 40
5
 40
5
 40
6
 40
6
 40
6
 40
7
 40
7
 40
7
 40
8
 40
8
 40
8
 40
9
 40
9
 40
9
 40
10
 40
10
 40
10
 40
11
 40
11
 40
11
 40
12
 40
12
 40
12
 40
13
 40
13
 40
13
 40
14
 40
14
 40
14
 40
15
 40
15
 40
15
 40
16
 40
16
 40
16
 40
17
 40
17
 40
17
 40
18
 40
18
 40
18
 40
19
 40
19
 40
19
 40
20
 40
20
 40
20
 40
21
 40
21
 40
21
 40
22
 40
22
 40
22
 40
23
 40
23
 40
23
 40
24
 40
24
 40
24
 40
25
 40
25
 40
25
 40
26
 40
26
 40
26
 40
27
 40
27
 40
27
 40
28
 40
28
 40
28
 40
29
 40
29
 40
29
 40
30
 40
30
 40
30
 40
31
 40
31
 40
31
 40
32
 40
32
 40
32
 40
32
 10
264.0420396413229
 20
-610.1954447134394
 30
0
 10
263.5778190425535
 20
-610.0868853306509
 30
0
 10
263.1053272527106
 20
-610.0589700607924
 30
0
 10
262.6224964740313
 20
-610.1096311060882
 30
0
 10
262.1396656953521
 20
-610.1602921513895
 30
0
 10
261.6692417032737
 20
-610.2936651073851
 30
0
 10
261.211741447245
 20
-610.5092330246334
 30
0
 10
260.7552750900959
 20
-610.7258348407631
 30
0
 10
260.3417155366251
 20
-611.0173943259651
 30
0
 10
259.9731305845962
 20
-611.3859792779948
 30
0
 10
259.2995454618758
 20
-612.0595644007208
 30
0
 10
258.8580706385401
 20
-612.7615817427341
 30
0
 10
258.6487061145963
 20
-613.4920313040602
 30
0
 10
258.4393415906525
 20
-614.2224808653791
 30
0
 10
258.4078076747001
 20
-614.9529304266979
 30
0
 10
258.5535874172983
 20
-615.6838969374584
 30
0
 10
258.6998841093327
 20
-616.4143464987828
 30
0
 10
258.9857571506818
 20
-617.1251519813213
 30
0
 10
259.4117234907571
 20
-617.8178642333859
 30
0
 10
259.8376898308279
 20
-618.5105764854507
 30
0
 10
260.3484358793721
 20
-619.1557293888654
 30
0
 10
260.944995535252
 20
-619.7522890447544
 30
0
 10
261.5167416179311
 20
-620.3240351274306
 30
0
 10
262.14018264479
 20
-620.8130692994073
 30
0
 10
262.8132508180697
 20
-621.2193915606967
 30
0
 10
263.4863189913394
 20
-621.6257138219844
 30
0
 10
264.1847176872762
 20
-621.8991800767199
 30
0
 10
264.9089638552914
 20
-622.0392733754525
 30
0
 10
265.6337269727574
 20
-622.178849724758
 30
0
 10
266.3610748374221
 20
-622.1442141121497
 30
0
 10
267.0904904998652
 20
-621.9338156893281
 30
0
 10
267.820940061184
 20
-621.724451165377
 30
0
 10
268.5229574032037
 20
-621.282976342045
 30
0
 10
269.1965425259268
 20
-620.6093912193246
 30
0
 10
270.1115430379796
 20
-619.6943907072673
 30
0
 10
270.5468144680126
 20
-618.7008138800447
 30
0
 10
270.5018398665761
 20
-617.6271098893394
 30
0
 10
270.4584161134626
 20
-616.5539228480866
 30
0
 10
270.0355514700313
 20
-615.5024476833768
 30
0
 10
269.234796784619
 20
-614.4732013446755
 30
0
 10
269.234796784619
 20
-614.4732013446755
 30
0
 10
272.1312645072594
 20
-611.5767336220415
 30
0
 10
272.1312645072594
 20
-611.5767336220415
 30
0
 10
272.9072056194618
 20
-612.5046578701402
 30
0
 10
273.4784347526875
 20
-613.4698024780573
 30
0
 10
273.8465027552866
 20
-614.4726843952285
 30
0
 10
274.2150877073191
 20
-615.4771171607299
 30
0
 10
274.3799945792616
 20
-616.4805160273426
 30
0
 10
274.342257270011
 20
-617.4839148939481
 30
0
 10
274.3040030113152
 20
-618.4878307100134
 30
0
 10
274.0631045714172
 20
-619.4669329528551
 30
0
 10
273.6180111019948
 20
-620.4186368752906
 30
0
 10
273.1734345820114
 20
-621.3718916460366
 30
0
 10
272.5319003246823
 20
-622.2677650287478
 30
0
 10
271.6934083300194
 20
-623.1062570234152
 30
0
 10
270.6517552047053
 20
-624.1479101487294
 30
0
 10
269.5335935620042
 20
-624.9042071821368
 30
0
 10
268.3399573007918
 20
-625.3741142247745
 30
0
 10
267.1447701912557
 20
-625.8435043179652
 30
0
 10
265.9444135873018
 20
-626.0471823980533
 30
0
 10
264.7378535900434
 20
-625.9841145661521
 30
0
 10
263.5302596939
 20
-625.9200128353622
 30
0
 10
262.3454115732047
 20
-625.6119109680184
 30
0
 10
261.1838261773837
 20
-625.0592920146918
 30
0
 10
260.0206899332488
 20
-624.5061561119255
 30
0
 10
258.9449181447744
 20
-623.7353844941371
 30
0
 10
257.95340911532
 20
-622.7438754646899
 30
0
 10
256.9370865126602
 20
-621.727552862023
 30
0
 10
256.1466708160879
 20
-620.6321369947691
 30
0
 10
255.5811281267061
 20
-619.4565939640178
 30
0
 10
255.0150684879008
 20
-618.2815678827155
 30
0
 10
254.6945598339544
 20
-617.0843129754103
 30
0
 10
254.6180513165618
 20
-615.8643122926624
 30
0
 10
254.5425766980561
 20
-614.6453455088066
 30
0
 10
254.7359157892988
 20
-613.4346499160129
 30
0
 10
255.2001363880736
 20
-612.2342933120563
 30
0
 10
255.6628061385209
 20
-611.0334197586598
 30
0
 10
256.4160014752833
 20
-609.9121564193083
 30
0
 10
257.4576546005937
 20
-608.8705032940015
 30
0
 10
258.2072312912605
 20
-608.1209266033311
 30
0
 10
259.0240114093713
 20
-607.5212652507961
 30
0
 10
259.9069610560391
 20
-607.07048533751
 30
0
 10
260.7904276521385
 20
-606.619188474775
 30
0
 10
261.701809518112
 20
-606.3364171300927
 30
0
 10
262.6416236033774
 20
-606.2216543540071
 30
0
 10
263.5809207392021
 20
-606.1074085273503
 30
0
 10
264.5279721166598
 20
-606.1839170447456
 30
0
 10
265.4812268874084
 20
-606.4506629567367
 30
0
 10
266.4339647087254
 20
-606.717925818175
 30
0
 10
267.3479313219031
 20
-607.1997226979711
 30
0
 10
268.2246775752647
 20
-607.8986383433402
 30
0
 10
268.2246775752647
 20
-607.8986383433402
 30
0
 10
265.3282098526251
 20
-610.7951060659743
 30
0
 10
265.3282098526251
 20
-610.7951060659743
 30
0
 10
264.9337774285013
 20
-610.5030296313361
 30
0
 10
264.5052263412162
 20
-610.3029701973391
 30
0
 10
264.0420396413229
 20
-610.1954447134394
 30
0
  0
SPLINE
  5
8A
100
AcDbEntity
  8
outline
  6
ByLayer
 62
  133
370
   25
100
AcDbSpline
210
0
220
0
230
0
 70
   11
 71
    3
 72
   53
 73
   49
 74
    0
 42
1e-07
 43
1e-07
 40
0
 40
0
 40
0
 40
0
 40
1
 40
1
 40
1
 40
2
 40
2
 40
2
 40
3
 40
3
 40
3
 40
4
 40
4
 40
4
 40
5
 40
5
 40
5
 40
6
 40
6
 40
6
 40
7
 40
7
 40
7
 40
8
 40
8
 40
8
 40
9
 40
9
 40
9
 40
10
 40
10
 40
10
 40
11
 40
11
 40
11
 40
12
 40
12
 40
12
 40
13
 40
13
 40
13
 40
14
 40
14
 40
14
 40
15
 40
15
 40
15
 40
16
 40
16
 40
16
 40
16
 10
277.8776745027626
 20
-608.7852066360902
 30
0
 10
278.327937466609
 20
-609.0834864640383
 30
0
 10
278.7952597620333
 20
-609.2902662407723
 30
0
 10
279.2780905407089
 20
-609.4050290168634
 30
0
 10
279.7598874205032
 20
-609.5187578940622
 30
0
 10
280.2437520980738
 20
-609.512554500765
 30
0
 10
280.7265828767531
 20
-609.3853849380721
 30
0
 10
281.209413655426
 20
-609.258215375381
 30
0
 10
281.6793206980692
 20
-608.9661389407356
 30
0
 10
282.1368209540978
 20
-608.5086386847105
 30
0
 10
282.5938042606858
 20
-608.0516553781271
 30
0
 10
282.8889823919671
 20
-607.5786466388363
 30
0
 10
283.0228722974061
 20
-607.0890955174145
 30
0
 10
283.1562452534008
 20
-606.6000613454252
 30
0
 10
283.1650333939124
 20
-606.1136119206531
 30
0
 10
283.0513045167081
 20
-605.6318150408624
 30
0
 10
282.9365417406234
 20
-605.1489842621831
 30
0
 10
282.7302789133291
 20
-604.6811450173208
 30
0
 10
282.4319990853792
 20
-604.2308820534636
 30
0
 10
282.1332023079967
 20
-603.7790682412996
 30
0
 10
281.7873631314087
 20
-603.3577544462059
 30
0
 10
281.3934476567201
 20
-602.9638389715165
 30
0
 10
280.9995321820461
 20
-602.5699234968342
 30
0
 10
280.5740827914014
 20
-602.219948724709
 30
0
 10
280.1160655859348
 20
-601.9149485540293
 30
0
 10
279.6595992287876
 20
-601.6104653327857
 30
0
 10
279.1917599839262
 20
-601.404202505486
 30
0
 10
278.7151325985442
 20
-601.295643122703
 30
0
 10
278.2395391120472
 20
-601.1881176387978
 30
0
 10
277.7530896872786
 20
-601.1969057793049
 30
0
 10
277.2578521219957
 20
-601.3240753419977
 30
0
 10
276.7620976072658
 20
-601.4517618541358
 30
0
 10
276.2859871713372
 20
-601.7438382887739
 30
0
 10
275.8290038647465
 20
-602.2008215953647
 30
0
 10
275.3715036087178
 20
-602.658321851397
 30
0
 10
275.0825288707256
 20
-603.1313305906733
 30
0
 10
274.9615627013373
 20
-603.6203647626625
 30
0
 10
274.8405965319416
 20
-604.1093989346444
 30
0
 10
274.8343931386417
 20
-604.5932636122052
 30
0
 10
274.9419186225514
 20
-605.0688570986931
 30
0
 10
275.0504780053334
 20
-605.5454844840751
 30
0
 10
275.2572577820665
 20
-606.0128067794976
 30
0
 10
275.5617410033155
 20
-606.4692731366521
 30
0
 10
275.8667411740025
 20
-606.9272903421188
 30
0
 10
276.2167159461287
 20
-607.352739732747
 30
0
 10
276.6106314208027
 20
-607.7466552074347
 30
0
 10
277.0045468954931
 20
-608.1405706821115
 30
0
 10
277.4258606905933
 20
-608.4864098587022
 30
0
 10
277.8776745027626
 20
-608.7852066360902
 30
0
  0
SPLINE
  5
8B
100
AcDbEntity
  8
outline
  6
ByLayer
 62
  133
370
   25
100
AcDbSpline
210
0
220
0
230
0
 70
   11
 71
    3
 72
   53
 73
   49
 74
    0
 42
1e-07
 43
1e-07
 40
0
 40
0
 40
0
 40
0
 40
1
 40
1
 40
1
 40
2
 40
2
 40
2
 40
3
 40
3
 40
3
 40
4
 40
4
 40
4
 40
5
 40
5
 40
5
 40
6
 40
6
 40
6
 40
7
 40
7
 40
7
 40
8
 40
8
 40
8
 40
9
 40
9
 40
9
 40
10
 40
10
 40
10
 40
11
 40
11
 40
11
 40
12
 40
12
 40
12
 40
13
 40
13
 40
13
 40
14
 40
14
 40
14
 40
15
 40
15
 40
15
 40
16
 40
16
 40
16
 40
16
 10
272.1219594173017
 20
-607.9467146414299
 30
0
 10
271.7223574987602
 20
-607.0642819442073
 30
0
 10
271.5181624692359
 20
-606.1746119547915
 30
0
 10
271.5124760253739
 20
-605.2787385720858
 30
0
 10
271.5062726320648
 20
-604.3833821388143
 30
0
 10
271.690306633368
 20
-603.5004324921556
 30
0
 10
272.0645780292589
 20
-602.6298896320914
 30
0
 10
272.4388494251552
 20
-601.7593467720326
 30
0
 10
273.0147311033588
 20
-600.9373971594996
 30
0
 10
273.7901552661233
 20
-600.1619729967424
 30
0
 10
274.5645455300028
 20
-599.3875827328646
 30
0
 10
275.3895968391808
 20
-598.8085993580042
 30
0
 10
276.2668600419875
 20
-598.4276076193637
 30
0
 10
277.1441232447951
 20
-598.0466158807285
 30
0
 10
278.0296576386618
 20
-597.8599971322146
 30
0
 10
278.9255310213766
 20
-597.865683576083
 30
0
 10
279.8208874546453
 20
-597.8718869693857
 30
0
 10
280.7110743934954
 20
-598.0755650494684
 30
0
 10
281.5935070907189
 20
-598.4751669680136
 30
0
 10
282.4764567373804
 20
-598.8763197348744
 30
0
 10
283.3118470353984
 20
-599.4697776941121
 30
0
 10
284.0996779847574
 20
-600.2576086434764
 30
0
 10
284.8875089341282
 20
-601.0454395928427
 30
0
 10
285.4778651967081
 20
-601.8777281942057
 30
0
 10
285.871780671393
 20
-602.7534405486912
 30
0
 10
286.2662130955196
 20
-603.6307037514925
 30
0
 10
286.4657555800714
 20
-604.5167550948153
 30
0
 10
286.4719589733777
 20
-605.4121115280813
 30
0
 10
286.4776454172334
 20
-606.3079849107926
 30
0
 10
286.2879249720718
 20
-607.1904176080114
 30
0
 10
285.8996959412516
 20
-608.0604435186287
 30
0
 10
285.5125008093137
 20
-608.9315033281345
 30
0
 10
284.9314496366915
 20
-609.7544868395471
 30
0
 10
284.1570593728056
 20
-610.5288771034192
 30
0
 10
283.3816352100448
 20
-611.3043012661838
 30
0
 10
282.5617533952845
 20
-611.8822507421683
 30
0
 10
281.6974139285239
 20
-612.2627255313564
 30
0
 10
280.8341083606592
 20
-612.6442342194441
 30
0
 10
279.9542604106373
 20
-612.8313699173814
 30
0
 10
279.0589039773749
 20
-612.8251665240895
 30
0
 10
278.1630305946537
 20
-612.8194800802157
 30
0
 10
277.277496200787
 20
-612.6194206462314
 30
0
 10
276.4002329979758
 20
-612.2249882221076
 30
0
 10
275.5240036940577
 20
-611.8315896968542
 30
0
 10
274.692232042139
 20
-611.2407164848446
 30
0
 10
273.904401092771
 20
-610.45288553548
 30
0
 10
273.1165701434029
 20
-609.6650545861102
 30
0
 10
272.5225952347282
 20
-608.8301812375302
 30
0
 10
272.1219594173017
 20
-607.9467146414299
 30
0
  0
SPLINE
  5
8C
100
AcDbEntity
  8
outline
  6
ByLayer
 62
  133
370
   25
100
AcDbSpline
210
0
220
0
230
0
 70
   11
 71
    3
 72
   62
 73
   58
 74
    0
 42
1e-07
 43
1e-07
 40
0
 40
0
 40
0
 40
0
 40
1
 40
1
 40
1
 40
2
 40
2
 40
2
 40
3
 40
3
 40
3
 40
4
 40
4
 40
4
 40
5
 40
5
 40
5
 40
6
 40
6
 40
6
 40
7
 40
7
 40
7
 40
8
 40
8
 40
8
 40
9
 40
9
 40
9
 40
10
 40
10
 40
10
 40
11
 40
11
 40
11
 40
12
 40
12
 40
12
 40
13
 40
13
 40
13
 40
14
 40
14
 40
14
 40
15
 40
15
 40
15
 40
16
 40
16
 40
16
 40
17
 40
17
 40
17
 40
18
 40
18
 40
18
 40
19
 40
19
 40
19
 40
19
 10
283.4896776433889
 20
-590.9959424434564
 30
0
 10
283.4896776433889
 20
-590.9959424434564
 30
0
 10
284.8616614620387
 20
-592.3679262621044
 30
0
 10
284.8616614620387
 20
-592.3679262621044
 30
0
 10
284.8616614620387
 20
-592.3679262621044
 30
0
 10
284.9190428500851
 20
-592.3105448740589
 30
0
 10
284.9190428500851
 20
-592.3105448740589
 30
0
 10
284.6900342473428
 20
-591.3960613114432
 30
0
 10
284.7179495172077
 20
-590.534823541333
 30
0
 10
285.003822558545
 20
-589.727865462617
 30
0
 10
285.2907294987653
 20
-588.9219412827896
 30
0
 10
285.7192805860504
 20
-588.2328476768052
 30
0
 10
286.2910266687268
 20
-587.6611015941362
 30
0
 10
287.0152728367484
 20
-586.9368554261146
 30
0
 10
287.7074681393779
 20
-586.4411009113882
 30
0
 10
288.3676125766069
 20
-586.1738380499555
 30
0
 10
289.0287909127201
 20
-585.9076090874132
 30
0
 10
289.6672234733942
 20
-585.8150751373232
 30
0
 10
290.2834272080681
 20
-585.8977870480174
 30
0
 10
290.8996309427402
 20
-585.98049895871
 30
0
 10
291.5127329807656
 20
-586.2193296008427
 30
0
 10
292.1222163726961
 20
-586.6127281260832
 30
0
 10
292.7316997646267
 20
-587.0061266513256
 30
0
 10
293.3422170554386
 20
-587.5080845593548
 30
0
 10
293.9522173968153
 20
-588.1180849007269
 30
0
 10
293.9522173968153
 20
-588.1180849007269
 30
0
 10
300.0118987540755
 20
-594.1777662579861
 30
0
 10
300.0118987540755
 20
-594.1777662579861
 30
0
 10
300.0118987540755
 20
-594.1777662579861
 30
0
 10
297.30566842604
 20
-596.8839965860261
 30
0
 10
297.30566842604
 20
-596.8839965860261
 30
0
 10
297.30566842604
 20
-596.8839965860261
 30
0
 10
291.7412246340636
 20
-591.3195527940461
 30
0
 10
291.7412246340636
 20
-591.3195527940461
 30
0
 10
290.9285801114893
 20
-590.506908271469
 30
0
 10
290.1945119040656
 20
-590.0271791894465
 30
0
 10
289.5405708601429
 20
-589.8808824974039
 30
0
 10
288.8861128667704
 20
-589.7351027548029
 30
0
 10
288.2347565700493
 20
-589.9853062846523
 30
0
 10
287.5865019699832
 20
-590.6335608847257
 30
0
 10
286.8498490153606
 20
-591.3702138393473
 30
0
 10
286.5355437547214
 20
-592.1228922266636
 30
0
 10
286.6435861880618
 20
-592.8915960466838
 30
0
 10
286.7511116719679
 20
-593.6608168161511
 30
0
 10
287.306832321945
 20
-594.5463512100196
 30
0
 10
288.3107481379994
 20
-595.5502670260739
 30
0
 10
288.3107481379994
 20
-595.5502670260739
 30
0
 10
293.4750730619926
 20
-600.7145919500672
 30
0
 10
293.4750730619926
 20
-600.7145919500672
 30
0
 10
293.4750730619926
 20
-600.7145919500672
 30
0
 10
290.7693596833997
 20
-603.4203053286654
 30
0
 10
290.7693596833997
 20
-603.4203053286654
 30
0
 10
290.7693596833997
 20
-603.4203053286654
 30
0
 10
280.9173372207906
 20
-593.5682828660611
 30
0
 10
280.9173372207906
 20
-593.5682828660611
 30
0
 10
280.9173372207906
 20
-593.5682828660611
 30
0
 10
283.4896776433889
 20
-590.9959424434564
 30
0
 10
283.4896776433889
 20
-590.9959424434564
 30
0
  0
SPLINE
  5
8D
100
AcDbEntity
  8
outline
  6
ByLayer
 62
  133
370
   25
100
AcDbSpline
210
0
220
0
230
0
 70
   11
 71
    3
 72
   62
 73
   58
 74
    0
 42
1e-07
 43
1e-07
 40
0
 40
0
 40
0
 40
0
 40
1
 40
1
 40
1
 40
2
 40
2
 40
2
 40
3
 40
3
 40
3
 40
4
 40
4
 40
4
 40
5
 40
5
 40
5
 40
6
 40
6
 40
6
 40
7
 40
7
 40
7
 40
8
 40
8
 40
8
 40
9
 40
9
 40
9
 40
10
 40
10
 40
10
 40
11
 40
11
 40
11
 40
12
 40
12
 40
12
 40
13
 40
13
 40
13
 40
14
 40
14
 40
14
 40
15
 40
15
 40
15
 40
16
 40
16
 40
16
 40
17
 40
17
 40
17
 40
18
 40
18
 40
18
 40
19
 40
19
 40
19
 40
19
 10
292.9989626260549
 20
-585.1073713514415
 30
0
 10
292.9989626260549
 20
-585.1073713514415
 30
0
 10
291.1886056807334
 20
-583.2970144061127
 30
0
 10
291.1886056807334
 20
-583.2970144061127
 30
0
 10
291.1886056807334
 20
-583.2970144061127
 30
0
 10
292.8082082820229
 20
-581.6774118048197
 30
0
 10
292.8082082820229
 20
-581.6774118048197
 30
0
 10
292.8082082820229
 20
-581.6774118048197
 30
0
 10
292.045190905862
 20
-580.9143944286679
 30
0
 10
292.045190905862
 20
-580.9143944286679
 30
0
 10
291.1694785513819
 20
-580.0386820741878
 30
0
 10
290.7243850819632
 20
-579.0466560952954
 30
0
 10
290.7124952447921
 20
-577.9419351380837
 30
0
 10
290.6990545593089
 20
-576.8366972314216
 30
0
 10
291.2459870687753
 20
-575.7314593247701
 30
0
 10
292.3512249754322
 20
-574.6262214181133
 30
0
 10
292.5921234153339
 20
-574.3853229782125
 30
0
 10
292.8433608440664
 20
-574.1526957293898
 30
0
 10
293.1033864133123
 20
-573.9298905199502
 30
0
 10
293.3639289319999
 20
-573.7086361588408
 30
0
 10
293.6146494112882
 20
-573.4889326460598
 30
0
 10
293.8560648006332
 20
-573.27233082993
 30
0
 10
293.8560648006332
 20
-573.27233082993
 30
0
 10
295.8763032193501
 20
-575.2925692486424
 30
0
 10
295.8763032193501
 20
-575.2925692486424
 30
0
 10
295.5201250539194
 20
-575.5722388966805
 30
0
 10
295.1711841806791
 20
-575.8839594101119
 30
0
 10
294.8284467007334
 20
-576.2266968900567
 30
0
 10
294.4598617487054
 20
-576.5952818420847
 30
0
 10
294.2820311407113
 20
-576.9447396647701
 30
0
 10
294.2949548767556
 20
-577.2750703581078
 30
0
 10
294.3063277644769
 20
-577.604884102002
 30
0
 10
294.5167261873093
 20
-577.9734690540354
 30
0
 10
294.9230484485897
 20
-578.3797913153193
 30
0
 10
294.9230484485897
 20
-578.3797913153193
 30
0
 10
295.5144386100601
 20
-578.971181476787
 30
0
 10
295.5144386100601
 20
-578.971181476787
 30
0
 10
295.5144386100601
 20
-578.971181476787
 30
0
 10
297.3821769434307
 20
-577.1034431434127
 30
0
 10
297.3821769434307
 20
-577.1034431434127
 30
0
 10
297.3821769434307
 20
-577.1034431434127
 30
0
 10
299.1925338887586
 20
-578.9138000887397
 30
0
 10
299.1925338887586
 20
-578.9138000887397
 30
0
 10
299.1925338887586
 20
-578.9138000887397
 30
0
 10
297.3247955553852
 20
-580.7815384221084
 30
0
 10
297.3247955553852
 20
-580.7815384221084
 30
0
 10
297.3247955553852
 20
-580.7815384221084
 30
0
 10
305.3664610726682
 20
-588.823203939397
 30
0
 10
305.3664610726682
 20
-588.823203939397
 30
0
 10
305.3664610726682
 20
-588.823203939397
 30
0
 10
302.6602307446283
 20
-591.5294342674314
 30
0
 10
302.6602307446283
 20
-591.5294342674314
 30
0
 10
302.6602307446283
 20
-591.5294342674314
 30
0
 10
294.6185652273507
 20
-583.4877687501483
 30
0
 10
294.6185652273507
 20
-583.4877687501483
 30
0
 10
294.6185652273507
 20
-583.4877687501483
 30
0
 10
292.9989626260549
 20
-585.1073713514415
 30
0
 10
292.9989626260549
 20
-585.1073713514415
 30
0
  0
SPLINE
  5
8E
100
AcDbEntity
  8
outline
  6
ByLayer
 62
  133
370
   25
100
AcDbSpline
210
0
220
0
230
0
 70
   11
 71
    3
 72
   26
 73
   22
 74
    0
 42
1e-07
 43
1e-07
 40
0
 40
0
 40
0
 40
0
 40
1
 40
1
 40
1
 40
2
 40
2
 40
2
 40
3
 40
3
 40
3
 40
4
 40
4
 40
4
 40
5
 40
5
 40
5
 40
6
 40
6
 40
6
 40
7
 40
7
 40
7
 40
7
 10
306.8242584986601
 20
-572.2725506094102
 30
0
 10
306.1444699826406
 20
-572.2410166934642
 30
0
 10
305.4739865565716
 20
-572.5558389035396
 30
0
 10
304.8138421193435
 20
-573.2159833407713
 30
0
 10
304.3816723859618
 20
-573.6481530741493
 30
0
 10
304.0963162940652
 20
-574.0803228075201
 30
0
 10
303.9562229953262
 20
-574.5119755914639
 30
0
 10
303.8161296965864
 20
-574.9436283754002
 30
0
 10
303.7685703479392
 20
-575.3530523333357
 30
0
 10
303.813027999935
 20
-575.7407644147206
 30
0
 10
303.8574856519299
 20
-576.1284764960928
 30
0
 10
303.9650111358369
 20
-576.4779343187893
 30
0
 10
304.1371552999708
 20
-576.7896548322132
 30
0
 10
304.3082655652179
 20
-577.1003414467613
 30
0
 10
304.4829944765624
 20
-577.3577822687967
 30
0
 10
304.6608250845502
 20
-577.5604264500034
 30
0
 10
304.6608250845502
 20
-577.5604264500034
 30
0
 10
309.0626495818324
 20
-573.1586019527258
 30
0
 10
309.0626495818324
 20
-573.1586019527258
 30
0
 10
308.2500050592516
 20
-572.600296555538
 30
0
 10
307.5035300652344
 20
-572.304601474807
 30
0
 10
306.8242584986601
 20
-572.2725506094102
 30
0
  0
SPLINE
  5
8F
100
AcDbEntity
  8
outline
  6
ByLayer
 62
  133
370
   25
100
AcDbSpline
210
0
220
0
230
0
 70
   11
 71
    3
 72
   65
 73
   61
 74
    0
 42
1e-07
 43
1e-07
 40
0
 40
0
 40
0
 40
0
 40
1
 40
1
 40
1
 40
2
 40
2
 40
2
 40
3
 40
3
 40
3
 40
4
 40
4
 40
4
 40
5
 40
5
 40
5
 40
6
 40
6
 40
6
 40
7
 40
7
 40
7
 40
8
 40
8
 40
8
 40
9
 40
9
 40
9
 40
10
 40
10
 40
10
 40
11
 40
11
 40
11
 40
12
 40
12
 40
12
 40
13
 40
13
 40
13
 40
14
 40
14
 40
14
 40
15
 40
15
 40
15
 40
16
 40
16
 40
16
 40
17
 40
17
 40
17
 40
18
 40
18
 40
18
 40
19
 40
19
 40
19
 40
20
 40
20
 40
20
 40
20
 10
308.9484037551883
 20
-580.514275560683
 30
0
 10
309.7486414911527
 20
-580.5018687740812
 30
0
 10
310.5307859966651
 20
-580.1146736421433
 30
0
 10
311.2927694739374
 20
-579.3526901648675
 30
0
 10
311.8391850339667
 20
-578.8062746048399
 30
0
 10
312.1726174239447
 20
-578.1998929095607
 30
0
 10
312.2935835933404
 20
-577.5330281295846
 30
0
 10
312.4135158638492
 20
-576.8651294507326
 30
0
 10
312.3664734646372
 20
-576.3352562728396
 30
0
 10
312.1503885979455
 20
-575.9413407981501
 30
0
 10
312.1503885979455
 20
-575.9413407981501
 30
0
 10
314.5324916259451
 20
-573.5592377701522
 30
0
 10
314.5324916259451
 20
-573.5592377701522
 30
0
 10
315.333246311362
 20
-575.1219759328342
 30
0
 10
315.5932718806052
 20
-576.5513411395277
 30
0
 10
315.3136022325743
 20
-577.846299491337
 30
0
 10
315.0344495339741
 20
-579.1428086914765
 30
0
 10
314.3355338886122
 20
-580.3504025876191
 30
0
 10
313.2178891953481
 20
-581.4680472808759
 30
0
 10
312.4429819820289
 20
-582.2429544941988
 30
0
 10
311.61999847062
 20
-582.8178022735319
 30
0
 10
310.7494556105576
 20
-583.1920736694228
 30
0
 10
309.8799466493856
 20
-583.5673789642022
 30
0
 10
309.0000986993709
 20
-583.7421078755378
 30
0
 10
308.1099117605154
 20
-583.7162604034438
 30
0
 10
307.2212756699955
 20
-583.690929880795
 30
0
 10
306.3419446694188
 20
-583.4784636601998
 30
0
 10
305.4708848599203
 20
-583.0778278427733
 30
0
 10
304.6008589492994
 20
-582.6782259242281
 30
0
 10
303.7845957806294
 20
-582.0966578021561
 30
0
 10
303.022612303359
 20
-581.3346743248858
 30
0
 10
302.2854423992931
 20
-580.5975044208225
 30
0
 10
301.7193827604733
 20
-579.7905463421012
 30
0
 10
301.3259842352354
 20
-578.9143170381813
 30
0
 10
300.9325857099903
 20
-578.0380877342667
 30
0
 10
300.7258059332562
 20
-577.1447990987598
 30
0
 10
300.7071957533526
 20
-576.2370358788939
 30
0
 10
300.6875516745676
 20
-575.3282387601339
 30
0
 10
300.8529754959518
 20
-574.4328823268625
 30
0
 10
301.2024333186364
 20
-573.5499326801909
 30
0
 10
301.5518911413201
 20
-572.6669830335322
 30
0
 10
302.1014083979963
 20
-571.8507198648621
 30
0
 10
302.8509850886658
 20
-571.101143174199
 30
0
 10
303.6894770833324
 20
-570.262651179526
 30
0
 10
304.5812148705108
 20
-569.6934898440613
 30
0
 10
305.5287831974037
 20
-569.3952100161205
 30
0
 10
306.474283726533
 20
-569.0969301881851
 30
0
 10
307.4213351039853
 20
-569.0204216707879
 30
0
 10
308.367352582558
 20
-569.1662014133889
 30
0
 10
309.3144039600029
 20
-569.3130150548677
 30
0
 10
310.2257858259763
 20
-569.6464474448585
 30
0
 10
311.102532079336
 20
-570.167532482239
 30
0
 10
311.9782444338125
 20
-570.6875836207254
 30
0
 10
312.7727957259212
 20
-571.3549653501486
 30
0
 10
313.4841181578922
 20
-572.1676098727202
 30
0
 10
313.4841181578922
 20
-572.1676098727202
 30
0
 10
306.3760633325837
 20
-579.2756646980306
 30
0
 10
306.3760633325837
 20
-579.2756646980306
 30
0
 10
307.2905468952067
 20
-580.1146736421379
 30
0
 10
308.1486829686546
 20
-580.5282331956114
 30
0
 10
308.9484037551883
 20
-580.514275560683
 30
0
  0
SPLINE
  5
90
100
AcDbEntity
  8
outline
  6
ByLayer
 62
  133
370
   25
100
AcDbSpline
210
0
220
0
230
0
 70
   11
 71
    3
 72
   59
 73
   55
 74
    0
 42
1e-07
 43
1e-07
 40
0
 40
0
 40
0
 40
0
 40
1
 40
1
 40
1
 40
2
 40
2
 40
2
 40
3
 40
3
 40
3
 40
4
 40
4
 40
4
 40
5
 40
5
 40
5
 40
6
 40
6
 40
6
 40
7
 40
7
 40
7
 40
8
 40
8
 40
8
 40
9
 40
9
 40
9
 40
10
 40
10
 40
10
 40
11
 40
11
 40
11
 40
12
 40
12
 40
12
 40
13
 40
13
 40
13
 40
14
 40
14
 40
14
 40
15
 40
15
 40
15
 40
16
 40
16
 40
16
 40
17
 40
17
 40
17
 40
18
 40
18
 40
18
 40
18
 10
312.0743970299973
 20
-562.4112230568498
 30
0
 10
312.0743970299973
 20
-562.4112230568498
 30
0
 10
313.9033641552341
 20
-564.2401901820813
 30
0
 10
313.9033641552341
 20
-564.2401901820813
 30
0
 10
313.9033641552341
 20
-564.2401901820813
 30
0
 10
313.9416184139264
 20
-564.2019359233853
 30
0
 10
313.9416184139264
 20
-564.2019359233853
 30
0
 10
313.7632708564924
 20
-563.770283139449
 30
0
 10
313.6526436759377
 20
-563.3164015295096
 30
0
 10
313.6081860239356
 20
-562.8397741441403
 30
0
 10
313.5637283719425
 20
-562.3631467587584
 30
0
 10
313.5890588945913
 20
-561.8932397161261
 30
0
 10
313.684694541329
 20
-561.429536066791
 30
0
 10
313.7798132386251
 20
-560.9663493668977
 30
0
 10
313.9359319700707
 20
-560.5248745435655
 30
0
 10
314.1514998873117
 20
-560.1045946473532
 30
0
 10
314.3675847540071
 20
-559.6858655994583
 30
0
 10
314.647254402038
 20
-559.3048738608231
 30
0
 10
314.9905088314226
 20
-558.961619431442
 30
0
 10
315.1678224899715
 20
-558.7843057728896
 30
0
 10
315.3957971938234
 20
-558.6183650020557
 30
0
 10
315.6759837913051
 20
-558.4663818661573
 30
0
 10
315.6759837913051
 20
-558.4663818661573
 30
0
 10
318.1914597753039
 20
-560.9818578501562
 30
0
 10
318.1914597753039
 20
-560.9818578501562
 30
0
 10
318.038442740517
 20
-561.0831799407588
 30
0
 10
317.8647477280574
 20
-561.213451200103
 30
0
 10
317.667273041272
 20
-561.3716377293058
 30
0
 10
317.4703153039318
 20
-561.5313751068351
 30
0
 10
317.2893829992827
 20
-561.6936972315706
 30
0
 10
317.1244761273428
 20
-561.8586041035232
 30
0
 10
316.6292385620563
 20
-562.3538416688025
 30
0
 10
316.2927044754197
 20
-562.8557995768333
 30
0
 10
316.1138399685388
 20
-563.3634439287198
 30
0
 10
315.9365263099917
 20
-563.871605230046
 30
0
 10
315.8853483152507
 20
-564.3735631380823
 30
0
 10
315.9623737820821
 20
-564.8693176528031
 30
0
 10
316.0378484005923
 20
-565.3645552180878
 30
0
 10
316.2223993513271
 20
-565.8479029462086
 30
0
 10
316.5139588365255
 20
-566.3172930393994
 30
0
 10
316.8065522206125
 20
-566.7877170314786
 30
0
 10
317.1746202232043
 20
-567.2447003380621
 30
0
 10
317.6191967431823
 20
-567.6892768580473
 30
0
 10
317.6191967431823
 20
-567.6892768580473
 30
0
 10
322.059792448601
 20
-572.1298725634587
 30
0
 10
322.059792448601
 20
-572.1298725634587
 30
0
 10
322.059792448601
 20
-572.1298725634587
 30
0
 10
319.3540790700008
 20
-574.8355859420589
 30
0
 10
319.3540790700008
 20
-574.8355859420589
 30
0
 10
319.3540790700008
 20
-574.8355859420589
 30
0
 10
309.5020566073963
 20
-564.9835634794526
 30
0
 10
309.5020566073963
 20
-564.9835634794526
 30
0
 10
309.5020566073963
 20
-564.9835634794526
 30
0
 10
312.0743970299973
 20
-562.4112230568498
 30
0
 10
312.0743970299973
 20
-562.4112230568498
 30
0
  0
SPLINE
  5
91
100
AcDbEntity
  8
outline
  6
ByLayer
 62
  133
370
   25
100
AcDbSpline
210
0
220
0
230
0
 70
   11
 71
    3
 72
   26
 73
   22
 74
    0
 42
1e-07
 43
1e-07
 40
0
 40
0
 40
0
 40
0
 40
1
 40
1
 40
1
 40
2
 40
2
 40
2
 40
3
 40
3
 40
3
 40
4
 40
4
 40
4
 40
5
 40
5
 40
5
 40
6
 40
6
 40
6
 40
7
 40
7
 40
7
 40
7
 10
325.1759636840197
 20
-553.9208454240488
 30
0
 10
324.4961751680039
 20
-553.8893115080973
 30
0
 10
323.825691741933
 20
-554.2041337181781
 30
0
 10
323.1655473047013
 20
-554.8642781554099
 30
0
 10
322.7333775713177
 20
-555.2964478887933
 30
0
 10
322.4480214794239
 20
-555.7286176221659
 30
0
 10
322.3079281806877
 20
-556.1602704061079
 30
0
 10
322.1678348819478
 20
-556.5919231900388
 30
0
 10
322.1202755332979
 20
-557.0013471479796
 30
0
 10
322.1647331852964
 20
-557.3890592293592
 30
0
 10
322.2091908372895
 20
-557.7767713107442
 30
0
 10
322.3167163211929
 20
-558.1262291334224
 30
0
 10
322.4888604853259
 20
-558.4379496468573
 30
0
 10
322.6599707505793
 20
-558.7486362614
 30
0
 10
322.8346996619202
 20
-559.0060770834407
 30
0
 10
323.012530269918
 20
-559.2087212646474
 30
0
 10
323.012530269918
 20
-559.2087212646474
 30
0
 10
327.4143547671883
 20
-554.8068967673589
 30
0
 10
327.4143547671883
 20
-554.8068967673589
 30
0
 10
326.6017102446185
 20
-554.2485913701711
 30
0
 10
325.8552352505958
 20
-553.9528962894454
 30
0
 10
325.1759636840197
 20
-553.9208454240488
 30
0
  0
SPLINE
  5
92
100
AcDbEntity
  8
outline
  6
ByLayer
 62
  133
370
   25
100
AcDbSpline
210
0
220
0
230
0
 70
   11
 71
    3
 72
   65
 73
   61
 74
    0
 42
1e-07
 43
1e-07
 40
0
 40
0
 40
0
 40
0
 40
1
 40
1
 40
1
 40
2
 40
2
 40
2
 40
3
 40
3
 40
3
 40
4
 40
4
 40
4
 40
5
 40
5
 40
5
 40
6
 40
6
 40
6
 40
7
 40
7
 40
7
 40
8
 40
8
 40
8
 40
9
 40
9
 40
9
 40
10
 40
10
 40
10
 40
11
 40
11
 40
11
 40
12
 40
12
 40
12
 40
13
 40
13
 40
13
 40
14
 40
14
 40
14
 40
15
 40
15
 40
15
 40
16
 40
16
 40
16
 40
17
 40
17
 40
17
 40
18
 40
18
 40
18
 40
19
 40
19
 40
19
 40
20
 40
20
 40
20
 40
20
 10
327.3001089405461
 20
-562.162570375327
 30
0
 10
328.1003466765087
 20
-562.1501635887143
 30
0
 10
328.8824911820229
 20
-561.7629684567837
 30
0
 10
329.644474659297
 20
-561.0009849795132
 30
0
 10
330.1908902193245
 20
-560.4545694194838
 30
0
 10
330.5243226093117
 20
-559.8481877241993
 30
0
 10
330.6452887787018
 20
-559.1813229442232
 30
0
 10
330.7652210492106
 20
-558.5134242653658
 30
0
 10
330.7181786499987
 20
-557.9835510874781
 30
0
 10
330.5020937833051
 20
-557.589635612796
 30
0
 10
330.5020937833051
 20
-557.589635612796
 30
0
 10
332.884196811312
 20
-555.2075325847908
 30
0
 10
332.884196811312
 20
-555.2075325847908
 30
0
 10
333.6849514967235
 20
-556.7702707474746
 30
0
 10
333.9449770659649
 20
-558.1996359541663
 30
0
 10
333.6653074179412
 20
-559.4945943059882
 30
0
 10
333.3861547193392
 20
-560.7911035061151
 30
0
 10
332.6872390739682
 20
-561.9986974022577
 30
0
 10
331.5695943807095
 20
-563.1163420955145
 30
0
 10
330.7946871673958
 20
-563.8912493088428
 30
0
 10
329.9717036559832
 20
-564.4660970881704
 30
0
 10
329.101160795919
 20
-564.8403684840632
 30
0
 10
328.2316518347398
 20
-565.2156737788354
 30
0
 10
327.3518038847305
 20
-565.3904026901837
 30
0
 10
326.461616945875
 20
-565.3645552180823
 30
0
 10
325.5729808553497
 20
-565.3392246954354
 30
0
 10
324.6936498547857
 20
-565.1267584748438
 30
0
 10
323.8225900452762
 20
-564.7261226574172
 30
0
 10
322.9525641346608
 20
-564.3265207388667
 30
0
 10
322.1363009659908
 20
-563.7449526167946
 30
0
 10
321.374317488715
 20
-562.9829691395189
 30
0
 10
320.6371475846554
 20
-562.245799235461
 30
0
 10
320.0710879458384
 20
-561.4388411567415
 30
0
 10
319.6776894205996
 20
-560.5626118528198
 30
0
 10
319.2842908953571
 20
-559.6863825489053
 30
0
 10
319.0775111186176
 20
-558.7930939134039
 30
0
 10
319.0589009387149
 20
-557.8853306935325
 30
0
 10
319.0392568599163
 20
-556.9765335747725
 30
0
 10
319.2046806813105
 20
-556.0811771415065
 30
0
 10
319.5541385039942
 20
-555.1982274948368
 30
0
 10
319.9035963266833
 20
-554.3152778481781
 30
0
 10
320.4531135833549
 20
-553.499014679508
 30
0
 10
321.2026902740308
 20
-552.7494379888375
 30
0
 10
322.0411822686965
 20
-551.9109459941719
 30
0
 10
322.9329200558695
 20
-551.3417846587053
 30
0
 10
323.8804883827688
 20
-551.0435048307645
 30
0
 10
324.8259889118945
 20
-550.7452250028181
 30
0
 10
325.7730402893485
 20
-550.6687164854211
 30
0
 10
326.7190577679103
 20
-550.8144962280221
 30
0
 10
327.6661091453698
 20
-550.9613098695118
 30
0
 10
328.5774910113378
 20
-551.2947422594971
 30
0
 10
329.4542372646956
 20
-551.815827296872
 30
0
 10
330.3299496191757
 20
-552.335878435364
 30
0
 10
331.1245009112881
 20
-553.0032601647799
 30
0
 10
331.8358233432573
 20
-553.8159046873589
 30
0
 10
331.8358233432573
 20
-553.8159046873589
 30
0
 10
324.7277685179415
 20
-560.9239595126746
 30
0
 10
324.7277685179415
 20
-560.9239595126746
 30
0
 10
325.6422520805645
 20
-561.7629684567837
 30
0
 10
326.5003881540124
 20
-562.1765280102572
 30
0
 10
327.3001089405461
 20
-562.162570375327
 30
0
  0
SPLINE
  5
93
100
AcDbEntity
  8
outline
  6
ByLayer
 62
  133
370
   25
100
AcDbSpline
210
0
220
0
230
0
 70
   11
 71
    3
 72
   62
 73
   58
 74
    0
 42
1e-07
 43
1e-07
 40
0
 40
0
 40
0
 40
0
 40
1
 40
1
 40
1
 40
2
 40
2
 40
2
 40
3
 40
3
 40
3
 40
4
 40
4
 40
4
 40
5
 40
5
 40
5
 40
6
 40
6
 40
6
 40
7
 40
7
 40
7
 40
8
 40
8
 40
8
 40
9
 40
9
 40
9
 40
10
 40
10
 40
10
 40
11
 40
11
 40
11
 40
12
 40
12
 40
12
 40
13
 40
13
 40
13
 40
14
 40
14
 40
14
 40
15
 40
15
 40
15
 40
16
 40
16
 40
16
 40
17
 40
17
 40
17
 40
18
 40
18
 40
18
 40
19
 40
19
 40
19
 40
19
 10
330.4261022153587
 20
-544.0595178714884
 30
0
 10
330.4261022153587
 20
-544.0595178714884
 30
0
 10
331.7980860340049
 20
-545.4315016901346
 30
0
 10
331.7980860340049
 20
-545.4315016901346
 30
0
 10
331.7980860340049
 20
-545.4315016901346
 30
0
 10
331.855467422045
 20
-545.3741203020836
 30
0
 10
331.855467422045
 20
-545.3741203020836
 30
0
 10
331.6264588193153
 20
-544.4596367394734
 30
0
 10
331.6543740891739
 20
-543.5983989693704
 30
0
 10
331.9402471305075
 20
-542.7914408906544
 30
0
 10
332.2271540707316
 20
-541.9855167108217
 30
0
 10
332.6557051580167
 20
-541.2964231048427
 30
0
 10
333.2274512406984
 20
-540.7246770221718
 30
0
 10
333.951697408711
 20
-540.0004308541501
 30
0
 10
334.6438927113431
 20
-539.5046763394239
 30
0
 10
335.3040371485731
 20
-539.2374134779928
 30
0
 10
335.9652154846826
 20
-538.9711845154433
 30
0
 10
336.6036480453604
 20
-538.8786505653552
 30
0
 10
337.2198517800316
 20
-538.9613624760477
 30
0
 10
337.8360555147083
 20
-539.0440743867475
 30
0
 10
338.4491575527318
 20
-539.2829050288728
 30
0
 10
339.0586409446623
 20
-539.6763035541208
 30
0
 10
339.6681243365929
 20
-540.0697020793558
 30
0
 10
340.2786416274103
 20
-540.5716599873812
 30
0
 10
340.8886419687824
 20
-541.1816603287569
 30
0
 10
340.8886419687824
 20
-541.1816603287569
 30
0
 10
346.9483233260435
 20
-547.2413416860162
 30
0
 10
346.9483233260435
 20
-547.2413416860162
 30
0
 10
346.9483233260435
 20
-547.2413416860162
 30
0
 10
344.2420929980035
 20
-549.9475720140617
 30
0
 10
344.2420929980035
 20
-549.9475720140617
 30
0
 10
344.2420929980035
 20
-549.9475720140617
 30
0
 10
338.6776492060271
 20
-544.3831282220835
 30
0
 10
338.6776492060271
 20
-544.3831282220835
 30
0
 10
337.86500468345
 20
-543.5704836995064
 30
0
 10
337.1309364760346
 20
-543.0907546174712
 30
0
 10
336.4769954321091
 20
-542.9444579254359
 30
0
 10
335.8225374387366
 20
-542.798678182833
 30
0
 10
335.1711811420155
 20
-543.048881712697
 30
0
 10
334.5229265419512
 20
-543.6971363127558
 30
0
 10
333.7862735873259
 20
-544.4337892673847
 30
0
 10
333.4719683266885
 20
-545.186467654701
 30
0
 10
333.5800107600316
 20
-545.9551714747212
 30
0
 10
333.6875362439351
 20
-546.7243922441756
 30
0
 10
334.2432568939112
 20
-547.6099266380515
 30
0
 10
335.2471727099619
 20
-548.6138424541095
 30
0
 10
335.2471727099619
 20
-548.6138424541095
 30
0
 10
340.4114976339588
 20
-553.7781673781046
 30
0
 10
340.4114976339588
 20
-553.7781673781046
 30
0
 10
340.4114976339588
 20
-553.7781673781046
 30
0
 10
337.7057842553677
 20
-556.483880756692
 30
0
 10
337.7057842553677
 20
-556.483880756692
 30
0
 10
337.7057842553677
 20
-556.483880756692
 30
0
 10
327.8537617927559
 20
-546.6318582940912
 30
0
 10
327.8537617927559
 20
-546.6318582940912
 30
0
 10
327.8537617927559
 20
-546.6318582940912
 30
0
 10
330.4261022153587
 20
-544.0595178714884
 30
0
 10
330.4261022153587
 20
-544.0595178714884
 30
0
  0
SPLINE
  5
94
100
AcDbEntity
  8
outline
  6
ByLayer
 62
  133
370
   25
100
AcDbSpline
210
0
220
0
230
0
 70
   11
 71
    3
 72
   86
 73
   82
 74
    0
 42
1e-07
 43
1e-07
 40
0
 40
0
 40
0
 40
0
 40
1
 40
1
 40
1
 40
2
 40
2
 40
2
 40
3
 40
3
 40
3
 40
4
 40
4
 40
4
 40
5
 40
5
 40
5
 40
6
 40
6
 40
6
 40
7
 40
7
 40
7
 40
8
 40
8
 40
8
 40
9
 40
9
 40
9
 40
10
 40
10
 40
10
 40
11
 40
11
 40
11
 40
12
 40
12
 40
12
 40
13
 40
13
 40
13
 40
14
 40
14
 40
14
 40
15
 40
15
 40
15
 40
16
 40
16
 40
16
 40
17
 40
17
 40
17
 40
18
 40
18
 40
18
 40
19
 40
19
 40
19
 40
20
 40
20
 40
20
 40
21
 40
21
 40
21
 40
22
 40
22
 40
22
 40
23
 40
23
 40
23
 40
24
 40
24
 40
24
 40
25
 40
25
 40
25
 40
26
 40
26
 40
26
 40
27
 40
27
 40
27
 40
27
 10
345.6332039460012
 20
-532.3966215141081
 30
0
 10
345.2010342126232
 20
-532.8287912474843
 30
0
 10
344.9373899972852
 20
-533.2888762507209
 30
0
 10
344.8427882494234
 20
-533.7784273721498
 30
0
 10
344.7466356532404
 20
-534.2674615441319
 30
0
 10
344.7626610859424
 20
-534.7601143622086
 30
0
 10
344.8898306486281
 20
-535.2553519274879
 30
0
 10
345.0170002113245
 20
-535.7505894927726
 30
0
 10
345.2299833813631
 20
-536.2241151815033
 30
0
 10
345.5282632093058
 20
-536.6743781453442
 30
0
 10
345.8270599866883
 20
-537.1261919575081
 30
0
 10
346.160492376679
 20
-537.5350989660128
 30
0
 10
346.5285603792636
 20
-537.9031669685937
 30
0
 10
346.8852554941423
 20
-538.259862083476
 30
0
 10
347.2848574126838
 20
-538.5839893835054
 30
0
 10
347.7294339326636
 20
-538.875548868702
 30
0
 10
348.1745274020868
 20
-539.1686592022288
 30
0
 10
348.6315107086757
 20
-539.3775067767274
 30
0
 10
349.1019347007587
 20
-539.5046763394311
 30
0
 10
349.5718417433909
 20
-539.6323628515638
 30
0
 10
350.0474352298752
 20
-539.6447696381583
 30
0
 10
350.5302660085636
 20
-539.5424136486727
 30
0
 10
351.0136137366808
 20
-539.4416085075172
 30
0
 10
351.4643936499742
 20
-539.1810659888361
 30
0
 10
351.8836396472961
 20
-538.7618199914995
 30
0
 10
352.5318942473732
 20
-538.1135653914316
 30
0
 10
352.849301204662
 20
-537.4342938248554
 30
0
 10
352.8368944180584
 20
-536.7229713928809
 30
0
 10
352.8234537325679
 20
-536.010615062025
 30
0
 10
352.5567078205749
 20
-535.3054960233547
 30
0
 10
352.0356227832035
 20
-534.6065803779748
 30
0
 10
352.0356227832035
 20
-534.6065803779748
 30
0
 10
354.6462174644985
 20
-531.9959856966816
 30
0
 10
354.6462174644985
 20
-531.9959856966816
 30
0
 10
355.7773028432511
 20
-533.4827322914207
 30
0
 10
356.2668539646675
 20
-534.988606015504
 30
0
 10
356.1138369298842
 20
-536.512572970043
 30
0
 10
355.9618537939859
 20
-538.0375738234779
 30
0
 10
355.2314042326598
 20
-539.4545322435642
 30
0
 10
353.9230051953655
 20
-540.7629312808621
 30
0
 10
353.1863522407366
 20
-541.4995842354837
 30
0
 10
352.3855975553306
 20
-542.0522031888213
 30
0
 10
351.5212580885763
 20
-542.4202711914094
 30
0
 10
350.6579525206926
 20
-542.789373092879
 30
0
 10
349.7874096606356
 20
-542.9672037008731
 30
0
 10
348.9111803567121
 20
-542.9542799648316
 30
0
 10
348.0344341033561
 20
-542.9418731782316
 30
0
 10
347.1675098893811
 20
-542.7480171375317
 30
0
 10
346.3098907653693
 20
-542.3732287921994
 30
0
 10
345.4522716413594
 20
-541.9984404468687
 30
0
 10
344.6546186525957
 20
-541.4416858980039
 30
0
 10
343.9184826474102
 20
-540.7055498928166
 30
0
 10
343.1554652712566
 20
-539.9425325166649
 30
0
 10
342.5583886659297
 20
-539.1231676513489
 30
0
 10
342.1262189325517
 20
-538.24642139798
 30
0
 10
341.6950830980495
 20
-537.3707090435018
 30
0
 10
341.4567694053585
 20
-536.4779373574402
 30
0
 10
341.411794803922
 20
-535.5696571881272
 30
0
 10
341.3673371519235
 20
-534.6608600693799
 30
0
 10
341.5234558833617
 20
-533.7624019394516
 30
0
 10
341.8791170993518
 20
-532.8732488994829
 30
0
 10
342.2347783153309
 20
-531.9840958595213
 30
0
 10
342.813244740757
 20
-531.1388835221114
 30
0
 10
343.6134824767232
 20
-530.3386457861398
 30
0
 10
344.197635346005
 20
-529.7544929168579
 30
0
 10
344.8355509572339
 20
-529.2675265426441
 30
0
 10
345.5282632093022
 20
-528.8808483601424
 30
0
 10
346.2204585119343
 20
-528.4926193293268
 30
0
 10
346.9353995899983
 20
-528.2429327489172
 30
0
 10
347.6725694940615
 20
-528.1281699728261
 30
0
 10
348.4092224486849
 20
-528.0139241461746
 30
0
 10
349.1422567572208
 20
-528.0542462026406
 30
0
 10
349.8732232679831
 20
-528.2517208894315
 30
0
 10
350.6041897787454
 20
-528.4491955762041
 30
0
 10
351.3056901713226
 20
-528.8456957980979
 30
0
 10
351.9787583445977
 20
-529.4422554539814
 30
0
 10
351.9787583445977
 20
-529.4422554539814
 30
0
 10
349.3299094046069
 20
-532.0911043939814
 30
0
 10
349.3299094046069
 20
-532.0911043939814
 30
0
 10
348.021510367309
 20
-531.1394004715512
 30
0
 10
346.7891028979557
 20
-531.2407225621554
 30
0
 10
345.6332039460012
 20
-532.3966215141081
 30
0
  0
SPLINE
  5
95
100
AcDbEntity
  8
outline
  6
ByLayer
 62
  133
370
   25
100
AcDbSpline
210
0
220
0
230
0
 70
   11
 71
    3
 72
   26
 73
   22
 74
    0
 42
1e-07
 43
1e-07
 40
0
 40
0
 40
0
 40
0
 40
1
 40
1
 40
1
 40
2
 40
2
 40
2
 40
3
 40
3
 40
3
 40
4
 40
4
 40
4
 40
5
 40
5
 40
5
 40
6
 40
6
 40
6
 40
7
 40
7
 40
7
 40
7
 10
358.3537788613885
 20
-520.7430302466819
 30
0
 10
357.6739903453672
 20
-520.7114963307303
 30
0
 10
357.0035069192927
 20
-521.0263185408185
 30
0
 10
356.3433624820682
 20
-521.6864629780448
 30
0
 10
355.9111927486902
 20
-522.1186327114209
 30
0
 10
355.6258366567872
 20
-522.550802444799
 30
0
 10
355.4857433580473
 20
-522.9824552287355
 30
0
 10
355.3456500593111
 20
-523.4141080126719
 30
0
 10
355.2980907106612
 20
-523.8235319706181
 30
0
 10
355.3425483626615
 20
-524.2112440519923
 30
0
 10
355.3870060146583
 20
-524.5989561333716
 30
0
 10
355.4945314985653
 20
-524.9484139560609
 30
0
 10
355.6666756626964
 20
-525.2601344694848
 30
0
 10
355.8377859279389
 20
-525.570821084033
 30
0
 10
356.0125148392836
 20
-525.828261906081
 30
0
 10
356.1903454472777
 20
-526.0309060872696
 30
0
 10
356.1903454472777
 20
-526.0309060872696
 30
0
 10
360.5921699445626
 20
-521.6290815899991
 30
0
 10
360.5921699445626
 20
-521.6290815899991
 30
0
 10
359.77952542198
 20
-521.0707761928097
 30
0
 10
359.0330504279682
 20
-520.7750811120804
 30
0
 10
358.3537788613885
 20
-520.7430302466819
 30
0
  0
SPLINE
  5
96
100
AcDbEntity
  8
outline
  6
ByLayer
 62
  133
370
   25
100
AcDbSpline
210
0
220
0
230
0
 70
   11
 71
    3
 72
   65
 73
   61
 74
    0
 42
1e-07
 43
1e-07
 40
0
 40
0
 40
0
 40
0
 40
1
 40
1
 40
1
 40
2
 40
2
 40
2
 40
3
 40
3
 40
3
 40
4
 40
4
 40
4
 40
5
 40
5
 40
5
 40
6
 40
6
 40
6
 40
7
 40
7
 40
7
 40
8
 40
8
 40
8
 40
9
 40
9
 40
9
 40
10
 40
10
 40
10
 40
11
 40
11
 40
11
 40
12
 40
12
 40
12
 40
13
 40
13
 40
13
 40
14
 40
14
 40
14
 40
15
 40
15
 40
15
 40
16
 40
16
 40
16
 40
17
 40
17
 40
17
 40
18
 40
18
 40
18
 40
19
 40
19
 40
19
 40
20
 40
20
 40
20
 40
20
 10
360.4779241179149
 20
-528.9847551979547
 30
0
 10
361.278161853872
 20
-528.9723484113546
 30
0
 10
362.0603063593917
 20
-528.5851532794167
 30
0
 10
362.8222898366676
 20
-527.8231698021409
 30
0
 10
363.3687053966933
 20
-527.2767542421188
 30
0
 10
363.7021377866731
 20
-526.6703725468396
 30
0
 10
363.8231039560669
 20
-526.0035077668581
 30
0
 10
363.9430362265721
 20
-525.3356090880006
 30
0
 10
363.8959938273656
 20
-524.8057359101113
 30
0
 10
363.6799089606775
 20
-524.4118204354345
 30
0
 10
363.6799089606775
 20
-524.4118204354345
 30
0
 10
366.0620119886717
 20
-522.0297174074257
 30
0
 10
366.0620119886717
 20
-522.0297174074257
 30
0
 10
366.8627666740904
 20
-523.5924555701076
 30
0
 10
367.1227922433354
 20
-525.0218207767939
 30
0
 10
366.843122595299
 20
-526.3167791286158
 30
0
 10
366.5639698967025
 20
-527.6132883287482
 30
0
 10
365.8650542513333
 20
-528.8208822248907
 30
0
 10
364.7474095580765
 20
-529.9385269181475
 30
0
 10
363.9725023447609
 20
-530.7134341314776
 30
0
 10
363.1495188333411
 20
-531.2882819107999
 30
0
 10
362.2789759732859
 20
-531.6625533066963
 30
0
 10
361.4094670121121
 20
-532.0378586014739
 30
0
 10
360.5296190620902
 20
-532.2125875128112
 30
0
 10
359.6394321232401
 20
-532.1867400407154
 30
0
 10
358.7507960327221
 20
-532.1614095180684
 30
0
 10
357.8714650321526
 20
-531.9489432974769
 30
0
 10
357.000405222645
 20
-531.5483074800449
 30
0
 10
356.1303793120242
 20
-531.1487055615071
 30
0
 10
355.3141161433578
 20
-530.5671374394296
 30
0
 10
354.5521326660873
 20
-529.8051539621646
 30
0
 10
353.8149627620205
 20
-529.067984058096
 30
0
 10
353.2489031232017
 20
-528.2610259793746
 30
0
 10
352.8555045979629
 20
-527.3847966754547
 30
0
 10
352.4621060727186
 20
-526.5085673715384
 30
0
 10
352.2553262959846
 20
-525.6152787360369
 30
0
 10
352.2367161160782
 20
-524.7075155161655
 30
0
 10
352.2170720372888
 20
-523.7987183974127
 30
0
 10
352.3824958586792
 20
-522.9033619641341
 30
0
 10
352.7319536813575
 20
-522.0204123174698
 30
0
 10
353.0814115040466
 20
-521.1374626708057
 30
0
 10
353.6309287607291
 20
-520.3211995021466
 30
0
 10
354.3805054513905
 20
-519.5716228114705
 30
0
 10
355.2189974460598
 20
-518.7331308168049
 30
0
 10
356.1107352332419
 20
-518.1639694813402
 30
0
 10
357.0583035601321
 20
-517.8656896533976
 30
0
 10
358.0038040892541
 20
-517.5674098254513
 30
0
 10
358.9508554667118
 20
-517.4909013080614
 30
0
 10
359.896872945279
 20
-517.6366810506624
 30
0
 10
360.8439243227331
 20
-517.7834946921394
 30
0
 10
361.7553061887011
 20
-518.1169270821373
 30
0
 10
362.6320524420626
 20
-518.6380121194996
 30
0
 10
363.5077647965427
 20
-519.1580632579971
 30
0
 10
364.3023160886569
 20
-519.8254449874094
 30
0
 10
365.0136385206279
 20
-520.6380895099863
 30
0
 10
365.0136385206279
 20
-520.6380895099863
 30
0
 10
357.9055836953084
 20
-527.7461443353022
 30
0
 10
357.9055836953084
 20
-527.7461443353022
 30
0
 10
358.8200672579242
 20
-528.5851532794112
 30
0
 10
359.6782033313848
 20
-528.9987128328848
 30
0
 10
360.4779241179149
 20
-528.9847551979547
 30
0
  0
SPLINE
  5
97
100
AcDbEntity
  8
outline
  6
ByLayer
 62
  133
370
   25
100
AcDbSpline
210
0
220
0
230
0
 70
   11
 71
    3
 72
  101
 73
   97
 74
    0
 42
1e-07
 43
1e-07
 40
0
 40
0
 40
0
 40
0
 40
1
 40
1
 40
1
 40
2
 40
2
 40
2
 40
3
 40
3
 40
3
 40
4
 40
4
 40
4
 40
5
 40
5
 40
5
 40
6
 40
6
 40
6
 40
7
 40
7
 40
7
 40
8
 40
8
 40
8
 40
9
 40
9
 40
9
 40
10
 40
10
 40
10
 40
11
 40
11
 40
11
 40
12
 40
12
 40
12
 40
13
 40
13
 40
13
 40
14
 40
14
 40
14
 40
15
 40
15
 40
15
 40
16
 40
16
 40
16
 40
17
 40
17
 40
17
 40
18
 40
18
 40
18
 40
19
 40
19
 40
19
 40
20
 40
20
 40
20
 40
21
 40
21
 40
21
 40
22
 40
22
 40
22
 40
23
 40
23
 40
23
 40
24
 40
24
 40
24
 40
25
 40
25
 40
25
 40
26
 40
26
 40
26
 40
27
 40
27
 40
27
 40
28
 40
28
 40
28
 40
29
 40
29
 40
29
 40
30
 40
30
 40
30
 40
31
 40
31
 40
31
 40
32
 40
32
 40
32
 40
32
 10
365.7859609867355
 20
-507.7277941494466
 30
0
 10
365.3346641240041
 20
-506.8701750254349
 30
0
 10
365.0679182120202
 20
-505.993428772068
 30
0
 10
364.9857232507693
 20
-505.0975553893604
 30
0
 10
364.9030113400713
 20
-504.202198956089
 30
0
 10
365.0327656499703
 20
-503.3094272700346
 30
0
 10
365.3760200793513
 20
-502.4202742300676
 30
0
 10
365.7192745087323
 20
-501.5311211900989
 30
0
 10
366.291020591414
 20
-500.686425802136
 30
0
 10
367.0912583273857
 20
-499.8861880661588
 30
0
 10
367.7012586687597
 20
-499.2761877247867
 30
0
 10
368.377428538688
 20
-498.7902552494561
 30
0
 10
369.120284886616
 20
-498.4278736907308
 30
0
 10
369.8636581839764
 20
-498.0649751825531
 30
0
 10
370.6235738634878
 20
-497.8530259113977
 30
0
 10
371.3984810767997
 20
-497.7894411300549
 30
0
 10
372.1733882901226
 20
-497.7258563487048
 30
0
 10
372.9451938067923
 20
-497.8307970853948
 30
0
 10
373.7128637279311
 20
-498.1032294412544
 30
0
 10
374.481567547944
 20
-498.3766956959825
 30
0
 10
375.1897882832727
 20
-498.8367806992191
 30
0
 10
375.8380428833389
 20
-499.4850352992907
 30
0
 10
376.5121449554954
 20
-500.1591373714582
 30
0
 10
376.9820519981295
 20
-500.845129280773
 30
0
 10
377.2477640112411
 20
-501.5430110272591
 30
0
 10
377.51554382211
 20
-502.2429605715151
 30
0
 10
377.6577049186144
 20
-502.9568677506867
 30
0
 10
377.6773489974112
 20
-503.6878342614545
 30
0
 10
377.6959591773157
 20
-504.4177668733373
 30
0
 10
377.6323743959711
 20
-505.1616571201448
 30
0
 10
377.48659465337
 20
-505.9174372041179
 30
0
 10
377.3408149107654
 20
-506.6732172880911
 30
0
 10
377.1883148254201
 20
-507.4295143214985
 30
0
 10
377.0290943973414
 20
-508.1842605065958
 30
0
 10
376.8703909186934
 20
-508.9405575400032
 30
0
 10
376.7458061032121
 20
-509.7061596633775
 30
0
 10
376.6574077486493
 20
-510.4810668766894
 30
0
 10
376.5684924446596
 20
-511.256491039454
 30
0
 10
376.5876195740057
 20
-512.0376016460741
 30
0
 10
376.7142721872569
 20
-512.8249156460042
 30
0
 10
376.7142721872569
 20
-512.8249156460042
 30
0
 10
383.0220892766029
 20
-506.5170985566473
 30
0
 10
383.0220892766029
 20
-506.5170985566473
 30
0
 10
383.0220892766029
 20
-506.5170985566473
 30
0
 10
385.3473278660022
 20
-508.8423371460576
 30
0
 10
385.3473278660022
 20
-508.8423371460576
 30
0
 10
385.3473278660022
 20
-508.8423371460576
 30
0
 10
375.5521698419979
 20
-518.6374951700636
 30
0
 10
375.5521698419979
 20
-518.6374951700636
 30
0
 10
374.7777795781221
 20
-517.8631049061878
 30
0
 10
374.2148216359565
 20
-517.0778587040277
 30
0
 10
373.865363813271
 20
-516.2838243613586
 30
0
 10
373.5159059905891
 20
-515.489790018697
 30
0
 10
373.3070584160796
 20
-514.6771454961199
 30
0
 10
373.2362363425491
 20
-513.8443399453099
 30
0
 10
373.1669651173452
 20
-513.0120513439524
 30
0
 10
373.1990159827383
 20
-512.148745776074
 30
0
 10
373.3318719892886
 20
-511.2528723933555
 30
0
 10
373.4652449452842
 20
-510.3564820612136
 30
0
 10
373.6213636767261
 20
-509.4270069647864
 30
0
 10
373.7991942847129
 20
-508.4613454074224
 30
0
 10
373.887592639272
 20
-507.9655908926961
 30
0
 10
373.9920164265204
 20
-507.4476075519669
 30
0
 10
374.113499545354
 20
-506.9084292841234
 30
0
 10
374.2339487653026
 20
-506.3682171174041
 30
0
 10
374.3042538893988
 20
-505.834725293429
 30
0
 10
374.3228640693069
 20
-505.307436862753
 30
0
 10
374.3419911986457
 20
-504.7796314826282
 30
0
 10
374.2851267600508
 20
-504.265783737439
 30
0
 10
374.1522707534896
 20
-503.7638258294028
 30
0
 10
374.0188977974976
 20
-503.2623848708262
 30
0
 10
373.7480162899774
 20
-502.8074693620055
 30
0
 10
373.3416940286879
 20
-502.4011471007216
 30
0
 10
372.6934394286236
 20
-501.7528925006445
 30
0
 10
372.0012441259896
 20
-501.4360024927936
 30
0
 10
371.2651081208114
 20
-501.4484092793991
 30
0
 10
370.5269043178632
 20
-501.4608160660118
 30
0
 10
369.8662429311899
 20
-501.7596128433888
 30
0
 10
369.2820900619099
 20
-502.343765712676
 30
0
 10
368.8881745872277
 20
-502.7376811873527
 30
0
 10
368.6477930967667
 20
-503.1641644768678
 30
0
 10
368.5588777927733
 20
-503.621147783464
 30
0
 10
368.4694455393346
 20
-504.0786480394908
 30
0
 10
368.4911574158941
 20
-504.5387330427329
 30
0
 10
368.6250473213204
 20
-505.0024366920606
 30
0
 10
368.7589372267594
 20
-505.4661403413956
 30
0
 10
368.970886497913
 20
-505.913818558025
 30
0
 10
369.2629629325566
 20
-506.3454713419615
 30
0
 10
369.5560732660851
 20
-506.7781580247865
 30
0
 10
369.879683616673
 20
-507.1720734994687
 30
0
 10
370.2353448326594
 20
-507.5277347154552
 30
0
 10
370.2353448326594
 20
-507.5277347154552
 30
0
 10
367.6438772807105
 20
-510.1192022673985
 30
0
 10
367.6438772807105
 20
-510.1192022673985
 30
0
 10
366.8560463313461
 20
-509.383066262224
 30
0
 10
366.2372578494615
 20
-508.585413273462
 30
0
 10
365.7859609867355
 20
-507.7277941494466
 30
0
  0
SPLINE
  5
98
100
AcDbEntity
  8
outline
  6
ByLayer
 62
  133
370
   25
100
AcDbSpline
210
0
220
0
230
0
 70
   11
 71
    3
 72
   65
 73
   61
 74
    0
 42
1e-07
 43
1e-07
 40
0
 40
0
 40
0
 40
0
 40
1
 40
1
 40
1
 40
2
 40
2
 40
2
 40
3
 40
3
 40
3
 40
4
 40
4
 40
4
 40
5
 40
5
 40
5
 40
6
 40
6
 40
6
 40
7
 40
7
 40
7
 40
8
 40
8
 40
8
 40
9
 40
9
 40
9
 40
10
 40
10
 40
10
 40
11
 40
11
 40
11
 40
12
 40
12
 40
12
 40
13
 40
13
 40
13
 40
14
 40
14
 40
14
 40
15
 40
15
 40
15
 40
16
 40
16
 40
16
 40
17
 40
17
 40
17
 40
18
 40
18
 40
18
 40
19
 40
19
 40
19
 40
20
 40
20
 40
20
 40
20
 10
383.5467929600709
 20
-499.9523575947169
 30
0
 10
384.1118187000047
 20
-500.4667222893422
 30
0
 10
384.7119970019812
 20
-500.9087140621213
 30
0
 10
385.3468109165642
 20
-501.276782064715
 30
0
 10
385.9826587300304
 20
-501.6458839661845
 30
0
 10
386.6247099367938
 20
-501.8619688328799
 30
0
 10
387.2714136885424
 20
-501.9245197153395
 30
0
 10
387.9201852380484
 20
-501.9891383955655
 30
0
 10
388.5172618433735
 20
-501.7477230062286
 30
0
 10
389.0636774034028
 20
-501.2013074462011
 30
0
 10
389.6224997500303
 20
-500.6424850995663
 30
0
 10
389.8737371787629
 20
-500.0355864548473
 30
0
 10
389.8158388412849
 20
-499.3800945626007
 30
0
 10
389.7594913521225
 20
-498.727187417553
 30
0
 10
389.5465081820821
 20
-498.0820345141328
 30
0
 10
389.1774062806089
 20
-497.4461867006684
 30
0
 10
388.8093382780153
 20
-496.8113727860837
 30
0
 10
388.3673465052398
 20
-496.2111944841145
 30
0
 10
387.8534987600524
 20
-495.6456517947353
 30
0
 10
387.3391340654198
 20
-495.0806260548033
 30
0
 10
386.8909388993434
 20
-494.6065834166383
 30
0
 10
386.5104641101461
 20
-494.2261086274448
 30
0
 10
386.2809385579694
 20
-493.9965830752607
 30
0
 10
386.0012689099349
 20
-493.7241507194139
 30
0
 10
385.6714551660425
 20
-493.4067437621215
 30
0
 10
385.3400905738199
 20
-493.0888198553948
 30
0
 10
384.9818446106219
 20
-492.7812349374926
 30
0
 10
384.5946494786822
 20
-492.4819212106704
 30
0
 10
384.2064204478575
 20
-492.1836413827277
 30
0
 10
383.8042337821116
 20
-491.9075903807825
 30
0
 10
383.3844708353317
 20
-491.6532512553986
 30
0
 10
382.9647078885573
 20
-491.3989121300091
 30
0
 10
382.5387415484838
 20
-491.221081522015
 30
0
 10
382.1070887645401
 20
-491.1192424819764
 30
0
 10
381.6749190311621
 20
-491.017920391374
 30
0
 10
381.2505035394115
 20
-491.012233947511
 30
0
 10
380.8312575420787
 20
-491.1006323020664
 30
0
 10
380.4114945953042
 20
-491.1895476060635
 30
0
 10
380.0175791206184
 20
-491.4180392593589
 30
0
 10
379.6489941685923
 20
-491.7866242113887
 30
0
 10
379.2804092165588
 20
-492.1552091634294
 30
0
 10
379.0555362093564
 20
-492.5455059920186
 30
0
 10
378.9728242986621
 20
-492.9590655454867
 30
0
 10
378.8906293374057
 20
-493.3721081495132
 30
0
 10
378.9025191745714
 20
-493.7903202479683
 30
0
 10
379.0105616079127
 20
-494.215769638602
 30
0
 10
379.118087091816
 20
-494.6417359786756
 30
0
 10
379.2964346492572
 20
-495.0671853693147
 30
0
 10
379.5445703813348
 20
-495.4931517093901
 30
0
 10
379.7927061134196
 20
-495.919118049469
 30
0
 10
380.0682401659196
 20
-496.3218216646655
 30
0
 10
380.3732403366084
 20
-496.7033303527423
 30
0
 10
380.6787574567334
 20
-497.0843220913829
 30
0
 10
380.9889271218399
 20
-497.4399833073639
 30
0
 10
381.3073679780191
 20
-497.7708309501504
 30
0
 10
381.6247749353024
 20
-498.1006446940427
 30
0
 10
381.8977242405963
 20
-498.3797973926339
 30
0
 10
382.1272497927785
 20
-498.6093229448106
 30
0
 10
382.5077245819757
 20
-498.9897977340042
 30
0
 10
382.9812502707028
 20
-499.4385098495277
 30
0
 10
383.5467929600709
 20
-499.9523575947169
 30
0
  0
SPLINE
  5
99
100
AcDbEntity
  8
outline
  6
ByLayer
 62
  133
370
   25
100
AcDbSpline
210
0
220
0
230
0
 70
   11
 71
    3
 72
   53
 73
   49
 74
    0
 42
1e-07
 43
1e-07
 40
0
 40
0
 40
0
 40
0
 40
1
 40
1
 40
1
 40
2
 40
2
 40
2
 40
3
 40
3
 40
3
 40
4
 40
4
 40
4
 40
5
 40
5
 40
5
 40
6
 40
6
 40
6
 40
7
 40
7
 40
7
 40
8
 40
8
 40
8
 40
9
 40
9
 40
9
 40
10
 40
10
 40
10
 40
11
 40
11
 40
11
 40
12
 40
12
 40
12
 40
13
 40
13
 40
13
 40
14
 40
14
 40
14
 40
15
 40
15
 40
15
 40
16
 40
16
 40
16
 40
16
 10
376.5426449725637
 20
-497.6555512246177
 30
0
 10
375.9197208951482
 20
-496.5125760087012
 30
0
 10
375.5640596791673
 20
-495.4517957540483
 30
0
 10
375.4756613246045
 20
-494.4732104606428
 30
0
 10
375.3867460206093
 20
-493.495142116677
 30
0
 10
375.523737622696
 20
-492.5972009361958
 30
0
 10
375.8850852825454
 20
-491.776802171993
 30
0
 10
376.2474668412742
 20
-490.9574373066771
 30
0
 10
376.759246788697
 20
-490.2181996048494
 30
0
 10
377.4199081753704
 20
-489.5575382181704
 30
0
 10
378.093493298089
 20
-488.8839530954574
 30
0
 10
378.8394513426701
 20
-488.3654528052866
 30
0
 10
379.6582992585445
 20
-488.0035881959956
 30
0
 10
380.4786980227491
 20
-487.6422405361536
 30
0
 10
381.3802578493196
 20
-487.5016302879721
 30
0
 10
382.3645295865826
 20
-487.584342198661
 30
0
 10
383.3488013238475
 20
-487.667054109359
 30
0
 10
384.4132002246006
 20
-488.0190966792542
 30
0
 10
385.5566923899532
 20
-488.6415038072319
 30
0
 10
386.7007015047457
 20
-489.2654617835323
 30
0
 10
387.9196682886032
 20
-490.2238860486995
 30
0
 10
389.216177488739
 20
-491.5203952488391
 30
0
 10
390.5499070486967
 20
-492.8541248087912
 30
0
 10
391.5341787859615
 20
-494.0989390647518
 30
0
 10
392.1695096499843
 20
-495.2543210672701
 30
0
 10
392.805357463445
 20
-496.4112539181042
 30
0
 10
393.1636034266448
 20
-497.4818562121636
 30
0
 10
393.2463153373392
 20
-498.4661279494194
 30
0
 10
393.3290272480353
 20
-499.4503996866878
 30
0
 10
393.1894508987371
 20
-500.3529934121379
 30
0
 10
392.8270693400063
 20
-501.1723582774611
 30
0
 10
392.4652047307191
 20
-501.9912061933355
 30
0
 10
391.9477383394424
 20
-502.7381981367944
 30
0
 10
391.2741532167129
 20
-503.4117832595147
 30
0
 10
390.6134918300395
 20
-504.0724446461863
 30
0
 10
389.8732202293249
 20
-504.5831906947241
 30
0
 10
389.053855364009
 20
-504.9455722534567
 30
0
 10
388.2344904986912
 20
-505.3079538121874
 30
0
 10
387.335515419325
 20
-505.4439115153927
 30
0
 10
386.3574470753629
 20
-505.3549962114029
 30
0
 10
385.3788617819591
 20
-505.2665978568529
 30
0
 10
384.3118781339981
 20
-504.904733247551
 30
0
 10
383.155462232602
 20
-504.2683684846434
 30
0
 10
381.9995632806458
 20
-503.6335545700658
 30
0
 10
380.7547490246871
 20
-502.6492828327973
 30
0
 10
379.4210194647385
 20
-501.3155532728506
 30
0
 10
378.1245102646007
 20
-500.0190440727074
 30
0
 10
377.1660859994299
 20
-498.8000772888518
 30
0
 10
376.5426449725637
 20
-497.6555512246177
 30
0
  0
SPLINE
  5
9A
100
AcDbEntity
  8
outline
  6
ByLayer
 62
  133
370
   25
100
AcDbSpline
210
0
220
0
230
0
 70
   11
 71
    3
 72
  101
 73
   97
 74
    0
 42
1e-07
 43
1e-07
 40
0
 40
0
 40
0
 40
0
 40
1
 40
1
 40
1
 40
2
 40
2
 40
2
 40
3
 40
3
 40
3
 40
4
 40
4
 40
4
 40
5
 40
5
 40
5
 40
6
 40
6
 40
6
 40
7
 40
7
 40
7
 40
8
 40
8
 40
8
 40
9
 40
9
 40
9
 40
10
 40
10
 40
10
 40
11
 40
11
 40
11
 40
12
 40
12
 40
12
 40
13
 40
13
 40
13
 40
14
 40
14
 40
14
 40
15
 40
15
 40
15
 40
16
 40
16
 40
16
 40
17
 40
17
 40
17
 40
18
 40
18
 40
18
 40
19
 40
19
 40
19
 40
20
 40
20
 40
20
 40
21
 40
21
 40
21
 40
22
 40
22
 40
22
 40
23
 40
23
 40
23
 40
24
 40
24
 40
24
 40
25
 40
25
 40
25
 40
26
 40
26
 40
26
 40
27
 40
27
 40
27
 40
28
 40
28
 40
28
 40
29
 40
29
 40
29
 40
30
 40
30
 40
30
 40
31
 40
31
 40
31
 40
32
 40
32
 40
32
 40
32
 10
386.9767525066891
 20
-486.5370026294895
 30
0
 10
386.5254556439595
 20
-485.6793835054795
 30
0
 10
386.258709731972
 20
-484.802637252118
 30
0
 10
386.1765147707174
 20
-483.906763869405
 30
0
 10
386.0938028600212
 20
-483.0114074361408
 30
0
 10
386.2235571699257
 20
-482.1186357500791
 30
0
 10
386.5668115993121
 20
-481.2294827101104
 30
0
 10
386.9100660286931
 20
-480.3403296701435
 30
0
 10
387.4818121113694
 20
-479.4956342821733
 30
0
 10
388.2820498473375
 20
-478.6953965462089
 30
0
 10
388.8920501887114
 20
-478.0853962048313
 30
0
 10
389.5682200586362
 20
-477.5994637295061
 30
0
 10
390.3110764065659
 20
-477.2370821707754
 30
0
 10
391.0544497039282
 20
-476.8741836625959
 30
0
 10
391.8143653834377
 20
-476.6622343914423
 30
0
 10
392.5892725967642
 20
-476.5986496100977
 30
0
 10
393.364179810078
 20
-476.5350648287494
 30
0
 10
394.135985326744
 20
-476.6400055654449
 30
0
 10
394.9036552478774
 20
-476.9124379212971
 30
0
 10
395.6723590679012
 20
-477.1859041760271
 30
0
 10
396.3805798032209
 20
-477.6459891792692
 30
0
 10
397.0288344032924
 20
-478.2942437793407
 30
0
 10
397.7029364754544
 20
-478.9683458514955
 30
0
 10
398.1728435180794
 20
-479.6543377608231
 30
0
 10
398.438555531191
 20
-480.3522195073091
 30
0
 10
398.7063353420654
 20
-481.0521690515652
 30
0
 10
398.8484964385698
 20
-481.7660762307441
 30
0
 10
398.8681405173611
 20
-482.4970427415028
 30
0
 10
398.8867506972674
 20
-483.2269753533873
 30
0
 10
398.823165915921
 20
-483.9708656001948
 30
0
 10
398.6773861733236
 20
-484.726645684168
 30
0
 10
398.531606430719
 20
-485.4824257681356
 30
0
 10
398.3791063453809
 20
-486.2387228015541
 30
0
 10
398.219885917295
 20
-486.9934689866458
 30
0
 10
398.0611824386451
 20
-487.7497660200533
 30
0
 10
397.936597623162
 20
-488.5153681434221
 30
0
 10
397.848199268612
 20
-489.2902753567396
 30
0
 10
397.7592839646113
 20
-490.0656995194985
 30
0
 10
397.7784110939592
 20
-490.8468101261242
 30
0
 10
397.9050637072105
 20
-491.6341241260416
 30
0
 10
397.9050637072105
 20
-491.6341241260416
 30
0
 10
404.2128807965528
 20
-485.3263070367029
 30
0
 10
404.2128807965528
 20
-485.3263070367029
 30
0
 10
404.2128807965528
 20
-485.3263070367029
 30
0
 10
406.538119385952
 20
-487.6515456261022
 30
0
 10
406.538119385952
 20
-487.6515456261022
 30
0
 10
406.538119385952
 20
-487.6515456261022
 30
0
 10
396.7429613619515
 20
-497.4467036501082
 30
0
 10
396.7429613619515
 20
-497.4467036501082
 30
0
 10
395.9685710980757
 20
-496.6723133862323
 30
0
 10
395.4056131559137
 20
-495.8870671840777
 30
0
 10
395.0561553332263
 20
-495.0930328414033
 30
0
 10
394.7066975105354
 20
-494.2989984987307
 30
0
 10
394.497849936035
 20
-493.4863539761645
 30
0
 10
394.4270278625045
 20
-492.6535484253545
 30
0
 10
394.3577566372987
 20
-491.8212598239915
 30
0
 10
394.3898075026845
 20
-490.9579542561168
 30
0
 10
394.5226635092386
 20
-490.0620808734056
 30
0
 10
394.6560364652396
 20
-489.1656905412528
 30
0
 10
394.8121551966815
 20
-488.236215444831
 30
0
 10
394.9899858046665
 20
-487.270553887467
 30
0
 10
395.078384159222
 20
-486.7747993727407
 30
0
 10
395.1828079464794
 20
-486.256816032017
 30
0
 10
395.3042910653039
 20
-485.7176377641735
 30
0
 10
395.4247402852543
 20
-485.1774255974487
 30
0
 10
395.4950454093469
 20
-484.6439337734682
 30
0
 10
395.513655589255
 20
-484.1166453427904
 30
0
 10
395.5327827186011
 20
-483.5888399626728
 30
0
 10
395.4759182799935
 20
-483.0749922174836
 30
0
 10
395.3430622734522
 20
-482.5730343094583
 30
0
 10
395.2096893174512
 20
-482.0715933508709
 30
0
 10
394.9388078099273
 20
-481.6166778420556
 30
0
 10
394.5324855486415
 20
-481.2103555807607
 30
0
 10
393.8842309485717
 20
-480.5621009806945
 30
0
 10
393.1920356459504
 20
-480.2452109728492
 30
0
 10
392.4558996407632
 20
-480.2576177594438
 30
0
 10
391.717695837815
 20
-480.2700245460619
 30
0
 10
391.0570344511398
 20
-480.5688213234389
 30
0
 10
390.4728815818635
 20
-481.1529741927261
 30
0
 10
390.0789661071812
 20
-481.5468896673974
 30
0
 10
389.8385846167203
 20
-481.9733729569198
 30
0
 10
389.7496693127268
 20
-482.4303562635086
 30
0
 10
389.6602370592882
 20
-482.8878565195409
 30
0
 10
389.6819489358386
 20
-483.3479415227775
 30
0
 10
389.8158388412794
 20
-483.8116451721052
 30
0
 10
389.9497287467166
 20
-484.2753488214403
 30
0
 10
390.161678017872
 20
-484.7230270380696
 30
0
 10
390.4537544525119
 20
-485.1546798220115
 30
0
 10
390.7468647860387
 20
-485.5873665048311
 30
0
 10
391.0704751366302
 20
-485.9812819795187
 30
0
 10
391.4261363526148
 20
-486.3369431954997
 30
0
 10
391.4261363526148
 20
-486.3369431954997
 30
0
 10
388.8346688006641
 20
-488.9284107474487
 30
0
 10
388.8346688006641
 20
-488.9284107474487
 30
0
 10
388.0468378513015
 20
-488.192274742274
 30
0
 10
387.4280493694168
 20
-487.3946217535067
 30
0
 10
386.9767525066891
 20
-486.5370026294895
 30
0
  0
SPLINE
  5
9B
100
AcDbEntity
  8
outline
  6
ByLayer
 62
  133
370
   25
100
AcDbSpline
210
0
220
0
230
0
 70
   11
 71
    3
 72
  131
 73
  127
 74
    0
 42
1e-07
 43
1e-07
 40
0
 40
0
 40
0
 40
0
 40
1
 40
1
 40
1
 40
2
 40
2
 40
2
 40
3
 40
3
 40
3
 40
4
 40
4
 40
4
 40
5
 40
5
 40
5
 40
6
 40
6
 40
6
 40
7
 40
7
 40
7
 40
8
 40
8
 40
8
 40
9
 40
9
 40
9
 40
10
 40
10
 40
10
 40
11
 40
11
 40
11
 40
12
 40
12
 40
12
 40
13
 40
13
 40
13
 40
14
 40
14
 40
14
 40
15
 40
15
 40
15
 40
16
 40
16
 40
16
 40
17
 40
17
 40
17
 40
18
 40
18
 40
18
 40
19
 40
19
 40
19
 40
20
 40
20
 40
20
 40
21
 40
21
 40
21
 40
22
 40
22
 40
22
 40
23
 40
23
 40
23
 40
24
 40
24
 40
24
 40
25
 40
25
 40
25
 40
26
 40
26
 40
26
 40
27
 40
27
 40
27
 40
28
 40
28
 40
28
 40
29
 40
29
 40
29
 40
30
 40
30
 40
30
 40
31
 40
31
 40
31
 40
32
 40
32
 40
32
 40
33
 40
33
 40
33
 40
34
 40
34
 40
34
 40
35
 40
35
 40
35
 40
36
 40
36
 40
36
 40
37
 40
37
 40
37
 40
38
 40
38
 40
38
 40
39
 40
39
 40
39
 40
40
 40
40
 40
40
 40
41
 40
41
 40
41
 40
42
 40
42
 40
42
 40
42
 10
404.2702621845965
 20
-474.0263091874949
 30
0
 10
404.5747454058491
 20
-473.6701310220723
 30
0
 10
404.8104743513231
 20
-473.289656232866
 30
0
 10
404.9753812232702
 20
-472.8828170221422
 30
0
 10
405.1402880952155
 20
-472.475977811413
 30
0
 10
405.2007711799105
 20
-472.0660369040306
 30
0
 10
405.1563135279157
 20
-471.6535112494384
 30
0
 10
405.1118558759135
 20
-471.2409855948535
 30
0
 10
404.8993896553238
 20
-470.8434514740838
 30
0
 10
404.5178809672452
 20
-470.4619427860015
 30
0
 10
403.9461348845689
 20
-469.8901967033198
 30
0
 10
403.317007413847
 20
-469.6425779206856
 30
0
 10
402.631015504523
 20
-469.7185694886356
 30
0
 10
401.9460574940894
 20
-469.795594955467
 30
0
 10
401.3546673326163
 20
-470.0809510473663
 30
0
 10
400.8589128178937
 20
-470.5767055620872
 30
0
 10
400.1729209085697
 20
-471.2626974714148
 30
0
 10
399.88032752449
 20
-472.0060707687808
 30
0
 10
399.9821665645322
 20
-472.8057915553108
 30
0
 10
400.0845225540142
 20
-473.6070631901639
 30
0
 10
400.4846414219955
 20
-474.3442330942325
 30
0
 10
401.1830401179268
 20
-475.0167843180606
 30
0
 10
401.1830401179268
 20
-475.0167843180606
 30
0
 10
398.6101827458842
 20
-477.589641690105
 30
0
 10
398.6101827458842
 20
-477.589641690105
 30
0
 10
397.9500383086524
 20
-476.8788362075774
 30
0
 10
397.4475634511855
 20
-476.1282256180257
 30
0
 10
397.1053429206895
 20
-475.3414285675371
 30
0
 10
396.7620884912994
 20
-474.5535976181726
 30
0
 10
396.5873595799567
 20
-473.7564615788524
 30
0
 10
396.5801222877744
 20
-472.948986550702
 30
0
 10
396.5744358439133
 20
-472.1420284719861
 30
0
 10
396.7393427158586
 20
-471.348511078766
 30
0
 10
397.0763937519332
 20
-470.5668835226915
 30
0
 10
397.412927838579
 20
-469.7857729160769
 30
0
 10
397.9247077860018
 20
-469.0527386075482
 30
0
 10
398.6106996953222
 20
-468.3667466982206
 30
0
 10
399.1447084687497
 20
-467.832737924793
 30
0
 10
399.7567766078846
 20
-467.3778224159778
 30
0
 10
400.4494888599565
 20
-467.0035510200814
 30
0
 10
401.1422011120211
 20
-466.6292796241905
 30
0
 10
401.8592099878551
 20
-466.3878642348536
 30
0
 10
402.6025832852265
 20
-466.2793048520653
 30
0
 10
403.3454396331453
 20
-466.1712624187185
 30
0
 10
404.0795078405608
 20
-466.2126183740656
 30
0
 10
404.8042709580259
 20
-466.4038896675537
 30
0
 10
405.5280001766004
 20
-466.5941270621406
 30
0
 10
406.188661563272
 20
-466.9880425368301
 30
0
 10
406.7852212191573
 20
-467.5846021927191
 30
0
 10
407.4334758192271
 20
-468.2328567927852
 30
0
 10
407.8496201199177
 20
-468.9602046574582
 30
0
 10
408.0336541212109
 20
-469.7666457867271
 30
0
 10
408.217688122504
 20
-470.5730869160015
 30
0
 10
408.0879338125996
 20
-471.3769432980643
 30
0
 10
407.6433572926143
 20
-472.1771810340306
 30
0
 10
407.6433572926143
 20
-472.1771810340306
 30
0
 10
407.6816115513138
 20
-472.2154352927318
 30
0
 10
407.6816115513138
 20
-472.2154352927318
 30
0
 10
408.5836883273259
 20
-471.6442061594898
 30
0
 10
409.5172990192895
 20
-471.4219178995044
 30
0
 10
410.4824436272065
 20
-471.5485705127557
 30
0
 10
411.4486221340085
 20
-471.6762570248938
 30
0
 10
412.3119277018886
 20
-472.1197996459904
 30
0
 10
413.0749450780367
 20
-472.8828170221422
 30
0
 10
413.7738607234114
 20
-473.5817326675223
 30
0
 10
414.259276249304
 20
-474.3411313975811
 30
0
 10
414.5322255545907
 20
-475.1599793134555
 30
0
 10
414.8056918093224
 20
-475.9803780776547
 30
0
 10
414.8977088099709
 20
-476.8023276901804
 30
0
 10
414.8087935059757
 20
-477.6273789993592
 30
0
 10
414.7203951514184
 20
-478.4539811568666
 30
0
 10
414.472259419339
 20
-479.260422286141
 30
0
 10
414.0654202086061
 20
-480.0477362860638
 30
0
 10
413.6580640484425
 20
-480.8355672354282
 30
0
 10
413.1323264660859
 20
-481.5536100101525
 30
0
 10
412.4840718660216
 20
-482.2018646102187
 30
0
 10
411.7344951753438
 20
-482.9514413008837
 30
0
 10
410.943045579892
 20
-483.5257721307698
 30
0
 10
410.1107569785254
 20
-483.9258909987493
 30
0
 10
409.278468377157
 20
-484.3260098667415
 30
0
 10
408.4399763824876
 20
-484.5358913401269
 30
0
 10
407.5957979439644
 20
-484.5550184694712
 30
0
 10
406.7511025559979
 20
-484.5746625482624
 30
0
 10
405.9120936118906
 20
-484.4025183841313
 30
0
 10
405.0808389094072
 20
-484.0406537748422
 30
0
 10
404.2480333585972
 20
-483.6782722161096
 30
0
 10
403.4514142687203
 20
-483.103941386229
 30
0
 10
402.6889138420046
 20
-482.3155934874176
 30
0
 10
402.6889138420046
 20
-482.3155934874176
 30
0
 10
405.2612542646111
 20
-479.7432530648075
 30
0
 10
405.2612542646111
 20
-479.7432530648075
 30
0
 10
405.6293222671956
 20
-480.0865074942012
 30
0
 10
406.0268563879708
 20
-480.3692788388889
 30
0
 10
406.4523057786137
 20
-480.5910501494399
 30
0
 10
406.8772382198058
 20
-480.8133384094325
 30
0
 10
407.3037215093245
 20
-480.9472283148624
 30
0
 10
407.7291708999655
 20
-480.9911690174194
 30
0
 10
408.1551372400372
 20
-481.0366605683011
 30
0
 10
408.5805866306746
 20
-480.9854825735583
 30
0
 10
409.0060360213083
 20
-480.8391858815212
 30
0
 10
409.4314854119438
 20
-480.6928891894785
 30
0
 10
409.8414263193226
 20
-480.4235585302776
 30
0
 10
410.2353417940048
 20
-480.0296430555954
 30
0
 10
410.8453421353788
 20
-479.4196427142233
 30
0
 10
411.1715372331818
 20
-478.717108422763
 30
0
 10
411.2165118346183
 20
-477.9235910295374
 30
0
 10
411.2604525371789
 20
-477.1290397374286
 30
0
 10
410.9595879620265
 20
-476.4084122154981
 30
0
 10
410.3113333619549
 20
-475.7601576154375
 30
0
 10
409.8036890100702
 20
-475.2525132635455
 30
0
 10
409.3172395852998
 20
-474.9635385255532
 30
0
 10
408.8540528854028
 20
-474.8932334014662
 30
0
 10
408.3898322866335
 20
-474.8239621762604
 30
0
 10
407.9447388172047
 20
-474.8803096654191
 30
0
 10
407.518772477133
 20
-475.0643436667105
 30
0
 10
407.0943569853825
 20
-475.2488946174598
 30
0
 10
406.6901025218594
 20
-475.5125388327924
 30
0
 10
406.3096277326621
 20
-475.8557932621734
 30
0
 10
405.9281190445835
 20
-476.1980137926657
 30
0
 10
405.5724578286026
 20
-476.5350648287549
 30
0
 10
405.2421271352632
 20
-476.8653955220943
 30
0
 10
405.2421271352632
 20
-476.8653955220943
 30
0
 10
403.3366514926346
 20
-474.9599198794603
 30
0
 10
403.3366514926346
 20
-474.9599198794603
 30
0
 10
403.6545753993687
 20
-474.6936909169107
 30
0
 10
403.9657789633565
 20
-474.3824873529283
 30
0
 10
404.2702621845965
 20
-474.0263091874949
 30
0
  0
ENDBLK
  5
60
330
5E
100
AcDbEntity
  8
0
100
AcDbBlockEnd
  0
BLOCK
  5
62
330
61
100
AcDbEntity
  8
0
100
AcDbBlockBegin
  2
Block_6
 70
    0
 10
0
 20
0
  3
Block_6
  1

  0
ENDBLK
  5
63
330
61
100
AcDbEntity
  8
0
100
AcDbBlockEnd
  0
BLOCK
  5
65
330
64
100
AcDbEntity
  8
0
100
AcDbBlockBegin
  2
Block_7
 70
    0
 10
0
 20
0
  3
Block_7
  1

  0
ENDBLK
  5
66
330
64
100
AcDbEntity
  8
0
100
AcDbBlockEnd
  0
BLOCK
  5
68
330
67
100
AcDbEntity
  8
0
100
AcDbBlockBegin
  2
nsec2023
 70
    0
 10
0
 20
0
  3
nsec2023
  1

  0
ENDBLK
  5
69
330
67
100
AcDbEntity
  8
0
100
AcDbBlockEnd
  0
BLOCK
  5
6B
330
6A
100
AcDbEntity
  8
0
100
AcDbBlockBegin
  2
Block_0-0
 70
    0
 10
0
 20
0
  3
Block_0-0
  1

  0
ENDBLK
  5
6C
330
6A
100
AcDbEntity
  8
0
100
AcDbBlockEnd
  0
BLOCK
  5
6E
330
6D
100
AcDbEntity
  8
0
100
AcDbBlockBegin
  2
nsec2023-0
 70
    0
 10
0
 20
0
  3
nsec2023-0
  1

  0
ENDBLK
  5
6F
330
6D
100
AcDbEntity
  8
0
100
AcDbBlockEnd
  0
BLOCK
  5
71
330
70
100
AcDbEntity
  8
0
100
AcDbBlockBegin
  2
Block_0-1
 70
    0
 10
0
 20
0
  3
Block_0-1
  1

  0
ENDBLK
  5
72
330
70
100
AcDbEntity
  8
0
100
AcDbBlockEnd
  0
BLOCK
  5
74
330
73
100
AcDbEntity
  8
0
100
AcDbBlockBegin
  2
crest
 70
    0
 10
0
 20
0
  3
crest
  1

  0
ENDBLK
  5
75
330
73
100
AcDbEntity
  8
0
100
AcDbBlockEnd
  0
BLOCK
  5
77
330
76
100
AcDbEntity
  8
0
100
AcDbBlockBegin
  2
Block_0-2
 70
    0
 10
0
 20
0
  3
Block_0-2
  1

  0
ENDBLK
  5
78
330
76
100
AcDbEntity
  8
0
100
AcDbBlockEnd
  0
BLOCK
  5
7A
330
79
100
AcDbEntity
  8
0
100
AcDbBlockBegin
  2
Block_1-0
 70
    0
 10
0
 20
0
  3
Block_1-0
  1

  0
ENDBLK
  5
7B
330
79
100
AcDbEntity
  8
0
100
AcDbBlockEnd
  0
BLOCK
  5
7D
330
7C
100
AcDbEntity
  8
0
100
AcDbBlockBegin
  2
OLEDnote
 70
    0
 10
0
 20
0
  3
OLEDnote
  1

  0
ENDBLK
  5
7E
330
7C
100
AcDbEntity
  8
0
100
AcDbBlockEnd
  0
ENDSEC
  0
SECTION
  2
ENTITIES
  0
LINE
  5
9C
100
AcDbEntity
  8
outline
  6
ByLayer
 62
  256
370
   -1
100
AcDbLine
 10
641.3900283947477
 20
-668.1554503371935
 11
673.5328855376065
 21
-636.0125931943348
  0
LINE
  5
9D
100
AcDbEntity
  8
outline
  6
ByLayer
 62
  256
370
   -1
100
AcDbLine
 10
673.5328855376065
 20
-636.0125931943348
 11
673.5328855376065
 21
-523.5125931943348
  0
LINE
  5
9E
100
AcDbEntity
  8
outline
  6
ByLayer
 62
  256
370
   -1
100
AcDbLine
 10
673.5328855376065
 20
-523.5125931943348
 11
721.7471712518927
 21
-475.2983074800486
  0
LINE
  5
9F
100
AcDbEntity
  8
outline
  6
ByLayer
 62
  256
370
   -1
100
AcDbLine
 10
721.7471712518927
 20
-475.2983074800486
 11
721.7471712518927
 21
-378.869736051478
  0
LINE
  5
A0
100
AcDbEntity
  8
outline
  6
ByLayer
 62
  256
370
   -1
100
AcDbLine
 10
721.7471712518927
 20
-378.869736051478
 11
673.5328855376065
 21
-330.6554503371927
  0
LINE
  5
A1
100
AcDbEntity
  8
outline
  6
ByLayer
 62
  256
370
   -1
100
AcDbLine
 10
673.5328855376065
 20
-330.6554503371927
 11
673.5328855376065
 21
-202.0840217657642
  0
LINE
  5
A2
100
AcDbEntity
  8
outline
  6
ByLayer
 62
  256
370
   -1
100
AcDbLine
 10
673.5328855376065
 20
-202.0840217657642
 11
641.3900283947477
 21
-169.9411646229064
  0
LINE
  5
A3
100
AcDbEntity
  8
outline
  6
ByLayer
 62
  256
370
   -1
100
AcDbLine
 10
641.3900283947477
 20
-169.9411646229064
 11
143.1757426804634
 21
-169.9411646229064
  0
LINE
  5
A4
100
AcDbEntity
  8
outline
  6
ByLayer
 62
  256
370
   -1
100
AcDbLine
 10
143.1757426804634
 20
-169.9411646229064
 11
111.0328855376055
 21
-202.0840217657642
  0
LINE
  5
A5
100
AcDbEntity
  8
outline
  6
ByLayer
 62
  256
370
   -1
100
AcDbLine
 10
111.0328855376055
 20
-202.0840217657642
 11
111.0328855376055
 21
-330.6554503371927
  0
LINE
  5
A6
100
AcDbEntity
  8
outline
  6
ByLayer
 62
  256
370
   -1
100
AcDbLine
 10
111.0328855376055
 20
-330.6554503371927
 11
159.2471712518918
 21
-378.869736051478
  0
LINE
  5
A7
100
AcDbEntity
  8
outline
  6
ByLayer
 62
  256
370
   -1
100
AcDbLine
 10
159.2471712518918
 20
-378.869736051478
 11
159.2471712518918
 21
-475.2983074800486
  0
LINE
  5
A8
100
AcDbEntity
  8
outline
  6
ByLayer
 62
  256
370
   -1
100
AcDbLine
 10
159.2471712518918
 20
-475.2983074800486
 11
111.0328855376055
 21
-523.5125931943348
  0
LINE
  5
A9
100
AcDbEntity
  8
outline
  6
ByLayer
 62
  256
370
   -1
100
AcDbLine
 10
111.0328855376055
 20
-523.5125931943348
 11
111.0328855376055
 21
-636.0125931943348
  0
LINE
  5
AA
100
AcDbEntity
  8
outline
  6
ByLayer
 62
  256
370
   -1
100
AcDbLine
 10
111.0328855376055
 20
-636.0125931943348
 11
143.1757426804615
 21
-668.1554503371935
  0
LINE
  5
AB
100
AcDbEntity
  8
outline
  6
ByLayer
 62
  256
370
   -1
100
AcDbLine
 10
143.1757426804615
 20
-668.1554503371935
 11
641.3900283947477
 21
-668.1554503371935
  0
CIRCLE
  5
AC
100
AcDbEntity
  8
registre
  6
ByLayer
 62
  256
370
   -1
100
AcDbCircle
 10
111.0328855376055
 20
-523.5125931943348
 40
0
  0
CIRCLE
  5
AD
100
AcDbEntity
  8
registre
  6
ByLayer
 62
  256
370
   -1
100
AcDbCircle
 10
111.0328855376055
 20
-523.5125931943348
 40
6.512676222067245
  0
LINE
  5
AE
100
AcDbEntity
  8
registre
  6
ByLayer
 62
  256
370
   -1
100
AcDbLine
 10
111.0328855376055
 20
-523.5125931943348
 11
111.0328855376055
 21
-516.9999169722676
  0
LINE
  5
AF
100
AcDbEntity
  8
registre
  6
ByLayer
 62
  256
370
   -1
100
AcDbLine
 10
111.0328855376055
 20
-523.5125931943348
 11
104.5202093155383
 21
-523.5125931943348
  0
LINE
  5
B0
100
AcDbEntity
  8
registre
  6
ByLayer
 62
  256
370
   -1
100
AcDbLine
 10
111.0328855376055
 20
-523.5125931943348
 11
117.5455617596727
 21
-523.5125931943348
  0
LINE
  5
B1
100
AcDbEntity
  8
registre
  6
ByLayer
 62
  256
370
   -1
100
AcDbLine
 10
111.0328855376055
 20
-523.5125931943348
 11
111.0328855376055
 21
-530.0252694164021
  0
LINE
  5
B2
100
AcDbEntity
  8
outline
  6
ByLayer
 62
  256
370
   -1
100
AcDbLine
 10
111.0328855376055
 20
-330.6554503371927
 11
159.2471712518918
 21
-378.869736051478
  0
ENDSEC
  0
SECTION
  2
OBJECTS
  0
DICTIONARY
  5
C
330
0
100
AcDbDictionary
281
    1
  3
ACAD_GROUP
350
D
  0
DICTIONARY
  5
D
330
C
100
AcDbDictionary
281
    1
  0
PLOTSETTINGS
  5
B3
100
AcDbPlotSettings
  6
1x1
 40
0
 41
0
 42
0
 43
0
  0
ENDSEC
  0
EOF
