999
dxfrw 0.6.3
  0
SECTION
  2
HEADER
  9
$ACADVER
  1
AC1015
  9
$DWGCODEPAGE
  3
ANSI_1252
  9
$INSBASE
 10
0
 20
0
 30
0
  9
$EXTMIN
 10
104.5202093155383
 20
-659.7874755859375
 30
0
  9
$EXTMAX
 10
721.7471923828124
 20
-176.0696411132812
 30
0
  9
$LIMMIN
 10
0
 20
0
  9
$LIMMAX
 10
12
 20
9
  9
$ORTHOMODE
 70
    0
  9
$REGENMODE
 70
    1
  9
$FILLMODE
 70
    1
  9
$QTEXTMODE
 70
    0
  9
$MIRRTEXT
 70
    0
  9
$LTSCALE
 40
1
  9
$ATTMODE
 70
    1
  9
$TEXTSIZE
 40
0.2
  9
$TRACEWID
 40
0.05
  9
$TEXTSTYLE
  7
Standard
  9
$CLAYER
  8
0
  9
$CELTYPE
  6
ByLayer
  9
$CECOLOR
 62
  256
  9
$CELTSCALE
 40
1
  9
$DISPSILH
 70
    0
  9
$DIMSCALE
 40
1
  9
$DIMASZ
 40
0.18
  9
$DIMEXO
 40
0.0625
  9
$DIMDLI
 40
0.38
  9
$DIMRND
 40
0
  9
$DIMDLE
 40
0
  9
$DIMEXE
 40
0.18
  9
$DIMTP
 40
0
  9
$DIMTM
 40
0
  9
$DIMTXT
 40
0.18
  9
$DIMCEN
 40
0.09
  9
$DIMTSZ
 40
0
  9
$DIMTOL
 70
    0
  9
$DIMLIM
 70
    0
  9
$DIMTIH
 70
    1
  9
$DIMTOH
 70
    1
  9
$DIMSE1
 70
    0
  9
$DIMSE2
 70
    0
  9
$DIMTAD
 70
    0
  9
$DIMZIN
 70
    0
  9
$DIMBLK
  1

  9
$DIMASO
 70
    1
  9
$DIMSHO
 70
    1
  9
$DIMPOST
  1

  9
$DIMAPOST
  1

  9
$DIMALT
 70
    0
  9
$DIMALTD
 70
    2
  9
$DIMALTF
 40
25.4
  9
$DIMLFAC
 40
1
  9
$DIMTOFL
 70
    0
  9
$DIMTVP
 40
0
  9
$DIMTIX
 70
    0
  9
$DIMSOXD
 70
    0
  9
$DIMSAH
 70
    0
  9
$DIMBLK1
  1

  9
$DIMBLK2
  1

  9
$DIMSTYLE
  2
Standard
  9
$DIMCLRD
 70
    0
  9
$DIMCLRE
 70
    0
  9
$DIMCLRT
 70
    0
  9
$DIMTFAC
 40
1
  9
$DIMGAP
 40
0.09
  9
$DIMJUST
 70
    0
  9
$DIMSD1
 70
    0
  9
$DIMSD2
 70
    0
  9
$DIMTOLJ
 70
    1
  9
$DIMTZIN
 70
    0
  9
$DIMALTZ
 70
    0
  9
$DIMALTTZ
 70
    0
  9
$DIMUPT
 70
    0
  9
$DIMDEC
 70
    4
  9
$DIMTDEC
 70
    4
  9
$DIMALTU
 70
    2
  9
$DIMALTTD
 70
    2
  9
$DIMTXSTY
  7
Standard
  9
$DIMAUNIT
 70
    0
  9
$DIMADEC
 70
    0
  9
$DIMALTRND
 40
0
  9
$DIMAZIN
 70
    0
  9
$DIMDSEP
 70
   46
  9
$DIMATFIT
 70
    3
  9
$DIMFRAC
 70
    0
  9
$DIMLDRBLK
  1

  9
$DIMLUNIT
 70
    2
  9
$DIMLWD
 70
   -2
  9
$DIMLWE
 70
   -2
  9
$DIMTMOVE
 70
    0
  9
$LUNITS
 70
    2
  9
$LUPREC
 70
    4
  9
$SKETCHINC
 40
0.1
  9
$FILLETRAD
 40
0
  9
$AUNITS
 70
    0
  9
$AUPREC
 70
    0
  9
$MENU
  1
.
  9
$ELEVATION
 40
0
  9
$PELEVATION
 40
0
  9
$THICKNESS
 40
0
  9
$LIMCHECK
 70
    0
  9
$CHAMFERA
 40
0
  9
$CHAMFERB
 40
0
  9
$CHAMFERC
 40
0
  9
$CHAMFERD
 40
0
  9
$SKPOLY
 70
    0
  9
$USRTIMER
 70
    1
  9
$ANGBASE
 50
0
  9
$ANGDIR
 70
    0
  9
$PDMODE
 70
    0
  9
$PDSIZE
 40
0
  9
$PLINEWID
 40
0
  9
$SPLFRAME
 70
    0
  9
$SPLINETYPE
 70
    6
  9
$SPLINESEGS
 70
    8
  9
$HANDSEED
  5
20000
  9
$SURFTAB1
 70
    6
  9
$SURFTAB2
 70
    6
  9
$SURFTYPE
 70
    6
  9
$SURFU
 70
    6
  9
$SURFV
 70
    6
  9
$UCSBASE
  2

  9
$UCSNAME
  2

  9
$UCSORG
 10
0
 20
0
 30
0
  9
$UCSXDIR
 10
1
 20
0
 30
0
  9
$UCSYDIR
 10
0
 20
1
 30
0
  9
$UCSORTHOREF
  2

  9
$UCSORTHOVIEW
 70
    0
  9
$UCSORGTOP
 10
0
 20
0
 30
0
  9
$UCSORGBOTTOM
 10
0
 20
0
 30
0
  9
$UCSORGLEFT
 10
0
 20
0
 30
0
  9
$UCSORGRIGHT
 10
0
 20
0
 30
0
  9
$UCSORGFRONT
 10
0
 20
0
 30
0
  9
$UCSORGBACK
 10
0
 20
0
 30
0
  9
$PUCSBASE
  2

  9
$PUCSNAME
  2

  9
$PUCSORG
 10
0
 20
0
 30
0
  9
$PUCSXDIR
 10
1
 20
0
 30
0
  9
$PUCSYDIR
 10
0
 20
1
 30
0
  9
$PUCSORTHOREF
  2

  9
$PUCSORTHOVIEW
 70
    0
  9
$PUCSORGTOP
 10
0
 20
0
 30
0
  9
$PUCSORGBOTTOM
 10
0
 20
0
 30
0
  9
$PUCSORGLEFT
 10
0
 20
0
 30
0
  9
$PUCSORGRIGHT
 10
0
 20
0
 30
0
  9
$PUCSORGFRONT
 10
0
 20
0
 30
0
  9
$PUCSORGBACK
 10
0
 20
0
 30
0
  9
$USERI1
 70
    0
  9
$USERI2
 70
    0
  9
$USERI3
 70
    0
  9
$USERI4
 70
    0
  9
$USERI5
 70
    0
  9
$USERR1
 40
0
  9
$USERR2
 40
0
  9
$USERR3
 40
0
  9
$USERR4
 40
0
  9
$USERR5
 40
0
  9
$WORLDVIEW
 70
    1
  9
$SHADEDGE
 70
    3
  9
$SHADEDIF
 70
   70
  9
$TILEMODE
 70
    1
  9
$MAXACTVP
 70
   64
  9
$PINSBASE
 10
0
 20
0
 30
0
  9
$PLIMCHECK
 70
    0
  9
$PEXTMIN
 10
1e+20
 20
1e+20
 30
1e+20
  9
$PEXTMAX
 10
-1e+20
 20
-1e+20
 30
-1e+20
  9
$GRIDMODE
 70
    1
  9
$SNAPSTYLE
 70
    0
  9
$PLIMMIN
 10
0
 20
0
  9
$PLIMMAX
 10
12
 20
9
  9
$UNITMODE
 70
    0
  9
$VISRETAIN
 70
    1
  9
$PLINEGEN
 70
    0
  9
$PSLTSCALE
 70
    1
  9
$TREEDEPTH
 70
 3020
  9
$CMLSTYLE
  2
Standard
  9
$CMLJUST
 70
    0
  9
$CMLSCALE
 40
1
  9
$PROXYGRAPHICS
 70
    1
  9
$MEASUREMENT
 70
    1
  9
$CELWEIGHT
370
   -1
  9
$ENDCAPS
280
    0
  9
$JOINSTYLE
280
    0
  9
$LWDISPLAY
290
    1
  9
$INSUNITS
 70
    0
  9
$HYPERLINKBASE
  1

  9
$STYLESHEET
  1

  9
$XEDIT
290
    1
  9
$CEPSNTYPE
380
    0
  9
$PSTYLEMODE
290
    1
  9
$EXTNAMES
290
    1
  9
$PSVPSCALE
 40
0
  9
$OLESTARTUP
290
    0
  0
ENDSEC
  0
SECTION
  2
CLASSES
  0
ENDSEC
  0
SECTION
  2
TABLES
  0
TABLE
  2
VPORT
  5
8
330
0
100
AcDbSymbolTable
 70
    1
  0
VPORT
  5
31
330
2
100
AcDbSymbolTableRecord
100
AcDbViewportTableRecord
  2
*ACTIVE
 70
    0
 10
0
 20
0
 11
1
 21
1
 12
668.5243191005028
 22
81.97381531827594
 13
0
 23
0
 14
10
 24
10
 15
10
 25
10
 16
0
 26
0
 36
1
 17
0
 27
0
 37
0
 40
1187.426528688036
 41
1.572386058981233
 42
50
 43
0
 44
0
 50
0
 51
0
 71
    0
 72
  100
 73
    1
 74
    3
 75
    0
 76
    1
 77
    0
 78
    0
281
    0
 65
    1
110
0
120
0
130
0
111
1
121
0
131
0
112
0
122
1
132
0
 79
    0
146
0
  0
ENDTAB
  0
TABLE
  2
LTYPE
  5
5
330
0
100
AcDbSymbolTable
 70
    4
  0
LTYPE
  5
14
330
5
100
AcDbSymbolTableRecord
100
AcDbLinetypeTableRecord
  2
ByBlock
 70
    0
  3

 72
   65
 73
    0
 40
0
  0
LTYPE
  5
15
330
5
100
AcDbSymbolTableRecord
100
AcDbLinetypeTableRecord
  2
ByLayer
 70
    0
  3

 72
   65
 73
    0
 40
0
  0
LTYPE
  5
16
330
5
100
AcDbSymbolTableRecord
100
AcDbLinetypeTableRecord
  2
Continuous
 70
    0
  3
Solid line
 72
   65
 73
    0
 40
0
  0
LTYPE
  5
32
330
5
100
AcDbSymbolTableRecord
100
AcDbLinetypeTableRecord
  2
DOT
 70
    0
  3
Dot . . . . . . . . . . . . . . . . . . . . . .
 72
   65
 73
    2
 40
6.35
 49
0
 74
    0
 49
-6.35
 74
    0
  0
LTYPE
  5
33
330
5
100
AcDbSymbolTableRecord
100
AcDbLinetypeTableRecord
  2
DOTTINY
 70
    0
  3
Dot (.15x) .....................................
 72
   65
 73
    2
 40
0.9525
 49
0
 74
    0
 49
-0.9525
 74
    0
  0
LTYPE
  5
34
330
5
100
AcDbSymbolTableRecord
100
AcDbLinetypeTableRecord
  2
DOT2
 70
    0
  3
Dot (.5x) .....................................
 72
   65
 73
    2
 40
3.175
 49
0
 74
    0
 49
-3.175
 74
    0
  0
LTYPE
  5
35
330
5
100
AcDbSymbolTableRecord
100
AcDbLinetypeTableRecord
  2
DOTX2
 70
    0
  3
Dot (2x) .  .  .  .  .  .  .  .  .  .  .  .  .
 72
   65
 73
    2
 40
12.7
 49
0
 74
    0
 49
-12.7
 74
    0
  0
LTYPE
  5
36
330
5
100
AcDbSymbolTableRecord
100
AcDbLinetypeTableRecord
  2
DASHED
 70
    0
  3
Dashed _ _ _ _ _ _ _ _ _ _ _ _ _ _ _ _ _
 72
   65
 73
    2
 40
19.05
 49
12.7
 74
    0
 49
-6.35
 74
    0
  0
LTYPE
  5
37
330
5
100
AcDbSymbolTableRecord
100
AcDbLinetypeTableRecord
  2
DASHEDTINY
 70
    0
  3
Dashed (.15x) _ _ _ _ _ _ _ _ _ _ _ _ _ _ _ _ _
 72
   65
 73
    2
 40
2.8575
 49
1.905
 74
    0
 49
-0.9525
 74
    0
  0
LTYPE
  5
38
330
5
100
AcDbSymbolTableRecord
100
AcDbLinetypeTableRecord
  2
DASHED2
 70
    0
  3
Dashed (.5x) _ _ _ _ _ _ _ _ _ _ _ _ _ _ _ _ _
 72
   65
 73
    2
 40
9.524999999999999
 49
6.35
 74
    0
 49
-3.175
 74
    0
  0
LTYPE
  5
39
330
5
100
AcDbSymbolTableRecord
100
AcDbLinetypeTableRecord
  2
DASHEDX2
 70
    0
  3
Dashed (2x) ____  ____  ____  ____  ____  ___
 72
   65
 73
    2
 40
38.09999999999999
 49
25.4
 74
    0
 49
-12.7
 74
    0
  0
LTYPE
  5
3A
330
5
100
AcDbSymbolTableRecord
100
AcDbLinetypeTableRecord
  2
DASHDOT
 70
    0
  3
Dash dot __ . __ . __ . __ . __ . __ . __ . __
 72
   65
 73
    4
 40
25.4
 49
12.7
 74
    0
 49
-6.35
 74
    0
 49
0
 74
    0
 49
-6.35
 74
    0
  0
LTYPE
  5
3B
330
5
100
AcDbSymbolTableRecord
100
AcDbLinetypeTableRecord
  2
DASHDOTTINY
 70
    0
  3
Dash dot (.15x) _._._._._._._._._._._._._._._.
 72
   65
 73
    4
 40
3.81
 49
1.905
 74
    0
 49
-0.9525
 74
    0
 49
0
 74
    0
 49
-0.9525
 74
    0
  0
LTYPE
  5
3C
330
5
100
AcDbSymbolTableRecord
100
AcDbLinetypeTableRecord
  2
DASHDOT2
 70
    0
  3
Dash dot (.5x) _._._._._._._._._._._._._._._.
 72
   65
 73
    4
 40
12.7
 49
6.35
 74
    0
 49
-3.175
 74
    0
 49
0
 74
    0
 49
-3.175
 74
    0
  0
LTYPE
  5
3D
330
5
100
AcDbSymbolTableRecord
100
AcDbLinetypeTableRecord
  2
DASHDOTX2
 70
    0
  3
Dash dot (2x) ____  .  ____  .  ____  .  ___
 72
   65
 73
    4
 40
50.8
 49
25.4
 74
    0
 49
-12.7
 74
    0
 49
0
 74
    0
 49
-12.7
 74
    0
  0
LTYPE
  5
3E
330
5
100
AcDbSymbolTableRecord
100
AcDbLinetypeTableRecord
  2
DIVIDE
 70
    0
  3
Divide ____ . . ____ . . ____ . . ____ . . ____
 72
   65
 73
    6
 40
31.75
 49
12.7
 74
    0
 49
-6.35
 74
    0
 49
0
 74
    0
 49
-6.35
 74
    0
 49
0
 74
    0
 49
-6.35
 74
    0
  0
LTYPE
  5
3F
330
5
100
AcDbSymbolTableRecord
100
AcDbLinetypeTableRecord
  2
DIVIDETINY
 70
    0
  3
Divide (.15x) __..__..__..__..__..__..__..__.._
 72
   65
 73
    6
 40
4.7625
 49
1.905
 74
    0
 49
-0.9525
 74
    0
 49
0
 74
    0
 49
-0.9525
 74
    0
 49
0
 74
    0
 49
-0.9525
 74
    0
  0
LTYPE
  5
40
330
5
100
AcDbSymbolTableRecord
100
AcDbLinetypeTableRecord
  2
DIVIDE2
 70
    0
  3
Divide (.5x) __..__..__..__..__..__..__..__.._
 72
   65
 73
    6
 40
15.875
 49
6.35
 74
    0
 49
-3.175
 74
    0
 49
0
 74
    0
 49
-3.175
 74
    0
 49
0
 74
    0
 49
-3.175
 74
    0
  0
LTYPE
  5
41
330
5
100
AcDbSymbolTableRecord
100
AcDbLinetypeTableRecord
  2
DIVIDEX2
 70
    0
  3
Divide (2x) ________  .  .  ________  .  .  _
 72
   65
 73
    6
 40
63.5
 49
25.4
 74
    0
 49
-12.7
 74
    0
 49
0
 74
    0
 49
-12.7
 74
    0
 49
0
 74
    0
 49
-12.7
 74
    0
  0
LTYPE
  5
42
330
5
100
AcDbSymbolTableRecord
100
AcDbLinetypeTableRecord
  2
BORDER
 70
    0
  3
Border __ __ . __ __ . __ __ . __ __ . __ __ .
 72
   65
 73
    6
 40
44.45
 49
12.7
 74
    0
 49
-6.35
 74
    0
 49
12.7
 74
    0
 49
-6.35
 74
    0
 49
0
 74
    0
 49
-6.35
 74
    0
  0
LTYPE
  5
43
330
5
100
AcDbSymbolTableRecord
100
AcDbLinetypeTableRecord
  2
BORDERTINY
 70
    0
  3
Border (.15x) __.__.__.__.__.__.__.__.__.__.__.
 72
   65
 73
    6
 40
6.6675
 49
1.905
 74
    0
 49
-0.9525
 74
    0
 49
1.905
 74
    0
 49
-0.9525
 74
    0
 49
0
 74
    0
 49
-0.9525
 74
    0
  0
LTYPE
  5
44
330
5
100
AcDbSymbolTableRecord
100
AcDbLinetypeTableRecord
  2
BORDER2
 70
    0
  3
Border (.5x) __.__.__.__.__.__.__.__.__.__.__.
 72
   65
 73
    6
 40
22.225
 49
6.35
 74
    0
 49
-3.175
 74
    0
 49
6.35
 74
    0
 49
-3.175
 74
    0
 49
0
 74
    0
 49
-3.175
 74
    0
  0
LTYPE
  5
45
330
5
100
AcDbSymbolTableRecord
100
AcDbLinetypeTableRecord
  2
BORDERX2
 70
    0
  3
Border (2x) ____  ____  .  ____  ____  .  ___
 72
   65
 73
    6
 40
88.89999999999999
 49
25.4
 74
    0
 49
-12.7
 74
    0
 49
25.4
 74
    0
 49
-12.7
 74
    0
 49
0
 74
    0
 49
-12.7
 74
    0
  0
LTYPE
  5
46
330
5
100
AcDbSymbolTableRecord
100
AcDbLinetypeTableRecord
  2
CENTER
 70
    0
  3
Center ____ _ ____ _ ____ _ ____ _ ____ _ ____
 72
   65
 73
    4
 40
50.8
 49
31.75
 74
    0
 49
-6.35
 74
    0
 49
6.35
 74
    0
 49
-6.35
 74
    0
  0
LTYPE
  5
47
330
5
100
AcDbSymbolTableRecord
100
AcDbLinetypeTableRecord
  2
CENTERTINY
 70
    0
  3
Center (.15x) ___ _ ___ _ ___ _ ___ _ ___ _ ___
 72
   65
 73
    4
 40
7.619999999999999
 49
4.7625
 74
    0
 49
-0.9525
 74
    0
 49
0.9525
 74
    0
 49
-0.9525
 74
    0
  0
LTYPE
  5
48
330
5
100
AcDbSymbolTableRecord
100
AcDbLinetypeTableRecord
  2
CENTER2
 70
    0
  3
Center (.5x) ___ _ ___ _ ___ _ ___ _ ___ _ ___
 72
   65
 73
    4
 40
28.575
 49
19.05
 74
    0
 49
-3.175
 74
    0
 49
3.175
 74
    0
 49
-3.175
 74
    0
  0
LTYPE
  5
49
330
5
100
AcDbSymbolTableRecord
100
AcDbLinetypeTableRecord
  2
CENTERX2
 70
    0
  3
Center (2x) ________  __  ________  __  _____
 72
   65
 73
    4
 40
101.6
 49
63.5
 74
    0
 49
-12.7
 74
    0
 49
12.7
 74
    0
 49
-12.7
 74
    0
  0
ENDTAB
  0
TABLE
  2
LAYER
  5
2
330
0
100
AcDbSymbolTable
 70
    1
  0
LAYER
  5
10
330
2
100
AcDbSymbolTableRecord
100
AcDbLayerTableRecord
  2
0
 70
    1
 62
    7
  6
CONTINUOUS
370
   -3
390
F
  0
LAYER
  5
4A
330
2
100
AcDbSymbolTableRecord
100
AcDbLayerTableRecord
  2
registre
 70
    0
 62
    1
  6
CONTINUOUS
370
    0
390
F
  0
LAYER
  5
4B
330
2
100
AcDbSymbolTableRecord
100
AcDbLayerTableRecord
  2
stripes
 70
    0
 62
    7
  6
CONTINUOUS
370
    0
390
F
  0
ENDTAB
  0
TABLE
  2
STYLE
  5
3
330
0
100
AcDbSymbolTable
 70
    3
  0
STYLE
  5
4C
330
2
100
AcDbSymbolTableRecord
100
AcDbTextStyleTableRecord
  2
Standard
 70
    0
 40
0
 41
1
 50
0
 71
    0
 42
1
  3
txt
  4

  0
ENDTAB
  0
TABLE
  2
VIEW
  5
6
330
0
100
AcDbSymbolTable
 70
    0
  0
ENDTAB
  0
TABLE
  2
UCS
  5
7
330
0
100
AcDbSymbolTable
 70
    0
  0
ENDTAB
  0
TABLE
  2
APPID
  5
9
330
0
100
AcDbSymbolTable
 70
    1
  0
APPID
  5
12
330
9
100
AcDbSymbolTableRecord
100
AcDbRegAppTableRecord
  2
ACAD
 70
    0
  0
APPID
  5
4D
330
9
100
AcDbSymbolTableRecord
100
AcDbRegAppTableRecord
  2
LibreCad
 70
    0
  0
ENDTAB
  0
TABLE
  2
DIMSTYLE
  5
A
330
0
100
AcDbSymbolTable
 70
    1
100
AcDbDimStyleTable
 71
    1
  0
DIMSTYLE
105
4E
330
A
100
AcDbSymbolTableRecord
100
AcDbDimStyleTableRecord
  2
Standard
 70
    0
 40
1
 41
0.18
 42
0.0625
 43
0.38
 44
0.18
 45
0
 46
0
 47
0
 48
0
 49
1
140
0.18
141
0.09
142
0
143
25.4
144
1
145
0
146
1
147
0.09
148
0
 71
    0
 72
    0
 73
    1
 74
    1
 75
    0
 76
    0
 77
    0
 78
    0
 79
    0
170
    0
171
    2
172
    0
173
    0
174
    0
175
    0
176
    0
177
    0
178
    0
179
    0
271
    4
272
    4
273
    2
274
    2
275
    0
276
    0
277
    2
278
   46
279
    0
280
    0
281
    0
282
    0
283
    1
284
    0
285
    0
286
    0
288
    0
289
    3
340
Standard
341

371
   -2
372
   -2
  0
ENDTAB
  0
TABLE
  2
BLOCK_RECORD
  5
1
330
0
100
AcDbSymbolTable
 70
    2
  0
BLOCK_RECORD
  5
1F
330
1
100
AcDbSymbolTableRecord
100
AcDbBlockTableRecord
  2
*Model_Space
  0
BLOCK_RECORD
  5
1E
330
1
100
AcDbSymbolTableRecord
100
AcDbBlockTableRecord
  2
*Paper_Space
  0
BLOCK_RECORD
  5
4F
330
1
100
AcDbSymbolTableRecord
100
AcDbBlockTableRecord
  2
Block_0
  0
BLOCK_RECORD
  5
52
330
1
100
AcDbSymbolTableRecord
100
AcDbBlockTableRecord
  2
Block_1
  0
BLOCK_RECORD
  5
55
330
1
100
AcDbSymbolTableRecord
100
AcDbBlockTableRecord
  2
Block_2
  0
BLOCK_RECORD
  5
58
330
1
100
AcDbSymbolTableRecord
100
AcDbBlockTableRecord
  2
Block_3
  0
BLOCK_RECORD
  5
5B
330
1
100
AcDbSymbolTableRecord
100
AcDbBlockTableRecord
  2
Block_4
  0
BLOCK_RECORD
  5
5E
330
1
100
AcDbSymbolTableRecord
100
AcDbBlockTableRecord
  2
Block_5
  0
BLOCK_RECORD
  5
61
330
1
100
AcDbSymbolTableRecord
100
AcDbBlockTableRecord
  2
Block_6
  0
BLOCK_RECORD
  5
64
330
1
100
AcDbSymbolTableRecord
100
AcDbBlockTableRecord
  2
Block_7
  0
BLOCK_RECORD
  5
67
330
1
100
AcDbSymbolTableRecord
100
AcDbBlockTableRecord
  2
nsec2023
  0
BLOCK_RECORD
  5
6A
330
1
100
AcDbSymbolTableRecord
100
AcDbBlockTableRecord
  2
Block_0-0
  0
BLOCK_RECORD
  5
6D
330
1
100
AcDbSymbolTableRecord
100
AcDbBlockTableRecord
  2
nsec2023-0
  0
BLOCK_RECORD
  5
70
330
1
100
AcDbSymbolTableRecord
100
AcDbBlockTableRecord
  2
Block_0-1
  0
BLOCK_RECORD
  5
73
330
1
100
AcDbSymbolTableRecord
100
AcDbBlockTableRecord
  2
crest
  0
BLOCK_RECORD
  5
76
330
1
100
AcDbSymbolTableRecord
100
AcDbBlockTableRecord
  2
Block_0-2
  0
BLOCK_RECORD
  5
79
330
1
100
AcDbSymbolTableRecord
100
AcDbBlockTableRecord
  2
Block_1-0
  0
BLOCK_RECORD
  5
7C
330
1
100
AcDbSymbolTableRecord
100
AcDbBlockTableRecord
  2
OLEDnote
  0
ENDTAB
  0
ENDSEC
  0
SECTION
  2
BLOCKS
  0
BLOCK
  5
20
330
1F
100
AcDbEntity
  8
0
100
AcDbBlockBegin
  2
*Model_Space
 70
    0
 10
0
 20
0
 30
0
  3
*Model_Space
  1

  0
ENDBLK
  5
21
330
1F
100
AcDbEntity
  8
0
100
AcDbBlockEnd
  0
BLOCK
  5
1C
330
1B
100
AcDbEntity
  8
0
100
AcDbBlockBegin
  2
*Paper_Space
 70
    0
 10
0
 20
0
 30
0
  3
*Paper_Space
  1

  0
ENDBLK
  5
1D
330
1F
100
AcDbEntity
  8
0
100
AcDbBlockEnd
  0
BLOCK
  5
50
330
4F
100
AcDbEntity
  8
0
100
AcDbBlockBegin
  2
Block_0
 70
    0
 10
0
 20
0
  3
Block_0
  1

  0
ENDBLK
  5
51
330
4F
100
AcDbEntity
  8
0
100
AcDbBlockEnd
  0
BLOCK
  5
53
330
52
100
AcDbEntity
  8
0
100
AcDbBlockBegin
  2
Block_1
 70
    0
 10
0
 20
0
  3
Block_1
  1

  0
INSERT
  5
7F
100
AcDbEntity
  8
stripes
  6
ByLayer
 62
  256
370
   -1
100
AcDbBlockReference
  2
Block_2
 10
0
 20
0
 30
0
 41
1
 42
1
 43
0
 50
0
 70
    1
 71
    1
 44
0
 45
0
  0
INSERT
  5
80
100
AcDbEntity
  8
stripes
  6
ByLayer
 62
  256
370
   -1
100
AcDbBlockReference
  2
Block_3
 10
0
 20
0
 30
0
 41
1
 42
1
 43
0
 50
0
 70
    1
 71
    1
 44
0
 45
0
  0
ENDBLK
  5
54
330
52
100
AcDbEntity
  8
0
100
AcDbBlockEnd
  0
BLOCK
  5
56
330
55
100
AcDbEntity
  8
0
100
AcDbBlockBegin
  2
Block_2
 70
    0
 10
0
 20
0
  3
Block_2
  1

  0
LWPOLYLINE
  5
81
100
AcDbEntity
  8
stripes
  6
ByLayer
 62
  256
370
   -1
100
AcDbPolyline
 90
    4
 70
    1
 43
0
 10
331.6845703125
 20
-250.5393676757813
 10
257.2158813476562
 20
-176.0696411132812
 10
157.2534790039062
 20
-176.0696411132812
 10
231.7244873046884
 20
-250.5393676757813
  0
LWPOLYLINE
  5
82
100
AcDbEntity
  8
stripes
  6
ByLayer
 62
  256
370
   -1
100
AcDbPolyline
 90
    6
 70
    1
 43
0
 10
271.6626586914062
 20
-290.4768676757813
 10
393.5958862304687
 20
-412.4080200195312
 10
146.21240234375
 20
-659.7874755859375
 10
246.175048828125
 20
-659.7874755859375
 10
493.551025390625
 20
-412.4080200195312
 10
371.6215209960938
 20
-290.4768676757813
  0
ENDBLK
  5
57
330
55
100
AcDbEntity
  8
0
100
AcDbBlockEnd
  0
BLOCK
  5
59
330
58
100
AcDbEntity
  8
0
100
AcDbBlockBegin
  2
Block_3
 70
    0
 10
0
 20
0
  3
Block_3
  1

  0
LWPOLYLINE
  5
83
100
AcDbEntity
  8
stripes
  6
ByLayer
 62
  256
370
   -1
100
AcDbPolyline
 90
    6
 70
    1
 43
0
 10
545.3458862304688
 20
-290.4768676757813
 10
445.3870239257812
 20
-290.4768676757813
 10
567.3202514648438
 20
-412.4080200195312
 10
319.9367065429687
 20
-659.7874755859375
 10
419.8993530273437
 20
-659.7874755859375
 10
667.2753295898438
 20
-412.4080200195312
  0
LWPOLYLINE
  5
84
100
AcDbEntity
  8
stripes
  6
ByLayer
 62
  256
370
   -1
100
AcDbPolyline
 90
    4
 70
    1
 43
0
 10
505.4089355468749
 20
-250.5393676757813
 10
430.9402465820312
 20
-176.0696411132812
 10
330.9778442382813
 20
-176.0696411132812
 10
405.4488525390625
 20
-250.5393676757813
  0
ENDBLK
  5
5A
330
58
100
AcDbEntity
  8
0
100
AcDbBlockEnd
  0
BLOCK
  5
5C
330
5B
100
AcDbEntity
  8
0
100
AcDbBlockBegin
  2
Block_4
 70
    0
 10
0
 20
0
  3
Block_4
  1

  0
LWPOLYLINE
  5
85
100
AcDbEntity
  8
stripes
  6
ByLayer
 62
  256
370
   -1
100
AcDbPolyline
 90
    6
 70
    1
 43
0
 10
604.6688232421875
 20
-176.0696411132812
 10
504.7064819335937
 20
-176.0696411132812
 10
721.7471923828124
 20
-393.1066284179688
 10
721.7471923828124
 20
-378.8697509765625
 10
673.5328979492188
 20
-330.6554565429688
 10
673.5328979492188
 20
-244.9346313476563
  0
LWPOLYLINE
  5
86
100
AcDbEntity
  8
stripes
  6
ByLayer
 62
  256
370
   -1
100
AcDbPolyline
 90
    6
 70
    1
 43
0
 10
673.5328979492188
 20
-579.8814697265624
 10
673.5328979492188
 20
-523.5125732421875
 10
721.7471923828124
 20
-475.2982788085937
 10
721.7471923828124
 20
-431.7094116210937
 10
493.6653442382812
 20
-659.7874755859375
 10
593.6279907226562
 20
-659.7874755859375
  0
ENDBLK
  5
5D
330
5B
100
AcDbEntity
  8
0
100
AcDbBlockEnd
  0
BLOCK
  5
5F
330
5E
100
AcDbEntity
  8
0
100
AcDbBlockBegin
  2
Block_5
 70
    0
 10
0
 20
0
  3
Block_5
  1

  0
ENDBLK
  5
60
330
5E
100
AcDbEntity
  8
0
100
AcDbBlockEnd
  0
BLOCK
  5
62
330
61
100
AcDbEntity
  8
0
100
AcDbBlockBegin
  2
Block_6
 70
    0
 10
0
 20
0
  3
Block_6
  1

  0
ENDBLK
  5
63
330
61
100
AcDbEntity
  8
0
100
AcDbBlockEnd
  0
BLOCK
  5
65
330
64
100
AcDbEntity
  8
0
100
AcDbBlockBegin
  2
Block_7
 70
    0
 10
0
 20
0
  3
Block_7
  1

  0
ENDBLK
  5
66
330
64
100
AcDbEntity
  8
0
100
AcDbBlockEnd
  0
BLOCK
  5
68
330
67
100
AcDbEntity
  8
0
100
AcDbBlockBegin
  2
nsec2023
 70
    0
 10
0
 20
0
  3
nsec2023
  1

  0
ENDBLK
  5
69
330
67
100
AcDbEntity
  8
0
100
AcDbBlockEnd
  0
BLOCK
  5
6B
330
6A
100
AcDbEntity
  8
0
100
AcDbBlockBegin
  2
Block_0-0
 70
    0
 10
0
 20
0
  3
Block_0-0
  1

  0
ENDBLK
  5
6C
330
6A
100
AcDbEntity
  8
0
100
AcDbBlockEnd
  0
BLOCK
  5
6E
330
6D
100
AcDbEntity
  8
0
100
AcDbBlockBegin
  2
nsec2023-0
 70
    0
 10
0
 20
0
  3
nsec2023-0
  1

  0
ENDBLK
  5
6F
330
6D
100
AcDbEntity
  8
0
100
AcDbBlockEnd
  0
BLOCK
  5
71
330
70
100
AcDbEntity
  8
0
100
AcDbBlockBegin
  2
Block_0-1
 70
    0
 10
0
 20
0
  3
Block_0-1
  1

  0
ENDBLK
  5
72
330
70
100
AcDbEntity
  8
0
100
AcDbBlockEnd
  0
BLOCK
  5
74
330
73
100
AcDbEntity
  8
0
100
AcDbBlockBegin
  2
crest
 70
    0
 10
0
 20
0
  3
crest
  1

  0
ENDBLK
  5
75
330
73
100
AcDbEntity
  8
0
100
AcDbBlockEnd
  0
BLOCK
  5
77
330
76
100
AcDbEntity
  8
0
100
AcDbBlockBegin
  2
Block_0-2
 70
    0
 10
0
 20
0
  3
Block_0-2
  1

  0
ENDBLK
  5
78
330
76
100
AcDbEntity
  8
0
100
AcDbBlockEnd
  0
BLOCK
  5
7A
330
79
100
AcDbEntity
  8
0
100
AcDbBlockBegin
  2
Block_1-0
 70
    0
 10
0
 20
0
  3
Block_1-0
  1

  0
ENDBLK
  5
7B
330
79
100
AcDbEntity
  8
0
100
AcDbBlockEnd
  0
BLOCK
  5
7D
330
7C
100
AcDbEntity
  8
0
100
AcDbBlockBegin
  2
OLEDnote
 70
    0
 10
0
 20
0
  3
OLEDnote
  1

  0
ENDBLK
  5
7E
330
7C
100
AcDbEntity
  8
0
100
AcDbBlockEnd
  0
ENDSEC
  0
SECTION
  2
ENTITIES
  0
LWPOLYLINE
  5
87
100
AcDbEntity
  8
stripes
  6
ByLayer
 62
  256
370
   -1
100
AcDbPolyline
 90
    6
 70
    1
 43
0
 10
604.6688232421875
 20
-176.0696411132812
 10
504.7064819335937
 20
-176.0696411132812
 10
721.7471923828124
 20
-393.1066284179688
 10
721.7471923828124
 20
-378.8697509765625
 10
673.5328979492188
 20
-330.6554565429688
 10
673.5328979492188
 20
-244.9346313476563
  0
LWPOLYLINE
  5
88
100
AcDbEntity
  8
stripes
  6
ByLayer
 62
  256
370
   -1
100
AcDbPolyline
 90
    4
 70
    1
 43
0
 10
331.6845703125
 20
-250.5393676757813
 10
257.2158813476562
 20
-176.0696411132812
 10
157.2534790039062
 20
-176.0696411132812
 10
231.7244873046884
 20
-250.5393676757813
  0
LINE
  5
89
100
AcDbEntity
  8
stripes
  6
ByLayer
 62
  256
370
   -1
100
AcDbLine
 10
146.21240234375
 20
-659.7874755859375
 11
246.175048828125
 21
-659.7874755859375
  0
LINE
  5
8A
100
AcDbEntity
  8
stripes
  6
ByLayer
 62
  256
370
   -1
100
AcDbLine
 10
371.6215209960938
 20
-290.4768676757813
 11
271.6626586914062
 21
-290.4768676757813
  0
LWPOLYLINE
  5
8B
100
AcDbEntity
  8
stripes
  6
ByLayer
 62
  256
370
   -1
100
AcDbPolyline
 90
    4
 70
    1
 43
0
 10
505.4089355468749
 20
-250.5393676757813
 10
430.9402465820312
 20
-176.0696411132812
 10
330.9778442382813
 20
-176.0696411132812
 10
405.4488525390625
 20
-250.5393676757813
  0
LINE
  5
8C
100
AcDbEntity
  8
stripes
  6
ByLayer
 62
  256
370
   -1
100
AcDbLine
 10
545.3458862304688
 20
-290.4768676757813
 11
445.3870239257812
 21
-290.4768676757813
  0
LINE
  5
8D
100
AcDbEntity
  8
stripes
  6
ByLayer
 62
  256
370
   -1
100
AcDbLine
 10
319.9367065429687
 20
-659.7874755859375
 11
419.8993530273437
 21
-659.7874755859375
  0
LINE
  5
8E
100
AcDbEntity
  8
stripes
  6
ByLayer
 62
  256
370
   -1
100
AcDbLine
 10
419.8993530273437
 20
-659.7874755859375
 11
667.2753295898438
 21
-412.4080200195312
  0
LINE
  5
8F
100
AcDbEntity
  8
stripes
  6
ByLayer
 62
  256
370
   -1
100
AcDbLine
 10
667.2753295898438
 20
-412.4080200195312
 11
574.8686047591079
 21
-320
  0
LINE
  5
90
100
AcDbEntity
  8
stripes
  6
ByLayer
 62
  256
370
   -1
100
AcDbLine
 10
574.8686047591079
 20
-320
 11
545.3458862304688
 21
-290.4768676757813
  0
LINE
  5
91
100
AcDbEntity
  8
stripes
  6
ByLayer
 62
  256
370
   -1
100
AcDbLine
 10
401.1442543031466
 20
-320
 11
371.6215209960938
 21
-290.4768676757813
  0
LINE
  5
92
100
AcDbEntity
  8
stripes
  6
ByLayer
 62
  256
370
   -1
100
AcDbLine
 10
246.175048828125
 20
-659.7874755859375
 11
455.9595740823731
 21
-449.9999999999999
  0
LINE
  5
93
100
AcDbEntity
  8
stripes
  6
ByLayer
 62
  256
370
   -1
100
AcDbLine
 10
529.7276500626463
 20
-450.0000000000001
 11
319.9367065429687
 21
-659.7874755859375
  0
LINE
  5
94
100
AcDbEntity
  8
stripes
  6
ByLayer
 62
  256
370
   -1
100
AcDbLine
 10
529.7276500626463
 20
-450.0000000000001
 11
455.9595740823731
 21
-449.9999999999999
  0
LINE
  5
95
100
AcDbEntity
  8
stripes
  6
ByLayer
 62
  256
370
   -1
100
AcDbLine
 10
445.3870239257812
 20
-290.4768676757813
 11
474.9106587160608
 21
-320
  0
LINE
  5
96
100
AcDbEntity
  8
stripes
  6
ByLayer
 62
  256
370
   -1
100
AcDbLine
 10
401.1442543031466
 20
-320
 11
474.9106587160608
 21
-320
  0
LINE
  5
97
100
AcDbEntity
  8
stripes
  6
ByLayer
 62
  256
370
   -1
100
AcDbLine
 10
673.5328979492188
 20
-579.8814697265624
 11
673.5328979492188
 21
-523.5125732421875
  0
LINE
  5
98
100
AcDbEntity
  8
stripes
  6
ByLayer
 62
  256
370
   -1
100
AcDbLine
 10
673.5328979492188
 20
-523.5125732421875
 11
721.7471923828124
 21
-475.2982788085937
  0
LINE
  5
99
100
AcDbEntity
  8
stripes
  6
ByLayer
 62
  256
370
   -1
100
AcDbLine
 10
721.7471923828124
 20
-475.2982788085937
 11
721.7471923828124
 21
-431.7094116210937
  0
LINE
  5
9A
100
AcDbEntity
  8
stripes
  6
ByLayer
 62
  256
370
   -1
100
AcDbLine
 10
493.6653442382812
 20
-659.7874755859375
 11
593.6279907226562
 21
-659.7874755859375
  0
LINE
  5
9B
100
AcDbEntity
  8
stripes
  6
ByLayer
 62
  256
370
   -1
100
AcDbLine
 10
503.452982214085
 20
-650
 11
493.6653442382812
 21
-659.7874755859375
  0
LINE
  5
9C
100
AcDbEntity
  8
stripes
  6
ByLayer
 62
  256
370
   -1
100
AcDbLine
 10
721.7471923828124
 20
-431.7094116210937
 11
533.4534799620432
 21
-620
  0
LINE
  5
9D
100
AcDbEntity
  8
stripes
  6
ByLayer
 62
  256
370
   -1
100
AcDbLine
 10
633.4149192680336
 20
-620
 11
673.5328979492188
 21
-579.8814697265624
  0
LINE
  5
9E
100
AcDbEntity
  8
stripes
  6
ByLayer
 62
  256
370
   -1
100
AcDbLine
 10
593.6279907226562
 20
-659.7874755859375
 11
603.4153317399628
 21
-650
  0
LINE
  5
9F
100
AcDbEntity
  8
stripes
  6
ByLayer
 62
  256
370
   -1
100
AcDbLine
 10
145.732774259741
 20
-337.0710678118658
 11
179.2471712518918
 21
-370.585464804016
  0
ARC
  5
A0
100
AcDbEntity
  8
stripes
  6
ByLayer
 62
  256
370
   -1
100
AcDbCircle
 10
152.8038420716064
 20
-330.0000000000003
 40
10
100
AcDbArc
 50
90.00000000000017
 51
225.0000000000006
  0
LINE
  5
A1
100
AcDbEntity
  8
stripes
  6
ByLayer
 62
  256
370
   -1
100
AcDbLine
 10
152.8038420716064
 20
-320.0000000000003
 11
277.0438673180752
 21
-320.0000000000001
  0
LINE
  5
A2
100
AcDbEntity
  8
stripes
  6
ByLayer
 62
  256
370
   -1
100
AcDbLine
 10
271.6626586914062
 20
-290.4768676757813
 11
284.1148749575234
 21
-302.9288720162294
  0
ARC
  5
A3
100
AcDbEntity
  8
stripes
  6
ByLayer
 62
  256
370
   -1
100
AcDbCircle
 10
277.0438673180752
 20
-310.0000000000001
 40
10
100
AcDbArc
 50
270
 51
45.00048756580654
  0
LINE
  5
A4
100
AcDbEntity
  8
stripes
  6
ByLayer
 62
  256
370
   -1
100
AcDbLine
 10
338.9318907337819
 20
-467.0711253837002
 11
146.21240234375
 21
-659.7874755859375
  0
ARC
  5
A5
100
AcDbEntity
  8
stripes
  6
ByLayer
 62
  256
370
   -1
100
AcDbCircle
 10
331.8608804942198
 20
-460
 40
10
100
AcDbArc
 50
314.9995335023422
 51
90
  0
LINE
  5
A6
100
AcDbEntity
  8
stripes
  6
ByLayer
 62
  256
370
   -1
100
AcDbLine
 10
179.2471712518918
 20
-370.585464804016
 11
179.2471712518918
 21
-429.9999999999999
  0
LINE
  5
A7
100
AcDbEntity
  8
stripes
  6
ByLayer
 62
  256
370
   -1
100
AcDbLine
 10
331.8608804942198
 20
-450.0000000000001
 11
199.2471712518918
 21
-449.9999999999999
  0
CIRCLE
  5
A8
100
AcDbEntity
  8
registre
  6
ByLayer
 62
  256
370
   -1
100
AcDbCircle
 10
111.0328855376055
 20
-523.5125931943348
 40
0
  0
CIRCLE
  5
A9
100
AcDbEntity
  8
registre
  6
ByLayer
 62
  256
370
   -1
100
AcDbCircle
 10
111.0328855376055
 20
-523.5125931943348
 40
6.512676222067245
  0
LINE
  5
AA
100
AcDbEntity
  8
registre
  6
ByLayer
 62
  256
370
   -1
100
AcDbLine
 10
111.0328855376055
 20
-523.5125931943348
 11
111.0328855376055
 21
-516.9999169722676
  0
LINE
  5
AB
100
AcDbEntity
  8
registre
  6
ByLayer
 62
  256
370
   -1
100
AcDbLine
 10
111.0328855376055
 20
-523.5125931943348
 11
104.5202093155383
 21
-523.5125931943348
  0
LINE
  5
AC
100
AcDbEntity
  8
registre
  6
ByLayer
 62
  256
370
   -1
100
AcDbLine
 10
111.0328855376055
 20
-523.5125931943348
 11
117.5455617596727
 21
-523.5125931943348
  0
LINE
  5
AD
100
AcDbEntity
  8
registre
  6
ByLayer
 62
  256
370
   -1
100
AcDbLine
 10
111.0328855376055
 20
-523.5125931943348
 11
111.0328855376055
 21
-530.0252694164021
  0
LINE
  5
AE
100
AcDbEntity
  8
stripes
  6
ByLayer
 62
  256
370
   -1
100
AcDbLine
 10
633.4149192680337
 20
-620
 11
533.4534799620432
 21
-620
  0
LINE
  5
AF
100
AcDbEntity
  8
stripes
  6
ByLayer
 62
  256
370
   -1
100
AcDbLine
 10
503.4529822140848
 20
-650
 11
603.4153317399627
 21
-650
  0
LINE
  5
B0
100
AcDbEntity
  8
stripes
  6
ByLayer
 62
  256
370
   -1
100
AcDbLine
 10
179.2471712518918
 20
-429.9999999999999
 11
199.2471712518918
 21
-449.9999999999999
  0
ENDSEC
  0
SECTION
  2
OBJECTS
  0
DICTIONARY
  5
C
330
0
100
AcDbDictionary
281
    1
  3
ACAD_GROUP
350
D
  0
DICTIONARY
  5
D
330
C
100
AcDbDictionary
281
    1
  0
PLOTSETTINGS
  5
B1
100
AcDbPlotSettings
  6
1x1
 40
0
 41
0
 42
0
 43
0
  0
ENDSEC
  0
EOF
