M48
; DRILL file {KiCad 8.0.8} date 2025-03-20T15:34:03-0300
; FORMAT={-:-/ absolute / inch / decimal}
; #@! TF.CreationDate,2025-03-20T15:34:03-03:00
; #@! TF.GenerationSoftware,Kicad,Pcbnew,8.0.8
; #@! TF.FileFunction,Plated,1,2,PTH
FMAT,2
INCH
; #@! TA.AperFunction,Plated,PTH,ViaDrill
T1C0.0118
; #@! TA.AperFunction,Plated,PTH,ViaDrill
T2C0.0157
; #@! TA.AperFunction,Plated,PTH,ComponentDrill
T3C0.0315
; #@! TA.AperFunction,Plated,PTH,ComponentDrill
T4C0.0360
; #@! TA.AperFunction,Plated,PTH,ComponentDrill
T5C0.0394
; #@! TA.AperFunction,Plated,PTH,ComponentDrill
T6C0.0400
; #@! TA.AperFunction,Plated,PTH,ComponentDrill
T7C0.0402
; #@! TA.AperFunction,Plated,PTH,ComponentDrill
T8C0.1969
%
G90
G05
T1
X3.998Y-5.02
X4.0214Y-4.126
X4.0236Y-5.0768
X4.1359Y-4.126
X4.2087Y-4.6014
X4.2441Y-3.248
X4.2953Y-3.2244
X4.2992Y-2.815
X4.3307Y-2.6378
X4.3583Y-1.9764
X4.3602Y-2.815
X4.4055Y-4.2677
X4.4173Y-1.9764
X4.4173Y-2.8189
X4.4764Y-1.9764
X4.4783Y-2.622
X4.5Y-5.0502
X4.5236Y-5.0906
X4.5354Y-1.9764
X4.5728Y-2.6083
X4.5787Y-5.3425
X4.6063Y-3.6555
X4.6181Y-5.3425
X4.7009Y-3.48
X4.7028Y-4.0128
X5.0709Y-4.6575
X5.1102Y-4.6299
X5.1181Y-4.2047
X5.1575Y-4.2057
X5.1575Y-4.5512
X5.1929Y-4.5433
X5.2028Y-4.2077
X5.2441Y-4.5472
X5.248Y-4.2106
X5.3342Y-4.5394
X5.4228Y-4.5394
X5.4341Y-4.1339
X5.5079Y-4.3169
X5.5197Y-4.7441
X5.5354Y-4.1496
X5.5354Y-4.185
X5.5472Y-4.7972
X5.5551Y-4.3406
X5.5586Y-4.2653
X5.5709Y-4.8268
X5.748Y-4.2047
X5.8228Y-5.25
X5.9709Y-5.245
X6.5024Y-5.2976
X6.5886Y-5.2736
X6.6209Y-1.5
X6.6209Y-2.29
X6.7759Y-1.79
X6.7816Y-4.3622
X6.7953Y-2.4409
X6.8268Y-2.4567
X6.9193Y-1.063
X6.9625Y-2.2441
X6.9921Y-1.2913
X7.0767Y-2.2441
X7.1909Y-1.695
X7.2182Y-1.8724
X7.2205Y-5.16
X7.2598Y-4.8346
X7.2913Y-4.815
T2
X4.1111Y-4.6665
X4.1457Y-4.0591
X4.16Y-4.7079
X4.185Y-4.185
X4.2088Y-4.6683
X4.2659Y-5.165
X4.2809Y-1.9
X4.3898Y-1.4803
X4.4094Y-4.7559
X4.4193Y-5.3365
X4.5571Y-4.0669
X4.626Y-1.8307
X4.6417Y-3.8971
X4.811Y-5.2894
X4.8642Y-5.3268
X5.2142Y-5.3248
X5.435Y-5.3209
X5.5142Y-5.3248
X5.7642Y-5.3189
X5.8142Y-5.3346
X6.0142Y-5.2858
X6.0642Y-5.326
X6.3642Y-5.3248
X6.4142Y-5.3248
X6.6564Y-4.425
X6.7114Y-4.48
X6.7165Y-1.3937
X6.7595Y-4.4264
X6.8012Y-5.3248
X6.876Y-1.6142
X6.9642Y-5.3248
X6.9646Y-4.5079
X7.1659Y-5.325
X7.2159Y-5.325
X7.2909Y-4.6762
X7.315Y-5.1909
T4
X4.1902Y-4.435
X4.2902Y-4.435
T5
X4.3354Y-3.3317
X4.3354Y-3.4317
X4.3354Y-3.5317
X4.3354Y-3.6317
X4.3354Y-3.7317
X4.3354Y-3.8317
X4.6201Y-5.1496
X4.7201Y-5.1496
X4.8201Y-5.1496
X4.9201Y-5.1496
X4.9791Y-4.1965
X4.9791Y-4.2965
X4.9791Y-4.3965
X4.9791Y-4.4965
X5.0201Y-5.1496
X5.1201Y-5.1496
X5.2201Y-5.1496
X5.3201Y-5.1496
X5.4201Y-5.1496
X5.5201Y-5.1496
X6.8898Y-4.6693
X6.9898Y-4.6693
X7.0354Y-3.3317
X7.0354Y-3.4317
X7.0354Y-3.5317
X7.0354Y-3.6317
X7.0354Y-3.7317
X7.0354Y-3.8317
X7.0898Y-4.6693
T6
X4.4115Y-4.435
X4.5124Y-4.4359
X4.6121Y-4.4366
T7
X5.7609Y-4.67
X6.2609Y-4.67
T8
X4.1543Y-1.0039
X7.2259Y-1.0039
T3
G00X7.1779Y-2.123
M15
G01X7.1464Y-2.123
M16
G05
G00X7.1779Y-2.4636
M15
G01X7.1464Y-2.4636
M16
G05
G00X7.3385Y-2.123
M15
G01X7.3149Y-2.123
M16
G05
G00X7.3385Y-2.4636
M15
G01X7.3149Y-2.4636
M16
G05
M30
